<?xml version="1.0"?>
<svg xmlns="http://www.w3.org/2000/svg" xmlns:xlink="http://www.w3.org/1999/xlink" fill="none" stroke-linecap="square" stroke-miterlimit="10" viewBox="0 0 1144 707">
  <clipPath id="a">
    <path d="m99.35 79.916664h1009.3v539.733336h-1009.3z"/>
  </clipPath>
  <path d="m0 0h1144v707h-1144z" fill="#fff"/>
  <g stroke-linecap="butt">
    <path d="m99.5 619.5h1009" stroke="#333"/>
    <path d="m99.5 439.5h1009" stroke="#ccc"/>
    <path d="m99.5 259.5h1009" stroke="#ccc"/>
    <path d="m99.5 79.5h1009" stroke="#ccc"/>
    <path d="m748.1857 488.5069v16" stroke="#eee"/>
    <path d="m892.3714 538.52216v16" stroke="#eee"/>
    <path d="m1036.5571 537.0829v16" stroke="#eee"/>
    <path d="m748.1857 406.82724v16" stroke="#eee"/>
    <path d="m892.3714 385.2379v16" stroke="#eee"/>
    <path d="m1036.5571 449.28625v16" stroke="#eee"/>
    <path d="m604 454.3238v16" stroke="#eee"/>
    <path d="m748.1857 362.56912v16" stroke="#eee"/>
    <path d="m892.3714 204.24733v16" stroke="#eee"/>
    <path d="m1036.5571 117.530174v16.000006" stroke="#eee"/>
    <path clip-path="url(#a)" d="m171.44286 583.6678 144.18571-10.075 144.18573-29.14566 144.1857-51.81439 144.1857 11.87415 144.1857 50.01526 144.1857-1.43926" stroke="#4285f4" stroke-width="2"/>
    <path clip-path="url(#a)" d="m171.44286 583.6678 144.18571-11.1545 144.18573-34.1831 144.1857-61.52963 144.1857-53.97333 144.1857-21.58934 144.1857 64.04835" stroke="#ea4335" stroke-width="2"/>
    <path clip-path="url(#a)" d="m171.44286 583.6678 144.18571-11.87416 144.18573-33.10364 144.1857-68.3662 144.1857-91.75468 144.1857-158.32179 144.1857-86.71715" stroke="#34a853" stroke-width="2"/>
  </g>
  <path clip-path="url(#a)" d="m177.44286 583.6678c0 3.3137-2.6863 6-6 6-3.31371 0-6-2.6863-6-6 0-3.31374 2.68629-6 6-6 3.3137 0 6 2.68626 6 6z" fill="#4285f4"/>
  <path clip-path="url(#a)" d="m321.62857 573.5928c0 3.3137-2.68627 6-6 6-3.31372 0-6-2.6863-6-6 0-3.31375 2.68628-6 6-6 3.31373 0 6 2.68625 6 6z" fill="#4285f4"/>
  <path clip-path="url(#a)" d="m465.8143 544.44714c0 3.31372-2.6863 6-6 6-3.31372 0-6-2.68628-6-6 0-3.31374 2.68628-6 6-6 3.3137 0 6 2.68626 6 6z" fill="#4285f4"/>
  <path clip-path="url(#a)" d="m610 492.63275c0 3.31372-2.6863 6-6 6s-6-2.68628-6-6c0-3.31369 2.6863-6 6-6s6 2.68631 6 6z" fill="#4285f4"/>
  <path clip-path="url(#a)" d="m754.1857 504.5069c0 3.3137-2.68625 6-6 6-3.3137 0-6-2.6863-6-6 0-3.31372 2.6863-6 6-6 3.31375 0 6 2.68628 6 6z" fill="#4285f4"/>
  <path clip-path="url(#a)" d="m898.3714 554.52216c0 3.31374-2.6863 6-6 6-3.31366 0-6-2.68626-6-6 0-3.31366 2.68634-6 6-6 3.3137 0 6 2.68634 6 6z" fill="#4285f4"/>
  <path clip-path="url(#a)" d="m1042.5571 553.0829c0 3.3137-2.6863 6-6 6s-6-2.6863-6-6c0-3.31373 2.6863-6 6-6s6 2.68627 6 6z" fill="#4285f4"/>
  <path clip-path="url(#a)" d="m177.44286 583.6678c0 3.3137-2.6863 6-6 6-3.31371 0-6-2.6863-6-6 0-3.31374 2.68629-6 6-6 3.3137 0 6 2.68626 6 6z" fill="#ea4335"/>
  <path clip-path="url(#a)" d="m321.62857 572.5133c0 3.3137-2.68627 6-6 6-3.31372 0-6-2.6863-6-6s2.68628-6 6-6c3.31373 0 6 2.6863 6 6z" fill="#ea4335"/>
  <path clip-path="url(#a)" d="m465.8143 538.3302c0 3.31366-2.6863 6-6 6-3.31372 0-6-2.68634-6-6 0-3.3137 2.68628-6 6-6 3.3137 0 6 2.6863 6 6z" fill="#ea4335"/>
  <path clip-path="url(#a)" d="m610 476.80057c0 3.31373-2.6863 6-6 6s-6-2.68627-6-6c0-3.31369 2.6863-6 6-6s6 2.68631 6 6z" fill="#ea4335"/>
  <path clip-path="url(#a)" d="m754.1857 422.82724c0 3.31372-2.68625 6-6 6-3.3137 0-6-2.68628-6-6 0-3.31369 2.6863-6 6-6 3.31375 0 6 2.68631 6 6z" fill="#ea4335"/>
  <path clip-path="url(#a)" d="m898.3714 401.2379c0 3.3137-2.6863 6-6 6-3.31366 0-6-2.6863-6-6s2.68634-6 6-6c3.3137 0 6 2.6863 6 6z" fill="#ea4335"/>
  <path clip-path="url(#a)" d="m1042.5571 465.28625c0 3.31373-2.6863 6-6 6s-6-2.68627-6-6c0-3.31369 2.6863-6 6-6s6 2.68631 6 6z" fill="#ea4335"/>
  <path clip-path="url(#a)" d="m177.44286 583.6678c0 3.3137-2.6863 6-6 6-3.31371 0-6-2.6863-6-6 0-3.31374 2.68629-6 6-6 3.3137 0 6 2.68626 6 6z" fill="#34a853"/>
  <path clip-path="url(#a)" d="m321.62857 571.79364c0 3.31372-2.68627 6-6 6-3.31372 0-6-2.68628-6-6 0-3.31374 2.68628-6 6-6 3.31373 0 6 2.68626 6 6z" fill="#34a853"/>
  <path clip-path="url(#a)" d="m465.8143 538.69c0 3.3137-2.6863 6-6 6-3.31372 0-6-2.6863-6-6s2.68628-6 6-6c3.3137 0 6 2.6863 6 6z" fill="#34a853"/>
  <path clip-path="url(#a)" d="m610 470.3238c0 3.31368-2.6863 6-6 6s-6-2.68632-6-6c0-3.31373 2.6863-6 6-6s6 2.68627 6 6z" fill="#34a853"/>
  <path clip-path="url(#a)" d="m754.1857 378.56912c0 3.31368-2.68625 6-6 6-3.3137 0-6-2.68632-6-6 0-3.31372 2.6863-6 6-6 3.31375 0 6 2.68628 6 6z" fill="#34a853"/>
  <path clip-path="url(#a)" d="m898.3714 220.24733c0 3.31371-2.6863 6-6 6-3.31366 0-6-2.68629-6-6s2.68634-6 6-6c3.3137 0 6 2.68629 6 6z" fill="#34a853"/>
  <path clip-path="url(#a)" d="m1042.5571 133.53018c0 3.31371-2.6863 6-6 6s-6-2.68629-6-6c0-3.3137 2.6863-6.000006 6-6.000006s6 2.686306 6 6.000006z" fill="#34a853"/>
  <path d="m174.57863 606.909h-1.04688v-6.71875q-.39062.35935-1.01562.73435-.60938.3594-1.09375.5313v-1.01565q.875-.42185 1.53125-1 .67187-.59375.95312-1.15625h.67188z" stroke="#fff" stroke-linecap="round" stroke-linejoin="round" stroke-width="3"/>
  <path d="m174.57863 606.909h-1.04688v-6.71875q-.39062.35935-1.01562.73435-.60938.3594-1.09375.5313v-1.01565q.875-.42185 1.53125-1 .67187-.59375.95312-1.15625h.67188z" fill="#4285f4"/>
  <path d="m325.40393 594.8596h-1.04687v-6.71873q-.39063.35937-1.01563.73437-.60937.35936-1.09375.53126v-1.01563q.875-.42187 1.53125-1 .67187-.59377.95313-1.15627h.67187zm3.59375 0v-1.2031h1.20312v1.2031q0 .65627-.23437 1.0625-.23437.4219-.73437.64064l-.29688-.45314q.32812-.1406.48438-.4375.15624-.28123.1875-.8125zm7.98438-1.0156v1.0156h-5.6875q0-.375.125-.73436.21874-.57814.6875-1.14064.48437-.5625 1.39062-1.29686 1.40625-1.15624 1.89062-1.82814.5-.67186.5-1.2656 0-.625-.45312-1.0469-.45312-.4375-1.17188-.4375-.76562 0-1.21874.45314-.45313.45313-.46876 1.26563l-1.07812-.10937q.10938-1.21876.82812-1.84376.73438-.64064 1.96876-.64064 1.23437 0 1.95312.6875.71875.6875.71875 1.70314 0 .51563-.21875 1.01563-.20312.48437-.70312 1.04687-.48438.54686-1.60938 1.5-.95312.79686-1.23438 1.09376-.26562.28124-.4375.5625zm3.07812-3.64063q-.65625-.25-.98438-.6875-.3125-.45313-.3125-1.0625 0-.9375.67188-1.57813.6875-.64064 1.79688-.64064 1.125 0 1.8125.65627.6875.65623.6875 1.59373 0 .59377-.3125 1.03127-.3125.4375-.95313.6875.79687.25 1.20313.82813.40624.5781.40624 1.375 0 1.09374-.78124 1.84374-.76563.75-2.04688.75-1.26562 0-2.04688-.75-.78124-.75-.78124-1.875 0-.84374.42187-1.40624.4375-.5625 1.21875-.76563zm-.21875-1.79687q0 .60937.39063 1 .40624.3906 1.03124.3906.60938 0 1-.375.39063-.3906.39063-.9531 0-.57813-.40625-.96876-.40625-.40624-1-.40624-.60938 0-1.01562.3906-.39063.39064-.39063.9219zm-.32813 3.96874q0 .45313.20313.875.21875.42186.64063.65626.42187.23437.90624.23437.75 0 1.23438-.48437.5-.4844.5-1.2344 0-.7656-.5-1.2656-.5-.5-1.26562-.5-.75 0-1.23438.5-.48438.48437-.48438 1.21874z" stroke="#fff" stroke-linecap="round" stroke-linejoin="round" stroke-width="3"/>
  <path d="m325.40393 594.8596h-1.04687v-6.71873q-.39063.35937-1.01563.73437-.60937.35936-1.09375.53126v-1.01563q.875-.42187 1.53125-1 .67187-.59377.95313-1.15627h.67187zm3.59375 0v-1.2031h1.20312v1.2031q0 .65627-.23437 1.0625-.23437.4219-.73437.64064l-.29688-.45314q.32812-.1406.48438-.4375.15624-.28123.1875-.8125zm7.98438-1.0156v1.0156h-5.6875q0-.375.125-.73436.21874-.57814.6875-1.14064.48437-.5625 1.39062-1.29686 1.40625-1.15624 1.89062-1.82814.5-.67186.5-1.2656 0-.625-.45312-1.0469-.45312-.4375-1.17188-.4375-.76562 0-1.21874.45314-.45313.45313-.46876 1.26563l-1.07812-.10937q.10938-1.21876.82812-1.84376.73438-.64064 1.96876-.64064 1.23437 0 1.95312.6875.71875.6875.71875 1.70314 0 .51563-.21875 1.01563-.20312.48437-.70312 1.04687-.48438.54686-1.60938 1.5-.95312.79686-1.23438 1.09376-.26562.28124-.4375.5625zm3.07812-3.64063q-.65625-.25-.98438-.6875-.3125-.45313-.3125-1.0625 0-.9375.67188-1.57813.6875-.64064 1.79688-.64064 1.125 0 1.8125.65627.6875.65623.6875 1.59373 0 .59377-.3125 1.03127-.3125.4375-.95313.6875.79687.25 1.20313.82813.40624.5781.40624 1.375 0 1.09374-.78124 1.84374-.76563.75-2.04688.75-1.26562 0-2.04688-.75-.78124-.75-.78124-1.875 0-.84374.42187-1.40624.4375-.5625 1.21875-.76563zm-.21875-1.79687q0 .60937.39063 1 .40624.3906 1.03124.3906.60938 0 1-.375.39063-.3906.39063-.9531 0-.57813-.40625-.96876-.40625-.40624-1-.40624-.60938 0-1.01562.3906-.39063.39064-.39063.9219zm-.32813 3.96874q0 .45313.20313.875.21875.42186.64063.65626.42187.23437.90624.23437.75 0 1.23438-.48437.5-.4844.5-1.2344 0-.7656-.5-1.2656-.5-.5-1.26562-.5-.75 0-1.23438.5-.48438.48437-.48438 1.21874z" fill="#4285f4"/>
  <path d="m466.18246 566.6728v1.0156h-5.6875q0-.375.125-.73436.21874-.57814.6875-1.14064.48438-.5625 1.39064-1.29686 1.40624-1.15624 1.8906-1.82814.5-.67186.5-1.2656 0-.625-.4531-1.0469-.45314-.4375-1.1719-.4375-.7656 0-1.21874.45314-.45312.45313-.46876 1.26563l-1.0781-.10937q.10936-1.21876.8281-1.84376.7344-.64064 1.96876-.64064 1.23438 0 1.95314.6875.71874.6875.71874 1.70314 0 .51563-.21874 1.01563-.20314.48437-.70314 1.04687-.48436.54686-1.60936 1.5-.95314.79686-1.2344 1.09376-.2656.28124-.4375.5625zm2.01564 1.0156v-1.2031h1.2031v1.2031q0 .65627-.23436 1.0625-.23438.4219-.73438.64064l-.29686-.45314q.3281-.1406.48436-.4375.15624-.28123.1875-.8125zm2.4375-4.23436q0-1.53124.3125-2.45314.3125-.9375.92186-1.4375.625-.5 1.5625-.5.6875 0 1.20314.28127.53124.28123.875.8125.34374.51563.53124 1.26563.1875.75.1875 2.03124 0 1.51563-.3125 2.4375-.29688.92186-.92188 1.4375-.60936.5-1.5625.5-1.23436 0-1.95312-.89064-.84374-1.0625-.84374-3.48436zm1.0781 0q0 2.10936.5 2.8125.5.70313 1.21876.70313.73438 0 1.21874-.70313.5-.70314.5-2.8125 0-2.125-.5-2.8125-.48436-.70314-1.23436-.70314-.71874 0-1.15624.6094-.5469.78124-.5469 2.90624zm6.07814 2.25 1.01562-.09374q.125.71874.48438 1.04687.375.3125.9375.3125.48436 0 .84376-.21877.375-.23436.60936-.59373.23438-.375.39064-1 .15624-.64063.15624-1.29687 0-.07813 0-.21876-.3125.5-.85938.82813-.54686.3125-1.1875.3125-1.07812 0-1.8125-.76563-.73436-.78124-.73436-2.04687 0-1.3125.7656-2.10937.78126-.7969 1.9375-.7969.82814 0 1.51564.45314.70312.45313 1.0625 1.29686.35936.82814.35936 2.40627 0 1.64063-.35936 2.625-.34374.96873-1.0625 1.48437-.70314.5-1.64064.5-1.0156 0-1.65624-.54687-.64062-.5625-.76562-1.57813zm4.3125-3.79687q0-.90627-.48438-1.4375-.46876-.53127-1.15626-.53127-.7031 0-1.23436.57814-.51564.5625-.51564 1.48436 0 .8125.5 1.32814.5.51563 1.21876.51563.73438 0 1.20314-.51563.46874-.51564.46874-1.42187z" stroke="#fff" stroke-linecap="round" stroke-linejoin="round" stroke-width="3"/>
  <path d="m466.18246 566.6728v1.0156h-5.6875q0-.375.125-.73436.21874-.57814.6875-1.14064.48438-.5625 1.39064-1.29686 1.40624-1.15624 1.8906-1.82814.5-.67186.5-1.2656 0-.625-.4531-1.0469-.45314-.4375-1.1719-.4375-.7656 0-1.21874.45314-.45312.45313-.46876 1.26563l-1.0781-.10937q.10936-1.21876.8281-1.84376.7344-.64064 1.96876-.64064 1.23438 0 1.95314.6875.71874.6875.71874 1.70314 0 .51563-.21874 1.01563-.20314.48437-.70314 1.04687-.48436.54686-1.60936 1.5-.95314.79686-1.2344 1.09376-.2656.28124-.4375.5625zm2.01564 1.0156v-1.2031h1.2031v1.2031q0 .65627-.23436 1.0625-.23438.4219-.73438.64064l-.29686-.45314q.3281-.1406.48436-.4375.15624-.28123.1875-.8125zm2.4375-4.23436q0-1.53124.3125-2.45314.3125-.9375.92186-1.4375.625-.5 1.5625-.5.6875 0 1.20314.28127.53124.28123.875.8125.34374.51563.53124 1.26563.1875.75.1875 2.03124 0 1.51563-.3125 2.4375-.29688.92186-.92188 1.4375-.60936.5-1.5625.5-1.23436 0-1.95312-.89064-.84374-1.0625-.84374-3.48436zm1.0781 0q0 2.10936.5 2.8125.5.70313 1.21876.70313.73438 0 1.21874-.70313.5-.70314.5-2.8125 0-2.125-.5-2.8125-.48436-.70314-1.23436-.70314-.71874 0-1.15624.6094-.5469.78124-.5469 2.90624zm6.07814 2.25 1.01562-.09374q.125.71874.48438 1.04687.375.3125.9375.3125.48436 0 .84376-.21877.375-.23436.60936-.59373.23438-.375.39064-1 .15624-.64063.15624-1.29687 0-.07813 0-.21876-.3125.5-.85938.82813-.54686.3125-1.1875.3125-1.07812 0-1.8125-.76563-.73436-.78124-.73436-2.04687 0-1.3125.7656-2.10937.78126-.7969 1.9375-.7969.82814 0 1.51564.45314.70312.45313 1.0625 1.29686.35936.82814.35936 2.40627 0 1.64063-.35936 2.625-.34374.96873-1.0625 1.48437-.70314.5-1.64064.5-1.0156 0-1.65624-.54687-.64062-.5625-.76562-1.57813zm4.3125-3.79687q0-.90627-.48438-1.4375-.46876-.53127-1.15626-.53127-.7031 0-1.23436.57814-.51564.5625-.51564 1.48436 0 .8125.5 1.32814.5.51563 1.21876.51563.73438 0 1.20314-.51563.46874-.51564.46874-1.42187z" fill="#4285f4"/>
  <path d="m597.8419 513.6084 1.0625-.1406q.1719.8906.6094 1.29685.4375.39065 1.0625.39065.75 0 1.2656-.51565.51564-.51565.51564-1.28125 0-.71875-.48437-1.1875-.46877-.4844-1.20313-.4844-.29687 0-.75.125l.125-.9375q.10936.01562.17186.01562.6719 0 1.20314-.34375.54686-.35937.54686-1.09375 0-.57812-.3906-.95312-.39063-.39063-1.01563-.39063-.60937 0-1.03127.39063-.40623.39062-.5156 1.15624l-1.0625-.1875q.1875-1.04687.875-1.625.6875-.59374 1.7031-.59374.70314 0 1.2969.3125.59374.29687.90624.8125.3125.51562.3125 1.10937 0 .54687-.29687 1.01563-.29687.45312-.875.71874.75.17188 1.17187.73438.42186.54688.42186 1.39068 0 1.125-.8281 1.9062-.8125.7813-2.0625.7813-1.125 0-1.875-.6719-.75-.6875-.8594-1.75zm7.5625 2.2656v-1.2031h1.20314v1.2031q0 .6563-.23437 1.0625-.23437.4219-.73437.64065l-.2969-.45315q.32814-.1406.4844-.4375.15624-.2812.1875-.8125zm2.4375-2.25 1.1094-.0937q.125.8125.5625 1.2187.4531.4063 1.09374.4063.75 0 1.28126-.57815.53124-.57815.53124-1.51565 0-.9062-.51564-1.42188-.5-.53125-1.3281-.53125-.5 0-.9219.23437-.40623.23438-.6406.59376l-.9844-.125.82814-4.40626h4.28126v1h-3.4375l-.45313 2.3125q.76563-.54687 1.60937-.54687 1.125 0 1.89063.78125.78123.78125.78123 2.01568 0 1.1562-.67186 2.0156-.82814 1.03125-2.25 1.03125-1.17187 0-1.92187-.65625-.73437-.65625-.84377-1.7344zm7-.0156 1.0625-.1406q.1719.8906.6094 1.29685.4375.39065 1.0625.39065.75 0 1.2656-.51565.51564-.51565.51564-1.28125 0-.71875-.48437-1.1875-.46877-.4844-1.20313-.4844-.29687 0-.75.125l.125-.9375q.10936.01562.17186.01562.6719 0 1.20314-.34375.54686-.35937.54686-1.09375 0-.57812-.3906-.95312-.39063-.39063-1.01563-.39063-.60937 0-1.03127.39063-.40623.39062-.5156 1.15624l-1.0625-.1875q.1875-1.04687.875-1.625.6875-.59374 1.7031-.59374.70314 0 1.2969.3125.59374.29687.90624.8125.3125.51562.3125 1.10937 0 .54687-.29687 1.01563-.29687.45312-.875.71874.75.17188 1.17187.73438.42186.54688.42186 1.39068 0 1.125-.8281 1.9062-.8125.7813-2.0625.7813-1.125 0-1.875-.6719-.75-.6875-.8594-1.75z" stroke="#fff" stroke-linecap="round" stroke-linejoin="round" stroke-width="3"/>
  <path d="m597.8419 513.6084 1.0625-.1406q.1719.8906.6094 1.29685.4375.39065 1.0625.39065.75 0 1.2656-.51565.51564-.51565.51564-1.28125 0-.71875-.48437-1.1875-.46877-.48438-1.20313-.48438-.29687 0-.75.125l.125-.9375q.10936.01563.17186.01563.6719 0 1.20314-.34375.54686-.35938.54686-1.09375 0-.57813-.3906-.95313-.39063-.39062-1.01563-.39062-.60937 0-1.03127.39062-.40623.39063-.5156 1.15625l-1.0625-.1875q.1875-1.04687.875-1.625.6875-.59375 1.7031-.59375.70314 0 1.2969.3125.59374.29688.90624.8125.3125.51563.3125 1.10938 0 .54687-.29687 1.01562-.29687.45313-.875.71875.75.17188 1.17187.73438.42186.54685.42186 1.39065 0 1.125-.8281 1.9062-.8125.7813-2.0625.7813-1.125 0-1.875-.6719-.75-.6875-.8594-1.75zm7.5625 2.2656v-1.2031h1.20314v1.2031q0 .6563-.23437 1.0625-.23437.4219-.73437.64065l-.2969-.45315q.32814-.1406.4844-.4375.15624-.2812.1875-.8125zm2.4375-2.25 1.1094-.0937q.125.8125.5625 1.2187.4531.4063 1.09374.4063.75 0 1.28126-.57815.53124-.57815.53124-1.51565 0-.9062-.51564-1.42185-.5-.53125-1.3281-.53125-.5 0-.9219.23437-.40623.23438-.6406.59375l-.9844-.125.82814-4.40625h4.28126v1h-3.4375l-.45313 2.3125q.76563-.54687 1.60937-.54687 1.125 0 1.89063.78125.78123.78125.78123 2.01565 0 1.1562-.67186 2.0156-.82814 1.03125-2.25 1.03125-1.17187 0-1.92187-.65625-.73437-.65625-.84377-1.7344zm7-.0156 1.0625-.1406q.1719.8906.6094 1.29685.4375.39065 1.0625.39065.75 0 1.2656-.51565.51564-.51565.51564-1.28125 0-.71875-.48437-1.1875-.46877-.48438-1.20313-.48438-.29687 0-.75.125l.125-.9375q.10936.01563.17186.01563.6719 0 1.20314-.34375.54686-.35938.54686-1.09375 0-.57813-.3906-.95313-.39063-.39062-1.01563-.39062-.60937 0-1.03127.39062-.40623.39063-.5156 1.15625l-1.0625-.1875q.1875-1.04687.875-1.625.6875-.59375 1.7031-.59375.70314 0 1.2969.3125.59374.29688.90624.8125.3125.51563.3125 1.10938 0 .54687-.29687 1.01562-.29687.45313-.875.71875.75.17188 1.17187.73438.42186.54685.42186 1.39065 0 1.125-.8281 1.9062-.8125.7813-2.0625.7813-1.125 0-1.875-.6719-.75-.6875-.8594-1.75z" fill="#4285f4"/>
  <path d="m740.1857 484.24127 1.0625-.14062q.1719.89062.6094 1.29687.4375.39063 1.0625.39063.75 0 1.2656-.51563.51565-.51562.51565-1.28125 0-.71875-.48435-1.1875-.4688-.48437-1.20315-.48437-.29685 0-.75.125l.125-.9375q.10935.01562.17185.01562.6719 0 1.20315-.34375.54685-.35937.54685-1.09375 0-.57812-.3906-.95312-.3906-.39063-1.0156-.39063-.6094 0-1.0313.39063-.4062.39062-.5156 1.15625l-1.0625-.1875q.1875-1.04688.875-1.625.6875-.59375 1.7031-.59375.70315 0 1.2969.3125.59375.29687.90625.8125.3125.51562.3125 1.10937 0 .54688-.29685 1.01563-.2969.45312-.875.71875.75.17187 1.17185.73437.42185.54688.42185 1.39063 0 1.125-.8281 1.90625-.8125.78125-2.0625.78125-1.125 0-1.875-.67188-.75-.6875-.8594-1.75zm7.5625 2.26563v-1.20313h1.20315v1.20313q0 .65625-.23435 1.0625-.2344.42187-.7344.64062l-.2969-.45312q.32815-.14063.4844-.4375.15625-.28125.1875-.8125zm7.9844-1.01563v1.01563h-5.6875q0-.375.125-.73438.21875-.57812.6875-1.14062.4844-.5625 1.3906-1.29688 1.4063-1.15625 1.89065-1.82812.5-.67188.5-1.26563 0-.625-.45315-1.04687-.4531-.4375-1.17185-.4375-.76565 0-1.21875.45312-.4531.45313-.46875 1.26563l-1.07815-.10938q.1094-1.21875.82815-1.84375.73435-.64062 1.96875-.64062 1.2344 0 1.9531.6875.7188.6875.7188 1.70312 0 .51563-.2188 1.01563-.2031.48437-.7031 1.04687-.4844.54688-1.6094 1.5-.9531.79688-1.23435 1.09375-.26565.28125-.4375.5625z" stroke="#fff" stroke-linecap="round" stroke-linejoin="round" stroke-width="3"/>
  <path d="m740.1857 484.24127 1.0625-.14062q.1719.89062.6094 1.29687.4375.39063 1.0625.39063.75 0 1.2656-.51563.51565-.51562.51565-1.28125 0-.71875-.48435-1.1875-.4688-.48437-1.20315-.48437-.29685 0-.75.125l.125-.9375q.10935.01562.17185.01562.6719 0 1.20315-.34375.54685-.35937.54685-1.09375 0-.57812-.3906-.95312-.3906-.39063-1.0156-.39063-.6094 0-1.0313.39063-.4062.39062-.5156 1.15625l-1.0625-.1875q.1875-1.04688.875-1.625.6875-.59375 1.7031-.59375.70315 0 1.2969.3125.59375.29687.90625.8125.3125.51562.3125 1.10937 0 .54688-.29685 1.01563-.2969.45312-.875.71875.75.17187 1.17185.73437.42185.54688.42185 1.39063 0 1.125-.8281 1.90625-.8125.78125-2.0625.78125-1.125 0-1.875-.67188-.75-.6875-.8594-1.75zm7.5625 2.26563v-1.20313h1.20315v1.20313q0 .65625-.23435 1.0625-.2344.42187-.7344.64062l-.2969-.45312q.32815-.14063.4844-.4375.15625-.28125.1875-.8125zm7.9844-1.01563v1.01563h-5.6875q0-.375.125-.73438.21875-.57812.6875-1.14062.4844-.5625 1.3906-1.29688 1.4063-1.15625 1.89065-1.82812.5-.67188.5-1.26563 0-.625-.45315-1.04687-.4531-.4375-1.17185-.4375-.76565 0-1.21875.45312-.4531.45313-.46875 1.26563l-1.07815-.10938q.1094-1.21875.82815-1.84375.73435-.64062 1.96875-.64062 1.2344 0 1.9531.6875.7188.6875.7188 1.70312 0 .51563-.2188 1.01563-.2031.48437-.7031 1.04687-.4844.54688-1.6094 1.5-.9531.79688-1.23435 1.09375-.26565.28125-.4375.5625z" fill="#4285f4"/>
  <path d="m884.84015 536.52216h-1.04685v-6.71876q-.39065.3594-1.01565.7344-.60935.35936-1.09375.53123v-1.01563q.875-.42187 1.53125-1 .67185-.59374.95315-1.15624h.67185zm3.59375 0v-1.20313h1.2031v1.20313q0 .65624-.23435 1.0625-.23435.42187-.73435.64064l-.2969-.45314q.3281-.14063.4844-.4375.1562-.28126.1875-.8125zm4.0625-4.65626q-.65625-.25-.9844-.6875-.3125-.4531-.3125-1.0625 0-.9375.6719-1.5781.6875-.64064 1.7969-.64064 1.125 0 1.8125.65624.6875.65626.6875 1.59376 0 .59374-.3125 1.03124-.3125.4375-.95315.6875.79685.25 1.20315.82813.4062.57813.4062 1.375 0 1.09377-.7812 1.84377-.76565.75-2.0469.75-1.2656 0-2.0469-.75-.7812-.75-.7812-1.875 0-.84377.42185-1.40627.4375-.5625 1.21875-.76563zm-.21875-1.79687q0 .60937.39065 1 .4062.39063 1.0312.39063.6094 0 1-.375.39065-.39063.39065-.95313 0-.57813-.40625-.96873-.40625-.40627-1-.40627-.6094 0-1.0156.39063-.39065.39064-.39065.92187zm-.32815 3.96877q0 .4531.20315.875.21875.42186.64065.65623.42185.23437.9062.23437.75 0 1.2344-.48437.5-.48437.5-1.23437 0-.76563-.5-1.26563-.5-.5-1.2656-.5-.75 0-1.2344.5-.4844.48437-.4844 1.21877zm9.89065 2.48436h-1.04685v-6.71876q-.39065.3594-1.01565.7344-.60935.35936-1.09375.53123v-1.01563q.875-.42187 1.53125-1 .67185-.59374.95315-1.15624h.67185z" stroke="#fff" stroke-linecap="round" stroke-linejoin="round" stroke-width="3"/>
  <path d="m884.84015 536.52216h-1.04685v-6.71876q-.39065.3594-1.01565.7344-.60935.35936-1.09375.53123v-1.01563q.875-.42187 1.53125-1 .67185-.59374.95315-1.15624h.67185zm3.59375 0v-1.20313h1.2031v1.20313q0 .65624-.23435 1.0625-.23435.42187-.73435.64064l-.2969-.45314q.3281-.14063.4844-.4375.1562-.28126.1875-.8125zm4.0625-4.65626q-.65625-.25-.9844-.6875-.3125-.4531-.3125-1.0625 0-.9375.6719-1.5781.6875-.64064 1.7969-.64064 1.125 0 1.8125.65624.6875.65626.6875 1.59376 0 .59374-.3125 1.03124-.3125.4375-.95315.6875.79685.25 1.20315.82813.4062.57813.4062 1.375 0 1.09377-.7812 1.84377-.76565.75-2.0469.75-1.2656 0-2.0469-.75-.7812-.75-.7812-1.875 0-.84377.42185-1.40627.4375-.5625 1.21875-.76563zm-.21875-1.79687q0 .60937.39065 1 .4062.39063 1.0312.39063.6094 0 1-.375.39065-.39063.39065-.95313 0-.57813-.40625-.96873-.40625-.40627-1-.40627-.6094 0-1.0156.39063-.39065.39064-.39065.92187zm-.32815 3.96877q0 .4531.20315.875.21875.42186.64065.65623.42185.23437.9062.23437.75 0 1.2344-.48437.5-.48437.5-1.23437 0-.76563-.5-1.26563-.5-.5-1.2656-.5-.75 0-1.2344.5-.4844.48437-.4844 1.21877zm9.89065 2.48436h-1.04685v-6.71876q-.39065.3594-1.01565.7344-.60935.35936-1.09375.53123v-1.01563q.875-.42187 1.53125-1 .67185-.59374.95315-1.15624h.67185z" fill="#4285f4"/>
  <path d="m1029.0259 535.0829h-1.0469v-6.71876q-.3906.35936-1.0156.73436-.6094.3594-1.0938.53126v-1.01562q.875-.42188 1.5313-1 .6719-.59374.9531-1.15624h.6719zm3.5937 0v-1.20314h1.2032v1.20314q0 .65624-.2344 1.0625-.2344.42186-.7344.6406l-.2969-.4531q.3282-.14064.4844-.4375.1563-.28126.1875-.8125zm4.0625-4.65626q-.6562-.25-.9843-.6875-.3125-.45314-.3125-1.0625 0-.9375.6718-1.57814.6875-.6406 1.7969-.6406 1.125 0 1.8125.65624.6875.65626.6875 1.59376 0 .59374-.3125 1.03124-.3125.4375-.9531.6875.7969.25 1.2031.82812.4063.57814.4063 1.375 0 1.09374-.7813 1.84374-.7656.75-2.0469.75-1.2656 0-2.0468-.75-.7813-.75-.7813-1.875 0-.84374.4219-1.40624.4375-.5625 1.2187-.76562zm-.2187-1.79688q0 .60938.3906 1 .4063.39064 1.0313.39064.6093 0 1-.375.3906-.39064.3906-.95314 0-.57812-.4063-.96876-.4062-.40624-1-.40624-.6093 0-1.0156.39064-.3906.3906-.3906.92186zm-.3281 3.96874q0 .45314.2031.875.2187.4219.6406.65626.4219.23438.9063.23438.75 0 1.2343-.48438.5-.48436.5-1.23436 0-.76564-.5-1.26564-.5-.5-1.2656-.5-.75 0-1.2344.5-.4843.48438-.4843 1.21874zm5.9218.2344 1.1094-.09376q.125.8125.5625 1.21876.4531.40624 1.0938.40624.75 0 1.2812-.57814.5313-.5781.5313-1.5156 0-.90626-.5157-1.4219-.5-.53124-1.3281-.53124-.5 0-.9219.23438-.4062.23436-.6406.59376l-.9844-.125.8282-4.40626h4.2812v1h-3.4375l-.4531 2.3125q.7656-.54688 1.6094-.54688 1.125 0 1.8906.78124.7812.78126.7812 2.01564 0 1.15626-.6718 2.01562-.8282 1.03124-2.25 1.03124-1.1719 0-1.9219-.65624-.7344-.65626-.8438-1.73436z" stroke="#fff" stroke-linecap="round" stroke-linejoin="round" stroke-width="3"/>
  <path d="m1029.0259 535.0829h-1.0469v-6.71876q-.3906.35936-1.0156.73436-.6094.3594-1.0938.53126v-1.01562q.875-.42188 1.5313-1 .6719-.59374.9531-1.15624h.6719zm3.5937 0v-1.20314h1.2032v1.20314q0 .65624-.2344 1.0625-.2344.42186-.7344.6406l-.2969-.4531q.3282-.14064.4844-.4375.1563-.28126.1875-.8125zm4.0625-4.65626q-.6562-.25-.9843-.6875-.3125-.45314-.3125-1.0625 0-.9375.6718-1.57814.6875-.6406 1.7969-.6406 1.125 0 1.8125.65624.6875.65626.6875 1.59376 0 .59374-.3125 1.03124-.3125.4375-.9531.6875.7969.25 1.2031.82812.4063.57814.4063 1.375 0 1.09374-.7813 1.84374-.7656.75-2.0469.75-1.2656 0-2.0468-.75-.7813-.75-.7813-1.875 0-.84374.4219-1.40624.4375-.5625 1.2187-.76562zm-.2187-1.79688q0 .60938.3906 1 .4063.39064 1.0313.39064.6093 0 1-.375.3906-.39064.3906-.95314 0-.57812-.4063-.96876-.4062-.40624-1-.40624-.6093 0-1.0156.39064-.3906.3906-.3906.92186zm-.3281 3.96874q0 .45314.2031.875.2187.4219.6406.65626.4219.23438.9063.23438.75 0 1.2343-.48438.5-.48436.5-1.23436 0-.76564-.5-1.26564-.5-.5-1.2656-.5-.75 0-1.2344.5-.4843.48438-.4843 1.21874zm5.9218.2344 1.1094-.09376q.125.8125.5625 1.21876.4531.40624 1.0938.40624.75 0 1.2812-.57814.5313-.5781.5313-1.5156 0-.90626-.5157-1.4219-.5-.53124-1.3281-.53124-.5 0-.9219.23438-.4062.23436-.6406.59376l-.9844-.125.8282-4.40626h4.2812v1h-3.4375l-.4531 2.3125q.7656-.54688 1.6094-.54688 1.125 0 1.8906.78124.7812.78126.7812 2.01564 0 1.15626-.6718 2.01562-.8282 1.03124-2.25 1.03124-1.1719 0-1.9219-.65624-.7344-.65626-.8438-1.73436z" fill="#4285f4"/>
  <path d="m183.55214 569.39557h-1.04688v-6.71877q-.39062.3594-1.01562.7344-.60938.35937-1.09375.53124v-1.01564q.875-.42186 1.53125-1 .67187-.59373.95312-1.15623h.67188z" stroke="#fff" stroke-linecap="round" stroke-linejoin="round" stroke-width="3"/>
  <path d="m183.55214 569.39557h-1.04688v-6.71877q-.39062.3594-1.01562.7344-.60938.35937-1.09375.53124v-1.01564q.875-.42186 1.53125-1 .67187-.59373.95312-1.15623h.67188z" fill="#ea4335"/>
  <path d="m331.38626 556.26666h-1.04686v-6.71876q-.39064.3594-1.01564.7344-.60936.35936-1.09376.53124v-1.01564q.875-.42186 1.53126-1 .67188-.59374.95314-1.15624h.67186zm3.59374 0v-1.20312h1.20314v1.20312q0 .65624-.23438 1.0625-.23436.42188-.73436.64064l-.2969-.45314q.32814-.14062.4844-.4375.15624-.28126.1875-.8125zm2.4375-2.26562 1.0625-.14064q.1719.89064.6094 1.2969.4375.3906 1.0625.3906.75 0 1.2656-.5156.51564-.51564.51564-1.28126 0-.71874-.48438-1.1875-.46876-.48438-1.20312-.48438-.29688 0-.75.125l.125-.9375q.10936.01564.17186.01564.6719 0 1.20314-.34376.54686-.35938.54686-1.09374 0-.57814-.3906-.95314-.39064-.39062-1.01564-.39062-.60936 0-1.03126.39062-.40624.39064-.5156 1.15624l-1.0625-.1875q.1875-1.04686.875-1.625.6875-.59374 1.7031-.59374.70314 0 1.2969.3125.59374.29688.90624.8125.3125.51564.3125 1.10938 0 .54686-.29688 1.01562-.29686.45314-.875.71874.75.1719 1.17188.7344.42186.54686.42186 1.3906 0 1.125-.8281 1.90626-.8125.78124-2.0625.78124-1.125 0-1.875-.67186-.75-.6875-.8594-1.75zm10.96876 2.26562h-1.04686v-6.71876q-.39064.3594-1.01564.7344-.60936.35936-1.09376.53124v-1.01564q.875-.42186 1.53126-1 .67188-.59374.95314-1.15624h.67186z" stroke="#fff" stroke-linecap="round" stroke-linejoin="round" stroke-width="3"/>
  <path d="m331.38626 556.26666h-1.04686v-6.71876q-.39064.3594-1.01564.7344-.60936.35936-1.09376.53124v-1.01564q.875-.42186 1.53126-1 .67188-.59374.95314-1.15624h.67186zm3.59374 0v-1.20312h1.20314v1.20312q0 .65624-.23438 1.0625-.23436.42188-.73436.64064l-.2969-.45314q.32814-.14062.4844-.4375.15624-.28126.1875-.8125zm2.4375-2.26562 1.0625-.14064q.1719.89064.6094 1.2969.4375.3906 1.0625.3906.75 0 1.2656-.5156.51564-.51564.51564-1.28126 0-.71874-.48438-1.1875-.46876-.48438-1.20312-.48438-.29688 0-.75.125l.125-.9375q.10936.01564.17186.01564.6719 0 1.20314-.34376.54686-.35938.54686-1.09374 0-.57814-.3906-.95314-.39064-.39062-1.01564-.39062-.60936 0-1.03126.39062-.40624.39064-.5156 1.15624l-1.0625-.1875q.1875-1.04686.875-1.625.6875-.59374 1.7031-.59374.70314 0 1.2969.3125.59374.29688.90624.8125.3125.51564.3125 1.10938 0 .54686-.29688 1.01562-.29686.45314-.875.71874.75.1719 1.17188.7344.42186.54686.42186 1.3906 0 1.125-.8281 1.90626-.8125.78124-2.0625.78124-1.125 0-1.875-.67186-.75-.6875-.8594-1.75zm10.96876 2.26562h-1.04686v-6.71876q-.39064.3594-1.01564.7344-.60936.35936-1.09376.53124v-1.01564q.875-.42186 1.53126-1 .67188-.59374.95314-1.15624h.67186z" fill="#ea4335"/>
  <path d="m465.18542 518.1063v1.01565h-5.6875q0-.375.125-.73435.21875-.57815.6875-1.14065.48438-.5625 1.39063-1.29685 1.40625-1.1563 1.89062-1.82815.5-.67185.5-1.26565 0-.625-.45312-1.04685-.45313-.4375-1.17188-.4375-.76562 0-1.21875.45312-.45312.45313-.46875 1.26563l-1.07812-.1094q.10937-1.21873.82812-1.84373.73438-.64062 1.96875-.64062 1.23438 0 1.95313.6875.71875.6875.71875 1.70315 0 .5156-.21875 1.0156-.20313.4844-.70313 1.0469-.48437.54685-1.60937 1.5-.95313.79685-1.23438 1.0937-.26562.2813-.4375.5625zm2.01563 1.01565v-1.20315h1.20312v1.20315q0 .65625-.23437 1.0625-.23438.42185-.73438.64065l-.29687-.45315q.32812-.14065.48437-.4375.15625-.28125.1875-.8125zm7.98437-1.01565v1.01565h-5.6875q0-.375.125-.73435.21875-.57815.6875-1.14065.48438-.5625 1.39063-1.29685 1.40625-1.1563 1.89062-1.82815.5-.67185.5-1.26565 0-.625-.45312-1.04685-.45313-.4375-1.17188-.4375-.76562 0-1.21875.45312-.45312.45313-.46875 1.26563l-1.07812-.1094q.10937-1.21873.82812-1.84373.73438-.64062 1.96875-.64062 1.23438 0 1.95313.6875.71875.6875.71875 1.70315 0 .5156-.21875 1.0156-.20313.4844-.70313 1.0469-.48437.54685-1.60937 1.5-.95313.79685-1.23438 1.0937-.26562.2813-.4375.5625zm6.92188-5.4687-1.04688.0781q-.14062-.625-.39062-.90625-.4375-.45313-1.0625-.45313-.5 0-.89063.28125-.48437.37503-.78125 1.07813-.28125.6875-.29687 1.96875.375-.57815.92187-.85935.5625-.2813 1.17188-.2813 1.04687 0 1.78125.7813.75.7812.75 2 0 .8125-.35938 1.5156-.34375.6875-.95312 1.0625-.60938.3594-1.375.3594-1.32813 0-2.15625-.9688-.82813-.9687-.82813-3.1875 0-2.5.92188-3.62498.79687-.98437 2.15625-.98437 1.01562 0 1.65625.57812.65625.5625.78125 1.56253zm-4.29688 3.7031q0 .5469.21875 1.0469.23438.48435.64063.75.42187.2656.89062.2656.65625 0 1.14063-.53125.48437-.54685.48437-1.46875 0-.8906-.48437-1.40625-.46875-.51565-1.1875-.51565-.71875 0-1.21875.51565-.48438.51565-.48438 1.34375z" stroke="#fff" stroke-linecap="round" stroke-linejoin="round" stroke-width="3"/>
  <path d="m465.18542 518.1063v1.01565h-5.6875q0-.375.125-.73435.21875-.57815.6875-1.14065.48438-.5625 1.39063-1.29685 1.40625-1.1563 1.89062-1.82815.5-.67185.5-1.26565 0-.625-.45312-1.04685-.45313-.4375-1.17188-.4375-.76562 0-1.21875.45312-.45312.45313-.46875 1.26563l-1.07812-.1094q.10937-1.21873.82812-1.84373.73438-.64062 1.96875-.64062 1.23438 0 1.95313.6875.71875.6875.71875 1.70315 0 .5156-.21875 1.0156-.20313.4844-.70313 1.0469-.48437.54685-1.60937 1.5-.95313.79685-1.23438 1.0937-.26562.2813-.4375.5625zm2.01563 1.01565v-1.20315h1.20312v1.20315q0 .65625-.23437 1.0625-.23438.42185-.73438.64065l-.29687-.45315q.32812-.14065.48437-.4375.15625-.28125.1875-.8125zm7.98437-1.01565v1.01565h-5.6875q0-.375.125-.73435.21875-.57815.6875-1.14065.48438-.5625 1.39063-1.29685 1.40625-1.1563 1.89062-1.82815.5-.67185.5-1.26565 0-.625-.45312-1.04685-.45313-.4375-1.17188-.4375-.76562 0-1.21875.45312-.45312.45313-.46875 1.26563l-1.07812-.1094q.10937-1.21873.82812-1.84373.73438-.64062 1.96875-.64062 1.23438 0 1.95313.6875.71875.6875.71875 1.70315 0 .5156-.21875 1.0156-.20313.4844-.70313 1.0469-.48437.54685-1.60937 1.5-.95313.79685-1.23438 1.0937-.26562.2813-.4375.5625zm6.92188-5.4687-1.04688.0781q-.14062-.625-.39062-.90625-.4375-.45313-1.0625-.45313-.5 0-.89063.28125-.48437.37503-.78125 1.07813-.28125.6875-.29687 1.96875.375-.57815.92187-.85935.5625-.2813 1.17188-.2813 1.04687 0 1.78125.7813.75.7812.75 2 0 .8125-.35938 1.5156-.34375.6875-.95312 1.0625-.60938.3594-1.375.3594-1.32813 0-2.15625-.9688-.82813-.9687-.82813-3.1875 0-2.5.92188-3.62498.79687-.98437 2.15625-.98437 1.01562 0 1.65625.57812.65625.5625.78125 1.56253zm-4.29688 3.7031q0 .5469.21875 1.0469.23438.48435.64063.75.42187.2656.89062.2656.65625 0 1.14063-.53125.48437-.54685.48437-1.46875 0-.8906-.48437-1.40625-.46875-.51565-1.1875-.51565-.71875 0-1.21875.51565-.48438.51565-.48438 1.34375z" fill="#ea4335"/>
  <path d="m624.76245 483.95544 1.0625-.14062q.17185.89062.60935 1.29688.4375.39062 1.0625.39062.75 0 1.26565-.51562.51565-.51563.51565-1.28126 0-.71874-.4844-1.1875-.46875-.48437-1.2031-.48437-.2969 0-.75.125l.125-.9375q.10935.01563.17185.01563.67185 0 1.20315-.34376.54685-.35937.54685-1.09374 0-.57813-.39065-.95313-.3906-.39063-1.0156-.39063-.6094 0-1.03125.39063-.40625.39063-.51565 1.15625l-1.0625-.1875q.1875-1.04688.875-1.625.6875-.59375 1.70315-.59375.70315 0 1.29685.3125.5938.29687.9063.8125.3125.51563.3125 1.10937 0 .54688-.2969 1.01563-.2969.45313-.875.71875.75.17188 1.1719.73438.42185.54687.42185 1.39062 0 1.125-.82815 1.90625-.8125.78125-2.0625.78125-1.125 0-1.875-.67188-.75-.6875-.85935-1.75zm7.5625 2.26563v-1.20313h1.20315v1.20313q0 .65625-.2344 1.0625-.2344.42187-.7344.64063l-.29685-.45313q.32815-.14063.48435-.4375.1563-.28125.1875-.8125zm2.59375-1.98437 1.0156-.09376q.125.71876.4844 1.04688.375.3125.9375.3125.4844 0 .84375-.21875.375-.23437.60935-.59375.2344-.375.39065-1 .15625-.64062.15625-1.29688 0-.07812 0-.21874-.3125.5-.8594.82812-.54685.3125-1.1875.3125-1.0781 0-1.8125-.76562-.73435-.78126-.73435-2.04688 0-1.3125.76565-2.10938.7812-.79687 1.9375-.79687.8281 0 1.5156.45313.7031.45312 1.0625 1.29687.3594.82813.3594 2.40625 0 1.64062-.3594 2.625-.34375.96875-1.0625 1.48438-.7031.5-1.6406.5-1.01565 0-1.6563-.54688-.6406-.5625-.7656-1.57812zm4.3125-3.79688q0-.90625-.4844-1.4375-.4687-.53125-1.1562-.53125-.70315 0-1.2344.57813-.5156.5625-.5156 1.48437 0 .8125.5 1.32813.5.51562 1.2187.51562.7344 0 1.20315-.51562.46875-.51563.46875-1.42188zm2.59375-1.6875v-1.01562h5.5625v.82812q-.8125.875-1.625 2.32812-.79685 1.4375-1.23435 2.96876-.32815 1.07812-.4063 2.35937h-1.0937q.0156-1.01563.3906-2.45313.3906-1.4375 1.09375-2.76562.71875-1.32812 1.53125-2.25z" stroke="#fff" stroke-linecap="round" stroke-linejoin="round" stroke-width="3"/>
  <path d="m624.76245 483.95544 1.0625-.14062q.17185.89062.60935 1.29688.4375.39062 1.0625.39062.75 0 1.26565-.51562.51565-.51563.51565-1.28126 0-.71874-.4844-1.1875-.46875-.48437-1.2031-.48437-.2969 0-.75.125l.125-.9375q.10935.01563.17185.01563.67185 0 1.20315-.34376.54685-.35937.54685-1.09374 0-.57813-.39065-.95313-.3906-.39063-1.0156-.39063-.6094 0-1.03125.39063-.40625.39063-.51565 1.15625l-1.0625-.1875q.1875-1.04688.875-1.625.6875-.59375 1.70315-.59375.70315 0 1.29685.3125.5938.29687.9063.8125.3125.51563.3125 1.10937 0 .54688-.2969 1.01563-.2969.45313-.875.71875.75.17188 1.1719.73438.42185.54687.42185 1.39062 0 1.125-.82815 1.90625-.8125.78125-2.0625.78125-1.125 0-1.875-.67188-.75-.6875-.85935-1.75zm7.5625 2.26563v-1.20313h1.20315v1.20313q0 .65625-.2344 1.0625-.2344.42187-.7344.64063l-.29685-.45313q.32815-.14063.48435-.4375.1563-.28125.1875-.8125zm2.59375-1.98437 1.0156-.09376q.125.71876.4844 1.04688.375.3125.9375.3125.4844 0 .84375-.21875.375-.23437.60935-.59375.2344-.375.39065-1 .15625-.64062.15625-1.29688 0-.07812 0-.21874-.3125.5-.8594.82812-.54685.3125-1.1875.3125-1.0781 0-1.8125-.76562-.73435-.78126-.73435-2.04688 0-1.3125.76565-2.10938.7812-.79687 1.9375-.79687.8281 0 1.5156.45313.7031.45312 1.0625 1.29687.3594.82813.3594 2.40625 0 1.64062-.3594 2.625-.34375.96875-1.0625 1.48438-.7031.5-1.6406.5-1.01565 0-1.6563-.54688-.6406-.5625-.7656-1.57812zm4.3125-3.79688q0-.90625-.4844-1.4375-.4687-.53125-1.1562-.53125-.70315 0-1.2344.57813-.5156.5625-.5156 1.48437 0 .8125.5 1.32813.5.51562 1.2187.51562.7344 0 1.20315-.51562.46875-.51563.46875-1.42188zm2.59375-1.6875v-1.01562h5.5625v.82812q-.8125.875-1.625 2.32812-.79685 1.4375-1.23435 2.96876-.32815 1.07812-.4063 2.35937h-1.0937q.0156-1.01563.3906-2.45313.3906-1.4375 1.09375-2.76562.71875-1.32812 1.53125-2.25z" fill="#ea4335"/>
  <path d="m736.6857 402.57724 1.1094-.09374q.125.8125.5625 1.21874.4531.40626 1.09375.40626.75 0 1.28125-.57814.53125-.57812.53125-1.51562 0-.90624-.51565-1.42188-.5-.53126-1.3281-.53126-.5 0-.9219.2344-.4062.23436-.6406.59374l-.9844-.125.82815-4.40624h4.28125v1h-3.4375l-.4531 2.3125q.7656-.5469 1.60935-.5469 1.125 0 1.89065.78126.7812.78124.7812 2.01564 0 1.15624-.67185 2.0156-.82815 1.03126-2.25 1.03126-1.17185 0-1.92185-.65626-.7344-.65624-.8438-1.73436zm7.5625 2.25v-1.20314h1.20315v1.20314q0 .65626-.23435 1.0625-.2344.42186-.7344.64062l-.2969-.45312q.32815-.14064.4844-.4375.15625-.28124.1875-.8125zm5.8125 0v-2.0625h-3.7187v-.96874l3.92185-5.5625h.85935v5.5625h1.1563v.96874h-1.1563v2.0625zm0-3.03124v-3.8594l-2.6875 3.8594zm3.6875-4.4375v-1.01564h5.5625v.82814q-.8125.875-1.625 2.3281-.79685 1.4375-1.23435 2.96876-.32815 1.07814-.40625 2.35938h-1.09375q.01565-1.01564.39065-2.45314.3906-1.4375 1.0937-2.7656.7188-1.32814 1.5313-2.25z" stroke="#fff" stroke-linecap="round" stroke-linejoin="round" stroke-width="3"/>
  <path d="m736.6857 402.57724 1.1094-.09374q.125.8125.5625 1.21874.4531.40626 1.09375.40626.75 0 1.28125-.57814.53125-.57812.53125-1.51562 0-.90624-.51565-1.42188-.5-.53126-1.3281-.53126-.5 0-.9219.2344-.4062.23436-.6406.59374l-.9844-.125.82815-4.40624h4.28125v1h-3.4375l-.4531 2.3125q.7656-.5469 1.60935-.5469 1.125 0 1.89065.78126.7812.78124.7812 2.01564 0 1.15624-.67185 2.0156-.82815 1.03126-2.25 1.03126-1.17185 0-1.92185-.65626-.7344-.65624-.8438-1.73436zm7.5625 2.25v-1.20314h1.20315v1.20314q0 .65626-.23435 1.0625-.2344.42186-.7344.64062l-.2969-.45312q.32815-.14064.4844-.4375.15625-.28124.1875-.8125zm5.8125 0v-2.0625h-3.7187v-.96874l3.92185-5.5625h.85935v5.5625h1.1563v.96874h-1.1563v2.0625zm0-3.03124v-3.8594l-2.6875 3.8594zm3.6875-4.4375v-1.01564h5.5625v.82814q-.8125.875-1.625 2.3281-.79685 1.4375-1.23435 2.96876-.32815 1.07814-.40625 2.35938h-1.09375q.01565-1.01564.39065-2.45314.3906-1.4375 1.0937-2.7656.7188-1.32814 1.5313-2.25z" fill="#ea4335"/>
  <path d="m886.34015 376.75354-1.04685.07813q-.14065-.625-.39065-.90627-.4375-.4531-1.0625-.4531-.5 0-.89065.28124-.48435.375-.7812 1.07813-.2813.6875-.2969 1.96873.375-.5781.9219-.85936.5625-.28124 1.17185-.28124 1.04685 0 1.78125.78124.75.78126.75 2 0 .8125-.3594 1.51563-.3437.6875-.9531 1.0625-.6094.35937-1.375.35937-1.3281 0-2.15625-.96874-.82815-.96876-.82815-3.1875 0-2.5.9219-3.625.7969-.9844 2.15625-.9844 1.01565 0 1.65625.57814.65625.5625.78125 1.5625zm-4.29685 3.70313q0 .54687.2187 1.04687.2344.48436.64065.75.42185.26563.89065.26563.6562 0 1.1406-.53127.4844-.54686.4844-1.46873 0-.89063-.4844-1.40627-.46875-.5156-1.1875-.5156-.71875 0-1.21875.5156-.48435.51564-.48435 1.34377zm6.3906 2.78123v-1.2031h1.2031v1.2031q0 .65627-.23435 1.0625-.23435.4219-.73435.64064l-.2969-.45314q.3281-.1406.4844-.4375.1562-.28123.1875-.8125zm2.4375-4.23436q0-1.53124.3125-2.45314.3125-.9375.9219-1.4375.625-.5 1.5625-.5.6875 0 1.2031.28127.53125.28123.875.8125.34375.51563.53125 1.26563.1875.75.1875 2.03124 0 1.51563-.3125 2.4375-.29685.92186-.92185 1.4375-.6094.5-1.5625.5-1.2344 0-1.95315-.89064-.84375-1.0625-.84375-3.48436zm1.0781 0q0 2.10936.5 2.8125.5.70313 1.2188.70313.73435 0 1.2187-.70313.5-.70314.5-2.8125 0-2.125-.5-2.8125-.48435-.70314-1.23435-.70314-.71875 0-1.15625.6094-.5469.78124-.5469 2.90624zm5.9844-3.23437v-1.01563h5.5625v.82813q-.8125.875-1.625 2.32813-.7969 1.4375-1.2344 2.96874-.3281 1.07813-.4062 2.35936h-1.0938q.01565-1.0156.39065-2.4531.39065-1.4375 1.09375-2.76563.71875-1.32813 1.53125-2.25z" stroke="#fff" stroke-linecap="round" stroke-linejoin="round" stroke-width="3"/>
  <path d="m886.34015 376.75354-1.04685.07813q-.14065-.625-.39065-.90627-.4375-.4531-1.0625-.4531-.5 0-.89065.28124-.48435.375-.7812 1.07813-.2813.6875-.2969 1.96873.375-.5781.9219-.85936.5625-.28124 1.17185-.28124 1.04685 0 1.78125.78124.75.78126.75 2 0 .8125-.3594 1.51563-.3437.6875-.9531 1.0625-.6094.35937-1.375.35937-1.3281 0-2.15625-.96874-.82815-.96876-.82815-3.1875 0-2.5.9219-3.625.7969-.9844 2.15625-.9844 1.01565 0 1.65625.57814.65625.5625.78125 1.5625zm-4.29685 3.70313q0 .54687.2187 1.04687.2344.48436.64065.75.42185.26563.89065.26563.6562 0 1.1406-.53127.4844-.54686.4844-1.46873 0-.89063-.4844-1.40627-.46875-.5156-1.1875-.5156-.71875 0-1.21875.5156-.48435.51564-.48435 1.34377zm6.3906 2.78123v-1.2031h1.2031v1.2031q0 .65627-.23435 1.0625-.23435.4219-.73435.64064l-.2969-.45314q.3281-.1406.4844-.4375.1562-.28123.1875-.8125zm2.4375-4.23436q0-1.53124.3125-2.45314.3125-.9375.9219-1.4375.625-.5 1.5625-.5.6875 0 1.2031.28127.53125.28123.875.8125.34375.51563.53125 1.26563.1875.75.1875 2.03124 0 1.51563-.3125 2.4375-.29685.92186-.92185 1.4375-.6094.5-1.5625.5-1.2344 0-1.95315-.89064-.84375-1.0625-.84375-3.48436zm1.0781 0q0 2.10936.5 2.8125.5.70313 1.2188.70313.73435 0 1.2187-.70313.5-.70314.5-2.8125 0-2.125-.5-2.8125-.48435-.70314-1.23435-.70314-.71875 0-1.15625.6094-.5469.78124-.5469 2.90624zm5.9844-3.23437v-1.01563h5.5625v.82813q-.8125.875-1.625 2.32813-.7969 1.4375-1.2344 2.96874-.3281 1.07813-.4062 2.35936h-1.0938q.01565-1.0156.39065-2.4531.39065-1.4375 1.09375-2.76563.71875-1.32813 1.53125-2.25z" fill="#ea4335"/>
  <path d="m1028.4321 447.28625v-2.0625h-3.7187v-.96875l3.9219-5.5625h.8593v5.5625h1.1563v.96875h-1.1563v2.0625zm0-3.03125v-3.85937l-2.6875 3.85937zm4.1875 3.03125v-1.20312h1.2032v1.20312q0 .65625-.2344 1.0625-.2344.42188-.7344.64063l-.2969-.45313q.3282-.14062.4844-.4375.1563-.28125.1875-.8125zm7.9844-1.01562v1.01562h-5.6875q0-.375.125-.73437.2188-.57813.6875-1.14063.4844-.5625 1.3906-1.29687 1.4063-1.15625 1.8907-1.82813.5-.67187.5-1.26562 0-.625-.4532-1.04688-.4531-.4375-1.1718-.4375-.7657 0-1.2188.45313-.4531.45312-.4687 1.26562l-1.0782-.10937q.1094-1.21875.8282-1.84375.7343-.64063 1.9687-.64063 1.2344 0 1.9531.6875.7188.6875.7188 1.70313 0 .51562-.2188 1.01562-.2031.48438-.7031 1.04688-.4844.54687-1.6094 1.5-.9531.79687-1.2343 1.09375-.2657.28125-.4375.5625zm1.6094-.96875 1.0156-.09375q.125.71875.4844 1.04687.375.3125.9375.3125.4844 0 .8437-.21875.375-.23437.6094-.59375.2344-.375.3906-1 .1563-.64062.1563-1.29687 0-.07813 0-.21875-.3125.5-.8594.82812-.5469.3125-1.1875.3125-1.0781 0-1.8125-.76562-.7344-.78125-.7344-2.04688 0-1.3125.7657-2.10937.7812-.79688 1.9375-.79688.8281 0 1.5156.45313.7031.45312 1.0625 1.29687.3594.82813.3594 2.40625 0 1.64063-.3594 2.625-.3438.96875-1.0625 1.48438-.7031.5-1.6406.5-1.0157 0-1.6563-.54688-.6406-.5625-.7656-1.57812zm4.3125-3.79688q0-.90625-.4844-1.4375-.4687-.53125-1.1562-.53125-.7032 0-1.2344.57813-.5156.5625-.5156 1.48437 0 .8125.5 1.32813.5.51562 1.2187.51562.7344 0 1.2031-.51562.4688-.51563.4688-1.42188z" stroke="#fff" stroke-linecap="round" stroke-linejoin="round" stroke-width="3"/>
  <path d="m1028.4321 447.28625v-2.0625h-3.7187v-.96875l3.9219-5.5625h.8593v5.5625h1.1563v.96875h-1.1563v2.0625zm0-3.03125v-3.85937l-2.6875 3.85937zm4.1875 3.03125v-1.20312h1.2032v1.20312q0 .65625-.2344 1.0625-.2344.42188-.7344.64063l-.2969-.45313q.3282-.14062.4844-.4375.1563-.28125.1875-.8125zm7.9844-1.01562v1.01562h-5.6875q0-.375.125-.73437.2188-.57813.6875-1.14063.4844-.5625 1.3906-1.29687 1.4063-1.15625 1.8907-1.82813.5-.67187.5-1.26562 0-.625-.4532-1.04688-.4531-.4375-1.1718-.4375-.7657 0-1.2188.45313-.4531.45312-.4687 1.26562l-1.0782-.10937q.1094-1.21875.8282-1.84375.7343-.64063 1.9687-.64063 1.2344 0 1.9531.6875.7188.6875.7188 1.70313 0 .51562-.2188 1.01562-.2031.48438-.7031 1.04688-.4844.54687-1.6094 1.5-.9531.79687-1.2343 1.09375-.2657.28125-.4375.5625zm1.6094-.96875 1.0156-.09375q.125.71875.4844 1.04687.375.3125.9375.3125.4844 0 .8437-.21875.375-.23437.6094-.59375.2344-.375.3906-1 .1563-.64062.1563-1.29687 0-.07813 0-.21875-.3125.5-.8594.82812-.5469.3125-1.1875.3125-1.0781 0-1.8125-.76562-.7344-.78125-.7344-2.04688 0-1.3125.7657-2.10937.7812-.79688 1.9375-.79688.8281 0 1.5156.45313.7031.45312 1.0625 1.29687.3594.82813.3594 2.40625 0 1.64063-.3594 2.625-.3438.96875-1.0625 1.48438-.7031.5-1.6406.5-1.0157 0-1.6563-.54688-.6406-.5625-.7656-1.57812zm4.3125-3.79688q0-.90625-.4844-1.4375-.4687-.53125-1.1562-.53125-.7032 0-1.2344.57813-.5156.5625-.5156 1.48437 0 .8125.5 1.32813.5.51562 1.2187.51562.7344 0 1.2031-.51562.4688-.51563.4688-1.42188z" fill="#ea4335"/>
  <path d="m165.6051 569.39557h-1.04687v-6.71877q-.39063.3594-1.01563.7344-.60937.35937-1.09375.53124v-1.01564q.875-.42186 1.53125-1 .67188-.59373.95313-1.15623h.67187z" stroke="#fff" stroke-linecap="round" stroke-linejoin="round" stroke-width="3"/>
  <path d="m165.6051 569.39557h-1.04687v-6.71877q-.39063.3594-1.01563.7344-.60937.35937-1.09375.53124v-1.01564q.875-.42186 1.53125-1 .67188-.59373.95313-1.15623h.67187z" fill="#34a853"/>
  <path d="m293.49808 561.4702h-1.04688v-6.71874q-.39062.35938-1.01562.73438-.60938.35936-1.09375.53126v-1.01564q.875-.42186 1.53125-1 .67187-.59376.95312-1.15626h.67188zm3.59375 0v-1.2031h1.20312v1.2031q0 .65626-.23437 1.0625-.23438.4219-.73438.64064l-.29687-.45314q.32812-.1406.48437-.4375.15625-.28124.1875-.8125zm2.4375-2.2656 1.0625-.14064q.17187.89064.60937 1.29688.4375.39062 1.0625.39062.75 0 1.26563-.51562.51562-.51564.51562-1.28124 0-.71876-.48437-1.1875-.46875-.4844-1.20313-.4844-.29687 0-.75.125l.125-.9375q.10938.01564.17188.01564.67187 0 1.20312-.34374.54688-.3594.54688-1.09376 0-.57814-.39063-.95314-.39062-.3906-1.01562-.3906-.60938 0-1.03125.3906-.40625.39064-.51563 1.15626l-1.0625-.1875q.1875-1.04686.875-1.625.6875-.59376 1.70313-.59376.70312 0 1.29687.3125.59375.2969.90625.8125.3125.51564.3125 1.1094 0 .54686-.29687 1.0156-.29688.45314-.875.71876.75.17188 1.17187.73438.42188.54686.42188 1.39062 0 1.125-.82813 1.90624-.8125.78126-2.0625.78126-1.125 0-1.875-.67186-.75-.6875-.85937-1.75zm7 0 1.0625-.14064q.17187.89064.60937 1.29688.4375.39062 1.0625.39062.75 0 1.26563-.51562.51562-.51564.51562-1.28124 0-.71876-.48437-1.1875-.46875-.4844-1.20313-.4844-.29687 0-.75.125l.125-.9375q.10938.01564.17188.01564.67187 0 1.20312-.34374.54688-.3594.54688-1.09376 0-.57814-.39063-.95314-.39062-.3906-1.01562-.3906-.60938 0-1.03125.3906-.40625.39064-.51563 1.15626l-1.0625-.1875q.1875-1.04686.875-1.625.6875-.59376 1.70313-.59376.70312 0 1.29687.3125.59375.2969.90625.8125.3125.51564.3125 1.1094 0 .54686-.29687 1.0156-.29688.45314-.875.71876.75.17188 1.17187.73438.42188.54686.42188 1.39062 0 1.125-.82813 1.90624-.8125.78126-2.0625.78126-1.125 0-1.875-.67186-.75-.6875-.85937-1.75z" stroke="#fff" stroke-linecap="round" stroke-linejoin="round" stroke-width="3"/>
  <path d="m293.49808 561.4702h-1.04688v-6.71874q-.39062.35938-1.01562.73438-.60938.35936-1.09375.53126v-1.01564q.875-.42186 1.53125-1 .67187-.59376.95312-1.15626h.67188zm3.59375 0v-1.2031h1.20312v1.2031q0 .65626-.23437 1.0625-.23438.4219-.73438.64064l-.29687-.45314q.32812-.1406.48437-.4375.15625-.28124.1875-.8125zm2.4375-2.2656 1.0625-.14064q.17187.89064.60937 1.29688.4375.39062 1.0625.39062.75 0 1.26563-.51562.51562-.51564.51562-1.28124 0-.71876-.48437-1.1875-.46875-.4844-1.20313-.4844-.29687 0-.75.125l.125-.9375q.10938.01564.17188.01564.67187 0 1.20312-.34374.54688-.3594.54688-1.09376 0-.57814-.39063-.95314-.39062-.3906-1.01562-.3906-.60938 0-1.03125.3906-.40625.39064-.51563 1.15626l-1.0625-.1875q.1875-1.04686.875-1.625.6875-.59376 1.70313-.59376.70312 0 1.29687.3125.59375.2969.90625.8125.3125.51564.3125 1.1094 0 .54686-.29687 1.0156-.29688.45314-.875.71876.75.17188 1.17187.73438.42188.54686.42188 1.39062 0 1.125-.82813 1.90624-.8125.78126-2.0625.78126-1.125 0-1.875-.67186-.75-.6875-.85937-1.75zm7 0 1.0625-.14064q.17187.89064.60937 1.29688.4375.39062 1.0625.39062.75 0 1.26563-.51562.51562-.51564.51562-1.28124 0-.71876-.48437-1.1875-.46875-.4844-1.20313-.4844-.29687 0-.75.125l.125-.9375q.10938.01564.17188.01564.67187 0 1.20312-.34374.54688-.3594.54688-1.09376 0-.57814-.39063-.95314-.39062-.3906-1.01562-.3906-.60938 0-1.03125.3906-.40625.39064-.51563 1.15626l-1.0625-.1875q.1875-1.04686.875-1.625.6875-.59376 1.70313-.59376.70312 0 1.29687.3125.59375.2969.90625.8125.3125.51564.3125 1.1094 0 .54686-.29687 1.0156-.29688.45314-.875.71876.75.17188 1.17187.73438.42188.54686.42188 1.39062 0 1.125-.82813 1.90624-.8125.78126-2.0625.78126-1.125 0-1.875-.67186-.75-.6875-.85937-1.75z" fill="#34a853"/>
  <path d="m437.26782 531.29974v1.01563h-5.6875q0-.375.125-.73437.21875-.57813.6875-1.14063.48438-.5625 1.39063-1.29687 1.40625-1.15626 1.89062-1.82813.5-.67187.5-1.26563 0-.625-.45312-1.04687-.45313-.4375-1.17188-.4375-.76562 0-1.21875.45313-.45312.4531-.46875 1.2656l-1.07812-.10936q.10937-1.21874.82812-1.84374.73438-.64063 1.96875-.64063 1.23438 0 1.95313.6875.71875.6875.71875 1.70313 0 .5156-.21875 1.0156-.20313.4844-.70313 1.0469-.48437.54687-1.60937 1.5-.95313.79687-1.23438 1.09374-.26562.28126-.4375.5625zm2.01563 1.01563v-1.20313h1.20312v1.20313q0 .65623-.23437 1.0625-.23438.42187-.73438.64063l-.29687-.45313q.32812-.14063.48437-.4375.15625-.28127.1875-.8125zm7.98437-1.01563v1.01563h-5.6875q0-.375.125-.73437.21875-.57813.6875-1.14063.48438-.5625 1.39063-1.29687 1.40625-1.15626 1.89062-1.82813.5-.67187.5-1.26563 0-.625-.45312-1.04687-.45313-.4375-1.17188-.4375-.76562 0-1.21875.45313-.45312.4531-.46875 1.2656l-1.07812-.10936q.10937-1.21874.82812-1.84374.73438-.64063 1.96875-.64063 1.23438 0 1.95313.6875.71875.6875.71875 1.70313 0 .5156-.21875 1.0156-.20313.4844-.70313 1.0469-.48437.54687-1.60937 1.5-.95313.79687-1.23438 1.09374-.26562.28126-.4375.5625zm1.45313-1.23437 1.10937-.09377q.125.8125.5625 1.21877.45313.40623 1.09375.40623.75 0 1.28125-.5781.53125-.57813.53125-1.51563 0-.90627-.51562-1.42187-.5-.53126-1.32813-.53126-.5 0-.92187.23436-.40625.2344-.64063.59377l-.98437-.125.82812-4.40627h4.28125v1h-3.4375l-.45312 2.3125q.76562-.54686 1.60937-.54686 1.125 0 1.89063.78126.78125.78124.78125 2.0156 0 1.15627-.67188 2.01564-.82812 1.03126-2.25 1.03126-1.17187 0-1.92187-.65626-.73438-.65624-.84375-1.73437z" stroke="#fff" stroke-linecap="round" stroke-linejoin="round" stroke-width="3"/>
  <path d="m437.26782 531.29974v1.01563h-5.6875q0-.375.125-.73437.21875-.57813.6875-1.14063.48438-.5625 1.39063-1.29687 1.40625-1.15626 1.89062-1.82813.5-.67187.5-1.26563 0-.625-.45312-1.04687-.45313-.4375-1.17188-.4375-.76562 0-1.21875.45313-.45312.4531-.46875 1.2656l-1.07812-.10936q.10937-1.21874.82812-1.84374.73438-.64063 1.96875-.64063 1.23438 0 1.95313.6875.71875.6875.71875 1.70313 0 .5156-.21875 1.0156-.20313.4844-.70313 1.0469-.48437.54687-1.60937 1.5-.95313.79687-1.23438 1.09374-.26562.28126-.4375.5625zm2.01563 1.01563v-1.20313h1.20312v1.20313q0 .65623-.23437 1.0625-.23438.42187-.73438.64063l-.29687-.45313q.32812-.14063.48437-.4375.15625-.28127.1875-.8125zm7.98437-1.01563v1.01563h-5.6875q0-.375.125-.73437.21875-.57813.6875-1.14063.48438-.5625 1.39063-1.29687 1.40625-1.15626 1.89062-1.82813.5-.67187.5-1.26563 0-.625-.45312-1.04687-.45313-.4375-1.17188-.4375-.76562 0-1.21875.45313-.45312.4531-.46875 1.2656l-1.07812-.10936q.10937-1.21874.82812-1.84374.73438-.64063 1.96875-.64063 1.23438 0 1.95313.6875.71875.6875.71875 1.70313 0 .5156-.21875 1.0156-.20313.4844-.70313 1.0469-.48437.54687-1.60937 1.5-.95313.79687-1.23438 1.09374-.26562.28126-.4375.5625zm1.45313-1.23437 1.10937-.09377q.125.8125.5625 1.21877.45313.40623 1.09375.40623.75 0 1.28125-.5781.53125-.57813.53125-1.51563 0-.90627-.51562-1.42187-.5-.53126-1.32813-.53126-.5 0-.92187.23436-.40625.2344-.64063.59377l-.98437-.125.82812-4.40627h4.28125v1h-3.4375l-.45312 2.3125q.76562-.54686 1.60937-.54686 1.125 0 1.89063.78126.78125.78124.78125 2.0156 0 1.15627-.67188 2.01564-.82812 1.03126-2.25 1.03126-1.17187 0-1.92187-.65626-.73438-.65624-.84375-1.73437z" fill="#34a853"/>
  <path d="m595.875 452.3238v-2.0625h-3.71875v-.96876l3.92185-5.5625h.8594v5.5625h1.15625v.96876h-1.15625v2.0625zm0-3.03126v-3.85937l-2.6875 3.85937zm4.1875 3.03126v-1.20313h1.2031v1.20313q0 .65624-.23435 1.0625-.23435.42187-.73435.64062l-.2969-.45312q.3281-.14063.4844-.4375.1562-.28126.1875-.8125zm6.40625 0h-1.04685v-6.71876q-.39065.35938-1.01565.73438-.60935.35938-1.09375.53125v-1.01563q.875-.42187 1.53125-1 .67185-.59374.95315-1.15624h.67185zm3.03125-2.25 1.1094-.09376q.125.8125.5625 1.21876.4531.40624 1.0937.40624.75 0 1.2813-.57812.5312-.57812.5312-1.51562 0-.90626-.5156-1.42188-.5-.53125-1.3281-.53125-.5 0-.9219.23437-.40625.23438-.6406.59376l-.9844-.125.8281-4.40626h4.2813v1h-3.4375l-.45315 2.3125q.76565-.54687 1.60935-.54687 1.125 0 1.89065.78125.78125.78125.78125 2.01562 0 1.15626-.6719 2.01563-.8281 1.03125-2.25 1.03125-1.17185 0-1.92185-.65625-.73435-.65625-.84375-1.73437z" stroke="#fff" stroke-linecap="round" stroke-linejoin="round" stroke-width="3"/>
  <path d="m595.875 452.3238v-2.0625h-3.71875v-.96876l3.92185-5.5625h.8594v5.5625h1.15625v.96876h-1.15625v2.0625zm0-3.03126v-3.85937l-2.6875 3.85937zm4.1875 3.03126v-1.20313h1.2031v1.20313q0 .65624-.23435 1.0625-.23435.42187-.73435.64062l-.2969-.45312q.3281-.14063.4844-.4375.1562-.28126.1875-.8125zm6.40625 0h-1.04685v-6.71876q-.39065.35938-1.01565.73438-.60935.35938-1.09375.53125v-1.01563q.875-.42187 1.53125-1 .67185-.59374.95315-1.15624h.67185zm3.03125-2.25 1.1094-.09376q.125.8125.5625 1.21876.4531.40624 1.0937.40624.75 0 1.2813-.57812.5312-.57812.5312-1.51562 0-.90626-.5156-1.42188-.5-.53125-1.3281-.53125-.5 0-.9219.23437-.40625.23438-.6406.59376l-.9844-.125.8281-4.40626h4.2813v1h-3.4375l-.45315 2.3125q.76565-.54687 1.60935-.54687 1.125 0 1.89065.78125.78125.78125.78125 2.01562 0 1.15626-.6719 2.01563-.8281 1.03125-2.25 1.03125-1.17185 0-1.92185-.65625-.73435-.65625-.84375-1.73437z" fill="#34a853"/>
  <path d="m745.6545 354.08475-1.0469.07812q-.1406-.625-.3906-.90625-.4375-.45312-1.0625-.45312-.5 0-.89065.28125-.48435.375-.78125 1.07812-.28125.6875-.2969 1.96875.375-.57812.9219-.85937.5625-.28125 1.1719-.28125 1.04685 0 1.7812.78125.75.78125.75 2 0 .8125-.35935 1.51562-.34375.6875-.95315 1.0625-.60935.35938-1.375.35938-1.3281 0-2.1562-.96875-.82815-.96875-.82815-3.1875 0-2.5.92185-3.625.7969-.98438 2.1563-.98438 1.0156 0 1.6562.57813.6563.5625.7813 1.5625zm-4.2969 3.70312q0 .54688.21875 1.04688.23435.48437.64065.75.42185.26562.8906.26562.65625 0 1.1406-.53125.4844-.54687.4844-1.46875 0-.89062-.4844-1.40625-.4687-.51562-1.1875-.51562-.7187 0-1.2187.51562-.4844.51563-.4844 1.34375zm6.3906 2.78125v-1.20312h1.20315v1.20312q0 .65625-.23435 1.0625-.2344.42188-.7344.64063l-.2969-.45313q.32815-.14062.4844-.4375.15625-.28125.1875-.8125zm2.5-7.46875v-1.01562h5.5625v.82812q-.8125.875-1.625 2.32813-.79685 1.4375-1.23435 2.96875-.32815 1.07812-.40625 2.35937h-1.09375q.01565-1.01562.39065-2.45312.3906-1.4375 1.0937-2.76563.7188-1.32812 1.5313-2.25z" stroke="#fff" stroke-linecap="round" stroke-linejoin="round" stroke-width="3"/>
  <path d="m745.6545 354.08475-1.0469.07812q-.1406-.625-.3906-.90625-.4375-.45312-1.0625-.45312-.5 0-.89065.28125-.48435.375-.78125 1.07812-.28125.6875-.2969 1.96875.375-.57812.9219-.85937.5625-.28125 1.1719-.28125 1.04685 0 1.7812.78125.75.78125.75 2 0 .8125-.35935 1.51562-.34375.6875-.95315 1.0625-.60935.35938-1.375.35938-1.3281 0-2.1562-.96875-.82815-.96875-.82815-3.1875 0-2.5.92185-3.625.7969-.98438 2.1563-.98438 1.0156 0 1.6562.57813.6563.5625.7813 1.5625zm-4.2969 3.70312q0 .54688.21875 1.04688.23435.48437.64065.75.42185.26562.8906.26562.65625 0 1.1406-.53125.4844-.54687.4844-1.46875 0-.89062-.4844-1.40625-.4687-.51562-1.1875-.51562-.7187 0-1.2187.51562-.4844.51563-.4844 1.34375zm6.3906 2.78125v-1.20312h1.20315v1.20312q0 .65625-.23435 1.0625-.2344.42188-.7344.64063l-.2969-.45313q.32815-.14062.4844-.4375.15625-.28125.1875-.8125zm2.5-7.46875v-1.01562h5.5625v.82812q-.8125.875-1.625 2.32813-.79685 1.4375-1.23435 2.96875-.32815 1.07812-.40625 2.35937h-1.09375q.01565-1.01562.39065-2.45312.3906-1.4375 1.0937-2.76563.7188-1.32812 1.5313-2.25z" fill="#34a853"/>
  <path d="m884.84015 202.24733h-1.04685v-6.71875q-.39065.35937-1.01565.73437-.60935.35938-1.09375.53125v-1.01562q.875-.42188 1.53125-1 .67185-.59375.95315-1.15625h.67185zm7 0h-1.04685v-6.71875q-.39065.35937-1.01565.73437-.60935.35938-1.09375.53125v-1.01562q.875-.42188 1.53125-1 .67185-.59375.95315-1.15625h.67185zm3.59375 0v-1.20313h1.2031v1.20313q0 .65625-.23435 1.0625-.23435.42187-.73435.64062l-.2969-.45312q.3281-.14063.4844-.4375.1562-.28125.1875-.8125zm6.40625 0h-1.04685v-6.71875q-.39065.35937-1.01565.73437-.60935.35938-1.09375.53125v-1.01562q.875-.42188 1.53125-1 .67185-.59375.95315-1.15625h.67185z" stroke="#fff" stroke-linecap="round" stroke-linejoin="round" stroke-width="3"/>
  <path d="m884.84015 202.24733h-1.04685v-6.71875q-.39065.35937-1.01565.73437-.60935.35938-1.09375.53125v-1.01562q.875-.42188 1.53125-1 .67185-.59375.95315-1.15625h.67185zm7 0h-1.04685v-6.71875q-.39065.35937-1.01565.73437-.60935.35938-1.09375.53125v-1.01562q.875-.42188 1.53125-1 .67185-.59375.95315-1.15625h.67185zm3.59375 0v-1.20313h1.2031v1.20313q0 .65625-.23435 1.0625-.23435.42187-.73435.64062l-.2969-.45312q.3281-.14063.4844-.4375.1562-.28125.1875-.8125zm6.40625 0h-1.04685v-6.71875q-.39065.35937-1.01565.73437-.60935.35938-1.09375.53125v-1.01562q.875-.42188 1.53125-1 .67185-.59375.95315-1.15625h.67185z" fill="#34a853"/>
  <path d="m1025.5259 115.530174h-1.0469v-6.71875q-.3906.359376-1.0156.734376-.6094.359374-1.0938.53125v-1.015626q.875-.421874 1.5313-1 .6719-.59375.9531-1.15625h.6719zm3.0312-2.265624 1.0625-.140626q.1719.890626.6094 1.296876.4375.390624 1.0625.390624.75 0 1.2656-.515624.5157-.515626.5157-1.28125 0-.71875-.4844-1.1875-.4688-.484376-1.2031-.484376-.2969 0-.75.125l.125-.9375q.1093.015626.1718.015626.6719 0 1.2032-.34375.5468-.359376.5468-1.09375 0-.578126-.3906-.953126-.3906-.390624-1.0156-.390624-.6094 0-1.0313.390624-.4062.390626-.5156 1.15625l-1.0625-.1875q.1875-1.046874.875-1.625.6875-.59375 1.7031-.59375.7032 0 1.2969.3125.5938.296876.9063.8125.3125.515626.3125 1.109376 0 .546874-.2969 1.015624-.2969.453126-.875.71875.75.171876 1.1719.734376.4218.546874.4218 1.390624 0 1.125-.8281 1.90625-.8125.78125-2.0625.78125-1.125 0-1.875-.671874-.75-.6875-.8594-1.75zm7.5625 2.265624v-1.203124h1.2032v1.203124q0 .65625-.2344 1.0625-.2344.421876-.7344.640626l-.2969-.453126q.3282-.140624.4844-.4375.1563-.28125.1875-.8125zm2.4375-2.25 1.1094-.09375q.125.8125.5625 1.21875.4531.40625 1.0938.40625.75 0 1.2812-.578124.5313-.578126.5313-1.515626 0-.90625-.5157-1.421874-.5-.53125-1.3281-.53125-.5 0-.9219.234374-.4062.234376-.6406.59375l-.9844-.125.8282-4.40625h4.2812v1h-3.4375l-.4531 2.3125q.7656-.546874 1.6094-.546874 1.125 0 1.8906.78125.7812.78125.7812 2.015624 0 1.15625-.6718 2.015626-.8282 1.03125-2.25 1.03125-1.1719 0-1.9219-.65625-.7344-.65625-.8438-1.734376zm10.9688 2.25h-1.0469v-6.71875q-.3906.359376-1.0156.734376-.6094.359374-1.0938.53125v-1.015626q.875-.421874 1.5313-1 .6719-.59375.9531-1.15625h.6719z" stroke="#fff" stroke-linecap="round" stroke-linejoin="round" stroke-width="3"/>
  <path d="m1025.5259 115.530174h-1.0469v-6.71875q-.3906.359376-1.0156.734376-.6094.359374-1.0938.53125v-1.015626q.875-.421874 1.5313-1 .6719-.59375.9531-1.15625h.6719zm3.0312-2.265624 1.0625-.140626q.1719.890626.6094 1.296876.4375.390624 1.0625.390624.75 0 1.2656-.515624.5157-.515626.5157-1.28125 0-.71875-.4844-1.1875-.4688-.484376-1.2031-.484376-.2969 0-.75.125l.125-.9375q.1093.015626.1718.015626.6719 0 1.2032-.34375.5468-.359376.5468-1.09375 0-.578126-.3906-.953126-.3906-.390624-1.0156-.390624-.6094 0-1.0313.390624-.4062.390626-.5156 1.15625l-1.0625-.1875q.1875-1.046874.875-1.625.6875-.59375 1.7031-.59375.7032 0 1.2969.3125.5938.296876.9063.8125.3125.515626.3125 1.109376 0 .546874-.2969 1.015624-.2969.453126-.875.71875.75.171876 1.1719.734376.4218.546874.4218 1.390624 0 1.125-.8281 1.90625-.8125.78125-2.0625.78125-1.125 0-1.875-.671874-.75-.6875-.8594-1.75zm7.5625 2.265624v-1.203124h1.2032v1.203124q0 .65625-.2344 1.0625-.2344.421876-.7344.640626l-.2969-.453126q.3282-.140624.4844-.4375.1563-.28125.1875-.8125zm2.4375-2.25 1.1094-.09375q.125.8125.5625 1.21875.4531.40625 1.0938.40625.75 0 1.2812-.578124.5313-.578126.5313-1.515626 0-.90625-.5157-1.421874-.5-.53125-1.3281-.53125-.5 0-.9219.234374-.4062.234376-.6406.59375l-.9844-.125.8282-4.40625h4.2812v1h-3.4375l-.4531 2.3125q.7656-.546874 1.6094-.546874 1.125 0 1.8906.78125.7812.78125.7812 2.015624 0 1.15625-.6718 2.015626-.8282 1.03125-2.25 1.03125-1.1719 0-1.9219-.65625-.7344-.65625-.8438-1.734376zm10.9688 2.25h-1.0469v-6.71875q-.3906.359376-1.0156.734376-.6094.359374-1.0938.53125v-1.015626q.875-.421874 1.5313-1 .6719-.59375.9531-1.15625h.6719z" fill="#34a853"/>
  <path d="m591.0469 665.8844 1.0625-.09375q.0781.65625.35935 1.0625.28125.40625.85935.67185.5938.25 1.32815.25.64065 0 1.14065-.1875.5-.2031.73435-.5312.25-.3438.25-.7344 0-.40625-.23435-.7031-.2344-.3125-.76565-.51565-.35935-.14065-1.54685-.42185-1.1719-.2813-1.64065-.5313-.625-.3281-.92185-.79685-.2969-.48435-.2969-1.07815 0-.6406.3594-1.2031.375-.5781 1.0781-.8594.71875-.29685 1.5781-.29685.95315 0 1.6875.3125.7344.29685 1.125.90625.39065.59375.4219 1.34375l-1.09375.07815q-.09375-.8125-.60935-1.2188-.5-.42185-1.4844-.42185-1.03125 0-1.5.375-.46875.375-.46875.90625 0 .46875.32815.7656.3281.2969 1.7031.6094 1.3906.3125 1.90625.5469.75.35935 1.10935.8906.3594.5156.3594 1.21875 0 .6875-.3906 1.29685-.39065.5938-1.125.9375-.7344.32815-1.6563.32815-1.17185 0-1.9687-.32815-.7813-.3437-1.2344-1.0312-.4375-.6875-.4531-1.5469zm8.2187 2.7656v-8.5937h1.0625v8.5937zm2.64065-3.10935q0-1.73435.95315-2.5625.79685-.6875 1.9531-.6875 1.28125 0 2.09375.84375.82815.8281.82815 2.3125 0 1.2031-.3594 1.8906-.3594.6875-1.0625 1.07815-.6875.375-1.5.375-1.2969 0-2.1094-.82815-.79685-.8437-.79685-2.42185zm1.07815 0q0 1.1875.5156 1.78125.53125.59375 1.3125.59375.7969 0 1.3125-.59375.5156-.59375.5156-1.8125 0-1.15625-.5312-1.75-.51565-.59375-1.2969-.59375-.78125 0-1.3125.59375-.5156.5781-.5156 1.78125zm8.60935 2.17185.15625.9219q-.4531.09375-.7969.09375-.5781 0-.8906-.17185-.3125-.1875-.4531-.4844-.125-.2969-.125-1.25v-3.5781h-.76565v-.8125h.76565v-1.5469l1.04685-.625v2.1719h1.0625v.8125h-1.0625v3.6406q0 .4531.04685.5781.0625.125.1875.20315.125.07815.3594.07815.1875 0 .46875-.0313zm.28125-.92185 1.03125-.15625q.09375.625.48435.9531.4063.32815 1.14065.32815.71875 0 1.0625-.28125.35935-.2969.35935-.7031 0-.3594-.3125-.5625-.2187-.14065-1.0781-.3594-1.15625-.2969-1.6094-.5-.4375-.21875-.67185-.59375-.23435-.375-.23435-.84375 0-.40625.1875-.7656.1875-.3594.5156-.5938.25-.17185.6719-.29685.42185-.125.92185-.125.71875 0 1.26565.21875.5625.2031.8281.5625.2656.3594.3594.9531l-1.0313.14065q-.0625-.46875-.4062-.73435-.32815-.2813-.95315-.2813-.71875 0-1.03125.25-.3125.2344-.3125.5625 0 .20315.125.3594.1406.1719.40625.28125.15625.0625.9375.26565 1.125.3125 1.5625.5.4375.1875.6875.54685.25.35935.25.90625 0 .53125-.3125 1-.29685.4531-.875.71875-.57815.25-1.3125.25-1.21875 0-1.85935-.5-.625-.51565-.7969-1.5z" fill="#000"/>
  <path d="m45.131275 384.15833-.109375-1.25q.75-.09375 1.234375-.42188.484375-.32812.78125-1 .296875-.6875.296875-1.54687 0-.75-.21875-1.32813-.234375-.59375-.625-.875-.390625-.28125-.859375-.28125-.46875 0-.8125.28125-.359375.26563-.609375.89063-.15625.40625-.484375 1.79687-.328125 1.375-.625 1.92188-.375.71875-.921875 1.07812-.5625.34375-1.265625.34375-.75 0-1.40625-.42187-.671875-.4375-1-1.26563-.34375-.82812-.34375-1.84375 0-1.10937.359375-1.95312.359375-.85938 1.0625-1.3125.6875-.45313 1.5625-.5l.09375 1.28125q-.9375.09375-1.421875.6875-.5.59375-.5 1.75 0 1.20312.453125 1.75.4375.54687 1.0625.54687.53125 0 .890625-.39062.34375-.375.71875-1.98438.359375-1.625.625-2.21875.40625-.875 1.03125-1.29687.609375-.42188 1.421875-.42188.796875 0 1.515625.46875.703125.45313 1.09375 1.3125.390625.85938.390625 1.92188 0 1.35937-.390625 2.28125-.40625.92187-1.203125 1.45312-.796875.51563-1.796875.54688zm6-9.29688h-10.046875v-1.125h.953125q-.5625-.39062-.828125-.89062-.28125-.5-.28125-1.21875 0-.92188.484375-1.625.46875-.71875 1.34375-1.07813.875-.35937 1.90625-.35937 1.109375 0 2.015625.40625.890625.39062 1.375 1.15625.46875.75.46875 1.59375 0 .60937-.265625 1.10937-.265625.48438-.65625.79688h3.53125zm-6.375-1.10937q1.40625 0 2.078125-.5625.671875-.57813.671875-1.39063 0-.8125-.6875-1.39062-.703125-.59375-2.15625-.59375-1.390625 0-2.078125.57812-.6875.5625-.6875 1.35938 0 .78125.734375 1.39062.734375.60938 2.125.60938zm1.25-11.85938.15625-1.28125q1.125.3125 1.75 1.125.609375.8125.609375 2.07813 0 1.59375-.984375 2.53125-.984375.92187-2.75.92187-1.84375 0-2.84375-.9375-1.015625-.95312-1.015625-2.45312 0-1.45313 1-2.375.984375-.92188 2.78125-.92188.109375 0 .328125 0v5.42188q1.1875-.07813 1.828125-.67188.640625-.60937.640625-1.53125 0-.67187-.359375-1.14062-.359375-.48438-1.140625-.76563zm-1.984375 4.03125v-4.04687q-.921875.07812-1.375.46875-.703125.57812-.703125 1.51562 0 .85938.5625 1.4375.5625.5625 1.515625.625zm1.984375-12.03125.15625-1.28125q1.125.3125 1.75 1.125.609375.8125.609375 2.07813 0 1.59375-.984375 2.53125-.984375.92187-2.75.92187-1.84375 0-2.84375-.9375-1.015625-.95312-1.015625-2.45312 0-1.45313 1-2.375.984375-.92188 2.78125-.92188.109375 0 .328125 0v5.42188q1.1875-.07813 1.828125-.67188.640625-.60937.640625-1.53125 0-.67187-.359375-1.14062-.359375-.48438-1.140625-.76563zm-1.984375 4.03125v-4.04687q-.921875.07812-1.375.46875-.703125.57812-.703125 1.51562 0 .85938.5625 1.4375.5625.5625 1.515625.625zm4.328125-11.78125h-.921875q1.09375.70313 1.09375 2.03125 0 .875-.484375 1.60938-.484375.71875-1.34375 1.125-.859375.39062-1.96875.39062-1.078125 0-1.96875-.35937-.890625-.35938-1.359375-1.07813-.46875-.73437-.46875-1.625 0-.65625.28125-1.17187.265625-.51563.71875-.82813h-3.59375v-1.23437h10.015625zm-3.625 3.89063q1.390625 0 2.09375-.57813.6875-.59375.6875-1.39062 0-.8125-.65625-1.375-.671875-.5625-2.015625-.5625-1.5 0-2.1875.57812-.703125.57813-.703125 1.40625 0 .82813.671875 1.375.671875.54688 2.109375.54688zm3.625-11.9375h-1.0625q1.234375.85937 1.234375 2.3125 0 .64062-.25 1.20312-.25.54688-.625.82813-.375.26562-.90625.375-.359375.07812-1.15625.07812h-4.5v-1.23437h4.03125q.96875 0 1.296875-.07813.484375-.10937.765625-.48437.28125-.375.28125-.9375 0-.54688-.28125-1.03125-.296875-.48438-.78125-.6875-.484375-.20313-1.421875-.20313h-3.890625v-1.23437h7.265625zm2.78125-3.23438h-10.046875v-1.125h.953125q-.5625-.39062-.828125-.89062-.28125-.5-.28125-1.21875 0-.92188.484375-1.625.46875-.71875 1.34375-1.07813.875-.35937 1.90625-.35937 1.109375 0 2.015625.40625.890625.39062 1.375 1.15625.46875.75.46875 1.59375 0 .60937-.265625 1.10937-.265625.48438-.65625.79688h3.53125zm-6.375-1.10937q1.40625 0 2.078125-.5625.671875-.57813.671875-1.39063 0-.8125-.6875-1.39062-.703125-.59375-2.15625-.59375-1.390625 0-2.078125.57812-.6875.5625-.6875 1.35938 0 .78125.734375 1.39062.734375.60938 2.125.60938z" fill="#000"/>
  <path d="m86.85 619.41565q0-1.53125.3125-2.45315.3125-.9375.92187-1.4375.625-.5 1.5625-.5.6875 0 1.20313.2813.53125.2812.875.8125.34375.5156.53125 1.2656.1875.75.1875 2.03125 0 1.51565-.3125 2.4375-.29688.92185-.92188 1.4375-.60937.5-1.5625.5-1.23437 0-1.95312-.89065-.84375-1.0625-.84375-3.48435zm1.07812 0q0 2.10935.5 2.8125.5.70315 1.21875.70315.73438 0 1.21875-.70315.5-.70315.5-2.8125 0-2.125-.5-2.8125-.48437-.70315-1.23437-.70315-.71875 0-1.15625.6094-.54688.78125-.54688 2.90625z" fill="#000"/>
  <path d="m86.85 441.4889 1.10937-.09376q.125.8125.5625 1.21876.45313.40624 1.09375.40624.75 0 1.28125-.57812.53125-.57812.53125-1.51562 0-.90626-.51562-1.42188-.5-.53125-1.32813-.53125-.5 0-.92187.23437-.40625.23438-.64063.59376l-.98437-.125.82812-4.40626h4.28125v1h-3.4375l-.45312 2.3125q.76562-.54687 1.60937-.54687 1.125 0 1.89063.78125.78125.78125.78125 2.01562 0 1.15626-.67188 2.01563-.82812 1.03125-2.25 1.03125-1.17187 0-1.92187-.65625-.73438-.65625-.84375-1.73437z" fill="#000"/>
  <path d="m83.81875 263.8278h-1.04688v-6.71876q-.39062.35936-1.01562.73436-.60938.3594-1.09375.53126v-1.01562q.875-.42188 1.53125-1 .67187-.59375.95312-1.15625h.67188zm3.03125-4.2344q0-1.53124.3125-2.4531.3125-.9375.92187-1.43751.625-.5 1.5625-.5.6875 0 1.20313.28125.53125.28125.875.8125.34375.51562.53125 1.26562.1875.75.1875 2.03124 0 1.51564-.3125 2.4375-.29688.9219-.92188 1.4375-.60937.5-1.5625.5-1.23437 0-1.95312-.8906-.84375-1.0625-.84375-3.4844zm1.07812 0q0 2.1094.5 2.8125.5.70314 1.21875.70314.73438 0 1.21875-.70314.5-.7031.5-2.8125 0-2.125-.5-2.8125-.48437-.7031-1.23437-.7031-.71875 0-1.15625.60936-.54688.78124-.54688 2.90624z" fill="#000"/>
  <path d="m83.81875 83.916664h-1.04688v-6.71875q-.39062.359376-1.01562.734376-.60938.359374-1.09375.53125v-1.015626q.875-.421874 1.53125-1 .67187-.59375.95312-1.15625h.67188zm3.03125-2.25 1.10937-.09375q.125.8125.5625 1.21875.45313.40625 1.09375.40625.75 0 1.28125-.578124.53125-.578126.53125-1.515626 0-.90625-.51562-1.421874-.5-.53125-1.32813-.53125-.5 0-.92187.234374-.40625.234376-.64063.59375l-.98437-.125.82812-4.40625h4.28125v1h-3.4375l-.45312 2.3125q.76562-.546874 1.60937-.546874 1.125 0 1.89063.78125.78125.78125.78125 2.015624 0 1.15625-.67188 2.015626-.82812 1.03125-2.25 1.03125-1.17187 0-1.92187-.65625-.73438-.65625-.84375-1.734376z" fill="#000"/>
  <path d="m172.4116 636.65h-1.04687v-6.7187q-.39063.35935-1.01563.73435-.60937.35935-1.09374.53125v-1.0156q.875-.4219 1.53124-1 .67188-.5938.95313-1.1563h.67187z" fill="#000"/>
  <path d="m318.17545 635.6344v1.0156h-5.6875q0-.375.125-.73435.21875-.57815.6875-1.14065.48437-.5625 1.39062-1.29685 1.40625-1.15625 1.89063-1.82815.5-.67185.5-1.2656 0-.625-.45313-1.0469-.45312-.4375-1.17187-.4375-.76563 0-1.21875.45315-.45313.45315-.46875 1.26565l-1.07813-.1094q.10938-1.21875.82813-1.84375.73437-.64065 1.96875-.64065 1.23437 0 1.95312.6875.71875.6875.71875 1.70315 0 .51565-.21875 1.01565-.20312.48435-.70312 1.04685-.48438.54685-1.60938 1.5-.95312.79685-1.23437 1.09375-.26563.28125-.4375.5625z" fill="#000"/>
  <path d="m460.1893 636.65v-2.0625h-3.71875v-.9687l3.92188-5.5625h.85937v5.5625h1.15625v.9687h-1.15625v2.0625zm0-3.0312v-3.8594l-2.6875 3.8594z" fill="#000"/>
  <path d="m602.625 631.9938q-.65625-.25-.9844-.6875-.3125-.45315-.3125-1.0625 0-.9375.6719-1.57815.6875-.64065 1.7969-.64065 1.125 0 1.8125.6563.6875.6562.6875 1.5937 0 .5938-.3125 1.0313-.3125.4375-.95315.6875.79685.25 1.20315.8281.4062.5781.4062 1.375 0 1.09375-.7812 1.84375-.76565.75-2.0469.75-1.2656 0-2.0469-.75-.7812-.75-.7812-1.875 0-.84375.42185-1.40625.4375-.5625 1.21875-.7656zm-.21875-1.7969q0 .6094.39065 1 .4062.3906 1.0312.3906.6094 0 1-.375.39065-.3906.39065-.9531 0-.5781-.40625-.96875-.40625-.40625-1-.40625-.6094 0-1.0156.3906-.39065.39065-.39065.9219zm-.32815 3.96875q0 .45315.20315.875.21875.42185.64065.65625.42185.2344.9062.2344.75 0 1.2344-.4844.5-.4844.5-1.2344 0-.7656-.5-1.2656-.5-.5-1.2656-.5-.75 0-1.2344.5-.4844.4844-.4844 1.21875z" fill="#000"/>
  <path d="m745.6545 636.65h-1.0469v-6.7187q-.3906.35935-1.0156.73435-.6094.35935-1.0938.53125v-1.0156q.875-.4219 1.5313-1 .67185-.5938.9531-1.1563h.6719zm8.5-6.48435-1.0469.07815q-.1406-.625-.3906-.9063-.4375-.4531-1.0625-.4531-.5 0-.89065.28125-.48435.375-.78125 1.07815-.28125.6875-.2969 1.9687.375-.5781.9219-.85935.5625-.28125 1.1719-.28125 1.04685 0 1.7812.78125.75.78125.75 2 0 .8125-.35935 1.51565-.34375.6875-.95315 1.0625-.60935.35935-1.375.35935-1.3281 0-2.1562-.96875-.82815-.96875-.82815-3.1875 0-2.5.92185-3.625.7969-.9844 2.1563-.9844 1.0156 0 1.6562.57815.6563.5625.7813 1.5625zm-4.2969 3.70315q0 .54685.21875 1.04685.23435.48435.64065.75.42185.26565.8906.26565.65625 0 1.1406-.5313.4844-.54685.4844-1.4687 0-.89065-.4844-1.4063-.4687-.5156-1.1875-.5156-.7187 0-1.2187.5156-.4844.51565-.4844 1.3438z" fill="#000"/>
  <path d="m885.8714 634.3844 1.0625-.1406q.1719.8906.6094 1.29685.4375.39065 1.0625.39065.75 0 1.2656-.51565.5156-.51565.5156-1.28125 0-.71875-.48435-1.1875-.46875-.4844-1.20315-.4844-.29685 0-.75.125l.125-.9375q.1094.01565.1719.01565.6719 0 1.2031-.34375.5469-.3594.5469-1.09375 0-.57815-.3906-.95315-.39065-.3906-1.01565-.3906-.60935 0-1.03125.3906-.40625.39065-.5156 1.1563l-1.0625-.1875q.1875-1.0469.875-1.625.6875-.5938 1.7031-.5938.7031 0 1.2969.3125.5937.2969.9062.8125.3125.51565.3125 1.1094 0 .5469-.29685 1.0156-.29685.45315-.875.7188.75.17185 1.17185.73435.4219.54685.4219 1.39065 0 1.125-.8281 1.9062-.8125.7813-2.0625.7813-1.125 0-1.875-.6719-.75-.6875-.8594-1.75zm12.5469 1.25v1.0156h-5.6875q0-.375.125-.73435.2187-.57815.6875-1.14065.48435-.5625 1.3906-1.29685 1.40625-1.15625 1.8906-1.82815.5-.67185.5-1.2656 0-.625-.4531-1.0469-.4531-.4375-1.1719-.4375-.7656 0-1.2187.45315-.45315.45315-.4688 1.26565l-1.0781-.1094q.1094-1.21875.8281-1.84375.7344-.64065 1.9688-.64065 1.23435 0 1.9531.6875.71875.6875.71875 1.70315 0 .51565-.21875 1.01565-.2031.48435-.7031 1.04685-.4844.54685-1.6094 1.5-.9531.79685-1.2344 1.09375-.2656.28125-.4375.5625z" fill="#000"/>
  <path d="m1035.5259 630.16565-1.0469.07815q-.1406-.625-.3906-.9063-.4375-.4531-1.0625-.4531-.5 0-.8906.28125-.4844.375-.7813 1.07815-.2812.6875-.2969 1.9687.375-.5781.9219-.85935.5625-.28125 1.1719-.28125 1.0469 0 1.7812.78125.75.78125.75 2 0 .8125-.3593 1.51565-.3438.6875-.9532 1.0625-.6093.35935-1.375.35935-1.3281 0-2.1562-.96875-.8281-.96875-.8281-3.1875 0-2.5.9218-3.625.7969-.9844 2.1563-.9844 1.0156 0 1.6562.57815.6563.5625.7813 1.5625zm-4.2969 3.70315q0 .54685.2188 1.04685.2343.48435.6406.75.4219.26565.8906.26565.6563 0 1.1406-.5313.4844-.54685.4844-1.4687 0-.89065-.4844-1.4063-.4687-.5156-1.1875-.5156-.7187 0-1.2187.5156-.4844.51565-.4844 1.3438zm9.2031 2.7812v-2.0625h-3.7187v-.9687l3.9219-5.5625h.8593v5.5625h1.1563v.9687h-1.1563v2.0625zm0-3.0312v-3.8594l-2.6875 3.8594z" fill="#000"/>
  <path d="m421 42.35c0 3.313708-2.68628 6-6 6s-6-2.686292-6-6c0-3.313707 2.68628-6 6-6s6 2.686293 6 6z" fill="#4285f4"/>
  <path d="m433.46875 46.35h-1.04687v-6.71875q-.39063.359373-1.01563.734373-.60937.359377-1.09375.53125v-1.015623q.875-.421877 1.53125-1 .67187-.59375.95313-1.15625h.67187zm3.03125-4.234377q0-1.53125.3125-2.453123.3125-.9375.92188-1.4375.625-.5 1.5625-.5.6875 0 1.20312.28125.53125.28125.875.8125.34375.515623.53125 1.265623.1875.75.1875 2.03125 0 1.515627-.3125 2.4375-.29687.921877-.92187 1.4375-.60938.5-1.5625.5-1.23438 0-1.95313-.890623-.84375-1.0625-.84375-3.484377zm1.07812 0q0 2.109377.5 2.8125.5.703127 1.21876.703127.73437 0 1.21874-.703127.5-.703123.5-2.8125 0-2.125-.5-2.8125-.48437-.703123-1.23437-.703123-.71875 0-1.15625.609373-.54688.78125-.54688 2.90625zm5.92188 0q0-1.53125.3125-2.453123.3125-.9375.92188-1.4375.625-.5 1.5625-.5.6875 0 1.20312.28125.53125.28125.875.8125.34375.515623.53125 1.265623.1875.75.1875 2.03125 0 1.515627-.3125 2.4375-.29687.921877-.92187 1.4375-.60938.5-1.5625.5-1.23438 0-1.95313-.890623-.84375-1.0625-.84375-3.484377zm1.07812 0q0 2.109377.5 2.8125.5.703127 1.21876.703127.73437 0 1.21874-.703127.5-.703123.5-2.8125 0-2.125-.5-2.8125-.48437-.703123-1.23437-.703123-.71875 0-1.15625.609373-.54688.78125-.54688 2.90625zm5.92188 0q0-1.53125.3125-2.453123.3125-.9375.92188-1.4375.625-.5 1.5625-.5.6875 0 1.20312.28125.53125.28125.875.8125.34375.515623.53125 1.265623.1875.75.1875 2.03125 0 1.515627-.3125 2.4375-.29687.921877-.92187 1.4375-.60938.5-1.5625.5-1.23438 0-1.95313-.890623-.84375-1.0625-.84375-3.484377zm1.07812 0q0 2.109377.5 2.8125.5.703127 1.21876.703127.73437 0 1.21874-.703127.5-.703123.5-2.8125 0-2.125-.5-2.8125-.48437-.703123-1.23437-.703123-.71875 0-1.15625.609373-.54688.78125-.54688 2.90625zm9.34376 4.234377v-8.59375h3.25q.84374 0 1.29687.078123.64063.109377 1.0625.40625.4375.296877.6875.828127.26563.53125.26563 1.171873 0 1.09375-.70313 1.859377-.6875.75-2.51563.75h-2.20312v3.5zm1.14062-4.5h2.21875q1.10937 0 1.5625-.40625.46875-.421877.46875-1.171877 0-.53125-.28125-.90625-.26563-.390623-.70313-.515623-.29687-.078127-1.0625-.078127h-2.20312zm10.79688 3.734373q-.59376.5-1.14063.703127-.53125.203123-1.15625.203123-1.03125 0-1.57812-.5-.54688-.5-.54688-1.28125 0-.453123.20312-.828123.20313-.390627.54688-.609377.34375-.234373.76562-.34375.29688-.09375.9375-.171873 1.26563-.140627 1.875-.359377 0-.21875 0-.265623 0-.65625-.29687-.921877-.40625-.34375-1.20313-.34375-.73437 0-1.09374.265627-.35938.25-.53126.90625l-1.03124-.140627q.14062-.65625.46874-1.0625.32813-.40625.9375-.625.60938-.21875 1.40626-.21875.79687 0 1.29687.1875.5.1875.73437.46875.23438.28125.32813.71875.04687.265627.04687.96875v1.40625q0 1.46875.0625 1.859377.07813.390623.28126.75h-1.10938q-.15625-.328127-.20312-.765627zm-.09376-2.359373q-.57812.234373-1.71874.40625-.65626.09375-.92188.21875-.26562.109373-.42188.328123-.14062.21875-.14062.5 0 .421877.3125.703127.32812.28125.9375.28125.60938 0 1.07812-.265627.48438-.265623.70313-.734373.17187-.359377.17187-1.046877zm3.01563 3.125v-6.21875h.95313v.9375q.35937-.65625.65624-.859377.3125-.21875.6875-.21875.53126 0 1.07813.328127l-.35937.984373q-.39063-.234373-.76563-.234373-.35937 0-.64063.21875-.26562.203123-.375.578123-.1875.5625-.1875 1.21875v3.265627zm6.3125-.9375.15625.921873q-.45312.09375-.79688.09375-.57812 0-.89062-.171873-.3125-.1875-.45312-.484377-.125-.296873-.125-1.25v-3.578123h-.76563v-.8125h.76563v-1.546877l1.04687-.625v2.171877h1.0625v.8125h-1.0625v3.640623q0 .453127.04687.578127.0625.125.1875.203123.125.078127.35938.078127.1875 0 .46875-.03125zm.70313-6.4375v-1.21875h1.0625v1.21875zm0 7.375v-6.21875h1.0625v6.21875zm7.0625-2.28125 1.03124.140623q-.17187 1.0625-.875 1.671877-.70312.609373-1.71874.609373-1.28126 0-2.0625-.828123-.76563-.84375-.76563-2.40625 0-1 .32813-1.75.34374-.765627 1.01562-1.140627.6875-.375 1.5-.375 1 0 1.64062.515627.65626.5.84376 1.453123l-1.03126.15625q-.14062-.625-.51562-.9375-.375-.328123-.90625-.328123-.79687 0-1.29687.578123-.5.5625-.5 1.796877 0 1.265623.48437 1.828123.48437.5625 1.25.5625.625 0 1.03125-.375.42188-.375.54688-1.171873zm1.90624 2.28125v-8.59375h1.0625v8.59375zm7.28126-2 1.09374.125q-.25.953123-.95312 1.484373-.70312.53125-1.78125.53125-1.35937 0-2.17187-.84375-.79688-.84375-.79688-2.359373 0-1.5625.8125-2.421877.8125-.875 2.09375-.875 1.25 0 2.03125.84375.79688.84375.79688 2.390627 0 .09375 0 .28125h-4.64063q.0625 1.03125.57813 1.578123.51562.53125 1.29687.53125.57813 0 .98437-.296873.42188-.3125.65626-.96875zm-3.45313-1.703127h3.46875q-.0625-.796873-.39062-1.1875-.51563-.609373-1.3125-.609373-.73438 0-1.23438.484373-.48438.484377-.53125 1.3125zm5.78125 1.84375 1.03125-.15625q.09375.625.48437.953127.40626.328123 1.14063.328123.71875 0 1.0625-.28125.35937-.296873.35937-.703123 0-.359377-.3125-.5625-.21874-.140627-1.07812-.359377-1.15625-.296873-1.60938-.5-.4375-.21875-.67187-.59375-.23437-.375-.23437-.84375 0-.40625.1875-.765623.1875-.359377.51562-.59375.25-.171877.67188-.296877.42187-.125.92187-.125.71875 0 1.26563.21875.5625.203127.82812.5625.26562.359377.35938.953127l-1.03126.140623q-.0625-.46875-.40624-.734373-.32813-.28125-.95313-.28125-.71875 0-1.03125.25-.3125.234373-.3125.5625 0 .203123.125.359373.14062.171877.40625.28125.15625.0625.9375.265627 1.125.3125 1.5625.5.4375.1875.6875.546873.25.359377.25.90625 0 .53125-.3125 1-.29687.453127-.875.71875-.57813.25-1.3125.25-1.21875 0-1.85937-.5-.625-.515623-.79688-1.5z" fill="#1a1a1a"/>
  <path d="m535 42.35c0 3.313708-2.6863 6-6 6s-6-2.686292-6-6c0-3.313707 2.6863-6 6-6s6 2.686293 6 6z" fill="#ea4335"/>
  <path d="m549.0469 45.334373v1.015627h-5.6875q0-.375.125-.734377.2187-.578123.6875-1.140623.48435-.5625 1.3906-1.296877 1.40625-1.15625 1.8906-1.828123.5-.671877.5-1.265627 0-.625-.4531-1.046873-.4531-.4375-1.1719-.4375-.7656 0-1.2187.453123-.45315.453127-.4688 1.265627l-1.0781-.109377q.1094-1.21875.8281-1.84375.7344-.640623 1.9688-.640623 1.23435 0 1.9531.6875.71875.6875.71875 1.703123 0 .515627-.21875 1.015627-.2031.484373-.7031 1.046873-.4844.546877-1.6094 1.5-.9531.796877-1.2344 1.09375-.2656.28125-.4375.5625zm1.4531-3.21875q0-1.53125.3125-2.453123.3125-.9375.9219-1.4375.625-.5 1.5625-.5.6875 0 1.2031.28125.53125.28125.875.8125.34375.515623.53125 1.265623.1875.75.1875 2.03125 0 1.515627-.3125 2.4375-.29685.921877-.92185 1.4375-.6094.5-1.5625.5-1.2344 0-1.95315-.890623-.84375-1.0625-.84375-3.484377zm1.0781 0q0 2.109377.5 2.8125.5.703127 1.2188.703127.73435 0 1.2187-.703127.5-.703123.5-2.8125 0-2.125-.5-2.8125-.48435-.703123-1.23435-.703123-.71875 0-1.15625.609373-.5469.78125-.5469 2.90625zm5.9219 0q0-1.53125.3125-2.453123.3125-.9375.9219-1.4375.625-.5 1.5625-.5.6875 0 1.2031.28125.53125.28125.875.8125.34375.515623.53125 1.265623.1875.75.1875 2.03125 0 1.515627-.3125 2.4375-.29685.921877-.92185 1.4375-.6094.5-1.5625.5-1.2344 0-1.95315-.890623-.84375-1.0625-.84375-3.484377zm1.0781 0q0 2.109377.5 2.8125.5.703127 1.2188.703127.73435 0 1.2187-.703127.5-.703123.5-2.8125 0-2.125-.5-2.8125-.48435-.703123-1.23435-.703123-.71875 0-1.15625.609373-.5469.78125-.5469 2.90625zm5.9219 0q0-1.53125.3125-2.453123.3125-.9375.9219-1.4375.625-.5 1.5625-.5.6875 0 1.2031.28125.53125.28125.875.8125.34375.515623.53125 1.265623.1875.75.1875 2.03125 0 1.515627-.3125 2.4375-.29685.921877-.92185 1.4375-.6094.5-1.5625.5-1.2344 0-1.95315-.890623-.84375-1.0625-.84375-3.484377zm1.0781 0q0 2.109377.5 2.8125.5.703127 1.2188.703127.73435 0 1.2187-.703127.5-.703123.5-2.8125 0-2.125-.5-2.8125-.48435-.703123-1.23435-.703123-.71875 0-1.15625.609373-.5469.78125-.5469 2.90625zm9.3438 4.234377v-8.59375h3.25q.8437 0 1.29685.078123.64065.109377 1.0625.40625.4375.296877.6875.828127.26565.53125.26565 1.171873 0 1.09375-.70315 1.859377-.6875.75-2.51565.75h-2.2031v3.5zm1.1406-4.5h2.21875q1.10935 0 1.5625-.40625.46875-.421877.46875-1.171877 0-.53125-.28125-.90625-.26565-.390623-.70315-.515623-.29685-.078127-1.0625-.078127h-2.2031zm10.7969 3.734373q-.5938.5-1.14065.703127-.53125.203123-1.15625.203123-1.03125 0-1.5781-.5-.5469-.5-.5469-1.28125 0-.453123.2031-.828123.20315-.390627.5469-.609377.34375-.234373.7656-.34375.2969-.09375.9375-.171873 1.26565-.140627 1.875-.359377 0-.21875 0-.265623 0-.65625-.29685-.921877-.40625-.34375-1.20315-.34375-.73435 0-1.0937.265627-.3594.25-.5313.90625l-1.0312-.140627q.1406-.65625.4687-1.0625.32815-.40625.9375-.625.6094-.21875 1.4063-.21875.79685 0 1.29685.1875.5.1875.73435.46875.2344.28125.32815.71875.04685.265627.04685.96875v1.40625q0 1.46875.0625 1.859377.07815.390623.2813.75h-1.1094q-.15625-.328127-.2031-.765627zm-.0938-2.359373q-.5781.234373-1.7187.40625-.6563.09375-.9219.21875-.2656.109373-.4219.328123-.1406.21875-.1406.5 0 .421877.3125.703127.3281.28125.9375.28125.6094 0 1.0781-.265627.4844-.265623.70315-.734373.17185-.359377.17185-1.046877zm3.01565 3.125v-6.21875h.95315v.9375q.35935-.65625.6562-.859377.3125-.21875.6875-.21875.5313 0 1.07815.328127l-.35935.984373q-.39065-.234373-.76565-.234373-.35935 0-.64065.21875-.2656.203123-.375.578123-.1875.5625-.1875 1.21875v3.265627zm6.3125-.9375.15625.921873q-.4531.09375-.7969.09375-.5781 0-.8906-.171873-.3125-.1875-.4531-.484377-.125-.296873-.125-1.25v-3.578123h-.76565v-.8125h.76565v-1.546877l1.04685-.625v2.171877h1.0625v.8125h-1.0625v3.640623q0 .453127.04685.578127.0625.125.1875.203123.125.078127.3594.078127.1875 0 .46875-.03125zm.70315-6.4375v-1.21875h1.0625v1.21875zm0 7.375v-6.21875h1.0625v6.21875zm7.0625-2.28125 1.0312.140623q-.17185 1.0625-.875 1.671877-.7031.609373-1.7187.609373-1.2813 0-2.0625-.828123-.76565-.84375-.76565-2.40625 0-1 .32815-1.75.3437-.765627 1.0156-1.140627.6875-.375 1.5-.375 1 0 1.6406.515627.6563.5.8438 1.453123l-1.0313.15625q-.1406-.625-.5156-.9375-.375-.328123-.90625-.328123-.79685 0-1.29685.578123-.5.5625-.5 1.796877 0 1.265623.48435 1.828123.48435.5625 1.25.5625.625 0 1.03125-.375.4219-.375.5469-1.171873zm1.9062 2.28125v-8.59375h1.0625v8.59375zm7.2813-2 1.0937.125q-.25.953123-.9531 1.484373-.7031.53125-1.78125.53125-1.35935 0-2.17185-.84375-.7969-.84375-.7969-2.359373 0-1.5625.8125-2.421877.8125-.875 2.09375-.875 1.25 0 2.03125.84375.7969.84375.7969 2.390627 0 .09375 0 .28125h-4.64065q.0625 1.03125.57815 1.578123.5156.53125 1.29685.53125.57815 0 .98435-.296873.4219-.3125.6563-.96875zm-3.45315-1.703127h3.46875q-.0625-.796873-.3906-1.1875-.51565-.609373-1.3125-.609373-.7344 0-1.2344.484373-.4844.484377-.53125 1.3125zm5.78125 1.84375 1.03125-.15625q.09375.625.48435.953127.4063.328123 1.14065.328123.71875 0 1.0625-.28125.35935-.296873.35935-.703123 0-.359377-.3125-.5625-.2187-.140627-1.0781-.359377-1.15625-.296873-1.6094-.5-.4375-.21875-.67185-.59375-.23435-.375-.23435-.84375 0-.40625.1875-.765623.1875-.359377.5156-.59375.25-.171877.6719-.296877.42185-.125.92185-.125.71875 0 1.26565.21875.5625.203127.8281.5625.2656.359377.3594.953127l-1.0313.140623q-.0625-.46875-.4062-.734373-.32815-.28125-.95315-.28125-.71875 0-1.03125.25-.3125.234373-.3125.5625 0 .203123.125.359373.1406.171877.40625.28125.15625.0625.9375.265627 1.125.3125 1.5625.5.4375.1875.6875.546873.25.359377.25.90625 0 .53125-.3125 1-.29685.453127-.875.71875-.57815.25-1.3125.25-1.21875 0-1.85935-.5-.625-.515623-.7969-1.5z" fill="#1a1a1a"/>
  <path d="m649 42.35c0 3.313708-2.6863 6-6 6s-6-2.686292-6-6c0-3.313707 2.6863-6 6-6s6 2.686293 6 6z" fill="#34a853"/>
  <path d="m660.875 46.35v-2.0625h-3.71875v-.96875l3.92185-5.5625h.8594v5.5625h1.15625v.96875h-1.15625v2.0625zm0-3.03125v-3.859377l-2.6875 3.859377zm3.625-1.203127q0-1.53125.3125-2.453123.3125-.9375.9219-1.4375.625-.5 1.5625-.5.6875 0 1.2031.28125.53125.28125.875.8125.34375.515623.53125 1.265623.1875.75.1875 2.03125 0 1.515627-.3125 2.4375-.29685.921877-.92185 1.4375-.6094.5-1.5625.5-1.2344 0-1.95315-.890623-.84375-1.0625-.84375-3.484377zm1.0781 0q0 2.109377.5 2.8125.5.703127 1.2188.703127.73435 0 1.2187-.703127.5-.703123.5-2.8125 0-2.125-.5-2.8125-.48435-.703123-1.23435-.703123-.71875 0-1.15625.609373-.5469.78125-.5469 2.90625zm5.9219 0q0-1.53125.3125-2.453123.3125-.9375.9219-1.4375.625-.5 1.5625-.5.6875 0 1.2031.28125.53125.28125.875.8125.34375.515623.53125 1.265623.1875.75.1875 2.03125 0 1.515627-.3125 2.4375-.29685.921877-.92185 1.4375-.6094.5-1.5625.5-1.2344 0-1.95315-.890623-.84375-1.0625-.84375-3.484377zm1.0781 0q0 2.109377.5 2.8125.5.703127 1.2188.703127.73435 0 1.2187-.703127.5-.703123.5-2.8125 0-2.125-.5-2.8125-.48435-.703123-1.23435-.703123-.71875 0-1.15625.609373-.5469.78125-.5469 2.90625zm5.9219 0q0-1.53125.3125-2.453123.3125-.9375.9219-1.4375.625-.5 1.5625-.5.6875 0 1.2031.28125.53125.28125.875.8125.34375.515623.53125 1.265623.1875.75.1875 2.03125 0 1.515627-.3125 2.4375-.29685.921877-.92185 1.4375-.6094.5-1.5625.5-1.2344 0-1.95315-.890623-.84375-1.0625-.84375-3.484377zm1.0781 0q0 2.109377.5 2.8125.5.703127 1.2188.703127.73435 0 1.2187-.703127.5-.703123.5-2.8125 0-2.125-.5-2.8125-.48435-.703123-1.23435-.703123-.71875 0-1.15625.609373-.5469.78125-.5469 2.90625zm9.3438 4.234377v-8.59375h3.25q.8437 0 1.29685.078123.64065.109377 1.0625.40625.4375.296877.6875.828127.26565.53125.26565 1.171873 0 1.09375-.70315 1.859377-.6875.75-2.51565.75h-2.2031v3.5zm1.1406-4.5h2.21875q1.10935 0 1.5625-.40625.46875-.421877.46875-1.171877 0-.53125-.28125-.90625-.26565-.390623-.70315-.515623-.29685-.078127-1.0625-.078127h-2.2031zm10.7969 3.734373q-.5938.5-1.14065.703127-.53125.203123-1.15625.203123-1.03125 0-1.5781-.5-.5469-.5-.5469-1.28125 0-.453123.2031-.828123.20315-.390627.5469-.609377.34375-.234373.7656-.34375.2969-.09375.9375-.171873 1.26565-.140627 1.875-.359377 0-.21875 0-.265623 0-.65625-.29685-.921877-.40625-.34375-1.20315-.34375-.73435 0-1.0937.265627-.3594.25-.5313.90625l-1.0312-.140627q.1406-.65625.4687-1.0625.32815-.40625.9375-.625.6094-.21875 1.4063-.21875.79685 0 1.29685.1875.5.1875.73435.46875.2344.28125.32815.71875.04685.265627.04685.96875v1.40625q0 1.46875.0625 1.859377.07815.390623.2813.75h-1.1094q-.15625-.328127-.2031-.765627zm-.0938-2.359373q-.5781.234373-1.7187.40625-.6563.09375-.9219.21875-.2656.109373-.4219.328123-.1406.21875-.1406.5 0 .421877.3125.703127.3281.28125.9375.28125.6094 0 1.0781-.265627.4844-.265623.70315-.734373.17185-.359377.17185-1.046877zm3.01565 3.125v-6.21875h.95315v.9375q.35935-.65625.6562-.859377.3125-.21875.6875-.21875.5313 0 1.07815.328127l-.35935.984373q-.39065-.234373-.76565-.234373-.35935 0-.64065.21875-.2656.203123-.375.578123-.1875.5625-.1875 1.21875v3.265627zm6.3125-.9375.15625.921873q-.4531.09375-.7969.09375-.5781 0-.8906-.171873-.3125-.1875-.4531-.484377-.125-.296873-.125-1.25v-3.578123h-.76565v-.8125h.76565v-1.546877l1.04685-.625v2.171877h1.0625v.8125h-1.0625v3.640623q0 .453127.04685.578127.0625.125.1875.203123.125.078127.3594.078127.1875 0 .46875-.03125zm.70315-6.4375v-1.21875h1.0625v1.21875zm0 7.375v-6.21875h1.0625v6.21875zm7.0625-2.28125 1.0312.140623q-.17185 1.0625-.875 1.671877-.7031.609373-1.7187.609373-1.2813 0-2.0625-.828123-.76565-.84375-.76565-2.40625 0-1 .32815-1.75.3437-.765627 1.0156-1.140627.6875-.375 1.5-.375 1 0 1.6406.515627.6563.5.8438 1.453123l-1.0313.15625q-.1406-.625-.5156-.9375-.375-.328123-.90625-.328123-.79685 0-1.29685.578123-.5.5625-.5 1.796877 0 1.265623.48435 1.828123.48435.5625 1.25.5625.625 0 1.03125-.375.4219-.375.5469-1.171873zm1.9062 2.28125v-8.59375h1.0625v8.59375zm7.2813-2 1.0937.125q-.25.953123-.9531 1.484373-.7031.53125-1.78125.53125-1.35935 0-2.17185-.84375-.7969-.84375-.7969-2.359373 0-1.5625.8125-2.421877.8125-.875 2.09375-.875 1.25 0 2.03125.84375.7969.84375.7969 2.390627 0 .09375 0 .28125h-4.64065q.0625 1.03125.57815 1.578123.5156.53125 1.29685.53125.57815 0 .98435-.296873.4219-.3125.6563-.96875zm-3.45315-1.703127h3.46875q-.0625-.796873-.3906-1.1875-.51565-.609373-1.3125-.609373-.7344 0-1.2344.484373-.4844.484377-.53125 1.3125zm5.78125 1.84375 1.03125-.15625q.09375.625.48435.953127.4063.328123 1.14065.328123.71875 0 1.0625-.28125.35935-.296873.35935-.703123 0-.359377-.3125-.5625-.2187-.140627-1.0781-.359377-1.15625-.296873-1.6094-.5-.4375-.21875-.67185-.59375-.23435-.375-.23435-.84375 0-.40625.1875-.765623.1875-.359377.5156-.59375.25-.171877.6719-.296877.42185-.125.92185-.125.71875 0 1.26565.21875.5625.203127.8281.5625.2656.359377.3594.953127l-1.0313.140623q-.0625-.46875-.4062-.734373-.32815-.28125-.95315-.28125-.71875 0-1.03125.25-.3125.234373-.3125.5625 0 .203123.125.359373.1406.171877.40625.28125.15625.0625.9375.265627 1.125.3125 1.5625.5.4375.1875.6875.546873.25.359377.25.90625 0 .53125-.3125 1-.29685.453127-.875.71875-.57815.25-1.3125.25-1.21875 0-1.85935-.5-.625-.515623-.7969-1.5z" fill="#1a1a1a"/>
</svg>
