<?xml version="1.0"?>
<svg xmlns="http://www.w3.org/2000/svg" xmlns:xlink="http://www.w3.org/1999/xlink" fill="none" stroke-linecap="square" stroke-miterlimit="10" viewBox="0 0 1160 645">
  <clipPath id="a">
    <path d="m124.25 39.25h1003.5v486h-1003.5z"/>
  </clipPath>
  <path d="m0 0h1160v645h-1160z" fill="#f2f2f2"/>
  <g stroke-linecap="butt">
    <path d="m124.5 525.5h1003" stroke="#262626"/>
    <g stroke="#d9d9d9">
      <path d="m124.5 403.5h1003"/>
      <path d="m124.5 282.5h1003"/>
      <path d="m124.5 160.5h1003"/>
      <path d="m124.5 39.5h1003"/>
    </g>
    <g stroke="#e1e1e1">
      <path d="m291.5 397.9803v16"/>
      <path d="m626 292.9557v16"/>
      <path d="m960.5 75.7866v16"/>
      <path d="m291.5 443.5914v16"/>
      <path d="m626 380.5815v16"/>
      <path d="m960.5 292.5183v16"/>
      <path d="m291.5 476.3478v16"/>
      <path d="m626 449.8851v16"/>
      <path d="m960.5 397.8345v16"/>
    </g>
    <path clip-path="url(#a)" d="m291.5 413.9803 334.5-105.0246 334.5-217.1691" stroke="#4285f4" stroke-width="2"/>
    <path clip-path="url(#a)" d="m291.5 459.5914 334.5-63.0099 334.5-88.0632" stroke="#ea4335" stroke-width="2"/>
    <path clip-path="url(#a)" d="m291.5 492.3478 334.5-26.4627 334.5-52.0506" stroke="#fbbc04" stroke-width="2"/>
  </g>
  <g fill="#4285f4">
    <path clip-path="url(#a)" d="m295 413.9803c0 1.933-1.56702 3.5-3.5 3.5s-3.5-1.567-3.5-3.5 1.56702-3.5 3.5-3.5 3.5 1.567 3.5 3.5z"/>
    <path clip-path="url(#a)" d="m629.5 308.9557c0 1.933-1.567 3.5-3.5 3.5s-3.5-1.567-3.5-3.5 1.567-3.5 3.5-3.5 3.5 1.567 3.5 3.5z"/>
    <path clip-path="url(#a)" d="m964 91.7866c0 1.933-1.567 3.5-3.5 3.5s-3.5-1.567-3.5-3.5c0-1.93299 1.567-3.5 3.5-3.5s3.5 1.56701 3.5 3.5z"/>
  </g>
  <path clip-path="url(#a)" d="m295 459.5914c0 1.93298-1.56702 3.5-3.5 3.5s-3.5-1.56702-3.5-3.5 1.56702-3.5 3.5-3.5 3.5 1.56702 3.5 3.5z" fill="#ea4335"/>
  <path clip-path="url(#a)" d="m629.5 396.5815c0 1.933-1.567 3.5-3.5 3.5s-3.5-1.567-3.5-3.5 1.567-3.5 3.5-3.5 3.5 1.567 3.5 3.5z" fill="#ea4335"/>
  <path clip-path="url(#a)" d="m964 308.5183c0 1.933-1.567 3.5-3.5 3.5s-3.5-1.567-3.5-3.5 1.567-3.5 3.5-3.5 3.5 1.567 3.5 3.5z" fill="#ea4335"/>
  <path clip-path="url(#a)" d="m295 492.3478c0 1.933-1.56702 3.5-3.5 3.5s-3.5-1.567-3.5-3.5 1.56702-3.5 3.5-3.5 3.5 1.567 3.5 3.5z" fill="#fbbc04"/>
  <path clip-path="url(#a)" d="m629.5 465.8851c0 1.93298-1.567 3.5-3.5 3.5s-3.5-1.56702-3.5-3.5 1.567-3.5 3.5-3.5 3.5 1.56702 3.5 3.5z" fill="#fbbc04"/>
  <path clip-path="url(#a)" d="m964 413.8345c0 1.933-1.567 3.5-3.5 3.5s-3.5-1.567-3.5-3.5 1.567-3.5 3.5-3.5 3.5 1.567 3.5 3.5z" fill="#fbbc04"/>
  <path d="m279.875 395.9803v-2.0625h-3.71875v-.96876l3.92187-5.5625h.85938v5.5625h1.15625v.96876h-1.15625v2.0625zm0-3.03126v-3.85938l-2.6875 3.85938zm4.21875 3.03126v-1.20314h1.20313v1.20314zm2.40625-2.25 1.10938-.09376q.125.8125.5625 1.21876.45312.40624 1.09374.40624.75 0 1.28126-.57814.53124-.5781.53124-1.5156 0-.90626-.51562-1.4219-.5-.53124-1.32812-.53124-.5 0-.92188.23438-.40625.23436-.64062.59376l-.98438-.125.82812-4.40626h4.28126v1h-3.4375l-.45313 2.3125q.76563-.54688 1.60937-.54688 1.125 0 1.89063.78124.78125.78126.78125 2.01564 0 1.15626-.67188 2.01562-.82812 1.03124-2.25 1.03124-1.17187 0-1.92187-.65624-.73437-.65626-.84375-1.73436zm7.0625-5.21876v-1.01564h5.5625v.82814q-.8125.875-1.625 2.32812-.79688 1.4375-1.23438 2.96874-.32812 1.07814-.40624 2.3594h-1.09376q.01563-1.01564.39063-2.45314.39063-1.4375 1.09375-2.76562.71875-1.32814 1.53125-2.25zm7.09375 5.48436 1.01563-.09374q.125.71874.48437 1.04688.375.3125.9375.3125.48437 0 .84375-.21874.375-.2344.60938-.59376.23437-.375.39062-1 .15625-.64064.15625-1.29688 0-.07812 0-.21876-.3125.5-.85937.82814-.54688.3125-1.1875.3125-1.07813 0-1.8125-.76564-.73438-.78124-.73438-2.04686 0-1.3125.76562-2.10938.78126-.79686 1.9375-.79686.82813 0 1.51563.4531.70313.45314 1.0625 1.2969.35937.8281.35937 2.40624 0 1.64062-.35937 2.625-.34375.96876-1.0625 1.48436-.70313.5-1.64063.5-1.01562 0-1.65624-.54686-.64063-.5625-.76563-1.57814zm4.3125-3.79686q0-.90624-.48437-1.4375-.46876-.53124-1.15626-.53124-.70312 0-1.23437.5781-.51563.5625-.51563 1.4844 0 .8125.5 1.3281.5.51564 1.21876.51564.73437 0 1.20312-.51564.46875-.5156.46875-1.42186z" stroke="#f2f2f2" stroke-linecap="round" stroke-linejoin="round" stroke-width="3"/>
  <path d="m279.875 395.9803v-2.0625h-3.71875v-.96876l3.92187-5.5625h.85938v5.5625h1.15625v.96876h-1.15625v2.0625zm0-3.03126v-3.85938l-2.6875 3.85938zm4.21875 3.03126v-1.20314h1.20313v1.20314zm2.40625-2.25 1.10938-.09376q.125.8125.5625 1.21876.45312.40624 1.09374.40624.75 0 1.28126-.57814.53124-.5781.53124-1.5156 0-.90626-.51562-1.4219-.5-.53124-1.32812-.53124-.5 0-.92188.23438-.40625.23436-.64062.59376l-.98438-.125.82812-4.40626h4.28126v1h-3.4375l-.45313 2.3125q.76563-.54688 1.60937-.54688 1.125 0 1.89063.78124.78125.78126.78125 2.01564 0 1.15626-.67188 2.01562-.82812 1.03124-2.25 1.03124-1.17187 0-1.92187-.65624-.73437-.65626-.84375-1.73436zm7.0625-5.21876v-1.01564h5.5625v.82814q-.8125.875-1.625 2.32812-.79688 1.4375-1.23438 2.96874-.32812 1.07814-.40624 2.3594h-1.09376q.01563-1.01564.39063-2.45314.39063-1.4375 1.09375-2.76562.71875-1.32814 1.53125-2.25zm7.09375 5.48436 1.01563-.09374q.125.71874.48437 1.04688.375.3125.9375.3125.48437 0 .84375-.21874.375-.2344.60938-.59376.23437-.375.39062-1 .15625-.64064.15625-1.29688 0-.07812 0-.21876-.3125.5-.85937.82814-.54688.3125-1.1875.3125-1.07813 0-1.8125-.76564-.73438-.78124-.73438-2.04686 0-1.3125.76562-2.10938.78126-.79686 1.9375-.79686.82813 0 1.51563.4531.70313.45314 1.0625 1.2969.35937.8281.35937 2.40624 0 1.64062-.35937 2.625-.34375.96876-1.0625 1.48436-.70313.5-1.64063.5-1.01562 0-1.65624-.54686-.64063-.5625-.76563-1.57814zm4.3125-3.79686q0-.90624-.48437-1.4375-.46876-.53124-1.15626-.53124-.70312 0-1.23437.5781-.51563.5625-.51563 1.4844 0 .8125.5 1.3281.5.51564 1.21876.51564.73437 0 1.20312-.51564.46875-.5156.46875-1.42186z" fill="#000"/>
  <path d="m612.625 286.29944q-.65625-.25-.9844-.6875-.3125-.45314-.3125-1.0625 0-.9375.6719-1.57814.6875-.6406 1.7969-.6406 1.125 0 1.8125.65624.6875.65626.6875 1.59376 0 .59374-.3125 1.03124-.3125.4375-.95315.6875.79685.25 1.20315.82812.4062.57814.4062 1.375 0 1.09374-.7812 1.84374-.76565.75-2.0469.75-1.2656 0-2.0469-.75-.7812-.75-.7812-1.875 0-.84374.42185-1.40624.4375-.5625 1.21875-.76562zm-.21875-1.79688q0 .60938.39065 1 .4062.39064 1.0312.39064.6094 0 1-.375.39065-.39064.39065-.95314 0-.57812-.40625-.96876-.40625-.40624-1-.40624-.6094 0-1.0156.39064-.39065.3906-.39065.92186zm-.32815 3.96874q0 .45314.20315.875.21875.4219.64065.65626.42185.23438.9062.23438.75 0 1.2344-.48438.5-.48436.5-1.23436 0-.76564-.5-1.26564-.5-.5-1.2656-.5-.75 0-1.2344.5-.4844.48438-.4844 1.21874zm6.51565 2.4844v-1.20314h1.20315v1.20314zm2.5625-1.9844 1.01565-.09374q.125.71874.48435 1.04688.375.3125.9375.3125.48435 0 .84375-.21874.375-.2344.6094-.59376.23435-.375.3906-1 .15625-.64064.15625-1.29688 0-.07812 0-.21876-.3125.5-.85935.82814-.5469.3125-1.1875.3125-1.07815 0-1.8125-.76564-.7344-.78124-.7344-2.04686 0-1.3125.7656-2.10938.7813-.79686 1.9375-.79686.82815 0 1.51565.4531.70315.45314 1.0625 1.2969.35935.8281.35935 2.40624 0 1.64062-.35935 2.625-.34375.96876-1.0625 1.48436-.70315.5-1.64065.5-1.0156 0-1.6562-.54686-.64065-.5625-.76565-1.57814zm4.3125-3.79686q0-.90624-.48435-1.4375-.4688-.53124-1.1563-.53124-.7031 0-1.23435.5781-.51565.5625-.51565 1.4844 0 .8125.5 1.3281.5.51564 1.2188.51564.73435 0 1.2031-.51564.46875-.5156.46875-1.42186zm2.53125 1.54686q0-1.53124.3125-2.4531.3125-.9375.9219-1.4375.625-.5 1.5625-.5.6875 0 1.2031.28124.53125.28126.875.8125.34375.51562.53125 1.26562.1875.75.1875 2.03124 0 1.51564-.3125 2.4375-.29685.9219-.92185 1.4375-.6094.5-1.5625.5-1.2344 0-1.95315-.8906-.84375-1.0625-.84375-3.4844zm1.0781 0q0 2.1094.5 2.8125.5.70314 1.2188.70314.73435 0 1.2187-.70314.5-.7031.5-2.8125 0-2.125-.5-2.8125-.48435-.7031-1.23435-.7031-.71875 0-1.15625.60936-.5469.78124-.5469 2.90624zm9.89065 4.2344h-1.04685v-6.71876q-.39065.35936-1.01565.73436-.60935.3594-1.09375.53126v-1.01562q.875-.42188 1.53125-1 .67185-.59374.95315-1.15624h.67185z" stroke="#f2f2f2" stroke-linecap="round" stroke-linejoin="round" stroke-width="3"/>
  <path d="m612.625 286.29944q-.65625-.25-.9844-.6875-.3125-.45314-.3125-1.0625 0-.9375.6719-1.57814.6875-.6406 1.7969-.6406 1.125 0 1.8125.65624.6875.65626.6875 1.59376 0 .59374-.3125 1.03124-.3125.4375-.95315.6875.79685.25 1.20315.82812.4062.57814.4062 1.375 0 1.09374-.7812 1.84374-.76565.75-2.0469.75-1.2656 0-2.0469-.75-.7812-.75-.7812-1.875 0-.84374.42185-1.40624.4375-.5625 1.21875-.76562zm-.21875-1.79688q0 .60938.39065 1 .4062.39064 1.0312.39064.6094 0 1-.375.39065-.39064.39065-.95314 0-.57812-.40625-.96876-.40625-.40624-1-.40624-.6094 0-1.0156.39064-.39065.3906-.39065.92186zm-.32815 3.96874q0 .45314.20315.875.21875.4219.64065.65626.42185.23438.9062.23438.75 0 1.2344-.48438.5-.48436.5-1.23436 0-.76564-.5-1.26564-.5-.5-1.2656-.5-.75 0-1.2344.5-.4844.48438-.4844 1.21874zm6.51565 2.4844v-1.20314h1.20315v1.20314zm2.5625-1.9844 1.01565-.09374q.125.71874.48435 1.04688.375.3125.9375.3125.48435 0 .84375-.21874.375-.2344.6094-.59376.23435-.375.3906-1 .15625-.64064.15625-1.29688 0-.07812 0-.21876-.3125.5-.85935.82814-.5469.3125-1.1875.3125-1.07815 0-1.8125-.76564-.7344-.78124-.7344-2.04686 0-1.3125.7656-2.10938.7813-.79686 1.9375-.79686.82815 0 1.51565.4531.70315.45314 1.0625 1.2969.35935.8281.35935 2.40624 0 1.64062-.35935 2.625-.34375.96876-1.0625 1.48436-.70315.5-1.64065.5-1.0156 0-1.6562-.54686-.64065-.5625-.76565-1.57814zm4.3125-3.79686q0-.90624-.48435-1.4375-.4688-.53124-1.1563-.53124-.7031 0-1.23435.5781-.51565.5625-.51565 1.4844 0 .8125.5 1.3281.5.51564 1.2188.51564.73435 0 1.2031-.51564.46875-.5156.46875-1.42186zm2.53125 1.54686q0-1.53124.3125-2.4531.3125-.9375.9219-1.4375.625-.5 1.5625-.5.6875 0 1.2031.28124.53125.28126.875.8125.34375.51562.53125 1.26562.1875.75.1875 2.03124 0 1.51564-.3125 2.4375-.29685.9219-.92185 1.4375-.6094.5-1.5625.5-1.2344 0-1.95315-.8906-.84375-1.0625-.84375-3.4844zm1.0781 0q0 2.1094.5 2.8125.5.70314 1.2188.70314.73435 0 1.2187-.70314.5-.7031.5-2.8125 0-2.125-.5-2.8125-.48435-.7031-1.23435-.7031-.71875 0-1.15625.60936-.5469.78124-.5469 2.90624zm9.89065 4.2344h-1.04685v-6.71876q-.39065.35936-1.01565.73436-.60935.3594-1.09375.53126v-1.01562q.875-.42188 1.53125-1 .67185-.59374.95315-1.15624h.67185z" fill="#000"/>
  <path d="m945.96875 73.7866h-1.04685v-6.71875q-.39065.35937-1.01565.73437-.60935.35938-1.09375.53125v-1.01562q.875-.42188 1.53125-1 .67185-.59375.95315-1.15625h.67185zm3.09375-7.46875v-1.01563h5.5625v.82813q-.8125.875-1.625 2.32812-.7969 1.4375-1.2344 2.96875-.3281 1.07813-.4062 2.35938h-1.0938q.01565-1.01563.39065-2.45313.39065-1.4375 1.09375-2.76562.71875-1.32813 1.53125-2.25zm7.53125 7.46875v-1.20313h1.20315v1.20313zm4.03125-4.65625q-.65625-.25-.9844-.6875-.3125-.45313-.3125-1.0625 0-.9375.6719-1.57813.6875-.64062 1.7969-.64062 1.125 0 1.8125.65625.6875.65625.6875 1.59375 0 .59375-.3125 1.03125-.3125.4375-.95315.6875.79685.25 1.20315.82812.4062.57813.4062 1.375 0 1.09375-.7812 1.84375-.76565.75-2.0469.75-1.2656 0-2.0469-.75-.7812-.75-.7812-1.875 0-.84375.42185-1.40625.4375-.5625 1.21875-.76562zm-.21875-1.79688q0 .60938.39065 1 .4062.39063 1.0312.39063.6094 0 1-.375.39065-.39063.39065-.95313 0-.57812-.40625-.96875-.40625-.40625-1-.40625-.6094 0-1.0156.39063-.39065.39062-.39065.92187zm-.32815 3.96875q0 .45313.20315.875.21875.42188.64065.65625.42185.23438.9062.23438.75 0 1.2344-.48438.5-.48437.5-1.23437 0-.76563-.5-1.26563-.5-.5-1.2656-.5-.75 0-1.2344.5-.4844.48438-.4844 1.21875zm5.9219.21875 1.0625-.14062q.1719.89062.6094 1.29687.4375.39063 1.0625.39063.75 0 1.2656-.51563.5156-.51562.5156-1.28125 0-.71875-.48435-1.1875-.46875-.48437-1.20315-.48437-.29685 0-.75.125l.125-.9375q.1094.01562.1719.01562.6719 0 1.2031-.34375.5469-.35937.5469-1.09375 0-.57812-.3906-.95312-.39065-.39063-1.01565-.39063-.60935 0-1.03125.39063-.40625.39062-.5156 1.15625l-1.0625-.1875q.1875-1.04688.875-1.625.6875-.59375 1.7031-.59375.7031 0 1.2969.3125.5937.29687.9062.8125.3125.51562.3125 1.10937 0 .54688-.29685 1.01563-.29685.45312-.875.71875.75.17187 1.17185.73437.4219.54688.4219 1.39063 0 1.125-.8281 1.90625-.8125.78125-2.0625.78125-1.125 0-1.875-.67188-.75-.6875-.8594-1.75zm8.625-2.39062q-.65625-.25-.9844-.6875-.3125-.45313-.3125-1.0625 0-.9375.6719-1.57813.6875-.64062 1.7969-.64062 1.125 0 1.8125.65625.6875.65625.6875 1.59375 0 .59375-.3125 1.03125-.3125.4375-.95315.6875.79685.25 1.20315.82812.4062.57813.4062 1.375 0 1.09375-.7812 1.84375-.76565.75-2.0469.75-1.2656 0-2.0469-.75-.7812-.75-.7812-1.875 0-.84375.42185-1.40625.4375-.5625 1.21875-.76562zm-.21875-1.79688q0 .60938.39065 1 .4062.39063 1.0312.39063.6094 0 1-.375.39065-.39063.39065-.95313 0-.57812-.40625-.96875-.40625-.40625-1-.40625-.6094 0-1.0156.39063-.39065.39062-.39065.92187zm-.32815 3.96875q0 .45313.20315.875.21875.42188.64065.65625.42185.23438.9062.23438.75 0 1.2344-.48438.5-.48437.5-1.23437 0-.76563-.5-1.26563-.5-.5-1.2656-.5-.75 0-1.2344.5-.4844.48438-.4844 1.21875z" stroke="#f2f2f2" stroke-linecap="round" stroke-linejoin="round" stroke-width="3"/>
  <path d="m945.96875 73.7866h-1.04685v-6.71875q-.39065.35937-1.01565.73437-.60935.35938-1.09375.53125v-1.01562q.875-.42188 1.53125-1 .67185-.59375.95315-1.15625h.67185zm3.09375-7.46875v-1.01563h5.5625v.82813q-.8125.875-1.625 2.32812-.7969 1.4375-1.2344 2.96875-.3281 1.07813-.4062 2.35938h-1.0938q.01565-1.01563.39065-2.45313.39065-1.4375 1.09375-2.76562.71875-1.32813 1.53125-2.25zm7.53125 7.46875v-1.20313h1.20315v1.20313zm4.03125-4.65625q-.65625-.25-.9844-.6875-.3125-.45313-.3125-1.0625 0-.9375.6719-1.57813.6875-.64062 1.7969-.64062 1.125 0 1.8125.65625.6875.65625.6875 1.59375 0 .59375-.3125 1.03125-.3125.4375-.95315.6875.79685.25 1.20315.82812.4062.57813.4062 1.375 0 1.09375-.7812 1.84375-.76565.75-2.0469.75-1.2656 0-2.0469-.75-.7812-.75-.7812-1.875 0-.84375.42185-1.40625.4375-.5625 1.21875-.76562zm-.21875-1.79688q0 .60938.39065 1 .4062.39063 1.0312.39063.6094 0 1-.375.39065-.39063.39065-.95313 0-.57812-.40625-.96875-.40625-.40625-1-.40625-.6094 0-1.0156.39063-.39065.39062-.39065.92187zm-.32815 3.96875q0 .45313.20315.875.21875.42188.64065.65625.42185.23438.9062.23438.75 0 1.2344-.48438.5-.48437.5-1.23437 0-.76563-.5-1.26563-.5-.5-1.2656-.5-.75 0-1.2344.5-.4844.48438-.4844 1.21875zm5.9219.21875 1.0625-.14062q.1719.89062.6094 1.29687.4375.39063 1.0625.39063.75 0 1.2656-.51563.5156-.51562.5156-1.28125 0-.71875-.48435-1.1875-.46875-.48437-1.20315-.48437-.29685 0-.75.125l.125-.9375q.1094.01562.1719.01562.6719 0 1.2031-.34375.5469-.35937.5469-1.09375 0-.57812-.3906-.95312-.39065-.39063-1.01565-.39063-.60935 0-1.03125.39063-.40625.39062-.5156 1.15625l-1.0625-.1875q.1875-1.04688.875-1.625.6875-.59375 1.7031-.59375.7031 0 1.2969.3125.5937.29687.9062.8125.3125.51562.3125 1.10937 0 .54688-.29685 1.01563-.29685.45312-.875.71875.75.17187 1.17185.73437.4219.54688.4219 1.39063 0 1.125-.8281 1.90625-.8125.78125-2.0625.78125-1.125 0-1.875-.67188-.75-.6875-.8594-1.75zm8.625-2.39062q-.65625-.25-.9844-.6875-.3125-.45313-.3125-1.0625 0-.9375.6719-1.57813.6875-.64062 1.7969-.64062 1.125 0 1.8125.65625.6875.65625.6875 1.59375 0 .59375-.3125 1.03125-.3125.4375-.95315.6875.79685.25 1.20315.82812.4062.57813.4062 1.375 0 1.09375-.7812 1.84375-.76565.75-2.0469.75-1.2656 0-2.0469-.75-.7812-.75-.7812-1.875 0-.84375.42185-1.40625.4375-.5625 1.21875-.76562zm-.21875-1.79688q0 .60938.39065 1 .4062.39063 1.0312.39063.6094 0 1-.375.39065-.39063.39065-.95313 0-.57812-.40625-.96875-.40625-.40625-1-.40625-.6094 0-1.0156.39063-.39065.39062-.39065.92187zm-.32815 3.96875q0 .45313.20315.875.21875.42188.64065.65625.42185.23438.9062.23438.75 0 1.2344-.48438.5-.48437.5-1.23437 0-.76563-.5-1.26563-.5-.5-1.2656-.5-.75 0-1.2344.5-.4844.48438-.4844 1.21875z" fill="#000"/>
  <path d="m282.04688 440.57578v1.01562h-5.6875q0-.375.125-.73437.21874-.57813.6875-1.14063.48437-.5625 1.39062-1.29687 1.40625-1.15625 1.89062-1.82813.5-.67187.5-1.26562 0-.625-.45312-1.04688-.45312-.4375-1.17188-.4375-.76562 0-1.21874.45313-.45313.45312-.46876 1.26562l-1.07812-.10937q.10938-1.21875.82812-1.84375.73438-.64063 1.96876-.64063 1.23437 0 1.95312.6875.71875.6875.71875 1.70313 0 .51562-.21875 1.01562-.20312.48438-.70312 1.04688-.48438.54687-1.60938 1.5-.95312.79687-1.23438 1.09375-.26562.28125-.4375.5625zm2.04687 1.01562v-1.20312h1.20313v1.20312zm2.46875-7.46875v-1.01562h5.5625v.82812q-.8125.875-1.625 2.32813-.79688 1.4375-1.23438 2.96875-.32812 1.07812-.40624 2.35937h-1.09376q.01563-1.01562.39063-2.45312.39063-1.4375 1.09375-2.76563.71875-1.32812 1.53125-2.25zm6.9375 3.23438q0-1.53125.3125-2.45313.3125-.9375.92188-1.4375.625-.5 1.5625-.5.6875 0 1.20312.28125.53125.28125.875.8125.34375.51563.53125 1.26563.1875.75.1875 2.03125 0 1.51562-.3125 2.4375-.29687.92187-.92187 1.4375-.60938.5-1.5625.5-1.23438 0-1.95313-.89063-.84375-1.0625-.84375-3.48437zm1.07812 0q0 2.10937.5 2.8125.5.70312 1.21876.70312.73437 0 1.21874-.70312.5-.70313.5-2.8125 0-2.125-.5-2.8125-.48437-.70313-1.23437-.70313-.71875 0-1.15625.60938-.54688.78125-.54688 2.90625zm11.46876 3.21875v1.01562h-5.6875q0-.375.125-.73437.21874-.57813.6875-1.14063.48437-.5625 1.39062-1.29687 1.40625-1.15625 1.89062-1.82813.5-.67187.5-1.26562 0-.625-.45312-1.04688-.45312-.4375-1.17188-.4375-.76562 0-1.21874.45313-.45313.45312-.46876 1.26562l-1.07812-.10937q.10938-1.21875.82812-1.84375.73438-.64063 1.96876-.64063 1.23437 0 1.95312.6875.71875.6875.71875 1.70313 0 .51562-.21875 1.01562-.20312.48438-.70312 1.04688-.48438.54687-1.60938 1.5-.95312.79687-1.23438 1.09375-.26562.28125-.4375.5625z" stroke="#f2f2f2" stroke-linecap="round" stroke-linejoin="round" stroke-width="3"/>
  <path d="m282.04688 440.57578v1.01562h-5.6875q0-.375.125-.73437.21874-.57813.6875-1.14063.48437-.5625 1.39062-1.29687 1.40625-1.15625 1.89062-1.82813.5-.67187.5-1.26562 0-.625-.45312-1.04688-.45312-.4375-1.17188-.4375-.76562 0-1.21874.45313-.45313.45312-.46876 1.26562l-1.07812-.10937q.10938-1.21875.82812-1.84375.73438-.64063 1.96876-.64063 1.23437 0 1.95312.6875.71875.6875.71875 1.70313 0 .51562-.21875 1.01562-.20312.48438-.70312 1.04688-.48438.54687-1.60938 1.5-.95312.79687-1.23438 1.09375-.26562.28125-.4375.5625zm2.04687 1.01562v-1.20312h1.20313v1.20312zm2.46875-7.46875v-1.01562h5.5625v.82812q-.8125.875-1.625 2.32813-.79688 1.4375-1.23438 2.96875-.32812 1.07812-.40624 2.35937h-1.09376q.01563-1.01562.39063-2.45312.39063-1.4375 1.09375-2.76563.71875-1.32812 1.53125-2.25zm6.9375 3.23438q0-1.53125.3125-2.45313.3125-.9375.92188-1.4375.625-.5 1.5625-.5.6875 0 1.20312.28125.53125.28125.875.8125.34375.51563.53125 1.26563.1875.75.1875 2.03125 0 1.51562-.3125 2.4375-.29687.92187-.92187 1.4375-.60938.5-1.5625.5-1.23438 0-1.95313-.89063-.84375-1.0625-.84375-3.48437zm1.07812 0q0 2.10937.5 2.8125.5.70312 1.21876.70312.73437 0 1.21874-.70312.5-.70313.5-2.8125 0-2.125-.5-2.8125-.48437-.70313-1.23437-.70313-.71875 0-1.15625.60938-.54688.78125-.54688 2.90625zm11.46876 3.21875v1.01562h-5.6875q0-.375.125-.73437.21874-.57813.6875-1.14063.48437-.5625 1.39062-1.29687 1.40625-1.15625 1.89062-1.82813.5-.67187.5-1.26562 0-.625-.45312-1.04688-.45312-.4375-1.17188-.4375-.76562 0-1.21874.45313-.45313.45312-.46876 1.26562l-1.07812-.10937q.10938-1.21875.82812-1.84375.73438-.64063 1.96876-.64063 1.23437 0 1.95312.6875.71875.6875.71875 1.70313 0 .51562-.21875 1.01562-.20312.48438-.70312 1.04688-.48438.54687-1.60938 1.5-.95312.79687-1.23438 1.09375-.26562.28125-.4375.5625z" fill="#000"/>
  <path d="m611 376.3315 1.1094-.09374q.125.8125.5625 1.21874.4531.40626 1.0937.40626.75 0 1.2813-.57812.5312-.57814.5312-1.51564 0-.90624-.5156-1.42186-.5-.53124-1.3281-.53124-.5 0-.9219.23436-.40625.23438-.6406.59374l-.9844-.125.8281-4.40624h4.2813v1h-3.4375l-.45315 2.3125q.76565-.54686 1.60935-.54686 1.125 0 1.89065.78124.78125.78126.78125 2.01562 0 1.15624-.6719 2.01564-.8281 1.03124-2.25 1.03124-1.17185 0-1.92185-.65624-.73435-.65626-.84375-1.7344zm7.59375 2.25v-1.2031h1.20315v1.2031zm7.95315-1.0156v1.0156h-5.6875q0-.375.125-.73436.2187-.57814.6875-1.14064.48435-.5625 1.3906-1.29686 1.40625-1.15624 1.8906-1.82814.5-.67186.5-1.2656 0-.625-.4531-1.0469-.4531-.4375-1.1719-.4375-.7656 0-1.2187.45314-.45315.45312-.4688 1.26562l-1.0781-.10936q.1094-1.21876.8281-1.84376.7344-.64064 1.9688-.64064 1.23435 0 1.9531.6875.71875.6875.71875 1.70314 0 .51562-.21875 1.01562-.2031.48438-.7031 1.04688-.4844.54686-1.6094 1.5-.9531.79686-1.2344 1.09376-.2656.28124-.4375.5625zm1.60935-.96876 1.01565-.09374q.125.71874.48435 1.04686.375.3125.9375.3125.48435 0 .84375-.21876.375-.23436.6094-.59374.23435-.375.3906-1 .15625-.64062.15625-1.29686 0-.07814 0-.21876-.3125.5-.85935.82812-.5469.3125-1.1875.3125-1.07815 0-1.8125-.76562-.7344-.78124-.7344-2.04688 0-1.3125.7656-2.10936.7813-.7969 1.9375-.7969.82815 0 1.51565.45314.70315.45312 1.0625 1.29686.35935.82814.35935 2.40626 0 1.64064-.35935 2.625-.34375.96874-1.0625 1.48438-.70315.5-1.64065.5-1.0156 0-1.6562-.54688-.64065-.5625-.76565-1.57812zm4.3125-3.79688q0-.90626-.48435-1.4375-.4688-.53126-1.1563-.53126-.7031 0-1.23435.57814-.51565.5625-.51565 1.48436 0 .8125.5 1.32814.5.51562 1.2188.51562.73435 0 1.2031-.51562.46875-.51564.46875-1.42188zm2.53125 3.53124 1.1094-.09374q.125.8125.5625 1.21874.4531.40626 1.0937.40626.75 0 1.2813-.57812.5312-.57814.5312-1.51564 0-.90624-.5156-1.42186-.5-.53124-1.3281-.53124-.5 0-.9219.23436-.40625.23438-.6406.59374l-.9844-.125.8281-4.40624h4.2813v1h-3.4375l-.45315 2.3125q.76565-.54686 1.60935-.54686 1.125 0 1.89065.78124.78125.78126.78125 2.01562 0 1.15624-.6719 2.01564-.8281 1.03124-2.25 1.03124-1.17185 0-1.92185-.65624-.73435-.65626-.84375-1.7344z" stroke="#f2f2f2" stroke-linecap="round" stroke-linejoin="round" stroke-width="3"/>
  <path d="m611 376.3315 1.1094-.09374q.125.8125.5625 1.21874.4531.40626 1.0937.40626.75 0 1.2813-.57812.5312-.57814.5312-1.51564 0-.90624-.5156-1.42186-.5-.53124-1.3281-.53124-.5 0-.9219.23436-.40625.23438-.6406.59374l-.9844-.125.8281-4.40624h4.2813v1h-3.4375l-.45315 2.3125q.76565-.54686 1.60935-.54686 1.125 0 1.89065.78124.78125.78126.78125 2.01562 0 1.15624-.6719 2.01564-.8281 1.03124-2.25 1.03124-1.17185 0-1.92185-.65624-.73435-.65626-.84375-1.7344zm7.59375 2.25v-1.2031h1.20315v1.2031zm7.95315-1.0156v1.0156h-5.6875q0-.375.125-.73436.2187-.57814.6875-1.14064.48435-.5625 1.3906-1.29686 1.40625-1.15624 1.8906-1.82814.5-.67186.5-1.2656 0-.625-.4531-1.0469-.4531-.4375-1.1719-.4375-.7656 0-1.2187.45314-.45315.45312-.4688 1.26562l-1.0781-.10936q.1094-1.21876.8281-1.84376.7344-.64064 1.9688-.64064 1.23435 0 1.9531.6875.71875.6875.71875 1.70314 0 .51562-.21875 1.01562-.2031.48438-.7031 1.04688-.4844.54686-1.6094 1.5-.9531.79686-1.2344 1.09376-.2656.28124-.4375.5625zm1.60935-.96876 1.01565-.09374q.125.71874.48435 1.04686.375.3125.9375.3125.48435 0 .84375-.21876.375-.23436.6094-.59374.23435-.375.3906-1 .15625-.64062.15625-1.29686 0-.07814 0-.21876-.3125.5-.85935.82812-.5469.3125-1.1875.3125-1.07815 0-1.8125-.76562-.7344-.78124-.7344-2.04688 0-1.3125.7656-2.10936.7813-.7969 1.9375-.7969.82815 0 1.51565.45314.70315.45312 1.0625 1.29686.35935.82814.35935 2.40626 0 1.64064-.35935 2.625-.34375.96874-1.0625 1.48438-.70315.5-1.64065.5-1.0156 0-1.6562-.54688-.64065-.5625-.76565-1.57812zm4.3125-3.79688q0-.90626-.48435-1.4375-.4688-.53126-1.1563-.53126-.7031 0-1.23435.57814-.51565.5625-.51565 1.48436 0 .8125.5 1.32814.5.51562 1.2188.51562.73435 0 1.2031-.51562.46875-.51564.46875-1.42188zm2.53125 3.53124 1.1094-.09374q.125.8125.5625 1.21874.4531.40626 1.0937.40626.75 0 1.2813-.57812.5312-.57814.5312-1.51564 0-.90624-.5156-1.42186-.5-.53124-1.3281-.53124-.5 0-.9219.23436-.40625.23438-.6406.59374l-.9844-.125.8281-4.40624h4.2813v1h-3.4375l-.45315 2.3125q.76565-.54686 1.60935-.54686 1.125 0 1.89065.78124.78125.78126.78125 2.01562 0 1.15624-.6719 2.01564-.8281 1.03124-2.25 1.03124-1.17185 0-1.92185-.65624-.73435-.65626-.84375-1.7344z" fill="#000"/>
  <path d="m947.125 285.86206q-.65625-.25-.9844-.6875-.3125-.45312-.3125-1.0625 0-.9375.6719-1.57812.6875-.64064 1.7969-.64064 1.125 0 1.8125.65626.6875.65624.6875 1.59374 0 .59376-.3125 1.03126-.3125.4375-.95315.6875.79685.25 1.20315.82814.4062.5781.4062 1.375 0 1.09374-.7812 1.84374-.76565.75-2.0469.75-1.2656 0-2.0469-.75-.7812-.75-.7812-1.875 0-.84374.42185-1.40624.4375-.5625 1.21875-.76564zm-.21875-1.79686q0 .60936.39065 1 .4062.3906 1.0312.3906.6094 0 1-.375.39065-.3906.39065-.9531 0-.57814-.40625-.96876-.40625-.40624-1-.40624-.6094 0-1.0156.3906-.39065.39064-.39065.9219zm-.32815 3.96874q0 .45312.20315.875.21875.42186.64065.65626.42185.23436.9062.23436.75 0 1.2344-.48436.5-.4844.5-1.2344 0-.7656-.5-1.2656-.5-.5-1.2656-.5-.75 0-1.2344.5-.4844.48436-.4844 1.21874zm6.51565 2.48436v-1.2031h1.20315v1.2031zm2.5625-1.98436 1.01565-.09374q.125.71874.48435 1.04686.375.3125.9375.3125.48435 0 .84375-.21876.375-.23436.6094-.59374.23435-.375.3906-1 .15625-.64062.15625-1.29686 0-.07814 0-.21876-.3125.5-.85935.82812-.5469.3125-1.1875.3125-1.07815 0-1.8125-.76562-.7344-.78124-.7344-2.04688 0-1.3125.7656-2.10936.7813-.7969 1.9375-.7969.82815 0 1.51565.45314.70315.45312 1.0625 1.29686.35935.82814.35935 2.40626 0 1.64064-.35935 2.625-.34375.96874-1.0625 1.48438-.70315.5-1.64065.5-1.0156 0-1.6562-.54688-.64065-.5625-.76565-1.57812zm4.3125-3.79688q0-.90626-.48435-1.4375-.4688-.53126-1.1563-.53126-.7031 0-1.23435.57814-.51565.5625-.51565 1.48436 0 .8125.5 1.32814.5.51562 1.2188.51562.73435 0 1.2031-.51562.46875-.51564.46875-1.42188zm6.5 5.78124h-1.04685v-6.71874q-.39065.35938-1.01565.73438-.60935.35936-1.09375.53126v-1.01564q.875-.42186 1.53125-1 .67185-.59376.95315-1.15626h.67185zm3.1875-1.98436 1.01565-.09374q.125.71874.48435 1.04686.375.3125.9375.3125.48435 0 .84375-.21876.375-.23436.6094-.59374.23435-.375.3906-1 .15625-.64062.15625-1.29686 0-.07814 0-.21876-.3125.5-.85935.82812-.5469.3125-1.1875.3125-1.07815 0-1.8125-.76562-.7344-.78124-.7344-2.04688 0-1.3125.7656-2.10936.7813-.7969 1.9375-.7969.82815 0 1.51565.45314.70315.45312 1.0625 1.29686.35935.82814.35935 2.40626 0 1.64064-.35935 2.625-.34375.96874-1.0625 1.48438-.70315.5-1.64065.5-1.0156 0-1.6562-.54688-.64065-.5625-.76565-1.57812zm4.3125-3.79688q0-.90626-.48435-1.4375-.4688-.53126-1.1563-.53126-.7031 0-1.23435.57814-.51565.5625-.51565 1.48436 0 .8125.5 1.32814.5.51562 1.2188.51562.73435 0 1.2031-.51562.46875-.51564.46875-1.42188z" stroke="#f2f2f2" stroke-linecap="round" stroke-linejoin="round" stroke-width="3"/>
  <path d="m947.125 285.86206q-.65625-.25-.9844-.6875-.3125-.45312-.3125-1.0625 0-.9375.6719-1.57812.6875-.64064 1.7969-.64064 1.125 0 1.8125.65626.6875.65624.6875 1.59374 0 .59376-.3125 1.03126-.3125.4375-.95315.6875.79685.25 1.20315.82814.4062.5781.4062 1.375 0 1.09374-.7812 1.84374-.76565.75-2.0469.75-1.2656 0-2.0469-.75-.7812-.75-.7812-1.875 0-.84374.42185-1.40624.4375-.5625 1.21875-.76564zm-.21875-1.79686q0 .60936.39065 1 .4062.3906 1.0312.3906.6094 0 1-.375.39065-.3906.39065-.9531 0-.57814-.40625-.96876-.40625-.40624-1-.40624-.6094 0-1.0156.3906-.39065.39064-.39065.9219zm-.32815 3.96874q0 .45312.20315.875.21875.42186.64065.65626.42185.23436.9062.23436.75 0 1.2344-.48436.5-.4844.5-1.2344 0-.7656-.5-1.2656-.5-.5-1.2656-.5-.75 0-1.2344.5-.4844.48436-.4844 1.21874zm6.51565 2.48436v-1.2031h1.20315v1.2031zm2.5625-1.98436 1.01565-.09374q.125.71874.48435 1.04686.375.3125.9375.3125.48435 0 .84375-.21876.375-.23436.6094-.59374.23435-.375.3906-1 .15625-.64062.15625-1.29686 0-.07814 0-.21876-.3125.5-.85935.82812-.5469.3125-1.1875.3125-1.07815 0-1.8125-.76562-.7344-.78124-.7344-2.04688 0-1.3125.7656-2.10936.7813-.7969 1.9375-.7969.82815 0 1.51565.45314.70315.45312 1.0625 1.29686.35935.82814.35935 2.40626 0 1.64064-.35935 2.625-.34375.96874-1.0625 1.48438-.70315.5-1.64065.5-1.0156 0-1.6562-.54688-.64065-.5625-.76565-1.57812zm4.3125-3.79688q0-.90626-.48435-1.4375-.4688-.53126-1.1563-.53126-.7031 0-1.23435.57814-.51565.5625-.51565 1.48436 0 .8125.5 1.32814.5.51562 1.2188.51562.73435 0 1.2031-.51562.46875-.51564.46875-1.42188zm6.5 5.78124h-1.04685v-6.71874q-.39065.35938-1.01565.73438-.60935.35936-1.09375.53126v-1.01564q.875-.42186 1.53125-1 .67185-.59376.95315-1.15626h.67185zm3.1875-1.98436 1.01565-.09374q.125.71874.48435 1.04686.375.3125.9375.3125.48435 0 .84375-.21876.375-.23436.6094-.59374.23435-.375.3906-1 .15625-.64062.15625-1.29686 0-.07814 0-.21876-.3125.5-.85935.82812-.5469.3125-1.1875.3125-1.07815 0-1.8125-.76562-.7344-.78124-.7344-2.04688 0-1.3125.7656-2.10936.7813-.7969 1.9375-.7969.82815 0 1.51565.45314.70315.45312 1.0625 1.29686.35935.82814.35935 2.40626 0 1.64064-.35935 2.625-.34375.96874-1.0625 1.48438-.70315.5-1.64065.5-1.0156 0-1.6562-.54688-.64065-.5625-.76565-1.57812zm4.3125-3.79688q0-.90626-.48435-1.4375-.4688-.53126-1.1563-.53126-.7031 0-1.23435.57814-.51565.5625-.51565 1.48436 0 .8125.5 1.32814.5.51562 1.2188.51562.73435 0 1.2031-.51562.46875-.51564.46875-1.42188z" fill="#000"/>
  <path d="m280.46875 474.3478h-1.04687v-6.71874q-.39063.35937-1.01563.73437-.60937.35937-1.09375.53125v-1.01562q.875-.42188 1.53125-1 .67187-.59376.95313-1.15626h.67187zm3.625 0v-1.20312h1.20313v1.20312zm2.40625-2.26562 1.0625-.14062q.17188.89062.60938 1.29687.4375.39063 1.0625.39063.75 0 1.26562-.51563.51562-.51563.51562-1.28125 0-.71875-.48437-1.1875-.46875-.48438-1.20313-.48438-.29687 0-.75.125l.125-.9375q.10938.01563.17188.01563.67188 0 1.20312-.34375.54688-.35938.54688-1.09375 0-.57813-.39062-.95313-.39063-.39062-1.01563-.39062-.60937 0-1.03125.39062-.40625.39063-.51562 1.15626l-1.0625-.1875q.1875-1.04688.875-1.625.6875-.59376 1.70312-.59376.70312 0 1.29688.3125.59374.29688.90624.8125.3125.51563.3125 1.10938 0 .54688-.29687 1.01562-.29687.45313-.875.71876.75.17187 1.17187.73437.42188.54687.42188 1.39063 0 1.125-.82812 1.90624-.8125.78126-2.0625.78126-1.125 0-1.875-.67188-.75-.6875-.85938-1.75zm7 .01562 1.10938-.09374q.125.8125.5625 1.21874.45312.40626 1.09374.40626.75 0 1.28126-.57813.53124-.57813.53124-1.51563 0-.90624-.51562-1.42187-.5-.53125-1.32812-.53125-.5 0-.92188.23438-.40625.23437-.64062.59374l-.98438-.125.82812-4.40624h4.28126v1h-3.4375l-.45313 2.3125q.76563-.54688 1.60937-.54688 1.125 0 1.89063.78125.78125.78125.78125 2.01563 0 1.15624-.67188 2.01562-.82812 1.03125-2.25 1.03125-1.17187 0-1.92187-.65625-.73437-.65625-.84375-1.73438zm10.375 2.25v-2.0625h-3.71875v-.96874l3.92187-5.5625h.85938v5.5625h1.15625v.96874h-1.15625v2.0625zm0-3.03124v-3.85938l-2.6875 3.85938z" stroke="#f2f2f2" stroke-linecap="round" stroke-linejoin="round" stroke-width="3"/>
  <path d="m280.46875 474.3478h-1.04687v-6.71874q-.39063.35937-1.01563.73437-.60937.35937-1.09375.53125v-1.01562q.875-.42188 1.53125-1 .67187-.59376.95313-1.15626h.67187zm3.625 0v-1.20312h1.20313v1.20312zm2.40625-2.26562 1.0625-.14062q.17188.89062.60938 1.29687.4375.39063 1.0625.39063.75 0 1.26562-.51563.51562-.51563.51562-1.28125 0-.71875-.48437-1.1875-.46875-.48438-1.20313-.48438-.29687 0-.75.125l.125-.9375q.10938.01563.17188.01563.67188 0 1.20312-.34375.54688-.35938.54688-1.09375 0-.57813-.39062-.95313-.39063-.39062-1.01563-.39062-.60937 0-1.03125.39062-.40625.39063-.51562 1.15626l-1.0625-.1875q.1875-1.04688.875-1.625.6875-.59376 1.70312-.59376.70312 0 1.29688.3125.59374.29688.90624.8125.3125.51563.3125 1.10938 0 .54688-.29687 1.01562-.29687.45313-.875.71876.75.17187 1.17187.73437.42188.54687.42188 1.39063 0 1.125-.82812 1.90624-.8125.78126-2.0625.78126-1.125 0-1.875-.67188-.75-.6875-.85938-1.75zm7 .01562 1.10938-.09374q.125.8125.5625 1.21874.45312.40626 1.09374.40626.75 0 1.28126-.57813.53124-.57813.53124-1.51563 0-.90624-.51562-1.42187-.5-.53125-1.32812-.53125-.5 0-.92188.23438-.40625.23437-.64062.59374l-.98438-.125.82812-4.40624h4.28126v1h-3.4375l-.45313 2.3125q.76563-.54688 1.60937-.54688 1.125 0 1.89063.78125.78125.78125.78125 2.01563 0 1.15624-.67188 2.01562-.82812 1.03125-2.25 1.03125-1.17187 0-1.92187-.65625-.73437-.65625-.84375-1.73438zm10.375 2.25v-2.0625h-3.71875v-.96874l3.92187-5.5625h.85938v5.5625h1.15625v.96874h-1.15625v2.0625zm0-3.03124v-3.85938l-2.6875 3.85938z" fill="#000"/>
  <path d="m616.5469 446.86948v1.01562h-5.6875q0-.375.125-.73437.2187-.57813.6875-1.14063.48435-.5625 1.3906-1.29687 1.40625-1.15625 1.8906-1.82813.5-.67187.5-1.26562 0-.625-.4531-1.04688-.4531-.4375-1.1719-.4375-.7656 0-1.2187.45313-.45315.45312-.4688 1.26562l-1.0781-.10937q.1094-1.21875.8281-1.84375.7344-.64063 1.9688-.64063 1.23435 0 1.9531.6875.71875.6875.71875 1.70313 0 .51562-.21875 1.01562-.2031.48438-.7031 1.04688-.4844.54687-1.6094 1.5-.9531.79687-1.2344 1.09375-.2656.28125-.4375.5625zm2.04685 1.01562v-1.20312h1.20315v1.20312zm5.78125 0v-2.0625h-3.71875v-.96875l3.92185-5.5625h.8594v5.5625h1.15625v.96875h-1.15625v2.0625zm0-3.03125v-3.85937l-2.6875 3.85937zm7 3.03125v-2.0625h-3.71875v-.96875l3.92185-5.5625h.8594v5.5625h1.15625v.96875h-1.15625v2.0625zm0-3.03125v-3.85937l-2.6875 3.85937zm3.625.76563 1.0625-.14063q.1719.89063.6094 1.29688.4375.39062 1.0625.39062.75 0 1.2656-.51562.5156-.51563.5156-1.28125 0-.71875-.48435-1.1875-.46875-.48438-1.20315-.48438-.29685 0-.75.125l.125-.9375q.1094.01563.1719.01563.6719 0 1.2031-.34375.5469-.35938.5469-1.09375 0-.57813-.3906-.95313-.39065-.39062-1.01565-.39062-.60935 0-1.03125.39062-.40625.39063-.5156 1.15625l-1.0625-.1875q.1875-1.04687.875-1.625.6875-.59375 1.7031-.59375.7031 0 1.2969.3125.5937.29688.9062.8125.3125.51563.3125 1.10938 0 .54687-.29685 1.01562-.29685.45313-.875.71875.75.17188 1.17185.73438.4219.54687.4219 1.39062 0 1.125-.8281 1.90625-.8125.78125-2.0625.78125-1.125 0-1.875-.67187-.75-.6875-.8594-1.75z" stroke="#f2f2f2" stroke-linecap="round" stroke-linejoin="round" stroke-width="3"/>
  <path d="m616.5469 446.86948v1.01562h-5.6875q0-.375.125-.73437.2187-.57813.6875-1.14063.48435-.5625 1.3906-1.29687 1.40625-1.15625 1.8906-1.82813.5-.67187.5-1.26562 0-.625-.4531-1.04688-.4531-.4375-1.1719-.4375-.7656 0-1.2187.45313-.45315.45312-.4688 1.26562l-1.0781-.10937q.1094-1.21875.8281-1.84375.7344-.64063 1.9688-.64063 1.23435 0 1.9531.6875.71875.6875.71875 1.70313 0 .51562-.21875 1.01562-.2031.48438-.7031 1.04688-.4844.54687-1.6094 1.5-.9531.79687-1.2344 1.09375-.2656.28125-.4375.5625zm2.04685 1.01562v-1.20312h1.20315v1.20312zm5.78125 0v-2.0625h-3.71875v-.96875l3.92185-5.5625h.8594v5.5625h1.15625v.96875h-1.15625v2.0625zm0-3.03125v-3.85937l-2.6875 3.85937zm7 3.03125v-2.0625h-3.71875v-.96875l3.92185-5.5625h.8594v5.5625h1.15625v.96875h-1.15625v2.0625zm0-3.03125v-3.85937l-2.6875 3.85937zm3.625.76563 1.0625-.14063q.1719.89063.6094 1.29688.4375.39062 1.0625.39062.75 0 1.2656-.51562.5156-.51563.5156-1.28125 0-.71875-.48435-1.1875-.46875-.48438-1.20315-.48438-.29685 0-.75.125l.125-.9375q.1094.01563.1719.01563.6719 0 1.2031-.34375.5469-.35938.5469-1.09375 0-.57813-.3906-.95313-.39065-.39062-1.01565-.39062-.60935 0-1.03125.39062-.40625.39063-.5156 1.15625l-1.0625-.1875q.1875-1.04687.875-1.625.6875-.59375 1.7031-.59375.7031 0 1.2969.3125.5937.29688.9062.8125.3125.51563.3125 1.10938 0 .54687-.29685 1.01562-.29685.45313-.875.71875.75.17188 1.17185.73438.4219.54687.4219 1.39062 0 1.125-.8281 1.90625-.8125.78125-2.0625.78125-1.125 0-1.875-.67187-.75-.6875-.8594-1.75z" fill="#000"/>
  <path d="m948.875 395.8345v-2.0625h-3.71875v-.96875l3.92185-5.5625h.8594v5.5625h1.15625v.96875h-1.15625v2.0625zm0-3.03125v-3.85937l-2.6875 3.85937zm4.21875 3.03125v-1.20312h1.20315v1.20312zm2.40625-2.25 1.1094-.09375q.125.8125.5625 1.21875.4531.40625 1.0937.40625.75 0 1.2813-.57812.5312-.57813.5312-1.51563 0-.90625-.5156-1.42187-.5-.53125-1.3281-.53125-.5 0-.9219.23437-.40625.23438-.6406.59375l-.9844-.125.8281-4.40625h4.2813v1h-3.4375l-.45315 2.3125q.76565-.54687 1.60935-.54687 1.125 0 1.89065.78125.78125.78125.78125 2.01562 0 1.15625-.6719 2.01563-.8281 1.03125-2.25 1.03125-1.17185 0-1.92185-.65625-.73435-.65625-.84375-1.73438zm8.625-2.40625q-.65625-.25-.9844-.6875-.3125-.45312-.3125-1.0625 0-.9375.6719-1.57812.6875-.64063 1.7969-.64063 1.125 0 1.8125.65625.6875.65625.6875 1.59375 0 .59375-.3125 1.03125-.3125.4375-.95315.6875.79685.25 1.20315.82813.4062.57812.4062 1.375 0 1.09375-.7812 1.84375-.76565.75-2.0469.75-1.2656 0-2.0469-.75-.7812-.75-.7812-1.875 0-.84375.42185-1.40625.4375-.5625 1.21875-.76563zm-.21875-1.79687q0 .60937.39065 1 .4062.39062 1.0312.39062.6094 0 1-.375.39065-.39062.39065-.95312 0-.57813-.40625-.96875-.40625-.40625-1-.40625-.6094 0-1.0156.39062-.39065.39063-.39065.92188zm-.32815 3.96875q0 .45312.20315.875.21875.42187.64065.65625.42185.23437.9062.23437.75 0 1.2344-.48437.5-.48438.5-1.23438 0-.76562-.5-1.26562-.5-.5-1.2656-.5-.75 0-1.2344.5-.4844.48437-.4844 1.21875zm5.9219.23437 1.1094-.09375q.125.8125.5625 1.21875.4531.40625 1.0937.40625.75 0 1.2813-.57812.5312-.57813.5312-1.51563 0-.90625-.5156-1.42187-.5-.53125-1.3281-.53125-.5 0-.9219.23437-.40625.23438-.6406.59375l-.9844-.125.8281-4.40625h4.2813v1h-3.4375l-.45315 2.3125q.76565-.54687 1.60935-.54687 1.125 0 1.89065.78125.78125.78125.78125 2.01562 0 1.15625-.6719 2.01563-.8281 1.03125-2.25 1.03125-1.17185 0-1.92185-.65625-.73435-.65625-.84375-1.73438z" stroke="#f2f2f2" stroke-linecap="round" stroke-linejoin="round" stroke-width="3"/>
  <path d="m948.875 395.8345v-2.0625h-3.71875v-.96875l3.92185-5.5625h.8594v5.5625h1.15625v.96875h-1.15625v2.0625zm0-3.03125v-3.85937l-2.6875 3.85937zm4.21875 3.03125v-1.20312h1.20315v1.20312zm2.40625-2.25 1.1094-.09375q.125.8125.5625 1.21875.4531.40625 1.0937.40625.75 0 1.2813-.57812.5312-.57813.5312-1.51563 0-.90625-.5156-1.42187-.5-.53125-1.3281-.53125-.5 0-.9219.23437-.40625.23438-.6406.59375l-.9844-.125.8281-4.40625h4.2813v1h-3.4375l-.45315 2.3125q.76565-.54687 1.60935-.54687 1.125 0 1.89065.78125.78125.78125.78125 2.01562 0 1.15625-.6719 2.01563-.8281 1.03125-2.25 1.03125-1.17185 0-1.92185-.65625-.73435-.65625-.84375-1.73438zm8.625-2.40625q-.65625-.25-.9844-.6875-.3125-.45312-.3125-1.0625 0-.9375.6719-1.57812.6875-.64063 1.7969-.64063 1.125 0 1.8125.65625.6875.65625.6875 1.59375 0 .59375-.3125 1.03125-.3125.4375-.95315.6875.79685.25 1.20315.82813.4062.57812.4062 1.375 0 1.09375-.7812 1.84375-.76565.75-2.0469.75-1.2656 0-2.0469-.75-.7812-.75-.7812-1.875 0-.84375.42185-1.40625.4375-.5625 1.21875-.76563zm-.21875-1.79687q0 .60937.39065 1 .4062.39062 1.0312.39062.6094 0 1-.375.39065-.39062.39065-.95312 0-.57813-.40625-.96875-.40625-.40625-1-.40625-.6094 0-1.0156.39062-.39065.39063-.39065.92188zm-.32815 3.96875q0 .45312.20315.875.21875.42187.64065.65625.42185.23437.9062.23437.75 0 1.2344-.48437.5-.48438.5-1.23438 0-.76562-.5-1.26562-.5-.5-1.2656-.5-.75 0-1.2344.5-.4844.48437-.4844 1.21875zm5.9219.23437 1.1094-.09375q.125.8125.5625 1.21875.4531.40625 1.0937.40625.75 0 1.2813-.57812.5312-.57813.5312-1.51563 0-.90625-.5156-1.42187-.5-.53125-1.3281-.53125-.5 0-.9219.23437-.40625.23438-.6406.59375l-.9844-.125.8281-4.40625h4.2813v1h-3.4375l-.45315 2.3125q.76565-.54687 1.60935-.54687 1.125 0 1.89065.78125.78125.78125.78125 2.01562 0 1.15625-.6719 2.01563-.8281 1.03125-2.25 1.03125-1.17185 0-1.92185-.65625-.73435-.65625-.84375-1.73438z" fill="#000"/>
  <path d="m602.5469 571.4844 1.0625-.0938q.0781.6563.35935 1.0625.28125.4063.85935.6719.5938.25 1.32815.25.64065 0 1.14065-.1875.5-.2031.73435-.53125.25-.34375.25-.73435 0-.4063-.23435-.70315-.2344-.3125-.76565-.51565-.35935-.1406-1.54685-.42185-1.1719-.28125-1.64065-.53125-.625-.3281-.92185-.7969-.2969-.48435-.2969-1.0781 0-.6406.3594-1.2031.375-.57815 1.0781-.8594.71875-.2969 1.5781-.2969.95315 0 1.6875.3125.7344.2969 1.125.9063.39065.5937.4219 1.3437l-1.09375.07815q-.09375-.8125-.60935-1.21875-.5-.4219-1.4844-.4219-1.03125 0-1.5.375-.46875.375-.46875.9063 0 .4687.32815.7656.3281.2969 1.7031.6094 1.3906.3125 1.90625.54685.75.35935 1.10935.89065.3594.5156.3594 1.2187 0 .6875-.3906 1.2969-.39065.59375-1.125.9375-.7344.3281-1.6563.3281-1.17185 0-1.9687-.3281-.7813-.34375-1.2344-1.03125-.4375-.6875-.4531-1.54685zm12.3125 2q-.5938.5-1.14065.7031-.53125.2031-1.15625.2031-1.03125 0-1.5781-.5-.5469-.5-.5469-1.2812 0-.45315.2031-.82815.20315-.39065.5469-.60935.34375-.2344.7656-.3438.2969-.0937.9375-.17185 1.26565-.14065 1.875-.35935 0-.2188 0-.26565 0-.65625-.29685-.92185-.40625-.3438-1.20315-.3438-.73435 0-1.0937.26565-.3594.25-.5313.90625l-1.0312-.1406q.1406-.6563.4687-1.0625.32815-.4063.9375-.625.6094-.2188 1.4063-.2188.79685 0 1.29685.1875.5.1875.73435.4688.2344.2812.32815.7187.04685.26565.04685.9688v1.4062q0 1.4688.0625 1.8594.07815.3906.2813.75h-1.1094q-.15625-.3281-.2031-.7656zm-.0938-2.3594q-.5781.2344-1.7187.40625-.6563.09375-.9219.21875-.2656.1094-.4219.3281-.1406.2188-.1406.5 0 .4219.3125.70315.3281.28125.9375.28125.6094 0 1.0781-.2656.4844-.26565.70315-.7344.17185-.3594.17185-1.0469zm3.0313 3.125v-6.21875h.9375v.875q.29685-.46875.7812-.73435.4844-.2813 1.1094-.2813.6875 0 1.125.2813.4531.2812.625.79685.75-1.07815 1.9219-1.07815.9375 0 1.42185.51565.5.5.5 1.57815v4.2656h-1.04685v-3.9219q0-.625-.1094-.9062-.09375-.2813-.3594-.45315-.2656-.17185-.6406-.17185-.65625 0-1.09375.4375-.42185.4375-.42185 1.4062v3.6094h-1.0625v-4.0469q0-.7031-.26565-1.04685-.25-.35935-.82815-.35935-.4531 0-.8281.23435-.375.23435-.5469.6875-.17185.45315-.17185 1.29685v3.2344zm10 2.3906v-8.60935h.9531v.79685q.34375-.4687.7656-.7031.4375-.2344 1.0469-.2344.7969 0 1.40625.4063.60935.4062.90625 1.1562.3125.75.3125 1.64065 0 .95315-.34375 1.71875-.32815.7656-.98435 1.1719-.6563.4062-1.375.4062-.5313 0-.95315-.2187-.42185-.2344-.6875-.5625v3.0312zm.9531-5.4687q0 1.2031.4844 1.7812.48435.5625 1.17185.5625.70315 0 1.20315-.5937.5-.5938.5-1.8438 0-1.1875-.4844-1.7656-.4844-.59375-1.1719-.59375-.67185 0-1.1875.625-.5156.625-.5156 1.82815zm6.0156 3.0781v-8.59375h1.0625v8.59375zm7.2813-2 1.0937.125q-.25.9531-.9531 1.4844-.7031.5312-1.78125.5312-1.35935 0-2.17185-.8437-.7969-.8438-.7969-2.3594 0-1.5625.8125-2.4219.8125-.875 2.09375-.875 1.25 0 2.03125.8438.7969.8437.7969 2.3906 0 .09375 0 .28125h-4.64065q.0625 1.03125.57815 1.57815.5156.5312 1.29685.5312.57815 0 .98435-.29685.4219-.3125.6563-.96875zm-3.45315-1.7031h3.46875q-.0625-.7969-.3906-1.1875-.51565-.6094-1.3125-.6094-.7344 0-1.2344.4844-.4844.48435-.53125 1.3125zm5.78125 1.8437 1.03125-.1562q.09375.625.48435.9531.4063.3281 1.14065.3281.71875 0 1.0625-.2812.35935-.2969.35935-.70315 0-.35935-.3125-.5625-.2187-.14065-1.0781-.35935-1.15625-.2969-1.6094-.5-.4375-.2188-.67185-.5938-.23435-.375-.23435-.8437 0-.4063.1875-.76565.1875-.35935.5156-.59375.25-.1719.6719-.2969.42185-.125.92185-.125.71875 0 1.26565.2188.5625.2031.8281.5625.2656.35935.3594.9531l-1.0313.1406q-.0625-.4687-.4062-.73435-.32815-.28125-.95315-.28125-.71875 0-1.03125.25-.3125.2344-.3125.5625 0 .2031.125.3594.1406.17185.40625.2812.15625.0625.9375.26565 1.125.3125 1.5625.5.4375.1875.6875.54685.25.3594.25.9063 0 .5312-.3125 1-.29685.4531-.875.7187-.57815.25-1.3125.25-1.21875 0-1.85935-.5-.625-.5156-.7969-1.5z" fill="#000"/>
  <path d="m43.25 310.8125h-8.59375v-3.8125q0-1.15625.234375-1.75.234375-.59375.828125-.95312.578125-.35938 1.28125-.35938.921875 0 1.546875.59375.625.59375.796875 1.82813.21875-.45313.421875-.6875.453125-.5 1.140625-.9375l2.34375-1.5v1.4375l-1.78125 1.125q-.78125.5-1.1875.82812-.40625.3125-.5625.57812-.171875.25-.25.51563-.03125.1875-.03125.625v1.32813h3.8125zm-4.796875-1.14062v-2.45313q0-.76563-.15625-1.20313-.171875-.45312-.515625-.67187-.359375-.23437-.78125-.23437-.609375 0-1 .45312-.390625.4375-.390625 1.39062v2.71876zm4.796875-11.79688h-.921875q1.0625.73438 1.0625 1.98438 0 .54687-.203125 1.03124-.21875.46876-.53125.70313-.328125.23437-.796875.32813-.296875.0625-.984375.0625h-3.84375v-1.0625h3.453125q.8125 0 1.109375-.0625.40625-.09376.65625-.40626.234375-.32812.234375-.8125 0-.46874-.234375-.875-.25-.42187-.671875-.59374-.421875-.1875-1.21875-.1875h-3.328125v-1.04688h6.21875zm0-2.92188h-6.21875v-.9375h.875q-1.015625-.6875-1.015625-1.98437 0-.5625.203125-1.03125.203125-.48438.53125-.71875.328125-.23437.765625-.32813.296875-.04687 1.03125-.04687h3.828125v1.04687h-3.78125q-.65625 0-.96875.125-.3125.125-.5.4375-.203125.3125-.203125.73438 0 .67188.4375 1.17188.421875.48437 1.609375.48437h3.40625zm-.9375-9.29687.921875-.15625q.09375.45312.09375.79688 0 .57812-.171875.89062-.1875.3125-.484375.45312-.296875.125-1.25.125h-3.578125v.76563h-.8125v-.76563h-1.546875l-.625-1.04687h2.171875v-1.0625h.8125v1.0625h3.640625q.453125 0 .578125-.04687.125-.0625.203125-.1875.078125-.125.078125-.35938 0-.1875-.03125-.46875zm-6.4375-.70313h-1.21875v-1.0625h1.21875zm7.375 0h-6.21875v-1.0625h6.21875zm0-3h-6.21875v-.9375h.875q-.46875-.29687-.734375-.78124-.28125-.48438-.28125-1.10938 0-.6875.28125-1.125.28125-.45312.796875-.625-1.078125-.75-1.078125-1.92188 0-.9375.515625-1.42187.5-.5 1.578125-.5h4.265625v1.04687h-3.921875q-.625 0-.90625.10938-.28125.09375-.453125.35938-.171875.26562-.171875.64062 0 .65625.4375 1.09375.4375.42187 1.40625.42187h3.609375v1.0625h-4.046875q-.703125 0-1.046875.26563-.359375.25-.359375.82813 0 .45312.234375.82812.234375.375.6875.54688.453125.17187 1.296875.17187h3.234375zm-2-14.25.125-1.09374q.953125.25 1.484375.95312.53125.70312.53125 1.78125 0 1.35937-.84375 2.17187-.84375.79688-2.359375.79688-1.5625 0-2.421875-.8125-.875-.8125-.875-2.09375 0-1.25.84375-2.03125.84375-.79688 2.390625-.79688.09375 0 .28125 0v4.64063q1.03125-.0625 1.578125-.57813.53125-.51562.53125-1.29687 0-.57813-.296875-.98437-.3125-.42188-.96875-.65626zm-1.703125 3.45313v-3.46875q-.796875.0625-1.1875.39062-.609375.51563-.609375 1.3125 0 .73438.484375 1.23438.484375.48438 1.3125.53125z" fill="#000"/>
  <g fill="#595959">
    <path d="m92.75 525.0156q0-1.5312.3125-2.4531.3125-.9375.921875-1.4375.625-.5 1.5625-.5.6875 0 1.203125.28125.53125.28125.875.8125.34375.51565.53125 1.26565.1875.75.1875 2.0312 0 1.51565-.3125 2.4375-.296875.9219-.921875 1.4375-.609375.5-1.5625.5-1.234375 0-1.953125-.8906-.84375-1.0625-.84375-3.4844zm1.078125 0q0 2.1094.5 2.8125.5.70315 1.21875.70315.734375 0 1.21875-.70315.5-.7031.5-2.8125 0-2.125-.5-2.8125-.484375-.7031-1.234375-.7031-.71875 0-1.15625.6094-.546875.7812-.546875 2.9062zm9.21875 4.2344v-6.21875h.9375v.875q.296875-.46875.78125-.73435.484375-.2813 1.109375-.2813.6875 0 1.125.2813.453125.2812.625.79685.75-1.07815 1.921875-1.07815.9375 0 1.421875.51565.5.5.5 1.57815v4.2656h-1.046875v-3.9219q0-.625-.109375-.9062-.09375-.2813-.359375-.45315-.265625-.17185-.640625-.17185-.65625 0-1.09375.4375-.421875.4375-.421875 1.4062v3.6094h-1.0625v-4.0469q0-.7031-.265625-1.04685-.25-.35935-.828125-.35935-.453125 0-.828125.23435-.375.23435-.546875.6875-.171875.45315-.171875 1.29685v3.2344zm9.578125-1.8594 1.03125-.1562q.09375.625.484375.9531.40625.3281 1.140625.3281.71875 0 1.0625-.2812.359375-.2969.359375-.70315 0-.35935-.3125-.5625-.21875-.14065-1.078125-.35935-1.15625-.2969-1.609375-.5-.4375-.2188-.671875-.5938-.234375-.375-.234375-.8437 0-.4063.1875-.76565.1875-.35935.515625-.59375.25-.1719.671875-.2969.421875-.125.921875-.125.71875 0 1.265625.2188.5625.2031.828125.5625.265625.35935.359375.9531l-1.03125.1406q-.0625-.4687-.40625-.73435-.328125-.28125-.953125-.28125-.71875 0-1.03125.25-.3125.2344-.3125.5625 0 .2031.125.3594.140625.17185.40625.2812.15625.0625.9375.26565 1.125.3125 1.5625.5.4375.1875.6875.54685.25.3594.25.9063 0 .5312-.3125 1-.296875.4531-.875.7187-.578125.25-1.3125.25-1.21875 0-1.859375-.5-.625-.5156-.796875-1.5z"/>
    <path d="m71.75 405.5 1.109375-.09375q.125.8125.5625 1.21875.453125.40625 1.09375.40625.75 0 1.28125-.57813.53125-.57812.53125-1.51562 0-.90625-.515625-1.42188-.5-.53124-1.328125-.53124-.5 0-.921875.23437-.40625.23437-.640625.59375l-.984375-.125.828125-4.40625h4.28125v1h-3.4375l-.453125 2.3125q.765625-.54687 1.609375-.54687 1.125 0 1.890625.78124.78125.78126.78125 2.01563 0 1.15625-.671875 2.01563-.828125 1.03124-2.25 1.03124-1.171875 0-1.921875-.65624-.734375-.65626-.84375-1.73438zm7-1.98438q0-1.53124.3125-2.45312.3125-.9375.921875-1.4375.625-.5 1.5625-.5.6875 0 1.203125.28125.53125.28125.875.8125.34375.51563.53125 1.26563.1875.75.1875 2.03124 0 1.51563-.3125 2.4375-.296875.92188-.921875 1.4375-.609375.5-1.5625.5-1.234375 0-1.953125-.89062-.84375-1.0625-.84375-3.48438zm1.078125 0q0 2.10938.5 2.8125.5.70313 1.21875.70313.734375 0 1.21875-.70313.5-.70312.5-2.8125 0-2.125-.5-2.8125-.484375-.70312-1.234375-.70312-.71875 0-1.15625.60938-.546875.78124-.546875 2.90624zm5.921875 0q0-1.53124.3125-2.45312.3125-.9375.921875-1.4375.625-.5 1.5625-.5.6875 0 1.203125.28125.53125.28125.875.8125.34375.51563.53125 1.26563.1875.75.1875 2.03124 0 1.51563-.3125 2.4375-.296875.92188-.921875 1.4375-.609375.5-1.5625.5-1.234375 0-1.953125-.89062-.84375-1.0625-.84375-3.48438zm1.078125 0q0 2.10938.5 2.8125.5.70313 1.21875.70313.734375 0 1.21875-.70313.5-.70312.5-2.8125 0-2.125-.5-2.8125-.484375-.70312-1.234375-.70312-.71875 0-1.15625.60938-.546875.78124-.546875 2.90624zm5.921875 0q0-1.53124.3125-2.45312.3125-.9375.921875-1.4375.625-.5 1.5625-.5.6875 0 1.203125.28125.53125.28125.875.8125.34375.51563.53125 1.26563.1875.75.1875 2.03124 0 1.51563-.3125 2.4375-.296875.92188-.921875 1.4375-.609375.5-1.5625.5-1.234375 0-1.953125-.89062-.84375-1.0625-.84375-3.48438zm1.078125 0q0 2.10938.5 2.8125.5.70313 1.21875.70313.734375 0 1.21875-.70313.5-.70312.5-2.8125 0-2.125-.5-2.8125-.484375-.70312-1.234375-.70312-.71875 0-1.15625.60938-.546875.78124-.546875 2.90624zm9.21875 4.23438v-6.21875h.9375v.875q.296875-.46875.78125-.73437.484375-.28126 1.109375-.28126.6875 0 1.125.28126.453125.28124.625.79687.75-1.07813 1.921875-1.07813.9375 0 1.421875.51563.5.5.5 1.57813v4.26562h-1.046875v-3.92188q0-.625-.109375-.90624-.09375-.28126-.359375-.45313-.265625-.17187-.640625-.17187-.65625 0-1.09375.4375-.421875.4375-.421875 1.40624v3.60938h-1.0625v-4.04688q0-.70312-.265625-1.04687-.25-.35937-.828125-.35937-.453125 0-.828125.23437-.375.23437-.546875.6875-.171875.45313-.171875 1.29687v3.23438zm9.578125-1.85938 1.03125-.15624q.09375.625.484375.95312.40625.32812 1.140625.32812.71875 0 1.0625-.28124.359375-.29688.359375-.70313 0-.35937-.3125-.5625-.21875-.14063-1.078125-.35937-1.15625-.29688-1.609375-.5-.4375-.21876-.671875-.59376-.234375-.375-.234375-.84374 0-.40626.1875-.76563.1875-.35937.515625-.59375.25-.17188.671875-.29688.421875-.125.921875-.125.71875 0 1.265625.21876.5625.20312.828125.5625.265625.35937.359375.95312l-1.03125.14062q-.0625-.46874-.40625-.73437-.328125-.28125-.953125-.28125-.71875 0-1.03125.25-.3125.23438-.3125.5625 0 .20312.125.35938.140625.17187.40625.28124.15625.0625.9375.26563 1.125.3125 1.5625.5.4375.1875.6875.54687.25.35938.25.90626 0 .53124-.3125 1-.296875.45312-.875.71874-.578125.25-1.3125.25-1.21875 0-1.859375-.5-.625-.51562-.796875-1.5z"/>
    <path d="m68.71875 286.25h-1.046875v-6.71875q-.390625.35937-1.015625.73437-.609375.35938-1.09375.53126v-1.01563q.875-.42187 1.53125-1 .671875-.59375.953125-1.15625h.671875zm3.03125-4.23438q0-1.53124.3125-2.45312.3125-.9375.921875-1.4375.625-.5 1.5625-.5.6875 0 1.203125.28125.53125.28125.875.8125.34375.51563.53125 1.26563.1875.75.1875 2.03124 0 1.51563-.3125 2.4375-.296875.92188-.921875 1.4375-.609375.5-1.5625.5-1.234375 0-1.953125-.89062-.84375-1.0625-.84375-3.48438zm1.078125 0q0 2.10938.5 2.8125.5.70313 1.21875.70313.734375 0 1.21875-.70313.5-.70312.5-2.8125 0-2.125-.5-2.8125-.484375-.70312-1.234375-.70312-.71875 0-1.15625.60938-.546875.78124-.546875 2.90624zm5.921875 0q0-1.53124.3125-2.45312.3125-.9375.921875-1.4375.625-.5 1.5625-.5.6875 0 1.203125.28125.53125.28125.875.8125.34375.51563.53125 1.26563.1875.75.1875 2.03124 0 1.51563-.3125 2.4375-.296875.92188-.921875 1.4375-.609375.5-1.5625.5-1.234375 0-1.953125-.89062-.84375-1.0625-.84375-3.48438zm1.078125 0q0 2.10938.5 2.8125.5.70313 1.21875.70313.734375 0 1.21875-.70313.5-.70312.5-2.8125 0-2.125-.5-2.8125-.484375-.70312-1.234375-.70312-.71875 0-1.15625.60938-.546875.78124-.546875 2.90624zm5.921875 0q0-1.53124.3125-2.45312.3125-.9375.921875-1.4375.625-.5 1.5625-.5.6875 0 1.203125.28125.53125.28125.875.8125.34375.51563.53125 1.26563.1875.75.1875 2.03124 0 1.51563-.3125 2.4375-.296875.92188-.921875 1.4375-.609375.5-1.5625.5-1.234375 0-1.953125-.89062-.84375-1.0625-.84375-3.48438zm1.078125 0q0 2.10938.5 2.8125.5.70313 1.21875.70313.734375 0 1.21875-.70313.5-.70312.5-2.8125 0-2.125-.5-2.8125-.484375-.70312-1.234375-.70312-.71875 0-1.15625.60938-.546875.78124-.546875 2.90624zm5.921875 0q0-1.53124.3125-2.45312.3125-.9375.921875-1.4375.625-.5 1.5625-.5.6875 0 1.203125.28125.53125.28125.875.8125.34375.51563.53125 1.26563.1875.75.1875 2.03124 0 1.51563-.3125 2.4375-.296875.92188-.921875 1.4375-.609375.5-1.5625.5-1.234375 0-1.953125-.89062-.84375-1.0625-.84375-3.48438zm1.078125 0q0 2.10938.5 2.8125.5.70313 1.21875.70313.734375 0 1.21875-.70313.5-.70312.5-2.8125 0-2.125-.5-2.8125-.484375-.70312-1.234375-.70312-.71875 0-1.15625.60938-.546875.78124-.546875 2.90624zm9.21875 4.23438v-6.21875h.9375v.875q.296875-.46875.78125-.73437.484375-.28126 1.109375-.28126.6875 0 1.125.28126.453125.28124.625.79687.75-1.07813 1.921875-1.07813.9375 0 1.421875.51563.5.5.5 1.57813v4.26562h-1.046875v-3.92188q0-.625-.109375-.90624-.09375-.28126-.359375-.45313-.265625-.17187-.640625-.17187-.65625 0-1.09375.4375-.421875.4375-.421875 1.40624v3.60938h-1.0625v-4.04688q0-.70312-.265625-1.04687-.25-.35937-.828125-.35937-.453125 0-.828125.23437-.375.23437-.546875.6875-.171875.45313-.171875 1.29687v3.23438zm9.578125-1.85938 1.03125-.15624q.09375.625.484375.95312.40625.32812 1.140625.32812.71875 0 1.0625-.28124.359375-.29688.359375-.70313 0-.35937-.3125-.5625-.21875-.14063-1.078125-.35937-1.15625-.29688-1.609375-.5-.4375-.21876-.671875-.59376-.234375-.375-.234375-.84374 0-.40626.1875-.76563.1875-.35937.515625-.59375.25-.17188.671875-.29688.421875-.125.921875-.125.71875 0 1.265625.21876.5625.20312.828125.5625.265625.35937.359375.95312l-1.03125.14062q-.0625-.46874-.40625-.73437-.328125-.28125-.953125-.28125-.71875 0-1.03125.25-.3125.23438-.3125.5625 0 .20312.125.35938.140625.17187.40625.28124.15625.0625.9375.26563 1.125.3125 1.5625.5.4375.1875.6875.54687.25.35938.25.90626 0 .53124-.3125 1-.296875.45312-.875.71874-.578125.25-1.3125.25-1.21875 0-1.859375-.5-.625-.51562-.796875-1.5z"/>
    <path d="m68.71875 164.75h-1.046875v-6.71875q-.390625.35937-1.015625.73437-.609375.35938-1.09375.53126v-1.01563q.875-.42187 1.53125-1 .671875-.59375.953125-1.15625h.671875zm3.03125-2.25 1.109375-.09375q.125.8125.5625 1.21875.453125.40625 1.09375.40625.75 0 1.28125-.57813.53125-.57812.53125-1.51562 0-.90625-.515625-1.42188-.5-.53124-1.328125-.53124-.5 0-.921875.23437-.40625.23437-.640625.59375l-.984375-.125.828125-4.40625h4.28125v1h-3.4375l-.453125 2.3125q.765625-.54687 1.609375-.54687 1.125 0 1.890625.78124.78125.78126.78125 2.01563 0 1.15625-.671875 2.01563-.828125 1.03124-2.25 1.03124-1.171875 0-1.921875-.65624-.734375-.65626-.84375-1.73438zm7-1.98438q0-1.53124.3125-2.45312.3125-.9375.921875-1.4375.625-.5 1.5625-.5.6875 0 1.203125.28125.53125.28125.875.8125.34375.51563.53125 1.26563.1875.75.1875 2.03124 0 1.51563-.3125 2.4375-.296875.92188-.921875 1.4375-.609375.5-1.5625.5-1.234375 0-1.953125-.89062-.84375-1.0625-.84375-3.48438zm1.078125 0q0 2.10938.5 2.8125.5.70313 1.21875.70313.734375 0 1.21875-.70313.5-.70312.5-2.8125 0-2.125-.5-2.8125-.484375-.70312-1.234375-.70312-.71875 0-1.15625.60938-.546875.78124-.546875 2.90624zm5.921875 0q0-1.53124.3125-2.45312.3125-.9375.921875-1.4375.625-.5 1.5625-.5.6875 0 1.203125.28125.53125.28125.875.8125.34375.51563.53125 1.26563.1875.75.1875 2.03124 0 1.51563-.3125 2.4375-.296875.92188-.921875 1.4375-.609375.5-1.5625.5-1.234375 0-1.953125-.89062-.84375-1.0625-.84375-3.48438zm1.078125 0q0 2.10938.5 2.8125.5.70313 1.21875.70313.734375 0 1.21875-.70313.5-.70312.5-2.8125 0-2.125-.5-2.8125-.484375-.70312-1.234375-.70312-.71875 0-1.15625.60938-.546875.78124-.546875 2.90624zm5.921875 0q0-1.53124.3125-2.45312.3125-.9375.921875-1.4375.625-.5 1.5625-.5.6875 0 1.203125.28125.53125.28125.875.8125.34375.51563.53125 1.26563.1875.75.1875 2.03124 0 1.51563-.3125 2.4375-.296875.92188-.921875 1.4375-.609375.5-1.5625.5-1.234375 0-1.953125-.89062-.84375-1.0625-.84375-3.48438zm1.078125 0q0 2.10938.5 2.8125.5.70313 1.21875.70313.734375 0 1.21875-.70313.5-.70312.5-2.8125 0-2.125-.5-2.8125-.484375-.70312-1.234375-.70312-.71875 0-1.15625.60938-.546875.78124-.546875 2.90624zm9.21875 4.23438v-6.21875h.9375v.875q.296875-.46875.78125-.73437.484375-.28126 1.109375-.28126.6875 0 1.125.28126.453125.28124.625.79687.75-1.07813 1.921875-1.07813.9375 0 1.421875.51563.5.5.5 1.57813v4.26562h-1.046875v-3.92188q0-.625-.109375-.90624-.09375-.28126-.359375-.45313-.265625-.17187-.640625-.17187-.65625 0-1.09375.4375-.421875.4375-.421875 1.40624v3.60938h-1.0625v-4.04688q0-.70312-.265625-1.04687-.25-.35937-.828125-.35937-.453125 0-.828125.23437-.375.23437-.546875.6875-.171875.45313-.171875 1.29687v3.23438zm9.578125-1.85938 1.03125-.15624q.09375.625.484375.95312.40625.32812 1.140625.32812.71875 0 1.0625-.28124.359375-.29688.359375-.70313 0-.35937-.3125-.5625-.21875-.14063-1.078125-.35937-1.15625-.29688-1.609375-.5-.4375-.21876-.671875-.59376-.234375-.375-.234375-.84374 0-.40626.1875-.76563.1875-.35937.515625-.59375.25-.17188.671875-.29688.421875-.125.921875-.125.71875 0 1.265625.21876.5625.20312.828125.5625.265625.35937.359375.95312l-1.03125.14062q-.0625-.46874-.40625-.73437-.328125-.28125-.953125-.28125-.71875 0-1.03125.25-.3125.23438-.3125.5625 0 .20312.125.35938.140625.17187.40625.28124.15625.0625.9375.26563 1.125.3125 1.5625.5.4375.1875.6875.54687.25.35938.25.90626 0 .53124-.3125 1-.296875.45312-.875.71874-.578125.25-1.3125.25-1.21875 0-1.859375-.5-.625-.51562-.796875-1.5z"/>
    <path d="m70.296875 42.234375v1.015625h-5.6875q0-.375.125-.734375.21875-.578125.6875-1.140625.484375-.5625 1.390625-1.296875 1.40625-1.15625 1.890625-1.828125.5-.671875.5-1.265625 0-.625-.453125-1.046875-.453125-.4375-1.171875-.4375-.765625 0-1.21875.453125-.453125.453125-.46875 1.265625l-1.078125-.109375q.109375-1.21875.828125-1.84375.734375-.640625 1.96875-.640625 1.234375 0 1.953125.6875.71875.6875.71875 1.703125 0 .515625-.21875 1.015625-.203125.484375-.703125 1.046875-.484375.546875-1.609375 1.5-.953125.796875-1.234375 1.09375-.265625.28125-.4375.5625zm1.453125-3.21875q0-1.53125.3125-2.453125.3125-.9375.921875-1.4375.625-.5 1.5625-.5.6875 0 1.203125.28125.53125.28125.875.8125.34375.515625.53125 1.265625.1875.75.1875 2.03125 0 1.515625-.3125 2.4375-.296875.921875-.921875 1.4375-.609375.5-1.5625.5-1.234375 0-1.953125-.890625-.84375-1.0625-.84375-3.484375zm1.078125 0q0 2.109375.5 2.8125.5.703125 1.21875.703125.734375 0 1.21875-.703125.5-.703125.5-2.8125 0-2.125-.5-2.8125-.484375-.703125-1.234375-.703125-.71875 0-1.15625.609375-.546875.78125-.546875 2.90625zm5.921875 0q0-1.53125.3125-2.453125.3125-.9375.921875-1.4375.625-.5 1.5625-.5.6875 0 1.203125.28125.53125.28125.875.8125.34375.515625.53125 1.265625.1875.75.1875 2.03125 0 1.515625-.3125 2.4375-.296875.921875-.921875 1.4375-.609375.5-1.5625.5-1.234375 0-1.953125-.890625-.84375-1.0625-.84375-3.484375zm1.078125 0q0 2.109375.5 2.8125.5.703125 1.21875.703125.734375 0 1.21875-.703125.5-.703125.5-2.8125 0-2.125-.5-2.8125-.484375-.703125-1.234375-.703125-.71875 0-1.15625.609375-.546875.78125-.546875 2.90625zm5.921875 0q0-1.53125.3125-2.453125.3125-.9375.921875-1.4375.625-.5 1.5625-.5.6875 0 1.203125.28125.53125.28125.875.8125.34375.515625.53125 1.265625.1875.75.1875 2.03125 0 1.515625-.3125 2.4375-.296875.921875-.921875 1.4375-.609375.5-1.5625.5-1.234375 0-1.953125-.890625-.84375-1.0625-.84375-3.484375zm1.078125 0q0 2.109375.5 2.8125.5.703125 1.21875.703125.734375 0 1.21875-.703125.5-.703125.5-2.8125 0-2.125-.5-2.8125-.484375-.703125-1.234375-.703125-.71875 0-1.15625.609375-.546875.78125-.546875 2.90625zm5.921875 0q0-1.53125.3125-2.453125.3125-.9375.921875-1.4375.625-.5 1.5625-.5.6875 0 1.203125.28125.53125.28125.875.8125.34375.515625.53125 1.265625.1875.75.1875 2.03125 0 1.515625-.3125 2.4375-.296875.921875-.921875 1.4375-.609375.5-1.5625.5-1.234375 0-1.953125-.890625-.84375-1.0625-.84375-3.484375zm1.078125 0q0 2.109375.5 2.8125.5.703125 1.21875.703125.734375 0 1.21875-.703125.5-.703125.5-2.8125 0-2.125-.5-2.8125-.484375-.703125-1.234375-.703125-.71875 0-1.15625.609375-.546875.78125-.546875 2.90625zm9.21875 4.234375v-6.21875h.9375v.875q.296875-.46875.78125-.734375.484375-.28125 1.109375-.28125.6875 0 1.125.28125.453125.28125.625.796875.75-1.078125 1.921875-1.078125.9375 0 1.421875.515625.5.5.5 1.578125v4.265625h-1.046875v-3.921875q0-.625-.109375-.90625-.09375-.28125-.359375-.453125-.265625-.171875-.640625-.171875-.65625 0-1.09375.4375-.421875.4375-.421875 1.40625v3.609375h-1.0625v-4.046875q0-.703125-.265625-1.046875-.25-.359375-.828125-.359375-.453125 0-.828125.234375-.375.234375-.546875.6875-.171875.453125-.171875 1.296875v3.234375zm9.578125-1.859375 1.03125-.15625q.09375.625.484375.953125.40625.328125 1.140625.328125.71875 0 1.0625-.28125.359375-.296875.359375-.703125 0-.359375-.3125-.5625-.21875-.140625-1.078125-.359375-1.15625-.296875-1.609375-.5-.4375-.21875-.671875-.59375-.234375-.375-.234375-.84375 0-.40625.1875-.765625.1875-.359375.515625-.59375.25-.171875.671875-.296875.421875-.125.921875-.125.71875 0 1.265625.21875.5625.203125.828125.5625.265625.359375.359375.953125l-1.03125.140625q-.0625-.46875-.40625-.734375-.328125-.28125-.953125-.28125-.71875 0-1.03125.25-.3125.234375-.3125.5625 0 .203125.125.359375.140625.171875.40625.28125.15625.0625.9375.265625 1.125.3125 1.5625.5.4375.1875.6875.546875.25.359375.25.90625 0 .53125-.3125 1-.296875.453125-.875.71875-.578125.25-1.3125.25-1.21875 0-1.859375-.5-.625-.515625-.796875-1.5z"/>
    <path d="m257.5 540 1.10938-.09375q.125.8125.5625 1.21875.45312.40625 1.09374.40625.75 0 1.28126-.57815.53124-.5781.53124-1.5156 0-.90625-.51562-1.4219-.5-.5312-1.32812-.5312-.5 0-.92188.23435-.40625.23435-.64062.59375l-.98438-.125.82812-4.40625h4.28126v1h-3.4375l-.45313 2.3125q.76563-.54685 1.60937-.54685 1.125 0 1.89063.7812.78125.7813.78125 2.01565 0 1.15625-.67188 2.01565-.82812 1.0312-2.25 1.0312-1.17187 0-1.92187-.6562-.73437-.6563-.84375-1.7344zm7-1.9844q0-1.5312.3125-2.4531.3125-.9375.92188-1.4375.625-.5 1.5625-.5.6875 0 1.20312.28125.53125.28125.875.8125.34375.51565.53125 1.26565.1875.75.1875 2.0312 0 1.51565-.3125 2.4375-.29687.9219-.92187 1.4375-.60938.5-1.5625.5-1.23438 0-1.95313-.8906-.84375-1.0625-.84375-3.4844zm1.07812 0q0 2.1094.5 2.8125.5.70315 1.21876.70315.73437 0 1.21874-.70315.5-.7031.5-2.8125 0-2.125-.5-2.8125-.48437-.7031-1.23437-.7031-.71875 0-1.15625.6094-.54688.7812-.54688 2.9062zm5.92188 0q0-1.5312.3125-2.4531.3125-.9375.92188-1.4375.625-.5 1.5625-.5.6875 0 1.20312.28125.53125.28125.875.8125.34375.51565.53125 1.26565.1875.75.1875 2.0312 0 1.51565-.3125 2.4375-.29687.9219-.92187 1.4375-.60938.5-1.5625.5-1.23438 0-1.95313-.8906-.84375-1.0625-.84375-3.4844zm1.07812 0q0 2.1094.5 2.8125.5.70315 1.21876.70315.73437 0 1.21874-.70315.5-.7031.5-2.8125 0-2.125-.5-2.8125-.48437-.7031-1.23437-.7031-.71875 0-1.15625.6094-.54688.7812-.54688 2.9062zm6.51563 4.2344v-1.2031h1.20313v1.2031zm2.40625-4.2344q0-1.5312.3125-2.4531.3125-.9375.92188-1.4375.625-.5 1.5625-.5.6875 0 1.20312.28125.53125.28125.875.8125.34375.51565.53125 1.26565.1875.75.1875 2.0312 0 1.51565-.3125 2.4375-.29687.9219-.92187 1.4375-.60938.5-1.5625.5-1.23438 0-1.95313-.8906-.84375-1.0625-.84375-3.4844zm1.07812 0q0 2.1094.5 2.8125.5.70315 1.21876.70315.73437 0 1.21874-.70315.5-.7031.5-2.8125 0-2.125-.5-2.8125-.48437-.7031-1.23437-.7031-.71875 0-1.15625.6094-.54688.7812-.54688 2.9062zm5.92188 0q0-1.5312.3125-2.4531.3125-.9375.92188-1.4375.625-.5 1.5625-.5.6875 0 1.20312.28125.53125.28125.875.8125.34375.51565.53125 1.26565.1875.75.1875 2.0312 0 1.51565-.3125 2.4375-.29687.9219-.92187 1.4375-.60938.5-1.5625.5-1.23438 0-1.95313-.8906-.84375-1.0625-.84375-3.4844zm1.07812 0q0 2.1094.5 2.8125.5.70315 1.21876.70315.73437 0 1.21874-.70315.5-.7031.5-2.8125 0-2.125-.5-2.8125-.48437-.7031-1.23437-.7031-.71875 0-1.15625.6094-.54688.7812-.54688 2.9062zm5.92188 0q0-1.5312.3125-2.4531.3125-.9375.92188-1.4375.625-.5 1.5625-.5.6875 0 1.20312.28125.53125.28125.875.8125.34375.51565.53125 1.26565.1875.75.1875 2.0312 0 1.51565-.3125 2.4375-.29687.9219-.92187 1.4375-.60938.5-1.5625.5-1.23438 0-1.95313-.8906-.84375-1.0625-.84375-3.4844zm1.07812 0q0 2.1094.5 2.8125.5.70315 1.21876.70315.73437 0 1.21874-.70315.5-.7031.5-2.8125 0-2.125-.5-2.8125-.48437-.7031-1.23437-.7031-.71875 0-1.15625.6094-.54688.7812-.54688 2.9062zm6.51563 4.2344v-1.2031h1.20313v1.2031zm2.40625-4.2344q0-1.5312.3125-2.4531.3125-.9375.92188-1.4375.625-.5 1.5625-.5.6875 0 1.20312.28125.53125.28125.875.8125.34375.51565.53125 1.26565.1875.75.1875 2.0312 0 1.51565-.3125 2.4375-.29687.9219-.92187 1.4375-.60938.5-1.5625.5-1.23438 0-1.95313-.8906-.84375-1.0625-.84375-3.4844zm1.07812 0q0 2.1094.5 2.8125.5.70315 1.21876.70315.73437 0 1.21874-.70315.5-.7031.5-2.8125 0-2.125-.5-2.8125-.48437-.7031-1.23437-.7031-.71875 0-1.15625.6094-.54688.7812-.54688 2.9062zm5.92188 0q0-1.5312.3125-2.4531.3125-.9375.92188-1.4375.625-.5 1.5625-.5.6875 0 1.20312.28125.53125.28125.875.8125.34375.51565.53125 1.26565.1875.75.1875 2.0312 0 1.51565-.3125 2.4375-.29687.9219-.92187 1.4375-.60938.5-1.5625.5-1.23438 0-1.95313-.8906-.84375-1.0625-.84375-3.4844zm1.07812 0q0 2.1094.5 2.8125.5.70315 1.21876.70315.73437 0 1.21874-.70315.5-.7031.5-2.8125 0-2.125-.5-2.8125-.48437-.7031-1.23437-.7031-.71875 0-1.15625.6094-.54688.7812-.54688 2.9062zm5.92188 0q0-1.5312.3125-2.4531.3125-.9375.92188-1.4375.625-.5 1.5625-.5.6875 0 1.20312.28125.53125.28125.875.8125.34375.51565.53125 1.26565.1875.75.1875 2.0312 0 1.51565-.3125 2.4375-.29687.9219-.92187 1.4375-.60938.5-1.5625.5-1.23438 0-1.95313-.8906-.84375-1.0625-.84375-3.4844zm1.07812 0q0 2.1094.5 2.8125.5.70315 1.21876.70315.73437 0 1.21874-.70315.5-.7031.5-2.8125 0-2.125-.5-2.8125-.48437-.7031-1.23437-.7031-.71875 0-1.15625.6094-.54688.7812-.54688 2.9062z"/>
    <path d="m590.96875 542.25h-1.04685v-6.71875q-.39065.35935-1.01565.73435-.60935.3594-1.09375.5313v-1.01565q.875-.42185 1.53125-1 .67185-.59375.95315-1.15625h.67185zm3.625 0v-1.2031h1.20315v1.2031zm2.40625-4.2344q0-1.5312.3125-2.4531.3125-.9375.9219-1.4375.625-.5 1.5625-.5.6875 0 1.2031.28125.53125.28125.875.8125.34375.51565.53125 1.26565.1875.75.1875 2.0312 0 1.51565-.3125 2.4375-.29685.9219-.92185 1.4375-.6094.5-1.5625.5-1.2344 0-1.95315-.8906-.84375-1.0625-.84375-3.4844zm1.0781 0q0 2.1094.5 2.8125.5.70315 1.2188.70315.73435 0 1.2187-.70315.5-.7031.5-2.8125 0-2.125-.5-2.8125-.48435-.7031-1.23435-.7031-.71875 0-1.15625.6094-.5469.7812-.5469 2.9062zm5.9219 0q0-1.5312.3125-2.4531.3125-.9375.9219-1.4375.625-.5 1.5625-.5.6875 0 1.2031.28125.53125.28125.875.8125.34375.51565.53125 1.26565.1875.75.1875 2.0312 0 1.51565-.3125 2.4375-.29685.9219-.92185 1.4375-.6094.5-1.5625.5-1.2344 0-1.95315-.8906-.84375-1.0625-.84375-3.4844zm1.0781 0q0 2.1094.5 2.8125.5.70315 1.2188.70315.73435 0 1.2187-.70315.5-.7031.5-2.8125 0-2.125-.5-2.8125-.48435-.7031-1.23435-.7031-.71875 0-1.15625.6094-.5469.7812-.5469 2.9062zm5.9219 0q0-1.5312.3125-2.4531.3125-.9375.9219-1.4375.625-.5 1.5625-.5.6875 0 1.2031.28125.53125.28125.875.8125.34375.51565.53125 1.26565.1875.75.1875 2.0312 0 1.51565-.3125 2.4375-.29685.9219-.92185 1.4375-.6094.5-1.5625.5-1.2344 0-1.95315-.8906-.84375-1.0625-.84375-3.4844zm1.0781 0q0 2.1094.5 2.8125.5.70315 1.2188.70315.73435 0 1.2187-.70315.5-.7031.5-2.8125 0-2.125-.5-2.8125-.48435-.7031-1.23435-.7031-.71875 0-1.15625.6094-.5469.7812-.5469 2.9062zm6.51565 4.2344v-1.2031h1.20315v1.2031zm2.40625-4.2344q0-1.5312.3125-2.4531.3125-.9375.9219-1.4375.625-.5 1.5625-.5.6875 0 1.2031.28125.53125.28125.875.8125.34375.51565.53125 1.26565.1875.75.1875 2.0312 0 1.51565-.3125 2.4375-.29685.9219-.92185 1.4375-.6094.5-1.5625.5-1.2344 0-1.95315-.8906-.84375-1.0625-.84375-3.4844zm1.0781 0q0 2.1094.5 2.8125.5.70315 1.2188.70315.73435 0 1.2187-.70315.5-.7031.5-2.8125 0-2.125-.5-2.8125-.48435-.7031-1.23435-.7031-.71875 0-1.15625.6094-.5469.7812-.5469 2.9062zm5.9219 0q0-1.5312.3125-2.4531.3125-.9375.9219-1.4375.625-.5 1.5625-.5.6875 0 1.2031.28125.53125.28125.875.8125.34375.51565.53125 1.26565.1875.75.1875 2.0312 0 1.51565-.3125 2.4375-.29685.9219-.92185 1.4375-.6094.5-1.5625.5-1.2344 0-1.95315-.8906-.84375-1.0625-.84375-3.4844zm1.0781 0q0 2.1094.5 2.8125.5.70315 1.2188.70315.73435 0 1.2187-.70315.5-.7031.5-2.8125 0-2.125-.5-2.8125-.48435-.7031-1.23435-.7031-.71875 0-1.15625.6094-.5469.7812-.5469 2.9062zm5.9219 0q0-1.5312.3125-2.4531.3125-.9375.9219-1.4375.625-.5 1.5625-.5.6875 0 1.2031.28125.53125.28125.875.8125.34375.51565.53125 1.26565.1875.75.1875 2.0312 0 1.51565-.3125 2.4375-.29685.9219-.92185 1.4375-.6094.5-1.5625.5-1.2344 0-1.95315-.8906-.84375-1.0625-.84375-3.4844zm1.0781 0q0 2.1094.5 2.8125.5.70315 1.2188.70315.73435 0 1.2187-.70315.5-.7031.5-2.8125 0-2.125-.5-2.8125-.48435-.7031-1.23435-.7031-.71875 0-1.15625.6094-.5469.7812-.5469 2.9062zm6.51565 4.2344v-1.2031h1.20315v1.2031zm2.40625-4.2344q0-1.5312.3125-2.4531.3125-.9375.9219-1.4375.625-.5 1.5625-.5.6875 0 1.2031.28125.53125.28125.875.8125.34375.51565.53125 1.26565.1875.75.1875 2.0312 0 1.51565-.3125 2.4375-.29685.9219-.92185 1.4375-.6094.5-1.5625.5-1.2344 0-1.95315-.8906-.84375-1.0625-.84375-3.4844zm1.0781 0q0 2.1094.5 2.8125.5.70315 1.2188.70315.73435 0 1.2187-.70315.5-.7031.5-2.8125 0-2.125-.5-2.8125-.48435-.7031-1.23435-.7031-.71875 0-1.15625.6094-.5469.7812-.5469 2.9062zm5.9219 0q0-1.5312.3125-2.4531.3125-.9375.9219-1.4375.625-.5 1.5625-.5.6875 0 1.2031.28125.53125.28125.875.8125.34375.51565.53125 1.26565.1875.75.1875 2.0312 0 1.51565-.3125 2.4375-.29685.9219-.92185 1.4375-.6094.5-1.5625.5-1.2344 0-1.95315-.8906-.84375-1.0625-.84375-3.4844zm1.0781 0q0 2.1094.5 2.8125.5.70315 1.2188.70315.73435 0 1.2187-.70315.5-.7031.5-2.8125 0-2.125-.5-2.8125-.48435-.7031-1.23435-.7031-.71875 0-1.15625.6094-.5469.7812-.5469 2.9062zm5.9219 0q0-1.5312.3125-2.4531.3125-.9375.9219-1.4375.625-.5 1.5625-.5.6875 0 1.2031.28125.53125.28125.875.8125.34375.51565.53125 1.26565.1875.75.1875 2.0312 0 1.51565-.3125 2.4375-.29685.9219-.92185 1.4375-.6094.5-1.5625.5-1.2344 0-1.95315-.8906-.84375-1.0625-.84375-3.4844zm1.0781 0q0 2.1094.5 2.8125.5.70315 1.2188.70315.73435 0 1.2187-.70315.5-.7031.5-2.8125 0-2.125-.5-2.8125-.48435-.7031-1.23435-.7031-.71875 0-1.15625.6094-.5469.7812-.5469 2.9062z"/>
    <path d="m927.0469 541.2344v1.0156h-5.6875q0-.375.125-.7344.2187-.5781.6875-1.1406.48435-.5625 1.3906-1.2969 1.40625-1.1562 1.8906-1.8281.5-.6719.5-1.2656 0-.625-.4531-1.0469-.4531-.4375-1.1719-.4375-.7656 0-1.2187.4531-.45315.45315-.4688 1.26565l-1.0781-.10935q.1094-1.2188.8281-1.8438.7344-.6406 1.9688-.6406 1.23435 0 1.9531.6875.71875.6875.71875 1.7031 0 .51565-.21875 1.01565-.2031.48435-.7031 1.04685-.4844.5469-1.6094 1.5-.9531.7969-1.2344 1.0938-.2656.2812-.4375.5625zm2.04685 1.0156v-1.2031h1.20315v1.2031zm2.40625-4.2344q0-1.5312.3125-2.4531.3125-.9375.9219-1.4375.625-.5 1.5625-.5.6875 0 1.2031.28125.53125.28125.875.8125.34375.51565.53125 1.26565.1875.75.1875 2.0312 0 1.51565-.3125 2.4375-.29685.9219-.92185 1.4375-.6094.5-1.5625.5-1.2344 0-1.95315-.8906-.84375-1.0625-.84375-3.4844zm1.0781 0q0 2.1094.5 2.8125.5.70315 1.2188.70315.73435 0 1.2187-.70315.5-.7031.5-2.8125 0-2.125-.5-2.8125-.48435-.7031-1.23435-.7031-.71875 0-1.15625.6094-.5469.7812-.5469 2.9062zm5.9219 0q0-1.5312.3125-2.4531.3125-.9375.9219-1.4375.625-.5 1.5625-.5.6875 0 1.2031.28125.53125.28125.875.8125.34375.51565.53125 1.26565.1875.75.1875 2.0312 0 1.51565-.3125 2.4375-.29685.9219-.92185 1.4375-.6094.5-1.5625.5-1.2344 0-1.95315-.8906-.84375-1.0625-.84375-3.4844zm1.0781 0q0 2.1094.5 2.8125.5.70315 1.2188.70315.73435 0 1.2187-.70315.5-.7031.5-2.8125 0-2.125-.5-2.8125-.48435-.7031-1.23435-.7031-.71875 0-1.15625.6094-.5469.7812-.5469 2.9062zm5.9219 0q0-1.5312.3125-2.4531.3125-.9375.9219-1.4375.625-.5 1.5625-.5.6875 0 1.2031.28125.53125.28125.875.8125.34375.51565.53125 1.26565.1875.75.1875 2.0312 0 1.51565-.3125 2.4375-.29685.9219-.92185 1.4375-.6094.5-1.5625.5-1.2344 0-1.95315-.8906-.84375-1.0625-.84375-3.4844zm1.0781 0q0 2.1094.5 2.8125.5.70315 1.2188.70315.73435 0 1.2187-.70315.5-.7031.5-2.8125 0-2.125-.5-2.8125-.48435-.7031-1.23435-.7031-.71875 0-1.15625.6094-.5469.7812-.5469 2.9062zm6.51565 4.2344v-1.2031h1.20315v1.2031zm2.40625-4.2344q0-1.5312.3125-2.4531.3125-.9375.9219-1.4375.625-.5 1.5625-.5.6875 0 1.2031.28125.53125.28125.875.8125.34375.51565.53125 1.26565.1875.75.1875 2.0312 0 1.51565-.3125 2.4375-.29685.9219-.92185 1.4375-.6094.5-1.5625.5-1.2344 0-1.95315-.8906-.84375-1.0625-.84375-3.4844zm1.0781 0q0 2.1094.5 2.8125.5.70315 1.2188.70315.73435 0 1.2187-.70315.5-.7031.5-2.8125 0-2.125-.5-2.8125-.48435-.7031-1.23435-.7031-.71875 0-1.15625.6094-.5469.7812-.5469 2.9062zm5.9219 0q0-1.5312.3125-2.4531.3125-.9375.9219-1.4375.625-.5 1.5625-.5.6875 0 1.2031.28125.53125.28125.875.8125.34375.51565.53125 1.26565.1875.75.1875 2.0312 0 1.51565-.3125 2.4375-.29685.9219-.92185 1.4375-.6094.5-1.5625.5-1.2344 0-1.95315-.8906-.84375-1.0625-.84375-3.4844zm1.0781 0q0 2.1094.5 2.8125.5.70315 1.2188.70315.73435 0 1.2187-.70315.5-.7031.5-2.8125 0-2.125-.5-2.8125-.48435-.7031-1.23435-.7031-.71875 0-1.15625.6094-.5469.7812-.5469 2.9062zm5.9219 0q0-1.5312.3125-2.4531.3125-.9375.9219-1.4375.625-.5 1.5625-.5.6875 0 1.2031.28125.53125.28125.875.8125.34375.51565.53125 1.26565.1875.75.1875 2.0312 0 1.51565-.3125 2.4375-.29685.9219-.92185 1.4375-.6094.5-1.5625.5-1.2344 0-1.95315-.8906-.84375-1.0625-.84375-3.4844zm1.0781 0q0 2.1094.5 2.8125.5.70315 1.2188.70315.73435 0 1.2187-.70315.5-.7031.5-2.8125 0-2.125-.5-2.8125-.48435-.7031-1.23435-.7031-.71875 0-1.15625.6094-.5469.7812-.5469 2.9062zm6.51565 4.2344v-1.2031h1.20315v1.2031zm2.40625-4.2344q0-1.5312.3125-2.4531.3125-.9375.9219-1.4375.625-.5 1.5625-.5.6875 0 1.2031.28125.53125.28125.875.8125.34375.51565.53125 1.26565.1875.75.1875 2.0312 0 1.51565-.3125 2.4375-.29685.9219-.92185 1.4375-.6094.5-1.5625.5-1.2344 0-1.95315-.8906-.84375-1.0625-.84375-3.4844zm1.0781 0q0 2.1094.5 2.8125.5.70315 1.2188.70315.73435 0 1.2187-.70315.5-.7031.5-2.8125 0-2.125-.5-2.8125-.48435-.7031-1.23435-.7031-.71875 0-1.15625.6094-.5469.7812-.5469 2.9062zm5.9219 0q0-1.5312.3125-2.4531.3125-.9375.9219-1.4375.625-.5 1.5625-.5.6875 0 1.2031.28125.53125.28125.875.8125.34375.51565.53125 1.26565.1875.75.1875 2.0312 0 1.51565-.3125 2.4375-.29685.9219-.92185 1.4375-.6094.5-1.5625.5-1.2344 0-1.95315-.8906-.84375-1.0625-.84375-3.4844zm1.0781 0q0 2.1094.5 2.8125.5.70315 1.2188.70315.73435 0 1.2187-.70315.5-.7031.5-2.8125 0-2.125-.5-2.8125-.48435-.7031-1.23435-.7031-.71875 0-1.15625.6094-.5469.7812-.5469 2.9062zm5.9219 0q0-1.5312.3125-2.4531.3125-.9375.9219-1.4375.625-.5 1.5625-.5.6875 0 1.2031.28125.53125.28125.875.8125.34375.51565.53125 1.26565.1875.75.1875 2.0312 0 1.51565-.3125 2.4375-.29685.9219-.92185 1.4375-.6094.5-1.5625.5-1.2344 0-1.95315-.8906-.84375-1.0625-.84375-3.4844zm1.0781 0q0 2.1094.5 2.8125.5.70315 1.2188.70315.73435 0 1.2187-.70315.5-.7031.5-2.8125 0-2.125-.5-2.8125-.48435-.7031-1.23435-.7031-.71875 0-1.15625.6094-.5469.7812-.5469 2.9062z"/>
  </g>
  <path d="m375.5 605.75c0 3.3137-2.68628 6-6 6s-6-2.6863-6-6 2.68628-6 6-6 6 2.6863 6 6z" fill="#4285f4"/>
  <path d="m386.60938 609.75v-7.5781h-2.82813v-1.01565h6.8125v1.01565h-2.84375v7.5781zm4.6875-7.375v-1.21875h1.0625v1.21875zm0 7.375v-6.21875h1.0625v6.21875zm3 0v-6.21875h.9375v.875q.29687-.46875.78124-.73435.48438-.2813 1.10938-.2813.6875 0 1.125.2813.45312.2812.625.79685.75-1.07815 1.92188-1.07815.9375 0 1.42187.51565.5.5.5 1.57815v4.2656h-1.04687v-3.9219q0-.625-.10938-.9062-.09375-.2813-.35938-.45315-.26562-.17185-.64062-.17185-.65625 0-1.09375.4375-.42187.4375-.42187 1.4062v3.6094h-1.0625v-4.0469q0-.7031-.26563-1.04685-.25-.35935-.82813-.35935-.45312 0-.82812.23435-.375.23435-.54688.6875-.17187.45315-.17187 1.29685v3.2344zm14.25-2 1.09374.125q-.25.9531-.95312 1.4844-.70312.5312-1.78125.5312-1.35937 0-2.17187-.8437-.79688-.8438-.79688-2.3594 0-1.5625.8125-2.4219.8125-.875 2.09375-.875 1.25 0 2.03125.8438.79688.8437.79688 2.3906 0 .09375 0 .28125h-4.64063q.0625 1.03125.57813 1.57815.51562.5312 1.29687.5312.57813 0 .98437-.29685.42188-.3125.65626-.96875zm-3.45313-1.7031h3.46875q-.0625-.7969-.39062-1.1875-.51563-.6094-1.3125-.6094-.73438 0-1.23438.4844-.48438.48435-.53125 1.3125zm9.45313 3.7031v-5.40625h-.9375v-.8125h.9375v-.67185q0-.625.10937-.9219.15625-.4219.53125-.6719.39062-.25 1.07812-.25.45313 0 .98438.1094l-.15625.90625q-.32813-.04685-.625-.04685-.48437 0-.6875.2031-.1875.2031-.1875.7656v.57815h1.21875v.8125h-1.21875v5.40625zm2.35937-3.1094q0-1.73435.95313-2.5625.79687-.6875 1.95312-.6875 1.28125 0 2.09375.8438.82813.8281.82813 2.3125 0 1.2031-.35938 1.8906-.35938.6875-1.0625 1.0781-.6875.375-1.5.375-1.29688 0-2.10938-.8281-.79687-.84375-.79687-2.4219zm1.07813 0q0 1.1875.51562 1.7813.53125.5937 1.3125.5937.79688 0 1.3125-.5937.51562-.5938.51562-1.8125 0-1.1563-.53124-1.75-.51563-.5938-1.29688-.5938-.78125 0-1.3125.5938-.51562.5781-.51562 1.7812zm6.29687 3.1094v-6.21875h.95313v.9375q.35937-.65625.65624-.85935.3125-.2188.6875-.2188.53126 0 1.07813.32815l-.35937.98435q-.39063-.23435-.76563-.23435-.35937 0-.64063.21875-.26562.2031-.375.5781-.1875.5625-.1875 1.2188v3.2656zm8.34375-4.65625q-.65625-.25-.98438-.6875-.3125-.45315-.3125-1.0625 0-.9375.67188-1.57815.6875-.6406 1.79688-.6406 1.125 0 1.8125.65625.6875.65625.6875 1.59375 0 .59375-.3125 1.03125-.3125.4375-.95313.6875.79687.25 1.20313.82815.40624.5781.40624 1.375 0 1.0937-.78124 1.8437-.76563.75-2.04688.75-1.26562 0-2.04688-.75-.78124-.75-.78124-1.875 0-.8437.42187-1.4062.4375-.5625 1.21875-.76565zm-.21875-1.79685q0 .60935.39063 1 .40624.3906 1.03124.3906.60938 0 1-.375.39063-.3906.39063-.9531 0-.57815-.40625-.9688-.40625-.4062-1-.4062-.60938 0-1.01562.3906-.39063.3906-.39063.9219zm-.32813 3.9687q0 .45315.20313.875.21875.4219.64063.6563.42187.23435.90624.23435.75 0 1.23438-.48435.5-.4844.5-1.2344 0-.7656-.5-1.2656-.5-.5-1.26562-.5-.75 0-1.23438.5-.48438.48435-.48438 1.2187zm8.79688.625 1.03125-.1562q.09375.625.48437.9531.40626.3281 1.14063.3281.71875 0 1.0625-.2812.35937-.2969.35937-.70315 0-.35935-.3125-.5625-.21874-.14065-1.07812-.35935-1.15625-.2969-1.60938-.5-.4375-.2188-.67187-.5938-.23437-.375-.23437-.8437 0-.4063.1875-.76565.1875-.35935.51562-.59375.25-.1719.67188-.2969.42187-.125.92187-.125.71875 0 1.26563.2188.5625.2031.82812.5625.26562.35935.35938.9531l-1.03126.1406q-.0625-.4687-.40624-.73435-.32813-.28125-.95313-.28125-.71875 0-1.03125.25-.3125.2344-.3125.5625 0 .2031.125.3594.14062.17185.40625.2812.15625.0625.9375.26565 1.125.3125 1.5625.5.4375.1875.6875.54685.25.3594.25.9063 0 .5312-.3125 1-.29687.4531-.875.7187-.57813.25-1.3125.25-1.21875 0-1.85937-.5-.625-.5156-.79688-1.5zm6.39062 1.8594v-8.59375h1.0625v8.59375zm2.64063-3.1094q0-1.73435.95313-2.5625.79687-.6875 1.95312-.6875 1.28125 0 2.09375.8438.82813.8281.82813 2.3125 0 1.2031-.35938 1.8906-.35938.6875-1.0625 1.0781-.6875.375-1.5.375-1.29688 0-2.10938-.8281-.79687-.84375-.79687-2.4219zm1.07813 0q0 1.1875.51562 1.7813.53125.5937 1.3125.5937.79688 0 1.3125-.5937.51562-.5938.51562-1.8125 0-1.1563-.53124-1.75-.51563-.5938-1.29688-.5938-.78125 0-1.3125.5938-.51562.5781-.51562 1.7812zm8.60937 2.1719.15625.9219q-.45312.0937-.79688.0937-.57812 0-.89062-.17185-.3125-.1875-.45312-.48435-.125-.2969-.125-1.25v-3.57815h-.76563v-.8125h.76563v-1.54685l1.04687-.625v2.17185h1.0625v.8125h-1.0625v3.64065q0 .4531.04687.5781.0625.125.1875.2031.125.07815.35938.07815.1875 0 .46875-.03125zm.28125-.9219 1.03125-.1562q.09375.625.48437.9531.40626.3281 1.14063.3281.71875 0 1.0625-.2812.35937-.2969.35937-.70315 0-.35935-.3125-.5625-.21874-.14065-1.07812-.35935-1.15625-.2969-1.60938-.5-.4375-.2188-.67187-.5938-.23437-.375-.23437-.8437 0-.4063.1875-.76565.1875-.35935.51562-.59375.25-.1719.67188-.2969.42187-.125.92187-.125.71875 0 1.26563.2188.5625.2031.82812.5625.26562.35935.35938.9531l-1.03126.1406q-.0625-.4687-.40624-.73435-.32813-.28125-.95313-.28125-.71875 0-1.03125.25-.3125.2344-.3125.5625 0 .2031.125.3594.14062.17185.40625.2812.15625.0625.9375.26565 1.125.3125 1.5625.5.4375.1875.6875.54685.25.3594.25.9063 0 .5312-.3125 1-.29687.4531-.875.7187-.57813.25-1.3125.25-1.21875 0-1.85937-.5-.625-.5156-.79688-1.5zm11.4375 4.39065q-.875-1.10935-1.48438-2.57815-.59374-1.48435-.59374-3.0625 0-1.3906.4375-2.67185.53124-1.48435 1.64062-2.95315h.75q-.70312 1.2188-.9375 1.7344-.35938.8125-.5625 1.6875-.25 1.09375-.25 2.2031 0 2.82815 1.75 5.64065zm1.98438-2.53125v-6.21875h.9375v.875q.29687-.46875.78124-.73435.48438-.2813 1.10938-.2813.6875 0 1.125.2813.45312.2812.625.79685.75-1.07815 1.92188-1.07815.9375 0 1.42187.51565.5.5.5 1.57815v4.2656h-1.04687v-3.9219q0-.625-.10938-.9062-.09375-.2813-.35938-.45315-.26562-.17185-.64062-.17185-.65625 0-1.09375.4375-.42187.4375-.42187 1.4062v3.6094h-1.0625v-4.0469q0-.7031-.26563-1.04685-.25-.35935-.82813-.35935-.45312 0-.82812.23435-.375.23435-.54688.6875-.17187.45315-.17187 1.29685v3.2344zm9.57812-1.8594 1.03125-.1562q.09375.625.48437.9531.40626.3281 1.14063.3281.71875 0 1.0625-.2812.35937-.2969.35937-.70315 0-.35935-.3125-.5625-.21874-.14065-1.07812-.35935-1.15625-.2969-1.60938-.5-.4375-.2188-.67187-.5938-.23437-.375-.23437-.8437 0-.4063.1875-.76565.1875-.35935.51562-.59375.25-.1719.67188-.2969.42187-.125.92187-.125.71875 0 1.26563.2188.5625.2031.82812.5625.26562.35935.35938.9531l-1.03126.1406q-.0625-.4687-.40624-.73435-.32813-.28125-.95313-.28125-.71875 0-1.03125.25-.3125.2344-.3125.5625 0 .2031.125.3594.14062.17185.40625.2812.15625.0625.9375.26565 1.125.3125 1.5625.5.4375.1875.6875.54685.25.3594.25.9063 0 .5312-.3125 1-.29687.4531-.875.7187-.57813.25-1.3125.25-1.21875 0-1.85937-.5-.625-.5156-.79688-1.5zm7.10938 4.39065h-.75q1.75-2.8125 1.75-5.64065 0-1.0937-.25-2.1875-.20313-.875-.5625-1.6875-.23438-.5156-.9375-1.75h.75q1.09374 1.4688 1.625 2.95315.45312 1.28125.45312 2.67185 0 1.57815-.60938 3.0625-.60937 1.4688-1.46874 2.57815z" fill="#595959"/>
  <path d="m520.5 605.75c0 3.3137-2.6863 6-6 6-3.31372 0-6-2.6863-6-6s2.68628-6 6-6c3.3137 0 6 2.6863 6 6z" fill="#ea4335"/>
  <path d="m531.6094 609.75v-7.5781h-2.82815v-1.01565h6.8125v1.01565h-2.84375v7.5781zm4.6875-7.375v-1.21875h1.0625v1.21875zm0 7.375v-6.21875h1.0625v6.21875zm3 0v-6.21875h.9375v.875q.29685-.46875.7812-.73435.4844-.2813 1.1094-.2813.6875 0 1.125.2813.4531.2812.625.79685.75-1.07815 1.9219-1.07815.9375 0 1.42185.51565.5.5.5 1.57815v4.2656h-1.04685v-3.9219q0-.625-.1094-.9062-.09375-.2813-.3594-.45315-.2656-.17185-.6406-.17185-.65625 0-1.09375.4375-.42185.4375-.42185 1.4062v3.6094h-1.0625v-4.0469q0-.7031-.26565-1.04685-.25-.35935-.82815-.35935-.4531 0-.8281.23435-.375.23435-.5469.6875-.17185.45315-.17185 1.29685v3.2344zm14.25-2 1.0937.125q-.25.9531-.9531 1.4844-.7031.5312-1.78125.5312-1.35935 0-2.17185-.8437-.7969-.8438-.7969-2.3594 0-1.5625.8125-2.4219.8125-.875 2.09375-.875 1.25 0 2.03125.8438.7969.8437.7969 2.3906 0 .09375 0 .28125h-4.64065q.0625 1.03125.57815 1.57815.5156.5312 1.29685.5312.57815 0 .98435-.29685.4219-.3125.6563-.96875zm-3.45315-1.7031h3.46875q-.0625-.7969-.3906-1.1875-.51565-.6094-1.3125-.6094-.7344 0-1.2344.4844-.4844.48435-.53125 1.3125zm9.45315 3.7031v-5.40625h-.9375v-.8125h.9375v-.67185q0-.625.10935-.9219.15625-.4219.53125-.6719.3906-.25 1.0781-.25.45315 0 .9844.1094l-.15625.90625q-.32815-.04685-.625-.04685-.48435 0-.6875.2031-.1875.2031-.1875.7656v.57815h1.21875v.8125h-1.21875v5.40625zm2.35935-3.1094q0-1.73435.95315-2.5625.79685-.6875 1.9531-.6875 1.28125 0 2.09375.8438.82815.8281.82815 2.3125 0 1.2031-.3594 1.8906-.3594.6875-1.0625 1.0781-.6875.375-1.5.375-1.2969 0-2.1094-.8281-.79685-.84375-.79685-2.4219zm1.07815 0q0 1.1875.5156 1.7813.53125.5937 1.3125.5937.7969 0 1.3125-.5937.5156-.5938.5156-1.8125 0-1.1563-.5312-1.75-.51565-.5938-1.2969-.5938-.78125 0-1.3125.5938-.5156.5781-.5156 1.7812zm6.29685 3.1094v-6.21875h.95315v.9375q.35935-.65625.6562-.85935.3125-.2188.6875-.2188.5313 0 1.07815.32815l-.35935.98435q-.39065-.23435-.76565-.23435-.35935 0-.64065.21875-.2656.2031-.375.5781-.1875.5625-.1875 1.2188v3.2656zm10.6875 0h-1.04685v-6.71875q-.39065.35935-1.01565.73435-.60935.3594-1.09375.5313v-1.01565q.875-.42185 1.53125-1 .67185-.59375.95315-1.15625h.67185zm8.5-6.4844-1.04685.07815q-.14065-.625-.39065-.90625-.4375-.4531-1.0625-.4531-.5 0-.89065.2812-.48435.375-.7812 1.07815-.2813.6875-.2969 1.96875.375-.5781.9219-.8594.5625-.2812 1.17185-.2812 1.04685 0 1.78125.7812.75.7813.75 2 0 .8125-.3594 1.51565-.3437.6875-.9531 1.0625-.6094.35935-1.375.35935-1.3281 0-2.15625-.9687-.82815-.9688-.82815-3.1875 0-2.5.9219-3.625.7969-.9844 2.15625-.9844 1.01565 0 1.65625.5781.65625.5625.78125 1.5625zm-4.29685 3.70315q0 .54685.2187 1.04685.2344.4844.64065.75.42185.26565.89065.26565.6562 0 1.1406-.53125.4844-.5469.4844-1.46875 0-.89065-.4844-1.40625-.46875-.5156-1.1875-.5156-.71875 0-1.21875.5156-.48435.5156-.48435 1.34375zm8.7031.92185 1.03125-.1562q.09375.625.48435.9531.4063.3281 1.14065.3281.71875 0 1.0625-.2812.35935-.2969.35935-.70315 0-.35935-.3125-.5625-.2187-.14065-1.0781-.35935-1.15625-.2969-1.6094-.5-.4375-.2188-.67185-.5938-.23435-.375-.23435-.8437 0-.4063.1875-.76565.1875-.35935.5156-.59375.25-.1719.6719-.2969.42185-.125.92185-.125.71875 0 1.26565.2188.5625.2031.8281.5625.2656.35935.3594.9531l-1.0313.1406q-.0625-.4687-.4062-.73435-.32815-.28125-.95315-.28125-.71875 0-1.03125.25-.3125.2344-.3125.5625 0 .2031.125.3594.1406.17185.40625.2812.15625.0625.9375.26565 1.125.3125 1.5625.5.4375.1875.6875.54685.25.3594.25.9063 0 .5312-.3125 1-.29685.4531-.875.7187-.57815.25-1.3125.25-1.21875 0-1.85935-.5-.625-.5156-.7969-1.5zm6.3906 1.8594v-8.59375h1.0625v8.59375zm2.64065-3.1094q0-1.73435.95315-2.5625.79685-.6875 1.9531-.6875 1.28125 0 2.09375.8438.82815.8281.82815 2.3125 0 1.2031-.3594 1.8906-.3594.6875-1.0625 1.0781-.6875.375-1.5.375-1.2969 0-2.1094-.8281-.79685-.84375-.79685-2.4219zm1.07815 0q0 1.1875.5156 1.7813.53125.5937 1.3125.5937.7969 0 1.3125-.5937.5156-.5938.5156-1.8125 0-1.1563-.5312-1.75-.51565-.5938-1.2969-.5938-.78125 0-1.3125.5938-.5156.5781-.5156 1.7812zm8.60935 2.1719.15625.9219q-.4531.0937-.7969.0937-.5781 0-.8906-.17185-.3125-.1875-.4531-.48435-.125-.2969-.125-1.25v-3.57815h-.76565v-.8125h.76565v-1.54685l1.04685-.625v2.17185h1.0625v.8125h-1.0625v3.64065q0 .4531.04685.5781.0625.125.1875.2031.125.07815.3594.07815.1875 0 .46875-.03125zm.28125-.9219 1.03125-.1562q.09375.625.48435.9531.4063.3281 1.14065.3281.71875 0 1.0625-.2812.35935-.2969.35935-.70315 0-.35935-.3125-.5625-.2187-.14065-1.0781-.35935-1.15625-.2969-1.6094-.5-.4375-.2188-.67185-.5938-.23435-.375-.23435-.8437 0-.4063.1875-.76565.1875-.35935.5156-.59375.25-.1719.6719-.2969.42185-.125.92185-.125.71875 0 1.26565.2188.5625.2031.8281.5625.2656.35935.3594.9531l-1.0313.1406q-.0625-.4687-.4062-.73435-.32815-.28125-.95315-.28125-.71875 0-1.03125.25-.3125.2344-.3125.5625 0 .2031.125.3594.1406.17185.40625.2812.15625.0625.9375.26565 1.125.3125 1.5625.5.4375.1875.6875.54685.25.3594.25.9063 0 .5312-.3125 1-.29685.4531-.875.7187-.57815.25-1.3125.25-1.21875 0-1.85935-.5-.625-.5156-.7969-1.5zm11.4375 4.39065q-.875-1.10935-1.4844-2.57815-.5937-1.48435-.5937-3.0625 0-1.3906.4375-2.67185.5312-1.48435 1.6406-2.95315h.75q-.7031 1.2188-.9375 1.7344-.3594.8125-.5625 1.6875-.25 1.09375-.25 2.2031 0 2.82815 1.75 5.64065zm1.9844-2.53125v-6.21875h.9375v.875q.29685-.46875.7812-.73435.4844-.2813 1.1094-.2813.6875 0 1.125.2813.4531.2812.625.79685.75-1.07815 1.9219-1.07815.9375 0 1.42185.51565.5.5.5 1.57815v4.2656h-1.04685v-3.9219q0-.625-.1094-.9062-.09375-.2813-.3594-.45315-.2656-.17185-.6406-.17185-.65625 0-1.09375.4375-.42185.4375-.42185 1.4062v3.6094h-1.0625v-4.0469q0-.7031-.26565-1.04685-.25-.35935-.82815-.35935-.4531 0-.8281.23435-.375.23435-.5469.6875-.17185.45315-.17185 1.29685v3.2344zm9.5781-1.8594 1.03125-.1562q.09375.625.48435.9531.4063.3281 1.14065.3281.71875 0 1.0625-.2812.35935-.2969.35935-.70315 0-.35935-.3125-.5625-.2187-.14065-1.0781-.35935-1.15625-.2969-1.6094-.5-.4375-.2188-.67185-.5938-.23435-.375-.23435-.8437 0-.4063.1875-.76565.1875-.35935.5156-.59375.25-.1719.6719-.2969.42185-.125.92185-.125.71875 0 1.26565.2188.5625.2031.8281.5625.2656.35935.3594.9531l-1.0313.1406q-.0625-.4687-.4062-.73435-.32815-.28125-.95315-.28125-.71875 0-1.03125.25-.3125.2344-.3125.5625 0 .2031.125.3594.1406.17185.40625.2812.15625.0625.9375.26565 1.125.3125 1.5625.5.4375.1875.6875.54685.25.3594.25.9063 0 .5312-.3125 1-.29685.4531-.875.7187-.57815.25-1.3125.25-1.21875 0-1.85935-.5-.625-.5156-.7969-1.5zm7.1094 4.39065h-.75q1.75-2.8125 1.75-5.64065 0-1.0937-.25-2.1875-.20315-.875-.5625-1.6875-.2344-.5156-.9375-1.75h.75q1.0937 1.4688 1.625 2.95315.4531 1.28125.4531 2.67185 0 1.57815-.6094 3.0625-.60935 1.4688-1.4687 2.57815z" fill="#595959"/>
  <path d="m672.5 605.75c0 3.3137-2.6863 6-6 6s-6-2.6863-6-6 2.6863-6 6-6 6 2.6863 6 6z" fill="#fbbc04"/>
  <path d="m683.6094 609.75v-7.5781h-2.82815v-1.01565h6.8125v1.01565h-2.84375v7.5781zm4.6875-7.375v-1.21875h1.0625v1.21875zm0 7.375v-6.21875h1.0625v6.21875zm3 0v-6.21875h.9375v.875q.29685-.46875.7812-.73435.4844-.2813 1.1094-.2813.6875 0 1.125.2813.4531.2812.625.79685.75-1.07815 1.9219-1.07815.9375 0 1.42185.51565.5.5.5 1.57815v4.2656h-1.04685v-3.9219q0-.625-.1094-.9062-.09375-.2813-.3594-.45315-.2656-.17185-.6406-.17185-.65625 0-1.09375.4375-.42185.4375-.42185 1.4062v3.6094h-1.0625v-4.0469q0-.7031-.26565-1.04685-.25-.35935-.82815-.35935-.4531 0-.8281.23435-.375.23435-.5469.6875-.17185.45315-.17185 1.29685v3.2344zm14.25-2 1.0937.125q-.25.9531-.9531 1.4844-.7031.5312-1.78125.5312-1.35935 0-2.17185-.8437-.7969-.8438-.7969-2.3594 0-1.5625.8125-2.4219.8125-.875 2.09375-.875 1.25 0 2.03125.8438.7969.8437.7969 2.3906 0 .09375 0 .28125h-4.64065q.0625 1.03125.57815 1.57815.5156.5312 1.29685.5312.57815 0 .98435-.29685.4219-.3125.6563-.96875zm-3.45315-1.7031h3.46875q-.0625-.7969-.3906-1.1875-.51565-.6094-1.3125-.6094-.7344 0-1.2344.4844-.4844.48435-.53125 1.3125zm9.45315 3.7031v-5.40625h-.9375v-.8125h.9375v-.67185q0-.625.10935-.9219.15625-.4219.53125-.6719.3906-.25 1.0781-.25.45315 0 .9844.1094l-.15625.90625q-.32815-.04685-.625-.04685-.48435 0-.6875.2031-.1875.2031-.1875.7656v.57815h1.21875v.8125h-1.21875v5.40625zm2.35935-3.1094q0-1.73435.95315-2.5625.79685-.6875 1.9531-.6875 1.28125 0 2.09375.8438.82815.8281.82815 2.3125 0 1.2031-.3594 1.8906-.3594.6875-1.0625 1.0781-.6875.375-1.5.375-1.2969 0-2.1094-.8281-.79685-.84375-.79685-2.4219zm1.07815 0q0 1.1875.5156 1.7813.53125.5937 1.3125.5937.7969 0 1.3125-.5937.5156-.5938.5156-1.8125 0-1.1563-.5312-1.75-.51565-.5938-1.2969-.5938-.78125 0-1.3125.5938-.5156.5781-.5156 1.7812zm6.29685 3.1094v-6.21875h.95315v.9375q.35935-.65625.6562-.85935.3125-.2188.6875-.2188.5313 0 1.07815.32815l-.35935.98435q-.39065-.23435-.76565-.23435-.35935 0-.64065.21875-.2656.2031-.375.5781-.1875.5625-.1875 1.2188v3.2656zm6.71875-2.2656 1.0625-.14065q.1719.89065.6094 1.29685.4375.39065 1.0625.39065.75 0 1.2656-.51565.5156-.5156.5156-1.2812 0-.7188-.48435-1.1875-.46875-.4844-1.20315-.4844-.29685 0-.75.125l.125-.9375q.1094.0156.1719.0156.6719 0 1.2031-.3437.5469-.3594.5469-1.0938 0-.5781-.3906-.9531-.39065-.3906-1.01565-.3906-.60935 0-1.03125.3906-.40625.3906-.5156 1.15625l-1.0625-.1875q.1875-1.04685.875-1.625.6875-.59375 1.7031-.59375.7031 0 1.2969.3125.5937.2969.9062.8125.3125.5156.3125 1.1094 0 .54685-.29685 1.0156-.29685.4531-.875.71875.75.17185 1.17185.73435.4219.5469.4219 1.39065 0 1.125-.8281 1.90625-.8125.78125-2.0625.78125-1.125 0-1.875-.67185-.75-.6875-.8594-1.75zm12.5469 1.25v1.0156h-5.6875q0-.375.125-.7344.2187-.5781.6875-1.1406.48435-.5625 1.3906-1.2969 1.40625-1.1562 1.8906-1.8281.5-.6719.5-1.2656 0-.625-.4531-1.0469-.4531-.4375-1.1719-.4375-.7656 0-1.2187.4531-.45315.45315-.4688 1.26565l-1.0781-.10935q.1094-1.2188.8281-1.8438.7344-.6406 1.9688-.6406 1.23435 0 1.9531.6875.71875.6875.71875 1.7031 0 .51565-.21875 1.01565-.2031.48435-.7031 1.04685-.4844.5469-1.6094 1.5-.9531.7969-1.2344 1.0938-.2656.2812-.4375.5625zm4.3281-.8438 1.03125-.1562q.09375.625.48435.9531.4063.3281 1.14065.3281.71875 0 1.0625-.2812.35935-.2969.35935-.70315 0-.35935-.3125-.5625-.2187-.14065-1.0781-.35935-1.15625-.2969-1.6094-.5-.4375-.2188-.67185-.5938-.23435-.375-.23435-.8437 0-.4063.1875-.76565.1875-.35935.5156-.59375.25-.1719.6719-.2969.42185-.125.92185-.125.71875 0 1.26565.2188.5625.2031.8281.5625.2656.35935.3594.9531l-1.0313.1406q-.0625-.4687-.4062-.73435-.32815-.28125-.95315-.28125-.71875 0-1.03125.25-.3125.2344-.3125.5625 0 .2031.125.3594.1406.17185.40625.2812.15625.0625.9375.26565 1.125.3125 1.5625.5.4375.1875.6875.54685.25.3594.25.9063 0 .5312-.3125 1-.29685.4531-.875.7187-.57815.25-1.3125.25-1.21875 0-1.85935-.5-.625-.5156-.7969-1.5zm6.3906 1.8594v-8.59375h1.0625v8.59375zm2.64065-3.1094q0-1.73435.95315-2.5625.79685-.6875 1.9531-.6875 1.28125 0 2.09375.8438.82815.8281.82815 2.3125 0 1.2031-.3594 1.8906-.3594.6875-1.0625 1.0781-.6875.375-1.5.375-1.2969 0-2.1094-.8281-.79685-.84375-.79685-2.4219zm1.07815 0q0 1.1875.5156 1.7813.53125.5937 1.3125.5937.7969 0 1.3125-.5937.5156-.5938.5156-1.8125 0-1.1563-.5312-1.75-.51565-.5938-1.2969-.5938-.78125 0-1.3125.5938-.5156.5781-.5156 1.7812zm8.60935 2.1719.15625.9219q-.4531.0937-.7969.0937-.5781 0-.8906-.17185-.3125-.1875-.4531-.48435-.125-.2969-.125-1.25v-3.57815h-.76565v-.8125h.76565v-1.54685l1.04685-.625v2.17185h1.0625v.8125h-1.0625v3.64065q0 .4531.04685.5781.0625.125.1875.2031.125.07815.3594.07815.1875 0 .46875-.03125zm.28125-.9219 1.03125-.1562q.09375.625.48435.9531.4063.3281 1.14065.3281.71875 0 1.0625-.2812.35935-.2969.35935-.70315 0-.35935-.3125-.5625-.2187-.14065-1.0781-.35935-1.15625-.2969-1.6094-.5-.4375-.2188-.67185-.5938-.23435-.375-.23435-.8437 0-.4063.1875-.76565.1875-.35935.5156-.59375.25-.1719.6719-.2969.42185-.125.92185-.125.71875 0 1.26565.2188.5625.2031.8281.5625.2656.35935.3594.9531l-1.0313.1406q-.0625-.4687-.4062-.73435-.32815-.28125-.95315-.28125-.71875 0-1.03125.25-.3125.2344-.3125.5625 0 .2031.125.3594.1406.17185.40625.2812.15625.0625.9375.26565 1.125.3125 1.5625.5.4375.1875.6875.54685.25.3594.25.9063 0 .5312-.3125 1-.29685.4531-.875.7187-.57815.25-1.3125.25-1.21875 0-1.85935-.5-.625-.5156-.7969-1.5zm11.4375 4.39065q-.875-1.10935-1.4844-2.57815-.5937-1.48435-.5937-3.0625 0-1.3906.4375-2.67185.5312-1.48435 1.6406-2.95315h.75q-.7031 1.2188-.9375 1.7344-.3594.8125-.5625 1.6875-.25 1.09375-.25 2.2031 0 2.82815 1.75 5.64065zm1.9844-2.53125v-6.21875h.9375v.875q.29685-.46875.7812-.73435.4844-.2813 1.1094-.2813.6875 0 1.125.2813.4531.2812.625.79685.75-1.07815 1.9219-1.07815.9375 0 1.42185.51565.5.5.5 1.57815v4.2656h-1.04685v-3.9219q0-.625-.1094-.9062-.09375-.2813-.3594-.45315-.2656-.17185-.6406-.17185-.65625 0-1.09375.4375-.42185.4375-.42185 1.4062v3.6094h-1.0625v-4.0469q0-.7031-.26565-1.04685-.25-.35935-.82815-.35935-.4531 0-.8281.23435-.375.23435-.5469.6875-.17185.45315-.17185 1.29685v3.2344zm9.5781-1.8594 1.03125-.1562q.09375.625.48435.9531.4063.3281 1.14065.3281.71875 0 1.0625-.2812.35935-.2969.35935-.70315 0-.35935-.3125-.5625-.2187-.14065-1.0781-.35935-1.15625-.2969-1.6094-.5-.4375-.2188-.67185-.5938-.23435-.375-.23435-.8437 0-.4063.1875-.76565.1875-.35935.5156-.59375.25-.1719.6719-.2969.42185-.125.92185-.125.71875 0 1.26565.2188.5625.2031.8281.5625.2656.35935.3594.9531l-1.0313.1406q-.0625-.4687-.4062-.73435-.32815-.28125-.95315-.28125-.71875 0-1.03125.25-.3125.2344-.3125.5625 0 .2031.125.3594.1406.17185.40625.2812.15625.0625.9375.26565 1.125.3125 1.5625.5.4375.1875.6875.54685.25.3594.25.9063 0 .5312-.3125 1-.29685.4531-.875.7187-.57815.25-1.3125.25-1.21875 0-1.85935-.5-.625-.5156-.7969-1.5zm7.1094 4.39065h-.75q1.75-2.8125 1.75-5.64065 0-1.0937-.25-2.1875-.20315-.875-.5625-1.6875-.2344-.5156-.9375-1.75h.75q1.0937 1.4688 1.625 2.95315.4531 1.28125.4531 2.67185 0 1.57815-.6094 3.0625-.60935 1.4688-1.4687 2.57815z" fill="#595959"/>
</svg>
