<?xml version="1.0"?>
<svg xmlns="http://www.w3.org/2000/svg" xmlns:xlink="http://www.w3.org/1999/xlink" fill="none" height="645" stroke-linecap="square" stroke-miterlimit="10" viewBox="0 0 1160 645" width="1160">
  <clipPath id="a">
    <path d="m131.25 39.25h996.5v486h-996.5z"/>
  </clipPath>
  <path d="m0 0h1160v645h-1160z" fill="#f2f2f2"/>
  <g stroke-linecap="butt">
    <path d="m131.5 525.5h996" stroke="#262626"/>
    <path d="m131.5 363.5h996" stroke="#d9d9d9"/>
    <path d="m131.5 201.5h996" stroke="#d9d9d9"/>
    <path d="m131.5 39.5h996" stroke="#d9d9d9"/>
    <path d="m297.33334 486.56027v16" stroke="#e1e1e1"/>
    <path d="m629.5 467.58035v16" stroke="#e1e1e1"/>
    <path d="m961.6667 426.7272v16" stroke="#e1e1e1"/>
    <path d="m297.33334 504.25717v15.99997" stroke="#e1e1e1"/>
    <path d="m629.5 500.31085v16" stroke="#e1e1e1"/>
    <path d="m961.6667 490.21823v16" stroke="#e1e1e1"/>
    <path d="m297.33334 344.00027v16" stroke="#e1e1e1"/>
    <path d="m629.5 188.571v16" stroke="#e1e1e1"/>
    <path d="m961.6667 115.52196v16" stroke="#e1e1e1"/>
    <path clip-path="url(#a)" d="m297.33334 502.56027 332.16666-18.97992 332.1667-40.85315" stroke="#4285f4" stroke-width="2"/>
    <path clip-path="url(#a)" d="m297.33334 520.25714 332.16666-3.94629 332.1667-10.09262" stroke="#ea4335" stroke-width="2"/>
    <path clip-path="url(#a)" d="m297.33334 360.00027 332.16666-155.42927 332.1667-73.04904" stroke="#fbbc04" stroke-width="2"/>
  </g>
  <path clip-path="url(#a)" d="m300.83334 502.56027c0 1.93303-1.56701 3.5-3.5 3.5-1.93301 0-3.5-1.56697-3.5-3.5 0-1.93297 1.56699-3.5 3.5-3.5 1.93299 0 3.5 1.56703 3.5 3.5z" fill="#4285f4"/>
  <path clip-path="url(#a)" d="m633 483.58035c0 1.93302-1.567 3.5-3.5 3.5s-3.5-1.56698-3.5-3.5c0-1.93298 1.567-3.5 3.5-3.5s3.5 1.56702 3.5 3.5z" fill="#4285f4"/>
  <path clip-path="url(#a)" d="m965.1667 442.7272c0 1.933-1.567 3.5-3.5 3.5-1.93306 0-3.5-1.567-3.5-3.5s1.56694-3.5 3.5-3.5c1.933 0 3.5 1.567 3.5 3.5z" fill="#4285f4"/>
  <path clip-path="url(#a)" d="m300.83334 520.25714c0 1.93306-1.56701 3.5-3.5 3.5-1.93301 0-3.5-1.56694-3.5-3.5 0-1.93298 1.56699-3.5 3.5-3.5 1.93299 0 3.5 1.56702 3.5 3.5z" fill="#ea4335"/>
  <path clip-path="url(#a)" d="m633 516.31085c0 1.93299-1.567 3.5-3.5 3.5s-3.5-1.56701-3.5-3.5c0-1.93298 1.567-3.5 3.5-3.5s3.5 1.56702 3.5 3.5z" fill="#ea4335"/>
  <path clip-path="url(#a)" d="m965.1667 506.21823c0 1.93302-1.567 3.5-3.5 3.5-1.93306 0-3.5-1.56698-3.5-3.5 0-1.93298 1.56694-3.5 3.5-3.5 1.933 0 3.5 1.56702 3.5 3.5z" fill="#ea4335"/>
  <path clip-path="url(#a)" d="m300.83334 360.00027c0 1.93303-1.56701 3.5-3.5 3.5-1.93301 0-3.5-1.56697-3.5-3.5 0-1.93297 1.56699-3.5 3.5-3.5 1.93299 0 3.5 1.56703 3.5 3.5z" fill="#fbbc04"/>
  <path clip-path="url(#a)" d="m633 204.571c0 1.933-1.567 3.5-3.5 3.5s-3.5-1.567-3.5-3.5 1.567-3.5 3.5-3.5 3.5 1.567 3.5 3.5z" fill="#fbbc04"/>
  <path clip-path="url(#a)" d="m965.1667 131.52196c0 1.933-1.567 3.5-3.5 3.5-1.93306 0-3.5-1.567-3.5-3.5s1.56694-3.5 3.5-3.5c1.933 0 3.5 1.567 3.5 3.5z" fill="#fbbc04"/>
  <path d="m283.89584 477.09152v-1.01562h5.5625v.82812q-.8125.875-1.625 2.32813-.79687 1.4375-1.23437 2.96875-.32813 1.07812-.40625 2.35937h-1.09375q.01563-1.01562.39063-2.45312.39062-1.4375 1.09374-2.76563.71876-1.32812 1.53126-2.25zm6.9375 3.23438q0-1.53125.3125-2.45313.3125-.9375.92188-1.4375.625-.5 1.5625-.5.6875 0 1.20312.28125.53126.28125.875.8125.34376.51563.53126 1.26563.1875.75.1875 2.03125 0 1.51562-.3125 2.4375-.29688.92187-.92188 1.4375-.60938.5-1.5625.5-1.23438 0-1.95312-.89063-.84376-1.0625-.84376-3.48437zm1.07813 0q0 2.10937.5 2.8125.5.70312 1.21875.70312.73438 0 1.21875-.70312.5-.70313.5-2.8125 0-2.125-.5-2.8125-.48437-.70313-1.23437-.70313-.71876 0-1.15626.60938-.54687.78125-.54687 2.90625zm5.92187 0q0-1.53125.3125-2.45313.3125-.9375.92188-1.4375.625-.5 1.5625-.5.6875 0 1.20312.28125.53126.28125.875.8125.34376.51563.53126 1.26563.1875.75.1875 2.03125 0 1.51562-.3125 2.4375-.29688.92187-.92188 1.4375-.60938.5-1.5625.5-1.23438 0-1.95312-.89063-.84376-1.0625-.84376-3.48437zm1.07813 0q0 2.10937.5 2.8125.5.70312 1.21875.70312.73438 0 1.21875-.70312.5-.70313.5-2.8125 0-2.125-.5-2.8125-.48437-.70313-1.23437-.70313-.71876 0-1.15626.60938-.54687.78125-.54687 2.90625zm5.92187 1.96875 1.0625-.14063q.17188.89063.60938 1.29688.4375.39062 1.0625.39062.75 0 1.26562-.51562.51563-.51563.51563-1.28125 0-.71875-.48437-1.1875-.46876-.48438-1.20313-.48438-.29687 0-.75.125l.125-.9375q.10937.01563.17187.01563.67188 0 1.20313-.34375.54687-.35938.54687-1.09375 0-.57813-.39062-.95313-.39062-.39062-1.01562-.39062-.60938 0-1.03126.39062-.40624.39063-.51562 1.15625l-1.0625-.1875q.1875-1.04687.875-1.625.6875-.59375 1.70312-.59375.70313 0 1.29688.3125.59375.29688.90625.8125.3125.51563.3125 1.10938 0 .54687-.29687 1.01562-.29688.45313-.875.71875.75.17188 1.17187.73438.42187.54687.42187 1.39062 0 1.125-.82812 1.90625-.8125.78125-2.0625.78125-1.125 0-1.875-.67187-.75-.6875-.85938-1.75z" stroke="#f2f2f2" stroke-linecap="round" stroke-linejoin="round" stroke-width="3"/>
  <path d="m283.89584 477.09152v-1.01562h5.5625v.82812q-.8125.875-1.625 2.32813-.79687 1.4375-1.23437 2.96875-.32813 1.07812-.40625 2.35937h-1.09375q.01563-1.01562.39063-2.45312.39062-1.4375 1.09374-2.76563.71876-1.32812 1.53126-2.25zm6.9375 3.23438q0-1.53125.3125-2.45313.3125-.9375.92188-1.4375.625-.5 1.5625-.5.6875 0 1.20312.28125.53126.28125.875.8125.34376.51563.53126 1.26563.1875.75.1875 2.03125 0 1.51562-.3125 2.4375-.29688.92187-.92188 1.4375-.60938.5-1.5625.5-1.23438 0-1.95312-.89063-.84376-1.0625-.84376-3.48437zm1.07813 0q0 2.10937.5 2.8125.5.70312 1.21875.70312.73438 0 1.21875-.70312.5-.70313.5-2.8125 0-2.125-.5-2.8125-.48437-.70313-1.23437-.70313-.71876 0-1.15626.60938-.54687.78125-.54687 2.90625zm5.92187 0q0-1.53125.3125-2.45313.3125-.9375.92188-1.4375.625-.5 1.5625-.5.6875 0 1.20312.28125.53126.28125.875.8125.34376.51563.53126 1.26563.1875.75.1875 2.03125 0 1.51562-.3125 2.4375-.29688.92187-.92188 1.4375-.60938.5-1.5625.5-1.23438 0-1.95312-.89063-.84376-1.0625-.84376-3.48437zm1.07813 0q0 2.10937.5 2.8125.5.70312 1.21875.70312.73438 0 1.21875-.70312.5-.70313.5-2.8125 0-2.125-.5-2.8125-.48437-.70313-1.23437-.70313-.71876 0-1.15626.60938-.54687.78125-.54687 2.90625zm5.92187 1.96875 1.0625-.14063q.17188.89063.60938 1.29688.4375.39062 1.0625.39062.75 0 1.26562-.51562.51563-.51563.51563-1.28125 0-.71875-.48437-1.1875-.46876-.48438-1.20313-.48438-.29687 0-.75.125l.125-.9375q.10937.01563.17187.01563.67188 0 1.20313-.34375.54687-.35938.54687-1.09375 0-.57813-.39062-.95313-.39062-.39062-1.01562-.39062-.60938 0-1.03126.39062-.40624.39063-.51562 1.15625l-1.0625-.1875q.1875-1.04687.875-1.625.6875-.59375 1.70312-.59375.70313 0 1.29688.3125.59375.29688.90625.8125.3125.51563.3125 1.10938 0 .54687-.29687 1.01562-.29688.45313-.875.71875.75.17188 1.17187.73438.42187.54687.42187 1.39062 0 1.125-.82812 1.90625-.8125.78125-2.0625.78125-1.125 0-1.875-.67187-.75-.6875-.85938-1.75z" fill="#000"/>
  <path d="m616.46875 465.58035h-1.04685v-6.71875q-.39065.35938-1.01565.73438-.60935.35937-1.09375.53125v-1.01563q.875-.42187 1.53125-1 .67185-.59375.95315-1.15625h.67185zm8.57815-1.01562v1.01562h-5.6875q0-.375.125-.73437.2187-.57813.6875-1.14063.48435-.5625 1.3906-1.29687 1.40625-1.15625 1.8906-1.82813.5-.67187.5-1.26562 0-.625-.4531-1.04688-.4531-.4375-1.1719-.4375-.7656 0-1.2187.45313-.45315.45312-.4688 1.26562l-1.0781-.10937q.1094-1.21875.8281-1.84375.7344-.64063 1.9688-.64063 1.23435 0 1.9531.6875.71875.6875.71875 1.70313 0 .51562-.21875 1.01562-.2031.48438-.7031 1.04688-.4844.54687-1.6094 1.5-.9531.79687-1.2344 1.09375-.2656.28125-.4375.5625zm3.0781-3.64063q-.65625-.25-.9844-.6875-.3125-.45312-.3125-1.0625 0-.9375.6719-1.57812.6875-.64063 1.7969-.64063 1.125 0 1.8125.65625.6875.65625.6875 1.59375 0 .59375-.3125 1.03125-.3125.4375-.95315.6875.79685.25 1.20315.82813.4062.57812.4062 1.375 0 1.09375-.7812 1.84375-.76565.75-2.0469.75-1.2656 0-2.0469-.75-.7812-.75-.7812-1.875 0-.84375.42185-1.40625.4375-.5625 1.21875-.76563zm-.21875-1.79687q0 .60937.39065 1 .4062.39062 1.0312.39062.6094 0 1-.375.39065-.39062.39065-.95312 0-.57813-.40625-.96875-.40625-.40625-1-.40625-.6094 0-1.0156.39062-.39065.39063-.39065.92188zm-.32815 3.96875q0 .45312.20315.875.21875.42187.64065.65625.42185.23437.9062.23437.75 0 1.2344-.48437.5-.48438.5-1.23438 0-.76562-.5-1.26562-.5-.5-1.2656-.5-.75 0-1.2344.5-.4844.48437-.4844 1.21875zm11.39065-4-1.04685.07812q-.14065-.625-.39065-.90625-.4375-.45312-1.0625-.45312-.5 0-.89065.28125-.48435.375-.7812 1.07812-.2813.6875-.2969 1.96875.375-.57812.9219-.85937.5625-.28125 1.17185-.28125 1.04685 0 1.78125.78125.75.78125.75 2 0 .8125-.3594 1.51562-.3437.6875-.9531 1.0625-.6094.35938-1.375.35938-1.3281 0-2.15625-.96875-.82815-.96875-.82815-3.1875 0-2.5.9219-3.625.7969-.98438 2.15625-.98438 1.01565 0 1.65625.57813.65625.5625.78125 1.5625zm-4.29685 3.70312q0 .54688.2187 1.04688.2344.48437.64065.75.42185.26562.89065.26562.6562 0 1.1406-.53125.4844-.54687.4844-1.46875 0-.89062-.4844-1.40625-.46875-.51562-1.1875-.51562-.71875 0-1.21875.51562-.48435.51563-.48435 1.34375zm9.79685 2.78125h-1.04685v-6.71875q-.39065.35938-1.01565.73438-.60935.35937-1.09375.53125v-1.01563q.875-.42187 1.53125-1 .67185-.59375.95315-1.15625h.67185z" stroke="#f2f2f2" stroke-linecap="round" stroke-linejoin="round" stroke-width="3"/>
  <path d="m616.46875 465.58035h-1.04685v-6.71875q-.39065.35938-1.01565.73438-.60935.35937-1.09375.53125v-1.01563q.875-.42187 1.53125-1 .67185-.59375.95315-1.15625h.67185zm8.57815-1.01562v1.01562h-5.6875q0-.375.125-.73437.2187-.57813.6875-1.14063.48435-.5625 1.3906-1.29687 1.40625-1.15625 1.8906-1.82813.5-.67187.5-1.26562 0-.625-.4531-1.04688-.4531-.4375-1.1719-.4375-.7656 0-1.2187.45313-.45315.45312-.4688 1.26562l-1.0781-.10937q.1094-1.21875.8281-1.84375.7344-.64063 1.9688-.64063 1.23435 0 1.9531.6875.71875.6875.71875 1.70313 0 .51562-.21875 1.01562-.2031.48438-.7031 1.04688-.4844.54687-1.6094 1.5-.9531.79687-1.2344 1.09375-.2656.28125-.4375.5625zm3.0781-3.64063q-.65625-.25-.9844-.6875-.3125-.45312-.3125-1.0625 0-.9375.6719-1.57812.6875-.64063 1.7969-.64063 1.125 0 1.8125.65625.6875.65625.6875 1.59375 0 .59375-.3125 1.03125-.3125.4375-.95315.6875.79685.25 1.20315.82813.4062.57812.4062 1.375 0 1.09375-.7812 1.84375-.76565.75-2.0469.75-1.2656 0-2.0469-.75-.7812-.75-.7812-1.875 0-.84375.42185-1.40625.4375-.5625 1.21875-.76563zm-.21875-1.79687q0 .60937.39065 1 .4062.39062 1.0312.39062.6094 0 1-.375.39065-.39062.39065-.95312 0-.57813-.40625-.96875-.40625-.40625-1-.40625-.6094 0-1.0156.39062-.39065.39063-.39065.92188zm-.32815 3.96875q0 .45312.20315.875.21875.42187.64065.65625.42185.23437.9062.23437.75 0 1.2344-.48437.5-.48438.5-1.23438 0-.76562-.5-1.26562-.5-.5-1.2656-.5-.75 0-1.2344.5-.4844.48437-.4844 1.21875zm11.39065-4-1.04685.07812q-.14065-.625-.39065-.90625-.4375-.45312-1.0625-.45312-.5 0-.89065.28125-.48435.375-.7812 1.07812-.2813.6875-.2969 1.96875.375-.57812.9219-.85937.5625-.28125 1.17185-.28125 1.04685 0 1.78125.78125.75.78125.75 2 0 .8125-.3594 1.51562-.3437.6875-.9531 1.0625-.6094.35938-1.375.35938-1.3281 0-2.15625-.96875-.82815-.96875-.82815-3.1875 0-2.5.9219-3.625.7969-.98438 2.15625-.98438 1.01565 0 1.65625.57813.65625.5625.78125 1.5625zm-4.29685 3.70312q0 .54688.2187 1.04688.2344.48437.64065.75.42185.26562.89065.26562.6562 0 1.1406-.53125.4844-.54687.4844-1.46875 0-.89062-.4844-1.40625-.46875-.51562-1.1875-.51562-.71875 0-1.21875.51562-.48435.51563-.48435 1.34375zm9.79685 2.78125h-1.04685v-6.71875q-.39065.35938-1.01565.73438-.60935.35937-1.09375.53125v-1.01563q.875-.42187 1.53125-1 .67185-.59375.95315-1.15625h.67185z" fill="#000"/>
  <path d="m950.21356 423.71158v1.01562h-5.6875q0-.375.125-.73437.21874-.57813.6875-1.14063.48438-.5625 1.39064-1.29687 1.40624-1.15625 1.8906-1.82813.5-.67187.5-1.26562 0-.625-.4531-1.04688-.45314-.4375-1.1719-.4375-.7656 0-1.21874.45313-.45312.45312-.46876 1.26562l-1.0781-.10937q.10936-1.21875.8281-1.84375.7344-.64063 1.96876-.64063 1.23438 0 1.95314.6875.71874.6875.71874 1.70313 0 .51562-.21874 1.01562-.20314.48438-.70314 1.04688-.48436.54687-1.60936 1.5-.95314.79687-1.2344 1.09375-.2656.28125-.4375.5625zm1.45314-1.23438 1.10936-.09375q.125.8125.5625 1.21875.45314.40625 1.09374.40625.75 0 1.28126-.57812.53124-.57813.53124-1.51563 0-.90625-.5156-1.42187-.5-.53125-1.32814-.53125-.5 0-.92186.23437-.40626.23438-.64064.59375l-.98436-.125.8281-4.40625h4.28126v1h-3.4375l-.45312 2.3125q.76562-.54687 1.60936-.54687 1.125 0 1.89064.78125.78126.78125.78126 2.01562 0 1.15625-.6719 2.01563-.8281 1.03125-2.25 1.03125-1.17186 0-1.92186-.65625-.73438-.65625-.84374-1.73438zm10.375 2.25v-2.0625h-3.71876v-.96875l3.92186-5.5625h.8594v5.5625h1.15624v.96875h-1.15624v2.0625zm0-3.03125v-3.85937l-2.6875 3.85937zm3.6875-4.4375v-1.01562h5.5625v.82812q-.8125.875-1.625 2.32813-.7969 1.4375-1.2344 2.96875-.3281 1.07812-.40624 2.35937h-1.09376q.01564-1.01562.39064-2.45312.39062-1.4375 1.09376-2.76563.71874-1.32812 1.53124-2.25zm6.9375 3.23438q0-1.53125.3125-2.45313.3125-.9375.92186-1.4375.625-.5 1.5625-.5.6875 0 1.20314.28125.53124.28125.875.8125.34374.51563.53124 1.26563.1875.75.1875 2.03125 0 1.51562-.3125 2.4375-.29688.92187-.92188 1.4375-.60936.5-1.5625.5-1.23436 0-1.95312-.89063-.84374-1.0625-.84374-3.48437zm1.0781 0q0 2.10937.5 2.8125.5.70312 1.21876.70312.73438 0 1.21874-.70312.5-.70313.5-2.8125 0-2.125-.5-2.8125-.48436-.70313-1.23436-.70313-.71874 0-1.15624.60938-.5469.78125-.5469 2.90625z" stroke="#f2f2f2" stroke-linecap="round" stroke-linejoin="round" stroke-width="3"/>
  <path d="m950.21356 423.71158v1.01562h-5.6875q0-.375.125-.73437.21874-.57813.6875-1.14063.48438-.5625 1.39064-1.29687 1.40624-1.15625 1.8906-1.82813.5-.67187.5-1.26562 0-.625-.4531-1.04688-.45314-.4375-1.1719-.4375-.7656 0-1.21874.45313-.45312.45312-.46876 1.26562l-1.0781-.10937q.10936-1.21875.8281-1.84375.7344-.64063 1.96876-.64063 1.23438 0 1.95314.6875.71874.6875.71874 1.70313 0 .51562-.21874 1.01562-.20314.48438-.70314 1.04688-.48436.54687-1.60936 1.5-.95314.79687-1.2344 1.09375-.2656.28125-.4375.5625zm1.45314-1.23438 1.10936-.09375q.125.8125.5625 1.21875.45314.40625 1.09374.40625.75 0 1.28126-.57812.53124-.57813.53124-1.51563 0-.90625-.5156-1.42187-.5-.53125-1.32814-.53125-.5 0-.92186.23437-.40626.23438-.64064.59375l-.98436-.125.8281-4.40625h4.28126v1h-3.4375l-.45312 2.3125q.76562-.54687 1.60936-.54687 1.125 0 1.89064.78125.78126.78125.78126 2.01562 0 1.15625-.6719 2.01563-.8281 1.03125-2.25 1.03125-1.17186 0-1.92186-.65625-.73438-.65625-.84374-1.73438zm10.375 2.25v-2.0625h-3.71876v-.96875l3.92186-5.5625h.8594v5.5625h1.15624v.96875h-1.15624v2.0625zm0-3.03125v-3.85937l-2.6875 3.85937zm3.6875-4.4375v-1.01562h5.5625v.82812q-.8125.875-1.625 2.32813-.7969 1.4375-1.2344 2.96875-.3281 1.07812-.40624 2.35937h-1.09376q.01564-1.01562.39064-2.45312.39062-1.4375 1.09376-2.76563.71874-1.32812 1.53124-2.25zm6.9375 3.23438q0-1.53125.3125-2.45313.3125-.9375.92186-1.4375.625-.5 1.5625-.5.6875 0 1.20314.28125.53124.28125.875.8125.34374.51563.53124 1.26563.1875.75.1875 2.03125 0 1.51562-.3125 2.4375-.29688.92187-.92188 1.4375-.60936.5-1.5625.5-1.23436 0-1.95312-.89063-.84374-1.0625-.84374-3.48437zm1.0781 0q0 2.10937.5 2.8125.5.70312 1.21876.70312.73438 0 1.21874-.70312.5-.70313.5-2.8125 0-2.125-.5-2.8125-.48436-.70313-1.23436-.70313-.71874 0-1.15624.60938-.5469.78125-.5469 2.90625z" fill="#000"/>
  <path d="m287.8021 502.25717h-1.04688v-6.71875q-.39062.35938-1.01562.73438-.60938.35937-1.09376.53125v-1.01563q.875-.42187 1.53126-1 .67187-.59375.95312-1.15625h.67188zm3.03124-2.25 1.10938-.09375q.125.8125.5625 1.21875.45312.40625 1.09375.40625.75 0 1.28125-.57812.53125-.57813.53125-1.51563 0-.90625-.51563-1.42187-.5-.53125-1.32812-.53125-.5 0-.92188.23437-.40624.23438-.64062.59375l-.98438-.125.82813-4.40625h4.28125v1h-3.4375l-.45312 2.3125q.76562-.54687 1.60937-.54687 1.125 0 1.89063.78125.78124.78125.78124 2.01562 0 1.15625-.67187 2.01563-.82813 1.03125-2.25 1.03125-1.17187 0-1.92187-.65625-.73438-.65625-.84376-1.73438zm10.375 2.25v-2.0625h-3.71874v-.96875l3.92187-5.5625h.85937v5.5625h1.15626v.96875h-1.15626v2.0625zm0-3.03125v-3.85937l-2.6875 3.85937zm7.59376 3.03125h-1.04688v-6.71875q-.39062.35938-1.01562.73438-.60938.35937-1.09376.53125v-1.01563q.875-.42187 1.53126-1 .67187-.59375.95312-1.15625h.67188z" stroke="#f2f2f2" stroke-linecap="round" stroke-linejoin="round" stroke-width="3"/>
  <path d="m287.8021 502.25717h-1.04688v-6.71875q-.39062.35938-1.01562.73438-.60938.35937-1.09376.53125v-1.01563q.875-.42187 1.53126-1 .67187-.59375.95312-1.15625h.67188zm3.03124-2.25 1.10938-.09375q.125.8125.5625 1.21875.45312.40625 1.09375.40625.75 0 1.28125-.57812.53125-.57813.53125-1.51563 0-.90625-.51563-1.42187-.5-.53125-1.32812-.53125-.5 0-.92188.23437-.40624.23438-.64062.59375l-.98438-.125.82813-4.40625h4.28125v1h-3.4375l-.45312 2.3125q.76562-.54687 1.60937-.54687 1.125 0 1.89063.78125.78124.78125.78124 2.01562 0 1.15625-.67187 2.01563-.82813 1.03125-2.25 1.03125-1.17187 0-1.92187-.65625-.73438-.65625-.84376-1.73438zm10.375 2.25v-2.0625h-3.71874v-.96875l3.92187-5.5625h.85937v5.5625h1.15626v.96875h-1.15626v2.0625zm0-3.03125v-3.85937l-2.6875 3.85937zm7.59376 3.03125h-1.04688v-6.71875q-.39062.35938-1.01562.73438-.60938.35937-1.09376.53125v-1.01563q.875-.42187 1.53126-1 .67187-.59375.95312-1.15625h.67188z" fill="#000"/>
  <path d="m621.5469 497.29523v1.01562h-5.6875q0-.375.125-.73437.2187-.57813.6875-1.14063.48435-.5625 1.3906-1.29687 1.40625-1.15625 1.8906-1.82813.5-.67187.5-1.26562 0-.625-.4531-1.04688-.4531-.4375-1.1719-.4375-.7656 0-1.2187.45313-.45315.45312-.4688 1.26562l-1.0781-.10937q.1094-1.21875.8281-1.84375.7344-.64063 1.9688-.64063 1.23435 0 1.9531.6875.71875.6875.71875 1.70313 0 .51562-.21875 1.01562-.2031.48438-.7031 1.04688-.4844.54687-1.6094 1.5-.9531.79687-1.2344 1.09375-.2656.28125-.4375.5625zm1.5156-6.45313v-1.01562h5.5625v.82812q-.8125.875-1.625 2.32813-.7969 1.4375-1.2344 2.96875-.3281 1.07812-.4062 2.35937h-1.0938q.01565-1.01562.39065-2.45312.39065-1.4375 1.09375-2.76563.71875-1.32812 1.53125-2.25zm6.9375 5.21875 1.1094-.09375q.125.8125.5625 1.21875.4531.40625 1.0937.40625.75 0 1.2813-.57812.5312-.57813.5312-1.51563 0-.90625-.5156-1.42187-.5-.53125-1.3281-.53125-.5 0-.9219.23437-.40625.23438-.6406.59375l-.9844-.125.8281-4.40625h4.2813v1h-3.4375l-.45315 2.3125q.76565-.54687 1.60935-.54687 1.125 0 1.89065.78125.78125.78125.78125 2.01562 0 1.15625-.6719 2.01563-.8281 1.03125-2.25 1.03125-1.17185 0-1.92185-.65625-.73435-.65625-.84375-1.73438zm7.15625.26563 1.01565-.09375q.125.71875.48435 1.04687.375.3125.9375.3125.48435 0 .84375-.21875.375-.23437.6094-.59375.23435-.375.3906-1 .15625-.64062.15625-1.29687 0-.07813 0-.21875-.3125.5-.85935.82812-.5469.3125-1.1875.3125-1.07815 0-1.8125-.76562-.7344-.78125-.7344-2.04688 0-1.3125.7656-2.10937.7813-.79688 1.9375-.79688.82815 0 1.51565.45313.70315.45312 1.0625 1.29687.35935.82813.35935 2.40625 0 1.64063-.35935 2.625-.34375.96875-1.0625 1.48438-.70315.5-1.64065.5-1.0156 0-1.6562-.54688-.64065-.5625-.76565-1.57812zm4.3125-3.79688q0-.90625-.48435-1.4375-.4688-.53125-1.1563-.53125-.7031 0-1.23435.57813-.51565.5625-.51565 1.48437 0 .8125.5 1.32813.5.51562 1.2188.51562.73435 0 1.2031-.51562.46875-.51563.46875-1.42188z" stroke="#f2f2f2" stroke-linecap="round" stroke-linejoin="round" stroke-width="3"/>
  <path d="m621.5469 497.29523v1.01562h-5.6875q0-.375.125-.73437.2187-.57813.6875-1.14063.48435-.5625 1.3906-1.29687 1.40625-1.15625 1.8906-1.82813.5-.67187.5-1.26562 0-.625-.4531-1.04688-.4531-.4375-1.1719-.4375-.7656 0-1.2187.45313-.45315.45312-.4688 1.26562l-1.0781-.10937q.1094-1.21875.8281-1.84375.7344-.64063 1.9688-.64063 1.23435 0 1.9531.6875.71875.6875.71875 1.70313 0 .51562-.21875 1.01562-.2031.48438-.7031 1.04688-.4844.54687-1.6094 1.5-.9531.79687-1.2344 1.09375-.2656.28125-.4375.5625zm1.5156-6.45313v-1.01562h5.5625v.82812q-.8125.875-1.625 2.32813-.7969 1.4375-1.2344 2.96875-.3281 1.07812-.4062 2.35937h-1.0938q.01565-1.01562.39065-2.45312.39065-1.4375 1.09375-2.76563.71875-1.32812 1.53125-2.25zm6.9375 5.21875 1.1094-.09375q.125.8125.5625 1.21875.4531.40625 1.0937.40625.75 0 1.2813-.57812.5312-.57813.5312-1.51563 0-.90625-.5156-1.42187-.5-.53125-1.3281-.53125-.5 0-.9219.23437-.40625.23438-.6406.59375l-.9844-.125.8281-4.40625h4.2813v1h-3.4375l-.45315 2.3125q.76565-.54687 1.60935-.54687 1.125 0 1.89065.78125.78125.78125.78125 2.01562 0 1.15625-.6719 2.01563-.8281 1.03125-2.25 1.03125-1.17185 0-1.92185-.65625-.73435-.65625-.84375-1.73438zm7.15625.26563 1.01565-.09375q.125.71875.48435 1.04687.375.3125.9375.3125.48435 0 .84375-.21875.375-.23437.6094-.59375.23435-.375.3906-1 .15625-.64062.15625-1.29687 0-.07813 0-.21875-.3125.5-.85935.82812-.5469.3125-1.1875.3125-1.07815 0-1.8125-.76562-.7344-.78125-.7344-2.04688 0-1.3125.7656-2.10937.7813-.79688 1.9375-.79688.82815 0 1.51565.45313.70315.45312 1.0625 1.29687.35935.82813.35935 2.40625 0 1.64063-.35935 2.625-.34375.96875-1.0625 1.48438-.70315.5-1.64065.5-1.0156 0-1.6562-.54688-.64065-.5625-.76565-1.57812zm4.3125-3.79688q0-.90625-.48435-1.4375-.4688-.53125-1.1563-.53125-.7031 0-1.23435.57813-.51565.5625-.51565 1.48437 0 .8125.5 1.32813.5.51562 1.2188.51562.73435 0 1.2031-.51562.46875-.51563.46875-1.42188z" fill="#000"/>
  <path d="m948.1667 485.96823 1.10936-.09375q.125.8125.5625 1.21875.45314.40625 1.09374.40625.75 0 1.28126-.57812.53124-.57813.53124-1.51563 0-.90625-.5156-1.42187-.5-.53126-1.32814-.53126-.5 0-.92186.23438-.40626.23438-.64064.59375l-.98436-.125.8281-4.40625h4.28126v1h-3.4375l-.45312 2.3125q.76562-.54688 1.60936-.54688 1.125 0 1.89064.78126.78126.78124.78126 2.01562 0 1.15625-.6719 2.01562-.8281 1.03126-2.25 1.03126-1.17186 0-1.92186-.65626-.73438-.65624-.84374-1.73437zm8.625-2.40625q-.65626-.25-.9844-.6875-.3125-.45312-.3125-1.0625 0-.9375.6719-1.57812.6875-.64063 1.79686-.64063 1.125 0 1.8125.65625.6875.65625.6875 1.59375 0 .59375-.3125 1.03125-.3125.4375-.95312.6875.79686.25 1.20312.82812.40624.57813.40624 1.375 0 1.09376-.78124 1.84376-.76562.75-2.04686.75-1.26564 0-2.0469-.75-.78124-.75-.78124-1.875 0-.84376.42188-1.40626.4375-.5625 1.21876-.76562zm-.21876-1.79688q0 .60938.39062 1 .40624.39063 1.03124.39063.6094 0 1-.375.39064-.39063.39064-.95313 0-.57812-.40624-.96874-.40626-.40626-1-.40626-.6094 0-1.01564.39063-.39062.39063-.39062.92187zm-.32814 3.96876q0 .45312.20314.875.21876.42187.64062.65624.42188.23438.90624.23438.75 0 1.2344-.48438.5-.48437.5-1.23437 0-.76563-.5-1.26563-.5-.5-1.26564-.5-.75 0-1.23436.5-.4844.48438-.4844 1.21876zm5.9844-4.98438v-1.01562h5.5625v.82812q-.8125.875-1.625 2.32812-.7969 1.4375-1.2344 2.96876-.3281 1.07812-.40624 2.35937h-1.09376q.01564-1.01563.39064-2.45313.39062-1.4375 1.09376-2.76562.71874-1.32812 1.53124-2.25zm10.3125 7.46875v-2.0625h-3.71876v-.96875l3.92186-5.5625h.8594v5.5625h1.15624v.96875h-1.15624v2.0625zm0-3.03125v-3.85938l-2.6875 3.85938z" stroke="#f2f2f2" stroke-linecap="round" stroke-linejoin="round" stroke-width="3"/>
  <path d="m948.1667 485.96823 1.10936-.09375q.125.8125.5625 1.21875.45314.40625 1.09374.40625.75 0 1.28126-.57812.53124-.57813.53124-1.51563 0-.90625-.5156-1.42187-.5-.53126-1.32814-.53126-.5 0-.92186.23438-.40626.23438-.64064.59375l-.98436-.125.8281-4.40625h4.28126v1h-3.4375l-.45312 2.3125q.76562-.54688 1.60936-.54688 1.125 0 1.89064.78126.78126.78124.78126 2.01562 0 1.15625-.6719 2.01562-.8281 1.03126-2.25 1.03126-1.17186 0-1.92186-.65626-.73438-.65624-.84374-1.73437zm8.625-2.40625q-.65626-.25-.9844-.6875-.3125-.45312-.3125-1.0625 0-.9375.6719-1.57812.6875-.64063 1.79686-.64063 1.125 0 1.8125.65625.6875.65625.6875 1.59375 0 .59375-.3125 1.03125-.3125.4375-.95312.6875.79686.25 1.20312.82812.40624.57813.40624 1.375 0 1.09376-.78124 1.84376-.76562.75-2.04686.75-1.26564 0-2.0469-.75-.78124-.75-.78124-1.875 0-.84376.42188-1.40626.4375-.5625 1.21876-.76562zm-.21876-1.79688q0 .60938.39062 1 .40624.39063 1.03124.39063.6094 0 1-.375.39064-.39063.39064-.95313 0-.57812-.40624-.96874-.40626-.40626-1-.40626-.6094 0-1.01564.39063-.39062.39063-.39062.92187zm-.32814 3.96876q0 .45312.20314.875.21876.42187.64062.65624.42188.23438.90624.23438.75 0 1.2344-.48438.5-.48437.5-1.23437 0-.76563-.5-1.26563-.5-.5-1.26564-.5-.75 0-1.23436.5-.4844.48438-.4844 1.21876zm5.9844-4.98438v-1.01562h5.5625v.82812q-.8125.875-1.625 2.32812-.7969 1.4375-1.2344 2.96876-.3281 1.07812-.40624 2.35937h-1.09376q.01564-1.01563.39064-2.45313.39062-1.4375 1.09376-2.76562.71874-1.32812 1.53124-2.25zm10.3125 7.46875v-2.0625h-3.71876v-.96875l3.92186-5.5625h.8594v5.5625h1.15624v.96875h-1.15624v2.0625zm0-3.03125v-3.85938l-2.6875 3.85938z" fill="#000"/>
  <path d="m280.33334 339.75027 1.10938-.09375q.125.8125.5625 1.21875.45312.40625 1.09375.40625.75 0 1.28125-.57812.53125-.57813.53125-1.51563 0-.90625-.51563-1.42187-.5-.53125-1.32812-.53125-.5 0-.92188.23437-.40624.23438-.64062.59375l-.98438-.125.82813-4.40625h4.28125v1h-3.4375l-.45312 2.3125q.76562-.54687 1.60937-.54687 1.125 0 1.89063.78125.78124.78125.78124 2.01562 0 1.15625-.67187 2.01563-.82813 1.03125-2.25 1.03125-1.17187 0-1.92187-.65625-.73438-.65625-.84376-1.73438zm10.96876 2.25h-1.04688v-6.71875q-.39062.35938-1.01562.73438-.60938.35937-1.09376.53125v-1.01563q.875-.42187 1.53126-1 .67187-.59375.95312-1.15625h.67188zm3.03124-4.23437q0-1.53125.3125-2.45313.3125-.9375.92188-1.4375.625-.5 1.5625-.5.6875 0 1.20312.28125.53126.28125.875.8125.34376.51563.53126 1.26563.1875.75.1875 2.03125 0 1.51562-.3125 2.4375-.29688.92187-.92188 1.4375-.60938.5-1.5625.5-1.23438 0-1.95312-.89063-.84376-1.0625-.84376-3.48437zm1.07813 0q0 2.10937.5 2.8125.5.70312 1.21875.70312.73438 0 1.21875-.70312.5-.70313.5-2.8125 0-2.125-.5-2.8125-.48437-.70313-1.23437-.70313-.71876 0-1.15626.60938-.54687.78125-.54687 2.90625zm5.92187 0q0-1.53125.3125-2.45313.3125-.9375.92188-1.4375.625-.5 1.5625-.5.6875 0 1.20312.28125.53126.28125.875.8125.34376.51563.53126 1.26563.1875.75.1875 2.03125 0 1.51562-.3125 2.4375-.29688.92187-.92188 1.4375-.60938.5-1.5625.5-1.23438 0-1.95312-.89063-.84376-1.0625-.84376-3.48437zm1.07813 0q0 2.10937.5 2.8125.5.70312 1.21875.70312.73438 0 1.21875-.70312.5-.70313.5-2.8125 0-2.125-.5-2.8125-.48437-.70313-1.23437-.70313-.71876 0-1.15626.60938-.54687.78125-.54687 2.90625zm5.92187 1.96875 1.0625-.14063q.17188.89063.60938 1.29688.4375.39062 1.0625.39062.75 0 1.26562-.51562.51563-.51563.51563-1.28125 0-.71875-.48437-1.1875-.46876-.48438-1.20313-.48438-.29687 0-.75.125l.125-.9375q.10937.01563.17187.01563.67188 0 1.20313-.34375.54687-.35938.54687-1.09375 0-.57813-.39062-.95313-.39062-.39062-1.01562-.39062-.60938 0-1.03126.39062-.40624.39063-.51562 1.15625l-1.0625-.1875q.1875-1.04687.875-1.625.6875-.59375 1.70312-.59375.70313 0 1.29688.3125.59375.29688.90625.8125.3125.51563.3125 1.10938 0 .54687-.29687 1.01562-.29688.45313-.875.71875.75.17188 1.17187.73438.42187.54687.42187 1.39062 0 1.125-.82812 1.90625-.8125.78125-2.0625.78125-1.125 0-1.875-.67187-.75-.6875-.85938-1.75z" stroke="#f2f2f2" stroke-linecap="round" stroke-linejoin="round" stroke-width="3"/>
  <path d="m280.33334 339.75027 1.10938-.09375q.125.8125.5625 1.21875.45312.40625 1.09375.40625.75 0 1.28125-.57812.53125-.57813.53125-1.51563 0-.90625-.51563-1.42187-.5-.53125-1.32812-.53125-.5 0-.92188.23437-.40624.23438-.64062.59375l-.98438-.125.82813-4.40625h4.28125v1h-3.4375l-.45312 2.3125q.76562-.54687 1.60937-.54687 1.125 0 1.89063.78125.78124.78125.78124 2.01562 0 1.15625-.67187 2.01563-.82813 1.03125-2.25 1.03125-1.17187 0-1.92187-.65625-.73438-.65625-.84376-1.73438zm10.96876 2.25h-1.04688v-6.71875q-.39062.35938-1.01562.73438-.60938.35937-1.09376.53125v-1.01563q.875-.42187 1.53126-1 .67187-.59375.95312-1.15625h.67188zm3.03124-4.23437q0-1.53125.3125-2.45313.3125-.9375.92188-1.4375.625-.5 1.5625-.5.6875 0 1.20312.28125.53126.28125.875.8125.34376.51563.53126 1.26563.1875.75.1875 2.03125 0 1.51562-.3125 2.4375-.29688.92187-.92188 1.4375-.60938.5-1.5625.5-1.23438 0-1.95312-.89063-.84376-1.0625-.84376-3.48437zm1.07813 0q0 2.10937.5 2.8125.5.70312 1.21875.70312.73438 0 1.21875-.70312.5-.70313.5-2.8125 0-2.125-.5-2.8125-.48437-.70313-1.23437-.70313-.71876 0-1.15626.60938-.54687.78125-.54687 2.90625zm5.92187 0q0-1.53125.3125-2.45313.3125-.9375.92188-1.4375.625-.5 1.5625-.5.6875 0 1.20312.28125.53126.28125.875.8125.34376.51563.53126 1.26563.1875.75.1875 2.03125 0 1.51562-.3125 2.4375-.29688.92187-.92188 1.4375-.60938.5-1.5625.5-1.23438 0-1.95312-.89063-.84376-1.0625-.84376-3.48437zm1.07813 0q0 2.10937.5 2.8125.5.70312 1.21875.70312.73438 0 1.21875-.70312.5-.70313.5-2.8125 0-2.125-.5-2.8125-.48437-.70313-1.23437-.70313-.71876 0-1.15626.60938-.54687.78125-.54687 2.90625zm5.92187 1.96875 1.0625-.14063q.17188.89063.60938 1.29688.4375.39062 1.0625.39062.75 0 1.26562-.51562.51563-.51563.51563-1.28125 0-.71875-.48437-1.1875-.46876-.48438-1.20313-.48438-.29687 0-.75.125l.125-.9375q.10937.01563.17187.01563.67188 0 1.20313-.34375.54687-.35938.54687-1.09375 0-.57813-.39062-.95313-.39062-.39062-1.01562-.39062-.60938 0-1.03126.39062-.40624.39063-.51562 1.15625l-1.0625-.1875q.1875-1.04687.875-1.625.6875-.59375 1.70312-.59375.70313 0 1.29688.3125.59375.29688.90625.8125.3125.51563.3125 1.10938 0 .54687-.29687 1.01562-.29688.45313-.875.71875.75.17188 1.17187.73438.42187.54687.42187 1.39062 0 1.125-.82812 1.90625-.8125.78125-2.0625.78125-1.125 0-1.875-.67187-.75-.6875-.85938-1.75z" fill="#000"/>
  <path d="m612.65625 184.58662 1.01565-.09375q.125.71875.48435 1.04688.375.3125.9375.3125.48435 0 .84375-.21875.375-.23438.6094-.59375.23435-.375.3906-1 .15625-.64063.15625-1.29688 0-.07812 0-.21875-.3125.5-.85935.82813-.5469.3125-1.1875.3125-1.07815 0-1.8125-.76563-.7344-.78125-.7344-2.04687 0-1.3125.7656-2.10938.7813-.79687 1.9375-.79687.82815 0 1.51565.45312.70315.45313 1.0625 1.29688.35935.82812.35935 2.40625 0 1.64062-.35935 2.625-.34375.96875-1.0625 1.48437-.70315.5-1.64065.5-1.0156 0-1.6562-.54687-.64065-.5625-.76565-1.57813zm4.3125-3.79687q0-.90625-.48435-1.4375-.4688-.53125-1.1563-.53125-.7031 0-1.23435.57812-.51565.5625-.51565 1.48438 0 .8125.5 1.32812.5.51563 1.2188.51563.73435 0 1.2031-.51563.46875-.51562.46875-1.42187zm4.15625 1.125q-.65625-.25-.9844-.6875-.3125-.45313-.3125-1.0625 0-.9375.6719-1.57813.6875-.64062 1.7969-.64062 1.125 0 1.8125.65625.6875.65625.6875 1.59375 0 .59375-.3125 1.03125-.3125.4375-.95315.6875.79685.25 1.20315.82812.4062.57813.4062 1.375 0 1.09375-.7812 1.84375-.76565.75-2.0469.75-1.2656 0-2.0469-.75-.7812-.75-.7812-1.875 0-.84375.42185-1.40625.4375-.5625 1.21875-.76562zm-.21875-1.79688q0 .60938.39065 1 .4062.39063 1.0312.39063.6094 0 1-.375.39065-.39063.39065-.95313 0-.57812-.40625-.96875-.40625-.40625-1-.40625-.6094 0-1.0156.39063-.39065.39062-.39065.92187zm-.32815 3.96875q0 .45313.20315.875.21875.42188.64065.65625.42185.23438.9062.23438.75 0 1.2344-.48438.5-.48437.5-1.23437 0-.76563-.5-1.26563-.5-.5-1.2656-.5-.75 0-1.2344.5-.4844.48438-.4844 1.21875zm6.07815.5 1.01565-.09375q.125.71875.48435 1.04688.375.3125.9375.3125.48435 0 .84375-.21875.375-.23438.6094-.59375.23435-.375.3906-1 .15625-.64063.15625-1.29688 0-.07812 0-.21875-.3125.5-.85935.82813-.5469.3125-1.1875.3125-1.07815 0-1.8125-.76563-.7344-.78125-.7344-2.04687 0-1.3125.7656-2.10938.7813-.79687 1.9375-.79687.82815 0 1.51565.45312.70315.45313 1.0625 1.29688.35935.82812.35935 2.40625 0 1.64062-.35935 2.625-.34375.96875-1.0625 1.48437-.70315.5-1.64065.5-1.0156 0-1.6562-.54687-.64065-.5625-.76565-1.57813zm4.3125-3.79687q0-.90625-.48435-1.4375-.4688-.53125-1.1563-.53125-.7031 0-1.23435.57812-.51565.5625-.51565 1.48438 0 .8125.5 1.32812.5.51563 1.2188.51563.73435 0 1.2031-.51563.46875-.51562.46875-1.42187zm2.59375-1.6875v-1.01563h5.5625v.82813q-.8125.875-1.625 2.32812-.7969 1.4375-1.2344 2.96875-.3281 1.07813-.4062 2.35938h-1.0938q.01565-1.01563.39065-2.45313.39065-1.4375 1.09375-2.76562.71875-1.32813 1.53125-2.25zm6.9375 5.21875 1.1094-.09375q.125.8125.5625 1.21875.4531.40625 1.0937.40625.75 0 1.2813-.57813.5312-.57812.5312-1.51562 0-.90625-.5156-1.42188-.5-.53125-1.3281-.53125-.5 0-.9219.23438-.40625.23437-.6406.59375l-.9844-.125.8281-4.40625h4.2813v1h-3.4375l-.45315 2.3125q.76565-.54688 1.60935-.54688 1.125 0 1.89065.78125.78125.78125.78125 2.01563 0 1.15625-.6719 2.01562-.8281 1.03125-2.25 1.03125-1.17185 0-1.92185-.65625-.73435-.65625-.84375-1.73437z" stroke="#f2f2f2" stroke-linecap="round" stroke-linejoin="round" stroke-width="3"/>
  <path d="m612.65625 184.58662 1.01565-.09375q.125.71875.48435 1.04688.375.3125.9375.3125.48435 0 .84375-.21875.375-.23438.6094-.59375.23435-.375.3906-1 .15625-.64063.15625-1.29688 0-.07812 0-.21875-.3125.5-.85935.82813-.5469.3125-1.1875.3125-1.07815 0-1.8125-.76563-.7344-.78125-.7344-2.04687 0-1.3125.7656-2.10938.7813-.79687 1.9375-.79687.82815 0 1.51565.45312.70315.45313 1.0625 1.29688.35935.82812.35935 2.40625 0 1.64062-.35935 2.625-.34375.96875-1.0625 1.48437-.70315.5-1.64065.5-1.0156 0-1.6562-.54687-.64065-.5625-.76565-1.57813zm4.3125-3.79687q0-.90625-.48435-1.4375-.4688-.53125-1.1563-.53125-.7031 0-1.23435.57812-.51565.5625-.51565 1.48438 0 .8125.5 1.32812.5.51563 1.2188.51563.73435 0 1.2031-.51563.46875-.51562.46875-1.42187zm4.15625 1.125q-.65625-.25-.9844-.6875-.3125-.45313-.3125-1.0625 0-.9375.6719-1.57813.6875-.64062 1.7969-.64062 1.125 0 1.8125.65625.6875.65625.6875 1.59375 0 .59375-.3125 1.03125-.3125.4375-.95315.6875.79685.25 1.20315.82812.4062.57813.4062 1.375 0 1.09375-.7812 1.84375-.76565.75-2.0469.75-1.2656 0-2.0469-.75-.7812-.75-.7812-1.875 0-.84375.42185-1.40625.4375-.5625 1.21875-.76562zm-.21875-1.79688q0 .60938.39065 1 .4062.39063 1.0312.39063.6094 0 1-.375.39065-.39063.39065-.95313 0-.57812-.40625-.96875-.40625-.40625-1-.40625-.6094 0-1.0156.39063-.39065.39062-.39065.92187zm-.32815 3.96875q0 .45313.20315.875.21875.42188.64065.65625.42185.23438.9062.23438.75 0 1.2344-.48438.5-.48437.5-1.23437 0-.76563-.5-1.26563-.5-.5-1.2656-.5-.75 0-1.2344.5-.4844.48438-.4844 1.21875zm6.07815.5 1.01565-.09375q.125.71875.48435 1.04688.375.3125.9375.3125.48435 0 .84375-.21875.375-.23438.6094-.59375.23435-.375.3906-1 .15625-.64063.15625-1.29688 0-.07812 0-.21875-.3125.5-.85935.82813-.5469.3125-1.1875.3125-1.07815 0-1.8125-.76563-.7344-.78125-.7344-2.04687 0-1.3125.7656-2.10938.7813-.79687 1.9375-.79687.82815 0 1.51565.45312.70315.45313 1.0625 1.29688.35935.82812.35935 2.40625 0 1.64062-.35935 2.625-.34375.96875-1.0625 1.48437-.70315.5-1.64065.5-1.0156 0-1.6562-.54687-.64065-.5625-.76565-1.57813zm4.3125-3.79687q0-.90625-.48435-1.4375-.4688-.53125-1.1563-.53125-.7031 0-1.23435.57812-.51565.5625-.51565 1.48438 0 .8125.5 1.32812.5.51563 1.2188.51563.73435 0 1.2031-.51563.46875-.51562.46875-1.42187zm2.59375-1.6875v-1.01563h5.5625v.82813q-.8125.875-1.625 2.32812-.7969 1.4375-1.2344 2.96875-.3281 1.07813-.4062 2.35938h-1.0938q.01565-1.01563.39065-2.45313.39065-1.4375 1.09375-2.76562.71875-1.32813 1.53125-2.25zm6.9375 5.21875 1.1094-.09375q.125.8125.5625 1.21875.4531.40625 1.0937.40625.75 0 1.2813-.57813.5312-.57812.5312-1.51562 0-.90625-.5156-1.42188-.5-.53125-1.3281-.53125-.5 0-.9219.23438-.40625.23437-.6406.59375l-.9844-.125.8281-4.40625h4.2813v1h-3.4375l-.45315 2.3125q.76565-.54688 1.60935-.54688 1.125 0 1.89065.78125.78125.78125.78125 2.01563 0 1.15625-.6719 2.01562-.8281 1.03125-2.25 1.03125-1.17185 0-1.92185-.65625-.73435-.65625-.84375-1.73437z" fill="#000"/>
  <path d="m945.13544 113.52196h-1.04688v-6.71875q-.39062.35937-1.01562.73437-.60938.35938-1.09374.53125v-1.01562q.875-.42188 1.53124-1 .67186-.59375.95312-1.15625h.67188zm8.57812-1.01563v1.01563h-5.6875q0-.375.125-.73438.21874-.57812.6875-1.14062.48438-.5625 1.39064-1.29688 1.40624-1.15625 1.8906-1.82812.5-.67188.5-1.26563 0-.625-.4531-1.04687-.45314-.4375-1.1719-.4375-.7656 0-1.21874.45312-.45312.45313-.46876 1.26563l-1.0781-.10938q.10936-1.21875.8281-1.84375.7344-.64062 1.96876-.64062 1.23438 0 1.95314.6875.71874.6875.71874 1.70312 0 .51563-.21874 1.01563-.20314.48437-.70314 1.04687-.48436.54688-1.60936 1.5-.95314.79688-1.2344 1.09375-.2656.28125-.4375.5625zm5.42188 1.01563h-1.04688v-6.71875q-.39062.35937-1.01562.73437-.60938.35938-1.09374.53125v-1.01562q.875-.42188 1.53124-1 .67186-.59375.95312-1.15625h.67188zm3.03126-2.25 1.10936-.09375q.125.8125.5625 1.21875.45314.40625 1.09374.40625.75 0 1.28126-.57813.53124-.57812.53124-1.51562 0-.90625-.5156-1.42188-.5-.53125-1.32814-.53125-.5 0-.92186.23438-.40626.23437-.64064.59375l-.98436-.125.8281-4.40625h4.28126v1h-3.4375l-.45312 2.3125q.76562-.54688 1.60936-.54688 1.125 0 1.89064.78125.78126.78125.78126 2.01563 0 1.15625-.6719 2.01562-.8281 1.03125-2.25 1.03125-1.17186 0-1.92186-.65625-.73438-.65625-.84374-1.73437zm12.54686 1.23437v1.01563h-5.6875q0-.375.125-.73438.21874-.57812.6875-1.14062.48438-.5625 1.39064-1.29688 1.40624-1.15625 1.8906-1.82812.5-.67188.5-1.26563 0-.625-.4531-1.04687-.45314-.4375-1.1719-.4375-.7656 0-1.21874.45312-.45312.45313-.46876 1.26563l-1.0781-.10938q.10936-1.21875.8281-1.84375.7344-.64062 1.96876-.64062 1.23438 0 1.95314.6875.71874.6875.71874 1.70312 0 .51563-.21874 1.01563-.20314.48437-.70314 1.04687-.48436.54688-1.60936 1.5-.95314.79688-1.2344 1.09375-.2656.28125-.4375.5625zm5.42188 1.01563h-1.04688v-6.71875q-.39062.35937-1.01562.73437-.60938.35938-1.09374.53125v-1.01562q.875-.42188 1.53124-1 .67186-.59375.95312-1.15625h.67188z" stroke="#f2f2f2" stroke-linecap="round" stroke-linejoin="round" stroke-width="3"/>
  <path d="m945.13544 113.52196h-1.04688v-6.71875q-.39062.35937-1.01562.73437-.60938.35938-1.09374.53125v-1.01562q.875-.42188 1.53124-1 .67186-.59375.95312-1.15625h.67188zm8.57812-1.01563v1.01563h-5.6875q0-.375.125-.73438.21874-.57812.6875-1.14062.48438-.5625 1.39064-1.29688 1.40624-1.15625 1.8906-1.82812.5-.67188.5-1.26563 0-.625-.4531-1.04687-.45314-.4375-1.1719-.4375-.7656 0-1.21874.45312-.45312.45313-.46876 1.26563l-1.0781-.10938q.10936-1.21875.8281-1.84375.7344-.64062 1.96876-.64062 1.23438 0 1.95314.6875.71874.6875.71874 1.70312 0 .51563-.21874 1.01563-.20314.48437-.70314 1.04687-.48436.54688-1.60936 1.5-.95314.79688-1.2344 1.09375-.2656.28125-.4375.5625zm5.42188 1.01563h-1.04688v-6.71875q-.39062.35937-1.01562.73437-.60938.35938-1.09374.53125v-1.01562q.875-.42188 1.53124-1 .67186-.59375.95312-1.15625h.67188zm3.03126-2.25 1.10936-.09375q.125.8125.5625 1.21875.45314.40625 1.09374.40625.75 0 1.28126-.57813.53124-.57812.53124-1.51562 0-.90625-.5156-1.42188-.5-.53125-1.32814-.53125-.5 0-.92186.23438-.40626.23437-.64064.59375l-.98436-.125.8281-4.40625h4.28126v1h-3.4375l-.45312 2.3125q.76562-.54688 1.60936-.54688 1.125 0 1.89064.78125.78126.78125.78126 2.01563 0 1.15625-.6719 2.01562-.8281 1.03125-2.25 1.03125-1.17186 0-1.92186-.65625-.73438-.65625-.84374-1.73437zm12.54686 1.23437v1.01563h-5.6875q0-.375.125-.73438.21874-.57812.6875-1.14062.48438-.5625 1.39064-1.29688 1.40624-1.15625 1.8906-1.82812.5-.67188.5-1.26563 0-.625-.4531-1.04687-.45314-.4375-1.1719-.4375-.7656 0-1.21874.45312-.45312.45313-.46876 1.26563l-1.0781-.10938q.10936-1.21875.8281-1.84375.7344-.64062 1.96876-.64062 1.23438 0 1.95314.6875.71874.6875.71874 1.70312 0 .51563-.21874 1.01563-.20314.48437-.70314 1.04687-.48436.54688-1.60936 1.5-.95314.79688-1.2344 1.09375-.2656.28125-.4375.5625zm5.42188 1.01563h-1.04688v-6.71875q-.39062.35937-1.01562.73437-.60938.35938-1.09374.53125v-1.01562q.875-.42188 1.53124-1 .67186-.59375.95312-1.15625h.67188z" fill="#000"/>
  <path d="m600.4375 574.25v-8.59375h3.8125q1.15625 0 1.75.23435.59375.2344.9531.82815.3594.57815.3594 1.28125 0 .9219-.59375 1.5469-.59375.625-1.82815.79685.45315.21875.6875.42185.5.45315.9375 1.14065l1.5 2.34375h-1.4375l-1.125-1.78125q-.5-.78125-.8281-1.1875-.3125-.40625-.5781-.5625-.25-.17185-.51565-.25-.1875-.03125-.625-.03125h-1.32815v3.8125zm1.1406-4.7969h2.45315q.76565 0 1.20315-.1562.4531-.1719.67185-.51565.23435-.35935.23435-.78125 0-.6094-.4531-1-.4375-.3906-1.3906-.3906h-2.7188zm7.32815 1.6875q0-1.73435.95315-2.5625.79685-.6875 1.9531-.6875 1.28125 0 2.09375.8438.82815.8281.82815 2.3125 0 1.2031-.3594 1.8906-.3594.6875-1.0625 1.0781-.6875.375-1.5.375-1.2969 0-2.1094-.8281-.79685-.84375-.79685-2.4219zm1.07815 0q0 1.1875.5156 1.7813.53125.5937 1.3125.5937.7969 0 1.3125-.5937.5156-.5938.5156-1.8125 0-1.1563-.5312-1.75-.51565-.5938-1.2969-.5938-.78125 0-1.3125.5938-.5156.5781-.5156 1.7812zm5.92185 0q0-1.73435.95315-2.5625.79685-.6875 1.9531-.6875 1.28125 0 2.09375.8438.82815.8281.82815 2.3125 0 1.2031-.3594 1.8906-.3594.6875-1.0625 1.0781-.6875.375-1.5.375-1.2969 0-2.1094-.8281-.79685-.84375-.79685-2.4219zm1.07815 0q0 1.1875.5156 1.7813.53125.5937 1.3125.5937.7969 0 1.3125-.5937.5156-.5938.5156-1.8125 0-1.1563-.5312-1.75-.51565-.5938-1.2969-.5938-.78125 0-1.3125.5938-.5156.5781-.5156 1.7812zm6.3125 3.1094v-6.21875h.9375v.875q.29685-.46875.7812-.73435.4844-.2813 1.1094-.2813.6875 0 1.125.2813.4531.2812.625.79685.75-1.07815 1.9219-1.07815.9375 0 1.42185.51565.5.5.5 1.57815v4.2656h-1.04685v-3.9219q0-.625-.1094-.9062-.09375-.2813-.3594-.45315-.2656-.17185-.6406-.17185-.65625 0-1.09375.4375-.42185.4375-.42185 1.4062v3.6094h-1.0625v-4.0469q0-.7031-.26565-1.04685-.25-.35935-.82815-.35935-.4531 0-.8281.23435-.375.23435-.5469.6875-.17185.45315-.17185 1.29685v3.2344zm12.75-2.7656 1.0625-.0938q.0781.6563.35935 1.0625.28125.4063.85935.6719.5938.25 1.32815.25.64065 0 1.14065-.1875.5-.2031.73435-.53125.25-.34375.25-.73435 0-.4063-.23435-.70315-.2344-.3125-.76565-.51565-.35935-.1406-1.54685-.42185-1.1719-.28125-1.64065-.53125-.625-.3281-.92185-.7969-.2969-.48435-.2969-1.0781 0-.6406.3594-1.2031.375-.57815 1.0781-.8594.71875-.2969 1.5781-.2969.95315 0 1.6875.3125.7344.2969 1.125.9063.39065.5937.4219 1.3437l-1.09375.07815q-.09375-.8125-.60935-1.21875-.5-.4219-1.4844-.4219-1.03125 0-1.5.375-.46875.375-.46875.9063 0 .4687.32815.7656.3281.2969 1.7031.6094 1.3906.3125 1.90625.54685.75.35935 1.10935.89065.3594.5156.3594 1.2187 0 .6875-.3906 1.2969-.39065.59375-1.125.9375-.7344.3281-1.6563.3281-1.17185 0-1.9687-.3281-.7813-.34375-1.2344-1.03125-.4375-.6875-.4531-1.54685zm8.25-4.6094v-1.21875h1.0625v1.21875zm0 7.375v-6.21875h1.0625v6.21875zm2.4375 0v-.8594l3.9687-4.54685q-.6875.03125-1.2031.03125h-2.53125v-.84375h5.09375v.6875l-3.375 3.95315-.65625.7187q.71875-.04685 1.32815-.04685h2.8906v.90625zm10.8125-2 1.0937.125q-.25.9531-.9531 1.4844-.7031.5312-1.78125.5312-1.35935 0-2.17185-.8437-.7969-.8438-.7969-2.3594 0-1.5625.8125-2.4219.8125-.875 2.09375-.875 1.25 0 2.03125.8438.7969.8437.7969 2.3906 0 .09375 0 .28125h-4.64065q.0625 1.03125.57815 1.57815.5156.5312 1.29685.5312.57815 0 .98435-.29685.4219-.3125.6563-.96875zm-3.45315-1.7031h3.46875q-.0625-.7969-.3906-1.1875-.51565-.6094-1.3125-.6094-.7344 0-1.2344.4844-.4844.48435-.53125 1.3125z" fill="#000"/>
  <path d="m43.25 310.8125h-8.59375v-3.8125q0-1.15625.234375-1.75.234375-.59375.828125-.95312.578125-.35938 1.28125-.35938.921875 0 1.546875.59375.625.59375.796875 1.82813.21875-.45313.421875-.6875.453125-.5 1.140625-.9375l2.34375-1.5v1.4375l-1.78125 1.125q-.78125.5-1.1875.82812-.40625.3125-.5625.57812-.171875.25-.25.51563-.03125.1875-.03125.625v1.32813h3.8125zm-4.796875-1.14062v-2.45313q0-.76563-.15625-1.20313-.171875-.45312-.515625-.67187-.359375-.23437-.78125-.23437-.609375 0-1 .45312-.390625.4375-.390625 1.39062v2.71876zm4.796875-11.79688h-.921875q1.0625.73438 1.0625 1.98438 0 .54687-.203125 1.03124-.21875.46876-.53125.70313-.328125.23437-.796875.32813-.296875.0625-.984375.0625h-3.84375v-1.0625h3.453125q.8125 0 1.109375-.0625.40625-.09376.65625-.40626.234375-.32812.234375-.8125 0-.46874-.234375-.875-.25-.42187-.671875-.59374-.421875-.1875-1.21875-.1875h-3.328125v-1.04688h6.21875zm0-2.92188h-6.21875v-.9375h.875q-1.015625-.6875-1.015625-1.98437 0-.5625.203125-1.03125.203125-.48438.53125-.71875.328125-.23437.765625-.32813.296875-.04687 1.03125-.04687h3.828125v1.04687h-3.78125q-.65625 0-.96875.125-.3125.125-.5.4375-.203125.3125-.203125.73438 0 .67188.4375 1.17188.421875.48437 1.609375.48437h3.40625zm-.9375-9.29687.921875-.15625q.09375.45312.09375.79688 0 .57812-.171875.89062-.1875.3125-.484375.45312-.296875.125-1.25.125h-3.578125v.76563h-.8125v-.76563h-1.546875l-.625-1.04687h2.171875v-1.0625h.8125v1.0625h3.640625q.453125 0 .578125-.04687.125-.0625.203125-.1875.078125-.125.078125-.35938 0-.1875-.03125-.46875zm-6.4375-.70313h-1.21875v-1.0625h1.21875zm7.375 0h-6.21875v-1.0625h6.21875zm0-3h-6.21875v-.9375h.875q-.46875-.29687-.734375-.78124-.28125-.48438-.28125-1.10938 0-.6875.28125-1.125.28125-.45312.796875-.625-1.078125-.75-1.078125-1.92188 0-.9375.515625-1.42187.5-.5 1.578125-.5h4.265625v1.04687h-3.921875q-.625 0-.90625.10938-.28125.09375-.453125.35938-.171875.26562-.171875.64062 0 .65625.4375 1.09375.4375.42187 1.40625.42187h3.609375v1.0625h-4.046875q-.703125 0-1.046875.26563-.359375.25-.359375.82813 0 .45312.234375.82812.234375.375.6875.54688.453125.17187 1.296875.17187h3.234375zm-2-14.25.125-1.09374q.953125.25 1.484375.95312.53125.70312.53125 1.78125 0 1.35937-.84375 2.17187-.84375.79688-2.359375.79688-1.5625 0-2.421875-.8125-.875-.8125-.875-2.09375 0-1.25.84375-2.03125.84375-.79688 2.390625-.79688.09375 0 .28125 0v4.64063q1.03125-.0625 1.578125-.57813.53125-.51562.53125-1.29687 0-.57813-.296875-.98437-.3125-.42188-.96875-.65626zm-1.703125 3.45313v-3.46875q-.796875.0625-1.1875.39062-.609375.51563-.609375 1.3125 0 .73438.484375 1.23438.484375.48438 1.3125.53125z" fill="#000"/>
  <path d="m99.75 525.0156q0-1.5312.3125-2.4531.3125-.9375.921875-1.4375.625-.5 1.5625-.5.6875 0 1.203125.28125.53125.28125.875.8125.34375.51565.53125 1.26565.1875.75.1875 2.0312 0 1.51565-.3125 2.4375-.296875.9219-.921875 1.4375-.609375.5-1.5625.5-1.234375 0-1.953125-.8906-.84375-1.0625-.84375-3.4844zm1.078125 0q0 2.1094.5 2.8125.5.70315 1.21875.70315.734375 0 1.21875-.70315.5-.7031.5-2.8125 0-2.125-.5-2.8125-.484375-.7031-1.234375-.7031-.71875 0-1.15625.6094-.546875.7812-.546875 2.9062zm9.21875 4.2344v-6.21875h.9375v.875q.296875-.46875.78125-.73435.484375-.2813 1.109375-.2813.6875 0 1.125.2813.453125.2812.625.79685.75-1.07815 1.921875-1.07815.9375 0 1.421875.51565.5.5.5 1.57815v4.2656h-1.046875v-3.9219q0-.625-.109375-.9062-.09375-.2813-.359375-.45315-.265625-.17185-.640625-.17185-.65625 0-1.09375.4375-.421875.4375-.421875 1.4062v3.6094h-1.0625v-4.0469q0-.7031-.265625-1.04685-.25-.35935-.828125-.35935-.453125 0-.828125.23435-.375.23435-.546875.6875-.171875.45315-.171875 1.29685v3.2344zm9.578125-1.8594 1.03125-.1562q.09375.625.484375.9531.40625.3281 1.140625.3281.71875 0 1.0625-.2812.359375-.2969.359375-.70315 0-.35935-.3125-.5625-.21875-.14065-1.078125-.35935-1.15625-.2969-1.609375-.5-.4375-.2188-.671875-.5938-.234375-.375-.234375-.8437 0-.4063.1875-.76565.1875-.35935.515625-.59375.25-.1719.671875-.2969.421875-.125.921875-.125.71875 0 1.265625.2188.5625.2031.828125.5625.265625.35935.359375.9531l-1.03125.1406q-.0625-.4687-.40625-.73435-.328125-.28125-.953125-.28125-.71875 0-1.03125.25-.3125.2344-.3125.5625 0 .2031.125.3594.140625.17185.40625.2812.15625.0625.9375.26565 1.125.3125 1.5625.5.4375.1875.6875.54685.25.3594.25.9063 0 .5312-.3125 1-.296875.4531-.875.7187-.578125.25-1.3125.25-1.21875 0-1.859375-.5-.625-.5156-.796875-1.5z" fill="#595959"/>
  <path d="m71.75 365 1.109375-.09375q.125.8125.5625 1.21875.453125.40625 1.09375.40625.75 0 1.28125-.57813.53125-.57812.53125-1.51562 0-.90625-.515625-1.42188-.5-.53124-1.328125-.53124-.5 0-.921875.23437-.40625.23437-.640625.59375l-.984375-.125.828125-4.40625h4.28125v1h-3.4375l-.453125 2.3125q.765625-.54687 1.609375-.54687 1.125 0 1.890625.78124.78125.78126.78125 2.01563 0 1.15625-.671875 2.01563-.828125 1.03124-2.25 1.03124-1.171875 0-1.921875-.65624-.734375-.65626-.84375-1.73438zm7-1.98438q0-1.53124.3125-2.45312.3125-.9375.921875-1.4375.625-.5 1.5625-.5.6875 0 1.203125.28125.53125.28125.875.8125.34375.51563.53125 1.26563.1875.75.1875 2.03124 0 1.51563-.3125 2.4375-.296875.92188-.921875 1.4375-.609375.5-1.5625.5-1.234375 0-1.953125-.89062-.84375-1.0625-.84375-3.48438zm1.078125 0q0 2.10938.5 2.8125.5.70313 1.21875.70313.734375 0 1.21875-.70313.5-.70312.5-2.8125 0-2.125-.5-2.8125-.484375-.70312-1.234375-.70312-.71875 0-1.15625.60938-.546875.78124-.546875 2.90624zm5.921875 0q0-1.53124.3125-2.45312.3125-.9375.921875-1.4375.625-.5 1.5625-.5.6875 0 1.203125.28125.53125.28125.875.8125.34375.51563.53125 1.26563.1875.75.1875 2.03124 0 1.51563-.3125 2.4375-.296875.92188-.921875 1.4375-.609375.5-1.5625.5-1.234375 0-1.953125-.89062-.84375-1.0625-.84375-3.48438zm1.078125 0q0 2.10938.5 2.8125.5.70313 1.21875.70313.734375 0 1.21875-.70313.5-.70312.5-2.8125 0-2.125-.5-2.8125-.484375-.70312-1.234375-.70312-.71875 0-1.15625.60938-.546875.78124-.546875 2.90624zm5.921875 0q0-1.53124.3125-2.45312.3125-.9375.921875-1.4375.625-.5 1.5625-.5.6875 0 1.203125.28125.53125.28125.875.8125.34375.51563.53125 1.26563.1875.75.1875 2.03124 0 1.51563-.3125 2.4375-.296875.92188-.921875 1.4375-.609375.5-1.5625.5-1.234375 0-1.953125-.89062-.84375-1.0625-.84375-3.48438zm1.078125 0q0 2.10938.5 2.8125.5.70313 1.21875.70313.734375 0 1.21875-.70313.5-.70312.5-2.8125 0-2.125-.5-2.8125-.484375-.70312-1.234375-.70312-.71875 0-1.15625.60938-.546875.78124-.546875 2.90624zm5.921875 0q0-1.53124.3125-2.45312.3125-.9375.921875-1.4375.625-.5 1.5625-.5.6875 0 1.203125.28125.53125.28125.875.8125.34375.51563.53125 1.26563.1875.75.1875 2.03124 0 1.51563-.3125 2.4375-.296875.92188-.921875 1.4375-.609375.5-1.5625.5-1.234375 0-1.953125-.89062-.84375-1.0625-.84375-3.48438zm1.078125 0q0 2.10938.5 2.8125.5.70313 1.21875.70313.734375 0 1.21875-.70313.5-.70312.5-2.8125 0-2.125-.5-2.8125-.484375-.70312-1.234375-.70312-.71875 0-1.15625.60938-.546875.78124-.546875 2.90624zm9.21875 4.23438v-6.21875h.9375v.875q.296875-.46875.78125-.73437.484375-.28126 1.109375-.28126.6875 0 1.125.28126.453125.28124.625.79687.75-1.07813 1.921875-1.07813.9375 0 1.421875.51563.5.5.5 1.57813v4.26562h-1.046875v-3.92188q0-.625-.109375-.90624-.09375-.28126-.359375-.45313-.265625-.17187-.640625-.17187-.65625 0-1.09375.4375-.421875.4375-.421875 1.40624v3.60938h-1.0625v-4.04688q0-.70312-.265625-1.04687-.25-.35937-.828125-.35937-.453125 0-.828125.23437-.375.23437-.546875.6875-.171875.45313-.171875 1.29687v3.23438zm9.578125-1.85938 1.03125-.15624q.09375.625.484375.95312.40625.32812 1.140625.32812.71875 0 1.0625-.28124.359375-.29688.359375-.70313 0-.35937-.3125-.5625-.21875-.14063-1.078125-.35937-1.15625-.29688-1.609375-.5-.4375-.21876-.671875-.59376-.234375-.375-.234375-.84374 0-.40626.1875-.76563.1875-.35937.515625-.59375.25-.17188.671875-.29688.421875-.125.921875-.125.71875 0 1.265625.21876.5625.20312.828125.5625.265625.35937.359375.95312l-1.03125.14062q-.0625-.46874-.40625-.73437-.328125-.28125-.953125-.28125-.71875 0-1.03125.25-.3125.23438-.3125.5625 0 .20312.125.35938.140625.17187.40625.28124.15625.0625.9375.26563 1.125.3125 1.5625.5.4375.1875.6875.54687.25.35938.25.90626 0 .53124-.3125 1-.296875.45312-.875.71874-.578125.25-1.3125.25-1.21875 0-1.859375-.5-.625-.51562-.796875-1.5z" fill="#595959"/>
  <path d="m68.71875 205.25h-1.046875v-6.71875q-.390625.35937-1.015625.73437-.609375.35938-1.09375.53126v-1.01563q.875-.42187 1.53125-1 .671875-.59375.953125-1.15625h.671875zm3.03125-4.23438q0-1.53124.3125-2.45312.3125-.9375.921875-1.4375.625-.5 1.5625-.5.6875 0 1.203125.28125.53125.28125.875.8125.34375.51563.53125 1.26563.1875.75.1875 2.03124 0 1.51563-.3125 2.4375-.296875.92188-.921875 1.4375-.609375.5-1.5625.5-1.234375 0-1.953125-.89062-.84375-1.0625-.84375-3.48438zm1.078125 0q0 2.10938.5 2.8125.5.70313 1.21875.70313.734375 0 1.21875-.70313.5-.70312.5-2.8125 0-2.125-.5-2.8125-.484375-.70312-1.234375-.70312-.71875 0-1.15625.60938-.546875.78124-.546875 2.90624zm5.921875 0q0-1.53124.3125-2.45312.3125-.9375.921875-1.4375.625-.5 1.5625-.5.6875 0 1.203125.28125.53125.28125.875.8125.34375.51563.53125 1.26563.1875.75.1875 2.03124 0 1.51563-.3125 2.4375-.296875.92188-.921875 1.4375-.609375.5-1.5625.5-1.234375 0-1.953125-.89062-.84375-1.0625-.84375-3.48438zm1.078125 0q0 2.10938.5 2.8125.5.70313 1.21875.70313.734375 0 1.21875-.70313.5-.70312.5-2.8125 0-2.125-.5-2.8125-.484375-.70312-1.234375-.70312-.71875 0-1.15625.60938-.546875.78124-.546875 2.90624zm5.921875 0q0-1.53124.3125-2.45312.3125-.9375.921875-1.4375.625-.5 1.5625-.5.6875 0 1.203125.28125.53125.28125.875.8125.34375.51563.53125 1.26563.1875.75.1875 2.03124 0 1.51563-.3125 2.4375-.296875.92188-.921875 1.4375-.609375.5-1.5625.5-1.234375 0-1.953125-.89062-.84375-1.0625-.84375-3.48438zm1.078125 0q0 2.10938.5 2.8125.5.70313 1.21875.70313.734375 0 1.21875-.70313.5-.70312.5-2.8125 0-2.125-.5-2.8125-.484375-.70312-1.234375-.70312-.71875 0-1.15625.60938-.546875.78124-.546875 2.90624zm5.921875 0q0-1.53124.3125-2.45312.3125-.9375.921875-1.4375.625-.5 1.5625-.5.6875 0 1.203125.28125.53125.28125.875.8125.34375.51563.53125 1.26563.1875.75.1875 2.03124 0 1.51563-.3125 2.4375-.296875.92188-.921875 1.4375-.609375.5-1.5625.5-1.234375 0-1.953125-.89062-.84375-1.0625-.84375-3.48438zm1.078125 0q0 2.10938.5 2.8125.5.70313 1.21875.70313.734375 0 1.21875-.70313.5-.70312.5-2.8125 0-2.125-.5-2.8125-.484375-.70312-1.234375-.70312-.71875 0-1.15625.60938-.546875.78124-.546875 2.90624zm5.921875 0q0-1.53124.3125-2.45312.3125-.9375.921875-1.4375.625-.5 1.5625-.5.6875 0 1.203125.28125.53125.28125.875.8125.34375.51563.53125 1.26563.1875.75.1875 2.03124 0 1.51563-.3125 2.4375-.296875.92188-.921875 1.4375-.609375.5-1.5625.5-1.234375 0-1.953125-.89062-.84375-1.0625-.84375-3.48438zm1.078125 0q0 2.10938.5 2.8125.5.70313 1.21875.70313.734375 0 1.21875-.70313.5-.70312.5-2.8125 0-2.125-.5-2.8125-.484375-.70312-1.234375-.70312-.71875 0-1.15625.60938-.546875.78124-.546875 2.90624zm9.21875 4.23438v-6.21875h.9375v.875q.296875-.46875.78125-.73437.484375-.28126 1.109375-.28126.6875 0 1.125.28126.453125.28124.625.79687.75-1.07813 1.921875-1.07813.9375 0 1.421875.51563.5.5.5 1.57813v4.26562h-1.046875v-3.92188q0-.625-.109375-.90624-.09375-.28126-.359375-.45313-.265625-.17187-.640625-.17187-.65625 0-1.09375.4375-.421875.4375-.421875 1.40624v3.60938h-1.0625v-4.04688q0-.70312-.265625-1.04687-.25-.35937-.828125-.35937-.453125 0-.828125.23437-.375.23437-.546875.6875-.171875.45313-.171875 1.29687v3.23438zm9.578125-1.85938 1.03125-.15624q.09375.625.484375.95312.40625.32812 1.140625.32812.71875 0 1.0625-.28124.359375-.29688.359375-.70313 0-.35937-.3125-.5625-.21875-.14063-1.078125-.35937-1.15625-.29688-1.609375-.5-.4375-.21876-.671875-.59376-.234375-.375-.234375-.84374 0-.40626.1875-.76563.1875-.35937.515625-.59375.25-.17188.671875-.29688.421875-.125.921875-.125.71875 0 1.265625.21876.5625.20312.828125.5625.265625.35937.359375.95312l-1.03125.14062q-.0625-.46874-.40625-.73437-.328125-.28125-.953125-.28125-.71875 0-1.03125.25-.3125.23438-.3125.5625 0 .20312.125.35938.140625.17187.40625.28124.15625.0625.9375.26563 1.125.3125 1.5625.5.4375.1875.6875.54687.25.35938.25.90626 0 .53124-.3125 1-.296875.45312-.875.71874-.578125.25-1.3125.25-1.21875 0-1.859375-.5-.625-.51562-.796875-1.5z" fill="#595959"/>
  <path d="m68.71875 43.25h-1.046875v-6.71875q-.390625.359375-1.015625.734375-.609375.359375-1.09375.53125v-1.015625q.875-.421875 1.53125-1 .671875-.59375.953125-1.15625h.671875zm3.03125-2.25 1.109375-.09375q.125.8125.5625 1.21875.453125.40625 1.09375.40625.75 0 1.28125-.578125.53125-.578125.53125-1.515625 0-.90625-.515625-1.421875-.5-.53125-1.328125-.53125-.5 0-.921875.234375-.40625.234375-.640625.59375l-.984375-.125.828125-4.40625h4.28125v1h-3.4375l-.453125 2.3125q.765625-.546875 1.609375-.546875 1.125 0 1.890625.78125.78125.78125.78125 2.015625 0 1.15625-.671875 2.015625-.828125 1.03125-2.25 1.03125-1.171875 0-1.921875-.65625-.734375-.65625-.84375-1.734375zm7-1.984375q0-1.53125.3125-2.453125.3125-.9375.921875-1.4375.625-.5 1.5625-.5.6875 0 1.203125.28125.53125.28125.875.8125.34375.515625.53125 1.265625.1875.75.1875 2.03125 0 1.515625-.3125 2.4375-.296875.921875-.921875 1.4375-.609375.5-1.5625.5-1.234375 0-1.953125-.890625-.84375-1.0625-.84375-3.484375zm1.078125 0q0 2.109375.5 2.8125.5.703125 1.21875.703125.734375 0 1.21875-.703125.5-.703125.5-2.8125 0-2.125-.5-2.8125-.484375-.703125-1.234375-.703125-.71875 0-1.15625.609375-.546875.78125-.546875 2.90625zm5.921875 0q0-1.53125.3125-2.453125.3125-.9375.921875-1.4375.625-.5 1.5625-.5.6875 0 1.203125.28125.53125.28125.875.8125.34375.515625.53125 1.265625.1875.75.1875 2.03125 0 1.515625-.3125 2.4375-.296875.921875-.921875 1.4375-.609375.5-1.5625.5-1.234375 0-1.953125-.890625-.84375-1.0625-.84375-3.484375zm1.078125 0q0 2.109375.5 2.8125.5.703125 1.21875.703125.734375 0 1.21875-.703125.5-.703125.5-2.8125 0-2.125-.5-2.8125-.484375-.703125-1.234375-.703125-.71875 0-1.15625.609375-.546875.78125-.546875 2.90625zm5.921875 0q0-1.53125.3125-2.453125.3125-.9375.921875-1.4375.625-.5 1.5625-.5.6875 0 1.203125.28125.53125.28125.875.8125.34375.515625.53125 1.265625.1875.75.1875 2.03125 0 1.515625-.3125 2.4375-.296875.921875-.921875 1.4375-.609375.5-1.5625.5-1.234375 0-1.953125-.890625-.84375-1.0625-.84375-3.484375zm1.078125 0q0 2.109375.5 2.8125.5.703125 1.21875.703125.734375 0 1.21875-.703125.5-.703125.5-2.8125 0-2.125-.5-2.8125-.484375-.703125-1.234375-.703125-.71875 0-1.15625.609375-.546875.78125-.546875 2.90625zm5.921875 0q0-1.53125.3125-2.453125.3125-.9375.921875-1.4375.625-.5 1.5625-.5.6875 0 1.203125.28125.53125.28125.875.8125.34375.515625.53125 1.265625.1875.75.1875 2.03125 0 1.515625-.3125 2.4375-.296875.921875-.921875 1.4375-.609375.5-1.5625.5-1.234375 0-1.953125-.890625-.84375-1.0625-.84375-3.484375zm1.078125 0q0 2.109375.5 2.8125.5.703125 1.21875.703125.734375 0 1.21875-.703125.5-.703125.5-2.8125 0-2.125-.5-2.8125-.484375-.703125-1.234375-.703125-.71875 0-1.15625.609375-.546875.78125-.546875 2.90625zm9.21875 4.234375v-6.21875h.9375v.875q.296875-.46875.78125-.734375.484375-.28125 1.109375-.28125.6875 0 1.125.28125.453125.28125.625.796875.75-1.078125 1.921875-1.078125.9375 0 1.421875.515625.5.5.5 1.578125v4.265625h-1.046875v-3.921875q0-.625-.109375-.90625-.09375-.28125-.359375-.453125-.265625-.171875-.640625-.171875-.65625 0-1.09375.4375-.421875.4375-.421875 1.40625v3.609375h-1.0625v-4.046875q0-.703125-.265625-1.046875-.25-.359375-.828125-.359375-.453125 0-.828125.234375-.375.234375-.546875.6875-.171875.453125-.171875 1.296875v3.234375zm9.578125-1.859375 1.03125-.15625q.09375.625.484375.953125.40625.328125 1.140625.328125.71875 0 1.0625-.28125.359375-.296875.359375-.703125 0-.359375-.3125-.5625-.21875-.140625-1.078125-.359375-1.15625-.296875-1.609375-.5-.4375-.21875-.671875-.59375-.234375-.375-.234375-.84375 0-.40625.1875-.765625.1875-.359375.515625-.59375.25-.171875.671875-.296875.421875-.125.921875-.125.71875 0 1.265625.21875.5625.203125.828125.5625.265625.359375.359375.953125l-1.03125.140625q-.0625-.46875-.40625-.734375-.328125-.28125-.953125-.28125-.71875 0-1.03125.25-.3125.234375-.3125.5625 0 .203125.125.359375.140625.171875.40625.28125.15625.0625.9375.265625 1.125.3125 1.5625.5.4375.1875.6875.546875.25.359375.25.90625 0 .53125-.3125 1-.296875.453125-.875.71875-.578125.25-1.3125.25-1.21875 0-1.859375-.5-.625-.515625-.796875-1.5z" fill="#595959"/>
  <path d="m287.33334 540 1.10938-.09375q.125.8125.5625 1.21875.45312.40625 1.09375.40625.75 0 1.28125-.57815.53125-.5781.53125-1.5156 0-.90625-.51563-1.4219-.5-.5312-1.32812-.5312-.5 0-.92188.23435-.40624.23435-.64062.59375l-.98438-.125.82813-4.40625h4.28125v1h-3.4375l-.45312 2.3125q.76562-.54685 1.60937-.54685 1.125 0 1.89063.7812.78124.7813.78124 2.01565 0 1.15625-.67187 2.01565-.82813 1.0312-2.25 1.0312-1.17187 0-1.92187-.6562-.73438-.6563-.84376-1.7344zm7-1.9844q0-1.5312.3125-2.4531.3125-.9375.92188-1.4375.625-.5 1.5625-.5.6875 0 1.20312.28125.53126.28125.875.8125.34376.51565.53126 1.26565.1875.75.1875 2.0312 0 1.51565-.3125 2.4375-.29688.9219-.92188 1.4375-.60938.5-1.5625.5-1.23438 0-1.95312-.8906-.84376-1.0625-.84376-3.4844zm1.07813 0q0 2.1094.5 2.8125.5.70315 1.21875.70315.73438 0 1.21875-.70315.5-.7031.5-2.8125 0-2.125-.5-2.8125-.48437-.7031-1.23437-.7031-.71876 0-1.15626.6094-.54687.7812-.54687 2.9062zm5.92187 0q0-1.5312.3125-2.4531.3125-.9375.92188-1.4375.625-.5 1.5625-.5.6875 0 1.20312.28125.53126.28125.875.8125.34376.51565.53126 1.26565.1875.75.1875 2.0312 0 1.51565-.3125 2.4375-.29688.9219-.92188 1.4375-.60938.5-1.5625.5-1.23438 0-1.95312-.8906-.84376-1.0625-.84376-3.4844zm1.07813 0q0 2.1094.5 2.8125.5.70315 1.21875.70315.73438 0 1.21875-.70315.5-.7031.5-2.8125 0-2.125-.5-2.8125-.48437-.7031-1.23437-.7031-.71876 0-1.15626.6094-.54687.7812-.54687 2.9062z" fill="#595959"/>
  <path d="m619.96875 542.25h-1.04685v-6.71875q-.39065.35935-1.01565.73435-.60935.3594-1.09375.5313v-1.01565q.875-.42185 1.53125-1 .67185-.59375.95315-1.15625h.67185zm3.03125-4.2344q0-1.5312.3125-2.4531.3125-.9375.9219-1.4375.625-.5 1.5625-.5.6875 0 1.2031.28125.53125.28125.875.8125.34375.51565.53125 1.26565.1875.75.1875 2.0312 0 1.51565-.3125 2.4375-.29685.9219-.92185 1.4375-.6094.5-1.5625.5-1.2344 0-1.95315-.8906-.84375-1.0625-.84375-3.4844zm1.0781 0q0 2.1094.5 2.8125.5.70315 1.2188.70315.73435 0 1.2187-.70315.5-.7031.5-2.8125 0-2.125-.5-2.8125-.48435-.7031-1.23435-.7031-.71875 0-1.15625.6094-.5469.7812-.5469 2.9062zm5.9219 0q0-1.5312.3125-2.4531.3125-.9375.9219-1.4375.625-.5 1.5625-.5.6875 0 1.2031.28125.53125.28125.875.8125.34375.51565.53125 1.26565.1875.75.1875 2.0312 0 1.51565-.3125 2.4375-.29685.9219-.92185 1.4375-.6094.5-1.5625.5-1.2344 0-1.95315-.8906-.84375-1.0625-.84375-3.4844zm1.0781 0q0 2.1094.5 2.8125.5.70315 1.2188.70315.73435 0 1.2187-.70315.5-.7031.5-2.8125 0-2.125-.5-2.8125-.48435-.7031-1.23435-.7031-.71875 0-1.15625.6094-.5469.7812-.5469 2.9062zm5.9219 0q0-1.5312.3125-2.4531.3125-.9375.9219-1.4375.625-.5 1.5625-.5.6875 0 1.2031.28125.53125.28125.875.8125.34375.51565.53125 1.26565.1875.75.1875 2.0312 0 1.51565-.3125 2.4375-.29685.9219-.92185 1.4375-.6094.5-1.5625.5-1.2344 0-1.95315-.8906-.84375-1.0625-.84375-3.4844zm1.0781 0q0 2.1094.5 2.8125.5.70315 1.2188.70315.73435 0 1.2187-.70315.5-.7031.5-2.8125 0-2.125-.5-2.8125-.48435-.7031-1.23435-.7031-.71875 0-1.15625.6094-.5469.7812-.5469 2.9062z" fill="#595959"/>
  <path d="m953.71356 541.2344v1.0156h-5.6875q0-.375.125-.7344.21874-.5781.6875-1.1406.48438-.5625 1.39064-1.2969 1.40624-1.1562 1.8906-1.8281.5-.6719.5-1.2656 0-.625-.4531-1.0469-.45314-.4375-1.1719-.4375-.7656 0-1.21874.4531-.45312.45315-.46876 1.26565l-1.0781-.10935q.10936-1.2188.8281-1.8438.7344-.6406 1.96876-.6406 1.23438 0 1.95314.6875.71874.6875.71874 1.7031 0 .51565-.21874 1.01565-.20314.48435-.70314 1.04685-.48436.5469-1.60936 1.5-.95314.7969-1.2344 1.0938-.2656.2812-.4375.5625zm1.45314-3.2188q0-1.5312.3125-2.4531.3125-.9375.92186-1.4375.625-.5 1.5625-.5.6875 0 1.20314.28125.53124.28125.875.8125.34374.51565.53124 1.26565.1875.75.1875 2.0312 0 1.51565-.3125 2.4375-.29688.9219-.92188 1.4375-.60936.5-1.5625.5-1.23436 0-1.95312-.8906-.84374-1.0625-.84374-3.4844zm1.0781 0q0 2.1094.5 2.8125.5.70315 1.21876.70315.73438 0 1.21874-.70315.5-.7031.5-2.8125 0-2.125-.5-2.8125-.48436-.7031-1.23436-.7031-.71874 0-1.15624.6094-.5469.7812-.5469 2.9062zm5.9219 0q0-1.5312.3125-2.4531.3125-.9375.92186-1.4375.625-.5 1.5625-.5.6875 0 1.20314.28125.53124.28125.875.8125.34374.51565.53124 1.26565.1875.75.1875 2.0312 0 1.51565-.3125 2.4375-.29688.9219-.92188 1.4375-.60936.5-1.5625.5-1.23436 0-1.95312-.8906-.84374-1.0625-.84374-3.4844zm1.0781 0q0 2.1094.5 2.8125.5.70315 1.21876.70315.73438 0 1.21874-.70315.5-.7031.5-2.8125 0-2.125-.5-2.8125-.48436-.7031-1.23436-.7031-.71874 0-1.15624.6094-.5469.7812-.5469 2.9062zm5.9219 0q0-1.5312.3125-2.4531.3125-.9375.92186-1.4375.625-.5 1.5625-.5.6875 0 1.20314.28125.53124.28125.875.8125.34374.51565.53124 1.26565.1875.75.1875 2.0312 0 1.51565-.3125 2.4375-.29688.9219-.92188 1.4375-.60936.5-1.5625.5-1.23436 0-1.95312-.8906-.84374-1.0625-.84374-3.4844zm1.0781 0q0 2.1094.5 2.8125.5.70315 1.21876.70315.73438 0 1.21874-.70315.5-.7031.5-2.8125 0-2.125-.5-2.8125-.48436-.7031-1.23436-.7031-.71874 0-1.15624.6094-.5469.7812-.5469 2.9062z" fill="#595959"/>
  <path d="m487 605.75c0 3.3137-2.68628 6-6 6s-6-2.6863-6-6 2.68628-6 6-6 6 2.6863 6 6z" fill="#4285f4"/>
  <path d="m498.875 609.75v-2.0625h-3.71875v-.96875l3.92187-5.5625h.85938v5.5625h1.15625v.96875h-1.15625v2.0625zm0-3.03125v-3.85935l-2.6875 3.85935zm6.67188.26565 1.0625-.0938q.07812.6563.35937 1.0625.28125.4063.85937.6719.59376.25 1.32813.25.64063 0 1.14063-.1875.5-.2031.73437-.53125.25-.34375.25-.73435 0-.4063-.23437-.70315-.23438-.3125-.76563-.51565-.35937-.1406-1.54687-.42185-1.17188-.28125-1.64063-.53125-.625-.3281-.92187-.7969-.29688-.48435-.29688-1.0781 0-.6406.35938-1.2031.375-.57815 1.07812-.8594.71875-.2969 1.57812-.2969.95313 0 1.6875.3125.73438.2969 1.125.9063.39063.5937.42188 1.3437l-1.09375.07815q-.09375-.8125-.60937-1.21875-.5-.4219-1.48438-.4219-1.03125 0-1.5.375-.46875.375-.46875.9063 0 .4687.32813.7656.32812.2969 1.70312.6094 1.39062.3125 1.90625.54685.75.35935 1.10935.89065.3594.5156.3594 1.2187 0 .6875-.39062 1.2969-.39063.59375-1.125.9375-.73438.3281-1.65626.3281-1.17187 0-1.96874-.3281-.78126-.34375-1.23438-1.03125-.4375-.6875-.45312-1.54685zm8.21872 2.7656v-8.59375h1.0625v8.59375zm2.64065-3.1094q0-1.73435.95315-2.5625.79685-.6875 1.9531-.6875 1.28125 0 2.09375.8438.82815.8281.82815 2.3125 0 1.2031-.3594 1.8906-.3594.6875-1.0625 1.0781-.6875.375-1.5.375-1.2969 0-2.1094-.8281-.79685-.84375-.79685-2.4219zm1.07815 0q0 1.1875.5156 1.7813.53125.5937 1.3125.5937.7969 0 1.3125-.5937.5156-.5938.5156-1.8125 0-1.1563-.5312-1.75-.51565-.5938-1.2969-.5938-.78125 0-1.3125.5938-.5156.5781-.5156 1.7812zm8.60935 2.1719.15625.9219q-.4531.0937-.7969.0937-.5781 0-.8906-.17185-.3125-.1875-.4531-.48435-.125-.2969-.125-1.25v-3.57815h-.76565v-.8125h.76565v-1.54685l1.04685-.625v2.17185h1.0625v.8125h-1.0625v3.64065q0 .4531.04685.5781.0625.125.1875.2031.125.07815.3594.07815.1875 0 .46875-.03125zm.28125-.9219 1.03125-.1562q.09375.625.48435.9531.4063.3281 1.14065.3281.71875 0 1.0625-.2812.35935-.2969.35935-.70315 0-.35935-.3125-.5625-.2187-.14065-1.0781-.35935-1.15625-.2969-1.6094-.5-.4375-.2188-.67185-.5938-.23435-.375-.23435-.8437 0-.4063.1875-.76565.1875-.35935.5156-.59375.25-.1719.6719-.2969.42185-.125.92185-.125.71875 0 1.26565.2188.5625.2031.8281.5625.2656.35935.3594.9531l-1.0313.1406q-.0625-.4687-.4062-.73435-.32815-.28125-.95315-.28125-.71875 0-1.03125.25-.3125.2344-.3125.5625 0 .2031.125.3594.1406.17185.40625.2812.15625.0625.9375.26565 1.125.3125 1.5625.5.4375.1875.6875.54685.25.3594.25.9063 0 .5312-.3125 1-.29685.4531-.875.7187-.57815.25-1.3125.25-1.21875 0-1.85935-.5-.625-.5156-.7969-1.5z" fill="#595959"/>
  <path d="m560 605.75c0 3.3137-2.6863 6-6 6s-6-2.6863-6-6 2.6863-6 6-6 6 2.6863 6 6z" fill="#ea4335"/>
  <path d="m570.125 605.09375q-.65625-.25-.9844-.6875-.3125-.45315-.3125-1.0625 0-.9375.6719-1.57815.6875-.6406 1.7969-.6406 1.125 0 1.8125.65625.6875.65625.6875 1.59375 0 .59375-.3125 1.03125-.3125.4375-.95315.6875.79685.25 1.20315.82815.4062.5781.4062 1.375 0 1.0937-.7812 1.8437-.76565.75-2.0469.75-1.2656 0-2.0469-.75-.7812-.75-.7812-1.875 0-.8437.42185-1.4062.4375-.5625 1.21875-.76565zm-.21875-1.79685q0 .60935.39065 1 .4062.3906 1.0312.3906.6094 0 1-.375.39065-.3906.39065-.9531 0-.57815-.40625-.9688-.40625-.4062-1-.4062-.6094 0-1.0156.3906-.39065.3906-.39065.9219zm-.32815 3.9687q0 .45315.20315.875.21875.4219.64065.6563.42185.23435.9062.23435.75 0 1.2344-.48435.5-.4844.5-1.2344 0-.7656-.5-1.2656-.5-.5-1.2656-.5-.75 0-1.2344.5-.4844.48435-.4844 1.2187zm8.9688-.2812 1.0625-.0938q.0781.6563.35935 1.0625.28125.4063.85935.6719.5938.25 1.32815.25.64065 0 1.14065-.1875.5-.2031.73435-.53125.25-.34375.25-.73435 0-.4063-.23435-.70315-.2344-.3125-.76565-.51565-.35935-.1406-1.54685-.42185-1.1719-.28125-1.64065-.53125-.625-.3281-.92185-.7969-.2969-.48435-.2969-1.0781 0-.6406.3594-1.2031.375-.57815 1.0781-.8594.71875-.2969 1.5781-.2969.95315 0 1.6875.3125.7344.2969 1.125.9063.39065.5937.4219 1.3437l-1.09375.07815q-.09375-.8125-.60935-1.21875-.5-.4219-1.4844-.4219-1.03125 0-1.5.375-.46875.375-.46875.9063 0 .4687.32815.7656.3281.2969 1.7031.6094 1.3906.3125 1.90625.54685.75.35935 1.10935.89065.3594.5156.3594 1.2187 0 .6875-.3906 1.2969-.39065.59375-1.125.9375-.7344.3281-1.6563.3281-1.17185 0-1.9687-.3281-.7813-.34375-1.2344-1.03125-.4375-.6875-.4531-1.54685zm8.2187 2.7656v-8.59375h1.0625v8.59375zm2.64065-3.1094q0-1.73435.95315-2.5625.79685-.6875 1.9531-.6875 1.28125 0 2.09375.8438.82815.8281.82815 2.3125 0 1.2031-.3594 1.8906-.3594.6875-1.0625 1.0781-.6875.375-1.5.375-1.2969 0-2.1094-.8281-.79685-.84375-.79685-2.4219zm1.07815 0q0 1.1875.5156 1.7813.53125.5937 1.3125.5937.7969 0 1.3125-.5937.5156-.5938.5156-1.8125 0-1.1563-.5312-1.75-.51565-.5938-1.2969-.5938-.78125 0-1.3125.5938-.5156.5781-.5156 1.7812zm8.60935 2.1719.15625.9219q-.4531.0937-.7969.0937-.5781 0-.8906-.17185-.3125-.1875-.4531-.48435-.125-.2969-.125-1.25v-3.57815h-.76565v-.8125h.76565v-1.54685l1.04685-.625v2.17185h1.0625v.8125h-1.0625v3.64065q0 .4531.04685.5781.0625.125.1875.2031.125.07815.3594.07815.1875 0 .46875-.03125zm.28125-.9219 1.03125-.1562q.09375.625.48435.9531.4063.3281 1.14065.3281.71875 0 1.0625-.2812.35935-.2969.35935-.70315 0-.35935-.3125-.5625-.2187-.14065-1.0781-.35935-1.15625-.2969-1.6094-.5-.4375-.2188-.67185-.5938-.23435-.375-.23435-.8437 0-.4063.1875-.76565.1875-.35935.5156-.59375.25-.1719.6719-.2969.42185-.125.92185-.125.71875 0 1.26565.2188.5625.2031.8281.5625.2656.35935.3594.9531l-1.0313.1406q-.0625-.4687-.4062-.73435-.32815-.28125-.95315-.28125-.71875 0-1.03125.25-.3125.2344-.3125.5625 0 .2031.125.3594.1406.17185.40625.2812.15625.0625.9375.26565 1.125.3125 1.5625.5.4375.1875.6875.54685.25.3594.25.9063 0 .5312-.3125 1-.29685.4531-.875.7187-.57815.25-1.3125.25-1.21875 0-1.85935-.5-.625-.5156-.7969-1.5z" fill="#595959"/>
  <path d="m633 605.75c0 3.3137-2.6863 6-6 6s-6-2.6863-6-6 2.6863-6 6-6 6 2.6863 6 6z" fill="#fbbc04"/>
  <path d="m645.46875 609.75h-1.04685v-6.71875q-.39065.35935-1.01565.73435-.60935.3594-1.09375.5313v-1.01565q.875-.42185 1.53125-1 .67185-.59375.95315-1.15625h.67185zm8.5-6.4844-1.04685.07815q-.14065-.625-.39065-.90625-.4375-.4531-1.0625-.4531-.5 0-.89065.2812-.48435.375-.7812 1.07815-.2813.6875-.2969 1.96875.375-.5781.9219-.8594.5625-.2812 1.17185-.2812 1.04685 0 1.78125.7812.75.7813.75 2 0 .8125-.3594 1.51565-.3437.6875-.9531 1.0625-.6094.35935-1.375.35935-1.3281 0-2.15625-.9687-.82815-.9688-.82815-3.1875 0-2.5.9219-3.625.7969-.9844 2.15625-.9844 1.01565 0 1.65625.5781.65625.5625.78125 1.5625zm-4.29685 3.70315q0 .54685.2187 1.04685.2344.4844.64065.75.42185.26565.89065.26565.6562 0 1.1406-.53125.4844-.5469.4844-1.46875 0-.89065-.4844-1.40625-.46875-.5156-1.1875-.5156-.71875 0-1.21875.5156-.48435.5156-.48435 1.34375zm8.875.01565 1.0625-.0938q.0781.6563.35935 1.0625.28125.4063.85935.6719.5938.25 1.32815.25.64065 0 1.14065-.1875.5-.2031.73435-.53125.25-.34375.25-.73435 0-.4063-.23435-.70315-.2344-.3125-.76565-.51565-.35935-.1406-1.54685-.42185-1.1719-.28125-1.64065-.53125-.625-.3281-.92185-.7969-.2969-.48435-.2969-1.0781 0-.6406.3594-1.2031.375-.57815 1.0781-.8594.71875-.2969 1.5781-.2969.95315 0 1.6875.3125.7344.2969 1.125.9063.39065.5937.4219 1.3437l-1.09375.07815q-.09375-.8125-.60935-1.21875-.5-.4219-1.4844-.4219-1.03125 0-1.5.375-.46875.375-.46875.9063 0 .4687.32815.7656.3281.2969 1.7031.6094 1.3906.3125 1.90625.54685.75.35935 1.10935.89065.3594.5156.3594 1.2187 0 .6875-.3906 1.2969-.39065.59375-1.125.9375-.7344.3281-1.6563.3281-1.17185 0-1.9687-.3281-.7813-.34375-1.2344-1.03125-.4375-.6875-.4531-1.54685zm8.2187 2.7656v-8.59375h1.0625v8.59375zm2.64065-3.1094q0-1.73435.95315-2.5625.79685-.6875 1.9531-.6875 1.28125 0 2.09375.8438.82815.8281.82815 2.3125 0 1.2031-.3594 1.8906-.3594.6875-1.0625 1.0781-.6875.375-1.5.375-1.2969 0-2.1094-.8281-.79685-.84375-.79685-2.4219zm1.07815 0q0 1.1875.5156 1.7813.53125.5937 1.3125.5937.7969 0 1.3125-.5937.5156-.5938.5156-1.8125 0-1.1563-.5312-1.75-.51565-.5938-1.2969-.5938-.78125 0-1.3125.5938-.5156.5781-.5156 1.7812zm8.60935 2.1719.15625.9219q-.4531.0937-.7969.0937-.5781 0-.8906-.17185-.3125-.1875-.4531-.48435-.125-.2969-.125-1.25v-3.57815h-.76565v-.8125h.76565v-1.54685l1.04685-.625v2.17185h1.0625v.8125h-1.0625v3.64065q0 .4531.04685.5781.0625.125.1875.2031.125.07815.3594.07815.1875 0 .46875-.03125zm.28125-.9219 1.03125-.1562q.09375.625.48435.9531.4063.3281 1.14065.3281.71875 0 1.0625-.2812.35935-.2969.35935-.70315 0-.35935-.3125-.5625-.2187-.14065-1.0781-.35935-1.15625-.2969-1.6094-.5-.4375-.2188-.67185-.5938-.23435-.375-.23435-.8437 0-.4063.1875-.76565.1875-.35935.5156-.59375.25-.1719.6719-.2969.42185-.125.92185-.125.71875 0 1.26565.2188.5625.2031.8281.5625.2656.35935.3594.9531l-1.0313.1406q-.0625-.4687-.4062-.73435-.32815-.28125-.95315-.28125-.71875 0-1.03125.25-.3125.2344-.3125.5625 0 .2031.125.3594.1406.17185.40625.2812.15625.0625.9375.26565 1.125.3125 1.5625.5.4375.1875.6875.54685.25.3594.25.9063 0 .5312-.3125 1-.29685.4531-.875.7187-.57815.25-1.3125.25-1.21875 0-1.85935-.5-.625-.5156-.7969-1.5z" fill="#595959"/>
</svg>
