<?xml version="1.0"?>
<svg xmlns="http://www.w3.org/2000/svg" xmlns:xlink="http://www.w3.org/1999/xlink" fill="none" stroke-linecap="square" stroke-miterlimit="10" viewBox="0 0 1098 679">
  <clipPath id="a">
    <path d="m92.95 77.583336h971.1v515.466664h-971.1z"/>
  </clipPath>
  <path d="m0 0h1098v679h-1098z" fill="#fff"/>
  <g stroke-linecap="butt">
    <path d="m92.5 593.5h972" stroke="#ccc"/>
    <path d="m92.5 421.5h972" stroke="#ccc"/>
    <path d="m92.5 249.5h972" stroke="#ccc"/>
    <path d="m92.5 77.5h972" stroke="#ccc"/>
    <path d="m214.3375 577.05v16" stroke="#eee"/>
    <path d="m699.8875 449.90155v16" stroke="#eee"/>
    <path d="m942.6625 401.79132v16" stroke="#eee"/>
    <path d="m214.3375 577.05v16" stroke="#eee"/>
    <path d="m942.6625 219.65977v16" stroke="#eee"/>
    <path d="m214.3375 577.05v16" stroke="#eee"/>
    <path d="m457.1125 501.4482v16.00004" stroke="#eee"/>
    <path d="m699.8875 367.42688v16" stroke="#eee"/>
    <path d="m942.6625 109.69356v16" stroke="#eee"/>
    <path clip-path="url(#a)" d="m214.3375 593.05 242.775-37.8009 242.775-89.34755 242.775-48.11023" stroke="#4285f4" stroke-width="2"/>
    <path clip-path="url(#a)" d="m214.3375 593.05 242.775-48.11024 242.775-130.58486 242.775-178.69513" stroke="#ea4335" stroke-width="2"/>
    <path clip-path="url(#a)" d="m214.3375 593.05 242.775-75.60176 242.775-134.02136 242.775-257.73332" stroke="#34a853" stroke-width="2"/>
  </g>
  <path clip-path="url(#a)" d="m220.3375 593.05c0 3.3137-2.68629 6-6 6s-6-2.6863-6-6c0-3.31373 2.68629-6 6-6s6 2.68627 6 6z" fill="#4285f4"/>
  <path clip-path="url(#a)" d="m463.1125 555.2491c0 3.3137-2.6863 6-6 6s-6-2.6863-6-6 2.6863-6 6-6 6 2.6863 6 6z" fill="#4285f4"/>
  <path clip-path="url(#a)" d="m705.8875 465.90155c0 3.31372-2.68627 6-6 6-3.3137 0-6-2.68628-6-6 0-3.31369 2.6863-6 6-6 3.31373 0 6 2.68631 6 6z" fill="#4285f4"/>
  <path clip-path="url(#a)" d="m948.6625 417.79132c0 3.31372-2.6863 6-6 6s-6-2.68628-6-6c0-3.31369 2.6863-6 6-6s6 2.68631 6 6z" fill="#4285f4"/>
  <path clip-path="url(#a)" d="m220.3375 593.05c0 3.3137-2.68629 6-6 6s-6-2.6863-6-6c0-3.31373 2.68629-6 6-6s6 2.68627 6 6z" fill="#ea4335"/>
  <path clip-path="url(#a)" d="m463.1125 544.93976c0 3.31374-2.6863 6-6 6s-6-2.68626-6-6c0-3.31366 2.6863-6 6-6s6 2.68634 6 6z" fill="#ea4335"/>
  <path clip-path="url(#a)" d="m705.8875 414.3549c0 3.3137-2.68627 6-6 6-3.3137 0-6-2.6863-6-6 0-3.31373 2.6863-6 6-6 3.31373 0 6 2.68627 6 6z" fill="#ea4335"/>
  <path clip-path="url(#a)" d="m948.6625 235.65977c0 3.31371-2.6863 6-6 6s-6-2.68629-6-6c0-3.3137 2.6863-6 6-6s6 2.6863 6 6z" fill="#ea4335"/>
  <path clip-path="url(#a)" d="m220.3375 593.05c0 3.3137-2.68629 6-6 6s-6-2.6863-6-6c0-3.31373 2.68629-6 6-6s6 2.68627 6 6z" fill="#34a853"/>
  <path clip-path="url(#a)" d="m463.1125 517.44824c0 3.31366-2.6863 6-6 6s-6-2.68634-6-6c0-3.31374 2.6863-6.00004 6-6.00004s6 2.6863 6 6.00004z" fill="#34a853"/>
  <path clip-path="url(#a)" d="m705.8875 383.42688c0 3.31372-2.68627 6-6 6-3.3137 0-6-2.68628-6-6 0-3.31368 2.6863-6 6-6 3.31373 0 6 2.68632 6 6z" fill="#34a853"/>
  <path clip-path="url(#a)" d="m948.6625 125.69356c0 3.3137-2.6863 6-6 6s-6-2.6863-6-6c0-3.313715 2.6863-6 6-6s6 2.686285 6 6z" fill="#34a853"/>
  <path d="m215.30624 575.05h-1.04687v-6.71876q-.39063.35936-1.01563.73436-.60937.3594-1.09374.53126v-1.01562q.875-.42188 1.53124-1 .67188-.59374.95313-1.15624h.67187z" stroke="#fff" stroke-linecap="round" stroke-linejoin="round" stroke-width="3"/>
  <path d="m215.30624 575.05h-1.04687v-6.71876q-.39063.35936-1.01563.73436-.60937.3594-1.09374.53126v-1.01562q.875-.42188 1.53124-1 .67188-.59374.95313-1.15624h.67187z" fill="#4285f4"/>
  <path d="m471.31897 572.56335h-1.04687v-6.71875q-.39063.3594-1.01563.7344-.60937.35935-1.09375.5312v-1.0156q.875-.4219 1.53125-1 .67187-.59375.95313-1.15625h.67187zm3.59375 0v-1.20315h1.20312v1.20315q0 .65625-.23437 1.0625-.23437.42185-.73437.64065l-.29688-.45315q.32812-.14065.48438-.4375.15624-.28125.1875-.8125zm6.40625 0h-1.04687v-6.71875q-.39063.3594-1.01563.7344-.60937.35935-1.09375.5312v-1.0156q.875-.4219 1.53125-1 .67187-.59375.95313-1.15625h.67187zm7 0h-1.04687v-6.71875q-.39063.3594-1.01563.7344-.60937.35935-1.09375.5312v-1.0156q.875-.4219 1.53125-1 .67187-.59375.95313-1.15625h.67187z" stroke="#fff" stroke-linecap="round" stroke-linejoin="round" stroke-width="3"/>
  <path d="m471.31897 572.56335h-1.04687v-6.71875q-.39063.3594-1.01563.7344-.60937.35935-1.09375.5312v-1.0156q.875-.4219 1.53125-1 .67187-.59375.95313-1.15625h.67187zm3.59375 0v-1.20315h1.20312v1.20315q0 .65625-.23437 1.0625-.23437.42185-.73437.64065l-.29688-.45315q.32812-.14065.48438-.4375.15624-.28125.1875-.8125zm6.40625 0h-1.04687v-6.71875q-.39063.3594-1.01563.7344-.60937.35935-1.09375.5312v-1.0156q.875-.4219 1.53125-1 .67187-.59375.95313-1.15625h.67187zm7 0h-1.04687v-6.71875q-.39063.3594-1.01563.7344-.60937.35935-1.09375.5312v-1.0156q.875-.4219 1.53125-1 .67187-.59375.95313-1.15625h.67187z" fill="#4285f4"/>
  <path d="m692.35626 447.90155h-1.04686v-6.71875q-.39064.35938-1.01564.73438-.60936.35937-1.09376.53125v-1.01563q.875-.42187 1.53126-1 .67188-.59375.95314-1.15625h.67186zm3.59374 0v-1.20312h1.20314v1.20312q0 .65625-.23438 1.0625-.23436.42188-.73436.64063l-.2969-.45313q.32814-.14062.4844-.4375.15624-.28125.1875-.8125zm2.4375-2.26562 1.0625-.14063q.1719.89063.6094 1.29688.4375.39062 1.0625.39062.75 0 1.2656-.51562.51564-.51563.51564-1.28125 0-.71875-.48438-1.1875-.46876-.48438-1.20312-.48438-.29688 0-.75.125l.125-.9375q.10936.01563.17186.01563.6719 0 1.20314-.34375.54686-.35938.54686-1.09375 0-.57813-.3906-.95313-.39064-.39062-1.01564-.39062-.60936 0-1.03126.39062-.40624.39063-.5156 1.15625l-1.0625-.1875q.1875-1.04687.875-1.625.6875-.59375 1.7031-.59375.70314 0 1.2969.3125.59374.29688.90624.8125.3125.51563.3125 1.10938 0 .54687-.29688 1.01562-.29686.45313-.875.71875.75.17188 1.17188.73438.42186.54687.42186 1.39062 0 1.125-.8281 1.90625-.8125.78125-2.0625.78125-1.125 0-1.875-.67187-.75-.6875-.8594-1.75zm7.0625-5.20313v-1.01562h5.5625v.82812q-.8125.875-1.625 2.32813-.79686 1.4375-1.23436 2.96875-.32814 1.07812-.40624 2.35937h-1.09376q.01562-1.01562.39062-2.45312.39064-1.4375 1.09374-2.76563.71876-1.32812 1.53126-2.25z" stroke="#fff" stroke-linecap="round" stroke-linejoin="round" stroke-width="3"/>
  <path d="m692.35626 447.90155h-1.04686v-6.71875q-.39064.35938-1.01564.73438-.60936.35937-1.09376.53125v-1.01563q.875-.42187 1.53126-1 .67188-.59375.95314-1.15625h.67186zm3.59374 0v-1.20312h1.20314v1.20312q0 .65625-.23438 1.0625-.23436.42188-.73436.64063l-.2969-.45313q.32814-.14062.4844-.4375.15624-.28125.1875-.8125zm2.4375-2.26562 1.0625-.14063q.1719.89063.6094 1.29688.4375.39062 1.0625.39062.75 0 1.2656-.51562.51564-.51563.51564-1.28125 0-.71875-.48438-1.1875-.46876-.48438-1.20312-.48438-.29688 0-.75.125l.125-.9375q.10936.01563.17186.01563.6719 0 1.20314-.34375.54686-.35938.54686-1.09375 0-.57813-.3906-.95313-.39064-.39062-1.01564-.39062-.60936 0-1.03126.39062-.40624.39063-.5156 1.15625l-1.0625-.1875q.1875-1.04687.875-1.625.6875-.59375 1.7031-.59375.70314 0 1.2969.3125.59374.29688.90624.8125.3125.51563.3125 1.10938 0 .54687-.29688 1.01562-.29686.45313-.875.71875.75.17188 1.17188.73438.42186.54687.42186 1.39062 0 1.125-.8281 1.90625-.8125.78125-2.0625.78125-1.125 0-1.875-.67187-.75-.6875-.8594-1.75zm7.0625-5.20313v-1.01562h5.5625v.82812q-.8125.875-1.625 2.32813-.79686 1.4375-1.23436 2.96875-.32814 1.07812-.40624 2.35937h-1.09376q.01562-1.01562.39062-2.45312.39064-1.4375 1.09374-2.76563.71876-1.32812 1.53126-2.25z" fill="#4285f4"/>
  <path d="m935.1312 399.79132h-1.04685v-6.71875q-.39065.35938-1.01565.73438-.60935.35937-1.0937.53125v-1.01563q.875-.42187 1.5312-1 .6719-.59375.95315-1.15625h.67185zm3.5938 0v-1.20312h1.2031v1.20312q0 .65625-.2344 1.0625-.23435.42188-.73435.64063l-.29685-.45313q.3281-.14062.48435-.4375.15625-.28125.1875-.8125zm2.4375-2.25 1.10935-.09375q.125.8125.5625 1.21875.45315.40625 1.09375.40625.75 0 1.28125-.57812.53125-.57813.53125-1.51563 0-.90625-.5156-1.42187-.5-.53125-1.32815-.53125-.5 0-.92185.23437-.4063.23438-.64065.59375l-.98435-.125.8281-4.40625h4.28125v1h-3.4375l-.45315 2.3125q.76565-.54687 1.6094-.54687 1.125 0 1.8906.78125.7813.78125.7813 2.01562 0 1.15625-.6719 2.01563-.8281 1.03125-2.25 1.03125-1.1719 0-1.9219-.65625-.73435-.65625-.8437-1.73438zm10.9687 2.25h-1.04685v-6.71875q-.39065.35938-1.01565.73438-.60935.35937-1.0937.53125v-1.01563q.875-.42187 1.5312-1 .6719-.59375.95315-1.15625h.67185z" stroke="#fff" stroke-linecap="round" stroke-linejoin="round" stroke-width="3"/>
  <path d="m935.1312 399.79132h-1.04685v-6.71875q-.39065.35938-1.01565.73438-.60935.35937-1.0937.53125v-1.01563q.875-.42187 1.5312-1 .6719-.59375.95315-1.15625h.67185zm3.5938 0v-1.20312h1.2031v1.20312q0 .65625-.2344 1.0625-.23435.42188-.73435.64063l-.29685-.45313q.3281-.14062.48435-.4375.15625-.28125.1875-.8125zm2.4375-2.25 1.10935-.09375q.125.8125.5625 1.21875.45315.40625 1.09375.40625.75 0 1.28125-.57812.53125-.57813.53125-1.51563 0-.90625-.5156-1.42187-.5-.53125-1.32815-.53125-.5 0-.92185.23437-.4063.23438-.64065.59375l-.98435-.125.8281-4.40625h4.28125v1h-3.4375l-.45315 2.3125q.76565-.54687 1.6094-.54687 1.125 0 1.8906.78125.7813.78125.7813 2.01562 0 1.15625-.6719 2.01563-.8281 1.03125-2.25 1.03125-1.1719 0-1.9219-.65625-.73435-.65625-.8437-1.73438zm10.9687 2.25h-1.04685v-6.71875q-.39065.35938-1.01565.73438-.60935.35937-1.0937.53125v-1.01563q.875-.42187 1.5312-1 .6719-.59375.95315-1.15625h.67185z" fill="#4285f4"/>
  <path d="m215.30624 575.05h-1.04687v-6.71876q-.39063.35936-1.01563.73436-.60937.3594-1.09374.53126v-1.01562q.875-.42188 1.53124-1 .67188-.59374.95313-1.15624h.67187z" stroke="#fff" stroke-linecap="round" stroke-linejoin="round" stroke-width="3"/>
  <path d="m215.30624 575.05h-1.04687v-6.71876q-.39063.35936-1.01563.73436-.60937.3594-1.09374.53126v-1.01562q.875-.42188 1.53124-1 .67188-.59374.95313-1.15624h.67187z" fill="#ea4335"/>
  <path d="m465.8903 526.7363h-1.0469v-6.7187q-.3906.35935-1.0156.73435-.6094.35935-1.09376.53125v-1.0156q.875-.4219 1.53126-1 .67186-.5938.9531-1.1563h.6719zm3.59374 0v-1.2031h1.20312v1.2031q0 .6563-.23436 1.0625-.2344.4219-.7344.64065l-.29686-.45315q.32812-.1406.48436-.4375.15626-.2812.1875-.8125zm6.40626 0h-1.0469v-6.7187q-.3906.35935-1.0156.73435-.6094.35935-1.09376.53125v-1.0156q.875-.4219 1.53126-1 .67186-.5938.9531-1.1563h.6719zm6.40624 0v-2.0625h-3.71874v-.9687l3.92186-5.5625h.85938v5.5625h1.15626v.9687h-1.15626v2.0625zm0-3.0312v-3.8594l-2.6875 3.8594z" stroke="#fff" stroke-linecap="round" stroke-linejoin="round" stroke-width="3"/>
  <path d="m465.8903 526.7363h-1.0469v-6.7187q-.3906.35935-1.0156.73435-.6094.35935-1.09376.53125v-1.0156q.875-.4219 1.53126-1 .67186-.5938.9531-1.1563h.6719zm3.59374 0v-1.2031h1.20312v1.2031q0 .6563-.23436 1.0625-.2344.4219-.7344.64065l-.29686-.45315q.32812-.1406.48436-.4375.15626-.2812.1875-.8125zm6.40626 0h-1.0469v-6.7187q-.3906.35935-1.0156.73435-.6094.35935-1.09376.53125v-1.0156q.875-.4219 1.53126-1 .67186-.5938.9531-1.1563h.6719zm6.40624 0v-2.0625h-3.71874v-.9687l3.92186-5.5625h.85938v5.5625h1.15626v.9687h-1.15626v2.0625zm0-3.0312v-3.8594l-2.6875 3.8594z" fill="#ea4335"/>
  <path d="m721.62555 417.85672h-1.04685v-6.71875q-.39065.35937-1.01565.73437-.60935.35938-1.09375.53126v-1.01563q.875-.42187 1.53125-1 .67185-.59375.95315-1.15625h.67185zm3.59375 0v-1.20312h1.2031v1.20312q0 .65625-.23435 1.0625-.23435.42188-.73435.64062l-.2969-.45312q.3281-.14062.4844-.4375.1562-.28125.1875-.8125zm2.4375-2.25 1.1094-.09375q.125.8125.5625 1.21875.4531.40625 1.0937.40625.75 0 1.2813-.57813.5312-.57812.5312-1.51562 0-.90625-.5156-1.42188-.5-.53124-1.3281-.53124-.5 0-.9219.23437-.40625.23437-.6406.59375l-.9844-.125.8281-4.40625h4.2813v1h-3.4375l-.45315 2.3125q.76565-.54687 1.60935-.54687 1.125 0 1.89065.78124.78125.78126.78125 2.01563 0 1.15625-.6719 2.01563-.8281 1.03124-2.25 1.03124-1.17185 0-1.92185-.65624-.73435-.65626-.84375-1.73438zm12.5469 1.23438v1.01562h-5.6875q0-.375.125-.73438.2187-.57812.6875-1.14062.48435-.5625 1.3906-1.29688 1.40625-1.15624 1.8906-1.82812.5-.67188.5-1.26562 0-.625-.4531-1.04688-.4531-.4375-1.1719-.4375-.7656 0-1.2187.45312-.45315.45313-.4688 1.26563l-1.0781-.10937q.1094-1.21876.8281-1.84376.7344-.64062 1.9688-.64062 1.23435 0 1.9531.6875.71875.6875.71875 1.70312 0 .51563-.21875 1.01563-.2031.48437-.7031 1.04687-.4844.54688-1.6094 1.5-.9531.79688-1.2344 1.09376-.2656.28124-.4375.5625z" stroke="#fff" stroke-linecap="round" stroke-linejoin="round" stroke-width="3"/>
  <path d="m721.62555 417.85672h-1.04685v-6.71875q-.39065.35937-1.01565.73437-.60935.35938-1.09375.53126v-1.01563q.875-.42187 1.53125-1 .67185-.59375.95315-1.15625h.67185zm3.59375 0v-1.20312h1.2031v1.20312q0 .65625-.23435 1.0625-.23435.42188-.73435.64062l-.2969-.45312q.3281-.14062.4844-.4375.1562-.28125.1875-.8125zm2.4375-2.25 1.1094-.09375q.125.8125.5625 1.21875.4531.40625 1.0937.40625.75 0 1.2813-.57813.5312-.57812.5312-1.51562 0-.90625-.5156-1.42188-.5-.53124-1.3281-.53124-.5 0-.9219.23437-.40625.23437-.6406.59375l-.9844-.125.8281-4.40625h4.2813v1h-3.4375l-.45315 2.3125q.76565-.54687 1.60935-.54687 1.125 0 1.89065.78124.78125.78126.78125 2.01563 0 1.15625-.6719 2.01563-.8281 1.03124-2.25 1.03124-1.17185 0-1.92185-.65624-.73435-.65626-.84375-1.73438zm12.5469 1.23438v1.01562h-5.6875q0-.375.125-.73438.2187-.57812.6875-1.14062.48435-.5625 1.3906-1.29688 1.40625-1.15624 1.8906-1.82812.5-.67188.5-1.26562 0-.625-.4531-1.04688-.4531-.4375-1.1719-.4375-.7656 0-1.2187.45312-.45315.45313-.4688 1.26563l-1.0781-.10937q.1094-1.21876.8281-1.84376.7344-.64062 1.9688-.64062 1.23435 0 1.9531.6875.71875.6875.71875 1.70312 0 .51563-.21875 1.01563-.2031.48437-.7031 1.04687-.4844.54688-1.6094 1.5-.9531.79688-1.2344 1.09376-.2656.28124-.4375.5625z" fill="#ea4335"/>
  <path d="m936.70935 216.64415v1.01562h-5.6875q0-.375.125-.73437.21875-.57813.6875-1.14063.48435-.5625 1.39065-1.29687 1.4062-1.15625 1.8906-1.82813.5-.67187.5-1.26562 0-.625-.4531-1.04688-.45315-.4375-1.1719-.4375-.7656 0-1.21875.45313-.45315.45312-.46875 1.26562l-1.0781-.10937q.10935-1.21875.8281-1.84375.7344-.64063 1.96875-.64063 1.23435 0 1.95315.6875.7187.6875.7187 1.70313 0 .51562-.2187 1.01562-.20315.48438-.70315 1.04688-.48435.54687-1.60935 1.5-.95315.79687-1.2344 1.09375-.2656.28125-.4375.5625zm2.01565 1.01562v-1.20312h1.2031v1.20312q0 .65625-.2344 1.0625-.23435.42188-.73435.64063l-.29685-.45313q.3281-.14062.48435-.4375.15625-.28125.1875-.8125zm2.4375-4.23437q0-1.53125.3125-2.45313.3125-.9375.92185-1.4375.625-.5 1.5625-.5.6875 0 1.20315.28125.5312.28125.875.8125.3437.51563.5312 1.26563.1875.75.1875 2.03125 0 1.51562-.3125 2.4375-.29685.92187-.92185 1.4375-.60935.5-1.5625.5-1.23435 0-1.95315-.89063-.8437-1.0625-.8437-3.48437zm1.0781 0q0 2.10937.5 2.8125.5.70312 1.21875.70312.73435 0 1.21875-.70312.5-.70313.5-2.8125 0-2.125-.5-2.8125-.4844-.70313-1.2344-.70313-.7187 0-1.1562.60938-.5469.78125-.5469 2.90625zm9.2969 4.23437v-2.0625h-3.7188v-.96875l3.9219-5.5625h.8594v5.5625h1.1562v.96875h-1.1562v2.0625zm0-3.03125v-3.85937l-2.6875 3.85937z" stroke="#fff" stroke-linecap="round" stroke-linejoin="round" stroke-width="3"/>
  <path d="m936.70935 216.64415v1.01562h-5.6875q0-.375.125-.73437.21875-.57813.6875-1.14063.48435-.5625 1.39065-1.29687 1.4062-1.15625 1.8906-1.82813.5-.67187.5-1.26562 0-.625-.4531-1.04688-.45315-.4375-1.1719-.4375-.7656 0-1.21875.45313-.45315.45312-.46875 1.26562l-1.0781-.10937q.10935-1.21875.8281-1.84375.7344-.64063 1.96875-.64063 1.23435 0 1.95315.6875.7187.6875.7187 1.70313 0 .51562-.2187 1.01562-.20315.48438-.70315 1.04688-.48435.54687-1.60935 1.5-.95315.79687-1.2344 1.09375-.2656.28125-.4375.5625zm2.01565 1.01562v-1.20312h1.2031v1.20312q0 .65625-.2344 1.0625-.23435.42188-.73435.64063l-.29685-.45313q.3281-.14062.48435-.4375.15625-.28125.1875-.8125zm2.4375-4.23437q0-1.53125.3125-2.45313.3125-.9375.92185-1.4375.625-.5 1.5625-.5.6875 0 1.20315.28125.5312.28125.875.8125.3437.51563.5312 1.26563.1875.75.1875 2.03125 0 1.51562-.3125 2.4375-.29685.92187-.92185 1.4375-.60935.5-1.5625.5-1.23435 0-1.95315-.89063-.8437-1.0625-.8437-3.48437zm1.0781 0q0 2.10937.5 2.8125.5.70312 1.21875.70312.73435 0 1.21875-.70312.5-.70313.5-2.8125 0-2.125-.5-2.8125-.4844-.70313-1.2344-.70313-.7187 0-1.1562.60938-.5469.78125-.5469 2.90625zm9.2969 4.23437v-2.0625h-3.7188v-.96875l3.9219-5.5625h.8594v5.5625h1.1562v.96875h-1.1562v2.0625zm0-3.03125v-3.85937l-2.6875 3.85937z" fill="#ea4335"/>
  <path d="m215.30624 575.05h-1.04687v-6.71876q-.39063.35936-1.01563.73436-.60937.3594-1.09374.53126v-1.01562q.875-.42188 1.53124-1 .67188-.59374.95313-1.15624h.67187z" stroke="#fff" stroke-linecap="round" stroke-linejoin="round" stroke-width="3"/>
  <path d="m215.30624 575.05h-1.04687v-6.71876q-.39063.35936-1.01563.73436-.60937.3594-1.09374.53126v-1.01562q.875-.42188 1.53124-1 .67188-.59374.95313-1.15624h.67187z" fill="#34a853"/>
  <path d="m449.58124 499.4482h-1.04688v-6.71874q-.39062.35938-1.01562.73438-.60938.35936-1.09374.53126v-1.01564q.875-.42186 1.53124-1 .67186-.59376.95312-1.15626h.67188zm3.59376 0v-1.2031h1.2031v1.2031q0 .65626-.23436 1.0625-.23438.4219-.73438.64064l-.29686-.45314q.3281-.1406.48436-.4375.15624-.28124.1875-.8125zm7.98436-1.0156v1.0156h-5.6875q0-.375.125-.73436.21874-.57814.6875-1.14064.48438-.5625 1.39064-1.29686 1.40624-1.15624 1.8906-1.82814.5-.67186.5-1.2656 0-.625-.4531-1.0469-.45314-.4375-1.1719-.4375-.7656 0-1.21874.45314-.45312.45312-.46876 1.26562l-1.0781-.10936q.10936-1.21876.8281-1.84376.7344-.64064 1.96876-.64064 1.23438 0 1.95314.6875.71874.6875.71874 1.70314 0 .51562-.21874 1.01562-.20314.48438-.70314 1.04688-.48436.54686-1.60936 1.5-.95314.79686-1.2344 1.09376-.2656.28124-.4375.5625zm7 0v1.0156h-5.6875q0-.375.125-.73436.21874-.57814.6875-1.14064.48438-.5625 1.39064-1.29686 1.40624-1.15624 1.8906-1.82814.5-.67186.5-1.2656 0-.625-.4531-1.0469-.45314-.4375-1.1719-.4375-.7656 0-1.21874.45314-.45312.45312-.46876 1.26562l-1.0781-.10936q.10936-1.21876.8281-1.84376.7344-.64064 1.96876-.64064 1.23438 0 1.95314.6875.71874.6875.71874 1.70314 0 .51562-.21874 1.01562-.20314.48438-.70314 1.04688-.48436.54686-1.60936 1.5-.95314.79686-1.2344 1.09376-.2656.28124-.4375.5625z" stroke="#fff" stroke-linecap="round" stroke-linejoin="round" stroke-width="3"/>
  <path d="m449.58124 499.4482h-1.04688v-6.71874q-.39062.35938-1.01562.73438-.60938.35936-1.09374.53126v-1.01564q.875-.42186 1.53124-1 .67186-.59376.95312-1.15626h.67188zm3.59376 0v-1.2031h1.2031v1.2031q0 .65626-.23436 1.0625-.23438.4219-.73438.64064l-.29686-.45314q.3281-.1406.48436-.4375.15624-.28124.1875-.8125zm7.98436-1.0156v1.0156h-5.6875q0-.375.125-.73436.21874-.57814.6875-1.14064.48438-.5625 1.39064-1.29686 1.40624-1.15624 1.8906-1.82814.5-.67186.5-1.2656 0-.625-.4531-1.0469-.45314-.4375-1.1719-.4375-.7656 0-1.21874.45314-.45312.45312-.46876 1.26562l-1.0781-.10936q.10936-1.21876.8281-1.84376.7344-.64064 1.96876-.64064 1.23438 0 1.95314.6875.71874.6875.71874 1.70314 0 .51562-.21874 1.01562-.20314.48438-.70314 1.04688-.48436.54686-1.60936 1.5-.95314.79686-1.2344 1.09376-.2656.28124-.4375.5625zm7 0v1.0156h-5.6875q0-.375.125-.73436.21874-.57814.6875-1.14064.48438-.5625 1.39064-1.29686 1.40624-1.15624 1.8906-1.82814.5-.67186.5-1.2656 0-.625-.4531-1.0469-.45314-.4375-1.1719-.4375-.7656 0-1.21874.45314-.45312.45312-.46876 1.26562l-1.0781-.10936q.10936-1.21876.8281-1.84376.7344-.64064 1.96876-.64064 1.23438 0 1.95314.6875.71874.6875.71874 1.70314 0 .51562-.21874 1.01562-.20314.48438-.70314 1.04688-.48436.54686-1.60936 1.5-.95314.79686-1.2344 1.09376-.2656.28124-.4375.5625z" fill="#34a853"/>
  <path d="m692.35626 365.42688h-1.04686v-6.71875q-.39064.35937-1.01564.73437-.60936.35938-1.09376.53125v-1.01562q.875-.42188 1.53126-1 .67188-.59375.95314-1.15625h.67186zm3.59374 0v-1.20313h1.20314v1.20313q0 .65625-.23438 1.0625-.23436.42187-.73436.64062l-.2969-.45312q.32814-.14063.4844-.4375.15624-.28125.1875-.8125zm7.90626-6.48438-1.04686.07813q-.14064-.625-.39064-.90625-.4375-.45313-1.0625-.45313-.5 0-.89062.28125-.48438.375-.78124 1.07813-.28126.6875-.2969 1.96875.375-.57813.9219-.85938.5625-.28125 1.17186-.28125 1.04688 0 1.78124.78125.75.78125.75 2 0 .8125-.35936 1.51563-.34374.6875-.95314 1.0625-.60936.35937-1.375.35937-1.3281 0-2.15624-.96875-.82812-.96875-.82812-3.1875 0-2.5.92186-3.625.7969-.98437 2.15626-.98437 1.01564 0 1.65624.57812.65626.5625.78126 1.5625zm-4.29686 3.70313q0 .54687.21874 1.04687.23436.48438.64062.75.42188.26563.89064.26563.65624 0 1.1406-.53125.4844-.54688.4844-1.46875 0-.89063-.4844-1.40625-.46874-.51563-1.1875-.51563-.71874 0-1.21874.51563-.48436.51562-.48436 1.34375zm9.79686 2.78125h-1.04686v-6.71875q-.39064.35937-1.01564.73437-.60936.35938-1.09376.53125v-1.01562q.875-.42188 1.53126-1 .67188-.59375.95314-1.15625h.67186z" stroke="#fff" stroke-linecap="round" stroke-linejoin="round" stroke-width="3"/>
  <path d="m692.35626 365.42688h-1.04686v-6.71875q-.39064.35937-1.01564.73437-.60936.35938-1.09376.53125v-1.01562q.875-.42188 1.53126-1 .67188-.59375.95314-1.15625h.67186zm3.59374 0v-1.20313h1.20314v1.20313q0 .65625-.23438 1.0625-.23436.42187-.73436.64062l-.2969-.45312q.32814-.14063.4844-.4375.15624-.28125.1875-.8125zm7.90626-6.48438-1.04686.07813q-.14064-.625-.39064-.90625-.4375-.45313-1.0625-.45313-.5 0-.89062.28125-.48438.375-.78124 1.07813-.28126.6875-.2969 1.96875.375-.57813.9219-.85938.5625-.28125 1.17186-.28125 1.04688 0 1.78124.78125.75.78125.75 2 0 .8125-.35936 1.51563-.34374.6875-.95314 1.0625-.60936.35937-1.375.35937-1.3281 0-2.15624-.96875-.82812-.96875-.82812-3.1875 0-2.5.92186-3.625.7969-.98437 2.15626-.98437 1.01564 0 1.65624.57812.65626.5625.78126 1.5625zm-4.29686 3.70313q0 .54687.21874 1.04687.23436.48438.64062.75.42188.26563.89064.26563.65624 0 1.1406-.53125.4844-.54688.4844-1.46875 0-.89063-.4844-1.40625-.46874-.51563-1.1875-.51563-.71874 0-1.21874.51563-.48436.51562-.48436 1.34375zm9.79686 2.78125h-1.04686v-6.71875q-.39064.35937-1.01564.73437-.60936.35938-1.09376.53125v-1.01562q.875-.42188 1.53126-1 .67188-.59375.95314-1.15625h.67186z" fill="#34a853"/>
  <path d="m936.70935 106.67793v1.01563h-5.6875q0-.375.125-.73438.21875-.57812.6875-1.14062.48435-.5625 1.39065-1.29688 1.4062-1.15625 1.8906-1.82812.5-.67188.5-1.26563 0-.625-.4531-1.04687-.45315-.4375-1.1719-.4375-.7656 0-1.21875.45312-.45315.45313-.46875 1.26563l-1.0781-.10938q.10935-1.21875.8281-1.84375.7344-.64062 1.96875-.64062 1.23435 0 1.95315.6875.7187.6875.7187 1.70312 0 .51563-.2187 1.01563-.20315.48437-.70315 1.04687-.48435.54688-1.60935 1.5-.95315.79688-1.2344 1.09375-.2656.28125-.4375.5625zm2.01565 1.01563v-1.20313h1.2031v1.20313q0 .65625-.2344 1.0625-.23435.42187-.73435.64062l-.29685-.45312q.3281-.14063.48435-.4375.15625-.28125.1875-.8125zm2.4375-2.26563 1.0625-.14062q.17185.89062.60935 1.29687.4375.39063 1.0625.39063.75 0 1.26565-.51563.5156-.51562.5156-1.28125 0-.71875-.4844-1.1875-.4687-.48437-1.2031-.48437-.2969 0-.75.125l.125-.9375q.1094.01562.1719.01562.67185 0 1.2031-.34375.5469-.35937.5469-1.09375 0-.57812-.39065-.95312-.39065-.39063-1.01565-.39063-.60935 0-1.0312.39063-.4063.39062-.51565 1.15625l-1.0625-.1875q.1875-1.04688.875-1.625.6875-.59375 1.70315-.59375.7031 0 1.29685.3125.59375.29687.90625.8125.3125.51562.3125 1.10937 0 .54688-.2969 1.01563-.29685.45312-.875.71875.75.17187 1.1719.73437.4219.54688.4219 1.39063 0 1.125-.82815 1.90625-.8125.78125-2.0625.78125-1.125 0-1.875-.67188-.75-.6875-.85935-1.75zm12.4687-4.21875-1.04685.07813q-.14065-.625-.39065-.90625-.4375-.45313-1.0625-.45313-.5 0-.8906.28125-.4844.375-.78125 1.07813-.28125.6875-.29685 1.96875.375-.57813.92185-.85938.5625-.28125 1.17185-.28125 1.0469 0 1.7813.78125.75.78125.75 2 0 .8125-.3594 1.51563-.34375.6875-.9531 1.0625-.6094.35937-1.375.35937-1.32815 0-2.1563-.96875-.8281-.96875-.8281-3.1875 0-2.5.9219-3.625.79685-.98437 2.1562-.98437 1.01565 0 1.6563.57812.6562.5625.7812 1.5625zm-4.29685 3.70313q0 .54687.21875 1.04687.2344.48438.6406.75.4219.26563.89065.26563.65625 0 1.14065-.53125.48435-.54688.48435-1.46875 0-.89063-.48435-1.40625-.4688-.51563-1.1875-.51563-.7188 0-1.2188.51563-.48435.51562-.48435 1.34375z" stroke="#fff" stroke-linecap="round" stroke-linejoin="round" stroke-width="3"/>
  <path d="m936.70935 106.67793v1.01563h-5.6875q0-.375.125-.73438.21875-.57812.6875-1.14062.48435-.5625 1.39065-1.29688 1.4062-1.15625 1.8906-1.82812.5-.67188.5-1.26563 0-.625-.4531-1.04687-.45315-.4375-1.1719-.4375-.7656 0-1.21875.45312-.45315.45313-.46875 1.26563l-1.0781-.10938q.10935-1.21875.8281-1.84375.7344-.64062 1.96875-.64062 1.23435 0 1.95315.6875.7187.6875.7187 1.70312 0 .51563-.2187 1.01563-.20315.48437-.70315 1.04687-.48435.54688-1.60935 1.5-.95315.79688-1.2344 1.09375-.2656.28125-.4375.5625zm2.01565 1.01563v-1.20313h1.2031v1.20313q0 .65625-.2344 1.0625-.23435.42187-.73435.64062l-.29685-.45312q.3281-.14063.48435-.4375.15625-.28125.1875-.8125zm2.4375-2.26563 1.0625-.14062q.17185.89062.60935 1.29687.4375.39063 1.0625.39063.75 0 1.26565-.51563.5156-.51562.5156-1.28125 0-.71875-.4844-1.1875-.4687-.48437-1.2031-.48437-.2969 0-.75.125l.125-.9375q.1094.01562.1719.01562.67185 0 1.2031-.34375.5469-.35937.5469-1.09375 0-.57812-.39065-.95312-.39065-.39063-1.01565-.39063-.60935 0-1.0312.39063-.4063.39062-.51565 1.15625l-1.0625-.1875q.1875-1.04688.875-1.625.6875-.59375 1.70315-.59375.7031 0 1.29685.3125.59375.29687.90625.8125.3125.51562.3125 1.10937 0 .54688-.2969 1.01563-.29685.45312-.875.71875.75.17187 1.1719.73437.4219.54688.4219 1.39063 0 1.125-.82815 1.90625-.8125.78125-2.0625.78125-1.125 0-1.875-.67188-.75-.6875-.85935-1.75zm12.4687-4.21875-1.04685.07813q-.14065-.625-.39065-.90625-.4375-.45313-1.0625-.45313-.5 0-.8906.28125-.4844.375-.78125 1.07813-.28125.6875-.29685 1.96875.375-.57813.92185-.85938.5625-.28125 1.17185-.28125 1.0469 0 1.7813.78125.75.78125.75 2 0 .8125-.3594 1.51563-.34375.6875-.9531 1.0625-.6094.35937-1.375.35937-1.32815 0-2.1563-.96875-.8281-.96875-.8281-3.1875 0-2.5.9219-3.625.79685-.98437 2.1562-.98437 1.01565 0 1.6563.57812.6562.5625.7812 1.5625zm-4.29685 3.70313q0 .54687.21875 1.04687.2344.48438.6406.75.4219.26563.89065.26563.65625 0 1.14065-.53125.48435-.54688.48435-1.46875 0-.89063-.48435-1.40625-.4688-.51563-1.1875-.51563-.7188 0-1.2188.51563-.48435.51562-.48435 1.34375z" fill="#34a853"/>
  <path d="m559.1094 642.05v-7.57814h-2.82815v-1.01562h6.8125v1.01562h-2.84375v7.57814zm4.6875 0v-8.59376h1.04685v3.07812q.73435-.84376 1.85935-.84376.70315 0 1.20315.28126.51565.26564.73435.75.2188.46874.2188 1.39064v3.9375h-1.0469v-3.9375q0-.7969-.34375-1.15626-.34375-.35938-.96875-.35938-.46875 0-.8906.25-.4063.23438-.5938.65624-.17185.40626-.17185 1.14064v3.40626zm6.98435 0v-6.21876h.95315v.9375q.35935-.65624.6562-.85938.3125-.21876.6875-.21876.5313 0 1.07815.32814l-.35935.98436q-.39065-.23436-.76565-.23436-.35935 0-.64065.21876-.2656.2031-.375.5781-.1875.5625-.1875 1.21876v3.26564zm8.26565-2 1.0937.125q-.25.9531-.9531 1.48436-.7031.53124-1.78125.53124-1.35935 0-2.17185-.84374-.7969-.84376-.7969-2.35936 0-1.5625.8125-2.4219.8125-.875 2.09375-.875 1.25 0 2.03125.84376.7969.84374.7969 2.39064 0 .09374 0 .28124h-4.64065q.0625 1.03126.57815 1.57812.5156.53124 1.29685.53124.57815 0 .98435-.29686.4219-.3125.6563-.96874zm-3.45315-1.70314h3.46875q-.0625-.79686-.3906-1.1875-.51565-.60936-1.3125-.60936-.7344 0-1.2344.48436-.4844.48438-.53125 1.3125zm10.26565 2.9375q-.5938.5-1.14065.70314-.53125.2031-1.15625.2031-1.03125 0-1.5781-.5-.5469-.5-.5469-1.28124 0-.45312.2031-.82812.20315-.39064.5469-.60938.34375-.23436.7656-.34376.2969-.09374.9375-.17186 1.26565-.14064 1.875-.35938 0-.21876 0-.26562 0-.65624-.29685-.92188-.40625-.34376-1.20315-.34376-.73435 0-1.0937.26564-.3594.25-.5313.90626l-1.0312-.14064q.1406-.65626.4687-1.0625.32815-.40626.9375-.625.6094-.21876 1.4063-.21876.79685 0 1.29685.1875.5.1875.73435.46876.2344.28124.32815.71874.04685.26564.04685.96876v1.40624q0 1.46876.0625 1.8594.07815.3906.2813.75h-1.1094q-.15625-.32814-.2031-.76564zm-.0938-2.35936q-.5781.23436-1.7187.40624-.6563.09376-.9219.21876-.2656.10936-.4219.3281-.1406.21876-.1406.5 0 .4219.3125.70314.3281.28126.9375.28126.6094 0 1.0781-.26564.4844-.26562.70315-.73436.17185-.3594.17185-1.0469zm7.0625 3.125v-.78126q-.5937.92186-1.73435.92186-.75 0-1.375-.40624-.625-.42186-.96875-1.15626-.34375-.73436-.34375-1.6875 0-.92186.3125-1.6875.3125-.7656.9375-1.15624.625-.40626 1.39065-.40626.5625 0 1 .2344.4375.23436.7187.60936v-3.07812h1.0469v8.59376zm-3.3281-3.1094q0 1.20314.5 1.7969.5.5781 1.1875.5781.6875 0 1.1719-.5625.48435-.5625.48435-1.71874 0-1.28126-.5-1.875-.48435-.59376-1.20315-.59376-.7031 0-1.17185.57814-.46875.5625-.46875 1.79686zm5.875 1.25 1.03125-.15624q.09375.625.48435.95314.4063.3281 1.14065.3281.71875 0 1.0625-.28124.35935-.29686.35935-.70312 0-.35938-.3125-.5625-.2187-.14064-1.0781-.35938-1.15625-.29686-1.6094-.5-.4375-.21876-.67185-.59376-.23435-.375-.23435-.84374 0-.40626.1875-.76562.1875-.35938.5156-.59374.25-.1719.6719-.2969.42185-.125.92185-.125.71875 0 1.26565.21876.5625.20314.8281.5625.2656.35938.3594.95314l-1.0313.1406q-.0625-.46874-.4062-.73436-.32815-.28124-.95315-.28124-.71875 0-1.03125.25-.3125.23436-.3125.5625 0 .2031.125.35936.1406.17188.40625.28124.15625.0625.9375.26564 1.125.3125 1.5625.5.4375.1875.6875.54686.25.3594.25.90626 0 .53124-.3125 1-.29685.45314-.875.71874-.57815.25-1.3125.25-1.21875 0-1.85935-.5-.625-.5156-.7969-1.5z" fill="#000"/>
  <path d="m42.184364 366.2698-.09375-1.0625q.65625-.07812 1.0625-.35937.40625-.28125.671876-.85937.25-.59376.25-1.32813 0-.64063-.1875-1.14063-.203126-.5-.53125-.73437-.34375-.25-.734376-.25-.40625 0-.703124.23437-.3125.23438-.515626.76563-.140624.35937-.421874 1.54687-.28125 1.17188-.53125 1.64063-.328126.625-.796876.92187-.484374.29688-1.078124.29688-.640626 0-1.203126-.35938-.578124-.375-.859374-1.07812-.296876-.71875-.296876-1.57812 0-.95313.3125-1.6875.296876-.73438.90625-1.125.59375-.39063 1.34375-.42188l.078126 1.09375q-.8125.09375-1.21875.60937-.421876.5-.421876 1.48438 0 1.03125.375 1.5.375.46875.90625.46875.46875 0 .765626-.32813.296874-.32812.609374-1.70312.3125-1.39062.546876-1.90625.359374-.75.890624-1.10937.515626-.35938 1.21875-.35938.6875 0 1.296876.39062.59375.39063.9375 1.125.328124.73438.328124 1.65626 0 1.17187-.328124 1.96874-.34375.78126-1.03125 1.23438-.6875.4375-1.546876.45312zm5.15625-8.25h-8.609374v-.95312h.796874q-.46875-.34375-.703124-.76562-.234376-.4375-.234376-1.04688 0-.79688.40625-1.40625.40625-.60937 1.15625-.90625.75-.3125 1.640626-.3125.953124 0 1.71875.34375.765624.32813 1.171874.98437.40625.65626.40625 1.375 0 .53126-.21875.95313-.234374.42187-.5625.6875h3.03125zm-5.46875-.95312q1.203126 0 1.78125-.48438.5625-.48437.5625-1.17187 0-.70313-.59375-1.20313-.59375-.5-1.84375-.5-1.1875 0-1.765624.48438-.59375.48438-.59375 1.17188 0 .67187.625 1.1875.625.51562 1.828124.51562zm1.078126-10.29688.125-1.09374q.953124.25 1.484374.95312.53125.70312.53125 1.78125 0 1.35937-.84375 2.17187-.84375.79688-2.359374.79688-1.5625 0-2.421876-.8125-.875-.8125-.875-2.09375 0-1.25.84375-2.03125.84375-.79688 2.390626-.79688.09375 0 .28125 0v4.64063q1.03125-.0625 1.578124-.57813.53125-.51562.53125-1.29687 0-.57813-.296874-.98437-.3125-.42188-.96875-.65626zm-1.703126 3.45313v-3.46875q-.796874.0625-1.1875.39062-.609374.51563-.609374 1.3125 0 .73438.484374 1.23438.484376.48438 1.3125.53125zm1.703126-10.45313.125-1.09374q.953124.25 1.484374.95312.53125.70312.53125 1.78125 0 1.35937-.84375 2.17187-.84375.79688-2.359374.79688-1.5625 0-2.421876-.8125-.875-.8125-.875-2.09375 0-1.25.84375-2.03125.84375-.79688 2.390626-.79688.09375 0 .28125 0v4.64063q1.03125-.0625 1.578124-.57813.53125-.51562.53125-1.29687 0-.57813-.296874-.98437-.3125-.42188-.96875-.65626zm-1.703126 3.45313v-3.46875q-.796874.0625-1.1875.39062-.609374.51563-.609374 1.3125 0 .73438.484374 1.23438.484376.48438 1.3125.53125zm3.703126-10.23437h-.78125q.921874.59374.921874 1.73437 0 .75-.40625 1.375-.421874.625-1.15625.96875-.734374.34375-1.6875.34375-.921874 0-1.6875-.3125-.765624-.3125-1.15625-.9375-.40625-.625-.40625-1.39063 0-.5625.234376-1 .234374-.4375.609374-.71874h-3.078124v-1.04688h8.59375zm-3.109376 3.32812q1.203126 0 1.796876-.5.578124-.5.578124-1.1875 0-.6875-.5625-1.17188-.5625-.48437-1.71875-.48437-1.28125 0-1.875.5-.59375.48437-.59375 1.20313 0 .70312.578126 1.17187.5625.46875 1.796874.46875zm3.109376-10.375h-.921876q1.0625.73438 1.0625 1.98438 0 .54687-.203124 1.03124-.21875.46876-.53125.70313-.328126.23437-.796876.32813-.296874.0625-.984374.0625h-3.84375v-1.0625h3.453124q.8125 0 1.109376-.0625.40625-.09376.65625-.40626.234374-.32812.234374-.8125 0-.46874-.234374-.875-.25-.42187-.671876-.59374-.421874-.1875-1.21875-.1875h-3.328124v-1.04688h6.21875zm2.390624-2.92188h-8.609374v-.95312h.796874q-.46875-.34375-.703124-.76562-.234376-.4375-.234376-1.04688 0-.79688.40625-1.40625.40625-.60937 1.15625-.90625.75-.3125 1.640626-.3125.953124 0 1.71875.34375.765624.32813 1.171874.98437.40625.65626.40625 1.375 0 .53126-.21875.95313-.234374.42187-.5625.6875h3.03125zm-5.46875-.95312q1.203126 0 1.78125-.48438.5625-.48437.5625-1.17187 0-.70313-.59375-1.20313-.59375-.5-1.84375-.5-1.1875 0-1.765624.48438-.59375.48438-.59375 1.17188 0 .67187.625 1.1875.625.51562 1.828124.51562z" fill="#000"/>
  <path d="m84.41875 597.05h-1.04688v-6.71876q-.39062.35936-1.01562.73436-.60938.3594-1.09375.53126v-1.01562q.875-.42188 1.53125-1 .67187-.59374.95312-1.15624h.67188z" fill="#000"/>
  <path d="m74.41875 425.22778h-1.04688v-6.71875q-.39062.35937-1.01562.73437-.60938.35938-1.09375.53126v-1.01563q.875-.42187 1.53125-1 .67187-.59375.95312-1.15625h.67188zm3.59375 0v-1.20312h1.20312v1.20312q0 .65625-.23437 1.0625-.23438.42188-.73438.64062l-.29687-.45312q.32812-.14062.48437-.4375.15625-.28125.1875-.8125zm2.4375-2.25 1.10937-.09375q.125.8125.5625 1.21875.45313.40625 1.09375.40625.75 0 1.28125-.57813.53125-.57812.53125-1.51562 0-.90625-.51562-1.42188-.5-.53124-1.32813-.53124-.5 0-.92187.23437-.40625.23437-.64063.59375l-.98437-.125.82812-4.40625h4.28125v1h-3.4375l-.45312 2.3125q.76562-.54687 1.60937-.54687 1.125 0 1.89063.78124.78125.78126.78125 2.01563 0 1.15625-.67188 2.01563-.82812 1.03124-2.25 1.03124-1.17187 0-1.92187-.65624-.73438-.65626-.84375-1.73438z" fill="#000"/>
  <path d="m85.99687 252.38992v1.01563h-5.6875q0-.375.125-.73438.21875-.57812.6875-1.14062.48438-.5625 1.39063-1.29688 1.40625-1.15625 1.89062-1.82812.5-.67188.5-1.26563 0-.625-.45312-1.04687-.45313-.4375-1.17188-.4375-.76562 0-1.21875.45312-.45312.45313-.46875 1.26563l-1.07812-.10938q.10937-1.21875.82812-1.84375.73438-.64062 1.96875-.64062 1.23438 0 1.95313.6875.71875.6875.71875 1.70312 0 .51563-.21875 1.01563-.20313.48437-.70313 1.04687-.48437.54688-1.60937 1.5-.95313.79688-1.23438 1.09375-.26562.28125-.4375.5625z" fill="#000"/>
  <path d="m75.99687 80.56771v1.015626h-5.6875q0-.375.125-.734376.21875-.578124.6875-1.140624.48438-.5625 1.39063-1.296876 1.40625-1.15625 1.89062-1.828124.5-.671876.5-1.265626 0-.625-.45312-1.046874-.45313-.4375-1.17188-.4375-.76562 0-1.21875.453124-.45312.453126-.46875 1.265626l-1.07812-.109376q.10937-1.21875.82812-1.84375.73438-.640624 1.96875-.640624 1.23438 0 1.95313.6875.71875.6875.71875 1.703124 0 .515626-.21875 1.015626-.20313.484374-.70313 1.046874-.48437.546876-1.60937 1.5-.95313.796876-1.23438 1.09375-.26562.28125-.4375.5625zm2.01563 1.015626v-1.203126h1.20312v1.203126q0 .65625-.23437 1.0625-.23438.421874-.73438.640624l-.29687-.453124q.32812-.140626.48437-.4375.15625-.28125.1875-.8125zm2.4375-2.25 1.10937-.09375q.125.8125.5625 1.21875.45313.40625 1.09375.40625.75 0 1.28125-.578126.53125-.578124.53125-1.515624 0-.90625-.51562-1.421876-.5-.53125-1.32813-.53125-.5 0-.92187.234376-.40625.234374-.64063.59375l-.98437-.125.82812-4.40625h4.28125v1h-3.4375l-.45312 2.3125q.76562-.546876 1.60937-.546876 1.125 0 1.89063.78125.78125.78125.78125 2.015626 0 1.15625-.67188 2.015624-.82812 1.03125-2.25 1.03125-1.17187 0-1.92187-.65625-.73438-.65625-.84375-1.734374z" fill="#000"/>
  <path d="m215.30624 610.05h-1.04687v-6.71876q-.39063.35936-1.01563.73436-.60937.3594-1.09374.53126v-1.01562q.875-.42188 1.53124-1 .67188-.59374.95313-1.15624h.67187z" fill="#000"/>
  <path d="m459.65936 609.03436v1.01564h-5.6875q0-.375.125-.7344.21874-.5781.6875-1.1406.48438-.5625 1.39064-1.2969 1.40624-1.15624 1.8906-1.8281.5-.6719.5-1.26564 0-.625-.4531-1.04686-.45314-.4375-1.1719-.4375-.7656 0-1.21874.4531-.45312.45314-.46876 1.26564l-1.0781-.10938q.10936-1.21876.8281-1.84376.7344-.6406 1.96876-.6406 1.23438 0 1.95314.6875.71874.6875.71874 1.7031 0 .51564-.21874 1.01564-.20314.48436-.70314 1.04686-.48436.5469-1.60936 1.5-.95314.7969-1.2344 1.09376-.2656.28124-.4375.5625z" fill="#000"/>
  <path d="m700.2625 610.05v-2.0625h-3.71874v-.96876l3.92188-5.5625h.85936v5.5625h1.15626v.96876h-1.15626v2.0625zm0-3.03126v-3.85938l-2.6875 3.85938z" fill="#000"/>
  <path d="m941.2875 605.39374q-.6563-.25-.9844-.6875-.3125-.45314-.3125-1.0625 0-.9375.6719-1.57814.6875-.6406 1.79685-.6406 1.125 0 1.8125.65624.6875.65626.6875 1.59376 0 .59374-.3125 1.03124-.3125.4375-.95315.6875.7969.25 1.20315.82812.40625.57814.40625 1.375 0 1.09374-.78125 1.84374-.76565.75-2.04685.75-1.26565 0-2.0469-.75-.78125-.75-.78125-1.875 0-.84374.42185-1.40624.4375-.5625 1.2188-.76562zm-.2188-1.79688q0 .60938.39065 1 .40625.39064 1.03125.39064.6094 0 1-.375.3906-.39064.3906-.95314 0-.57812-.4062-.96876-.4063-.40624-1-.40624-.6094 0-1.01565.39064-.39065.3906-.39065.92186zm-.3281 3.96874q0 .45314.2031.875.2188.4219.64065.65626.42185.23438.90625.23438.75 0 1.2344-.48438.5-.48436.5-1.23436 0-.76564-.5-1.26564-.5-.5-1.26565-.5-.75 0-1.23435.5-.4844.48438-.4844 1.21874z" fill="#000"/>
  <path d="m398 40.95c0 3.31371-2.68628 6-6 6s-6-2.68629-6-6 2.68628-6 6-6 6 2.68629 6 6z" fill="#4285f4"/>
  <path d="m412.04688 43.934376v1.015624h-5.6875q0-.375.125-.734374.21874-.578126.6875-1.140626.48437-.5625 1.39062-1.296874 1.40625-1.15625 1.89062-1.828126.5-.671874.5-1.265624 0-.625-.45312-1.046876-.45312-.4375-1.17188-.4375-.76562 0-1.21874.453126-.45313.453124-.46876 1.265624l-1.07812-.109374q.10938-1.21875.82812-1.84375.73438-.640626 1.96876-.640626 1.23437 0 1.95312.6875.71875.6875.71875 1.703126 0 .515624-.21875 1.015624-.20312.484376-.70312 1.046876-.48438.546874-1.60938 1.5-.95312.796874-1.23438 1.09375-.26562.28125-.4375.5625zm1.45312-3.21875q0-1.53125.3125-2.453126.3125-.9375.92188-1.4375.625-.5 1.5625-.5.6875 0 1.20312.28125.53125.28125.875.8125.34375.515626.53125 1.265626.1875.75.1875 2.03125 0 1.515624-.3125 2.4375-.29687.921874-.92187 1.4375-.60938.5-1.5625.5-1.23438 0-1.95313-.890626-.84375-1.0625-.84375-3.484374zm1.07812 0q0 2.109374.5 2.8125.5.703124 1.21876.703124.73437 0 1.21874-.703124.5-.703126.5-2.8125 0-2.125-.5-2.8125-.48437-.703126-1.23437-.703126-.71875 0-1.15625.609376-.54688.78125-.54688 2.90625zm5.92188 0q0-1.53125.3125-2.453126.3125-.9375.92188-1.4375.625-.5 1.5625-.5.6875 0 1.20312.28125.53125.28125.875.8125.34375.515626.53125 1.265626.1875.75.1875 2.03125 0 1.515624-.3125 2.4375-.29687.921874-.92187 1.4375-.60938.5-1.5625.5-1.23438 0-1.95313-.890626-.84375-1.0625-.84375-3.484374zm1.07812 0q0 2.109374.5 2.8125.5.703124 1.21876.703124.73437 0 1.21874-.703124.5-.703126.5-2.8125 0-2.125-.5-2.8125-.48437-.703126-1.23437-.703126-.71875 0-1.15625.609376-.54688.78125-.54688 2.90625zm5.92188 0q0-1.53125.3125-2.453126.3125-.9375.92188-1.4375.625-.5 1.5625-.5.6875 0 1.20312.28125.53125.28125.875.8125.34375.515626.53125 1.265626.1875.75.1875 2.03125 0 1.515624-.3125 2.4375-.29687.921874-.92187 1.4375-.60938.5-1.5625.5-1.23438 0-1.95313-.890626-.84375-1.0625-.84375-3.484374zm1.07812 0q0 2.109374.5 2.8125.5.703124 1.21876.703124.73437 0 1.21874-.703124.5-.703126.5-2.8125 0-2.125-.5-2.8125-.48437-.703126-1.23437-.703126-.71875 0-1.15625.609376-.54688.78125-.54688 2.90625zm9.34376 4.234374v-8.59375h3.25q.84374 0 1.29687.078126.64063.109374 1.0625.40625.4375.296874.6875.828124.26563.53125.26563 1.171876 0 1.09375-.70313 1.859374-.6875.75-2.51563.75h-2.20312v3.5zm1.14062-4.5h2.21875q1.10937 0 1.5625-.40625.46875-.421874.46875-1.171874 0-.53125-.28125-.90625-.26563-.390626-.70313-.515626-.29687-.078124-1.0625-.078124h-2.20312zm10.79688 3.734376q-.59376.5-1.14063.703124-.53125.203126-1.15625.203126-1.03125 0-1.57812-.5-.54688-.5-.54688-1.28125 0-.453126.20312-.828126.20313-.390624.54688-.609374.34375-.234376.76562-.34375.29688-.09375.9375-.171876 1.26563-.140624 1.875-.359374 0-.21875 0-.265626 0-.65625-.29687-.921874-.40625-.34375-1.20313-.34375-.73437 0-1.09374.265624-.35938.25-.53126.90625l-1.03124-.140624q.14062-.65625.46874-1.0625.32813-.40625.9375-.625.60938-.21875 1.40626-.21875.79687 0 1.29687.1875.5.1875.73437.46875.23438.28125.32813.71875.04687.265624.04687.96875v1.40625q0 1.46875.0625 1.859374.07813.390626.28126.75h-1.10938q-.15625-.328124-.20312-.765624zm-.09376-2.359376q-.57812.234376-1.71874.40625-.65626.09375-.92188.21875-.26562.109376-.42188.328126-.14062.21875-.14062.5 0 .421874.3125.703124.32812.28125.9375.28125.60938 0 1.07812-.265624.48438-.265626.70313-.734376.17187-.359374.17187-1.046874zm3.01563 3.125v-6.21875h.95313v.9375q.35937-.65625.65624-.859374.3125-.21875.6875-.21875.53126 0 1.07813.328124l-.35937.984376q-.39063-.234376-.76563-.234376-.35937 0-.64063.21875-.26562.203126-.375.578126-.1875.5625-.1875 1.21875v3.265624zm6.3125-.9375.15625.921876q-.45312.09375-.79688.09375-.57812 0-.89062-.171876-.3125-.1875-.45312-.484374-.125-.296876-.125-1.25v-3.578126h-.76563v-.8125h.76563v-1.546874l1.04687-.625v2.171874h1.0625v.8125h-1.0625v3.640626q0 .453124.04687.578124.0625.125.1875.203126.125.078124.35938.078124.1875 0 .46875-.03125zm.70313-6.4375v-1.21875h1.0625v1.21875zm0 7.375v-6.21875h1.0625v6.21875zm7.0625-2.28125 1.03124.140626q-.17187 1.0625-.875 1.671874-.70312.609376-1.71874.609376-1.28126 0-2.0625-.828126-.76563-.84375-.76563-2.40625 0-1 .32813-1.75.34374-.765624 1.01562-1.140624.6875-.375 1.5-.375 1 0 1.64062.515624.65626.5.84376 1.453126l-1.03126.15625q-.14062-.625-.51562-.9375-.375-.328126-.90625-.328126-.79687 0-1.29687.578126-.5.5625-.5 1.796874 0 1.265626.48437 1.828126.48437.5625 1.25.5625.625 0 1.03125-.375.42188-.375.54688-1.171876zm1.90624 2.28125v-8.59375h1.0625v8.59375zm7.28126-2 1.09374.125q-.25.953126-.95312 1.484376-.70312.53125-1.78125.53125-1.35937 0-2.17187-.84375-.79688-.84375-.79688-2.359376 0-1.5625.8125-2.421874.8125-.875 2.09375-.875 1.25 0 2.03125.84375.79688.84375.79688 2.390624 0 .09375 0 .28125h-4.64063q.0625 1.03125.57813 1.578126.51562.53125 1.29687.53125.57813 0 .98437-.296876.42188-.3125.65626-.96875zm-3.45313-1.703124h3.46875q-.0625-.796876-.39062-1.1875-.51563-.609376-1.3125-.609376-.73438 0-1.23438.484376-.48438.484374-.53125 1.3125zm5.78125 1.84375 1.03125-.15625q.09375.625.48437.953124.40626.328126 1.14063.328126.71875 0 1.0625-.28125.35937-.296876.35937-.703126 0-.359374-.3125-.5625-.21874-.140624-1.07812-.359374-1.15625-.296876-1.60938-.5-.4375-.21875-.67187-.59375-.23437-.375-.23437-.84375 0-.40625.1875-.765626.1875-.359374.51562-.59375.25-.171874.67188-.296874.42187-.125.92187-.125.71875 0 1.26563.21875.5625.203124.82812.5625.26562.359374.35938.953124l-1.03126.140626q-.0625-.46875-.40624-.734376-.32813-.28125-.95313-.28125-.71875 0-1.03125.25-.3125.234376-.3125.5625 0 .203126.125.359376.14062.171874.40625.28125.15625.0625.9375.265624 1.125.3125 1.5625.5.4375.1875.6875.546876.25.359374.25.90625 0 .53125-.3125 1-.29687.453124-.875.71875-.57813.25-1.3125.25-1.21875 0-1.85937-.5-.625-.515626-.79688-1.5z" fill="#1a1a1a"/>
  <path d="m512 40.95c0 3.31371-2.68628 6-6 6s-6-2.68629-6-6 2.68628-6 6-6 6 2.68629 6 6z" fill="#ea4335"/>
  <path d="m523.875 44.95v-2.0625h-3.71875v-.96875l3.92185-5.5625h.8594v5.5625h1.15625v.96875h-1.15625v2.0625zm0-3.03125v-3.859374l-2.6875 3.859374zm3.625-1.203124q0-1.53125.3125-2.453126.3125-.9375.9219-1.4375.625-.5 1.5625-.5.6875 0 1.2031.28125.53125.28125.875.8125.34375.515626.53125 1.265626.1875.75.1875 2.03125 0 1.515624-.3125 2.4375-.29685.921874-.92185 1.4375-.6094.5-1.5625.5-1.2344 0-1.95315-.890626-.84375-1.0625-.84375-3.484374zm1.0781 0q0 2.109374.5 2.8125.5.703124 1.2188.703124.73435 0 1.2187-.703124.5-.703126.5-2.8125 0-2.125-.5-2.8125-.48435-.703126-1.23435-.703126-.71875 0-1.15625.609376-.5469.78125-.5469 2.90625zm5.9219 0q0-1.53125.3125-2.453126.3125-.9375.9219-1.4375.625-.5 1.5625-.5.6875 0 1.2031.28125.53125.28125.875.8125.34375.515626.53125 1.265626.1875.75.1875 2.03125 0 1.515624-.3125 2.4375-.29685.921874-.92185 1.4375-.6094.5-1.5625.5-1.2344 0-1.95315-.890626-.84375-1.0625-.84375-3.484374zm1.0781 0q0 2.109374.5 2.8125.5.703124 1.2188.703124.73435 0 1.2187-.703124.5-.703126.5-2.8125 0-2.125-.5-2.8125-.48435-.703126-1.23435-.703126-.71875 0-1.15625.609376-.5469.78125-.5469 2.90625zm5.9219 0q0-1.53125.3125-2.453126.3125-.9375.9219-1.4375.625-.5 1.5625-.5.6875 0 1.2031.28125.53125.28125.875.8125.34375.515626.53125 1.265626.1875.75.1875 2.03125 0 1.515624-.3125 2.4375-.29685.921874-.92185 1.4375-.6094.5-1.5625.5-1.2344 0-1.95315-.890626-.84375-1.0625-.84375-3.484374zm1.0781 0q0 2.109374.5 2.8125.5.703124 1.2188.703124.73435 0 1.2187-.703124.5-.703126.5-2.8125 0-2.125-.5-2.8125-.48435-.703126-1.23435-.703126-.71875 0-1.15625.609376-.5469.78125-.5469 2.90625zm9.3438 4.234374v-8.59375h3.25q.8437 0 1.29685.078126.64065.109374 1.0625.40625.4375.296874.6875.828124.26565.53125.26565 1.171876 0 1.09375-.70315 1.859374-.6875.75-2.51565.75h-2.2031v3.5zm1.1406-4.5h2.21875q1.10935 0 1.5625-.40625.46875-.421874.46875-1.171874 0-.53125-.28125-.90625-.26565-.390626-.70315-.515626-.29685-.078124-1.0625-.078124h-2.2031zm10.7969 3.734376q-.5938.5-1.14065.703124-.53125.203126-1.15625.203126-1.03125 0-1.5781-.5-.5469-.5-.5469-1.28125 0-.453126.2031-.828126.20315-.390624.5469-.609374.34375-.234376.7656-.34375.2969-.09375.9375-.171876 1.26565-.140624 1.875-.359374 0-.21875 0-.265626 0-.65625-.29685-.921874-.40625-.34375-1.20315-.34375-.73435 0-1.0937.265624-.3594.25-.5313.90625l-1.0312-.140624q.1406-.65625.4687-1.0625.32815-.40625.9375-.625.6094-.21875 1.4063-.21875.79685 0 1.29685.1875.5.1875.73435.46875.2344.28125.32815.71875.04685.265624.04685.96875v1.40625q0 1.46875.0625 1.859374.07815.390626.2813.75h-1.1094q-.15625-.328124-.2031-.765624zm-.0938-2.359376q-.5781.234376-1.7187.40625-.6563.09375-.9219.21875-.2656.109376-.4219.328126-.1406.21875-.1406.5 0 .421874.3125.703124.3281.28125.9375.28125.6094 0 1.0781-.265624.4844-.265626.70315-.734376.17185-.359374.17185-1.046874zm3.01565 3.125v-6.21875h.95315v.9375q.35935-.65625.6562-.859374.3125-.21875.6875-.21875.5313 0 1.07815.328124l-.35935.984376q-.39065-.234376-.76565-.234376-.35935 0-.64065.21875-.2656.203126-.375.578126-.1875.5625-.1875 1.21875v3.265624zm6.3125-.9375.15625.921876q-.4531.09375-.7969.09375-.5781 0-.8906-.171876-.3125-.1875-.4531-.484374-.125-.296876-.125-1.25v-3.578126h-.76565v-.8125h.76565v-1.546874l1.04685-.625v2.171874h1.0625v.8125h-1.0625v3.640626q0 .453124.04685.578124.0625.125.1875.203126.125.078124.3594.078124.1875 0 .46875-.03125zm.70315-6.4375v-1.21875h1.0625v1.21875zm0 7.375v-6.21875h1.0625v6.21875zm7.0625-2.28125 1.0312.140626q-.17185 1.0625-.875 1.671874-.7031.609376-1.7187.609376-1.2813 0-2.0625-.828126-.76565-.84375-.76565-2.40625 0-1 .32815-1.75.3437-.765624 1.0156-1.140624.6875-.375 1.5-.375 1 0 1.6406.515624.6563.5.8438 1.453126l-1.0313.15625q-.1406-.625-.5156-.9375-.375-.328126-.90625-.328126-.79685 0-1.29685.578126-.5.5625-.5 1.796874 0 1.265626.48435 1.828126.48435.5625 1.25.5625.625 0 1.03125-.375.4219-.375.5469-1.171876zm1.9062 2.28125v-8.59375h1.0625v8.59375zm7.2813-2 1.0937.125q-.25.953126-.9531 1.484376-.7031.53125-1.78125.53125-1.35935 0-2.17185-.84375-.7969-.84375-.7969-2.359376 0-1.5625.8125-2.421874.8125-.875 2.09375-.875 1.25 0 2.03125.84375.7969.84375.7969 2.390624 0 .09375 0 .28125h-4.64065q.0625 1.03125.57815 1.578126.5156.53125 1.29685.53125.57815 0 .98435-.296876.4219-.3125.6563-.96875zm-3.45315-1.703124h3.46875q-.0625-.796876-.3906-1.1875-.51565-.609376-1.3125-.609376-.7344 0-1.2344.484376-.4844.484374-.53125 1.3125zm5.78125 1.84375 1.03125-.15625q.09375.625.48435.953124.4063.328126 1.14065.328126.71875 0 1.0625-.28125.35935-.296876.35935-.703126 0-.359374-.3125-.5625-.2187-.140624-1.0781-.359374-1.15625-.296876-1.6094-.5-.4375-.21875-.67185-.59375-.23435-.375-.23435-.84375 0-.40625.1875-.765626.1875-.359374.5156-.59375.25-.171874.6719-.296874.42185-.125.92185-.125.71875 0 1.26565.21875.5625.203124.8281.5625.2656.359374.3594.953124l-1.0313.140626q-.0625-.46875-.4062-.734376-.32815-.28125-.95315-.28125-.71875 0-1.03125.25-.3125.234376-.3125.5625 0 .203126.125.359376.1406.171874.40625.28125.15625.0625.9375.265624 1.125.3125 1.5625.5.4375.1875.6875.546876.25.359374.25.90625 0 .53125-.3125 1-.29685.453124-.875.71875-.57815.25-1.3125.25-1.21875 0-1.85935-.5-.625-.515626-.7969-1.5z" fill="#1a1a1a"/>
  <path d="m626 40.95c0 3.31371-2.6863 6-6 6s-6-2.68629-6-6 2.6863-6 6-6 6 2.68629 6 6z" fill="#34a853"/>
  <path d="m636.125 40.29375q-.65625-.25-.9844-.6875-.3125-.453124-.3125-1.0625 0-.9375.6719-1.578124.6875-.640626 1.7969-.640626 1.125 0 1.8125.65625.6875.65625.6875 1.59375 0 .59375-.3125 1.03125-.3125.4375-.95315.6875.79685.25 1.20315.828126.4062.578124.4062 1.375 0 1.09375-.7812 1.84375-.76565.75-2.0469.75-1.2656 0-2.0469-.75-.7812-.75-.7812-1.875 0-.84375.42185-1.40625.4375-.5625 1.21875-.765626zm-.21875-1.796874q0 .609374.39065 1 .4062.390624 1.0312.390624.6094 0 1-.375.39065-.390624.39065-.953124 0-.578126-.40625-.96875-.40625-.40625-1-.40625-.6094 0-1.0156.390624-.39065.390626-.39065.921876zm-.32815 3.96875q0 .453124.20315.875.21875.421874.64065.65625.42185.234374.9062.234374.75 0 1.2344-.484374.5-.484376.5-1.234376 0-.765624-.5-1.265624-.5-.5-1.2656-.5-.75 0-1.2344.5-.4844.484374-.4844 1.21875zm5.9219-1.75q0-1.53125.3125-2.453126.3125-.9375.9219-1.4375.625-.5 1.5625-.5.6875 0 1.2031.28125.53125.28125.875.8125.34375.515626.53125 1.265626.1875.75.1875 2.03125 0 1.515624-.3125 2.4375-.29685.921874-.92185 1.4375-.6094.5-1.5625.5-1.2344 0-1.95315-.890626-.84375-1.0625-.84375-3.484374zm1.0781 0q0 2.109374.5 2.8125.5.703124 1.2188.703124.73435 0 1.2187-.703124.5-.703126.5-2.8125 0-2.125-.5-2.8125-.48435-.703126-1.23435-.703126-.71875 0-1.15625.609376-.5469.78125-.5469 2.90625zm5.9219 0q0-1.53125.3125-2.453126.3125-.9375.9219-1.4375.625-.5 1.5625-.5.6875 0 1.2031.28125.53125.28125.875.8125.34375.515626.53125 1.265626.1875.75.1875 2.03125 0 1.515624-.3125 2.4375-.29685.921874-.92185 1.4375-.6094.5-1.5625.5-1.2344 0-1.95315-.890626-.84375-1.0625-.84375-3.484374zm1.0781 0q0 2.109374.5 2.8125.5.703124 1.2188.703124.73435 0 1.2187-.703124.5-.703126.5-2.8125 0-2.125-.5-2.8125-.48435-.703126-1.23435-.703126-.71875 0-1.15625.609376-.5469.78125-.5469 2.90625zm5.9219 0q0-1.53125.3125-2.453126.3125-.9375.9219-1.4375.625-.5 1.5625-.5.6875 0 1.2031.28125.53125.28125.875.8125.34375.515626.53125 1.265626.1875.75.1875 2.03125 0 1.515624-.3125 2.4375-.29685.921874-.92185 1.4375-.6094.5-1.5625.5-1.2344 0-1.95315-.890626-.84375-1.0625-.84375-3.484374zm1.0781 0q0 2.109374.5 2.8125.5.703124 1.2188.703124.73435 0 1.2187-.703124.5-.703126.5-2.8125 0-2.125-.5-2.8125-.48435-.703126-1.23435-.703126-.71875 0-1.15625.609376-.5469.78125-.5469 2.90625zm9.3438 4.234374v-8.59375h3.25q.8437 0 1.29685.078126.64065.109374 1.0625.40625.4375.296874.6875.828124.26565.53125.26565 1.171876 0 1.09375-.70315 1.859374-.6875.75-2.51565.75h-2.2031v3.5zm1.1406-4.5h2.21875q1.10935 0 1.5625-.40625.46875-.421874.46875-1.171874 0-.53125-.28125-.90625-.26565-.390626-.70315-.515626-.29685-.078124-1.0625-.078124h-2.2031zm10.7969 3.734376q-.5938.5-1.14065.703124-.53125.203126-1.15625.203126-1.03125 0-1.5781-.5-.5469-.5-.5469-1.28125 0-.453126.2031-.828126.20315-.390624.5469-.609374.34375-.234376.7656-.34375.2969-.09375.9375-.171876 1.26565-.140624 1.875-.359374 0-.21875 0-.265626 0-.65625-.29685-.921874-.40625-.34375-1.20315-.34375-.73435 0-1.0937.265624-.3594.25-.5313.90625l-1.0312-.140624q.1406-.65625.4687-1.0625.32815-.40625.9375-.625.6094-.21875 1.4063-.21875.79685 0 1.29685.1875.5.1875.73435.46875.2344.28125.32815.71875.04685.265624.04685.96875v1.40625q0 1.46875.0625 1.859374.07815.390626.2813.75h-1.1094q-.15625-.328124-.2031-.765624zm-.0938-2.359376q-.5781.234376-1.7187.40625-.6563.09375-.9219.21875-.2656.109376-.4219.328126-.1406.21875-.1406.5 0 .421874.3125.703124.3281.28125.9375.28125.6094 0 1.0781-.265624.4844-.265626.70315-.734376.17185-.359374.17185-1.046874zm3.01565 3.125v-6.21875h.95315v.9375q.35935-.65625.6562-.859374.3125-.21875.6875-.21875.5313 0 1.07815.328124l-.35935.984376q-.39065-.234376-.76565-.234376-.35935 0-.64065.21875-.2656.203126-.375.578126-.1875.5625-.1875 1.21875v3.265624zm6.3125-.9375.15625.921876q-.4531.09375-.7969.09375-.5781 0-.8906-.171876-.3125-.1875-.4531-.484374-.125-.296876-.125-1.25v-3.578126h-.76565v-.8125h.76565v-1.546874l1.04685-.625v2.171874h1.0625v.8125h-1.0625v3.640626q0 .453124.04685.578124.0625.125.1875.203126.125.078124.3594.078124.1875 0 .46875-.03125zm.70315-6.4375v-1.21875h1.0625v1.21875zm0 7.375v-6.21875h1.0625v6.21875zm7.0625-2.28125 1.0312.140626q-.17185 1.0625-.875 1.671874-.7031.609376-1.7187.609376-1.2813 0-2.0625-.828126-.76565-.84375-.76565-2.40625 0-1 .32815-1.75.3437-.765624 1.0156-1.140624.6875-.375 1.5-.375 1 0 1.6406.515624.6563.5.8438 1.453126l-1.0313.15625q-.1406-.625-.5156-.9375-.375-.328126-.90625-.328126-.79685 0-1.29685.578126-.5.5625-.5 1.796874 0 1.265626.48435 1.828126.48435.5625 1.25.5625.625 0 1.03125-.375.4219-.375.5469-1.171876zm1.9062 2.28125v-8.59375h1.0625v8.59375zm7.2813-2 1.0937.125q-.25.953126-.9531 1.484376-.7031.53125-1.78125.53125-1.35935 0-2.17185-.84375-.7969-.84375-.7969-2.359376 0-1.5625.8125-2.421874.8125-.875 2.09375-.875 1.25 0 2.03125.84375.7969.84375.7969 2.390624 0 .09375 0 .28125h-4.64065q.0625 1.03125.57815 1.578126.5156.53125 1.29685.53125.57815 0 .98435-.296876.4219-.3125.6563-.96875zm-3.45315-1.703124h3.46875q-.0625-.796876-.3906-1.1875-.51565-.609376-1.3125-.609376-.7344 0-1.2344.484376-.4844.484374-.53125 1.3125zm5.78125 1.84375 1.03125-.15625q.09375.625.48435.953124.4063.328126 1.14065.328126.71875 0 1.0625-.28125.35935-.296876.35935-.703126 0-.359374-.3125-.5625-.2187-.140624-1.0781-.359374-1.15625-.296876-1.6094-.5-.4375-.21875-.67185-.59375-.23435-.375-.23435-.84375 0-.40625.1875-.765626.1875-.359374.5156-.59375.25-.171874.6719-.296874.42185-.125.92185-.125.71875 0 1.26565.21875.5625.203124.8281.5625.2656.359374.3594.953124l-1.0313.140626q-.0625-.46875-.4062-.734376-.32815-.28125-.95315-.28125-.71875 0-1.03125.25-.3125.234376-.3125.5625 0 .203126.125.359376.1406.171874.40625.28125.15625.0625.9375.265624 1.125.3125 1.5625.5.4375.1875.6875.546876.25.359374.25.90625 0 .53125-.3125 1-.29685.453124-.875.71875-.57815.25-1.3125.25-1.21875 0-1.85935-.5-.625-.515626-.7969-1.5z" fill="#1a1a1a"/>
</svg>
