<svg version="1.1" viewBox="0.0 0.0 964.0 596.0" fill="none" stroke="none" stroke-linecap="square" stroke-miterlimit="10" width="964" height="596" xmlns:xlink="http://www.w3.org/1999/xlink" xmlns="http://www.w3.org/2000/svg"><path fill="#ffffff" d="M0 0L964.0 0L964.0 596.0L0 596.0L0 0Z" fill-rule="nonzero"/><path stroke="#333333" stroke-width="1.0" stroke-linecap="butt" d="M127.5 559.5L934.5 559.5" fill-rule="nonzero"/><path stroke="#cccccc" stroke-width="1.0" stroke-linecap="butt" d="M127.5 461.5L934.5 461.5" fill-rule="nonzero"/><path stroke="#cccccc" stroke-width="1.0" stroke-linecap="butt" d="M127.5 363.5L934.5 363.5" fill-rule="nonzero"/><path stroke="#cccccc" stroke-width="1.0" stroke-linecap="butt" d="M127.5 266.5L934.5 266.5" fill-rule="nonzero"/><path stroke="#cccccc" stroke-width="1.0" stroke-linecap="butt" d="M127.5 168.5L934.5 168.5" fill-rule="nonzero"/><path stroke="#cccccc" stroke-width="1.0" stroke-linecap="butt" d="M127.5 70.5L934.5 70.5" fill-rule="nonzero"/><clipPath id="id_0"><path d="M127.8 70.666664L934.2 70.666664L934.2 559.2L127.8 559.2L127.8 70.666664Z" clip-rule="nonzero"/></clipPath><path stroke="#000000" stroke-width="0.0" stroke-linecap="butt" stroke-opacity="0.0" clip-path="url(#id_0)" d="M433.0 559.0L337.0 559.0L337.0 96.0C337.0 94.89543 337.89542 94.0 339.0 94.0L431.0 94.0C432.10458 94.0 433.0 94.89543 433.0 96.0Z" fill-rule="nonzero"/><path fill="#4285f4" clip-path="url(#id_0)" d="M433.0 559.0L337.0 559.0L337.0 96.0C337.0 94.89543 337.89542 94.0 339.0 94.0L431.0 94.0C432.10458 94.0 433.0 94.89543 433.0 96.0Z" fill-rule="nonzero"/><path stroke="#000000" stroke-width="0.0" stroke-linecap="butt" stroke-opacity="0.0" clip-path="url(#id_0)" d="M530.0 559.0L434.0 559.0L434.0 307.0C434.0 305.89542 434.89542 305.0 436.0 305.0L528.0 305.0C529.10455 305.0 530.0 305.89542 530.0 307.0Z" fill-rule="nonzero"/><path fill="#ea4335" clip-path="url(#id_0)" d="M530.0 559.0L434.0 559.0L434.0 307.0C434.0 305.89542 434.89542 305.0 436.0 305.0L528.0 305.0C529.10455 305.0 530.0 305.89542 530.0 307.0Z" fill-rule="nonzero"/><path stroke="#000000" stroke-width="0.0" stroke-linecap="butt" stroke-opacity="0.0" clip-path="url(#id_0)" d="M627.0 559.0L531.0 559.0L531.0 371.0C531.0 369.89542 531.89545 369.0 533.0 369.0L625.0 369.0C626.10455 369.0 627.0 369.89542 627.0 371.0Z" fill-rule="nonzero"/><path fill="#fbbc04" clip-path="url(#id_0)" d="M627.0 559.0L531.0 559.0L531.0 371.0C531.0 369.89542 531.89545 369.0 533.0 369.0L625.0 369.0C626.10455 369.0 627.0 369.89542 627.0 371.0Z" fill-rule="nonzero"/><path stroke="#000000" stroke-width="0.0" stroke-linecap="butt" stroke-opacity="0.0" clip-path="url(#id_0)" d="M724.0 559.0L628.0 559.0L628.0 418.0C628.0 416.89542 628.89545 416.0 630.0 416.0L722.0 416.0C723.10455 416.0 724.0 416.89542 724.0 418.0Z" fill-rule="nonzero"/><path fill="#34a853" clip-path="url(#id_0)" d="M724.0 559.0L628.0 559.0L628.0 418.0C628.0 416.89542 628.89545 416.0 630.0 416.0L722.0 416.0C723.10455 416.0 724.0 416.89542 724.0 418.0Z" fill-rule="nonzero"/><path stroke="#4285f4" stroke-width="3.0" stroke-linejoin="round" stroke-linecap="round" d="M372.28125 108.09598L373.46875 108.09598L373.46875 108.97098L372.28125 108.97098L372.28125 110.95535L371.20312 110.95535L371.20312 108.97098L367.3125 108.97098L367.3125 108.33035L371.125 102.4241L372.28125 102.4241L372.28125 108.09598ZM368.54688 108.09598L371.20312 108.09598L371.20312 103.90848L371.0625 104.14285L368.54688 108.09598ZM380.21875 103.03348L376.6875 110.95535L375.54688 110.95535L379.0625 103.31473L374.45312 103.31473L374.45312 102.4241L380.21875 102.4241L380.21875 103.03348ZM381.78125 112.65848L381.17188 112.2366Q381.71875 111.47098 381.75 110.64285L381.75 109.6741L382.8125 109.6741L382.8125 110.51785Q382.8125 111.1116 382.51562 111.70535Q382.21875 112.2991 381.78125 112.65848ZM384.20312 106.6741L384.64062 102.4241L389.01562 102.4241L389.01562 103.4241L385.5625 103.4241L385.29688 105.75223Q385.9375 105.37723 386.73438 105.37723Q387.89062 105.37723 388.57812 106.15848Q389.26562 106.9241 389.26562 108.2366Q389.26562 109.5491 388.54688 110.31473Q387.84375 111.08035 386.5625 111.08035Q385.4375 111.08035 384.71875 110.45535Q384.0 109.81473 383.90625 108.70535L384.92188 108.70535Q385.03125 109.43973 385.45312 109.81473Q385.875 110.18973 386.5625 110.18973Q387.3125 110.18973 387.75 109.6741Q388.1875 109.15848 388.1875 108.25223Q388.1875 107.39285 387.71875 106.87723Q387.25 106.3616 386.46875 106.3616Q385.76562 106.3616 385.35938 106.65848L385.07812 106.89285L384.20312 106.6741ZM394.85938 107.20535Q394.53125 107.6116 394.04688 107.8616Q393.57812 108.09598 393.01562 108.09598Q392.28125 108.09598 391.73438 107.7366Q391.1875 107.37723 390.89062 106.72098Q390.59375 106.0491 390.59375 105.25223Q390.59375 104.40848 390.90625 103.72098Q391.23438 103.03348 391.82812 102.6741Q392.4375 102.2991 393.23438 102.2991Q394.5 102.2991 395.21875 103.25223Q395.95312 104.20535 395.95312 105.83035L395.95312 106.14285Q395.95312 108.64285 394.96875 109.78348Q393.98438 110.9241 392.0 110.95535L391.78125 110.95535L391.78125 110.0491L392.01562 110.0491Q393.35938 110.01785 394.07812 109.34598Q394.79688 108.6741 394.85938 107.20535ZM393.1875 107.20535Q393.73438 107.20535 394.1875 106.87723Q394.65625 106.53348 394.875 106.0491L394.875 105.6116Q394.875 104.5491 394.40625 103.87723Q393.9375 103.20535 393.23438 103.20535Q392.51562 103.20535 392.07812 103.75223Q391.65625 104.2991 391.65625 105.20535Q391.65625 106.08035 392.0625 106.64285Q392.48438 107.20535 393.1875 107.20535ZM401.96875 102.4241L401.96875 103.33035L401.76562 103.33035Q400.5 103.3616 399.75 104.09598Q399.0 104.81473 398.875 106.12723Q399.5625 105.3616 400.71875 105.3616Q401.82812 105.3616 402.5 106.14285Q403.17188 106.9241 403.17188 108.1741Q403.17188 109.4866 402.45312 110.28348Q401.73438 111.08035 400.51562 111.08035Q399.29688 111.08035 398.53125 110.14285Q397.78125 109.18973 397.78125 107.70535L397.78125 107.2991Q397.78125 104.93973 398.78125 103.68973Q399.78125 102.43973 401.76562 102.4241L401.96875 102.4241ZM400.54688 106.26785Q399.98438 106.26785 399.51562 106.59598Q399.04688 106.9241 398.85938 107.43973L398.85938 107.83035Q398.85938 108.89285 399.32812 109.53348Q399.8125 110.1741 400.51562 110.1741Q401.25 110.1741 401.67188 109.64285Q402.09375 109.09598 402.09375 108.22098Q402.09375 107.34598 401.67188 106.81473Q401.25 106.26785 400.54688 106.26785Z" fill-rule="nonzero"/><path fill="#ffffff" d="M372.28125 108.09598L373.46875 108.09598L373.46875 108.97098L372.28125 108.97098L372.28125 110.95535L371.20312 110.95535L371.20312 108.97098L367.3125 108.97098L367.3125 108.33035L371.125 102.4241L372.28125 102.4241L372.28125 108.09598ZM368.54688 108.09598L371.20312 108.09598L371.20312 103.90848L371.0625 104.14285L368.54688 108.09598ZM380.21875 103.03348L376.6875 110.95535L375.54688 110.95535L379.0625 103.31473L374.45312 103.31473L374.45312 102.4241L380.21875 102.4241L380.21875 103.03348ZM381.78125 112.65848L381.17188 112.2366Q381.71875 111.47098 381.75 110.64285L381.75 109.6741L382.8125 109.6741L382.8125 110.51785Q382.8125 111.1116 382.51562 111.70535Q382.21875 112.2991 381.78125 112.65848ZM384.20312 106.6741L384.64062 102.4241L389.01562 102.4241L389.01562 103.4241L385.5625 103.4241L385.29688 105.75223Q385.9375 105.37723 386.73438 105.37723Q387.89062 105.37723 388.57812 106.15848Q389.26562 106.9241 389.26562 108.2366Q389.26562 109.5491 388.54688 110.31473Q387.84375 111.08035 386.5625 111.08035Q385.4375 111.08035 384.71875 110.45535Q384.0 109.81473 383.90625 108.70535L384.92188 108.70535Q385.03125 109.43973 385.45312 109.81473Q385.875 110.18973 386.5625 110.18973Q387.3125 110.18973 387.75 109.6741Q388.1875 109.15848 388.1875 108.25223Q388.1875 107.39285 387.71875 106.87723Q387.25 106.3616 386.46875 106.3616Q385.76562 106.3616 385.35938 106.65848L385.07812 106.89285L384.20312 106.6741ZM394.85938 107.20535Q394.53125 107.6116 394.04688 107.8616Q393.57812 108.09598 393.01562 108.09598Q392.28125 108.09598 391.73438 107.7366Q391.1875 107.37723 390.89062 106.72098Q390.59375 106.0491 390.59375 105.25223Q390.59375 104.40848 390.90625 103.72098Q391.23438 103.03348 391.82812 102.6741Q392.4375 102.2991 393.23438 102.2991Q394.5 102.2991 395.21875 103.25223Q395.95312 104.20535 395.95312 105.83035L395.95312 106.14285Q395.95312 108.64285 394.96875 109.78348Q393.98438 110.9241 392.0 110.95535L391.78125 110.95535L391.78125 110.0491L392.01562 110.0491Q393.35938 110.01785 394.07812 109.34598Q394.79688 108.6741 394.85938 107.20535ZM393.1875 107.20535Q393.73438 107.20535 394.1875 106.87723Q394.65625 106.53348 394.875 106.0491L394.875 105.6116Q394.875 104.5491 394.40625 103.87723Q393.9375 103.20535 393.23438 103.20535Q392.51562 103.20535 392.07812 103.75223Q391.65625 104.2991 391.65625 105.20535Q391.65625 106.08035 392.0625 106.64285Q392.48438 107.20535 393.1875 107.20535ZM401.96875 102.4241L401.96875 103.33035L401.76562 103.33035Q400.5 103.3616 399.75 104.09598Q399.0 104.81473 398.875 106.12723Q399.5625 105.3616 400.71875 105.3616Q401.82812 105.3616 402.5 106.14285Q403.17188 106.9241 403.17188 108.1741Q403.17188 109.4866 402.45312 110.28348Q401.73438 111.08035 400.51562 111.08035Q399.29688 111.08035 398.53125 110.14285Q397.78125 109.18973 397.78125 107.70535L397.78125 107.2991Q397.78125 104.93973 398.78125 103.68973Q399.78125 102.43973 401.76562 102.4241L401.96875 102.4241ZM400.54688 106.26785Q399.98438 106.26785 399.51562 106.59598Q399.04688 106.9241 398.85938 107.43973L398.85938 107.83035Q398.85938 108.89285 399.32812 109.53348Q399.8125 110.1741 400.51562 110.1741Q401.25 110.1741 401.67188 109.64285Q402.09375 109.09598 402.09375 108.22098Q402.09375 107.34598 401.67188 106.81473Q401.25 106.26785 400.54688 106.26785Z" fill-rule="nonzero"/><path stroke="#ea4335" stroke-width="3.0" stroke-linejoin="round" stroke-linecap="round" d="M470.29688 321.67932L464.70312 321.67932L464.70312 320.89807L467.65625 317.61682Q468.3125 316.86682 468.5625 316.4137Q468.8125 315.94495 468.8125 315.44495Q468.8125 314.77307 468.40625 314.3512Q468.01562 313.9137 467.32812 313.9137Q466.53125 313.9137 466.07812 314.38245Q465.625 314.83557 465.625 315.6637L464.54688 315.6637Q464.54688 314.4762 465.29688 313.75745Q466.0625 313.02307 467.32812 313.02307Q468.53125 313.02307 469.21875 313.64807Q469.90625 314.27307 469.90625 315.31995Q469.90625 316.56995 468.29688 318.31995L466.01562 320.7887L470.29688 320.7887L470.29688 321.67932ZM475.96875 313.14807L475.96875 314.05432L475.76562 314.05432Q474.5 314.08557 473.75 314.81995Q473.0 315.5387 472.875 316.8512Q473.5625 316.08557 474.71875 316.08557Q475.82812 316.08557 476.5 316.86682Q477.17188 317.64807 477.17188 318.89807Q477.17188 320.21057 476.45312 321.00745Q475.73438 321.80432 474.51562 321.80432Q473.29688 321.80432 472.53125 320.86682Q471.78125 319.9137 471.78125 318.42932L471.78125 318.02307Q471.78125 315.6637 472.78125 314.4137Q473.78125 313.1637 475.76562 313.14807L475.96875 313.14807ZM474.54688 316.99182Q473.98438 316.99182 473.51562 317.31995Q473.04688 317.64807 472.85938 318.1637L472.85938 318.55432Q472.85938 319.61682 473.32812 320.25745Q473.8125 320.89807 474.51562 320.89807Q475.25 320.89807 475.67188 320.36682Q476.09375 319.81995 476.09375 318.94495Q476.09375 318.06995 475.67188 317.5387Q475.25 316.99182 474.54688 316.99182ZM478.78125 323.38245L478.17188 322.96057Q478.71875 322.19495 478.75 321.36682L478.75 320.39807L479.8125 320.39807L479.8125 321.24182Q479.8125 321.83557 479.51562 322.42932Q479.21875 323.02307 478.78125 323.38245ZM486.0625 318.0387Q486.0625 319.94495 485.40625 320.88245Q484.76562 321.80432 483.375 321.80432Q482.01562 321.80432 481.35938 320.89807Q480.70312 319.99182 480.67188 318.17932L480.67188 316.74182Q480.67188 314.8512 481.3125 313.94495Q481.96875 313.02307 483.35938 313.02307Q484.73438 313.02307 485.39062 313.9137Q486.04688 314.7887 486.0625 316.63245L486.0625 318.0387ZM484.96875 316.55432Q484.96875 315.17932 484.57812 314.55432Q484.20312 313.9137 483.35938 313.9137Q482.53125 313.9137 482.14062 314.55432Q481.76562 315.17932 481.76562 316.4762L481.76562 318.21057Q481.76562 319.58557 482.15625 320.25745Q482.5625 320.9137 483.375 320.9137Q484.17188 320.9137 484.5625 320.2887Q484.95312 319.6637 484.96875 318.33557L484.96875 316.55432ZM493.29688 321.67932L487.70312 321.67932L487.70312 320.89807L490.65625 317.61682Q491.3125 316.86682 491.5625 316.4137Q491.8125 315.94495 491.8125 315.44495Q491.8125 314.77307 491.40625 314.3512Q491.01562 313.9137 490.32812 313.9137Q489.53125 313.9137 489.07812 314.38245Q488.625 314.83557 488.625 315.6637L487.54688 315.6637Q487.54688 314.4762 488.29688 313.75745Q489.0625 313.02307 490.32812 313.02307Q491.53125 313.02307 492.21875 313.64807Q492.90625 314.27307 492.90625 315.31995Q492.90625 316.56995 491.29688 318.31995L489.01562 320.7887L493.29688 320.7887L493.29688 321.67932ZM498.85938 317.92932Q498.53125 318.33557 498.04688 318.58557Q497.57812 318.81995 497.01562 318.81995Q496.28125 318.81995 495.73438 318.46057Q495.1875 318.1012 494.89062 317.44495Q494.59375 316.77307 494.59375 315.9762Q494.59375 315.13245 494.90625 314.44495Q495.23438 313.75745 495.82812 313.39807Q496.4375 313.02307 497.23438 313.02307Q498.5 313.02307 499.21875 313.9762Q499.95312 314.92932 499.95312 316.55432L499.95312 316.86682Q499.95312 319.36682 498.96875 320.50745Q497.98438 321.64807 496.0 321.67932L495.78125 321.67932L495.78125 320.77307L496.01562 320.77307Q497.35938 320.74182 498.07812 320.06995Q498.79688 319.39807 498.85938 317.92932ZM497.1875 317.92932Q497.73438 317.92932 498.1875 317.6012Q498.65625 317.25745 498.875 316.77307L498.875 316.33557Q498.875 315.27307 498.40625 314.6012Q497.9375 313.92932 497.23438 313.92932Q496.51562 313.92932 496.07812 314.4762Q495.65625 315.02307 495.65625 315.92932Q495.65625 316.80432 496.0625 317.36682Q496.48438 317.92932 497.1875 317.92932Z" fill-rule="nonzero"/><path fill="#ffffff" d="M470.29688 321.67932L464.70312 321.67932L464.70312 320.89807L467.65625 317.61682Q468.3125 316.86682 468.5625 316.4137Q468.8125 315.94495 468.8125 315.44495Q468.8125 314.77307 468.40625 314.3512Q468.01562 313.9137 467.32812 313.9137Q466.53125 313.9137 466.07812 314.38245Q465.625 314.83557 465.625 315.6637L464.54688 315.6637Q464.54688 314.4762 465.29688 313.75745Q466.0625 313.02307 467.32812 313.02307Q468.53125 313.02307 469.21875 313.64807Q469.90625 314.27307 469.90625 315.31995Q469.90625 316.56995 468.29688 318.31995L466.01562 320.7887L470.29688 320.7887L470.29688 321.67932ZM475.96875 313.14807L475.96875 314.05432L475.76562 314.05432Q474.5 314.08557 473.75 314.81995Q473.0 315.5387 472.875 316.8512Q473.5625 316.08557 474.71875 316.08557Q475.82812 316.08557 476.5 316.86682Q477.17188 317.64807 477.17188 318.89807Q477.17188 320.21057 476.45312 321.00745Q475.73438 321.80432 474.51562 321.80432Q473.29688 321.80432 472.53125 320.86682Q471.78125 319.9137 471.78125 318.42932L471.78125 318.02307Q471.78125 315.6637 472.78125 314.4137Q473.78125 313.1637 475.76562 313.14807L475.96875 313.14807ZM474.54688 316.99182Q473.98438 316.99182 473.51562 317.31995Q473.04688 317.64807 472.85938 318.1637L472.85938 318.55432Q472.85938 319.61682 473.32812 320.25745Q473.8125 320.89807 474.51562 320.89807Q475.25 320.89807 475.67188 320.36682Q476.09375 319.81995 476.09375 318.94495Q476.09375 318.06995 475.67188 317.5387Q475.25 316.99182 474.54688 316.99182ZM478.78125 323.38245L478.17188 322.96057Q478.71875 322.19495 478.75 321.36682L478.75 320.39807L479.8125 320.39807L479.8125 321.24182Q479.8125 321.83557 479.51562 322.42932Q479.21875 323.02307 478.78125 323.38245ZM486.0625 318.0387Q486.0625 319.94495 485.40625 320.88245Q484.76562 321.80432 483.375 321.80432Q482.01562 321.80432 481.35938 320.89807Q480.70312 319.99182 480.67188 318.17932L480.67188 316.74182Q480.67188 314.8512 481.3125 313.94495Q481.96875 313.02307 483.35938 313.02307Q484.73438 313.02307 485.39062 313.9137Q486.04688 314.7887 486.0625 316.63245L486.0625 318.0387ZM484.96875 316.55432Q484.96875 315.17932 484.57812 314.55432Q484.20312 313.9137 483.35938 313.9137Q482.53125 313.9137 482.14062 314.55432Q481.76562 315.17932 481.76562 316.4762L481.76562 318.21057Q481.76562 319.58557 482.15625 320.25745Q482.5625 320.9137 483.375 320.9137Q484.17188 320.9137 484.5625 320.2887Q484.95312 319.6637 484.96875 318.33557L484.96875 316.55432ZM493.29688 321.67932L487.70312 321.67932L487.70312 320.89807L490.65625 317.61682Q491.3125 316.86682 491.5625 316.4137Q491.8125 315.94495 491.8125 315.44495Q491.8125 314.77307 491.40625 314.3512Q491.01562 313.9137 490.32812 313.9137Q489.53125 313.9137 489.07812 314.38245Q488.625 314.83557 488.625 315.6637L487.54688 315.6637Q487.54688 314.4762 488.29688 313.75745Q489.0625 313.02307 490.32812 313.02307Q491.53125 313.02307 492.21875 313.64807Q492.90625 314.27307 492.90625 315.31995Q492.90625 316.56995 491.29688 318.31995L489.01562 320.7887L493.29688 320.7887L493.29688 321.67932ZM498.85938 317.92932Q498.53125 318.33557 498.04688 318.58557Q497.57812 318.81995 497.01562 318.81995Q496.28125 318.81995 495.73438 318.46057Q495.1875 318.1012 494.89062 317.44495Q494.59375 316.77307 494.59375 315.9762Q494.59375 315.13245 494.90625 314.44495Q495.23438 313.75745 495.82812 313.39807Q496.4375 313.02307 497.23438 313.02307Q498.5 313.02307 499.21875 313.9762Q499.95312 314.92932 499.95312 316.55432L499.95312 316.86682Q499.95312 319.36682 498.96875 320.50745Q497.98438 321.64807 496.0 321.67932L495.78125 321.67932L495.78125 320.77307L496.01562 320.77307Q497.35938 320.74182 498.07812 320.06995Q498.79688 319.39807 498.85938 317.92932ZM497.1875 317.92932Q497.73438 317.92932 498.1875 317.6012Q498.65625 317.25745 498.875 316.77307L498.875 316.33557Q498.875 315.27307 498.40625 314.6012Q497.9375 313.92932 497.23438 313.92932Q496.51562 313.92932 496.07812 314.4762Q495.65625 315.02307 495.65625 315.92932Q495.65625 316.80432 496.0625 317.36682Q496.48438 317.92932 497.1875 317.92932Z" fill-rule="nonzero"/><path stroke="#fbbc04" stroke-width="3.0" stroke-linejoin="round" stroke-linecap="round" d="M565.2656 385.83353L564.1875 385.83353L564.1875 378.61478L562.0 379.41165L562.0 378.42728L565.1094 377.2554L565.2656 377.2554L565.2656 385.83353ZM572.8594 382.08353Q572.53125 382.48978 572.0469 382.73978Q571.5781 382.97415 571.0156 382.97415Q570.28125 382.97415 569.7344 382.61478Q569.1875 382.2554 568.8906 381.59915Q568.59375 380.92728 568.59375 380.1304Q568.59375 379.28665 568.90625 378.59915Q569.2344 377.91165 569.8281 377.55228Q570.4375 377.17728 571.2344 377.17728Q572.5 377.17728 573.21875 378.1304Q573.9531 379.08353 573.9531 380.70853L573.9531 381.02103Q573.9531 383.52103 572.96875 384.66165Q571.9844 385.80228 570.0 385.83353L569.78125 385.83353L569.78125 384.92728L570.0156 384.92728Q571.3594 384.89603 572.0781 384.22415Q572.7969 383.55228 572.8594 382.08353ZM571.1875 382.08353Q571.7344 382.08353 572.1875 381.7554Q572.65625 381.41165 572.875 380.92728L572.875 380.48978Q572.875 379.42728 572.40625 378.7554Q571.9375 378.08353 571.2344 378.08353Q570.5156 378.08353 570.0781 378.6304Q569.65625 379.17728 569.65625 380.08353Q569.65625 380.95853 570.0625 381.52103Q570.4844 382.08353 571.1875 382.08353ZM575.78125 387.53665L575.1719 387.11478Q575.71875 386.34915 575.75 385.52103L575.75 384.55228L576.8125 384.55228L576.8125 385.39603Q576.8125 385.98978 576.5156 386.58353Q576.21875 387.17728 575.78125 387.53665ZM582.28125 382.97415L583.46875 382.97415L583.46875 383.84915L582.28125 383.84915L582.28125 385.83353L581.2031 385.83353L581.2031 383.84915L577.3125 383.84915L577.3125 383.20853L581.125 377.30228L582.28125 377.30228L582.28125 382.97415ZM578.5469 382.97415L581.2031 382.97415L581.2031 378.78665L581.0625 379.02103L578.5469 382.97415ZM588.96875 377.30228L588.96875 378.20853L588.7656 378.20853Q587.5 378.23978 586.75 378.97415Q586.0 379.6929 585.875 381.0054Q586.5625 380.23978 587.71875 380.23978Q588.8281 380.23978 589.5 381.02103Q590.1719 381.80228 590.1719 383.05228Q590.1719 384.36478 589.4531 385.16165Q588.7344 385.95853 587.5156 385.95853Q586.2969 385.95853 585.53125 385.02103Q584.78125 384.0679 584.78125 382.58353L584.78125 382.17728Q584.78125 379.8179 585.78125 378.5679Q586.78125 377.3179 588.7656 377.30228L588.96875 377.30228ZM587.5469 381.14603Q586.9844 381.14603 586.5156 381.47415Q586.0469 381.80228 585.8594 382.3179L585.8594 382.70853Q585.8594 383.77103 586.3281 384.41165Q586.8125 385.05228 587.5156 385.05228Q588.25 385.05228 588.6719 384.52103Q589.09375 383.97415 589.09375 383.09915Q589.09375 382.22415 588.6719 381.6929Q588.25 381.14603 587.5469 381.14603ZM593.28125 381.03665L594.09375 381.03665Q594.875 381.02103 595.3125 380.6304Q595.75 380.23978 595.75 379.5679Q595.75 378.0679 594.25 378.0679Q593.5469 378.0679 593.125 378.47415Q592.71875 378.8804 592.71875 379.53665L591.625 379.53665Q591.625 378.52103 592.3594 377.84915Q593.1094 377.17728 594.25 377.17728Q595.4531 377.17728 596.1406 377.8179Q596.8281 378.45853 596.8281 379.59915Q596.8281 380.16165 596.46875 380.67728Q596.1094 381.1929 595.4844 381.45853Q596.1875 381.67728 596.5625 382.1929Q596.9531 382.70853 596.9531 383.45853Q596.9531 384.59915 596.2031 385.28665Q595.4531 385.95853 594.25 385.95853Q593.0625 385.95853 592.2969 385.30228Q591.5469 384.64603 591.5469 383.58353L592.6406 383.58353Q592.6406 384.2554 593.0781 384.66165Q593.5156 385.0679 594.2656 385.0679Q595.0469 385.0679 595.4531 384.66165Q595.875 384.23978 595.875 383.47415Q595.875 382.73978 595.4219 382.34915Q594.96875 381.9429 594.09375 381.92728L593.28125 381.92728L593.28125 381.03665Z" fill-rule="nonzero"/><path fill="#000000" d="M565.2656 385.83353L564.1875 385.83353L564.1875 378.61478L562.0 379.41165L562.0 378.42728L565.1094 377.2554L565.2656 377.2554L565.2656 385.83353ZM572.8594 382.08353Q572.53125 382.48978 572.0469 382.73978Q571.5781 382.97415 571.0156 382.97415Q570.28125 382.97415 569.7344 382.61478Q569.1875 382.2554 568.8906 381.59915Q568.59375 380.92728 568.59375 380.1304Q568.59375 379.28665 568.90625 378.59915Q569.2344 377.91165 569.8281 377.55228Q570.4375 377.17728 571.2344 377.17728Q572.5 377.17728 573.21875 378.1304Q573.9531 379.08353 573.9531 380.70853L573.9531 381.02103Q573.9531 383.52103 572.96875 384.66165Q571.9844 385.80228 570.0 385.83353L569.78125 385.83353L569.78125 384.92728L570.0156 384.92728Q571.3594 384.89603 572.0781 384.22415Q572.7969 383.55228 572.8594 382.08353ZM571.1875 382.08353Q571.7344 382.08353 572.1875 381.7554Q572.65625 381.41165 572.875 380.92728L572.875 380.48978Q572.875 379.42728 572.40625 378.7554Q571.9375 378.08353 571.2344 378.08353Q570.5156 378.08353 570.0781 378.6304Q569.65625 379.17728 569.65625 380.08353Q569.65625 380.95853 570.0625 381.52103Q570.4844 382.08353 571.1875 382.08353ZM575.78125 387.53665L575.1719 387.11478Q575.71875 386.34915 575.75 385.52103L575.75 384.55228L576.8125 384.55228L576.8125 385.39603Q576.8125 385.98978 576.5156 386.58353Q576.21875 387.17728 575.78125 387.53665ZM582.28125 382.97415L583.46875 382.97415L583.46875 383.84915L582.28125 383.84915L582.28125 385.83353L581.2031 385.83353L581.2031 383.84915L577.3125 383.84915L577.3125 383.20853L581.125 377.30228L582.28125 377.30228L582.28125 382.97415ZM578.5469 382.97415L581.2031 382.97415L581.2031 378.78665L581.0625 379.02103L578.5469 382.97415ZM588.96875 377.30228L588.96875 378.20853L588.7656 378.20853Q587.5 378.23978 586.75 378.97415Q586.0 379.6929 585.875 381.0054Q586.5625 380.23978 587.71875 380.23978Q588.8281 380.23978 589.5 381.02103Q590.1719 381.80228 590.1719 383.05228Q590.1719 384.36478 589.4531 385.16165Q588.7344 385.95853 587.5156 385.95853Q586.2969 385.95853 585.53125 385.02103Q584.78125 384.0679 584.78125 382.58353L584.78125 382.17728Q584.78125 379.8179 585.78125 378.5679Q586.78125 377.3179 588.7656 377.30228L588.96875 377.30228ZM587.5469 381.14603Q586.9844 381.14603 586.5156 381.47415Q586.0469 381.80228 585.8594 382.3179L585.8594 382.70853Q585.8594 383.77103 586.3281 384.41165Q586.8125 385.05228 587.5156 385.05228Q588.25 385.05228 588.6719 384.52103Q589.09375 383.97415 589.09375 383.09915Q589.09375 382.22415 588.6719 381.6929Q588.25 381.14603 587.5469 381.14603ZM593.28125 381.03665L594.09375 381.03665Q594.875 381.02103 595.3125 380.6304Q595.75 380.23978 595.75 379.5679Q595.75 378.0679 594.25 378.0679Q593.5469 378.0679 593.125 378.47415Q592.71875 378.8804 592.71875 379.53665L591.625 379.53665Q591.625 378.52103 592.3594 377.84915Q593.1094 377.17728 594.25 377.17728Q595.4531 377.17728 596.1406 377.8179Q596.8281 378.45853 596.8281 379.59915Q596.8281 380.16165 596.46875 380.67728Q596.1094 381.1929 595.4844 381.45853Q596.1875 381.67728 596.5625 382.1929Q596.9531 382.70853 596.9531 383.45853Q596.9531 384.59915 596.2031 385.28665Q595.4531 385.95853 594.25 385.95853Q593.0625 385.95853 592.2969 385.30228Q591.5469 384.64603 591.5469 383.58353L592.6406 383.58353Q592.6406 384.2554 593.0781 384.66165Q593.5156 385.0679 594.2656 385.0679Q595.0469 385.0679 595.4531 384.66165Q595.875 384.23978 595.875 383.47415Q595.875 382.73978 595.4219 382.34915Q594.96875 381.9429 594.09375 381.92728L593.28125 381.92728L593.28125 381.03665Z" fill-rule="nonzero"/><path stroke="#34a853" stroke-width="3.0" stroke-linejoin="round" stroke-linecap="round" d="M662.2656 432.84018L661.1875 432.84018L661.1875 425.62143L659.0 426.4183L659.0 425.43393L662.1094 424.26205L662.2656 424.26205L662.2656 432.84018ZM670.28125 429.9808L671.46875 429.9808L671.46875 430.8558L670.28125 430.8558L670.28125 432.84018L669.2031 432.84018L669.2031 430.8558L665.3125 430.8558L665.3125 430.21518L669.125 424.30893L670.28125 424.30893L670.28125 429.9808ZM666.5469 429.9808L669.2031 429.9808L669.2031 425.7933L669.0625 426.02768L666.5469 429.9808ZM672.78125 434.5433L672.1719 434.12143Q672.71875 433.3558 672.75 432.52768L672.75 431.55893L673.8125 431.55893L673.8125 432.40268Q673.8125 432.99643 673.5156 433.59018Q673.21875 434.18393 672.78125 434.5433ZM678.96875 424.30893L678.96875 425.21518L678.7656 425.21518Q677.5 425.24643 676.75 425.9808Q676.0 426.69955 675.875 428.01205Q676.5625 427.24643 677.71875 427.24643Q678.8281 427.24643 679.5 428.02768Q680.1719 428.80893 680.1719 430.05893Q680.1719 431.37143 679.4531 432.1683Q678.7344 432.96518 677.5156 432.96518Q676.2969 432.96518 675.53125 432.02768Q674.78125 431.07455 674.78125 429.59018L674.78125 429.18393Q674.78125 426.82455 675.78125 425.57455Q676.78125 424.32455 678.7656 424.30893L678.96875 424.30893ZM677.5469 428.15268Q676.9844 428.15268 676.5156 428.4808Q676.0469 428.80893 675.8594 429.32455L675.8594 429.71518Q675.8594 430.77768 676.3281 431.4183Q676.8125 432.05893 677.5156 432.05893Q678.25 432.05893 678.6719 431.52768Q679.09375 430.9808 679.09375 430.1058Q679.09375 429.2308 678.6719 428.69955Q678.25 428.15268 677.5469 428.15268ZM682.2031 428.55893L682.6406 424.30893L687.0156 424.30893L687.0156 425.30893L683.5625 425.30893L683.2969 427.63705Q683.9375 427.26205 684.7344 427.26205Q685.8906 427.26205 686.5781 428.0433Q687.2656 428.80893 687.2656 430.12143Q687.2656 431.43393 686.5469 432.19955Q685.84375 432.96518 684.5625 432.96518Q683.4375 432.96518 682.71875 432.34018Q682.0 431.69955 681.90625 430.59018L682.9219 430.59018Q683.03125 431.32455 683.4531 431.69955Q683.875 432.07455 684.5625 432.07455Q685.3125 432.07455 685.75 431.55893Q686.1875 431.0433 686.1875 430.13705Q686.1875 429.27768 685.71875 428.76205Q685.25 428.24643 684.46875 428.24643Q683.7656 428.24643 683.3594 428.5433L683.0781 428.77768L682.2031 428.55893ZM694.2969 432.84018L688.7031 432.84018L688.7031 432.05893L691.65625 428.77768Q692.3125 428.02768 692.5625 427.57455Q692.8125 427.1058 692.8125 426.6058Q692.8125 425.93393 692.40625 425.51205Q692.0156 425.07455 691.3281 425.07455Q690.53125 425.07455 690.0781 425.5433Q689.625 425.99643 689.625 426.82455L688.5469 426.82455Q688.5469 425.63705 689.2969 424.9183Q690.0625 424.18393 691.3281 424.18393Q692.53125 424.18393 693.21875 424.80893Q693.90625 425.43393 693.90625 426.4808Q693.90625 427.7308 692.2969 429.4808L690.0156 431.94955L694.2969 431.94955L694.2969 432.84018Z" fill-rule="nonzero"/><path fill="#ffffff" d="M662.2656 432.84018L661.1875 432.84018L661.1875 425.62143L659.0 426.4183L659.0 425.43393L662.1094 424.26205L662.2656 424.26205L662.2656 432.84018ZM670.28125 429.9808L671.46875 429.9808L671.46875 430.8558L670.28125 430.8558L670.28125 432.84018L669.2031 432.84018L669.2031 430.8558L665.3125 430.8558L665.3125 430.21518L669.125 424.30893L670.28125 424.30893L670.28125 429.9808ZM666.5469 429.9808L669.2031 429.9808L669.2031 425.7933L669.0625 426.02768L666.5469 429.9808ZM672.78125 434.5433L672.1719 434.12143Q672.71875 433.3558 672.75 432.52768L672.75 431.55893L673.8125 431.55893L673.8125 432.40268Q673.8125 432.99643 673.5156 433.59018Q673.21875 434.18393 672.78125 434.5433ZM678.96875 424.30893L678.96875 425.21518L678.7656 425.21518Q677.5 425.24643 676.75 425.9808Q676.0 426.69955 675.875 428.01205Q676.5625 427.24643 677.71875 427.24643Q678.8281 427.24643 679.5 428.02768Q680.1719 428.80893 680.1719 430.05893Q680.1719 431.37143 679.4531 432.1683Q678.7344 432.96518 677.5156 432.96518Q676.2969 432.96518 675.53125 432.02768Q674.78125 431.07455 674.78125 429.59018L674.78125 429.18393Q674.78125 426.82455 675.78125 425.57455Q676.78125 424.32455 678.7656 424.30893L678.96875 424.30893ZM677.5469 428.15268Q676.9844 428.15268 676.5156 428.4808Q676.0469 428.80893 675.8594 429.32455L675.8594 429.71518Q675.8594 430.77768 676.3281 431.4183Q676.8125 432.05893 677.5156 432.05893Q678.25 432.05893 678.6719 431.52768Q679.09375 430.9808 679.09375 430.1058Q679.09375 429.2308 678.6719 428.69955Q678.25 428.15268 677.5469 428.15268ZM682.2031 428.55893L682.6406 424.30893L687.0156 424.30893L687.0156 425.30893L683.5625 425.30893L683.2969 427.63705Q683.9375 427.26205 684.7344 427.26205Q685.8906 427.26205 686.5781 428.0433Q687.2656 428.80893 687.2656 430.12143Q687.2656 431.43393 686.5469 432.19955Q685.84375 432.96518 684.5625 432.96518Q683.4375 432.96518 682.71875 432.34018Q682.0 431.69955 681.90625 430.59018L682.9219 430.59018Q683.03125 431.32455 683.4531 431.69955Q683.875 432.07455 684.5625 432.07455Q685.3125 432.07455 685.75 431.55893Q686.1875 431.0433 686.1875 430.13705Q686.1875 429.27768 685.71875 428.76205Q685.25 428.24643 684.46875 428.24643Q683.7656 428.24643 683.3594 428.5433L683.0781 428.77768L682.2031 428.55893ZM694.2969 432.84018L688.7031 432.84018L688.7031 432.05893L691.65625 428.77768Q692.3125 428.02768 692.5625 427.57455Q692.8125 427.1058 692.8125 426.6058Q692.8125 425.93393 692.40625 425.51205Q692.0156 425.07455 691.3281 425.07455Q690.53125 425.07455 690.0781 425.5433Q689.625 425.99643 689.625 426.82455L688.5469 426.82455Q688.5469 425.63705 689.2969 424.9183Q690.0625 424.18393 691.3281 424.18393Q692.53125 424.18393 693.21875 424.80893Q693.90625 425.43393 693.90625 426.4808Q693.90625 427.7308 692.2969 429.4808L690.0156 431.94955L694.2969 431.94955L694.2969 432.84018Z" fill-rule="nonzero"/><path fill="#000000" d="M48.80001 368.85522L34.48751 368.85522L34.48751 362.51147Q34.48751 360.60522 34.878136 359.60522Q35.253136 358.60522 36.23751 358.01147Q37.20626 357.41772 38.39376 357.41772Q39.909386 357.41772 40.95626 358.4021Q42.003136 359.38647 42.284386 361.44897Q42.64376 360.69897 43.003136 360.30835Q43.753136 359.48022 44.909386 358.73022L48.80001 356.24585L48.80001 358.62085L45.815636 360.5271Q44.534386 361.35522 43.846886 361.88647Q43.159386 362.41772 42.89376 362.85522Q42.61251 363.2771 42.503136 363.7146Q42.440636 364.04272 42.440636 364.76147L42.440636 366.9646L48.80001 366.9646L48.80001 368.85522ZM40.80001 366.9646L40.80001 362.88647Q40.80001 361.5896 40.534386 360.87085Q40.26876 360.13647 39.67501 359.76147Q39.08126 359.37085 38.39376 359.37085Q37.378136 359.37085 36.721886 360.10522Q36.065636 360.8396 36.065636 362.43335L36.065636 366.9646L40.80001 366.9646ZM48.80001 348.32397L47.26876 348.32397Q49.034386 349.5271 49.034386 351.60522Q49.034386 352.5271 48.690636 353.32397Q48.33126 354.12085 47.80001 354.51147Q47.26876 354.88647 46.48751 355.04272Q45.971886 355.1521 44.846886 355.1521L38.42501 355.1521L38.42501 353.4021L44.17501 353.4021Q45.55001 353.4021 46.034386 353.29272Q46.721886 353.12085 47.128136 352.5896Q47.51876 352.04272 47.51876 351.26147Q47.51876 350.4646 47.11251 349.7771Q46.70626 349.07397 46.01876 348.79272Q45.315636 348.49585 43.98751 348.49585L38.42501 348.49585L38.42501 346.74585L48.80001 346.74585L48.80001 348.32397ZM48.80001 344.12085L38.42501 344.12085L38.42501 342.5271L39.909386 342.5271Q38.190636 341.38647 38.190636 339.23022Q38.190636 338.29272 38.534386 337.51147Q38.86251 336.7146 39.409386 336.32397Q39.95626 335.93335 40.70626 335.7771Q41.20626 335.68335 42.42501 335.68335L48.80001 335.68335L48.80001 337.44897L42.48751 337.44897Q41.409386 337.44897 40.878136 337.6521Q40.346886 337.85522 40.034386 338.38647Q39.721886 338.9021 39.721886 339.60522Q39.721886 340.73022 40.440636 341.54272Q41.14376 342.35522 43.128136 342.35522L48.80001 342.35522L48.80001 344.12085ZM47.221886 329.2771L48.784386 329.0271Q48.940636 329.76147 48.940636 330.35522Q48.940636 331.30835 48.64376 331.8396Q48.33126 332.35522 47.846886 332.57397Q47.346886 332.79272 45.76876 332.79272L39.80001 332.79272L39.80001 334.07397L38.42501 334.07397L38.42501 332.79272L35.86251 332.79272L34.80001 331.04272L38.42501 331.04272L38.42501 329.2771L39.80001 329.2771L39.80001 331.04272L45.86251 331.04272Q46.61251 331.04272 46.83126 330.94897Q47.034386 330.85522 47.17501 330.6521Q47.30001 330.43335 47.30001 330.04272Q47.30001 329.76147 47.221886 329.2771ZM36.503136 327.10522L34.48751 327.10522L34.48751 325.3396L36.503136 325.3396L36.503136 327.10522ZM48.80001 327.10522L38.42501 327.10522L38.42501 325.3396L48.80001 325.3396L48.80001 327.10522ZM48.80001 323.12085L38.42501 323.12085L38.42501 321.54272L39.878136 321.54272Q39.128136 321.05835 38.659386 320.24585Q38.190636 319.43335 38.190636 318.4021Q38.190636 317.24585 38.67501 316.51147Q39.14376 315.7771 40.003136 315.4646Q38.190636 314.23022 38.190636 312.26147Q38.190636 310.7146 39.05001 309.88647Q39.909386 309.05835 41.67501 309.05835L48.80001 309.05835L48.80001 310.80835L42.26876 310.80835Q41.20626 310.80835 40.753136 310.98022Q40.284386 311.1521 40.003136 311.60522Q39.721886 312.04272 39.721886 312.6521Q39.721886 313.74585 40.45626 314.48022Q41.17501 315.19897 42.76876 315.19897L48.80001 315.19897L48.80001 316.94897L42.065636 316.94897Q40.89376 316.94897 40.315636 317.38647Q39.721886 317.80835 39.721886 318.79272Q39.721886 319.5271 40.11251 320.16772Q40.503136 320.79272 41.253136 321.07397Q42.003136 321.35522 43.42501 321.35522L48.80001 321.35522L48.80001 323.12085ZM45.45626 299.01147L45.690636 297.19897Q47.26876 297.62085 48.159386 298.79272Q49.034386 299.94897 49.034386 301.76147Q49.034386 304.0271 47.64376 305.37085Q46.23751 306.69897 43.70626 306.69897Q41.08126 306.69897 39.64376 305.35522Q38.190636 304.01147 38.190636 301.85522Q38.190636 299.7771 39.61251 298.4646Q41.01876 297.13647 43.596886 297.13647Q43.753136 297.13647 44.065636 297.1521L44.065636 304.88647Q45.76876 304.79272 46.67501 303.91772Q47.58126 303.04272 47.58126 301.74585Q47.58126 300.7771 47.08126 300.10522Q46.565636 299.41772 45.45626 299.01147ZM42.61251 304.79272L42.61251 298.99585Q41.315636 299.10522 40.659386 299.6521Q39.64376 300.49585 39.64376 301.8396Q39.64376 303.04272 40.45626 303.87085Q41.253136 304.69897 42.61251 304.79272ZM36.503136 289.10522L34.48751 289.10522L34.48751 287.3396L36.503136 287.3396L36.503136 289.10522ZM48.80001 289.10522L38.42501 289.10522L38.42501 287.3396L48.80001 287.3396L48.80001 289.10522ZM48.80001 285.12085L38.42501 285.12085L38.42501 283.5271L39.909386 283.5271Q38.190636 282.38647 38.190636 280.23022Q38.190636 279.29272 38.534386 278.51147Q38.86251 277.7146 39.409386 277.32397Q39.95626 276.93335 40.70626 276.7771Q41.20626 276.68335 42.42501 276.68335L48.80001 276.68335L48.80001 278.44897L42.48751 278.44897Q41.409386 278.44897 40.878136 278.6521Q40.346886 278.85522 40.034386 279.38647Q39.721886 279.9021 39.721886 280.60522Q39.721886 281.73022 40.440636 282.54272Q41.14376 283.35522 43.128136 283.35522L48.80001 283.35522L48.80001 285.12085ZM45.70626 268.82397L45.42501 267.07397Q46.471886 266.93335 47.034386 266.26147Q47.58126 265.5896 47.58126 264.38647Q47.58126 263.18335 47.096886 262.60522Q46.596886 262.01147 45.940636 262.01147Q45.346886 262.01147 45.003136 262.5271Q44.76876 262.88647 44.409386 264.32397Q43.909386 266.26147 43.565636 267.01147Q43.20626 267.74585 42.58126 268.13647Q41.940636 268.5271 41.17501 268.5271Q40.48751 268.5271 39.89376 268.2146Q39.30001 267.88647 38.909386 267.3396Q38.61251 266.93335 38.409386 266.23022Q38.190636 265.51147 38.190636 264.69897Q38.190636 263.48022 38.55001 262.55835Q38.89376 261.63647 39.503136 261.19897Q40.096886 260.76147 41.096886 260.5896L41.33126 262.30835Q40.534386 262.43335 40.096886 262.99585Q39.64376 263.55835 39.64376 264.57397Q39.64376 265.79272 40.05001 266.30835Q40.440636 266.82397 40.971886 266.82397Q41.315636 266.82397 41.596886 266.60522Q41.878136 266.4021 42.065636 265.93335Q42.159386 265.66772 42.503136 264.38647Q43.003136 262.51147 43.33126 261.7771Q43.64376 261.04272 44.253136 260.62085Q44.846886 260.19897 45.753136 260.19897Q46.628136 260.19897 47.409386 260.7146Q48.190636 261.23022 48.61251 262.19897Q49.034386 263.16772 49.034386 264.38647Q49.034386 266.4021 48.190636 267.4646Q47.346886 268.5271 45.70626 268.82397Z" fill-rule="nonzero"/><path fill="#000000" d="M91.3 558.96564Q91.3 557.4344 91.6125 556.5125Q91.925 555.575 92.53438 555.075Q93.15938 554.575 94.09688 554.575Q94.78438 554.575 95.3 554.85626Q95.83125 555.1375 96.175 555.66876Q96.51875 556.1844 96.70625 556.9344Q96.89375 557.6844 96.89375 558.96564Q96.89375 560.48126 96.58125 561.40314Q96.28438 562.325 95.65938 562.84064Q95.05 563.34064 94.09688 563.34064Q92.8625 563.34064 92.14375 562.45Q91.3 561.3875 91.3 558.96564ZM92.37813 558.96564Q92.37813 561.075 92.87813 561.77814Q93.37813 562.48126 94.09688 562.48126Q94.83125 562.48126 95.31563 561.77814Q95.81563 561.075 95.81563 558.96564Q95.81563 556.84064 95.31563 556.15314Q94.83125 555.45 94.08125 555.45Q93.3625 555.45 92.925 556.0594Q92.37813 556.84064 92.37813 558.96564ZM98.8625 563.2L98.8625 561.9969L100.06563 561.9969L100.06563 563.2Q100.06563 563.85626 99.83125 564.2625Q99.59688 564.6844 99.09688 564.90314L98.8 564.45Q99.12813 564.3094 99.28438 564.0125Q99.44063 563.73126 99.47188 563.2L98.8625 563.2ZM101.3 558.96564Q101.3 557.4344 101.6125 556.5125Q101.925 555.575 102.53438 555.075Q103.15938 554.575 104.09688 554.575Q104.78438 554.575 105.3 554.85626Q105.83125 555.1375 106.175 555.66876Q106.51875 556.1844 106.70625 556.9344Q106.89375 557.6844 106.89375 558.96564Q106.89375 560.48126 106.58125 561.40314Q106.28438 562.325 105.65938 562.84064Q105.05 563.34064 104.09688 563.34064Q102.8625 563.34064 102.14375 562.45Q101.3 561.3875 101.3 558.96564ZM102.37813 558.96564Q102.37813 561.075 102.87813 561.77814Q103.37813 562.48126 104.09688 562.48126Q104.83125 562.48126 105.31563 561.77814Q105.81563 561.075 105.81563 558.96564Q105.81563 556.84064 105.31563 556.15314Q104.83125 555.45 104.08125 555.45Q103.3625 555.45 102.925 556.0594Q102.37813 556.84064 102.37813 558.96564ZM108.3 558.96564Q108.3 557.4344 108.6125 556.5125Q108.925 555.575 109.53438 555.075Q110.15938 554.575 111.09688 554.575Q111.78438 554.575 112.3 554.85626Q112.83125 555.1375 113.175 555.66876Q113.51875 556.1844 113.70625 556.9344Q113.89375 557.6844 113.89375 558.96564Q113.89375 560.48126 113.58125 561.40314Q113.28438 562.325 112.65938 562.84064Q112.05 563.34064 111.09688 563.34064Q109.8625 563.34064 109.14375 562.45Q108.3 561.3875 108.3 558.96564ZM109.37813 558.96564Q109.37813 561.075 109.87813 561.77814Q110.37813 562.48126 111.09688 562.48126Q111.83125 562.48126 112.31563 561.77814Q112.81563 561.075 112.81563 558.96564Q112.81563 556.84064 112.31563 556.15314Q111.83125 555.45 111.08125 555.45Q110.3625 555.45 109.925 556.0594Q109.37813 556.84064 109.37813 558.96564ZM115.3 558.96564Q115.3 557.4344 115.6125 556.5125Q115.925 555.575 116.53438 555.075Q117.15938 554.575 118.09688 554.575Q118.78438 554.575 119.3 554.85626Q119.83125 555.1375 120.175 555.66876Q120.51875 556.1844 120.70625 556.9344Q120.89375 557.6844 120.89375 558.96564Q120.89375 560.48126 120.58125 561.40314Q120.28438 562.325 119.65938 562.84064Q119.05 563.34064 118.09688 563.34064Q116.8625 563.34064 116.14375 562.45Q115.3 561.3875 115.3 558.96564ZM116.37813 558.96564Q116.37813 561.075 116.87813 561.77814Q117.37813 562.48126 118.09688 562.48126Q118.83125 562.48126 119.31563 561.77814Q119.81563 561.075 119.81563 558.96564Q119.81563 556.84064 119.31563 556.15314Q118.83125 555.45 118.08125 555.45Q117.3625 555.45 116.925 556.0594Q116.37813 556.84064 116.37813 558.96564Z" fill-rule="nonzero"/><path fill="#000000" d="M88.26875 465.49335L87.22188 465.49335L87.22188 458.7746Q86.83125 459.13397 86.20625 459.50897Q85.59688 459.86835 85.1125 460.04022L85.1125 459.0246Q85.9875 458.60272 86.64375 458.0246Q87.31563 457.43085 87.59688 456.86835L88.26875 456.86835L88.26875 465.49335ZM91.3 461.25897Q91.3 459.72772 91.6125 458.80585Q91.925 457.86835 92.53438 457.36835Q93.15938 456.86835 94.09688 456.86835Q94.78438 456.86835 95.3 457.1496Q95.83125 457.43085 96.175 457.9621Q96.51875 458.47772 96.70625 459.22772Q96.89375 459.97772 96.89375 461.25897Q96.89375 462.7746 96.58125 463.69647Q96.28438 464.61835 95.65938 465.13397Q95.05 465.63397 94.09688 465.63397Q92.8625 465.63397 92.14375 464.74335Q91.3 463.68085 91.3 461.25897ZM92.37813 461.25897Q92.37813 463.36835 92.87813 464.07147Q93.37813 464.7746 94.09688 464.7746Q94.83125 464.7746 95.31563 464.07147Q95.81563 463.36835 95.81563 461.25897Q95.81563 459.13397 95.31563 458.44647Q94.83125 457.74335 94.08125 457.74335Q93.3625 457.74335 92.925 458.35272Q92.37813 459.13397 92.37813 461.25897ZM98.8625 465.49335L98.8625 464.29022L100.06563 464.29022L100.06563 465.49335Q100.06563 466.1496 99.83125 466.55585Q99.59688 466.97772 99.09688 467.19647L98.8 466.74335Q99.12813 466.60272 99.28438 466.30585Q99.44063 466.0246 99.47188 465.49335L98.8625 465.49335ZM101.3 461.25897Q101.3 459.72772 101.6125 458.80585Q101.925 457.86835 102.53438 457.36835Q103.15938 456.86835 104.09688 456.86835Q104.78438 456.86835 105.3 457.1496Q105.83125 457.43085 106.175 457.9621Q106.51875 458.47772 106.70625 459.22772Q106.89375 459.97772 106.89375 461.25897Q106.89375 462.7746 106.58125 463.69647Q106.28438 464.61835 105.65938 465.13397Q105.05 465.63397 104.09688 465.63397Q102.8625 465.63397 102.14375 464.74335Q101.3 463.68085 101.3 461.25897ZM102.37813 461.25897Q102.37813 463.36835 102.87813 464.07147Q103.37813 464.7746 104.09688 464.7746Q104.83125 464.7746 105.31563 464.07147Q105.81563 463.36835 105.81563 461.25897Q105.81563 459.13397 105.31563 458.44647Q104.83125 457.74335 104.08125 457.74335Q103.3625 457.74335 102.925 458.35272Q102.37813 459.13397 102.37813 461.25897ZM108.3 461.25897Q108.3 459.72772 108.6125 458.80585Q108.925 457.86835 109.53438 457.36835Q110.15938 456.86835 111.09688 456.86835Q111.78438 456.86835 112.3 457.1496Q112.83125 457.43085 113.175 457.9621Q113.51875 458.47772 113.70625 459.22772Q113.89375 459.97772 113.89375 461.25897Q113.89375 462.7746 113.58125 463.69647Q113.28438 464.61835 112.65938 465.13397Q112.05 465.63397 111.09688 465.63397Q109.8625 465.63397 109.14375 464.74335Q108.3 463.68085 108.3 461.25897ZM109.37813 461.25897Q109.37813 463.36835 109.87813 464.07147Q110.37813 464.7746 111.09688 464.7746Q111.83125 464.7746 112.31563 464.07147Q112.81563 463.36835 112.81563 461.25897Q112.81563 459.13397 112.31563 458.44647Q111.83125 457.74335 111.08125 457.74335Q110.3625 457.74335 109.925 458.35272Q109.37813 459.13397 109.37813 461.25897ZM115.3 461.25897Q115.3 459.72772 115.6125 458.80585Q115.925 457.86835 116.53438 457.36835Q117.15938 456.86835 118.09688 456.86835Q118.78438 456.86835 119.3 457.1496Q119.83125 457.43085 120.175 457.9621Q120.51875 458.47772 120.70625 459.22772Q120.89375 459.97772 120.89375 461.25897Q120.89375 462.7746 120.58125 463.69647Q120.28438 464.61835 119.65938 465.13397Q119.05 465.63397 118.09688 465.63397Q116.8625 465.63397 116.14375 464.74335Q115.3 463.68085 115.3 461.25897ZM116.37813 461.25897Q116.37813 463.36835 116.87813 464.07147Q117.37813 464.7746 118.09688 464.7746Q118.83125 464.7746 119.31563 464.07147Q119.81563 463.36835 119.81563 461.25897Q119.81563 459.13397 119.31563 458.44647Q118.83125 457.74335 118.08125 457.74335Q117.3625 457.74335 116.925 458.35272Q116.37813 459.13397 116.37813 461.25897Z" fill-rule="nonzero"/><path fill="#000000" d="M89.84688 366.77103L89.84688 367.78665L84.15938 367.78665Q84.15938 367.41165 84.28438 367.05228Q84.50313 366.47415 84.97188 365.91165Q85.45625 365.34915 86.3625 364.61478Q87.76875 363.45853 88.25313 362.78665Q88.75313 362.11478 88.75313 361.52103Q88.75313 360.89603 88.3 360.47415Q87.84688 360.03665 87.12813 360.03665Q86.3625 360.03665 85.90938 360.48978Q85.45625 360.9429 85.44063 361.7554L84.3625 361.64603Q84.47188 360.42728 85.19063 359.80228Q85.925 359.16165 87.15938 359.16165Q88.39375 359.16165 89.1125 359.84915Q89.83125 360.53665 89.83125 361.55228Q89.83125 362.0679 89.6125 362.5679Q89.40938 363.05228 88.90938 363.61478Q88.425 364.16165 87.3 365.11478Q86.34688 365.91165 86.06563 366.20853Q85.8 366.48978 85.62813 366.77103L89.84688 366.77103ZM91.3 363.55228Q91.3 362.02103 91.6125 361.09915Q91.925 360.16165 92.53438 359.66165Q93.15938 359.16165 94.09688 359.16165Q94.78438 359.16165 95.3 359.4429Q95.83125 359.72415 96.175 360.2554Q96.51875 360.77103 96.70625 361.52103Q96.89375 362.27103 96.89375 363.55228Q96.89375 365.0679 96.58125 365.98978Q96.28438 366.91165 95.65938 367.42728Q95.05 367.92728 94.09688 367.92728Q92.8625 367.92728 92.14375 367.03665Q91.3 365.97415 91.3 363.55228ZM92.37813 363.55228Q92.37813 365.66165 92.87813 366.36478Q93.37813 367.0679 94.09688 367.0679Q94.83125 367.0679 95.31563 366.36478Q95.81563 365.66165 95.81563 363.55228Q95.81563 361.42728 95.31563 360.73978Q94.83125 360.03665 94.08125 360.03665Q93.3625 360.03665 92.925 360.64603Q92.37813 361.42728 92.37813 363.55228ZM98.8625 367.78665L98.8625 366.58353L100.06563 366.58353L100.06563 367.78665Q100.06563 368.4429 99.83125 368.84915Q99.59688 369.27103 99.09688 369.48978L98.8 369.03665Q99.12813 368.89603 99.28438 368.59915Q99.44063 368.3179 99.47188 367.78665L98.8625 367.78665ZM101.3 363.55228Q101.3 362.02103 101.6125 361.09915Q101.925 360.16165 102.53438 359.66165Q103.15938 359.16165 104.09688 359.16165Q104.78438 359.16165 105.3 359.4429Q105.83125 359.72415 106.175 360.2554Q106.51875 360.77103 106.70625 361.52103Q106.89375 362.27103 106.89375 363.55228Q106.89375 365.0679 106.58125 365.98978Q106.28438 366.91165 105.65938 367.42728Q105.05 367.92728 104.09688 367.92728Q102.8625 367.92728 102.14375 367.03665Q101.3 365.97415 101.3 363.55228ZM102.37813 363.55228Q102.37813 365.66165 102.87813 366.36478Q103.37813 367.0679 104.09688 367.0679Q104.83125 367.0679 105.31563 366.36478Q105.81563 365.66165 105.81563 363.55228Q105.81563 361.42728 105.31563 360.73978Q104.83125 360.03665 104.08125 360.03665Q103.3625 360.03665 102.925 360.64603Q102.37813 361.42728 102.37813 363.55228ZM108.3 363.55228Q108.3 362.02103 108.6125 361.09915Q108.925 360.16165 109.53438 359.66165Q110.15938 359.16165 111.09688 359.16165Q111.78438 359.16165 112.3 359.4429Q112.83125 359.72415 113.175 360.2554Q113.51875 360.77103 113.70625 361.52103Q113.89375 362.27103 113.89375 363.55228Q113.89375 365.0679 113.58125 365.98978Q113.28438 366.91165 112.65938 367.42728Q112.05 367.92728 111.09688 367.92728Q109.8625 367.92728 109.14375 367.03665Q108.3 365.97415 108.3 363.55228ZM109.37813 363.55228Q109.37813 365.66165 109.87813 366.36478Q110.37813 367.0679 111.09688 367.0679Q111.83125 367.0679 112.31563 366.36478Q112.81563 365.66165 112.81563 363.55228Q112.81563 361.42728 112.31563 360.73978Q111.83125 360.03665 111.08125 360.03665Q110.3625 360.03665 109.925 360.64603Q109.37813 361.42728 109.37813 363.55228ZM115.3 363.55228Q115.3 362.02103 115.6125 361.09915Q115.925 360.16165 116.53438 359.66165Q117.15938 359.16165 118.09688 359.16165Q118.78438 359.16165 119.3 359.4429Q119.83125 359.72415 120.175 360.2554Q120.51875 360.77103 120.70625 361.52103Q120.89375 362.27103 120.89375 363.55228Q120.89375 365.0679 120.58125 365.98978Q120.28438 366.91165 119.65938 367.42728Q119.05 367.92728 118.09688 367.92728Q116.8625 367.92728 116.14375 367.03665Q115.3 365.97415 115.3 363.55228ZM116.37813 363.55228Q116.37813 365.66165 116.87813 366.36478Q117.37813 367.0679 118.09688 367.0679Q118.83125 367.0679 119.31563 366.36478Q119.81563 365.66165 119.81563 363.55228Q119.81563 361.42728 119.31563 360.73978Q118.83125 360.03665 118.08125 360.03665Q117.3625 360.03665 116.925 360.64603Q116.37813 361.42728 116.37813 363.55228Z" fill-rule="nonzero"/><path fill="#000000" d="M84.3 267.81436L85.3625 267.67374Q85.53438 268.56436 85.97188 268.9706Q86.40938 269.36124 87.03438 269.36124Q87.78438 269.36124 88.3 268.8456Q88.81563 268.33 88.81563 267.56436Q88.81563 266.8456 88.33125 266.37686Q87.8625 265.8925 87.12813 265.8925Q86.83125 265.8925 86.37813 266.0175L86.50313 265.08Q86.6125 265.0956 86.675 265.0956Q87.34688 265.0956 87.87813 264.75186Q88.425 264.3925 88.425 263.6581Q88.425 263.08 88.03438 262.705Q87.64375 262.31436 87.01875 262.31436Q86.40938 262.31436 85.9875 262.705Q85.58125 263.0956 85.47188 263.86124L84.40938 263.67374Q84.59688 262.62686 85.28438 262.04874Q85.97188 261.455 86.9875 261.455Q87.69063 261.455 88.28438 261.7675Q88.87813 262.06436 89.19063 262.58Q89.50313 263.0956 89.50313 263.68936Q89.50313 264.23624 89.20625 264.705Q88.90938 265.1581 88.33125 265.42374Q89.08125 265.5956 89.50313 266.1581Q89.925 266.705 89.925 267.54874Q89.925 268.67374 89.09688 269.455Q88.28438 270.23624 87.03438 270.23624Q85.90938 270.23624 85.15938 269.56436Q84.40938 268.87686 84.3 267.81436ZM91.3 265.8456Q91.3 264.31436 91.6125 263.3925Q91.925 262.455 92.53438 261.955Q93.15938 261.455 94.09688 261.455Q94.78438 261.455 95.3 261.73624Q95.83125 262.0175 96.175 262.54874Q96.51875 263.06436 96.70625 263.81436Q96.89375 264.56436 96.89375 265.8456Q96.89375 267.36124 96.58125 268.2831Q96.28438 269.205 95.65938 269.7206Q95.05 270.2206 94.09688 270.2206Q92.8625 270.2206 92.14375 269.33Q91.3 268.2675 91.3 265.8456ZM92.37813 265.8456Q92.37813 267.955 92.87813 268.6581Q93.37813 269.36124 94.09688 269.36124Q94.83125 269.36124 95.31563 268.6581Q95.81563 267.955 95.81563 265.8456Q95.81563 263.7206 95.31563 263.0331Q94.83125 262.33 94.08125 262.33Q93.3625 262.33 92.925 262.93936Q92.37813 263.7206 92.37813 265.8456ZM98.8625 270.08L98.8625 268.87686L100.06563 268.87686L100.06563 270.08Q100.06563 270.73624 99.83125 271.1425Q99.59688 271.56436 99.09688 271.7831L98.8 271.33Q99.12813 271.18936 99.28438 270.8925Q99.44063 270.61124 99.47188 270.08L98.8625 270.08ZM101.3 265.8456Q101.3 264.31436 101.6125 263.3925Q101.925 262.455 102.53438 261.955Q103.15938 261.455 104.09688 261.455Q104.78438 261.455 105.3 261.73624Q105.83125 262.0175 106.175 262.54874Q106.51875 263.06436 106.70625 263.81436Q106.89375 264.56436 106.89375 265.8456Q106.89375 267.36124 106.58125 268.2831Q106.28438 269.205 105.65938 269.7206Q105.05 270.2206 104.09688 270.2206Q102.8625 270.2206 102.14375 269.33Q101.3 268.2675 101.3 265.8456ZM102.37813 265.8456Q102.37813 267.955 102.87813 268.6581Q103.37813 269.36124 104.09688 269.36124Q104.83125 269.36124 105.31563 268.6581Q105.81563 267.955 105.81563 265.8456Q105.81563 263.7206 105.31563 263.0331Q104.83125 262.33 104.08125 262.33Q103.3625 262.33 102.925 262.93936Q102.37813 263.7206 102.37813 265.8456ZM108.3 265.8456Q108.3 264.31436 108.6125 263.3925Q108.925 262.455 109.53438 261.955Q110.15938 261.455 111.09688 261.455Q111.78438 261.455 112.3 261.73624Q112.83125 262.0175 113.175 262.54874Q113.51875 263.06436 113.70625 263.81436Q113.89375 264.56436 113.89375 265.8456Q113.89375 267.36124 113.58125 268.2831Q113.28438 269.205 112.65938 269.7206Q112.05 270.2206 111.09688 270.2206Q109.8625 270.2206 109.14375 269.33Q108.3 268.2675 108.3 265.8456ZM109.37813 265.8456Q109.37813 267.955 109.87813 268.6581Q110.37813 269.36124 111.09688 269.36124Q111.83125 269.36124 112.31563 268.6581Q112.81563 267.955 112.81563 265.8456Q112.81563 263.7206 112.31563 263.0331Q111.83125 262.33 111.08125 262.33Q110.3625 262.33 109.925 262.93936Q109.37813 263.7206 109.37813 265.8456ZM115.3 265.8456Q115.3 264.31436 115.6125 263.3925Q115.925 262.455 116.53438 261.955Q117.15938 261.455 118.09688 261.455Q118.78438 261.455 119.3 261.73624Q119.83125 262.0175 120.175 262.54874Q120.51875 263.06436 120.70625 263.81436Q120.89375 264.56436 120.89375 265.8456Q120.89375 267.36124 120.58125 268.2831Q120.28438 269.205 119.65938 269.7206Q119.05 270.2206 118.09688 270.2206Q116.8625 270.2206 116.14375 269.33Q115.3 268.2675 115.3 265.8456ZM116.37813 265.8456Q116.37813 267.955 116.87813 268.6581Q117.37813 269.36124 118.09688 269.36124Q118.83125 269.36124 119.31563 268.6581Q119.81563 267.955 119.81563 265.8456Q119.81563 263.7206 119.31563 263.0331Q118.83125 262.33 118.08125 262.33Q117.3625 262.33 116.925 262.93936Q116.37813 263.7206 116.37813 265.8456Z" fill-rule="nonzero"/><path fill="#000000" d="M87.675 172.37334L87.675 170.31084L83.95625 170.31084L83.95625 169.34209L87.87813 163.77959L88.7375 163.77959L88.7375 169.34209L89.89375 169.34209L89.89375 170.31084L88.7375 170.31084L88.7375 172.37334L87.675 172.37334ZM87.675 169.34209L87.675 165.48271L84.9875 169.34209L87.675 169.34209ZM91.3 168.13896Q91.3 166.60771 91.6125 165.68584Q91.925 164.74834 92.53438 164.24834Q93.15938 163.74834 94.09688 163.74834Q94.78438 163.74834 95.3 164.02959Q95.83125 164.31084 96.175 164.84209Q96.51875 165.35771 96.70625 166.10771Q96.89375 166.85771 96.89375 168.13896Q96.89375 169.65459 96.58125 170.57646Q96.28438 171.49834 95.65938 172.01396Q95.05 172.51396 94.09688 172.51396Q92.8625 172.51396 92.14375 171.62334Q91.3 170.56084 91.3 168.13896ZM92.37813 168.13896Q92.37813 170.24834 92.87813 170.95146Q93.37813 171.65459 94.09688 171.65459Q94.83125 171.65459 95.31563 170.95146Q95.81563 170.24834 95.81563 168.13896Q95.81563 166.01396 95.31563 165.32646Q94.83125 164.62334 94.08125 164.62334Q93.3625 164.62334 92.925 165.23271Q92.37813 166.01396 92.37813 168.13896ZM98.8625 172.37334L98.8625 171.17021L100.06563 171.17021L100.06563 172.37334Q100.06563 173.02959 99.83125 173.43584Q99.59688 173.85771 99.09688 174.07646L98.8 173.62334Q99.12813 173.48271 99.28438 173.18584Q99.44063 172.90459 99.47188 172.37334L98.8625 172.37334ZM101.3 168.13896Q101.3 166.60771 101.6125 165.68584Q101.925 164.74834 102.53438 164.24834Q103.15938 163.74834 104.09688 163.74834Q104.78438 163.74834 105.3 164.02959Q105.83125 164.31084 106.175 164.84209Q106.51875 165.35771 106.70625 166.10771Q106.89375 166.85771 106.89375 168.13896Q106.89375 169.65459 106.58125 170.57646Q106.28438 171.49834 105.65938 172.01396Q105.05 172.51396 104.09688 172.51396Q102.8625 172.51396 102.14375 171.62334Q101.3 170.56084 101.3 168.13896ZM102.37813 168.13896Q102.37813 170.24834 102.87813 170.95146Q103.37813 171.65459 104.09688 171.65459Q104.83125 171.65459 105.31563 170.95146Q105.81563 170.24834 105.81563 168.13896Q105.81563 166.01396 105.31563 165.32646Q104.83125 164.62334 104.08125 164.62334Q103.3625 164.62334 102.925 165.23271Q102.37813 166.01396 102.37813 168.13896ZM108.3 168.13896Q108.3 166.60771 108.6125 165.68584Q108.925 164.74834 109.53438 164.24834Q110.15938 163.74834 111.09688 163.74834Q111.78438 163.74834 112.3 164.02959Q112.83125 164.31084 113.175 164.84209Q113.51875 165.35771 113.70625 166.10771Q113.89375 166.85771 113.89375 168.13896Q113.89375 169.65459 113.58125 170.57646Q113.28438 171.49834 112.65938 172.01396Q112.05 172.51396 111.09688 172.51396Q109.8625 172.51396 109.14375 171.62334Q108.3 170.56084 108.3 168.13896ZM109.37813 168.13896Q109.37813 170.24834 109.87813 170.95146Q110.37813 171.65459 111.09688 171.65459Q111.83125 171.65459 112.31563 170.95146Q112.81563 170.24834 112.81563 168.13896Q112.81563 166.01396 112.31563 165.32646Q111.83125 164.62334 111.08125 164.62334Q110.3625 164.62334 109.925 165.23271Q109.37813 166.01396 109.37813 168.13896ZM115.3 168.13896Q115.3 166.60771 115.6125 165.68584Q115.925 164.74834 116.53438 164.24834Q117.15938 163.74834 118.09688 163.74834Q118.78438 163.74834 119.3 164.02959Q119.83125 164.31084 120.175 164.84209Q120.51875 165.35771 120.70625 166.10771Q120.89375 166.85771 120.89375 168.13896Q120.89375 169.65459 120.58125 170.57646Q120.28438 171.49834 119.65938 172.01396Q119.05 172.51396 118.09688 172.51396Q116.8625 172.51396 116.14375 171.62334Q115.3 170.56084 115.3 168.13896ZM116.37813 168.13896Q116.37813 170.24834 116.87813 170.95146Q117.37813 171.65459 118.09688 171.65459Q118.83125 171.65459 119.31563 170.95146Q119.81563 170.24834 119.81563 168.13896Q119.81563 166.01396 119.31563 165.32646Q118.83125 164.62334 118.08125 164.62334Q117.3625 164.62334 116.925 165.23271Q116.37813 166.01396 116.37813 168.13896Z" fill-rule="nonzero"/><path fill="#000000" d="M84.3 72.416664L85.40938 72.322914Q85.53438 73.135414 85.97188 73.541664Q86.425 73.947914 87.06563 73.947914Q87.81563 73.947914 88.34688 73.36979Q88.87813 72.791664 88.87813 71.854164Q88.87813 70.947914 88.3625 70.43229Q87.8625 69.90104 87.03438 69.90104Q86.53438 69.90104 86.1125 70.135414Q85.70625 70.36979 85.47188 70.729164L84.4875 70.604164L85.31563 66.197914L89.59688 66.197914L89.59688 67.197914L86.15938 67.197914L85.70625 69.510414Q86.47188 68.96354 87.31563 68.96354Q88.44063 68.96354 89.20625 69.74479Q89.9875 70.52604 89.9875 71.760414Q89.9875 72.916664 89.31563 73.77604Q88.4875 74.80729 87.06563 74.80729Q85.89375 74.80729 85.14375 74.15104Q84.40938 73.49479 84.3 72.416664ZM91.3 70.43229Q91.3 68.90104 91.6125 67.979164Q91.925 67.041664 92.53438 66.541664Q93.15938 66.041664 94.09688 66.041664Q94.78438 66.041664 95.3 66.322914Q95.83125 66.604164 96.175 67.135414Q96.51875 67.65104 96.70625 68.40104Q96.89375 69.15104 96.89375 70.43229Q96.89375 71.947914 96.58125 72.86979Q96.28438 73.791664 95.65938 74.30729Q95.05 74.80729 94.09688 74.80729Q92.8625 74.80729 92.14375 73.916664Q91.3 72.854164 91.3 70.43229ZM92.37813 70.43229Q92.37813 72.541664 92.87813 73.24479Q93.37813 73.947914 94.09688 73.947914Q94.83125 73.947914 95.31563 73.24479Q95.81563 72.541664 95.81563 70.43229Q95.81563 68.30729 95.31563 67.61979Q94.83125 66.916664 94.08125 66.916664Q93.3625 66.916664 92.925 67.52604Q92.37813 68.30729 92.37813 70.43229ZM98.8625 74.666664L98.8625 73.46354L100.06563 73.46354L100.06563 74.666664Q100.06563 75.322914 99.83125 75.729164Q99.59688 76.15104 99.09688 76.36979L98.8 75.916664Q99.12813 75.77604 99.28438 75.479164Q99.44063 75.197914 99.47188 74.666664L98.8625 74.666664ZM101.3 70.43229Q101.3 68.90104 101.6125 67.979164Q101.925 67.041664 102.53438 66.541664Q103.15938 66.041664 104.09688 66.041664Q104.78438 66.041664 105.3 66.322914Q105.83125 66.604164 106.175 67.135414Q106.51875 67.65104 106.70625 68.40104Q106.89375 69.15104 106.89375 70.43229Q106.89375 71.947914 106.58125 72.86979Q106.28438 73.791664 105.65938 74.30729Q105.05 74.80729 104.09688 74.80729Q102.8625 74.80729 102.14375 73.916664Q101.3 72.854164 101.3 70.43229ZM102.37813 70.43229Q102.37813 72.541664 102.87813 73.24479Q103.37813 73.947914 104.09688 73.947914Q104.83125 73.947914 105.31563 73.24479Q105.81563 72.541664 105.81563 70.43229Q105.81563 68.30729 105.31563 67.61979Q104.83125 66.916664 104.08125 66.916664Q103.3625 66.916664 102.925 67.52604Q102.37813 68.30729 102.37813 70.43229ZM108.3 70.43229Q108.3 68.90104 108.6125 67.979164Q108.925 67.041664 109.53438 66.541664Q110.15938 66.041664 111.09688 66.041664Q111.78438 66.041664 112.3 66.322914Q112.83125 66.604164 113.175 67.135414Q113.51875 67.65104 113.70625 68.40104Q113.89375 69.15104 113.89375 70.43229Q113.89375 71.947914 113.58125 72.86979Q113.28438 73.791664 112.65938 74.30729Q112.05 74.80729 111.09688 74.80729Q109.8625 74.80729 109.14375 73.916664Q108.3 72.854164 108.3 70.43229ZM109.37813 70.43229Q109.37813 72.541664 109.87813 73.24479Q110.37813 73.947914 111.09688 73.947914Q111.83125 73.947914 112.31563 73.24479Q112.81563 72.541664 112.81563 70.43229Q112.81563 68.30729 112.31563 67.61979Q111.83125 66.916664 111.08125 66.916664Q110.3625 66.916664 109.925 67.52604Q109.37813 68.30729 109.37813 70.43229ZM115.3 70.43229Q115.3 68.90104 115.6125 67.979164Q115.925 67.041664 116.53438 66.541664Q117.15938 66.041664 118.09688 66.041664Q118.78438 66.041664 119.3 66.322914Q119.83125 66.604164 120.175 67.135414Q120.51875 67.65104 120.70625 68.40104Q120.89375 69.15104 120.89375 70.43229Q120.89375 71.947914 120.58125 72.86979Q120.28438 73.791664 119.65938 74.30729Q119.05 74.80729 118.09688 74.80729Q116.8625 74.80729 116.14375 73.916664Q115.3 72.854164 115.3 70.43229ZM116.37813 70.43229Q116.37813 72.541664 116.87813 73.24479Q117.37813 73.947914 118.09688 73.947914Q118.83125 73.947914 119.31563 73.24479Q119.81563 72.541664 119.81563 70.43229Q119.81563 68.30729 119.31563 67.61979Q118.83125 66.916664 118.08125 66.916664Q117.3625 66.916664 116.925 67.52604Q116.37813 68.30729 116.37813 70.43229Z" fill-rule="nonzero"/><path fill="#4285f4" d="M309.5 31.8C309.5 31.247715 309.94772 30.8 310.5 30.8L320.5 30.8C321.05228 30.8 321.5 31.247715 321.5 31.8L321.5 41.8C321.5 42.352283 321.05228 42.8 320.5 42.8L310.5 42.8C309.94772 42.8 309.5 42.352283 309.5 41.8Z" fill-rule="nonzero"/><path fill="#1a1a1a" d="M333.96875 40.8L332.92188 40.8L332.92188 34.08125Q332.53125 34.440624 331.90625 34.815624Q331.29688 35.175 330.8125 35.346874L330.8125 34.33125Q331.6875 33.909374 332.34375 33.33125Q333.01562 32.7375 333.29688 32.175L333.96875 32.175L333.96875 40.8ZM342.60938 40.8L342.60938 33.221874L339.78125 33.221874L339.78125 32.20625L346.59375 32.20625L346.59375 33.221874L343.75 33.221874L343.75 40.8L342.60938 40.8ZM347.29688 40.8L347.29688 32.20625L348.34375 32.20625L348.34375 35.284374Q349.07812 34.440624 350.20312 34.440624Q350.90625 34.440624 351.40625 34.721874Q351.92188 34.9875 352.14062 35.471874Q352.35938 35.940624 352.35938 36.8625L352.35938 40.8L351.3125 40.8L351.3125 36.8625Q351.3125 36.065624 350.96875 35.70625Q350.625 35.346874 350.0 35.346874Q349.53125 35.346874 349.10938 35.596874Q348.70312 35.83125 348.51562 36.253124Q348.34375 36.659374 348.34375 37.39375L348.34375 40.8L347.29688 40.8ZM354.28125 40.8L354.28125 34.58125L355.23438 34.58125L355.23438 35.51875Q355.59375 34.8625 355.89062 34.659374Q356.20312 34.440624 356.57812 34.440624Q357.10938 34.440624 357.65625 34.76875L357.29688 35.753124Q356.90625 35.51875 356.53125 35.51875Q356.17188 35.51875 355.89062 35.7375Q355.625 35.940624 355.51562 36.315624Q355.32812 36.878124 355.32812 37.534374L355.32812 40.8L354.28125 40.8ZM362.54688 38.8L363.64062 38.925Q363.39062 39.878124 362.6875 40.409374Q361.98438 40.940624 360.90625 40.940624Q359.54688 40.940624 358.73438 40.096874Q357.9375 39.253124 357.9375 37.7375Q357.9375 36.175 358.75 35.315624Q359.5625 34.440624 360.84375 34.440624Q362.09375 34.440624 362.875 35.284374Q363.67188 36.128124 363.67188 37.675Q363.67188 37.76875 363.67188 37.95625L359.03125 37.95625Q359.09375 38.9875 359.60938 39.534374Q360.125 40.065624 360.90625 40.065624Q361.48438 40.065624 361.89062 39.76875Q362.3125 39.45625 362.54688 38.8ZM359.09375 37.096874L362.5625 37.096874Q362.5 36.3 362.17188 35.909374Q361.65625 35.3 360.85938 35.3Q360.125 35.3 359.625 35.784374Q359.14062 36.26875 359.09375 37.096874ZM369.35938 40.034374Q368.76562 40.534374 368.21875 40.7375Q367.6875 40.940624 367.0625 40.940624Q366.03125 40.940624 365.48438 40.440624Q364.9375 39.940624 364.9375 39.159374Q364.9375 38.70625 365.14062 38.33125Q365.34375 37.940624 365.6875 37.721874Q366.03125 37.4875 366.45312 37.378124Q366.75 37.284374 367.39062 37.20625Q368.65625 37.065624 369.26562 36.846874Q369.26562 36.628124 369.26562 36.58125Q369.26562 35.925 368.96875 35.659374Q368.5625 35.315624 367.76562 35.315624Q367.03125 35.315624 366.67188 35.58125Q366.3125 35.83125 366.14062 36.4875L365.10938 36.346874Q365.25 35.690624 365.57812 35.284374Q365.90625 34.878124 366.51562 34.659374Q367.125 34.440624 367.92188 34.440624Q368.71875 34.440624 369.21875 34.628124Q369.71875 34.815624 369.95312 35.096874Q370.1875 35.378124 370.28125 35.815624Q370.32812 36.08125 370.32812 36.784374L370.32812 38.190624Q370.32812 39.659374 370.39062 40.05Q370.46875 40.440624 370.67188 40.8L369.5625 40.8Q369.40625 40.471874 369.35938 40.034374ZM369.26562 37.675Q368.6875 37.909374 367.54688 38.08125Q366.89062 38.175 366.625 38.3Q366.35938 38.409374 366.20312 38.628124Q366.0625 38.846874 366.0625 39.128124Q366.0625 39.55 366.375 39.83125Q366.70312 40.1125 367.3125 40.1125Q367.92188 40.1125 368.39062 39.846874Q368.875 39.58125 369.09375 39.1125Q369.26562 38.753124 369.26562 38.065624L369.26562 37.675ZM376.32812 40.8L376.32812 40.01875Q375.73438 40.940624 374.59375 40.940624Q373.84375 40.940624 373.21875 40.534374Q372.59375 40.1125 372.25 39.378124Q371.90625 38.64375 371.90625 37.690624Q371.90625 36.76875 372.21875 36.003124Q372.53125 35.2375 373.15625 34.846874Q373.78125 34.440624 374.54688 34.440624Q375.10938 34.440624 375.54688 34.675Q375.98438 34.909374 376.26562 35.284374L376.26562 32.20625L377.3125 32.20625L377.3125 40.8L376.32812 40.8ZM373.0 37.690624Q373.0 38.89375 373.5 39.4875Q374.0 40.065624 374.6875 40.065624Q375.375 40.065624 375.85938 39.503124Q376.34375 38.940624 376.34375 37.784374Q376.34375 36.503124 375.84375 35.909374Q375.35938 35.315624 374.64062 35.315624Q373.9375 35.315624 373.46875 35.89375Q373.0 36.45625 373.0 37.690624Z" fill-rule="nonzero"/><path fill="#ea4335" d="M394.5 31.8C394.5 31.247715 394.94772 30.8 395.5 30.8L405.5 30.8C406.05228 30.8 406.5 31.247715 406.5 31.8L406.5 41.8C406.5 42.352283 406.05228 42.8 405.5 42.8L395.5 42.8C394.94772 42.8 394.5 42.352283 394.5 41.8Z" fill-rule="nonzero"/><path fill="#1a1a1a" d="M420.54688 39.784374L420.54688 40.8L414.85938 40.8Q414.85938 40.425 414.98438 40.065624Q415.20312 39.4875 415.67188 38.925Q416.15625 38.3625 417.0625 37.628124Q418.46875 36.471874 418.95312 35.8Q419.45312 35.128124 419.45312 34.534374Q419.45312 33.909374 419.0 33.4875Q418.54688 33.05 417.82812 33.05Q417.0625 33.05 416.60938 33.503124Q416.15625 33.95625 416.14062 34.76875L415.0625 34.659374Q415.17188 33.440624 415.89062 32.815624Q416.625 32.175 417.85938 32.175Q419.09375 32.175 419.8125 32.8625Q420.53125 33.55 420.53125 34.565624Q420.53125 35.08125 420.3125 35.58125Q420.10938 36.065624 419.60938 36.628124Q419.125 37.175 418.0 38.128124Q417.04688 38.925 416.76562 39.221874Q416.5 39.503124 416.32812 39.784374L420.54688 39.784374ZM427.60938 40.8L427.60938 33.221874L424.78125 33.221874L424.78125 32.20625L431.59375 32.20625L431.59375 33.221874L428.75 33.221874L428.75 40.8L427.60938 40.8ZM432.29688 40.8L432.29688 32.20625L433.34375 32.20625L433.34375 35.284374Q434.07812 34.440624 435.20312 34.440624Q435.90625 34.440624 436.40625 34.721874Q436.92188 34.9875 437.14062 35.471874Q437.35938 35.940624 437.35938 36.8625L437.35938 40.8L436.3125 40.8L436.3125 36.8625Q436.3125 36.065624 435.96875 35.70625Q435.625 35.346874 435.0 35.346874Q434.53125 35.346874 434.10938 35.596874Q433.70312 35.83125 433.51562 36.253124Q433.34375 36.659374 433.34375 37.39375L433.34375 40.8L432.29688 40.8ZM439.28125 40.8L439.28125 34.58125L440.23438 34.58125L440.23438 35.51875Q440.59375 34.8625 440.89062 34.659374Q441.20312 34.440624 441.57812 34.440624Q442.10938 34.440624 442.65625 34.76875L442.29688 35.753124Q441.90625 35.51875 441.53125 35.51875Q441.17188 35.51875 440.89062 35.7375Q440.625 35.940624 440.51562 36.315624Q440.32812 36.878124 440.32812 37.534374L440.32812 40.8L439.28125 40.8ZM447.54688 38.8L448.64062 38.925Q448.39062 39.878124 447.6875 40.409374Q446.98438 40.940624 445.90625 40.940624Q444.54688 40.940624 443.73438 40.096874Q442.9375 39.253124 442.9375 37.7375Q442.9375 36.175 443.75 35.315624Q444.5625 34.440624 445.84375 34.440624Q447.09375 34.440624 447.875 35.284374Q448.67188 36.128124 448.67188 37.675Q448.67188 37.76875 448.67188 37.95625L444.03125 37.95625Q444.09375 38.9875 444.60938 39.534374Q445.125 40.065624 445.90625 40.065624Q446.48438 40.065624 446.89062 39.76875Q447.3125 39.45625 447.54688 38.8ZM444.09375 37.096874L447.5625 37.096874Q447.5 36.3 447.17188 35.909374Q446.65625 35.3 445.85938 35.3Q445.125 35.3 444.625 35.784374Q444.14062 36.26875 444.09375 37.096874ZM454.35938 40.034374Q453.76562 40.534374 453.21875 40.7375Q452.6875 40.940624 452.0625 40.940624Q451.03125 40.940624 450.48438 40.440624Q449.9375 39.940624 449.9375 39.159374Q449.9375 38.70625 450.14062 38.33125Q450.34375 37.940624 450.6875 37.721874Q451.03125 37.4875 451.45312 37.378124Q451.75 37.284374 452.39062 37.20625Q453.65625 37.065624 454.26562 36.846874Q454.26562 36.628124 454.26562 36.58125Q454.26562 35.925 453.96875 35.659374Q453.5625 35.315624 452.76562 35.315624Q452.03125 35.315624 451.67188 35.58125Q451.3125 35.83125 451.14062 36.4875L450.10938 36.346874Q450.25 35.690624 450.57812 35.284374Q450.90625 34.878124 451.51562 34.659374Q452.125 34.440624 452.92188 34.440624Q453.71875 34.440624 454.21875 34.628124Q454.71875 34.815624 454.95312 35.096874Q455.1875 35.378124 455.28125 35.815624Q455.32812 36.08125 455.32812 36.784374L455.32812 38.190624Q455.32812 39.659374 455.39062 40.05Q455.46875 40.440624 455.67188 40.8L454.5625 40.8Q454.40625 40.471874 454.35938 40.034374ZM454.26562 37.675Q453.6875 37.909374 452.54688 38.08125Q451.89062 38.175 451.625 38.3Q451.35938 38.409374 451.20312 38.628124Q451.0625 38.846874 451.0625 39.128124Q451.0625 39.55 451.375 39.83125Q451.70312 40.1125 452.3125 40.1125Q452.92188 40.1125 453.39062 39.846874Q453.875 39.58125 454.09375 39.1125Q454.26562 38.753124 454.26562 38.065624L454.26562 37.675ZM461.32812 40.8L461.32812 40.01875Q460.73438 40.940624 459.59375 40.940624Q458.84375 40.940624 458.21875 40.534374Q457.59375 40.1125 457.25 39.378124Q456.90625 38.64375 456.90625 37.690624Q456.90625 36.76875 457.21875 36.003124Q457.53125 35.2375 458.15625 34.846874Q458.78125 34.440624 459.54688 34.440624Q460.10938 34.440624 460.54688 34.675Q460.98438 34.909374 461.26562 35.284374L461.26562 32.20625L462.3125 32.20625L462.3125 40.8L461.32812 40.8ZM458.0 37.690624Q458.0 38.89375 458.5 39.4875Q459.0 40.065624 459.6875 40.065624Q460.375 40.065624 460.85938 39.503124Q461.34375 38.940624 461.34375 37.784374Q461.34375 36.503124 460.84375 35.909374Q460.35938 35.315624 459.64062 35.315624Q458.9375 35.315624 458.46875 35.89375Q458.0 36.45625 458.0 37.690624ZM463.875 38.940624L464.90625 38.784374Q465.0 39.409374 465.39062 39.7375Q465.79688 40.065624 466.53125 40.065624Q467.25 40.065624 467.59375 39.784374Q467.95312 39.4875 467.95312 39.08125Q467.95312 38.721874 467.64062 38.51875Q467.42188 38.378124 466.5625 38.159374Q465.40625 37.8625 464.95312 37.659374Q464.51562 37.440624 464.28125 37.065624Q464.04688 36.690624 464.04688 36.221874Q464.04688 35.815624 464.23438 35.45625Q464.42188 35.096874 464.75 34.8625Q465.0 34.690624 465.42188 34.565624Q465.84375 34.440624 466.34375 34.440624Q467.0625 34.440624 467.60938 34.659374Q468.17188 34.8625 468.4375 35.221874Q468.70312 35.58125 468.79688 36.175L467.76562 36.315624Q467.70312 35.846874 467.35938 35.58125Q467.03125 35.3 466.40625 35.3Q465.6875 35.3 465.375 35.55Q465.0625 35.784374 465.0625 36.1125Q465.0625 36.315624 465.1875 36.471874Q465.32812 36.64375 465.59375 36.753124Q465.75 36.815624 466.53125 37.01875Q467.65625 37.33125 468.09375 37.51875Q468.53125 37.70625 468.78125 38.065624Q469.03125 38.425 469.03125 38.971874Q469.03125 39.503124 468.71875 39.971874Q468.42188 40.425 467.84375 40.690624Q467.26562 40.940624 466.53125 40.940624Q465.3125 40.940624 464.67188 40.440624Q464.04688 39.925 463.875 38.940624Z" fill-rule="nonzero"/><path fill="#fbbc04" d="M485.5 31.8C485.5 31.247715 485.94772 30.8 486.5 30.8L496.5 30.8C497.05228 30.8 497.5 31.247715 497.5 31.8L497.5 41.8C497.5 42.352283 497.05228 42.8 496.5 42.8L486.5 42.8C485.94772 42.8 485.5 42.352283 485.5 41.8Z" fill-rule="nonzero"/><path fill="#1a1a1a" d="M512.375 40.8L512.375 38.7375L508.65625 38.7375L508.65625 37.76875L512.5781 32.20625L513.4375 32.20625L513.4375 37.76875L514.59375 37.76875L514.59375 38.7375L513.4375 38.7375L513.4375 40.8L512.375 40.8ZM512.375 37.76875L512.375 33.909374L509.6875 37.76875L512.375 37.76875ZM521.6094 40.8L521.6094 33.221874L518.78125 33.221874L518.78125 32.20625L525.59375 32.20625L525.59375 33.221874L522.75 33.221874L522.75 40.8L521.6094 40.8ZM526.2969 40.8L526.2969 32.20625L527.34375 32.20625L527.34375 35.284374Q528.0781 34.440624 529.2031 34.440624Q529.90625 34.440624 530.40625 34.721874Q530.9219 34.9875 531.1406 35.471874Q531.3594 35.940624 531.3594 36.8625L531.3594 40.8L530.3125 40.8L530.3125 36.8625Q530.3125 36.065624 529.96875 35.70625Q529.625 35.346874 529.0 35.346874Q528.53125 35.346874 528.1094 35.596874Q527.7031 35.83125 527.5156 36.253124Q527.34375 36.659374 527.34375 37.39375L527.34375 40.8L526.2969 40.8ZM533.28125 40.8L533.28125 34.58125L534.2344 34.58125L534.2344 35.51875Q534.59375 34.8625 534.8906 34.659374Q535.2031 34.440624 535.5781 34.440624Q536.1094 34.440624 536.65625 34.76875L536.2969 35.753124Q535.90625 35.51875 535.53125 35.51875Q535.1719 35.51875 534.8906 35.7375Q534.625 35.940624 534.5156 36.315624Q534.3281 36.878124 534.3281 37.534374L534.3281 40.8L533.28125 40.8ZM541.5469 38.8L542.6406 38.925Q542.3906 39.878124 541.6875 40.409374Q540.9844 40.940624 539.90625 40.940624Q538.5469 40.940624 537.7344 40.096874Q536.9375 39.253124 536.9375 37.7375Q536.9375 36.175 537.75 35.315624Q538.5625 34.440624 539.84375 34.440624Q541.09375 34.440624 541.875 35.284374Q542.6719 36.128124 542.6719 37.675Q542.6719 37.76875 542.6719 37.95625L538.03125 37.95625Q538.09375 38.9875 538.6094 39.534374Q539.125 40.065624 539.90625 40.065624Q540.4844 40.065624 540.8906 39.76875Q541.3125 39.45625 541.5469 38.8ZM538.09375 37.096874L541.5625 37.096874Q541.5 36.3 541.1719 35.909374Q540.65625 35.3 539.8594 35.3Q539.125 35.3 538.625 35.784374Q538.1406 36.26875 538.09375 37.096874ZM548.3594 40.034374Q547.7656 40.534374 547.21875 40.7375Q546.6875 40.940624 546.0625 40.940624Q545.03125 40.940624 544.4844 40.440624Q543.9375 39.940624 543.9375 39.159374Q543.9375 38.70625 544.1406 38.33125Q544.34375 37.940624 544.6875 37.721874Q545.03125 37.4875 545.4531 37.378124Q545.75 37.284374 546.3906 37.20625Q547.65625 37.065624 548.2656 36.846874Q548.2656 36.628124 548.2656 36.58125Q548.2656 35.925 547.96875 35.659374Q547.5625 35.315624 546.7656 35.315624Q546.03125 35.315624 545.6719 35.58125Q545.3125 35.83125 545.1406 36.4875L544.1094 36.346874Q544.25 35.690624 544.5781 35.284374Q544.90625 34.878124 545.5156 34.659374Q546.125 34.440624 546.9219 34.440624Q547.71875 34.440624 548.21875 34.628124Q548.71875 34.815624 548.9531 35.096874Q549.1875 35.378124 549.28125 35.815624Q549.3281 36.08125 549.3281 36.784374L549.3281 38.190624Q549.3281 39.659374 549.3906 40.05Q549.46875 40.440624 549.6719 40.8L548.5625 40.8Q548.40625 40.471874 548.3594 40.034374ZM548.2656 37.675Q547.6875 37.909374 546.5469 38.08125Q545.8906 38.175 545.625 38.3Q545.3594 38.409374 545.2031 38.628124Q545.0625 38.846874 545.0625 39.128124Q545.0625 39.55 545.375 39.83125Q545.7031 40.1125 546.3125 40.1125Q546.9219 40.1125 547.3906 39.846874Q547.875 39.58125 548.09375 39.1125Q548.2656 38.753124 548.2656 38.065624L548.2656 37.675ZM555.3281 40.8L555.3281 40.01875Q554.7344 40.940624 553.59375 40.940624Q552.84375 40.940624 552.21875 40.534374Q551.59375 40.1125 551.25 39.378124Q550.90625 38.64375 550.90625 37.690624Q550.90625 36.76875 551.21875 36.003124Q551.53125 35.2375 552.15625 34.846874Q552.78125 34.440624 553.5469 34.440624Q554.1094 34.440624 554.5469 34.675Q554.9844 34.909374 555.2656 35.284374L555.2656 32.20625L556.3125 32.20625L556.3125 40.8L555.3281 40.8ZM552.0 37.690624Q552.0 38.89375 552.5 39.4875Q553.0 40.065624 553.6875 40.065624Q554.375 40.065624 554.8594 39.503124Q555.34375 38.940624 555.34375 37.784374Q555.34375 36.503124 554.84375 35.909374Q554.3594 35.315624 553.6406 35.315624Q552.9375 35.315624 552.46875 35.89375Q552.0 36.45625 552.0 37.690624ZM557.875 38.940624L558.90625 38.784374Q559.0 39.409374 559.3906 39.7375Q559.7969 40.065624 560.53125 40.065624Q561.25 40.065624 561.59375 39.784374Q561.9531 39.4875 561.9531 39.08125Q561.9531 38.721874 561.6406 38.51875Q561.4219 38.378124 560.5625 38.159374Q559.40625 37.8625 558.9531 37.659374Q558.5156 37.440624 558.28125 37.065624Q558.0469 36.690624 558.0469 36.221874Q558.0469 35.815624 558.2344 35.45625Q558.4219 35.096874 558.75 34.8625Q559.0 34.690624 559.4219 34.565624Q559.84375 34.440624 560.34375 34.440624Q561.0625 34.440624 561.6094 34.659374Q562.1719 34.8625 562.4375 35.221874Q562.7031 35.58125 562.7969 36.175L561.7656 36.315624Q561.7031 35.846874 561.3594 35.58125Q561.03125 35.3 560.40625 35.3Q559.6875 35.3 559.375 35.55Q559.0625 35.784374 559.0625 36.1125Q559.0625 36.315624 559.1875 36.471874Q559.3281 36.64375 559.59375 36.753124Q559.75 36.815624 560.53125 37.01875Q561.65625 37.33125 562.09375 37.51875Q562.53125 37.70625 562.78125 38.065624Q563.03125 38.425 563.03125 38.971874Q563.03125 39.503124 562.71875 39.971874Q562.4219 40.425 561.84375 40.690624Q561.2656 40.940624 560.53125 40.940624Q559.3125 40.940624 558.6719 40.440624Q558.0469 39.925 557.875 38.940624Z" fill-rule="nonzero"/><path fill="#34a853" d="M579.5 31.8C579.5 31.247715 579.9477 30.8 580.5 30.8L590.5 30.8C591.0523 30.8 591.5 31.247715 591.5 31.8L591.5 41.8C591.5 42.352283 591.0523 42.8 590.5 42.8L580.5 42.8C579.9477 42.8 579.5 42.352283 579.5 41.8Z" fill-rule="nonzero"/><path fill="#1a1a1a" d="M601.625 36.14375Q600.96875 35.89375 600.6406 35.45625Q600.3281 35.003124 600.3281 34.39375Q600.3281 33.45625 601.0 32.815624Q601.6875 32.175 602.7969 32.175Q603.9219 32.175 604.6094 32.83125Q605.2969 33.4875 605.2969 34.425Q605.2969 35.01875 604.9844 35.45625Q604.6719 35.89375 604.03125 36.14375Q604.8281 36.39375 605.2344 36.971874Q605.6406 37.55 605.6406 38.346874Q605.6406 39.440624 604.8594 40.190624Q604.09375 40.940624 602.8125 40.940624Q601.5469 40.940624 600.7656 40.190624Q599.9844 39.440624 599.9844 38.315624Q599.9844 37.471874 600.40625 36.909374Q600.84375 36.346874 601.625 36.14375ZM601.40625 34.346874Q601.40625 34.95625 601.7969 35.346874Q602.2031 35.7375 602.8281 35.7375Q603.4375 35.7375 603.8281 35.3625Q604.21875 34.971874 604.21875 34.409374Q604.21875 33.83125 603.8125 33.440624Q603.40625 33.034374 602.8125 33.034374Q602.2031 33.034374 601.7969 33.425Q601.40625 33.815624 601.40625 34.346874ZM601.0781 38.315624Q601.0781 38.76875 601.28125 39.190624Q601.5 39.6125 601.9219 39.846874Q602.34375 40.08125 602.8281 40.08125Q603.5781 40.08125 604.0625 39.596874Q604.5625 39.1125 604.5625 38.3625Q604.5625 37.596874 604.0625 37.096874Q603.5625 36.596874 602.7969 36.596874Q602.0469 36.596874 601.5625 37.096874Q601.0781 37.58125 601.0781 38.315624ZM612.6094 40.8L612.6094 33.221874L609.78125 33.221874L609.78125 32.20625L616.59375 32.20625L616.59375 33.221874L613.75 33.221874L613.75 40.8L612.6094 40.8ZM617.2969 40.8L617.2969 32.20625L618.34375 32.20625L618.34375 35.284374Q619.0781 34.440624 620.2031 34.440624Q620.90625 34.440624 621.40625 34.721874Q621.9219 34.9875 622.1406 35.471874Q622.3594 35.940624 622.3594 36.8625L622.3594 40.8L621.3125 40.8L621.3125 36.8625Q621.3125 36.065624 620.96875 35.70625Q620.625 35.346874 620.0 35.346874Q619.53125 35.346874 619.1094 35.596874Q618.7031 35.83125 618.5156 36.253124Q618.34375 36.659374 618.34375 37.39375L618.34375 40.8L617.2969 40.8ZM624.28125 40.8L624.28125 34.58125L625.2344 34.58125L625.2344 35.51875Q625.59375 34.8625 625.8906 34.659374Q626.2031 34.440624 626.5781 34.440624Q627.1094 34.440624 627.65625 34.76875L627.2969 35.753124Q626.90625 35.51875 626.53125 35.51875Q626.1719 35.51875 625.8906 35.7375Q625.625 35.940624 625.5156 36.315624Q625.3281 36.878124 625.3281 37.534374L625.3281 40.8L624.28125 40.8ZM632.5469 38.8L633.6406 38.925Q633.3906 39.878124 632.6875 40.409374Q631.9844 40.940624 630.90625 40.940624Q629.5469 40.940624 628.7344 40.096874Q627.9375 39.253124 627.9375 37.7375Q627.9375 36.175 628.75 35.315624Q629.5625 34.440624 630.84375 34.440624Q632.09375 34.440624 632.875 35.284374Q633.6719 36.128124 633.6719 37.675Q633.6719 37.76875 633.6719 37.95625L629.03125 37.95625Q629.09375 38.9875 629.6094 39.534374Q630.125 40.065624 630.90625 40.065624Q631.4844 40.065624 631.8906 39.76875Q632.3125 39.45625 632.5469 38.8ZM629.09375 37.096874L632.5625 37.096874Q632.5 36.3 632.1719 35.909374Q631.65625 35.3 630.8594 35.3Q630.125 35.3 629.625 35.784374Q629.1406 36.26875 629.09375 37.096874ZM639.3594 40.034374Q638.7656 40.534374 638.21875 40.7375Q637.6875 40.940624 637.0625 40.940624Q636.03125 40.940624 635.4844 40.440624Q634.9375 39.940624 634.9375 39.159374Q634.9375 38.70625 635.1406 38.33125Q635.34375 37.940624 635.6875 37.721874Q636.03125 37.4875 636.4531 37.378124Q636.75 37.284374 637.3906 37.20625Q638.65625 37.065624 639.2656 36.846874Q639.2656 36.628124 639.2656 36.58125Q639.2656 35.925 638.96875 35.659374Q638.5625 35.315624 637.7656 35.315624Q637.03125 35.315624 636.6719 35.58125Q636.3125 35.83125 636.1406 36.4875L635.1094 36.346874Q635.25 35.690624 635.5781 35.284374Q635.90625 34.878124 636.5156 34.659374Q637.125 34.440624 637.9219 34.440624Q638.71875 34.440624 639.21875 34.628124Q639.71875 34.815624 639.9531 35.096874Q640.1875 35.378124 640.28125 35.815624Q640.3281 36.08125 640.3281 36.784374L640.3281 38.190624Q640.3281 39.659374 640.3906 40.05Q640.46875 40.440624 640.6719 40.8L639.5625 40.8Q639.40625 40.471874 639.3594 40.034374ZM639.2656 37.675Q638.6875 37.909374 637.5469 38.08125Q636.8906 38.175 636.625 38.3Q636.3594 38.409374 636.2031 38.628124Q636.0625 38.846874 636.0625 39.128124Q636.0625 39.55 636.375 39.83125Q636.7031 40.1125 637.3125 40.1125Q637.9219 40.1125 638.3906 39.846874Q638.875 39.58125 639.09375 39.1125Q639.2656 38.753124 639.2656 38.065624L639.2656 37.675ZM646.3281 40.8L646.3281 40.01875Q645.7344 40.940624 644.59375 40.940624Q643.84375 40.940624 643.21875 40.534374Q642.59375 40.1125 642.25 39.378124Q641.90625 38.64375 641.90625 37.690624Q641.90625 36.76875 642.21875 36.003124Q642.53125 35.2375 643.15625 34.846874Q643.78125 34.440624 644.5469 34.440624Q645.1094 34.440624 645.5469 34.675Q645.9844 34.909374 646.2656 35.284374L646.2656 32.20625L647.3125 32.20625L647.3125 40.8L646.3281 40.8ZM643.0 37.690624Q643.0 38.89375 643.5 39.4875Q644.0 40.065624 644.6875 40.065624Q645.375 40.065624 645.8594 39.503124Q646.34375 38.940624 646.34375 37.784374Q646.34375 36.503124 645.84375 35.909374Q645.3594 35.315624 644.6406 35.315624Q643.9375 35.315624 643.46875 35.89375Q643.0 36.45625 643.0 37.690624ZM648.875 38.940624L649.90625 38.784374Q650.0 39.409374 650.3906 39.7375Q650.7969 40.065624 651.53125 40.065624Q652.25 40.065624 652.59375 39.784374Q652.9531 39.4875 652.9531 39.08125Q652.9531 38.721874 652.6406 38.51875Q652.4219 38.378124 651.5625 38.159374Q650.40625 37.8625 649.9531 37.659374Q649.5156 37.440624 649.28125 37.065624Q649.0469 36.690624 649.0469 36.221874Q649.0469 35.815624 649.2344 35.45625Q649.4219 35.096874 649.75 34.8625Q650.0 34.690624 650.4219 34.565624Q650.84375 34.440624 651.34375 34.440624Q652.0625 34.440624 652.6094 34.659374Q653.1719 34.8625 653.4375 35.221874Q653.7031 35.58125 653.7969 36.175L652.7656 36.315624Q652.7031 35.846874 652.3594 35.58125Q652.03125 35.3 651.40625 35.3Q650.6875 35.3 650.375 35.55Q650.0625 35.784374 650.0625 36.1125Q650.0625 36.315624 650.1875 36.471874Q650.3281 36.64375 650.59375 36.753124Q650.75 36.815624 651.53125 37.01875Q652.65625 37.33125 653.09375 37.51875Q653.53125 37.70625 653.78125 38.065624Q654.03125 38.425 654.03125 38.971874Q654.03125 39.503124 653.71875 39.971874Q653.4219 40.425 652.84375 40.690624Q652.2656 40.940624 651.53125 40.940624Q650.3125 40.940624 649.6719 40.440624Q649.0469 39.925 648.875 38.940624Z" fill-rule="nonzero"/></svg>