<?xml version="1.0"?>
<svg xmlns="http://www.w3.org/2000/svg" xmlns:xlink="http://www.w3.org/1999/xlink" fill="none" stroke-linecap="square" stroke-miterlimit="10" viewBox="0 0 964 596">
  <clipPath id="a">
    <path d="m127.8 70.666664h806.4v488.533336h-806.4z"/>
  </clipPath>
  <path d="m0 0h964v596h-964z" fill="#fff"/>
  <g stroke-linecap="butt">
    <path d="m127.5 559.5h807" stroke="#333"/>
    <g stroke="#ccc">
      <path d="m127.5 461.5h807"/>
      <path d="m127.5 363.5h807"/>
      <path d="m127.5 266.5h807"/>
      <path d="m127.5 168.5h807"/>
      <path d="m127.5 70.5h807"/>
    </g>
  </g>
  <path clip-path="url(#a)" d="m433 559h-96v-427c0-1.10457.89542-2 2-2h92c1.10458 0 2 .89543 2 2z"/>
  <path clip-path="url(#a)" d="m433 559h-96v-427c0-1.10457.89542-2 2-2h92c1.10458 0 2 .89543 2 2z" fill="#4285f4"/>
  <path clip-path="url(#a)" d="m530 559h-96v-212c0-1.10458.89542-2 2-2h92c1.10455 0 2 .89542 2 2z"/>
  <path clip-path="url(#a)" d="m530 559h-96v-212c0-1.10458.89542-2 2-2h92c1.10455 0 2 .89542 2 2z" fill="#ea4335"/>
  <path clip-path="url(#a)" d="m627 559h-96v-105c0-1.10458.89545-2 2-2h92c1.10455 0 2 .89542 2 2z"/>
  <path clip-path="url(#a)" d="m627 559h-96v-105c0-1.10458.89545-2 2-2h92c1.10455 0 2 .89542 2 2z" fill="#fbbc04"/>
  <path clip-path="url(#a)" d="m724 559h-96v-52c0-1.10458.89545-2 2-2h92c1.10455 0 2 .89542 2 2z"/>
  <path clip-path="url(#a)" d="m724 559h-96v-52c0-1.10458.89545-2 2-2h92c1.10455 0 2 .89542 2 2z" fill="#34a853"/>
  <path d="m372.28125 144.36469h1.1875v.875h-1.1875v1.98437h-1.07813v-1.98437h-3.89062v-.64063l3.8125-5.90625h1.15625zm-3.73437 0h2.65624v-4.1875l-.14062.23437zm7.73437-1.9375h.8125q.78125-.01563 1.21875-.40625.4375-.39063.4375-1.0625 0-1.5-1.5-1.5-.70312 0-1.125.40625-.40625.40625-.40625 1.0625h-1.09375q0-1.01563.73438-1.6875.75-.67188 1.89062-.67188 1.20312 0 1.89062.64063.6875.64062.6875 1.78125 0 .5625-.35937 1.07812-.35937.51563-.98437.78125.70312.21875 1.07812.73438.39062.51562.39062 1.26562 0 1.14063-.75 1.82813-.75.67187-1.95312.67187-1.1875 0-1.95312-.65625-.75-.65625-.75-1.71875h1.09374q0 .67188.4375 1.07813.4375.40625 1.1875.40625.78126 0 1.1875-.40625.42188-.42188.42188-1.1875 0-.73438-.45312-1.125-.45313-.40625-1.32813-.42188h-.8125zm5.5 6.5-.60937-.42188q.54687-.76562.57812-1.59375v-.96875h1.0625v.84375q0 .59375-.29688 1.1875-.29687.59375-.73437.95313zm7.10937-8.01563q0 .64063-.34374 1.14063-.34376.5-.90626.78125.65626.28125 1.04688.84375.39062.54687.39062 1.25 0 1.09375-.75 1.76562-.73437.65625-1.95312.65625-1.23438 0-1.98438-.65625-.73437-.67187-.73437-1.76562 0-.70313.375-1.25.375-.5625 1.04687-.84375-.5625-.28125-.89062-.78125-.32812-.5-.32812-1.14063 0-1.07812.6875-1.70312.6875-.64063 1.82812-.64063 1.125 0 1.8125.64063.70312.625.70312 1.70312zm-.89062 3.98438q0-.71875-.45312-1.15625-.45313-.45313-1.1875-.45313-.73438 0-1.1875.45313-.4375.4375-.4375 1.17187 0 .71875.4375 1.14063.4375.40625 1.20312.40625.75 0 1.1875-.42188.4375-.42187.4375-1.14062zm-1.625-5.4375q-.64062 0-1.04688.40625-.39062.39062-.39062 1.07812 0 .64063.39062 1.04688.39063.40625 1.03126.40625.65624 0 1.04687-.40625.39063-.40625.39063-1.04688 0-.65625-.40626-1.0625-.40624-.42187-1.01562-.42187zm9.51562 1.45312q0 .64063-.34374 1.14063-.34376.5-.90626.78125.65626.28125 1.04688.84375.39062.54687.39062 1.25 0 1.09375-.75 1.76562-.73437.65625-1.95312.65625-1.23438 0-1.98438-.65625-.73437-.67187-.73437-1.76562 0-.70313.375-1.25.375-.5625 1.04687-.84375-.5625-.28125-.89062-.78125-.32812-.5-.32812-1.14063 0-1.07812.6875-1.70312.6875-.64063 1.82812-.64063 1.125 0 1.8125.64063.70312.625.70312 1.70312zm-.89062 3.98438q0-.71875-.45312-1.15625-.45313-.45313-1.1875-.45313-.73438 0-1.1875.45313-.4375.4375-.4375 1.17187 0 .71875.4375 1.14063.4375.40625 1.20312.40625.75 0 1.1875-.42188.4375-.42187.4375-1.14062zm-1.625-5.4375q-.64062 0-1.04688.40625-.39062.39062-.39062 1.07812 0 .64063.39062 1.04688.39063.40625 1.03126.40625.65624 0 1.04687-.40625.39063-.40625.39063-1.04688 0-.65625-.40626-1.0625-.40624-.42187-1.01562-.42187zm8.90625 4.90625h1.1875v.875h-1.1875v1.98437h-1.07813v-1.98437h-3.89062v-.64063l3.8125-5.90625h1.15625zm-3.73437 0h2.65624v-4.1875l-.14062.23437z" stroke="#4285f4" stroke-linecap="round" stroke-linejoin="round" stroke-width="3"/>
  <path d="m372.28125 144.36469h1.1875v.875h-1.1875v1.98437h-1.07813v-1.98437h-3.89062v-.64063l3.8125-5.90625h1.15625zm-3.73437 0h2.65624v-4.1875l-.14062.23437zm7.73437-1.9375h.8125q.78125-.01563 1.21875-.40625.4375-.39063.4375-1.0625 0-1.5-1.5-1.5-.70312 0-1.125.40625-.40625.40625-.40625 1.0625h-1.09375q0-1.01563.73438-1.6875.75-.67188 1.89062-.67188 1.20312 0 1.89062.64063.6875.64062.6875 1.78125 0 .5625-.35937 1.07812-.35937.51563-.98437.78125.70312.21875 1.07812.73438.39062.51562.39062 1.26562 0 1.14063-.75 1.82813-.75.67187-1.95312.67187-1.1875 0-1.95312-.65625-.75-.65625-.75-1.71875h1.09374q0 .67188.4375 1.07813.4375.40625 1.1875.40625.78126 0 1.1875-.40625.42188-.42188.42188-1.1875 0-.73438-.45312-1.125-.45313-.40625-1.32813-.42188h-.8125zm5.5 6.5-.60937-.42188q.54687-.76562.57812-1.59375v-.96875h1.0625v.84375q0 .59375-.29688 1.1875-.29687.59375-.73437.95313zm7.10937-8.01563q0 .64063-.34374 1.14063-.34376.5-.90626.78125.65626.28125 1.04688.84375.39062.54687.39062 1.25 0 1.09375-.75 1.76562-.73437.65625-1.95312.65625-1.23438 0-1.98438-.65625-.73437-.67187-.73437-1.76562 0-.70313.375-1.25.375-.5625 1.04687-.84375-.5625-.28125-.89062-.78125-.32812-.5-.32812-1.14063 0-1.07812.6875-1.70312.6875-.64063 1.82812-.64063 1.125 0 1.8125.64063.70312.625.70312 1.70312zm-.89062 3.98438q0-.71875-.45312-1.15625-.45313-.45313-1.1875-.45313-.73438 0-1.1875.45313-.4375.4375-.4375 1.17187 0 .71875.4375 1.14063.4375.40625 1.20312.40625.75 0 1.1875-.42188.4375-.42187.4375-1.14062zm-1.625-5.4375q-.64062 0-1.04688.40625-.39062.39062-.39062 1.07812 0 .64063.39062 1.04688.39063.40625 1.03126.40625.65624 0 1.04687-.40625.39063-.40625.39063-1.04688 0-.65625-.40626-1.0625-.40624-.42187-1.01562-.42187zm9.51562 1.45312q0 .64063-.34374 1.14063-.34376.5-.90626.78125.65626.28125 1.04688.84375.39062.54687.39062 1.25 0 1.09375-.75 1.76562-.73437.65625-1.95312.65625-1.23438 0-1.98438-.65625-.73437-.67187-.73437-1.76562 0-.70313.375-1.25.375-.5625 1.04687-.84375-.5625-.28125-.89062-.78125-.32812-.5-.32812-1.14063 0-1.07812.6875-1.70312.6875-.64063 1.82812-.64063 1.125 0 1.8125.64063.70312.625.70312 1.70312zm-.89062 3.98438q0-.71875-.45312-1.15625-.45313-.45313-1.1875-.45313-.73438 0-1.1875.45313-.4375.4375-.4375 1.17187 0 .71875.4375 1.14063.4375.40625 1.20312.40625.75 0 1.1875-.42188.4375-.42187.4375-1.14062zm-1.625-5.4375q-.64062 0-1.04688.40625-.39062.39062-.39062 1.07812 0 .64063.39062 1.04688.39063.40625 1.03126.40625.65624 0 1.04687-.40625.39063-.40625.39063-1.04688 0-.65625-.40626-1.0625-.40624-.42187-1.01562-.42187zm8.90625 4.90625h1.1875v.875h-1.1875v1.98437h-1.07813v-1.98437h-3.89062v-.64063l3.8125-5.90625h1.15625zm-3.73437 0h2.65624v-4.1875l-.14062.23437z" fill="#fff"/>
  <path d="m470.29688 361.41663h-5.59376v-.78125l2.95313-3.28125q.65625-.75.90625-1.20313.25-.46875.25-.96875 0-.67187-.40625-1.09375-.39063-.4375-1.07813-.4375-.79687 0-1.25.46875-.45312.45313-.45312 1.28125h-1.07812q0-1.1875.75-1.90625.76562-.73437 2.03124-.73437 1.20313 0 1.89063.625.6875.625.6875 1.67187 0 1.25-1.60937 3l-2.28126 2.46875h4.28126zm4.96874 0h-1.07812v-7.21875l-2.1875.79687v-.98437l3.10938-1.17188h.15624zm3.51563 1.70312-.60937-.42187q.54687-.76563.57812-1.59375v-.96875h1.0625v.84375q0 .59375-.29688 1.1875-.29687.59375-.73437.95312zm6.07813-5.45312q-.32813.40625-.8125.65625-.46876.23437-1.03126.23437-.73437 0-1.28124-.35937-.54688-.35938-.84376-1.01563-.29687-.67187-.29687-1.46875 0-.84375.3125-1.53125.32813-.6875.92187-1.04687.60938-.375 1.40626-.375 1.26562 0 1.98437.95312.73437.95313.73437 2.57813v.3125q0 2.5-.98437 3.64062-.98437 1.14063-2.96875 1.17188h-.21875v-.90625h.23437q1.34376-.03125 2.0625-.70313.71876-.67187.78126-2.14062zm-1.67188 0q.54688 0 1-.32813.46875-.34375.6875-.82812v-.4375q0-1.0625-.46875-1.73438-.46875-.67187-1.17187-.67187-.71876 0-1.15626.54687-.42187.54688-.42187 1.45313 0 .875.40625 1.4375.42188.5625 1.125.5625zm8.78125-4.78125v.90625h-.20313q-1.26562.03125-2.01562.76562-.75.71875-.875 2.03125.6875-.76562 1.84375-.76562 1.10937 0 1.78125.78125.67188.78125.67188 2.03125 0 1.3125-.71876 2.10937-.71874.79688-1.9375.79688-1.21874 0-1.98437-.9375-.75-.95313-.75-2.4375v-.40625q0-2.35938 1-3.60938 1-1.25 2.98437-1.26562zm-1.42187 3.84375q-.5625 0-1.03126.32812-.46874.32813-.65624.84375v.39063q0 1.0625.46874 1.70312.48438.64063 1.1875.64063.73438 0 1.15626-.53125.42187-.54688.42187-1.42188 0-.875-.42187-1.40625-.42188-.54687-1.125-.54687zm9.75 4.6875h-5.59376v-.78125l2.95313-3.28125q.65625-.75.90625-1.20313.25-.46875.25-.96875 0-.67187-.40625-1.09375-.39063-.4375-1.07813-.4375-.79687 0-1.25.46875-.45312.45313-.45312 1.28125h-1.07812q0-1.1875.75-1.90625.76562-.73437 2.03124-.73437 1.20313 0 1.89063.625.6875.625.6875 1.67187 0 1.25-1.60937 3l-2.28126 2.46875h4.28126z" stroke="#ea4335" stroke-linecap="round" stroke-linejoin="round" stroke-width="3"/>
  <path d="m470.29688 361.41663h-5.59376v-.78125l2.95313-3.28125q.65625-.75.90625-1.20313.25-.46875.25-.96875 0-.67187-.40625-1.09375-.39063-.4375-1.07813-.4375-.79687 0-1.25.46875-.45312.45313-.45312 1.28125h-1.07812q0-1.1875.75-1.90625.76562-.73437 2.03124-.73437 1.20313 0 1.89063.625.6875.625.6875 1.67187 0 1.25-1.60937 3l-2.28126 2.46875h4.28126zm4.96874 0h-1.07812v-7.21875l-2.1875.79687v-.98437l3.10938-1.17188h.15624zm3.51563 1.70312-.60937-.42187q.54687-.76563.57812-1.59375v-.96875h1.0625v.84375q0 .59375-.29688 1.1875-.29687.59375-.73437.95312zm6.07813-5.45312q-.32813.40625-.8125.65625-.46876.23437-1.03126.23437-.73437 0-1.28124-.35937-.54688-.35938-.84376-1.01563-.29687-.67187-.29687-1.46875 0-.84375.3125-1.53125.32813-.6875.92187-1.04687.60938-.375 1.40626-.375 1.26562 0 1.98437.95312.73437.95313.73437 2.57813v.3125q0 2.5-.98437 3.64062-.98437 1.14063-2.96875 1.17188h-.21875v-.90625h.23437q1.34376-.03125 2.0625-.70313.71876-.67187.78126-2.14062zm-1.67188 0q.54688 0 1-.32813.46875-.34375.6875-.82812v-.4375q0-1.0625-.46875-1.73438-.46875-.67187-1.17187-.67187-.71876 0-1.15626.54687-.42187.54688-.42187 1.45313 0 .875.40625 1.4375.42188.5625 1.125.5625zm8.78125-4.78125v.90625h-.20313q-1.26562.03125-2.01562.76562-.75.71875-.875 2.03125.6875-.76562 1.84375-.76562 1.10937 0 1.78125.78125.67188.78125.67188 2.03125 0 1.3125-.71876 2.10937-.71874.79688-1.9375.79688-1.21874 0-1.98437-.9375-.75-.95313-.75-2.4375v-.40625q0-2.35938 1-3.60938 1-1.25 2.98437-1.26562zm-1.42187 3.84375q-.5625 0-1.03126.32812-.46874.32813-.65624.84375v.39063q0 1.0625.46874 1.70312.48438.64063 1.1875.64063.73438 0 1.15626-.53125.42187-.54688.42187-1.42188 0-.875-.42187-1.40625-.42188-.54687-1.125-.54687zm9.75 4.6875h-5.59376v-.78125l2.95313-3.28125q.65625-.75.90625-1.20313.25-.46875.25-.96875 0-.67187-.40625-1.09375-.39063-.4375-1.07813-.4375-.79687 0-1.25.46875-.45312.45313-.45312 1.28125h-1.07812q0-1.1875.75-1.90625.76562-.73437 2.03124-.73437 1.20313 0 1.89063.625.6875.625.6875 1.67187 0 1.25-1.60937 3l-2.28126 2.46875h4.28126z" fill="#fff"/>
  <path d="m565.2656 468.56174h-1.0781v-7.21874l-2.1875.79686v-.98436l3.1094-1.1719h.1562zm8.7969-3.64064q0 1.90626-.65625 2.84376-.64065.92188-2.03125.92188-1.3594 0-2.0156-.90624-.6563-.90626-.6875-2.71876v-1.4375q0-1.89064.6406-2.79688.65625-.92186 2.0469-.92186 1.375 0 2.0312.8906.6563.875.6719 2.71876zm-1.09375-1.48436q0-1.375-.39065-2-.375-.64064-1.2187-.64064-.82815 0-1.2188.64064-.375.625-.375 1.92186v1.7344q0 1.375.39065 2.04686.40625.65624 1.21875.65624.7969 0 1.1875-.625.3906-.625.40625-1.9531zm2.8125 6.82812-.60935-.42186q.54685-.76564.5781-1.59376v-.96874h1.0625v.84374q0 .59376-.2969 1.1875-.29685.59376-.73435.95312zm6.07815-5.45312q-.32815.40626-.8125.65626-.4688.23436-1.0313.23436-.73435 0-1.2812-.35936-.5469-.3594-.8438-1.01564-.29685-.67186-.29685-1.46876 0-.84374.3125-1.53124.32815-.6875.92185-1.04686.6094-.375 1.4063-.375 1.2656 0 1.98435.9531.73435.95314.73435 2.57814v.3125q0 2.5-.98435 3.64062-.98435 1.14064-2.96875 1.17188h-.21875v-.90624h.23435q1.3438-.03126 2.0625-.70314.7188-.67186.7813-2.14062zm-1.6719 0q.5469 0 1-.32814.46875-.34374.6875-.8281v-.4375q0-1.0625-.46875-1.7344-.46875-.67186-1.17185-.67186-.7188 0-1.1563.54686-.42185.5469-.42185 1.45314 0 .875.40625 1.4375.4219.5625 1.125.5625zm8.6719 0q-.32815.40626-.8125.65626-.4688.23436-1.0313.23436-.73435 0-1.2812-.35936-.5469-.3594-.8438-1.01564-.29685-.67186-.29685-1.46876 0-.84374.3125-1.53124.32815-.6875.92185-1.04686.6094-.375 1.4063-.375 1.2656 0 1.98435.9531.73435.95314.73435 2.57814v.3125q0 2.5-.98435 3.64062-.98435 1.14064-2.96875 1.17188h-.21875v-.90624h.23435q1.3438-.03126 2.0625-.70314.7188-.67186.7813-2.14062zm-1.6719 0q.5469 0 1-.32814.46875-.34374.6875-.8281v-.4375q0-1.0625-.46875-1.7344-.46875-.67186-1.17185-.67186-.7188 0-1.1563.54686-.42185.5469-.42185 1.45314 0 .875.40625 1.4375.4219.5625 1.125.5625zm8.78125-4.78124v.90624h-.20315q-1.2656.03126-2.0156.76562-.75.71874-.875 2.03124.6875-.7656 1.84375-.7656 1.10935 0 1.78125.78124.6719.78126.6719 2.03126 0 1.3125-.7188 2.10936-.7187.79688-1.9375.79688-1.2187 0-1.98435-.9375-.75-.95314-.75-2.4375v-.40624q0-2.3594 1-3.6094 1-1.25 2.98435-1.2656zm-1.42185 3.84374q-.5625 0-1.0313.32812-.4687.32814-.6562.84374v.39064q0 1.0625.4687 1.70312.4844.64064 1.1875.64064.7344 0 1.1563-.53126.42185-.54688.42185-1.42188 0-.875-.42185-1.40626-.4219-.54686-1.125-.54686z" stroke="#fbbc04" stroke-linecap="round" stroke-linejoin="round" stroke-width="3"/>
  <path d="m565.2656 468.56174h-1.0781v-7.21874l-2.1875.79686v-.98436l3.1094-1.1719h.1562zm8.7969-3.64064q0 1.90626-.65625 2.84376-.64065.92188-2.03125.92188-1.3594 0-2.0156-.90624-.6563-.90626-.6875-2.71876v-1.4375q0-1.89064.6406-2.79688.65625-.92186 2.0469-.92186 1.375 0 2.0312.8906.6563.875.6719 2.71876zm-1.09375-1.48436q0-1.375-.39065-2-.375-.64064-1.2187-.64064-.82815 0-1.2188.64064-.375.625-.375 1.92186v1.7344q0 1.375.39065 2.04686.40625.65624 1.21875.65624.7969 0 1.1875-.625.3906-.625.40625-1.9531zm2.8125 6.82812-.60935-.42186q.54685-.76564.5781-1.59376v-.96874h1.0625v.84374q0 .59376-.2969 1.1875-.29685.59376-.73435.95312zm6.07815-5.45312q-.32815.40626-.8125.65626-.4688.23436-1.0313.23436-.73435 0-1.2812-.35936-.5469-.3594-.8438-1.01564-.29685-.67186-.29685-1.46876 0-.84374.3125-1.53124.32815-.6875.92185-1.04686.6094-.375 1.4063-.375 1.2656 0 1.98435.9531.73435.95314.73435 2.57814v.3125q0 2.5-.98435 3.64062-.98435 1.14064-2.96875 1.17188h-.21875v-.90624h.23435q1.3438-.03126 2.0625-.70314.7188-.67186.7813-2.14062zm-1.6719 0q.5469 0 1-.32814.46875-.34374.6875-.8281v-.4375q0-1.0625-.46875-1.7344-.46875-.67186-1.17185-.67186-.7188 0-1.1563.54686-.42185.5469-.42185 1.45314 0 .875.40625 1.4375.4219.5625 1.125.5625zm8.6719 0q-.32815.40626-.8125.65626-.4688.23436-1.0313.23436-.73435 0-1.2812-.35936-.5469-.3594-.8438-1.01564-.29685-.67186-.29685-1.46876 0-.84374.3125-1.53124.32815-.6875.92185-1.04686.6094-.375 1.4063-.375 1.2656 0 1.98435.9531.73435.95314.73435 2.57814v.3125q0 2.5-.98435 3.64062-.98435 1.14064-2.96875 1.17188h-.21875v-.90624h.23435q1.3438-.03126 2.0625-.70314.7188-.67186.7813-2.14062zm-1.6719 0q.5469 0 1-.32814.46875-.34374.6875-.8281v-.4375q0-1.0625-.46875-1.7344-.46875-.67186-1.17185-.67186-.7188 0-1.1563.54686-.42185.5469-.42185 1.45314 0 .875.40625 1.4375.4219.5625 1.125.5625zm8.78125-4.78124v.90624h-.20315q-1.2656.03126-2.0156.76562-.75.71874-.875 2.03124.6875-.7656 1.84375-.7656 1.10935 0 1.78125.78124.6719.78126.6719 2.03126 0 1.3125-.7188 2.10936-.7187.79688-1.9375.79688-1.2187 0-1.98435-.9375-.75-.95314-.75-2.4375v-.40624q0-2.3594 1-3.6094 1-1.25 2.98435-1.2656zm-1.42185 3.84374q-.5625 0-1.0313.32812-.4687.32814-.6562.84374v.39064q0 1.0625.4687 1.70312.4844.64064 1.1875.64064.7344 0 1.1563-.53126.42185-.54688.42185-1.42188 0-.875-.42185-1.40626-.4219-.54686-1.125-.54686z" fill="#000"/>
  <path d="m662.7031 517.8433.4375-4.25h4.375v1h-3.4531l-.2656 2.32815q.6406-.375 1.4375-.375 1.1562 0 1.8437.78125.6875.7656.6875 2.0781 0 1.3125-.7187 2.07815-.70315.76565-1.9844.76565-1.125 0-1.84375-.625-.71875-.64065-.8125-1.75h1.01565q.10935.73435.5312 1.10935.4219.375 1.1094.375.75 0 1.1875-.51565.4375-.5156.4375-1.42185 0-.85935-.46875-1.375-.46875-.51565-1.25-.51565-.70315 0-1.10935.2969l-.2813.2344zm6.57815 5.9844-.60935-.4219q.54685-.7656.5781-1.5937v-.9688h1.0625v.8438q0 .5937-.2969 1.1875-.29685.5937-.73435.9531zm2.42185-5.9844.4375-4.25h4.375v1h-3.4531l-.2656 2.32815q.6406-.375 1.4375-.375 1.1562 0 1.8437.78125.6875.7656.6875 2.0781 0 1.3125-.7187 2.07815-.70315.76565-1.9844.76565-1.125 0-1.84375-.625-.71875-.64065-.8125-1.75h1.01565q.10935.73435.5312 1.10935.4219.375 1.1094.375.75 0 1.1875-.51565.4375-.5156.4375-1.42185 0-.85935-.46875-1.375-.46875-.51565-1.25-.51565-.70315 0-1.10935.2969l-.2813.2344zm10.0625 4.2813h-1.0781v-7.2188l-2.1875.7969v-.9844l3.1094-1.17185h.1562zm8.01565-2.8594h1.1875v.875h-1.1875v1.9844h-1.07815v-1.9844h-3.8906v-.6406l3.8125-5.9063h1.15625zm-3.73435 0h2.6562v-4.1875l-.1406.2344z" stroke="#34a853" stroke-linecap="round" stroke-linejoin="round" stroke-width="3"/>
  <path d="m662.7031 517.8433.4375-4.25h4.375v1h-3.4531l-.2656 2.32815q.6406-.375 1.4375-.375 1.1562 0 1.8437.78125.6875.7656.6875 2.0781 0 1.3125-.7187 2.07815-.70315.76565-1.9844.76565-1.125 0-1.84375-.625-.71875-.64065-.8125-1.75h1.01565q.10935.73435.5312 1.10935.4219.375 1.1094.375.75 0 1.1875-.51565.4375-.5156.4375-1.42185 0-.85935-.46875-1.375-.46875-.51565-1.25-.51565-.70315 0-1.10935.2969l-.2813.2344zm6.57815 5.9844-.60935-.4219q.54685-.7656.5781-1.5937v-.9688h1.0625v.8438q0 .5937-.2969 1.1875-.29685.5937-.73435.9531zm2.42185-5.9844.4375-4.25h4.375v1h-3.4531l-.2656 2.32815q.6406-.375 1.4375-.375 1.1562 0 1.8437.78125.6875.7656.6875 2.0781 0 1.3125-.7187 2.07815-.70315.76565-1.9844.76565-1.125 0-1.84375-.625-.71875-.64065-.8125-1.75h1.01565q.10935.73435.5312 1.10935.4219.375 1.1094.375.75 0 1.1875-.51565.4375-.5156.4375-1.42185 0-.85935-.46875-1.375-.46875-.51565-1.25-.51565-.70315 0-1.10935.2969l-.2813.2344zm10.0625 4.2813h-1.0781v-7.2188l-2.1875.7969v-.9844l3.1094-1.17185h.1562zm8.01565-2.8594h1.1875v.875h-1.1875v1.9844h-1.07815v-1.9844h-3.8906v-.6406l3.8125-5.9063h1.15625zm-3.73435 0h2.6562v-4.1875l-.1406.2344z" fill="#fff"/>
  <g fill="#000">
    <path d="m48.80001 368.85522h-14.3125v-6.34375q0-1.90625.390626-2.90625.375-1 1.359374-1.59375.96875-.59375 2.15625-.59375 1.515626 0 2.5625.98438 1.046876.98437 1.328126 3.04687.359374-.75.71875-1.14062.75-.82813 1.90625-1.57813l3.890624-2.48437v2.375l-2.984374 1.90625q-1.28125.82812-1.96875 1.35937-.6875.53125-.953126.96875-.28125.42188-.390624.85938-.0625.32812-.0625 1.04687v2.20313h6.359374zm-8-1.89062v-4.07813q0-1.29687-.265624-2.01562-.265626-.73438-.859376-1.10938-.59375-.39062-1.28125-.39062-1.015624 0-1.671874.73437-.65625.73438-.65625 2.32813v4.53125zm8-18.64063h-1.53125q1.765626 1.20313 1.765626 3.28125 0 .92188-.34375 1.71875-.359376.79688-.890626 1.1875-.53125.375-1.3125.53125-.515624.10938-1.640624.10938h-6.421876v-1.75h5.75q1.375 0 1.859376-.10938.6875-.17187 1.09375-.70312.390624-.54688.390624-1.32813 0-.79687-.40625-1.48437-.40625-.70313-1.09375-.98438-.703124-.29687-2.03125-.29687h-5.5625v-1.75h10.375zm0-4.20312h-10.375v-1.59375h1.484376q-1.71875-1.14063-1.71875-3.29688 0-.9375.34375-1.71875.328124-.79687.875-1.1875.546874-.39062 1.296874-.54687.5-.09375 1.71875-.09375h6.375v1.76562h-6.3125q-1.078124 0-1.609374.20313-.53125.20312-.84375.73437-.3125.51563-.3125 1.21875 0 1.125.71875 1.9375.703124.8125 2.6875.8125h5.671874zm-1.578124-14.84375 1.5625-.25q.15625.73437.15625 1.32812 0 .95313-.296876 1.48438-.3125.51562-.796874.73437-.5.21875-2.078126.21875h-5.96875v1.28125h-1.375v-1.28125h-2.5625l-1.0625-1.75h3.625v-1.76562h1.375v1.76562h6.0625q.75 0 .96875-.09375.203126-.09375.34375-.29687.125-.21875.125-.60938 0-.28125-.078124-.76562zm-10.71875-2.17188h-2.015626v-1.76562h2.015626zm12.296874 0h-10.375v-1.76562h10.375zm0-3.98437h-10.375v-1.57813h1.453126q-.75-.48437-1.21875-1.29687-.46875-.8125-.46875-1.84375 0-1.15625.484374-1.89063.46875-.73437 1.328126-1.04687-1.8125-1.23438-1.8125-3.20313 0-1.54687.859374-2.375.859376-.82812 2.625-.82812h7.125v1.75h-6.53125q-1.0625 0-1.515624.17187-.46875.17188-.75.625-.28125.4375-.28125 1.04688 0 1.09375.734374 1.82812.71875.71875 2.3125.71875h6.03125v1.75h-6.734374q-1.171876 0-1.75.4375-.59375.42188-.59375 1.40625 0 .73438.390624 1.375.390626.625 1.140626.90625.75.28125 2.171874.28125h5.375zm-3.34375-24.10938.234376-1.8125q1.578124.42188 2.46875 1.59375.875 1.15625.875 2.96875 0 2.26563-1.390626 3.60938-1.40625 1.32812-3.9375 1.32812-2.625 0-4.0625-1.34375-1.453124-1.34375-1.453124-3.5 0-2.07812 1.421874-3.39062 1.40625-1.32813 3.984376-1.32813.15625 0 .46875.01563v7.73437q1.703124-.09375 2.609374-.96875.90625-.875.90625-2.17187 0-.96875-.5-1.64063-.515624-.6875-1.625-1.09375zm-2.84375 5.78125v-5.79687q-1.296874.10937-1.953124.65625-1.015626.84375-1.015626 2.1875 0 1.20312.8125 2.03125.796876.82812 2.15625.92187zm-6.109374-15.6875h-2.015626v-1.76562h2.015626zm12.296874 0h-10.375v-1.76562h10.375zm0-3.98437h-10.375v-1.59375h1.484376q-1.71875-1.14063-1.71875-3.29688 0-.9375.34375-1.71875.328124-.79687.875-1.1875.546874-.39062 1.296874-.54687.5-.09375 1.71875-.09375h6.375v1.76562h-6.3125q-1.078124 0-1.609374.20313-.53125.20312-.84375.73437-.3125.51563-.3125 1.21875 0 1.125.71875 1.9375.703124.8125 2.6875.8125h5.671874zm-3.09375-16.29688-.28125-1.75q1.046876-.14062 1.609376-.8125.546874-.67187.546874-1.875 0-1.20312-.484374-1.78125-.5-.59375-1.15625-.59375-.59375 0-.9375.51563-.234376.35937-.59375 1.79687-.5 1.9375-.84375 2.6875-.359376.73438-.984376 1.125-.640624.39063-1.40625.39063-.6875 0-1.28125-.3125-.59375-.32813-.984374-.875-.296876-.40625-.5-1.10938-.21875-.71875-.21875-1.53125 0-1.21875.359374-2.14062.34375-.92188.953126-1.35938.59375-.4375 1.59375-.60937l.234374 1.71875q-.796874.125-1.234374.6875-.453126.5625-.453126 1.57812 0 1.21875.40625 1.73438.390626.51562.921876.51562.34375 0 .625-.21875.28125-.20312.46875-.67187.09375-.26563.4375-1.54688.5-1.875.828124-2.60937.3125-.73438.921876-1.15625.59375-.42188 1.5-.42188.875 0 1.65625.51563.78125.51562 1.203124 1.48437.421876.96875.421876 2.1875 0 2.01563-.84375 3.07813-.84375 1.0625-2.484376 1.35937z"/>
    <path d="m91.3 558.96564q0-1.53124.3125-2.45314.3125-.9375.92188-1.4375.625-.5 1.5625-.5.6875 0 1.20312.28126.53125.28124.875.8125.34375.51564.53125 1.26564.1875.75.1875 2.03124 0 1.51562-.3125 2.4375-.29687.92186-.92187 1.4375-.60938.5-1.5625.5-1.23438 0-1.95313-.89064-.84375-1.0625-.84375-3.48436zm1.07813 0q0 2.10936.5 2.8125.5.70312 1.21875.70312.73437 0 1.21875-.70312.5-.70314.5-2.8125 0-2.125-.5-2.8125-.48438-.70314-1.23438-.70314-.71875 0-1.15625.6094-.54687.78124-.54687 2.90624zm6.48437 4.23436v-1.2031h1.20313v1.2031q0 .65626-.23438 1.0625-.23437.4219-.73437.64064l-.29688-.45314q.32813-.1406.48438-.4375.15625-.28124.1875-.8125zm2.4375-4.23436q0-1.53124.3125-2.45314.3125-.9375.92188-1.4375.625-.5 1.5625-.5.6875 0 1.20312.28126.53125.28124.875.8125.34375.51564.53125 1.26564.1875.75.1875 2.03124 0 1.51562-.3125 2.4375-.29687.92186-.92187 1.4375-.60938.5-1.5625.5-1.23438 0-1.95313-.89064-.84375-1.0625-.84375-3.48436zm1.07813 0q0 2.10936.5 2.8125.5.70312 1.21875.70312.73437 0 1.21875-.70312.5-.70314.5-2.8125 0-2.125-.5-2.8125-.48438-.70314-1.23438-.70314-.71875 0-1.15625.6094-.54687.78124-.54687 2.90624zm5.92187 0q0-1.53124.3125-2.45314.3125-.9375.92188-1.4375.625-.5 1.5625-.5.6875 0 1.20312.28126.53125.28124.875.8125.34375.51564.53125 1.26564.1875.75.1875 2.03124 0 1.51562-.3125 2.4375-.29687.92186-.92187 1.4375-.60938.5-1.5625.5-1.23438 0-1.95313-.89064-.84375-1.0625-.84375-3.48436zm1.07813 0q0 2.10936.5 2.8125.5.70312 1.21875.70312.73437 0 1.21875-.70312.5-.70314.5-2.8125 0-2.125-.5-2.8125-.48438-.70314-1.23438-.70314-.71875 0-1.15625.6094-.54687.78124-.54687 2.90624zm5.92187 0q0-1.53124.3125-2.45314.3125-.9375.92188-1.4375.625-.5 1.5625-.5.6875 0 1.20312.28126.53125.28124.875.8125.34375.51564.53125 1.26564.1875.75.1875 2.03124 0 1.51562-.3125 2.4375-.29687.92186-.92187 1.4375-.60938.5-1.5625.5-1.23438 0-1.95313-.89064-.84375-1.0625-.84375-3.48436zm1.07813 0q0 2.10936.5 2.8125.5.70312 1.21875.70312.73437 0 1.21875-.70312.5-.70314.5-2.8125 0-2.125-.5-2.8125-.48438-.70314-1.23438-.70314-.71875 0-1.15625.6094-.54687.78124-.54687 2.90624z"/>
    <path d="m88.26875 465.49335h-1.04687v-6.71875q-.39063.35937-1.01563.73437-.60937.35938-1.09375.53125v-1.01562q.875-.42188 1.53125-1 .67188-.59375.95313-1.15625h.67187zm3.03125-4.23438q0-1.53125.3125-2.45312.3125-.9375.92188-1.4375.625-.5 1.5625-.5.6875 0 1.20312.28125.53125.28125.875.8125.34375.51562.53125 1.26562.1875.75.1875 2.03125 0 1.51563-.3125 2.4375-.29687.92188-.92187 1.4375-.60938.5-1.5625.5-1.23438 0-1.95313-.89062-.84375-1.0625-.84375-3.48438zm1.07813 0q0 2.10938.5 2.8125.5.70313 1.21875.70313.73437 0 1.21875-.70313.5-.70312.5-2.8125 0-2.125-.5-2.8125-.48438-.70312-1.23438-.70312-.71875 0-1.15625.60937-.54687.78125-.54687 2.90625zm6.48437 4.23438v-1.20313h1.20313v1.20313q0 .65625-.23438 1.0625-.23437.42187-.73437.64062l-.29688-.45312q.32813-.14063.48438-.4375.15625-.28125.1875-.8125zm2.4375-4.23438q0-1.53125.3125-2.45312.3125-.9375.92188-1.4375.625-.5 1.5625-.5.6875 0 1.20312.28125.53125.28125.875.8125.34375.51562.53125 1.26562.1875.75.1875 2.03125 0 1.51563-.3125 2.4375-.29687.92188-.92187 1.4375-.60938.5-1.5625.5-1.23438 0-1.95313-.89062-.84375-1.0625-.84375-3.48438zm1.07813 0q0 2.10938.5 2.8125.5.70313 1.21875.70313.73437 0 1.21875-.70313.5-.70312.5-2.8125 0-2.125-.5-2.8125-.48438-.70312-1.23438-.70312-.71875 0-1.15625.60937-.54687.78125-.54687 2.90625zm5.92187 0q0-1.53125.3125-2.45312.3125-.9375.92188-1.4375.625-.5 1.5625-.5.6875 0 1.20312.28125.53125.28125.875.8125.34375.51562.53125 1.26562.1875.75.1875 2.03125 0 1.51563-.3125 2.4375-.29687.92188-.92187 1.4375-.60938.5-1.5625.5-1.23438 0-1.95313-.89062-.84375-1.0625-.84375-3.48438zm1.07813 0q0 2.10938.5 2.8125.5.70313 1.21875.70313.73437 0 1.21875-.70313.5-.70312.5-2.8125 0-2.125-.5-2.8125-.48438-.70312-1.23438-.70312-.71875 0-1.15625.60937-.54687.78125-.54687 2.90625zm5.92187 0q0-1.53125.3125-2.45312.3125-.9375.92188-1.4375.625-.5 1.5625-.5.6875 0 1.20312.28125.53125.28125.875.8125.34375.51562.53125 1.26562.1875.75.1875 2.03125 0 1.51563-.3125 2.4375-.29687.92188-.92187 1.4375-.60938.5-1.5625.5-1.23438 0-1.95313-.89062-.84375-1.0625-.84375-3.48438zm1.07813 0q0 2.10938.5 2.8125.5.70313 1.21875.70313.73437 0 1.21875-.70313.5-.70312.5-2.8125 0-2.125-.5-2.8125-.48438-.70312-1.23438-.70312-.71875 0-1.15625.60937-.54687.78125-.54687 2.90625z"/>
    <path d="m89.84688 366.77103v1.01562h-5.6875q0-.375.125-.73437.21875-.57813.6875-1.14063.48437-.5625 1.39062-1.29687 1.40625-1.15625 1.89063-1.82813.5-.67187.5-1.26562 0-.625-.45313-1.04688-.45312-.4375-1.17187-.4375-.76563 0-1.21875.45313-.45313.45312-.46875 1.26562l-1.07813-.10937q.10938-1.21875.82813-1.84375.73437-.64063 1.96875-.64063 1.23437 0 1.95312.6875.71875.6875.71875 1.70313 0 .51562-.21875 1.01562-.20312.48438-.70312 1.04688-.48438.54687-1.60938 1.5-.95312.79687-1.23437 1.09375-.26563.28125-.4375.5625zm1.45312-3.21875q0-1.53125.3125-2.45313.3125-.9375.92188-1.4375.625-.5 1.5625-.5.6875 0 1.20312.28125.53125.28125.875.8125.34375.51563.53125 1.26563.1875.75.1875 2.03125 0 1.51562-.3125 2.4375-.29687.92187-.92187 1.4375-.60938.5-1.5625.5-1.23438 0-1.95313-.89063-.84375-1.0625-.84375-3.48437zm1.07813 0q0 2.10937.5 2.8125.5.70312 1.21875.70312.73437 0 1.21875-.70312.5-.70313.5-2.8125 0-2.125-.5-2.8125-.48438-.70313-1.23438-.70313-.71875 0-1.15625.60938-.54687.78125-.54687 2.90625zm6.48437 4.23437v-1.20312h1.20313v1.20312q0 .65625-.23438 1.0625-.23437.42188-.73437.64063l-.29688-.45313q.32813-.14062.48438-.4375.15625-.28125.1875-.8125zm2.4375-4.23437q0-1.53125.3125-2.45313.3125-.9375.92188-1.4375.625-.5 1.5625-.5.6875 0 1.20312.28125.53125.28125.875.8125.34375.51563.53125 1.26563.1875.75.1875 2.03125 0 1.51562-.3125 2.4375-.29687.92187-.92187 1.4375-.60938.5-1.5625.5-1.23438 0-1.95313-.89063-.84375-1.0625-.84375-3.48437zm1.07813 0q0 2.10937.5 2.8125.5.70312 1.21875.70312.73437 0 1.21875-.70312.5-.70313.5-2.8125 0-2.125-.5-2.8125-.48438-.70313-1.23438-.70313-.71875 0-1.15625.60938-.54687.78125-.54687 2.90625zm5.92187 0q0-1.53125.3125-2.45313.3125-.9375.92188-1.4375.625-.5 1.5625-.5.6875 0 1.20312.28125.53125.28125.875.8125.34375.51563.53125 1.26563.1875.75.1875 2.03125 0 1.51562-.3125 2.4375-.29687.92187-.92187 1.4375-.60938.5-1.5625.5-1.23438 0-1.95313-.89063-.84375-1.0625-.84375-3.48437zm1.07813 0q0 2.10937.5 2.8125.5.70312 1.21875.70312.73437 0 1.21875-.70312.5-.70313.5-2.8125 0-2.125-.5-2.8125-.48438-.70313-1.23438-.70313-.71875 0-1.15625.60938-.54687.78125-.54687 2.90625zm5.92187 0q0-1.53125.3125-2.45313.3125-.9375.92188-1.4375.625-.5 1.5625-.5.6875 0 1.20312.28125.53125.28125.875.8125.34375.51563.53125 1.26563.1875.75.1875 2.03125 0 1.51562-.3125 2.4375-.29687.92187-.92187 1.4375-.60938.5-1.5625.5-1.23438 0-1.95313-.89063-.84375-1.0625-.84375-3.48437zm1.07813 0q0 2.10937.5 2.8125.5.70312 1.21875.70312.73437 0 1.21875-.70312.5-.70313.5-2.8125 0-2.125-.5-2.8125-.48438-.70313-1.23438-.70313-.71875 0-1.15625.60938-.54687.78125-.54687 2.90625z"/>
    <path d="m84.3 267.81436 1.0625-.14062q.17188.89062.60938 1.29686.4375.39064 1.0625.39064.75 0 1.26562-.51564.51563-.5156.51563-1.28124 0-.71876-.48438-1.1875-.46875-.48436-1.20312-.48436-.29688 0-.75.125l.125-.9375q.10937.0156.17187.0156.67188 0 1.20313-.34374.54687-.35936.54687-1.09376 0-.5781-.39062-.9531-.39063-.39064-1.01563-.39064-.60937 0-1.03125.39064-.40625.3906-.51562 1.15624l-1.0625-.1875q.1875-1.04688.875-1.625.6875-.59374 1.70312-.59374.70313 0 1.29688.3125.59375.29686.90625.8125.3125.5156.3125 1.10936 0 .54688-.29688 1.01564-.29687.4531-.875.71874.75.17186 1.17188.73436.42187.5469.42187 1.39064 0 1.125-.82812 1.90626-.8125.78124-2.0625.78124-1.125 0-1.875-.67188-.75-.6875-.85938-1.75zm7-1.96876q0-1.53124.3125-2.4531.3125-.9375.92188-1.4375.625-.5 1.5625-.5.6875 0 1.20312.28124.53125.28126.875.8125.34375.51562.53125 1.26562.1875.75.1875 2.03124 0 1.51564-.3125 2.4375-.29687.9219-.92187 1.4375-.60938.5-1.5625.5-1.23438 0-1.95313-.8906-.84375-1.0625-.84375-3.4844zm1.07813 0q0 2.1094.5 2.8125.5.70314 1.21875.70314.73437 0 1.21875-.70314.5-.7031.5-2.8125 0-2.125-.5-2.8125-.48438-.7031-1.23438-.7031-.71875 0-1.15625.60936-.54687.78124-.54687 2.90624zm6.48437 4.2344v-1.20314h1.20313v1.20314q0 .65624-.23438 1.0625-.23437.42186-.73437.6406l-.29688-.4531q.32813-.14064.48438-.4375.15625-.28126.1875-.8125zm2.4375-4.2344q0-1.53124.3125-2.4531.3125-.9375.92188-1.4375.625-.5 1.5625-.5.6875 0 1.20312.28124.53125.28126.875.8125.34375.51562.53125 1.26562.1875.75.1875 2.03124 0 1.51564-.3125 2.4375-.29687.9219-.92187 1.4375-.60938.5-1.5625.5-1.23438 0-1.95313-.8906-.84375-1.0625-.84375-3.4844zm1.07813 0q0 2.1094.5 2.8125.5.70314 1.21875.70314.73437 0 1.21875-.70314.5-.7031.5-2.8125 0-2.125-.5-2.8125-.48438-.7031-1.23438-.7031-.71875 0-1.15625.60936-.54687.78124-.54687 2.90624zm5.92187 0q0-1.53124.3125-2.4531.3125-.9375.92188-1.4375.625-.5 1.5625-.5.6875 0 1.20312.28124.53125.28126.875.8125.34375.51562.53125 1.26562.1875.75.1875 2.03124 0 1.51564-.3125 2.4375-.29687.9219-.92187 1.4375-.60938.5-1.5625.5-1.23438 0-1.95313-.8906-.84375-1.0625-.84375-3.4844zm1.07813 0q0 2.1094.5 2.8125.5.70314 1.21875.70314.73437 0 1.21875-.70314.5-.7031.5-2.8125 0-2.125-.5-2.8125-.48438-.7031-1.23438-.7031-.71875 0-1.15625.60936-.54687.78124-.54687 2.90624zm5.92187 0q0-1.53124.3125-2.4531.3125-.9375.92188-1.4375.625-.5 1.5625-.5.6875 0 1.20312.28124.53125.28126.875.8125.34375.51562.53125 1.26562.1875.75.1875 2.03124 0 1.51564-.3125 2.4375-.29687.9219-.92187 1.4375-.60938.5-1.5625.5-1.23438 0-1.95313-.8906-.84375-1.0625-.84375-3.4844zm1.07813 0q0 2.1094.5 2.8125.5.70314 1.21875.70314.73437 0 1.21875-.70314.5-.7031.5-2.8125 0-2.125-.5-2.8125-.48438-.7031-1.23438-.7031-.71875 0-1.15625.60936-.54687.78124-.54687 2.90624z"/>
    <path d="m87.675 172.37334v-2.0625h-3.71875v-.96875l3.92188-5.5625h.85937v5.5625h1.15625v.96875h-1.15625v2.0625zm0-3.03125v-3.85938l-2.6875 3.85938zm3.625-1.20313q0-1.53125.3125-2.45312.3125-.9375.92188-1.4375.625-.5 1.5625-.5.6875 0 1.20312.28125.53125.28125.875.8125.34375.51562.53125 1.26562.1875.75.1875 2.03125 0 1.51563-.3125 2.4375-.29687.92188-.92187 1.4375-.60938.5-1.5625.5-1.23438 0-1.95313-.89062-.84375-1.0625-.84375-3.48438zm1.07813 0q0 2.10938.5 2.8125.5.70313 1.21875.70313.73437 0 1.21875-.70313.5-.70312.5-2.8125 0-2.125-.5-2.8125-.48438-.70312-1.23438-.70312-.71875 0-1.15625.60937-.54687.78125-.54687 2.90625zm6.48437 4.23438v-1.20313h1.20313v1.20313q0 .65625-.23438 1.0625-.23437.42187-.73437.64062l-.29688-.45312q.32813-.14063.48438-.4375.15625-.28125.1875-.8125zm2.4375-4.23438q0-1.53125.3125-2.45312.3125-.9375.92188-1.4375.625-.5 1.5625-.5.6875 0 1.20312.28125.53125.28125.875.8125.34375.51562.53125 1.26562.1875.75.1875 2.03125 0 1.51563-.3125 2.4375-.29687.92188-.92187 1.4375-.60938.5-1.5625.5-1.23438 0-1.95313-.89062-.84375-1.0625-.84375-3.48438zm1.07813 0q0 2.10938.5 2.8125.5.70313 1.21875.70313.73437 0 1.21875-.70313.5-.70312.5-2.8125 0-2.125-.5-2.8125-.48438-.70312-1.23438-.70312-.71875 0-1.15625.60937-.54687.78125-.54687 2.90625zm5.92187 0q0-1.53125.3125-2.45312.3125-.9375.92188-1.4375.625-.5 1.5625-.5.6875 0 1.20312.28125.53125.28125.875.8125.34375.51562.53125 1.26562.1875.75.1875 2.03125 0 1.51563-.3125 2.4375-.29687.92188-.92187 1.4375-.60938.5-1.5625.5-1.23438 0-1.95313-.89062-.84375-1.0625-.84375-3.48438zm1.07813 0q0 2.10938.5 2.8125.5.70313 1.21875.70313.73437 0 1.21875-.70313.5-.70312.5-2.8125 0-2.125-.5-2.8125-.48438-.70312-1.23438-.70312-.71875 0-1.15625.60937-.54687.78125-.54687 2.90625zm5.92187 0q0-1.53125.3125-2.45312.3125-.9375.92188-1.4375.625-.5 1.5625-.5.6875 0 1.20312.28125.53125.28125.875.8125.34375.51562.53125 1.26562.1875.75.1875 2.03125 0 1.51563-.3125 2.4375-.29687.92188-.92187 1.4375-.60938.5-1.5625.5-1.23438 0-1.95313-.89062-.84375-1.0625-.84375-3.48438zm1.07813 0q0 2.10938.5 2.8125.5.70313 1.21875.70313.73437 0 1.21875-.70313.5-.70312.5-2.8125 0-2.125-.5-2.8125-.48438-.70312-1.23438-.70312-.71875 0-1.15625.60937-.54687.78125-.54687 2.90625z"/>
    <path d="m84.3 72.416664 1.10938-.09375q.125.8125.5625 1.21875.45312.40625 1.09375.40625.75 0 1.28125-.578124.53125-.578126.53125-1.515626 0-.90625-.51563-1.421874-.5-.53125-1.32812-.53125-.5 0-.92188.234374-.40625.234376-.64062.59375l-.98438-.125.82813-4.40625h4.28125v1h-3.4375l-.45313 2.3125q.76563-.546874 1.60938-.546874 1.125 0 1.89062.78125.78125.78125.78125 2.015624 0 1.15625-.67187 2.015626-.82813 1.03125-2.25 1.03125-1.17188 0-1.92188-.65625-.73437-.65625-.84375-1.734376zm7-1.984374q0-1.53125.3125-2.453126.3125-.9375.92188-1.4375.625-.5 1.5625-.5.6875 0 1.20312.28125.53125.28125.875.8125.34375.515626.53125 1.265626.1875.75.1875 2.03125 0 1.515624-.3125 2.4375-.29687.921874-.92187 1.4375-.60938.5-1.5625.5-1.23438 0-1.95313-.890626-.84375-1.0625-.84375-3.484374zm1.07813 0q0 2.109374.5 2.8125.5.703124 1.21875.703124.73437 0 1.21875-.703124.5-.703126.5-2.8125 0-2.125-.5-2.8125-.48438-.703126-1.23438-.703126-.71875 0-1.15625.609376-.54687.78125-.54687 2.90625zm6.48437 4.234374v-1.203124h1.20313v1.203124q0 .65625-.23438 1.0625-.23437.421876-.73437.640626l-.29688-.453126q.32813-.140624.48438-.4375.15625-.28125.1875-.8125zm2.4375-4.234374q0-1.53125.3125-2.453126.3125-.9375.92188-1.4375.625-.5 1.5625-.5.6875 0 1.20312.28125.53125.28125.875.8125.34375.515626.53125 1.265626.1875.75.1875 2.03125 0 1.515624-.3125 2.4375-.29687.921874-.92187 1.4375-.60938.5-1.5625.5-1.23438 0-1.95313-.890626-.84375-1.0625-.84375-3.484374zm1.07813 0q0 2.109374.5 2.8125.5.703124 1.21875.703124.73437 0 1.21875-.703124.5-.703126.5-2.8125 0-2.125-.5-2.8125-.48438-.703126-1.23438-.703126-.71875 0-1.15625.609376-.54687.78125-.54687 2.90625zm5.92187 0q0-1.53125.3125-2.453126.3125-.9375.92188-1.4375.625-.5 1.5625-.5.6875 0 1.20312.28125.53125.28125.875.8125.34375.515626.53125 1.265626.1875.75.1875 2.03125 0 1.515624-.3125 2.4375-.29687.921874-.92187 1.4375-.60938.5-1.5625.5-1.23438 0-1.95313-.890626-.84375-1.0625-.84375-3.484374zm1.07813 0q0 2.109374.5 2.8125.5.703124 1.21875.703124.73437 0 1.21875-.703124.5-.703126.5-2.8125 0-2.125-.5-2.8125-.48438-.703126-1.23438-.703126-.71875 0-1.15625.609376-.54687.78125-.54687 2.90625zm5.92187 0q0-1.53125.3125-2.453126.3125-.9375.92188-1.4375.625-.5 1.5625-.5.6875 0 1.20312.28125.53125.28125.875.8125.34375.515626.53125 1.265626.1875.75.1875 2.03125 0 1.515624-.3125 2.4375-.29687.921874-.92187 1.4375-.60938.5-1.5625.5-1.23438 0-1.95313-.890626-.84375-1.0625-.84375-3.484374zm1.07813 0q0 2.109374.5 2.8125.5.703124 1.21875.703124.73437 0 1.21875-.703124.5-.703126.5-2.8125 0-2.125-.5-2.8125-.48438-.703126-1.23438-.703126-.71875 0-1.15625.609376-.54687.78125-.54687 2.90625z"/>
  </g>
  <path d="m309.5 31.8c0-.552285.44772-1 1-1h10c.55228 0 1 .447715 1 1v10c0 .552283-.44772 1-1 1h-10c-.55228 0-1-.447717-1-1z" fill="#4285f4"/>
  <path d="m333.96875 40.8h-1.04687v-6.71875q-.39063.359374-1.01563.734374-.60937.359376-1.09375.53125v-1.015624q.875-.421876 1.53125-1 .67187-.59375.95313-1.15625h.67187zm8.64063 0v-7.578126h-2.82813v-1.015624h6.8125v1.015624h-2.84375v7.578126zm4.6875 0v-8.59375h1.04687v3.078124q.73437-.84375 1.85937-.84375.70313 0 1.20313.28125.51563.265626.73437.75.21876.46875.21876 1.390626v3.9375h-1.04688v-3.9375q0-.796876-.34375-1.15625-.34375-.359376-.96875-.359376-.46875 0-.89062.25-.40626.234376-.59376.65625-.17187.40625-.17187 1.140626v3.40625zm6.98437 0v-6.21875h.95313v.9375q.35937-.65625.65624-.859376.3125-.21875.6875-.21875.53126 0 1.07813.328126l-.35937.984374q-.39063-.234374-.76563-.234374-.35937 0-.64063.21875-.26562.203124-.375.578124-.1875.5625-.1875 1.21875v3.265626zm8.26563-2 1.09374.125q-.25.953124-.95312 1.484374-.70312.53125-1.78125.53125-1.35937 0-2.17187-.84375-.79688-.84375-.79688-2.359374 0-1.5625.8125-2.421876.8125-.875 2.09375-.875 1.25 0 2.03125.84375.79688.84375.79688 2.390626 0 .09375 0 .28125h-4.64063q.0625 1.03125.57813 1.578124.51562.53125 1.29687.53125.57813 0 .98437-.296874.42188-.3125.65626-.96875zm-3.45313-1.703126h3.46875q-.0625-.796874-.39062-1.1875-.51563-.609374-1.3125-.609374-.73438 0-1.23438.484374-.48438.484376-.53125 1.3125zm10.26563 2.9375q-.59376.5-1.14063.703126-.53125.203124-1.15625.203124-1.03125 0-1.57812-.5-.54688-.5-.54688-1.28125 0-.453124.20312-.828124.20313-.390626.54688-.609376.34375-.234374.76562-.34375.29688-.09375.9375-.171874 1.26563-.140626 1.875-.359376 0-.21875 0-.265624 0-.65625-.29687-.921876-.40625-.34375-1.20313-.34375-.73437 0-1.09374.265626-.35938.25-.53126.90625l-1.03124-.140626q.14062-.65625.46874-1.0625.32813-.40625.9375-.625.60938-.21875 1.40626-.21875.79687 0 1.29687.1875.5.1875.73437.46875.23438.28125.32813.71875.04687.265626.04687.96875v1.40625q0 1.46875.0625 1.859376.07813.390624.28126.75h-1.10938q-.15625-.328126-.20312-.765626zm-.09376-2.359374q-.57812.234374-1.71874.40625-.65626.09375-.92188.21875-.26562.109374-.42188.328124-.14062.21875-.14062.5 0 .421876.3125.703126.32812.28125.9375.28125.60938 0 1.07812-.265626.48438-.265624.70313-.734374.17187-.359376.17187-1.046876zm7.0625 3.125v-.78125q-.59374.921874-1.73437.921874-.75 0-1.375-.40625-.625-.421874-.96875-1.15625-.34375-.734374-.34375-1.6875 0-.921874.3125-1.6875.3125-.765624.9375-1.15625.625-.40625 1.39063-.40625.5625 0 1 .234376.4375.234374.71874.609374v-3.078124h1.04688v8.59375zm-3.32812-3.109376q0 1.203126.5 1.796876.5.578124 1.1875.578124.6875 0 1.17188-.5625.48437-.5625.48437-1.71875 0-1.28125-.5-1.875-.48437-.59375-1.20313-.59375-.70312 0-1.17187.578126-.46875.5625-.46875 1.796874z" fill="#1a1a1a"/>
  <path d="m394.5 31.8c0-.552285.44772-1 1-1h10c.55228 0 1 .447715 1 1v10c0 .552283-.44772 1-1 1h-10c-.55228 0-1-.447717-1-1z" fill="#ea4335"/>
  <path d="m420.54688 39.784374v1.015626h-5.6875q0-.375.125-.734376.21874-.578124.6875-1.140624.48437-.5625 1.39062-1.296876 1.40625-1.15625 1.89062-1.828124.5-.671876.5-1.265626 0-.625-.45312-1.046874-.45312-.4375-1.17188-.4375-.76562 0-1.21874.453124-.45313.453126-.46876 1.265626l-1.07812-.109376q.10938-1.21875.82812-1.84375.73438-.640624 1.96876-.640624 1.23437 0 1.95312.6875.71875.6875.71875 1.703124 0 .515626-.21875 1.015626-.20312.484374-.70312 1.046874-.48438.546876-1.60938 1.5-.95312.796876-1.23438 1.09375-.26562.28125-.4375.5625zm7.0625 1.015626v-7.578126h-2.82813v-1.015624h6.8125v1.015624h-2.84375v7.578126zm4.6875 0v-8.59375h1.04687v3.078124q.73437-.84375 1.85937-.84375.70313 0 1.20313.28125.51563.265626.73437.75.21876.46875.21876 1.390626v3.9375h-1.04688v-3.9375q0-.796876-.34375-1.15625-.34375-.359376-.96875-.359376-.46875 0-.89062.25-.40626.234376-.59376.65625-.17187.40625-.17187 1.140626v3.40625zm6.98437 0v-6.21875h.95313v.9375q.35937-.65625.65624-.859376.3125-.21875.6875-.21875.53126 0 1.07813.328126l-.35937.984374q-.39063-.234374-.76563-.234374-.35937 0-.64063.21875-.26562.203124-.375.578124-.1875.5625-.1875 1.21875v3.265626zm8.26563-2 1.09374.125q-.25.953124-.95312 1.484374-.70312.53125-1.78125.53125-1.35937 0-2.17187-.84375-.79688-.84375-.79688-2.359374 0-1.5625.8125-2.421876.8125-.875 2.09375-.875 1.25 0 2.03125.84375.79688.84375.79688 2.390626 0 .09375 0 .28125h-4.64063q.0625 1.03125.57813 1.578124.51562.53125 1.29687.53125.57813 0 .98437-.296874.42188-.3125.65626-.96875zm-3.45313-1.703126h3.46875q-.0625-.796874-.39062-1.1875-.51563-.609374-1.3125-.609374-.73438 0-1.23438.484374-.48438.484376-.53125 1.3125zm10.26563 2.9375q-.59376.5-1.14063.703126-.53125.203124-1.15625.203124-1.03125 0-1.57812-.5-.54688-.5-.54688-1.28125 0-.453124.20312-.828124.20313-.390626.54688-.609376.34375-.234374.76562-.34375.29688-.09375.9375-.171874 1.26563-.140626 1.875-.359376 0-.21875 0-.265624 0-.65625-.29687-.921876-.40625-.34375-1.20313-.34375-.73437 0-1.09374.265626-.35938.25-.53126.90625l-1.03124-.140626q.14062-.65625.46874-1.0625.32813-.40625.9375-.625.60938-.21875 1.40626-.21875.79687 0 1.29687.1875.5.1875.73437.46875.23438.28125.32813.71875.04687.265626.04687.96875v1.40625q0 1.46875.0625 1.859376.07813.390624.28126.75h-1.10938q-.15625-.328126-.20312-.765626zm-.09376-2.359374q-.57812.234374-1.71874.40625-.65626.09375-.92188.21875-.26562.109374-.42188.328124-.14062.21875-.14062.5 0 .421876.3125.703126.32812.28125.9375.28125.60938 0 1.07812-.265626.48438-.265624.70313-.734374.17187-.359376.17187-1.046876zm7.0625 3.125v-.78125q-.59374.921874-1.73437.921874-.75 0-1.375-.40625-.625-.421874-.96875-1.15625-.34375-.734374-.34375-1.6875 0-.921874.3125-1.6875.3125-.765624.9375-1.15625.625-.40625 1.39063-.40625.5625 0 1 .234376.4375.234374.71874.609374v-3.078124h1.04688v8.59375zm-3.32812-3.109376q0 1.203126.5 1.796876.5.578124 1.1875.578124.6875 0 1.17188-.5625.48437-.5625.48437-1.71875 0-1.28125-.5-1.875-.48437-.59375-1.20313-.59375-.70312 0-1.17187.578126-.46875.5625-.46875 1.796874zm5.875 1.25 1.03125-.15625q.09375.625.48437.953126.40626.328124 1.14063.328124.71875 0 1.0625-.28125.35937-.296874.35937-.703124 0-.359376-.3125-.5625-.21874-.140626-1.07812-.359376-1.15625-.296874-1.60938-.5-.4375-.21875-.67187-.59375-.23437-.375-.23437-.84375 0-.40625.1875-.765624.1875-.359376.51562-.59375.25-.171876.67188-.296876.42187-.125.92187-.125.71875 0 1.26563.21875.5625.203126.82812.5625.26562.359376.35938.953126l-1.03126.140624q-.0625-.46875-.40624-.734374-.32813-.28125-.95313-.28125-.71875 0-1.03125.25-.3125.234374-.3125.5625 0 .203124.125.359374.14062.171876.40625.28125.15625.0625.9375.265626 1.125.3125 1.5625.5.4375.1875.6875.546874.25.359376.25.90625 0 .53125-.3125 1-.29687.453126-.875.71875-.57813.25-1.3125.25-1.21875 0-1.85937-.5-.625-.515624-.79688-1.5z" fill="#1a1a1a"/>
  <path d="m485.5 31.8c0-.552285.44772-1 1-1h10c.55228 0 1 .447715 1 1v10c0 .552283-.44772 1-1 1h-10c-.55228 0-1-.447717-1-1z" fill="#fbbc04"/>
  <path d="m512.375 40.8v-2.0625h-3.71875v-.96875l3.92185-5.5625h.8594v5.5625h1.15625v.96875h-1.15625v2.0625zm0-3.03125v-3.859376l-2.6875 3.859376zm9.2344 3.03125v-7.578126h-2.82815v-1.015624h6.8125v1.015624h-2.84375v7.578126zm4.6875 0v-8.59375h1.04685v3.078124q.73435-.84375 1.85935-.84375.70315 0 1.20315.28125.51565.265626.73435.75.2188.46875.2188 1.390626v3.9375h-1.0469v-3.9375q0-.796876-.34375-1.15625-.34375-.359376-.96875-.359376-.46875 0-.8906.25-.4063.234376-.5938.65625-.17185.40625-.17185 1.140626v3.40625zm6.98435 0v-6.21875h.95315v.9375q.35935-.65625.6562-.859376.3125-.21875.6875-.21875.5313 0 1.07815.328126l-.35935.984374q-.39065-.234374-.76565-.234374-.35935 0-.64065.21875-.2656.203124-.375.578124-.1875.5625-.1875 1.21875v3.265626zm8.26565-2 1.0937.125q-.25.953124-.9531 1.484374-.7031.53125-1.78125.53125-1.35935 0-2.17185-.84375-.7969-.84375-.7969-2.359374 0-1.5625.8125-2.421876.8125-.875 2.09375-.875 1.25 0 2.03125.84375.7969.84375.7969 2.390626 0 .09375 0 .28125h-4.64065q.0625 1.03125.57815 1.578124.5156.53125 1.29685.53125.57815 0 .98435-.296874.4219-.3125.6563-.96875zm-3.45315-1.703126h3.46875q-.0625-.796874-.3906-1.1875-.51565-.609374-1.3125-.609374-.7344 0-1.2344.484374-.4844.484376-.53125 1.3125zm10.26565 2.9375q-.5938.5-1.14065.703126-.53125.203124-1.15625.203124-1.03125 0-1.5781-.5-.5469-.5-.5469-1.28125 0-.453124.2031-.828124.20315-.390626.5469-.609376.34375-.234374.7656-.34375.2969-.09375.9375-.171874 1.26565-.140626 1.875-.359376 0-.21875 0-.265624 0-.65625-.29685-.921876-.40625-.34375-1.20315-.34375-.73435 0-1.0937.265626-.3594.25-.5313.90625l-1.0312-.140626q.1406-.65625.4687-1.0625.32815-.40625.9375-.625.6094-.21875 1.4063-.21875.79685 0 1.29685.1875.5.1875.73435.46875.2344.28125.32815.71875.04685.265626.04685.96875v1.40625q0 1.46875.0625 1.859376.07815.390624.2813.75h-1.1094q-.15625-.328126-.2031-.765626zm-.0938-2.359374q-.5781.234374-1.7187.40625-.6563.09375-.9219.21875-.2656.109374-.4219.328124-.1406.21875-.1406.5 0 .421876.3125.703126.3281.28125.9375.28125.6094 0 1.0781-.265626.4844-.265624.70315-.734374.17185-.359376.17185-1.046876zm7.0625 3.125v-.78125q-.5937.921874-1.73435.921874-.75 0-1.375-.40625-.625-.421874-.96875-1.15625-.34375-.734374-.34375-1.6875 0-.921874.3125-1.6875.3125-.765624.9375-1.15625.625-.40625 1.39065-.40625.5625 0 1 .234376.4375.234374.7187.609374v-3.078124h1.0469v8.59375zm-3.3281-3.109376q0 1.203126.5 1.796876.5.578124 1.1875.578124.6875 0 1.1719-.5625.48435-.5625.48435-1.71875 0-1.28125-.5-1.875-.48435-.59375-1.20315-.59375-.7031 0-1.17185.578126-.46875.5625-.46875 1.796874zm5.875 1.25 1.03125-.15625q.09375.625.48435.953126.4063.328124 1.14065.328124.71875 0 1.0625-.28125.35935-.296874.35935-.703124 0-.359376-.3125-.5625-.2187-.140626-1.0781-.359376-1.15625-.296874-1.6094-.5-.4375-.21875-.67185-.59375-.23435-.375-.23435-.84375 0-.40625.1875-.765624.1875-.359376.5156-.59375.25-.171876.6719-.296876.42185-.125.92185-.125.71875 0 1.26565.21875.5625.203126.8281.5625.2656.359376.3594.953126l-1.0313.140624q-.0625-.46875-.4062-.734374-.32815-.28125-.95315-.28125-.71875 0-1.03125.25-.3125.234374-.3125.5625 0 .203124.125.359374.1406.171876.40625.28125.15625.0625.9375.265626 1.125.3125 1.5625.5.4375.1875.6875.546874.25.359376.25.90625 0 .53125-.3125 1-.29685.453126-.875.71875-.57815.25-1.3125.25-1.21875 0-1.85935-.5-.625-.515624-.7969-1.5z" fill="#1a1a1a"/>
  <path d="m579.5 31.8c0-.552285.4477-1 1-1h10c.5523 0 1 .447715 1 1v10c0 .552283-.4477 1-1 1h-10c-.5523 0-1-.447717-1-1z" fill="#34a853"/>
  <path d="m601.625 36.14375q-.65625-.25-.9844-.6875-.3125-.453126-.3125-1.0625 0-.9375.6719-1.578126.6875-.640624 1.7969-.640624 1.125 0 1.8125.65625.6875.65625.6875 1.59375 0 .59375-.3125 1.03125-.3125.4375-.95315.6875.79685.25 1.20315.828124.4062.578126.4062 1.375 0 1.09375-.7812 1.84375-.76565.75-2.0469.75-1.2656 0-2.0469-.75-.7812-.75-.7812-1.875 0-.84375.42185-1.40625.4375-.5625 1.21875-.765624zm-.21875-1.796876q0 .609376.39065 1 .4062.390626 1.0312.390626.6094 0 1-.375.39065-.390626.39065-.953126 0-.578124-.40625-.96875-.40625-.40625-1-.40625-.6094 0-1.0156.390626-.39065.390624-.39065.921874zm-.32815 3.96875q0 .453126.20315.875.21875.421876.64065.65625.42185.234376.9062.234376.75 0 1.2344-.484376.5-.484374.5-1.234374 0-.765626-.5-1.265626-.5-.5-1.2656-.5-.75 0-1.2344.5-.4844.484376-.4844 1.21875zm11.5313 2.484376v-7.578126h-2.82815v-1.015624h6.8125v1.015624h-2.84375v7.578126zm4.6875 0v-8.59375h1.04685v3.078124q.73435-.84375 1.85935-.84375.70315 0 1.20315.28125.51565.265626.73435.75.2188.46875.2188 1.390626v3.9375h-1.0469v-3.9375q0-.796876-.34375-1.15625-.34375-.359376-.96875-.359376-.46875 0-.8906.25-.4063.234376-.5938.65625-.17185.40625-.17185 1.140626v3.40625zm6.98435 0v-6.21875h.95315v.9375q.35935-.65625.6562-.859376.3125-.21875.6875-.21875.5313 0 1.07815.328126l-.35935.984374q-.39065-.234374-.76565-.234374-.35935 0-.64065.21875-.2656.203124-.375.578124-.1875.5625-.1875 1.21875v3.265626zm8.26565-2 1.0937.125q-.25.953124-.9531 1.484374-.7031.53125-1.78125.53125-1.35935 0-2.17185-.84375-.7969-.84375-.7969-2.359374 0-1.5625.8125-2.421876.8125-.875 2.09375-.875 1.25 0 2.03125.84375.7969.84375.7969 2.390626 0 .09375 0 .28125h-4.64065q.0625 1.03125.57815 1.578124.5156.53125 1.29685.53125.57815 0 .98435-.296874.4219-.3125.6563-.96875zm-3.45315-1.703126h3.46875q-.0625-.796874-.3906-1.1875-.51565-.609374-1.3125-.609374-.7344 0-1.2344.484374-.4844.484376-.53125 1.3125zm10.26565 2.9375q-.5938.5-1.14065.703126-.53125.203124-1.15625.203124-1.03125 0-1.5781-.5-.5469-.5-.5469-1.28125 0-.453124.2031-.828124.20315-.390626.5469-.609376.34375-.234374.7656-.34375.2969-.09375.9375-.171874 1.26565-.140626 1.875-.359376 0-.21875 0-.265624 0-.65625-.29685-.921876-.40625-.34375-1.20315-.34375-.73435 0-1.0937.265626-.3594.25-.5313.90625l-1.0312-.140626q.1406-.65625.4687-1.0625.32815-.40625.9375-.625.6094-.21875 1.4063-.21875.79685 0 1.29685.1875.5.1875.73435.46875.2344.28125.32815.71875.04685.265626.04685.96875v1.40625q0 1.46875.0625 1.859376.07815.390624.2813.75h-1.1094q-.15625-.328126-.2031-.765626zm-.0938-2.359374q-.5781.234374-1.7187.40625-.6563.09375-.9219.21875-.2656.109374-.4219.328124-.1406.21875-.1406.5 0 .421876.3125.703126.3281.28125.9375.28125.6094 0 1.0781-.265626.4844-.265624.70315-.734374.17185-.359376.17185-1.046876zm7.0625 3.125v-.78125q-.5937.921874-1.73435.921874-.75 0-1.375-.40625-.625-.421874-.96875-1.15625-.34375-.734374-.34375-1.6875 0-.921874.3125-1.6875.3125-.765624.9375-1.15625.625-.40625 1.39065-.40625.5625 0 1 .234376.4375.234374.7187.609374v-3.078124h1.0469v8.59375zm-3.3281-3.109376q0 1.203126.5 1.796876.5.578124 1.1875.578124.6875 0 1.1719-.5625.48435-.5625.48435-1.71875 0-1.28125-.5-1.875-.48435-.59375-1.20315-.59375-.7031 0-1.17185.578126-.46875.5625-.46875 1.796874zm5.875 1.25 1.03125-.15625q.09375.625.48435.953126.4063.328124 1.14065.328124.71875 0 1.0625-.28125.35935-.296874.35935-.703124 0-.359376-.3125-.5625-.2187-.140626-1.0781-.359376-1.15625-.296874-1.6094-.5-.4375-.21875-.67185-.59375-.23435-.375-.23435-.84375 0-.40625.1875-.765624.1875-.359376.5156-.59375.25-.171876.6719-.296876.42185-.125.92185-.125.71875 0 1.26565.21875.5625.203126.8281.5625.2656.359376.3594.953126l-1.0313.140624q-.0625-.46875-.4062-.734374-.32815-.28125-.95315-.28125-.71875 0-1.03125.25-.3125.234374-.3125.5625 0 .203124.125.359374.1406.171876.40625.28125.15625.0625.9375.265626 1.125.3125 1.5625.5.4375.1875.6875.546874.25.359376.25.90625 0 .53125-.3125 1-.29685.453126-.875.71875-.57815.25-1.3125.25-1.21875 0-1.85935-.5-.625-.515624-.7969-1.5z" fill="#1a1a1a"/>
</svg>
