<?xml version="1.0"?>
<svg xmlns="http://www.w3.org/2000/svg" xmlns:xlink="http://www.w3.org/1999/xlink" fill="none" stroke-linecap="square" stroke-miterlimit="10" viewBox="0 0 964 596">
  <clipPath id="a">
    <path d="m110.8 70.666664h823.4v488.533336h-823.4z"/>
  </clipPath>
  <path d="m0 0h964v596h-964z" fill="#fff"/>
  <g stroke-linecap="butt">
    <path d="m110.5 559.5h824" stroke="#333"/>
    <g stroke="#ccc">
      <path d="m110.5 437.5h824"/>
      <path d="m110.5 314.5h824"/>
      <path d="m110.5 192.5h824"/>
      <path d="m110.5 70.5h824"/>
    </g>
  </g>
  <path clip-path="url(#a)" d="m404 559h-78v-399c0-1.10457.89542-2 2-2h74c1.10458 0 2 .89543 2 2z"/>
  <path clip-path="url(#a)" d="m404 559h-78v-399c0-1.10457.89542-2 2-2h74c1.10458 0 2 .89543 2 2z" fill="#4285f4"/>
  <path clip-path="url(#a)" d="m483 559h-78v-399c0-1.10457.89542-2 2-2h74c1.10458 0 2 .89543 2 2z"/>
  <path clip-path="url(#a)" d="m483 559h-78v-399c0-1.10457.89542-2 2-2h74c1.10458 0 2 .89543 2 2z" fill="#ea4335"/>
  <path clip-path="url(#a)" d="m562 559h-78v-224c0-1.10458.89542-2 2-2h74c1.10455 0 2 .89542 2 2z"/>
  <path clip-path="url(#a)" d="m562 559h-78v-224c0-1.10458.89542-2 2-2h74c1.10455 0 2 .89542 2 2z" fill="#fbbc04"/>
  <path clip-path="url(#a)" d="m641 559h-78v-184c0-1.10458.89545-2 2-2h74c1.10455 0 2 .89542 2 2z"/>
  <path clip-path="url(#a)" d="m641 559h-78v-184c0-1.10458.89545-2 2-2h74c1.10455 0 2 .89542 2 2z" fill="#34a853"/>
  <path clip-path="url(#a)" d="m720 559h-78v-208c0-1.10458.89545-2 2-2h74c1.10455 0 2 .89542 2 2z"/>
  <path clip-path="url(#a)" d="m720 559h-78v-208c0-1.10458.89545-2 2-2h74c1.10455 0 2 .89542 2 2z" fill="#ff6d01"/>
  <path d="m350.46875 173.59659h-1.04687v-6.71875q-.39063.35937-1.01563.73437-.60937.35938-1.09375.53125v-1.01562q.875-.42188 1.53125-1 .67187-.59375.95313-1.15625h.67187zm8.5-6.48438-1.04687.07813q-.14063-.625-.39063-.90625-.4375-.45313-1.0625-.45313-.5 0-.89063.28125-.48437.375-.78124 1.07813-.28126.6875-.29688 1.96875.375-.57813.92188-.85938.5625-.28125 1.17187-.28125 1.04687 0 1.78125.78125.75.78125.75 2 0 .8125-.35938 1.51563-.34374.6875-.95312 1.0625-.60938.35937-1.375.35937-1.32812 0-2.15625-.96875-.82813-.96875-.82813-3.1875 0-2.5.92188-3.625.79688-.98437 2.15625-.98437 1.01563 0 1.65625.57812.65625.5625.78125 1.5625zm-4.29687 3.70313q0 .54687.21874 1.04687.23438.48438.64063.75.42187.26563.89063.26563.65624 0 1.14062-.53125.48438-.54688.48438-1.46875 0-.89063-.48438-1.40625-.46875-.51563-1.1875-.51563-.71875 0-1.21875.51563-.48437.51562-.48437 1.34375zm6.39062 2.78125v-1.20313h1.20312v1.20313q0 .65625-.23437 1.0625-.23437.42187-.73437.64062l-.29688-.45312q.32812-.14063.48438-.4375.15624-.28125.1875-.8125zm5.8125 0v-2.0625h-3.71875v-.96875l3.92187-5.5625h.85938v5.5625h1.15625v.96875h-1.15625v2.0625zm0-3.03125v-3.85938l-2.6875 3.85938zm3.625.76562 1.0625-.14062q.17188.89062.60938 1.29687.4375.39063 1.0625.39063.75 0 1.26562-.51563.51562-.51562.51562-1.28125 0-.71875-.48437-1.1875-.46875-.48437-1.20313-.48437-.29687 0-.75.125l.125-.9375q.10938.01562.17188.01562.67188 0 1.20312-.34375.54688-.35937.54688-1.09375 0-.57812-.39062-.95312-.39063-.39063-1.01563-.39063-.60937 0-1.03125.39063-.40625.39062-.51562 1.15625l-1.0625-.1875q.1875-1.04688.875-1.625.6875-.59375 1.70312-.59375.70312 0 1.29688.3125.59374.29687.90624.8125.3125.51562.3125 1.10937 0 .54688-.29687 1.01563-.29687.45312-.875.71875.75.17187 1.17187.73437.42188.54688.42188 1.39063 0 1.125-.82812 1.90625-.8125.78125-2.0625.78125-1.125 0-1.875-.67188-.75-.6875-.85938-1.75zm7 0 1.0625-.14062q.17188.89062.60938 1.29687.4375.39063 1.0625.39063.75 0 1.26562-.51563.51562-.51562.51562-1.28125 0-.71875-.48437-1.1875-.46875-.48437-1.20313-.48437-.29687 0-.75.125l.125-.9375q.10938.01562.17188.01562.67188 0 1.20312-.34375.54688-.35937.54688-1.09375 0-.57812-.39062-.95312-.39063-.39063-1.01563-.39063-.60937 0-1.03125.39063-.40625.39062-.51562 1.15625l-1.0625-.1875q.1875-1.04688.875-1.625.6875-.59375 1.70312-.59375.70312 0 1.29688.3125.59374.29687.90624.8125.3125.51562.3125 1.10937 0 .54688-.29687 1.01563-.29687.45312-.875.71875.75.17187 1.17187.73437.42188.54688.42188 1.39063 0 1.125-.82812 1.90625-.8125.78125-2.0625.78125-1.125 0-1.875-.67188-.75-.6875-.85938-1.75z" stroke="#4285f4" stroke-linecap="round" stroke-linejoin="round" stroke-width="3"/>
  <path d="m350.46875 173.59659h-1.04687v-6.71875q-.39063.35937-1.01563.73437-.60937.35938-1.09375.53125v-1.01562q.875-.42188 1.53125-1 .67187-.59375.95313-1.15625h.67187zm8.5-6.48438-1.04687.07813q-.14063-.625-.39063-.90625-.4375-.45313-1.0625-.45313-.5 0-.89063.28125-.48437.375-.78124 1.07813-.28126.6875-.29688 1.96875.375-.57813.92188-.85938.5625-.28125 1.17187-.28125 1.04687 0 1.78125.78125.75.78125.75 2 0 .8125-.35938 1.51563-.34374.6875-.95312 1.0625-.60938.35937-1.375.35937-1.32812 0-2.15625-.96875-.82813-.96875-.82813-3.1875 0-2.5.92188-3.625.79688-.98437 2.15625-.98437 1.01563 0 1.65625.57812.65625.5625.78125 1.5625zm-4.29687 3.70313q0 .54687.21874 1.04687.23438.48438.64063.75.42187.26563.89063.26563.65624 0 1.14062-.53125.48438-.54688.48438-1.46875 0-.89063-.48438-1.40625-.46875-.51563-1.1875-.51563-.71875 0-1.21875.51563-.48437.51562-.48437 1.34375zm6.39062 2.78125v-1.20313h1.20312v1.20313q0 .65625-.23437 1.0625-.23437.42187-.73437.64062l-.29688-.45312q.32812-.14063.48438-.4375.15624-.28125.1875-.8125zm5.8125 0v-2.0625h-3.71875v-.96875l3.92187-5.5625h.85938v5.5625h1.15625v.96875h-1.15625v2.0625zm0-3.03125v-3.85938l-2.6875 3.85938zm3.625.76562 1.0625-.14062q.17188.89062.60938 1.29687.4375.39063 1.0625.39063.75 0 1.26562-.51563.51562-.51562.51562-1.28125 0-.71875-.48437-1.1875-.46875-.48437-1.20313-.48437-.29687 0-.75.125l.125-.9375q.10938.01562.17188.01562.67188 0 1.20312-.34375.54688-.35937.54688-1.09375 0-.57812-.39062-.95312-.39063-.39063-1.01563-.39063-.60937 0-1.03125.39063-.40625.39062-.51562 1.15625l-1.0625-.1875q.1875-1.04688.875-1.625.6875-.59375 1.70312-.59375.70312 0 1.29688.3125.59374.29687.90624.8125.3125.51562.3125 1.10937 0 .54688-.29687 1.01563-.29687.45312-.875.71875.75.17187 1.17187.73437.42188.54688.42188 1.39063 0 1.125-.82812 1.90625-.8125.78125-2.0625.78125-1.125 0-1.875-.67188-.75-.6875-.85938-1.75zm7 0 1.0625-.14062q.17188.89062.60938 1.29687.4375.39063 1.0625.39063.75 0 1.26562-.51563.51562-.51562.51562-1.28125 0-.71875-.48437-1.1875-.46875-.48437-1.20313-.48437-.29687 0-.75.125l.125-.9375q.10938.01562.17188.01562.67188 0 1.20312-.34375.54688-.35937.54688-1.09375 0-.57812-.39062-.95312-.39063-.39063-1.01563-.39063-.60937 0-1.03125.39063-.40625.39062-.51562 1.15625l-1.0625-.1875q.1875-1.04688.875-1.625.6875-.59375 1.70312-.59375.70312 0 1.29688.3125.59374.29687.90624.8125.3125.51562.3125 1.10937 0 .54688-.29687 1.01563-.29687.45312-.875.71875.75.17187 1.17187.73437.42188.54688.42188 1.39063 0 1.125-.82812 1.90625-.8125.78125-2.0625.78125-1.125 0-1.875-.67188-.75-.6875-.85938-1.75z" fill="#fff"/>
  <path d="m429.46875 173.5233h-1.04687v-6.71875q-.39063.35938-1.01563.73438-.60937.35937-1.09375.53125v-1.01563q.875-.42187 1.53125-1 .67187-.59375.95313-1.15625h.67187zm8.5-6.48437-1.04687.07812q-.14063-.625-.39063-.90625-.4375-.45312-1.0625-.45312-.5 0-.89063.28125-.48437.375-.78124 1.07812-.28126.6875-.29688 1.96875.375-.57812.92188-.85937.5625-.28125 1.17187-.28125 1.04687 0 1.78125.78125.75.78125.75 2 0 .8125-.35938 1.51562-.34374.6875-.95312 1.0625-.60938.35938-1.375.35938-1.32812 0-2.15625-.96875-.82813-.96875-.82813-3.1875 0-2.5.92188-3.625.79688-.98438 2.15625-.98438 1.01563 0 1.65625.57813.65625.5625.78125 1.5625zm-4.29687 3.70312q0 .54688.21874 1.04688.23438.48437.64063.75.42187.26562.89063.26562.65624 0 1.14062-.53125.48438-.54687.48438-1.46875 0-.89062-.48438-1.40625-.46875-.51562-1.1875-.51562-.71875 0-1.21875.51562-.48437.51563-.48437 1.34375zm6.39062 2.78125v-1.20312h1.20312v1.20312q0 .65625-.23437 1.0625-.23437.42188-.73437.64063l-.29688-.45313q.32812-.14062.48438-.4375.15624-.28125.1875-.8125zm5.8125 0v-2.0625h-3.71875v-.96875l3.92187-5.5625h.85938v5.5625h1.15625v.96875h-1.15625v2.0625zm0-3.03125v-3.85937l-2.6875 3.85937zm3.625.76563 1.0625-.14063q.17188.89063.60938 1.29688.4375.39062 1.0625.39062.75 0 1.26562-.51562.51562-.51563.51562-1.28125 0-.71875-.48437-1.1875-.46875-.48438-1.20313-.48438-.29687 0-.75.125l.125-.9375q.10938.01563.17188.01563.67188 0 1.20312-.34375.54688-.35938.54688-1.09375 0-.57813-.39062-.95313-.39063-.39062-1.01563-.39062-.60937 0-1.03125.39062-.40625.39063-.51562 1.15625l-1.0625-.1875q.1875-1.04687.875-1.625.6875-.59375 1.70312-.59375.70312 0 1.29688.3125.59374.29688.90624.8125.3125.51563.3125 1.10938 0 .54687-.29687 1.01562-.29687.45313-.875.71875.75.17188 1.17187.73438.42188.54687.42188 1.39062 0 1.125-.82812 1.90625-.8125.78125-2.0625.78125-1.125 0-1.875-.67187-.75-.6875-.85938-1.75zm12.46875-4.21875-1.04687.07812q-.14063-.625-.39063-.90625-.4375-.45312-1.0625-.45312-.5 0-.89063.28125-.48437.375-.78124 1.07812-.28126.6875-.29688 1.96875.375-.57812.92188-.85937.5625-.28125 1.17187-.28125 1.04687 0 1.78125.78125.75.78125.75 2 0 .8125-.35938 1.51562-.34374.6875-.95312 1.0625-.60938.35938-1.375.35938-1.32812 0-2.15625-.96875-.82813-.96875-.82813-3.1875 0-2.5.92188-3.625.79688-.98438 2.15625-.98438 1.01563 0 1.65625.57813.65625.5625.78125 1.5625zm-4.29687 3.70312q0 .54688.21874 1.04688.23438.48437.64063.75.42187.26562.89063.26562.65624 0 1.14062-.53125.48438-.54687.48438-1.46875 0-.89062-.48438-1.40625-.46875-.51562-1.1875-.51562-.71875 0-1.21875.51562-.48437.51563-.48437 1.34375z" stroke="#ea4335" stroke-linecap="round" stroke-linejoin="round" stroke-width="3"/>
  <path d="m429.46875 173.5233h-1.04687v-6.71875q-.39063.35938-1.01563.73438-.60937.35937-1.09375.53125v-1.01563q.875-.42187 1.53125-1 .67187-.59375.95313-1.15625h.67187zm8.5-6.48437-1.04687.07812q-.14063-.625-.39063-.90625-.4375-.45312-1.0625-.45312-.5 0-.89063.28125-.48437.375-.78124 1.07812-.28126.6875-.29688 1.96875.375-.57812.92188-.85937.5625-.28125 1.17187-.28125 1.04687 0 1.78125.78125.75.78125.75 2 0 .8125-.35938 1.51562-.34374.6875-.95312 1.0625-.60938.35938-1.375.35938-1.32812 0-2.15625-.96875-.82813-.96875-.82813-3.1875 0-2.5.92188-3.625.79688-.98438 2.15625-.98438 1.01563 0 1.65625.57813.65625.5625.78125 1.5625zm-4.29687 3.70312q0 .54688.21874 1.04688.23438.48437.64063.75.42187.26562.89063.26562.65624 0 1.14062-.53125.48438-.54687.48438-1.46875 0-.89062-.48438-1.40625-.46875-.51562-1.1875-.51562-.71875 0-1.21875.51562-.48437.51563-.48437 1.34375zm6.39062 2.78125v-1.20312h1.20312v1.20312q0 .65625-.23437 1.0625-.23437.42188-.73437.64063l-.29688-.45313q.32812-.14062.48438-.4375.15624-.28125.1875-.8125zm5.8125 0v-2.0625h-3.71875v-.96875l3.92187-5.5625h.85938v5.5625h1.15625v.96875h-1.15625v2.0625zm0-3.03125v-3.85937l-2.6875 3.85937zm3.625.76563 1.0625-.14063q.17188.89063.60938 1.29688.4375.39062 1.0625.39062.75 0 1.26562-.51562.51562-.51563.51562-1.28125 0-.71875-.48437-1.1875-.46875-.48438-1.20313-.48438-.29687 0-.75.125l.125-.9375q.10938.01563.17188.01563.67188 0 1.20312-.34375.54688-.35938.54688-1.09375 0-.57813-.39062-.95313-.39063-.39062-1.01563-.39062-.60937 0-1.03125.39062-.40625.39063-.51562 1.15625l-1.0625-.1875q.1875-1.04687.875-1.625.6875-.59375 1.70312-.59375.70312 0 1.29688.3125.59374.29688.90624.8125.3125.51563.3125 1.10938 0 .54687-.29687 1.01562-.29687.45313-.875.71875.75.17188 1.17187.73438.42188.54687.42188 1.39062 0 1.125-.82812 1.90625-.8125.78125-2.0625.78125-1.125 0-1.875-.67187-.75-.6875-.85938-1.75zm12.46875-4.21875-1.04687.07812q-.14063-.625-.39063-.90625-.4375-.45312-1.0625-.45312-.5 0-.89063.28125-.48437.375-.78124 1.07812-.28126.6875-.29688 1.96875.375-.57812.92188-.85937.5625-.28125 1.17187-.28125 1.04687 0 1.78125.78125.75.78125.75 2 0 .8125-.35938 1.51562-.34374.6875-.95312 1.0625-.60938.35938-1.375.35938-1.32812 0-2.15625-.96875-.82813-.96875-.82813-3.1875 0-2.5.92188-3.625.79688-.98438 2.15625-.98438 1.01563 0 1.65625.57813.65625.5625.78125 1.5625zm-4.29687 3.70312q0 .54688.21874 1.04688.23438.48437.64063.75.42187.26562.89063.26562.65624 0 1.14062-.53125.48438-.54687.48438-1.46875 0-.89062-.48438-1.40625-.46875-.51562-1.1875-.51562-.71875 0-1.21875.51562-.48437.51563-.48437 1.34375z" fill="#fff"/>
  <path d="m508.15625 346.99567 1.01563-.09375q.125.71875.48437 1.04688.375.3125.9375.3125.48437 0 .84375-.21876.375-.23437.6094-.59374.23435-.375.3906-1 .15625-.64063.15625-1.29688 0-.07812 0-.21875-.3125.5-.85937.82813-.54688.3125-1.1875.3125-1.07813 0-1.8125-.76563-.73438-.78125-.73438-2.04687 0-1.3125.76562-2.10938.78126-.79688 1.9375-.79688.82813 0 1.51563.45313.70315.45313 1.0625 1.29687.35935.82813.35935 2.40626 0 1.64062-.35935 2.625-.34375.96874-1.0625 1.48437-.70313.5-1.64063.5-1.01562 0-1.65624-.54687-.64063-.5625-.76563-1.57813zm4.3125-3.79687q0-.90626-.48437-1.4375-.46876-.53126-1.15626-.53126-.70312 0-1.23437.57813-.51563.5625-.51563 1.48437 0 .8125.5 1.32813.5.51563 1.21876.51563.73437 0 1.20312-.51563.46875-.51563.46875-1.42187zm3.09375 5.78124v-1.20312h1.2031v1.20312q0 .65626-.23435 1.0625-.23435.42188-.73435.64063l-.2969-.45313q.3281-.14062.4844-.4375.1562-.28124.1875-.8125zm7.9844-1.01562v1.01562h-5.6875q0-.375.125-.73437.2187-.57813.6875-1.14063.48435-.5625 1.3906-1.29687 1.40625-1.15625 1.8906-1.82813.5-.67187.5-1.26562 0-.625-.4531-1.04688-.4531-.4375-1.1719-.4375-.7656 0-1.2187.45313-.45315.45313-.4688 1.26563l-1.0781-.10938q.1094-1.21875.8281-1.84375.7344-.64063 1.9688-.64063 1.23435 0 1.9531.6875.71875.6875.71875 1.70313 0 .51563-.21875 1.01563-.2031.48437-.7031 1.04687-.4844.54687-1.6094 1.5-.9531.79687-1.2344 1.09375-.2656.28125-.4375.5625zm1.4531-1.23438 1.1094-.09374q.125.8125.5625 1.21874.4531.40626 1.0937.40626.75 0 1.2813-.57813.5312-.57813.5312-1.51563 0-.90624-.5156-1.42187-.5-.53125-1.3281-.53125-.5 0-.9219.23438-.40625.23437-.6406.59374l-.9844-.125.8281-4.40624h4.2813v1h-3.4375l-.45315 2.3125q.76565-.54688 1.60935-.54688 1.125 0 1.89065.78125.78125.78125.78125 2.01563 0 1.15624-.6719 2.01562-.8281 1.03125-2.25 1.03125-1.17185 0-1.92185-.65625-.73435-.65625-.84375-1.73438zm7-.01562 1.0625-.14062q.1719.89062.6094 1.29687.4375.39063 1.0625.39063.75 0 1.2656-.51563.5156-.51563.5156-1.28125 0-.71875-.48435-1.1875-.46875-.48438-1.20315-.48438-.29685 0-.75.125l.125-.9375q.1094.01563.1719.01563.6719 0 1.2031-.34375.5469-.35938.5469-1.09375 0-.57813-.3906-.95313-.39065-.39062-1.01565-.39062-.60935 0-1.03125.39062-.40625.39063-.5156 1.15626l-1.0625-.1875q.1875-1.04688.875-1.625.6875-.59376 1.7031-.59376.7031 0 1.2969.3125.5937.29688.9062.8125.3125.51563.3125 1.10938 0 .54688-.29685 1.01562-.29685.45313-.875.71876.75.17187 1.17185.73437.4219.54687.4219 1.39063 0 1.125-.8281 1.90624-.8125.78126-2.0625.78126-1.125 0-1.875-.67188-.75-.6875-.8594-1.75z" stroke="#fbbc04" stroke-linecap="round" stroke-linejoin="round" stroke-width="3"/>
  <path d="m508.15625 346.99567 1.01563-.09375q.125.71875.48437 1.04688.375.3125.9375.3125.48437 0 .84375-.21876.375-.23437.6094-.59374.23435-.375.3906-1 .15625-.64063.15625-1.29688 0-.07812 0-.21875-.3125.5-.85937.82813-.54688.3125-1.1875.3125-1.07813 0-1.8125-.76563-.73438-.78125-.73438-2.04687 0-1.3125.76562-2.10938.78126-.79688 1.9375-.79688.82813 0 1.51563.45313.70315.45313 1.0625 1.29687.35935.82813.35935 2.40626 0 1.64062-.35935 2.625-.34375.96874-1.0625 1.48437-.70313.5-1.64063.5-1.01562 0-1.65624-.54687-.64063-.5625-.76563-1.57813zm4.3125-3.79687q0-.90626-.48437-1.4375-.46876-.53126-1.15626-.53126-.70312 0-1.23437.57813-.51563.5625-.51563 1.48437 0 .8125.5 1.32813.5.51563 1.21876.51563.73437 0 1.20312-.51563.46875-.51563.46875-1.42187zm3.09375 5.78124v-1.20312h1.2031v1.20312q0 .65626-.23435 1.0625-.23435.42188-.73435.64063l-.2969-.45313q.3281-.14062.4844-.4375.1562-.28124.1875-.8125zm7.9844-1.01562v1.01562h-5.6875q0-.375.125-.73437.2187-.57813.6875-1.14063.48435-.5625 1.3906-1.29687 1.40625-1.15625 1.8906-1.82813.5-.67187.5-1.26562 0-.625-.4531-1.04688-.4531-.4375-1.1719-.4375-.7656 0-1.2187.45313-.45315.45313-.4688 1.26563l-1.0781-.10938q.1094-1.21875.8281-1.84375.7344-.64063 1.9688-.64063 1.23435 0 1.9531.6875.71875.6875.71875 1.70313 0 .51563-.21875 1.01563-.2031.48437-.7031 1.04687-.4844.54687-1.6094 1.5-.9531.79687-1.2344 1.09375-.2656.28125-.4375.5625zm1.4531-1.23438 1.1094-.09374q.125.8125.5625 1.21874.4531.40626 1.0937.40626.75 0 1.2813-.57813.5312-.57813.5312-1.51563 0-.90624-.5156-1.42187-.5-.53125-1.3281-.53125-.5 0-.9219.23438-.40625.23437-.6406.59374l-.9844-.125.8281-4.40624h4.2813v1h-3.4375l-.45315 2.3125q.76565-.54688 1.60935-.54688 1.125 0 1.89065.78125.78125.78125.78125 2.01563 0 1.15624-.6719 2.01562-.8281 1.03125-2.25 1.03125-1.17185 0-1.92185-.65625-.73435-.65625-.84375-1.73438zm7-.01562 1.0625-.14062q.1719.89062.6094 1.29687.4375.39063 1.0625.39063.75 0 1.2656-.51563.5156-.51563.5156-1.28125 0-.71875-.48435-1.1875-.46875-.48438-1.20315-.48438-.29685 0-.75.125l.125-.9375q.1094.01563.1719.01563.6719 0 1.2031-.34375.5469-.35938.5469-1.09375 0-.57813-.3906-.95313-.39065-.39062-1.01565-.39062-.60935 0-1.03125.39062-.40625.39063-.5156 1.15626l-1.0625-.1875q.1875-1.04688.875-1.625.6875-.59376 1.7031-.59376.7031 0 1.2969.3125.5937.29688.9062.8125.3125.51563.3125 1.10938 0 .54688-.29685 1.01562-.29685.45313-.875.71876.75.17187 1.17185.73437.4219.54687.4219 1.39063 0 1.125-.8281 1.90624-.8125.78126-2.0625.78126-1.125 0-1.875-.67188-.75-.6875-.8594-1.75z" fill="#000"/>
  <path d="m587.0625 381.76645v-1.01563h5.5625v.82813q-.8125.875-1.625 2.32812-.7969 1.4375-1.2344 2.96875-.3281 1.07813-.4062 2.35938h-1.0938q.01565-1.01563.39065-2.45313.39065-1.4375 1.09375-2.76562.71875-1.32813 1.53125-2.25zm7.5 7.46875v-1.20313h1.2031v1.20313q0 .65625-.23435 1.0625-.23435.42187-.73435.64062l-.2969-.45312q.3281-.14063.4844-.4375.1562-.28125.1875-.8125zm7.90625-6.48438-1.04685.07813q-.14065-.625-.39065-.90625-.4375-.45313-1.0625-.45313-.5 0-.89065.28125-.48435.375-.7812 1.07813-.2813.6875-.2969 1.96875.375-.57813.9219-.85938.5625-.28125 1.17185-.28125 1.04685 0 1.78125.78125.75.78125.75 2 0 .8125-.3594 1.51563-.3437.6875-.9531 1.0625-.6094.35937-1.375.35937-1.3281 0-2.15625-.96875-.82815-.96875-.82815-3.1875 0-2.5.9219-3.625.7969-.98437 2.15625-.98437 1.01565 0 1.65625.57812.65625.5625.78125 1.5625zm-4.29685 3.70313q0 .54687.2187 1.04687.2344.48438.64065.75.42185.26563.89065.26563.6562 0 1.1406-.53125.4844-.54688.4844-1.46875 0-.89063-.4844-1.40625-.46875-.51563-1.1875-.51563-.71875 0-1.21875.51563-.48435.51562-.48435 1.34375zm5.8281-1.45313q0-1.53125.3125-2.45312.3125-.9375.9219-1.4375.625-.5 1.5625-.5.6875 0 1.2031.28125.53125.28125.875.8125.34375.51562.53125 1.26562.1875.75.1875 2.03125 0 1.51563-.3125 2.4375-.29685.92188-.92185 1.4375-.6094.5-1.5625.5-1.2344 0-1.95315-.89062-.84375-1.0625-.84375-3.48438zm1.0781 0q0 2.10938.5 2.8125.5.70313 1.2188.70313.73435 0 1.2187-.70313.5-.70312.5-2.8125 0-2.125-.5-2.8125-.48435-.70312-1.23435-.70312-.71875 0-1.15625.60937-.5469.78125-.5469 2.90625zm5.9219 1.98438 1.1094-.09375q.125.8125.5625 1.21875.4531.40625 1.0937.40625.75 0 1.2813-.57813.5312-.57812.5312-1.51562 0-.90625-.5156-1.42188-.5-.53125-1.3281-.53125-.5 0-.9219.23438-.40625.23437-.6406.59375l-.9844-.125.8281-4.40625h4.2813v1h-3.4375l-.45315 2.3125q.76565-.54688 1.60935-.54688 1.125 0 1.89065.78125.78125.78125.78125 2.01563 0 1.15625-.6719 2.01562-.8281 1.03125-2.25 1.03125-1.17185 0-1.92185-.65625-.73435-.65625-.84375-1.73437z" stroke="#34a853" stroke-linecap="round" stroke-linejoin="round" stroke-width="3"/>
  <path d="m587.0625 381.76645v-1.01563h5.5625v.82813q-.8125.875-1.625 2.32812-.7969 1.4375-1.2344 2.96875-.3281 1.07813-.4062 2.35938h-1.0938q.01565-1.01563.39065-2.45313.39065-1.4375 1.09375-2.76562.71875-1.32813 1.53125-2.25zm7.5 7.46875v-1.20313h1.2031v1.20313q0 .65625-.23435 1.0625-.23435.42187-.73435.64062l-.2969-.45312q.3281-.14063.4844-.4375.1562-.28125.1875-.8125zm7.90625-6.48438-1.04685.07813q-.14065-.625-.39065-.90625-.4375-.45313-1.0625-.45313-.5 0-.89065.28125-.48435.375-.7812 1.07813-.2813.6875-.2969 1.96875.375-.57813.9219-.85938.5625-.28125 1.17185-.28125 1.04685 0 1.78125.78125.75.78125.75 2 0 .8125-.3594 1.51563-.3437.6875-.9531 1.0625-.6094.35937-1.375.35937-1.3281 0-2.15625-.96875-.82815-.96875-.82815-3.1875 0-2.5.9219-3.625.7969-.98437 2.15625-.98437 1.01565 0 1.65625.57812.65625.5625.78125 1.5625zm-4.29685 3.70313q0 .54687.2187 1.04687.2344.48438.64065.75.42185.26563.89065.26563.6562 0 1.1406-.53125.4844-.54688.4844-1.46875 0-.89063-.4844-1.40625-.46875-.51563-1.1875-.51563-.71875 0-1.21875.51563-.48435.51562-.48435 1.34375zm5.8281-1.45313q0-1.53125.3125-2.45312.3125-.9375.9219-1.4375.625-.5 1.5625-.5.6875 0 1.2031.28125.53125.28125.875.8125.34375.51562.53125 1.26562.1875.75.1875 2.03125 0 1.51563-.3125 2.4375-.29685.92188-.92185 1.4375-.6094.5-1.5625.5-1.2344 0-1.95315-.89062-.84375-1.0625-.84375-3.48438zm1.0781 0q0 2.10938.5 2.8125.5.70313 1.2188.70313.73435 0 1.2187-.70313.5-.70312.5-2.8125 0-2.125-.5-2.8125-.48435-.70312-1.23435-.70312-.71875 0-1.15625.60937-.5469.78125-.5469 2.90625zm5.9219 1.98438 1.1094-.09375q.125.8125.5625 1.21875.4531.40625 1.0937.40625.75 0 1.2813-.57813.5312-.57812.5312-1.51562 0-.90625-.5156-1.42188-.5-.53125-1.3281-.53125-.5 0-.9219.23438-.40625.23437-.6406.59375l-.9844-.125.8281-4.40625h4.2813v1h-3.4375l-.45315 2.3125q.76565-.54688 1.60935-.54688 1.125 0 1.89065.78125.78125.78125.78125 2.01563 0 1.15625-.6719 2.01562-.8281 1.03125-2.25 1.03125-1.17185 0-1.92185-.65625-.73435-.65625-.84375-1.73437z" fill="#fff"/>
  <path d="m667.625 359.85916q-.65625-.25-.9844-.6875-.3125-.45312-.3125-1.0625 0-.9375.6719-1.57812.6875-.64064 1.7969-.64064 1.125 0 1.8125.65626.6875.65624.6875 1.59374 0 .59376-.3125 1.03126-.3125.4375-.95315.6875.79685.25 1.20315.82814.4062.5781.4062 1.375 0 1.09374-.7812 1.84374-.76565.75-2.0469.75-1.2656 0-2.0469-.75-.7812-.75-.7812-1.875 0-.84374.42185-1.40624.4375-.5625 1.21875-.76564zm-.21875-1.79686q0 .60936.39065 1 .4062.3906 1.0312.3906.6094 0 1-.375.39065-.3906.39065-.9531 0-.57814-.40625-.96876-.40625-.40624-1-.40624-.6094 0-1.0156.3906-.39065.39064-.39065.9219zm-.32815 3.96874q0 .45312.20315.875.21875.42186.64065.65626.42185.23436.9062.23436.75 0 1.2344-.48436.5-.4844.5-1.2344 0-.7656-.5-1.2656-.5-.5-1.2656-.5-.75 0-1.2344.5-.4844.48436-.4844 1.21874zm6.4844 2.48436v-1.2031h1.2031v1.2031q0 .65626-.23435 1.0625-.23435.4219-.73435.64064l-.2969-.45314q.3281-.1406.4844-.4375.1562-.28124.1875-.8125zm7.90625-6.48436-1.04685.07812q-.14065-.625-.39065-.90626-.4375-.4531-1.0625-.4531-.5 0-.89065.28124-.48435.375-.7812 1.07812-.2813.6875-.2969 1.96874.375-.5781.9219-.85936.5625-.28124 1.17185-.28124 1.04685 0 1.78125.78124.75.78126.75 2 0 .8125-.3594 1.51562-.3437.6875-.9531 1.0625-.6094.35938-1.375.35938-1.3281 0-2.15625-.96874-.82815-.96876-.82815-3.1875 0-2.5.9219-3.625.7969-.9844 2.15625-.9844 1.01565 0 1.65625.57814.65625.5625.78125 1.5625zm-4.29685 3.70312q0 .54688.2187 1.04688.2344.48436.64065.75.42185.26562.89065.26562.6562 0 1.1406-.53126.4844-.54686.4844-1.46874 0-.89062-.4844-1.40626-.46875-.5156-1.1875-.5156-.71875 0-1.21875.5156-.48435.51564-.48435 1.34376zm9.79685 2.78124h-1.04685v-6.71874q-.39065.35938-1.01565.73438-.60935.35936-1.09375.53126v-1.01564q.875-.42186 1.53125-1 .67185-.59376.95315-1.15626h.67185zm3.09375-7.46874v-1.01562h5.5625v.82812q-.8125.875-1.625 2.32814-.7969 1.4375-1.2344 2.96874-.3281 1.07812-.4062 2.35936h-1.0938q.01565-1.0156.39065-2.4531.39065-1.4375 1.09375-2.76564.71875-1.32812 1.53125-2.25z" stroke="#ff6d01" stroke-linecap="round" stroke-linejoin="round" stroke-width="3"/>
  <g fill="#000">
    <path d="m667.625 359.85916q-.65625-.25-.9844-.6875-.3125-.45312-.3125-1.0625 0-.9375.6719-1.57812.6875-.64064 1.7969-.64064 1.125 0 1.8125.65626.6875.65624.6875 1.59374 0 .59376-.3125 1.03126-.3125.4375-.95315.6875.79685.25 1.20315.82814.4062.5781.4062 1.375 0 1.09374-.7812 1.84374-.76565.75-2.0469.75-1.2656 0-2.0469-.75-.7812-.75-.7812-1.875 0-.84374.42185-1.40624.4375-.5625 1.21875-.76564zm-.21875-1.79686q0 .60936.39065 1 .4062.3906 1.0312.3906.6094 0 1-.375.39065-.3906.39065-.9531 0-.57814-.40625-.96876-.40625-.40624-1-.40624-.6094 0-1.0156.3906-.39065.39064-.39065.9219zm-.32815 3.96874q0 .45312.20315.875.21875.42186.64065.65626.42185.23436.9062.23436.75 0 1.2344-.48436.5-.4844.5-1.2344 0-.7656-.5-1.2656-.5-.5-1.2656-.5-.75 0-1.2344.5-.4844.48436-.4844 1.21874zm6.4844 2.48436v-1.2031h1.2031v1.2031q0 .65626-.23435 1.0625-.23435.4219-.73435.64064l-.2969-.45314q.3281-.1406.4844-.4375.1562-.28124.1875-.8125zm7.90625-6.48436-1.04685.07812q-.14065-.625-.39065-.90626-.4375-.4531-1.0625-.4531-.5 0-.89065.28124-.48435.375-.7812 1.07812-.2813.6875-.2969 1.96874.375-.5781.9219-.85936.5625-.28124 1.17185-.28124 1.04685 0 1.78125.78124.75.78126.75 2 0 .8125-.3594 1.51562-.3437.6875-.9531 1.0625-.6094.35938-1.375.35938-1.3281 0-2.15625-.96874-.82815-.96876-.82815-3.1875 0-2.5.9219-3.625.7969-.9844 2.15625-.9844 1.01565 0 1.65625.57814.65625.5625.78125 1.5625zm-4.29685 3.70312q0 .54688.2187 1.04688.2344.48436.64065.75.42185.26562.89065.26562.6562 0 1.1406-.53126.4844-.54686.4844-1.46874 0-.89062-.4844-1.40626-.46875-.5156-1.1875-.5156-.71875 0-1.21875.5156-.48435.51564-.48435 1.34376zm9.79685 2.78124h-1.04685v-6.71874q-.39065.35938-1.01565.73438-.60935.35936-1.09375.53126v-1.01564q.875-.42186 1.53125-1 .67185-.59376.95315-1.15626h.67185zm3.09375-7.46874v-1.01562h5.5625v.82812q-.8125.875-1.625 2.32814-.7969 1.4375-1.2344 2.96874-.3281 1.07812-.4062 2.35936h-1.0938q.01565-1.0156.39065-2.4531.39065-1.4375 1.09375-2.76564.71875-1.32812 1.53125-2.25z"/>
    <path d="m48.80001 368.85522h-14.3125v-6.34375q0-1.90625.390626-2.90625.375-1 1.359374-1.59375.96875-.59375 2.15625-.59375 1.515626 0 2.5625.98438 1.046876.98437 1.328126 3.04687.359374-.75.71875-1.14062.75-.82813 1.90625-1.57813l3.890624-2.48437v2.375l-2.984374 1.90625q-1.28125.82812-1.96875 1.35937-.6875.53125-.953126.96875-.28125.42188-.390624.85938-.0625.32812-.0625 1.04687v2.20313h6.359374zm-8-1.89062v-4.07813q0-1.29687-.265624-2.01562-.265626-.73438-.859376-1.10938-.59375-.39062-1.28125-.39062-1.015624 0-1.671874.73437-.65625.73438-.65625 2.32813v4.53125zm8-18.64063h-1.53125q1.765626 1.20313 1.765626 3.28125 0 .92188-.34375 1.71875-.359376.79688-.890626 1.1875-.53125.375-1.3125.53125-.515624.10938-1.640624.10938h-6.421876v-1.75h5.75q1.375 0 1.859376-.10938.6875-.17187 1.09375-.70312.390624-.54688.390624-1.32813 0-.79687-.40625-1.48437-.40625-.70313-1.09375-.98438-.703124-.29687-2.03125-.29687h-5.5625v-1.75h10.375zm0-4.20312h-10.375v-1.59375h1.484376q-1.71875-1.14063-1.71875-3.29688 0-.9375.34375-1.71875.328124-.79687.875-1.1875.546874-.39062 1.296874-.54687.5-.09375 1.71875-.09375h6.375v1.76562h-6.3125q-1.078124 0-1.609374.20313-.53125.20312-.84375.73437-.3125.51563-.3125 1.21875 0 1.125.71875 1.9375.703124.8125 2.6875.8125h5.671874zm-1.578124-14.84375 1.5625-.25q.15625.73437.15625 1.32812 0 .95313-.296876 1.48438-.3125.51562-.796874.73437-.5.21875-2.078126.21875h-5.96875v1.28125h-1.375v-1.28125h-2.5625l-1.0625-1.75h3.625v-1.76562h1.375v1.76562h6.0625q.75 0 .96875-.09375.203126-.09375.34375-.29687.125-.21875.125-.60938 0-.28125-.078124-.76562zm-10.71875-2.17188h-2.015626v-1.76562h2.015626zm12.296874 0h-10.375v-1.76562h10.375zm0-3.98437h-10.375v-1.57813h1.453126q-.75-.48437-1.21875-1.29687-.46875-.8125-.46875-1.84375 0-1.15625.484374-1.89063.46875-.73437 1.328126-1.04687-1.8125-1.23438-1.8125-3.20313 0-1.54687.859374-2.375.859376-.82812 2.625-.82812h7.125v1.75h-6.53125q-1.0625 0-1.515624.17187-.46875.17188-.75.625-.28125.4375-.28125 1.04688 0 1.09375.734374 1.82812.71875.71875 2.3125.71875h6.03125v1.75h-6.734374q-1.171876 0-1.75.4375-.59375.42188-.59375 1.40625 0 .73438.390624 1.375.390626.625 1.140626.90625.75.28125 2.171874.28125h5.375zm-3.34375-24.10938.234376-1.8125q1.578124.42188 2.46875 1.59375.875 1.15625.875 2.96875 0 2.26563-1.390626 3.60938-1.40625 1.32812-3.9375 1.32812-2.625 0-4.0625-1.34375-1.453124-1.34375-1.453124-3.5 0-2.07812 1.421874-3.39062 1.40625-1.32813 3.984376-1.32813.15625 0 .46875.01563v7.73437q1.703124-.09375 2.609374-.96875.90625-.875.90625-2.17187 0-.96875-.5-1.64063-.515624-.6875-1.625-1.09375zm-2.84375 5.78125v-5.79687q-1.296874.10937-1.953124.65625-1.015626.84375-1.015626 2.1875 0 1.20312.8125 2.03125.796876.82812 2.15625.92187zm-6.109374-15.6875h-2.015626v-1.76562h2.015626zm12.296874 0h-10.375v-1.76562h10.375zm0-3.98437h-10.375v-1.59375h1.484376q-1.71875-1.14063-1.71875-3.29688 0-.9375.34375-1.71875.328124-.79687.875-1.1875.546874-.39062 1.296874-.54687.5-.09375 1.71875-.09375h6.375v1.76562h-6.3125q-1.078124 0-1.609374.20313-.53125.20312-.84375.73437-.3125.51563-.3125 1.21875 0 1.125.71875 1.9375.703124.8125 2.6875.8125h5.671874zm-3.09375-16.29688-.28125-1.75q1.046876-.14062 1.609376-.8125.546874-.67187.546874-1.875 0-1.20312-.484374-1.78125-.5-.59375-1.15625-.59375-.59375 0-.9375.51563-.234376.35937-.59375 1.79687-.5 1.9375-.84375 2.6875-.359376.73438-.984376 1.125-.640624.39063-1.40625.39063-.6875 0-1.28125-.3125-.59375-.32813-.984374-.875-.296876-.40625-.5-1.10938-.21875-.71875-.21875-1.53125 0-1.21875.359374-2.14062.34375-.92188.953126-1.35938.59375-.4375 1.59375-.60937l.234374 1.71875q-.796874.125-1.234374.6875-.453126.5625-.453126 1.57812 0 1.21875.40625 1.73438.390626.51562.921876.51562.34375 0 .625-.21875.28125-.20312.46875-.67187.09375-.26563.4375-1.54688.5-1.875.828124-2.60937.3125-.73438.921876-1.15625.59375-.42188 1.5-.42188.875 0 1.65625.51563.78125.51562 1.203124 1.48437.421876.96875.421876 2.1875 0 2.01563-.84375 3.07813-.84375 1.0625-2.484376 1.35937z"/>
    <path d="m98.3 558.96564q0-1.53124.3125-2.45314.3125-.9375.92188-1.4375.625-.5 1.5625-.5.6875 0 1.20312.28126.53125.28124.875.8125.34375.51564.53125 1.26564.1875.75.1875 2.03124 0 1.51562-.3125 2.4375-.29687.92186-.92187 1.4375-.60938.5-1.5625.5-1.23438 0-1.95313-.89064-.84375-1.0625-.84375-3.48436zm1.07813 0q0 2.10936.5 2.8125.5.70312 1.21875.70312.73437 0 1.21875-.70312.5-.70314.5-2.8125 0-2.125-.5-2.8125-.48438-.70314-1.23438-.70314-.71875 0-1.15625.6094-.54687.78124-.54687 2.90624z"/>
    <path d="m98.3 438.81668 1.10938-.09375q.125.8125.5625 1.21875.45312.40625 1.09375.40625.75 0 1.28125-.57813.53125-.57812.53125-1.51562 0-.90625-.51563-1.42188-.5-.53124-1.32812-.53124-.5 0-.92188.23437-.40625.23437-.64062.59375l-.98438-.125.82813-4.40625h4.28125v1h-3.4375l-.45313 2.3125q.76563-.54687 1.60938-.54687 1.125 0 1.89062.78124.78125.78126.78125 2.01563 0 1.15625-.67187 2.01563-.82813 1.03124-2.25 1.03124-1.17188 0-1.92188-.65624-.73437-.65626-.84375-1.73438z"/>
    <path d="m95.26875 318.93332h-1.04687v-6.71875q-.39063.35937-1.01563.73437-.60937.35938-1.09375.53126v-1.01563q.875-.42187 1.53125-1 .67188-.59375.95313-1.15625h.67187zm3.03125-4.23438q0-1.53124.3125-2.45312.3125-.9375.92188-1.4375.625-.5 1.5625-.5.6875 0 1.20312.28125.53125.28125.875.8125.34375.51563.53125 1.26563.1875.75.1875 2.03124 0 1.51563-.3125 2.4375-.29687.92188-.92187 1.4375-.60938.5-1.5625.5-1.23438 0-1.95313-.89062-.84375-1.0625-.84375-3.48438zm1.07813 0q0 2.10938.5 2.8125.5.70313 1.21875.70313.73437 0 1.21875-.70313.5-.70312.5-2.8125 0-2.125-.5-2.8125-.48438-.70312-1.23438-.70312-.71875 0-1.15625.60938-.54687.78124-.54687 2.90624z"/>
    <path d="m95.26875 196.8h-1.04687v-6.71875q-.39063.35938-1.01563.73438-.60937.35937-1.09375.53125v-1.01563q.875-.42187 1.53125-1 .67188-.59375.95313-1.15625h.67187zm3.03125-2.25 1.10938-.09375q.125.8125.5625 1.21875.45312.40625 1.09375.40625.75 0 1.28125-.57812.53125-.57813.53125-1.51563 0-.90625-.51563-1.42187-.5-.53125-1.32812-.53125-.5 0-.92188.23437-.40625.23438-.64062.59375l-.98438-.125.82813-4.40625h4.28125v1h-3.4375l-.45313 2.3125q.76563-.54687 1.60938-.54687 1.125 0 1.89062.78125.78125.78125.78125 2.01562 0 1.15625-.67187 2.01563-.82813 1.03125-2.25 1.03125-1.17188 0-1.92188-.65625-.73437-.65625-.84375-1.73438z"/>
    <path d="m96.84688 73.65104v1.015624h-5.6875q0-.375.125-.734374.21875-.578126.6875-1.140626.48437-.5625 1.39062-1.296874 1.40625-1.15625 1.89063-1.828126.5-.671874.5-1.265624 0-.625-.45313-1.046876-.45312-.4375-1.17187-.4375-.76563 0-1.21875.453126-.45313.453124-.46875 1.265624l-1.07813-.109374q.10938-1.21875.82813-1.84375.73437-.640626 1.96875-.640626 1.23437 0 1.95312.6875.71875.6875.71875 1.703126 0 .515624-.21875 1.015624-.20312.484376-.70312 1.046876-.48438.546874-1.60938 1.5-.95312.796874-1.23437 1.09375-.26563.28125-.4375.5625zm1.45312-3.21875q0-1.53125.3125-2.453126.3125-.9375.92188-1.4375.625-.5 1.5625-.5.6875 0 1.20312.28125.53125.28125.875.8125.34375.515626.53125 1.265626.1875.75.1875 2.03125 0 1.515624-.3125 2.4375-.29687.921874-.92187 1.4375-.60938.5-1.5625.5-1.23438 0-1.95313-.890626-.84375-1.0625-.84375-3.484374zm1.07813 0q0 2.109374.5 2.8125.5.703124 1.21875.703124.73437 0 1.21875-.703124.5-.703126.5-2.8125 0-2.125-.5-2.8125-.48438-.703126-1.23438-.703126-.71875 0-1.15625.609376-.54687.78125-.54687 2.90625z"/>
  </g>
  <path d="m161.5 31.8c0-.552285.44771-1 1-1h10c.55229 0 1 .447715 1 1v10c0 .552283-.44771 1-1 1h-10c-.55229 0-1-.447717-1-1z" fill="#4285f4"/>
  <path d="m182.04688 38.034374 1.0625-.09375q.07812.65625.35937 1.0625.28125.40625.85937.671876.59376.25 1.32813.25.64063 0 1.14063-.1875.5-.203126.73437-.53125.25-.34375.25-.734376 0-.40625-.23437-.703124-.23438-.3125-.76563-.515626-.35937-.140624-1.54687-.421874-1.17188-.28125-1.64063-.53125-.625-.328126-.92187-.796876-.29688-.484374-.29688-1.078124 0-.640626.35938-1.203126.375-.578124 1.07812-.859374.71875-.296876 1.57812-.296876.95313 0 1.6875.3125.73438.296876 1.125.90625.39063.59375.42188 1.34375l-1.09375.078126q-.09375-.8125-.60937-1.21875-.5-.421876-1.48438-.421876-1.03125 0-1.5.375-.46875.375-.46875.90625 0 .46875.32813.765626.32812.296874 1.70312.609374 1.39062.3125 1.90625.546876.75.359374 1.10937.890624.35938.515626.35938 1.21875 0 .6875-.39062 1.296876-.39063.59375-1.125.9375-.73438.328124-1.65626.328124-1.17187 0-1.96874-.328124-.78126-.34375-1.23438-1.03125-.4375-.6875-.45312-1.546876zm12.5.765626 1.09374.125q-.25.953124-.95312 1.484374-.70312.53125-1.78125.53125-1.35937 0-2.17187-.84375-.79688-.84375-.79688-2.359374 0-1.5625.8125-2.421876.8125-.875 2.09375-.875 1.25 0 2.03125.84375.79688.84375.79688 2.390626 0 .09375 0 .28125h-4.64063q.0625 1.03125.57813 1.578124.51562.53125 1.29687.53125.57813 0 .98437-.296874.42188-.3125.65626-.96875zm-3.45313-1.703126h3.46875q-.0625-.796874-.39062-1.1875-.51563-.609374-1.3125-.609374-.73438 0-1.23438.484374-.48438.484376-.53125 1.3125zm10.17187 6.09375v-3.046874q-.25.34375-.70312.578124-.4375.21875-.9375.21875-1.10938 0-1.90625-.875-.79687-.890624-.79687-2.4375 0-.9375.32812-1.671874.32812-.75.9375-1.125.625-.390626 1.35938-.390626 1.15624 0 1.8125.96875v-.828124h.95312v8.609374zm-3.26562-5.515624q0 1.203124.5 1.796874.51562.59375 1.21875.59375.67187 0 1.15625-.5625.48438-.578124.48438-1.734374 0-1.25-.51563-1.875-.5-.625-1.20313-.625-.67187 0-1.15624.59375-.48438.578124-.48438 1.8125zm10.375 3.125v-.921876q-.73438 1.0625-1.98438 1.0625-.54687 0-1.03124-.203124-.46876-.21875-.70313-.53125-.23437-.328126-.32813-.796876-.0625-.296874-.0625-.984374v-3.84375h1.0625v3.453124q0 .8125.0625 1.109376.09376.40625.40626.65625.32812.234374.8125.234374.46874 0 .875-.234374.42187-.25.59374-.671876.1875-.421874.1875-1.21875v-3.328124h1.04688v6.21875zm7.17188-2 1.09374.125q-.25.953124-.95312 1.484374-.70312.53125-1.78125.53125-1.35937 0-2.17187-.84375-.79688-.84375-.79688-2.359374 0-1.5625.8125-2.421876.8125-.875 2.09375-.875 1.25 0 2.03125.84375.79688.84375.79688 2.390626 0 .09375 0 .28125h-4.64063q.0625 1.03125.57813 1.578124.51562.53125 1.29687.53125.57813 0 .98437-.296874.42188-.3125.65626-.96875zm-3.45313-1.703126h3.46875q-.0625-.796874-.39062-1.1875-.51563-.609374-1.3125-.609374-.73438 0-1.23438.484374-.48438.484376-.53125 1.3125zm6.20313 3.703126v-6.21875h.9375v.875q.6875-1.015626 1.98437-1.015626.5625 0 1.03125.203126.48438.203124.71875.53125.23437.328124.32813.765624.04687.296876.04687 1.03125v3.828126h-1.04687v-3.78125q0-.65625-.125-.96875-.125-.3125-.4375-.5-.3125-.203126-.73438-.203126-.67188 0-1.17188.4375-.48437.421876-.48437 1.609376v3.40625zm9.29687-.9375.15625.921874q-.45312.09375-.79688.09375-.57812 0-.89062-.171874-.3125-.1875-.45312-.484376-.125-.296874-.125-1.25v-3.578124h-.76563v-.8125h.76563v-1.546876l1.04687-.625v2.171876h1.0625v.8125h-1.0625v3.640624q0 .453126.04687.578126.0625.125.1875.203124.125.078126.35938.078126.1875 0 .46875-.03125zm.70313-6.4375v-1.21875h1.0625v1.21875zm0 7.375v-6.21875h1.0625v6.21875zm7.0625-.765626q-.59376.5-1.14063.703126-.53125.203124-1.15625.203124-1.03125 0-1.57812-.5-.54688-.5-.54688-1.28125 0-.453124.20312-.828124.20313-.390626.54688-.609376.34375-.234374.76562-.34375.29688-.09375.9375-.171874 1.26563-.140626 1.875-.359376 0-.21875 0-.265624 0-.65625-.29687-.921876-.40625-.34375-1.20313-.34375-.73437 0-1.09374.265626-.35938.25-.53126.90625l-1.03124-.140626q.14062-.65625.46874-1.0625.32813-.40625.9375-.625.60938-.21875 1.40626-.21875.79687 0 1.29687.1875.5.1875.73437.46875.23438.28125.32813.71875.04687.265626.04687.96875v1.40625q0 1.46875.0625 1.859376.07813.390624.28126.75h-1.10938q-.15625-.328126-.20312-.765626zm-.09376-2.359374q-.57812.234374-1.71874.40625-.65626.09375-.92188.21875-.26562.109374-.42188.328124-.14062.21875-.14062.5 0 .421876.3125.703126.32812.28125.9375.28125.60938 0 1.07812-.265626.48438-.265624.70313-.734374.17187-.359376.17187-1.046876zm3 3.125v-8.59375h1.0625v8.59375z" fill="#1a1a1a"/>
  <path d="m256.5 31.8c0-.552285.44772-1 1-1h10c.55228 0 1 .447715 1 1v10c0 .552283-.44772 1-1 1h-10c-.55228 0-1-.447717-1-1z" fill="#ea4335"/>
  <path d="m277.07812 36.6125q0-2.140626 1.14063-3.34375 1.15625-1.21875 2.96875-1.21875 1.20312 0 2.15625.578124.95313.5625 1.45313 1.578126.5 1.015624.5 2.3125 0 1.296874-.53126 2.328124-.53124 1.03125-1.5 1.5625-.95312.53125-2.07812.53125-1.21875 0-2.17188-.578124-.95312-.59375-1.45312-1.59375-.48438-1.015626-.48438-2.15625zm1.17188.015624q0 1.5625.82812 2.453126.84376.890624 2.10938.890624 1.28125 0 2.10938-.890624.82812-.90625.82812-2.578126 0-1.046874-.35938-1.828124-.34374-.78125-1.03124-1.203126-.6875-.4375-1.53126-.4375-1.20312 0-2.07812.828126-.875.828124-.875 2.765624zm8.04688 6.5625v-8.609374h.95312v.796874q.34375-.46875.76562-.703124.4375-.234376 1.04688-.234376.79688 0 1.40625.40625.60937.40625.90625 1.15625.3125.75.3125 1.640626 0 .953124-.34375 1.71875-.32813.765624-.98437 1.171874-.65626.40625-1.375.40625-.53126 0-.95313-.21875-.42187-.234374-.6875-.5625v3.03125zm.95312-5.46875q0 1.203126.48438 1.78125.48437.5625 1.17187.5625.70313 0 1.20313-.59375.5-.59375.5-1.84375 0-1.1875-.48438-1.765624-.48438-.59375-1.17188-.59375-.67187 0-1.1875.625-.51562.625-.51562 1.828124zm10.29688 1.078126 1.09374.125q-.25.953124-.95312 1.484374-.70312.53125-1.78125.53125-1.35937 0-2.17187-.84375-.79688-.84375-.79688-2.359374 0-1.5625.8125-2.421876.8125-.875 2.09375-.875 1.25 0 2.03125.84375.79688.84375.79688 2.390626 0 .09375 0 .28125h-4.64063q.0625 1.03125.57813 1.578124.51562.53125 1.29687.53125.57813 0 .98437-.296874.42188-.3125.65626-.96875zm-3.45313-1.703126h3.46875q-.0625-.796874-.39062-1.1875-.51563-.609374-1.3125-.609374-.73438 0-1.23438.484374-.48438.484376-.53125 1.3125zm6.20313 3.703126v-6.21875h.9375v.875q.6875-1.015626 1.98437-1.015626.5625 0 1.03125.203126.48438.203124.71875.53125.23437.328124.32813.765624.04687.296876.04687 1.03125v3.828126h-1.04687v-3.78125q0-.65625-.125-.96875-.125-.3125-.4375-.5-.3125-.203126-.73438-.203126-.67188 0-1.17188.4375-.48437.421876-.48437 1.609376v3.40625zm7.09374 0v-8.59375h1.71876l2.03124 6.078124q.28126.859376.40626 1.28125.14062-.46875.45312-1.375l2.0625-5.984374h1.53125v8.59375h-1.09375v-7.1875l-2.5 7.1875h-1.03125l-2.48437-7.3125v7.3125zm10.03126 0v-8.59375h3.25q.84374 0 1.29687.078124.64063.109376 1.0625.40625.4375.296876.6875.828126.26563.53125.26563 1.171874 0 1.09375-.70313 1.859376-.6875.75-2.51563.75h-2.20312v3.5zm1.14062-4.5h2.21875q1.10937 0 1.5625-.40625.46875-.421876.46875-1.171876 0-.53125-.28125-.90625-.26563-.390624-.70313-.515624-.29687-.078126-1.0625-.078126h-2.20312zm13.40625 4.5h-1.04687v-6.71875q-.39063.359374-1.01563.734374-.60937.359376-1.09375.53125v-1.015624q.875-.421876 1.53125-1 .67187-.59375.95313-1.15625h.67187zm8.64063 0v-7.578126h-2.82813v-1.015624h6.8125v1.015624h-2.84375v7.578126zm4.6875 0v-8.59375h1.04687v3.078124q.73437-.84375 1.85937-.84375.70313 0 1.20313.28125.51563.265626.73437.75.21876.46875.21876 1.390626v3.9375h-1.04688v-3.9375q0-.796876-.34375-1.15625-.34375-.359376-.96875-.359376-.46875 0-.89062.25-.40626.234376-.59376.65625-.17187.40625-.17187 1.140626v3.40625zm6.98437 0v-6.21875h.95313v.9375q.35937-.65625.65624-.859376.3125-.21875.6875-.21875.53126 0 1.07813.328126l-.35937.984374q-.39063-.234374-.76563-.234374-.35937 0-.64063.21875-.26562.203124-.375.578124-.1875.5625-.1875 1.21875v3.265626zm8.26563-2 1.09374.125q-.25.953124-.95312 1.484374-.70312.53125-1.78125.53125-1.35937 0-2.17187-.84375-.79688-.84375-.79688-2.359374 0-1.5625.8125-2.421876.8125-.875 2.09375-.875 1.25 0 2.03125.84375.79688.84375.79688 2.390626 0 .09375 0 .28125h-4.64063q.0625 1.03125.57813 1.578124.51562.53125 1.29687.53125.57813 0 .98437-.296874.42188-.3125.65626-.96875zm-3.45313-1.703126h3.46875q-.0625-.796874-.39062-1.1875-.51563-.609374-1.3125-.609374-.73438 0-1.23438.484374-.48438.484376-.53125 1.3125zm10.26563 2.9375q-.59376.5-1.14063.703126-.53125.203124-1.15625.203124-1.03125 0-1.57812-.5-.54688-.5-.54688-1.28125 0-.453124.20312-.828124.20313-.390626.54688-.609376.34375-.234374.76562-.34375.29688-.09375.9375-.171874 1.26563-.140626 1.875-.359376 0-.21875 0-.265624 0-.65625-.29687-.921876-.40625-.34375-1.20313-.34375-.73437 0-1.09374.265626-.35938.25-.53126.90625l-1.03124-.140626q.14062-.65625.46874-1.0625.32813-.40625.9375-.625.60938-.21875 1.40626-.21875.79687 0 1.29687.1875.5.1875.73437.46875.23438.28125.32813.71875.04687.265626.04687.96875v1.40625q0 1.46875.0625 1.859376.07813.390624.28126.75h-1.10938q-.15625-.328126-.20312-.765626zm-.09376-2.359374q-.57812.234374-1.71874.40625-.65626.09375-.92188.21875-.26562.109374-.42188.328124-.14062.21875-.14062.5 0 .421876.3125.703126.32812.28125.9375.28125.60938 0 1.07812-.265626.48438-.265624.70313-.734374.17187-.359376.17187-1.046876zm7.0625 3.125v-.78125q-.59374.921874-1.73437.921874-.75 0-1.375-.40625-.625-.421874-.96875-1.15625-.34375-.734374-.34375-1.6875 0-.921874.3125-1.6875.3125-.765624.9375-1.15625.625-.40625 1.39063-.40625.5625 0 1 .234376.4375.234374.71874.609374v-3.078124h1.04688v8.59375zm-3.32812-3.109376q0 1.203126.5 1.796876.5.578124 1.1875.578124.6875 0 1.17188-.5625.48437-.5625.48437-1.71875 0-1.28125-.5-1.875-.48437-.59375-1.20313-.59375-.70312 0-1.17187.578126-.46875.5625-.46875 1.796874z" fill="#1a1a1a"/>
  <path d="m392.5 31.8c0-.552285.44772-1 1-1h10c.55228 0 1 .447715 1 1v10c0 .552283-.44772 1-1 1h-10c-.55228 0-1-.447717-1-1z" fill="#fbbc04"/>
  <path d="m413.07812 36.6125q0-2.140626 1.14063-3.34375 1.15625-1.21875 2.96875-1.21875 1.20312 0 2.15625.578124.95313.5625 1.45313 1.578126.5 1.015624.5 2.3125 0 1.296874-.53126 2.328124-.53124 1.03125-1.5 1.5625-.95312.53125-2.07812.53125-1.21875 0-2.17188-.578124-.95312-.59375-1.45312-1.59375-.48438-1.015626-.48438-2.15625zm1.17188.015624q0 1.5625.82812 2.453126.84376.890624 2.10938.890624 1.28125 0 2.10938-.890624.82812-.90625.82812-2.578126 0-1.046874-.35938-1.828124-.34374-.78125-1.03124-1.203126-.6875-.4375-1.53126-.4375-1.20312 0-2.07812.828126-.875.828124-.875 2.765624zm8.04688 6.5625v-8.609374h.95312v.796874q.34375-.46875.76562-.703124.4375-.234376 1.04688-.234376.79688 0 1.40625.40625.60937.40625.90625 1.15625.3125.75.3125 1.640626 0 .953124-.34375 1.71875-.32813.765624-.98437 1.171874-.65626.40625-1.375.40625-.53126 0-.95313-.21875-.42187-.234374-.6875-.5625v3.03125zm.95312-5.46875q0 1.203126.48438 1.78125.48437.5625 1.17187.5625.70313 0 1.20313-.59375.5-.59375.5-1.84375 0-1.1875-.48438-1.765624-.48438-.59375-1.17188-.59375-.67187 0-1.1875.625-.51562.625-.51562 1.828124zm10.29688 1.078126 1.09374.125q-.25.953124-.95312 1.484374-.70312.53125-1.78125.53125-1.35937 0-2.17187-.84375-.79688-.84375-.79688-2.359374 0-1.5625.8125-2.421876.8125-.875 2.09375-.875 1.25 0 2.03125.84375.79688.84375.79688 2.390626 0 .09375 0 .28125h-4.64063q.0625 1.03125.57813 1.578124.51562.53125 1.29687.53125.57813 0 .98437-.296874.42188-.3125.65626-.96875zm-3.45313-1.703126h3.46875q-.0625-.796874-.39062-1.1875-.51563-.609374-1.3125-.609374-.73438 0-1.23438.484374-.48438.484376-.53125 1.3125zm6.20313 3.703126v-6.21875h.9375v.875q.6875-1.015626 1.98437-1.015626.5625 0 1.03125.203126.48438.203124.71875.53125.23437.328124.32813.765624.04687.296876.04687 1.03125v3.828126h-1.04687v-3.78125q0-.65625-.125-.96875-.125-.3125-.4375-.5-.3125-.203126-.73438-.203126-.67188 0-1.17188.4375-.48437.421876-.48437 1.609376v3.40625zm7.09374 0v-8.59375h1.71876l2.03124 6.078124q.28126.859376.40626 1.28125.14062-.46875.45312-1.375l2.0625-5.984374h1.53125v8.59375h-1.09375v-7.1875l-2.5 7.1875h-1.03125l-2.48437-7.3125v7.3125zm10.03126 0v-8.59375h3.25q.84374 0 1.29687.078124.64063.109376 1.0625.40625.4375.296876.6875.828126.26563.53125.26563 1.171874 0 1.09375-.70313 1.859376-.6875.75-2.51563.75h-2.20312v3.5zm1.14062-4.5h2.21875q1.10937 0 1.5625-.40625.46875-.421876.46875-1.171876 0-.53125-.28125-.90625-.26563-.390624-.70313-.515624-.29687-.078126-1.0625-.078126h-2.20312zm14.98438 3.484374v1.015626h-5.6875q0-.375.125-.734376.21874-.578124.6875-1.140624.48437-.5625 1.39062-1.296876 1.40625-1.15625 1.89062-1.828124.5-.671876.5-1.265626 0-.625-.45312-1.046874-.45312-.4375-1.17188-.4375-.76562 0-1.21874.453124-.45313.453126-.46876 1.265626l-1.07812-.109376q.10938-1.21875.82812-1.84375.73438-.640624 1.96876-.640624 1.23437 0 1.95312.6875.71875.6875.71875 1.703124 0 .515626-.21875 1.015626-.20312.484374-.70312 1.046874-.48438.546876-1.60938 1.5-.95312.796876-1.23438 1.09375-.26562.28125-.4375.5625zm7.0625 1.015626v-7.578126h-2.82813v-1.015624h6.8125v1.015624h-2.84375v7.578126zm4.6875 0v-8.59375h1.04687v3.078124q.73437-.84375 1.85937-.84375.70313 0 1.20313.28125.51563.265626.73437.75.21876.46875.21876 1.390626v3.9375h-1.04688v-3.9375q0-.796876-.34375-1.15625-.34375-.359376-.96875-.359376-.46875 0-.89062.25-.40626.234376-.59376.65625-.17187.40625-.17187 1.140626v3.40625zm6.98437 0v-6.21875h.95313v.9375q.35937-.65625.65624-.859376.3125-.21875.6875-.21875.53126 0 1.07813.328126l-.35937.984374q-.39063-.234374-.76563-.234374-.35937 0-.64063.21875-.26562.203124-.375.578124-.1875.5625-.1875 1.21875v3.265626zm8.26563-2 1.09374.125q-.25.953124-.95312 1.484374-.70312.53125-1.78125.53125-1.35937 0-2.17187-.84375-.79688-.84375-.79688-2.359374 0-1.5625.8125-2.421876.8125-.875 2.09375-.875 1.25 0 2.03125.84375.79688.84375.79688 2.390626 0 .09375 0 .28125h-4.64063q.0625 1.03125.57813 1.578124.51562.53125 1.29687.53125.57813 0 .98437-.296874.42188-.3125.65626-.96875zm-3.45313-1.703126h3.46875q-.0625-.796874-.39062-1.1875-.51563-.609374-1.3125-.609374-.73438 0-1.23438.484374-.48438.484376-.53125 1.3125zm10.26563 2.9375q-.59376.5-1.14063.703126-.53125.203124-1.15625.203124-1.03125 0-1.57812-.5-.54688-.5-.54688-1.28125 0-.453124.20312-.828124.20313-.390626.54688-.609376.34375-.234374.76562-.34375.29688-.09375.9375-.171874 1.26563-.140626 1.875-.359376 0-.21875 0-.265624 0-.65625-.29687-.921876-.40625-.34375-1.20313-.34375-.73437 0-1.09374.265626-.35938.25-.53126.90625l-1.03124-.140626q.14062-.65625.46874-1.0625.32813-.40625.9375-.625.60938-.21875 1.40626-.21875.79687 0 1.29687.1875.5.1875.73437.46875.23438.28125.32813.71875.04687.265626.04687.96875v1.40625q0 1.46875.0625 1.859376.07813.390624.28126.75h-1.10938q-.15625-.328126-.20312-.765626zm-.09376-2.359374q-.57812.234374-1.71874.40625-.65626.09375-.92188.21875-.26562.109374-.42188.328124-.14062.21875-.14062.5 0 .421876.3125.703126.32812.28125.9375.28125.60938 0 1.07812-.265626.48438-.265624.70313-.734374.17187-.359376.17187-1.046876zm7.0625 3.125v-.78125q-.59374.921874-1.73437.921874-.75 0-1.375-.40625-.625-.421874-.96875-1.15625-.34375-.734374-.34375-1.6875 0-.921874.3125-1.6875.3125-.765624.9375-1.15625.625-.40625 1.39063-.40625.5625 0 1 .234376.4375.234374.71874.609374v-3.078124h1.04688v8.59375zm-3.32812-3.109376q0 1.203126.5 1.796876.5.578124 1.1875.578124.6875 0 1.17188-.5625.48437-.5625.48437-1.71875 0-1.28125-.5-1.875-.48437-.59375-1.20313-.59375-.70312 0-1.17187.578126-.46875.5625-.46875 1.796874zm5.875 1.25 1.03125-.15625q.09375.625.48435.953126.4063.328124 1.14065.328124.71875 0 1.0625-.28125.35935-.296874.35935-.703124 0-.359376-.3125-.5625-.2187-.140626-1.0781-.359376-1.15625-.296874-1.6094-.5-.4375-.21875-.67185-.59375-.23435-.375-.23435-.84375 0-.40625.1875-.765624.1875-.359376.5156-.59375.25-.171876.6719-.296876.42185-.125.92185-.125.71875 0 1.26565.21875.5625.203126.8281.5625.2656.359376.3594.953126l-1.0313.140624q-.0625-.46875-.4062-.734374-.32815-.28125-.95315-.28125-.71875 0-1.03125.25-.3125.234374-.3125.5625 0 .203124.125.359374.1406.171876.40625.28125.15625.0625.9375.265626 1.125.3125 1.5625.5.4375.1875.6875.546874.25.359376.25.90625 0 .53125-.3125 1-.29685.453126-.875.71875-.57815.25-1.3125.25-1.21875 0-1.85935-.5-.625-.515624-.7969-1.5z" fill="#1a1a1a"/>
  <path d="m534.5 31.8c0-.552285.4477-1 1-1h10c.5523 0 1 .447715 1 1v10c0 .552283-.4477 1-1 1h-10c-.5523 0-1-.447717-1-1z" fill="#34a853"/>
  <path d="m555.0781 36.6125q0-2.140626 1.14065-3.34375 1.15625-1.21875 2.96875-1.21875 1.2031 0 2.15625.578124.95315.5625 1.45315 1.578126.5 1.015624.5 2.3125 0 1.296874-.5313 2.328124-.5312 1.03125-1.5 1.5625-.9531.53125-2.0781.53125-1.21875 0-2.1719-.578124-.9531-.59375-1.4531-1.59375-.4844-1.015626-.4844-2.15625zm1.1719.015624q0 1.5625.8281 2.453126.8438.890624 2.1094.890624 1.28125 0 2.1094-.890624.8281-.90625.8281-2.578126 0-1.046874-.3594-1.828124-.3437-.78125-1.0312-1.203126-.6875-.4375-1.5313-.4375-1.2031 0-2.0781.828126-.875.828124-.875 2.765624zm8.0469 6.5625v-8.609374h.9531v.796874q.34375-.46875.7656-.703124.4375-.234376 1.0469-.234376.7969 0 1.40625.40625.60935.40625.90625 1.15625.3125.75.3125 1.640626 0 .953124-.34375 1.71875-.32815.765624-.98435 1.171874-.6563.40625-1.375.40625-.5313 0-.95315-.21875-.42185-.234374-.6875-.5625v3.03125zm.9531-5.46875q0 1.203126.4844 1.78125.48435.5625 1.17185.5625.70315 0 1.20315-.59375.5-.59375.5-1.84375 0-1.1875-.4844-1.765624-.4844-.59375-1.1719-.59375-.67185 0-1.1875.625-.5156.625-.5156 1.828124zm10.2969 1.078126 1.0937.125q-.25.953124-.9531 1.484374-.7031.53125-1.78125.53125-1.35935 0-2.17185-.84375-.7969-.84375-.7969-2.359374 0-1.5625.8125-2.421876.8125-.875 2.09375-.875 1.25 0 2.03125.84375.7969.84375.7969 2.390626 0 .09375 0 .28125h-4.64065q.0625 1.03125.57815 1.578124.5156.53125 1.29685.53125.57815 0 .98435-.296874.4219-.3125.6563-.96875zm-3.45315-1.703126h3.46875q-.0625-.796874-.3906-1.1875-.51565-.609374-1.3125-.609374-.7344 0-1.2344.484374-.4844.484376-.53125 1.3125zm6.20315 3.703126v-6.21875h.9375v.875q.6875-1.015626 1.98435-1.015626.5625 0 1.03125.203126.4844.203124.71875.53125.23435.328124.32815.765624.04685.296876.04685 1.03125v3.828126h-1.04685v-3.78125q0-.65625-.125-.96875-.125-.3125-.4375-.5-.3125-.203126-.7344-.203126-.6719 0-1.1719.4375-.48435.421876-.48435 1.609376v3.40625zm7.0937 0v-8.59375h1.7188l2.0312 6.078124q.2813.859376.4063 1.28125.1406-.46875.4531-1.375l2.0625-5.984374h1.53125v8.59375h-1.09375v-7.1875l-2.5 7.1875h-1.03125l-2.48435-7.3125v7.3125zm10.0313 0v-8.59375h3.25q.8437 0 1.29685.078124.64065.109376 1.0625.40625.4375.296876.6875.828126.26565.53125.26565 1.171874 0 1.09375-.70315 1.859376-.6875.75-2.51565.75h-2.2031v3.5zm1.1406-4.5h2.21875q1.10935 0 1.5625-.40625.46875-.421876.46875-1.171876 0-.53125-.28125-.90625-.26565-.390624-.70315-.515624-.29685-.078126-1.0625-.078126h-2.2031zm12.8125 4.5v-2.0625h-3.71875v-.96875l3.92185-5.5625h.8594v5.5625h1.15625v.96875h-1.15625v2.0625zm0-3.03125v-3.859376l-2.6875 3.859376zm9.2344 3.03125v-7.578126h-2.82815v-1.015624h6.8125v1.015624h-2.84375v7.578126zm4.6875 0v-8.59375h1.04685v3.078124q.73435-.84375 1.85935-.84375.70315 0 1.20315.28125.51565.265626.73435.75.2188.46875.2188 1.390626v3.9375h-1.0469v-3.9375q0-.796876-.34375-1.15625-.34375-.359376-.96875-.359376-.46875 0-.8906.25-.4063.234376-.5938.65625-.17185.40625-.17185 1.140626v3.40625zm6.98435 0v-6.21875h.95315v.9375q.35935-.65625.6562-.859376.3125-.21875.6875-.21875.5313 0 1.07815.328126l-.35935.984374q-.39065-.234374-.76565-.234374-.35935 0-.64065.21875-.2656.203124-.375.578124-.1875.5625-.1875 1.21875v3.265626zm8.26565-2 1.0937.125q-.25.953124-.9531 1.484374-.7031.53125-1.78125.53125-1.35935 0-2.17185-.84375-.7969-.84375-.7969-2.359374 0-1.5625.8125-2.421876.8125-.875 2.09375-.875 1.25 0 2.03125.84375.7969.84375.7969 2.390626 0 .09375 0 .28125h-4.64065q.0625 1.03125.57815 1.578124.5156.53125 1.29685.53125.57815 0 .98435-.296874.4219-.3125.6563-.96875zm-3.45315-1.703126h3.46875q-.0625-.796874-.3906-1.1875-.51565-.609374-1.3125-.609374-.7344 0-1.2344.484374-.4844.484376-.53125 1.3125zm10.26565 2.9375q-.5938.5-1.14065.703126-.53125.203124-1.15625.203124-1.03125 0-1.5781-.5-.5469-.5-.5469-1.28125 0-.453124.2031-.828124.20315-.390626.5469-.609376.34375-.234374.7656-.34375.2969-.09375.9375-.171874 1.26565-.140626 1.875-.359376 0-.21875 0-.265624 0-.65625-.29685-.921876-.40625-.34375-1.20315-.34375-.73435 0-1.0937.265626-.3594.25-.5313.90625l-1.0312-.140626q.1406-.65625.4687-1.0625.32815-.40625.9375-.625.6094-.21875 1.4063-.21875.79685 0 1.29685.1875.5.1875.73435.46875.2344.28125.32815.71875.04685.265626.04685.96875v1.40625q0 1.46875.0625 1.859376.07815.390624.2813.75h-1.1094q-.15625-.328126-.2031-.765626zm-.0938-2.359374q-.5781.234374-1.7187.40625-.6563.09375-.9219.21875-.2656.109374-.4219.328124-.1406.21875-.1406.5 0 .421876.3125.703126.3281.28125.9375.28125.6094 0 1.0781-.265626.4844-.265624.70315-.734374.17185-.359376.17185-1.046876zm7.0625 3.125v-.78125q-.5937.921874-1.73435.921874-.75 0-1.375-.40625-.625-.421874-.96875-1.15625-.34375-.734374-.34375-1.6875 0-.921874.3125-1.6875.3125-.765624.9375-1.15625.625-.40625 1.39065-.40625.5625 0 1 .234376.4375.234374.7187.609374v-3.078124h1.0469v8.59375zm-3.3281-3.109376q0 1.203126.5 1.796876.5.578124 1.1875.578124.6875 0 1.1719-.5625.48435-.5625.48435-1.71875 0-1.28125-.5-1.875-.48435-.59375-1.20315-.59375-.7031 0-1.17185.578126-.46875.5625-.46875 1.796874zm5.875 1.25 1.03125-.15625q.09375.625.48435.953126.4063.328124 1.14065.328124.71875 0 1.0625-.28125.35935-.296874.35935-.703124 0-.359376-.3125-.5625-.2187-.140626-1.0781-.359376-1.15625-.296874-1.6094-.5-.4375-.21875-.67185-.59375-.23435-.375-.23435-.84375 0-.40625.1875-.765624.1875-.359376.5156-.59375.25-.171876.6719-.296876.42185-.125.92185-.125.71875 0 1.26565.21875.5625.203126.8281.5625.2656.359376.3594.953126l-1.0313.140624q-.0625-.46875-.4062-.734374-.32815-.28125-.95315-.28125-.71875 0-1.03125.25-.3125.234374-.3125.5625 0 .203124.125.359374.1406.171876.40625.28125.15625.0625.9375.265626 1.125.3125 1.5625.5.4375.1875.6875.546874.25.359376.25.90625 0 .53125-.3125 1-.29685.453126-.875.71875-.57815.25-1.3125.25-1.21875 0-1.85935-.5-.625-.515624-.7969-1.5z" fill="#1a1a1a"/>
  <path d="m676.5 31.8c0-.552285.4477-1 1-1h10c.5523 0 1 .447715 1 1v10c0 .552283-.4477 1-1 1h-10c-.5523 0-1-.447717-1-1z" fill="#ff6d01"/>
  <path d="m697.0781 36.6125q0-2.140626 1.14065-3.34375 1.15625-1.21875 2.96875-1.21875 1.2031 0 2.15625.578124.95315.5625 1.45315 1.578126.5 1.015624.5 2.3125 0 1.296874-.5313 2.328124-.5312 1.03125-1.5 1.5625-.9531.53125-2.0781.53125-1.21875 0-2.1719-.578124-.9531-.59375-1.4531-1.59375-.4844-1.015626-.4844-2.15625zm1.1719.015624q0 1.5625.8281 2.453126.8438.890624 2.1094.890624 1.28125 0 2.1094-.890624.8281-.90625.8281-2.578126 0-1.046874-.3594-1.828124-.3437-.78125-1.0312-1.203126-.6875-.4375-1.5313-.4375-1.2031 0-2.0781.828126-.875.828124-.875 2.765624zm8.0469 6.5625v-8.609374h.9531v.796874q.34375-.46875.7656-.703124.4375-.234376 1.0469-.234376.7969 0 1.40625.40625.60935.40625.90625 1.15625.3125.75.3125 1.640626 0 .953124-.34375 1.71875-.32815.765624-.98435 1.171874-.6563.40625-1.375.40625-.5313 0-.95315-.21875-.42185-.234374-.6875-.5625v3.03125zm.9531-5.46875q0 1.203126.4844 1.78125.48435.5625 1.17185.5625.70315 0 1.20315-.59375.5-.59375.5-1.84375 0-1.1875-.4844-1.765624-.4844-.59375-1.1719-.59375-.67185 0-1.1875.625-.5156.625-.5156 1.828124zm10.2969 1.078126 1.0937.125q-.25.953124-.9531 1.484374-.7031.53125-1.78125.53125-1.35935 0-2.17185-.84375-.7969-.84375-.7969-2.359374 0-1.5625.8125-2.421876.8125-.875 2.09375-.875 1.25 0 2.03125.84375.7969.84375.7969 2.390626 0 .09375 0 .28125h-4.64065q.0625 1.03125.57815 1.578124.5156.53125 1.29685.53125.57815 0 .98435-.296874.4219-.3125.6563-.96875zm-3.45315-1.703126h3.46875q-.0625-.796874-.3906-1.1875-.51565-.609374-1.3125-.609374-.7344 0-1.2344.484374-.4844.484376-.53125 1.3125zm6.20315 3.703126v-6.21875h.9375v.875q.6875-1.015626 1.98435-1.015626.5625 0 1.03125.203126.4844.203124.71875.53125.23435.328124.32815.765624.04685.296876.04685 1.03125v3.828126h-1.04685v-3.78125q0-.65625-.125-.96875-.125-.3125-.4375-.5-.3125-.203126-.7344-.203126-.6719 0-1.1719.4375-.48435.421876-.48435 1.609376v3.40625zm7.0937 0v-8.59375h1.7188l2.0312 6.078124q.2813.859376.4063 1.28125.1406-.46875.4531-1.375l2.0625-5.984374h1.53125v8.59375h-1.09375v-7.1875l-2.5 7.1875h-1.03125l-2.48435-7.3125v7.3125zm10.0313 0v-8.59375h3.25q.8437 0 1.29685.078124.64065.109376 1.0625.40625.4375.296876.6875.828126.26565.53125.26565 1.171874 0 1.09375-.70315 1.859376-.6875.75-2.51565.75h-2.2031v3.5zm1.1406-4.5h2.21875q1.10935 0 1.5625-.40625.46875-.421876.46875-1.171876 0-.53125-.28125-.90625-.26565-.390624-.70315-.515624-.29685-.078126-1.0625-.078126h-2.2031zm11.0625-.15625q-.65625-.25-.9844-.6875-.3125-.453126-.3125-1.0625 0-.9375.6719-1.578126.6875-.640624 1.7969-.640624 1.125 0 1.8125.65625.6875.65625.6875 1.59375 0 .59375-.3125 1.03125-.3125.4375-.95315.6875.79685.25 1.20315.828124.4062.578126.4062 1.375 0 1.09375-.7812 1.84375-.76565.75-2.0469.75-1.2656 0-2.0469-.75-.7812-.75-.7812-1.875 0-.84375.42185-1.40625.4375-.5625 1.21875-.765624zm-.21875-1.796876q0 .609376.39065 1 .4062.390626 1.0312.390626.6094 0 1-.375.39065-.390626.39065-.953126 0-.578124-.40625-.96875-.40625-.40625-1-.40625-.6094 0-1.0156.390626-.39065.390624-.39065.921874zm-.32815 3.96875q0 .453126.20315.875.21875.421876.64065.65625.42185.234376.9062.234376.75 0 1.2344-.484376.5-.484374.5-1.234374 0-.765626-.5-1.265626-.5-.5-1.2656-.5-.75 0-1.2344.5-.4844.484376-.4844 1.21875zm11.5313 2.484376v-7.578126h-2.82815v-1.015624h6.8125v1.015624h-2.84375v7.578126zm4.6875 0v-8.59375h1.04685v3.078124q.73435-.84375 1.85935-.84375.70315 0 1.20315.28125.51565.265626.73435.75.2188.46875.2188 1.390626v3.9375h-1.0469v-3.9375q0-.796876-.34375-1.15625-.34375-.359376-.96875-.359376-.46875 0-.8906.25-.4063.234376-.5938.65625-.17185.40625-.17185 1.140626v3.40625zm6.98435 0v-6.21875h.95315v.9375q.35935-.65625.6562-.859376.3125-.21875.6875-.21875.5313 0 1.07815.328126l-.35935.984374q-.39065-.234374-.76565-.234374-.35935 0-.64065.21875-.2656.203124-.375.578124-.1875.5625-.1875 1.21875v3.265626zm8.26565-2 1.0937.125q-.25.953124-.9531 1.484374-.7031.53125-1.78125.53125-1.35935 0-2.17185-.84375-.7969-.84375-.7969-2.359374 0-1.5625.8125-2.421876.8125-.875 2.09375-.875 1.25 0 2.03125.84375.7969.84375.7969 2.390626 0 .09375 0 .28125h-4.64065q.0625 1.03125.57815 1.578124.5156.53125 1.29685.53125.57815 0 .98435-.296874.4219-.3125.6563-.96875zm-3.45315-1.703126h3.46875q-.0625-.796874-.3906-1.1875-.51565-.609374-1.3125-.609374-.7344 0-1.2344.484374-.4844.484376-.53125 1.3125zm10.26565 2.9375q-.5938.5-1.14065.703126-.53125.203124-1.15625.203124-1.03125 0-1.5781-.5-.5469-.5-.5469-1.28125 0-.453124.2031-.828124.20315-.390626.5469-.609376.34375-.234374.7656-.34375.2969-.09375.9375-.171874 1.26565-.140626 1.875-.359376 0-.21875 0-.265624 0-.65625-.29685-.921876-.40625-.34375-1.20315-.34375-.73435 0-1.0937.265626-.3594.25-.5313.90625l-1.0312-.140626q.1406-.65625.4687-1.0625.32815-.40625.9375-.625.6094-.21875 1.4063-.21875.79685 0 1.29685.1875.5.1875.73435.46875.2344.28125.32815.71875.04685.265626.04685.96875v1.40625q0 1.46875.0625 1.859376.07815.390624.2813.75h-1.1094q-.15625-.328126-.2031-.765626zm-.0938-2.359374q-.5781.234374-1.7187.40625-.6563.09375-.9219.21875-.2656.109374-.4219.328124-.1406.21875-.1406.5 0 .421876.3125.703126.3281.28125.9375.28125.6094 0 1.0781-.265626.4844-.265624.70315-.734374.17185-.359376.17185-1.046876zm7.0625 3.125v-.78125q-.5937.921874-1.73435.921874-.75 0-1.375-.40625-.625-.421874-.96875-1.15625-.34375-.734374-.34375-1.6875 0-.921874.3125-1.6875.3125-.765624.9375-1.15625.625-.40625 1.39065-.40625.5625 0 1 .234376.4375.234374.7187.609374v-3.078124h1.0469v8.59375zm-3.3281-3.109376q0 1.203126.5 1.796876.5.578124 1.1875.578124.6875 0 1.1719-.5625.48435-.5625.48435-1.71875 0-1.28125-.5-1.875-.48435-.59375-1.20315-.59375-.7031 0-1.17185.578126-.46875.5625-.46875 1.796874zm5.875 1.25 1.03125-.15625q.09375.625.48435.953126.4063.328124 1.14065.328124.71875 0 1.0625-.28125.35935-.296874.35935-.703124 0-.359376-.3125-.5625-.2187-.140626-1.0781-.359376-1.15625-.296874-1.6094-.5-.4375-.21875-.67185-.59375-.23435-.375-.23435-.84375 0-.40625.1875-.765624.1875-.359376.5156-.59375.25-.171876.6719-.296876.42185-.125.92185-.125.71875 0 1.26565.21875.5625.203126.8281.5625.2656.359376.3594.953126l-1.0313.140624q-.0625-.46875-.4062-.734374-.32815-.28125-.95315-.28125-.71875 0-1.03125.25-.3125.234374-.3125.5625 0 .203124.125.359374.1406.171876.40625.28125.15625.0625.9375.265626 1.125.3125 1.5625.5.4375.1875.6875.546874.25.359376.25.90625 0 .53125-.3125 1-.29685.453126-.875.71875-.57815.25-1.3125.25-1.21875 0-1.85935-.5-.625-.515624-.7969-1.5z" fill="#1a1a1a"/>
</svg>
