<?xml version="1.0"?>
<svg xmlns="http://www.w3.org/2000/svg" xmlns:xlink="http://www.w3.org/1999/xlink" fill="none" stroke-linecap="square" stroke-miterlimit="10" viewBox="0 0 1098 679">
  <clipPath id="a">
    <path d="m92.95 77.583336h971.1v515.466664h-971.1z"/>
  </clipPath>
  <path d="m0 0h1098v679h-1098z" fill="#fff"/>
  <g stroke-linecap="butt">
    <g stroke="#ccc">
      <path d="m92.5 535.5h972"/>
      <path d="m92.5 421.5h972"/>
      <path d="m92.5 306.5h972"/>
      <path d="m92.5 192.5h972"/>
      <path d="m92.5 77.5h972"/>
    </g>
    <g stroke="#eee">
      <path d="m190.06 176.13148v16"/>
      <path d="m384.28 169.24481v16"/>
      <path d="m578.5 166.93083v16"/>
      <path d="m772.72 171.54956v16"/>
      <path d="m190.06 208.13148v-16"/>
      <path d="m384.28 203.53577v-16"/>
      <path d="m578.5 204.68816v-16"/>
      <path d="m966.94 543.84814v-16"/>
    </g>
    <g stroke-width="2">
      <path clip-path="url(#a)" d="m190.06 192.13148 194.22-6.88667 194.22-2.31398 194.22 4.61873 194.22 342.43464" stroke="#4285f4"/>
      <path clip-path="url(#a)" d="m190.06 192.13148 194.22-4.59571 194.22 1.15239 194.22 2.29784 194.22 336.86214" stroke="#ea4335"/>
    </g>
  </g>
  <g fill="#4285f4">
    <path clip-path="url(#a)" d="m196.06 192.13148c0 3.31371-2.6863 6-6 6-3.31371 0-6-2.68629-6-6 0-3.3137 2.68629-6 6-6 3.3137 0 6 2.6863 6 6z"/>
    <path clip-path="url(#a)" d="m390.28 185.24481c0 3.31372-2.68628 6-6 6s-6-2.68628-6-6c0-3.31371 2.68628-6 6-6s6 2.68629 6 6z"/>
    <path clip-path="url(#a)" d="m584.5 182.93083c0 3.31371-2.6863 6-6 6s-6-2.68629-6-6c0-3.31372 2.6863-6 6-6s6 2.68628 6 6z"/>
    <path clip-path="url(#a)" d="m778.72 187.54956c0 3.31371-2.6863 6-6 6s-6-2.68629-6-6c0-3.31372 2.6863-6 6-6s6 2.68628 6 6z"/>
    <path clip-path="url(#a)" d="m972.94 529.9842c0 3.31365-2.6863 6-6 6s-6-2.68635-6-6c0-3.3137 2.6863-6 6-6s6 2.6863 6 6z"/>
  </g>
  <g fill="#ea4335">
    <path clip-path="url(#a)" d="m196.06 192.13148c0 3.31371-2.6863 6-6 6-3.31371 0-6-2.68629-6-6 0-3.3137 2.68629-6 6-6 3.3137 0 6 2.6863 6 6z"/>
    <path clip-path="url(#a)" d="m390.28 187.53577c0 3.3137-2.68628 6-6 6s-6-2.6863-6-6c0-3.31371 2.68628-6 6-6s6 2.68629 6 6z"/>
    <path clip-path="url(#a)" d="m584.5 188.68816c0 3.3137-2.6863 6-6 6s-6-2.6863-6-6c0-3.31372 2.6863-6 6-6s6 2.68628 6 6z"/>
    <path clip-path="url(#a)" d="m778.72 190.986c0 3.31371-2.6863 6-6 6s-6-2.68629-6-6 2.6863-6 6-6 6 2.68629 6 6z"/>
    <path clip-path="url(#a)" d="m972.94 527.84814c0 3.31373-2.6863 6-6 6s-6-2.68627-6-6c0-3.31374 2.6863-6 6-6s6 2.68626 6 6z"/>
  </g>
  <path d="m191.02875 174.13148h-1.04688v-6.71875q-.39062.35938-1.01562.73438-.60938.35937-1.09375.53125v-1.01563q.875-.42187 1.53125-1 .67187-.59375.95312-1.15625h.67188z" stroke="#fff" stroke-linecap="round" stroke-linejoin="round" stroke-width="3"/>
  <path d="m191.02875 174.13148h-1.04688v-6.71875q-.39062.35938-1.01562.73438-.60938.35937-1.09375.53125v-1.01563q.875-.42187 1.53125-1 .67187-.59375.95312-1.15625h.67188z" fill="#4285f4"/>
  <path d="m352.24875 167.24481h-1.04688v-6.71875q-.39062.35938-1.01562.73438-.60938.35937-1.09375.53125v-1.01563q.875-.42187 1.53125-1 .67187-.59375.95312-1.15625h.67188zm3.59375 0v-1.20312h1.20312v1.20312q0 .65625-.23437 1.0625-.23438.42188-.73438.64063l-.29687-.45313q.32812-.14062.48437-.4375.15625-.28125.1875-.8125zm2.4375-4.23437q0-1.53125.3125-2.45313.3125-.9375.92187-1.4375.625-.5 1.5625-.5.6875 0 1.20313.28125.53125.28125.875.8125.34375.51563.53125 1.26563.1875.75.1875 2.03125 0 1.51562-.3125 2.4375-.29688.92187-.92188 1.4375-.60937.5-1.5625.5-1.23437 0-1.95312-.89063-.84375-1.0625-.84375-3.48437zm1.07812 0q0 2.10937.5 2.8125.5.70312 1.21875.70312.73438 0 1.21875-.70312.5-.70313.5-2.8125 0-2.125-.5-2.8125-.48437-.70313-1.23437-.70313-.71875 0-1.15625.60938-.54688.78125-.54688 2.90625zm5.92188 0q0-1.53125.3125-2.45313.3125-.9375.92187-1.4375.625-.5 1.5625-.5.6875 0 1.20313.28125.53125.28125.875.8125.34375.51563.53125 1.26563.1875.75.1875 2.03125 0 1.51562-.3125 2.4375-.29688.92187-.92188 1.4375-.60937.5-1.5625.5-1.23437 0-1.95312-.89063-.84375-1.0625-.84375-3.48437zm1.07812 0q0 2.10937.5 2.8125.5.70312 1.21875.70312.73438 0 1.21875-.70312.5-.70313.5-2.8125 0-2.125-.5-2.8125-.48437-.70313-1.23437-.70313-.71875 0-1.15625.60938-.54688.78125-.54688 2.90625zm11.39063-2.25-1.04688.07812q-.14062-.625-.39062-.90625-.4375-.45312-1.0625-.45312-.5 0-.89063.28125-.48437.375-.78125 1.07812-.28125.6875-.29687 1.96875.375-.57812.92187-.85937.5625-.28125 1.17188-.28125 1.04687 0 1.78125.78125.75.78125.75 2 0 .8125-.35938 1.51562-.34375.6875-.95312 1.0625-.60938.35938-1.375.35938-1.32813 0-2.15625-.96875-.82813-.96875-.82813-3.1875 0-2.5.92188-3.625.79687-.98438 2.15625-.98438 1.01562 0 1.65625.57813.65625.5625.78125 1.5625zm-4.29688 3.70312q0 .54688.21875 1.04688.23438.48437.64063.75.42187.26562.89062.26562.65625 0 1.14063-.53125.48437-.54687.48437-1.46875 0-.89062-.48437-1.40625-.46875-.51562-1.1875-.51562-.71875 0-1.21875.51562-.48438.51563-.48438 1.34375zm5.82813-1.45312q0-1.53125.3125-2.45313.3125-.9375.92187-1.4375.625-.5 1.5625-.5.6875 0 1.20313.28125.53125.28125.875.8125.34375.51563.53125 1.26563.1875.75.1875 2.03125 0 1.51562-.3125 2.4375-.29688.92187-.92188 1.4375-.60937.5-1.5625.5-1.23437 0-1.95312-.89063-.84375-1.0625-.84375-3.48437zm1.07812 0q0 2.10937.5 2.8125.5.70312 1.21875.70312.73438 0 1.21875-.70312.5-.70313.5-2.8125 0-2.125-.5-2.8125-.48437-.70313-1.23437-.70313-.71875 0-1.15625.60938-.54688.78125-.54688 2.90625zm9.89063 4.23437h-1.04688v-6.71875q-.39062.35938-1.01562.73438-.60938.35937-1.09375.53125v-1.01563q.875-.42187 1.53125-1 .67187-.59375.95312-1.15625h.67188zm8.57812-1.01562v1.01562h-5.6875q0-.375.125-.73437.21875-.57813.6875-1.14063.48438-.5625 1.39063-1.29687 1.40625-1.15625 1.89062-1.82813.5-.67187.5-1.26562 0-.625-.45312-1.04688-.45313-.4375-1.17188-.4375-.76562 0-1.21875.45313-.45312.45312-.46875 1.26562l-1.07812-.10937q.10937-1.21875.82812-1.84375.73438-.64063 1.96875-.64063 1.23438 0 1.95313.6875.71875.6875.71875 1.70313 0 .51562-.21875 1.01562-.20313.48438-.70313 1.04688-.48437.54687-1.60937 1.5-.95313.79687-1.23438 1.09375-.26562.28125-.4375.5625zm1.45313-3.21875q0-1.53125.3125-2.45313.3125-.9375.92187-1.4375.625-.5 1.5625-.5.6875 0 1.20313.28125.53125.28125.875.8125.34375.51563.53125 1.26563.1875.75.1875 2.03125 0 1.51562-.3125 2.4375-.29688.92187-.92188 1.4375-.60937.5-1.5625.5-1.23437 0-1.95312-.89063-.84375-1.0625-.84375-3.48437zm1.07812 0q0 2.10937.5 2.8125.5.70312 1.21875.70312.73438 0 1.21875-.70312.5-.70313.5-2.8125 0-2.125-.5-2.8125-.48437-.70313-1.23437-.70313-.71875 0-1.15625.60938-.54688.78125-.54688 2.90625zm11.46875 3.21875v1.01562h-5.6875q0-.375.125-.73437.21875-.57813.6875-1.14063.48438-.5625 1.39063-1.29687 1.40625-1.15625 1.89062-1.82813.5-.67187.5-1.26562 0-.625-.45312-1.04688-.45313-.4375-1.17188-.4375-.76562 0-1.21875.45313-.45312.45312-.46875 1.26562l-1.07812-.10937q.10937-1.21875.82812-1.84375.73438-.64063 1.96875-.64063 1.23438 0 1.95313.6875.71875.6875.71875 1.70313 0 .51562-.21875 1.01562-.20313.48438-.70313 1.04688-.48437.54687-1.60937 1.5-.95313.79687-1.23438 1.09375-.26562.28125-.4375.5625zm4.82813 1.01562v-2.0625h-3.71875v-.96875l3.92187-5.5625h.85938v5.5625h1.15625v.96875h-1.15625v2.0625zm0-3.03125v-3.85937l-2.6875 3.85937z" stroke="#fff" stroke-linecap="round" stroke-linejoin="round" stroke-width="3"/>
  <path d="m352.24875 167.24481h-1.04688v-6.71875q-.39062.35938-1.01562.73438-.60938.35937-1.09375.53125v-1.01563q.875-.42187 1.53125-1 .67187-.59375.95312-1.15625h.67188zm3.59375 0v-1.20312h1.20312v1.20312q0 .65625-.23437 1.0625-.23438.42188-.73438.64063l-.29687-.45313q.32812-.14062.48437-.4375.15625-.28125.1875-.8125zm2.4375-4.23437q0-1.53125.3125-2.45313.3125-.9375.92187-1.4375.625-.5 1.5625-.5.6875 0 1.20313.28125.53125.28125.875.8125.34375.51563.53125 1.26563.1875.75.1875 2.03125 0 1.51562-.3125 2.4375-.29688.92187-.92188 1.4375-.60937.5-1.5625.5-1.23437 0-1.95312-.89063-.84375-1.0625-.84375-3.48437zm1.07812 0q0 2.10937.5 2.8125.5.70312 1.21875.70312.73438 0 1.21875-.70312.5-.70313.5-2.8125 0-2.125-.5-2.8125-.48437-.70313-1.23437-.70313-.71875 0-1.15625.60938-.54688.78125-.54688 2.90625zm5.92188 0q0-1.53125.3125-2.45313.3125-.9375.92187-1.4375.625-.5 1.5625-.5.6875 0 1.20313.28125.53125.28125.875.8125.34375.51563.53125 1.26563.1875.75.1875 2.03125 0 1.51562-.3125 2.4375-.29688.92187-.92188 1.4375-.60937.5-1.5625.5-1.23437 0-1.95312-.89063-.84375-1.0625-.84375-3.48437zm1.07812 0q0 2.10937.5 2.8125.5.70312 1.21875.70312.73438 0 1.21875-.70312.5-.70313.5-2.8125 0-2.125-.5-2.8125-.48437-.70313-1.23437-.70313-.71875 0-1.15625.60938-.54688.78125-.54688 2.90625zm11.39063-2.25-1.04688.07812q-.14062-.625-.39062-.90625-.4375-.45312-1.0625-.45312-.5 0-.89063.28125-.48437.375-.78125 1.07812-.28125.6875-.29687 1.96875.375-.57812.92187-.85937.5625-.28125 1.17188-.28125 1.04687 0 1.78125.78125.75.78125.75 2 0 .8125-.35938 1.51562-.34375.6875-.95312 1.0625-.60938.35938-1.375.35938-1.32813 0-2.15625-.96875-.82813-.96875-.82813-3.1875 0-2.5.92188-3.625.79687-.98438 2.15625-.98438 1.01562 0 1.65625.57813.65625.5625.78125 1.5625zm-4.29688 3.70312q0 .54688.21875 1.04688.23438.48437.64063.75.42187.26562.89062.26562.65625 0 1.14063-.53125.48437-.54687.48437-1.46875 0-.89062-.48437-1.40625-.46875-.51562-1.1875-.51562-.71875 0-1.21875.51562-.48438.51563-.48438 1.34375zm5.82813-1.45312q0-1.53125.3125-2.45313.3125-.9375.92187-1.4375.625-.5 1.5625-.5.6875 0 1.20313.28125.53125.28125.875.8125.34375.51563.53125 1.26563.1875.75.1875 2.03125 0 1.51562-.3125 2.4375-.29688.92187-.92188 1.4375-.60937.5-1.5625.5-1.23437 0-1.95312-.89063-.84375-1.0625-.84375-3.48437zm1.07812 0q0 2.10937.5 2.8125.5.70312 1.21875.70312.73438 0 1.21875-.70312.5-.70313.5-2.8125 0-2.125-.5-2.8125-.48437-.70313-1.23437-.70313-.71875 0-1.15625.60938-.54688.78125-.54688 2.90625zm9.89063 4.23437h-1.04688v-6.71875q-.39062.35938-1.01562.73438-.60938.35937-1.09375.53125v-1.01563q.875-.42187 1.53125-1 .67187-.59375.95312-1.15625h.67188zm8.57812-1.01562v1.01562h-5.6875q0-.375.125-.73437.21875-.57813.6875-1.14063.48438-.5625 1.39063-1.29687 1.40625-1.15625 1.89062-1.82813.5-.67187.5-1.26562 0-.625-.45312-1.04688-.45313-.4375-1.17188-.4375-.76562 0-1.21875.45313-.45312.45312-.46875 1.26562l-1.07812-.10937q.10937-1.21875.82812-1.84375.73438-.64063 1.96875-.64063 1.23438 0 1.95313.6875.71875.6875.71875 1.70313 0 .51562-.21875 1.01562-.20313.48438-.70313 1.04688-.48437.54687-1.60937 1.5-.95313.79687-1.23438 1.09375-.26562.28125-.4375.5625zm1.45313-3.21875q0-1.53125.3125-2.45313.3125-.9375.92187-1.4375.625-.5 1.5625-.5.6875 0 1.20313.28125.53125.28125.875.8125.34375.51563.53125 1.26563.1875.75.1875 2.03125 0 1.51562-.3125 2.4375-.29688.92187-.92188 1.4375-.60937.5-1.5625.5-1.23437 0-1.95312-.89063-.84375-1.0625-.84375-3.48437zm1.07812 0q0 2.10937.5 2.8125.5.70312 1.21875.70312.73438 0 1.21875-.70312.5-.70313.5-2.8125 0-2.125-.5-2.8125-.48437-.70313-1.23437-.70313-.71875 0-1.15625.60938-.54688.78125-.54688 2.90625zm11.46875 3.21875v1.01562h-5.6875q0-.375.125-.73437.21875-.57813.6875-1.14063.48438-.5625 1.39063-1.29687 1.40625-1.15625 1.89062-1.82813.5-.67187.5-1.26562 0-.625-.45312-1.04688-.45313-.4375-1.17188-.4375-.76562 0-1.21875.45313-.45312.45312-.46875 1.26562l-1.07812-.10937q.10937-1.21875.82812-1.84375.73438-.64063 1.96875-.64063 1.23438 0 1.95313.6875.71875.6875.71875 1.70313 0 .51562-.21875 1.01562-.20313.48438-.70313 1.04688-.48437.54687-1.60937 1.5-.95313.79687-1.23438 1.09375-.26562.28125-.4375.5625zm4.82813 1.01562v-2.0625h-3.71875v-.96875l3.92187-5.5625h.85938v5.5625h1.15625v.96875h-1.15625v2.0625zm0-3.03125v-3.85937l-2.6875 3.85937z" fill="#4285f4"/>
  <path d="m546.46875 164.93083h-1.04685v-6.71875q-.39065.35938-1.01565.73438-.60935.35937-1.09375.53124v-1.01562q.875-.42188 1.53125-1 .67185-.59375.95315-1.15625h.67185zm3.59375 0v-1.20313h1.2031v1.20313q0 .65625-.23435 1.0625-.23435.42187-.73435.64063l-.2969-.45313q.3281-.14063.4844-.4375.1562-.28125.1875-.8125zm2.4375-4.23437q0-1.53126.3125-2.45313.3125-.9375.9219-1.4375.625-.5 1.5625-.5.6875 0 1.2031.28125.53125.28125.875.8125.34375.51562.53125 1.26562.1875.75.1875 2.03126 0 1.51562-.3125 2.4375-.29685.92187-.92185 1.4375-.6094.5-1.5625.5-1.2344 0-1.95315-.89063-.84375-1.0625-.84375-3.48437zm1.0781 0q0 2.10937.5 2.8125.5.70312 1.2188.70312.73435 0 1.2187-.70312.5-.70313.5-2.8125 0-2.125-.5-2.8125-.48435-.70313-1.23435-.70313-.71875 0-1.15625.60937-.5469.78126-.5469 2.90626zm5.9219 0q0-1.53126.3125-2.45313.3125-.9375.9219-1.4375.625-.5 1.5625-.5.6875 0 1.2031.28125.53125.28125.875.8125.34375.51562.53125 1.26562.1875.75.1875 2.03126 0 1.51562-.3125 2.4375-.29685.92187-.92185 1.4375-.6094.5-1.5625.5-1.2344 0-1.95315-.89063-.84375-1.0625-.84375-3.48437zm1.0781 0q0 2.10937.5 2.8125.5.70312 1.2188.70312.73435 0 1.2187-.70312.5-.70313.5-2.8125 0-2.125-.5-2.8125-.48435-.70313-1.23435-.70313-.71875 0-1.15625.60937-.5469.78126-.5469 2.90626zm7.5469-.42188q-.65625-.25-.9844-.6875-.3125-.45312-.3125-1.0625 0-.9375.6719-1.57812.6875-.64063 1.7969-.64063 1.125 0 1.8125.65625.6875.65625.6875 1.59375 0 .59375-.3125 1.03125-.3125.4375-.95315.6875.79685.25 1.20315.82812.4062.57813.4062 1.375 0 1.09376-.7812 1.84376-.76565.75-2.0469.75-1.2656 0-2.0469-.75-.7812-.75-.7812-1.875 0-.84376.42185-1.40626.4375-.5625 1.21875-.76562zm-.21875-1.79688q0 .60938.39065 1 .4062.39063 1.0312.39063.6094 0 1-.375.39065-.39063.39065-.95313 0-.57812-.40625-.96874-.40625-.40626-1-.40626-.6094 0-1.0156.39063-.39065.39063-.39065.92187zm-.32815 3.96876q0 .45312.20315.875.21875.42187.64065.65624.42185.23438.9062.23438.75 0 1.2344-.48438.5-.48437.5-1.23437 0-.76563-.5-1.26563-.5-.5-1.2656-.5-.75 0-1.2344.5-.4844.48438-.4844 1.21876zm5.9219-1.75q0-1.53126.3125-2.45313.3125-.9375.9219-1.4375.625-.5 1.5625-.5.6875 0 1.2031.28125.53125.28125.875.8125.34375.51562.53125 1.26562.1875.75.1875 2.03126 0 1.51562-.3125 2.4375-.29685.92187-.92185 1.4375-.6094.5-1.5625.5-1.2344 0-1.95315-.89063-.84375-1.0625-.84375-3.48437zm1.0781 0q0 2.10937.5 2.8125.5.70312 1.2188.70312.73435 0 1.2187-.70312.5-.70313.5-2.8125 0-2.125-.5-2.8125-.48435-.70313-1.23435-.70313-.71875 0-1.15625.60937-.5469.78126-.5469 2.90626zm5.9219 1.96874 1.0625-.14062q.1719.89062.6094 1.29688.4375.39062 1.0625.39062.75 0 1.2656-.51562.5156-.51563.5156-1.28126 0-.71874-.48435-1.1875-.46875-.48437-1.20315-.48437-.29685 0-.75.125l.125-.9375q.1094.01563.1719.01563.6719 0 1.2031-.34376.5469-.35937.5469-1.09374 0-.57813-.3906-.95313-.39065-.39063-1.01565-.39063-.60935 0-1.03125.39063-.40625.39063-.5156 1.15625l-1.0625-.1875q.1875-1.04688.875-1.625.6875-.59375 1.7031-.59375.7031 0 1.2969.3125.5937.29687.9062.8125.3125.51563.3125 1.10937 0 .54688-.29685 1.01563-.29685.45313-.875.71875.75.17188 1.17185.73438.4219.54687.4219 1.39062 0 1.125-.8281 1.90625-.8125.78125-2.0625.78125-1.125 0-1.875-.67188-.75-.6875-.8594-1.75zm12.5469 1.25v1.01563h-5.6875q0-.375.125-.73437.2187-.57813.6875-1.14063.48435-.5625 1.3906-1.29687 1.40625-1.15626 1.8906-1.82813.5-.67187.5-1.26563 0-.625-.4531-1.04687-.4531-.4375-1.1719-.4375-.7656 0-1.2187.45313-.45315.45312-.4688 1.26562l-1.0781-.10938q.1094-1.21874.8281-1.84374.7344-.64063 1.9688-.64063 1.23435 0 1.9531.6875.71875.6875.71875 1.70313 0 .51562-.21875 1.01562-.2031.48438-.7031 1.04688-.4844.54687-1.6094 1.5-.9531.79687-1.2344 1.09374-.2656.28126-.4375.5625zm5.42185 1.01563h-1.04685v-6.71875q-.39065.35938-1.01565.73438-.60935.35937-1.09375.53124v-1.01562q.875-.42188 1.53125-1 .67185-.59375.95315-1.15625h.67185zm8.57815-1.01563v1.01563h-5.6875q0-.375.125-.73437.2187-.57813.6875-1.14063.48435-.5625 1.3906-1.29687 1.40625-1.15626 1.8906-1.82813.5-.67187.5-1.26563 0-.625-.4531-1.04687-.4531-.4375-1.1719-.4375-.7656 0-1.2187.45313-.45315.45312-.4688 1.26562l-1.0781-.10938q.1094-1.21874.8281-1.84374.7344-.64063 1.9688-.64063 1.23435 0 1.9531.6875.71875.6875.71875 1.70313 0 .51562-.21875 1.01562-.2031.48438-.7031 1.04688-.4844.54687-1.6094 1.5-.9531.79687-1.2344 1.09374-.2656.28126-.4375.5625zm1.60935-.96874 1.01565-.09376q.125.71876.48435 1.04688.375.3125.9375.3125.48435 0 .84375-.21875.375-.23437.6094-.59375.23435-.375.3906-1 .15625-.64062.15625-1.29688 0-.07812 0-.21874-.3125.5-.85935.82812-.5469.3125-1.1875.3125-1.07815 0-1.8125-.76562-.7344-.78126-.7344-2.04688 0-1.3125.7656-2.10938.7813-.79687 1.9375-.79687.82815 0 1.51565.45313.70315.45312 1.0625 1.29687.35935.82813.35935 2.40625 0 1.64062-.35935 2.625-.34375.96875-1.0625 1.48438-.70315.5-1.64065.5-1.0156 0-1.6562-.54688-.64065-.5625-.76565-1.57812zm4.3125-3.79688q0-.90625-.48435-1.4375-.4688-.53125-1.1563-.53125-.7031 0-1.23435.57813-.51565.5625-.51565 1.48437 0 .8125.5 1.32813.5.51562 1.2188.51562.73435 0 1.2031-.51562.46875-.51563.46875-1.42188z" stroke="#fff" stroke-linecap="round" stroke-linejoin="round" stroke-width="3"/>
  <path d="m546.46875 164.93083h-1.04685v-6.71875q-.39065.35938-1.01565.73438-.60935.35937-1.09375.53124v-1.01562q.875-.42188 1.53125-1 .67185-.59375.95315-1.15625h.67185zm3.59375 0v-1.20313h1.2031v1.20313q0 .65625-.23435 1.0625-.23435.42187-.73435.64063l-.2969-.45313q.3281-.14063.4844-.4375.1562-.28125.1875-.8125zm2.4375-4.23437q0-1.53126.3125-2.45313.3125-.9375.9219-1.4375.625-.5 1.5625-.5.6875 0 1.2031.28125.53125.28125.875.8125.34375.51562.53125 1.26562.1875.75.1875 2.03126 0 1.51562-.3125 2.4375-.29685.92187-.92185 1.4375-.6094.5-1.5625.5-1.2344 0-1.95315-.89063-.84375-1.0625-.84375-3.48437zm1.0781 0q0 2.10937.5 2.8125.5.70312 1.2188.70312.73435 0 1.2187-.70312.5-.70313.5-2.8125 0-2.125-.5-2.8125-.48435-.70313-1.23435-.70313-.71875 0-1.15625.60937-.5469.78126-.5469 2.90626zm5.9219 0q0-1.53126.3125-2.45313.3125-.9375.9219-1.4375.625-.5 1.5625-.5.6875 0 1.2031.28125.53125.28125.875.8125.34375.51562.53125 1.26562.1875.75.1875 2.03126 0 1.51562-.3125 2.4375-.29685.92187-.92185 1.4375-.6094.5-1.5625.5-1.2344 0-1.95315-.89063-.84375-1.0625-.84375-3.48437zm1.0781 0q0 2.10937.5 2.8125.5.70312 1.2188.70312.73435 0 1.2187-.70312.5-.70313.5-2.8125 0-2.125-.5-2.8125-.48435-.70313-1.23435-.70313-.71875 0-1.15625.60937-.5469.78126-.5469 2.90626zm7.5469-.42188q-.65625-.25-.9844-.6875-.3125-.45312-.3125-1.0625 0-.9375.6719-1.57812.6875-.64063 1.7969-.64063 1.125 0 1.8125.65625.6875.65625.6875 1.59375 0 .59375-.3125 1.03125-.3125.4375-.95315.6875.79685.25 1.20315.82812.4062.57813.4062 1.375 0 1.09376-.7812 1.84376-.76565.75-2.0469.75-1.2656 0-2.0469-.75-.7812-.75-.7812-1.875 0-.84376.42185-1.40626.4375-.5625 1.21875-.76562zm-.21875-1.79688q0 .60938.39065 1 .4062.39063 1.0312.39063.6094 0 1-.375.39065-.39063.39065-.95313 0-.57812-.40625-.96874-.40625-.40626-1-.40626-.6094 0-1.0156.39063-.39065.39063-.39065.92187zm-.32815 3.96876q0 .45312.20315.875.21875.42187.64065.65624.42185.23438.9062.23438.75 0 1.2344-.48438.5-.48437.5-1.23437 0-.76563-.5-1.26563-.5-.5-1.2656-.5-.75 0-1.2344.5-.4844.48438-.4844 1.21876zm5.9219-1.75q0-1.53126.3125-2.45313.3125-.9375.9219-1.4375.625-.5 1.5625-.5.6875 0 1.2031.28125.53125.28125.875.8125.34375.51562.53125 1.26562.1875.75.1875 2.03126 0 1.51562-.3125 2.4375-.29685.92187-.92185 1.4375-.6094.5-1.5625.5-1.2344 0-1.95315-.89063-.84375-1.0625-.84375-3.48437zm1.0781 0q0 2.10937.5 2.8125.5.70312 1.2188.70312.73435 0 1.2187-.70312.5-.70313.5-2.8125 0-2.125-.5-2.8125-.48435-.70313-1.23435-.70313-.71875 0-1.15625.60937-.5469.78126-.5469 2.90626zm5.9219 1.96874 1.0625-.14062q.1719.89062.6094 1.29688.4375.39062 1.0625.39062.75 0 1.2656-.51562.5156-.51563.5156-1.28126 0-.71874-.48435-1.1875-.46875-.48437-1.20315-.48437-.29685 0-.75.125l.125-.9375q.1094.01563.1719.01563.6719 0 1.2031-.34376.5469-.35937.5469-1.09374 0-.57813-.3906-.95313-.39065-.39063-1.01565-.39063-.60935 0-1.03125.39063-.40625.39063-.5156 1.15625l-1.0625-.1875q.1875-1.04688.875-1.625.6875-.59375 1.7031-.59375.7031 0 1.2969.3125.5937.29687.9062.8125.3125.51563.3125 1.10937 0 .54688-.29685 1.01563-.29685.45313-.875.71875.75.17188 1.17185.73438.4219.54687.4219 1.39062 0 1.125-.8281 1.90625-.8125.78125-2.0625.78125-1.125 0-1.875-.67188-.75-.6875-.8594-1.75zm12.5469 1.25v1.01563h-5.6875q0-.375.125-.73437.2187-.57813.6875-1.14063.48435-.5625 1.3906-1.29687 1.40625-1.15626 1.8906-1.82813.5-.67187.5-1.26563 0-.625-.4531-1.04687-.4531-.4375-1.1719-.4375-.7656 0-1.2187.45313-.45315.45312-.4688 1.26562l-1.0781-.10938q.1094-1.21874.8281-1.84374.7344-.64063 1.9688-.64063 1.23435 0 1.9531.6875.71875.6875.71875 1.70313 0 .51562-.21875 1.01562-.2031.48438-.7031 1.04688-.4844.54687-1.6094 1.5-.9531.79687-1.2344 1.09374-.2656.28126-.4375.5625zm5.42185 1.01563h-1.04685v-6.71875q-.39065.35938-1.01565.73438-.60935.35937-1.09375.53124v-1.01562q.875-.42188 1.53125-1 .67185-.59375.95315-1.15625h.67185zm8.57815-1.01563v1.01563h-5.6875q0-.375.125-.73437.2187-.57813.6875-1.14063.48435-.5625 1.3906-1.29687 1.40625-1.15626 1.8906-1.82813.5-.67187.5-1.26563 0-.625-.4531-1.04687-.4531-.4375-1.1719-.4375-.7656 0-1.2187.45313-.45315.45312-.4688 1.26562l-1.0781-.10938q.1094-1.21874.8281-1.84374.7344-.64063 1.9688-.64063 1.23435 0 1.9531.6875.71875.6875.71875 1.70313 0 .51562-.21875 1.01562-.2031.48438-.7031 1.04688-.4844.54687-1.6094 1.5-.9531.79687-1.2344 1.09374-.2656.28126-.4375.5625zm1.60935-.96874 1.01565-.09376q.125.71876.48435 1.04688.375.3125.9375.3125.48435 0 .84375-.21875.375-.23437.6094-.59375.23435-.375.3906-1 .15625-.64062.15625-1.29688 0-.07812 0-.21874-.3125.5-.85935.82812-.5469.3125-1.1875.3125-1.07815 0-1.8125-.76562-.7344-.78126-.7344-2.04688 0-1.3125.7656-2.10938.7813-.79687 1.9375-.79687.82815 0 1.51565.45313.70315.45312 1.0625 1.29687.35935.82813.35935 2.40625 0 1.64062-.35935 2.625-.34375.96875-1.0625 1.48438-.70315.5-1.64065.5-1.0156 0-1.6562-.54688-.64065-.5625-.76565-1.57812zm4.3125-3.79688q0-.90625-.48435-1.4375-.4688-.53125-1.1563-.53125-.7031 0-1.23435.57813-.51565.5625-.51565 1.48437 0 .8125.5 1.32813.5.51562 1.2188.51562.73435 0 1.2031-.51562.46875-.51563.46875-1.42188z" fill="#4285f4"/>
  <path d="m761.6887 169.54956h-1.04685v-6.71875q-.39065.35938-1.01565.73438-.60935.35937-1.0937.53125v-1.01563q.875-.42187 1.5312-1 .6719-.59375.95315-1.15625h.67185zm3.5938 0v-1.20312h1.2031v1.20312q0 .65625-.2344 1.0625-.23435.42188-.73435.64063l-.29685-.45313q.3281-.14062.48435-.4375.15625-.28125.1875-.8125zm2.4375-4.23437q0-1.53125.3125-2.45313.3125-.9375.92185-1.4375.625-.5 1.5625-.5.6875 0 1.20315.28125.5312.28125.875.8125.3437.51563.5312 1.26563.1875.75.1875 2.03125 0 1.51562-.3125 2.4375-.29685.92187-.92185 1.4375-.60935.5-1.5625.5-1.23435 0-1.95315-.89063-.8437-1.0625-.8437-3.48437zm1.0781 0q0 2.10937.5 2.8125.5.70312 1.21875.70312.73435 0 1.21875-.70312.5-.70313.5-2.8125 0-2.125-.5-2.8125-.4844-.70313-1.2344-.70313-.7187 0-1.1562.60938-.5469.78125-.5469 2.90625zm5.9219 0q0-1.53125.3125-2.45313.3125-.9375.92185-1.4375.625-.5 1.5625-.5.6875 0 1.20315.28125.5312.28125.875.8125.3437.51563.5312 1.26563.1875.75.1875 2.03125 0 1.51562-.3125 2.4375-.29685.92187-.92185 1.4375-.60935.5-1.5625.5-1.23435 0-1.95315-.89063-.8437-1.0625-.8437-3.48437zm1.0781 0q0 2.10937.5 2.8125.5.70312 1.21875.70312.73435 0 1.21875-.70312.5-.70313.5-2.8125 0-2.125-.5-2.8125-.4844-.70313-1.2344-.70313-.7187 0-1.1562.60938-.5469.78125-.5469 2.90625zm9.2969 4.23437v-2.0625h-3.7188v-.96875l3.9219-5.5625h.8594v5.5625h1.1562v.96875h-1.1562v2.0625zm0-3.03125v-3.85937l-2.6875 3.85937z" stroke="#fff" stroke-linecap="round" stroke-linejoin="round" stroke-width="3"/>
  <path d="m761.6887 169.54956h-1.04685v-6.71875q-.39065.35938-1.01565.73438-.60935.35937-1.0937.53125v-1.01563q.875-.42187 1.5312-1 .6719-.59375.95315-1.15625h.67185zm3.5938 0v-1.20312h1.2031v1.20312q0 .65625-.2344 1.0625-.23435.42188-.73435.64063l-.29685-.45313q.3281-.14062.48435-.4375.15625-.28125.1875-.8125zm2.4375-4.23437q0-1.53125.3125-2.45313.3125-.9375.92185-1.4375.625-.5 1.5625-.5.6875 0 1.20315.28125.5312.28125.875.8125.3437.51563.5312 1.26563.1875.75.1875 2.03125 0 1.51562-.3125 2.4375-.29685.92187-.92185 1.4375-.60935.5-1.5625.5-1.23435 0-1.95315-.89063-.8437-1.0625-.8437-3.48437zm1.0781 0q0 2.10937.5 2.8125.5.70312 1.21875.70312.73435 0 1.21875-.70312.5-.70313.5-2.8125 0-2.125-.5-2.8125-.4844-.70313-1.2344-.70313-.7187 0-1.1562.60938-.5469.78125-.5469 2.90625zm5.9219 0q0-1.53125.3125-2.45313.3125-.9375.92185-1.4375.625-.5 1.5625-.5.6875 0 1.20315.28125.5312.28125.875.8125.3437.51563.5312 1.26563.1875.75.1875 2.03125 0 1.51562-.3125 2.4375-.29685.92187-.92185 1.4375-.60935.5-1.5625.5-1.23435 0-1.95315-.89063-.8437-1.0625-.8437-3.48437zm1.0781 0q0 2.10937.5 2.8125.5.70312 1.21875.70312.73435 0 1.21875-.70312.5-.70313.5-2.8125 0-2.125-.5-2.8125-.4844-.70313-1.2344-.70313-.7187 0-1.1562.60938-.5469.78125-.5469 2.90625zm9.2969 4.23437v-2.0625h-3.7188v-.96875l3.9219-5.5625h.8594v5.5625h1.1562v.96875h-1.1562v2.0625zm0-3.03125v-3.85937l-2.6875 3.85937z" fill="#4285f4"/>
  <path d="m975.04364 509.2188q0-1.53124.3125-2.4531.3125-.9375.92186-1.4375.625-.5 1.5625-.5.6875 0 1.20314.28124.53126.28126.875.8125.34376.51562.53126 1.26562.1875.75.1875 2.03124 0 1.51564-.3125 2.4375-.2969.9219-.9219 1.4375-.60936.5-1.5625.5-1.23436 0-1.9531-.8906-.84376-1.0625-.84376-3.4844zm1.07813 0q0 2.1094.5 2.8125.5.70314 1.21873.70314.7344 0 1.21877-.70314.5-.7031.5-2.8125 0-2.125-.5-2.8125-.48437-.7031-1.23437-.7031-.71876 0-1.15626.60936-.54687.78124-.54687 2.90624zm6.48437 4.2344v-1.20314h1.20313v1.20314q0 .65624-.23437 1.0625-.2344.42186-.7344.6406l-.29686-.4531q.32813-.14064.48436-.4375.15627-.28126.1875-.8125zm2.5-7.46876v-1.01564h5.5625v.82814q-.8125.875-1.625 2.32812-.79687 1.4375-1.23437 2.96874-.32813 1.07814-.40627 2.3594h-1.09373q.01563-1.01564.39063-2.45314.3906-1.4375 1.09374-2.76562.71876-1.32814 1.53126-2.25zm6.9375 3.23436q0-1.53124.3125-2.4531.3125-.9375.92186-1.4375.625-.5 1.5625-.5.6875 0 1.20314.28124.53126.28126.875.8125.34376.51562.53126 1.26562.1875.75.1875 2.03124 0 1.51564-.3125 2.4375-.2969.9219-.9219 1.4375-.60936.5-1.5625.5-1.23436 0-1.9531-.8906-.84376-1.0625-.84376-3.4844zm1.07813 0q0 2.1094.5 2.8125.5.70314 1.21873.70314.7344 0 1.21877-.70314.5-.7031.5-2.8125 0-2.125-.5-2.8125-.48437-.7031-1.23437-.7031-.71876 0-1.15626.60936-.54687.78124-.54687 2.90624zm5.92187 1.9844 1.10936-.09376q.125.8125.5625 1.21876.45314.40624 1.09377.40624.75 0 1.28123-.57814.53127-.5781.53127-1.5156 0-.90626-.51563-1.4219-.5-.53124-1.32814-.53124-.5 0-.92186.23438-.40624.23436-.64064.59376l-.98436-.125.82813-4.40626h4.28123v1h-3.4375l-.4531 2.3125q.7656-.54688 1.60937-.54688 1.125 0 1.89063.78124.78124.78126.78124 2.01564 0 1.15626-.67187 2.01562-.82813 1.03124-2.25 1.03124-1.17187 0-1.92187-.65624-.7344-.65626-.84376-1.73436zm7-1.9844q0-1.53124.3125-2.4531.3125-.9375.92186-1.4375.625-.5 1.5625-.5.6875 0 1.20314.28124.53126.28126.875.8125.34376.51562.53126 1.26562.1875.75.1875 2.03124 0 1.51564-.3125 2.4375-.2969.9219-.9219 1.4375-.60936.5-1.5625.5-1.23436 0-1.9531-.8906-.84376-1.0625-.84376-3.4844zm1.07813 0q0 2.1094.5 2.8125.5.70314 1.21873.70314.7344 0 1.21877-.70314.5-.7031.5-2.8125 0-2.125-.5-2.8125-.48437-.7031-1.23437-.7031-.71876 0-1.15626.60936-.54687.78124-.54687 2.90624zm5.92187 1.9844 1.10936-.09376q.125.8125.5625 1.21876.45314.40624 1.09377.40624.75 0 1.28123-.57814.53127-.5781.53127-1.5156 0-.90626-.51563-1.4219-.5-.53124-1.32814-.53124-.5 0-.92186.23438-.40624.23436-.64064.59376l-.98436-.125.82813-4.40626h4.28123v1h-3.4375l-.4531 2.3125q.7656-.54688 1.60937-.54688 1.125 0 1.89063.78124.78124.78126.78124 2.01564 0 1.15626-.67187 2.01562-.82813 1.03124-2.25 1.03124-1.17187 0-1.92187-.65624-.7344-.65626-.84376-1.73436zm12.46866-4.2344-1.0468.07814q-.1407-.625-.3907-.90624-.4374-.45314-1.0624-.45314-.5 0-.89063.28124-.48437.375-.78127 1.07814-.28123.6875-.29686 1.96876.375-.57814.92186-.8594.5625-.28124 1.1719-.28124 1.0468 0 1.7812.78124.75.78126.75 2 0 .8125-.3594 1.51564-.3437.6875-.9531 1.0625-.60933.35936-1.37496.35936-1.32814 0-2.15624-.96874-.82813-.96876-.82813-3.1875 0-2.5.92187-3.625.79686-.98436 2.15626-.98436 1.0156 0 1.6562.5781.6562.5625.7812 1.5625zm-4.2968 3.70314q0 .54686.21877 1.04686.23437.4844.64063.75.42187.26564.8906.26564.65627 0 1.1406-.53124.4844-.5469.4844-1.46876 0-.89064-.4844-1.40624-.4687-.51564-1.18746-.51564-.71874 0-1.21874.51564-.4844.5156-.4844 1.34374zm9.7968 2.78126h-1.0468v-6.71876q-.3907.35936-1.0157.73436-.6093.3594-1.0937.53126v-1.01562q.875-.42188 1.5312-1 .6719-.59374.9532-1.15624h.6718zm3.0938-7.46876v-1.01564h5.5625v.82814q-.8125.875-1.625 2.32812-.7969 1.4375-1.2344 2.96874-.3281 1.07814-.4062 2.3594h-1.0938q.0156-1.01564.3906-2.45314.3907-1.4375 1.0938-2.76562.7187-1.32814 1.5312-2.25zm7.0937 5.48436 1.0157-.09374q.125.71874.4843 1.04688.375.3125.9375.3125.4844 0 .8438-.21874.375-.2344.6094-.59376.2343-.375.3906-1 .1562-.64064.1562-1.29688 0-.07812 0-.21876-.3125.5-.8593.82814-.5469.3125-1.1875.3125-1.0782 0-1.8125-.76564-.7344-.78124-.7344-2.04686 0-1.3125.7656-2.10938.7813-.79686 1.9375-.79686.8281 0 1.5156.4531.7032.45314 1.0625 1.2969.3594.8281.3594 2.40624 0 1.64062-.3594 2.625-.3437.96876-1.0625 1.48436-.7031.5-1.6406.5-1.0156 0-1.6562-.54686-.6407-.5625-.7657-1.57814zm4.3125-3.79686q0-.90624-.4843-1.4375-.4688-.53124-1.1563-.53124-.7031 0-1.2344.5781-.5156.5625-.5156 1.4844 0 .8125.5 1.3281.5.51564 1.2188.51564.7343 0 1.2031-.51564.4687-.5156.4687-1.42186zm4.1563 1.125q-.6563-.25-.9844-.6875-.3125-.45314-.3125-1.0625 0-.9375.6719-1.57814.6875-.6406 1.7969-.6406 1.125 0 1.8125.65624.6875.65626.6875 1.59376 0 .59374-.3125 1.03124-.3125.4375-.9532.6875.7969.25 1.2032.82812.4062.57814.4062 1.375 0 1.09374-.7812 1.84374-.7657.75-2.0469.75-1.2656 0-2.0469-.75-.7812-.75-.7812-1.875 0-.84374.4218-1.40624.4375-.5625 1.2188-.76562zm-.2188-1.79688q0 .60938.3907 1 .4062.39064 1.0312.39064.6094 0 1-.375.3906-.39064.3906-.95314 0-.57812-.4062-.96876-.4063-.40624-1-.40624-.6094 0-1.0156.39064-.3907.3906-.3907.92186zm-.3281 3.96874q0 .45314.2031.875.2188.4219.6407.65626.4218.23438.9062.23438.75 0 1.2344-.48438.5-.48436.5-1.23436 0-.76564-.5-1.26564-.5-.5-1.2656-.5-.75 0-1.2344.5-.4844.48438-.4844 1.21874z" stroke="#fff" stroke-linecap="round" stroke-linejoin="round" stroke-width="3"/>
  <path d="m975.04364 509.2188q0-1.53124.3125-2.4531.3125-.9375.92186-1.4375.625-.5 1.5625-.5.6875 0 1.20314.28124.53126.28126.875.8125.34376.51562.53126 1.26562.1875.75.1875 2.03124 0 1.51564-.3125 2.4375-.2969.9219-.9219 1.4375-.60936.5-1.5625.5-1.23436 0-1.9531-.8906-.84376-1.0625-.84376-3.4844zm1.07813 0q0 2.1094.5 2.8125.5.70314 1.21873.70314.7344 0 1.21877-.70314.5-.7031.5-2.8125 0-2.125-.5-2.8125-.48437-.7031-1.23437-.7031-.71876 0-1.15626.60936-.54687.78124-.54687 2.90624zm6.48437 4.2344v-1.20314h1.20313v1.20314q0 .65624-.23437 1.0625-.2344.42186-.7344.6406l-.29686-.4531q.32813-.14064.48436-.4375.15627-.28126.1875-.8125zm2.5-7.46876v-1.01564h5.5625v.82814q-.8125.875-1.625 2.32812-.79687 1.4375-1.23437 2.96874-.32813 1.07814-.40627 2.3594h-1.09373q.01563-1.01564.39063-2.45314.3906-1.4375 1.09374-2.76562.71876-1.32814 1.53126-2.25zm6.9375 3.23436q0-1.53124.3125-2.4531.3125-.9375.92186-1.4375.625-.5 1.5625-.5.6875 0 1.20314.28124.53126.28126.875.8125.34376.51562.53126 1.26562.1875.75.1875 2.03124 0 1.51564-.3125 2.4375-.2969.9219-.9219 1.4375-.60936.5-1.5625.5-1.23436 0-1.9531-.8906-.84376-1.0625-.84376-3.4844zm1.07813 0q0 2.1094.5 2.8125.5.70314 1.21873.70314.7344 0 1.21877-.70314.5-.7031.5-2.8125 0-2.125-.5-2.8125-.48437-.7031-1.23437-.7031-.71876 0-1.15626.60936-.54687.78124-.54687 2.90624zm5.92187 1.9844 1.10936-.09376q.125.8125.5625 1.21876.45314.40624 1.09377.40624.75 0 1.28123-.57814.53127-.5781.53127-1.5156 0-.90626-.51563-1.4219-.5-.53124-1.32814-.53124-.5 0-.92186.23438-.40624.23436-.64064.59376l-.98436-.125.82813-4.40626h4.28123v1h-3.4375l-.4531 2.3125q.7656-.54688 1.60937-.54688 1.125 0 1.89063.78124.78124.78126.78124 2.01564 0 1.15626-.67187 2.01562-.82813 1.03124-2.25 1.03124-1.17187 0-1.92187-.65624-.7344-.65626-.84376-1.73436zm7-1.9844q0-1.53124.3125-2.4531.3125-.9375.92186-1.4375.625-.5 1.5625-.5.6875 0 1.20314.28124.53126.28126.875.8125.34376.51562.53126 1.26562.1875.75.1875 2.03124 0 1.51564-.3125 2.4375-.2969.9219-.9219 1.4375-.60936.5-1.5625.5-1.23436 0-1.9531-.8906-.84376-1.0625-.84376-3.4844zm1.07813 0q0 2.1094.5 2.8125.5.70314 1.21873.70314.7344 0 1.21877-.70314.5-.7031.5-2.8125 0-2.125-.5-2.8125-.48437-.7031-1.23437-.7031-.71876 0-1.15626.60936-.54687.78124-.54687 2.90624zm5.92187 1.9844 1.10936-.09376q.125.8125.5625 1.21876.45314.40624 1.09377.40624.75 0 1.28123-.57814.53127-.5781.53127-1.5156 0-.90626-.51563-1.4219-.5-.53124-1.32814-.53124-.5 0-.92186.23438-.40624.23436-.64064.59376l-.98436-.125.82813-4.40626h4.28123v1h-3.4375l-.4531 2.3125q.7656-.54688 1.60937-.54688 1.125 0 1.89063.78124.78124.78126.78124 2.01564 0 1.15626-.67187 2.01562-.82813 1.03124-2.25 1.03124-1.17187 0-1.92187-.65624-.7344-.65626-.84376-1.73436zm12.46886-4.2344-1.0469.07814q-.1406-.625-.3906-.90624-.4376-.45314-1.0626-.45314-.5 0-.89063.28124-.48437.375-.78127 1.07814-.28123.6875-.29686 1.96876.375-.57814.92186-.8594.5625-.28124 1.1719-.28124 1.0469 0 1.7813.78124.75.78126.75 2 0 .8125-.3594 1.51564-.3437.6875-.9531 1.0625-.60943.35936-1.37506.35936-1.32814 0-2.15624-.96874-.82813-.96876-.82813-3.1875 0-2.5.92187-3.625.79686-.98436 2.15626-.98436 1.0157 0 1.6563.5781.6563.5625.7813 1.5625zm-4.297 3.70314q0 .54686.21877 1.04686.23437.4844.64063.75.42187.26564.8906.26564.65627 0 1.1407-.53124.4844-.5469.4844-1.46876 0-.89064-.4844-1.40624-.4688-.51564-1.18756-.51564-.71874 0-1.21874.51564-.4844.5156-.4844 1.34374zm9.797 2.78126h-1.0469v-6.71876q-.3906.35936-1.0156.73436-.6094.3594-1.0938.53126v-1.01562q.875-.42188 1.5313-1 .6718-.59374.9531-1.15624h.6719zm3.0937-7.46876v-1.01564h5.5625v.82814q-.8125.875-1.625 2.32812-.7969 1.4375-1.2344 2.96874-.3281 1.07814-.4062 2.3594h-1.0938q.0157-1.01564.3907-2.45314.3906-1.4375 1.0937-2.76562.7188-1.32814 1.5313-2.25zm7.0938 5.48436 1.0156-.09374q.125.71874.4844 1.04688.375.3125.9375.3125.4843 0 .8437-.21874.375-.2344.6094-.59376.2344-.375.3906-1 .1563-.64064.1563-1.29688 0-.07812 0-.21876-.3125.5-.8594.82814-.5469.3125-1.1875.3125-1.0781 0-1.8125-.76564-.7344-.78124-.7344-2.04686 0-1.3125.7656-2.10938.7813-.79686 1.9375-.79686.8282 0 1.5157.4531.7031.45314 1.0625 1.2969.3593.8281.3593 2.40624 0 1.64062-.3593 2.625-.3438.96876-1.0625 1.48436-.7032.5-1.6407.5-1.0156 0-1.6562-.54686-.6406-.5625-.7656-1.57814zm4.3125-3.79686q0-.90624-.4844-1.4375-.4688-.53124-1.1563-.53124-.7031 0-1.2343.5781-.5157.5625-.5157 1.4844 0 .8125.5 1.3281.5.51564 1.2188.51564.7344 0 1.2031-.51564.4688-.5156.4688-1.42186zm4.1562 1.125q-.6562-.25-.9844-.6875-.3125-.45314-.3125-1.0625 0-.9375.6719-1.57814.6875-.6406 1.7969-.6406 1.125 0 1.8125.65624.6875.65626.6875 1.59376 0 .59374-.3125 1.03124-.3125.4375-.9531.6875.7968.25 1.2031.82812.4062.57814.4062 1.375 0 1.09374-.7812 1.84374-.7656.75-2.0469.75-1.2656 0-2.0469-.75-.7812-.75-.7812-1.875 0-.84374.4219-1.40624.4375-.5625 1.2187-.76562zm-.2187-1.79688q0 .60938.3906 1 .4062.39064 1.0312.39064.6094 0 1-.375.3907-.39064.3907-.95314 0-.57812-.4063-.96876-.4062-.40624-1-.40624-.6094 0-1.0156.39064-.3906.3906-.3906.92186zm-.3282 3.96874q0 .45314.2032.875.2187.4219.6406.65626.4219.23438.9062.23438.75 0 1.2344-.48438.5-.48436.5-1.23436 0-.76564-.5-1.26564-.5-.5-1.2656-.5-.75 0-1.2344.5-.4844.48438-.4844 1.21874z" fill="#4285f4"/>
  <path d="m191.02875 221.13148h-1.04688v-6.71875q-.39062.35938-1.01562.73438-.60938.35937-1.09375.53125v-1.01563q.875-.42187 1.53125-1 .67187-.59375.95312-1.15625h.67188z" stroke="#fff" stroke-linecap="round" stroke-linejoin="round" stroke-width="3"/>
  <path d="m191.02875 221.13148h-1.04688v-6.71875q-.39062.35938-1.01562.73438-.60938.35937-1.09375.53125v-1.01563q.875-.42187 1.53125-1 .67187-.59375.95312-1.15625h.67188z" fill="#ea4335"/>
  <path d="m352.24875 216.53577h-1.04688v-6.71875q-.39062.35937-1.01562.73437-.60938.35938-1.09375.53125v-1.01562q.875-.42188 1.53125-1 .67187-.59375.95312-1.15625h.67188zm3.59375 0v-1.20313h1.20312v1.20313q0 .65625-.23437 1.0625-.23438.42187-.73438.64062l-.29687-.45312q.32812-.14063.48437-.4375.15625-.28125.1875-.8125zm2.4375-4.23438q0-1.53125.3125-2.45312.3125-.9375.92187-1.4375.625-.5 1.5625-.5.6875 0 1.20313.28125.53125.28125.875.8125.34375.51562.53125 1.26562.1875.75.1875 2.03125 0 1.51563-.3125 2.4375-.29688.92188-.92188 1.4375-.60937.5-1.5625.5-1.23437 0-1.95312-.89062-.84375-1.0625-.84375-3.48438zm1.07812 0q0 2.10938.5 2.8125.5.70313 1.21875.70313.73438 0 1.21875-.70313.5-.70312.5-2.8125 0-2.125-.5-2.8125-.48437-.70312-1.23437-.70312-.71875 0-1.15625.60937-.54688.78125-.54688 2.90625zm5.92188 0q0-1.53125.3125-2.45312.3125-.9375.92187-1.4375.625-.5 1.5625-.5.6875 0 1.20313.28125.53125.28125.875.8125.34375.51562.53125 1.26562.1875.75.1875 2.03125 0 1.51563-.3125 2.4375-.29688.92188-.92188 1.4375-.60937.5-1.5625.5-1.23437 0-1.95312-.89062-.84375-1.0625-.84375-3.48438zm1.07812 0q0 2.10938.5 2.8125.5.70313 1.21875.70313.73438 0 1.21875-.70313.5-.70312.5-2.8125 0-2.125-.5-2.8125-.48437-.70312-1.23437-.70312-.71875 0-1.15625.60937-.54688.78125-.54688 2.90625zm9.29688 4.23438v-2.0625h-3.71875v-.96875l3.92187-5.5625h.85938v5.5625h1.15625v.96875h-1.15625v2.0625zm0-3.03125v-3.85938l-2.6875 3.85938zm3.625-1.20313q0-1.53125.3125-2.45312.3125-.9375.92187-1.4375.625-.5 1.5625-.5.6875 0 1.20313.28125.53125.28125.875.8125.34375.51562.53125 1.26562.1875.75.1875 2.03125 0 1.51563-.3125 2.4375-.29688.92188-.92188 1.4375-.60937.5-1.5625.5-1.23437 0-1.95312-.89062-.84375-1.0625-.84375-3.48438zm1.07812 0q0 2.10938.5 2.8125.5.70313 1.21875.70313.73438 0 1.21875-.70313.5-.70312.5-2.8125 0-2.125-.5-2.8125-.48437-.70312-1.23437-.70312-.71875 0-1.15625.60937-.54688.78125-.54688 2.90625zm9.89063 4.23438h-1.04688v-6.71875q-.39062.35937-1.01562.73437-.60938.35938-1.09375.53125v-1.01562q.875-.42188 1.53125-1 .67187-.59375.95312-1.15625h.67188zm8.57812-1.01563v1.01563h-5.6875q0-.375.125-.73438.21875-.57812.6875-1.14062.48438-.5625 1.39063-1.29688 1.40625-1.15625 1.89062-1.82812.5-.67188.5-1.26563 0-.625-.45312-1.04687-.45313-.4375-1.17188-.4375-.76562 0-1.21875.45312-.45312.45313-.46875 1.26563l-1.07812-.10938q.10937-1.21875.82812-1.84375.73438-.64062 1.96875-.64062 1.23438 0 1.95313.6875.71875.6875.71875 1.70312 0 .51563-.21875 1.01563-.20313.48437-.70313 1.04687-.48437.54688-1.60937 1.5-.95313.79688-1.23438 1.09375-.26562.28125-.4375.5625zm1.45313-3.21875q0-1.53125.3125-2.45312.3125-.9375.92187-1.4375.625-.5 1.5625-.5.6875 0 1.20313.28125.53125.28125.875.8125.34375.51562.53125 1.26562.1875.75.1875 2.03125 0 1.51563-.3125 2.4375-.29688.92188-.92188 1.4375-.60937.5-1.5625.5-1.23437 0-1.95312-.89062-.84375-1.0625-.84375-3.48438zm1.07812 0q0 2.10938.5 2.8125.5.70313 1.21875.70313.73438 0 1.21875-.70313.5-.70312.5-2.8125 0-2.125-.5-2.8125-.48437-.70312-1.23437-.70312-.71875 0-1.15625.60937-.54688.78125-.54688 2.90625zm5.92188 1.96875 1.0625-.14062q.17187.89062.60937 1.29687.4375.39063 1.0625.39063.75 0 1.26563-.51563.51562-.51562.51562-1.28125 0-.71875-.48437-1.1875-.46875-.48437-1.20313-.48437-.29687 0-.75.125l.125-.9375q.10938.01562.17188.01562.67187 0 1.20312-.34375.54688-.35937.54688-1.09375 0-.57812-.39063-.95312-.39062-.39063-1.01562-.39063-.60938 0-1.03125.39063-.40625.39062-.51563 1.15625l-1.0625-.1875q.1875-1.04688.875-1.625.6875-.59375 1.70313-.59375.70312 0 1.29687.3125.59375.29687.90625.8125.3125.51562.3125 1.10937 0 .54688-.29687 1.01563-.29688.45312-.875.71875.75.17187 1.17187.73437.42188.54688.42188 1.39063 0 1.125-.82813 1.90625-.8125.78125-2.0625.78125-1.125 0-1.875-.67188-.75-.6875-.85937-1.75zm12.46875-4.21875-1.04688.07813q-.14062-.625-.39062-.90625-.4375-.45313-1.0625-.45313-.5 0-.89063.28125-.48437.375-.78125 1.07813-.28125.6875-.29687 1.96875.375-.57813.92187-.85938.5625-.28125 1.17188-.28125 1.04687 0 1.78125.78125.75.78125.75 2 0 .8125-.35938 1.51563-.34375.6875-.95312 1.0625-.60938.35937-1.375.35937-1.32813 0-2.15625-.96875-.82813-.96875-.82813-3.1875 0-2.5.92188-3.625.79687-.98437 2.15625-.98437 1.01562 0 1.65625.57812.65625.5625.78125 1.5625zm-4.29688 3.70313q0 .54687.21875 1.04687.23438.48438.64063.75.42187.26563.89062.26563.65625 0 1.14063-.53125.48437-.54688.48437-1.46875 0-.89063-.48437-1.40625-.46875-.51563-1.1875-.51563-.71875 0-1.21875.51563-.48438.51562-.48438 1.34375z" stroke="#fff" stroke-linecap="round" stroke-linejoin="round" stroke-width="3"/>
  <path d="m352.24875 216.53577h-1.04688v-6.71875q-.39062.35937-1.01562.73437-.60938.35938-1.09375.53125v-1.01562q.875-.42188 1.53125-1 .67187-.59375.95312-1.15625h.67188zm3.59375 0v-1.20313h1.20312v1.20313q0 .65625-.23437 1.0625-.23438.42187-.73438.64062l-.29687-.45312q.32812-.14063.48437-.4375.15625-.28125.1875-.8125zm2.4375-4.23438q0-1.53125.3125-2.45312.3125-.9375.92187-1.4375.625-.5 1.5625-.5.6875 0 1.20313.28125.53125.28125.875.8125.34375.51562.53125 1.26562.1875.75.1875 2.03125 0 1.51563-.3125 2.4375-.29688.92188-.92188 1.4375-.60937.5-1.5625.5-1.23437 0-1.95312-.89062-.84375-1.0625-.84375-3.48438zm1.07812 0q0 2.10938.5 2.8125.5.70313 1.21875.70313.73438 0 1.21875-.70313.5-.70312.5-2.8125 0-2.125-.5-2.8125-.48437-.70312-1.23437-.70312-.71875 0-1.15625.60937-.54688.78125-.54688 2.90625zm5.92188 0q0-1.53125.3125-2.45312.3125-.9375.92187-1.4375.625-.5 1.5625-.5.6875 0 1.20313.28125.53125.28125.875.8125.34375.51562.53125 1.26562.1875.75.1875 2.03125 0 1.51563-.3125 2.4375-.29688.92188-.92188 1.4375-.60937.5-1.5625.5-1.23437 0-1.95312-.89062-.84375-1.0625-.84375-3.48438zm1.07812 0q0 2.10938.5 2.8125.5.70313 1.21875.70313.73438 0 1.21875-.70313.5-.70312.5-2.8125 0-2.125-.5-2.8125-.48437-.70312-1.23437-.70312-.71875 0-1.15625.60937-.54688.78125-.54688 2.90625zm9.29688 4.23438v-2.0625h-3.71875v-.96875l3.92187-5.5625h.85938v5.5625h1.15625v.96875h-1.15625v2.0625zm0-3.03125v-3.85938l-2.6875 3.85938zm3.625-1.20313q0-1.53125.3125-2.45312.3125-.9375.92187-1.4375.625-.5 1.5625-.5.6875 0 1.20313.28125.53125.28125.875.8125.34375.51562.53125 1.26562.1875.75.1875 2.03125 0 1.51563-.3125 2.4375-.29688.92188-.92188 1.4375-.60937.5-1.5625.5-1.23437 0-1.95312-.89062-.84375-1.0625-.84375-3.48438zm1.07812 0q0 2.10938.5 2.8125.5.70313 1.21875.70313.73438 0 1.21875-.70313.5-.70312.5-2.8125 0-2.125-.5-2.8125-.48437-.70312-1.23437-.70312-.71875 0-1.15625.60937-.54688.78125-.54688 2.90625zm9.89063 4.23438h-1.04688v-6.71875q-.39062.35937-1.01562.73437-.60938.35938-1.09375.53125v-1.01562q.875-.42188 1.53125-1 .67187-.59375.95312-1.15625h.67188zm8.57812-1.01563v1.01563h-5.6875q0-.375.125-.73438.21875-.57812.6875-1.14062.48438-.5625 1.39063-1.29688 1.40625-1.15625 1.89062-1.82812.5-.67188.5-1.26563 0-.625-.45312-1.04687-.45313-.4375-1.17188-.4375-.76562 0-1.21875.45312-.45312.45313-.46875 1.26563l-1.07812-.10938q.10937-1.21875.82812-1.84375.73438-.64062 1.96875-.64062 1.23438 0 1.95313.6875.71875.6875.71875 1.70312 0 .51563-.21875 1.01563-.20313.48437-.70313 1.04687-.48437.54688-1.60937 1.5-.95313.79688-1.23438 1.09375-.26562.28125-.4375.5625zm1.45313-3.21875q0-1.53125.3125-2.45312.3125-.9375.92187-1.4375.625-.5 1.5625-.5.6875 0 1.20313.28125.53125.28125.875.8125.34375.51562.53125 1.26562.1875.75.1875 2.03125 0 1.51563-.3125 2.4375-.29688.92188-.92188 1.4375-.60937.5-1.5625.5-1.23437 0-1.95312-.89062-.84375-1.0625-.84375-3.48438zm1.07812 0q0 2.10938.5 2.8125.5.70313 1.21875.70313.73438 0 1.21875-.70313.5-.70312.5-2.8125 0-2.125-.5-2.8125-.48437-.70312-1.23437-.70312-.71875 0-1.15625.60937-.54688.78125-.54688 2.90625zm5.92188 1.96875 1.0625-.14062q.17187.89062.60937 1.29687.4375.39063 1.0625.39063.75 0 1.26563-.51563.51562-.51562.51562-1.28125 0-.71875-.48437-1.1875-.46875-.48437-1.20313-.48437-.29687 0-.75.125l.125-.9375q.10938.01562.17188.01562.67187 0 1.20312-.34375.54688-.35937.54688-1.09375 0-.57812-.39063-.95312-.39062-.39063-1.01562-.39063-.60938 0-1.03125.39063-.40625.39062-.51563 1.15625l-1.0625-.1875q.1875-1.04688.875-1.625.6875-.59375 1.70313-.59375.70312 0 1.29687.3125.59375.29687.90625.8125.3125.51562.3125 1.10937 0 .54688-.29687 1.01563-.29688.45312-.875.71875.75.17187 1.17187.73437.42188.54688.42188 1.39063 0 1.125-.82813 1.90625-.8125.78125-2.0625.78125-1.125 0-1.875-.67188-.75-.6875-.85937-1.75zm12.46875-4.21875-1.04688.07813q-.14062-.625-.39062-.90625-.4375-.45313-1.0625-.45313-.5 0-.89063.28125-.48437.375-.78125 1.07813-.28125.6875-.29687 1.96875.375-.57813.92187-.85938.5625-.28125 1.17188-.28125 1.04687 0 1.78125.78125.75.78125.75 2 0 .8125-.35938 1.51563-.34375.6875-.95312 1.0625-.60938.35937-1.375.35937-1.32813 0-2.15625-.96875-.82813-.96875-.82813-3.1875 0-2.5.92188-3.625.79687-.98437 2.15625-.98437 1.01562 0 1.65625.57812.65625.5625.78125 1.5625zm-4.29688 3.70313q0 .54687.21875 1.04687.23438.48438.64063.75.42187.26563.89062.26563.65625 0 1.14063-.53125.48437-.54688.48437-1.46875 0-.89063-.48437-1.40625-.46875-.51563-1.1875-.51563-.71875 0-1.21875.51563-.48438.51562-.48438 1.34375z" fill="#ea4335"/>
  <path d="m546.46875 217.68816h-1.04685v-6.71876q-.39065.35938-1.01565.73438-.60935.35938-1.09375.53125v-1.01563q.875-.42187 1.53125-1 .67185-.59374.95315-1.15624h.67185zm3.59375 0v-1.20313h1.2031v1.20313q0 .65624-.23435 1.0625-.23435.42187-.73435.64062l-.2969-.45312q.3281-.14063.4844-.4375.1562-.28126.1875-.8125zm2.4375-4.23438q0-1.53125.3125-2.45312.3125-.9375.9219-1.4375.625-.5 1.5625-.5.6875 0 1.2031.28124.53125.28126.875.8125.34375.51563.53125 1.26563.1875.75.1875 2.03125 0 1.51562-.3125 2.4375-.29685.92188-.92185 1.4375-.6094.5-1.5625.5-1.2344 0-1.95315-.89062-.84375-1.0625-.84375-3.48438zm1.0781 0q0 2.10938.5 2.8125.5.70312 1.2188.70312.73435 0 1.2187-.70312.5-.70312.5-2.8125 0-2.125-.5-2.8125-.48435-.70312-1.23435-.70312-.71875 0-1.15625.60937-.5469.78125-.5469 2.90625zm5.9219 0q0-1.53125.3125-2.45312.3125-.9375.9219-1.4375.625-.5 1.5625-.5.6875 0 1.2031.28124.53125.28126.875.8125.34375.51563.53125 1.26563.1875.75.1875 2.03125 0 1.51562-.3125 2.4375-.29685.92188-.92185 1.4375-.6094.5-1.5625.5-1.2344 0-1.95315-.89062-.84375-1.0625-.84375-3.48438zm1.0781 0q0 2.10938.5 2.8125.5.70312 1.2188.70312.73435 0 1.2187-.70312.5-.70312.5-2.8125 0-2.125-.5-2.8125-.48435-.70312-1.23435-.70312-.71875 0-1.15625.60937-.5469.78125-.5469 2.90625zm5.9219 1.96875 1.0625-.14063q.1719.89063.6094 1.29688.4375.39062 1.0625.39062.75 0 1.2656-.51562.5156-.51562.5156-1.28125 0-.71875-.48435-1.1875-.46875-.48437-1.20315-.48437-.29685 0-.75.125l.125-.9375q.1094.01562.1719.01562.6719 0 1.2031-.34375.5469-.35937.5469-1.09375 0-.57812-.3906-.95312-.39065-.39063-1.01565-.39063-.60935 0-1.03125.39063-.40625.39062-.5156 1.15624l-1.0625-.1875q.1875-1.04687.875-1.625.6875-.59374 1.7031-.59374.7031 0 1.2969.3125.5937.29687.9062.8125.3125.51562.3125 1.10937 0 .54687-.29685 1.01563-.29685.45312-.875.71874.75.17188 1.17185.73438.4219.54688.4219 1.39062 0 1.125-.8281 1.90626-.8125.78124-2.0625.78124-1.125 0-1.875-.67187-.75-.6875-.8594-1.75zm7-1.96875q0-1.53125.3125-2.45312.3125-.9375.9219-1.4375.625-.5 1.5625-.5.6875 0 1.2031.28124.53125.28126.875.8125.34375.51563.53125 1.26563.1875.75.1875 2.03125 0 1.51562-.3125 2.4375-.29685.92188-.92185 1.4375-.6094.5-1.5625.5-1.2344 0-1.95315-.89062-.84375-1.0625-.84375-3.48438zm1.0781 0q0 2.10938.5 2.8125.5.70312 1.2188.70312.73435 0 1.2187-.70312.5-.70312.5-2.8125 0-2.125-.5-2.8125-.48435-.70312-1.23435-.70312-.71875 0-1.15625.60937-.5469.78125-.5469 2.90625zm5.9219 0q0-1.53125.3125-2.45312.3125-.9375.9219-1.4375.625-.5 1.5625-.5.6875 0 1.2031.28124.53125.28126.875.8125.34375.51563.53125 1.26563.1875.75.1875 2.03125 0 1.51562-.3125 2.4375-.29685.92188-.92185 1.4375-.6094.5-1.5625.5-1.2344 0-1.95315-.89062-.84375-1.0625-.84375-3.48438zm1.0781 0q0 2.10938.5 2.8125.5.70312 1.2188.70312.73435 0 1.2187-.70312.5-.70312.5-2.8125 0-2.125-.5-2.8125-.48435-.70312-1.23435-.70312-.71875 0-1.15625.60937-.5469.78125-.5469 2.90625zm11.39065-2.25-1.04685.07812q-.14065-.625-.39065-.90624-.4375-.45313-1.0625-.45313-.5 0-.89065.28125-.48435.375-.7812 1.07812-.2813.6875-.2969 1.96876.375-.57813.9219-.85938.5625-.28125 1.17185-.28125 1.04685 0 1.78125.78125.75.78125.75 2 0 .8125-.3594 1.51562-.3437.6875-.9531 1.0625-.6094.35938-1.375.35938-1.3281 0-2.15625-.96875-.82815-.96875-.82815-3.1875 0-2.5.9219-3.625.7969-.98437 2.15625-.98437 1.01565 0 1.65625.57812.65625.5625.78125 1.5625zm-4.29685 3.70312q0 .54688.2187 1.04688.2344.48438.64065.75.42185.26562.89065.26562.6562 0 1.1406-.53124.4844-.54688.4844-1.46876 0-.89062-.4844-1.40624-.46875-.51563-1.1875-.51563-.71875 0-1.21875.51563-.48435.51562-.48435 1.34374zm5.8281-1.45312q0-1.53125.3125-2.45312.3125-.9375.9219-1.4375.625-.5 1.5625-.5.6875 0 1.2031.28124.53125.28126.875.8125.34375.51563.53125 1.26563.1875.75.1875 2.03125 0 1.51562-.3125 2.4375-.29685.92188-.92185 1.4375-.6094.5-1.5625.5-1.2344 0-1.95315-.89062-.84375-1.0625-.84375-3.48438zm1.0781 0q0 2.10938.5 2.8125.5.70312 1.2188.70312.73435 0 1.2187-.70312.5-.70312.5-2.8125 0-2.125-.5-2.8125-.48435-.70312-1.23435-.70312-.71875 0-1.15625.60937-.5469.78125-.5469 2.90625zm9.89065 4.23438h-1.04685v-6.71876q-.39065.35938-1.01565.73438-.60935.35938-1.09375.53125v-1.01563q.875-.42187 1.53125-1 .67185-.59374.95315-1.15624h.67185zm8.57815-1.01563v1.01563h-5.6875q0-.375.125-.73438.2187-.57812.6875-1.14062.48435-.5625 1.3906-1.29688 1.40625-1.15625 1.8906-1.82812.5-.67188.5-1.26563 0-.625-.4531-1.04687-.4531-.4375-1.1719-.4375-.7656 0-1.2187.45312-.45315.45312-.4688 1.26562l-1.0781-.10937q.1094-1.21875.8281-1.84375.7344-.64062 1.9688-.64062 1.23435 0 1.9531.6875.71875.6875.71875 1.70312 0 .51562-.21875 1.01562-.2031.48438-.7031 1.04688-.4844.54688-1.6094 1.5-.9531.79688-1.2344 1.09375-.2656.28125-.4375.5625z" stroke="#fff" stroke-linecap="round" stroke-linejoin="round" stroke-width="3"/>
  <path d="m546.46875 217.68816h-1.04685v-6.71876q-.39065.35938-1.01565.73438-.60935.35938-1.09375.53125v-1.01563q.875-.42187 1.53125-1 .67185-.59374.95315-1.15624h.67185zm3.59375 0v-1.20313h1.2031v1.20313q0 .65624-.23435 1.0625-.23435.42187-.73435.64062l-.2969-.45312q.3281-.14063.4844-.4375.1562-.28126.1875-.8125zm2.4375-4.23438q0-1.53125.3125-2.45312.3125-.9375.9219-1.4375.625-.5 1.5625-.5.6875 0 1.2031.28124.53125.28126.875.8125.34375.51563.53125 1.26563.1875.75.1875 2.03125 0 1.51562-.3125 2.4375-.29685.92188-.92185 1.4375-.6094.5-1.5625.5-1.2344 0-1.95315-.89062-.84375-1.0625-.84375-3.48438zm1.0781 0q0 2.10938.5 2.8125.5.70312 1.2188.70312.73435 0 1.2187-.70312.5-.70312.5-2.8125 0-2.125-.5-2.8125-.48435-.70312-1.23435-.70312-.71875 0-1.15625.60937-.5469.78125-.5469 2.90625zm5.9219 0q0-1.53125.3125-2.45312.3125-.9375.9219-1.4375.625-.5 1.5625-.5.6875 0 1.2031.28124.53125.28126.875.8125.34375.51563.53125 1.26563.1875.75.1875 2.03125 0 1.51562-.3125 2.4375-.29685.92188-.92185 1.4375-.6094.5-1.5625.5-1.2344 0-1.95315-.89062-.84375-1.0625-.84375-3.48438zm1.0781 0q0 2.10938.5 2.8125.5.70312 1.2188.70312.73435 0 1.2187-.70312.5-.70312.5-2.8125 0-2.125-.5-2.8125-.48435-.70312-1.23435-.70312-.71875 0-1.15625.60937-.5469.78125-.5469 2.90625zm5.9219 1.96875 1.0625-.14063q.1719.89063.6094 1.29688.4375.39062 1.0625.39062.75 0 1.2656-.51562.5156-.51562.5156-1.28125 0-.71875-.48435-1.1875-.46875-.48437-1.20315-.48437-.29685 0-.75.125l.125-.9375q.1094.01562.1719.01562.6719 0 1.2031-.34375.5469-.35937.5469-1.09375 0-.57812-.3906-.95312-.39065-.39063-1.01565-.39063-.60935 0-1.03125.39063-.40625.39062-.5156 1.15624l-1.0625-.1875q.1875-1.04687.875-1.625.6875-.59374 1.7031-.59374.7031 0 1.2969.3125.5937.29687.9062.8125.3125.51562.3125 1.10937 0 .54687-.29685 1.01563-.29685.45312-.875.71874.75.17188 1.17185.73438.4219.54688.4219 1.39062 0 1.125-.8281 1.90626-.8125.78124-2.0625.78124-1.125 0-1.875-.67187-.75-.6875-.8594-1.75zm7-1.96875q0-1.53125.3125-2.45312.3125-.9375.9219-1.4375.625-.5 1.5625-.5.6875 0 1.2031.28124.53125.28126.875.8125.34375.51563.53125 1.26563.1875.75.1875 2.03125 0 1.51562-.3125 2.4375-.29685.92188-.92185 1.4375-.6094.5-1.5625.5-1.2344 0-1.95315-.89062-.84375-1.0625-.84375-3.48438zm1.0781 0q0 2.10938.5 2.8125.5.70312 1.2188.70312.73435 0 1.2187-.70312.5-.70312.5-2.8125 0-2.125-.5-2.8125-.48435-.70312-1.23435-.70312-.71875 0-1.15625.60937-.5469.78125-.5469 2.90625zm5.9219 0q0-1.53125.3125-2.45312.3125-.9375.9219-1.4375.625-.5 1.5625-.5.6875 0 1.2031.28124.53125.28126.875.8125.34375.51563.53125 1.26563.1875.75.1875 2.03125 0 1.51562-.3125 2.4375-.29685.92188-.92185 1.4375-.6094.5-1.5625.5-1.2344 0-1.95315-.89062-.84375-1.0625-.84375-3.48438zm1.0781 0q0 2.10938.5 2.8125.5.70312 1.2188.70312.73435 0 1.2187-.70312.5-.70312.5-2.8125 0-2.125-.5-2.8125-.48435-.70312-1.23435-.70312-.71875 0-1.15625.60937-.5469.78125-.5469 2.90625zm11.39065-2.25-1.04685.07812q-.14065-.625-.39065-.90624-.4375-.45313-1.0625-.45313-.5 0-.89065.28125-.48435.375-.7812 1.07812-.2813.6875-.2969 1.96876.375-.57813.9219-.85938.5625-.28125 1.17185-.28125 1.04685 0 1.78125.78125.75.78125.75 2 0 .8125-.3594 1.51562-.3437.6875-.9531 1.0625-.6094.35938-1.375.35938-1.3281 0-2.15625-.96875-.82815-.96875-.82815-3.1875 0-2.5.9219-3.625.7969-.98437 2.15625-.98437 1.01565 0 1.65625.57812.65625.5625.78125 1.5625zm-4.29685 3.70312q0 .54688.2187 1.04688.2344.48438.64065.75.42185.26562.89065.26562.6562 0 1.1406-.53124.4844-.54688.4844-1.46876 0-.89062-.4844-1.40624-.46875-.51563-1.1875-.51563-.71875 0-1.21875.51563-.48435.51562-.48435 1.34374zm5.8281-1.45312q0-1.53125.3125-2.45312.3125-.9375.9219-1.4375.625-.5 1.5625-.5.6875 0 1.2031.28124.53125.28126.875.8125.34375.51563.53125 1.26563.1875.75.1875 2.03125 0 1.51562-.3125 2.4375-.29685.92188-.92185 1.4375-.6094.5-1.5625.5-1.2344 0-1.95315-.89062-.84375-1.0625-.84375-3.48438zm1.0781 0q0 2.10938.5 2.8125.5.70312 1.2188.70312.73435 0 1.2187-.70312.5-.70312.5-2.8125 0-2.125-.5-2.8125-.48435-.70312-1.23435-.70312-.71875 0-1.15625.60937-.5469.78125-.5469 2.90625zm9.89065 4.23438h-1.04685v-6.71876q-.39065.35938-1.01565.73438-.60935.35938-1.09375.53125v-1.01563q.875-.42187 1.53125-1 .67185-.59374.95315-1.15624h.67185zm8.57815-1.01563v1.01563h-5.6875q0-.375.125-.73438.2187-.57812.6875-1.14062.48435-.5625 1.3906-1.29688 1.40625-1.15625 1.8906-1.82812.5-.67188.5-1.26563 0-.625-.4531-1.04687-.4531-.4375-1.1719-.4375-.7656 0-1.2187.45312-.45315.45312-.4688 1.26562l-1.0781-.10937q.1094-1.21875.8281-1.84375.7344-.64062 1.9688-.64062 1.23435 0 1.9531.6875.71875.6875.71875 1.70312 0 .51562-.21875 1.01562-.2031.48438-.7031 1.04688-.4844.54688-1.6094 1.5-.9531.79688-1.2344 1.09375-.2656.28125-.4375.5625z" fill="#ea4335"/>
  <path d="m751.25366 234.5645h-1.04686v-6.71875q-.39064.35937-1.01564.73437-.60936.35938-1.09376.53125v-1.01562q.875-.42188 1.53126-1 .67188-.59375.95314-1.15625h.67186zm3.59374 0v-1.20313h1.20314v1.20313q0 .65625-.23438 1.0625-.23436.42187-.73436.64062l-.2969-.45312q.32814-.14063.4844-.4375.15624-.28125.1875-.8125zm2.4375-4.23438q0-1.53125.3125-2.45312.3125-.9375.9219-1.4375.625-.5 1.5625-.5.6875 0 1.2031.28125.53126.28125.875.8125.34376.51562.53126 1.26562.1875.75.1875 2.03125 0 1.51563-.3125 2.4375-.29686.92188-.92186 1.4375-.6094.5-1.5625.5-1.2344 0-1.95314-.89062-.84376-1.0625-.84376-3.48438zm1.07814 0q0 2.10938.5 2.8125.5.70313 1.21876.70313.73436 0 1.21874-.70313.5-.70312.5-2.8125 0-2.125-.5-2.8125-.48438-.70312-1.23438-.70312-.71876 0-1.15626.60937-.54686.78125-.54686 2.90625zm5.92186 0q0-1.53125.3125-2.45312.3125-.9375.9219-1.4375.625-.5 1.5625-.5.6875 0 1.2031.28125.53126.28125.875.8125.34376.51562.53126 1.26562.1875.75.1875 2.03125 0 1.51563-.3125 2.4375-.29686.92188-.92186 1.4375-.6094.5-1.5625.5-1.2344 0-1.95314-.89062-.84376-1.0625-.84376-3.48438zm1.07814 0q0 2.10938.5 2.8125.5.70313 1.21876.70313.73436 0 1.21874-.70313.5-.70312.5-2.8125 0-2.125-.5-2.8125-.48438-.70312-1.23438-.70312-.71876 0-1.15626.60937-.54686.78125-.54686 2.90625zm9.89062 4.23438h-1.04686v-6.71875q-.39064.35937-1.01564.73437-.60936.35938-1.09376.53125v-1.01562q.875-.42188 1.53126-1 .67188-.59375.95314-1.15625h.67186z" stroke="#fff" stroke-linecap="round" stroke-linejoin="round" stroke-width="3"/>
  <path d="m751.25366 234.5645h-1.04686v-6.71875q-.39064.35937-1.01564.73437-.60936.35938-1.09376.53125v-1.01562q.875-.42188 1.53126-1 .67188-.59375.95314-1.15625h.67186zm3.59374 0v-1.20313h1.20314v1.20313q0 .65625-.23438 1.0625-.23436.42187-.73436.64062l-.2969-.45312q.32814-.14063.4844-.4375.15624-.28125.1875-.8125zm2.4375-4.23438q0-1.53125.3125-2.45312.3125-.9375.9219-1.4375.625-.5 1.5625-.5.6875 0 1.2031.28125.53126.28125.875.8125.34376.51562.53126 1.26562.1875.75.1875 2.03125 0 1.51563-.3125 2.4375-.29686.92188-.92186 1.4375-.6094.5-1.5625.5-1.2344 0-1.95314-.89062-.84376-1.0625-.84376-3.48438zm1.07814 0q0 2.10938.5 2.8125.5.70313 1.21876.70313.73436 0 1.21874-.70313.5-.70312.5-2.8125 0-2.125-.5-2.8125-.48438-.70312-1.23438-.70312-.71876 0-1.15626.60937-.54686.78125-.54686 2.90625zm5.92186 0q0-1.53125.3125-2.45312.3125-.9375.9219-1.4375.625-.5 1.5625-.5.6875 0 1.2031.28125.53126.28125.875.8125.34376.51562.53126 1.26562.1875.75.1875 2.03125 0 1.51563-.3125 2.4375-.29686.92188-.92186 1.4375-.6094.5-1.5625.5-1.2344 0-1.95314-.89062-.84376-1.0625-.84376-3.48438zm1.07814 0q0 2.10938.5 2.8125.5.70313 1.21876.70313.73436 0 1.21874-.70313.5-.70312.5-2.8125 0-2.125-.5-2.8125-.48438-.70312-1.23438-.70312-.71876 0-1.15626.60937-.54686.78125-.54686 2.90625zm9.89062 4.23438h-1.04686v-6.71875q-.39064.35937-1.01564.73437-.60936.35938-1.09376.53125v-1.01562q.875-.42188 1.53126-1 .67188-.59375.95314-1.15625h.67186z" fill="#ea4335"/>
  <path d="m930.94 552.6138q0-1.5313.3125-2.45316.3125-.9375.9219-1.4375.625-.5 1.5625-.5.6875 0 1.2031.28126.53125.28124.875.8125.34375.5156.53125 1.2656.1875.75.1875 2.0313 0 1.5156-.3125 2.4375-.29685.92184-.92185 1.4375-.6094.5-1.5625.5-1.2344 0-1.95315-.89066-.84375-1.0625-.84375-3.48434zm1.0781 0q0 2.10934.5 2.8125.5.7031 1.2188.7031.73435 0 1.2187-.7031.5-.70316.5-2.8125 0-2.125-.5-2.8125-.48435-.70316-1.23435-.70316-.71875 0-1.15625.60936-.5469.7813-.5469 2.9063zm6.4844 4.23434v-1.20314h1.2031v1.20314q0 .65626-.23435 1.0625-.23435.42186-.73435.64066l-.2969-.45316q.3281-.14064.4844-.4375.1562-.28124.1875-.8125zm2.5-7.46874v-1.0156h5.5625v.8281q-.8125.875-1.625 2.3281-.7969 1.4375-1.2344 2.9688-.3281 1.0781-.4062 2.35934h-1.0938q.01565-1.01564.39065-2.45314.39065-1.4375 1.09375-2.7656.71875-1.3281 1.53125-2.25zm6.9375 3.2344q0-1.5313.3125-2.45316.3125-.9375.9219-1.4375.625-.5 1.5625-.5.6875 0 1.2031.28126.53125.28124.875.8125.34375.5156.53125 1.2656.1875.75.1875 2.0313 0 1.5156-.3125 2.4375-.29685.92184-.92185 1.4375-.6094.5-1.5625.5-1.2344 0-1.95315-.89066-.84375-1.0625-.84375-3.48434zm1.0781 0q0 2.10934.5 2.8125.5.7031 1.2188.7031.73435 0 1.2187-.7031.5-.70316.5-2.8125 0-2.125-.5-2.8125-.48435-.70316-1.23435-.70316-.71875 0-1.15625.60936-.5469.7813-.5469 2.9063zm11.39065-2.25-1.04685.0781q-.14065-.625-.39065-.90626-.4375-.45314-1.0625-.45314-.5 0-.89065.2813-.48435.375-.7812 1.0781-.2813.6875-.2969 1.96874.375-.57814.9219-.85934.5625-.2813 1.17185-.2813 1.04685 0 1.78125.7813.75.7812.75 2 0 .8125-.3594 1.5156-.3437.6875-.9531 1.0625-.6094.3594-1.375.3594-1.3281 0-2.15625-.9688-.82815-.9687-.82815-3.1875 0-2.5.9219-3.625.7969-.98436 2.15625-.98436 1.01565 0 1.65625.57816.65625.5625.78125 1.5625zm-4.29685 3.7031q0 .5469.2187 1.0469.2344.48434.64065.75.42185.2656.89065.2656.6562 0 1.1406-.53126.4844-.54684.4844-1.46874 0-.8906-.4844-1.40626-.46875-.51564-1.1875-.51564-.71875 0-1.21875.51564-.48435.51566-.48435 1.34376zm5.98435.7969 1.01565-.0938q.125.7188.48435 1.0469.375.3125.9375.3125.48435 0 .84375-.21876.375-.23434.6094-.59374.23435-.375.3906-1 .15625-.6406.15625-1.2969 0-.0781 0-.2187-.3125.5-.85935.8281-.5469.3125-1.1875.3125-1.07815 0-1.8125-.7656-.7344-.7813-.7344-2.0469 0-1.3125.7656-2.1094.7813-.79686 1.9375-.79686.82815 0 1.51565.45316.70315.4531 1.0625 1.29684.35935.82816.35935 2.40626 0 1.6406-.35935 2.625-.34375.96874-1.0625 1.4844-.70315.5-1.64065.5-1.0156 0-1.6562-.5469-.64065-.5625-.76565-1.5781zm4.3125-3.7969q0-.90626-.48435-1.4375-.4688-.53126-1.1563-.53126-.7031 0-1.23435.57816-.51565.5625-.51565 1.48434 0 .8125.5 1.32816.5.5156 1.2188.5156.73435 0 1.2031-.5156.46875-.51566.46875-1.4219zm8.07815 4.7656v1.01564h-5.6875q0-.375.125-.73434.2187-.57816.6875-1.14066.48435-.5625 1.3906-1.29684 1.40625-1.1563 1.8906-1.82816.5-.67184.5-1.26564 0-.625-.4531-1.04686-.4531-.4375-1.1719-.4375-.7656 0-1.2187.45316-.45315.4531-.4688 1.2656l-1.0781-.1094q.1094-1.2187.8281-1.8437.7344-.64066 1.9688-.64066 1.23435 0 1.9531.6875.71875.6875.71875 1.70316 0 .5156-.21875 1.0156-.2031.4844-.7031 1.0469-.4844.54684-1.6094 1.5-.9531.79684-1.2344 1.0937-.2656.2813-.4375.5625zm1.4531-3.2187q0-1.5313.3125-2.45316.3125-.9375.9219-1.4375.625-.5 1.5625-.5.6875 0 1.2031.28126.53125.28124.875.8125.34375.5156.53125 1.2656.1875.75.1875 2.0313 0 1.5156-.3125 2.4375-.29685.92184-.92185 1.4375-.6094.5-1.5625.5-1.2344 0-1.95315-.89066-.84375-1.0625-.84375-3.48434zm1.0781 0q0 2.10934.5 2.8125.5.7031 1.2188.7031.73435 0 1.2187-.7031.5-.70316.5-2.8125 0-2.125-.5-2.8125-.48435-.70316-1.23435-.70316-.71875 0-1.15625.60936-.5469.7813-.5469 2.9063zm6.07815 2.25 1.01565-.0938q.125.7188.48435 1.0469.375.3125.9375.3125.48435 0 .84375-.21876.375-.23434.6094-.59374.23435-.375.3906-1 .15625-.6406.15625-1.2969 0-.0781 0-.2187-.3125.5-.85935.8281-.5469.3125-1.1875.3125-1.07815 0-1.8125-.7656-.7344-.7813-.7344-2.0469 0-1.3125.7656-2.1094.7813-.79686 1.9375-.79686.82815 0 1.51565.45316.70315.4531 1.0625 1.29684.35935.82816.35935 2.40626 0 1.6406-.35935 2.625-.34375.96874-1.0625 1.4844-.70315.5-1.64065.5-1.0156 0-1.6562-.5469-.64065-.5625-.76565-1.5781zm4.3125-3.7969q0-.90626-.48435-1.4375-.4688-.53126-1.1563-.53126-.7031 0-1.23435.57816-.51565.5625-.51565 1.48434 0 .8125.5 1.32816.5.5156 1.2188.5156.73435 0 1.2031-.5156.46875-.51566.46875-1.4219zm2.53125 1.5469q0-1.5313.3125-2.45316.3125-.9375.9219-1.4375.625-.5 1.5625-.5.6875 0 1.2031.28126.53125.28124.875.8125.34375.5156.53125 1.2656.1875.75.1875 2.0313 0 1.5156-.3125 2.4375-.29685.92184-.92185 1.4375-.6094.5-1.5625.5-1.2344 0-1.95315-.89066-.84375-1.0625-.84375-3.48434zm1.0781 0q0 2.10934.5 2.8125.5.7031 1.2188.7031.73435 0 1.2187-.7031.5-.70316.5-2.8125 0-2.125-.5-2.8125-.48435-.70316-1.23435-.70316-.71875 0-1.15625.60936-.5469.7813-.5469 2.9063zm9.2969 4.23434v-2.0625h-3.71875v-.96874l3.92185-5.5625h.8594v5.5625h1.15625v.96874h-1.15625v2.0625zm0-3.03124v-3.8594l-2.6875 3.8594z" stroke="#fff" stroke-linecap="round" stroke-linejoin="round" stroke-width="3"/>
  <path d="m930.94 552.6138q0-1.5313.3125-2.45316.3125-.9375.9219-1.4375.625-.5 1.5625-.5.6875 0 1.2031.28126.53125.28124.875.8125.34375.5156.53125 1.2656.1875.75.1875 2.0313 0 1.5156-.3125 2.4375-.29685.92184-.92185 1.4375-.6094.5-1.5625.5-1.2344 0-1.95315-.89066-.84375-1.0625-.84375-3.48434zm1.0781 0q0 2.10934.5 2.8125.5.7031 1.2188.7031.73435 0 1.2187-.7031.5-.70316.5-2.8125 0-2.125-.5-2.8125-.48435-.70316-1.23435-.70316-.71875 0-1.15625.60936-.5469.7813-.5469 2.9063zm6.4844 4.23434v-1.20314h1.2031v1.20314q0 .65626-.23435 1.0625-.23435.42186-.73435.64066l-.2969-.45316q.3281-.14064.4844-.4375.1562-.28124.1875-.8125zm2.5-7.46874v-1.0156h5.5625v.8281q-.8125.875-1.625 2.3281-.7969 1.4375-1.2344 2.9688-.3281 1.0781-.4062 2.35934h-1.0938q.01565-1.01564.39065-2.45314.39065-1.4375 1.09375-2.7656.71875-1.3281 1.53125-2.25zm6.9375 3.2344q0-1.5313.3125-2.45316.3125-.9375.9219-1.4375.625-.5 1.5625-.5.6875 0 1.2031.28126.53125.28124.875.8125.34375.5156.53125 1.2656.1875.75.1875 2.0313 0 1.5156-.3125 2.4375-.29685.92184-.92185 1.4375-.6094.5-1.5625.5-1.2344 0-1.95315-.89066-.84375-1.0625-.84375-3.48434zm1.0781 0q0 2.10934.5 2.8125.5.7031 1.2188.7031.73435 0 1.2187-.7031.5-.70316.5-2.8125 0-2.125-.5-2.8125-.48435-.70316-1.23435-.70316-.71875 0-1.15625.60936-.5469.7813-.5469 2.9063zm11.39065-2.25-1.04685.0781q-.14065-.625-.39065-.90626-.4375-.45314-1.0625-.45314-.5 0-.89065.2813-.48435.375-.7812 1.0781-.2813.6875-.2969 1.96874.375-.57814.9219-.85934.5625-.2813 1.17185-.2813 1.04685 0 1.78125.7813.75.7812.75 2 0 .8125-.3594 1.5156-.3437.6875-.9531 1.0625-.6094.3594-1.375.3594-1.3281 0-2.15625-.9688-.82815-.9687-.82815-3.1875 0-2.5.9219-3.625.7969-.98436 2.15625-.98436 1.01565 0 1.65625.57816.65625.5625.78125 1.5625zm-4.29685 3.7031q0 .5469.2187 1.0469.2344.48434.64065.75.42185.2656.89065.2656.6562 0 1.1406-.53126.4844-.54684.4844-1.46874 0-.8906-.4844-1.40626-.46875-.51564-1.1875-.51564-.71875 0-1.21875.51564-.48435.51566-.48435 1.34376zm5.98435.7969 1.01565-.0938q.125.7188.48435 1.0469.375.3125.9375.3125.48435 0 .84375-.21876.375-.23434.6094-.59374.23435-.375.3906-1 .15625-.6406.15625-1.2969 0-.0781 0-.2187-.3125.5-.85935.8281-.5469.3125-1.1875.3125-1.07815 0-1.8125-.7656-.7344-.7813-.7344-2.0469 0-1.3125.7656-2.1094.7813-.79686 1.9375-.79686.82815 0 1.51565.45316.70315.4531 1.0625 1.29684.35935.82816.35935 2.40626 0 1.6406-.35935 2.625-.34375.96874-1.0625 1.4844-.70315.5-1.64065.5-1.0156 0-1.6562-.5469-.64065-.5625-.76565-1.5781zm4.3125-3.7969q0-.90626-.48435-1.4375-.4688-.53126-1.1563-.53126-.7031 0-1.23435.57816-.51565.5625-.51565 1.48434 0 .8125.5 1.32816.5.5156 1.2188.5156.73435 0 1.2031-.5156.46875-.51566.46875-1.4219zm8.07815 4.7656v1.01564h-5.6875q0-.375.125-.73434.2187-.57816.6875-1.14066.48435-.5625 1.3906-1.29684 1.40625-1.1563 1.8906-1.82816.5-.67184.5-1.26564 0-.625-.4531-1.04686-.4531-.4375-1.1719-.4375-.7656 0-1.2187.45316-.45315.4531-.4688 1.2656l-1.0781-.1094q.1094-1.2187.8281-1.8437.7344-.64066 1.9688-.64066 1.23435 0 1.9531.6875.71875.6875.71875 1.70316 0 .5156-.21875 1.0156-.2031.4844-.7031 1.0469-.4844.54684-1.6094 1.5-.9531.79684-1.2344 1.0937-.2656.2813-.4375.5625zm1.4531-3.2187q0-1.5313.3125-2.45316.3125-.9375.9219-1.4375.625-.5 1.5625-.5.6875 0 1.2031.28126.53125.28124.875.8125.34375.5156.53125 1.2656.1875.75.1875 2.0313 0 1.5156-.3125 2.4375-.29685.92184-.92185 1.4375-.6094.5-1.5625.5-1.2344 0-1.95315-.89066-.84375-1.0625-.84375-3.48434zm1.0781 0q0 2.10934.5 2.8125.5.7031 1.2188.7031.73435 0 1.2187-.7031.5-.70316.5-2.8125 0-2.125-.5-2.8125-.48435-.70316-1.23435-.70316-.71875 0-1.15625.60936-.5469.7813-.5469 2.9063zm6.07815 2.25 1.01565-.0938q.125.7188.48435 1.0469.375.3125.9375.3125.48435 0 .84375-.21876.375-.23434.6094-.59374.23435-.375.3906-1 .15625-.6406.15625-1.2969 0-.0781 0-.2187-.3125.5-.85935.8281-.5469.3125-1.1875.3125-1.07815 0-1.8125-.7656-.7344-.7813-.7344-2.0469 0-1.3125.7656-2.1094.7813-.79686 1.9375-.79686.82815 0 1.51565.45316.70315.4531 1.0625 1.29684.35935.82816.35935 2.40626 0 1.6406-.35935 2.625-.34375.96874-1.0625 1.4844-.70315.5-1.64065.5-1.0156 0-1.6562-.5469-.64065-.5625-.76565-1.5781zm4.3125-3.7969q0-.90626-.48435-1.4375-.4688-.53126-1.1563-.53126-.7031 0-1.23435.57816-.51565.5625-.51565 1.48434 0 .8125.5 1.32816.5.5156 1.2188.5156.73435 0 1.2031-.5156.46875-.51566.46875-1.4219zm2.53125 1.5469q0-1.5313.3125-2.45316.3125-.9375.9219-1.4375.625-.5 1.5625-.5.6875 0 1.2031.28126.53125.28124.875.8125.34375.5156.53125 1.2656.1875.75.1875 2.0313 0 1.5156-.3125 2.4375-.29685.92184-.92185 1.4375-.6094.5-1.5625.5-1.2344 0-1.95315-.89066-.84375-1.0625-.84375-3.48434zm1.0781 0q0 2.10934.5 2.8125.5.7031 1.2188.7031.73435 0 1.2187-.7031.5-.70316.5-2.8125 0-2.125-.5-2.8125-.48435-.70316-1.23435-.70316-.71875 0-1.15625.60936-.5469.7813-.5469 2.9063zm9.2969 4.23434v-2.0625h-3.71875v-.96874l3.92185-5.5625h.8594v5.5625h1.15625v.96874h-1.15625v2.0625zm0-3.03124v-3.8594l-2.6875 3.8594z" fill="#ea4335"/>
  <g fill="#000">
    <path d="m559.1094 642.05v-7.57814h-2.82815v-1.01562h6.8125v1.01562h-2.84375v7.57814zm4.6875 0v-8.59376h1.04685v3.07812q.73435-.84376 1.85935-.84376.70315 0 1.20315.28126.51565.26564.73435.75.2188.46874.2188 1.39064v3.9375h-1.0469v-3.9375q0-.7969-.34375-1.15626-.34375-.35938-.96875-.35938-.46875 0-.8906.25-.4063.23438-.5938.65624-.17185.40626-.17185 1.14064v3.40626zm6.98435 0v-6.21876h.95315v.9375q.35935-.65624.6562-.85938.3125-.21876.6875-.21876.5313 0 1.07815.32814l-.35935.98436q-.39065-.23436-.76565-.23436-.35935 0-.64065.21876-.2656.2031-.375.5781-.1875.5625-.1875 1.21876v3.26564zm8.26565-2 1.0937.125q-.25.9531-.9531 1.48436-.7031.53124-1.78125.53124-1.35935 0-2.17185-.84374-.7969-.84376-.7969-2.35936 0-1.5625.8125-2.4219.8125-.875 2.09375-.875 1.25 0 2.03125.84376.7969.84374.7969 2.39064 0 .09374 0 .28124h-4.64065q.0625 1.03126.57815 1.57812.5156.53124 1.29685.53124.57815 0 .98435-.29686.4219-.3125.6563-.96874zm-3.45315-1.70314h3.46875q-.0625-.79686-.3906-1.1875-.51565-.60936-1.3125-.60936-.7344 0-1.2344.48436-.4844.48438-.53125 1.3125zm10.26565 2.9375q-.5938.5-1.14065.70314-.53125.2031-1.15625.2031-1.03125 0-1.5781-.5-.5469-.5-.5469-1.28124 0-.45312.2031-.82812.20315-.39064.5469-.60938.34375-.23436.7656-.34376.2969-.09374.9375-.17186 1.26565-.14064 1.875-.35938 0-.21876 0-.26562 0-.65624-.29685-.92188-.40625-.34376-1.20315-.34376-.73435 0-1.0937.26564-.3594.25-.5313.90626l-1.0312-.14064q.1406-.65626.4687-1.0625.32815-.40626.9375-.625.6094-.21876 1.4063-.21876.79685 0 1.29685.1875.5.1875.73435.46876.2344.28124.32815.71874.04685.26564.04685.96876v1.40624q0 1.46876.0625 1.8594.07815.3906.2813.75h-1.1094q-.15625-.32814-.2031-.76564zm-.0938-2.35936q-.5781.23436-1.7187.40624-.6563.09376-.9219.21876-.2656.10936-.4219.3281-.1406.21876-.1406.5 0 .4219.3125.70314.3281.28126.9375.28126.6094 0 1.0781-.26564.4844-.26562.70315-.73436.17185-.3594.17185-1.0469zm7.0625 3.125v-.78126q-.5937.92186-1.73435.92186-.75 0-1.375-.40624-.625-.42186-.96875-1.15626-.34375-.73436-.34375-1.6875 0-.92186.3125-1.6875.3125-.7656.9375-1.15624.625-.40626 1.39065-.40626.5625 0 1 .2344.4375.23436.7187.60936v-3.07812h1.0469v8.59376zm-3.3281-3.1094q0 1.20314.5 1.7969.5.5781 1.1875.5781.6875 0 1.1719-.5625.48435-.5625.48435-1.71874 0-1.28126-.5-1.875-.48435-.59376-1.20315-.59376-.7031 0-1.17185.57814-.46875.5625-.46875 1.79686zm5.875 1.25 1.03125-.15624q.09375.625.48435.95314.4063.3281 1.14065.3281.71875 0 1.0625-.28124.35935-.29686.35935-.70312 0-.35938-.3125-.5625-.2187-.14064-1.0781-.35938-1.15625-.29686-1.6094-.5-.4375-.21876-.67185-.59376-.23435-.375-.23435-.84374 0-.40626.1875-.76562.1875-.35938.5156-.59374.25-.1719.6719-.2969.42185-.125.92185-.125.71875 0 1.26565.21876.5625.20314.8281.5625.2656.35938.3594.95314l-1.0313.1406q-.0625-.46874-.4062-.73436-.32815-.28124-.95315-.28124-.71875 0-1.03125.25-.3125.23436-.3125.5625 0 .2031.125.35936.1406.17188.40625.28124.15625.0625.9375.26564 1.125.3125 1.5625.5.4375.1875.6875.54686.25.3594.25.90626 0 .53124-.3125 1-.29685.45314-.875.71874-.57815.25-1.3125.25-1.21875 0-1.85935-.5-.625-.5156-.7969-1.5z"/>
    <path d="m44.94999 366.86356h-8.59375v-6.20313h1.015624v5.0625h2.625v-4.75h1.015626v4.75h2.921874v-5.26563h1.015626zm0-8.09376h-5.40625v.9375h-.8125v-.9375h-.671876q-.625 0-.921874-.10937-.421876-.15625-.671876-.53125-.25-.39062-.25-1.07812 0-.45313.109376-.98438l.90625.15625q-.046876.32813-.046876.625 0 .48437.203126.6875.203124.1875.765624.1875h.578126v-1.21875h.8125v1.21875h5.40625zm0-3h-5.40625v.9375h-.8125v-.9375h-.671876q-.625 0-.921874-.10937-.421876-.15625-.671876-.53125-.25-.39062-.25-1.07812 0-.45313.109376-.98438l.90625.15625q-.046876.32813-.046876.625 0 .48437.203126.6875.203124.1875.765624.1875h.578126v-1.21875h.8125v1.21875h5.40625zm-7.375-2.75h-1.21875v-1.0625h1.21875zm7.375 0h-6.21875v-1.0625h6.21875zm-2.28125-7.0625.140624-1.03124q1.0625.17187 1.671876.875.609374.70312.609374 1.71874 0 1.28126-.828124 2.0625-.84375.76563-2.40625.76563-1 0-1.75-.32813-.765626-.34374-1.140626-1.01562-.375-.6875-.375-1.5 0-1 .515626-1.64062.5-.65626 1.453124-.84376l.15625 1.03126q-.625.14062-.9375.51562-.328124.375-.328124.90625 0 .79687.578124 1.29687.5625.5 1.796876.5 1.265624 0 1.828124-.48437.5625-.48437.5625-1.25 0-.625-.375-1.03125-.375-.42188-1.171874-.54688zm-5.09375-1.9375h-1.21875v-1.0625h1.21875zm7.375 0h-6.21875v-1.0625h6.21875zm-2-7.25.125-1.09374q.953124.25 1.484374.95312.53125.70312.53125 1.78125 0 1.35937-.84375 2.17187-.84375.79688-2.359374.79688-1.5625 0-2.421876-.8125-.875-.8125-.875-2.09375 0-1.25.84375-2.03125.84375-.79688 2.390626-.79688.09375 0 .28125 0v4.64063q1.03125-.0625 1.578124-.57813.53125-.51562.53125-1.29687 0-.57813-.296874-.98437-.3125-.42188-.96875-.65626zm-1.703126 3.45313v-3.46875q-.796874.0625-1.1875.39062-.609374.51563-.609374 1.3125 0 .73438.484374 1.23438.484376.48438 1.3125.53125zm3.703126-6.20313h-6.21875v-.9375h.875q-1.015626-.6875-1.015626-1.98437 0-.5625.203126-1.03125.203124-.48438.53125-.71875.328124-.23437.765624-.32813.296876-.04687 1.03125-.04687h3.828126v1.04687h-3.78125q-.65625 0-.96875.125-.3125.125-.5.4375-.203126.3125-.203126.73438 0 .67188.4375 1.17188.421876.48437 1.609376.48437h3.40625zm-2.28125-11.0625.140624-1.03124q1.0625.17187 1.671876.875.609374.70312.609374 1.71874 0 1.28126-.828124 2.0625-.84375.76563-2.40625.76563-1 0-1.75-.32813-.765626-.34374-1.140626-1.01562-.375-.6875-.375-1.5 0-1 .515626-1.64062.5-.65626 1.453124-.84376l.15625 1.03126q-.625.14062-.9375.51562-.328124.375-.328124.90625 0 .79687.578124 1.29687.5625.5 1.796876.5 1.265624 0 1.828124-.48437.5625-.48437.5625-1.25 0-.625-.375-1.03125-.375-.42188-1.171874-.54688zm4.671874-1.89062-.984374.125q.09375-.34375.09375-.60938 0-.34374-.125-.54687-.109376-.21875-.3125-.35937-.171876-.09376-.796876-.32813-.078124-.01563-.25-.09375l-6.234374 2.375v-1.14062l3.59375-1.29688q.6875-.25 1.453124-.45312-.734374-.1875-1.421874-.4375l-3.625-1.32813v-1.04687l6.328124 2.35937q1.015626.39063 1.40625.59375.53125.28125.765626.65625.25.35937.25.85937 0 .29688-.140626.67188z"/>
    <path d="m70.45 535.54156q0-1.53126.3125-2.45312.3125-.9375.92187-1.4375.625-.5 1.5625-.5.6875 0 1.20313.28126.53125.28124.875.8125.34375.5156.53125 1.2656.1875.75.1875 2.03126 0 1.51564-.3125 2.4375-.29688.92188-.92188 1.4375-.60937.5-1.5625.5-1.23437 0-1.95312-.89062-.84375-1.0625-.84375-3.48438zm1.07812 0q0 2.10938.5 2.8125.5.70314 1.21875.70314.73438 0 1.21875-.70314.5-.70312.5-2.8125 0-2.125-.5-2.8125-.48437-.70312-1.23437-.70312-.71875 0-1.15625.60936-.54688.78126-.54688 2.90626zm6.48438 4.23438v-1.20314h1.20312v1.20314q0 .65626-.23437 1.0625-.23438.42186-.73438.64062l-.29687-.45312q.32812-.14064.48437-.4375.15625-.28124.1875-.8125zm2.5-7.46874v-1.01564h5.5625v.82814q-.8125.875-1.625 2.3281-.79688 1.4375-1.23438 2.96876-.32812 1.07814-.40625 2.35938h-1.09375q.01563-1.01564.39063-2.45314.39062-1.4375 1.09375-2.7656.71875-1.32814 1.53125-2.25z"/>
    <path d="m70.45 420.9934q0-1.53124.3125-2.45312.3125-.9375.92187-1.4375.625-.5 1.5625-.5.6875 0 1.20313.28125.53125.28125.875.8125.34375.51563.53125 1.26563.1875.75.1875 2.03124 0 1.51563-.3125 2.4375-.29688.92188-.92188 1.4375-.60937.5-1.5625.5-1.23437 0-1.95312-.89062-.84375-1.0625-.84375-3.48438zm1.07812 0q0 2.10938.5 2.8125.5.70313 1.21875.70313.73438 0 1.21875-.70313.5-.70312.5-2.8125 0-2.125-.5-2.8125-.48437-.70312-1.23437-.70312-.71875 0-1.15625.60938-.54688.78124-.54688 2.90624zm6.48438 4.23438v-1.20312h1.20312v1.20312q0 .65625-.23437 1.0625-.23438.42188-.73438.64062l-.29687-.45312q.32812-.14062.48437-.4375.15625-.28125.1875-.8125zm4.0625-4.65625q-.65625-.25-.98438-.6875-.3125-.45313-.3125-1.0625 0-.9375.67188-1.57813.6875-.64062 1.79687-.64062 1.125 0 1.8125.65625.6875.65625.6875 1.59375 0 .59375-.3125 1.03125-.3125.4375-.95312.6875.79687.25 1.20312.82813.40625.57812.40625 1.375 0 1.09374-.78125 1.84374-.76562.75-2.04687.75-1.26563 0-2.04688-.75-.78125-.75-.78125-1.875 0-.84374.42188-1.40624.4375-.5625 1.21875-.76563zm-.21875-1.79687q0 .60937.39062 1 .40625.39062 1.03125.39062.60938 0 1-.375.39063-.39062.39063-.95312 0-.57813-.40625-.96876-.40625-.40624-1-.40624-.60938 0-1.01563.39062-.39062.39062-.39062.92188zm-.32813 3.96874q0 .45313.20313.875.21875.42188.64062.65626.42188.23437.90625.23437.75 0 1.23438-.48437.5-.48438.5-1.23438 0-.76562-.5-1.26562-.5-.5-1.26563-.5-.75 0-1.23437.5-.48438.48437-.48438 1.21874z"/>
    <path d="m70.45 306.44525q0-1.53125.3125-2.45312.3125-.9375.92187-1.4375.625-.5 1.5625-.5.6875 0 1.20313.28125.53125.28125.875.8125.34375.51562.53125 1.26562.1875.75.1875 2.03125 0 1.51563-.3125 2.4375-.29688.92188-.92188 1.4375-.60937.5-1.5625.5-1.23437 0-1.95312-.89062-.84375-1.0625-.84375-3.48438zm1.07812 0q0 2.10938.5 2.8125.5.70313 1.21875.70313.73438 0 1.21875-.70313.5-.70312.5-2.8125 0-2.125-.5-2.8125-.48437-.70312-1.23437-.70312-.71875 0-1.15625.60937-.54688.78125-.54688 2.90625zm6.48438 4.23438v-1.20313h1.20312v1.20313q0 .65625-.23437 1.0625-.23438.42187-.73438.64062l-.29687-.45312q.32812-.14063.48437-.4375.15625-.28125.1875-.8125zm2.59375-1.98438 1.01562-.09375q.125.71875.48438 1.04688.375.3125.9375.3125.48437 0 .84375-.21875.375-.23438.60937-.59375.23438-.375.39063-1 .15625-.64063.15625-1.29688 0-.07812 0-.21875-.3125.5-.85938.82813-.54687.3125-1.1875.3125-1.07812 0-1.8125-.76563-.73437-.78125-.73437-2.04687 0-1.3125.76562-2.10938.78125-.79687 1.9375-.79687.82813 0 1.51563.45312.70312.45313 1.0625 1.29688.35937.82812.35937 2.40625 0 1.64062-.35937 2.625-.34375.96875-1.0625 1.48437-.70313.5-1.64063.5-1.01562 0-1.65625-.54687-.64062-.5625-.76562-1.57813zm4.3125-3.79687q0-.90625-.48438-1.4375-.46875-.53125-1.15625-.53125-.70312 0-1.23437.57812-.51563.5625-.51563 1.48438 0 .8125.5 1.32812.5.51563 1.21875.51563.73438 0 1.20313-.51563.46875-.51562.46875-1.42187z"/>
    <path d="m84.41875 196.13148h-1.04688v-6.71875q-.39062.35938-1.01562.73438-.60938.35937-1.09375.53125v-1.01563q.875-.42187 1.53125-1 .67187-.59375.95312-1.15625h.67188z"/>
    <path d="m74.41875 81.583336h-1.04688v-6.71875q-.39062.359374-1.01562.734374-.60938.359376-1.09375.53125v-1.015624q.875-.421876 1.53125-1 .67187-.59375.95312-1.15625h.67188zm3.59375 0v-1.203126h1.20312v1.203126q0 .65625-.23437 1.0625-.23438.421874-.73438.640624l-.29687-.453124q.32812-.140626.48437-.4375.15625-.28125.1875-.8125zm6.40625 0h-1.04688v-6.71875q-.39062.359374-1.01562.734374-.60938.359376-1.09375.53125v-1.015624q.875-.421876 1.53125-1 .67187-.59375.95312-1.15625h.67188z"/>
    <path d="m191.02875 610.05h-1.04688v-6.71876q-.39062.35936-1.01562.73436-.60938.3594-1.09375.53126v-1.01562q.875-.42188 1.53125-1 .67187-.59374.95312-1.15624h.67188z"/>
    <path d="m386.82687 609.03436v1.01564h-5.6875q0-.375.125-.7344.21875-.5781.6875-1.1406.48438-.5625 1.39063-1.2969 1.40625-1.15624 1.89062-1.8281.5-.6719.5-1.26564 0-.625-.45312-1.04686-.45313-.4375-1.17188-.4375-.76562 0-1.21875.4531-.45312.45314-.46875 1.26564l-1.07812-.10938q.10937-1.21876.82812-1.84376.73438-.6406 1.96875-.6406 1.23438 0 1.95313.6875.71875.6875.71875 1.7031 0 .51564-.21875 1.01564-.20313.48436-.70313 1.04686-.48437.5469-1.60937 1.5-.95313.7969-1.23438 1.09376-.26562.28124-.4375.5625z"/>
    <path d="m578.875 610.05v-2.0625h-3.71875v-.96876l3.92185-5.5625h.8594v5.5625h1.15625v.96876h-1.15625v2.0625zm0-3.03126v-3.85938l-2.6875 3.85938z"/>
    <path d="m771.345 605.39374q-.6563-.25-.9844-.6875-.3125-.45314-.3125-1.0625 0-.9375.6719-1.57814.6875-.6406 1.79685-.6406 1.125 0 1.8125.65624.6875.65626.6875 1.59376 0 .59374-.3125 1.03124-.3125.4375-.95315.6875.7969.25 1.20315.82812.40625.57814.40625 1.375 0 1.09374-.78125 1.84374-.76565.75-2.04685.75-1.26565 0-2.0469-.75-.78125-.75-.78125-1.875 0-.84374.42185-1.40624.4375-.5625 1.2188-.76562zm-.2188-1.79688q0 .60938.39065 1 .40625.39064 1.03125.39064.6094 0 1-.375.3906-.39064.3906-.95314 0-.57812-.4062-.96876-.4063-.40624-1-.40624-.6094 0-1.01565.39064-.39065.3906-.39065.92186zm-.3281 3.96874q0 .45314.2031.875.2188.4219.64065.65626.42185.23438.90625.23438.75 0 1.2344-.48438.5-.48436.5-1.23436 0-.76564-.5-1.26564-.5-.5-1.26565-.5-.75 0-1.23435.5-.4844.48438-.4844 1.21874z"/>
    <path d="m964.40875 610.05h-1.04685v-6.71876q-.39065.35936-1.01565.73436-.60935.3594-1.09375.53126v-1.01562q.875-.42188 1.53125-1 .67185-.59374.95315-1.15624h.67185zm8.5-6.4844-1.04685.07814q-.14065-.625-.39065-.90624-.4375-.45314-1.0625-.45314-.5 0-.89065.28124-.48435.375-.7812 1.07814-.2813.6875-.2969 1.96876.375-.57814.9219-.8594.5625-.28124 1.17185-.28124 1.04685 0 1.78125.78124.75.78126.75 2 0 .8125-.3594 1.51564-.3437.6875-.9531 1.0625-.6094.35936-1.375.35936-1.3281 0-2.15625-.96874-.82815-.96876-.82815-3.1875 0-2.5.9219-3.625.7969-.98436 2.15625-.98436 1.01565 0 1.65625.5781.65625.5625.78125 1.5625zm-4.29685 3.70314q0 .54686.2187 1.04686.2344.4844.64065.75.42185.26564.89065.26564.6562 0 1.1406-.53124.4844-.5469.4844-1.46876 0-.89064-.4844-1.40624-.46875-.51564-1.1875-.51564-.71875 0-1.21875.51564-.48435.5156-.48435 1.34374z"/>
  </g>
  <path d="m415.5 40.95c0 3.31371-2.68628 6-6 6s-6-2.68629-6-6 2.68628-6 6-6 6 2.68629 6 6z" fill="#4285f4"/>
  <path d="m424 42.7 1.10938-.09375q.125.8125.5625 1.21875.45312.40625 1.09374.40625.75 0 1.28126-.578124.53124-.578126.53124-1.515626 0-.90625-.51562-1.421874-.5-.53125-1.32812-.53125-.5 0-.92188.234374-.40625.234376-.64062.59375l-.98438-.125.82812-4.40625h4.28126v1h-3.4375l-.45313 2.3125q.76563-.546874 1.60937-.546874 1.125 0 1.89063.78125.78125.78125.78125 2.015624 0 1.15625-.67188 2.015626-.82812 1.03125-2.25 1.03125-1.17187 0-1.92187-.65625-.73437-.65625-.84375-1.734376zm7-1.984374q0-1.53125.3125-2.453126.3125-.9375.92188-1.4375.625-.5 1.5625-.5.6875 0 1.20312.28125.53125.28125.875.8125.34375.515626.53125 1.265626.1875.75.1875 2.03125 0 1.515624-.3125 2.4375-.29687.921874-.92187 1.4375-.60938.5-1.5625.5-1.23438 0-1.95313-.890626-.84375-1.0625-.84375-3.484374zm1.07812 0q0 2.109374.5 2.8125.5.703124 1.21876.703124.73437 0 1.21874-.703124.5-.703126.5-2.8125 0-2.125-.5-2.8125-.48437-.703126-1.23437-.703126-.71875 0-1.15625.609376-.54688.78125-.54688 2.90625zm5.92188 0q0-1.53125.3125-2.453126.3125-.9375.92188-1.4375.625-.5 1.5625-.5.6875 0 1.20312.28125.53125.28125.875.8125.34375.515626.53125 1.265626.1875.75.1875 2.03125 0 1.515624-.3125 2.4375-.29687.921874-.92187 1.4375-.60938.5-1.5625.5-1.23438 0-1.95313-.890626-.84375-1.0625-.84375-3.484374zm1.07812 0q0 2.109374.5 2.8125.5.703124 1.21876.703124.73437 0 1.21874-.703124.5-.703126.5-2.8125 0-2.125-.5-2.8125-.48437-.703126-1.23437-.703126-.71875 0-1.15625.609376-.54688.78125-.54688 2.90625zm5.92188 0q0-1.53125.3125-2.453126.3125-.9375.92188-1.4375.625-.5 1.5625-.5.6875 0 1.20312.28125.53125.28125.875.8125.34375.515626.53125 1.265626.1875.75.1875 2.03125 0 1.515624-.3125 2.4375-.29687.921874-.92187 1.4375-.60938.5-1.5625.5-1.23438 0-1.95313-.890626-.84375-1.0625-.84375-3.484374zm1.07812 0q0 2.109374.5 2.8125.5.703124 1.21876.703124.73437 0 1.21874-.703124.5-.703126.5-2.8125 0-2.125-.5-2.8125-.48437-.703126-1.23437-.703126-.71875 0-1.15625.609376-.54688.78125-.54688 2.90625zm5.92188 0q0-1.53125.3125-2.453126.3125-.9375.92188-1.4375.625-.5 1.5625-.5.6875 0 1.20312.28125.53125.28125.875.8125.34375.515626.53125 1.265626.1875.75.1875 2.03125 0 1.515624-.3125 2.4375-.29687.921874-.92187 1.4375-.60938.5-1.5625.5-1.23438 0-1.95313-.890626-.84375-1.0625-.84375-3.484374zm1.07812 0q0 2.109374.5 2.8125.5.703124 1.21876.703124.73437 0 1.21874-.703124.5-.703126.5-2.8125 0-2.125-.5-2.8125-.48437-.703126-1.23437-.703126-.71875 0-1.15625.609376-.54688.78125-.54688 2.90625zm5.92188 0q0-1.53125.3125-2.453126.3125-.9375.92188-1.4375.625-.5 1.5625-.5.6875 0 1.20312.28125.53125.28125.875.8125.34375.515626.53125 1.265626.1875.75.1875 2.03125 0 1.515624-.3125 2.4375-.29687.921874-.92187 1.4375-.60938.5-1.5625.5-1.23438 0-1.95313-.890626-.84375-1.0625-.84375-3.484374zm1.07812 0q0 2.109374.5 2.8125.5.703124 1.21876.703124.73437 0 1.21874-.703124.5-.703126.5-2.8125 0-2.125-.5-2.8125-.48437-.703126-1.23437-.703126-.71875 0-1.15625.609376-.54688.78125-.54688 2.90625zm5.92188 0q0-1.53125.3125-2.453126.3125-.9375.92188-1.4375.625-.5 1.5625-.5.6875 0 1.20312.28125.53125.28125.875.8125.34375.515626.53125 1.265626.1875.75.1875 2.03125 0 1.515624-.3125 2.4375-.29687.921874-.92187 1.4375-.60938.5-1.5625.5-1.23438 0-1.95313-.890626-.84375-1.0625-.84375-3.484374zm1.07812 0q0 2.109374.5 2.8125.5.703124 1.21876.703124.73437 0 1.21874-.703124.5-.703126.5-2.8125 0-2.125-.5-2.8125-.48437-.703126-1.23437-.703126-.71875 0-1.15625.609376-.54688.78125-.54688 2.90625zm5.92188 0q0-1.53125.3125-2.453126.3125-.9375.92188-1.4375.625-.5 1.5625-.5.6875 0 1.20312.28125.53125.28125.875.8125.34375.515626.53125 1.265626.1875.75.1875 2.03125 0 1.515624-.3125 2.4375-.29687.921874-.92187 1.4375-.60938.5-1.5625.5-1.23438 0-1.95313-.890626-.84375-1.0625-.84375-3.484374zm1.07812 0q0 2.109374.5 2.8125.5.703124 1.21876.703124.73437 0 1.21874-.703124.5-.703126.5-2.8125 0-2.125-.5-2.8125-.48437-.703126-1.23437-.703126-.71875 0-1.15625.609376-.54688.78125-.54688 2.90625zm5.92188 0q0-1.53125.3125-2.453126.3125-.9375.92188-1.4375.625-.5 1.5625-.5.6875 0 1.20312.28125.53125.28125.875.8125.34375.515626.53125 1.265626.1875.75.1875 2.03125 0 1.515624-.3125 2.4375-.29687.921874-.92187 1.4375-.60938.5-1.5625.5-1.23438 0-1.95313-.890626-.84375-1.0625-.84375-3.484374zm1.07812 0q0 2.109374.5 2.8125.5.703124 1.21876.703124.73437 0 1.21874-.703124.5-.703126.5-2.8125 0-2.125-.5-2.8125-.48437-.703126-1.23437-.703126-.71875 0-1.15625.609376-.54688.78125-.54688 2.90625zm8.96876 1.46875 1.0625-.09375q.07812.65625.35937 1.0625.28125.40625.85937.671874.59376.25 1.32813.25.64063 0 1.14063-.1875.5-.203124.73437-.53125.25-.34375.25-.734374 0-.40625-.23437-.703126-.23438-.3125-.76563-.515624-.35937-.140626-1.54687-.421876-1.17188-.28125-1.64063-.53125-.625-.328124-.92187-.796874-.29688-.484376-.29688-1.078126 0-.640624.35938-1.203124.375-.578126 1.07812-.859376.71875-.296874 1.57812-.296874.95313 0 1.6875.3125.73438.296874 1.125.90625.39063.59375.42188 1.34375l-1.09375.078124q-.09375-.8125-.60937-1.21875-.5-.421874-1.48438-.421874-1.03125 0-1.5.375-.46875.375-.46875.90625 0 .46875.32813.765624.32812.296876 1.70312.609376 1.39062.3125 1.90625.546874.75.359376 1.10937.890626.35938.515624.35938 1.21875 0 .6875-.39062 1.296874-.39063.59375-1.125.9375-.73438.328126-1.65626.328126-1.17187 0-1.96874-.328126-.78126-.34375-1.23438-1.03125-.4375-.6875-.45312-1.546874zm12.3125 2q-.59376.5-1.14063.703124-.53125.203126-1.15625.203126-1.03125 0-1.57812-.5-.54688-.5-.54688-1.28125 0-.453126.20312-.828126.20313-.390624.54688-.609374.34375-.234376.76562-.34375.29688-.09375.9375-.171876 1.26563-.140624 1.875-.359374 0-.21875 0-.265626 0-.65625-.29687-.921874-.40625-.34375-1.20313-.34375-.73437 0-1.09374.265624-.35938.25-.53126.90625l-1.03124-.140624q.14062-.65625.46874-1.0625.32813-.40625.9375-.625.60938-.21875 1.40626-.21875.79687 0 1.29687.1875.5.1875.73437.46875.23438.28125.32813.71875.04687.265624.04687.96875v1.40625q0 1.46875.0625 1.859374.07813.390626.28126.75h-1.10938q-.15625-.328124-.20312-.765624zm-.09376-2.359376q-.57812.234376-1.71874.40625-.65626.09375-.92188.21875-.26562.109376-.42188.328126-.14062.21875-.14062.5 0 .421874.3125.703124.32812.28125.9375.28125.60938 0 1.07812-.265624.48438-.265626.70313-.734376.17187-.359374.17187-1.046874zm3.03126 3.125v-6.21875h.9375v.875q.29687-.46875.78124-.734374.48438-.28125 1.10938-.28125.6875 0 1.125.28125.45312.28125.625.796874.75-1.078124 1.92188-1.078124.93752 0 1.42187.515624.5.5.5 1.578126v4.265624h-1.04685v-3.921874q0-.625-.1094-.90625-.09375-.28125-.3594-.453126-.2656-.171874-.6406-.171874-.65625 0-1.09375.4375-.42187.4375-.42187 1.40625v3.609374h-1.0625v-4.046874q0-.703126-.26563-1.046876-.25-.359374-.82813-.359374-.45312 0-.82812.234374-.375.234376-.54688.6875-.17187.453126-.17187 1.296876v3.234374zm10.00002 2.390626v-8.609376h.9531v.796876q.34375-.46875.7656-.703126.4375-.234374 1.0469-.234374.7969 0 1.40625.40625.60935.40625.90625 1.15625.3125.75.3125 1.640624 0 .953126-.34375 1.71875-.32815.765626-.98435 1.171876-.6563.40625-1.375.40625-.5313 0-.95315-.21875-.42185-.234376-.6875-.5625v3.03125zm.9531-5.46875q0 1.203124.4844 1.78125.48435.5625 1.17185.5625.70315 0 1.20315-.59375.5-.59375.5-1.84375 0-1.1875-.4844-1.765626-.4844-.59375-1.1719-.59375-.67185 0-1.1875.625-.5156.625-.5156 1.828126zm6.0156 3.078124v-8.59375h1.0625v8.59375zm7.2813-2 1.0937.125q-.25.953126-.9531 1.484376-.7031.53125-1.78125.53125-1.35935 0-2.17185-.84375-.7969-.84375-.7969-2.359376 0-1.5625.8125-2.421874.8125-.875 2.09375-.875 1.25 0 2.03125.84375.7969.84375.7969 2.390624 0 .09375 0 .28125h-4.64065q.0625 1.03125.57815 1.578126.5156.53125 1.29685.53125.57815 0 .98435-.296876.4219-.3125.6563-.96875zm-3.45315-1.703124h3.46875q-.0625-.796876-.3906-1.1875-.51565-.609376-1.3125-.609376-.7344 0-1.2344.484376-.4844.484374-.53125 1.3125zm5.78125 1.84375 1.03125-.15625q.09375.625.48435.953124.4063.328126 1.14065.328126.71875 0 1.0625-.28125.35935-.296876.35935-.703126 0-.359374-.3125-.5625-.2187-.140624-1.0781-.359374-1.15625-.296876-1.6094-.5-.4375-.21875-.67185-.59375-.23435-.375-.23435-.84375 0-.40625.1875-.765626.1875-.359374.5156-.59375.25-.171874.6719-.296874.42185-.125.92185-.125.71875 0 1.26565.21875.5625.203124.8281.5625.2656.359374.3594.953124l-1.0313.140626q-.0625-.46875-.4062-.734376-.32815-.28125-.95315-.28125-.71875 0-1.03125.25-.3125.234376-.3125.5625 0 .203126.125.359376.1406.171874.40625.28125.15625.0625.9375.265624 1.125.3125 1.5625.5.4375.1875.6875.546876.25.359374.25.90625 0 .53125-.3125 1-.29685.453124-.875.71875-.57815.25-1.3125.25-1.21875 0-1.85935-.5-.625-.515626-.7969-1.5z" fill="#1a1a1a"/>
  <path d="m565.5 40.95c0 3.31371-2.6863 6-6 6s-6-2.68629-6-6 2.6863-6 6-6 6 2.68629 6 6z" fill="#ea4335"/>
  <path d="m577.96875 44.95h-1.04685v-6.71875q-.39065.359376-1.01565.734376-.60935.359374-1.09375.53125v-1.015626q.875-.421874 1.53125-1 .67185-.59375.95315-1.15625h.67185zm3.03125-4.234374q0-1.53125.3125-2.453126.3125-.9375.9219-1.4375.625-.5 1.5625-.5.6875 0 1.2031.28125.53125.28125.875.8125.34375.515626.53125 1.265626.1875.75.1875 2.03125 0 1.515624-.3125 2.4375-.29685.921874-.92185 1.4375-.6094.5-1.5625.5-1.2344 0-1.95315-.890626-.84375-1.0625-.84375-3.484374zm1.0781 0q0 2.109374.5 2.8125.5.703124 1.2188.703124.73435 0 1.2187-.703124.5-.703126.5-2.8125 0-2.125-.5-2.8125-.48435-.703126-1.23435-.703126-.71875 0-1.15625.609376-.5469.78125-.5469 2.90625zm5.9219 0q0-1.53125.3125-2.453126.3125-.9375.9219-1.4375.625-.5 1.5625-.5.6875 0 1.2031.28125.53125.28125.875.8125.34375.515626.53125 1.265626.1875.75.1875 2.03125 0 1.515624-.3125 2.4375-.29685.921874-.92185 1.4375-.6094.5-1.5625.5-1.2344 0-1.95315-.890626-.84375-1.0625-.84375-3.484374zm1.0781 0q0 2.109374.5 2.8125.5.703124 1.2188.703124.73435 0 1.2187-.703124.5-.703126.5-2.8125 0-2.125-.5-2.8125-.48435-.703126-1.23435-.703126-.71875 0-1.15625.609376-.5469.78125-.5469 2.90625zm5.9219 0q0-1.53125.3125-2.453126.3125-.9375.9219-1.4375.625-.5 1.5625-.5.6875 0 1.2031.28125.53125.28125.875.8125.34375.515626.53125 1.265626.1875.75.1875 2.03125 0 1.515624-.3125 2.4375-.29685.921874-.92185 1.4375-.6094.5-1.5625.5-1.2344 0-1.95315-.890626-.84375-1.0625-.84375-3.484374zm1.0781 0q0 2.109374.5 2.8125.5.703124 1.2188.703124.73435 0 1.2187-.703124.5-.703126.5-2.8125 0-2.125-.5-2.8125-.48435-.703126-1.23435-.703126-.71875 0-1.15625.609376-.5469.78125-.5469 2.90625zm5.9219 0q0-1.53125.3125-2.453126.3125-.9375.9219-1.4375.625-.5 1.5625-.5.6875 0 1.2031.28125.53125.28125.875.8125.34375.515626.53125 1.265626.1875.75.1875 2.03125 0 1.515624-.3125 2.4375-.29685.921874-.92185 1.4375-.6094.5-1.5625.5-1.2344 0-1.95315-.890626-.84375-1.0625-.84375-3.484374zm1.0781 0q0 2.109374.5 2.8125.5.703124 1.2188.703124.73435 0 1.2187-.703124.5-.703126.5-2.8125 0-2.125-.5-2.8125-.48435-.703126-1.23435-.703126-.71875 0-1.15625.609376-.5469.78125-.5469 2.90625zm5.9219 0q0-1.53125.3125-2.453126.3125-.9375.9219-1.4375.625-.5 1.5625-.5.6875 0 1.2031.28125.53125.28125.875.8125.34375.515626.53125 1.265626.1875.75.1875 2.03125 0 1.515624-.3125 2.4375-.29685.921874-.92185 1.4375-.6094.5-1.5625.5-1.2344 0-1.95315-.890626-.84375-1.0625-.84375-3.484374zm1.0781 0q0 2.109374.5 2.8125.5.703124 1.2188.703124.73435 0 1.2187-.703124.5-.703126.5-2.8125 0-2.125-.5-2.8125-.48435-.703126-1.23435-.703126-.71875 0-1.15625.609376-.5469.78125-.5469 2.90625zm5.9219 0q0-1.53125.3125-2.453126.3125-.9375.9219-1.4375.625-.5 1.5625-.5.6875 0 1.2031.28125.53125.28125.875.8125.34375.515626.53125 1.265626.1875.75.1875 2.03125 0 1.515624-.3125 2.4375-.29685.921874-.92185 1.4375-.6094.5-1.5625.5-1.2344 0-1.95315-.890626-.84375-1.0625-.84375-3.484374zm1.0781 0q0 2.109374.5 2.8125.5.703124 1.2188.703124.73435 0 1.2187-.703124.5-.703126.5-2.8125 0-2.125-.5-2.8125-.48435-.703126-1.23435-.703126-.71875 0-1.15625.609376-.5469.78125-.5469 2.90625zm5.9219 0q0-1.53125.3125-2.453126.3125-.9375.9219-1.4375.625-.5 1.5625-.5.6875 0 1.2031.28125.53125.28125.875.8125.34375.515626.53125 1.265626.1875.75.1875 2.03125 0 1.515624-.3125 2.4375-.29685.921874-.92185 1.4375-.6094.5-1.5625.5-1.2344 0-1.95315-.890626-.84375-1.0625-.84375-3.484374zm1.0781 0q0 2.109374.5 2.8125.5.703124 1.2188.703124.73435 0 1.2187-.703124.5-.703126.5-2.8125 0-2.125-.5-2.8125-.48435-.703126-1.23435-.703126-.71875 0-1.15625.609376-.5469.78125-.5469 2.90625zm5.9219 0q0-1.53125.3125-2.453126.3125-.9375.9219-1.4375.625-.5 1.5625-.5.6875 0 1.2031.28125.53125.28125.875.8125.34375.515626.53125 1.265626.1875.75.1875 2.03125 0 1.515624-.3125 2.4375-.29685.921874-.92185 1.4375-.6094.5-1.5625.5-1.2344 0-1.95315-.890626-.84375-1.0625-.84375-3.484374zm1.0781 0q0 2.109374.5 2.8125.5.703124 1.2188.703124.73435 0 1.2187-.703124.5-.703126.5-2.8125 0-2.125-.5-2.8125-.48435-.703126-1.23435-.703126-.71875 0-1.15625.609376-.5469.78125-.5469 2.90625zm5.9219 0q0-1.53125.3125-2.453126.3125-.9375.9219-1.4375.625-.5 1.5625-.5.6875 0 1.2031.28125.53125.28125.875.8125.34375.515626.53125 1.265626.1875.75.1875 2.03125 0 1.515624-.3125 2.4375-.29685.921874-.92185 1.4375-.6094.5-1.5625.5-1.2344 0-1.95315-.890626-.84375-1.0625-.84375-3.484374zm1.0781 0q0 2.109374.5 2.8125.5.703124 1.2188.703124.73435 0 1.2187-.703124.5-.703126.5-2.8125 0-2.125-.5-2.8125-.48435-.703126-1.23435-.703126-.71875 0-1.15625.609376-.5469.78125-.5469 2.90625zm8.9688 1.46875 1.0625-.09375q.0781.65625.35935 1.0625.28125.40625.85935.671874.5938.25 1.32815.25.64065 0 1.14065-.1875.5-.203124.73435-.53125.25-.34375.25-.734374 0-.40625-.23435-.703126-.2344-.3125-.76565-.515624-.35935-.140626-1.54685-.421876-1.1719-.28125-1.64065-.53125-.625-.328124-.92185-.796874-.2969-.484376-.2969-1.078126 0-.640624.3594-1.203124.375-.578126 1.0781-.859376.71875-.296874 1.5781-.296874.95315 0 1.6875.3125.7344.296874 1.125.90625.39065.59375.4219 1.34375l-1.09375.078124q-.09375-.8125-.60935-1.21875-.5-.421874-1.4844-.421874-1.03125 0-1.5.375-.46875.375-.46875.90625 0 .46875.32815.765624.3281.296876 1.7031.609376 1.3906.3125 1.90625.546874.75.359376 1.10935.890626.3594.515624.3594 1.21875 0 .6875-.3906 1.296874-.39065.59375-1.125.9375-.7344.328126-1.6563.328126-1.17185 0-1.9687-.328126-.7813-.34375-1.2344-1.03125-.4375-.6875-.4531-1.546874zm12.3125 2q-.5938.5-1.14065.703124-.53125.203126-1.15625.203126-1.03125 0-1.5781-.5-.5469-.5-.5469-1.28125 0-.453126.2031-.828126.20315-.390624.5469-.609374.34375-.234376.7656-.34375.2969-.09375.9375-.171876 1.26565-.140624 1.875-.359374 0-.21875 0-.265626 0-.65625-.29685-.921874-.40625-.34375-1.20315-.34375-.73435 0-1.0937.265624-.3594.25-.5313.90625l-1.0312-.140624q.1406-.65625.4687-1.0625.32815-.40625.9375-.625.6094-.21875 1.4063-.21875.79685 0 1.29685.1875.5.1875.73435.46875.2344.28125.32815.71875.04685.265624.04685.96875v1.40625q0 1.46875.0625 1.859374.07815.390626.2813.75h-1.1094q-.15625-.328124-.2031-.765624zm-.0938-2.359376q-.5781.234376-1.7187.40625-.6563.09375-.9219.21875-.2656.109376-.4219.328126-.1406.21875-.1406.5 0 .421874.3125.703124.3281.28125.9375.28125.6094 0 1.0781-.265624.4844-.265626.70315-.734376.17185-.359374.17185-1.046874zm3.0313 3.125v-6.21875h.9375v.875q.29685-.46875.7812-.734374.4844-.28125 1.1094-.28125.6875 0 1.125.28125.4531.28125.625.796874.75-1.078124 1.9219-1.078124.9375 0 1.42185.515624.5.5.5 1.578126v4.265624h-1.04685v-3.921874q0-.625-.1094-.90625-.09375-.28125-.3594-.453126-.2656-.171874-.6406-.171874-.65625 0-1.09375.4375-.42185.4375-.42185 1.40625v3.609374h-1.0625v-4.046874q0-.703126-.26565-1.046876-.25-.359374-.82815-.359374-.4531 0-.8281.234374-.375.234376-.5469.6875-.17185.453126-.17185 1.296876v3.234374zm10 2.390626v-8.609376h.9531v.796876q.34375-.46875.7656-.703126.4375-.234374 1.0469-.234374.7969 0 1.40625.40625.60935.40625.90625 1.15625.3125.75.3125 1.640624 0 .953126-.34375 1.71875-.32815.765626-.98435 1.171876-.6563.40625-1.375.40625-.5313 0-.95315-.21875-.42185-.234376-.6875-.5625v3.03125zm.9531-5.46875q0 1.203124.4844 1.78125.48435.5625 1.17185.5625.70315 0 1.20315-.59375.5-.59375.5-1.84375 0-1.1875-.4844-1.765626-.4844-.59375-1.1719-.59375-.67185 0-1.1875.625-.5156.625-.5156 1.828126zm6.0156 3.078124v-8.59375h1.0625v8.59375zm7.2813-2 1.0937.125q-.25.953126-.9531 1.484376-.7031.53125-1.78125.53125-1.35935 0-2.17185-.84375-.7969-.84375-.7969-2.359376 0-1.5625.8125-2.421874.8125-.875 2.09375-.875 1.25 0 2.03125.84375.7969.84375.7969 2.390624 0 .09375 0 .28125h-4.64065q.0625 1.03125.57815 1.578126.5156.53125 1.29685.53125.57815 0 .98435-.296876.4219-.3125.6563-.96875zm-3.45315-1.703124h3.46875q-.0625-.796876-.3906-1.1875-.51565-.609376-1.3125-.609376-.7344 0-1.2344.484376-.4844.484374-.53125 1.3125zm5.78125 1.84375 1.03125-.15625q.09375.625.48435.953124.4063.328126 1.14065.328126.71875 0 1.0625-.28125.35935-.296876.35935-.703126 0-.359374-.3125-.5625-.2187-.140624-1.0781-.359374-1.15625-.296876-1.6094-.5-.4375-.21875-.67185-.59375-.23435-.375-.23435-.84375 0-.40625.1875-.765626.1875-.359374.5156-.59375.25-.171874.6719-.296874.42185-.125.92185-.125.71875 0 1.26565.21875.5625.203124.8281.5625.2656.359374.3594.953124l-1.0313.140626q-.0625-.46875-.4062-.734376-.32815-.28125-.95315-.28125-.71875 0-1.03125.25-.3125.234376-.3125.5625 0 .203126.125.359376.1406.171874.40625.28125.15625.0625.9375.265624 1.125.3125 1.5625.5.4375.1875.6875.546876.25.359374.25.90625 0 .53125-.3125 1-.29685.453124-.875.71875-.57815.25-1.3125.25-1.21875 0-1.85935-.5-.625-.515626-.7969-1.5z" fill="#1a1a1a"/>
</svg>
