<?xml version="1.0"?>
<svg xmlns="http://www.w3.org/2000/svg" xmlns:xlink="http://www.w3.org/1999/xlink" fill="none" stroke-linecap="square" stroke-miterlimit="10" viewBox="0 0 1098 679">
  <clipPath id="a">
    <path d="m92.95 77.583336h971.1v515.466664h-971.1z"/>
  </clipPath>
  <path d="m0 0h1098v679h-1098z" fill="#fff"/>
  <g stroke-linecap="butt">
    <g stroke="#ccc">
      <path d="m92.5 593.5h972"/>
      <path d="m92.5 421.5h972"/>
      <path d="m92.5 249.5h972"/>
      <path d="m92.5 77.5h972"/>
    </g>
    <g stroke-width="2">
      <path clip-path="url(#a)" d="m190.06 77.583336 194.22 109.209034 194.22-87.150776 194.22 30.517556 194.22 371.54995" stroke="#4285f4"/>
      <path clip-path="url(#a)" d="m190.06 77.583336 194.22 205.319264 194.22-178.876034 194.22 241.716204 194.22 193.64083" stroke="#ea4335"/>
    </g>
  </g>
  <g fill="#4285f4">
    <path clip-path="url(#a)" d="m196.06 77.583336c0 3.313704-2.6863 6-6 6-3.31371 0-6-2.686296-6-6 0-3.313716 2.68629-6 6-6 3.3137 0 6 2.686284 6 6z"/>
    <path clip-path="url(#a)" d="m390.28 186.79237c0 3.31371-2.68628 6-6 6s-6-2.68629-6-6c0-3.3137 2.68628-6 6-6s6 2.6863 6 6z"/>
    <path clip-path="url(#a)" d="m584.5 99.641594c0 3.313706-2.6863 6-6 6s-6-2.686294-6-6c0-3.313714 2.6863-6 6-6s6 2.686286 6 6z"/>
    <path clip-path="url(#a)" d="m778.72 130.15915c0 3.3137-2.6863 6-6 6s-6-2.6863-6-6c0-3.313714 2.6863-6.00001 6-6.00001s6 2.686296 6 6.00001z"/>
    <path clip-path="url(#a)" d="m972.94 501.7091c0 3.31373-2.6863 6-6 6s-6-2.68627-6-6c0-3.31368 2.6863-6 6-6s6 2.68632 6 6z"/>
  </g>
  <g fill="#ea4335">
    <path clip-path="url(#a)" d="m196.06 77.583336c0 3.313704-2.6863 6-6 6-3.31371 0-6-2.686296-6-6 0-3.313716 2.68629-6 6-6 3.3137 0 6 2.686284 6 6z"/>
    <path clip-path="url(#a)" d="m390.28 282.9026c0 3.31368-2.68628 6-6 6s-6-2.68632-6-6c0-3.31373 2.68628-6 6-6s6 2.68627 6 6z"/>
    <path clip-path="url(#a)" d="m584.5 104.026566c0 3.313704-2.6863 6-6 6s-6-2.686296-6-6c0-3.313716 2.6863-6 6-6s6 2.686284 6 6z"/>
    <path clip-path="url(#a)" d="m778.72 345.74277c0 3.31373-2.6863 6-6 6s-6-2.68627-6-6c0-3.31369 2.6863-6 6-6s6 2.68631 6 6z"/>
    <path clip-path="url(#a)" d="m972.94 539.3836c0 3.3137-2.6863 6-6 6s-6-2.6863-6-6 2.6863-6 6-6 6 2.6863 6 6z"/>
  </g>
  <path d="m348.5182 206.77846q0-1.53125.3125-2.45313.3125-.9375.92186-1.4375.625-.5 1.5625-.5.6875 0 1.20314.28125.53124.28125.875.8125.34374.51563.53124 1.26563.1875.75.1875 2.03125 0 1.51562-.3125 2.4375-.29688.92187-.92188 1.4375-.60936.5-1.5625.5-1.23436 0-1.95312-.89063-.84374-1.0625-.84374-3.48437zm1.0781 0q0 2.10937.5 2.8125.5.70312 1.21876.70312.73438 0 1.21874-.70312.5-.70313.5-2.8125 0-2.125-.5-2.8125-.48436-.70313-1.23436-.70313-.71874 0-1.15624.60938-.5469.78125-.5469 2.90625zm6.4844 4.23437v-1.20312h1.2031v1.20312q0 .65625-.23436 1.0625-.23438.42188-.73438.64063l-.29686-.45313q.3281-.14062.48436-.4375.15624-.28125.1875-.8125zm4.0625-4.65625q-.65626-.25-.9844-.6875-.3125-.45312-.3125-1.0625 0-.9375.6719-1.57812.6875-.64063 1.79686-.64063 1.125 0 1.8125.65625.6875.65625.6875 1.59375 0 .59375-.3125 1.03125-.3125.4375-.95312.6875.79686.25 1.20312.82813.40624.57812.40624 1.375 0 1.09375-.78124 1.84375-.76562.75-2.04686.75-1.26564 0-2.0469-.75-.78124-.75-.78124-1.875 0-.84375.42188-1.40625.4375-.5625 1.21876-.76563zm-.21876-1.79687q0 .60937.39062 1 .40624.39062 1.03124.39062.6094 0 1-.375.39064-.39062.39064-.95312 0-.57813-.40624-.96875-.40626-.40625-1-.40625-.6094 0-1.01564.39062-.39062.39063-.39062.92188zm-.32814 3.96875q0 .45312.20314.875.21876.42187.64062.65625.42188.23437.90624.23437.75 0 1.2344-.48437.5-.48438.5-1.23438 0-.76562-.5-1.26562-.5-.5-1.26564-.5-.75 0-1.23436.5-.4844.48437-.4844 1.21875zm5.9844-4.98438v-1.01562h5.5625v.82812q-.8125.875-1.625 2.32813-.7969 1.4375-1.2344 2.96875-.3281 1.07812-.40624 2.35937h-1.09376q.01564-1.01562.39064-2.45312.39062-1.4375 1.09376-2.76563.71874-1.32812 1.53124-2.25zm12.48436 6.45313v1.01562h-5.6875q0-.375.125-.73437.21874-.57813.6875-1.14063.48438-.5625 1.39064-1.29687 1.40624-1.15625 1.8906-1.82813.5-.67187.5-1.26562 0-.625-.4531-1.04688-.45314-.4375-1.1719-.4375-.7656 0-1.21874.45313-.45312.45312-.46876 1.26562l-1.0781-.10937q.10936-1.21875.8281-1.84375.7344-.64063 1.96876-.64063 1.23438 0 1.95314.6875.71874.6875.71874 1.70313 0 .51562-.21874 1.01562-.20314.48438-.70314 1.04688-.48436.54687-1.60936 1.5-.95314.79687-1.2344 1.09375-.2656.28125-.4375.5625zm3.07814-3.64063q-.65626-.25-.9844-.6875-.3125-.45312-.3125-1.0625 0-.9375.6719-1.57812.6875-.64063 1.79686-.64063 1.125 0 1.8125.65625.6875.65625.6875 1.59375 0 .59375-.3125 1.03125-.3125.4375-.95312.6875.79686.25 1.20312.82813.40624.57812.40624 1.375 0 1.09375-.78124 1.84375-.76562.75-2.04686.75-1.26564 0-2.0469-.75-.78124-.75-.78124-1.875 0-.84375.42188-1.40625.4375-.5625 1.21876-.76563zm-.21876-1.79687q0 .60937.39062 1 .40624.39062 1.03124.39062.6094 0 1-.375.39064-.39062.39064-.95312 0-.57813-.40624-.96875-.40626-.40625-1-.40625-.6094 0-1.01564.39062-.39062.39063-.39062.92188zm-.32814 3.96875q0 .45312.20314.875.21876.42187.64062.65625.42188.23437.90624.23437.75 0 1.2344-.48437.5-.48438.5-1.23438 0-.76562-.5-1.26562-.5-.5-1.26564-.5-.75 0-1.23436.5-.4844.48437-.4844 1.21875zm7.5469-2.17188q-.65626-.25-.9844-.6875-.3125-.45312-.3125-1.0625 0-.9375.6719-1.57812.6875-.64063 1.79686-.64063 1.125 0 1.8125.65625.6875.65625.6875 1.59375 0 .59375-.3125 1.03125-.3125.4375-.95312.6875.79686.25 1.20312.82813.40624.57812.40624 1.375 0 1.09375-.78124 1.84375-.76562.75-2.04686.75-1.26564 0-2.0469-.75-.78124-.75-.78124-1.875 0-.84375.42188-1.40625.4375-.5625 1.21876-.76563zm-.21876-1.79687q0 .60937.39062 1 .40624.39062 1.03124.39062.6094 0 1-.375.39064-.39062.39064-.95312 0-.57813-.40624-.96875-.40626-.40625-1-.40625-.6094 0-1.01564.39062-.39062.39063-.39062.92188zm-.32814 3.96875q0 .45312.20314.875.21876.42187.64062.65625.42188.23437.90624.23437.75 0 1.2344-.48437.5-.48438.5-1.23438 0-.76562-.5-1.26562-.5-.5-1.26564-.5-.75 0-1.23436.5-.4844.48437-.4844 1.21875zm9.89064 2.48437h-1.04688v-6.71875q-.39062.35938-1.01562.73438-.60938.35937-1.09374.53125v-1.01563q.875-.42187 1.53124-1 .67186-.59375.95312-1.15625h.67188zm3.03126-2.26562 1.0625-.14063q.17186.89063.60936 1.29688.4375.39062 1.0625.39062.75 0 1.26564-.51562.5156-.51563.5156-1.28125 0-.71875-.48436-1.1875-.46874-.48438-1.20314-.48438-.29686 0-.75.125l.125-.9375q.1094.01563.1719.01563.67186 0 1.2031-.34375.5469-.35938.5469-1.09375 0-.57813-.39064-.95313-.39062-.39062-1.01562-.39062-.60938 0-1.03124.39062-.40626.39063-.51564 1.15625l-1.0625-.1875q.1875-1.04687.875-1.625.6875-.59375 1.70314-.59375.7031 0 1.29686.3125.59374.29688.90624.8125.3125.51563.3125 1.10938 0 .54687-.29686 1.01562-.29688.45313-.875.71875.75.17188 1.17186.73438.4219.54687.4219 1.39062 0 1.125-.82814 1.90625-.8125.78125-2.0625.78125-1.125 0-1.875-.67187-.75-.6875-.85936-1.75zm7 .01562 1.10936-.09375q.125.8125.5625 1.21875.45314.40625 1.09374.40625.75 0 1.28126-.57812.53124-.57813.53124-1.51563 0-.90625-.5156-1.42187-.5-.53125-1.32814-.53125-.5 0-.92186.23437-.40626.23438-.64064.59375l-.98436-.125.8281-4.40625h4.28126v1h-3.4375l-.45312 2.3125q.76562-.54687 1.60936-.54687 1.125 0 1.89064.78125.78126.78125.78126 2.01562 0 1.15625-.6719 2.01563-.8281 1.03125-2.25 1.03125-1.17186 0-1.92186-.65625-.73438-.65625-.84374-1.73438zm7 0 1.10936-.09375q.125.8125.5625 1.21875.45314.40625 1.09374.40625.75 0 1.28126-.57812.53124-.57813.53124-1.51563 0-.90625-.5156-1.42187-.5-.53125-1.32814-.53125-.5 0-.92186.23437-.40626.23438-.64064.59375l-.98436-.125.8281-4.40625h4.28126v1h-3.4375l-.45312 2.3125q.76562-.54687 1.60936-.54687 1.125 0 1.89064.78125.78126.78125.78126 2.01562 0 1.15625-.6719 2.01563-.8281 1.03125-2.25 1.03125-1.17186 0-1.92186-.65625-.73438-.65625-.84374-1.73438zm7.15624.26563 1.01562-.09375q.125.71875.48438 1.04687.375.3125.9375.3125.48436 0 .84376-.21875.375-.23437.60936-.59375.23438-.375.39064-1 .15624-.64062.15624-1.29687 0-.07813 0-.21875-.3125.5-.85938.82812-.54686.3125-1.1875.3125-1.07812 0-1.8125-.76562-.73436-.78125-.73436-2.04688 0-1.3125.7656-2.10937.78126-.79688 1.9375-.79688.82814 0 1.51564.45313.70312.45312 1.0625 1.29687.35936.82813.35936 2.40625 0 1.64063-.35936 2.625-.34374.96875-1.0625 1.48438-.70314.5-1.64064.5-1.0156 0-1.65624-.54688-.64062-.5625-.76562-1.57812zm4.3125-3.79688q0-.90625-.48438-1.4375-.46876-.53125-1.15626-.53125-.7031 0-1.23436.57813-.51564.5625-.51564 1.48437 0 .8125.5 1.32813.5.51562 1.21876.51562.73438 0 1.20314-.51562.46874-.51563.46874-1.42188z" stroke="#fff" stroke-linecap="round" stroke-linejoin="round" stroke-width="3"/>
  <path d="m348.5182 206.77846q0-1.53125.3125-2.45313.3125-.9375.92186-1.4375.625-.5 1.5625-.5.6875 0 1.20314.28125.53124.28125.875.8125.34374.51563.53124 1.26563.1875.75.1875 2.03125 0 1.51562-.3125 2.4375-.29688.92187-.92188 1.4375-.60936.5-1.5625.5-1.23436 0-1.95312-.89063-.84374-1.0625-.84374-3.48437zm1.0781 0q0 2.10937.5 2.8125.5.70312 1.21876.70312.73438 0 1.21874-.70312.5-.70313.5-2.8125 0-2.125-.5-2.8125-.48436-.70313-1.23436-.70313-.71874 0-1.15624.60938-.5469.78125-.5469 2.90625zm6.4844 4.23437v-1.20312h1.2031v1.20312q0 .65625-.23436 1.0625-.23438.42188-.73438.64063l-.29686-.45313q.3281-.14062.48436-.4375.15624-.28125.1875-.8125zm4.0625-4.65625q-.65626-.25-.9844-.6875-.3125-.45312-.3125-1.0625 0-.9375.6719-1.57812.6875-.64063 1.79686-.64063 1.125 0 1.8125.65625.6875.65625.6875 1.59375 0 .59375-.3125 1.03125-.3125.4375-.95312.6875.79686.25 1.20312.82813.40624.57812.40624 1.375 0 1.09375-.78124 1.84375-.76562.75-2.04686.75-1.26564 0-2.0469-.75-.78124-.75-.78124-1.875 0-.84375.42188-1.40625.4375-.5625 1.21876-.76563zm-.21876-1.79687q0 .60937.39062 1 .40624.39062 1.03124.39062.6094 0 1-.375.39064-.39062.39064-.95312 0-.57813-.40624-.96875-.40626-.40625-1-.40625-.6094 0-1.01564.39062-.39062.39063-.39062.92188zm-.32814 3.96875q0 .45312.20314.875.21876.42187.64062.65625.42188.23437.90624.23437.75 0 1.2344-.48437.5-.48438.5-1.23438 0-.76562-.5-1.26562-.5-.5-1.26564-.5-.75 0-1.23436.5-.4844.48437-.4844 1.21875zm5.9844-4.98438v-1.01562h5.5625v.82812q-.8125.875-1.625 2.32813-.7969 1.4375-1.2344 2.96875-.3281 1.07812-.40624 2.35937h-1.09376q.01564-1.01562.39064-2.45312.39062-1.4375 1.09376-2.76563.71874-1.32812 1.53124-2.25zm12.48436 6.45313v1.01562h-5.6875q0-.375.125-.73437.21874-.57813.6875-1.14063.48438-.5625 1.39064-1.29687 1.40624-1.15625 1.8906-1.82813.5-.67187.5-1.26562 0-.625-.4531-1.04688-.45314-.4375-1.1719-.4375-.7656 0-1.21874.45313-.45312.45312-.46876 1.26562l-1.0781-.10937q.10936-1.21875.8281-1.84375.7344-.64063 1.96876-.64063 1.23438 0 1.95314.6875.71874.6875.71874 1.70313 0 .51562-.21874 1.01562-.20314.48438-.70314 1.04688-.48436.54687-1.60936 1.5-.95314.79687-1.2344 1.09375-.2656.28125-.4375.5625zm3.07814-3.64063q-.65626-.25-.9844-.6875-.3125-.45312-.3125-1.0625 0-.9375.6719-1.57812.6875-.64063 1.79686-.64063 1.125 0 1.8125.65625.6875.65625.6875 1.59375 0 .59375-.3125 1.03125-.3125.4375-.95312.6875.79686.25 1.20312.82813.40624.57812.40624 1.375 0 1.09375-.78124 1.84375-.76562.75-2.04686.75-1.26564 0-2.0469-.75-.78124-.75-.78124-1.875 0-.84375.42188-1.40625.4375-.5625 1.21876-.76563zm-.21876-1.79687q0 .60937.39062 1 .40624.39062 1.03124.39062.6094 0 1-.375.39064-.39062.39064-.95312 0-.57813-.40624-.96875-.40626-.40625-1-.40625-.6094 0-1.01564.39062-.39062.39063-.39062.92188zm-.32814 3.96875q0 .45312.20314.875.21876.42187.64062.65625.42188.23437.90624.23437.75 0 1.2344-.48437.5-.48438.5-1.23438 0-.76562-.5-1.26562-.5-.5-1.26564-.5-.75 0-1.23436.5-.4844.48437-.4844 1.21875zm7.5469-2.17188q-.65626-.25-.9844-.6875-.3125-.45312-.3125-1.0625 0-.9375.6719-1.57812.6875-.64063 1.79686-.64063 1.125 0 1.8125.65625.6875.65625.6875 1.59375 0 .59375-.3125 1.03125-.3125.4375-.95312.6875.79686.25 1.20312.82813.40624.57812.40624 1.375 0 1.09375-.78124 1.84375-.76562.75-2.04686.75-1.26564 0-2.0469-.75-.78124-.75-.78124-1.875 0-.84375.42188-1.40625.4375-.5625 1.21876-.76563zm-.21876-1.79687q0 .60937.39062 1 .40624.39062 1.03124.39062.6094 0 1-.375.39064-.39062.39064-.95312 0-.57813-.40624-.96875-.40626-.40625-1-.40625-.6094 0-1.01564.39062-.39062.39063-.39062.92188zm-.32814 3.96875q0 .45312.20314.875.21876.42187.64062.65625.42188.23437.90624.23437.75 0 1.2344-.48437.5-.48438.5-1.23438 0-.76562-.5-1.26562-.5-.5-1.26564-.5-.75 0-1.23436.5-.4844.48437-.4844 1.21875zm9.89064 2.48437h-1.04688v-6.71875q-.39062.35938-1.01562.73438-.60938.35937-1.09374.53125v-1.01563q.875-.42187 1.53124-1 .67186-.59375.95312-1.15625h.67188zm3.03126-2.26562 1.0625-.14063q.17186.89063.60936 1.29688.4375.39062 1.0625.39062.75 0 1.26564-.51562.5156-.51563.5156-1.28125 0-.71875-.48436-1.1875-.46874-.48438-1.20314-.48438-.29686 0-.75.125l.125-.9375q.1094.01563.1719.01563.67186 0 1.2031-.34375.5469-.35938.5469-1.09375 0-.57813-.39064-.95313-.39062-.39062-1.01562-.39062-.60938 0-1.03124.39062-.40626.39063-.51564 1.15625l-1.0625-.1875q.1875-1.04687.875-1.625.6875-.59375 1.70314-.59375.7031 0 1.29686.3125.59374.29688.90624.8125.3125.51563.3125 1.10938 0 .54687-.29686 1.01562-.29688.45313-.875.71875.75.17188 1.17186.73438.4219.54687.4219 1.39062 0 1.125-.82814 1.90625-.8125.78125-2.0625.78125-1.125 0-1.875-.67187-.75-.6875-.85936-1.75zm7 .01562 1.10936-.09375q.125.8125.5625 1.21875.45314.40625 1.09374.40625.75 0 1.28126-.57812.53124-.57813.53124-1.51563 0-.90625-.5156-1.42187-.5-.53125-1.32814-.53125-.5 0-.92186.23437-.40626.23438-.64064.59375l-.98436-.125.8281-4.40625h4.28126v1h-3.4375l-.45312 2.3125q.76562-.54687 1.60936-.54687 1.125 0 1.89064.78125.78126.78125.78126 2.01562 0 1.15625-.6719 2.01563-.8281 1.03125-2.25 1.03125-1.17186 0-1.92186-.65625-.73438-.65625-.84374-1.73438zm7 0 1.10936-.09375q.125.8125.5625 1.21875.45314.40625 1.09374.40625.75 0 1.28126-.57812.53124-.57813.53124-1.51563 0-.90625-.5156-1.42187-.5-.53125-1.32814-.53125-.5 0-.92186.23437-.40626.23438-.64064.59375l-.98436-.125.8281-4.40625h4.28126v1h-3.4375l-.45312 2.3125q.76562-.54687 1.60936-.54687 1.125 0 1.89064.78125.78126.78125.78126 2.01562 0 1.15625-.6719 2.01563-.8281 1.03125-2.25 1.03125-1.17186 0-1.92186-.65625-.73438-.65625-.84374-1.73438zm7.15624.26563 1.01562-.09375q.125.71875.48438 1.04687.375.3125.9375.3125.48436 0 .84376-.21875.375-.23437.60936-.59375.23438-.375.39064-1 .15624-.64062.15624-1.29687 0-.07813 0-.21875-.3125.5-.85938.82812-.54686.3125-1.1875.3125-1.07812 0-1.8125-.76562-.73436-.78125-.73436-2.04688 0-1.3125.7656-2.10937.78126-.79688 1.9375-.79688.82814 0 1.51564.45313.70312.45312 1.0625 1.29687.35936.82813.35936 2.40625 0 1.64063-.35936 2.625-.34374.96875-1.0625 1.48438-.70314.5-1.64064.5-1.0156 0-1.65624-.54688-.64062-.5625-.76562-1.57812zm4.3125-3.79688q0-.90625-.48438-1.4375-.46876-.53125-1.15626-.53125-.7031 0-1.23436.57813-.51564.5625-.51564 1.48437 0 .8125.5 1.32813.5.51562 1.21876.51562.73438 0 1.20314-.51562.46874-.51563.46874-1.42188z" fill="#4285f4"/>
  <path d="m790.793 119.56057q0-1.53125.3125-2.453125.3125-.9375.9219-1.4375.625-.5 1.5625-.5.6875 0 1.2031.28125.5313.28125.875.8125.3438.515625.5313 1.265625.1875.75.1875 2.03125 0 1.515625-.3125 2.4375-.2969.921875-.9219 1.4375-.6094.5-1.5625.5-1.2344 0-1.9531-.890625-.8438-1.0625-.8438-3.484375zm1.07815 0q0 2.109375.5 2.8125.5.703125 1.21875.703125.7344 0 1.21875-.703125.5-.703125.5-2.8125 0-2.125-.5-2.8125-.48435-.703125-1.23435-.703125-.7188 0-1.1563.609375-.54685.78125-.54685 2.90625zm6.48435 4.234375v-1.203125h1.20315v1.203125q0 .65625-.23435 1.0625-.2344.421875-.7344.640625l-.2969-.453125q.32815-.140625.4844-.4375.15625-.28125.1875-.8125zm2.5938-1.984375 1.0156-.09375q.125.71875.4844 1.046875.375.3125.9375.3125.48435 0 .8437-.21875.375-.234375.6094-.59375.2344-.375.3906-1 .1563-.640625.1563-1.296875 0-.078125 0-.21875-.3125.5-.8594.828125-.5469.3125-1.1875.3125-1.0781 0-1.8125-.765625-.7344-.78125-.7344-2.046875 0-1.3125.76565-2.109375.78125-.796875 1.9375-.796875.82815 0 1.51565.453125.7031.453125 1.0625 1.296875.35935.828125.35935 2.40625 0 1.640625-.35935 2.625-.3438.96875-1.0625 1.484375-.70315.5-1.64065.5-1.01565 0-1.65625-.546875-.6406-.5625-.7656-1.578125zm4.3125-3.796875q0-.90625-.4844-1.4375-.46875-.53125-1.15625-.53125-.70315 0-1.23435.578125-.51565.5625-.51565 1.484375 0 .8125.5 1.328125.5.515625 1.21875.515625.7344 0 1.2031-.515625.4688-.515625.4688-1.421875zm2.5312 3.515625 1.0625-.140625q.1719.890625.6094 1.296875.4375.390625 1.0625.390625.75 0 1.2656-.515625.51565-.515625.51565-1.28125 0-.71875-.48435-1.1875-.4688-.484375-1.20315-.484375-.29685 0-.75.125l.125-.9375q.10935.015625.17185.015625.6719 0 1.20315-.34375.54685-.359375.54685-1.09375 0-.578125-.3906-.953125-.3906-.390625-1.0156-.390625-.6094 0-1.0313.390625-.4062.390625-.5156 1.15625l-1.0625-.1875q.1875-1.046875.875-1.625.6875-.59375 1.7031-.59375.70315 0 1.2969.3125.59375.296875.90625.8125.3125.515625.3125 1.109375 0 .546875-.29685 1.015625-.2969.453125-.875.71875.75.171875 1.17185.734375.42185.546875.42185 1.390625 0 1.125-.8281 1.90625-.8125.78125-2.0625.78125-1.125 0-1.875-.671875-.75-.6875-.8594-1.75zm8.625-2.390625q-.6562-.25-.98435-.6875-.3125-.453125-.3125-1.0625 0-.9375.67185-1.578125.6875-.640625 1.7969-.640625 1.125 0 1.8125.65625.6875.65625.6875 1.59375 0 .59375-.3125 1.03125-.3125.4375-.9531.6875.79685.25 1.2031.828125.40625.578125.40625 1.375 0 1.09375-.78125 1.84375-.7656.75-2.0469.75-1.2656 0-2.04685-.75-.78125-.75-.78125-1.875 0-.84375.4219-1.40625.4375-.5625 1.2187-.765625zm-.2187-1.796875q0 .609375.3906 1 .40625.390625 1.03125.390625.60935 0 1-.375.39065-.390625.39065-.953125 0-.578125-.4063-.96875-.4062-.40625-1-.40625-.60935 0-1.0156.390625-.3906.390625-.3906.921875zm-.32815 3.96875q0 .453125.20315.875.2187.421875.6406.65625.4219.234375.90625.234375.75 0 1.23435-.484375.5-.484375.5-1.234375 0-.765625-.5-1.265625-.5-.5-1.2656-.5-.75 0-1.2344.5-.48435.484375-.48435 1.21875zm7.54685-2.171875q-.6562-.25-.98435-.6875-.3125-.453125-.3125-1.0625 0-.9375.67185-1.578125.6875-.640625 1.7969-.640625 1.125 0 1.8125.65625.6875.65625.6875 1.59375 0 .59375-.3125 1.03125-.3125.4375-.9531.6875.79685.25 1.2031.828125.40625.578125.40625 1.375 0 1.09375-.78125 1.84375-.7656.75-2.0469.75-1.2656 0-2.04685-.75-.78125-.75-.78125-1.875 0-.84375.4219-1.40625.4375-.5625 1.2187-.765625zm-.2187-1.796875q0 .609375.3906 1 .40625.390625 1.03125.390625.60935 0 1-.375.39065-.390625.39065-.953125 0-.578125-.4063-.96875-.4062-.40625-1-.40625-.60935 0-1.0156.390625-.3906.390625-.3906.921875zm-.32815 3.96875q0 .453125.20315.875.2187.421875.6406.65625.4219.234375.90625.234375.75 0 1.23435-.484375.5-.484375.5-1.234375 0-.765625-.5-1.265625-.5-.5-1.2656-.5-.75 0-1.2344.5-.48435.484375-.48435 1.21875zm5.92185-1.75q0-1.53125.3125-2.453125.3125-.9375.9219-1.4375.625-.5 1.5625-.5.6875 0 1.2031.28125.5313.28125.875.8125.3438.515625.5313 1.265625.1875.75.1875 2.03125 0 1.515625-.3125 2.4375-.2969.921875-.9219 1.4375-.6094.5-1.5625.5-1.2344 0-1.9531-.890625-.8438-1.0625-.8438-3.484375zm1.07815 0q0 2.109375.5 2.8125.5.703125 1.21875.703125.7344 0 1.21875-.703125.5-.703125.5-2.8125 0-2.125-.5-2.8125-.48435-.703125-1.23435-.703125-.7188 0-1.1563.609375-.54685.78125-.54685 2.90625zm11.46875 3.21875v1.015625h-5.6875q0-.375.125-.734375.21875-.578125.6875-1.140625.4844-.5625 1.3906-1.296875 1.4063-1.15625 1.89065-1.828125.5-.671875.5-1.265625 0-.625-.45315-1.046875-.4531-.4375-1.17185-.4375-.76565 0-1.21875.453125-.4531.453125-.46875 1.265625l-1.07815-.109375q.1094-1.21875.82815-1.84375.73435-.640625 1.96875-.640625 1.2344 0 1.9531.6875.7188.6875.7188 1.703125 0 .515625-.2188 1.015625-.2031.484375-.7031 1.046875-.4844.546875-1.6094 1.5-.9531.796875-1.23435 1.09375-.26565.28125-.4375.5625zm1.4531-3.21875q0-1.53125.3125-2.453125.3125-.9375.9219-1.4375.625-.5 1.5625-.5.6875 0 1.2031.28125.5313.28125.875.8125.3438.515625.5313 1.265625.1875.75.1875 2.03125 0 1.515625-.3125 2.4375-.2969.921875-.9219 1.4375-.6094.5-1.5625.5-1.2344 0-1.9531-.890625-.8438-1.0625-.8438-3.484375zm1.07815 0q0 2.109375.5 2.8125.5.703125 1.21875.703125.7344 0 1.21875-.703125.5-.703125.5-2.8125 0-2.125-.5-2.8125-.48435-.703125-1.23435-.703125-.7188 0-1.1563.609375-.54685.78125-.54685 2.90625zm7.54685-.421875q-.6562-.25-.98435-.6875-.3125-.453125-.3125-1.0625 0-.9375.67185-1.578125.6875-.640625 1.7969-.640625 1.125 0 1.8125.65625.6875.65625.6875 1.59375 0 .59375-.3125 1.03125-.3125.4375-.9531.6875.79685.25 1.2031.828125.40625.578125.40625 1.375 0 1.09375-.78125 1.84375-.7656.75-2.0469.75-1.2656 0-2.04685-.75-.78125-.75-.78125-1.875 0-.84375.4219-1.40625.4375-.5625 1.2187-.765625zm-.2187-1.796875q0 .609375.3906 1 .40625.390625 1.03125.390625.60935 0 1-.375.39065-.390625.39065-.953125 0-.578125-.4063-.96875-.4062-.40625-1-.40625-.60935 0-1.0156.390625-.3906.390625-.3906.921875zm-.32815 3.96875q0 .453125.20315.875.2187.421875.6406.65625.4219.234375.90625.234375.75 0 1.23435-.484375.5-.484375.5-1.234375 0-.765625-.5-1.265625-.5-.5-1.2656-.5-.75 0-1.2344.5-.48435.484375-.48435 1.21875zm5.92185.21875 1.0625-.140625q.1719.890625.6094 1.296875.4375.390625 1.0625.390625.75 0 1.2656-.515625.51565-.515625.51565-1.28125 0-.71875-.48435-1.1875-.4688-.484375-1.20315-.484375-.29685 0-.75.125l.125-.9375q.10935.015625.17185.015625.6719 0 1.20315-.34375.54685-.359375.54685-1.09375 0-.578125-.3906-.953125-.3906-.390625-1.0156-.390625-.6094 0-1.0313.390625-.4062.390625-.5156 1.15625l-1.0625-.1875q.1875-1.046875.875-1.625.6875-.59375 1.7031-.59375.70315 0 1.2969.3125.59375.296875.90625.8125.3125.515625.3125 1.109375 0 .546875-.29685 1.015625-.2969.453125-.875.71875.75.171875 1.17185.734375.42185.546875.42185 1.390625 0 1.125-.8281 1.90625-.8125.78125-2.0625.78125-1.125 0-1.875-.671875-.75-.6875-.8594-1.75zm7 0 1.0625-.140625q.1719.890625.6094 1.296875.4375.390625 1.0625.390625.75 0 1.2656-.515625.51565-.515625.51565-1.28125 0-.71875-.48435-1.1875-.4688-.484375-1.20315-.484375-.29685 0-.75.125l.125-.9375q.10935.015625.17185.015625.6719 0 1.20315-.34375.54685-.359375.54685-1.09375 0-.578125-.3906-.953125-.3906-.390625-1.0156-.390625-.6094 0-1.0313.390625-.4062.390625-.5156 1.15625l-1.0625-.1875q.1875-1.046875.875-1.625.6875-.59375 1.7031-.59375.70315 0 1.2969.3125.59375.296875.90625.8125.3125.515625.3125 1.109375 0 .546875-.29685 1.015625-.2969.453125-.875.71875.75.171875 1.17185.734375.42185.546875.42185 1.390625 0 1.125-.8281 1.90625-.8125.78125-2.0625.78125-1.125 0-1.875-.671875-.75-.6875-.8594-1.75z" stroke="#fff" stroke-linecap="round" stroke-linejoin="round" stroke-width="3"/>
  <path d="m790.793 119.56057q0-1.53125.3125-2.453125.3125-.9375.9219-1.4375.625-.5 1.5625-.5.6875 0 1.2031.28125.5313.28125.875.8125.3438.515625.5313 1.265625.1875.75.1875 2.03125 0 1.515625-.3125 2.4375-.2969.921875-.9219 1.4375-.6094.5-1.5625.5-1.2344 0-1.9531-.890625-.8438-1.0625-.8438-3.484375zm1.07815 0q0 2.109375.5 2.8125.5.703125 1.21875.703125.7344 0 1.21875-.703125.5-.703125.5-2.8125 0-2.125-.5-2.8125-.48435-.703125-1.23435-.703125-.7188 0-1.1563.609375-.54685.78125-.54685 2.90625zm6.48435 4.234375v-1.203125h1.20315v1.203125q0 .65625-.23435 1.0625-.2344.421875-.7344.640625l-.2969-.453125q.32815-.140625.4844-.4375.15625-.28125.1875-.8125zm2.5938-1.984375 1.0156-.09375q.125.71875.4844 1.046875.375.3125.9375.3125.48435 0 .8437-.21875.375-.234375.6094-.59375.2344-.375.3906-1 .1563-.640625.1563-1.296875 0-.078125 0-.21875-.3125.5-.8594.828125-.5469.3125-1.1875.3125-1.0781 0-1.8125-.765625-.7344-.78125-.7344-2.046875 0-1.3125.76565-2.109375.78125-.796875 1.9375-.796875.82815 0 1.51565.453125.7031.453125 1.0625 1.296875.35935.828125.35935 2.40625 0 1.640625-.35935 2.625-.3438.96875-1.0625 1.484375-.70315.5-1.64065.5-1.01565 0-1.65625-.546875-.6406-.5625-.7656-1.578125zm4.3125-3.796875q0-.90625-.4844-1.4375-.46875-.53125-1.15625-.53125-.70315 0-1.23435.578125-.51565.5625-.51565 1.484375 0 .8125.5 1.328125.5.515625 1.21875.515625.7344 0 1.2031-.515625.4688-.515625.4688-1.421875zm2.5312 3.515625 1.0625-.140625q.1719.890625.6094 1.296875.4375.390625 1.0625.390625.75 0 1.2656-.515625.51565-.515625.51565-1.28125 0-.71875-.48435-1.1875-.4688-.484375-1.20315-.484375-.29685 0-.75.125l.125-.9375q.10935.015625.17185.015625.6719 0 1.20315-.34375.54685-.359375.54685-1.09375 0-.578125-.3906-.953125-.3906-.390625-1.0156-.390625-.6094 0-1.0313.390625-.4062.390625-.5156 1.15625l-1.0625-.1875q.1875-1.046875.875-1.625.6875-.59375 1.7031-.59375.70315 0 1.2969.3125.59375.296875.90625.8125.3125.515625.3125 1.109375 0 .546875-.29685 1.015625-.2969.453125-.875.71875.75.171875 1.17185.734375.42185.546875.42185 1.390625 0 1.125-.8281 1.90625-.8125.78125-2.0625.78125-1.125 0-1.875-.671875-.75-.6875-.8594-1.75zm8.625-2.390625q-.6562-.25-.98435-.6875-.3125-.453125-.3125-1.0625 0-.9375.67185-1.578125.6875-.640625 1.7969-.640625 1.125 0 1.8125.65625.6875.65625.6875 1.59375 0 .59375-.3125 1.03125-.3125.4375-.9531.6875.79685.25 1.2031.828125.40625.578125.40625 1.375 0 1.09375-.78125 1.84375-.7656.75-2.0469.75-1.2656 0-2.04685-.75-.78125-.75-.78125-1.875 0-.84375.4219-1.40625.4375-.5625 1.2187-.765625zm-.2187-1.796875q0 .609375.3906 1 .40625.390625 1.03125.390625.60935 0 1-.375.39065-.390625.39065-.953125 0-.578125-.4063-.96875-.4062-.40625-1-.40625-.60935 0-1.0156.390625-.3906.390625-.3906.921875zm-.32815 3.96875q0 .453125.20315.875.2187.421875.6406.65625.4219.234375.90625.234375.75 0 1.23435-.484375.5-.484375.5-1.234375 0-.765625-.5-1.265625-.5-.5-1.2656-.5-.75 0-1.2344.5-.48435.484375-.48435 1.21875zm7.54685-2.171875q-.6562-.25-.98435-.6875-.3125-.453125-.3125-1.0625 0-.9375.67185-1.578125.6875-.640625 1.7969-.640625 1.125 0 1.8125.65625.6875.65625.6875 1.59375 0 .59375-.3125 1.03125-.3125.4375-.9531.6875.79685.25 1.2031.828125.40625.578125.40625 1.375 0 1.09375-.78125 1.84375-.7656.75-2.0469.75-1.2656 0-2.04685-.75-.78125-.75-.78125-1.875 0-.84375.4219-1.40625.4375-.5625 1.2187-.765625zm-.2187-1.796875q0 .609375.3906 1 .40625.390625 1.03125.390625.60935 0 1-.375.39065-.390625.39065-.953125 0-.578125-.4063-.96875-.4062-.40625-1-.40625-.60935 0-1.0156.390625-.3906.390625-.3906.921875zm-.32815 3.96875q0 .453125.20315.875.2187.421875.6406.65625.4219.234375.90625.234375.75 0 1.23435-.484375.5-.484375.5-1.234375 0-.765625-.5-1.265625-.5-.5-1.2656-.5-.75 0-1.2344.5-.48435.484375-.48435 1.21875zm5.92185-1.75q0-1.53125.3125-2.453125.3125-.9375.9219-1.4375.625-.5 1.5625-.5.6875 0 1.2031.28125.5313.28125.875.8125.3438.515625.5313 1.265625.1875.75.1875 2.03125 0 1.515625-.3125 2.4375-.2969.921875-.9219 1.4375-.6094.5-1.5625.5-1.2344 0-1.9531-.890625-.8438-1.0625-.8438-3.484375zm1.07815 0q0 2.109375.5 2.8125.5.703125 1.21875.703125.7344 0 1.21875-.703125.5-.703125.5-2.8125 0-2.125-.5-2.8125-.48435-.703125-1.23435-.703125-.7188 0-1.1563.609375-.54685.78125-.54685 2.90625zm11.46875 3.21875v1.015625h-5.6875q0-.375.125-.734375.21875-.578125.6875-1.140625.4844-.5625 1.3906-1.296875 1.4063-1.15625 1.89065-1.828125.5-.671875.5-1.265625 0-.625-.45315-1.046875-.4531-.4375-1.17185-.4375-.76565 0-1.21875.453125-.4531.453125-.46875 1.265625l-1.07815-.109375q.1094-1.21875.82815-1.84375.73435-.640625 1.96875-.640625 1.2344 0 1.9531.6875.7188.6875.7188 1.703125 0 .515625-.2188 1.015625-.2031.484375-.7031 1.046875-.4844.546875-1.6094 1.5-.9531.796875-1.23435 1.09375-.26565.28125-.4375.5625zm1.4531-3.21875q0-1.53125.3125-2.453125.3125-.9375.9219-1.4375.625-.5 1.5625-.5.6875 0 1.2031.28125.5313.28125.875.8125.3438.515625.5313 1.265625.1875.75.1875 2.03125 0 1.515625-.3125 2.4375-.2969.921875-.9219 1.4375-.6094.5-1.5625.5-1.2344 0-1.9531-.890625-.8438-1.0625-.8438-3.484375zm1.07815 0q0 2.109375.5 2.8125.5.703125 1.21875.703125.7344 0 1.21875-.703125.5-.703125.5-2.8125 0-2.125-.5-2.8125-.48435-.703125-1.23435-.703125-.7188 0-1.1563.609375-.54685.78125-.54685 2.90625zm7.54685-.421875q-.6562-.25-.98435-.6875-.3125-.453125-.3125-1.0625 0-.9375.67185-1.578125.6875-.640625 1.7969-.640625 1.125 0 1.8125.65625.6875.65625.6875 1.59375 0 .59375-.3125 1.03125-.3125.4375-.9531.6875.79685.25 1.2031.828125.40625.578125.40625 1.375 0 1.09375-.78125 1.84375-.7656.75-2.0469.75-1.2656 0-2.04685-.75-.78125-.75-.78125-1.875 0-.84375.4219-1.40625.4375-.5625 1.2187-.765625zm-.2187-1.796875q0 .609375.3906 1 .40625.390625 1.03125.390625.60935 0 1-.375.39065-.390625.39065-.953125 0-.578125-.4063-.96875-.4062-.40625-1-.40625-.60935 0-1.0156.390625-.3906.390625-.3906.921875zm-.32815 3.96875q0 .453125.20315.875.2187.421875.6406.65625.4219.234375.90625.234375.75 0 1.23435-.484375.5-.484375.5-1.234375 0-.765625-.5-1.265625-.5-.5-1.2656-.5-.75 0-1.2344.5-.48435.484375-.48435 1.21875zm5.92185.21875 1.0625-.140625q.1719.890625.6094 1.296875.4375.390625 1.0625.390625.75 0 1.2656-.515625.51565-.515625.51565-1.28125 0-.71875-.48435-1.1875-.4688-.484375-1.20315-.484375-.29685 0-.75.125l.125-.9375q.10935.015625.17185.015625.6719 0 1.20315-.34375.54685-.359375.54685-1.09375 0-.578125-.3906-.953125-.3906-.390625-1.0156-.390625-.6094 0-1.0313.390625-.4062.390625-.5156 1.15625l-1.0625-.1875q.1875-1.046875.875-1.625.6875-.59375 1.7031-.59375.70315 0 1.2969.3125.59375.296875.90625.8125.3125.515625.3125 1.109375 0 .546875-.29685 1.015625-.2969.453125-.875.71875.75.171875 1.17185.734375.42185.546875.42185 1.390625 0 1.125-.8281 1.90625-.8125.78125-2.0625.78125-1.125 0-1.875-.671875-.75-.6875-.8594-1.75zm7 0 1.0625-.140625q.1719.890625.6094 1.296875.4375.390625 1.0625.390625.75 0 1.2656-.515625.51565-.515625.51565-1.28125 0-.71875-.48435-1.1875-.4688-.484375-1.20315-.484375-.29685 0-.75.125l.125-.9375q.10935.015625.17185.015625.6719 0 1.20315-.34375.54685-.359375.54685-1.09375 0-.578125-.3906-.953125-.3906-.390625-1.0156-.390625-.6094 0-1.0313.390625-.4062.390625-.5156 1.15625l-1.0625-.1875q.1875-1.046875.875-1.625.6875-.59375 1.7031-.59375.70315 0 1.2969.3125.59375.296875.90625.8125.3125.515625.3125 1.109375 0 .546875-.29685 1.015625-.2969.453125-.875.71875.75.171875 1.17185.734375.42185.546875.42185 1.390625 0 1.125-.8281 1.90625-.8125.78125-2.0625.78125-1.125 0-1.875-.671875-.75-.6875-.8594-1.75z" fill="#4285f4"/>
  <path d="m984.0161 510.8426q0-1.53126.3125-2.45313.3125-.9375.9219-1.4375.625-.5 1.5625-.5.6875 0 1.2031.28125.53126.28125.875.8125.34376.51562.53126 1.26562.1875.75.1875 2.03126 0 1.5156-.3125 2.4375-.29686.92187-.92186 1.4375-.6094.5-1.5625.5-1.2344 0-1.95314-.89063-.84376-1.0625-.84376-3.48437zm1.07814 0q0 2.10937.5 2.8125.5.7031 1.21876.7031.73436 0 1.21874-.7031.5-.70313.5-2.8125 0-2.125-.5-2.8125-.48438-.70313-1.23438-.70313-.71876 0-1.15626.60937-.54686.78126-.54686 2.90626zm6.48436 4.23437v-1.20313h1.20314v1.20313q0 .65623-.23438 1.0625-.23436.42187-.73436.64063l-.2969-.45313q.32814-.14063.4844-.4375.15624-.28127.1875-.8125zm2.4375-2.25 1.1094-.09377q.125.8125.5625 1.21877.4531.40623 1.09374.40623.75 0 1.28126-.5781.53124-.57813.53124-1.51563 0-.90625-.51564-1.42187-.5-.53126-1.3281-.53126-.5 0-.9219.23438-.40624.23438-.6406.59375l-.9844-.125.82814-4.40625h4.28126v1h-3.4375l-.45314 2.3125q.76564-.54688 1.60938-.54688 1.125 0 1.89062.78126.78124.78124.78124 2.0156 0 1.15627-.67186 2.01564-.82814 1.03126-2.25 1.03126-1.17188 0-1.92188-.65626-.73436-.65624-.84376-1.73437zm7-1.98437q0-1.53126.3125-2.45313.3125-.9375.9219-1.4375.625-.5 1.5625-.5.6875 0 1.2031.28125.53126.28125.875.8125.34376.51562.53126 1.26562.1875.75.1875 2.03126 0 1.5156-.3125 2.4375-.29686.92187-.92186 1.4375-.6094.5-1.5625.5-1.2344 0-1.95314-.89063-.84376-1.0625-.84376-3.48437zm1.07814 0q0 2.10937.5 2.8125.5.7031 1.21876.7031.73436 0 1.21874-.7031.5-.70313.5-2.8125 0-2.125-.5-2.8125-.48438-.70313-1.23438-.70313-.71876 0-1.15626.60937-.54686.78126-.54686 2.90626zm11.39062-2.25-1.04686.07812q-.14064-.625-.39064-.90625-.4375-.45313-1.0625-.45313-.5 0-.89062.28126-.48438.375-.78124 1.07812-.28126.6875-.2969 1.96875.375-.57813.9219-.85937.5625-.28126 1.17186-.28126 1.04688 0 1.78124.78126.75.78124.75 2 0 .8125-.35936 1.5156-.34374.6875-.95314 1.0625-.60936.3594-1.375.3594-1.3281 0-2.15624-.96876-.82812-.96874-.82812-3.1875 0-2.5.92186-3.625.7969-.98437 2.15626-.98437 1.01564 0 1.65624.57813.65626.5625.78126 1.5625zm-4.29686 3.7031q0 .5469.21874 1.0469.23436.48437.64062.75.42188.2656.89064.2656.65624 0 1.1406-.53123.4844-.54687.4844-1.46877 0-.8906-.4844-1.40623-.46874-.51563-1.1875-.51563-.71874 0-1.21874.51563-.48436.51563-.48436 1.34373zm5.8281.51564 1.0625-.14064q.1719.89064.6094 1.2969.4375.3906 1.0625.3906.75 0 1.2656-.5156.51564-.51563.51564-1.28126 0-.71874-.48438-1.1875-.46876-.48437-1.20312-.48437-.29688 0-.75.125l.125-.9375q.10936.01563.17186.01563.6719 0 1.20314-.34376.54686-.35937.54686-1.09374 0-.57813-.3906-.95313-.39064-.39063-1.01564-.39063-.60936 0-1.03126.39063-.40624.39063-.5156 1.15625l-1.0625-.1875q.1875-1.04688.875-1.625.6875-.59375 1.7031-.59375.70314 0 1.2969.3125.59374.29687.90624.8125.3125.51563.3125 1.10937 0 .54688-.29688 1.01563-.29686.45313-.875.71875.75.17188 1.17188.73438.42186.54687.42186 1.3906 0 1.125-.8281 1.90627-.8125.78123-2.0625.78123-1.125 0-1.875-.67186-.75-.6875-.8594-1.75zm12.5469 1.25v1.01563h-5.6875q0-.375.125-.73437.21874-.57813.6875-1.14063.48436-.5625 1.3906-1.29687 1.4063-1.15626 1.8906-1.82813.5-.67187.5-1.26563 0-.625-.4531-1.04687-.4531-.4375-1.1719-.4375-.7656 0-1.2187.45313-.45314.45312-.46876 1.26562l-1.07814-.10938q.1094-1.21874.82814-1.84374.73436-.64063 1.96876-.64063 1.2344 0 1.9531.6875.7188.6875.7188 1.70313 0 .51562-.2188 1.01562-.2031.48438-.7031 1.04688-.4844.54687-1.6094 1.5-.9531.79687-1.23436 1.09374-.26564.28126-.4375.5625zm1.4531-3.21874q0-1.53126.3125-2.45313.3125-.9375.9219-1.4375.625-.5 1.5625-.5.6875 0 1.2031.28125.5313.28125.875.8125.3438.51562.5313 1.26562.1875.75.1875 2.03126 0 1.5156-.3125 2.4375-.2969.92187-.9219 1.4375-.6094.5-1.5625.5-1.2344 0-1.9531-.89063-.8438-1.0625-.8438-3.48437zm1.0781 0q0 2.10937.5 2.8125.5.7031 1.2188.7031.7344 0 1.2187-.7031.5-.70313.5-2.8125 0-2.125-.5-2.8125-.4843-.70313-1.2343-.70313-.7188 0-1.1563.60937-.5469.78126-.5469 2.90626zm11.4688 3.21874v1.01563h-5.6875q0-.375.125-.73437.2187-.57813.6875-1.14063.4844-.5625 1.3906-1.29687 1.4063-1.15626 1.8906-1.82813.5-.67187.5-1.26563 0-.625-.4531-1.04687-.4531-.4375-1.1719-.4375-.7656 0-1.2187.45313-.4531.45312-.4688 1.26562l-1.0781-.10938q.1094-1.21874.8281-1.84374.7344-.64063 1.9688-.64063 1.2344 0 1.9531.6875.7188.6875.7188 1.70313 0 .51562-.2188 1.01562-.2031.48438-.7031 1.04688-.4844.54687-1.6094 1.5-.9531.79687-1.2344 1.09374-.2656.28126-.4375.5625zm7 0v1.01563h-5.6875q0-.375.125-.73437.2187-.57813.6875-1.14063.4844-.5625 1.3906-1.29687 1.4063-1.15626 1.8906-1.82813.5-.67187.5-1.26563 0-.625-.4531-1.04687-.4531-.4375-1.1719-.4375-.7656 0-1.2187.45313-.4531.45312-.4688 1.26562l-1.0781-.10938q.1094-1.21874.8281-1.84374.7344-.64063 1.9688-.64063 1.2344 0 1.9531.6875.7188.6875.7188 1.70313 0 .51562-.2188 1.01562-.2031.48438-.7031 1.04688-.4844.54687-1.6094 1.5-.9531.79687-1.2344 1.09374-.2656.28126-.4375.5625zm4.8281 1.01563v-2.0625h-3.7187v-.96877l3.9218-5.56248h.8594v5.56248h1.1563v.96877h-1.1563v2.0625zm0-3.03127v-3.85936l-2.6875 3.85936zm3.6875-4.43748v-1.01562h5.5625v.82812q-.8125.875-1.625 2.32812-.7969 1.4375-1.2344 2.96876-.3281 1.0781-.4062 2.35937h-1.0938q.0157-1.01563.3907-2.45313.3906-1.4375 1.0937-2.76562.7188-1.32812 1.5313-2.25z" stroke="#fff" stroke-linecap="round" stroke-linejoin="round" stroke-width="3"/>
  <path d="m984.0161 510.8426q0-1.53126.3125-2.45313.3125-.9375.9219-1.4375.625-.5 1.5625-.5.6875 0 1.2031.28125.53126.28125.875.8125.34376.51562.53126 1.26562.1875.75.1875 2.03126 0 1.5156-.3125 2.4375-.29686.92187-.92186 1.4375-.6094.5-1.5625.5-1.2344 0-1.95314-.89063-.84376-1.0625-.84376-3.48437zm1.07814 0q0 2.10937.5 2.8125.5.7031 1.21876.7031.73436 0 1.21874-.7031.5-.70313.5-2.8125 0-2.125-.5-2.8125-.48438-.70313-1.23438-.70313-.71876 0-1.15626.60937-.54686.78126-.54686 2.90626zm6.48436 4.23437v-1.20313h1.20314v1.20313q0 .65623-.23438 1.0625-.23436.42187-.73436.64063l-.2969-.45313q.32814-.14063.4844-.4375.15624-.28127.1875-.8125zm2.4375-2.25 1.1094-.09377q.125.8125.5625 1.21877.4531.40623 1.09374.40623.75 0 1.28126-.5781.53124-.57813.53124-1.51563 0-.90625-.51564-1.42187-.5-.53126-1.3281-.53126-.5 0-.9219.23438-.40624.23438-.6406.59375l-.9844-.125.82814-4.40625h4.28126v1h-3.4375l-.45314 2.3125q.76564-.54688 1.60938-.54688 1.125 0 1.89062.78126.78124.78124.78124 2.0156 0 1.15627-.67186 2.01564-.82814 1.03126-2.25 1.03126-1.17188 0-1.92188-.65626-.73436-.65624-.84376-1.73437zm7-1.98437q0-1.53126.3125-2.45313.3125-.9375.9219-1.4375.625-.5 1.5625-.5.6875 0 1.2031.28125.53126.28125.875.8125.34376.51562.53126 1.26562.1875.75.1875 2.03126 0 1.5156-.3125 2.4375-.29686.92187-.92186 1.4375-.6094.5-1.5625.5-1.2344 0-1.95314-.89063-.84376-1.0625-.84376-3.48437zm1.07814 0q0 2.10937.5 2.8125.5.7031 1.21876.7031.73436 0 1.21874-.7031.5-.70313.5-2.8125 0-2.125-.5-2.8125-.48438-.70313-1.23438-.70313-.71876 0-1.15626.60937-.54686.78126-.54686 2.90626zm11.39062-2.25-1.04686.07812q-.14064-.625-.39064-.90625-.4375-.45313-1.0625-.45313-.5 0-.89062.28126-.48438.375-.78124 1.07812-.28126.6875-.2969 1.96875.375-.57813.9219-.85937.5625-.28126 1.17186-.28126 1.04688 0 1.78124.78126.75.78124.75 2 0 .8125-.35936 1.5156-.34374.6875-.95314 1.0625-.60936.3594-1.375.3594-1.3281 0-2.15624-.96876-.82812-.96874-.82812-3.1875 0-2.5.92186-3.625.7969-.98437 2.15626-.98437 1.01564 0 1.65624.57813.65626.5625.78126 1.5625zm-4.29686 3.7031q0 .5469.21874 1.0469.23436.48437.64062.75.42188.2656.89064.2656.65624 0 1.1406-.53123.4844-.54687.4844-1.46877 0-.8906-.4844-1.40623-.46874-.51563-1.1875-.51563-.71874 0-1.21874.51563-.48436.51563-.48436 1.34373zm5.8281.51564 1.0625-.14064q.1719.89064.6094 1.2969.4375.3906 1.0625.3906.75 0 1.2656-.5156.51564-.51563.51564-1.28126 0-.71874-.48438-1.1875-.46876-.48437-1.20312-.48437-.29688 0-.75.125l.125-.9375q.10936.01563.17186.01563.6719 0 1.20314-.34376.54686-.35937.54686-1.09374 0-.57813-.3906-.95313-.39064-.39063-1.01564-.39063-.60936 0-1.03126.39063-.40624.39063-.5156 1.15625l-1.0625-.1875q.1875-1.04688.875-1.625.6875-.59375 1.7031-.59375.70314 0 1.2969.3125.59374.29687.90624.8125.3125.51563.3125 1.10937 0 .54688-.29688 1.01563-.29686.45313-.875.71875.75.17188 1.17188.73438.42186.54687.42186 1.3906 0 1.125-.8281 1.90627-.8125.78123-2.0625.78123-1.125 0-1.875-.67186-.75-.6875-.8594-1.75zm12.5469 1.25v1.01563h-5.6875q0-.375.125-.73437.21874-.57813.6875-1.14063.48436-.5625 1.3906-1.29687 1.4063-1.15626 1.8906-1.82813.5-.67187.5-1.26563 0-.625-.4531-1.04687-.4531-.4375-1.1719-.4375-.7656 0-1.2187.45313-.45314.45312-.46876 1.26562l-1.07814-.10938q.1094-1.21874.82814-1.84374.73436-.64063 1.96876-.64063 1.2344 0 1.9531.6875.7188.6875.7188 1.70313 0 .51562-.2188 1.01562-.2031.48438-.7031 1.04688-.4844.54687-1.6094 1.5-.9531.79687-1.23436 1.09374-.26564.28126-.4375.5625zm1.4531-3.21874q0-1.53126.3125-2.45313.3125-.9375.9219-1.4375.625-.5 1.5625-.5.6875 0 1.2031.28125.5313.28125.875.8125.3438.51562.5313 1.26562.1875.75.1875 2.03126 0 1.5156-.3125 2.4375-.2969.92187-.9219 1.4375-.6094.5-1.5625.5-1.2344 0-1.9531-.89063-.8438-1.0625-.8438-3.48437zm1.0781 0q0 2.10937.5 2.8125.5.7031 1.2188.7031.7344 0 1.2187-.7031.5-.70313.5-2.8125 0-2.125-.5-2.8125-.4843-.70313-1.2343-.70313-.7188 0-1.1563.60937-.5469.78126-.5469 2.90626zm11.4688 3.21874v1.01563h-5.6875q0-.375.125-.73437.2187-.57813.6875-1.14063.4844-.5625 1.3906-1.29687 1.4063-1.15626 1.8906-1.82813.5-.67187.5-1.26563 0-.625-.4531-1.04687-.4531-.4375-1.1719-.4375-.7656 0-1.2187.45313-.4531.45312-.4688 1.26562l-1.0781-.10938q.1094-1.21874.8281-1.84374.7344-.64063 1.9688-.64063 1.2344 0 1.9531.6875.7188.6875.7188 1.70313 0 .51562-.2188 1.01562-.2031.48438-.7031 1.04688-.4844.54687-1.6094 1.5-.9531.79687-1.2344 1.09374-.2656.28126-.4375.5625zm7 0v1.01563h-5.6875q0-.375.125-.73437.2187-.57813.6875-1.14063.4844-.5625 1.3906-1.29687 1.4063-1.15626 1.8906-1.82813.5-.67187.5-1.26563 0-.625-.4531-1.04687-.4531-.4375-1.1719-.4375-.7656 0-1.2187.45313-.4531.45312-.4688 1.26562l-1.0781-.10938q.1094-1.21874.8281-1.84374.7344-.64063 1.9688-.64063 1.2344 0 1.9531.6875.7188.6875.7188 1.70313 0 .51562-.2188 1.01562-.2031.48438-.7031 1.04688-.4844.54687-1.6094 1.5-.9531.79687-1.2344 1.09374-.2656.28126-.4375.5625zm4.8281 1.01563v-2.0625h-3.7187v-.96877l3.9218-5.56248h.8594v5.56248h1.1563v.96877h-1.1563v2.0625zm0-3.03127v-3.85936l-2.6875 3.85936zm3.6875-4.43748v-1.01562h5.5625v.82812q-.8125.875-1.625 2.32812-.7969 1.4375-1.2344 2.96876-.3281 1.0781-.4062 2.35937h-1.0938q.0157-1.01563.3907-2.45313.3906-1.4375 1.0937-2.76562.7188-1.32812 1.5313-2.25z" fill="#4285f4"/>
  <path d="m350.84793 304.86188q0-1.53125.3125-2.45313.3125-.9375.92187-1.4375.625-.5 1.5625-.5.6875 0 1.20313.28125.53125.28125.875.8125.34375.51563.53125 1.26563.1875.75.1875 2.03125 0 1.51562-.3125 2.4375-.29688.92187-.92188 1.4375-.60937.5-1.5625.5-1.23437 0-1.95312-.89063-.84375-1.0625-.84375-3.48437zm1.07813 0q0 2.10937.5 2.8125.5.70312 1.21874.70312.73438 0 1.21876-.70312.5-.70313.5-2.8125 0-2.125-.5-2.8125-.48438-.70313-1.23438-.70313-.71875 0-1.15625.60938-.54687.78125-.54687 2.90625zm6.48437 4.23437v-1.20312h1.20313v1.20312q0 .65625-.23438 1.0625-.23438.42188-.73438.64063l-.29687-.45313q.32813-.14062.48437-.4375.15626-.28125.1875-.8125zm2.5-7.46875v-1.01562h5.5625v.82812q-.8125.875-1.625 2.32813-.79687 1.4375-1.23437 2.96875-.32813 1.07812-.40626 2.35937h-1.09374q.01562-1.01562.39062-2.45312.39062-1.4375 1.09375-2.76563.71875-1.32812 1.53125-2.25zm12.40625.98438-1.04688.07812q-.14062-.625-.39062-.90625-.4375-.45312-1.0625-.45312-.5 0-.89062.28125-.48438.375-.78126 1.07812-.28124.6875-.29687 1.96875.375-.57812.92187-.85937.5625-.28125 1.17188-.28125 1.04688 0 1.78125.78125.75.78125.75 2 0 .8125-.35937 1.51562-.34376.6875-.95313 1.0625-.60937.35938-1.375.35938-1.32813 0-2.15625-.96875-.82812-.96875-.82812-3.1875 0-2.5.92187-3.625.79687-.98438 2.15625-.98438 1.01562 0 1.65625.57813.65625.5625.78125 1.5625zm-4.29688 3.70312q0 .54688.21876 1.04688.23437.48437.64062.75.42188.26562.89062.26562.65626 0 1.14063-.53125.48437-.54687.48437-1.46875 0-.89062-.48437-1.40625-.46875-.51562-1.1875-.51562-.71875 0-1.21875.51562-.48438.51563-.48438 1.34375zm9.79688 2.78125h-1.04688v-6.71875q-.39062.35938-1.01562.73438-.60938.35937-1.09375.53125v-1.01563q.875-.42187 1.53125-1 .67188-.59375.95312-1.15625h.67188zm3.03125-4.23437q0-1.53125.3125-2.45313.3125-.9375.92187-1.4375.625-.5 1.5625-.5.6875 0 1.20313.28125.53125.28125.875.8125.34375.51563.53125 1.26563.1875.75.1875 2.03125 0 1.51562-.3125 2.4375-.29688.92187-.92188 1.4375-.60937.5-1.5625.5-1.23437 0-1.95312-.89063-.84375-1.0625-.84375-3.48437zm1.07813 0q0 2.10937.5 2.8125.5.70312 1.21874.70312.73438 0 1.21876-.70312.5-.70313.5-2.8125 0-2.125-.5-2.8125-.48438-.70313-1.23438-.70313-.71875 0-1.15625.60938-.54687.78125-.54687 2.90625zm5.92187 0q0-1.53125.3125-2.45313.3125-.9375.92187-1.4375.625-.5 1.5625-.5.6875 0 1.20313.28125.53125.28125.875.8125.34375.51563.53125 1.26563.1875.75.1875 2.03125 0 1.51562-.3125 2.4375-.29688.92187-.92188 1.4375-.60937.5-1.5625.5-1.23437 0-1.95312-.89063-.84375-1.0625-.84375-3.48437zm1.07813 0q0 2.10937.5 2.8125.5.70312 1.21874.70312.73438 0 1.21876-.70312.5-.70313.5-2.8125 0-2.125-.5-2.8125-.48438-.70313-1.23438-.70313-.71875 0-1.15625.60938-.54687.78125-.54687 2.90625zm6.07812 2.25 1.01562-.09375q.125.71875.48438 1.04687.375.3125.9375.3125.48438 0 .84375-.21875.375-.23437.60937-.59375.23438-.375.39063-1 .15625-.64062.15625-1.29687 0-.07813 0-.21875-.3125.5-.85938.82812-.54687.3125-1.1875.3125-1.07812 0-1.8125-.76562-.73437-.78125-.73437-2.04688 0-1.3125.76563-2.10937.78124-.79688 1.9375-.79688.82812 0 1.51562.45313.70312.45312 1.0625 1.29687.35938.82813.35938 2.40625 0 1.64063-.35938 2.625-.34375.96875-1.0625 1.48438-.70312.5-1.64062.5-1.01563 0-1.65626-.54688-.64062-.5625-.76562-1.57812zm4.3125-3.79688q0-.90625-.48438-1.4375-.46874-.53125-1.15624-.53125-.70313 0-1.23438.57813-.51562.5625-.51562 1.48437 0 .8125.5 1.32813.5.51562 1.21874.51562.73438 0 1.20313-.51562.46875-.51563.46875-1.42188zm8-.70312-1.04688.07812q-.14062-.625-.39062-.90625-.4375-.45312-1.0625-.45312-.5 0-.89062.28125-.48438.375-.78126 1.07812-.28124.6875-.29687 1.96875.375-.57812.92187-.85937.5625-.28125 1.17188-.28125 1.04688 0 1.78125.78125.75.78125.75 2 0 .8125-.35937 1.51562-.34376.6875-.95313 1.0625-.60937.35938-1.375.35938-1.32813 0-2.15625-.96875-.82812-.96875-.82812-3.1875 0-2.5.92187-3.625.79687-.98438 2.15625-.98438 1.01562 0 1.65625.57813.65625.5625.78125 1.5625zm-4.29688 3.70312q0 .54688.21876 1.04688.23437.48437.64062.75.42188.26562.89062.26562.65626 0 1.14063-.53125.48437-.54687.48437-1.46875 0-.89062-.48437-1.40625-.46875-.51562-1.1875-.51562-.71875 0-1.21875.51562-.48438.51563-.48438 1.34375zm11.29688-3.70312-1.04688.07812q-.14062-.625-.39062-.90625-.4375-.45312-1.0625-.45312-.5 0-.89062.28125-.48438.375-.78126 1.07812-.28124.6875-.29687 1.96875.375-.57812.92187-.85937.5625-.28125 1.17188-.28125 1.04688 0 1.78125.78125.75.78125.75 2 0 .8125-.35937 1.51562-.34376.6875-.95313 1.0625-.60937.35938-1.375.35938-1.32813 0-2.15625-.96875-.82812-.96875-.82812-3.1875 0-2.5.92187-3.625.79687-.98438 2.15625-.98438 1.01562 0 1.65625.57813.65625.5625.78125 1.5625zm-4.29688 3.70312q0 .54688.21876 1.04688.23437.48437.64062.75.42188.26562.89062.26562.65626 0 1.14063-.53125.48437-.54687.48437-1.46875 0-.89062-.48437-1.40625-.46875-.51562-1.1875-.51562-.71875 0-1.21875.51562-.48438.51563-.48438 1.34375zm5.89063-4.6875v-1.01562h5.5625v.82812q-.8125.875-1.625 2.32813-.79687 1.4375-1.23437 2.96875-.32813 1.07812-.40626 2.35937h-1.09374q.01562-1.01562.39062-2.45312.39062-1.4375 1.09375-2.76563.71875-1.32812 1.53125-2.25z" stroke="#fff" stroke-linecap="round" stroke-linejoin="round" stroke-width="3"/>
  <path d="m350.84793 304.86188q0-1.53125.3125-2.45313.3125-.9375.92187-1.4375.625-.5 1.5625-.5.6875 0 1.20313.28125.53125.28125.875.8125.34375.51563.53125 1.26563.1875.75.1875 2.03125 0 1.51562-.3125 2.4375-.29688.92187-.92188 1.4375-.60937.5-1.5625.5-1.23437 0-1.95312-.89063-.84375-1.0625-.84375-3.48437zm1.07813 0q0 2.10937.5 2.8125.5.70312 1.21874.70312.73438 0 1.21876-.70312.5-.70313.5-2.8125 0-2.125-.5-2.8125-.48438-.70313-1.23438-.70313-.71875 0-1.15625.60938-.54687.78125-.54687 2.90625zm6.48437 4.23437v-1.20312h1.20313v1.20312q0 .65625-.23438 1.0625-.23438.42188-.73438.64063l-.29687-.45313q.32813-.14062.48437-.4375.15626-.28125.1875-.8125zm2.5-7.46875v-1.01562h5.5625v.82812q-.8125.875-1.625 2.32813-.79687 1.4375-1.23437 2.96875-.32813 1.07812-.40626 2.35937h-1.09374q.01562-1.01562.39062-2.45312.39062-1.4375 1.09375-2.76563.71875-1.32812 1.53125-2.25zm12.40625.98438-1.04688.07812q-.14062-.625-.39062-.90625-.4375-.45312-1.0625-.45312-.5 0-.89062.28125-.48438.375-.78126 1.07812-.28124.6875-.29687 1.96875.375-.57812.92187-.85937.5625-.28125 1.17188-.28125 1.04688 0 1.78125.78125.75.78125.75 2 0 .8125-.35937 1.51562-.34376.6875-.95313 1.0625-.60937.35938-1.375.35938-1.32813 0-2.15625-.96875-.82812-.96875-.82812-3.1875 0-2.5.92187-3.625.79687-.98438 2.15625-.98438 1.01562 0 1.65625.57813.65625.5625.78125 1.5625zm-4.29688 3.70312q0 .54688.21876 1.04688.23437.48437.64062.75.42188.26562.89062.26562.65626 0 1.14063-.53125.48437-.54687.48437-1.46875 0-.89062-.48437-1.40625-.46875-.51562-1.1875-.51562-.71875 0-1.21875.51562-.48438.51563-.48438 1.34375zm9.79688 2.78125h-1.04688v-6.71875q-.39062.35938-1.01562.73438-.60938.35937-1.09375.53125v-1.01563q.875-.42187 1.53125-1 .67188-.59375.95312-1.15625h.67188zm3.03125-4.23437q0-1.53125.3125-2.45313.3125-.9375.92187-1.4375.625-.5 1.5625-.5.6875 0 1.20313.28125.53125.28125.875.8125.34375.51563.53125 1.26563.1875.75.1875 2.03125 0 1.51562-.3125 2.4375-.29688.92187-.92188 1.4375-.60937.5-1.5625.5-1.23437 0-1.95312-.89063-.84375-1.0625-.84375-3.48437zm1.07813 0q0 2.10937.5 2.8125.5.70312 1.21874.70312.73438 0 1.21876-.70312.5-.70313.5-2.8125 0-2.125-.5-2.8125-.48438-.70313-1.23438-.70313-.71875 0-1.15625.60938-.54687.78125-.54687 2.90625zm5.92187 0q0-1.53125.3125-2.45313.3125-.9375.92187-1.4375.625-.5 1.5625-.5.6875 0 1.20313.28125.53125.28125.875.8125.34375.51563.53125 1.26563.1875.75.1875 2.03125 0 1.51562-.3125 2.4375-.29688.92187-.92188 1.4375-.60937.5-1.5625.5-1.23437 0-1.95312-.89063-.84375-1.0625-.84375-3.48437zm1.07813 0q0 2.10937.5 2.8125.5.70312 1.21874.70312.73438 0 1.21876-.70312.5-.70313.5-2.8125 0-2.125-.5-2.8125-.48438-.70313-1.23438-.70313-.71875 0-1.15625.60938-.54687.78125-.54687 2.90625zm6.07812 2.25 1.01562-.09375q.125.71875.48438 1.04687.375.3125.9375.3125.48438 0 .84375-.21875.375-.23437.60937-.59375.23438-.375.39063-1 .15625-.64062.15625-1.29687 0-.07813 0-.21875-.3125.5-.85938.82812-.54687.3125-1.1875.3125-1.07812 0-1.8125-.76562-.73437-.78125-.73437-2.04688 0-1.3125.76563-2.10937.78124-.79688 1.9375-.79688.82812 0 1.51562.45313.70312.45312 1.0625 1.29687.35938.82813.35938 2.40625 0 1.64063-.35938 2.625-.34375.96875-1.0625 1.48438-.70312.5-1.64062.5-1.01563 0-1.65626-.54688-.64062-.5625-.76562-1.57812zm4.3125-3.79688q0-.90625-.48438-1.4375-.46874-.53125-1.15624-.53125-.70313 0-1.23438.57813-.51562.5625-.51562 1.48437 0 .8125.5 1.32813.5.51562 1.21874.51562.73438 0 1.20313-.51562.46875-.51563.46875-1.42188zm8-.70312-1.04688.07812q-.14062-.625-.39062-.90625-.4375-.45312-1.0625-.45312-.5 0-.89062.28125-.48438.375-.78126 1.07812-.28124.6875-.29687 1.96875.375-.57812.92187-.85937.5625-.28125 1.17188-.28125 1.04688 0 1.78125.78125.75.78125.75 2 0 .8125-.35937 1.51562-.34376.6875-.95313 1.0625-.60937.35938-1.375.35938-1.32813 0-2.15625-.96875-.82812-.96875-.82812-3.1875 0-2.5.92187-3.625.79687-.98438 2.15625-.98438 1.01562 0 1.65625.57813.65625.5625.78125 1.5625zm-4.29688 3.70312q0 .54688.21876 1.04688.23437.48437.64062.75.42188.26562.89062.26562.65626 0 1.14063-.53125.48437-.54687.48437-1.46875 0-.89062-.48437-1.40625-.46875-.51562-1.1875-.51562-.71875 0-1.21875.51562-.48438.51563-.48438 1.34375zm11.29688-3.70312-1.04688.07812q-.14062-.625-.39062-.90625-.4375-.45312-1.0625-.45312-.5 0-.89062.28125-.48438.375-.78126 1.07812-.28124.6875-.29687 1.96875.375-.57812.92187-.85937.5625-.28125 1.17188-.28125 1.04688 0 1.78125.78125.75.78125.75 2 0 .8125-.35937 1.51562-.34376.6875-.95313 1.0625-.60937.35938-1.375.35938-1.32813 0-2.15625-.96875-.82812-.96875-.82812-3.1875 0-2.5.92187-3.625.79687-.98438 2.15625-.98438 1.01562 0 1.65625.57813.65625.5625.78125 1.5625zm-4.29688 3.70312q0 .54688.21876 1.04688.23437.48437.64062.75.42188.26562.89062.26562.65626 0 1.14063-.53125.48437-.54687.48437-1.46875 0-.89062-.48437-1.40625-.46875-.51562-1.1875-.51562-.71875 0-1.21875.51562-.48438.51563-.48438 1.34375zm5.89063-4.6875v-1.01562h5.5625v.82812q-.8125.875-1.625 2.32813-.79687 1.4375-1.23437 2.96875-.32813 1.07812-.40626 2.35937h-1.09374q.01562-1.01562.39062-2.45312.39062-1.4375 1.09375-2.76563.71875-1.32812 1.53125-2.25z" fill="#ea4335"/>
  <path d="m690.10187 364.74225q0-1.53125.3125-2.45313.3125-.9375.92187-1.4375.625-.5 1.5625-.5.6875 0 1.20313.28125.53123.28125.875.8125.34373.51563.53123 1.26563.1875.75.1875 2.03125 0 1.51562-.3125 2.4375-.29686.92187-.92186 1.4375-.60937.5-1.5625.5-1.23437 0-1.95314-.89063-.84373-1.0625-.84373-3.48437zm1.07813 0q0 2.10937.5 2.8125.5.70312 1.21874.70312.73436 0 1.21876-.70312.5-.70313.5-2.8125 0-2.125-.5-2.8125-.4844-.70313-1.2344-.70313-.71873 0-1.15623.60938-.54687.78125-.54687 2.90625zm6.48437 4.23437v-1.20312h1.20313v1.20312q0 .65625-.2344 1.0625-.23436.42188-.73436.64063l-.29687-.45313q.32813-.14062.48437-.4375.15626-.28125.1875-.8125zm7.90623-6.48437-1.04686.07812q-.14064-.625-.39064-.90625-.4375-.45312-1.0625-.45312-.5 0-.8906.28125-.4844.375-.78126 1.07812-.28124.6875-.29687 1.96875.375-.57812.92187-.85937.5625-.28125 1.17186-.28125 1.0469 0 1.78127.78125.75.78125.75 2 0 .8125-.35937 1.51562-.34376.6875-.95313 1.0625-.60937.35938-1.375.35938-1.32813 0-2.15627-.96875-.8281-.96875-.8281-3.1875 0-2.5.92187-3.625.79687-.98438 2.15623-.98438 1.01564 0 1.65627.57813.65623.5625.78123 1.5625zm-4.29686 3.70312q0 .54688.21876 1.04688.23437.48437.6406.75.4219.26562.89064.26562.65626 0 1.14063-.53125.48437-.54687.48437-1.46875 0-.89062-.48437-1.40625-.46877-.51562-1.1875-.51562-.71877 0-1.21877.51562-.48436.51563-.48436 1.34375zm7.45313-1.875q-.65627-.25-.98437-.6875-.3125-.45312-.3125-1.0625 0-.9375.67187-1.57812.6875-.64063 1.79687-.64063 1.125 0 1.8125.65625.6875.65625.6875 1.59375 0 .59375-.3125 1.03125-.3125.4375-.95314.6875.7969.25 1.20314.82813.40626.57812.40626 1.375 0 1.09375-.78126 1.84375-.76564.75-2.04687.75-1.26563 0-2.04687-.75-.78126-.75-.78126-1.875 0-.84375.42186-1.40625.4375-.5625 1.21877-.76563zm-.21877-1.79687q0 .60937.39064 1 .40626.39062 1.03126.39062.60937 0 1-.375.3906-.39062.3906-.95312 0-.57813-.40623-.96875-.40627-.40625-1-.40625-.60937 0-1.01563.39062-.39064.39063-.39064.92188zm-.3281 3.96875q0 .45312.2031.875.21877.42187.64064.65625.42186.23437.90626.23437.75 0 1.23437-.48437.5-.48438.5-1.23438 0-.76562-.5-1.26562-.5-.5-1.26563-.5-.75 0-1.23437.5-.48437.48437-.48437 1.21875zm5.98437-4.98438v-1.01562h5.5625v.82812q-.8125.875-1.625 2.32813-.79687 1.4375-1.23437 2.96875-.32813 1.07812-.40626 2.35937h-1.09374q.0156-1.01562.3906-2.45312.39064-1.4375 1.09377-2.76563.71873-1.32812 1.53123-2.25zm8.5625 2.8125q-.65627-.25-.98437-.6875-.3125-.45312-.3125-1.0625 0-.9375.67187-1.57812.6875-.64063 1.79687-.64063 1.125 0 1.8125.65625.6875.65625.6875 1.59375 0 .59375-.3125 1.03125-.3125.4375-.95314.6875.7969.25 1.20314.82813.40626.57812.40626 1.375 0 1.09375-.78126 1.84375-.76564.75-2.04687.75-1.26563 0-2.04687-.75-.78126-.75-.78126-1.875 0-.84375.42186-1.40625.4375-.5625 1.21877-.76563zm-.21877-1.79687q0 .60937.39064 1 .40626.39062 1.03126.39062.60937 0 1-.375.3906-.39062.3906-.95312 0-.57813-.40623-.96875-.40627-.40625-1-.40625-.60937 0-1.01563.39062-.39064.39063-.39064.92188zm-.3281 3.96875q0 .45312.2031.875.21877.42187.64064.65625.42186.23437.90626.23437.75 0 1.23437-.48437.5-.48438.5-1.23438 0-.76562-.5-1.26562-.5-.5-1.26563-.5-.75 0-1.23437.5-.48437.48437-.48437 1.21875zm11.3906-4-1.04686.07812q-.14064-.625-.39064-.90625-.4375-.45312-1.0625-.45312-.5 0-.8906.28125-.4844.375-.78126 1.07812-.28124.6875-.29687 1.96875.375-.57812.92187-.85937.5625-.28125 1.17186-.28125 1.0469 0 1.78127.78125.75.78125.75 2 0 .8125-.35937 1.51562-.34376.6875-.95313 1.0625-.60937.35938-1.375.35938-1.32813 0-2.15627-.96875-.8281-.96875-.8281-3.1875 0-2.5.92187-3.625.79687-.98438 2.15623-.98438 1.01564 0 1.65627.57813.65623.5625.78123 1.5625zm-4.29686 3.70312q0 .54688.21876 1.04688.23437.48437.6406.75.4219.26562.89064.26562.65626 0 1.14063-.53125.48437-.54687.48437-1.46875 0-.89062-.48437-1.40625-.46877-.51562-1.1875-.51562-.71877 0-1.21877.51562-.48436.51563-.48436 1.34375zm9.20313 2.78125v-2.0625h-3.71877v-.96875l3.9219-5.5625h.85937v5.5625h1.15623v.96875h-1.15623v2.0625zm0-3.03125v-3.85937l-2.6875 3.85937zm3.625-1.20312q0-1.53125.3125-2.45313.3125-.9375.92187-1.4375.625-.5 1.5625-.5.6875 0 1.20313.28125.53123.28125.875.8125.34373.51563.53123 1.26563.1875.75.1875 2.03125 0 1.51562-.3125 2.4375-.29686.92187-.92186 1.4375-.60937.5-1.5625.5-1.23437 0-1.95314-.89063-.84373-1.0625-.84373-3.48437zm1.07813 0q0 2.10937.5 2.8125.5.70312 1.21874.70312.73436 0 1.21876-.70312.5-.70313.5-2.8125 0-2.125-.5-2.8125-.4844-.70313-1.2344-.70313-.71873 0-1.15623.60938-.54687.78125-.54687 2.90625zm5.98437-3.23438v-1.01562h5.5625v.82812q-.8125.875-1.625 2.32813-.79687 1.4375-1.23437 2.96875-.32813 1.07812-.40626 2.35937h-1.09374q.0156-1.01562.3906-2.45312.39064-1.4375 1.09377-2.76563.71873-1.32812 1.53123-2.25zm7 0v-1.01562h5.5625v.82812q-.8125.875-1.625 2.32813-.79687 1.4375-1.23437 2.96875-.32813 1.07812-.40626 2.35937h-1.09374q.0156-1.01562.3906-2.45312.39064-1.4375 1.09377-2.76563.71873-1.32812 1.53123-2.25zm7 0v-1.01562h5.5625v.82812q-.8125.875-1.625 2.32813-.79687 1.4375-1.23437 2.96875-.32813 1.07812-.40626 2.35937h-1.09374q.0156-1.01562.3906-2.45312.39064-1.4375 1.09377-2.76563.71873-1.32812 1.53123-2.25z" stroke="#fff" stroke-linecap="round" stroke-linejoin="round" stroke-width="3"/>
  <path d="m690.10187 364.74225q0-1.53125.3125-2.45313.3125-.9375.92187-1.4375.625-.5 1.5625-.5.6875 0 1.20313.28125.53123.28125.875.8125.34373.51563.53123 1.26563.1875.75.1875 2.03125 0 1.51562-.3125 2.4375-.29686.92187-.92186 1.4375-.60937.5-1.5625.5-1.23437 0-1.95314-.89063-.84373-1.0625-.84373-3.48437zm1.07813 0q0 2.10937.5 2.8125.5.70312 1.21874.70312.73436 0 1.21876-.70312.5-.70313.5-2.8125 0-2.125-.5-2.8125-.4844-.70313-1.2344-.70313-.71873 0-1.15623.60938-.54687.78125-.54687 2.90625zm6.48437 4.23437v-1.20312h1.20313v1.20312q0 .65625-.2344 1.0625-.23436.42188-.73436.64063l-.29687-.45313q.32813-.14062.48437-.4375.15626-.28125.1875-.8125zm7.90623-6.48437-1.04686.07812q-.14064-.625-.39064-.90625-.4375-.45312-1.0625-.45312-.5 0-.8906.28125-.4844.375-.78126 1.07812-.28124.6875-.29687 1.96875.375-.57812.92187-.85937.5625-.28125 1.17186-.28125 1.0469 0 1.78127.78125.75.78125.75 2 0 .8125-.35937 1.51562-.34376.6875-.95313 1.0625-.60937.35938-1.375.35938-1.32813 0-2.15627-.96875-.8281-.96875-.8281-3.1875 0-2.5.92187-3.625.79687-.98438 2.15623-.98438 1.01564 0 1.65627.57813.65623.5625.78123 1.5625zm-4.29686 3.70312q0 .54688.21876 1.04688.23437.48437.6406.75.4219.26562.89064.26562.65626 0 1.14063-.53125.48437-.54687.48437-1.46875 0-.89062-.48437-1.40625-.46877-.51562-1.1875-.51562-.71877 0-1.21877.51562-.48436.51563-.48436 1.34375zm7.45313-1.875q-.65627-.25-.98437-.6875-.3125-.45312-.3125-1.0625 0-.9375.67187-1.57812.6875-.64063 1.79687-.64063 1.125 0 1.8125.65625.6875.65625.6875 1.59375 0 .59375-.3125 1.03125-.3125.4375-.95314.6875.7969.25 1.20314.82813.40626.57812.40626 1.375 0 1.09375-.78126 1.84375-.76564.75-2.04687.75-1.26563 0-2.04687-.75-.78126-.75-.78126-1.875 0-.84375.42186-1.40625.4375-.5625 1.21877-.76563zm-.21877-1.79687q0 .60937.39064 1 .40626.39062 1.03126.39062.60937 0 1-.375.3906-.39062.3906-.95312 0-.57813-.40623-.96875-.40627-.40625-1-.40625-.60937 0-1.01563.39062-.39064.39063-.39064.92188zm-.3281 3.96875q0 .45312.2031.875.21877.42187.64064.65625.42186.23437.90626.23437.75 0 1.23437-.48437.5-.48438.5-1.23438 0-.76562-.5-1.26562-.5-.5-1.26563-.5-.75 0-1.23437.5-.48437.48437-.48437 1.21875zm5.98437-4.98438v-1.01562h5.5625v.82812q-.8125.875-1.625 2.32813-.79687 1.4375-1.23437 2.96875-.32813 1.07812-.40626 2.35937h-1.09374q.0156-1.01562.3906-2.45312.39064-1.4375 1.09377-2.76563.71873-1.32812 1.53123-2.25zm8.5625 2.8125q-.65627-.25-.98437-.6875-.3125-.45312-.3125-1.0625 0-.9375.67187-1.57812.6875-.64063 1.79687-.64063 1.125 0 1.8125.65625.6875.65625.6875 1.59375 0 .59375-.3125 1.03125-.3125.4375-.95314.6875.7969.25 1.20314.82813.40626.57812.40626 1.375 0 1.09375-.78126 1.84375-.76564.75-2.04687.75-1.26563 0-2.04687-.75-.78126-.75-.78126-1.875 0-.84375.42186-1.40625.4375-.5625 1.21877-.76563zm-.21877-1.79687q0 .60937.39064 1 .40626.39062 1.03126.39062.60937 0 1-.375.3906-.39062.3906-.95312 0-.57813-.40623-.96875-.40627-.40625-1-.40625-.60937 0-1.01563.39062-.39064.39063-.39064.92188zm-.3281 3.96875q0 .45312.2031.875.21877.42187.64064.65625.42186.23437.90626.23437.75 0 1.23437-.48437.5-.48438.5-1.23438 0-.76562-.5-1.26562-.5-.5-1.26563-.5-.75 0-1.23437.5-.48437.48437-.48437 1.21875zm11.3906-4-1.04686.07812q-.14064-.625-.39064-.90625-.4375-.45312-1.0625-.45312-.5 0-.8906.28125-.4844.375-.78126 1.07812-.28124.6875-.29687 1.96875.375-.57812.92187-.85937.5625-.28125 1.17186-.28125 1.0469 0 1.78127.78125.75.78125.75 2 0 .8125-.35937 1.51562-.34376.6875-.95313 1.0625-.60937.35938-1.375.35938-1.32813 0-2.15627-.96875-.8281-.96875-.8281-3.1875 0-2.5.92187-3.625.79687-.98438 2.15623-.98438 1.01564 0 1.65627.57813.65623.5625.78123 1.5625zm-4.29686 3.70312q0 .54688.21876 1.04688.23437.48437.6406.75.4219.26562.89064.26562.65626 0 1.14063-.53125.48437-.54687.48437-1.46875 0-.89062-.48437-1.40625-.46877-.51562-1.1875-.51562-.71877 0-1.21877.51562-.48436.51563-.48436 1.34375zm9.20313 2.78125v-2.0625h-3.71877v-.96875l3.9219-5.5625h.85937v5.5625h1.15623v.96875h-1.15623v2.0625zm0-3.03125v-3.85937l-2.6875 3.85937zm3.625-1.20312q0-1.53125.3125-2.45313.3125-.9375.92187-1.4375.625-.5 1.5625-.5.6875 0 1.20313.28125.53123.28125.875.8125.34373.51563.53123 1.26563.1875.75.1875 2.03125 0 1.51562-.3125 2.4375-.29686.92187-.92186 1.4375-.60937.5-1.5625.5-1.23437 0-1.95314-.89063-.84373-1.0625-.84373-3.48437zm1.07813 0q0 2.10937.5 2.8125.5.70312 1.21874.70312.73436 0 1.21876-.70312.5-.70313.5-2.8125 0-2.125-.5-2.8125-.4844-.70313-1.2344-.70313-.71873 0-1.15623.60938-.54687.78125-.54687 2.90625zm5.98437-3.23438v-1.01562h5.5625v.82812q-.8125.875-1.625 2.32813-.79687 1.4375-1.23437 2.96875-.32813 1.07812-.40626 2.35937h-1.09374q.0156-1.01562.3906-2.45312.39064-1.4375 1.09377-2.76563.71873-1.32812 1.53123-2.25zm7 0v-1.01562h5.5625v.82812q-.8125.875-1.625 2.32813-.79687 1.4375-1.23437 2.96875-.32813 1.07812-.40626 2.35937h-1.09374q.0156-1.01562.3906-2.45312.39064-1.4375 1.09377-2.76563.71873-1.32812 1.53123-2.25zm7 0v-1.01562h5.5625v.82812q-.8125.875-1.625 2.32813-.79687 1.4375-1.23437 2.96875-.32813 1.07812-.40626 2.35937h-1.09374q.0156-1.01562.3906-2.45312.39064-1.4375 1.09377-2.76563.71873-1.32812 1.53123-2.25z" fill="#ea4335"/>
  <path d="m874.3525 563.3161q0-1.53125.3125-2.4531.3125-.9375.92185-1.4375.625-.5 1.5625-.5.6875 0 1.20315.2812.5312.2813.875.8125.3437.51565.5312 1.26565.1875.75.1875 2.03125 0 1.5156-.3125 2.4375-.29685.9219-.92185 1.4375-.60935.5-1.5625.5-1.23435 0-1.95315-.8906-.8437-1.0625-.8437-3.4844zm1.0781 0q0 2.1094.5 2.8125.5.7031 1.21875.7031.73435 0 1.21875-.7031.5-.7031.5-2.8125 0-2.125-.5-2.8125-.4844-.7031-1.2344-.7031-.7187 0-1.1562.60935-.5469.78125-.5469 2.90625zm6.4844 4.2344v-1.20315h1.2031v1.20315q0 .6562-.2344 1.0625-.23435.42185-.73435.6406l-.29685-.4531q.3281-.14065.48435-.4375.15625-.2813.1875-.8125zm5.8125 0v-2.0625h-3.7188v-.9688l3.9219-5.5625h.8594v5.5625h1.1562v.9688h-1.1562v2.0625zm0-3.0313v-3.85935l-2.6875 3.85935zm9.0937-3.4531-1.04685.0781q-.14065-.625-.39065-.9062-.4375-.45315-1.0625-.45315-.5 0-.8906.28125-.4844.375-.78125 1.0781-.28125.6875-.29685 1.9688.375-.57815.92185-.8594.5625-.28125 1.17185-.28125 1.0469 0 1.7813.78125.75.78125.75 2 0 .8125-.3594 1.5156-.34375.6875-.9531 1.0625-.6094.3594-1.375.3594-1.32815 0-2.1563-.96875-.8281-.96875-.8281-3.1875 0-2.5.9219-3.625.79685-.98435 2.1562-.98435 1.01565 0 1.6563.5781.6562.5625.7812 1.5625zm-4.29685 3.7031q0 .5469.21875 1.0469.2344.4844.6406.75.4219.2656.89065.2656.65625 0 1.14065-.5312.48435-.5469.48435-1.4688 0-.8906-.48435-1.4062-.4688-.51565-1.1875-.51565-.7188 0-1.2188.51565-.48435.5156-.48435 1.3437zm11.375 1.76565v1.01565h-5.6875q0-.375.125-.7344.21875-.5781.6875-1.1406.48435-.5625 1.39065-1.2969 1.4062-1.15625 1.8906-1.8281.5-.6719.5-1.26565 0-.625-.4531-1.04685-.45315-.4375-1.1719-.4375-.7656 0-1.21875.4531-.45315.4531-.46875 1.2656l-1.0781-.10935q.10935-1.21875.8281-1.84375.7344-.6406 1.96875-.6406 1.23435 0 1.95315.6875.7187.6875.7187 1.7031 0 .5156-.2187 1.0156-.20315.4844-.70315 1.0469-.48435.5469-1.60935 1.5-.95315.7969-1.2344 1.09375-.2656.28125-.4375.5625zm4.82815 1.01565v-2.0625h-3.7188v-.9688l3.9219-5.5625h.8594v5.5625h1.1562v.9688h-1.1562v2.0625zm0-3.0313v-3.85935l-2.6875 3.85935zm9.0937-3.4531-1.04685.0781q-.14065-.625-.39065-.9062-.4375-.45315-1.0625-.45315-.5 0-.8906.28125-.4844.375-.78125 1.0781-.28125.6875-.29685 1.9688.375-.57815.92185-.8594.5625-.28125 1.17185-.28125 1.0469 0 1.7813.78125.75.78125.75 2 0 .8125-.3594 1.5156-.34375.6875-.9531 1.0625-.6094.3594-1.375.3594-1.32815 0-2.1563-.96875-.8281-.96875-.8281-3.1875 0-2.5.9219-3.625.79685-.98435 2.1562-.98435 1.01565 0 1.6563.5781.6562.5625.7812 1.5625zm-4.29685 3.7031q0 .5469.21875 1.0469.2344.4844.6406.75.4219.2656.89065.2656.65625 0 1.14065-.5312.48435-.5469.48435-1.4688 0-.8906-.48435-1.4062-.4688-.51565-1.1875-.51565-.7188 0-1.2188.51565-.48435.5156-.48435 1.3437zm5.89065-4.6875v-1.0156h5.5625v.8281q-.8125.875-1.625 2.32815-.7969 1.4375-1.2344 2.96875-.3281 1.0781-.40625 2.3594h-1.09375q.0156-1.01565.3906-2.45315.39065-1.4375 1.0938-2.76565.7187-1.3281 1.5312-2.25zm6.9375 5.20315 1.0625-.14065q.17185.89065.60935 1.2969.4375.3906 1.0625.3906.75 0 1.26565-.5156.5156-.5156.5156-1.28125 0-.71875-.4844-1.1875-.4687-.48435-1.2031-.48435-.2969 0-.75.125l.125-.9375q.1094.0156.1719.0156.67185 0 1.2031-.34375.5469-.35935.5469-1.09375 0-.5781-.39065-.9531-.39065-.39065-1.01565-.39065-.60935 0-1.0312.39065-.4063.3906-.51565 1.1562l-1.0625-.1875q.1875-1.04685.875-1.625.6875-.5937 1.70315-.5937.7031 0 1.29685.3125.59375.29685.90625.8125.3125.5156.3125 1.10935 0 .54685-.2969 1.01565-.29685.4531-.875.7187.75.1719 1.1719.7344.4219.5469.4219 1.3906 0 1.125-.82815 1.9063-.8125.7812-2.0625.7812-1.125 0-1.875-.67185-.75-.6875-.85935-1.75zm12.4687-4.21875-1.04685.0781q-.14065-.625-.39065-.9062-.4375-.45315-1.0625-.45315-.5 0-.8906.28125-.4844.375-.78125 1.0781-.28125.6875-.29685 1.9688.375-.57815.92185-.8594.5625-.28125 1.17185-.28125 1.0469 0 1.7813.78125.75.78125.75 2 0 .8125-.3594 1.5156-.34375.6875-.9531 1.0625-.6094.3594-1.375.3594-1.32815 0-2.1563-.96875-.8281-.96875-.8281-3.1875 0-2.5.9219-3.625.79685-.98435 2.1562-.98435 1.01565 0 1.6563.5781.6562.5625.7812 1.5625zm-4.29685 3.7031q0 .5469.21875 1.0469.2344.4844.6406.75.4219.2656.89065.2656.65625 0 1.14065-.5312.48435-.5469.48435-1.4688 0-.8906-.48435-1.4062-.4688-.51565-1.1875-.51565-.7188 0-1.2188.51565-.48435.5156-.48435 1.3437zm11.375 1.76565v1.01565h-5.6875q0-.375.125-.7344.21875-.5781.6875-1.1406.48435-.5625 1.39065-1.2969 1.4062-1.15625 1.8906-1.8281.5-.6719.5-1.26565 0-.625-.4531-1.04685-.45315-.4375-1.1719-.4375-.7656 0-1.21875.4531-.45315.4531-.46875 1.2656l-1.0781-.10935q.10935-1.21875.8281-1.84375.7344-.6406 1.96875-.6406 1.23435 0 1.95315.6875.7187.6875.7187 1.7031 0 .5156-.2187 1.0156-.20315.4844-.70315 1.0469-.48435.5469-1.60935 1.5-.95315.7969-1.2344 1.09375-.2656.28125-.4375.5625zm1.60935-.96875 1.01565-.09375q.125.71875.48435 1.04685.375.3125.9375.3125.4844 0 .8438-.2187.375-.2344.60935-.5938.23435-.375.39065-1 .1562-.6406.1562-1.29685 0-.07815 0-.21875-.3125.5-.85935.8281-.54685.3125-1.1875.3125-1.07815 0-1.8125-.7656-.73435-.78125-.73435-2.0469 0-1.3125.7656-2.10935.78125-.79685 1.9375-.79685.8281 0 1.5156.4531.70315.4531 1.0625 1.2969.3594.8281.3594 2.4062 0 1.64065-.3594 2.625-.3437.9688-1.0625 1.4844-.7031.5-1.6406.5-1.0156 0-1.65625-.5469-.64065-.5625-.76565-1.5781zm4.3125-3.7969q0-.9062-.48435-1.4375-.46875-.5312-1.15625-.5312-.7031 0-1.2344.5781-.5156.5625-.5156 1.4844 0 .8125.5 1.3281.5.5156 1.21875.5156.73435 0 1.20315-.5156.4687-.5156.4687-1.4219z" stroke="#fff" stroke-linecap="round" stroke-linejoin="round" stroke-width="3"/>
  <path d="m874.3525 563.3161q0-1.53125.3125-2.4531.3125-.9375.92185-1.4375.625-.5 1.5625-.5.6875 0 1.20315.2812.5312.2813.875.8125.3437.51565.5312 1.26565.1875.75.1875 2.03125 0 1.5156-.3125 2.4375-.29685.9219-.92185 1.4375-.60935.5-1.5625.5-1.23435 0-1.95315-.8906-.8437-1.0625-.8437-3.4844zm1.0781 0q0 2.1094.5 2.8125.5.7031 1.21875.7031.73435 0 1.21875-.7031.5-.7031.5-2.8125 0-2.125-.5-2.8125-.4844-.7031-1.2344-.7031-.7187 0-1.1562.60935-.5469.78125-.5469 2.90625zm6.4844 4.2344v-1.20315h1.2031v1.20315q0 .6562-.2344 1.0625-.23435.42185-.73435.6406l-.29685-.4531q.3281-.14065.48435-.4375.15625-.2813.1875-.8125zm5.8125 0v-2.0625h-3.7188v-.9688l3.9219-5.5625h.8594v5.5625h1.1562v.9688h-1.1562v2.0625zm0-3.0313v-3.85935l-2.6875 3.85935zm9.0937-3.4531-1.04685.0781q-.14065-.625-.39065-.9062-.4375-.45315-1.0625-.45315-.5 0-.8906.28125-.4844.375-.78125 1.0781-.28125.6875-.29685 1.9688.375-.57815.92185-.8594.5625-.28125 1.17185-.28125 1.0469 0 1.7813.78125.75.78125.75 2 0 .8125-.3594 1.5156-.34375.6875-.9531 1.0625-.6094.3594-1.375.3594-1.32815 0-2.1563-.96875-.8281-.96875-.8281-3.1875 0-2.5.9219-3.625.79685-.98435 2.1562-.98435 1.01565 0 1.6563.5781.6562.5625.7812 1.5625zm-4.29685 3.7031q0 .5469.21875 1.0469.2344.4844.6406.75.4219.2656.89065.2656.65625 0 1.14065-.5312.48435-.5469.48435-1.4688 0-.8906-.48435-1.4062-.4688-.51565-1.1875-.51565-.7188 0-1.2188.51565-.48435.5156-.48435 1.3437zm11.375 1.76565v1.01565h-5.6875q0-.375.125-.7344.21875-.5781.6875-1.1406.48435-.5625 1.39065-1.2969 1.4062-1.15625 1.8906-1.8281.5-.6719.5-1.26565 0-.625-.4531-1.04685-.45315-.4375-1.1719-.4375-.7656 0-1.21875.4531-.45315.4531-.46875 1.2656l-1.0781-.10935q.10935-1.21875.8281-1.84375.7344-.6406 1.96875-.6406 1.23435 0 1.95315.6875.7187.6875.7187 1.7031 0 .5156-.2187 1.0156-.20315.4844-.70315 1.0469-.48435.5469-1.60935 1.5-.95315.7969-1.2344 1.09375-.2656.28125-.4375.5625zm4.82815 1.01565v-2.0625h-3.7188v-.9688l3.9219-5.5625h.8594v5.5625h1.1562v.9688h-1.1562v2.0625zm0-3.0313v-3.85935l-2.6875 3.85935zm9.0937-3.4531-1.04685.0781q-.14065-.625-.39065-.9062-.4375-.45315-1.0625-.45315-.5 0-.8906.28125-.4844.375-.78125 1.0781-.28125.6875-.29685 1.9688.375-.57815.92185-.8594.5625-.28125 1.17185-.28125 1.0469 0 1.7813.78125.75.78125.75 2 0 .8125-.3594 1.5156-.34375.6875-.9531 1.0625-.6094.3594-1.375.3594-1.32815 0-2.1563-.96875-.8281-.96875-.8281-3.1875 0-2.5.9219-3.625.79685-.98435 2.1562-.98435 1.01565 0 1.6563.5781.6562.5625.7812 1.5625zm-4.29685 3.7031q0 .5469.21875 1.0469.2344.4844.6406.75.4219.2656.89065.2656.65625 0 1.14065-.5312.48435-.5469.48435-1.4688 0-.8906-.48435-1.4062-.4688-.51565-1.1875-.51565-.7188 0-1.2188.51565-.48435.5156-.48435 1.3437zm5.89065-4.6875v-1.0156h5.5625v.8281q-.8125.875-1.625 2.32815-.7969 1.4375-1.2344 2.96875-.3281 1.0781-.40625 2.3594h-1.09375q.0156-1.01565.3906-2.45315.39065-1.4375 1.0938-2.76565.7187-1.3281 1.5312-2.25zm6.9375 5.20315 1.0625-.14065q.17185.89065.60935 1.2969.4375.3906 1.0625.3906.75 0 1.26565-.5156.5156-.5156.5156-1.28125 0-.71875-.4844-1.1875-.4687-.48435-1.2031-.48435-.2969 0-.75.125l.125-.9375q.1094.0156.1719.0156.67185 0 1.2031-.34375.5469-.35935.5469-1.09375 0-.5781-.39065-.9531-.39065-.39065-1.01565-.39065-.60935 0-1.0312.39065-.4063.3906-.51565 1.1562l-1.0625-.1875q.1875-1.04685.875-1.625.6875-.5937 1.70315-.5937.7031 0 1.29685.3125.59375.29685.90625.8125.3125.5156.3125 1.10935 0 .54685-.2969 1.01565-.29685.4531-.875.7187.75.1719 1.1719.7344.4219.5469.4219 1.3906 0 1.125-.82815 1.9063-.8125.7812-2.0625.7812-1.125 0-1.875-.67185-.75-.6875-.85935-1.75zm12.4687-4.21875-1.04685.0781q-.14065-.625-.39065-.9062-.4375-.45315-1.0625-.45315-.5 0-.8906.28125-.4844.375-.78125 1.0781-.28125.6875-.29685 1.9688.375-.57815.92185-.8594.5625-.28125 1.17185-.28125 1.0469 0 1.7813.78125.75.78125.75 2 0 .8125-.3594 1.5156-.34375.6875-.9531 1.0625-.6094.3594-1.375.3594-1.32815 0-2.1563-.96875-.8281-.96875-.8281-3.1875 0-2.5.9219-3.625.79685-.98435 2.1562-.98435 1.01565 0 1.6563.5781.6562.5625.7812 1.5625zm-4.29685 3.7031q0 .5469.21875 1.0469.2344.4844.6406.75.4219.2656.89065.2656.65625 0 1.14065-.5312.48435-.5469.48435-1.4688 0-.8906-.48435-1.4062-.4688-.51565-1.1875-.51565-.7188 0-1.2188.51565-.48435.5156-.48435 1.3437zm11.375 1.76565v1.01565h-5.6875q0-.375.125-.7344.21875-.5781.6875-1.1406.48435-.5625 1.39065-1.2969 1.4062-1.15625 1.8906-1.8281.5-.6719.5-1.26565 0-.625-.4531-1.04685-.45315-.4375-1.1719-.4375-.7656 0-1.21875.4531-.45315.4531-.46875 1.2656l-1.0781-.10935q.10935-1.21875.8281-1.84375.7344-.6406 1.96875-.6406 1.23435 0 1.95315.6875.7187.6875.7187 1.7031 0 .5156-.2187 1.0156-.20315.4844-.70315 1.0469-.48435.5469-1.60935 1.5-.95315.7969-1.2344 1.09375-.2656.28125-.4375.5625zm1.60935-.96875 1.01565-.09375q.125.71875.48435 1.04685.375.3125.9375.3125.4844 0 .8438-.2187.375-.2344.60935-.5938.23435-.375.39065-1 .1562-.6406.1562-1.29685 0-.07815 0-.21875-.3125.5-.85935.8281-.54685.3125-1.1875.3125-1.07815 0-1.8125-.7656-.73435-.78125-.73435-2.0469 0-1.3125.7656-2.10935.78125-.79685 1.9375-.79685.8281 0 1.5156.4531.70315.4531 1.0625 1.2969.3594.8281.3594 2.4062 0 1.64065-.3594 2.625-.3437.9688-1.0625 1.4844-.7031.5-1.6406.5-1.0156 0-1.65625-.5469-.64065-.5625-.76565-1.5781zm4.3125-3.7969q0-.9062-.48435-1.4375-.46875-.5312-1.15625-.5312-.7031 0-1.2344.5781-.5156.5625-.5156 1.4844 0 .8125.5 1.3281.5.5156 1.21875.5156.73435 0 1.20315-.5156.4687-.5156.4687-1.4219z" fill="#ea4335"/>
  <g fill="#000">
    <path d="m559.1094 642.05v-7.57814h-2.82815v-1.01562h6.8125v1.01562h-2.84375v7.57814zm4.6875 0v-8.59376h1.04685v3.07812q.73435-.84376 1.85935-.84376.70315 0 1.20315.28126.51565.26564.73435.75.2188.46874.2188 1.39064v3.9375h-1.0469v-3.9375q0-.7969-.34375-1.15626-.34375-.35938-.96875-.35938-.46875 0-.8906.25-.4063.23438-.5938.65624-.17185.40626-.17185 1.14064v3.40626zm6.98435 0v-6.21876h.95315v.9375q.35935-.65624.6562-.85938.3125-.21876.6875-.21876.5313 0 1.07815.32814l-.35935.98436q-.39065-.23436-.76565-.23436-.35935 0-.64065.21876-.2656.2031-.375.5781-.1875.5625-.1875 1.21876v3.26564zm8.26565-2 1.0937.125q-.25.9531-.9531 1.48436-.7031.53124-1.78125.53124-1.35935 0-2.17185-.84374-.7969-.84376-.7969-2.35936 0-1.5625.8125-2.4219.8125-.875 2.09375-.875 1.25 0 2.03125.84376.7969.84374.7969 2.39064 0 .09374 0 .28124h-4.64065q.0625 1.03126.57815 1.57812.5156.53124 1.29685.53124.57815 0 .98435-.29686.4219-.3125.6563-.96874zm-3.45315-1.70314h3.46875q-.0625-.79686-.3906-1.1875-.51565-.60936-1.3125-.60936-.7344 0-1.2344.48436-.4844.48438-.53125 1.3125zm10.26565 2.9375q-.5938.5-1.14065.70314-.53125.2031-1.15625.2031-1.03125 0-1.5781-.5-.5469-.5-.5469-1.28124 0-.45312.2031-.82812.20315-.39064.5469-.60938.34375-.23436.7656-.34376.2969-.09374.9375-.17186 1.26565-.14064 1.875-.35938 0-.21876 0-.26562 0-.65624-.29685-.92188-.40625-.34376-1.20315-.34376-.73435 0-1.0937.26564-.3594.25-.5313.90626l-1.0312-.14064q.1406-.65626.4687-1.0625.32815-.40626.9375-.625.6094-.21876 1.4063-.21876.79685 0 1.29685.1875.5.1875.73435.46876.2344.28124.32815.71874.04685.26564.04685.96876v1.40624q0 1.46876.0625 1.8594.07815.3906.2813.75h-1.1094q-.15625-.32814-.2031-.76564zm-.0938-2.35936q-.5781.23436-1.7187.40624-.6563.09376-.9219.21876-.2656.10936-.4219.3281-.1406.21876-.1406.5 0 .4219.3125.70314.3281.28126.9375.28126.6094 0 1.0781-.26564.4844-.26562.70315-.73436.17185-.3594.17185-1.0469zm7.0625 3.125v-.78126q-.5937.92186-1.73435.92186-.75 0-1.375-.40624-.625-.42186-.96875-1.15626-.34375-.73436-.34375-1.6875 0-.92186.3125-1.6875.3125-.7656.9375-1.15624.625-.40626 1.39065-.40626.5625 0 1 .2344.4375.23436.7187.60936v-3.07812h1.0469v8.59376zm-3.3281-3.1094q0 1.20314.5 1.7969.5.5781 1.1875.5781.6875 0 1.1719-.5625.48435-.5625.48435-1.71874 0-1.28126-.5-1.875-.48435-.59376-1.20315-.59376-.7031 0-1.17185.57814-.46875.5625-.46875 1.79686zm5.875 1.25 1.03125-.15624q.09375.625.48435.95314.4063.3281 1.14065.3281.71875 0 1.0625-.28124.35935-.29686.35935-.70312 0-.35938-.3125-.5625-.2187-.14064-1.0781-.35938-1.15625-.29686-1.6094-.5-.4375-.21876-.67185-.59376-.23435-.375-.23435-.84374 0-.40626.1875-.76562.1875-.35938.5156-.59374.25-.1719.6719-.2969.42185-.125.92185-.125.71875 0 1.26565.21876.5625.20314.8281.5625.2656.35938.3594.95314l-1.0313.1406q-.0625-.46874-.4062-.73436-.32815-.28124-.95315-.28124-.71875 0-1.03125.25-.3125.23436-.3125.5625 0 .2031.125.35936.1406.17188.40625.28124.15625.0625.9375.26564 1.125.3125 1.5625.5.4375.1875.6875.54686.25.3594.25.90626 0 .53124-.3125 1-.29685.45314-.875.71874-.57815.25-1.3125.25-1.21875 0-1.85935-.5-.625-.5156-.7969-1.5z"/>
    <path d="m44.94999 366.86356h-8.59375v-6.20313h1.015624v5.0625h2.625v-4.75h1.015626v4.75h2.921874v-5.26563h1.015626zm0-8.09376h-5.40625v.9375h-.8125v-.9375h-.671876q-.625 0-.921874-.10937-.421876-.15625-.671876-.53125-.25-.39062-.25-1.07812 0-.45313.109376-.98438l.90625.15625q-.046876.32813-.046876.625 0 .48437.203126.6875.203124.1875.765624.1875h.578126v-1.21875h.8125v1.21875h5.40625zm0-3h-5.40625v.9375h-.8125v-.9375h-.671876q-.625 0-.921874-.10937-.421876-.15625-.671876-.53125-.25-.39062-.25-1.07812 0-.45313.109376-.98438l.90625.15625q-.046876.32813-.046876.625 0 .48437.203126.6875.203124.1875.765624.1875h.578126v-1.21875h.8125v1.21875h5.40625zm-7.375-2.75h-1.21875v-1.0625h1.21875zm7.375 0h-6.21875v-1.0625h6.21875zm-2.28125-7.0625.140624-1.03124q1.0625.17187 1.671876.875.609374.70312.609374 1.71874 0 1.28126-.828124 2.0625-.84375.76563-2.40625.76563-1 0-1.75-.32813-.765626-.34374-1.140626-1.01562-.375-.6875-.375-1.5 0-1 .515626-1.64062.5-.65626 1.453124-.84376l.15625 1.03126q-.625.14062-.9375.51562-.328124.375-.328124.90625 0 .79687.578124 1.29687.5625.5 1.796876.5 1.265624 0 1.828124-.48437.5625-.48437.5625-1.25 0-.625-.375-1.03125-.375-.42188-1.171874-.54688zm-5.09375-1.9375h-1.21875v-1.0625h1.21875zm7.375 0h-6.21875v-1.0625h6.21875zm-2-7.25.125-1.09374q.953124.25 1.484374.95312.53125.70312.53125 1.78125 0 1.35937-.84375 2.17187-.84375.79688-2.359374.79688-1.5625 0-2.421876-.8125-.875-.8125-.875-2.09375 0-1.25.84375-2.03125.84375-.79688 2.390626-.79688.09375 0 .28125 0v4.64063q1.03125-.0625 1.578124-.57813.53125-.51562.53125-1.29687 0-.57813-.296874-.98437-.3125-.42188-.96875-.65626zm-1.703126 3.45313v-3.46875q-.796874.0625-1.1875.39062-.609374.51563-.609374 1.3125 0 .73438.484374 1.23438.484376.48438 1.3125.53125zm3.703126-6.20313h-6.21875v-.9375h.875q-1.015626-.6875-1.015626-1.98437 0-.5625.203126-1.03125.203124-.48438.53125-.71875.328124-.23437.765624-.32813.296876-.04687 1.03125-.04687h3.828126v1.04687h-3.78125q-.65625 0-.96875.125-.3125.125-.5.4375-.203126.3125-.203126.73438 0 .67188.4375 1.17188.421876.48437 1.609376.48437h3.40625zm-2.28125-11.0625.140624-1.03124q1.0625.17187 1.671876.875.609374.70312.609374 1.71874 0 1.28126-.828124 2.0625-.84375.76563-2.40625.76563-1 0-1.75-.32813-.765626-.34374-1.140626-1.01562-.375-.6875-.375-1.5 0-1 .515626-1.64062.5-.65626 1.453124-.84376l.15625 1.03126q-.625.14062-.9375.51562-.328124.375-.328124.90625 0 .79687.578124 1.29687.5625.5 1.796876.5 1.265624 0 1.828124-.48437.5625-.48437.5625-1.25 0-.625-.375-1.03125-.375-.42188-1.171874-.54688zm4.671874-1.89062-.984374.125q.09375-.34375.09375-.60938 0-.34374-.125-.54687-.109376-.21875-.3125-.35937-.171876-.09376-.796876-.32813-.078124-.01563-.25-.09375l-6.234374 2.375v-1.14062l3.59375-1.29688q.6875-.25 1.453124-.45312-.734374-.1875-1.421874-.4375l-3.625-1.32813v-1.04687l6.328124 2.35937q1.015626.39063 1.40625.59375.53125.28125.765626.65625.25.35937.25.85937 0 .29688-.140626.67188z"/>
    <path d="m70.45 592.8156q0-1.53124.3125-2.4531.3125-.9375.92187-1.4375.625-.5 1.5625-.5.6875 0 1.20313.28124.53125.28126.875.8125.34375.51562.53125 1.26562.1875.75.1875 2.03124 0 1.51564-.3125 2.4375-.29688.9219-.92188 1.4375-.60937.5-1.5625.5-1.23437 0-1.95312-.8906-.84375-1.0625-.84375-3.4844zm1.07812 0q0 2.1094.5 2.8125.5.70314 1.21875.70314.73438 0 1.21875-.70314.5-.7031.5-2.8125 0-2.125-.5-2.8125-.48437-.7031-1.23437-.7031-.71875 0-1.15625.60936-.54688.78124-.54688 2.90624zm6.48438 4.2344v-1.20314h1.20312v1.20314q0 .65624-.23437 1.0625-.23438.42186-.73438.6406l-.29687-.4531q.32812-.14064.48437-.4375.15625-.28126.1875-.8125zm5.8125 0v-2.0625h-3.71875v-.96876l3.92187-5.5625h.85938v5.5625h1.15625v.96876h-1.15625v2.0625zm0-3.03126v-3.85938l-2.6875 3.85938z"/>
    <path d="m70.45 420.9934q0-1.53124.3125-2.45312.3125-.9375.92187-1.4375.625-.5 1.5625-.5.6875 0 1.20313.28125.53125.28125.875.8125.34375.51563.53125 1.26563.1875.75.1875 2.03124 0 1.51563-.3125 2.4375-.29688.92188-.92188 1.4375-.60937.5-1.5625.5-1.23437 0-1.95312-.89062-.84375-1.0625-.84375-3.48438zm1.07812 0q0 2.10938.5 2.8125.5.70313 1.21875.70313.73438 0 1.21875-.70313.5-.70312.5-2.8125 0-2.125-.5-2.8125-.48437-.70312-1.23437-.70312-.71875 0-1.15625.60938-.54688.78124-.54688 2.90624zm6.48438 4.23438v-1.20312h1.20312v1.20312q0 .65625-.23437 1.0625-.23438.42188-.73438.64062l-.29687-.45312q.32812-.14062.48437-.4375.15625-.28125.1875-.8125zm7.90625-6.48438-1.04688.07813q-.14062-.625-.39062-.90625-.4375-.45312-1.0625-.45312-.5 0-.89063.28124-.48437.375-.78125 1.07813-.28125.6875-.29687 1.96875.375-.57812.92187-.85938.5625-.28124 1.17188-.28124 1.04687 0 1.78125.78124.75.78126.75 2 0 .8125-.35938 1.51563-.34375.6875-.95312 1.0625-.60938.35937-1.375.35937-1.32813 0-2.15625-.96874-.82813-.96876-.82813-3.1875 0-2.5.92188-3.625.79687-.98438 2.15625-.98438 1.01562 0 1.65625.57812.65625.5625.78125 1.5625zm-4.29688 3.70313q0 .54687.21875 1.04687.23438.48438.64063.75.42187.26563.89062.26563.65625 0 1.14063-.53125.48437-.54688.48437-1.46875 0-.89063-.48437-1.40625-.46875-.51562-1.1875-.51562-.71875 0-1.21875.51562-.48438.51562-.48438 1.34375z"/>
    <path d="m70.45 249.17117q0-1.53125.3125-2.45312.3125-.9375.92187-1.4375.625-.5 1.5625-.5.6875 0 1.20313.28125.53125.28125.875.8125.34375.51562.53125 1.26562.1875.75.1875 2.03125 0 1.51563-.3125 2.4375-.29688.92188-.92188 1.4375-.60937.5-1.5625.5-1.23437 0-1.95312-.89062-.84375-1.0625-.84375-3.48438zm1.07812 0q0 2.10938.5 2.8125.5.70313 1.21875.70313.73438 0 1.21875-.70313.5-.70312.5-2.8125 0-2.125-.5-2.8125-.48437-.70312-1.23437-.70312-.71875 0-1.15625.60937-.54688.78125-.54688 2.90625zm6.48438 4.23438v-1.20313h1.20312v1.20313q0 .65625-.23437 1.0625-.23438.42187-.73438.64062l-.29687-.45312q.32812-.14063.48437-.4375.15625-.28125.1875-.8125zm4.0625-4.65625q-.65625-.25-.98438-.6875-.3125-.45313-.3125-1.0625 0-.9375.67188-1.57813.6875-.64062 1.79687-.64062 1.125 0 1.8125.65625.6875.65625.6875 1.59375 0 .59375-.3125 1.03125-.3125.4375-.95312.6875.79687.25 1.20312.82812.40625.57813.40625 1.375 0 1.09375-.78125 1.84375-.76562.75-2.04687.75-1.26563 0-2.04688-.75-.78125-.75-.78125-1.875 0-.84375.42188-1.40625.4375-.5625 1.21875-.76562zm-.21875-1.79688q0 .60938.39062 1 .40625.39063 1.03125.39063.60938 0 1-.375.39063-.39063.39063-.95313 0-.57812-.40625-.96875-.40625-.40625-1-.40625-.60938 0-1.01563.39063-.39062.39062-.39062.92187zm-.32813 3.96875q0 .45313.20313.875.21875.42188.64062.65625.42188.23438.90625.23438.75 0 1.23438-.48438.5-.48437.5-1.23437 0-.76563-.5-1.26563-.5-.5-1.26563-.5-.75 0-1.23437.5-.48438.48438-.48438 1.21875z"/>
    <path d="m84.41875 81.583336h-1.04688v-6.71875q-.39062.359374-1.01562.734374-.60938.359376-1.09375.53125v-1.015624q.875-.421876 1.53125-1 .67187-.59375.95312-1.15625h.67188z"/>
    <path d="m191.02875 610.05h-1.04688v-6.71876q-.39062.35936-1.01562.73436-.60938.3594-1.09375.53126v-1.01562q.875-.42188 1.53125-1 .67187-.59374.95312-1.15624h.67188z"/>
    <path d="m386.82687 609.03436v1.01564h-5.6875q0-.375.125-.7344.21875-.5781.6875-1.1406.48438-.5625 1.39063-1.2969 1.40625-1.15624 1.89062-1.8281.5-.6719.5-1.26564 0-.625-.45312-1.04686-.45313-.4375-1.17188-.4375-.76562 0-1.21875.4531-.45312.45314-.46875 1.26564l-1.07812-.10938q.10937-1.21876.82812-1.84376.73438-.6406 1.96875-.6406 1.23438 0 1.95313.6875.71875.6875.71875 1.7031 0 .51564-.21875 1.01564-.20313.48436-.70313 1.04686-.48437.5469-1.60937 1.5-.95313.7969-1.23438 1.09376-.26562.28124-.4375.5625z"/>
    <path d="m578.875 610.05v-2.0625h-3.71875v-.96876l3.92185-5.5625h.8594v5.5625h1.15625v.96876h-1.15625v2.0625zm0-3.03126v-3.85938l-2.6875 3.85938z"/>
    <path d="m771.345 605.39374q-.6563-.25-.9844-.6875-.3125-.45314-.3125-1.0625 0-.9375.6719-1.57814.6875-.6406 1.79685-.6406 1.125 0 1.8125.65624.6875.65626.6875 1.59376 0 .59374-.3125 1.03124-.3125.4375-.95315.6875.7969.25 1.20315.82812.40625.57814.40625 1.375 0 1.09374-.78125 1.84374-.76565.75-2.04685.75-1.26565 0-2.0469-.75-.78125-.75-.78125-1.875 0-.84374.42185-1.40624.4375-.5625 1.2188-.76562zm-.2188-1.79688q0 .60938.39065 1 .40625.39064 1.03125.39064.6094 0 1-.375.3906-.39064.3906-.95314 0-.57812-.4062-.96876-.4063-.40624-1-.40624-.6094 0-1.01565.39064-.39065.3906-.39065.92186zm-.3281 3.96874q0 .45314.2031.875.2188.4219.64065.65626.42185.23438.90625.23438.75 0 1.2344-.48438.5-.48436.5-1.23436 0-.76564-.5-1.26564-.5-.5-1.26565-.5-.75 0-1.23435.5-.4844.48438-.4844 1.21874z"/>
    <path d="m964.40875 610.05h-1.04685v-6.71876q-.39065.35936-1.01565.73436-.60935.3594-1.09375.53126v-1.01562q.875-.42188 1.53125-1 .67185-.59374.95315-1.15624h.67185zm8.5-6.4844-1.04685.07814q-.14065-.625-.39065-.90624-.4375-.45314-1.0625-.45314-.5 0-.89065.28124-.48435.375-.7812 1.07814-.2813.6875-.2969 1.96876.375-.57814.9219-.8594.5625-.28124 1.17185-.28124 1.04685 0 1.78125.78124.75.78126.75 2 0 .8125-.3594 1.51564-.3437.6875-.9531 1.0625-.6094.35936-1.375.35936-1.3281 0-2.15625-.96874-.82815-.96876-.82815-3.1875 0-2.5.9219-3.625.7969-.98436 2.15625-.98436 1.01565 0 1.65625.5781.65625.5625.78125 1.5625zm-4.29685 3.70314q0 .54686.2187 1.04686.2344.4844.64065.75.42185.26564.89065.26564.6562 0 1.1406-.53124.4844-.5469.4844-1.46876 0-.89064-.4844-1.40624-.46875-.51564-1.1875-.51564-.71875 0-1.21875.51564-.48435.5156-.48435 1.34374z"/>
  </g>
  <path d="m466 40.95c0 3.31371-2.68628 6-6 6s-6-2.68629-6-6 2.68628-6 6-6 6 2.68629 6 6z" fill="#4285f4"/>
  <path d="m478.46875 44.95h-1.04687v-6.71875q-.39063.359376-1.01563.734376-.60937.359374-1.09375.53125v-1.015626q.875-.421874 1.53125-1 .67187-.59375.95313-1.15625h.67187zm3.03125-4.234374q0-1.53125.3125-2.453126.3125-.9375.92188-1.4375.625-.5 1.5625-.5.6875 0 1.20312.28125.53125.28125.875.8125.34375.515626.53125 1.265626.1875.75.1875 2.03125 0 1.515624-.3125 2.4375-.29687.921874-.92187 1.4375-.60938.5-1.5625.5-1.23438 0-1.95313-.890626-.84375-1.0625-.84375-3.484374zm1.07812 0q0 2.109374.5 2.8125.5.703124 1.21876.703124.73437 0 1.21874-.703124.5-.703126.5-2.8125 0-2.125-.5-2.8125-.48437-.703126-1.23437-.703126-.71875 0-1.15625.609376-.54688.78125-.54688 2.90625zm5.92188 0q0-1.53125.3125-2.453126.3125-.9375.92188-1.4375.625-.5 1.5625-.5.6875 0 1.20312.28125.53125.28125.875.8125.34375.515626.53125 1.265626.1875.75.1875 2.03125 0 1.515624-.3125 2.4375-.29687.921874-.92187 1.4375-.60938.5-1.5625.5-1.23438 0-1.95313-.890626-.84375-1.0625-.84375-3.484374zm1.07812 0q0 2.109374.5 2.8125.5.703124 1.21876.703124.73437 0 1.21874-.703124.5-.703126.5-2.8125 0-2.125-.5-2.8125-.48437-.703126-1.23437-.703126-.71875 0-1.15625.609376-.54688.78125-.54688 2.90625zm5.92188 0q0-1.53125.3125-2.453126.3125-.9375.92188-1.4375.625-.5 1.5625-.5.6875 0 1.20312.28125.53125.28125.875.8125.34375.515626.53125 1.265626.1875.75.1875 2.03125 0 1.515624-.3125 2.4375-.29687.921874-.92187 1.4375-.60938.5-1.5625.5-1.23438 0-1.95313-.890626-.84375-1.0625-.84375-3.484374zm1.07812 0q0 2.109374.5 2.8125.5.703124 1.21876.703124.73437 0 1.21874-.703124.5-.703126.5-2.8125 0-2.125-.5-2.8125-.48437-.703126-1.23437-.703126-.71875 0-1.15625.609376-.54688.78125-.54688 2.90625zm8.79688-2.78125.26562-.828126q.9375.328126 1.35938.5625-.10938-1.0625-.125-1.453124h.85938q-.01563.578124-.14063 1.453124.60937-.3125 1.39063-.5625l.26562.828126q-.75.25-1.45312.328124.34374.3125 1 1.109376l-.70313.5q-.34375-.46875-.79687-1.265626-.4375.828126-.76563 1.265626l-.6875-.5q.67187-.84375.96875-1.109376-.75-.140624-1.4375-.328124zm12.09375 7.015624h-1.04685v-6.71875q-.39065.359376-1.01565.734376-.60935.359374-1.09375.53125v-1.015626q.875-.421874 1.53125-1 .67185-.59375.95315-1.15625h.67185zm3.03125-4.234374q0-1.53125.3125-2.453126.3125-.9375.9219-1.4375.625-.5 1.5625-.5.6875 0 1.2031.28125.53125.28125.875.8125.34375.515626.53125 1.265626.1875.75.1875 2.03125 0 1.515624-.3125 2.4375-.29685.921874-.92185 1.4375-.6094.5-1.5625.5-1.2344 0-1.95315-.890626-.84375-1.0625-.84375-3.484374zm1.0781 0q0 2.109374.5 2.8125.5.703124 1.2188.703124.73435 0 1.2187-.703124.5-.703126.5-2.8125 0-2.125-.5-2.8125-.48435-.703126-1.23435-.703126-.71875 0-1.15625.609376-.5469.78125-.5469 2.90625zm5.9219 0q0-1.53125.3125-2.453126.3125-.9375.9219-1.4375.625-.5 1.5625-.5.6875 0 1.2031.28125.53125.28125.875.8125.34375.515626.53125 1.265626.1875.75.1875 2.03125 0 1.515624-.3125 2.4375-.29685.921874-.92185 1.4375-.6094.5-1.5625.5-1.2344 0-1.95315-.890626-.84375-1.0625-.84375-3.484374zm1.0781 0q0 2.109374.5 2.8125.5.703124 1.2188.703124.73435 0 1.2187-.703124.5-.703126.5-2.8125 0-2.125-.5-2.8125-.48435-.703126-1.23435-.703126-.71875 0-1.15625.609376-.5469.78125-.5469 2.90625zm5.9219 0q0-1.53125.3125-2.453126.3125-.9375.9219-1.4375.625-.5 1.5625-.5.6875 0 1.2031.28125.53125.28125.875.8125.34375.515626.53125 1.265626.1875.75.1875 2.03125 0 1.515624-.3125 2.4375-.29685.921874-.92185 1.4375-.6094.5-1.5625.5-1.2344 0-1.95315-.890626-.84375-1.0625-.84375-3.484374zm1.0781 0q0 2.109374.5 2.8125.5.703124 1.2188.703124.73435 0 1.2187-.703124.5-.703126.5-2.8125 0-2.125-.5-2.8125-.48435-.703126-1.23435-.703126-.71875 0-1.15625.609376-.5469.78125-.5469 2.90625z" fill="#1a1a1a"/>
  <path d="m569 40.95c0 3.31371-2.6863 6-6 6s-6-2.68629-6-6 2.6863-6 6-6 6 2.68629 6 6z" fill="#ea4335"/>
  <path d="m583.0469 43.934376v1.015624h-5.6875q0-.375.125-.734374.2187-.578126.6875-1.140626.48435-.5625 1.3906-1.296874 1.40625-1.15625 1.8906-1.828126.5-.671874.5-1.265624 0-.625-.4531-1.046876-.4531-.4375-1.1719-.4375-.7656 0-1.2187.453126-.45315.453124-.4688 1.265624l-1.0781-.109374q.1094-1.21875.8281-1.84375.7344-.640626 1.9688-.640626 1.23435 0 1.9531.6875.71875.6875.71875 1.703126 0 .515624-.21875 1.015624-.2031.484376-.7031 1.046876-.4844.546874-1.6094 1.5-.9531.796874-1.2344 1.09375-.2656.28125-.4375.5625zm1.4531-3.21875q0-1.53125.3125-2.453126.3125-.9375.9219-1.4375.625-.5 1.5625-.5.6875 0 1.2031.28125.53125.28125.875.8125.34375.515626.53125 1.265626.1875.75.1875 2.03125 0 1.515624-.3125 2.4375-.29685.921874-.92185 1.4375-.6094.5-1.5625.5-1.2344 0-1.95315-.890626-.84375-1.0625-.84375-3.484374zm1.0781 0q0 2.109374.5 2.8125.5.703124 1.2188.703124.73435 0 1.2187-.703124.5-.703126.5-2.8125 0-2.125-.5-2.8125-.48435-.703126-1.23435-.703126-.71875 0-1.15625.609376-.5469.78125-.5469 2.90625zm5.9219 0q0-1.53125.3125-2.453126.3125-.9375.9219-1.4375.625-.5 1.5625-.5.6875 0 1.2031.28125.53125.28125.875.8125.34375.515626.53125 1.265626.1875.75.1875 2.03125 0 1.515624-.3125 2.4375-.29685.921874-.92185 1.4375-.6094.5-1.5625.5-1.2344 0-1.95315-.890626-.84375-1.0625-.84375-3.484374zm1.0781 0q0 2.109374.5 2.8125.5.703124 1.2188.703124.73435 0 1.2187-.703124.5-.703126.5-2.8125 0-2.125-.5-2.8125-.48435-.703126-1.23435-.703126-.71875 0-1.15625.609376-.5469.78125-.5469 2.90625zm5.9219 0q0-1.53125.3125-2.453126.3125-.9375.9219-1.4375.625-.5 1.5625-.5.6875 0 1.2031.28125.53125.28125.875.8125.34375.515626.53125 1.265626.1875.75.1875 2.03125 0 1.515624-.3125 2.4375-.29685.921874-.92185 1.4375-.6094.5-1.5625.5-1.2344 0-1.95315-.890626-.84375-1.0625-.84375-3.484374zm1.0781 0q0 2.109374.5 2.8125.5.703124 1.2188.703124.73435 0 1.2187-.703124.5-.703126.5-2.8125 0-2.125-.5-2.8125-.48435-.703126-1.23435-.703126-.71875 0-1.15625.609376-.5469.78125-.5469 2.90625zm8.7969-2.78125.2656-.828126q.9375.328126 1.3594.5625-.1094-1.0625-.125-1.453124h.8594q-.01565.578124-.14065 1.453124.60935-.3125 1.39065-.5625l.2656.828126q-.75.25-1.4531.328124.3437.3125 1 1.109376l-.70315.5q-.34375-.46875-.79685-1.265626-.4375.828126-.76565 1.265626l-.6875-.5q.67185-.84375.96875-1.109376-.75-.140624-1.4375-.328124zm12.09375 7.015624h-1.04685v-6.71875q-.39065.359376-1.01565.734376-.60935.359374-1.09375.53125v-1.015626q.875-.421874 1.53125-1 .67185-.59375.95315-1.15625h.67185zm3.03125-4.234374q0-1.53125.3125-2.453126.3125-.9375.9219-1.4375.625-.5 1.5625-.5.6875 0 1.2031.28125.53125.28125.875.8125.34375.515626.53125 1.265626.1875.75.1875 2.03125 0 1.515624-.3125 2.4375-.29685.921874-.92185 1.4375-.6094.5-1.5625.5-1.2344 0-1.95315-.890626-.84375-1.0625-.84375-3.484374zm1.0781 0q0 2.109374.5 2.8125.5.703124 1.2188.703124.73435 0 1.2187-.703124.5-.703126.5-2.8125 0-2.125-.5-2.8125-.48435-.703126-1.23435-.703126-.71875 0-1.15625.609376-.5469.78125-.5469 2.90625zm5.9219 0q0-1.53125.3125-2.453126.3125-.9375.9219-1.4375.625-.5 1.5625-.5.6875 0 1.2031.28125.53125.28125.875.8125.34375.515626.53125 1.265626.1875.75.1875 2.03125 0 1.515624-.3125 2.4375-.29685.921874-.92185 1.4375-.6094.5-1.5625.5-1.2344 0-1.95315-.890626-.84375-1.0625-.84375-3.484374zm1.0781 0q0 2.109374.5 2.8125.5.703124 1.2188.703124.73435 0 1.2187-.703124.5-.703126.5-2.8125 0-2.125-.5-2.8125-.48435-.703126-1.23435-.703126-.71875 0-1.15625.609376-.5469.78125-.5469 2.90625zm5.9219 0q0-1.53125.3125-2.453126.3125-.9375.9219-1.4375.625-.5 1.5625-.5.6875 0 1.2031.28125.53125.28125.875.8125.34375.515626.53125 1.265626.1875.75.1875 2.03125 0 1.515624-.3125 2.4375-.29685.921874-.92185 1.4375-.6094.5-1.5625.5-1.2344 0-1.95315-.890626-.84375-1.0625-.84375-3.484374zm1.0781 0q0 2.109374.5 2.8125.5.703124 1.2188.703124.73435 0 1.2187-.703124.5-.703126.5-2.8125 0-2.125-.5-2.8125-.48435-.703126-1.23435-.703126-.71875 0-1.15625.609376-.5469.78125-.5469 2.90625z" fill="#1a1a1a"/>
</svg>
