<?xml version="1.0"?>
<svg xmlns="http://www.w3.org/2000/svg" xmlns:xlink="http://www.w3.org/1999/xlink" fill="none" stroke-linecap="square" stroke-miterlimit="10" viewBox="0 0 1098 679">
  <clipPath id="a">
    <path d="m92.95 77.583336h971.1v515.466664h-971.1z"/>
  </clipPath>
  <path d="m0 0h1098v679h-1098z" fill="#fff"/>
  <g stroke-linecap="butt">
    <path d="m92.5 593.5h972" stroke="#333"/>
    <g stroke="#ccc">
      <path d="m92.5 507.5h972"/>
      <path d="m92.5 421.5h972"/>
      <path d="m92.5 335.5h972"/>
      <path d="m92.5 249.5h972"/>
      <path d="m92.5 163.5h972"/>
      <path d="m92.5 77.5h972"/>
    </g>
    <g stroke-width="2">
      <path clip-path="url(#a)" d="m190.06 550.0944 194.22-38.83753 194.22-86.68293 194.22-166.05191 194.22-57.87193" stroke="#4285f4"/>
      <path clip-path="url(#a)" d="m190.06 550.0944 194.22-43.50865 194.22-84.50395 194.22-172.76661 194.22-92.74413" stroke="#ea4335"/>
    </g>
  </g>
  <g fill="#4285f4">
    <path clip-path="url(#a)" d="m196.06 550.0944c0 3.31374-2.6863 6-6 6-3.31371 0-6-2.68626-6-6 0-3.31364 2.68629-6 6-6 3.3137 0 6 2.68636 6 6z"/>
    <path clip-path="url(#a)" d="m390.28 511.25687c0 3.31373-2.68628 6.00003-6 6.00003s-6-2.6863-6-6.00003c0-3.31369 2.68628-6 6-6s6 2.68631 6 6z"/>
    <path clip-path="url(#a)" d="m584.5 424.57394c0 3.31372-2.6863 6-6 6s-6-2.68628-6-6c0-3.31369 2.6863-6 6-6s6 2.68631 6 6z"/>
    <path clip-path="url(#a)" d="m778.72 258.52203c0 3.31369-2.6863 6-6 6s-6-2.68631-6-6c0-3.31372 2.6863-6.00001 6-6.00001s6 2.68629 6 6.00001z"/>
    <path clip-path="url(#a)" d="m972.94 200.6501c0 3.3137-2.6863 6-6 6s-6-2.6863-6-6c0-3.31372 2.6863-6 6-6s6 2.68628 6 6z"/>
  </g>
  <g fill="#ea4335">
    <path clip-path="url(#a)" d="m196.06 550.0944c0 3.31374-2.6863 6-6 6-3.31371 0-6-2.68626-6-6 0-3.31364 2.68629-6 6-6 3.3137 0 6 2.68636 6 6z"/>
    <path clip-path="url(#a)" d="m390.28 506.58575c0 3.31369-2.68628 6-6 6s-6-2.68631-6-6c0-3.31372 2.68628-6 6-6s6 2.68628 6 6z"/>
    <path clip-path="url(#a)" d="m584.5 422.0818c0 3.3137-2.6863 6-6 6s-6-2.6863-6-6 2.6863-6 6-6 6 2.6863 6 6z"/>
    <path clip-path="url(#a)" d="m778.72 249.31519c0 3.3137-2.6863 6-6 6s-6-2.6863-6-6c0-3.31371 2.6863-6 6-6s6 2.68629 6 6z"/>
    <path clip-path="url(#a)" d="m972.94 156.57106c0 3.31371-2.6863 6-6 6s-6-2.68629-6-6 2.6863-6 6-6 6 2.68629 6 6z"/>
  </g>
  <path d="m195.1898 578.2613h-1.04687v-6.71876q-.39063.35936-1.01563.73436-.60937.3594-1.09375.53127v-1.01563q.875-.42187 1.53125-1 .67188-.59374.95313-1.15624h.67187z" stroke="#fff" stroke-linecap="round" stroke-linejoin="round" stroke-width="3"/>
  <path d="m195.1898 578.2613h-1.04687v-6.71876q-.39063.35936-1.01563.73436-.60937.3594-1.09375.53127v-1.01563q.875-.42187 1.53125-1 .67188-.59374.95313-1.15624h.67187z" fill="#4285f4"/>
  <path d="m388.71274 537.45056h-1.04688v-6.71876q-.39062.3594-1.01562.7344-.60938.35936-1.09374.53124v-1.01564q.875-.42186 1.53124-1 .67186-.59374.95312-1.15624h.67188zm3.59376 0v-1.20312h1.2031v1.20312q0 .65624-.23436 1.0625-.23438.42188-.73438.64064l-.29686-.45314q.3281-.14062.48436-.4375.15624-.28126.1875-.8125zm2.59374-1.98436 1.01562-.09376q.125.71876.48438 1.04686.375.3125.9375.3125.48436 0 .84376-.21874.375-.23436.60936-.59376.23438-.375.39064-1 .15624-.6406.15624-1.29686 0-.07814 0-.21874-.3125.5-.85938.8281-.54686.3125-1.1875.3125-1.07812 0-1.8125-.7656-.73436-.78126-.73436-2.0469 0-1.3125.7656-2.10936.78126-.79688 1.9375-.79688.82814 0 1.51564.45314.70312.4531 1.0625 1.29686.35936.82814.35936 2.40624 0 1.64064-.35936 2.625-.34374.96876-1.0625 1.4844-.70314.5-1.64064.5-1.0156 0-1.65624-.5469-.64062-.5625-.76562-1.5781zm4.3125-3.7969q0-.90624-.48438-1.4375-.46876-.53124-1.15626-.53124-.7031 0-1.23436.57814-.51564.5625-.51564 1.48436 0 .8125.5 1.32814.5.5156 1.21876.5156.73438 0 1.20314-.5156.46874-.51564.46874-1.4219zm2.53126 1.5469q0-1.53126.3125-2.45314.3125-.9375.92186-1.4375.625-.5 1.5625-.5.6875 0 1.20314.28124.53124.28126.875.8125.34374.51564.53124 1.26564.1875.75.1875 2.03126 0 1.5156-.3125 2.4375-.29688.92186-.92188 1.4375-.60936.5-1.5625.5-1.23436 0-1.95312-.89064-.84374-1.0625-.84374-3.48436zm1.0781 0q0 2.10936.5 2.8125.5.7031 1.21876.7031.73438 0 1.21874-.7031.5-.70314.5-2.8125 0-2.125-.5-2.8125-.48436-.70314-1.23436-.70314-.71874 0-1.15624.60938-.5469.78126-.5469 2.90626zm9.2969 4.23436v-2.0625h-3.71876v-.96876l3.92186-5.5625h.8594v5.5625h1.15624v.96876h-1.15624v2.0625zm0-3.03126v-3.85936l-2.6875 3.85936zm7.59374 3.03126h-1.04688v-6.71876q-.39062.3594-1.01562.7344-.60938.35936-1.09374.53124v-1.01564q.875-.42186 1.53124-1 .67186-.59374.95312-1.15624h.67188zm3.03126-2.26562 1.0625-.14064q.17186.89064.60936 1.2969.4375.3906 1.0625.3906.75 0 1.26564-.5156.5156-.51564.5156-1.28126 0-.71874-.48436-1.1875-.46874-.48438-1.20314-.48438-.29686 0-.75.125l.125-.9375q.1094.01564.1719.01564.67186 0 1.2031-.34376.5469-.35938.5469-1.09374 0-.57814-.39064-.95314-.39062-.39062-1.01562-.39062-.60938 0-1.03124.39062-.40626.39064-.51564 1.15624l-1.0625-.1875q.1875-1.04686.875-1.625.6875-.59374 1.70314-.59374.7031 0 1.29686.3125.59374.29688.90624.8125.3125.51564.3125 1.10938 0 .54686-.29686 1.01562-.29688.45314-.875.71874.75.1719 1.17186.7344.4219.54686.4219 1.3906 0 1.125-.82814 1.90626-.8125.78124-2.0625.78124-1.125 0-1.875-.67186-.75-.6875-.85936-1.75zm7 0 1.0625-.14064q.17186.89064.60936 1.2969.4375.3906 1.0625.3906.75 0 1.26564-.5156.5156-.51564.5156-1.28126 0-.71874-.48436-1.1875-.46874-.48438-1.20314-.48438-.29686 0-.75.125l.125-.9375q.1094.01564.1719.01564.67186 0 1.2031-.34376.5469-.35938.5469-1.09374 0-.57814-.39064-.95314-.39062-.39062-1.01562-.39062-.60938 0-1.03124.39062-.40626.39064-.51564 1.15624l-1.0625-.1875q.1875-1.04686.875-1.625.6875-.59374 1.70314-.59374.7031 0 1.29686.3125.59374.29688.90624.8125.3125.51564.3125 1.10938 0 .54686-.29686 1.01562-.29688.45314-.875.71874.75.1719 1.17186.7344.4219.54686.4219 1.3906 0 1.125-.82814 1.90626-.8125.78124-2.0625.78124-1.125 0-1.875-.67186-.75-.6875-.85936-1.75zm12.46874-4.21874-1.04688.0781q-.14062-.625-.39062-.90624-.4375-.45312-1.0625-.45312-.5 0-.89064.28126-.48436.375-.78124 1.0781-.28126.6875-.29686 1.96876.375-.57812.92186-.85936.5625-.28126 1.17188-.28126 1.04686 0 1.78126.78126.75.78124.75 2 0 .8125-.3594 1.5156-.34374.6875-.9531 1.0625-.6094.3594-1.375.3594-1.32814 0-2.15626-.96876-.82814-.96874-.82814-3.1875 0-2.5.9219-3.625.79686-.98438 2.15624-.98438 1.01562 0 1.65626.57814.65624.5625.78124 1.5625zm-4.29688 3.7031q0 .5469.21874 1.0469.2344.48436.64064.75.42186.2656.89062.2656.65624 0 1.14064-.53124.48436-.54686.48436-1.46876 0-.8906-.48436-1.40624-.46876-.51562-1.1875-.51562-.71876 0-1.21876.51562-.48438.51564-.48438 1.34374zm7.45314-1.875q-.65626-.25-.9844-.6875-.3125-.4531-.3125-1.0625 0-.9375.6719-1.5781.6875-.64064 1.79686-.64064 1.125 0 1.8125.65624.6875.65626.6875 1.59376 0 .59374-.3125 1.03124-.3125.4375-.95312.6875.79686.25 1.20312.82814.40624.57812.40624 1.375 0 1.09376-.78124 1.84376-.76562.75-2.04686.75-1.26564 0-2.0469-.75-.78124-.75-.78124-1.875 0-.84376.42188-1.40626.4375-.5625 1.21876-.76564zm-.21876-1.79686q0 .60936.39062 1 .40624.39062 1.03124.39062.6094 0 1-.375.39064-.39062.39064-.95312 0-.57814-.40624-.96874-.40626-.40626-1-.40626-.6094 0-1.01564.39062-.39062.39064-.39062.92188zm-.32814 3.96876q0 .4531.20314.875.21876.42186.64062.65624.42188.23436.90624.23436.75 0 1.2344-.48436.5-.48438.5-1.23438 0-.76562-.5-1.26562-.5-.5-1.26564-.5-.75 0-1.23436.5-.4844.48436-.4844 1.21876zm5.9219.23436 1.10936-.09376q.125.8125.5625 1.21876.45314.40624 1.09374.40624.75 0 1.28126-.5781.53124-.57814.53124-1.51564 0-.90626-.5156-1.42186-.5-.53126-1.32814-.53126-.5 0-.92186.23436-.40626.2344-.64064.59376l-.98436-.125.8281-4.40626h4.28126v1h-3.4375l-.45312 2.3125q.76562-.54686 1.60936-.54686 1.125 0 1.89064.78126.78126.78124.78126 2.0156 0 1.15626-.6719 2.01564-.8281 1.03126-2.25 1.03126-1.17186 0-1.92186-.65626-.73438-.65624-.84374-1.73438z" stroke="#fff" stroke-linecap="round" stroke-linejoin="round" stroke-width="3"/>
  <path d="m388.71274 537.45056h-1.04688v-6.71876q-.39062.3594-1.01562.7344-.60938.35936-1.09374.53124v-1.01564q.875-.42186 1.53124-1 .67186-.59374.95312-1.15624h.67188zm3.59376 0v-1.20312h1.2031v1.20312q0 .65624-.23436 1.0625-.23438.42188-.73438.64064l-.29686-.45314q.3281-.14062.48436-.4375.15624-.28126.1875-.8125zm2.59374-1.98436 1.01562-.09376q.125.71876.48438 1.04686.375.3125.9375.3125.48436 0 .84376-.21874.375-.23436.60936-.59376.23438-.375.39064-1 .15624-.6406.15624-1.29686 0-.07814 0-.21874-.3125.5-.85938.8281-.54686.3125-1.1875.3125-1.07812 0-1.8125-.7656-.73436-.78126-.73436-2.0469 0-1.3125.7656-2.10936.78126-.79688 1.9375-.79688.82814 0 1.51564.45314.70312.4531 1.0625 1.29686.35936.82814.35936 2.40624 0 1.64064-.35936 2.625-.34374.96876-1.0625 1.4844-.70314.5-1.64064.5-1.0156 0-1.65624-.5469-.64062-.5625-.76562-1.5781zm4.3125-3.7969q0-.90624-.48438-1.4375-.46876-.53124-1.15626-.53124-.7031 0-1.23436.57814-.51564.5625-.51564 1.48436 0 .8125.5 1.32814.5.5156 1.21876.5156.73438 0 1.20314-.5156.46874-.51564.46874-1.4219zm2.53126 1.5469q0-1.53126.3125-2.45314.3125-.9375.92186-1.4375.625-.5 1.5625-.5.6875 0 1.20314.28124.53124.28126.875.8125.34374.51564.53124 1.26564.1875.75.1875 2.03126 0 1.5156-.3125 2.4375-.29688.92186-.92188 1.4375-.60936.5-1.5625.5-1.23436 0-1.95312-.89064-.84374-1.0625-.84374-3.48436zm1.0781 0q0 2.10936.5 2.8125.5.7031 1.21876.7031.73438 0 1.21874-.7031.5-.70314.5-2.8125 0-2.125-.5-2.8125-.48436-.70314-1.23436-.70314-.71874 0-1.15624.60938-.5469.78126-.5469 2.90626zm9.2969 4.23436v-2.0625h-3.71876v-.96876l3.92186-5.5625h.8594v5.5625h1.15624v.96876h-1.15624v2.0625zm0-3.03126v-3.85936l-2.6875 3.85936zm7.59374 3.03126h-1.04688v-6.71876q-.39062.3594-1.01562.7344-.60938.35936-1.09374.53124v-1.01564q.875-.42186 1.53124-1 .67186-.59374.95312-1.15624h.67188zm3.03126-2.26562 1.0625-.14064q.17186.89064.60936 1.2969.4375.3906 1.0625.3906.75 0 1.26564-.5156.5156-.51564.5156-1.28126 0-.71874-.48436-1.1875-.46874-.48438-1.20314-.48438-.29686 0-.75.125l.125-.9375q.1094.01564.1719.01564.67186 0 1.2031-.34376.5469-.35938.5469-1.09374 0-.57814-.39064-.95314-.39062-.39062-1.01562-.39062-.60938 0-1.03124.39062-.40626.39064-.51564 1.15624l-1.0625-.1875q.1875-1.04686.875-1.625.6875-.59374 1.70314-.59374.7031 0 1.29686.3125.59374.29688.90624.8125.3125.51564.3125 1.10938 0 .54686-.29686 1.01562-.29688.45314-.875.71874.75.1719 1.17186.7344.4219.54686.4219 1.3906 0 1.125-.82814 1.90626-.8125.78124-2.0625.78124-1.125 0-1.875-.67186-.75-.6875-.85936-1.75zm7 0 1.0625-.14064q.17186.89064.60936 1.2969.4375.3906 1.0625.3906.75 0 1.26564-.5156.5156-.51564.5156-1.28126 0-.71874-.48436-1.1875-.46874-.48438-1.20314-.48438-.29686 0-.75.125l.125-.9375q.1094.01564.1719.01564.67186 0 1.2031-.34376.5469-.35938.5469-1.09374 0-.57814-.39064-.95314-.39062-.39062-1.01562-.39062-.60938 0-1.03124.39062-.40626.39064-.51564 1.15624l-1.0625-.1875q.1875-1.04686.875-1.625.6875-.59374 1.70314-.59374.7031 0 1.29686.3125.59374.29688.90624.8125.3125.51564.3125 1.10938 0 .54686-.29686 1.01562-.29688.45314-.875.71874.75.1719 1.17186.7344.4219.54686.4219 1.3906 0 1.125-.82814 1.90626-.8125.78124-2.0625.78124-1.125 0-1.875-.67186-.75-.6875-.85936-1.75zm12.46874-4.21874-1.04688.0781q-.14062-.625-.39062-.90624-.4375-.45312-1.0625-.45312-.5 0-.89064.28126-.48436.375-.78124 1.0781-.28126.6875-.29686 1.96876.375-.57812.92186-.85936.5625-.28126 1.17188-.28126 1.04686 0 1.78126.78126.75.78124.75 2 0 .8125-.3594 1.5156-.34374.6875-.9531 1.0625-.6094.3594-1.375.3594-1.32814 0-2.15626-.96876-.82814-.96874-.82814-3.1875 0-2.5.9219-3.625.79686-.98438 2.15624-.98438 1.01562 0 1.65626.57814.65624.5625.78124 1.5625zm-4.29688 3.7031q0 .5469.21874 1.0469.2344.48436.64064.75.42186.2656.89062.2656.65624 0 1.14064-.53124.48436-.54686.48436-1.46876 0-.8906-.48436-1.40624-.46876-.51562-1.1875-.51562-.71876 0-1.21876.51562-.48438.51564-.48438 1.34374zm7.45314-1.875q-.65626-.25-.9844-.6875-.3125-.4531-.3125-1.0625 0-.9375.6719-1.5781.6875-.64064 1.79686-.64064 1.125 0 1.8125.65624.6875.65626.6875 1.59376 0 .59374-.3125 1.03124-.3125.4375-.95312.6875.79686.25 1.20312.82814.40624.57812.40624 1.375 0 1.09376-.78124 1.84376-.76562.75-2.04686.75-1.26564 0-2.0469-.75-.78124-.75-.78124-1.875 0-.84376.42188-1.40626.4375-.5625 1.21876-.76564zm-.21876-1.79686q0 .60936.39062 1 .40624.39062 1.03124.39062.6094 0 1-.375.39064-.39062.39064-.95312 0-.57814-.40624-.96874-.40626-.40626-1-.40626-.6094 0-1.01564.39062-.39062.39064-.39062.92188zm-.32814 3.96876q0 .4531.20314.875.21876.42186.64062.65624.42188.23436.90624.23436.75 0 1.2344-.48436.5-.48438.5-1.23438 0-.76562-.5-1.26562-.5-.5-1.26564-.5-.75 0-1.23436.5-.4844.48436-.4844 1.21876zm5.9219.23436 1.10936-.09376q.125.8125.5625 1.21876.45314.40624 1.09374.40624.75 0 1.28126-.5781.53124-.57814.53124-1.51564 0-.90626-.5156-1.42186-.5-.53126-1.32814-.53126-.5 0-.92186.23436-.40626.2344-.64064.59376l-.98436-.125.8281-4.40626h4.28126v1h-3.4375l-.45312 2.3125q.76562-.54686 1.60936-.54686 1.125 0 1.89064.78126.78126.78124.78126 2.0156 0 1.15626-.6719 2.01564-.8281 1.03126-2.25 1.03126-1.17186 0-1.92186-.65626-.73438-.65624-.84374-1.73438z" fill="#4285f4"/>
  <path d="m587.93646 444.5556 1.0625-.14062q.17188.89062.60938 1.29687.4375.39063 1.0625.39063.75 0 1.26562-.51563.51564-.51562.51564-1.28125 0-.71875-.4844-1.1875-.46874-.48437-1.2031-.48437-.2969 0-.75.125l.125-.9375q.10936.01562.17186.01562.67188 0 1.20314-.34375.54686-.35937.54686-1.09375 0-.57812-.39062-.95312-.39064-.39063-1.01564-.39063-.60936 0-1.03124.39063-.40626.39062-.51562 1.15625l-1.0625-.1875q.1875-1.04688.875-1.625.6875-.59375 1.70312-.59375.70314 0 1.29688.3125.59376.29687.90626.8125.3125.51562.3125 1.10937 0 .54688-.2969 1.01563-.29686.45312-.875.71875.75.17187 1.1719.73437.42186.54688.42186 1.39063 0 1.125-.82812 1.90625-.8125.78125-2.0625.78125-1.125 0-1.875-.67188-.75-.6875-.85938-1.75zm7.5625 2.26563v-1.20313h1.20314v1.20313q0 .65625-.2344 1.0625-.23436.42187-.73436.64062l-.29688-.45312q.32814-.14063.48438-.4375.15626-.28125.1875-.8125zm2.59374-1.98438 1.01564-.09375q.125.71875.48436 1.04688.375.3125.9375.3125.4844 0 .84376-.21875.375-.23438.60938-.59375.23436-.375.39062-1 .15624-.64063.15624-1.29688 0-.07812 0-.21875-.3125.5-.85936.82813-.54688.3125-1.1875.3125-1.07814 0-1.8125-.76563-.73438-.78125-.73438-2.04687 0-1.3125.76564-2.10938.78124-.79687 1.9375-.79687.8281 0 1.5156.45312.70314.45313 1.0625 1.29688.3594.82812.3594 2.40625 0 1.64062-.3594 2.625-.34374.96875-1.0625 1.48437-.7031.5-1.6406.5-1.01564 0-1.65626-.54687-.64064-.5625-.76564-1.57813zm4.3125-3.79687q0-.90625-.48436-1.4375-.46874-.53125-1.15624-.53125-.70314 0-1.2344.57812-.5156.5625-.5156 1.48438 0 .8125.5 1.32812.5.51563 1.21874.51563.73436 0 1.20312-.51563.46874-.51562.46874-1.42187zm8.07814 4.76562v1.01563h-5.6875q0-.375.125-.73438.21876-.57812.6875-1.14062.48436-.5625 1.39062-1.29688 1.40624-1.15625 1.89064-1.82812.5-.67188.5-1.26563 0-.625-.45314-1.04687-.45312-.4375-1.17186-.4375-.76564 0-1.21876.45312-.45314.45313-.46874 1.26563l-1.07814-.10938q.10938-1.21875.82814-1.84375.73436-.64062 1.96874-.64062 1.23436 0 1.95312.6875.71874.6875.71874 1.70312 0 .51563-.21874 1.01563-.20312.48437-.70312 1.04687-.48438.54688-1.60938 1.5-.95312.79688-1.23436 1.09375-.26564.28125-.4375.5625zm7 0v1.01563h-5.6875q0-.375.125-.73438.21876-.57812.6875-1.14062.48436-.5625 1.39062-1.29688 1.40624-1.15625 1.89064-1.82812.5-.67188.5-1.26563 0-.625-.45314-1.04687-.45312-.4375-1.17186-.4375-.76564 0-1.21876.45312-.45314.45313-.46874 1.26563l-1.07814-.10938q.10938-1.21875.82814-1.84375.73436-.64062 1.96874-.64062 1.23436 0 1.95312.6875.71874.6875.71874 1.70312 0 .51563-.21874 1.01563-.20312.48437-.70312 1.04687-.48438.54688-1.60938 1.5-.95312.79688-1.23436 1.09375-.26564.28125-.4375.5625zm5.42186 1.01563h-1.04686v-6.71875q-.39064.35937-1.01564.73437-.60936.35938-1.09374.53125v-1.01562q.875-.42188 1.53124-1 .6719-.59375.95314-1.15625h.67186zm3.03126-4.23438q0-1.53125.3125-2.45312.3125-.9375.92188-1.4375.625-.5 1.5625-.5.6875 0 1.20312.28125.53124.28125.875.8125.34374.51562.53124 1.26562.1875.75.1875 2.03125 0 1.51563-.3125 2.4375-.29686.92188-.92186 1.4375-.60938.5-1.5625.5-1.23438 0-1.95314-.89062-.84374-1.0625-.84374-3.48438zm1.07814 0q0 2.10938.5 2.8125.5.70313 1.21874.70313.73436 0 1.21876-.70313.5-.70312.5-2.8125 0-2.125-.5-2.8125-.4844-.70312-1.2344-.70312-.71874 0-1.15624.60937-.54686.78125-.54686 2.90625zm9.8906 4.23438h-1.04686v-6.71875q-.39064.35937-1.01564.73437-.60936.35938-1.09374.53125v-1.01562q.875-.42188 1.53124-1 .6719-.59375.95314-1.15625h.67186zm6.40626 0v-2.0625h-3.71876v-.96875l3.9219-5.5625h.85936v5.5625h1.15624v.96875h-1.15624v2.0625zm0-3.03125v-3.85938l-2.6875 3.85938zm7 3.03125v-2.0625h-3.71876v-.96875l3.9219-5.5625h.85936v5.5625h1.15624v.96875h-1.15624v2.0625zm0-3.03125v-3.85938l-2.6875 3.85938zm3.78124 1.04687 1.01564-.09375q.125.71875.48436 1.04688.375.3125.9375.3125.4844 0 .84376-.21875.375-.23438.60938-.59375.23436-.375.39062-1 .15624-.64063.15624-1.29688 0-.07812 0-.21875-.3125.5-.85936.82813-.54688.3125-1.1875.3125-1.07814 0-1.8125-.76563-.73438-.78125-.73438-2.04687 0-1.3125.76564-2.10938.78124-.79687 1.9375-.79687.8281 0 1.5156.45312.70314.45313 1.0625 1.29688.3594.82812.3594 2.40625 0 1.64062-.3594 2.625-.34374.96875-1.0625 1.48437-.7031.5-1.6406.5-1.01564 0-1.65626-.54687-.64064-.5625-.76564-1.57813zm4.3125-3.79687q0-.90625-.48436-1.4375-.46874-.53125-1.15624-.53125-.70314 0-1.2344.57812-.5156.5625-.5156 1.48438 0 .8125.5 1.32812.5.51563 1.21874.51563.73436 0 1.20312-.51563.46874-.51562.46874-1.42187z" stroke="#fff" stroke-linecap="round" stroke-linejoin="round" stroke-width="3"/>
  <path d="m587.93646 444.5556 1.0625-.14062q.17188.89062.60938 1.29687.4375.39063 1.0625.39063.75 0 1.26562-.51563.51564-.51562.51564-1.28125 0-.71875-.4844-1.1875-.46874-.48437-1.2031-.48437-.2969 0-.75.125l.125-.9375q.10936.01562.17186.01562.67188 0 1.20314-.34375.54686-.35937.54686-1.09375 0-.57812-.39062-.95312-.39064-.39063-1.01564-.39063-.60936 0-1.03124.39063-.40626.39062-.51562 1.15625l-1.0625-.1875q.1875-1.04688.875-1.625.6875-.59375 1.70312-.59375.70314 0 1.29688.3125.59376.29687.90626.8125.3125.51562.3125 1.10937 0 .54688-.2969 1.01563-.29686.45312-.875.71875.75.17187 1.1719.73437.42186.54688.42186 1.39063 0 1.125-.82812 1.90625-.8125.78125-2.0625.78125-1.125 0-1.875-.67188-.75-.6875-.85938-1.75zm7.5625 2.26563v-1.20313h1.20314v1.20313q0 .65625-.2344 1.0625-.23436.42187-.73436.64062l-.29688-.45312q.32814-.14063.48438-.4375.15626-.28125.1875-.8125zm2.59374-1.98438 1.01564-.09375q.125.71875.48436 1.04688.375.3125.9375.3125.4844 0 .84376-.21875.375-.23438.60938-.59375.23436-.375.39062-1 .15624-.64063.15624-1.29688 0-.07812 0-.21875-.3125.5-.85936.82813-.54688.3125-1.1875.3125-1.07814 0-1.8125-.76563-.73438-.78125-.73438-2.04687 0-1.3125.76564-2.10938.78124-.79687 1.9375-.79687.8281 0 1.5156.45312.70314.45313 1.0625 1.29688.3594.82812.3594 2.40625 0 1.64062-.3594 2.625-.34374.96875-1.0625 1.48437-.7031.5-1.6406.5-1.01564 0-1.65626-.54687-.64064-.5625-.76564-1.57813zm4.3125-3.79687q0-.90625-.48436-1.4375-.46874-.53125-1.15624-.53125-.70314 0-1.2344.57812-.5156.5625-.5156 1.48438 0 .8125.5 1.32812.5.51563 1.21874.51563.73436 0 1.20312-.51563.46874-.51562.46874-1.42187zm8.07814 4.76562v1.01563h-5.6875q0-.375.125-.73438.21876-.57812.6875-1.14062.48436-.5625 1.39062-1.29688 1.40624-1.15625 1.89064-1.82812.5-.67188.5-1.26563 0-.625-.45314-1.04687-.45312-.4375-1.17186-.4375-.76564 0-1.21876.45312-.45314.45313-.46874 1.26563l-1.07814-.10938q.10938-1.21875.82814-1.84375.73436-.64062 1.96874-.64062 1.23436 0 1.95312.6875.71874.6875.71874 1.70312 0 .51563-.21874 1.01563-.20312.48437-.70312 1.04687-.48438.54688-1.60938 1.5-.95312.79688-1.23436 1.09375-.26564.28125-.4375.5625zm7 0v1.01563h-5.6875q0-.375.125-.73438.21876-.57812.6875-1.14062.48436-.5625 1.39062-1.29688 1.40624-1.15625 1.89064-1.82812.5-.67188.5-1.26563 0-.625-.45314-1.04687-.45312-.4375-1.17186-.4375-.76564 0-1.21876.45312-.45314.45313-.46874 1.26563l-1.07814-.10938q.10938-1.21875.82814-1.84375.73436-.64062 1.96874-.64062 1.23436 0 1.95312.6875.71874.6875.71874 1.70312 0 .51563-.21874 1.01563-.20312.48437-.70312 1.04687-.48438.54688-1.60938 1.5-.95312.79688-1.23436 1.09375-.26564.28125-.4375.5625zm5.42186 1.01563h-1.04686v-6.71875q-.39064.35937-1.01564.73437-.60936.35938-1.09374.53125v-1.01562q.875-.42188 1.53124-1 .6719-.59375.95314-1.15625h.67186zm3.03126-4.23438q0-1.53125.3125-2.45312.3125-.9375.92188-1.4375.625-.5 1.5625-.5.6875 0 1.20312.28125.53124.28125.875.8125.34374.51562.53124 1.26562.1875.75.1875 2.03125 0 1.51563-.3125 2.4375-.29686.92188-.92186 1.4375-.60938.5-1.5625.5-1.23438 0-1.95314-.89062-.84374-1.0625-.84374-3.48438zm1.07814 0q0 2.10938.5 2.8125.5.70313 1.21874.70313.73436 0 1.21876-.70313.5-.70312.5-2.8125 0-2.125-.5-2.8125-.4844-.70312-1.2344-.70312-.71874 0-1.15624.60937-.54686.78125-.54686 2.90625zm9.8906 4.23438h-1.04686v-6.71875q-.39064.35937-1.01564.73437-.60936.35938-1.09374.53125v-1.01562q.875-.42188 1.53124-1 .6719-.59375.95314-1.15625h.67186zm6.40626 0v-2.0625h-3.71876v-.96875l3.9219-5.5625h.85936v5.5625h1.15624v.96875h-1.15624v2.0625zm0-3.03125v-3.85938l-2.6875 3.85938zm7 3.03125v-2.0625h-3.71876v-.96875l3.9219-5.5625h.85936v5.5625h1.15624v.96875h-1.15624v2.0625zm0-3.03125v-3.85938l-2.6875 3.85938zm3.78124 1.04687 1.01564-.09375q.125.71875.48436 1.04688.375.3125.9375.3125.4844 0 .84376-.21875.375-.23438.60938-.59375.23436-.375.39062-1 .15624-.64063.15624-1.29688 0-.07812 0-.21875-.3125.5-.85936.82813-.54688.3125-1.1875.3125-1.07814 0-1.8125-.76563-.73438-.78125-.73438-2.04687 0-1.3125.76564-2.10938.78124-.79687 1.9375-.79687.8281 0 1.5156.45312.70314.45313 1.0625 1.29688.3594.82812.3594 2.40625 0 1.64062-.3594 2.625-.34374.96875-1.0625 1.48437-.7031.5-1.6406.5-1.01564 0-1.65626-.54687-.64064-.5625-.76564-1.57813zm4.3125-3.79687q0-.90625-.48436-1.4375-.46874-.53125-1.15624-.53125-.70314 0-1.2344.57812-.5156.5625-.5156 1.48438 0 .8125.5 1.32812.5.51563 1.21874.51563.73436 0 1.20312-.51563.46874-.51562.46874-1.42187z" fill="#4285f4"/>
  <path d="m780.2251 273.30054v-1.01564h5.5625v.82814q-.8125.875-1.625 2.32812-.7969 1.4375-1.2344 2.96874-.3281 1.07814-.4062 2.3594h-1.0938q.01565-1.01564.39065-2.45314.39065-1.4375 1.09375-2.76562.71875-1.32814 1.53125-2.25zm7.5 7.46876v-1.20314h1.2031v1.20314q0 .65624-.23435 1.0625-.23435.42186-.73435.6406l-.2969-.4531q.3281-.14064.4844-.4375.1562-.28126.1875-.8125zm2.5-7.46876v-1.01564h5.5625v.82814q-.8125.875-1.625 2.32812-.7969 1.4375-1.2344 2.96874-.3281 1.07814-.4062 2.3594h-1.0938q.01565-1.01564.39065-2.45314.39065-1.4375 1.09375-2.76562.71875-1.32814 1.53125-2.25zm8.5625 2.8125q-.65625-.25-.9844-.6875-.3125-.45314-.3125-1.0625 0-.9375.6719-1.57814.6875-.6406 1.7969-.6406 1.125 0 1.8125.65624.6875.65626.6875 1.59376 0 .59374-.3125 1.03124-.3125.4375-.95315.6875.79685.25 1.20315.82812.4062.57814.4062 1.375 0 1.09374-.7812 1.84374-.76565.75-2.0469.75-1.2656 0-2.0469-.75-.7812-.75-.7812-1.875 0-.84374.42185-1.40624.4375-.5625 1.21875-.76562zm-.21875-1.79688q0 .60938.39065 1 .4062.39064 1.0312.39064.6094 0 1-.375.39065-.39064.39065-.95314 0-.57812-.40625-.96876-.40625-.40624-1-.40624-.6094 0-1.0156.39064-.39065.3906-.39065.92186zm-.32815 3.96874q0 .45314.20315.875.21875.4219.64065.65626.42185.23438.9062.23438.75 0 1.2344-.48438.5-.48436.5-1.23436 0-.76564-.5-1.26564-.5-.5-1.2656-.5-.75 0-1.2344.5-.4844.48438-.4844 1.21874zm5.9844-4.98436v-1.01564h5.5625v.82814q-.8125.875-1.625 2.32812-.7969 1.4375-1.2344 2.96874-.3281 1.07814-.4062 2.3594h-1.0938q.01565-1.01564.39065-2.45314.39065-1.4375 1.09375-2.76562.71875-1.32814 1.53125-2.25zm7 0v-1.01564h5.5625v.82814q-.8125.875-1.625 2.32812-.7969 1.4375-1.2344 2.96874-.3281 1.07814-.4062 2.3594h-1.0938q.01565-1.01564.39065-2.45314.39065-1.4375 1.09375-2.76562.71875-1.32814 1.53125-2.25zm12.40625.98436-1.04685.07814q-.14065-.625-.39065-.90624-.4375-.45314-1.0625-.45314-.5 0-.89065.28124-.48435.375-.7812 1.07814-.2813.6875-.2969 1.96876.375-.57814.9219-.8594.5625-.28124 1.17185-.28124 1.04685 0 1.78125.78124.75.78126.75 2 0 .8125-.3594 1.51564-.3437.6875-.9531 1.0625-.6094.35936-1.375.35936-1.3281 0-2.15625-.96874-.82815-.96876-.82815-3.1875 0-2.5.9219-3.625.7969-.98436 2.15625-.98436 1.01565 0 1.65625.5781.65625.5625.78125 1.5625zm-4.29685 3.70314q0 .54686.2187 1.04686.2344.4844.64065.75.42185.26564.89065.26564.6562 0 1.1406-.53124.4844-.5469.4844-1.46876 0-.89064-.4844-1.40624-.46875-.51564-1.1875-.51564-.71875 0-1.21875.51564-.48435.5156-.48435 1.34374zm5.98435.79686 1.01565-.09374q.125.71874.48435 1.04688.375.3125.9375.3125.48435 0 .84375-.21874.375-.2344.6094-.59376.23435-.375.3906-1 .15625-.64064.15625-1.29688 0-.07812 0-.21876-.3125.5-.85935.82814-.5469.3125-1.1875.3125-1.07815 0-1.8125-.76564-.7344-.78124-.7344-2.04686 0-1.3125.7656-2.10938.7813-.79686 1.9375-.79686.82815 0 1.51565.4531.70315.45314 1.0625 1.2969.35935.8281.35935 2.40624 0 1.64062-.35935 2.625-.34375.96876-1.0625 1.48436-.70315.5-1.64065.5-1.0156 0-1.6562-.54686-.64065-.5625-.76565-1.57814zm4.3125-3.79686q0-.90624-.48435-1.4375-.4688-.53124-1.1563-.53124-.7031 0-1.23435.5781-.51565.5625-.51565 1.4844 0 .8125.5 1.3281.5.51564 1.2188.51564.73435 0 1.2031-.51564.46875-.5156.46875-1.42186zm2.59375-1.6875v-1.01564h5.5625v.82814q-.8125.875-1.625 2.32812-.7969 1.4375-1.2344 2.96874-.3281 1.07814-.4062 2.3594h-1.0938q.01565-1.01564.39065-2.45314.39065-1.4375 1.09375-2.76562.71875-1.32814 1.53125-2.25zm8.5625 2.8125q-.65625-.25-.9844-.6875-.3125-.45314-.3125-1.0625 0-.9375.6719-1.57814.6875-.6406 1.7969-.6406 1.125 0 1.8125.65624.6875.65626.6875 1.59376 0 .59374-.3125 1.03124-.3125.4375-.95315.6875.79685.25 1.20315.82812.4062.57814.4062 1.375 0 1.09374-.7812 1.84374-.76565.75-2.0469.75-1.2656 0-2.0469-.75-.7812-.75-.7812-1.875 0-.84374.42185-1.40624.4375-.5625 1.21875-.76562zm-.21875-1.79688q0 .60938.39065 1 .4062.39064 1.0312.39064.6094 0 1-.375.39065-.39064.39065-.95314 0-.57812-.40625-.96876-.40625-.40624-1-.40624-.6094 0-1.0156.39064-.39065.3906-.39065.92186zm-.32815 3.96874q0 .45314.20315.875.21875.4219.64065.65626.42185.23438.9062.23438.75 0 1.2344-.48438.5-.48436.5-1.23436 0-.76564-.5-1.26564-.5-.5-1.2656-.5-.75 0-1.2344.5-.4844.48438-.4844 1.21874zm9.2969 2.4844v-2.0625h-3.71875v-.96876l3.92185-5.5625h.8594v5.5625h1.15625v.96876h-1.15625v2.0625zm0-3.03126v-3.85938l-2.6875 3.85938z" stroke="#fff" stroke-linecap="round" stroke-linejoin="round" stroke-width="3"/>
  <path d="m780.2251 273.30054v-1.01564h5.5625v.82814q-.8125.875-1.625 2.32812-.7969 1.4375-1.2344 2.96874-.3281 1.07814-.4062 2.3594h-1.0938q.01565-1.01564.39065-2.45314.39065-1.4375 1.09375-2.76562.71875-1.32814 1.53125-2.25zm7.5 7.46876v-1.20314h1.2031v1.20314q0 .65624-.23435 1.0625-.23435.42186-.73435.6406l-.2969-.4531q.3281-.14064.4844-.4375.1562-.28126.1875-.8125zm2.5-7.46876v-1.01564h5.5625v.82814q-.8125.875-1.625 2.32812-.7969 1.4375-1.2344 2.96874-.3281 1.07814-.4062 2.3594h-1.0938q.01565-1.01564.39065-2.45314.39065-1.4375 1.09375-2.76562.71875-1.32814 1.53125-2.25zm8.5625 2.8125q-.65625-.25-.9844-.6875-.3125-.45314-.3125-1.0625 0-.9375.6719-1.57814.6875-.6406 1.7969-.6406 1.125 0 1.8125.65624.6875.65626.6875 1.59376 0 .59374-.3125 1.03124-.3125.4375-.95315.6875.79685.25 1.20315.82812.4062.57814.4062 1.375 0 1.09374-.7812 1.84374-.76565.75-2.0469.75-1.2656 0-2.0469-.75-.7812-.75-.7812-1.875 0-.84374.42185-1.40624.4375-.5625 1.21875-.76562zm-.21875-1.79688q0 .60938.39065 1 .4062.39064 1.0312.39064.6094 0 1-.375.39065-.39064.39065-.95314 0-.57812-.40625-.96876-.40625-.40624-1-.40624-.6094 0-1.0156.39064-.39065.3906-.39065.92186zm-.32815 3.96874q0 .45314.20315.875.21875.4219.64065.65626.42185.23438.9062.23438.75 0 1.2344-.48438.5-.48436.5-1.23436 0-.76564-.5-1.26564-.5-.5-1.2656-.5-.75 0-1.2344.5-.4844.48438-.4844 1.21874zm5.9844-4.98436v-1.01564h5.5625v.82814q-.8125.875-1.625 2.32812-.7969 1.4375-1.2344 2.96874-.3281 1.07814-.4062 2.3594h-1.0938q.01565-1.01564.39065-2.45314.39065-1.4375 1.09375-2.76562.71875-1.32814 1.53125-2.25zm7 0v-1.01564h5.5625v.82814q-.8125.875-1.625 2.32812-.7969 1.4375-1.2344 2.96874-.3281 1.07814-.4062 2.3594h-1.0938q.01565-1.01564.39065-2.45314.39065-1.4375 1.09375-2.76562.71875-1.32814 1.53125-2.25zm12.40625.98436-1.04685.07814q-.14065-.625-.39065-.90624-.4375-.45314-1.0625-.45314-.5 0-.89065.28124-.48435.375-.7812 1.07814-.2813.6875-.2969 1.96876.375-.57814.9219-.8594.5625-.28124 1.17185-.28124 1.04685 0 1.78125.78124.75.78126.75 2 0 .8125-.3594 1.51564-.3437.6875-.9531 1.0625-.6094.35936-1.375.35936-1.3281 0-2.15625-.96874-.82815-.96876-.82815-3.1875 0-2.5.9219-3.625.7969-.98436 2.15625-.98436 1.01565 0 1.65625.5781.65625.5625.78125 1.5625zm-4.29685 3.70314q0 .54686.2187 1.04686.2344.4844.64065.75.42185.26564.89065.26564.6562 0 1.1406-.53124.4844-.5469.4844-1.46876 0-.89064-.4844-1.40624-.46875-.51564-1.1875-.51564-.71875 0-1.21875.51564-.48435.5156-.48435 1.34374zm5.98435.79686 1.01565-.09374q.125.71874.48435 1.04688.375.3125.9375.3125.48435 0 .84375-.21874.375-.2344.6094-.59376.23435-.375.3906-1 .15625-.64064.15625-1.29688 0-.07812 0-.21876-.3125.5-.85935.82814-.5469.3125-1.1875.3125-1.07815 0-1.8125-.76564-.7344-.78124-.7344-2.04686 0-1.3125.7656-2.10938.7813-.79686 1.9375-.79686.82815 0 1.51565.4531.70315.45314 1.0625 1.2969.35935.8281.35935 2.40624 0 1.64062-.35935 2.625-.34375.96876-1.0625 1.48436-.70315.5-1.64065.5-1.0156 0-1.6562-.54686-.64065-.5625-.76565-1.57814zm4.3125-3.79686q0-.90624-.48435-1.4375-.4688-.53124-1.1563-.53124-.7031 0-1.23435.5781-.51565.5625-.51565 1.4844 0 .8125.5 1.3281.5.51564 1.2188.51564.73435 0 1.2031-.51564.46875-.5156.46875-1.42186zm2.59375-1.6875v-1.01564h5.5625v.82814q-.8125.875-1.625 2.32812-.7969 1.4375-1.2344 2.96874-.3281 1.07814-.4062 2.3594h-1.0938q.01565-1.01564.39065-2.45314.39065-1.4375 1.09375-2.76562.71875-1.32814 1.53125-2.25zm8.5625 2.8125q-.65625-.25-.9844-.6875-.3125-.45314-.3125-1.0625 0-.9375.6719-1.57814.6875-.6406 1.7969-.6406 1.125 0 1.8125.65624.6875.65626.6875 1.59376 0 .59374-.3125 1.03124-.3125.4375-.95315.6875.79685.25 1.20315.82812.4062.57814.4062 1.375 0 1.09374-.7812 1.84374-.76565.75-2.0469.75-1.2656 0-2.0469-.75-.7812-.75-.7812-1.875 0-.84374.42185-1.40624.4375-.5625 1.21875-.76562zm-.21875-1.79688q0 .60938.39065 1 .4062.39064 1.0312.39064.6094 0 1-.375.39065-.39064.39065-.95314 0-.57812-.40625-.96876-.40625-.40624-1-.40624-.6094 0-1.0156.39064-.39065.3906-.39065.92186zm-.32815 3.96874q0 .45314.20315.875.21875.4219.64065.65626.42185.23438.9062.23438.75 0 1.2344-.48438.5-.48436.5-1.23436 0-.76564-.5-1.26564-.5-.5-1.2656-.5-.75 0-1.2344.5-.4844.48438-.4844 1.21874zm9.2969 2.4844v-2.0625h-3.71875v-.96876l3.92185-5.5625h.8594v5.5625h1.15625v.96876h-1.15625v2.0625zm0-3.03126v-3.85938l-2.6875 3.85938z" fill="#4285f4"/>
  <path d="m950.6122 220.91298 1.0156-.09375q.125.71875.4844 1.04687.375.3125.9375.3125.48436 0 .84373-.21875.375-.23437.60937-.59375.2344-.375.39063-1 .15627-.64062.15627-1.29687 0-.07813 0-.21875-.3125.5-.8594.82812-.54687.3125-1.1875.3125-1.0781 0-1.8125-.76562-.73437-.78125-.73437-2.04688 0-1.3125.76563-2.10937.78124-.79688 1.9375-.79688.82814 0 1.51564.45313.7031.45312 1.0625 1.29687.35936.82813.35936 2.40625 0 1.64063-.35936 2.625-.34377.96875-1.0625 1.48438-.70314.5-1.64064.5-1.01563 0-1.65626-.54688-.6406-.5625-.7656-1.57812zm4.3125-3.79688q0-.90625-.4844-1.4375-.46874-.53125-1.15624-.53125-.70313 0-1.23436.57813-.51564.5625-.51564 1.48437 0 .8125.5 1.32813.5.51562 1.21874.51562.7344 0 1.20313-.51562.46877-.51563.46877-1.42188zm3.09373 5.78125v-1.20312h1.20313v1.20312q0 .65625-.23436 1.0625-.2344.42188-.7344.64063l-.29687-.45313q.32813-.14062.48437-.4375.15626-.28125.1875-.8125zm6.40627 0h-1.0469v-6.71875q-.3906.35938-1.0156.73438-.6094.35937-1.09377.53125v-1.01563q.875-.42187 1.53127-1 .67186-.59375.9531-1.15625h.6719zm3.03123-2.26562 1.0625-.14063q.17187.89063.60937 1.29688.4375.39062 1.0625.39062.75 0 1.26563-.51562.51563-.51563.51563-1.28125 0-.71875-.48436-1.1875-.46877-.48438-1.20314-.48438-.29686 0-.75.125l.125-.9375q.10937.01563.17187.01563.67187 0 1.20313-.34375.54687-.35938.54687-1.09375 0-.57813-.39063-.95313-.3906-.39062-1.0156-.39062-.6094 0-1.03127.39062-.40623.39063-.51563 1.15625l-1.0625-.1875q.1875-1.04687.875-1.625.6875-.59375 1.70313-.59375.70313 0 1.29687.3125.59376.29688.90626.8125.3125.51563.3125 1.10938 0 .54687-.29686 1.01562-.2969.45313-.875.71875.75.17188 1.17186.73438.42187.54687.42187 1.39062 0 1.125-.82813 1.90625-.8125.78125-2.0625.78125-1.125 0-1.875-.67187-.75-.6875-.85937-1.75zm7 .01562 1.10937-.09375q.125.8125.5625 1.21875.45313.40625 1.09376.40625.75 0 1.28124-.57812.53126-.57813.53126-1.51563 0-.90625-.51563-1.42187-.5-.53125-1.32813-.53125-.5 0-.92187.23437-.40623.23438-.64063.59375l-.98437-.125.82813-4.40625h4.28124v1h-3.4375l-.4531 2.3125q.7656-.54687 1.60936-.54687 1.125 0 1.89064.78125.78123.78125.78123 2.01562 0 1.15625-.67187 2.01563-.82813 1.03125-2.25 1.03125-1.17186 0-1.92186-.65625-.7344-.65625-.84377-1.73438zm7-1.98437q0-1.53125.3125-2.45313.3125-.9375.92187-1.4375.625-.5 1.5625-.5.6875 0 1.20313.28125.53127.28125.875.8125.34377.51563.53127 1.26563.1875.75.1875 2.03125 0 1.51562-.3125 2.4375-.2969.92187-.9219 1.4375-.60937.5-1.5625.5-1.23437 0-1.9531-.89063-.84377-1.0625-.84377-3.48437zm1.07813 0q0 2.10937.5 2.8125.5.70312 1.21874.70312.7344 0 1.21876-.70312.5-.70313.5-2.8125 0-2.125-.5-2.8125-.48436-.70313-1.23436-.70313-.71877 0-1.15627.60938-.54687.78125-.54687 2.90625zm11.46874 3.21875v1.01562h-5.6875q0-.375.125-.73437.21876-.57813.6875-1.14063.4844-.5625 1.39063-1.29687 1.40627-1.15625 1.89063-1.82813.5-.67187.5-1.26562 0-.625-.45313-1.04688-.45313-.4375-1.17187-.4375-.76563 0-1.21876.45313-.4531.45312-.46874 1.26562l-1.07813-.10937q.10937-1.21875.82813-1.84375.73437-.64063 1.96874-.64063 1.2344 0 1.95313.6875.71877.6875.71877 1.70313 0 .51562-.21877 1.01562-.20313.48438-.70313 1.04688-.48437.54687-1.60937 1.5-.95313.79687-1.23437 1.09375-.26563.28125-.4375.5625zm5.4219 1.01562h-1.0469v-6.71875q-.3906.35938-1.0156.73438-.6094.35937-1.09377.53125v-1.01563q.875-.42187 1.53127-1 .67186-.59375.9531-1.15625h.6719zm3.03123-4.23437q0-1.53125.3125-2.45313.3125-.9375.92187-1.4375.625-.5 1.5625-.5.6875 0 1.20313.28125.53127.28125.875.8125.34377.51563.53127 1.26563.1875.75.1875 2.03125 0 1.51562-.3125 2.4375-.2969.92187-.9219 1.4375-.60937.5-1.5625.5-1.23437 0-1.9531-.89063-.84377-1.0625-.84377-3.48437zm1.07813 0q0 2.10937.5 2.8125.5.70312 1.21874.70312.7344 0 1.21876-.70312.5-.70313.5-2.8125 0-2.125-.5-2.8125-.48436-.70313-1.23436-.70313-.71877 0-1.15627.60938-.54687.78125-.54687 2.90625zm6.07814 2.25 1.0156-.09375q.125.71875.4844 1.04687.375.3125.9375.3125.48436 0 .84373-.21875.375-.23437.60937-.59375.2344-.375.39063-1 .15627-.64062.15627-1.29687 0-.07813 0-.21875-.3125.5-.8594.82812-.54687.3125-1.1875.3125-1.0781 0-1.8125-.76562-.73437-.78125-.73437-2.04688 0-1.3125.76563-2.10937.78124-.79688 1.9375-.79688.82814 0 1.51564.45313.7031.45312 1.0625 1.29687.35936.82813.35936 2.40625 0 1.64063-.35936 2.625-.34377.96875-1.0625 1.48438-.70314.5-1.64064.5-1.01563 0-1.65626-.54688-.6406-.5625-.7656-1.57812zm4.3125-3.79688q0-.90625-.4844-1.4375-.46874-.53125-1.15624-.53125-.70313 0-1.23436.57813-.51564.5625-.51564 1.48437 0 .8125.5 1.32813.5.51562 1.21874.51562.7344 0 1.20313-.51562.46877-.51563.46877-1.42188zm2.59373-1.6875v-1.01562h5.5625v.82812q-.8125.875-1.625 2.32813-.79687 1.4375-1.23437 2.96875-.32813 1.07812-.40626 2.35937h-1.09374q.01564-1.01562.39064-2.45312.3906-1.4375 1.09373-2.76563.71877-1.32812 1.53127-2.25z" stroke="#fff" stroke-linecap="round" stroke-linejoin="round" stroke-width="3"/>
  <path d="m950.6122 220.91298 1.0156-.09375q.125.71875.4844 1.04687.375.3125.9375.3125.48436 0 .84373-.21875.375-.23437.60937-.59375.2344-.375.39063-1 .15627-.64062.15627-1.29687 0-.07813 0-.21875-.3125.5-.8594.82812-.54687.3125-1.1875.3125-1.0781 0-1.8125-.76562-.73437-.78125-.73437-2.04688 0-1.3125.76563-2.10937.78124-.79688 1.9375-.79688.82814 0 1.51564.45313.7031.45312 1.0625 1.29687.35936.82813.35936 2.40625 0 1.64063-.35936 2.625-.34377.96875-1.0625 1.48438-.70314.5-1.64064.5-1.01563 0-1.65626-.54688-.6406-.5625-.7656-1.57812zm4.3125-3.79688q0-.90625-.4844-1.4375-.46874-.53125-1.15624-.53125-.70313 0-1.23436.57813-.51564.5625-.51564 1.48437 0 .8125.5 1.32813.5.51562 1.21874.51562.7344 0 1.20313-.51562.46877-.51563.46877-1.42188zm3.09373 5.78125v-1.20312h1.20313v1.20312q0 .65625-.23436 1.0625-.2344.42188-.7344.64063l-.29687-.45313q.32813-.14062.48437-.4375.15626-.28125.1875-.8125zm6.40627 0h-1.0469v-6.71875q-.3906.35938-1.0156.73438-.6094.35937-1.09377.53125v-1.01563q.875-.42187 1.53127-1 .67186-.59375.9531-1.15625h.6719zm3.03123-2.26562 1.0625-.14063q.17187.89063.60937 1.29688.4375.39062 1.0625.39062.75 0 1.26563-.51562.51563-.51563.51563-1.28125 0-.71875-.48436-1.1875-.46877-.48438-1.20314-.48438-.29686 0-.75.125l.125-.9375q.10937.01563.17187.01563.67187 0 1.20313-.34375.54687-.35938.54687-1.09375 0-.57813-.39063-.95313-.3906-.39062-1.0156-.39062-.6094 0-1.03127.39062-.40623.39063-.51563 1.15625l-1.0625-.1875q.1875-1.04687.875-1.625.6875-.59375 1.70313-.59375.70313 0 1.29687.3125.59376.29688.90626.8125.3125.51563.3125 1.10938 0 .54687-.29686 1.01562-.2969.45313-.875.71875.75.17188 1.17186.73438.42187.54687.42187 1.39062 0 1.125-.82813 1.90625-.8125.78125-2.0625.78125-1.125 0-1.875-.67187-.75-.6875-.85937-1.75zm7 .01562 1.10937-.09375q.125.8125.5625 1.21875.45313.40625 1.09376.40625.75 0 1.28124-.57812.53126-.57813.53126-1.51563 0-.90625-.51563-1.42187-.5-.53125-1.32813-.53125-.5 0-.92187.23437-.40623.23438-.64063.59375l-.98437-.125.82813-4.40625h4.28124v1h-3.4375l-.4531 2.3125q.7656-.54687 1.60936-.54687 1.125 0 1.89064.78125.78123.78125.78123 2.01562 0 1.15625-.67187 2.01563-.82813 1.03125-2.25 1.03125-1.17186 0-1.92186-.65625-.7344-.65625-.84377-1.73438zm7-1.98437q0-1.53125.3125-2.45313.3125-.9375.92187-1.4375.625-.5 1.5625-.5.6875 0 1.20313.28125.53127.28125.875.8125.34377.51563.53127 1.26563.1875.75.1875 2.03125 0 1.51562-.3125 2.4375-.2969.92187-.9219 1.4375-.60937.5-1.5625.5-1.23437 0-1.9531-.89063-.84377-1.0625-.84377-3.48437zm1.07813 0q0 2.10937.5 2.8125.5.70312 1.21874.70312.7344 0 1.21876-.70312.5-.70313.5-2.8125 0-2.125-.5-2.8125-.48436-.70313-1.23436-.70313-.71877 0-1.15627.60938-.54687.78125-.54687 2.90625zm11.46874 3.21875v1.01562h-5.6875q0-.375.125-.73437.21876-.57813.6875-1.14063.4844-.5625 1.39063-1.29687 1.40627-1.15625 1.89063-1.82813.5-.67187.5-1.26562 0-.625-.45313-1.04688-.45313-.4375-1.17187-.4375-.76563 0-1.21876.45313-.4531.45312-.46874 1.26562l-1.07813-.10937q.10937-1.21875.82813-1.84375.73437-.64063 1.96874-.64063 1.2344 0 1.95313.6875.71877.6875.71877 1.70313 0 .51562-.21877 1.01562-.20313.48438-.70313 1.04688-.48437.54687-1.60937 1.5-.95313.79687-1.23437 1.09375-.26563.28125-.4375.5625zm5.4219 1.01562h-1.0469v-6.71875q-.3906.35938-1.0156.73438-.6094.35937-1.09377.53125v-1.01563q.875-.42187 1.53127-1 .67186-.59375.9531-1.15625h.6719zm3.03123-4.23437q0-1.53125.3125-2.45313.3125-.9375.92187-1.4375.625-.5 1.5625-.5.6875 0 1.20313.28125.53127.28125.875.8125.34377.51563.53127 1.26563.1875.75.1875 2.03125 0 1.51562-.3125 2.4375-.2969.92187-.9219 1.4375-.60937.5-1.5625.5-1.23437 0-1.9531-.89063-.84377-1.0625-.84377-3.48437zm1.07813 0q0 2.10937.5 2.8125.5.70312 1.21874.70312.7344 0 1.21876-.70312.5-.70313.5-2.8125 0-2.125-.5-2.8125-.48436-.70313-1.23436-.70313-.71877 0-1.15627.60938-.54687.78125-.54687 2.90625zm6.07814 2.25 1.0156-.09375q.125.71875.4844 1.04687.375.3125.9375.3125.48436 0 .84373-.21875.375-.23437.60937-.59375.2344-.375.39063-1 .15627-.64062.15627-1.29687 0-.07813 0-.21875-.3125.5-.8594.82812-.54687.3125-1.1875.3125-1.0781 0-1.8125-.76562-.73437-.78125-.73437-2.04688 0-1.3125.76563-2.10937.78124-.79688 1.9375-.79688.82814 0 1.51564.45313.7031.45312 1.0625 1.29687.35936.82813.35936 2.40625 0 1.64063-.35936 2.625-.34377.96875-1.0625 1.48438-.70314.5-1.64064.5-1.01563 0-1.65626-.54688-.6406-.5625-.7656-1.57812zm4.3125-3.79688q0-.90625-.4844-1.4375-.46874-.53125-1.15624-.53125-.70313 0-1.23436.57813-.51564.5625-.51564 1.48437 0 .8125.5 1.32813.5.51562 1.21874.51562.7344 0 1.20313-.51562.46877-.51563.46877-1.42188zm2.59373-1.6875v-1.01562h5.5625v.82812q-.8125.875-1.625 2.32813-.79687 1.4375-1.23437 2.96875-.32813 1.07812-.40626 2.35937h-1.09374q.01564-1.01562.39064-2.45312.3906-1.4375 1.09373-2.76563.71877-1.32812 1.53127-2.25z" fill="#4285f4"/>
  <path d="m186.21733 536.4294h-1.04687v-6.71877q-.39063.35937-1.01563.73437-.60937.3594-1.09375.53126v-1.01563q.875-.42187 1.53125-1 .67187-.59373.95313-1.15623h.67187z" stroke="#fff" stroke-linecap="round" stroke-linejoin="round" stroke-width="3"/>
  <path d="m186.21733 536.4294h-1.04687v-6.71877q-.39063.35937-1.01563.73437-.60937.3594-1.09375.53126v-1.01563q.875-.42187 1.53125-1 .67187-.59373.95313-1.15623h.67187z" fill="#ea4335"/>
  <path d="m326.48654 485.98547v1.01563h-5.6875q0-.375.125-.73438.21876-.57812.6875-1.14062.48438-.5625 1.39063-1.29688 1.40625-1.15625 1.89063-1.82812.5-.67188.5-1.26563 0-.625-.45313-1.04687-.45313-.4375-1.17187-.4375-.76563 0-1.21876.45312-.45312.45313-.46874 1.26563l-1.07813-.10938q.10937-1.21875.82813-1.84375.73437-.64062 1.96874-.64062 1.23438 0 1.95313.6875.71875.6875.71875 1.70312 0 .51563-.21875 1.01563-.20313.48437-.70313 1.04687-.48437.54688-1.60937 1.5-.95313.79688-1.23437 1.09375-.26563.28125-.4375.5625zm2.01563 1.01563v-1.20313h1.20313v1.20313q0 .65625-.23438 1.0625-.23438.42187-.73438.64062l-.29687-.45312q.32813-.14063.48437-.4375.15626-.28125.1875-.8125zm2.4375-4.23438q0-1.53125.3125-2.45312.3125-.9375.92187-1.4375.625-.5 1.5625-.5.6875 0 1.20313.28125.53125.28125.875.8125.34375.51562.53125 1.26562.1875.75.1875 2.03125 0 1.51563-.3125 2.4375-.29688.92188-.92188 1.4375-.60937.5-1.5625.5-1.23437 0-1.95312-.89062-.84375-1.0625-.84375-3.48438zm1.07813 0q0 2.10938.5 2.8125.5.70313 1.21874.70313.73438 0 1.21876-.70313.5-.70312.5-2.8125 0-2.125-.5-2.8125-.48438-.70312-1.23438-.70312-.71875 0-1.15625.60937-.54687.78125-.54687 2.90625zm9.89062 4.23438h-1.04688v-6.71875q-.39062.35937-1.01562.73437-.60938.35938-1.09375.53125v-1.01562q.875-.42188 1.53125-1 .67188-.59375.95312-1.15625h.67188zm8.57812-1.01563v1.01563h-5.6875q0-.375.125-.73438.21876-.57812.6875-1.14062.48438-.5625 1.39063-1.29688 1.40625-1.15625 1.89063-1.82812.5-.67188.5-1.26563 0-.625-.45313-1.04687-.45313-.4375-1.17187-.4375-.76563 0-1.21876.45312-.45312.45313-.46874 1.26563l-1.07813-.10938q.10937-1.21875.82813-1.84375.73437-.64062 1.96874-.64062 1.23438 0 1.95313.6875.71875.6875.71875 1.70312 0 .51563-.21875 1.01563-.20313.48437-.70313 1.04687-.48437.54688-1.60937 1.5-.95313.79688-1.23437 1.09375-.26563.28125-.4375.5625zm3.07813-3.64062q-.65625-.25-.98437-.6875-.3125-.45313-.3125-1.0625 0-.9375.67187-1.57813.6875-.64062 1.79687-.64062 1.125 0 1.8125.65625.6875.65625.6875 1.59375 0 .59375-.3125 1.03125-.3125.4375-.95312.6875.79688.25 1.20312.82812.40626.57813.40626 1.375 0 1.09375-.78126 1.84375-.76562.75-2.04687.75-1.26563 0-2.04687-.75-.78126-.75-.78126-1.875 0-.84375.42188-1.40625.4375-.5625 1.21875-.76562zm-.21875-1.79688q0 .60938.39062 1 .40626.39063 1.03126.39063.60937 0 1-.375.39062-.39063.39062-.95313 0-.57812-.40625-.96875-.40625-.40625-1-.40625-.60937 0-1.01563.39063-.39062.39062-.39062.92187zm-.32812 3.96875q0 .45313.20312.875.21875.42188.64062.65625.42188.23438.90626.23438.75 0 1.23437-.48438.5-.48437.5-1.23437 0-.76563-.5-1.26563-.5-.5-1.26563-.5-.75 0-1.23437.5-.48437.48438-.48437 1.21875zm5.98437-4.98437v-1.01563h5.5625v.82813q-.8125.875-1.625 2.32812-.79687 1.4375-1.23437 2.96875-.32813 1.07813-.40626 2.35938h-1.09374q.01562-1.01563.39062-2.45313.39062-1.4375 1.09375-2.76562.71875-1.32813 1.53125-2.25zm7 0v-1.01563h5.5625v.82813q-.8125.875-1.625 2.32812-.79687 1.4375-1.23437 2.96875-.32813 1.07813-.40626 2.35938h-1.09374q.01562-1.01563.39062-2.45313.39062-1.4375 1.09375-2.76562.71875-1.32813 1.53125-2.25zm6.9375 3.23437q0-1.53125.3125-2.45312.3125-.9375.92187-1.4375.625-.5 1.5625-.5.6875 0 1.20313.28125.53125.28125.875.8125.34375.51562.53125 1.26562.1875.75.1875 2.03125 0 1.51563-.3125 2.4375-.29688.92188-.92188 1.4375-.60937.5-1.5625.5-1.23437 0-1.95312-.89062-.84375-1.0625-.84375-3.48438zm1.07813 0q0 2.10938.5 2.8125.5.70313 1.21874.70313.73438 0 1.21876-.70313.5-.70312.5-2.8125 0-2.125-.5-2.8125-.48438-.70312-1.23438-.70312-.71875 0-1.15625.60937-.54687.78125-.54687 2.90625zm5.92187 1.98438 1.10937-.09375q.125.8125.5625 1.21875.45313.40625 1.09376.40625.75 0 1.28124-.57813.53126-.57812.53126-1.51562 0-.90625-.51563-1.42188-.5-.53125-1.32813-.53125-.5 0-.92187.23438-.40625.23437-.64063.59375l-.98437-.125.82813-4.40625h4.28124v1h-3.4375l-.45312 2.3125q.76562-.54688 1.60938-.54688 1.125 0 1.89062.78125.78125.78125.78125 2.01563 0 1.15625-.67187 2.01562-.82813 1.03125-2.25 1.03125-1.17188 0-1.92188-.65625-.73438-.65625-.84375-1.73437zm10.96875 2.25h-1.04688v-6.71875q-.39062.35937-1.01562.73437-.60938.35938-1.09375.53125v-1.01562q.875-.42188 1.53125-1 .67188-.59375.95312-1.15625h.67188z" stroke="#fff" stroke-linecap="round" stroke-linejoin="round" stroke-width="3"/>
  <path d="m326.48654 485.98547v1.01563h-5.6875q0-.375.125-.73438.21876-.57812.6875-1.14062.48438-.5625 1.39063-1.29688 1.40625-1.15625 1.89063-1.82812.5-.67188.5-1.26563 0-.625-.45313-1.04687-.45313-.4375-1.17187-.4375-.76563 0-1.21876.45312-.45312.45313-.46874 1.26563l-1.07813-.10938q.10937-1.21875.82813-1.84375.73437-.64062 1.96874-.64062 1.23438 0 1.95313.6875.71875.6875.71875 1.70312 0 .51563-.21875 1.01563-.20313.48437-.70313 1.04687-.48437.54688-1.60937 1.5-.95313.79688-1.23437 1.09375-.26563.28125-.4375.5625zm2.01563 1.01563v-1.20313h1.20313v1.20313q0 .65625-.23438 1.0625-.23438.42187-.73438.64062l-.29687-.45312q.32813-.14063.48437-.4375.15626-.28125.1875-.8125zm2.4375-4.23438q0-1.53125.3125-2.45312.3125-.9375.92187-1.4375.625-.5 1.5625-.5.6875 0 1.20313.28125.53125.28125.875.8125.34375.51562.53125 1.26562.1875.75.1875 2.03125 0 1.51563-.3125 2.4375-.29688.92188-.92188 1.4375-.60937.5-1.5625.5-1.23437 0-1.95312-.89062-.84375-1.0625-.84375-3.48438zm1.07813 0q0 2.10938.5 2.8125.5.70313 1.21874.70313.73438 0 1.21876-.70313.5-.70312.5-2.8125 0-2.125-.5-2.8125-.48438-.70312-1.23438-.70312-.71875 0-1.15625.60937-.54687.78125-.54687 2.90625zm9.89062 4.23438h-1.04688v-6.71875q-.39062.35937-1.01562.73437-.60938.35938-1.09375.53125v-1.01562q.875-.42188 1.53125-1 .67188-.59375.95312-1.15625h.67188zm8.57812-1.01563v1.01563h-5.6875q0-.375.125-.73438.21876-.57812.6875-1.14062.48438-.5625 1.39063-1.29688 1.40625-1.15625 1.89063-1.82812.5-.67188.5-1.26563 0-.625-.45313-1.04687-.45313-.4375-1.17187-.4375-.76563 0-1.21876.45312-.45312.45313-.46874 1.26563l-1.07813-.10938q.10937-1.21875.82813-1.84375.73437-.64062 1.96874-.64062 1.23438 0 1.95313.6875.71875.6875.71875 1.70312 0 .51563-.21875 1.01563-.20313.48437-.70313 1.04687-.48437.54688-1.60937 1.5-.95313.79688-1.23437 1.09375-.26563.28125-.4375.5625zm3.07813-3.64062q-.65625-.25-.98437-.6875-.3125-.45313-.3125-1.0625 0-.9375.67187-1.57813.6875-.64062 1.79687-.64062 1.125 0 1.8125.65625.6875.65625.6875 1.59375 0 .59375-.3125 1.03125-.3125.4375-.95312.6875.79688.25 1.20312.82812.40626.57813.40626 1.375 0 1.09375-.78126 1.84375-.76562.75-2.04687.75-1.26563 0-2.04687-.75-.78126-.75-.78126-1.875 0-.84375.42188-1.40625.4375-.5625 1.21875-.76562zm-.21875-1.79688q0 .60938.39062 1 .40626.39063 1.03126.39063.60937 0 1-.375.39062-.39063.39062-.95313 0-.57812-.40625-.96875-.40625-.40625-1-.40625-.60937 0-1.01563.39063-.39062.39062-.39062.92187zm-.32812 3.96875q0 .45313.20312.875.21875.42188.64062.65625.42188.23438.90626.23438.75 0 1.23437-.48438.5-.48437.5-1.23437 0-.76563-.5-1.26563-.5-.5-1.26563-.5-.75 0-1.23437.5-.48437.48438-.48437 1.21875zm5.98437-4.98437v-1.01563h5.5625v.82813q-.8125.875-1.625 2.32812-.79687 1.4375-1.23437 2.96875-.32813 1.07813-.40626 2.35938h-1.09374q.01562-1.01563.39062-2.45313.39062-1.4375 1.09375-2.76562.71875-1.32813 1.53125-2.25zm7 0v-1.01563h5.5625v.82813q-.8125.875-1.625 2.32812-.79687 1.4375-1.23437 2.96875-.32813 1.07813-.40626 2.35938h-1.09374q.01562-1.01563.39062-2.45313.39062-1.4375 1.09375-2.76562.71875-1.32813 1.53125-2.25zm6.9375 3.23437q0-1.53125.3125-2.45312.3125-.9375.92187-1.4375.625-.5 1.5625-.5.6875 0 1.20313.28125.53125.28125.875.8125.34375.51562.53125 1.26562.1875.75.1875 2.03125 0 1.51563-.3125 2.4375-.29688.92188-.92188 1.4375-.60937.5-1.5625.5-1.23437 0-1.95312-.89062-.84375-1.0625-.84375-3.48438zm1.07813 0q0 2.10938.5 2.8125.5.70313 1.21874.70313.73438 0 1.21876-.70313.5-.70312.5-2.8125 0-2.125-.5-2.8125-.48438-.70312-1.23438-.70312-.71875 0-1.15625.60937-.54687.78125-.54687 2.90625zm5.92187 1.98438 1.10937-.09375q.125.8125.5625 1.21875.45313.40625 1.09376.40625.75 0 1.28124-.57813.53126-.57812.53126-1.51562 0-.90625-.51563-1.42188-.5-.53125-1.32813-.53125-.5 0-.92187.23438-.40625.23437-.64063.59375l-.98437-.125.82813-4.40625h4.28124v1h-3.4375l-.45312 2.3125q.76562-.54688 1.60938-.54688 1.125 0 1.89062.78125.78125.78125.78125 2.01563 0 1.15625-.67187 2.01562-.82813 1.03125-2.25 1.03125-1.17188 0-1.92188-.65625-.73438-.65625-.84375-1.73437zm10.96875 2.25h-1.04688v-6.71875q-.39062.35937-1.01562.73437-.60938.35938-1.09375.53125v-1.01562q.875-.42188 1.53125-1 .67188-.59375.95312-1.15625h.67188z" fill="#ea4335"/>
  <path d="m503.64032 405.16452 1.0625-.14062q.17188.89062.60938 1.29687.4375.39063 1.0625.39063.75 0 1.26562-.51563.51562-.51562.51562-1.28125 0-.71875-.48437-1.1875-.46875-.48437-1.20313-.48437-.29687 0-.75.125l.125-.9375q.10938.01562.17188.01562.67188 0 1.20312-.34375.54688-.35937.54688-1.09375 0-.57812-.39062-.95312-.39063-.39063-1.01563-.39063-.60937 0-1.03125.39063-.40625.39062-.51562 1.15625l-1.0625-.1875q.1875-1.04688.875-1.625.6875-.59375 1.70312-.59375.70312 0 1.29688.3125.59374.29687.90624.8125.3125.51562.3125 1.10937 0 .54688-.29687 1.01563-.29687.45312-.875.71875.75.17187 1.17187.73437.42188.54688.42188 1.39063 0 1.125-.82812 1.90625-.8125.78125-2.0625.78125-1.125 0-1.875-.67188-.75-.6875-.85938-1.75zm7.5625 2.26563v-1.20313h1.20312v1.20313q0 .65625-.23434 1.0625-.2344.42187-.7344.64062l-.29688-.45312q.32812-.14063.48438-.4375.15624-.28125.1875-.8125zm2.59378-1.98438 1.0156-.09375q.125.71875.4844 1.04688.375.3125.9375.3125.48434 0 .8437-.21875.375-.23438.6094-.59375.2344-.375.3906-1 .1563-.64063.1563-1.29688 0-.07812 0-.21875-.3125.5-.8594.82813-.5469.3125-1.1875.3125-1.0781 0-1.8125-.76563-.7344-.78125-.7344-2.04687 0-1.3125.76564-2.10938.78126-.79687 1.9375-.79687.82816 0 1.51566.45312.7031.45313 1.0625 1.29688.35934.82812.35934 2.40625 0 1.64062-.35934 2.625-.3438.96875-1.0625 1.48437-.70316.5-1.64066.5-1.01564 0-1.65624-.54687-.6406-.5625-.7656-1.57813zm4.3125-3.79687q0-.90625-.4844-1.4375-.46876-.53125-1.15626-.53125-.70314 0-1.23434.57812-.51566.5625-.51566 1.48438 0 .8125.5 1.32812.5.51563 1.21876.51563.7344 0 1.2031-.51563.4688-.51562.4688-1.42187zm4.1562 1.125q-.6562-.25-.98436-.6875-.3125-.45313-.3125-1.0625 0-.9375.67186-1.57813.6875-.64062 1.7969-.64062 1.125 0 1.8125.65625.6875.65625.6875 1.59375 0 .59375-.3125 1.03125-.3125.4375-.9531.6875.79684.25 1.2031.82812.40624.57813.40624 1.375 0 1.09375-.78124 1.84375-.7656.75-2.0469.75-1.2656 0-2.04686-.75-.78124-.75-.78124-1.875 0-.84375.4219-1.40625.4375-.5625 1.2187-.76562zm-.2187-1.79688q0 .60938.3906 1 .40624.39063 1.03124.39063.60936 0 1-.375.39066-.39063.39066-.95313 0-.57812-.4063-.96875-.4062-.40625-1-.40625-.60936 0-1.0156.39063-.3906.39062-.3906.92187zm-.32816 3.96875q0 .45313.20316.875.2187.42188.6406.65625.4219.23438.90624.23438.75 0 1.23436-.48438.5-.48437.5-1.23437 0-.76563-.5-1.26563-.5-.5-1.2656-.5-.75 0-1.2344.5-.48436.48438-.48436 1.21875zm5.92186-1.75q0-1.53125.3125-2.45312.3125-.9375.9219-1.4375.625-.5 1.5625-.5.6875 0 1.2031.28125.5313.28125.875.8125.3438.51562.5313 1.26562.1875.75.1875 2.03125 0 1.51563-.3125 2.4375-.2969.92188-.9219 1.4375-.6094.5-1.5625.5-1.2344 0-1.9531-.89062-.8438-1.0625-.8438-3.48438zm1.07814 0q0 2.10938.5 2.8125.5.70313 1.21876.70313.7344 0 1.21874-.70313.5-.70312.5-2.8125 0-2.125-.5-2.8125-.48434-.70312-1.23434-.70312-.7188 0-1.1563.60937-.54686.78125-.54686 2.90625zm9.89066 4.23438h-1.0469v-6.71875q-.3906.35937-1.0156.73437-.6094.35938-1.0938.53125v-1.01562q.875-.42188 1.5313-1 .67184-.59375.9531-1.15625h.6719zm7 0h-1.0469v-6.71875q-.3906.35937-1.0156.73437-.6094.35938-1.0938.53125v-1.01562q.875-.42188 1.5313-1 .67184-.59375.9531-1.15625h.6719zm4.6562-4.65625q-.6562-.25-.98436-.6875-.3125-.45313-.3125-1.0625 0-.9375.67186-1.57813.6875-.64062 1.7969-.64062 1.125 0 1.8125.65625.6875.65625.6875 1.59375 0 .59375-.3125 1.03125-.3125.4375-.9531.6875.79684.25 1.2031.82812.40624.57813.40624 1.375 0 1.09375-.78124 1.84375-.7656.75-2.0469.75-1.2656 0-2.04686-.75-.78124-.75-.78124-1.875 0-.84375.4219-1.40625.4375-.5625 1.2187-.76562zm-.2187-1.79688q0 .60938.3906 1 .40624.39063 1.03124.39063.60936 0 1-.375.39066-.39063.39066-.95313 0-.57812-.4063-.96875-.4062-.40625-1-.40625-.60936 0-1.0156.39063-.3906.39062-.3906.92187zm-.32816 3.96875q0 .45313.20316.875.2187.42188.6406.65625.4219.23438.90624.23438.75 0 1.23436-.48438.5-.48437.5-1.23437 0-.76563-.5-1.26563-.5-.5-1.2656-.5-.75 0-1.2344.5-.48436.48438-.48436 1.21875zm5.92186.23438 1.1094-.09375q.125.8125.5625 1.21875.4531.40625 1.09374.40625.75 0 1.28126-.57813.53124-.57812.53124-1.51562 0-.90625-.51564-1.42188-.5-.53125-1.3281-.53125-.5 0-.9219.23438-.4062.23437-.6406.59375l-.9844-.125.82814-4.40625h4.28126v1h-3.4375l-.4531 2.3125q.7656-.54688 1.60934-.54688 1.125 0 1.89066.78125.7812.78125.7812 2.01563 0 1.15625-.67186 2.01562-.82814 1.03125-2.25 1.03125-1.17184 0-1.92184-.65625-.7344-.65625-.8438-1.73437zm7.1563.26562 1.0156-.09375q.125.71875.4844 1.04688.375.3125.9375.3125.48434 0 .8437-.21875.375-.23438.6094-.59375.2344-.375.3906-1 .1563-.64063.1563-1.29688 0-.07812 0-.21875-.3125.5-.8594.82813-.5469.3125-1.1875.3125-1.0781 0-1.8125-.76563-.7344-.78125-.7344-2.04687 0-1.3125.76564-2.10938.78126-.79687 1.9375-.79687.82816 0 1.51566.45312.7031.45313 1.0625 1.29688.35934.82812.35934 2.40625 0 1.64062-.35934 2.625-.3438.96875-1.0625 1.48437-.70316.5-1.64066.5-1.01564 0-1.65624-.54687-.6406-.5625-.7656-1.57813zm4.3125-3.79687q0-.90625-.4844-1.4375-.46876-.53125-1.15626-.53125-.70314 0-1.23434.57812-.51566.5625-.51566 1.48438 0 .8125.5 1.32812.5.51563 1.21876.51563.7344 0 1.2031-.51563.4688-.51562.4688-1.42187zm6.5 5.78125h-1.0469v-6.71875q-.3906.35937-1.0156.73437-.6094.35938-1.0938.53125v-1.01562q.875-.42188 1.5313-1 .67184-.59375.9531-1.15625h.6719z" stroke="#fff" stroke-linecap="round" stroke-linejoin="round" stroke-width="3"/>
  <path d="m503.64032 405.16452 1.0625-.14062q.17188.89062.60938 1.29687.4375.39063 1.0625.39063.75 0 1.26562-.51563.51562-.51562.51562-1.28125 0-.71875-.48437-1.1875-.46875-.48437-1.20313-.48437-.29687 0-.75.125l.125-.9375q.10938.01562.17188.01562.67188 0 1.20312-.34375.54688-.35937.54688-1.09375 0-.57812-.39062-.95312-.39063-.39063-1.01563-.39063-.60937 0-1.03125.39063-.40625.39062-.51562 1.15625l-1.0625-.1875q.1875-1.04688.875-1.625.6875-.59375 1.70312-.59375.70312 0 1.29688.3125.59374.29687.90624.8125.3125.51562.3125 1.10937 0 .54688-.29687 1.01563-.29687.45312-.875.71875.75.17187 1.17187.73437.42188.54688.42188 1.39063 0 1.125-.82812 1.90625-.8125.78125-2.0625.78125-1.125 0-1.875-.67188-.75-.6875-.85938-1.75zm7.5625 2.26563v-1.20313h1.20312v1.20313q0 .65625-.23434 1.0625-.2344.42187-.7344.64062l-.29688-.45312q.32812-.14063.48438-.4375.15624-.28125.1875-.8125zm2.59378-1.98438 1.0156-.09375q.125.71875.4844 1.04688.375.3125.9375.3125.48434 0 .8437-.21875.375-.23438.6094-.59375.2344-.375.3906-1 .1563-.64063.1563-1.29688 0-.07812 0-.21875-.3125.5-.8594.82813-.5469.3125-1.1875.3125-1.0781 0-1.8125-.76563-.7344-.78125-.7344-2.04687 0-1.3125.76564-2.10938.78126-.79687 1.9375-.79687.82816 0 1.51566.45312.7031.45313 1.0625 1.29688.35934.82812.35934 2.40625 0 1.64062-.35934 2.625-.3438.96875-1.0625 1.48437-.70316.5-1.64066.5-1.01564 0-1.65624-.54687-.6406-.5625-.7656-1.57813zm4.3125-3.79687q0-.90625-.4844-1.4375-.46876-.53125-1.15626-.53125-.70314 0-1.23434.57812-.51566.5625-.51566 1.48438 0 .8125.5 1.32812.5.51563 1.21876.51563.7344 0 1.2031-.51563.4688-.51562.4688-1.42187zm4.1562 1.125q-.6562-.25-.98436-.6875-.3125-.45313-.3125-1.0625 0-.9375.67186-1.57813.6875-.64062 1.7969-.64062 1.125 0 1.8125.65625.6875.65625.6875 1.59375 0 .59375-.3125 1.03125-.3125.4375-.9531.6875.79684.25 1.2031.82812.40624.57813.40624 1.375 0 1.09375-.78124 1.84375-.7656.75-2.0469.75-1.2656 0-2.04686-.75-.78124-.75-.78124-1.875 0-.84375.4219-1.40625.4375-.5625 1.2187-.76562zm-.2187-1.79688q0 .60938.3906 1 .40624.39063 1.03124.39063.60936 0 1-.375.39066-.39063.39066-.95313 0-.57812-.4063-.96875-.4062-.40625-1-.40625-.60936 0-1.0156.39063-.3906.39062-.3906.92187zm-.32816 3.96875q0 .45313.20316.875.2187.42188.6406.65625.4219.23438.90624.23438.75 0 1.23436-.48438.5-.48437.5-1.23437 0-.76563-.5-1.26563-.5-.5-1.2656-.5-.75 0-1.2344.5-.48436.48438-.48436 1.21875zm5.92186-1.75q0-1.53125.3125-2.45312.3125-.9375.9219-1.4375.625-.5 1.5625-.5.6875 0 1.2031.28125.5313.28125.875.8125.3438.51562.5313 1.26562.1875.75.1875 2.03125 0 1.51563-.3125 2.4375-.2969.92188-.9219 1.4375-.6094.5-1.5625.5-1.2344 0-1.9531-.89062-.8438-1.0625-.8438-3.48438zm1.07814 0q0 2.10938.5 2.8125.5.70313 1.21876.70313.7344 0 1.21874-.70313.5-.70312.5-2.8125 0-2.125-.5-2.8125-.48434-.70312-1.23434-.70312-.7188 0-1.1563.60937-.54686.78125-.54686 2.90625zm9.89066 4.23438h-1.0469v-6.71875q-.3906.35937-1.0156.73437-.6094.35938-1.0938.53125v-1.01562q.875-.42188 1.5313-1 .67184-.59375.9531-1.15625h.6719zm7 0h-1.0469v-6.71875q-.3906.35937-1.0156.73437-.6094.35938-1.0938.53125v-1.01562q.875-.42188 1.5313-1 .67184-.59375.9531-1.15625h.6719zm4.6562-4.65625q-.6562-.25-.98436-.6875-.3125-.45313-.3125-1.0625 0-.9375.67186-1.57813.6875-.64062 1.7969-.64062 1.125 0 1.8125.65625.6875.65625.6875 1.59375 0 .59375-.3125 1.03125-.3125.4375-.9531.6875.79684.25 1.2031.82812.40624.57813.40624 1.375 0 1.09375-.78124 1.84375-.7656.75-2.0469.75-1.2656 0-2.04686-.75-.78124-.75-.78124-1.875 0-.84375.4219-1.40625.4375-.5625 1.2187-.76562zm-.2187-1.79688q0 .60938.3906 1 .40624.39063 1.03124.39063.60936 0 1-.375.39066-.39063.39066-.95313 0-.57812-.4063-.96875-.4062-.40625-1-.40625-.60936 0-1.0156.39063-.3906.39062-.3906.92187zm-.32816 3.96875q0 .45313.20316.875.2187.42188.6406.65625.4219.23438.90624.23438.75 0 1.23436-.48438.5-.48437.5-1.23437 0-.76563-.5-1.26563-.5-.5-1.2656-.5-.75 0-1.2344.5-.48436.48438-.48436 1.21875zm5.92186.23438 1.1094-.09375q.125.8125.5625 1.21875.4531.40625 1.09374.40625.75 0 1.28126-.57813.53124-.57812.53124-1.51562 0-.90625-.51564-1.42188-.5-.53125-1.3281-.53125-.5 0-.9219.23438-.4062.23437-.6406.59375l-.9844-.125.82814-4.40625h4.28126v1h-3.4375l-.4531 2.3125q.7656-.54688 1.60934-.54688 1.125 0 1.89066.78125.7812.78125.7812 2.01563 0 1.15625-.67186 2.01562-.82814 1.03125-2.25 1.03125-1.17184 0-1.92184-.65625-.7344-.65625-.8438-1.73437zm7.1563.26562 1.0156-.09375q.125.71875.4844 1.04688.375.3125.9375.3125.48434 0 .8437-.21875.375-.23438.6094-.59375.2344-.375.3906-1 .1563-.64063.1563-1.29688 0-.07812 0-.21875-.3125.5-.8594.82813-.5469.3125-1.1875.3125-1.0781 0-1.8125-.76563-.7344-.78125-.7344-2.04687 0-1.3125.76564-2.10938.78126-.79687 1.9375-.79687.82816 0 1.51566.45312.7031.45313 1.0625 1.29688.35934.82812.35934 2.40625 0 1.64062-.35934 2.625-.3438.96875-1.0625 1.48437-.70316.5-1.64066.5-1.01564 0-1.65624-.54687-.6406-.5625-.7656-1.57813zm4.3125-3.79687q0-.90625-.4844-1.4375-.46876-.53125-1.15626-.53125-.70314 0-1.23434.57812-.51566.5625-.51566 1.48438 0 .8125.5 1.32812.5.51563 1.21876.51563.7344 0 1.2031-.51563.4688-.51562.4688-1.42187zm6.5 5.78125h-1.0469v-6.71875q-.3906.35937-1.0156.73437-.6094.35938-1.0938.53125v-1.01562q.875-.42188 1.5313-1 .67184-.59375.9531-1.15625h.6719z" fill="#ea4335"/>
  <path d="m704.02606 230.99388q-.65626-.25-.98436-.6875-.3125-.45312-.3125-1.0625 0-.9375.67186-1.57812.6875-.64063 1.79688-.64063 1.125 0 1.8125.65625.6875.65625.6875 1.59375 0 .59375-.3125 1.03125-.3125.4375-.95314.6875.7969.25 1.20314.82812.40626.57813.40626 1.375 0 1.09376-.78126 1.84376-.76564.75-2.04688.75-1.26562 0-2.04686-.75-.78126-.75-.78126-1.875 0-.84376.42186-1.40626.4375-.5625 1.21876-.76562zm-.21876-1.79688q0 .60938.39064 1 .40626.39063 1.03126.39063.60936 0 1-.375.3906-.39063.3906-.95313 0-.57812-.40624-.96874-.40626-.40626-1-.40626-.60936 0-1.01562.39063-.39064.39063-.39064.92187zm-.3281 3.96876q0 .45312.2031.875.21876.42187.64064.65624.42186.23438.90626.23438.75 0 1.23436-.48438.5-.48437.5-1.23437 0-.76563-.5-1.26563-.5-.5-1.26562-.5-.75 0-1.23438.5-.48436.48438-.48436 1.21876zm6.48436 2.48437v-1.20313h1.20314v1.20313q0 .65625-.2344 1.0625-.23436.42187-.73436.64063l-.29688-.45313q.32814-.14063.48438-.4375.15626-.28125.1875-.8125zm2.4375-4.23437q0-1.53126.3125-2.45313.3125-.9375.92188-1.4375.625-.5 1.5625-.5.6875 0 1.20312.28125.53124.28125.875.8125.34374.51562.53124 1.26562.1875.75.1875 2.03126 0 1.51562-.3125 2.4375-.29686.92187-.92186 1.4375-.60938.5-1.5625.5-1.23438 0-1.95314-.89063-.84374-1.0625-.84374-3.48437zm1.07814 0q0 2.10937.5 2.8125.5.70312 1.21874.70312.73436 0 1.21876-.70312.5-.70313.5-2.8125 0-2.125-.5-2.8125-.4844-.70313-1.2344-.70313-.71874 0-1.15624.60937-.54686.78126-.54686 2.90626zm5.92186 0q0-1.53126.3125-2.45313.3125-.9375.92188-1.4375.625-.5 1.5625-.5.6875 0 1.20312.28125.53124.28125.875.8125.34374.51562.53124 1.26562.1875.75.1875 2.03126 0 1.51562-.3125 2.4375-.29686.92187-.92186 1.4375-.60938.5-1.5625.5-1.23438 0-1.95314-.89063-.84374-1.0625-.84374-3.48437zm1.07814 0q0 2.10937.5 2.8125.5.70312 1.21874.70312.73436 0 1.21876-.70312.5-.70313.5-2.8125 0-2.125-.5-2.8125-.4844-.70313-1.2344-.70313-.71874 0-1.15624.60937-.54686.78126-.54686 2.90626zm11.46874 3.21874v1.01563h-5.6875q0-.375.125-.73437.21876-.57813.6875-1.14063.48436-.5625 1.39062-1.29687 1.40624-1.15626 1.89064-1.82813.5-.67187.5-1.26563 0-.625-.45314-1.04687-.45312-.4375-1.17186-.4375-.76564 0-1.21876.45313-.45314.45312-.46874 1.26562l-1.07814-.10938q.10938-1.21874.82814-1.84374.73436-.64063 1.96874-.64063 1.23436 0 1.95312.6875.71874.6875.71874 1.70313 0 .51562-.21874 1.01562-.20312.48438-.70312 1.04688-.48438.54687-1.60938 1.5-.95312.79687-1.23436 1.09374-.26564.28126-.4375.5625zm5.42186 1.01563h-1.04686v-6.71875q-.39064.35938-1.01564.73438-.60936.35937-1.09374.53124v-1.01562q.875-.42188 1.53124-1 .6719-.59375.95314-1.15625h.67186zm3.03126-4.23437q0-1.53126.3125-2.45313.3125-.9375.92188-1.4375.625-.5 1.5625-.5.6875 0 1.20312.28125.53124.28125.875.8125.34374.51562.53124 1.26562.1875.75.1875 2.03126 0 1.51562-.3125 2.4375-.29686.92187-.92186 1.4375-.60938.5-1.5625.5-1.23438 0-1.95314-.89063-.84374-1.0625-.84374-3.48437zm1.07814 0q0 2.10937.5 2.8125.5.70312 1.21874.70312.73436 0 1.21876-.70312.5-.70313.5-2.8125 0-2.125-.5-2.8125-.4844-.70313-1.2344-.70313-.71874 0-1.15624.60937-.54686.78126-.54686 2.90626zm5.92186 1.96874 1.0625-.14062q.17188.89062.60938 1.29688.4375.39062 1.0625.39062.75 0 1.26562-.51562.51564-.51563.51564-1.28126 0-.71874-.4844-1.1875-.46874-.48437-1.2031-.48437-.2969 0-.75.125l.125-.9375q.10936.01563.17186.01563.67188 0 1.20314-.34376.54686-.35937.54686-1.09374 0-.57813-.39062-.95313-.39064-.39063-1.01564-.39063-.60936 0-1.03124.39063-.40626.39063-.51562 1.15625l-1.0625-.1875q.1875-1.04688.875-1.625.6875-.59375 1.70312-.59375.70314 0 1.29688.3125.59376.29687.90626.8125.3125.51563.3125 1.10937 0 .54688-.2969 1.01563-.29686.45313-.875.71875.75.17188 1.1719.73438.42186.54687.42186 1.39062 0 1.125-.82812 1.90625-.8125.78125-2.0625.78125-1.125 0-1.875-.67188-.75-.6875-.85938-1.75zm7.0625-5.20312v-1.01562h5.5625v.82812q-.8125.875-1.625 2.32812-.79686 1.4375-1.23436 2.96876-.32814 1.07812-.40626 2.35937h-1.09374q.0156-1.01563.3906-2.45313.39064-1.4375 1.09376-2.76562.71874-1.32812 1.53124-2.25zm8.5625 2.8125q-.65626-.25-.98436-.6875-.3125-.45312-.3125-1.0625 0-.9375.67186-1.57812.6875-.64063 1.79688-.64063 1.125 0 1.8125.65625.6875.65625.6875 1.59375 0 .59375-.3125 1.03125-.3125.4375-.95314.6875.7969.25 1.20314.82812.40626.57813.40626 1.375 0 1.09376-.78126 1.84376-.76564.75-2.04688.75-1.26562 0-2.04686-.75-.78126-.75-.78126-1.875 0-.84376.42186-1.40626.4375-.5625 1.21876-.76562zm-.21876-1.79688q0 .60938.39064 1 .40626.39063 1.03126.39063.60936 0 1-.375.3906-.39063.3906-.95313 0-.57812-.40624-.96874-.40626-.40626-1-.40626-.60936 0-1.01562.39063-.39064.39063-.39064.92187zm-.3281 3.96876q0 .45312.2031.875.21876.42187.64064.65624.42186.23438.90626.23438.75 0 1.23436-.48438.5-.48437.5-1.23437 0-.76563-.5-1.26563-.5-.5-1.26562-.5-.75 0-1.23438.5-.48436.48438-.48436 1.21876zm5.98436-4.98438v-1.01562h5.5625v.82812q-.8125.875-1.625 2.32812-.79686 1.4375-1.23436 2.96876-.32814 1.07812-.40626 2.35937h-1.09374q.0156-1.01563.3906-2.45313.39064-1.4375 1.09376-2.76562.71874-1.32812 1.53124-2.25z" stroke="#fff" stroke-linecap="round" stroke-linejoin="round" stroke-width="3"/>
  <path d="m704.02606 230.99388q-.65626-.25-.98436-.6875-.3125-.45312-.3125-1.0625 0-.9375.67186-1.57812.6875-.64063 1.79688-.64063 1.125 0 1.8125.65625.6875.65625.6875 1.59375 0 .59375-.3125 1.03125-.3125.4375-.95314.6875.7969.25 1.20314.82812.40626.57813.40626 1.375 0 1.09376-.78126 1.84376-.76564.75-2.04688.75-1.26562 0-2.04686-.75-.78126-.75-.78126-1.875 0-.84376.42186-1.40626.4375-.5625 1.21876-.76562zm-.21876-1.79688q0 .60938.39064 1 .40626.39063 1.03126.39063.60936 0 1-.375.3906-.39063.3906-.95313 0-.57812-.40624-.96874-.40626-.40626-1-.40626-.60936 0-1.01562.39063-.39064.39063-.39064.92187zm-.3281 3.96876q0 .45312.2031.875.21876.42187.64064.65624.42186.23438.90626.23438.75 0 1.23436-.48438.5-.48437.5-1.23437 0-.76563-.5-1.26563-.5-.5-1.26562-.5-.75 0-1.23438.5-.48436.48438-.48436 1.21876zm6.48436 2.48437v-1.20313h1.20314v1.20313q0 .65625-.2344 1.0625-.23436.42187-.73436.64063l-.29688-.45313q.32814-.14063.48438-.4375.15626-.28125.1875-.8125zm2.4375-4.23437q0-1.53126.3125-2.45313.3125-.9375.92188-1.4375.625-.5 1.5625-.5.6875 0 1.20312.28125.53124.28125.875.8125.34374.51562.53124 1.26562.1875.75.1875 2.03126 0 1.51562-.3125 2.4375-.29686.92187-.92186 1.4375-.60938.5-1.5625.5-1.23438 0-1.95314-.89063-.84374-1.0625-.84374-3.48437zm1.07814 0q0 2.10937.5 2.8125.5.70312 1.21874.70312.73436 0 1.21876-.70312.5-.70313.5-2.8125 0-2.125-.5-2.8125-.4844-.70313-1.2344-.70313-.71874 0-1.15624.60937-.54686.78126-.54686 2.90626zm5.92186 0q0-1.53126.3125-2.45313.3125-.9375.92188-1.4375.625-.5 1.5625-.5.6875 0 1.20312.28125.53124.28125.875.8125.34374.51562.53124 1.26562.1875.75.1875 2.03126 0 1.51562-.3125 2.4375-.29686.92187-.92186 1.4375-.60938.5-1.5625.5-1.23438 0-1.95314-.89063-.84374-1.0625-.84374-3.48437zm1.07814 0q0 2.10937.5 2.8125.5.70312 1.21874.70312.73436 0 1.21876-.70312.5-.70313.5-2.8125 0-2.125-.5-2.8125-.4844-.70313-1.2344-.70313-.71874 0-1.15624.60937-.54686.78126-.54686 2.90626zm11.46874 3.21874v1.01563h-5.6875q0-.375.125-.73437.21876-.57813.6875-1.14063.48436-.5625 1.39062-1.29687 1.40624-1.15626 1.89064-1.82813.5-.67187.5-1.26563 0-.625-.45314-1.04687-.45312-.4375-1.17186-.4375-.76564 0-1.21876.45313-.45314.45312-.46874 1.26562l-1.07814-.10938q.10938-1.21874.82814-1.84374.73436-.64063 1.96874-.64063 1.23436 0 1.95312.6875.71874.6875.71874 1.70313 0 .51562-.21874 1.01562-.20312.48438-.70312 1.04688-.48438.54687-1.60938 1.5-.95312.79687-1.23436 1.09374-.26564.28126-.4375.5625zm5.42186 1.01563h-1.04686v-6.71875q-.39064.35938-1.01564.73438-.60936.35937-1.09374.53124v-1.01562q.875-.42188 1.53124-1 .6719-.59375.95314-1.15625h.67186zm3.03126-4.23437q0-1.53126.3125-2.45313.3125-.9375.92188-1.4375.625-.5 1.5625-.5.6875 0 1.20312.28125.53124.28125.875.8125.34374.51562.53124 1.26562.1875.75.1875 2.03126 0 1.51562-.3125 2.4375-.29686.92187-.92186 1.4375-.60938.5-1.5625.5-1.23438 0-1.95314-.89063-.84374-1.0625-.84374-3.48437zm1.07814 0q0 2.10937.5 2.8125.5.70312 1.21874.70312.73436 0 1.21876-.70312.5-.70313.5-2.8125 0-2.125-.5-2.8125-.4844-.70313-1.2344-.70313-.71874 0-1.15624.60937-.54686.78126-.54686 2.90626zm5.92186 1.96874 1.0625-.14062q.17188.89062.60938 1.29688.4375.39062 1.0625.39062.75 0 1.26562-.51562.51564-.51563.51564-1.28126 0-.71874-.4844-1.1875-.46874-.48437-1.2031-.48437-.2969 0-.75.125l.125-.9375q.10936.01563.17186.01563.67188 0 1.20314-.34376.54686-.35937.54686-1.09374 0-.57813-.39062-.95313-.39064-.39063-1.01564-.39063-.60936 0-1.03124.39063-.40626.39063-.51562 1.15625l-1.0625-.1875q.1875-1.04688.875-1.625.6875-.59375 1.70312-.59375.70314 0 1.29688.3125.59376.29687.90626.8125.3125.51563.3125 1.10937 0 .54688-.2969 1.01563-.29686.45313-.875.71875.75.17188 1.1719.73438.42186.54687.42186 1.39062 0 1.125-.82812 1.90625-.8125.78125-2.0625.78125-1.125 0-1.875-.67188-.75-.6875-.85938-1.75zm7.0625-5.20312v-1.01562h5.5625v.82812q-.8125.875-1.625 2.32812-.79686 1.4375-1.23436 2.96876-.32814 1.07812-.40626 2.35937h-1.09374q.0156-1.01563.3906-2.45313.39064-1.4375 1.09376-2.76562.71874-1.32812 1.53124-2.25zm8.5625 2.8125q-.65626-.25-.98436-.6875-.3125-.45312-.3125-1.0625 0-.9375.67186-1.57812.6875-.64063 1.79688-.64063 1.125 0 1.8125.65625.6875.65625.6875 1.59375 0 .59375-.3125 1.03125-.3125.4375-.95314.6875.7969.25 1.20314.82812.40626.57813.40626 1.375 0 1.09376-.78126 1.84376-.76564.75-2.04688.75-1.26562 0-2.04686-.75-.78126-.75-.78126-1.875 0-.84376.42186-1.40626.4375-.5625 1.21876-.76562zm-.21876-1.79688q0 .60938.39064 1 .40626.39063 1.03126.39063.60936 0 1-.375.3906-.39063.3906-.95313 0-.57812-.40624-.96874-.40626-.40626-1-.40626-.60936 0-1.01562.39063-.39064.39063-.39064.92187zm-.3281 3.96876q0 .45312.2031.875.21876.42187.64064.65624.42186.23438.90626.23438.75 0 1.23436-.48438.5-.48437.5-1.23437 0-.76563-.5-1.26563-.5-.5-1.26562-.5-.75 0-1.23438.5-.48436.48438-.48436 1.21876zm5.98436-4.98438v-1.01562h5.5625v.82812q-.8125.875-1.625 2.32812-.79686 1.4375-1.23436 2.96876-.32814 1.07812-.40626 2.35937h-1.09374q.0156-1.01563.3906-2.45313.39064-1.4375 1.09376-2.76562.71874-1.32812 1.53124-2.25z" fill="#ea4335"/>
  <path d="m922.9665 144.87921h-1.0469v-6.71875q-.3906.35938-1.0156.73438-.6094.35937-1.09376.53125v-1.01563q.875-.42187 1.53126-1 .67187-.59375.9531-1.15625h.6719zm3.03124-4.23437q0-1.53125.3125-2.45313.3125-.9375.92186-1.4375.625-.5 1.5625-.5.6875 0 1.20314.28125.53126.28125.875.8125.34376.51563.53126 1.26563.1875.75.1875 2.03125 0 1.51562-.3125 2.4375-.2969.92187-.9219 1.4375-.60936.5-1.5625.5-1.23436 0-1.9531-.89063-.84376-1.0625-.84376-3.48437zm1.07813 0q0 2.10937.5 2.8125.5.70312 1.21873.70312.7344 0 1.21877-.70312.5-.70313.5-2.8125 0-2.125-.5-2.8125-.48437-.70313-1.23437-.70313-.71876 0-1.15626.60938-.54687.78125-.54687 2.90625zm6.48437 4.23437v-1.20312h1.20313v1.20312q0 .65625-.23437 1.0625-.2344.42188-.7344.64063l-.29686-.45313q.32813-.14062.48436-.4375.15627-.28125.1875-.8125zm6.40626 0h-1.0469v-6.71875q-.3906.35938-1.0156.73438-.6094.35937-1.09376.53125v-1.01563q.875-.42187 1.53126-1 .67187-.59375.9531-1.15625h.6719zm8.5-6.48437-1.0469.07812q-.1406-.625-.3906-.90625-.4375-.45312-1.0625-.45312-.5 0-.89063.28125-.48437.375-.78127 1.07812-.28123.6875-.29686 1.96875.375-.57812.92186-.85937.5625-.28125 1.1719-.28125 1.04687 0 1.78124.78125.75.78125.75 2 0 .8125-.35937 1.51562-.34377.6875-.95313 1.0625-.60937.35938-1.375.35938-1.32814 0-2.15624-.96875-.82813-.96875-.82813-3.1875 0-2.5.92187-3.625.79686-.98438 2.15626-.98438 1.0156 0 1.65624.57813.65626.5625.78126 1.5625zm-4.2969 3.70312q0 .54688.21877 1.04688.23437.48437.64063.75.42187.26562.8906.26562.65627 0 1.14064-.53125.48436-.54687.48436-1.46875 0-.89062-.48436-1.40625-.46874-.51562-1.1875-.51562-.71874 0-1.21874.51562-.4844.51563-.4844 1.34375zm9.7969 2.78125h-1.0469v-6.71875q-.3906.35938-1.0156.73438-.6094.35937-1.09376.53125v-1.01563q.875-.42187 1.53126-1 .67187-.59375.9531-1.15625h.6719zm7 0h-1.0469v-6.71875q-.3906.35938-1.0156.73438-.6094.35937-1.09376.53125v-1.01563q.875-.42187 1.53126-1 .67187-.59375.9531-1.15625h.6719zm3.09374-7.46875v-1.01562h5.5625v.82812q-.8125.875-1.625 2.32813-.79687 1.4375-1.23437 2.96875-.32813 1.07812-.40627 2.35937h-1.09373q.01563-1.01562.39063-2.45312.3906-1.4375 1.09374-2.76563.71876-1.32812 1.53126-2.25zm6.9375 5.21875 1.10936-.09375q.125.8125.5625 1.21875.45314.40625 1.09377.40625.75 0 1.28123-.57812.53127-.57813.53127-1.51563 0-.90625-.51563-1.42187-.5-.53125-1.32814-.53125-.5 0-.92186.23437-.40624.23438-.64064.59375l-.98436-.125.82813-4.40625h4.28123v1h-3.4375l-.4531 2.3125q.7656-.54687 1.60937-.54687 1.125 0 1.89063.78125.78124.78125.78124 2.01562 0 1.15625-.67187 2.01563-.82813 1.03125-2.25 1.03125-1.17187 0-1.92187-.65625-.7344-.65625-.84376-1.73438zm10.375 2.25v-2.0625h-3.71874v-.96875l3.92187-5.5625h.85937v5.5625h1.15626v.96875h-1.15626v2.0625zm0-3.03125v-3.85937l-2.6875 3.85937zm9.17186 2.01563v1.01562h-5.6875q0-.375.125-.73437.21877-.57813.6875-1.14063.4844-.5625 1.39064-1.29687 1.40626-1.15625 1.89063-1.82813.5-.67187.5-1.26562 0-.625-.45313-1.04688-.45314-.4375-1.17187-.4375-.76563 0-1.21877.45313-.4531.45312-.46873 1.26562l-1.07813-.10937q.10936-1.21875.82813-1.84375.73437-.64063 1.96873-.64063 1.2344 0 1.95314.6875.71876.6875.71876 1.70313 0 .51562-.21876 1.01562-.20314.48438-.70314 1.04688-.48436.54687-1.60936 1.5-.95314.79687-1.23437 1.09375-.26563.28125-.4375.5625z" stroke="#fff" stroke-linecap="round" stroke-linejoin="round" stroke-width="3"/>
  <path d="m922.9665 144.87921h-1.0469v-6.71875q-.3906.35938-1.0156.73438-.6094.35937-1.09376.53125v-1.01563q.875-.42187 1.53126-1 .67187-.59375.9531-1.15625h.6719zm3.03124-4.23437q0-1.53125.3125-2.45313.3125-.9375.92186-1.4375.625-.5 1.5625-.5.6875 0 1.20314.28125.53126.28125.875.8125.34376.51563.53126 1.26563.1875.75.1875 2.03125 0 1.51562-.3125 2.4375-.2969.92187-.9219 1.4375-.60936.5-1.5625.5-1.23436 0-1.9531-.89063-.84376-1.0625-.84376-3.48437zm1.07813 0q0 2.10937.5 2.8125.5.70312 1.21873.70312.7344 0 1.21877-.70312.5-.70313.5-2.8125 0-2.125-.5-2.8125-.48437-.70313-1.23437-.70313-.71876 0-1.15626.60938-.54687.78125-.54687 2.90625zm6.48437 4.23437v-1.20312h1.20313v1.20312q0 .65625-.23437 1.0625-.2344.42188-.7344.64063l-.29686-.45313q.32813-.14062.48436-.4375.15627-.28125.1875-.8125zm6.40626 0h-1.0469v-6.71875q-.3906.35938-1.0156.73438-.6094.35937-1.09376.53125v-1.01563q.875-.42187 1.53126-1 .67187-.59375.9531-1.15625h.6719zm8.5-6.48437-1.0469.07812q-.1406-.625-.3906-.90625-.4375-.45312-1.0625-.45312-.5 0-.89063.28125-.48437.375-.78127 1.07812-.28123.6875-.29686 1.96875.375-.57812.92186-.85937.5625-.28125 1.1719-.28125 1.04687 0 1.78124.78125.75.78125.75 2 0 .8125-.35937 1.51562-.34377.6875-.95313 1.0625-.60937.35938-1.375.35938-1.32814 0-2.15624-.96875-.82813-.96875-.82813-3.1875 0-2.5.92187-3.625.79686-.98438 2.15626-.98438 1.0156 0 1.65624.57813.65626.5625.78126 1.5625zm-4.2969 3.70312q0 .54688.21877 1.04688.23437.48437.64063.75.42187.26562.8906.26562.65627 0 1.14064-.53125.48436-.54687.48436-1.46875 0-.89062-.48436-1.40625-.46874-.51562-1.1875-.51562-.71874 0-1.21874.51562-.4844.51563-.4844 1.34375zm9.7969 2.78125h-1.0469v-6.71875q-.3906.35938-1.0156.73438-.6094.35937-1.09376.53125v-1.01563q.875-.42187 1.53126-1 .67187-.59375.9531-1.15625h.6719zm7 0h-1.0469v-6.71875q-.3906.35938-1.0156.73438-.6094.35937-1.09376.53125v-1.01563q.875-.42187 1.53126-1 .67187-.59375.9531-1.15625h.6719zm3.09374-7.46875v-1.01562h5.5625v.82812q-.8125.875-1.625 2.32813-.79687 1.4375-1.23437 2.96875-.32813 1.07812-.40627 2.35937h-1.09373q.01563-1.01562.39063-2.45312.3906-1.4375 1.09374-2.76563.71876-1.32812 1.53126-2.25zm6.9375 5.21875 1.10936-.09375q.125.8125.5625 1.21875.45314.40625 1.09377.40625.75 0 1.28123-.57812.53127-.57813.53127-1.51563 0-.90625-.51563-1.42187-.5-.53125-1.32814-.53125-.5 0-.92186.23437-.40624.23438-.64064.59375l-.98436-.125.82813-4.40625h4.28123v1h-3.4375l-.4531 2.3125q.7656-.54687 1.60937-.54687 1.125 0 1.89063.78125.78124.78125.78124 2.01562 0 1.15625-.67187 2.01563-.82813 1.03125-2.25 1.03125-1.17187 0-1.92187-.65625-.7344-.65625-.84376-1.73438zm10.375 2.25v-2.0625h-3.71874v-.96875l3.92187-5.5625h.85937v5.5625h1.15626v.96875h-1.15626v2.0625zm0-3.03125v-3.85937l-2.6875 3.85937zm9.17186 2.01563v1.01562h-5.6875q0-.375.125-.73437.21877-.57813.6875-1.14063.4844-.5625 1.39064-1.29687 1.40626-1.15625 1.89063-1.82813.5-.67187.5-1.26562 0-.625-.45313-1.04688-.45314-.4375-1.17187-.4375-.76563 0-1.21877.45313-.4531.45312-.46873 1.26562l-1.07813-.10937q.10936-1.21875.82813-1.84375.73437-.64063 1.96873-.64063 1.2344 0 1.95314.6875.71876.6875.71876 1.70313 0 .51562-.21876 1.01562-.20314.48438-.70314 1.04688-.48436.54687-1.60936 1.5-.95314.79687-1.23437 1.09375-.26563.28125-.4375.5625z" fill="#ea4335"/>
  <g fill="#000">
    <path d="m559.1094 642.05v-7.57814h-2.82815v-1.01562h6.8125v1.01562h-2.84375v7.57814zm4.6875 0v-8.59376h1.04685v3.07812q.73435-.84376 1.85935-.84376.70315 0 1.20315.28126.51565.26564.73435.75.2188.46874.2188 1.39064v3.9375h-1.0469v-3.9375q0-.7969-.34375-1.15626-.34375-.35938-.96875-.35938-.46875 0-.8906.25-.4063.23438-.5938.65624-.17185.40626-.17185 1.14064v3.40626zm6.98435 0v-6.21876h.95315v.9375q.35935-.65624.6562-.85938.3125-.21876.6875-.21876.5313 0 1.07815.32814l-.35935.98436q-.39065-.23436-.76565-.23436-.35935 0-.64065.21876-.2656.2031-.375.5781-.1875.5625-.1875 1.21876v3.26564zm8.26565-2 1.0937.125q-.25.9531-.9531 1.48436-.7031.53124-1.78125.53124-1.35935 0-2.17185-.84374-.7969-.84376-.7969-2.35936 0-1.5625.8125-2.4219.8125-.875 2.09375-.875 1.25 0 2.03125.84376.7969.84374.7969 2.39064 0 .09374 0 .28124h-4.64065q.0625 1.03126.57815 1.57812.5156.53124 1.29685.53124.57815 0 .98435-.29686.4219-.3125.6563-.96874zm-3.45315-1.70314h3.46875q-.0625-.79686-.3906-1.1875-.51565-.60936-1.3125-.60936-.7344 0-1.2344.48436-.4844.48438-.53125 1.3125zm10.26565 2.9375q-.5938.5-1.14065.70314-.53125.2031-1.15625.2031-1.03125 0-1.5781-.5-.5469-.5-.5469-1.28124 0-.45312.2031-.82812.20315-.39064.5469-.60938.34375-.23436.7656-.34376.2969-.09374.9375-.17186 1.26565-.14064 1.875-.35938 0-.21876 0-.26562 0-.65624-.29685-.92188-.40625-.34376-1.20315-.34376-.73435 0-1.0937.26564-.3594.25-.5313.90626l-1.0312-.14064q.1406-.65626.4687-1.0625.32815-.40626.9375-.625.6094-.21876 1.4063-.21876.79685 0 1.29685.1875.5.1875.73435.46876.2344.28124.32815.71874.04685.26564.04685.96876v1.40624q0 1.46876.0625 1.8594.07815.3906.2813.75h-1.1094q-.15625-.32814-.2031-.76564zm-.0938-2.35936q-.5781.23436-1.7187.40624-.6563.09376-.9219.21876-.2656.10936-.4219.3281-.1406.21876-.1406.5 0 .4219.3125.70314.3281.28126.9375.28126.6094 0 1.0781-.26564.4844-.26562.70315-.73436.17185-.3594.17185-1.0469zm7.0625 3.125v-.78126q-.5937.92186-1.73435.92186-.75 0-1.375-.40624-.625-.42186-.96875-1.15626-.34375-.73436-.34375-1.6875 0-.92186.3125-1.6875.3125-.7656.9375-1.15624.625-.40626 1.39065-.40626.5625 0 1 .2344.4375.23436.7187.60936v-3.07812h1.0469v8.59376zm-3.3281-3.1094q0 1.20314.5 1.7969.5.5781 1.1875.5781.6875 0 1.1719-.5625.48435-.5625.48435-1.71874 0-1.28126-.5-1.875-.48435-.59376-1.20315-.59376-.7031 0-1.17185.57814-.46875.5625-.46875 1.79686zm5.875 1.25 1.03125-.15624q.09375.625.48435.95314.4063.3281 1.14065.3281.71875 0 1.0625-.28124.35935-.29686.35935-.70312 0-.35938-.3125-.5625-.2187-.14064-1.0781-.35938-1.15625-.29686-1.6094-.5-.4375-.21876-.67185-.59376-.23435-.375-.23435-.84374 0-.40626.1875-.76562.1875-.35938.5156-.59374.25-.1719.6719-.2969.42185-.125.92185-.125.71875 0 1.26565.21876.5625.20314.8281.5625.2656.35938.3594.95314l-1.0313.1406q-.0625-.46874-.4062-.73436-.32815-.28124-.95315-.28124-.71875 0-1.03125.25-.3125.23436-.3125.5625 0 .2031.125.35936.1406.17188.40625.28124.15625.0625.9375.26564 1.125.3125 1.5625.5.4375.1875.6875.54686.25.3594.25.90626 0 .53124-.3125 1-.29685.45314-.875.71874-.57815.25-1.3125.25-1.21875 0-1.85935-.5-.625-.5156-.7969-1.5z"/>
    <path d="m42.184364 366.2698-.09375-1.0625q.65625-.07812 1.0625-.35937.40625-.28125.671876-.85937.25-.59376.25-1.32813 0-.64063-.1875-1.14063-.203126-.5-.53125-.73437-.34375-.25-.734376-.25-.40625 0-.703124.23437-.3125.23438-.515626.76563-.140624.35937-.421874 1.54687-.28125 1.17188-.53125 1.64063-.328126.625-.796876.92187-.484374.29688-1.078124.29688-.640626 0-1.203126-.35938-.578124-.375-.859374-1.07812-.296876-.71875-.296876-1.57812 0-.95313.3125-1.6875.296876-.73438.90625-1.125.59375-.39063 1.34375-.42188l.078126 1.09375q-.8125.09375-1.21875.60937-.421876.5-.421876 1.48438 0 1.03125.375 1.5.375.46875.90625.46875.46875 0 .765626-.32813.296874-.32812.609374-1.70312.3125-1.39062.546876-1.90625.359374-.75.890624-1.10937.515626-.35938 1.21875-.35938.6875 0 1.296876.39062.59375.39063.9375 1.125.328124.73438.328124 1.65626 0 1.17187-.328124 1.96874-.34375.78126-1.03125 1.23438-.6875.4375-1.546876.45312zm5.15625-8.25h-8.609374v-.95312h.796874q-.46875-.34375-.703124-.76562-.234376-.4375-.234376-1.04688 0-.79688.40625-1.40625.40625-.60937 1.15625-.90625.75-.3125 1.640626-.3125.953124 0 1.71875.34375.765624.32813 1.171874.98437.40625.65626.40625 1.375 0 .53126-.21875.95313-.234374.42187-.5625.6875h3.03125zm-5.46875-.95312q1.203126 0 1.78125-.48438.5625-.48437.5625-1.17187 0-.70313-.59375-1.20313-.59375-.5-1.84375-.5-1.1875 0-1.765624.48438-.59375.48438-.59375 1.17188 0 .67187.625 1.1875.625.51562 1.828124.51562zm1.078126-10.29688.125-1.09374q.953124.25 1.484374.95312.53125.70312.53125 1.78125 0 1.35937-.84375 2.17187-.84375.79688-2.359374.79688-1.5625 0-2.421876-.8125-.875-.8125-.875-2.09375 0-1.25.84375-2.03125.84375-.79688 2.390626-.79688.09375 0 .28125 0v4.64063q1.03125-.0625 1.578124-.57813.53125-.51562.53125-1.29687 0-.57813-.296874-.98437-.3125-.42188-.96875-.65626zm-1.703126 3.45313v-3.46875q-.796874.0625-1.1875.39062-.609374.51563-.609374 1.3125 0 .73438.484374 1.23438.484376.48438 1.3125.53125zm1.703126-10.45313.125-1.09374q.953124.25 1.484374.95312.53125.70312.53125 1.78125 0 1.35937-.84375 2.17187-.84375.79688-2.359374.79688-1.5625 0-2.421876-.8125-.875-.8125-.875-2.09375 0-1.25.84375-2.03125.84375-.79688 2.390626-.79688.09375 0 .28125 0v4.64063q1.03125-.0625 1.578124-.57813.53125-.51562.53125-1.29687 0-.57813-.296874-.98437-.3125-.42188-.96875-.65626zm-1.703126 3.45313v-3.46875q-.796874.0625-1.1875.39062-.609374.51563-.609374 1.3125 0 .73438.484374 1.23438.484376.48438 1.3125.53125zm3.703126-10.23437h-.78125q.921874.59374.921874 1.73437 0 .75-.40625 1.375-.421874.625-1.15625.96875-.734374.34375-1.6875.34375-.921874 0-1.6875-.3125-.765624-.3125-1.15625-.9375-.40625-.625-.40625-1.39063 0-.5625.234376-1 .234374-.4375.609374-.71874h-3.078124v-1.04688h8.59375zm-3.109376 3.32812q1.203126 0 1.796876-.5.578124-.5.578124-1.1875 0-.6875-.5625-1.17188-.5625-.48437-1.71875-.48437-1.28125 0-1.875.5-.59375.48437-.59375 1.20313 0 .70312.578126 1.17187.5625.46875 1.796874.46875zm3.109376-10.375h-.921876q1.0625.73438 1.0625 1.98438 0 .54687-.203124 1.03124-.21875.46876-.53125.70313-.328126.23437-.796876.32813-.296874.0625-.984374.0625h-3.84375v-1.0625h3.453124q.8125 0 1.109376-.0625.40625-.09376.65625-.40626.234374-.32812.234374-.8125 0-.46874-.234374-.875-.25-.42187-.671876-.59374-.421874-.1875-1.21875-.1875h-3.328124v-1.04688h6.21875zm2.390624-2.92188h-8.609374v-.95312h.796874q-.46875-.34375-.703124-.76562-.234376-.4375-.234376-1.04688 0-.79688.40625-1.40625.40625-.60937 1.15625-.90625.75-.3125 1.640626-.3125.953124 0 1.71875.34375.765624.32813 1.171874.98437.40625.65626.40625 1.375 0 .53126-.21875.95313-.234374.42187-.5625.6875h3.03125zm-5.46875-.95312q1.203126 0 1.78125-.48438.5625-.48437.5625-1.17187 0-.70313-.59375-1.20313-.59375-.5-1.84375-.5-1.1875 0-1.765624.48438-.59375.48438-.59375 1.17188 0 .67187.625 1.1875.625.51562 1.828124.51562z"/>
    <path d="m80.45 592.8156q0-1.53124.3125-2.4531.3125-.9375.92187-1.4375.625-.5 1.5625-.5.6875 0 1.20313.28124.53125.28126.875.8125.34375.51562.53125 1.26562.1875.75.1875 2.03124 0 1.51564-.3125 2.4375-.29688.9219-.92188 1.4375-.60937.5-1.5625.5-1.23437 0-1.95312-.8906-.84375-1.0625-.84375-3.4844zm1.07812 0q0 2.1094.5 2.8125.5.70314 1.21875.70314.73438 0 1.21875-.70314.5-.7031.5-2.8125 0-2.125-.5-2.8125-.48437-.7031-1.23437-.7031-.71875 0-1.15625.60936-.54688.78124-.54688 2.90624z"/>
    <path d="m85.99687 510.12326v1.01564h-5.6875q0-.375.125-.7344.21875-.5781.6875-1.1406.48438-.5625 1.39063-1.2969 1.40625-1.15624 1.89062-1.8281.5-.6719.5-1.26564 0-.625-.45312-1.04686-.45313-.4375-1.17188-.4375-.76562 0-1.21875.4531-.45312.45314-.46875 1.26564l-1.07812-.10938q.10937-1.21876.82812-1.84376.73438-.6406 1.96875-.6406 1.23438 0 1.95313.6875.71875.6875.71875 1.7031 0 .51564-.21875 1.01564-.20313.48436-.70313 1.04686-.48437.5469-1.60937 1.5-.95313.7969-1.23438 1.09376-.26562.28124-.4375.5625z"/>
    <path d="m83.825 425.22778v-2.0625h-3.71875v-.96875l3.92187-5.5625h.85938v5.5625h1.15625v.96875h-1.15625v2.0625zm0-3.03125v-3.85937l-2.6875 3.85937z"/>
    <path d="m85.91875 332.8323-1.04688.07813q-.14062-.625-.39062-.90625-.4375-.45312-1.0625-.45312-.5 0-.89063.28124-.48437.375-.78125 1.07813-.28125.6875-.29687 1.96875.375-.57812.92187-.85938.5625-.28124 1.17188-.28124 1.04687 0 1.78125.78124.75.78126.75 2 0 .8125-.35938 1.51563-.34375.6875-.95312 1.0625-.60938.35937-1.375.35937-1.32813 0-2.15625-.96874-.82813-.96876-.82813-3.1875 0-2.5.92188-3.625.79687-.98438 2.15625-.98438 1.01562 0 1.65625.57812.65625.5625.78125 1.5625zm-4.29688 3.70313q0 .54687.21875 1.04687.23438.48438.64063.75.42187.26563.89062.26563.65625 0 1.14063-.53125.48437-.54688.48437-1.46875 0-.89063-.48437-1.40625-.46875-.51562-1.1875-.51562-.71875 0-1.21875.51562-.48438.51562-.48438 1.34375z"/>
    <path d="m82.075 248.7493q-.65625-.25-.98438-.6875-.3125-.45313-.3125-1.0625 0-.9375.67188-1.57813.6875-.64062 1.79687-.64062 1.125 0 1.8125.65625.6875.65625.6875 1.59375 0 .59375-.3125 1.03125-.3125.4375-.95312.6875.79687.25 1.20312.82812.40625.57813.40625 1.375 0 1.09375-.78125 1.84375-.76562.75-2.04687.75-1.26563 0-2.04688-.75-.78125-.75-.78125-1.875 0-.84375.42188-1.40625.4375-.5625 1.21875-.76562zm-.21875-1.79688q0 .60938.39062 1 .40625.39063 1.03125.39063.60938 0 1-.375.39063-.39063.39063-.95313 0-.57812-.40625-.96875-.40625-.40625-1-.40625-.60938 0-1.01563.39063-.39062.39062-.39062.92187zm-.32813 3.96875q0 .45313.20313.875.21875.42188.64062.65625.42188.23438.90625.23438.75 0 1.23438-.48438.5-.48437.5-1.23437 0-.76563-.5-1.26563-.5-.5-1.26563-.5-.75 0-1.23437.5-.48438.48438-.48438 1.21875z"/>
    <path d="m77.41875 167.49445h-1.04688v-6.71875q-.39062.35937-1.01562.73437-.60938.35938-1.09375.53125v-1.01562q.875-.42188 1.53125-1 .67187-.59375.95312-1.15625h.67188zm3.03125-4.23438q0-1.53125.3125-2.45312.3125-.9375.92187-1.4375.625-.5 1.5625-.5.6875 0 1.20313.28125.53125.28125.875.8125.34375.51562.53125 1.26562.1875.75.1875 2.03125 0 1.51563-.3125 2.4375-.29688.92188-.92188 1.4375-.60937.5-1.5625.5-1.23437 0-1.95312-.89062-.84375-1.0625-.84375-3.48438zm1.07812 0q0 2.10938.5 2.8125.5.70313 1.21875.70313.73438 0 1.21875-.70313.5-.70312.5-2.8125 0-2.125-.5-2.8125-.48437-.70312-1.23437-.70312-.71875 0-1.15625.60937-.54688.78125-.54688 2.90625z"/>
    <path d="m77.41875 81.583336h-1.04688v-6.71875q-.39062.359374-1.01562.734374-.60938.359376-1.09375.53125v-1.015624q.875-.421876 1.53125-1 .67187-.59375.95312-1.15625h.67188zm8.57812-1.015626v1.015626h-5.6875q0-.375.125-.734376.21875-.578124.6875-1.140624.48438-.5625 1.39063-1.296876 1.40625-1.15625 1.89062-1.828124.5-.671876.5-1.265626 0-.625-.45312-1.046874-.45313-.4375-1.17188-.4375-.76562 0-1.21875.453124-.45312.453126-.46875 1.265626l-1.07812-.109376q.10937-1.21875.82812-1.84375.73438-.640624 1.96875-.640624 1.23438 0 1.95313.6875.71875.6875.71875 1.703124 0 .515626-.21875 1.015626-.20313.484374-.70313 1.046874-.48437.546876-1.60937 1.5-.95313.796876-1.23438 1.09375-.26562.28125-.4375.5625z"/>
    <path d="m191.02875 610.05h-1.04688v-6.71876q-.39062.35936-1.01562.73436-.60938.3594-1.09375.53126v-1.01562q.875-.42188 1.53125-1 .67187-.59374.95312-1.15624h.67188z"/>
    <path d="m386.82687 609.03436v1.01564h-5.6875q0-.375.125-.7344.21875-.5781.6875-1.1406.48438-.5625 1.39063-1.2969 1.40625-1.15624 1.89062-1.8281.5-.6719.5-1.26564 0-.625-.45312-1.04686-.45313-.4375-1.17188-.4375-.76562 0-1.21875.4531-.45312.45314-.46875 1.26564l-1.07812-.10938q.10937-1.21876.82812-1.84376.73438-.6406 1.96875-.6406 1.23438 0 1.95313.6875.71875.6875.71875 1.7031 0 .51564-.21875 1.01564-.20313.48436-.70313 1.04686-.48437.5469-1.60937 1.5-.95313.7969-1.23438 1.09376-.26562.28124-.4375.5625z"/>
    <path d="m578.875 610.05v-2.0625h-3.71875v-.96876l3.92185-5.5625h.8594v5.5625h1.15625v.96876h-1.15625v2.0625zm0-3.03126v-3.85938l-2.6875 3.85938z"/>
    <path d="m771.345 605.39374q-.6563-.25-.9844-.6875-.3125-.45314-.3125-1.0625 0-.9375.6719-1.57814.6875-.6406 1.79685-.6406 1.125 0 1.8125.65624.6875.65626.6875 1.59376 0 .59374-.3125 1.03124-.3125.4375-.95315.6875.7969.25 1.20315.82812.40625.57814.40625 1.375 0 1.09374-.78125 1.84374-.76565.75-2.04685.75-1.26565 0-2.0469-.75-.78125-.75-.78125-1.875 0-.84374.42185-1.40624.4375-.5625 1.2188-.76562zm-.2188-1.79688q0 .60938.39065 1 .40625.39064 1.03125.39064.6094 0 1-.375.3906-.39064.3906-.95314 0-.57812-.4062-.96876-.4063-.40624-1-.40624-.6094 0-1.01565.39064-.39065.3906-.39065.92186zm-.3281 3.96874q0 .45314.2031.875.2188.4219.64065.65626.42185.23438.90625.23438.75 0 1.2344-.48438.5-.48436.5-1.23436 0-.76564-.5-1.26564-.5-.5-1.26565-.5-.75 0-1.23435.5-.4844.48438-.4844 1.21874z"/>
    <path d="m964.40875 610.05h-1.04685v-6.71876q-.39065.35936-1.01565.73436-.60935.3594-1.09375.53126v-1.01562q.875-.42188 1.53125-1 .67185-.59374.95315-1.15624h.67185zm8.5-6.4844-1.04685.07814q-.14065-.625-.39065-.90624-.4375-.45314-1.0625-.45314-.5 0-.89065.28124-.48435.375-.7812 1.07814-.2813.6875-.2969 1.96876.375-.57814.9219-.8594.5625-.28124 1.17185-.28124 1.04685 0 1.78125.78124.75.78126.75 2 0 .8125-.3594 1.51564-.3437.6875-.9531 1.0625-.6094.35936-1.375.35936-1.3281 0-2.15625-.96874-.82815-.96876-.82815-3.1875 0-2.5.9219-3.625.7969-.98436 2.15625-.98436 1.01565 0 1.65625.5781.65625.5625.78125 1.5625zm-4.29685 3.70314q0 .54686.2187 1.04686.2344.4844.64065.75.42185.26564.89065.26564.6562 0 1.1406-.53124.4844-.5469.4844-1.46876 0-.89064-.4844-1.40624-.46875-.51564-1.1875-.51564-.71875 0-1.21875.51564-.48435.5156-.48435 1.34374z"/>
  </g>
  <path d="m466 40.95c0 3.31371-2.68628 6-6 6s-6-2.68629-6-6 2.68628-6 6-6 6 2.68629 6 6z" fill="#4285f4"/>
  <path d="m480.04688 43.934376v1.015624h-5.6875q0-.375.125-.734374.21874-.578126.6875-1.140626.48437-.5625 1.39062-1.296874 1.40625-1.15625 1.89062-1.828126.5-.671874.5-1.265624 0-.625-.45312-1.046876-.45312-.4375-1.17188-.4375-.76562 0-1.21874.453126-.45313.453124-.46876 1.265624l-1.07812-.109374q.10938-1.21875.82812-1.84375.73438-.640626 1.96876-.640626 1.23437 0 1.95312.6875.71875.6875.71875 1.703126 0 .515624-.21875 1.015624-.20312.484376-.70312 1.046876-.48438.546874-1.60938 1.5-.95312.796874-1.23438 1.09375-.26562.28125-.4375.5625zm1.45312-3.21875q0-1.53125.3125-2.453126.3125-.9375.92188-1.4375.625-.5 1.5625-.5.6875 0 1.20312.28125.53125.28125.875.8125.34375.515626.53125 1.265626.1875.75.1875 2.03125 0 1.515624-.3125 2.4375-.29687.921874-.92187 1.4375-.60938.5-1.5625.5-1.23438 0-1.95313-.890626-.84375-1.0625-.84375-3.484374zm1.07812 0q0 2.109374.5 2.8125.5.703124 1.21876.703124.73437 0 1.21874-.703124.5-.703126.5-2.8125 0-2.125-.5-2.8125-.48437-.703126-1.23437-.703126-.71875 0-1.15625.609376-.54688.78125-.54688 2.90625zm5.92188 0q0-1.53125.3125-2.453126.3125-.9375.92188-1.4375.625-.5 1.5625-.5.6875 0 1.20312.28125.53125.28125.875.8125.34375.515626.53125 1.265626.1875.75.1875 2.03125 0 1.515624-.3125 2.4375-.29687.921874-.92187 1.4375-.60938.5-1.5625.5-1.23438 0-1.95313-.890626-.84375-1.0625-.84375-3.484374zm1.07812 0q0 2.109374.5 2.8125.5.703124 1.21876.703124.73437 0 1.21874-.703124.5-.703126.5-2.8125 0-2.125-.5-2.8125-.48437-.703126-1.23437-.703126-.71875 0-1.15625.609376-.54688.78125-.54688 2.90625zm5.92188 0q0-1.53125.3125-2.453126.3125-.9375.92188-1.4375.625-.5 1.5625-.5.6875 0 1.20312.28125.53125.28125.875.8125.34375.515626.53125 1.265626.1875.75.1875 2.03125 0 1.515624-.3125 2.4375-.29687.921874-.92187 1.4375-.60938.5-1.5625.5-1.23438 0-1.95313-.890626-.84375-1.0625-.84375-3.484374zm1.07812 0q0 2.109374.5 2.8125.5.703124 1.21876.703124.73437 0 1.21874-.703124.5-.703126.5-2.8125 0-2.125-.5-2.8125-.48437-.703126-1.23437-.703126-.71875 0-1.15625.609376-.54688.78125-.54688 2.90625zm8.79688-2.78125.26562-.828126q.9375.328126 1.35938.5625-.10938-1.0625-.125-1.453124h.85938q-.01563.578124-.14063 1.453124.60937-.3125 1.39063-.5625l.26562.828126q-.75.25-1.45312.328124.34374.3125 1 1.109376l-.70313.5q-.34375-.46875-.79687-1.265626-.4375.828126-.76563 1.265626l-.6875-.5q.67187-.84375.96875-1.109376-.75-.140624-1.4375-.328124zm13.6719 6v1.015624h-5.6875q0-.375.125-.734374.2187-.578126.6875-1.140626.48435-.5625 1.3906-1.296874 1.40625-1.15625 1.8906-1.828126.5-.671874.5-1.265624 0-.625-.4531-1.046876-.4531-.4375-1.1719-.4375-.7656 0-1.2187.453126-.45315.453124-.4688 1.265624l-1.0781-.109374q.1094-1.21875.8281-1.84375.7344-.640626 1.9688-.640626 1.23435 0 1.9531.6875.71875.6875.71875 1.703126 0 .515624-.21875 1.015624-.2031.484376-.7031 1.046876-.4844.546874-1.6094 1.5-.9531.796874-1.2344 1.09375-.2656.28125-.4375.5625zm1.4531-3.21875q0-1.53125.3125-2.453126.3125-.9375.9219-1.4375.625-.5 1.5625-.5.6875 0 1.2031.28125.53125.28125.875.8125.34375.515626.53125 1.265626.1875.75.1875 2.03125 0 1.515624-.3125 2.4375-.29685.921874-.92185 1.4375-.6094.5-1.5625.5-1.2344 0-1.95315-.890626-.84375-1.0625-.84375-3.484374zm1.0781 0q0 2.109374.5 2.8125.5.703124 1.2188.703124.73435 0 1.2187-.703124.5-.703126.5-2.8125 0-2.125-.5-2.8125-.48435-.703126-1.23435-.703126-.71875 0-1.15625.609376-.5469.78125-.5469 2.90625zm5.9219 0q0-1.53125.3125-2.453126.3125-.9375.9219-1.4375.625-.5 1.5625-.5.6875 0 1.2031.28125.53125.28125.875.8125.34375.515626.53125 1.265626.1875.75.1875 2.03125 0 1.515624-.3125 2.4375-.29685.921874-.92185 1.4375-.6094.5-1.5625.5-1.2344 0-1.95315-.890626-.84375-1.0625-.84375-3.484374zm1.0781 0q0 2.109374.5 2.8125.5.703124 1.2188.703124.73435 0 1.2187-.703124.5-.703126.5-2.8125 0-2.125-.5-2.8125-.48435-.703126-1.23435-.703126-.71875 0-1.15625.609376-.5469.78125-.5469 2.90625zm5.9219 0q0-1.53125.3125-2.453126.3125-.9375.9219-1.4375.625-.5 1.5625-.5.6875 0 1.2031.28125.53125.28125.875.8125.34375.515626.53125 1.265626.1875.75.1875 2.03125 0 1.515624-.3125 2.4375-.29685.921874-.92185 1.4375-.6094.5-1.5625.5-1.2344 0-1.95315-.890626-.84375-1.0625-.84375-3.484374zm1.0781 0q0 2.109374.5 2.8125.5.703124 1.2188.703124.73435 0 1.2187-.703124.5-.703126.5-2.8125 0-2.125-.5-2.8125-.48435-.703126-1.23435-.703126-.71875 0-1.15625.609376-.5469.78125-.5469 2.90625z" fill="#1a1a1a"/>
  <path d="m569 40.95c0 3.31371-2.6863 6-6 6s-6-2.68629-6-6 2.6863-6 6-6 6 2.68629 6 6z" fill="#ea4335"/>
  <path d="m580.875 44.95v-2.0625h-3.71875v-.96875l3.92185-5.5625h.8594v5.5625h1.15625v.96875h-1.15625v2.0625zm0-3.03125v-3.859374l-2.6875 3.859374zm3.625-1.203124q0-1.53125.3125-2.453126.3125-.9375.9219-1.4375.625-.5 1.5625-.5.6875 0 1.2031.28125.53125.28125.875.8125.34375.515626.53125 1.265626.1875.75.1875 2.03125 0 1.515624-.3125 2.4375-.29685.921874-.92185 1.4375-.6094.5-1.5625.5-1.2344 0-1.95315-.890626-.84375-1.0625-.84375-3.484374zm1.0781 0q0 2.109374.5 2.8125.5.703124 1.2188.703124.73435 0 1.2187-.703124.5-.703126.5-2.8125 0-2.125-.5-2.8125-.48435-.703126-1.23435-.703126-.71875 0-1.15625.609376-.5469.78125-.5469 2.90625zm5.9219 0q0-1.53125.3125-2.453126.3125-.9375.9219-1.4375.625-.5 1.5625-.5.6875 0 1.2031.28125.53125.28125.875.8125.34375.515626.53125 1.265626.1875.75.1875 2.03125 0 1.515624-.3125 2.4375-.29685.921874-.92185 1.4375-.6094.5-1.5625.5-1.2344 0-1.95315-.890626-.84375-1.0625-.84375-3.484374zm1.0781 0q0 2.109374.5 2.8125.5.703124 1.2188.703124.73435 0 1.2187-.703124.5-.703126.5-2.8125 0-2.125-.5-2.8125-.48435-.703126-1.23435-.703126-.71875 0-1.15625.609376-.5469.78125-.5469 2.90625zm5.9219 0q0-1.53125.3125-2.453126.3125-.9375.9219-1.4375.625-.5 1.5625-.5.6875 0 1.2031.28125.53125.28125.875.8125.34375.515626.53125 1.265626.1875.75.1875 2.03125 0 1.515624-.3125 2.4375-.29685.921874-.92185 1.4375-.6094.5-1.5625.5-1.2344 0-1.95315-.890626-.84375-1.0625-.84375-3.484374zm1.0781 0q0 2.109374.5 2.8125.5.703124 1.2188.703124.73435 0 1.2187-.703124.5-.703126.5-2.8125 0-2.125-.5-2.8125-.48435-.703126-1.23435-.703126-.71875 0-1.15625.609376-.5469.78125-.5469 2.90625zm8.7969-2.78125.2656-.828126q.9375.328126 1.3594.5625-.1094-1.0625-.125-1.453124h.8594q-.01565.578124-.14065 1.453124.60935-.3125 1.39065-.5625l.2656.828126q-.75.25-1.4531.328124.3437.3125 1 1.109376l-.70315.5q-.34375-.46875-.79685-1.265626-.4375.828126-.76565 1.265626l-.6875-.5q.67185-.84375.96875-1.109376-.75-.140624-1.4375-.328124zm11.5 7.015624v-2.0625h-3.71875v-.96875l3.92185-5.5625h.8594v5.5625h1.15625v.96875h-1.15625v2.0625zm0-3.03125v-3.859374l-2.6875 3.859374zm3.625-1.203124q0-1.53125.3125-2.453126.3125-.9375.9219-1.4375.625-.5 1.5625-.5.6875 0 1.2031.28125.53125.28125.875.8125.34375.515626.53125 1.265626.1875.75.1875 2.03125 0 1.515624-.3125 2.4375-.29685.921874-.92185 1.4375-.6094.5-1.5625.5-1.2344 0-1.95315-.890626-.84375-1.0625-.84375-3.484374zm1.0781 0q0 2.109374.5 2.8125.5.703124 1.2188.703124.73435 0 1.2187-.703124.5-.703126.5-2.8125 0-2.125-.5-2.8125-.48435-.703126-1.23435-.703126-.71875 0-1.15625.609376-.5469.78125-.5469 2.90625zm5.9219 0q0-1.53125.3125-2.453126.3125-.9375.9219-1.4375.625-.5 1.5625-.5.6875 0 1.2031.28125.53125.28125.875.8125.34375.515626.53125 1.265626.1875.75.1875 2.03125 0 1.515624-.3125 2.4375-.29685.921874-.92185 1.4375-.6094.5-1.5625.5-1.2344 0-1.95315-.890626-.84375-1.0625-.84375-3.484374zm1.0781 0q0 2.109374.5 2.8125.5.703124 1.2188.703124.73435 0 1.2187-.703124.5-.703126.5-2.8125 0-2.125-.5-2.8125-.48435-.703126-1.23435-.703126-.71875 0-1.15625.609376-.5469.78125-.5469 2.90625zm5.9219 0q0-1.53125.3125-2.453126.3125-.9375.9219-1.4375.625-.5 1.5625-.5.6875 0 1.2031.28125.53125.28125.875.8125.34375.515626.53125 1.265626.1875.75.1875 2.03125 0 1.515624-.3125 2.4375-.29685.921874-.92185 1.4375-.6094.5-1.5625.5-1.2344 0-1.95315-.890626-.84375-1.0625-.84375-3.484374zm1.0781 0q0 2.109374.5 2.8125.5.703124 1.2188.703124.73435 0 1.2187-.703124.5-.703126.5-2.8125 0-2.125-.5-2.8125-.48435-.703126-1.23435-.703126-.71875 0-1.15625.609376-.5469.78125-.5469 2.90625z" fill="#1a1a1a"/>
</svg>
