<?xml version="1.0"?>
<svg xmlns="http://www.w3.org/2000/svg" xmlns:xlink="http://www.w3.org/1999/xlink" fill="none" stroke-linecap="square" stroke-miterlimit="10" viewBox="0 0 1098 679">
  <clipPath id="a">
    <path d="m92.95 77.583336h971.1v515.466664h-971.1z"/>
  </clipPath>
  <path d="m0 0h1098v679h-1098z" fill="#fff"/>
  <g stroke-linecap="butt">
    <path d="m92.5 593.5h972" stroke="#333"/>
    <g stroke="#ccc">
      <path d="m92.5 507.5h972"/>
      <path d="m92.5 421.5h972"/>
      <path d="m92.5 335.5h972"/>
      <path d="m92.5 249.5h972"/>
      <path d="m92.5 163.5h972"/>
      <path d="m92.5 77.5h972"/>
    </g>
    <g stroke="#eee">
      <path d="m190.06 566.0944v-16"/>
      <path d="m384.28 522.6224v-16.00002"/>
      <path d="m190.06 534.0944v16"/>
      <path d="m384.28 490.79422v16"/>
      <path d="m578.5 404.71127v16"/>
      <path d="m772.72 233.0619v16"/>
    </g>
    <g stroke-width="2">
      <path clip-path="url(#a)" d="m190.06 550.0944 194.22-43.47202 194.22-86.77468 194.22-171.81672 194.22-139.558255" stroke="#4285f4"/>
      <path clip-path="url(#a)" d="m190.06 550.0944 194.22-43.30018 194.22-86.08295 194.22-171.64937 194.22-141.87078" stroke="#ea4335"/>
    </g>
  </g>
  <g fill="#4285f4">
    <path clip-path="url(#a)" d="m196.06 550.0944c0 3.31374-2.6863 6-6 6-3.31371 0-6-2.68626-6-6 0-3.31364 2.68629-6 6-6 3.3137 0 6 2.68636 6 6z"/>
    <path clip-path="url(#a)" d="m390.28 506.62238c0 3.31372-2.68628 6.00002-6 6.00002s-6-2.6863-6-6.00002c0-3.31368 2.68628-6 6-6s6 2.68632 6 6z"/>
    <path clip-path="url(#a)" d="m584.5 419.8477c0 3.31368-2.6863 6-6 6s-6-2.68632-6-6c0-3.31373 2.6863-6 6-6s6 2.68627 6 6z"/>
    <path clip-path="url(#a)" d="m778.72 248.03098c0 3.3137-2.6863 6-6 6s-6-2.6863-6-6c0-3.31371 2.6863-6 6-6s6 2.68629 6 6z"/>
    <path clip-path="url(#a)" d="m972.94 108.472725c0 3.313705-2.6863 6-6 6s-6-2.686295-6-6c0-3.313715 2.6863-6 6-6s6 2.686285 6 6z"/>
  </g>
  <g fill="#ea4335">
    <path clip-path="url(#a)" d="m196.06 550.0944c0 3.31374-2.6863 6-6 6-3.31371 0-6-2.68626-6-6 0-3.31364 2.68629-6 6-6 3.3137 0 6 2.68636 6 6z"/>
    <path clip-path="url(#a)" d="m390.28 506.79422c0 3.31368-2.68628 5.99998-6 5.99998s-6-2.6863-6-5.99998c0-3.31372 2.68628-6 6-6s6 2.68628 6 6z"/>
    <path clip-path="url(#a)" d="m584.5 420.71127c0 3.31373-2.6863 6-6 6s-6-2.68627-6-6c0-3.31369 2.6863-6 6-6s6 2.68631 6 6z"/>
    <path clip-path="url(#a)" d="m778.72 249.0619c0 3.31373-2.6863 6-6 6s-6-2.68627-6-6c0-3.3137 2.6863-6 6-6s6 2.6863 6 6z"/>
    <path clip-path="url(#a)" d="m972.94 107.19112c0 3.31371-2.6863 6-6 6s-6-2.68629-6-6 2.6863-6 6-6 6 2.68629 6 6z"/>
  </g>
  <path d="m191.02875 579.0944h-1.04688v-6.7187q-.39062.35935-1.01562.73435-.60938.35935-1.09375.53125v-1.0156q.875-.4219 1.53125-1 .67187-.5938.95312-1.1563h.67188z" stroke="#fff" stroke-linecap="round" stroke-linejoin="round" stroke-width="3"/>
  <path d="m191.02875 579.0944h-1.04688v-6.7187q-.39062.35935-1.01562.73435-.60938.35935-1.09375.53125v-1.0156q.875-.4219 1.53125-1 .67187-.5938.95312-1.1563h.67188z" fill="#4285f4"/>
  <path d="m353.82687 534.60675v1.01565h-5.6875q0-.375.125-.7344.21875-.5781.6875-1.1406.48438-.5625 1.39063-1.2969 1.40625-1.15625 1.89062-1.8281.5-.6719.5-1.26565 0-.625-.45312-1.04685-.45313-.4375-1.17188-.4375-.76562 0-1.21875.4531-.45312.4531-.46875 1.2656l-1.07812-.10935q.10937-1.21875.82812-1.84375.73438-.6406 1.96875-.6406 1.23438 0 1.95313.6875.71875.6875.71875 1.7031 0 .5156-.21875 1.0156-.20313.4844-.70313 1.0469-.48437.5469-1.60937 1.5-.95313.7969-1.23438 1.09375-.26562.28125-.4375.5625zm2.01563 1.01565v-1.20315h1.20312v1.20315q0 .6562-.23437 1.0625-.23438.42185-.73438.6406l-.29687-.4531q.32812-.14065.48437-.4375.15625-.2813.1875-.8125zm2.4375-4.2344q0-1.53125.3125-2.4531.3125-.9375.92187-1.4375.625-.5 1.5625-.5.6875 0 1.20313.2812.53125.2813.875.8125.34375.51565.53125 1.26565.1875.75.1875 2.03125 0 1.5156-.3125 2.4375-.29688.9219-.92188 1.4375-.60937.5-1.5625.5-1.23437 0-1.95312-.8906-.84375-1.0625-.84375-3.4844zm1.07812 0q0 2.1094.5 2.8125.5.7031 1.21875.7031.73438 0 1.21875-.7031.5-.7031.5-2.8125 0-2.125-.5-2.8125-.48437-.7031-1.23437-.7031-.71875 0-1.15625.60935-.54688.78125-.54688 2.90625zm9.89063 4.2344h-1.04688v-6.7188q-.39062.3594-1.01562.7344-.60938.3594-1.09375.53125v-1.01565q.875-.42185 1.53125-1 .67187-.5937.95312-1.1562h.67188zm8.57812-1.01565v1.01565h-5.6875q0-.375.125-.7344.21875-.5781.6875-1.1406.48438-.5625 1.39063-1.2969 1.40625-1.15625 1.89062-1.8281.5-.6719.5-1.26565 0-.625-.45312-1.04685-.45313-.4375-1.17188-.4375-.76562 0-1.21875.4531-.45312.4531-.46875 1.2656l-1.07812-.10935q.10937-1.21875.82812-1.84375.73438-.6406 1.96875-.6406 1.23438 0 1.95313.6875.71875.6875.71875 1.7031 0 .5156-.21875 1.0156-.20313.4844-.70313 1.0469-.48437.5469-1.60937 1.5-.95313.7969-1.23438 1.09375-.26562.28125-.4375.5625zm1.45313-3.21875q0-1.53125.3125-2.4531.3125-.9375.92187-1.4375.625-.5 1.5625-.5.6875 0 1.20313.2812.53125.2813.875.8125.34375.51565.53125 1.26565.1875.75.1875 2.03125 0 1.5156-.3125 2.4375-.29688.9219-.92188 1.4375-.60937.5-1.5625.5-1.23437 0-1.95312-.8906-.84375-1.0625-.84375-3.4844zm1.07812 0q0 2.1094.5 2.8125.5.7031 1.21875.7031.73438 0 1.21875-.7031.5-.7031.5-2.8125 0-2.125-.5-2.8125-.48437-.7031-1.23437-.7031-.71875 0-1.15625.60935-.54688.78125-.54688 2.90625zm11.46875 3.21875v1.01565h-5.6875q0-.375.125-.7344.21875-.5781.6875-1.1406.48438-.5625 1.39063-1.2969 1.40625-1.15625 1.89062-1.8281.5-.6719.5-1.26565 0-.625-.45312-1.04685-.45313-.4375-1.17188-.4375-.76562 0-1.21875.4531-.45312.4531-.46875 1.2656l-1.07812-.10935q.10937-1.21875.82812-1.84375.73438-.6406 1.96875-.6406 1.23438 0 1.95313.6875.71875.6875.71875 1.7031 0 .5156-.21875 1.0156-.20313.4844-.70313 1.0469-.48437.5469-1.60937 1.5-.95313.7969-1.23438 1.09375-.26562.28125-.4375.5625zm4.82813 1.01565v-2.0625h-3.71875v-.9688l3.92187-5.5625h.85938v5.5625h1.15625v.9688h-1.15625v2.0625zm0-3.0313v-3.85935l-2.6875 3.85935zm3.625-1.2031q0-1.53125.3125-2.4531.3125-.9375.92187-1.4375.625-.5 1.5625-.5.6875 0 1.20313.2812.53125.2813.875.8125.34375.51565.53125 1.26565.1875.75.1875 2.03125 0 1.5156-.3125 2.4375-.29688.9219-.92188 1.4375-.60937.5-1.5625.5-1.23437 0-1.95312-.8906-.84375-1.0625-.84375-3.4844zm1.07812 0q0 2.1094.5 2.8125.5.7031 1.21875.7031.73438 0 1.21875-.7031.5-.7031.5-2.8125 0-2.125-.5-2.8125-.48437-.7031-1.23437-.7031-.71875 0-1.15625.60935-.54688.78125-.54688 2.90625zm9.29688 4.2344v-2.0625h-3.71875v-.9688l3.92187-5.5625h.85938v5.5625h1.15625v.9688h-1.15625v2.0625zm0-3.0313v-3.85935l-2.6875 3.85935zm5.25-1.625q-.65625-.25-.98438-.6875-.3125-.4531-.3125-1.0625 0-.9375.67188-1.5781.6875-.6406 1.79687-.6406 1.125 0 1.8125.6562.6875.6563.6875 1.5938 0 .5937-.3125 1.0312-.3125.4375-.95312.6875.79687.25 1.20312.82815.40625.57815.40625 1.375 0 1.09375-.78125 1.84375-.76562.75-2.04687.75-1.26563 0-2.04688-.75-.78125-.75-.78125-1.875 0-.84375.42188-1.40625.4375-.5625 1.21875-.76565zm-.21875-1.79685q0 .60935.39062 1 .40625.39065 1.03125.39065.60938 0 1-.375.39063-.39065.39063-.95315 0-.57815-.40625-.96875-.40625-.40625-1-.40625-.60938 0-1.01563.39065-.39062.3906-.39062.92185zm-.32813 3.96875q0 .4531.20313.875.21875.4219.64062.65625.42188.23435.90625.23435.75 0 1.23438-.48435.5-.48435.5-1.23435 0-.76565-.5-1.26565-.5-.5-1.26563-.5-.75 0-1.23437.5-.48438.48435-.48438 1.21875z" stroke="#fff" stroke-linecap="round" stroke-linejoin="round" stroke-width="3"/>
  <path d="m353.82687 534.60675v1.01565h-5.6875q0-.375.125-.7344.21875-.5781.6875-1.1406.48438-.5625 1.39063-1.2969 1.40625-1.15625 1.89062-1.8281.5-.6719.5-1.26565 0-.625-.45312-1.04685-.45313-.4375-1.17188-.4375-.76562 0-1.21875.4531-.45312.4531-.46875 1.2656l-1.07812-.10935q.10937-1.21875.82812-1.84375.73438-.6406 1.96875-.6406 1.23438 0 1.95313.6875.71875.6875.71875 1.7031 0 .5156-.21875 1.0156-.20313.4844-.70313 1.0469-.48437.5469-1.60937 1.5-.95313.7969-1.23438 1.09375-.26562.28125-.4375.5625zm2.01563 1.01565v-1.20315h1.20312v1.20315q0 .6562-.23437 1.0625-.23438.42185-.73438.6406l-.29687-.4531q.32812-.14065.48437-.4375.15625-.2813.1875-.8125zm2.4375-4.2344q0-1.53125.3125-2.4531.3125-.9375.92187-1.4375.625-.5 1.5625-.5.6875 0 1.20313.2812.53125.2813.875.8125.34375.51565.53125 1.26565.1875.75.1875 2.03125 0 1.5156-.3125 2.4375-.29688.9219-.92188 1.4375-.60937.5-1.5625.5-1.23437 0-1.95312-.8906-.84375-1.0625-.84375-3.4844zm1.07812 0q0 2.1094.5 2.8125.5.7031 1.21875.7031.73438 0 1.21875-.7031.5-.7031.5-2.8125 0-2.125-.5-2.8125-.48437-.7031-1.23437-.7031-.71875 0-1.15625.60935-.54688.78125-.54688 2.90625zm9.89063 4.2344h-1.04688v-6.7188q-.39062.3594-1.01562.7344-.60938.3594-1.09375.53125v-1.01565q.875-.42185 1.53125-1 .67187-.5937.95312-1.1562h.67188zm8.57812-1.01565v1.01565h-5.6875q0-.375.125-.7344.21875-.5781.6875-1.1406.48438-.5625 1.39063-1.2969 1.40625-1.15625 1.89062-1.8281.5-.6719.5-1.26565 0-.625-.45312-1.04685-.45313-.4375-1.17188-.4375-.76562 0-1.21875.4531-.45312.4531-.46875 1.2656l-1.07812-.10935q.10937-1.21875.82812-1.84375.73438-.6406 1.96875-.6406 1.23438 0 1.95313.6875.71875.6875.71875 1.7031 0 .5156-.21875 1.0156-.20313.4844-.70313 1.0469-.48437.5469-1.60937 1.5-.95313.7969-1.23438 1.09375-.26562.28125-.4375.5625zm1.45313-3.21875q0-1.53125.3125-2.4531.3125-.9375.92187-1.4375.625-.5 1.5625-.5.6875 0 1.20313.2812.53125.2813.875.8125.34375.51565.53125 1.26565.1875.75.1875 2.03125 0 1.5156-.3125 2.4375-.29688.9219-.92188 1.4375-.60937.5-1.5625.5-1.23437 0-1.95312-.8906-.84375-1.0625-.84375-3.4844zm1.07812 0q0 2.1094.5 2.8125.5.7031 1.21875.7031.73438 0 1.21875-.7031.5-.7031.5-2.8125 0-2.125-.5-2.8125-.48437-.7031-1.23437-.7031-.71875 0-1.15625.60935-.54688.78125-.54688 2.90625zm11.46875 3.21875v1.01565h-5.6875q0-.375.125-.7344.21875-.5781.6875-1.1406.48438-.5625 1.39063-1.2969 1.40625-1.15625 1.89062-1.8281.5-.6719.5-1.26565 0-.625-.45312-1.04685-.45313-.4375-1.17188-.4375-.76562 0-1.21875.4531-.45312.4531-.46875 1.2656l-1.07812-.10935q.10937-1.21875.82812-1.84375.73438-.6406 1.96875-.6406 1.23438 0 1.95313.6875.71875.6875.71875 1.7031 0 .5156-.21875 1.0156-.20313.4844-.70313 1.0469-.48437.5469-1.60937 1.5-.95313.7969-1.23438 1.09375-.26562.28125-.4375.5625zm4.82813 1.01565v-2.0625h-3.71875v-.9688l3.92187-5.5625h.85938v5.5625h1.15625v.9688h-1.15625v2.0625zm0-3.0313v-3.85935l-2.6875 3.85935zm3.625-1.2031q0-1.53125.3125-2.4531.3125-.9375.92187-1.4375.625-.5 1.5625-.5.6875 0 1.20313.2812.53125.2813.875.8125.34375.51565.53125 1.26565.1875.75.1875 2.03125 0 1.5156-.3125 2.4375-.29688.9219-.92188 1.4375-.60937.5-1.5625.5-1.23437 0-1.95312-.8906-.84375-1.0625-.84375-3.4844zm1.07812 0q0 2.1094.5 2.8125.5.7031 1.21875.7031.73438 0 1.21875-.7031.5-.7031.5-2.8125 0-2.125-.5-2.8125-.48437-.7031-1.23437-.7031-.71875 0-1.15625.60935-.54688.78125-.54688 2.90625zm9.29688 4.2344v-2.0625h-3.71875v-.9688l3.92187-5.5625h.85938v5.5625h1.15625v.9688h-1.15625v2.0625zm0-3.0313v-3.85935l-2.6875 3.85935zm5.25-1.625q-.65625-.25-.98438-.6875-.3125-.4531-.3125-1.0625 0-.9375.67188-1.5781.6875-.6406 1.79687-.6406 1.125 0 1.8125.6562.6875.6563.6875 1.5938 0 .5937-.3125 1.0312-.3125.4375-.95312.6875.79687.25 1.20312.82815.40625.57815.40625 1.375 0 1.09375-.78125 1.84375-.76562.75-2.04687.75-1.26563 0-2.04688-.75-.78125-.75-.78125-1.875 0-.84375.42188-1.40625.4375-.5625 1.21875-.76565zm-.21875-1.79685q0 .60935.39062 1 .40625.39065 1.03125.39065.60938 0 1-.375.39063-.39065.39063-.95315 0-.57815-.40625-.96875-.40625-.40625-1-.40625-.60938 0-1.01563.39065-.39062.3906-.39062.92185zm-.32813 3.96875q0 .4531.20313.875.21875.4219.64062.65625.42188.23435.90625.23435.75 0 1.23438-.48435.5-.48435.5-1.23435 0-.76565-.5-1.26565-.5-.5-1.26563-.5-.75 0-1.23437.5-.48438.48435-.48438 1.21875z" fill="#4285f4"/>
  <path d="m560.40625 447.6199v-2.0625h-3.71875v-.96875l3.9219-5.5625h.85935v5.5625h1.15625v.96875h-1.15625v2.0625zm0-3.03125v-3.85937l-2.6875 3.85937zm4.1875 3.03125v-1.20312h1.20315v1.20312q0 .65625-.2344 1.0625-.2344.42188-.7344.64063l-.29685-.45313q.32815-.14062.48435-.4375.1563-.28125.1875-.8125zm2.4375-4.23437q0-1.53125.3125-2.45313.3125-.9375.92185-1.4375.625-.5 1.5625-.5.6875 0 1.20315.28125.53125.28125.875.8125.34375.51563.53125 1.26563.1875.75.1875 2.03125 0 1.51562-.3125 2.4375-.2969.92187-.9219 1.4375-.60935.5-1.5625.5-1.23435 0-1.9531-.89063-.84375-1.0625-.84375-3.48437zm1.07815 0q0 2.10937.5 2.8125.5.70312 1.2187.70312.7344 0 1.2188-.70312.5-.70313.5-2.8125 0-2.125-.5-2.8125-.4844-.70313-1.2344-.70313-.71875 0-1.15625.60938-.54685.78125-.54685 2.90625zm5.92185 1.96875 1.0625-.14063q.17185.89063.60935 1.29688.4375.39062 1.0625.39062.75 0 1.26565-.51562.51565-.51563.51565-1.28125 0-.71875-.4844-1.1875-.46875-.48438-1.2031-.48438-.2969 0-.75.125l.125-.9375q.10935.01563.17185.01563.67185 0 1.20315-.34375.54685-.35938.54685-1.09375 0-.57813-.39065-.95313-.3906-.39062-1.0156-.39062-.6094 0-1.03125.39062-.40625.39063-.51565 1.15625l-1.0625-.1875q.1875-1.04687.875-1.625.6875-.59375 1.70315-.59375.70315 0 1.29685.3125.5938.29688.9063.8125.3125.51563.3125 1.10938 0 .54687-.2969 1.01562-.2969.45313-.875.71875.75.17188 1.1719.73438.42185.54687.42185 1.39062 0 1.125-.82815 1.90625-.8125.78125-2.0625.78125-1.125 0-1.875-.67187-.75-.6875-.85935-1.75zm12.54685 1.25v1.01562h-5.6875q0-.375.125-.73437.2188-.57813.6875-1.14063.4844-.5625 1.39065-1.29687 1.40625-1.15625 1.89065-1.82813.5-.67187.5-1.26562 0-.625-.45315-1.04688-.45315-.4375-1.17185-.4375-.76565 0-1.2188.45313-.4531.45312-.4687 1.26562l-1.07815-.10937q.10935-1.21875.82815-1.84375.73435-.64063 1.9687-.64063 1.2344 0 1.95315.6875.71875.6875.71875 1.70313 0 .51562-.21875 1.01562-.20315.48438-.70315 1.04688-.48435.54687-1.60935 1.5-.95315.79687-1.23435 1.09375-.26565.28125-.4375.5625zm5.4219 1.01562h-1.0469v-6.71875q-.3906.35938-1.0156.73438-.6094.35937-1.09375.53125v-1.01563q.875-.42187 1.53125-1 .6719-.59375.9531-1.15625h.6719zm8.5781-1.01562v1.01562h-5.6875q0-.375.125-.73437.2188-.57813.6875-1.14063.4844-.5625 1.39065-1.29687 1.40625-1.15625 1.89065-1.82813.5-.67187.5-1.26562 0-.625-.45315-1.04688-.45315-.4375-1.17185-.4375-.76565 0-1.2188.45313-.4531.45312-.4687 1.26562l-1.07815-.10937q.10935-1.21875.82815-1.84375.73435-.64063 1.9687-.64063 1.2344 0 1.95315.6875.71875.6875.71875 1.70313 0 .51562-.21875 1.01562-.20315.48438-.70315 1.04688-.48435.54687-1.60935 1.5-.95315.79687-1.23435 1.09375-.26565.28125-.4375.5625zm3.07815-3.64063q-.65625-.25-.98435-.6875-.3125-.45312-.3125-1.0625 0-.9375.67185-1.57812.6875-.64063 1.79685-.64063 1.125 0 1.8125.65625.6875.65625.6875 1.59375 0 .59375-.3125 1.03125-.3125.4375-.9531.6875.7969.25 1.2031.82813.4063.57812.4063 1.375 0 1.09375-.7813 1.84375-.7656.75-2.04685.75-1.26565 0-2.04685-.75-.7813-.75-.7813-1.875 0-.84375.4219-1.40625.4375-.5625 1.21875-.76563zm-.21875-1.79687q0 .60937.3906 1 .4063.39062 1.0313.39062.60935 0 1-.375.3906-.39062.3906-.95312 0-.57813-.40625-.96875-.40625-.40625-1-.40625-.60935 0-1.01565.39062-.3906.39063-.3906.92188zm-.3281 3.96875q0 .45312.2031.875.21875.42187.6406.65625.4219.23437.9063.23437.75 0 1.23435-.48437.5-.48438.5-1.23438 0-.76562-.5-1.26562-.5-.5-1.26565-.5-.75 0-1.23435.5-.48435.48437-.48435 1.21875zm5.92185.23437 1.10935-.09375q.125.8125.5625 1.21875.45315.40625 1.0938.40625.75 0 1.2812-.57812.5313-.57813.5313-1.51563 0-.90625-.51565-1.42187-.5-.53125-1.32815-.53125-.5 0-.92185.23437-.40625.23438-.64065.59375l-.98435-.125.82815-4.40625h4.2812v1h-3.4375l-.4531 2.3125q.7656-.54687 1.6094-.54687 1.125 0 1.8906.78125.78125.78125.78125 2.01562 0 1.15625-.67185 2.01563-.82815 1.03125-2.25 1.03125-1.1719 0-1.9219-.65625-.7344-.65625-.84375-1.73438zm10.96875 2.25h-1.0469v-6.71875q-.3906.35938-1.0156.73438-.6094.35937-1.09375.53125v-1.01563q.875-.42187 1.53125-1 .6719-.59375.9531-1.15625h.6719zm6.40625 0v-2.0625h-3.71875v-.96875l3.9219-5.5625h.85935v5.5625h1.15625v.96875h-1.15625v2.0625zm0-3.03125v-3.85937l-2.6875 3.85937z" stroke="#fff" stroke-linecap="round" stroke-linejoin="round" stroke-width="3"/>
  <path d="m560.40625 447.6199v-2.0625h-3.71875v-.96875l3.9219-5.5625h.85935v5.5625h1.15625v.96875h-1.15625v2.0625zm0-3.03125v-3.85937l-2.6875 3.85937zm4.1875 3.03125v-1.20312h1.20315v1.20312q0 .65625-.2344 1.0625-.2344.42188-.7344.64063l-.29685-.45313q.32815-.14062.48435-.4375.1563-.28125.1875-.8125zm2.4375-4.23437q0-1.53125.3125-2.45313.3125-.9375.92185-1.4375.625-.5 1.5625-.5.6875 0 1.20315.28125.53125.28125.875.8125.34375.51563.53125 1.26563.1875.75.1875 2.03125 0 1.51562-.3125 2.4375-.2969.92187-.9219 1.4375-.60935.5-1.5625.5-1.23435 0-1.9531-.89063-.84375-1.0625-.84375-3.48437zm1.07815 0q0 2.10937.5 2.8125.5.70312 1.2187.70312.7344 0 1.2188-.70312.5-.70313.5-2.8125 0-2.125-.5-2.8125-.4844-.70313-1.2344-.70313-.71875 0-1.15625.60938-.54685.78125-.54685 2.90625zm5.92185 1.96875 1.0625-.14063q.17185.89063.60935 1.29688.4375.39062 1.0625.39062.75 0 1.26565-.51562.51565-.51563.51565-1.28125 0-.71875-.4844-1.1875-.46875-.48438-1.2031-.48438-.2969 0-.75.125l.125-.9375q.10935.01563.17185.01563.67185 0 1.20315-.34375.54685-.35938.54685-1.09375 0-.57813-.39065-.95313-.3906-.39062-1.0156-.39062-.6094 0-1.03125.39062-.40625.39063-.51565 1.15625l-1.0625-.1875q.1875-1.04687.875-1.625.6875-.59375 1.70315-.59375.70315 0 1.29685.3125.5938.29688.9063.8125.3125.51563.3125 1.10938 0 .54687-.2969 1.01562-.2969.45313-.875.71875.75.17188 1.1719.73438.42185.54687.42185 1.39062 0 1.125-.82815 1.90625-.8125.78125-2.0625.78125-1.125 0-1.875-.67187-.75-.6875-.85935-1.75zm12.54685 1.25v1.01562h-5.6875q0-.375.125-.73437.2188-.57813.6875-1.14063.4844-.5625 1.39065-1.29687 1.40625-1.15625 1.89065-1.82813.5-.67187.5-1.26562 0-.625-.45315-1.04688-.45315-.4375-1.17185-.4375-.76565 0-1.2188.45313-.4531.45312-.4687 1.26562l-1.07815-.10937q.10935-1.21875.82815-1.84375.73435-.64063 1.9687-.64063 1.2344 0 1.95315.6875.71875.6875.71875 1.70313 0 .51562-.21875 1.01562-.20315.48438-.70315 1.04688-.48435.54687-1.60935 1.5-.95315.79687-1.23435 1.09375-.26565.28125-.4375.5625zm5.4219 1.01562h-1.0469v-6.71875q-.3906.35938-1.0156.73438-.6094.35937-1.09375.53125v-1.01563q.875-.42187 1.53125-1 .6719-.59375.9531-1.15625h.6719zm8.5781-1.01562v1.01562h-5.6875q0-.375.125-.73437.2188-.57813.6875-1.14063.4844-.5625 1.39065-1.29687 1.40625-1.15625 1.89065-1.82813.5-.67187.5-1.26562 0-.625-.45315-1.04688-.45315-.4375-1.17185-.4375-.76565 0-1.2188.45313-.4531.45312-.4687 1.26562l-1.07815-.10937q.10935-1.21875.82815-1.84375.73435-.64063 1.9687-.64063 1.2344 0 1.95315.6875.71875.6875.71875 1.70313 0 .51562-.21875 1.01562-.20315.48438-.70315 1.04688-.48435.54687-1.60935 1.5-.95315.79687-1.23435 1.09375-.26565.28125-.4375.5625zm3.07815-3.64063q-.65625-.25-.98435-.6875-.3125-.45312-.3125-1.0625 0-.9375.67185-1.57812.6875-.64063 1.79685-.64063 1.125 0 1.8125.65625.6875.65625.6875 1.59375 0 .59375-.3125 1.03125-.3125.4375-.9531.6875.7969.25 1.2031.82813.4063.57812.4063 1.375 0 1.09375-.7813 1.84375-.7656.75-2.04685.75-1.26565 0-2.04685-.75-.7813-.75-.7813-1.875 0-.84375.4219-1.40625.4375-.5625 1.21875-.76563zm-.21875-1.79687q0 .60937.3906 1 .4063.39062 1.0313.39062.60935 0 1-.375.3906-.39062.3906-.95312 0-.57813-.40625-.96875-.40625-.40625-1-.40625-.60935 0-1.01565.39062-.3906.39063-.3906.92188zm-.3281 3.96875q0 .45312.2031.875.21875.42187.6406.65625.4219.23437.9063.23437.75 0 1.23435-.48437.5-.48438.5-1.23438 0-.76562-.5-1.26562-.5-.5-1.26565-.5-.75 0-1.23435.5-.48435.48437-.48435 1.21875zm5.92185.23437 1.10935-.09375q.125.8125.5625 1.21875.45315.40625 1.0938.40625.75 0 1.2812-.57812.5313-.57813.5313-1.51563 0-.90625-.51565-1.42187-.5-.53125-1.32815-.53125-.5 0-.92185.23437-.40625.23438-.64065.59375l-.98435-.125.82815-4.40625h4.2812v1h-3.4375l-.4531 2.3125q.7656-.54687 1.6094-.54687 1.125 0 1.8906.78125.78125.78125.78125 2.01562 0 1.15625-.67185 2.01563-.82815 1.03125-2.25 1.03125-1.1719 0-1.9219-.65625-.7344-.65625-.84375-1.73438zm10.96875 2.25h-1.0469v-6.71875q-.3906.35938-1.0156.73438-.6094.35937-1.09375.53125v-1.01563q.875-.42187 1.53125-1 .6719-.59375.9531-1.15625h.6719zm6.40625 0v-2.0625h-3.71875v-.96875l3.9219-5.5625h.85935v5.5625h1.15625v.96875h-1.15625v2.0625zm0-3.03125v-3.85937l-2.6875 3.85937z" fill="#4285f4"/>
  <path d="m770.84265 272.13358q-.65625-.25-.98435-.6875-.3125-.45313-.3125-1.0625 0-.9375.67185-1.57813.6875-.64062 1.79685-.64062 1.125 0 1.8125.65625.6875.65625.6875 1.59375 0 .59375-.3125 1.03125-.3125.4375-.9531.6875.7969.25 1.2031.82812.4063.57813.4063 1.375 0 1.09375-.7813 1.84375-.7656.75-2.04685.75-1.26565 0-2.04685-.75-.7813-.75-.7813-1.875 0-.84375.4219-1.40625.4375-.5625 1.21875-.76562zm-.21875-1.79688q0 .60938.3906 1 .4063.39063 1.0313.39063.60935 0 1-.375.3906-.39063.3906-.95313 0-.57812-.40625-.96875-.40625-.40625-1-.40625-.60935 0-1.01565.39063-.3906.39062-.3906.92187zm-.3281 3.96875q0 .45313.2031.875.21875.42188.6406.65625.4219.23438.9063.23438.75 0 1.23435-.48438.5-.48437.5-1.23437 0-.76563-.5-1.26563-.5-.5-1.26565-.5-.75 0-1.23435.5-.48435.48438-.48435 1.21875zm6.48435 2.48438v-1.20313h1.20315v1.20313q0 .65625-.2344 1.0625-.2344.42187-.7344.64062l-.29685-.45312q.32815-.14063.48435-.4375.1563-.28125.1875-.8125zm2.4375-4.23438q0-1.53125.3125-2.45312.3125-.9375.92185-1.4375.625-.5 1.5625-.5.6875 0 1.20315.28125.53125.28125.875.8125.34375.51562.53125 1.26562.1875.75.1875 2.03125 0 1.51563-.3125 2.4375-.2969.92188-.9219 1.4375-.60935.5-1.5625.5-1.23435 0-1.9531-.89062-.84375-1.0625-.84375-3.48438zm1.07815 0q0 2.10938.5 2.8125.5.70313 1.2187.70313.7344 0 1.2188-.70313.5-.70312.5-2.8125 0-2.125-.5-2.8125-.4844-.70312-1.2344-.70312-.71875 0-1.15625.60937-.54685.78125-.54685 2.90625zm5.92185 1.96875 1.0625-.14062q.17185.89062.60935 1.29687.4375.39063 1.0625.39063.75 0 1.26565-.51563.51565-.51562.51565-1.28125 0-.71875-.4844-1.1875-.46875-.48437-1.2031-.48437-.2969 0-.75.125l.125-.9375q.10935.01562.17185.01562.67185 0 1.20315-.34375.54685-.35937.54685-1.09375 0-.57812-.39065-.95312-.3906-.39063-1.0156-.39063-.6094 0-1.03125.39063-.40625.39062-.51565 1.15625l-1.0625-.1875q.1875-1.04688.875-1.625.6875-.59375 1.70315-.59375.70315 0 1.29685.3125.5938.29687.9063.8125.3125.51562.3125 1.10937 0 .54688-.2969 1.01563-.2969.45312-.875.71875.75.17187 1.1719.73437.42185.54688.42185 1.39063 0 1.125-.82815 1.90625-.8125.78125-2.0625.78125-1.125 0-1.875-.67188-.75-.6875-.85935-1.75zm12.54685 1.25v1.01563h-5.6875q0-.375.125-.73438.2188-.57812.6875-1.14062.4844-.5625 1.39065-1.29688 1.40625-1.15625 1.89065-1.82812.5-.67188.5-1.26563 0-.625-.45315-1.04687-.45315-.4375-1.17185-.4375-.76565 0-1.2188.45312-.4531.45313-.4687 1.26563l-1.07815-.10938q.10935-1.21875.82815-1.84375.73435-.64062 1.9687-.64062 1.2344 0 1.95315.6875.71875.6875.71875 1.70312 0 .51563-.21875 1.01563-.20315.48437-.70315 1.04687-.48435.54688-1.60935 1.5-.95315.79688-1.23435 1.09375-.26565.28125-.4375.5625z" stroke="#fff" stroke-linecap="round" stroke-linejoin="round" stroke-width="3"/>
  <path d="m770.84265 272.13358q-.65625-.25-.98435-.6875-.3125-.45313-.3125-1.0625 0-.9375.67185-1.57813.6875-.64062 1.79685-.64062 1.125 0 1.8125.65625.6875.65625.6875 1.59375 0 .59375-.3125 1.03125-.3125.4375-.9531.6875.7969.25 1.2031.82812.4063.57813.4063 1.375 0 1.09375-.7813 1.84375-.7656.75-2.04685.75-1.26565 0-2.04685-.75-.7813-.75-.7813-1.875 0-.84375.4219-1.40625.4375-.5625 1.21875-.76562zm-.21875-1.79688q0 .60938.3906 1 .4063.39063 1.0313.39063.60935 0 1-.375.3906-.39063.3906-.95313 0-.57812-.40625-.96875-.40625-.40625-1-.40625-.60935 0-1.01565.39063-.3906.39062-.3906.92187zm-.3281 3.96875q0 .45313.2031.875.21875.42188.6406.65625.4219.23438.9063.23438.75 0 1.23435-.48438.5-.48437.5-1.23437 0-.76563-.5-1.26563-.5-.5-1.26565-.5-.75 0-1.23435.5-.48435.48438-.48435 1.21875zm6.48435 2.48438v-1.20313h1.20315v1.20313q0 .65625-.2344 1.0625-.2344.42187-.7344.64062l-.29685-.45312q.32815-.14063.48435-.4375.1563-.28125.1875-.8125zm2.4375-4.23438q0-1.53125.3125-2.45312.3125-.9375.92185-1.4375.625-.5 1.5625-.5.6875 0 1.20315.28125.53125.28125.875.8125.34375.51562.53125 1.26562.1875.75.1875 2.03125 0 1.51563-.3125 2.4375-.2969.92188-.9219 1.4375-.60935.5-1.5625.5-1.23435 0-1.9531-.89062-.84375-1.0625-.84375-3.48438zm1.07815 0q0 2.10938.5 2.8125.5.70313 1.2187.70313.7344 0 1.2188-.70313.5-.70312.5-2.8125 0-2.125-.5-2.8125-.4844-.70312-1.2344-.70312-.71875 0-1.15625.60937-.54685.78125-.54685 2.90625zm5.92185 1.96875 1.0625-.14062q.17185.89062.60935 1.29687.4375.39063 1.0625.39063.75 0 1.26565-.51563.51565-.51562.51565-1.28125 0-.71875-.4844-1.1875-.46875-.48437-1.2031-.48437-.2969 0-.75.125l.125-.9375q.10935.01562.17185.01562.67185 0 1.20315-.34375.54685-.35937.54685-1.09375 0-.57812-.39065-.95312-.3906-.39063-1.0156-.39063-.6094 0-1.03125.39063-.40625.39062-.51565 1.15625l-1.0625-.1875q.1875-1.04688.875-1.625.6875-.59375 1.70315-.59375.70315 0 1.29685.3125.5938.29687.9063.8125.3125.51562.3125 1.10937 0 .54688-.2969 1.01563-.2969.45312-.875.71875.75.17187 1.1719.73437.42185.54688.42185 1.39063 0 1.125-.82815 1.90625-.8125.78125-2.0625.78125-1.125 0-1.875-.67188-.75-.6875-.85935-1.75zm12.54685 1.25v1.01563h-5.6875q0-.375.125-.73438.2188-.57812.6875-1.14062.4844-.5625 1.39065-1.29688 1.40625-1.15625 1.89065-1.82812.5-.67188.5-1.26563 0-.625-.45315-1.04687-.45315-.4375-1.17185-.4375-.76565 0-1.2188.45312-.4531.45313-.4687 1.26563l-1.07815-.10938q.10935-1.21875.82815-1.84375.73435-.64062 1.9687-.64062 1.2344 0 1.95315.6875.71875.6875.71875 1.70312 0 .51563-.21875 1.01563-.20315.48437-.70315 1.04687-.48435.54688-1.60935 1.5-.95315.79688-1.23435 1.09375-.26565.28125-.4375.5625z" fill="#4285f4"/>
  <path d="m966.832 137.23155h-1.0469v-6.71875q-.3906.35938-1.0156.73438-.6094.35937-1.0938.53125v-1.01563q.875-.42187 1.5313-1 .67185-.59375.9531-1.15625h.6719zm7 0h-1.0469v-6.71875q-.3906.35938-1.0156.73438-.6094.35937-1.0938.53125v-1.01563q.875-.42187 1.5313-1 .67185-.59375.9531-1.15625h.6719zm3.5937 0v-1.20312h1.20315v1.20312q0 .65625-.23435 1.0625-.2344.42188-.7344.64063l-.2969-.45313q.32815-.14062.4844-.4375.15625-.28125.1875-.8125zm7.9844-1.01562v1.01562h-5.6875q0-.375.125-.73437.21875-.57813.6875-1.14063.4844-.5625 1.3906-1.29687 1.4063-1.15625 1.89065-1.82813.5-.67187.5-1.26562 0-.625-.45315-1.04688-.4531-.4375-1.17185-.4375-.76565 0-1.21875.45313-.4531.45312-.46875 1.26562l-1.07815-.10937q.1094-1.21875.82815-1.84375.73435-.64063 1.96875-.64063 1.2344 0 1.9531.6875.7188.6875.7188 1.70313 0 .51562-.2188 1.01562-.2031.48438-.7031 1.04688-.4844.54687-1.6094 1.5-.9531.79687-1.23435 1.09375-.26565.28125-.4375.5625zm3.0781-3.64063q-.6562-.25-.98435-.6875-.3125-.45312-.3125-1.0625 0-.9375.67185-1.57812.6875-.64063 1.7969-.64063 1.125 0 1.8125.65625.6875.65625.6875 1.59375 0 .59375-.3125 1.03125-.3125.4375-.9531.6875.79685.25 1.2031.82813.40625.57812.40625 1.375 0 1.09375-.78125 1.84375-.7656.75-2.0469.75-1.2656 0-2.04685-.75-.78125-.75-.78125-1.875 0-.84375.4219-1.40625.4375-.5625 1.2187-.76563zm-.2187-1.79687q0 .60937.3906 1 .40625.39062 1.03125.39062.60935 0 1-.375.39065-.39062.39065-.95312 0-.57813-.4063-.96875-.4062-.40625-1-.40625-.60935 0-1.0156.39062-.3906.39063-.3906.92188zm-.32815 3.96875q0 .45312.20315.875.2187.42187.6406.65625.4219.23437.90625.23437.75 0 1.23435-.48437.5-.48438.5-1.23438 0-.76562-.5-1.26562-.5-.5-1.2656-.5-.75 0-1.2344.5-.48435.48437-.48435 1.21875zm5.92185-1.75q0-1.53125.3125-2.45313.3125-.9375.9219-1.4375.625-.5 1.5625-.5.6875 0 1.2031.28125.5313.28125.875.8125.3438.51563.5313 1.26563.1875.75.1875 2.03125 0 1.51562-.3125 2.4375-.2969.92187-.9219 1.4375-.6094.5-1.5625.5-1.2344 0-1.9531-.89063-.8438-1.0625-.8438-3.48437zm1.07815 0q0 2.10937.5 2.8125.5.70312 1.21875.70312.7344 0 1.21875-.70312.5-.70313.5-2.8125 0-2.125-.5-2.8125-.48435-.70313-1.23435-.70313-.7188 0-1.1563.60938-.54685.78125-.54685 2.90625zm7.54685-.42188q-.6562-.25-.98435-.6875-.3125-.45312-.3125-1.0625 0-.9375.67185-1.57812.6875-.64063 1.7969-.64063 1.125 0 1.8125.65625.6875.65625.6875 1.59375 0 .59375-.3125 1.03125-.3125.4375-.9531.6875.79685.25 1.2031.82813.40625.57812.40625 1.375 0 1.09375-.78125 1.84375-.7656.75-2.0469.75-1.2656 0-2.04685-.75-.78125-.75-.78125-1.875 0-.84375.4219-1.40625.4375-.5625 1.2187-.76563zm-.2187-1.79687q0 .60937.3906 1 .40625.39062 1.03125.39062.60935 0 1-.375.39065-.39062.39065-.95312 0-.57813-.4063-.96875-.4062-.40625-1-.40625-.60935 0-1.0156.39062-.3906.39063-.3906.92188zm-.32815 3.96875q0 .45312.20315.875.2187.42187.6406.65625.4219.23437.90625.23437.75 0 1.23435-.48437.5-.48438.5-1.23438 0-.76562-.5-1.26562-.5-.5-1.2656-.5-.75 0-1.2344.5-.48435.48437-.48435 1.21875zm6.07815.5 1.0156-.09375q.125.71875.4844 1.04687.375.3125.9375.3125.48435 0 .8437-.21875.375-.23437.6094-.59375.2344-.375.3906-1 .1563-.64062.1563-1.29687 0-.07813 0-.21875-.3125.5-.8594.82812-.5469.3125-1.1875.3125-1.0781 0-1.8125-.76562-.7344-.78125-.7344-2.04688 0-1.3125.76565-2.10937.78125-.79688 1.9375-.79688.82815 0 1.51565.45313.7031.45312 1.0625 1.29687.35935.82813.35935 2.40625 0 1.64063-.35935 2.625-.3438.96875-1.0625 1.48438-.70315.5-1.64065.5-1.01565 0-1.65625-.54688-.6406-.5625-.7656-1.57812zm4.3125-3.79688q0-.90625-.4844-1.4375-.46875-.53125-1.15625-.53125-.70315 0-1.23435.57813-.51565.5625-.51565 1.48437 0 .8125.5 1.32813.5.51562 1.21875.51562.7344 0 1.2031-.51562.4688-.51563.4688-1.42188zm4.1562 1.125q-.6562-.25-.98435-.6875-.3125-.45312-.3125-1.0625 0-.9375.67185-1.57812.6875-.64063 1.7969-.64063 1.125 0 1.8125.65625.6875.65625.6875 1.59375 0 .59375-.3125 1.03125-.3125.4375-.9531.6875.79685.25 1.2031.82813.40625.57812.40625 1.375 0 1.09375-.78125 1.84375-.7656.75-2.0469.75-1.2656 0-2.04685-.75-.78125-.75-.78125-1.875 0-.84375.4219-1.40625.4375-.5625 1.2187-.76563zm-.2187-1.79687q0 .60937.3906 1 .40625.39062 1.03125.39062.60935 0 1-.375.39065-.39062.39065-.95312 0-.57813-.4063-.96875-.4062-.40625-1-.40625-.60935 0-1.0156.39062-.3906.39063-.3906.92188zm-.32815 3.96875q0 .45312.20315.875.2187.42187.6406.65625.4219.23437.90625.23437.75 0 1.23435-.48437.5-.48438.5-1.23438 0-.76562-.5-1.26562-.5-.5-1.2656-.5-.75 0-1.2344.5-.48435.48437-.48435 1.21875zm7.54685-2.17188q-.6562-.25-.98435-.6875-.3125-.45312-.3125-1.0625 0-.9375.67185-1.57812.6875-.64063 1.7968-.64063 1.125 0 1.8125.65625.6875.65625.6875 1.59375 0 .59375-.3125 1.03125-.3125.4375-.9531.6875.7969.25 1.2031.82813.4063.57812.4063 1.375 0 1.09375-.7813 1.84375-.7656.75-2.0468.75-1.2656 0-2.04685-.75-.78125-.75-.78125-1.875 0-.84375.4219-1.40625.4375-.5625 1.2187-.76563zm-.2187-1.79687q0 .60937.3906 1 .4062.39062 1.0312.39062.6094 0 1-.375.3906-.39062.3906-.95312 0-.57813-.4062-.96875-.4063-.40625-1-.40625-.6094 0-1.0156.39062-.3906.39063-.3906.92188zm-.32815 3.96875q0 .45312.20315.875.2187.42187.6406.65625.4218.23437.9062.23437.75 0 1.2344-.48437.5-.48438.5-1.23438 0-.76562-.5-1.26562-.5-.5-1.2657-.5-.7499 0-1.2343.5-.48435.48437-.48435 1.21875zm7.54685-2.17188q-.6563-.25-.9844-.6875-.3125-.45312-.3125-1.0625 0-.9375.6719-1.57812.6875-.64063 1.7968-.64063 1.125 0 1.8125.65625.6875.65625.6875 1.59375 0 .59375-.3125 1.03125-.3125.4375-.9531.6875.7969.25 1.2031.82813.4063.57812.4063 1.375 0 1.09375-.7813 1.84375-.7656.75-2.0468.75-1.2657 0-2.0469-.75-.7813-.75-.7813-1.875 0-.84375.4219-1.40625.4375-.5625 1.2188-.76563zm-.2188-1.79687q0 .60937.3906 1 .4063.39062 1.0313.39062.6094 0 1-.375.3906-.39062.3906-.95312 0-.57813-.4062-.96875-.4063-.40625-1-.40625-.6094 0-1.0157.39062-.3906.39063-.3906.92188zm-.3281 3.96875q0 .45312.2031.875.2188.42187.6406.65625.4219.23437.9063.23437.75 0 1.2344-.48437.5-.48438.5-1.23438 0-.76562-.5-1.26562-.5-.5-1.2657-.5-.75 0-1.2343.5-.4844.48437-.4844 1.21875z" stroke="#fff" stroke-linecap="round" stroke-linejoin="round" stroke-width="3"/>
  <path d="m966.832 137.23155h-1.0469v-6.71875q-.3906.35938-1.0156.73438-.6094.35937-1.0938.53125v-1.01563q.875-.42187 1.5313-1 .67185-.59375.9531-1.15625h.6719zm7 0h-1.0469v-6.71875q-.3906.35938-1.0156.73438-.6094.35937-1.0938.53125v-1.01563q.875-.42187 1.5313-1 .67185-.59375.9531-1.15625h.6719zm3.5937 0v-1.20312h1.20315v1.20312q0 .65625-.23435 1.0625-.2344.42188-.7344.64063l-.2969-.45313q.32815-.14062.4844-.4375.15625-.28125.1875-.8125zm7.9844-1.01562v1.01562h-5.6875q0-.375.125-.73437.21875-.57813.6875-1.14063.4844-.5625 1.3906-1.29687 1.4063-1.15625 1.89065-1.82813.5-.67187.5-1.26562 0-.625-.45315-1.04688-.4531-.4375-1.17185-.4375-.76565 0-1.21875.45313-.4531.45312-.46875 1.26562l-1.07815-.10937q.1094-1.21875.82815-1.84375.73435-.64063 1.96875-.64063 1.2344 0 1.9531.6875.7188.6875.7188 1.70313 0 .51562-.2188 1.01562-.2031.48438-.7031 1.04688-.4844.54687-1.6094 1.5-.9531.79687-1.23435 1.09375-.26565.28125-.4375.5625zm3.0781-3.64063q-.6562-.25-.98435-.6875-.3125-.45312-.3125-1.0625 0-.9375.67185-1.57812.6875-.64063 1.7969-.64063 1.125 0 1.8125.65625.6875.65625.6875 1.59375 0 .59375-.3125 1.03125-.3125.4375-.9531.6875.79685.25 1.2031.82813.40625.57812.40625 1.375 0 1.09375-.78125 1.84375-.7656.75-2.0469.75-1.2656 0-2.04685-.75-.78125-.75-.78125-1.875 0-.84375.4219-1.40625.4375-.5625 1.2187-.76563zm-.2187-1.79687q0 .60937.3906 1 .40625.39062 1.03125.39062.60935 0 1-.375.39065-.39062.39065-.95312 0-.57813-.4063-.96875-.4062-.40625-1-.40625-.60935 0-1.0156.39062-.3906.39063-.3906.92188zm-.32815 3.96875q0 .45312.20315.875.2187.42187.6406.65625.4219.23437.90625.23437.75 0 1.23435-.48437.5-.48438.5-1.23438 0-.76562-.5-1.26562-.5-.5-1.2656-.5-.75 0-1.2344.5-.48435.48437-.48435 1.21875zm5.92185-1.75q0-1.53125.3125-2.45313.3125-.9375.9219-1.4375.625-.5 1.5625-.5.6875 0 1.2031.28125.5313.28125.875.8125.3438.51563.5313 1.26563.1875.75.1875 2.03125 0 1.51562-.3125 2.4375-.2969.92187-.9219 1.4375-.6094.5-1.5625.5-1.2344 0-1.9531-.89063-.8438-1.0625-.8438-3.48437zm1.07815 0q0 2.10937.5 2.8125.5.70312 1.21875.70312.7344 0 1.21875-.70312.5-.70313.5-2.8125 0-2.125-.5-2.8125-.48435-.70313-1.23435-.70313-.7188 0-1.1563.60938-.54685.78125-.54685 2.90625zm7.54685-.42188q-.6562-.25-.98435-.6875-.3125-.45312-.3125-1.0625 0-.9375.67185-1.57812.6875-.64063 1.7969-.64063 1.125 0 1.8125.65625.6875.65625.6875 1.59375 0 .59375-.3125 1.03125-.3125.4375-.9531.6875.79685.25 1.2031.82813.40625.57812.40625 1.375 0 1.09375-.78125 1.84375-.7656.75-2.0469.75-1.2656 0-2.04685-.75-.78125-.75-.78125-1.875 0-.84375.4219-1.40625.4375-.5625 1.2187-.76563zm-.2187-1.79687q0 .60937.3906 1 .40625.39062 1.03125.39062.60935 0 1-.375.39065-.39062.39065-.95312 0-.57813-.4063-.96875-.4062-.40625-1-.40625-.60935 0-1.0156.39062-.3906.39063-.3906.92188zm-.32815 3.96875q0 .45312.20315.875.2187.42187.6406.65625.4219.23437.90625.23437.75 0 1.23435-.48437.5-.48438.5-1.23438 0-.76562-.5-1.26562-.5-.5-1.2656-.5-.75 0-1.2344.5-.48435.48437-.48435 1.21875zm6.07815.5 1.0156-.09375q.125.71875.4844 1.04687.375.3125.9375.3125.48435 0 .8437-.21875.375-.23437.6094-.59375.2344-.375.3906-1 .1563-.64062.1563-1.29687 0-.07813 0-.21875-.3125.5-.8594.82812-.5469.3125-1.1875.3125-1.0781 0-1.8125-.76562-.7344-.78125-.7344-2.04688 0-1.3125.76565-2.10937.78125-.79688 1.9375-.79688.82815 0 1.51565.45313.7031.45312 1.0625 1.29687.35935.82813.35935 2.40625 0 1.64063-.35935 2.625-.3438.96875-1.0625 1.48438-.70315.5-1.64065.5-1.01565 0-1.65625-.54688-.6406-.5625-.7656-1.57812zm4.3125-3.79688q0-.90625-.4844-1.4375-.46875-.53125-1.15625-.53125-.70315 0-1.23435.57813-.51565.5625-.51565 1.48437 0 .8125.5 1.32813.5.51562 1.21875.51562.7344 0 1.2031-.51562.4688-.51563.4688-1.42188zm4.1562 1.125q-.6562-.25-.98435-.6875-.3125-.45312-.3125-1.0625 0-.9375.67185-1.57812.6875-.64063 1.7969-.64063 1.125 0 1.8125.65625.6875.65625.6875 1.59375 0 .59375-.3125 1.03125-.3125.4375-.9531.6875.79685.25 1.2031.82813.40625.57812.40625 1.375 0 1.09375-.78125 1.84375-.7656.75-2.0469.75-1.2656 0-2.04685-.75-.78125-.75-.78125-1.875 0-.84375.4219-1.40625.4375-.5625 1.2187-.76563zm-.2187-1.79687q0 .60937.3906 1 .40625.39062 1.03125.39062.60935 0 1-.375.39065-.39062.39065-.95312 0-.57813-.4063-.96875-.4062-.40625-1-.40625-.60935 0-1.0156.39062-.3906.39063-.3906.92188zm-.32815 3.96875q0 .45312.20315.875.2187.42187.6406.65625.4219.23437.90625.23437.75 0 1.23435-.48437.5-.48438.5-1.23438 0-.76562-.5-1.26562-.5-.5-1.2656-.5-.75 0-1.2344.5-.48435.48437-.48435 1.21875zm7.54685-2.17188q-.6562-.25-.98435-.6875-.3125-.45312-.3125-1.0625 0-.9375.67185-1.57812.6875-.64063 1.797-.64063 1.125 0 1.8125.65625.6875.65625.6875 1.59375 0 .59375-.3125 1.03125-.3125.4375-.9532.6875.7969.25 1.2032.82813.4062.57812.4062 1.375 0 1.09375-.7812 1.84375-.7657.75-2.0469.75-1.2657 0-2.04695-.75-.78125-.75-.78125-1.875 0-.84375.4219-1.40625.4375-.5625 1.2187-.76563zm-.2187-1.79687q0 .60937.3906 1 .4063.39062 1.0313.39062.6094 0 1-.375.3906-.39062.3906-.95312 0-.57813-.4062-.96875-.4063-.40625-1-.40625-.6094 0-1.0157.39062-.3906.39063-.3906.92188zm-.32815 3.96875q0 .45312.20315.875.2187.42187.6406.65625.4219.23437.9063.23437.75 0 1.2344-.48437.5-.48438.5-1.23438 0-.76562-.5-1.26562-.5-.5-1.2656-.5-.7501 0-1.2345.5-.48435.48437-.48435 1.21875zm7.54695-2.17188q-.6563-.25-.9844-.6875-.3125-.45312-.3125-1.0625 0-.9375.6719-1.57812.6875-.64063 1.7969-.64063 1.125 0 1.8125.65625.6875.65625.6875 1.59375 0 .59375-.3125 1.03125-.3125.4375-.9532.6875.7969.25 1.2032.82813.4062.57812.4062 1.375 0 1.09375-.7812 1.84375-.7657.75-2.0469.75-1.2656 0-2.0469-.75-.7812-.75-.7812-1.875 0-.84375.4218-1.40625.4375-.5625 1.2188-.76563zm-.2188-1.79687q0 .60937.3907 1 .4062.39062 1.0312.39062.6094 0 1-.375.3906-.39062.3906-.95312 0-.57813-.4062-.96875-.4063-.40625-1-.40625-.6094 0-1.0156.39062-.3907.39063-.3907.92188zm-.3281 3.96875q0 .45312.2031.875.2188.42187.6407.65625.4218.23437.9062.23437.75 0 1.2344-.48437.5-.48438.5-1.23438 0-.76562-.5-1.26562-.5-.5-1.2656-.5-.75 0-1.2344.5-.4844.48437-.4844 1.21875z" fill="#4285f4"/>
  <path d="m191.02875 532.0944h-1.04688v-6.7187q-.39062.35935-1.01562.73435-.60938.35935-1.09375.53125v-1.0156q.875-.4219 1.53125-1 .67187-.5938.95312-1.1563h.67188z" stroke="#fff" stroke-linecap="round" stroke-linejoin="round" stroke-width="3"/>
  <path d="m191.02875 532.0944h-1.04688v-6.7187q-.39062.35935-1.01562.73435-.60938.35935-1.09375.53125v-1.0156q.875-.4219 1.53125-1 .67187-.5938.95312-1.1563h.67188z" fill="#ea4335"/>
  <path d="m353.82687 487.7786v1.01562h-5.6875q0-.375.125-.73438.21875-.57812.6875-1.14062.48438-.5625 1.39063-1.29688 1.40625-1.15624 1.89062-1.82812.5-.67188.5-1.26562 0-.625-.45312-1.04688-.45313-.4375-1.17188-.4375-.76562 0-1.21875.45312-.45312.45313-.46875 1.26563l-1.07812-.10937q.10937-1.21876.82812-1.84376.73438-.64062 1.96875-.64062 1.23438 0 1.95313.6875.71875.6875.71875 1.70312 0 .51563-.21875 1.01563-.20313.48437-.70313 1.04687-.48437.54688-1.60937 1.5-.95313.79688-1.23438 1.09376-.26562.28124-.4375.5625zm2.01563 1.01562v-1.20312h1.20312v1.20312q0 .65625-.23437 1.0625-.23438.42188-.73438.64062l-.29687-.45312q.32812-.14062.48437-.4375.15625-.28125.1875-.8125zm2.4375-4.23438q0-1.53124.3125-2.45312.3125-.9375.92187-1.4375.625-.5 1.5625-.5.6875 0 1.20313.28125.53125.28125.875.8125.34375.51563.53125 1.26563.1875.75.1875 2.03124 0 1.51563-.3125 2.4375-.29688.92188-.92188 1.4375-.60937.5-1.5625.5-1.23437 0-1.95312-.89062-.84375-1.0625-.84375-3.48438zm1.07812 0q0 2.10938.5 2.8125.5.70313 1.21875.70313.73438 0 1.21875-.70313.5-.70312.5-2.8125 0-2.125-.5-2.8125-.48437-.70312-1.23437-.70312-.71875 0-1.15625.60938-.54688.78124-.54688 2.90624zm5.92188 0q0-1.53124.3125-2.45312.3125-.9375.92187-1.4375.625-.5 1.5625-.5.6875 0 1.20313.28125.53125.28125.875.8125.34375.51563.53125 1.26563.1875.75.1875 2.03124 0 1.51563-.3125 2.4375-.29688.92188-.92188 1.4375-.60937.5-1.5625.5-1.23437 0-1.95312-.89062-.84375-1.0625-.84375-3.48438zm1.07812 0q0 2.10938.5 2.8125.5.70313 1.21875.70313.73438 0 1.21875-.70313.5-.70312.5-2.8125 0-2.125-.5-2.8125-.48437-.70312-1.23437-.70312-.71875 0-1.15625.60938-.54688.78124-.54688 2.90624zm7.54688-.42187q-.65625-.25-.98438-.6875-.3125-.45313-.3125-1.0625 0-.9375.67188-1.57813.6875-.64062 1.79687-.64062 1.125 0 1.8125.65625.6875.65625.6875 1.59375 0 .59375-.3125 1.03125-.3125.4375-.95312.6875.79687.25 1.20312.82813.40625.57812.40625 1.375 0 1.09374-.78125 1.84374-.76562.75-2.04687.75-1.26563 0-2.04688-.75-.78125-.75-.78125-1.875 0-.84374.42188-1.40624.4375-.5625 1.21875-.76563zm-.21875-1.79687q0 .60937.39062 1 .40625.39062 1.03125.39062.60938 0 1-.375.39063-.39062.39063-.95312 0-.57813-.40625-.96876-.40625-.40624-1-.40624-.60938 0-1.01563.39062-.39062.39062-.39062.92188zm-.32813 3.96874q0 .45313.20313.875.21875.42188.64062.65626.42188.23437.90625.23437.75 0 1.23438-.48437.5-.48438.5-1.23438 0-.76562-.5-1.26562-.5-.5-1.26563-.5-.75 0-1.23437.5-.48438.48437-.48438 1.21874zm5.92188-1.75q0-1.53124.3125-2.45312.3125-.9375.92187-1.4375.625-.5 1.5625-.5.6875 0 1.20313.28125.53125.28125.875.8125.34375.51563.53125 1.26563.1875.75.1875 2.03124 0 1.51563-.3125 2.4375-.29688.92188-.92188 1.4375-.60937.5-1.5625.5-1.23437 0-1.95312-.89062-.84375-1.0625-.84375-3.48438zm1.07812 0q0 2.10938.5 2.8125.5.70313 1.21875.70313.73438 0 1.21875-.70313.5-.70312.5-2.8125 0-2.125-.5-2.8125-.48437-.70312-1.23437-.70312-.71875 0-1.15625.60938-.54688.78124-.54688 2.90624zm11.46875 3.21876v1.01562h-5.6875q0-.375.125-.73438.21875-.57812.6875-1.14062.48438-.5625 1.39063-1.29688 1.40625-1.15624 1.89062-1.82812.5-.67188.5-1.26562 0-.625-.45312-1.04688-.45313-.4375-1.17188-.4375-.76562 0-1.21875.45312-.45312.45313-.46875 1.26563l-1.07812-.10937q.10937-1.21876.82812-1.84376.73438-.64062 1.96875-.64062 1.23438 0 1.95313.6875.71875.6875.71875 1.70312 0 .51563-.21875 1.01563-.20313.48437-.70313 1.04687-.48437.54688-1.60937 1.5-.95313.79688-1.23438 1.09376-.26562.28124-.4375.5625zm4.82813 1.01562v-2.0625h-3.71875v-.96875l3.92187-5.5625h.85938v5.5625h1.15625v.96875h-1.15625v2.0625zm0-3.03125v-3.85937l-2.6875 3.85937zm3.625-1.20313q0-1.53124.3125-2.45312.3125-.9375.92187-1.4375.625-.5 1.5625-.5.6875 0 1.20313.28125.53125.28125.875.8125.34375.51563.53125 1.26563.1875.75.1875 2.03124 0 1.51563-.3125 2.4375-.29688.92188-.92188 1.4375-.60937.5-1.5625.5-1.23437 0-1.95312-.89062-.84375-1.0625-.84375-3.48438zm1.07812 0q0 2.10938.5 2.8125.5.70313 1.21875.70313.73438 0 1.21875-.70313.5-.70312.5-2.8125 0-2.125-.5-2.8125-.48437-.70312-1.23437-.70312-.71875 0-1.15625.60938-.54688.78124-.54688 2.90624zm5.98438-3.23437v-1.01563h5.5625v.82813q-.8125.875-1.625 2.32813-.79688 1.4375-1.23438 2.96874-.32812 1.07813-.40625 2.35938h-1.09375q.01563-1.01562.39063-2.45312.39062-1.4375 1.09375-2.76563.71875-1.32813 1.53125-2.25zm12.48437 6.45313v1.01562h-5.6875q0-.375.125-.73438.21875-.57812.6875-1.14062.48438-.5625 1.39063-1.29688 1.40625-1.15624 1.89062-1.82812.5-.67188.5-1.26562 0-.625-.45312-1.04688-.45313-.4375-1.17188-.4375-.76562 0-1.21875.45312-.45312.45313-.46875 1.26563l-1.07812-.10937q.10937-1.21876.82812-1.84376.73438-.64062 1.96875-.64062 1.23438 0 1.95313.6875.71875.6875.71875 1.70312 0 .51563-.21875 1.01563-.20313.48437-.70313 1.04687-.48437.54688-1.60937 1.5-.95313.79688-1.23438 1.09376-.26562.28124-.4375.5625z" stroke="#fff" stroke-linecap="round" stroke-linejoin="round" stroke-width="3"/>
  <path d="m353.82687 487.7786v1.01562h-5.6875q0-.375.125-.73438.21875-.57812.6875-1.14062.48438-.5625 1.39063-1.29688 1.40625-1.15624 1.89062-1.82812.5-.67188.5-1.26562 0-.625-.45312-1.04688-.45313-.4375-1.17188-.4375-.76562 0-1.21875.45312-.45312.45313-.46875 1.26563l-1.07812-.10937q.10937-1.21876.82812-1.84376.73438-.64062 1.96875-.64062 1.23438 0 1.95313.6875.71875.6875.71875 1.70312 0 .51563-.21875 1.01563-.20313.48437-.70313 1.04687-.48437.54688-1.60937 1.5-.95313.79688-1.23438 1.09376-.26562.28124-.4375.5625zm2.01563 1.01562v-1.20312h1.20312v1.20312q0 .65625-.23437 1.0625-.23438.42188-.73438.64062l-.29687-.45312q.32812-.14062.48437-.4375.15625-.28125.1875-.8125zm2.4375-4.23438q0-1.53124.3125-2.45312.3125-.9375.92187-1.4375.625-.5 1.5625-.5.6875 0 1.20313.28125.53125.28125.875.8125.34375.51563.53125 1.26563.1875.75.1875 2.03124 0 1.51563-.3125 2.4375-.29688.92188-.92188 1.4375-.60937.5-1.5625.5-1.23437 0-1.95312-.89062-.84375-1.0625-.84375-3.48438zm1.07812 0q0 2.10938.5 2.8125.5.70313 1.21875.70313.73438 0 1.21875-.70313.5-.70312.5-2.8125 0-2.125-.5-2.8125-.48437-.70312-1.23437-.70312-.71875 0-1.15625.60938-.54688.78124-.54688 2.90624zm5.92188 0q0-1.53124.3125-2.45312.3125-.9375.92187-1.4375.625-.5 1.5625-.5.6875 0 1.20313.28125.53125.28125.875.8125.34375.51563.53125 1.26563.1875.75.1875 2.03124 0 1.51563-.3125 2.4375-.29688.92188-.92188 1.4375-.60937.5-1.5625.5-1.23437 0-1.95312-.89062-.84375-1.0625-.84375-3.48438zm1.07812 0q0 2.10938.5 2.8125.5.70313 1.21875.70313.73438 0 1.21875-.70313.5-.70312.5-2.8125 0-2.125-.5-2.8125-.48437-.70312-1.23437-.70312-.71875 0-1.15625.60938-.54688.78124-.54688 2.90624zm7.54688-.42187q-.65625-.25-.98438-.6875-.3125-.45313-.3125-1.0625 0-.9375.67188-1.57813.6875-.64062 1.79687-.64062 1.125 0 1.8125.65625.6875.65625.6875 1.59375 0 .59375-.3125 1.03125-.3125.4375-.95312.6875.79687.25 1.20312.82813.40625.57812.40625 1.375 0 1.09374-.78125 1.84374-.76562.75-2.04687.75-1.26563 0-2.04688-.75-.78125-.75-.78125-1.875 0-.84374.42188-1.40624.4375-.5625 1.21875-.76563zm-.21875-1.79687q0 .60937.39062 1 .40625.39062 1.03125.39062.60938 0 1-.375.39063-.39062.39063-.95312 0-.57813-.40625-.96876-.40625-.40624-1-.40624-.60938 0-1.01563.39062-.39062.39062-.39062.92188zm-.32813 3.96874q0 .45313.20313.875.21875.42188.64062.65626.42188.23437.90625.23437.75 0 1.23438-.48437.5-.48438.5-1.23438 0-.76562-.5-1.26562-.5-.5-1.26563-.5-.75 0-1.23437.5-.48438.48437-.48438 1.21874zm5.92188-1.75q0-1.53124.3125-2.45312.3125-.9375.92187-1.4375.625-.5 1.5625-.5.6875 0 1.20313.28125.53125.28125.875.8125.34375.51563.53125 1.26563.1875.75.1875 2.03124 0 1.51563-.3125 2.4375-.29688.92188-.92188 1.4375-.60937.5-1.5625.5-1.23437 0-1.95312-.89062-.84375-1.0625-.84375-3.48438zm1.07812 0q0 2.10938.5 2.8125.5.70313 1.21875.70313.73438 0 1.21875-.70313.5-.70312.5-2.8125 0-2.125-.5-2.8125-.48437-.70312-1.23437-.70312-.71875 0-1.15625.60938-.54688.78124-.54688 2.90624zm11.46875 3.21876v1.01562h-5.6875q0-.375.125-.73438.21875-.57812.6875-1.14062.48438-.5625 1.39063-1.29688 1.40625-1.15624 1.89062-1.82812.5-.67188.5-1.26562 0-.625-.45312-1.04688-.45313-.4375-1.17188-.4375-.76562 0-1.21875.45312-.45312.45313-.46875 1.26563l-1.07812-.10937q.10937-1.21876.82812-1.84376.73438-.64062 1.96875-.64062 1.23438 0 1.95313.6875.71875.6875.71875 1.70312 0 .51563-.21875 1.01563-.20313.48437-.70313 1.04687-.48437.54688-1.60937 1.5-.95313.79688-1.23438 1.09376-.26562.28124-.4375.5625zm4.82813 1.01562v-2.0625h-3.71875v-.96875l3.92187-5.5625h.85938v5.5625h1.15625v.96875h-1.15625v2.0625zm0-3.03125v-3.85937l-2.6875 3.85937zm3.625-1.20313q0-1.53124.3125-2.45312.3125-.9375.92187-1.4375.625-.5 1.5625-.5.6875 0 1.20313.28125.53125.28125.875.8125.34375.51563.53125 1.26563.1875.75.1875 2.03124 0 1.51563-.3125 2.4375-.29688.92188-.92188 1.4375-.60937.5-1.5625.5-1.23437 0-1.95312-.89062-.84375-1.0625-.84375-3.48438zm1.07812 0q0 2.10938.5 2.8125.5.70313 1.21875.70313.73438 0 1.21875-.70313.5-.70312.5-2.8125 0-2.125-.5-2.8125-.48437-.70312-1.23437-.70312-.71875 0-1.15625.60938-.54688.78124-.54688 2.90624zm5.98438-3.23437v-1.01563h5.5625v.82813q-.8125.875-1.625 2.32813-.79688 1.4375-1.23438 2.96874-.32812 1.07813-.40625 2.35938h-1.09375q.01563-1.01562.39063-2.45312.39062-1.4375 1.09375-2.76563.71875-1.32813 1.53125-2.25zm12.48437 6.45313v1.01562h-5.6875q0-.375.125-.73438.21875-.57812.6875-1.14062.48438-.5625 1.39063-1.29688 1.40625-1.15624 1.89062-1.82812.5-.67188.5-1.26562 0-.625-.45312-1.04688-.45313-.4375-1.17188-.4375-.76562 0-1.21875.45312-.45312.45313-.46875 1.26563l-1.07812-.10937q.10937-1.21876.82812-1.84376.73438-.64062 1.96875-.64062 1.23438 0 1.95313.6875.71875.6875.71875 1.70312 0 .51563-.21875 1.01563-.20313.48437-.70313 1.04687-.48437.54688-1.60937 1.5-.95313.79688-1.23438 1.09376-.26562.28124-.4375.5625z" fill="#ea4335"/>
  <path d="m545.875 402.71127v-2.0625h-3.71875v-.96875l3.92185-5.5625h.8594v5.5625h1.15625v.96875h-1.15625v2.0625zm0-3.03125v-3.85937l-2.6875 3.85937zm4.1875 3.03125v-1.20312h1.2031v1.20312q0 .65625-.23435 1.0625-.23435.42188-.73435.64063l-.2969-.45313q.3281-.14062.4844-.4375.1562-.28125.1875-.8125zm2.4375-4.23437q0-1.53125.3125-2.45313.3125-.9375.9219-1.4375.625-.5 1.5625-.5.6875 0 1.2031.28125.53125.28125.875.8125.34375.51563.53125 1.26563.1875.75.1875 2.03125 0 1.51562-.3125 2.4375-.29685.92187-.92185 1.4375-.6094.5-1.5625.5-1.2344 0-1.95315-.89063-.84375-1.0625-.84375-3.48437zm1.0781 0q0 2.10937.5 2.8125.5.70312 1.2188.70312.73435 0 1.2187-.70312.5-.70313.5-2.8125 0-2.125-.5-2.8125-.48435-.70313-1.23435-.70313-.71875 0-1.15625.60938-.5469.78125-.5469 2.90625zm9.89065 4.23437h-1.04685v-6.71875q-.39065.35938-1.01565.73438-.60935.35937-1.09375.53125v-1.01563q.875-.42187 1.53125-1 .67185-.59375.95315-1.15625h.67185zm8.57815-1.01562v1.01562h-5.6875q0-.375.125-.73437.2187-.57813.6875-1.14063.48435-.5625 1.3906-1.29687 1.40625-1.15625 1.8906-1.82813.5-.67187.5-1.26562 0-.625-.4531-1.04688-.4531-.4375-1.1719-.4375-.7656 0-1.2187.45313-.45315.45312-.4688 1.26562l-1.0781-.10937q.1094-1.21875.8281-1.84375.7344-.64063 1.9688-.64063 1.23435 0 1.9531.6875.71875.6875.71875 1.70313 0 .51562-.21875 1.01562-.2031.48438-.7031 1.04688-.4844.54687-1.6094 1.5-.9531.79687-1.2344 1.09375-.2656.28125-.4375.5625zm1.4531-3.21875q0-1.53125.3125-2.45313.3125-.9375.9219-1.4375.625-.5 1.5625-.5.6875 0 1.2031.28125.53125.28125.875.8125.34375.51563.53125 1.26563.1875.75.1875 2.03125 0 1.51562-.3125 2.4375-.29685.92187-.92185 1.4375-.6094.5-1.5625.5-1.2344 0-1.95315-.89063-.84375-1.0625-.84375-3.48437zm1.0781 0q0 2.10937.5 2.8125.5.70312 1.2188.70312.73435 0 1.2187-.70312.5-.70313.5-2.8125 0-2.125-.5-2.8125-.48435-.70313-1.23435-.70313-.71875 0-1.15625.60938-.5469.78125-.5469 2.90625zm11.4688 3.21875v1.01562h-5.6875q0-.375.125-.73437.2187-.57813.6875-1.14063.48435-.5625 1.3906-1.29687 1.40625-1.15625 1.8906-1.82813.5-.67187.5-1.26562 0-.625-.4531-1.04688-.4531-.4375-1.1719-.4375-.7656 0-1.2187.45313-.45315.45312-.4688 1.26562l-1.0781-.10937q.1094-1.21875.8281-1.84375.7344-.64063 1.9688-.64063 1.23435 0 1.9531.6875.71875.6875.71875 1.70313 0 .51562-.21875 1.01562-.2031.48438-.7031 1.04688-.4844.54687-1.6094 1.5-.9531.79687-1.2344 1.09375-.2656.28125-.4375.5625zm4.8281 1.01562v-2.0625h-3.71875v-.96875l3.92185-5.5625h.8594v5.5625h1.15625v.96875h-1.15625v2.0625zm0-3.03125v-3.85937l-2.6875 3.85937zm3.625-1.20312q0-1.53125.3125-2.45313.3125-.9375.9219-1.4375.625-.5 1.5625-.5.6875 0 1.2031.28125.53125.28125.875.8125.34375.51563.53125 1.26563.1875.75.1875 2.03125 0 1.51562-.3125 2.4375-.29685.92187-.92185 1.4375-.6094.5-1.5625.5-1.2344 0-1.95315-.89063-.84375-1.0625-.84375-3.48437zm1.0781 0q0 2.10937.5 2.8125.5.70312 1.2188.70312.73435 0 1.2187-.70312.5-.70313.5-2.8125 0-2.125-.5-2.8125-.48435-.70313-1.23435-.70313-.71875 0-1.15625.60938-.5469.78125-.5469 2.90625zm9.2969 4.23437v-2.0625h-3.71875v-.96875l3.92185-5.5625h.8594v5.5625h1.15625v.96875h-1.15625v2.0625zm0-3.03125v-3.85937l-2.6875 3.85937zm5.25-1.625q-.65625-.25-.9844-.6875-.3125-.45312-.3125-1.0625 0-.9375.6719-1.57812.6875-.64063 1.7969-.64063 1.125 0 1.8125.65625.6875.65625.6875 1.59375 0 .59375-.3125 1.03125-.3125.4375-.95315.6875.79685.25 1.20315.82813.4062.57812.4062 1.375 0 1.09375-.7812 1.84375-.76565.75-2.0469.75-1.2656 0-2.0469-.75-.7812-.75-.7812-1.875 0-.84375.42185-1.40625.4375-.5625 1.21875-.76563zm-.21875-1.79687q0 .60937.39065 1 .4062.39062 1.0312.39062.6094 0 1-.375.39065-.39062.39065-.95312 0-.57813-.40625-.96875-.40625-.40625-1-.40625-.6094 0-1.0156.39062-.39065.39063-.39065.92188zm-.32815 3.96875q0 .45312.20315.875.21875.42187.64065.65625.42185.23437.9062.23437.75 0 1.2344-.48437.5-.48438.5-1.23438 0-.76562-.5-1.26562-.5-.5-1.2656-.5-.75 0-1.2344.5-.4844.48437-.4844 1.21875z" stroke="#fff" stroke-linecap="round" stroke-linejoin="round" stroke-width="3"/>
  <path d="m545.875 402.71127v-2.0625h-3.71875v-.96875l3.92185-5.5625h.8594v5.5625h1.15625v.96875h-1.15625v2.0625zm0-3.03125v-3.85937l-2.6875 3.85937zm4.1875 3.03125v-1.20312h1.2031v1.20312q0 .65625-.23435 1.0625-.23435.42188-.73435.64063l-.2969-.45313q.3281-.14062.4844-.4375.1562-.28125.1875-.8125zm2.4375-4.23437q0-1.53125.3125-2.45313.3125-.9375.9219-1.4375.625-.5 1.5625-.5.6875 0 1.2031.28125.53125.28125.875.8125.34375.51563.53125 1.26563.1875.75.1875 2.03125 0 1.51562-.3125 2.4375-.29685.92187-.92185 1.4375-.6094.5-1.5625.5-1.2344 0-1.95315-.89063-.84375-1.0625-.84375-3.48437zm1.0781 0q0 2.10937.5 2.8125.5.70312 1.2188.70312.73435 0 1.2187-.70312.5-.70313.5-2.8125 0-2.125-.5-2.8125-.48435-.70313-1.23435-.70313-.71875 0-1.15625.60938-.5469.78125-.5469 2.90625zm9.89065 4.23437h-1.04685v-6.71875q-.39065.35938-1.01565.73438-.60935.35937-1.09375.53125v-1.01563q.875-.42187 1.53125-1 .67185-.59375.95315-1.15625h.67185zm8.57815-1.01562v1.01562h-5.6875q0-.375.125-.73437.2187-.57813.6875-1.14063.48435-.5625 1.3906-1.29687 1.40625-1.15625 1.8906-1.82813.5-.67187.5-1.26562 0-.625-.4531-1.04688-.4531-.4375-1.1719-.4375-.7656 0-1.2187.45313-.45315.45312-.4688 1.26562l-1.0781-.10937q.1094-1.21875.8281-1.84375.7344-.64063 1.9688-.64063 1.23435 0 1.9531.6875.71875.6875.71875 1.70313 0 .51562-.21875 1.01562-.2031.48438-.7031 1.04688-.4844.54687-1.6094 1.5-.9531.79687-1.2344 1.09375-.2656.28125-.4375.5625zm1.4531-3.21875q0-1.53125.3125-2.45313.3125-.9375.9219-1.4375.625-.5 1.5625-.5.6875 0 1.2031.28125.53125.28125.875.8125.34375.51563.53125 1.26563.1875.75.1875 2.03125 0 1.51562-.3125 2.4375-.29685.92187-.92185 1.4375-.6094.5-1.5625.5-1.2344 0-1.95315-.89063-.84375-1.0625-.84375-3.48437zm1.0781 0q0 2.10937.5 2.8125.5.70312 1.2188.70312.73435 0 1.2187-.70312.5-.70313.5-2.8125 0-2.125-.5-2.8125-.48435-.70313-1.23435-.70313-.71875 0-1.15625.60938-.5469.78125-.5469 2.90625zm11.4688 3.21875v1.01562h-5.6875q0-.375.125-.73437.2187-.57813.6875-1.14063.48435-.5625 1.3906-1.29687 1.40625-1.15625 1.8906-1.82813.5-.67187.5-1.26562 0-.625-.4531-1.04688-.4531-.4375-1.1719-.4375-.7656 0-1.2187.45313-.45315.45312-.4688 1.26562l-1.0781-.10937q.1094-1.21875.8281-1.84375.7344-.64063 1.9688-.64063 1.23435 0 1.9531.6875.71875.6875.71875 1.70313 0 .51562-.21875 1.01562-.2031.48438-.7031 1.04688-.4844.54687-1.6094 1.5-.9531.79687-1.2344 1.09375-.2656.28125-.4375.5625zm4.8281 1.01562v-2.0625h-3.71875v-.96875l3.92185-5.5625h.8594v5.5625h1.15625v.96875h-1.15625v2.0625zm0-3.03125v-3.85937l-2.6875 3.85937zm3.625-1.20312q0-1.53125.3125-2.45313.3125-.9375.9219-1.4375.625-.5 1.5625-.5.6875 0 1.2031.28125.53125.28125.875.8125.34375.51563.53125 1.26563.1875.75.1875 2.03125 0 1.51562-.3125 2.4375-.29685.92187-.92185 1.4375-.6094.5-1.5625.5-1.2344 0-1.95315-.89063-.84375-1.0625-.84375-3.48437zm1.0781 0q0 2.10937.5 2.8125.5.70312 1.2188.70312.73435 0 1.2187-.70312.5-.70313.5-2.8125 0-2.125-.5-2.8125-.48435-.70313-1.23435-.70313-.71875 0-1.15625.60938-.5469.78125-.5469 2.90625zm9.2969 4.23437v-2.0625h-3.71875v-.96875l3.92185-5.5625h.8594v5.5625h1.15625v.96875h-1.15625v2.0625zm0-3.03125v-3.85937l-2.6875 3.85937zm5.25-1.625q-.65625-.25-.9844-.6875-.3125-.45312-.3125-1.0625 0-.9375.6719-1.57812.6875-.64063 1.7969-.64063 1.125 0 1.8125.65625.6875.65625.6875 1.59375 0 .59375-.3125 1.03125-.3125.4375-.95315.6875.79685.25 1.20315.82813.4062.57812.4062 1.375 0 1.09375-.7812 1.84375-.76565.75-2.0469.75-1.2656 0-2.0469-.75-.7812-.75-.7812-1.875 0-.84375.42185-1.40625.4375-.5625 1.21875-.76563zm-.21875-1.79687q0 .60937.39065 1 .4062.39062 1.0312.39062.6094 0 1-.375.39065-.39062.39065-.95312 0-.57813-.40625-.96875-.40625-.40625-1-.40625-.6094 0-1.0156.39062-.39065.39063-.39065.92188zm-.32815 3.96875q0 .45312.20315.875.21875.42187.64065.65625.42185.23437.9062.23437.75 0 1.2344-.48437.5-.48438.5-1.23438 0-.76562-.5-1.26562-.5-.5-1.2656-.5-.75 0-1.2344.5-.4844.48437-.4844 1.21875z" fill="#ea4335"/>
  <path d="m759.345 226.40565q-.6563-.25-.9844-.6875-.3125-.45312-.3125-1.0625 0-.9375.6719-1.57812.6875-.64063 1.79685-.64063 1.125 0 1.8125.65625.6875.65625.6875 1.59375 0 .59375-.3125 1.03125-.3125.4375-.95315.6875.7969.25 1.20315.82813.40625.57812.40625 1.375 0 1.09375-.78125 1.84375-.76565.75-2.04685.75-1.26565 0-2.0469-.75-.78125-.75-.78125-1.875 0-.84375.42185-1.40625.4375-.5625 1.2188-.76563zm-.2188-1.79687q0 .60937.39065 1 .40625.39062 1.03125.39062.6094 0 1-.375.3906-.39062.3906-.95312 0-.57813-.4062-.96875-.4063-.40625-1-.40625-.6094 0-1.01565.39062-.39065.39063-.39065.92188zm-.3281 3.96875q0 .45312.2031.875.2188.42187.64065.65625.42185.23437.90625.23437.75 0 1.2344-.48437.5-.48438.5-1.23438 0-.76562-.5-1.26562-.5-.5-1.26565-.5-.75 0-1.23435.5-.4844.48437-.4844 1.21875zm6.4844 2.48437v-1.20312h1.2031v1.20312q0 .65625-.2344 1.0625-.23435.42188-.73435.64063l-.29685-.45313q.3281-.14062.48435-.4375.15625-.28125.1875-.8125zm2.4375-4.23437q0-1.53125.3125-2.45313.3125-.9375.92185-1.4375.625-.5 1.5625-.5.6875 0 1.20315.28125.5312.28125.875.8125.3437.51563.5312 1.26563.1875.75.1875 2.03125 0 1.51562-.3125 2.4375-.29685.92187-.92185 1.4375-.60935.5-1.5625.5-1.23435 0-1.95315-.89063-.8437-1.0625-.8437-3.48437zm1.0781 0q0 2.10937.5 2.8125.5.70312 1.21875.70312.73435 0 1.21875-.70312.5-.70313.5-2.8125 0-2.125-.5-2.8125-.4844-.70313-1.2344-.70313-.7187 0-1.1562.60938-.5469.78125-.5469 2.90625zm5.9219 0q0-1.53125.3125-2.45313.3125-.9375.92185-1.4375.625-.5 1.5625-.5.6875 0 1.20315.28125.5312.28125.875.8125.3437.51563.5312 1.26563.1875.75.1875 2.03125 0 1.51562-.3125 2.4375-.29685.92187-.92185 1.4375-.60935.5-1.5625.5-1.23435 0-1.95315-.89063-.8437-1.0625-.8437-3.48437zm1.0781 0q0 2.10937.5 2.8125.5.70312 1.21875.70312.73435 0 1.21875-.70312.5-.70313.5-2.8125 0-2.125-.5-2.8125-.4844-.70313-1.2344-.70313-.7187 0-1.1562.60938-.5469.78125-.5469 2.90625zm7.5469-.42188q-.6563-.25-.9844-.6875-.3125-.45312-.3125-1.0625 0-.9375.6719-1.57812.6875-.64063 1.79685-.64063 1.125 0 1.8125.65625.6875.65625.6875 1.59375 0 .59375-.3125 1.03125-.3125.4375-.95315.6875.7969.25 1.20315.82813.40625.57812.40625 1.375 0 1.09375-.78125 1.84375-.76565.75-2.04685.75-1.26565 0-2.0469-.75-.78125-.75-.78125-1.875 0-.84375.42185-1.40625.4375-.5625 1.2188-.76563zm-.2188-1.79687q0 .60937.39065 1 .40625.39062 1.03125.39062.6094 0 1-.375.3906-.39062.3906-.95312 0-.57813-.4062-.96875-.4063-.40625-1-.40625-.6094 0-1.01565.39062-.39065.39063-.39065.92188zm-.3281 3.96875q0 .45312.2031.875.2188.42187.64065.65625.42185.23437.90625.23437.75 0 1.2344-.48437.5-.48438.5-1.23438 0-.76562-.5-1.26562-.5-.5-1.26565-.5-.75 0-1.23435.5-.4844.48437-.4844 1.21875z" stroke="#fff" stroke-linecap="round" stroke-linejoin="round" stroke-width="3"/>
  <path d="m759.345 226.40565q-.6563-.25-.9844-.6875-.3125-.45312-.3125-1.0625 0-.9375.6719-1.57812.6875-.64063 1.79685-.64063 1.125 0 1.8125.65625.6875.65625.6875 1.59375 0 .59375-.3125 1.03125-.3125.4375-.95315.6875.7969.25 1.20315.82813.40625.57812.40625 1.375 0 1.09375-.78125 1.84375-.76565.75-2.04685.75-1.26565 0-2.0469-.75-.78125-.75-.78125-1.875 0-.84375.42185-1.40625.4375-.5625 1.2188-.76563zm-.2188-1.79687q0 .60937.39065 1 .40625.39062 1.03125.39062.6094 0 1-.375.3906-.39062.3906-.95312 0-.57813-.4062-.96875-.4063-.40625-1-.40625-.6094 0-1.01565.39062-.39065.39063-.39065.92188zm-.3281 3.96875q0 .45312.2031.875.2188.42187.64065.65625.42185.23437.90625.23437.75 0 1.2344-.48437.5-.48438.5-1.23438 0-.76562-.5-1.26562-.5-.5-1.26565-.5-.75 0-1.23435.5-.4844.48437-.4844 1.21875zm6.4844 2.48437v-1.20312h1.2031v1.20312q0 .65625-.2344 1.0625-.23435.42188-.73435.64063l-.29685-.45313q.3281-.14062.48435-.4375.15625-.28125.1875-.8125zm2.4375-4.23437q0-1.53125.3125-2.45313.3125-.9375.92185-1.4375.625-.5 1.5625-.5.6875 0 1.20315.28125.5312.28125.875.8125.3437.51563.5312 1.26563.1875.75.1875 2.03125 0 1.51562-.3125 2.4375-.29685.92187-.92185 1.4375-.60935.5-1.5625.5-1.23435 0-1.95315-.89063-.8437-1.0625-.8437-3.48437zm1.0781 0q0 2.10937.5 2.8125.5.70312 1.21875.70312.73435 0 1.21875-.70312.5-.70313.5-2.8125 0-2.125-.5-2.8125-.4844-.70313-1.2344-.70313-.7187 0-1.1562.60938-.5469.78125-.5469 2.90625zm5.9219 0q0-1.53125.3125-2.45313.3125-.9375.92185-1.4375.625-.5 1.5625-.5.6875 0 1.20315.28125.5312.28125.875.8125.3437.51563.5312 1.26563.1875.75.1875 2.03125 0 1.51562-.3125 2.4375-.29685.92187-.92185 1.4375-.60935.5-1.5625.5-1.23435 0-1.95315-.89063-.8437-1.0625-.8437-3.48437zm1.0781 0q0 2.10937.5 2.8125.5.70312 1.21875.70312.73435 0 1.21875-.70312.5-.70313.5-2.8125 0-2.125-.5-2.8125-.4844-.70313-1.2344-.70313-.7187 0-1.1562.60938-.5469.78125-.5469 2.90625zm7.5469-.42188q-.6563-.25-.9844-.6875-.3125-.45312-.3125-1.0625 0-.9375.6719-1.57812.6875-.64063 1.79685-.64063 1.125 0 1.8125.65625.6875.65625.6875 1.59375 0 .59375-.3125 1.03125-.3125.4375-.95315.6875.7969.25 1.20315.82813.40625.57812.40625 1.375 0 1.09375-.78125 1.84375-.76565.75-2.04685.75-1.26565 0-2.0469-.75-.78125-.75-.78125-1.875 0-.84375.42185-1.40625.4375-.5625 1.2188-.76563zm-.2188-1.79687q0 .60937.39065 1 .40625.39062 1.03125.39062.6094 0 1-.375.3906-.39062.3906-.95312 0-.57813-.4062-.96875-.4063-.40625-1-.40625-.6094 0-1.01565.39062-.39065.39063-.39065.92188zm-.3281 3.96875q0 .45312.2031.875.2188.42187.64065.65625.42185.23437.90625.23437.75 0 1.2344-.48437.5-.48438.5-1.23438 0-.76562-.5-1.26562-.5-.5-1.26565-.5-.75 0-1.23435.5-.4844.48437-.4844 1.21875z" fill="#ea4335"/>
  <path d="m898.04297 94.90731h-1.04687v-6.71875q-.39063.359375-1.01563.734375-.60937.359375-1.09377.53125v-1.015625q.875-.421875 1.53127-1 .67187-.59375.95313-1.15625h.67187zm7 0h-1.04687v-6.71875q-.39063.359375-1.01563.734375-.60937.359375-1.09377.53125v-1.015625q.875-.421875 1.53127-1 .67187-.59375.95313-1.15625h.67187zm3.59373 0v-1.203125h1.20314v1.203125q0 .65625-.23437 1.0625-.23437.421875-.73437.640625l-.2969-.453125q.32814-.140625.4844-.4375.15624-.28125.1875-.8125zm2.4375-2.265625 1.0625-.140625q.1719.890625.6094 1.296875.4375.390625 1.0625.390625.75 0 1.2656-.515625.51564-.515625.51564-1.28125 0-.71875-.48437-1.1875-.46877-.484375-1.20313-.484375-.29687 0-.75.125l.125-.9375q.10936.015625.17186.015625.6719 0 1.20314-.34375.54686-.359375.54686-1.09375 0-.578125-.3906-.953125-.39063-.390625-1.01563-.390625-.60937 0-1.03127.390625-.40623.390625-.5156 1.15625l-1.0625-.1875q.1875-1.046875.875-1.625.6875-.59375 1.7031-.59375.70314 0 1.2969.3125.59374.296875.90624.8125.3125.515625.3125 1.109375 0 .546875-.29687 1.015625-.29687.453125-.875.71875.75.171875 1.17187.734375.42186.546875.42186 1.390625 0 1.125-.8281 1.90625-.8125.78125-2.0625.78125-1.125 0-1.875-.671875-.75-.6875-.8594-1.75zm10.96877 2.265625h-1.04687v-6.71875q-.39063.359375-1.01563.734375-.60937.359375-1.09377.53125v-1.015625q.875-.421875 1.53127-1 .67187-.59375.95313-1.15625h.67187zm3.03123-4.234375q0-1.53125.3125-2.453125.3125-.9375.9219-1.4375.625-.5 1.5625-.5.6875 0 1.2031.28125.53127.28125.875.8125.34377.515625.53127 1.265625.1875.75.1875 2.03125 0 1.515625-.3125 2.4375-.29687.921875-.92187 1.4375-.6094.5-1.5625.5-1.2344 0-1.95313-.890625-.84377-1.0625-.84377-3.484375zm1.07814 0q0 2.109375.5 2.8125.5.703125 1.21876.703125.73437 0 1.21874-.703125.5-.703125.5-2.8125 0-2.125-.5-2.8125-.48437-.703125-1.23437-.703125-.71877 0-1.15627.609375-.54686.78125-.54686 2.90625zm5.98436-3.234375v-1.015625h5.5625v.828125q-.8125.875-1.625 2.328125-.79686 1.4375-1.23436 2.96875-.32814 1.078125-.40624 2.359375h-1.09376q.01563-1.015625.39063-2.453125.39063-1.4375 1.09373-2.765625.71877-1.328125 1.53127-2.25zm6.9375 5.203125 1.0625-.140625q.1719.890625.6094 1.296875.4375.390625 1.0625.390625.75 0 1.2656-.515625.51564-.515625.51564-1.28125 0-.71875-.48437-1.1875-.46877-.484375-1.20313-.484375-.29687 0-.75.125l.125-.9375q.10936.015625.17186.015625.6719 0 1.20314-.34375.54686-.359375.54686-1.09375 0-.578125-.3906-.953125-.39063-.390625-1.01563-.390625-.60937 0-1.03127.390625-.40623.390625-.5156 1.15625l-1.0625-.1875q.1875-1.046875.875-1.625.6875-.59375 1.7031-.59375.70314 0 1.2969.3125.59374.296875.90624.8125.3125.515625.3125 1.109375 0 .546875-.29687 1.015625-.29687.453125-.875.71875.75.171875 1.17187.734375.42186.546875.42186 1.390625 0 1.125-.8281 1.90625-.8125.78125-2.0625.78125-1.125 0-1.875-.671875-.75-.6875-.8594-1.75zm10.375 2.265625v-2.0625h-3.71873v-.96875l3.92187-5.5625h.85936v5.5625h1.15627v.96875h-1.15627v2.0625zm0-3.03125v-3.859375l-2.6875 3.859375zm7 3.03125v-2.0625h-3.71873v-.96875l3.92187-5.5625h.85936v5.5625h1.15627v.96875h-1.15627v2.0625zm0-3.03125v-3.859375l-2.6875 3.859375zm9.09377-3.453125-1.04687.078125q-.14063-.625-.39063-.90625-.4375-.453125-1.0625-.453125-.5 0-.89063.28125-.48437.375-.78124 1.078125-.28126.6875-.2969 1.96875.375-.578125.9219-.859375.5625-.28125 1.17187-.28125 1.04687 0 1.78123.78125.75.78125.75 2 0 .8125-.35936 1.515625-.34374.6875-.95314 1.0625-.60936.359375-1.375.359375-1.3281 0-2.15623-.96875-.82813-.96875-.82813-3.1875 0-2.5.92186-3.625.7969-.984375 2.15627-.984375 1.01563 0 1.65623.578125.65627.5625.78127 1.5625zm-4.29687 3.703125q0 .546875.21874 1.046875.23436.484375.64063.75.42187.265625.89063.265625.65624 0 1.1406-.53125.4844-.546875.4844-1.46875 0-.890625-.4844-1.40625-.46873-.515625-1.1875-.515625-.71873 0-1.21873.515625-.48437.515625-.48437 1.34375z" stroke="#fff" stroke-linecap="round" stroke-linejoin="round" stroke-width="3"/>
  <path d="m898.04297 94.90731h-1.04687v-6.71875q-.39063.359375-1.01563.734375-.60937.359375-1.09377.53125v-1.015625q.875-.421875 1.53127-1 .67187-.59375.95313-1.15625h.67187zm7 0h-1.04687v-6.71875q-.39063.359375-1.01563.734375-.60937.359375-1.09377.53125v-1.015625q.875-.421875 1.53127-1 .67187-.59375.95313-1.15625h.67187zm3.59373 0v-1.203125h1.20314v1.203125q0 .65625-.23437 1.0625-.23437.421875-.73437.640625l-.2969-.453125q.32814-.140625.4844-.4375.15624-.28125.1875-.8125zm2.4375-2.265625 1.0625-.140625q.1719.890625.6094 1.296875.4375.390625 1.0625.390625.75 0 1.2656-.515625.51564-.515625.51564-1.28125 0-.71875-.48437-1.1875-.46877-.484375-1.20313-.484375-.29687 0-.75.125l.125-.9375q.10936.015625.17186.015625.6719 0 1.20314-.34375.54686-.359375.54686-1.09375 0-.578125-.3906-.953125-.39063-.390625-1.01563-.390625-.60937 0-1.03127.390625-.40623.390625-.5156 1.15625l-1.0625-.1875q.1875-1.046875.875-1.625.6875-.59375 1.7031-.59375.70314 0 1.2969.3125.59374.296875.90624.8125.3125.515625.3125 1.109375 0 .546875-.29687 1.015625-.29687.453125-.875.71875.75.171875 1.17187.734375.42186.546875.42186 1.390625 0 1.125-.8281 1.90625-.8125.78125-2.0625.78125-1.125 0-1.875-.671875-.75-.6875-.8594-1.75zm10.96877 2.265625h-1.04687v-6.71875q-.39063.359375-1.01563.734375-.60937.359375-1.09377.53125v-1.015625q.875-.421875 1.53127-1 .67187-.59375.95313-1.15625h.67187zm3.03123-4.234375q0-1.53125.3125-2.453125.3125-.9375.9219-1.4375.625-.5 1.5625-.5.6875 0 1.2031.28125.53127.28125.875.8125.34377.515625.53127 1.265625.1875.75.1875 2.03125 0 1.515625-.3125 2.4375-.29687.921875-.92187 1.4375-.6094.5-1.5625.5-1.2344 0-1.95313-.890625-.84377-1.0625-.84377-3.484375zm1.07814 0q0 2.109375.5 2.8125.5.703125 1.21876.703125.73437 0 1.21874-.703125.5-.703125.5-2.8125 0-2.125-.5-2.8125-.48437-.703125-1.23437-.703125-.71877 0-1.15627.609375-.54686.78125-.54686 2.90625zm5.98436-3.234375v-1.015625h5.5625v.828125q-.8125.875-1.625 2.328125-.79686 1.4375-1.23436 2.96875-.32814 1.078125-.40624 2.359375h-1.09376q.01563-1.015625.39063-2.453125.39063-1.4375 1.09373-2.765625.71877-1.328125 1.53127-2.25zm6.9375 5.203125 1.0625-.140625q.1719.890625.6094 1.296875.4375.390625 1.0625.390625.75 0 1.2656-.515625.51564-.515625.51564-1.28125 0-.71875-.48437-1.1875-.46877-.484375-1.20313-.484375-.29687 0-.75.125l.125-.9375q.10936.015625.17186.015625.6719 0 1.20314-.34375.54686-.359375.54686-1.09375 0-.578125-.3906-.953125-.39063-.390625-1.01563-.390625-.60937 0-1.03127.390625-.40623.390625-.5156 1.15625l-1.0625-.1875q.1875-1.046875.875-1.625.6875-.59375 1.7031-.59375.70314 0 1.2969.3125.59374.296875.90624.8125.3125.515625.3125 1.109375 0 .546875-.29687 1.015625-.29687.453125-.875.71875.75.171875 1.17187.734375.42186.546875.42186 1.390625 0 1.125-.8281 1.90625-.8125.78125-2.0625.78125-1.125 0-1.875-.671875-.75-.6875-.8594-1.75zm10.375 2.265625v-2.0625h-3.71873v-.96875l3.92187-5.5625h.85936v5.5625h1.15627v.96875h-1.15627v2.0625zm0-3.03125v-3.859375l-2.6875 3.859375zm7 3.03125v-2.0625h-3.71873v-.96875l3.92187-5.5625h.85936v5.5625h1.15627v.96875h-1.15627v2.0625zm0-3.03125v-3.859375l-2.6875 3.859375zm9.09377-3.453125-1.04687.078125q-.14063-.625-.39063-.90625-.4375-.453125-1.0625-.453125-.5 0-.89063.28125-.48437.375-.78124 1.078125-.28126.6875-.2969 1.96875.375-.578125.9219-.859375.5625-.28125 1.17187-.28125 1.04687 0 1.78123.78125.75.78125.75 2 0 .8125-.35936 1.515625-.34374.6875-.95314 1.0625-.60936.359375-1.375.359375-1.3281 0-2.15623-.96875-.82813-.96875-.82813-3.1875 0-2.5.92186-3.625.7969-.984375 2.15627-.984375 1.01563 0 1.65623.578125.65627.5625.78127 1.5625zm-4.29687 3.703125q0 .546875.21874 1.046875.23436.484375.64063.75.42187.265625.89063.265625.65624 0 1.1406-.53125.4844-.546875.4844-1.46875 0-.890625-.4844-1.40625-.46873-.515625-1.1875-.515625-.71873 0-1.21873.515625-.48437.515625-.48437 1.34375z" fill="#ea4335"/>
  <g fill="#000">
    <path d="m559.1094 642.05v-7.57814h-2.82815v-1.01562h6.8125v1.01562h-2.84375v7.57814zm4.6875 0v-8.59376h1.04685v3.07812q.73435-.84376 1.85935-.84376.70315 0 1.20315.28126.51565.26564.73435.75.2188.46874.2188 1.39064v3.9375h-1.0469v-3.9375q0-.7969-.34375-1.15626-.34375-.35938-.96875-.35938-.46875 0-.8906.25-.4063.23438-.5938.65624-.17185.40626-.17185 1.14064v3.40626zm6.98435 0v-6.21876h.95315v.9375q.35935-.65624.6562-.85938.3125-.21876.6875-.21876.5313 0 1.07815.32814l-.35935.98436q-.39065-.23436-.76565-.23436-.35935 0-.64065.21876-.2656.2031-.375.5781-.1875.5625-.1875 1.21876v3.26564zm8.26565-2 1.0937.125q-.25.9531-.9531 1.48436-.7031.53124-1.78125.53124-1.35935 0-2.17185-.84374-.7969-.84376-.7969-2.35936 0-1.5625.8125-2.4219.8125-.875 2.09375-.875 1.25 0 2.03125.84376.7969.84374.7969 2.39064 0 .09374 0 .28124h-4.64065q.0625 1.03126.57815 1.57812.5156.53124 1.29685.53124.57815 0 .98435-.29686.4219-.3125.6563-.96874zm-3.45315-1.70314h3.46875q-.0625-.79686-.3906-1.1875-.51565-.60936-1.3125-.60936-.7344 0-1.2344.48436-.4844.48438-.53125 1.3125zm10.26565 2.9375q-.5938.5-1.14065.70314-.53125.2031-1.15625.2031-1.03125 0-1.5781-.5-.5469-.5-.5469-1.28124 0-.45312.2031-.82812.20315-.39064.5469-.60938.34375-.23436.7656-.34376.2969-.09374.9375-.17186 1.26565-.14064 1.875-.35938 0-.21876 0-.26562 0-.65624-.29685-.92188-.40625-.34376-1.20315-.34376-.73435 0-1.0937.26564-.3594.25-.5313.90626l-1.0312-.14064q.1406-.65626.4687-1.0625.32815-.40626.9375-.625.6094-.21876 1.4063-.21876.79685 0 1.29685.1875.5.1875.73435.46876.2344.28124.32815.71874.04685.26564.04685.96876v1.40624q0 1.46876.0625 1.8594.07815.3906.2813.75h-1.1094q-.15625-.32814-.2031-.76564zm-.0938-2.35936q-.5781.23436-1.7187.40624-.6563.09376-.9219.21876-.2656.10936-.4219.3281-.1406.21876-.1406.5 0 .4219.3125.70314.3281.28126.9375.28126.6094 0 1.0781-.26564.4844-.26562.70315-.73436.17185-.3594.17185-1.0469zm7.0625 3.125v-.78126q-.5937.92186-1.73435.92186-.75 0-1.375-.40624-.625-.42186-.96875-1.15626-.34375-.73436-.34375-1.6875 0-.92186.3125-1.6875.3125-.7656.9375-1.15624.625-.40626 1.39065-.40626.5625 0 1 .2344.4375.23436.7187.60936v-3.07812h1.0469v8.59376zm-3.3281-3.1094q0 1.20314.5 1.7969.5.5781 1.1875.5781.6875 0 1.1719-.5625.48435-.5625.48435-1.71874 0-1.28126-.5-1.875-.48435-.59376-1.20315-.59376-.7031 0-1.17185.57814-.46875.5625-.46875 1.79686zm5.875 1.25 1.03125-.15624q.09375.625.48435.95314.4063.3281 1.14065.3281.71875 0 1.0625-.28124.35935-.29686.35935-.70312 0-.35938-.3125-.5625-.2187-.14064-1.0781-.35938-1.15625-.29686-1.6094-.5-.4375-.21876-.67185-.59376-.23435-.375-.23435-.84374 0-.40626.1875-.76562.1875-.35938.5156-.59374.25-.1719.6719-.2969.42185-.125.92185-.125.71875 0 1.26565.21876.5625.20314.8281.5625.2656.35938.3594.95314l-1.0313.1406q-.0625-.46874-.4062-.73436-.32815-.28124-.95315-.28124-.71875 0-1.03125.25-.3125.23436-.3125.5625 0 .2031.125.35936.1406.17188.40625.28124.15625.0625.9375.26564 1.125.3125 1.5625.5.4375.1875.6875.54686.25.3594.25.90626 0 .53124-.3125 1-.29685.45314-.875.71874-.57815.25-1.3125.25-1.21875 0-1.85935-.5-.625-.5156-.7969-1.5z"/>
    <path d="m42.184364 366.2698-.09375-1.0625q.65625-.07812 1.0625-.35937.40625-.28125.671876-.85937.25-.59376.25-1.32813 0-.64063-.1875-1.14063-.203126-.5-.53125-.73437-.34375-.25-.734376-.25-.40625 0-.703124.23437-.3125.23438-.515626.76563-.140624.35937-.421874 1.54687-.28125 1.17188-.53125 1.64063-.328126.625-.796876.92187-.484374.29688-1.078124.29688-.640626 0-1.203126-.35938-.578124-.375-.859374-1.07812-.296876-.71875-.296876-1.57812 0-.95313.3125-1.6875.296876-.73438.90625-1.125.59375-.39063 1.34375-.42188l.078126 1.09375q-.8125.09375-1.21875.60937-.421876.5-.421876 1.48438 0 1.03125.375 1.5.375.46875.90625.46875.46875 0 .765626-.32813.296874-.32812.609374-1.70312.3125-1.39062.546876-1.90625.359374-.75.890624-1.10937.515626-.35938 1.21875-.35938.6875 0 1.296876.39062.59375.39063.9375 1.125.328124.73438.328124 1.65626 0 1.17187-.328124 1.96874-.34375.78126-1.03125 1.23438-.6875.4375-1.546876.45312zm5.15625-8.25h-8.609374v-.95312h.796874q-.46875-.34375-.703124-.76562-.234376-.4375-.234376-1.04688 0-.79688.40625-1.40625.40625-.60937 1.15625-.90625.75-.3125 1.640626-.3125.953124 0 1.71875.34375.765624.32813 1.171874.98437.40625.65626.40625 1.375 0 .53126-.21875.95313-.234374.42187-.5625.6875h3.03125zm-5.46875-.95312q1.203126 0 1.78125-.48438.5625-.48437.5625-1.17187 0-.70313-.59375-1.20313-.59375-.5-1.84375-.5-1.1875 0-1.765624.48438-.59375.48438-.59375 1.17188 0 .67187.625 1.1875.625.51562 1.828124.51562zm1.078126-10.29688.125-1.09374q.953124.25 1.484374.95312.53125.70312.53125 1.78125 0 1.35937-.84375 2.17187-.84375.79688-2.359374.79688-1.5625 0-2.421876-.8125-.875-.8125-.875-2.09375 0-1.25.84375-2.03125.84375-.79688 2.390626-.79688.09375 0 .28125 0v4.64063q1.03125-.0625 1.578124-.57813.53125-.51562.53125-1.29687 0-.57813-.296874-.98437-.3125-.42188-.96875-.65626zm-1.703126 3.45313v-3.46875q-.796874.0625-1.1875.39062-.609374.51563-.609374 1.3125 0 .73438.484374 1.23438.484376.48438 1.3125.53125zm1.703126-10.45313.125-1.09374q.953124.25 1.484374.95312.53125.70312.53125 1.78125 0 1.35937-.84375 2.17187-.84375.79688-2.359374.79688-1.5625 0-2.421876-.8125-.875-.8125-.875-2.09375 0-1.25.84375-2.03125.84375-.79688 2.390626-.79688.09375 0 .28125 0v4.64063q1.03125-.0625 1.578124-.57813.53125-.51562.53125-1.29687 0-.57813-.296874-.98437-.3125-.42188-.96875-.65626zm-1.703126 3.45313v-3.46875q-.796874.0625-1.1875.39062-.609374.51563-.609374 1.3125 0 .73438.484374 1.23438.484376.48438 1.3125.53125zm3.703126-10.23437h-.78125q.921874.59374.921874 1.73437 0 .75-.40625 1.375-.421874.625-1.15625.96875-.734374.34375-1.6875.34375-.921874 0-1.6875-.3125-.765624-.3125-1.15625-.9375-.40625-.625-.40625-1.39063 0-.5625.234376-1 .234374-.4375.609374-.71874h-3.078124v-1.04688h8.59375zm-3.109376 3.32812q1.203126 0 1.796876-.5.578124-.5.578124-1.1875 0-.6875-.5625-1.17188-.5625-.48437-1.71875-.48437-1.28125 0-1.875.5-.59375.48437-.59375 1.20313 0 .70312.578126 1.17187.5625.46875 1.796874.46875zm3.109376-10.375h-.921876q1.0625.73438 1.0625 1.98438 0 .54687-.203124 1.03124-.21875.46876-.53125.70313-.328126.23437-.796876.32813-.296874.0625-.984374.0625h-3.84375v-1.0625h3.453124q.8125 0 1.109376-.0625.40625-.09376.65625-.40626.234374-.32812.234374-.8125 0-.46874-.234374-.875-.25-.42187-.671876-.59374-.421874-.1875-1.21875-.1875h-3.328124v-1.04688h6.21875zm2.390624-2.92188h-8.609374v-.95312h.796874q-.46875-.34375-.703124-.76562-.234376-.4375-.234376-1.04688 0-.79688.40625-1.40625.40625-.60937 1.15625-.90625.75-.3125 1.640626-.3125.953124 0 1.71875.34375.765624.32813 1.171874.98437.40625.65626.40625 1.375 0 .53126-.21875.95313-.234374.42187-.5625.6875h3.03125zm-5.46875-.95312q1.203126 0 1.78125-.48438.5625-.48437.5625-1.17187 0-.70313-.59375-1.20313-.59375-.5-1.84375-.5-1.1875 0-1.765624.48438-.59375.48438-.59375 1.17188 0 .67187.625 1.1875.625.51562 1.828124.51562z"/>
    <path d="m80.45 592.8156q0-1.53124.3125-2.4531.3125-.9375.92187-1.4375.625-.5 1.5625-.5.6875 0 1.20313.28124.53125.28126.875.8125.34375.51562.53125 1.26562.1875.75.1875 2.03124 0 1.51564-.3125 2.4375-.29688.9219-.92188 1.4375-.60937.5-1.5625.5-1.23437 0-1.95312-.8906-.84375-1.0625-.84375-3.4844zm1.07812 0q0 2.1094.5 2.8125.5.70314 1.21875.70314.73438 0 1.21875-.70314.5-.7031.5-2.8125 0-2.125-.5-2.8125-.48437-.7031-1.23437-.7031-.71875 0-1.15625.60936-.54688.78124-.54688 2.90624z"/>
    <path d="m85.99687 510.12326v1.01564h-5.6875q0-.375.125-.7344.21875-.5781.6875-1.1406.48438-.5625 1.39063-1.2969 1.40625-1.15624 1.89062-1.8281.5-.6719.5-1.26564 0-.625-.45312-1.04686-.45313-.4375-1.17188-.4375-.76562 0-1.21875.4531-.45312.45314-.46875 1.26564l-1.07812-.10938q.10937-1.21876.82812-1.84376.73438-.6406 1.96875-.6406 1.23438 0 1.95313.6875.71875.6875.71875 1.7031 0 .51564-.21875 1.01564-.20313.48436-.70313 1.04686-.48437.5469-1.60937 1.5-.95313.7969-1.23438 1.09376-.26562.28124-.4375.5625z"/>
    <path d="m83.825 425.22778v-2.0625h-3.71875v-.96875l3.92187-5.5625h.85938v5.5625h1.15625v.96875h-1.15625v2.0625zm0-3.03125v-3.85937l-2.6875 3.85937z"/>
    <path d="m85.91875 332.8323-1.04688.07813q-.14062-.625-.39062-.90625-.4375-.45312-1.0625-.45312-.5 0-.89063.28124-.48437.375-.78125 1.07813-.28125.6875-.29687 1.96875.375-.57812.92187-.85938.5625-.28124 1.17188-.28124 1.04687 0 1.78125.78124.75.78126.75 2 0 .8125-.35938 1.51563-.34375.6875-.95312 1.0625-.60938.35937-1.375.35937-1.32813 0-2.15625-.96874-.82813-.96876-.82813-3.1875 0-2.5.92188-3.625.79687-.98438 2.15625-.98438 1.01562 0 1.65625.57812.65625.5625.78125 1.5625zm-4.29688 3.70313q0 .54687.21875 1.04687.23438.48438.64063.75.42187.26563.89062.26563.65625 0 1.14063-.53125.48437-.54688.48437-1.46875 0-.89063-.48437-1.40625-.46875-.51562-1.1875-.51562-.71875 0-1.21875.51562-.48438.51562-.48438 1.34375z"/>
    <path d="m82.075 248.7493q-.65625-.25-.98438-.6875-.3125-.45313-.3125-1.0625 0-.9375.67188-1.57813.6875-.64062 1.79687-.64062 1.125 0 1.8125.65625.6875.65625.6875 1.59375 0 .59375-.3125 1.03125-.3125.4375-.95312.6875.79687.25 1.20312.82812.40625.57813.40625 1.375 0 1.09375-.78125 1.84375-.76562.75-2.04687.75-1.26563 0-2.04688-.75-.78125-.75-.78125-1.875 0-.84375.42188-1.40625.4375-.5625 1.21875-.76562zm-.21875-1.79688q0 .60938.39062 1 .40625.39063 1.03125.39063.60938 0 1-.375.39063-.39063.39063-.95313 0-.57812-.40625-.96875-.40625-.40625-1-.40625-.60938 0-1.01563.39063-.39062.39062-.39062.92187zm-.32813 3.96875q0 .45313.20313.875.21875.42188.64062.65625.42188.23438.90625.23438.75 0 1.23438-.48438.5-.48437.5-1.23437 0-.76563-.5-1.26563-.5-.5-1.26563-.5-.75 0-1.23437.5-.48438.48438-.48438 1.21875z"/>
    <path d="m77.41875 167.49445h-1.04688v-6.71875q-.39062.35937-1.01562.73437-.60938.35938-1.09375.53125v-1.01562q.875-.42188 1.53125-1 .67187-.59375.95312-1.15625h.67188zm3.03125-4.23438q0-1.53125.3125-2.45312.3125-.9375.92187-1.4375.625-.5 1.5625-.5.6875 0 1.20313.28125.53125.28125.875.8125.34375.51562.53125 1.26562.1875.75.1875 2.03125 0 1.51563-.3125 2.4375-.29688.92188-.92188 1.4375-.60937.5-1.5625.5-1.23437 0-1.95312-.89062-.84375-1.0625-.84375-3.48438zm1.07812 0q0 2.10938.5 2.8125.5.70313 1.21875.70313.73438 0 1.21875-.70313.5-.70312.5-2.8125 0-2.125-.5-2.8125-.48437-.70312-1.23437-.70312-.71875 0-1.15625.60937-.54688.78125-.54688 2.90625z"/>
    <path d="m77.41875 81.583336h-1.04688v-6.71875q-.39062.359374-1.01562.734374-.60938.359376-1.09375.53125v-1.015624q.875-.421876 1.53125-1 .67187-.59375.95312-1.15625h.67188zm8.57812-1.015626v1.015626h-5.6875q0-.375.125-.734376.21875-.578124.6875-1.140624.48438-.5625 1.39063-1.296876 1.40625-1.15625 1.89062-1.828124.5-.671876.5-1.265626 0-.625-.45312-1.046874-.45313-.4375-1.17188-.4375-.76562 0-1.21875.453124-.45312.453126-.46875 1.265626l-1.07812-.109376q.10937-1.21875.82812-1.84375.73438-.640624 1.96875-.640624 1.23438 0 1.95313.6875.71875.6875.71875 1.703124 0 .515626-.21875 1.015626-.20313.484374-.70313 1.046874-.48437.546876-1.60937 1.5-.95313.796876-1.23438 1.09375-.26562.28125-.4375.5625z"/>
    <path d="m191.02875 610.05h-1.04688v-6.71876q-.39062.35936-1.01562.73436-.60938.3594-1.09375.53126v-1.01562q.875-.42188 1.53125-1 .67187-.59374.95312-1.15624h.67188z"/>
    <path d="m386.82687 609.03436v1.01564h-5.6875q0-.375.125-.7344.21875-.5781.6875-1.1406.48438-.5625 1.39063-1.2969 1.40625-1.15624 1.89062-1.8281.5-.6719.5-1.26564 0-.625-.45312-1.04686-.45313-.4375-1.17188-.4375-.76562 0-1.21875.4531-.45312.45314-.46875 1.26564l-1.07812-.10938q.10937-1.21876.82812-1.84376.73438-.6406 1.96875-.6406 1.23438 0 1.95313.6875.71875.6875.71875 1.7031 0 .51564-.21875 1.01564-.20313.48436-.70313 1.04686-.48437.5469-1.60937 1.5-.95313.7969-1.23438 1.09376-.26562.28124-.4375.5625z"/>
    <path d="m578.875 610.05v-2.0625h-3.71875v-.96876l3.92185-5.5625h.8594v5.5625h1.15625v.96876h-1.15625v2.0625zm0-3.03126v-3.85938l-2.6875 3.85938z"/>
    <path d="m771.345 605.39374q-.6563-.25-.9844-.6875-.3125-.45314-.3125-1.0625 0-.9375.6719-1.57814.6875-.6406 1.79685-.6406 1.125 0 1.8125.65624.6875.65626.6875 1.59376 0 .59374-.3125 1.03124-.3125.4375-.95315.6875.7969.25 1.20315.82812.40625.57814.40625 1.375 0 1.09374-.78125 1.84374-.76565.75-2.04685.75-1.26565 0-2.0469-.75-.78125-.75-.78125-1.875 0-.84374.42185-1.40624.4375-.5625 1.2188-.76562zm-.2188-1.79688q0 .60938.39065 1 .40625.39064 1.03125.39064.6094 0 1-.375.3906-.39064.3906-.95314 0-.57812-.4062-.96876-.4063-.40624-1-.40624-.6094 0-1.01565.39064-.39065.3906-.39065.92186zm-.3281 3.96874q0 .45314.2031.875.2188.4219.64065.65626.42185.23438.90625.23438.75 0 1.2344-.48438.5-.48436.5-1.23436 0-.76564-.5-1.26564-.5-.5-1.26565-.5-.75 0-1.23435.5-.4844.48438-.4844 1.21874z"/>
    <path d="m964.40875 610.05h-1.04685v-6.71876q-.39065.35936-1.01565.73436-.60935.3594-1.09375.53126v-1.01562q.875-.42188 1.53125-1 .67185-.59374.95315-1.15624h.67185zm8.5-6.4844-1.04685.07814q-.14065-.625-.39065-.90624-.4375-.45314-1.0625-.45314-.5 0-.89065.28124-.48435.375-.7812 1.07814-.2813.6875-.2969 1.96876.375-.57814.9219-.8594.5625-.28124 1.17185-.28124 1.04685 0 1.78125.78124.75.78126.75 2 0 .8125-.3594 1.51564-.3437.6875-.9531 1.0625-.6094.35936-1.375.35936-1.3281 0-2.15625-.96874-.82815-.96876-.82815-3.1875 0-2.5.9219-3.625.7969-.98436 2.15625-.98436 1.01565 0 1.65625.5781.65625.5625.78125 1.5625zm-4.29685 3.70314q0 .54686.2187 1.04686.2344.4844.64065.75.42185.26564.89065.26564.6562 0 1.1406-.53124.4844-.5469.4844-1.46876 0-.89064-.4844-1.40624-.46875-.51564-1.1875-.51564-.71875 0-1.21875.51564-.48435.5156-.48435 1.34374z"/>
  </g>
  <path d="m415.5 40.95c0 3.31371-2.68628 6-6 6s-6-2.68629-6-6 2.68628-6 6-6 6 2.68629 6 6z" fill="#4285f4"/>
  <path d="m424 42.7 1.10938-.09375q.125.8125.5625 1.21875.45312.40625 1.09374.40625.75 0 1.28126-.578124.53124-.578126.53124-1.515626 0-.90625-.51562-1.421874-.5-.53125-1.32812-.53125-.5 0-.92188.234374-.40625.234376-.64062.59375l-.98438-.125.82812-4.40625h4.28126v1h-3.4375l-.45313 2.3125q.76563-.546874 1.60937-.546874 1.125 0 1.89063.78125.78125.78125.78125 2.015624 0 1.15625-.67188 2.015626-.82812 1.03125-2.25 1.03125-1.17187 0-1.92187-.65625-.73437-.65625-.84375-1.734376zm7-1.984374q0-1.53125.3125-2.453126.3125-.9375.92188-1.4375.625-.5 1.5625-.5.6875 0 1.20312.28125.53125.28125.875.8125.34375.515626.53125 1.265626.1875.75.1875 2.03125 0 1.515624-.3125 2.4375-.29687.921874-.92187 1.4375-.60938.5-1.5625.5-1.23438 0-1.95313-.890626-.84375-1.0625-.84375-3.484374zm1.07812 0q0 2.109374.5 2.8125.5.703124 1.21876.703124.73437 0 1.21874-.703124.5-.703126.5-2.8125 0-2.125-.5-2.8125-.48437-.703126-1.23437-.703126-.71875 0-1.15625.609376-.54688.78125-.54688 2.90625zm5.92188 0q0-1.53125.3125-2.453126.3125-.9375.92188-1.4375.625-.5 1.5625-.5.6875 0 1.20312.28125.53125.28125.875.8125.34375.515626.53125 1.265626.1875.75.1875 2.03125 0 1.515624-.3125 2.4375-.29687.921874-.92187 1.4375-.60938.5-1.5625.5-1.23438 0-1.95313-.890626-.84375-1.0625-.84375-3.484374zm1.07812 0q0 2.109374.5 2.8125.5.703124 1.21876.703124.73437 0 1.21874-.703124.5-.703126.5-2.8125 0-2.125-.5-2.8125-.48437-.703126-1.23437-.703126-.71875 0-1.15625.609376-.54688.78125-.54688 2.90625zm5.92188 0q0-1.53125.3125-2.453126.3125-.9375.92188-1.4375.625-.5 1.5625-.5.6875 0 1.20312.28125.53125.28125.875.8125.34375.515626.53125 1.265626.1875.75.1875 2.03125 0 1.515624-.3125 2.4375-.29687.921874-.92187 1.4375-.60938.5-1.5625.5-1.23438 0-1.95313-.890626-.84375-1.0625-.84375-3.484374zm1.07812 0q0 2.109374.5 2.8125.5.703124 1.21876.703124.73437 0 1.21874-.703124.5-.703126.5-2.8125 0-2.125-.5-2.8125-.48437-.703126-1.23437-.703126-.71875 0-1.15625.609376-.54688.78125-.54688 2.90625zm5.92188 0q0-1.53125.3125-2.453126.3125-.9375.92188-1.4375.625-.5 1.5625-.5.6875 0 1.20312.28125.53125.28125.875.8125.34375.515626.53125 1.265626.1875.75.1875 2.03125 0 1.515624-.3125 2.4375-.29687.921874-.92187 1.4375-.60938.5-1.5625.5-1.23438 0-1.95313-.890626-.84375-1.0625-.84375-3.484374zm1.07812 0q0 2.109374.5 2.8125.5.703124 1.21876.703124.73437 0 1.21874-.703124.5-.703126.5-2.8125 0-2.125-.5-2.8125-.48437-.703126-1.23437-.703126-.71875 0-1.15625.609376-.54688.78125-.54688 2.90625zm5.92188 0q0-1.53125.3125-2.453126.3125-.9375.92188-1.4375.625-.5 1.5625-.5.6875 0 1.20312.28125.53125.28125.875.8125.34375.515626.53125 1.265626.1875.75.1875 2.03125 0 1.515624-.3125 2.4375-.29687.921874-.92187 1.4375-.60938.5-1.5625.5-1.23438 0-1.95313-.890626-.84375-1.0625-.84375-3.484374zm1.07812 0q0 2.109374.5 2.8125.5.703124 1.21876.703124.73437 0 1.21874-.703124.5-.703126.5-2.8125 0-2.125-.5-2.8125-.48437-.703126-1.23437-.703126-.71875 0-1.15625.609376-.54688.78125-.54688 2.90625zm5.92188 0q0-1.53125.3125-2.453126.3125-.9375.92188-1.4375.625-.5 1.5625-.5.6875 0 1.20312.28125.53125.28125.875.8125.34375.515626.53125 1.265626.1875.75.1875 2.03125 0 1.515624-.3125 2.4375-.29687.921874-.92187 1.4375-.60938.5-1.5625.5-1.23438 0-1.95313-.890626-.84375-1.0625-.84375-3.484374zm1.07812 0q0 2.109374.5 2.8125.5.703124 1.21876.703124.73437 0 1.21874-.703124.5-.703126.5-2.8125 0-2.125-.5-2.8125-.48437-.703126-1.23437-.703126-.71875 0-1.15625.609376-.54688.78125-.54688 2.90625zm5.92188 0q0-1.53125.3125-2.453126.3125-.9375.92188-1.4375.625-.5 1.5625-.5.6875 0 1.20312.28125.53125.28125.875.8125.34375.515626.53125 1.265626.1875.75.1875 2.03125 0 1.515624-.3125 2.4375-.29687.921874-.92187 1.4375-.60938.5-1.5625.5-1.23438 0-1.95313-.890626-.84375-1.0625-.84375-3.484374zm1.07812 0q0 2.109374.5 2.8125.5.703124 1.21876.703124.73437 0 1.21874-.703124.5-.703126.5-2.8125 0-2.125-.5-2.8125-.48437-.703126-1.23437-.703126-.71875 0-1.15625.609376-.54688.78125-.54688 2.90625zm5.92188 0q0-1.53125.3125-2.453126.3125-.9375.92188-1.4375.625-.5 1.5625-.5.6875 0 1.20312.28125.53125.28125.875.8125.34375.515626.53125 1.265626.1875.75.1875 2.03125 0 1.515624-.3125 2.4375-.29687.921874-.92187 1.4375-.60938.5-1.5625.5-1.23438 0-1.95313-.890626-.84375-1.0625-.84375-3.484374zm1.07812 0q0 2.109374.5 2.8125.5.703124 1.21876.703124.73437 0 1.21874-.703124.5-.703126.5-2.8125 0-2.125-.5-2.8125-.48437-.703126-1.23437-.703126-.71875 0-1.15625.609376-.54688.78125-.54688 2.90625zm8.96876 1.46875 1.0625-.09375q.07812.65625.35937 1.0625.28125.40625.85937.671874.59376.25 1.32813.25.64063 0 1.14063-.1875.5-.203124.73437-.53125.25-.34375.25-.734374 0-.40625-.23437-.703126-.23438-.3125-.76563-.515624-.35937-.140626-1.54687-.421876-1.17188-.28125-1.64063-.53125-.625-.328124-.92187-.796874-.29688-.484376-.29688-1.078126 0-.640624.35938-1.203124.375-.578126 1.07812-.859376.71875-.296874 1.57812-.296874.95313 0 1.6875.3125.73438.296874 1.125.90625.39063.59375.42188 1.34375l-1.09375.078124q-.09375-.8125-.60937-1.21875-.5-.421874-1.48438-.421874-1.03125 0-1.5.375-.46875.375-.46875.90625 0 .46875.32813.765624.32812.296876 1.70312.609376 1.39062.3125 1.90625.546874.75.359376 1.10937.890626.35938.515624.35938 1.21875 0 .6875-.39062 1.296874-.39063.59375-1.125.9375-.73438.328126-1.65626.328126-1.17187 0-1.96874-.328126-.78126-.34375-1.23438-1.03125-.4375-.6875-.45312-1.546874zm12.3125 2q-.59376.5-1.14063.703124-.53125.203126-1.15625.203126-1.03125 0-1.57812-.5-.54688-.5-.54688-1.28125 0-.453126.20312-.828126.20313-.390624.54688-.609374.34375-.234376.76562-.34375.29688-.09375.9375-.171876 1.26563-.140624 1.875-.359374 0-.21875 0-.265626 0-.65625-.29687-.921874-.40625-.34375-1.20313-.34375-.73437 0-1.09374.265624-.35938.25-.53126.90625l-1.03124-.140624q.14062-.65625.46874-1.0625.32813-.40625.9375-.625.60938-.21875 1.40626-.21875.79687 0 1.29687.1875.5.1875.73437.46875.23438.28125.32813.71875.04687.265624.04687.96875v1.40625q0 1.46875.0625 1.859374.07813.390626.28126.75h-1.10938q-.15625-.328124-.20312-.765624zm-.09376-2.359376q-.57812.234376-1.71874.40625-.65626.09375-.92188.21875-.26562.109376-.42188.328126-.14062.21875-.14062.5 0 .421874.3125.703124.32812.28125.9375.28125.60938 0 1.07812-.265624.48438-.265626.70313-.734376.17187-.359374.17187-1.046874zm3.03126 3.125v-6.21875h.9375v.875q.29687-.46875.78124-.734374.48438-.28125 1.10938-.28125.6875 0 1.125.28125.45312.28125.625.796874.75-1.078124 1.92188-1.078124.93752 0 1.42187.515624.5.5.5 1.578126v4.265624h-1.04685v-3.921874q0-.625-.1094-.90625-.09375-.28125-.3594-.453126-.2656-.171874-.6406-.171874-.65625 0-1.09375.4375-.42187.4375-.42187 1.40625v3.609374h-1.0625v-4.046874q0-.703126-.26563-1.046876-.25-.359374-.82813-.359374-.45312 0-.82812.234374-.375.234376-.54688.6875-.17187.453126-.17187 1.296876v3.234374zm10.00002 2.390626v-8.609376h.9531v.796876q.34375-.46875.7656-.703126.4375-.234374 1.0469-.234374.7969 0 1.40625.40625.60935.40625.90625 1.15625.3125.75.3125 1.640624 0 .953126-.34375 1.71875-.32815.765626-.98435 1.171876-.6563.40625-1.375.40625-.5313 0-.95315-.21875-.42185-.234376-.6875-.5625v3.03125zm.9531-5.46875q0 1.203124.4844 1.78125.48435.5625 1.17185.5625.70315 0 1.20315-.59375.5-.59375.5-1.84375 0-1.1875-.4844-1.765626-.4844-.59375-1.1719-.59375-.67185 0-1.1875.625-.5156.625-.5156 1.828126zm6.0156 3.078124v-8.59375h1.0625v8.59375zm7.2813-2 1.0937.125q-.25.953126-.9531 1.484376-.7031.53125-1.78125.53125-1.35935 0-2.17185-.84375-.7969-.84375-.7969-2.359376 0-1.5625.8125-2.421874.8125-.875 2.09375-.875 1.25 0 2.03125.84375.7969.84375.7969 2.390624 0 .09375 0 .28125h-4.64065q.0625 1.03125.57815 1.578126.5156.53125 1.29685.53125.57815 0 .98435-.296876.4219-.3125.6563-.96875zm-3.45315-1.703124h3.46875q-.0625-.796876-.3906-1.1875-.51565-.609376-1.3125-.609376-.7344 0-1.2344.484376-.4844.484374-.53125 1.3125zm5.78125 1.84375 1.03125-.15625q.09375.625.48435.953124.4063.328126 1.14065.328126.71875 0 1.0625-.28125.35935-.296876.35935-.703126 0-.359374-.3125-.5625-.2187-.140624-1.0781-.359374-1.15625-.296876-1.6094-.5-.4375-.21875-.67185-.59375-.23435-.375-.23435-.84375 0-.40625.1875-.765626.1875-.359374.5156-.59375.25-.171874.6719-.296874.42185-.125.92185-.125.71875 0 1.26565.21875.5625.203124.8281.5625.2656.359374.3594.953124l-1.0313.140626q-.0625-.46875-.4062-.734376-.32815-.28125-.95315-.28125-.71875 0-1.03125.25-.3125.234376-.3125.5625 0 .203126.125.359376.1406.171874.40625.28125.15625.0625.9375.265624 1.125.3125 1.5625.5.4375.1875.6875.546876.25.359374.25.90625 0 .53125-.3125 1-.29685.453124-.875.71875-.57815.25-1.3125.25-1.21875 0-1.85935-.5-.625-.515626-.7969-1.5z" fill="#1a1a1a"/>
  <path d="m565.5 40.95c0 3.31371-2.6863 6-6 6s-6-2.68629-6-6 2.6863-6 6-6 6 2.68629 6 6z" fill="#ea4335"/>
  <path d="m577.96875 44.95h-1.04685v-6.71875q-.39065.359376-1.01565.734376-.60935.359374-1.09375.53125v-1.015626q.875-.421874 1.53125-1 .67185-.59375.95315-1.15625h.67185zm3.03125-4.234374q0-1.53125.3125-2.453126.3125-.9375.9219-1.4375.625-.5 1.5625-.5.6875 0 1.2031.28125.53125.28125.875.8125.34375.515626.53125 1.265626.1875.75.1875 2.03125 0 1.515624-.3125 2.4375-.29685.921874-.92185 1.4375-.6094.5-1.5625.5-1.2344 0-1.95315-.890626-.84375-1.0625-.84375-3.484374zm1.0781 0q0 2.109374.5 2.8125.5.703124 1.2188.703124.73435 0 1.2187-.703124.5-.703126.5-2.8125 0-2.125-.5-2.8125-.48435-.703126-1.23435-.703126-.71875 0-1.15625.609376-.5469.78125-.5469 2.90625zm5.9219 0q0-1.53125.3125-2.453126.3125-.9375.9219-1.4375.625-.5 1.5625-.5.6875 0 1.2031.28125.53125.28125.875.8125.34375.515626.53125 1.265626.1875.75.1875 2.03125 0 1.515624-.3125 2.4375-.29685.921874-.92185 1.4375-.6094.5-1.5625.5-1.2344 0-1.95315-.890626-.84375-1.0625-.84375-3.484374zm1.0781 0q0 2.109374.5 2.8125.5.703124 1.2188.703124.73435 0 1.2187-.703124.5-.703126.5-2.8125 0-2.125-.5-2.8125-.48435-.703126-1.23435-.703126-.71875 0-1.15625.609376-.5469.78125-.5469 2.90625zm5.9219 0q0-1.53125.3125-2.453126.3125-.9375.9219-1.4375.625-.5 1.5625-.5.6875 0 1.2031.28125.53125.28125.875.8125.34375.515626.53125 1.265626.1875.75.1875 2.03125 0 1.515624-.3125 2.4375-.29685.921874-.92185 1.4375-.6094.5-1.5625.5-1.2344 0-1.95315-.890626-.84375-1.0625-.84375-3.484374zm1.0781 0q0 2.109374.5 2.8125.5.703124 1.2188.703124.73435 0 1.2187-.703124.5-.703126.5-2.8125 0-2.125-.5-2.8125-.48435-.703126-1.23435-.703126-.71875 0-1.15625.609376-.5469.78125-.5469 2.90625zm5.9219 0q0-1.53125.3125-2.453126.3125-.9375.9219-1.4375.625-.5 1.5625-.5.6875 0 1.2031.28125.53125.28125.875.8125.34375.515626.53125 1.265626.1875.75.1875 2.03125 0 1.515624-.3125 2.4375-.29685.921874-.92185 1.4375-.6094.5-1.5625.5-1.2344 0-1.95315-.890626-.84375-1.0625-.84375-3.484374zm1.0781 0q0 2.109374.5 2.8125.5.703124 1.2188.703124.73435 0 1.2187-.703124.5-.703126.5-2.8125 0-2.125-.5-2.8125-.48435-.703126-1.23435-.703126-.71875 0-1.15625.609376-.5469.78125-.5469 2.90625zm5.9219 0q0-1.53125.3125-2.453126.3125-.9375.9219-1.4375.625-.5 1.5625-.5.6875 0 1.2031.28125.53125.28125.875.8125.34375.515626.53125 1.265626.1875.75.1875 2.03125 0 1.515624-.3125 2.4375-.29685.921874-.92185 1.4375-.6094.5-1.5625.5-1.2344 0-1.95315-.890626-.84375-1.0625-.84375-3.484374zm1.0781 0q0 2.109374.5 2.8125.5.703124 1.2188.703124.73435 0 1.2187-.703124.5-.703126.5-2.8125 0-2.125-.5-2.8125-.48435-.703126-1.23435-.703126-.71875 0-1.15625.609376-.5469.78125-.5469 2.90625zm5.9219 0q0-1.53125.3125-2.453126.3125-.9375.9219-1.4375.625-.5 1.5625-.5.6875 0 1.2031.28125.53125.28125.875.8125.34375.515626.53125 1.265626.1875.75.1875 2.03125 0 1.515624-.3125 2.4375-.29685.921874-.92185 1.4375-.6094.5-1.5625.5-1.2344 0-1.95315-.890626-.84375-1.0625-.84375-3.484374zm1.0781 0q0 2.109374.5 2.8125.5.703124 1.2188.703124.73435 0 1.2187-.703124.5-.703126.5-2.8125 0-2.125-.5-2.8125-.48435-.703126-1.23435-.703126-.71875 0-1.15625.609376-.5469.78125-.5469 2.90625zm5.9219 0q0-1.53125.3125-2.453126.3125-.9375.9219-1.4375.625-.5 1.5625-.5.6875 0 1.2031.28125.53125.28125.875.8125.34375.515626.53125 1.265626.1875.75.1875 2.03125 0 1.515624-.3125 2.4375-.29685.921874-.92185 1.4375-.6094.5-1.5625.5-1.2344 0-1.95315-.890626-.84375-1.0625-.84375-3.484374zm1.0781 0q0 2.109374.5 2.8125.5.703124 1.2188.703124.73435 0 1.2187-.703124.5-.703126.5-2.8125 0-2.125-.5-2.8125-.48435-.703126-1.23435-.703126-.71875 0-1.15625.609376-.5469.78125-.5469 2.90625zm5.9219 0q0-1.53125.3125-2.453126.3125-.9375.9219-1.4375.625-.5 1.5625-.5.6875 0 1.2031.28125.53125.28125.875.8125.34375.515626.53125 1.265626.1875.75.1875 2.03125 0 1.515624-.3125 2.4375-.29685.921874-.92185 1.4375-.6094.5-1.5625.5-1.2344 0-1.95315-.890626-.84375-1.0625-.84375-3.484374zm1.0781 0q0 2.109374.5 2.8125.5.703124 1.2188.703124.73435 0 1.2187-.703124.5-.703126.5-2.8125 0-2.125-.5-2.8125-.48435-.703126-1.23435-.703126-.71875 0-1.15625.609376-.5469.78125-.5469 2.90625zm5.9219 0q0-1.53125.3125-2.453126.3125-.9375.9219-1.4375.625-.5 1.5625-.5.6875 0 1.2031.28125.53125.28125.875.8125.34375.515626.53125 1.265626.1875.75.1875 2.03125 0 1.515624-.3125 2.4375-.29685.921874-.92185 1.4375-.6094.5-1.5625.5-1.2344 0-1.95315-.890626-.84375-1.0625-.84375-3.484374zm1.0781 0q0 2.109374.5 2.8125.5.703124 1.2188.703124.73435 0 1.2187-.703124.5-.703126.5-2.8125 0-2.125-.5-2.8125-.48435-.703126-1.23435-.703126-.71875 0-1.15625.609376-.5469.78125-.5469 2.90625zm8.9688 1.46875 1.0625-.09375q.0781.65625.35935 1.0625.28125.40625.85935.671874.5938.25 1.32815.25.64065 0 1.14065-.1875.5-.203124.73435-.53125.25-.34375.25-.734374 0-.40625-.23435-.703126-.2344-.3125-.76565-.515624-.35935-.140626-1.54685-.421876-1.1719-.28125-1.64065-.53125-.625-.328124-.92185-.796874-.2969-.484376-.2969-1.078126 0-.640624.3594-1.203124.375-.578126 1.0781-.859376.71875-.296874 1.5781-.296874.95315 0 1.6875.3125.7344.296874 1.125.90625.39065.59375.4219 1.34375l-1.09375.078124q-.09375-.8125-.60935-1.21875-.5-.421874-1.4844-.421874-1.03125 0-1.5.375-.46875.375-.46875.90625 0 .46875.32815.765624.3281.296876 1.7031.609376 1.3906.3125 1.90625.546874.75.359376 1.10935.890626.3594.515624.3594 1.21875 0 .6875-.3906 1.296874-.39065.59375-1.125.9375-.7344.328126-1.6563.328126-1.17185 0-1.9687-.328126-.7813-.34375-1.2344-1.03125-.4375-.6875-.4531-1.546874zm12.3125 2q-.5938.5-1.14065.703124-.53125.203126-1.15625.203126-1.03125 0-1.5781-.5-.5469-.5-.5469-1.28125 0-.453126.2031-.828126.20315-.390624.5469-.609374.34375-.234376.7656-.34375.2969-.09375.9375-.171876 1.26565-.140624 1.875-.359374 0-.21875 0-.265626 0-.65625-.29685-.921874-.40625-.34375-1.20315-.34375-.73435 0-1.0937.265624-.3594.25-.5313.90625l-1.0312-.140624q.1406-.65625.4687-1.0625.32815-.40625.9375-.625.6094-.21875 1.4063-.21875.79685 0 1.29685.1875.5.1875.73435.46875.2344.28125.32815.71875.04685.265624.04685.96875v1.40625q0 1.46875.0625 1.859374.07815.390626.2813.75h-1.1094q-.15625-.328124-.2031-.765624zm-.0938-2.359376q-.5781.234376-1.7187.40625-.6563.09375-.9219.21875-.2656.109376-.4219.328126-.1406.21875-.1406.5 0 .421874.3125.703124.3281.28125.9375.28125.6094 0 1.0781-.265624.4844-.265626.70315-.734376.17185-.359374.17185-1.046874zm3.0313 3.125v-6.21875h.9375v.875q.29685-.46875.7812-.734374.4844-.28125 1.1094-.28125.6875 0 1.125.28125.4531.28125.625.796874.75-1.078124 1.9219-1.078124.9375 0 1.42185.515624.5.5.5 1.578126v4.265624h-1.04685v-3.921874q0-.625-.1094-.90625-.09375-.28125-.3594-.453126-.2656-.171874-.6406-.171874-.65625 0-1.09375.4375-.42185.4375-.42185 1.40625v3.609374h-1.0625v-4.046874q0-.703126-.26565-1.046876-.25-.359374-.82815-.359374-.4531 0-.8281.234374-.375.234376-.5469.6875-.17185.453126-.17185 1.296876v3.234374zm10 2.390626v-8.609376h.9531v.796876q.34375-.46875.7656-.703126.4375-.234374 1.0469-.234374.7969 0 1.40625.40625.60935.40625.90625 1.15625.3125.75.3125 1.640624 0 .953126-.34375 1.71875-.32815.765626-.98435 1.171876-.6563.40625-1.375.40625-.5313 0-.95315-.21875-.42185-.234376-.6875-.5625v3.03125zm.9531-5.46875q0 1.203124.4844 1.78125.48435.5625 1.17185.5625.70315 0 1.20315-.59375.5-.59375.5-1.84375 0-1.1875-.4844-1.765626-.4844-.59375-1.1719-.59375-.67185 0-1.1875.625-.5156.625-.5156 1.828126zm6.0156 3.078124v-8.59375h1.0625v8.59375zm7.2813-2 1.0937.125q-.25.953126-.9531 1.484376-.7031.53125-1.78125.53125-1.35935 0-2.17185-.84375-.7969-.84375-.7969-2.359376 0-1.5625.8125-2.421874.8125-.875 2.09375-.875 1.25 0 2.03125.84375.7969.84375.7969 2.390624 0 .09375 0 .28125h-4.64065q.0625 1.03125.57815 1.578126.5156.53125 1.29685.53125.57815 0 .98435-.296876.4219-.3125.6563-.96875zm-3.45315-1.703124h3.46875q-.0625-.796876-.3906-1.1875-.51565-.609376-1.3125-.609376-.7344 0-1.2344.484376-.4844.484374-.53125 1.3125zm5.78125 1.84375 1.03125-.15625q.09375.625.48435.953124.4063.328126 1.14065.328126.71875 0 1.0625-.28125.35935-.296876.35935-.703126 0-.359374-.3125-.5625-.2187-.140624-1.0781-.359374-1.15625-.296876-1.6094-.5-.4375-.21875-.67185-.59375-.23435-.375-.23435-.84375 0-.40625.1875-.765626.1875-.359374.5156-.59375.25-.171874.6719-.296874.42185-.125.92185-.125.71875 0 1.26565.21875.5625.203124.8281.5625.2656.359374.3594.953124l-1.0313.140626q-.0625-.46875-.4062-.734376-.32815-.28125-.95315-.28125-.71875 0-1.03125.25-.3125.234376-.3125.5625 0 .203126.125.359376.1406.171874.40625.28125.15625.0625.9375.265624 1.125.3125 1.5625.5.4375.1875.6875.546876.25.359374.25.90625 0 .53125-.3125 1-.29685.453124-.875.71875-.57815.25-1.3125.25-1.21875 0-1.85935-.5-.625-.515626-.7969-1.5z" fill="#1a1a1a"/>
</svg>
