<?xml version="1.0"?>
<svg xmlns="http://www.w3.org/2000/svg" xmlns:xlink="http://www.w3.org/1999/xlink" fill="none" stroke-linecap="square" stroke-miterlimit="10" viewBox="0 0 964 596">
  <clipPath id="a">
    <path d="m120.8 114.53333h813.4v431.66667h-813.4z"/>
  </clipPath>
  <path d="m0 0h964v596h-964z" fill="#fff"/>
  <g stroke-linecap="butt">
    <path d="m120.5 546.5h814" stroke="#333"/>
    <g stroke="#ccc">
      <path d="m120.5 459.5h814"/>
      <path d="m120.5 373.5h814"/>
      <path d="m120.5 287.5h814"/>
      <path d="m120.5 200.5h814"/>
      <path d="m120.5 114.5h814"/>
    </g>
  </g>
  <path clip-path="url(#a)" d="m226 546h-40v-22c0-1.10455.89543-2 2-2h36c1.10457 0 2 .89545 2 2z"/>
  <path clip-path="url(#a)" d="m226 546h-40v-22c0-1.10455.89543-2 2-2h36c1.10457 0 2 .89545 2 2z" fill="#4285f4"/>
  <path clip-path="url(#a)" d="m413 546h-40v-4c0-1.10455.89542-2 2-2h36c1.10458 0 2 .89545 2 2z"/>
  <path clip-path="url(#a)" d="m413 546h-40v-4c0-1.10455.89542-2 2-2h36c1.10458 0 2 .89545 2 2z" fill="#4285f4"/>
  <path clip-path="url(#a)" d="m600 546h-40v-4c0-1.10455.89545-2 2-2h36c1.10455 0 2 .89545 2 2z"/>
  <path clip-path="url(#a)" d="m600 546h-40v-4c0-1.10455.89545-2 2-2h36c1.10455 0 2 .89545 2 2z" fill="#4285f4"/>
  <path clip-path="url(#a)" d="m787 546h-40v-4c0-1.10455.89545-2 2-2h36c1.10455 0 2 .89545 2 2z"/>
  <path clip-path="url(#a)" d="m787 546h-40v-4c0-1.10455.89545-2 2-2h36c1.10455 0 2 .89545 2 2z" fill="#4285f4"/>
  <path clip-path="url(#a)" d="m267 546h-40v-87c0-1.10458.89543-2 2-2h36c1.10458 0 2 .89542 2 2z"/>
  <path clip-path="url(#a)" d="m267 546h-40v-87c0-1.10458.89543-2 2-2h36c1.10458 0 2 .89542 2 2z" fill="#ea4335"/>
  <path clip-path="url(#a)" d="m454 546h-40v-17c0-1.10455.89542-2 2-2h36c1.10458 0 2 .89545 2 2z"/>
  <path clip-path="url(#a)" d="m454 546h-40v-17c0-1.10455.89542-2 2-2h36c1.10458 0 2 .89545 2 2z" fill="#ea4335"/>
  <path clip-path="url(#a)" d="m641 546h-40v-17c0-1.10455.89545-2 2-2h36c1.10455 0 2 .89545 2 2z"/>
  <path clip-path="url(#a)" d="m641 546h-40v-17c0-1.10455.89545-2 2-2h36c1.10455 0 2 .89545 2 2z" fill="#ea4335"/>
  <path clip-path="url(#a)" d="m828 546h-40v-15c0-1.10455.89545-2 2-2h36c1.10455 0 2 .89545 2 2z"/>
  <path clip-path="url(#a)" d="m828 546h-40v-15c0-1.10455.89545-2 2-2h36c1.10455 0 2 .89545 2 2z" fill="#ea4335"/>
  <path clip-path="url(#a)" d="m308 546h-40v-350c0-1.10457.89542-2 2-2h36c1.10458 0 2 .89543 2 2z"/>
  <path clip-path="url(#a)" d="m308 546h-40v-350c0-1.10457.89542-2 2-2h36c1.10458 0 2 .89543 2 2z" fill="#34a853"/>
  <path clip-path="url(#a)" d="m495 546h-40v-66c0-1.10458.89542-2 2-2h36c1.10458 0 2 .89542 2 2z"/>
  <path clip-path="url(#a)" d="m495 546h-40v-66c0-1.10458.89542-2 2-2h36c1.10458 0 2 .89542 2 2z" fill="#34a853"/>
  <path clip-path="url(#a)" d="m682 546h-40v-67c0-1.10458.89545-2 2-2h36c1.10455 0 2 .89542 2 2z"/>
  <path clip-path="url(#a)" d="m682 546h-40v-67c0-1.10458.89545-2 2-2h36c1.10455 0 2 .89542 2 2z" fill="#34a853"/>
  <path clip-path="url(#a)" d="m869 546h-40v-60c0-1.10458.89545-2 2-2h36c1.10455 0 2 .89542 2 2z"/>
  <path clip-path="url(#a)" d="m869 546h-40v-60c0-1.10458.89545-2 2-2h36c1.10455 0 2 .89542 2 2z" fill="#34a853"/>
  <path d="m192.96875 507.17343h-1.04687v-6.71875q-.39063.35938-1.01563.73438-.60937.35937-1.09375.53124v-1.01562q.875-.42188 1.53125-1 .67187-.59375.95313-1.15625h.67187zm3.03125-2.26563 1.0625-.14062q.17188.89062.60938 1.29688.4375.39062 1.0625.39062.75 0 1.26562-.51562.51562-.51563.51562-1.28126 0-.71874-.48437-1.1875-.46875-.48437-1.20313-.48437-.29687 0-.75.125l.125-.9375q.10938.01563.17188.01563.67188 0 1.20312-.34376.54688-.35937.54688-1.09374 0-.57813-.39062-.95313-.39063-.39063-1.01563-.39063-.60937 0-1.03125.39063-.40625.39063-.51562 1.15625l-1.0625-.1875q.1875-1.04688.875-1.625.6875-.59375 1.70312-.59375.70312 0 1.29688.3125.59374.29687.90624.8125.3125.51563.3125 1.10937 0 .54688-.29687 1.01563-.29687.45313-.875.71875.75.17188 1.17187.73438.42188.54687.42188 1.39062 0 1.125-.82812 1.90625-.8125.78125-2.0625.78125-1.125 0-1.875-.67188-.75-.6875-.85938-1.75zm7.15625.28126 1.01563-.09376q.125.71876.48437 1.04688.375.3125.9375.3125.48437 0 .84375-.21875.375-.23437.60938-.59375.23437-.375.39062-1 .15625-.64062.15625-1.29688 0-.07812 0-.21874-.3125.5-.85937.82812-.54688.3125-1.1875.3125-1.07813 0-1.8125-.76562-.73438-.78126-.73438-2.04688 0-1.3125.76562-2.10938.78126-.79687 1.9375-.79687.82813 0 1.51563.45313.70313.45312 1.0625 1.29687.35937.82813.35937 2.40625 0 1.64062-.35937 2.625-.34375.96875-1.0625 1.48438-.70313.5-1.64063.5-1.01562 0-1.65624-.54688-.64063-.5625-.76563-1.57812zm4.3125-3.79688q0-.90625-.48437-1.4375-.46876-.53125-1.15626-.53125-.70312 0-1.23437.57813-.51563.5625-.51563 1.48437 0 .8125.5 1.32813.5.51562 1.21876.51562.73437 0 1.20312-.51562.46875-.51563.46875-1.42188zm6.5 5.78125h-1.04687v-6.71875q-.39063.35938-1.01563.73438-.60937.35937-1.09375.53124v-1.01562q.875-.42188 1.53125-1 .67187-.59375.95313-1.15625h.67187zm3.03125-2.25 1.10938-.09375q.125.8125.5625 1.21875.45312.40625 1.09374.40625.75 0 1.28126-.57812.53124-.57813.53124-1.51563 0-.90625-.51562-1.42187-.5-.53126-1.32812-.53126-.5 0-.92188.23438-.40625.23438-.64062.59375l-.98438-.125.82812-4.40625h4.28126v1h-3.4375l-.45313 2.3125q.76563-.54688 1.60937-.54688 1.125 0 1.89063.78126.78125.78124.78125 2.01562 0 1.15625-.67188 2.01562-.82812 1.03126-2.25 1.03126-1.17187 0-1.92187-.65626-.73437-.65624-.84375-1.73437z" stroke="#fff" stroke-linecap="round" stroke-linejoin="round" stroke-width="3"/>
  <path d="m192.96875 507.17343h-1.04687v-6.71875q-.39063.35938-1.01563.73438-.60937.35937-1.09375.53124v-1.01562q.875-.42188 1.53125-1 .67187-.59375.95313-1.15625h.67187zm3.03125-2.26563 1.0625-.14062q.17188.89062.60938 1.29688.4375.39062 1.0625.39062.75 0 1.26562-.51562.51562-.51563.51562-1.28126 0-.71874-.48437-1.1875-.46875-.48437-1.20313-.48437-.29687 0-.75.125l.125-.9375q.10938.01563.17188.01563.67188 0 1.20312-.34376.54688-.35937.54688-1.09374 0-.57813-.39062-.95313-.39063-.39063-1.01563-.39063-.60937 0-1.03125.39063-.40625.39063-.51562 1.15625l-1.0625-.1875q.1875-1.04688.875-1.625.6875-.59375 1.70312-.59375.70312 0 1.29688.3125.59374.29687.90624.8125.3125.51563.3125 1.10937 0 .54688-.29687 1.01563-.29687.45313-.875.71875.75.17188 1.17187.73438.42188.54687.42188 1.39062 0 1.125-.82812 1.90625-.8125.78125-2.0625.78125-1.125 0-1.875-.67188-.75-.6875-.85938-1.75zm7.15625.28126 1.01563-.09376q.125.71876.48437 1.04688.375.3125.9375.3125.48437 0 .84375-.21875.375-.23437.60938-.59375.23437-.375.39062-1 .15625-.64062.15625-1.29688 0-.07812 0-.21874-.3125.5-.85937.82812-.54688.3125-1.1875.3125-1.07813 0-1.8125-.76562-.73438-.78126-.73438-2.04688 0-1.3125.76562-2.10938.78126-.79687 1.9375-.79687.82813 0 1.51563.45313.70313.45312 1.0625 1.29687.35937.82813.35937 2.40625 0 1.64062-.35937 2.625-.34375.96875-1.0625 1.48438-.70313.5-1.64063.5-1.01562 0-1.65624-.54688-.64063-.5625-.76563-1.57812zm4.3125-3.79688q0-.90625-.48437-1.4375-.46876-.53125-1.15626-.53125-.70312 0-1.23437.57813-.51563.5625-.51563 1.48437 0 .8125.5 1.32813.5.51562 1.21876.51562.73437 0 1.20312-.51562.46875-.51563.46875-1.42188zm6.5 5.78125h-1.04687v-6.71875q-.39063.35938-1.01563.73438-.60937.35937-1.09375.53124v-1.01562q.875-.42188 1.53125-1 .67187-.59375.95313-1.15625h.67187zm3.03125-2.25 1.10938-.09375q.125.8125.5625 1.21875.45312.40625 1.09374.40625.75 0 1.28126-.57812.53124-.57813.53124-1.51563 0-.90625-.51562-1.42187-.5-.53126-1.32812-.53126-.5 0-.92188.23438-.40625.23438-.64062.59375l-.98438-.125.82812-4.40625h4.28126v1h-3.4375l-.45313 2.3125q.76563-.54688 1.60937-.54688 1.125 0 1.89063.78126.78125.78124.78125 2.01562 0 1.15625-.67188 2.01562-.82812 1.03126-2.25 1.03126-1.17187 0-1.92187-.65626-.73437-.65624-.84375-1.73437z" fill="#4285f4"/>
  <path d="m379.5 522.6493 1.0625-.14063q.17188.89063.60938 1.29687.4375.39063 1.0625.39063.75 0 1.26562-.51563.51562-.51564.51562-1.28124 0-.71876-.48437-1.1875-.46875-.4844-1.20313-.4844-.29687 0-.75.125l.125-.9375q.10938.01564.17188.01564.67188 0 1.20312-.34374.54688-.3594.54688-1.09376 0-.57814-.39062-.95314-.39063-.3906-1.01563-.3906-.60937 0-1.03125.3906-.40625.39064-.51562 1.15627l-1.0625-.1875q.1875-1.04687.875-1.625.6875-.59377 1.70312-.59377.70312 0 1.29688.3125.59374.2969.90624.8125.3125.51564.3125 1.1094 0 .54687-.29687 1.0156-.29687.45314-.875.71877.75.17187 1.17187.73437.42188.54686.42188 1.39063 0 1.125-.82812 1.90623-.8125.78127-2.0625.78127-1.125 0-1.875-.67187-.75-.6875-.85938-1.75zm12.46875-4.21876-1.04687.07813q-.14063-.625-.39063-.90627-.4375-.4531-1.0625-.4531-.5 0-.89063.28124-.48437.375-.78124 1.07813-.28126.6875-.29688 1.96873.375-.5781.92188-.85936.5625-.28124 1.17187-.28124 1.04687 0 1.78125.78124.75.78126.75 2 0 .8125-.35938 1.51563-.34374.6875-.95312 1.0625-.60938.35937-1.375.35937-1.32812 0-2.15625-.96874-.82813-.96876-.82813-3.1875 0-2.5.92188-3.625.79688-.9844 2.15625-.9844 1.01563 0 1.65625.57814.65625.5625.78125 1.5625zm-4.29687 3.70313q0 .54687.21874 1.04687.23438.48436.64063.75.42187.26563.89063.26563.65624 0 1.14062-.53127.48438-.54686.48438-1.46873 0-.89063-.48438-1.40627-.46875-.5156-1.1875-.5156-.71875 0-1.21875.5156-.48437.51564-.48437 1.34377zm9.20312 2.78123v-2.0625h-3.71875v-.96873l3.92187-5.5625h.85938v5.5625h1.15625v.96873h-1.15625v2.0625zm0-3.03123v-3.85937l-2.6875 3.85937zm3.625-1.20313q0-1.53124.3125-2.45314.3125-.9375.92188-1.4375.625-.5 1.5625-.5.6875 0 1.20312.28127.53125.28123.875.8125.34375.51563.53125 1.26563.1875.75.1875 2.03124 0 1.51563-.3125 2.4375-.29687.92186-.92187 1.4375-.60938.5-1.5625.5-1.23438 0-1.95313-.89064-.84375-1.0625-.84375-3.48436zm1.07812 0q0 2.10936.5 2.8125.5.70313 1.21876.70313.73437 0 1.21874-.70313.5-.70314.5-2.8125 0-2.125-.5-2.8125-.48437-.70314-1.23437-.70314-.71875 0-1.15625.6094-.54688.78124-.54688 2.90624z" stroke="#fff" stroke-linecap="round" stroke-linejoin="round" stroke-width="3"/>
  <path d="m379.5 522.6493 1.0625-.14063q.17188.89063.60938 1.29687.4375.39063 1.0625.39063.75 0 1.26562-.51563.51562-.51564.51562-1.28124 0-.71876-.48437-1.1875-.46875-.4844-1.20313-.4844-.29687 0-.75.125l.125-.9375q.10938.01564.17188.01564.67188 0 1.20312-.34374.54688-.3594.54688-1.09376 0-.57814-.39062-.95314-.39063-.3906-1.01563-.3906-.60937 0-1.03125.3906-.40625.39064-.51562 1.15627l-1.0625-.1875q.1875-1.04687.875-1.625.6875-.59377 1.70312-.59377.70312 0 1.29688.3125.59374.2969.90624.8125.3125.51564.3125 1.1094 0 .54687-.29687 1.0156-.29687.45314-.875.71877.75.17187 1.17187.73437.42188.54686.42188 1.39063 0 1.125-.82812 1.90623-.8125.78127-2.0625.78127-1.125 0-1.875-.67187-.75-.6875-.85938-1.75zm12.46875-4.21876-1.04687.07813q-.14063-.625-.39063-.90627-.4375-.4531-1.0625-.4531-.5 0-.89063.28124-.48437.375-.78124 1.07813-.28126.6875-.29688 1.96873.375-.5781.92188-.85936.5625-.28124 1.17187-.28124 1.04687 0 1.78125.78124.75.78126.75 2 0 .8125-.35938 1.51563-.34374.6875-.95312 1.0625-.60938.35937-1.375.35937-1.32812 0-2.15625-.96874-.82813-.96876-.82813-3.1875 0-2.5.92188-3.625.79688-.9844 2.15625-.9844 1.01563 0 1.65625.57814.65625.5625.78125 1.5625zm-4.29687 3.70313q0 .54687.21874 1.04687.23438.48436.64063.75.42187.26563.89063.26563.65624 0 1.14062-.53127.48438-.54686.48438-1.46873 0-.89063-.48438-1.40627-.46875-.5156-1.1875-.5156-.71875 0-1.21875.5156-.48437.51564-.48437 1.34377zm9.20312 2.78123v-2.0625h-3.71875v-.96873l3.92187-5.5625h.85938v5.5625h1.15625v.96873h-1.15625v2.0625zm0-3.03123v-3.85937l-2.6875 3.85937zm3.625-1.20313q0-1.53124.3125-2.45314.3125-.9375.92188-1.4375.625-.5 1.5625-.5.6875 0 1.20312.28127.53125.28123.875.8125.34375.51563.53125 1.26563.1875.75.1875 2.03124 0 1.51563-.3125 2.4375-.29687.92186-.92187 1.4375-.60938.5-1.5625.5-1.23438 0-1.95313-.89064-.84375-1.0625-.84375-3.48436zm1.07812 0q0 2.10936.5 2.8125.5.70313 1.21876.70313.73437 0 1.21874-.70313.5-.70314.5-2.8125 0-2.125-.5-2.8125-.48437-.70314-1.23437-.70314-.71875 0-1.15625.6094-.54688.78124-.54688 2.90624z" fill="#4285f4"/>
  <path d="m566.5 522.3972 1.0625-.1406q.1719.8906.6094 1.29687.4375.39063 1.0625.39063.75 0 1.2656-.51563.5156-.51563.5156-1.28127 0-.71873-.48435-1.1875-.46875-.48436-1.20315-.48436-.29685 0-.75.125l.125-.9375q.1094.01563.1719.01563.6719 0 1.2031-.34377.5469-.35936.5469-1.09373 0-.57813-.3906-.95313-.39065-.39064-1.01565-.39064-.60935 0-1.03125.39064-.40625.39063-.5156 1.15626l-1.0625-.1875q.1875-1.0469.875-1.625.6875-.59376 1.7031-.59376.7031 0 1.2969.3125.5937.29686.9062.8125.3125.51563.3125 1.10936 0 .5469-.29685 1.01564-.29685.45313-.875.71876.75.17187 1.17185.73437.4219.54687.4219 1.39063 0 1.125-.8281 1.90624-.8125.78126-2.0625.78126-1.125 0-1.875-.6719-.75-.6875-.8594-1.75zm7.0625-5.2031v-1.01563h5.5625v.82813q-.8125.875-1.625 2.3281-.7969 1.4375-1.2344 2.96877-.3281 1.07813-.4062 2.35937h-1.0938q.01565-1.01564.39065-2.45314.39065-1.4375 1.09375-2.7656.71875-1.32813 1.53125-2.25zm8.5625 2.8125q-.65625-.25-.9844-.6875-.3125-.45313-.3125-1.0625 0-.9375.6719-1.57813.6875-.64063 1.7969-.64063 1.125 0 1.8125.65626.6875.65624.6875 1.59374 0 .59376-.3125 1.03126-.3125.4375-.95315.6875.79685.25 1.20315.8281.4062.57814.4062 1.375 0 1.09377-.7812 1.84377-.76565.75-2.0469.75-1.2656 0-2.0469-.75-.7812-.75-.7812-1.875 0-.84377.42185-1.40627.4375-.5625 1.21875-.7656zm-.21875-1.7969q0 .6094.39065 1 .4062.39064 1.0312.39064.6094 0 1-.375.39065-.39064.39065-.95314 0-.5781-.40625-.96873-.40625-.40627-1-.40627-.6094 0-1.0156.39064-.39065.39063-.39065.92186zm-.32815 3.96877q0 .45313.20315.875.21875.42187.64065.65623.42185.2344.9062.2344.75 0 1.2344-.4844.5-.48436.5-1.23436 0-.76564-.5-1.26564-.5-.5-1.2656-.5-.75 0-1.2344.5-.4844.4844-.4844 1.21877zm11.39065-4-1.04685.07813q-.14065-.625-.39065-.90626-.4375-.45314-1.0625-.45314-.5 0-.89065.28127-.48435.375-.7812 1.07813-.2813.6875-.2969 1.96874.375-.57814.9219-.85937.5625-.28127 1.17185-.28127 1.04685 0 1.78125.78127.75.78123.75 2 0 .8125-.3594 1.51563-.3437.6875-.9531 1.0625-.6094.35937-1.375.35937-1.3281 0-2.15625-.96877-.82815-.96873-.82815-3.1875 0-2.5.9219-3.625.7969-.98436 2.15625-.98436 1.01565 0 1.65625.57813.65625.5625.78125 1.5625zm-4.29685 3.70313q0 .54687.2187 1.04687.2344.48437.64065.75.42185.26563.89065.26563.6562 0 1.1406-.53126.4844-.54687.4844-1.46874 0-.89063-.4844-1.40626-.46875-.51564-1.1875-.51564-.71875 0-1.21875.51564-.48435.51563-.48435 1.34376z" stroke="#fff" stroke-linecap="round" stroke-linejoin="round" stroke-width="3"/>
  <path d="m566.5 522.3972 1.0625-.1406q.1719.8906.6094 1.29687.4375.39063 1.0625.39063.75 0 1.2656-.51563.5156-.51563.5156-1.28127 0-.71873-.48435-1.1875-.46875-.48436-1.20315-.48436-.29685 0-.75.125l.125-.9375q.1094.01563.1719.01563.6719 0 1.2031-.34377.5469-.35936.5469-1.09373 0-.57813-.3906-.95313-.39065-.39064-1.01565-.39064-.60935 0-1.03125.39064-.40625.39063-.5156 1.15626l-1.0625-.1875q.1875-1.0469.875-1.625.6875-.59376 1.7031-.59376.7031 0 1.2969.3125.5937.29686.9062.8125.3125.51563.3125 1.10936 0 .5469-.29685 1.01564-.29685.45313-.875.71876.75.17187 1.17185.73437.4219.54687.4219 1.39063 0 1.125-.8281 1.90624-.8125.78126-2.0625.78126-1.125 0-1.875-.6719-.75-.6875-.8594-1.75zm7.0625-5.2031v-1.01563h5.5625v.82813q-.8125.875-1.625 2.3281-.7969 1.4375-1.2344 2.96877-.3281 1.07813-.4062 2.35937h-1.0938q.01565-1.01564.39065-2.45314.39065-1.4375 1.09375-2.7656.71875-1.32813 1.53125-2.25zm8.5625 2.8125q-.65625-.25-.9844-.6875-.3125-.45313-.3125-1.0625 0-.9375.6719-1.57813.6875-.64063 1.7969-.64063 1.125 0 1.8125.65626.6875.65624.6875 1.59374 0 .59376-.3125 1.03126-.3125.4375-.95315.6875.79685.25 1.20315.8281.4062.57814.4062 1.375 0 1.09377-.7812 1.84377-.76565.75-2.0469.75-1.2656 0-2.0469-.75-.7812-.75-.7812-1.875 0-.84377.42185-1.40627.4375-.5625 1.21875-.7656zm-.21875-1.7969q0 .6094.39065 1 .4062.39064 1.0312.39064.6094 0 1-.375.39065-.39064.39065-.95314 0-.5781-.40625-.96873-.40625-.40627-1-.40627-.6094 0-1.0156.39064-.39065.39063-.39065.92186zm-.32815 3.96877q0 .45313.20315.875.21875.42187.64065.65623.42185.2344.9062.2344.75 0 1.2344-.4844.5-.48436.5-1.23436 0-.76564-.5-1.26564-.5-.5-1.2656-.5-.75 0-1.2344.5-.4844.4844-.4844 1.21877zm11.39065-4-1.04685.07813q-.14065-.625-.39065-.90626-.4375-.45314-1.0625-.45314-.5 0-.89065.28127-.48435.375-.7812 1.07813-.2813.6875-.2969 1.96874.375-.57814.9219-.85937.5625-.28127 1.17185-.28127 1.04685 0 1.78125.78127.75.78123.75 2 0 .8125-.3594 1.51563-.3437.6875-.9531 1.0625-.6094.35937-1.375.35937-1.3281 0-2.15625-.96877-.82815-.96873-.82815-3.1875 0-2.5.9219-3.625.7969-.98436 2.15625-.98436 1.01565 0 1.65625.57813.65625.5625.78125 1.5625zm-4.29685 3.70313q0 .54687.2187 1.04687.2344.48437.64065.75.42185.26563.89065.26563.6562 0 1.1406-.53126.4844-.54687.4844-1.46874 0-.89063-.4844-1.40626-.46875-.51564-1.1875-.51564-.71875 0-1.21875.51564-.48435.51563-.48435 1.34376z" fill="#4285f4"/>
  <path d="m753.5 522.986 1.0625-.1406q.1719.8906.6094 1.2969.4375.3906 1.0625.3906.75 0 1.2656-.5156.5156-.51565.5156-1.2813 0-.7187-.48435-1.1875-.46875-.48435-1.20315-.48435-.29685 0-.75.125l.125-.9375q.1094.01565.1719.01565.6719 0 1.2031-.3438.5469-.35935.5469-1.0937 0-.57815-.3906-.95315-.39065-.39065-1.01565-.39065-.60935 0-1.03125.39065-.40625.39065-.5156 1.15625l-1.0625-.1875q.1875-1.0469.875-1.625.6875-.59375 1.7031-.59375.7031 0 1.2969.3125.5937.29685.9062.8125.3125.51565.3125 1.10935 0 .5469-.29685 1.01565-.29685.45315-.875.71875.75.1719 1.17185.7344.4219.54685.4219 1.3906 0 1.125-.8281 1.90625-.8125.78125-2.0625.78125-1.125 0-1.875-.6719-.75-.6875-.8594-1.75zm10.375 2.26565v-2.0625h-3.71875v-.96875l3.92185-5.5625h.8594v5.5625h1.15625v.96875h-1.15625v2.0625zm0-3.03125v-3.8594l-2.6875 3.8594zm7 3.03125v-2.0625h-3.71875v-.96875l3.92185-5.5625h.8594v5.5625h1.15625v.96875h-1.15625v2.0625zm0-3.03125v-3.8594l-2.6875 3.8594zm3.625.78125 1.1094-.09375q.125.8125.5625 1.21875.4531.40625 1.0937.40625.75 0 1.2813-.5781.5312-.57815.5312-1.51565 0-.90625-.5156-1.42185-.5-.5313-1.3281-.5313-.5 0-.9219.2344-.40625.2344-.6406.59375l-.9844-.125.8281-4.40625h4.2813v1h-3.4375l-.45315 2.3125q.76565-.5469 1.60935-.5469 1.125 0 1.89065.7813.78125.7812.78125 2.0156 0 1.15625-.6719 2.0156-.8281 1.0313-2.25 1.0313-1.17185 0-1.92185-.6563-.73435-.6562-.84375-1.73435z" stroke="#fff" stroke-linecap="round" stroke-linejoin="round" stroke-width="3"/>
  <path d="m753.5 522.986 1.0625-.1406q.1719.8906.6094 1.2969.4375.3906 1.0625.3906.75 0 1.2656-.5156.5156-.51565.5156-1.2813 0-.7187-.48435-1.1875-.46875-.48435-1.20315-.48435-.29685 0-.75.125l.125-.9375q.1094.01565.1719.01565.6719 0 1.2031-.3438.5469-.35935.5469-1.0937 0-.57815-.3906-.95315-.39065-.39065-1.01565-.39065-.60935 0-1.03125.39065-.40625.39065-.5156 1.15625l-1.0625-.1875q.1875-1.0469.875-1.625.6875-.59375 1.7031-.59375.7031 0 1.2969.3125.5937.29685.9062.8125.3125.51565.3125 1.10935 0 .5469-.29685 1.01565-.29685.45315-.875.71875.75.1719 1.17185.7344.4219.54685.4219 1.3906 0 1.125-.8281 1.90625-.8125.78125-2.0625.78125-1.125 0-1.875-.6719-.75-.6875-.8594-1.75zm10.375 2.26565v-2.0625h-3.71875v-.96875l3.92185-5.5625h.8594v5.5625h1.15625v.96875h-1.15625v2.0625zm0-3.03125v-3.8594l-2.6875 3.8594zm7 3.03125v-2.0625h-3.71875v-.96875l3.92185-5.5625h.8594v5.5625h1.15625v.96875h-1.15625v2.0625zm0-3.03125v-3.8594l-2.6875 3.8594zm3.625.78125 1.1094-.09375q.125.8125.5625 1.21875.4531.40625 1.0937.40625.75 0 1.2813-.5781.5312-.57815.5312-1.51565 0-.90625-.5156-1.42185-.5-.5313-1.3281-.5313-.5 0-.9219.2344-.40625.2344-.6406.59375l-.9844-.125.8281-4.40625h4.2813v1h-3.4375l-.45315 2.3125q.76565-.5469 1.60935-.5469 1.125 0 1.89065.7813.78125.7812.78125 2.0156 0 1.15625-.6719 2.0156-.8281 1.0313-2.25 1.0313-1.17185 0-1.92185-.6563-.73435-.6562-.84375-1.73435z" fill="#4285f4"/>
  <path d="m230 440.05258 1.10938-.09375q.125.8125.5625 1.21875.45312.40625 1.09374.40625.75 0 1.28126-.57813.53124-.57812.53124-1.51562 0-.90625-.51562-1.42188-.5-.53124-1.32812-.53124-.5 0-.92188.23437-.40625.23437-.64062.59375l-.98438-.125.82812-4.40625h4.28126v1h-3.4375l-.45313 2.3125q.76563-.54687 1.60937-.54687 1.125 0 1.89063.78124.78125.78126.78125 2.01563 0 1.15625-.67188 2.01563-.82812 1.03124-2.25 1.03124-1.17187 0-1.92187-.65624-.73437-.65626-.84375-1.73438zm10.96875 2.25h-1.04687v-6.71875q-.39063.35937-1.01563.73437-.60937.35938-1.09375.53126v-1.01563q.875-.42187 1.53125-1 .67187-.59375.95313-1.15625h.67187zm6.40625 0v-2.0625h-3.71875v-.96875l3.92187-5.5625h.85938v5.5625h1.15625v.96875h-1.15625v2.0625zm0-3.03125v-3.85937l-2.6875 3.85937zm5.25-1.625q-.65625-.25-.98438-.6875-.3125-.45313-.3125-1.0625 0-.9375.67188-1.57813.6875-.64062 1.79688-.64062 1.125 0 1.8125.65625.6875.65625.6875 1.59375 0 .59375-.3125 1.03125-.3125.4375-.95313.6875.79687.25 1.20313.82813.40624.57812.40624 1.375 0 1.09374-.78124 1.84374-.76563.75-2.04688.75-1.26562 0-2.04688-.75-.78124-.75-.78124-1.875 0-.84374.42187-1.40624.4375-.5625 1.21875-.76563zm-.21875-1.79687q0 .60937.39063 1 .40624.39062 1.03124.39062.60938 0 1-.375.39063-.39062.39063-.95312 0-.57813-.40625-.96876-.40625-.40624-1-.40624-.60938 0-1.01562.39062-.39063.39062-.39063.92188zm-.32813 3.96874q0 .45313.20313.875.21875.42188.64063.65626.42187.23437.90624.23437.75 0 1.23438-.48437.5-.48438.5-1.23438 0-.76562-.5-1.26562-.5-.5-1.26562-.5-.75 0-1.23438.5-.48438.48437-.48438 1.21874zm5.92188.23438 1.10938-.09375q.125.8125.5625 1.21875.45312.40625 1.09374.40625.75 0 1.28126-.57813.53124-.57812.53124-1.51562 0-.90625-.51562-1.42188-.5-.53124-1.32812-.53124-.5 0-.92188.23437-.40625.23437-.64062.59375l-.98438-.125.82812-4.40625h4.28126v1h-3.4375l-.45313 2.3125q.76563-.54687 1.60937-.54687 1.125 0 1.89063.78124.78125.78126.78125 2.01563 0 1.15625-.67188 2.01563-.82812 1.03124-2.25 1.03124-1.17187 0-1.92187-.65624-.73437-.65626-.84375-1.73438z" stroke="#fff" stroke-linecap="round" stroke-linejoin="round" stroke-width="3"/>
  <path d="m230 440.05258 1.10938-.09375q.125.8125.5625 1.21875.45312.40625 1.09374.40625.75 0 1.28126-.57813.53124-.57812.53124-1.51562 0-.90625-.51562-1.42188-.5-.53124-1.32812-.53124-.5 0-.92188.23437-.40625.23437-.64062.59375l-.98438-.125.82812-4.40625h4.28126v1h-3.4375l-.45313 2.3125q.76563-.54687 1.60937-.54687 1.125 0 1.89063.78124.78125.78126.78125 2.01563 0 1.15625-.67188 2.01563-.82812 1.03124-2.25 1.03124-1.17187 0-1.92187-.65624-.73437-.65626-.84375-1.73438zm10.96875 2.25h-1.04687v-6.71875q-.39063.35937-1.01563.73437-.60937.35938-1.09375.53126v-1.01563q.875-.42187 1.53125-1 .67187-.59375.95313-1.15625h.67187zm6.40625 0v-2.0625h-3.71875v-.96875l3.92187-5.5625h.85938v5.5625h1.15625v.96875h-1.15625v2.0625zm0-3.03125v-3.85937l-2.6875 3.85937zm5.25-1.625q-.65625-.25-.98438-.6875-.3125-.45313-.3125-1.0625 0-.9375.67188-1.57813.6875-.64062 1.79688-.64062 1.125 0 1.8125.65625.6875.65625.6875 1.59375 0 .59375-.3125 1.03125-.3125.4375-.95313.6875.79687.25 1.20313.82813.40624.57812.40624 1.375 0 1.09374-.78124 1.84374-.76563.75-2.04688.75-1.26562 0-2.04688-.75-.78124-.75-.78124-1.875 0-.84374.42187-1.40624.4375-.5625 1.21875-.76563zm-.21875-1.79687q0 .60937.39063 1 .40624.39062 1.03124.39062.60938 0 1-.375.39063-.39062.39063-.95312 0-.57813-.40625-.96876-.40625-.40624-1-.40624-.60938 0-1.01562.39062-.39063.39062-.39063.92188zm-.32813 3.96874q0 .45313.20313.875.21875.42188.64063.65626.42187.23437.90624.23437.75 0 1.23438-.48437.5-.48438.5-1.23438 0-.76562-.5-1.26562-.5-.5-1.26562-.5-.75 0-1.23438.5-.48438.48437-.48438 1.21874zm5.92188.23438 1.10938-.09375q.125.8125.5625 1.21875.45312.40625 1.09374.40625.75 0 1.28126-.57813.53124-.57812.53124-1.51562 0-.90625-.51562-1.42188-.5-.53124-1.32812-.53124-.5 0-.92188.23437-.40625.23437-.64062.59375l-.98438-.125.82812-4.40625h4.28126v1h-3.4375l-.45313 2.3125q.76563-.54687 1.60937-.54687 1.125 0 1.89063.78124.78125.78126.78125 2.01563 0 1.15625-.67188 2.01563-.82812 1.03124-2.25 1.03124-1.17187 0-1.92187-.65624-.73437-.65626-.84375-1.73438z" fill="#ea4335"/>
  <path d="m420.96875 512.0961h-1.04687v-6.7187q-.39063.3594-1.01563.7344-.60937.35936-1.09375.53124v-1.01564q.875-.42186 1.53125-1 .67187-.59374.95313-1.15624h.67187zm7 0h-1.04687v-6.7187q-.39063.3594-1.01563.7344-.60937.35936-1.09375.53124v-1.01564q.875-.42186 1.53125-1 .67187-.59374.95313-1.15624h.67187zm3.03125-4.2343q0-1.53126.3125-2.45314.3125-.9375.92188-1.4375.625-.5 1.5625-.5.6875 0 1.20312.28124.53125.28126.875.8125.34375.51564.53125 1.26564.1875.75.1875 2.03126 0 1.5156-.3125 2.4375-.29687.92186-.92187 1.4375-.60938.49996-1.5625.49996-1.23438 0-1.95313-.8906-.84375-1.0625-.84375-3.48436zm1.07812 0q0 2.10936.5 2.8125.5.7031 1.21876.7031.73437 0 1.21874-.7031.5-.70314.5-2.8125 0-2.125-.5-2.8125-.48437-.70314-1.23437-.70314-.71875 0-1.15625.60938-.54688.78126-.54688 2.90626zm11.39063-2.25-1.04687.0781q-.14063-.625-.39063-.90624-.4375-.45312-1.0625-.45312-.5 0-.89063.28126-.48437.375-.78124 1.0781-.28126.6875-.29688 1.96876.375-.57812.92188-.85936.5625-.28126 1.17187-.28126 1.04687 0 1.78125.78126.75.78124.75 2 0 .8125-.35938 1.5156-.34374.6875-.95312 1.0625-.60938.35936-1.375.35936-1.32812 0-2.15625-.96872-.82813-.96874-.82813-3.1875 0-2.5.92188-3.625.79688-.98438 2.15625-.98438 1.01563 0 1.65625.57814.65625.5625.78125 1.5625zm-4.29687 3.7031q0 .5469.21874 1.0469.23438.48436.64063.75.42187.2656.89063.2656.65624 0 1.14062-.53124.48438-.54686.48438-1.46876 0-.8906-.48438-1.40624-.46875-.51562-1.1875-.51562-.71875 0-1.21875.51562-.48437.51564-.48437 1.34374zm9.20312 2.7812v-2.06244h-3.71875v-.96876l3.92187-5.5625h.85938v5.5625h1.15625v.96876h-1.15625v2.06244zm0-3.0312v-3.85936l-2.6875 3.85936z" stroke="#fff" stroke-linecap="round" stroke-linejoin="round" stroke-width="3"/>
  <path d="m420.96875 512.0961h-1.04687v-6.71872q-.39063.35938-1.01563.73438-.60937.35937-1.09375.53124v-1.01562q.875-.42188 1.53125-1 .67187-.59375.95313-1.15625h.67187zm7 0h-1.04687v-6.71872q-.39063.35938-1.01563.73438-.60937.35937-1.09375.53124v-1.01562q.875-.42188 1.53125-1 .67187-.59375.95313-1.15625h.67187zm3.03125-4.23434q0-1.53126.3125-2.45313.3125-.9375.92188-1.4375.625-.5 1.5625-.5.6875 0 1.20312.28125.53125.28125.875.8125.34375.51562.53125 1.26562.1875.75.1875 2.03126 0 1.51562-.3125 2.4375-.29687.92187-.92187 1.4375-.60938.5-1.5625.5-1.23438 0-1.95313-.89063-.84375-1.0625-.84375-3.48437zm1.07812 0q0 2.10937.5 2.8125.5.70312 1.21876.70312.73437 0 1.21874-.70312.5-.70313.5-2.8125 0-2.125-.5-2.8125-.48437-.70313-1.23437-.70313-.71875 0-1.15625.60937-.54688.78126-.54688 2.90626zm11.39063-2.25-1.04687.07812q-.14063-.625-.39063-.90625-.4375-.45313-1.0625-.45313-.5 0-.89063.28126-.48437.375-.78124 1.07812-.28126.6875-.29688 1.96875.375-.57813.92188-.85937.5625-.28126 1.17187-.28126 1.04687 0 1.78125.78126.75.78124.75 2 0 .8125-.35938 1.51562-.34374.6875-.95312 1.0625-.60938.35938-1.375.35938-1.32812 0-2.15625-.96876-.82813-.96874-.82813-3.1875 0-2.5.92188-3.625.79688-.98437 2.15625-.98437 1.01563 0 1.65625.57813.65625.5625.78125 1.5625zm-4.29687 3.70312q0 .54688.21874 1.04688.23438.48437.64063.75.42187.26562.89063.26562.65624 0 1.14062-.53125.48438-.54687.48438-1.46875 0-.89062-.48438-1.40625-.46875-.51563-1.1875-.51563-.71875 0-1.21875.51563-.48437.51563-.48437 1.34375zm9.20312 2.78122v-2.06247h-3.71875v-.96875l3.92187-5.5625h.85938v5.5625h1.15625v.96875h-1.15625v2.06247zm0-3.03122v-3.85938l-2.6875 3.85938z" fill="#ea4335"/>
  <path d="m607.96875 511.74564h-1.04685v-6.71874q-.39065.35936-1.01565.73436-.60935.35938-1.09375.53124v-1.0156q.875-.4219 1.53125-1 .67185-.59376.95315-1.15626h.67185zm7 0h-1.04685v-6.71874q-.39065.35936-1.01565.73436-.60935.35938-1.09375.53124v-1.0156q.875-.4219 1.53125-1 .67185-.59376.95315-1.15626h.67185zm8.57815-1.01564v1.01564h-5.6875q0-.375.125-.73438.2187-.57812.6875-1.14062.48435-.5625 1.3906-1.29688 1.40625-1.15626 1.8906-1.82812.5-.67188.5-1.26564 0-.625-.4531-1.04686-.4531-.4375-1.1719-.4375-.7656 0-1.2187.45312-.45315.45314-.4688 1.26564l-1.0781-.1094q.1094-1.21874.8281-1.84374.7344-.64062 1.9688-.64062 1.23435 0 1.9531.6875.71875.6875.71875 1.70312 0 .51564-.21875 1.01564-.2031.48436-.7031 1.04686-.4844.54688-1.6094 1.5-.9531.79688-1.2344 1.09374-.2656.28126-.4375.5625zm6.92185-5.46874-1.04685.07814q-.14065-.625-.39065-.90626-.4375-.45314-1.0625-.45314-.5 0-.89065.28126-.48435.375-.7812 1.07814-.2813.6875-.2969 1.96874.375-.57814.9219-.85938.5625-.28126 1.17185-.28126 1.04685 0 1.78125.78126.75.78124.75 2 0 .8125-.3594 1.51564-.3437.6875-.9531 1.0625-.6094.35936-1.375.35936-1.3281 0-2.15625-.96876-.82815-.96874-.82815-3.1875 0-2.5.9219-3.625.7969-.98436 2.15625-.98436 1.01565 0 1.65625.57812.65625.5625.78125 1.5625zm-4.29685 3.70314q0 .54686.2187 1.04686.2344.48438.64065.75.42185.26564.89065.26564.6562 0 1.1406-.53126.4844-.54688.4844-1.46874 0-.89064-.4844-1.40626-.46875-.51564-1.1875-.51564-.71875 0-1.21875.51564-.48435.51562-.48435 1.34376zm5.8906-4.6875v-1.01564h5.5625v.82814q-.8125.875-1.625 2.3281-.7969 1.4375-1.2344 2.96876-.3281 1.07814-.4062 2.35938h-1.0938q.01565-1.01564.39065-2.45314.39065-1.4375 1.09375-2.7656.71875-1.32814 1.53125-2.25z" stroke="#fff" stroke-linecap="round" stroke-linejoin="round" stroke-width="3"/>
  <path d="m607.96875 511.74564h-1.04685v-6.71874q-.39065.35936-1.01565.73436-.60935.35938-1.09375.53124v-1.0156q.875-.4219 1.53125-1 .67185-.59376.95315-1.15626h.67185zm7 0h-1.04685v-6.71874q-.39065.35936-1.01565.73436-.60935.35938-1.09375.53124v-1.0156q.875-.4219 1.53125-1 .67185-.59376.95315-1.15626h.67185zm8.57815-1.01564v1.01564h-5.6875q0-.375.125-.73438.2187-.57812.6875-1.14062.48435-.5625 1.3906-1.29688 1.40625-1.15626 1.8906-1.82812.5-.67188.5-1.26564 0-.625-.4531-1.04686-.4531-.4375-1.1719-.4375-.7656 0-1.2187.45312-.45315.45314-.4688 1.26564l-1.0781-.1094q.1094-1.21874.8281-1.84374.7344-.64062 1.9688-.64062 1.23435 0 1.9531.6875.71875.6875.71875 1.70312 0 .51564-.21875 1.01564-.2031.48436-.7031 1.04686-.4844.54688-1.6094 1.5-.9531.79688-1.2344 1.09374-.2656.28126-.4375.5625zm6.92185-5.46874-1.04685.07814q-.14065-.625-.39065-.90626-.4375-.45314-1.0625-.45314-.5 0-.89065.28126-.48435.375-.7812 1.07814-.2813.6875-.2969 1.96874.375-.57814.9219-.85938.5625-.28126 1.17185-.28126 1.04685 0 1.78125.78126.75.78124.75 2 0 .8125-.3594 1.51564-.3437.6875-.9531 1.0625-.6094.35936-1.375.35936-1.3281 0-2.15625-.96876-.82815-.96874-.82815-3.1875 0-2.5.9219-3.625.7969-.98436 2.15625-.98436 1.01565 0 1.65625.57812.65625.5625.78125 1.5625zm-4.29685 3.70314q0 .54686.2187 1.04686.2344.48438.64065.75.42185.26564.89065.26564.6562 0 1.1406-.53126.4844-.54688.4844-1.46874 0-.89064-.4844-1.40626-.46875-.51564-1.1875-.51564-.71875 0-1.21875.51564-.48435.51562-.48435 1.34376zm5.8906-4.6875v-1.01564h5.5625v.82814q-.8125.875-1.625 2.3281-.7969 1.4375-1.2344 2.96876-.3281 1.07814-.4062 2.35938h-1.0938q.01565-1.01564.39065-2.45314.39065-1.4375 1.09375-2.7656.71875-1.32814 1.53125-2.25z" fill="#ea4335"/>
  <path d="m794.65625 511.96277 1.01565-.09375q.125.71875.48435 1.04688.375.3125.9375.3125.48435 0 .84375-.21876.375-.23437.6094-.59374.23435-.375.3906-1 .15625-.64063.15625-1.29688 0-.07812 0-.21875-.3125.5-.85935.82813-.5469.3125-1.1875.3125-1.07815 0-1.8125-.76563-.7344-.78125-.7344-2.04687 0-1.3125.7656-2.10938.7813-.79688 1.9375-.79688.82815 0 1.51565.45313.70315.45313 1.0625 1.29687.35935.82813.35935 2.40626 0 1.64062-.35935 2.625-.34375.96874-1.0625 1.48437-.70315.5-1.64065.5-1.0156 0-1.6562-.54687-.64065-.5625-.76565-1.57813zm4.3125-3.79687q0-.90626-.48435-1.4375-.4688-.53126-1.1563-.53126-.7031 0-1.23435.57813-.51565.5625-.51565 1.48437 0 .8125.5 1.32813.5.51563 1.2188.51563.73435 0 1.2031-.51563.46875-.51563.46875-1.42187zm2.6875 3.79687 1.01565-.09375q.125.71875.48435 1.04688.375.3125.9375.3125.48435 0 .84375-.21876.375-.23437.6094-.59374.23435-.375.3906-1 .15625-.64063.15625-1.29688 0-.07812 0-.21875-.3125.5-.85935.82813-.5469.3125-1.1875.3125-1.07815 0-1.8125-.76563-.7344-.78125-.7344-2.04687 0-1.3125.7656-2.10938.7813-.79688 1.9375-.79688.82815 0 1.51565.45313.70315.45313 1.0625 1.29687.35935.82813.35935 2.40626 0 1.64062-.35935 2.625-.34375.96874-1.0625 1.48437-.70315.5-1.64065.5-1.0156 0-1.6562-.54687-.64065-.5625-.76565-1.57813zm4.3125-3.79687q0-.90626-.48435-1.4375-.4688-.53126-1.1563-.53126-.7031 0-1.23435.57813-.51565.5625-.51565 1.48437 0 .8125.5 1.32813.5.51563 1.2188.51563.73435 0 1.2031-.51563.46875-.51563.46875-1.42187zm2.6875 3.79687 1.01565-.09375q.125.71875.48435 1.04688.375.3125.9375.3125.48435 0 .84375-.21876.375-.23437.6094-.59374.23435-.375.3906-1 .15625-.64063.15625-1.29688 0-.07812 0-.21875-.3125.5-.85935.82813-.5469.3125-1.1875.3125-1.07815 0-1.8125-.76563-.7344-.78125-.7344-2.04687 0-1.3125.7656-2.10938.7813-.79688 1.9375-.79688.82815 0 1.51565.45313.70315.45313 1.0625 1.29687.35935.82813.35935 2.40626 0 1.64062-.35935 2.625-.34375.96874-1.0625 1.48437-.70315.5-1.64065.5-1.0156 0-1.6562-.54687-.64065-.5625-.76565-1.57813zm4.3125-3.79687q0-.90626-.48435-1.4375-.4688-.53126-1.1563-.53126-.7031 0-1.23435.57813-.51565.5625-.51565 1.48437 0 .8125.5 1.32813.5.51563 1.2188.51563.73435 0 1.2031-.51563.46875-.51563.46875-1.42187zm8.07815 4.7656v1.01564h-5.6875q0-.375.125-.73437.2187-.57813.6875-1.14063.48435-.5625 1.3906-1.29687 1.40625-1.15625 1.8906-1.82813.5-.67187.5-1.26562 0-.625-.4531-1.04688-.4531-.4375-1.1719-.4375-.7656 0-1.2187.45313-.45315.45313-.4688 1.26563l-1.0781-.10938q.1094-1.21875.8281-1.84375.7344-.64063 1.9688-.64063 1.23435 0 1.9531.6875.71875.6875.71875 1.70313 0 .51563-.21875 1.01563-.2031.48437-.7031 1.04687-.4844.54687-1.6094 1.5-.9531.79687-1.2344 1.09373-.2656.28127-.4375.5625z" stroke="#fff" stroke-linecap="round" stroke-linejoin="round" stroke-width="3"/>
  <path d="m794.65625 511.96277 1.01565-.09375q.125.71875.48435 1.04688.375.3125.9375.3125.48435 0 .84375-.21876.375-.23437.6094-.59374.23435-.375.3906-1 .15625-.64063.15625-1.29688 0-.07812 0-.21875-.3125.5-.85935.82813-.5469.3125-1.1875.3125-1.07815 0-1.8125-.76563-.7344-.78125-.7344-2.04687 0-1.3125.7656-2.10938.7813-.79688 1.9375-.79688.82815 0 1.51565.45313.70315.45313 1.0625 1.29687.35935.82813.35935 2.40626 0 1.64062-.35935 2.625-.34375.96874-1.0625 1.48437-.70315.5-1.64065.5-1.0156 0-1.6562-.54687-.64065-.5625-.76565-1.57813zm4.3125-3.79687q0-.90626-.48435-1.4375-.4688-.53126-1.1563-.53126-.7031 0-1.23435.57813-.51565.5625-.51565 1.48437 0 .8125.5 1.32813.5.51563 1.2188.51563.73435 0 1.2031-.51563.46875-.51563.46875-1.42187zm2.6875 3.79687 1.01565-.09375q.125.71875.48435 1.04688.375.3125.9375.3125.48435 0 .84375-.21876.375-.23437.6094-.59374.23435-.375.3906-1 .15625-.64063.15625-1.29688 0-.07812 0-.21875-.3125.5-.85935.82813-.5469.3125-1.1875.3125-1.07815 0-1.8125-.76563-.7344-.78125-.7344-2.04687 0-1.3125.7656-2.10938.7813-.79688 1.9375-.79688.82815 0 1.51565.45313.70315.45313 1.0625 1.29687.35935.82813.35935 2.40626 0 1.64062-.35935 2.625-.34375.96874-1.0625 1.48437-.70315.5-1.64065.5-1.0156 0-1.6562-.54687-.64065-.5625-.76565-1.57813zm4.3125-3.79687q0-.90626-.48435-1.4375-.4688-.53126-1.1563-.53126-.7031 0-1.23435.57813-.51565.5625-.51565 1.48437 0 .8125.5 1.32813.5.51563 1.2188.51563.73435 0 1.2031-.51563.46875-.51563.46875-1.42187zm2.6875 3.79687 1.01565-.09375q.125.71875.48435 1.04688.375.3125.9375.3125.48435 0 .84375-.21876.375-.23437.6094-.59374.23435-.375.3906-1 .15625-.64063.15625-1.29688 0-.07812 0-.21875-.3125.5-.85935.82813-.5469.3125-1.1875.3125-1.07815 0-1.8125-.76563-.7344-.78125-.7344-2.04687 0-1.3125.7656-2.10938.7813-.79688 1.9375-.79688.82815 0 1.51565.45313.70315.45313 1.0625 1.29687.35935.82813.35935 2.40626 0 1.64062-.35935 2.625-.34375.96874-1.0625 1.48437-.70315.5-1.64065.5-1.0156 0-1.6562-.54687-.64065-.5625-.76565-1.57813zm4.3125-3.79687q0-.90626-.48435-1.4375-.4688-.53126-1.1563-.53126-.7031 0-1.23435.57813-.51565.5625-.51565 1.48437 0 .8125.5 1.32813.5.51563 1.2188.51563.73435 0 1.2031-.51563.46875-.51563.46875-1.42187zm8.07815 4.7656v1.01564h-5.6875q0-.375.125-.73437.2187-.57813.6875-1.14063.48435-.5625 1.3906-1.29687 1.40625-1.15625 1.8906-1.82813.5-.67187.5-1.26562 0-.625-.4531-1.04688-.4531-.4375-1.1719-.4375-.7656 0-1.2187.45313-.45315.45313-.4688 1.26563l-1.0781-.10938q.1094-1.21875.8281-1.84375.7344-.64063 1.9688-.64063 1.23435 0 1.9531.6875.71875.6875.71875 1.70313 0 .51563-.21875 1.01563-.2031.48437-.7031 1.04687-.4844.54687-1.6094 1.5-.9531.79687-1.2344 1.09373-.2656.28127-.4375.5625z" fill="#ea4335"/>
  <path d="m273.04688 178.19475v1.01562h-5.6875q0-.375.125-.73437.21874-.57813.6875-1.14063.48437-.5625 1.39062-1.29687 1.40625-1.15625 1.89062-1.82813.5-.67187.5-1.26562 0-.625-.45312-1.04688-.45312-.4375-1.17188-.4375-.76562 0-1.21874.45313-.45313.45312-.46876 1.26562l-1.07812-.10937q.10938-1.21875.82812-1.84375.73438-.64063 1.96876-.64063 1.23437 0 1.95312.6875.71875.6875.71875 1.70313 0 .51562-.21875 1.01562-.20312.48438-.70312 1.04688-.48438.54687-1.60938 1.5-.95312.79687-1.23438 1.09375-.26562.28125-.4375.5625zm1.45312-3.21875q0-1.53125.3125-2.45313.3125-.9375.92188-1.4375.625-.5 1.5625-.5.6875 0 1.20312.28125.53125.28125.875.8125.34375.51563.53125 1.26563.1875.75.1875 2.03125 0 1.51562-.3125 2.4375-.29687.92187-.92187 1.4375-.60938.5-1.5625.5-1.23438 0-1.95313-.89063-.84375-1.0625-.84375-3.48437zm1.07812 0q0 2.10937.5 2.8125.5.70312 1.21876.70312.73437 0 1.21874-.70312.5-.70313.5-2.8125 0-2.125-.5-2.8125-.48437-.70313-1.23437-.70313-.71875 0-1.15625.60938-.54688.78125-.54688 2.90625zm5.92188 1.96875 1.0625-.14063q.17188.89063.60938 1.29688.4375.39062 1.0625.39062.75 0 1.26562-.51562.51562-.51563.51562-1.28125 0-.71875-.48437-1.1875-.46875-.48438-1.20313-.48438-.29687 0-.75.125l.125-.9375q.10938.01563.17188.01563.67188 0 1.20312-.34375.54688-.35938.54688-1.09375 0-.57813-.39062-.95313-.39063-.39062-1.01563-.39062-.60937 0-1.03125.39062-.40625.39063-.51562 1.15625l-1.0625-.1875q.1875-1.04687.875-1.625.6875-.59375 1.70312-.59375.70312 0 1.29688.3125.59374.29688.90624.8125.3125.51563.3125 1.10938 0 .54687-.29687 1.01562-.29687.45313-.875.71875.75.17188 1.17187.73438.42188.54687.42188 1.39062 0 1.125-.82812 1.90625-.8125.78125-2.0625.78125-1.125 0-1.875-.67187-.75-.6875-.85938-1.75zm8.625-2.39063q-.65625-.25-.98438-.6875-.3125-.45312-.3125-1.0625 0-.9375.67188-1.57812.6875-.64063 1.79688-.64063 1.125 0 1.8125.65625.6875.65625.6875 1.59375 0 .59375-.3125 1.03125-.3125.4375-.95313.6875.79687.25 1.20313.82813.40624.57812.40624 1.375 0 1.09375-.78124 1.84375-.76563.75-2.04688.75-1.26562 0-2.04688-.75-.78124-.75-.78124-1.875 0-.84375.42187-1.40625.4375-.5625 1.21875-.76563zm-.21875-1.79687q0 .60937.39063 1 .40624.39062 1.03124.39062.60938 0 1-.375.39063-.39062.39063-.95312 0-.57813-.40625-.96875-.40625-.40625-1-.40625-.60938 0-1.01562.39062-.39063.39063-.39063.92188zm-.32813 3.96875q0 .45312.20313.875.21875.42187.64063.65625.42187.23437.90624.23437.75 0 1.23438-.48437.5-.48438.5-1.23438 0-.76562-.5-1.26562-.5-.5-1.26562-.5-.75 0-1.23438.5-.48438.48437-.48438 1.21875zm5.92188.23437 1.10938-.09375q.125.8125.5625 1.21875.45312.40625 1.09374.40625.75 0 1.28126-.57812.53124-.57813.53124-1.51563 0-.90625-.51562-1.42187-.5-.53125-1.32812-.53125-.5 0-.92188.23437-.40625.23438-.64062.59375l-.98438-.125.82812-4.40625h4.28126v1h-3.4375l-.45313 2.3125q.76563-.54687 1.60937-.54687 1.125 0 1.89063.78125.78125.78125.78125 2.01562 0 1.15625-.67188 2.01563-.82812 1.03125-2.25 1.03125-1.17187 0-1.92187-.65625-.73437-.65625-.84375-1.73438zm7 0 1.10938-.09375q.125.8125.5625 1.21875.45312.40625 1.09374.40625.75 0 1.28126-.57812.53124-.57813.53124-1.51563 0-.90625-.51562-1.42187-.5-.53125-1.32812-.53125-.5 0-.92188.23437-.40625.23438-.64062.59375l-.98438-.125.82812-4.40625h4.28126v1h-3.4375l-.45313 2.3125q.76563-.54687 1.60937-.54687 1.125 0 1.89063.78125.78125.78125.78125 2.01562 0 1.15625-.67188 2.01563-.82812 1.03125-2.25 1.03125-1.17187 0-1.92187-.65625-.73437-.65625-.84375-1.73438z" stroke="#fff" stroke-linecap="round" stroke-linejoin="round" stroke-width="3"/>
  <path d="m273.04688 178.19475v1.01562h-5.6875q0-.375.125-.73437.21874-.57813.6875-1.14063.48437-.5625 1.39062-1.29687 1.40625-1.15625 1.89062-1.82813.5-.67187.5-1.26562 0-.625-.45312-1.04688-.45312-.4375-1.17188-.4375-.76562 0-1.21874.45313-.45313.45312-.46876 1.26562l-1.07812-.10937q.10938-1.21875.82812-1.84375.73438-.64063 1.96876-.64063 1.23437 0 1.95312.6875.71875.6875.71875 1.70313 0 .51562-.21875 1.01562-.20312.48438-.70312 1.04688-.48438.54687-1.60938 1.5-.95312.79687-1.23438 1.09375-.26562.28125-.4375.5625zm1.45312-3.21875q0-1.53125.3125-2.45313.3125-.9375.92188-1.4375.625-.5 1.5625-.5.6875 0 1.20312.28125.53125.28125.875.8125.34375.51563.53125 1.26563.1875.75.1875 2.03125 0 1.51562-.3125 2.4375-.29687.92187-.92187 1.4375-.60938.5-1.5625.5-1.23438 0-1.95313-.89063-.84375-1.0625-.84375-3.48437zm1.07812 0q0 2.10937.5 2.8125.5.70312 1.21876.70312.73437 0 1.21874-.70312.5-.70313.5-2.8125 0-2.125-.5-2.8125-.48437-.70313-1.23437-.70313-.71875 0-1.15625.60938-.54688.78125-.54688 2.90625zm5.92188 1.96875 1.0625-.14063q.17188.89063.60938 1.29688.4375.39062 1.0625.39062.75 0 1.26562-.51562.51562-.51563.51562-1.28125 0-.71875-.48437-1.1875-.46875-.48438-1.20313-.48438-.29687 0-.75.125l.125-.9375q.10938.01563.17188.01563.67188 0 1.20312-.34375.54688-.35938.54688-1.09375 0-.57813-.39062-.95313-.39063-.39062-1.01563-.39062-.60937 0-1.03125.39062-.40625.39063-.51562 1.15625l-1.0625-.1875q.1875-1.04687.875-1.625.6875-.59375 1.70312-.59375.70312 0 1.29688.3125.59374.29688.90624.8125.3125.51563.3125 1.10938 0 .54687-.29687 1.01562-.29687.45313-.875.71875.75.17188 1.17187.73438.42188.54687.42188 1.39062 0 1.125-.82812 1.90625-.8125.78125-2.0625.78125-1.125 0-1.875-.67187-.75-.6875-.85938-1.75zm8.625-2.39063q-.65625-.25-.98438-.6875-.3125-.45312-.3125-1.0625 0-.9375.67188-1.57812.6875-.64063 1.79688-.64063 1.125 0 1.8125.65625.6875.65625.6875 1.59375 0 .59375-.3125 1.03125-.3125.4375-.95313.6875.79687.25 1.20313.82813.40624.57812.40624 1.375 0 1.09375-.78124 1.84375-.76563.75-2.04688.75-1.26562 0-2.04688-.75-.78124-.75-.78124-1.875 0-.84375.42187-1.40625.4375-.5625 1.21875-.76563zm-.21875-1.79687q0 .60937.39063 1 .40624.39062 1.03124.39062.60938 0 1-.375.39063-.39062.39063-.95312 0-.57813-.40625-.96875-.40625-.40625-1-.40625-.60938 0-1.01562.39062-.39063.39063-.39063.92188zm-.32813 3.96875q0 .45312.20313.875.21875.42187.64063.65625.42187.23437.90624.23437.75 0 1.23438-.48437.5-.48438.5-1.23438 0-.76562-.5-1.26562-.5-.5-1.26562-.5-.75 0-1.23438.5-.48438.48437-.48438 1.21875zm5.92188.23437 1.10938-.09375q.125.8125.5625 1.21875.45312.40625 1.09374.40625.75 0 1.28126-.57812.53124-.57813.53124-1.51563 0-.90625-.51562-1.42187-.5-.53125-1.32812-.53125-.5 0-.92188.23437-.40625.23438-.64062.59375l-.98438-.125.82812-4.40625h4.28126v1h-3.4375l-.45313 2.3125q.76563-.54687 1.60937-.54687 1.125 0 1.89063.78125.78125.78125.78125 2.01562 0 1.15625-.67188 2.01563-.82812 1.03125-2.25 1.03125-1.17187 0-1.92187-.65625-.73437-.65625-.84375-1.73438zm7 0 1.10938-.09375q.125.8125.5625 1.21875.45312.40625 1.09374.40625.75 0 1.28126-.57812.53124-.57813.53124-1.51563 0-.90625-.51562-1.42187-.5-.53125-1.32812-.53125-.5 0-.92188.23437-.40625.23438-.64062.59375l-.98438-.125.82812-4.40625h4.28126v1h-3.4375l-.45313 2.3125q.76563-.54687 1.60937-.54687 1.125 0 1.89063.78125.78125.78125.78125 2.01562 0 1.15625-.67188 2.01563-.82812 1.03125-2.25 1.03125-1.17187 0-1.92187-.65625-.73437-.65625-.84375-1.73438z" fill="#34a853"/>
  <path d="m458 460.4375 1.0625-.14062q.17188.89062.60938 1.29687.4375.39063 1.0625.39063.75 0 1.26562-.51563.51562-.51563.51562-1.28125 0-.71875-.48437-1.1875-.46875-.48438-1.20313-.48438-.29687 0-.75.125l.125-.9375q.10938.01563.17188.01563.67188 0 1.20312-.34375.54688-.35938.54688-1.09375 0-.57813-.39062-.95313-.39063-.39062-1.01563-.39062-.60937 0-1.03125.39062-.40625.39063-.51562 1.15626l-1.0625-.1875q.1875-1.04688.875-1.625.6875-.59376 1.70312-.59376.70312 0 1.29688.3125.59374.29688.90624.8125.3125.51563.3125 1.10938 0 .54688-.29687 1.01562-.29687.45313-.875.71876.75.17187 1.17187.73437.42188.54687.42188 1.39063 0 1.125-.82812 1.90624-.8125.78126-2.0625.78126-1.125 0-1.875-.67188-.75-.6875-.85938-1.75zm7.15625.28125 1.01563-.09375q.125.71875.48437 1.04688.375.3125.9375.3125.48437 0 .84375-.21876.375-.23437.60938-.59374.23437-.375.39062-1 .15625-.64063.15625-1.29688 0-.07812 0-.21875-.3125.5-.85937.82813-.54688.3125-1.1875.3125-1.07813 0-1.8125-.76563-.73438-.78125-.73438-2.04687 0-1.3125.76562-2.10938.78126-.79688 1.9375-.79688.82813 0 1.51563.45313.70313.45313 1.0625 1.29687.35937.82813.35937 2.40626 0 1.64062-.35937 2.625-.34375.96874-1.0625 1.48437-.70313.5-1.64063.5-1.01562 0-1.65624-.54687-.64063-.5625-.76563-1.57813zm4.3125-3.79687q0-.90626-.48437-1.4375-.46876-.53126-1.15626-.53126-.70312 0-1.23437.57813-.51563.5625-.51563 1.48437 0 .8125.5 1.32813.5.51563 1.21876.51563.73437 0 1.20312-.51563.46875-.51563.46875-1.42187zm8-.70313-1.04687.07813q-.14063-.625-.39063-.90626-.4375-.45312-1.0625-.45312-.5 0-.89063.28125-.48437.375-.78124 1.07813-.28126.6875-.29688 1.96874.375-.57812.92188-.85937.5625-.28125 1.17187-.28125 1.04687 0 1.78125.78125.75.78125.75 2 0 .8125-.35938 1.51563-.34374.6875-.95312 1.0625-.60938.35937-1.375.35937-1.32812 0-2.15625-.96875-.82813-.96875-.82813-3.1875 0-2.5.92188-3.625.79688-.98438 2.15625-.98438 1.01563 0 1.65625.57813.65625.5625.78125 1.5625zm-4.29687 3.70313q0 .54687.21874 1.04687.23438.48437.64063.75.42187.26563.89063.26563.65624 0 1.14062-.53126.48438-.54687.48438-1.46874 0-.89063-.48438-1.40626-.46875-.51562-1.1875-.51562-.71875 0-1.21875.51562-.48437.51563-.48437 1.34376zm5.89062-4.6875v-1.01563h5.5625v.82813q-.8125.875-1.625 2.32812-.79688 1.4375-1.23438 2.96875-.32812 1.07813-.40624 2.35937h-1.09376q.01563-1.01562.39063-2.45312.39063-1.4375 1.09375-2.76562.71875-1.32813 1.53125-2.25zm6.9375 3.23437q0-1.53125.3125-2.45313.3125-.9375.92188-1.4375.625-.5 1.5625-.5.6875 0 1.20312.28126.53125.28124.875.8125.34375.51562.53125 1.26562.1875.75.1875 2.03125 0 1.51563-.3125 2.4375-.29687.92187-.92187 1.4375-.60938.5-1.5625.5-1.23438 0-1.95313-.89063-.84375-1.0625-.84375-3.48437zm1.07812 0q0 2.10937.5 2.8125.5.70313 1.21876.70313.73437 0 1.21874-.70313.5-.70313.5-2.8125 0-2.125-.5-2.8125-.48437-.70313-1.23437-.70313-.71875 0-1.15625.60938-.54688.78125-.54688 2.90625z" stroke="#fff" stroke-linecap="round" stroke-linejoin="round" stroke-width="3"/>
  <path d="m458 460.4375 1.0625-.14062q.17188.89062.60938 1.29687.4375.39063 1.0625.39063.75 0 1.26562-.51563.51562-.51563.51562-1.28125 0-.71875-.48437-1.1875-.46875-.48438-1.20313-.48438-.29687 0-.75.125l.125-.9375q.10938.01563.17188.01563.67188 0 1.20312-.34375.54688-.35938.54688-1.09375 0-.57813-.39062-.95313-.39063-.39062-1.01563-.39062-.60937 0-1.03125.39062-.40625.39063-.51562 1.15626l-1.0625-.1875q.1875-1.04688.875-1.625.6875-.59376 1.70312-.59376.70312 0 1.29688.3125.59374.29688.90624.8125.3125.51563.3125 1.10938 0 .54688-.29687 1.01562-.29687.45313-.875.71876.75.17187 1.17187.73437.42188.54687.42188 1.39063 0 1.125-.82812 1.90624-.8125.78126-2.0625.78126-1.125 0-1.875-.67188-.75-.6875-.85938-1.75zm7.15625.28125 1.01563-.09375q.125.71875.48437 1.04688.375.3125.9375.3125.48437 0 .84375-.21876.375-.23437.60938-.59374.23437-.375.39062-1 .15625-.64063.15625-1.29688 0-.07812 0-.21875-.3125.5-.85937.82813-.54688.3125-1.1875.3125-1.07813 0-1.8125-.76563-.73438-.78125-.73438-2.04687 0-1.3125.76562-2.10938.78126-.79688 1.9375-.79688.82813 0 1.51563.45313.70313.45313 1.0625 1.29687.35937.82813.35937 2.40626 0 1.64062-.35937 2.625-.34375.96874-1.0625 1.48437-.70313.5-1.64063.5-1.01562 0-1.65624-.54687-.64063-.5625-.76563-1.57813zm4.3125-3.79687q0-.90626-.48437-1.4375-.46876-.53126-1.15626-.53126-.70312 0-1.23437.57813-.51563.5625-.51563 1.48437 0 .8125.5 1.32813.5.51563 1.21876.51563.73437 0 1.20312-.51563.46875-.51563.46875-1.42187zm8-.70313-1.04687.07813q-.14063-.625-.39063-.90626-.4375-.45312-1.0625-.45312-.5 0-.89063.28125-.48437.375-.78124 1.07813-.28126.6875-.29688 1.96874.375-.57812.92188-.85937.5625-.28125 1.17187-.28125 1.04687 0 1.78125.78125.75.78125.75 2 0 .8125-.35938 1.51563-.34374.6875-.95312 1.0625-.60938.35937-1.375.35937-1.32812 0-2.15625-.96875-.82813-.96875-.82813-3.1875 0-2.5.92188-3.625.79688-.98438 2.15625-.98438 1.01563 0 1.65625.57813.65625.5625.78125 1.5625zm-4.29687 3.70313q0 .54687.21874 1.04687.23438.48437.64063.75.42187.26563.89063.26563.65624 0 1.14062-.53126.48438-.54687.48438-1.46874 0-.89063-.48438-1.40626-.46875-.51562-1.1875-.51562-.71875 0-1.21875.51562-.48437.51563-.48437 1.34376zm5.89062-4.6875v-1.01563h5.5625v.82813q-.8125.875-1.625 2.32812-.79688 1.4375-1.23438 2.96875-.32812 1.07813-.40624 2.35937h-1.09376q.01563-1.01562.39063-2.45312.39063-1.4375 1.09375-2.76562.71875-1.32813 1.53125-2.25zm6.9375 3.23437q0-1.53125.3125-2.45313.3125-.9375.92188-1.4375.625-.5 1.5625-.5.6875 0 1.20312.28126.53125.28124.875.8125.34375.51562.53125 1.26562.1875.75.1875 2.03125 0 1.51563-.3125 2.4375-.29687.92187-.92187 1.4375-.60938.5-1.5625.5-1.23438 0-1.95313-.89063-.84375-1.0625-.84375-3.48437zm1.07812 0q0 2.10937.5 2.8125.5.70313 1.21876.70313.73437 0 1.21874-.70313.5-.70313.5-2.8125 0-2.125-.5-2.8125-.48437-.70313-1.23437-.70313-.71875 0-1.15625.60938-.54688.78125-.54688 2.90625z" fill="#34a853"/>
  <path d="m648.375 461.5221v-2.0625h-3.71875v-.96876l3.92185-5.5625h.8594v5.5625h1.15625v.96876h-1.15625v2.0625zm0-3.03126v-3.85937l-2.6875 3.85937zm3.625-1.20312q0-1.53125.3125-2.45312.3125-.9375.9219-1.4375.625-.5 1.5625-.5.6875 0 1.2031.28124.53125.28126.875.8125.34375.51563.53125 1.26563.1875.75.1875 2.03125 0 1.51562-.3125 2.4375-.29685.92188-.92185 1.4375-.6094.5-1.5625.5-1.2344 0-1.95315-.89062-.84375-1.0625-.84375-3.48438zm1.0781 0q0 2.10938.5 2.8125.5.70312 1.2188.70312.73435 0 1.2187-.70312.5-.70312.5-2.8125 0-2.125-.5-2.8125-.48435-.70312-1.23435-.70312-.71875 0-1.15625.60937-.5469.78125-.5469 2.90625zm5.9219 1.96875 1.0625-.14063q.1719.89063.6094 1.29688.4375.39062 1.0625.39062.75 0 1.2656-.51562.5156-.51562.5156-1.28125 0-.71875-.48435-1.1875-.46875-.48437-1.20315-.48437-.29685 0-.75.125l.125-.9375q.1094.01562.1719.01562.6719 0 1.2031-.34375.5469-.35937.5469-1.09375 0-.57812-.3906-.95312-.39065-.39063-1.01565-.39063-.60935 0-1.03125.39063-.40625.39062-.5156 1.15624l-1.0625-.1875q.1875-1.04687.875-1.625.6875-.59374 1.7031-.59374.7031 0 1.2969.3125.5937.29687.9062.8125.3125.51562.3125 1.10937 0 .54687-.29685 1.01563-.29685.45312-.875.71874.75.17188 1.17185.73438.4219.54688.4219 1.39062 0 1.125-.8281 1.90626-.8125.78124-2.0625.78124-1.125 0-1.875-.67187-.75-.6875-.8594-1.75zm7 .01563 1.1094-.09376q.125.8125.5625 1.21876.4531.40624 1.0937.40624.75 0 1.2813-.57812.5312-.57812.5312-1.51562 0-.90626-.5156-1.42188-.5-.53125-1.3281-.53125-.5 0-.9219.23437-.40625.23438-.6406.59376l-.9844-.125.8281-4.40626h4.2813v1h-3.4375l-.45315 2.3125q.76565-.54687 1.60935-.54687 1.125 0 1.89065.78125.78125.78125.78125 2.01562 0 1.15626-.6719 2.01563-.8281 1.03125-2.25 1.03125-1.17185 0-1.92185-.65625-.73435-.65625-.84375-1.73437zm10.375 2.25v-2.0625h-3.71875v-.96876l3.92185-5.5625h.8594v5.5625h1.15625v.96876h-1.15625v2.0625zm0-3.03126v-3.85937l-2.6875 3.85937z" stroke="#fff" stroke-linecap="round" stroke-linejoin="round" stroke-width="3"/>
  <path d="m648.375 461.5221v-2.0625h-3.71875v-.96876l3.92185-5.5625h.8594v5.5625h1.15625v.96876h-1.15625v2.0625zm0-3.03126v-3.85937l-2.6875 3.85937zm3.625-1.20312q0-1.53125.3125-2.45312.3125-.9375.9219-1.4375.625-.5 1.5625-.5.6875 0 1.2031.28124.53125.28126.875.8125.34375.51563.53125 1.26563.1875.75.1875 2.03125 0 1.51562-.3125 2.4375-.29685.92188-.92185 1.4375-.6094.5-1.5625.5-1.2344 0-1.95315-.89062-.84375-1.0625-.84375-3.48438zm1.0781 0q0 2.10938.5 2.8125.5.70312 1.2188.70312.73435 0 1.2187-.70312.5-.70312.5-2.8125 0-2.125-.5-2.8125-.48435-.70312-1.23435-.70312-.71875 0-1.15625.60937-.5469.78125-.5469 2.90625zm5.9219 1.96875 1.0625-.14063q.1719.89063.6094 1.29688.4375.39062 1.0625.39062.75 0 1.2656-.51562.5156-.51562.5156-1.28125 0-.71875-.48435-1.1875-.46875-.48437-1.20315-.48437-.29685 0-.75.125l.125-.9375q.1094.01562.1719.01562.6719 0 1.2031-.34375.5469-.35937.5469-1.09375 0-.57812-.3906-.95312-.39065-.39063-1.01565-.39063-.60935 0-1.03125.39063-.40625.39062-.5156 1.15624l-1.0625-.1875q.1875-1.04687.875-1.625.6875-.59374 1.7031-.59374.7031 0 1.2969.3125.5937.29687.9062.8125.3125.51562.3125 1.10937 0 .54687-.29685 1.01563-.29685.45312-.875.71874.75.17188 1.17185.73438.4219.54688.4219 1.39062 0 1.125-.8281 1.90626-.8125.78124-2.0625.78124-1.125 0-1.875-.67187-.75-.6875-.8594-1.75zm7 .01563 1.1094-.09376q.125.8125.5625 1.21876.4531.40624 1.0937.40624.75 0 1.2813-.57812.5312-.57812.5312-1.51562 0-.90626-.5156-1.42188-.5-.53125-1.3281-.53125-.5 0-.9219.23437-.40625.23438-.6406.59376l-.9844-.125.8281-4.40626h4.2813v1h-3.4375l-.45315 2.3125q.76565-.54687 1.60935-.54687 1.125 0 1.89065.78125.78125.78125.78125 2.01562 0 1.15626-.6719 2.01563-.8281 1.03125-2.25 1.03125-1.17185 0-1.92185-.65625-.73435-.65625-.84375-1.73437zm10.375 2.25v-2.0625h-3.71875v-.96876l3.92185-5.5625h.8594v5.5625h1.15625v.96876h-1.15625v2.0625zm0-3.03126v-3.85937l-2.6875 3.85937z" fill="#34a853"/>
  <path d="m832 467.12143 1.0625-.14063q.1719.89063.6094 1.29688.4375.39062 1.0625.39062.75 0 1.2656-.51562.5156-.51563.5156-1.28125 0-.71875-.48435-1.1875-.46875-.48438-1.20315-.48438-.29685 0-.75.125l.125-.9375q.1094.01563.1719.01563.6719 0 1.2031-.34375.5469-.35938.5469-1.09375 0-.57813-.3906-.95313-.39065-.39062-1.01565-.39062-.60935 0-1.03125.39062-.40625.39063-.5156 1.15625l-1.0625-.1875q.1875-1.04687.875-1.625.6875-.59375 1.7031-.59375.7031 0 1.2969.3125.5937.29688.9062.8125.3125.51563.3125 1.10938 0 .54687-.29685 1.01562-.29685.45313-.875.71875.75.17188 1.17185.73438.4219.54687.4219 1.39062 0 1.125-.8281 1.90625-.8125.78125-2.0625.78125-1.125 0-1.875-.67187-.75-.6875-.8594-1.75zm7 .01562 1.1094-.09375q.125.8125.5625 1.21875.4531.40625 1.0937.40625.75 0 1.2813-.57812.5312-.57813.5312-1.51563 0-.90625-.5156-1.42187-.5-.53125-1.3281-.53125-.5 0-.9219.23437-.40625.23438-.6406.59375l-.9844-.125.8281-4.40625h4.2813v1h-3.4375l-.45315 2.3125q.76565-.54687 1.60935-.54687 1.125 0 1.89065.78125.78125.78125.78125 2.01562 0 1.15625-.6719 2.01563-.8281 1.03125-2.25 1.03125-1.17185 0-1.92185-.65625-.73435-.65625-.84375-1.73438zm7.0625-5.21875v-1.01562h5.5625v.82812q-.8125.875-1.625 2.32813-.7969 1.4375-1.2344 2.96875-.3281 1.07812-.4062 2.35937h-1.0938q.01565-1.01562.39065-2.45312.39065-1.4375 1.09375-2.76563.71875-1.32812 1.53125-2.25zm7.09375 5.48438 1.01565-.09375q.125.71875.48435 1.04687.375.3125.9375.3125.48435 0 .84375-.21875.375-.23437.6094-.59375.23435-.375.3906-1 .15625-.64062.15625-1.29687 0-.07813 0-.21875-.3125.5-.85935.82812-.5469.3125-1.1875.3125-1.07815 0-1.8125-.76562-.7344-.78125-.7344-2.04688 0-1.3125.7656-2.10937.7813-.79688 1.9375-.79688.82815 0 1.51565.45313.70315.45312 1.0625 1.29687.35935.82813.35935 2.40625 0 1.64063-.35935 2.625-.34375.96875-1.0625 1.48438-.70315.5-1.64065.5-1.0156 0-1.6562-.54688-.64065-.5625-.76565-1.57812zm4.3125-3.79688q0-.90625-.48435-1.4375-.4688-.53125-1.1563-.53125-.7031 0-1.23435.57813-.51565.5625-.51565 1.48437 0 .8125.5 1.32813.5.51562 1.2188.51562.73435 0 1.2031-.51562.46875-.51563.46875-1.42188zm2.6875 3.79688 1.01565-.09375q.125.71875.48435 1.04687.375.3125.9375.3125.48435 0 .84375-.21875.375-.23437.6094-.59375.23435-.375.3906-1 .15625-.64062.15625-1.29687 0-.07813 0-.21875-.3125.5-.85935.82812-.5469.3125-1.1875.3125-1.07815 0-1.8125-.76562-.7344-.78125-.7344-2.04688 0-1.3125.7656-2.10937.7813-.79688 1.9375-.79688.82815 0 1.51565.45313.70315.45312 1.0625 1.29687.35935.82813.35935 2.40625 0 1.64063-.35935 2.625-.34375.96875-1.0625 1.48438-.70315.5-1.64065.5-1.0156 0-1.6562-.54688-.64065-.5625-.76565-1.57812zm4.3125-3.79688q0-.90625-.48435-1.4375-.4688-.53125-1.1563-.53125-.7031 0-1.23435.57813-.51565.5625-.51565 1.48437 0 .8125.5 1.32813.5.51562 1.2188.51562.73435 0 1.2031-.51562.46875-.51563.46875-1.42188z" stroke="#fff" stroke-linecap="round" stroke-linejoin="round" stroke-width="3"/>
  <path d="m832 467.12143 1.0625-.14063q.1719.89063.6094 1.29688.4375.39062 1.0625.39062.75 0 1.2656-.51562.5156-.51563.5156-1.28125 0-.71875-.48435-1.1875-.46875-.48438-1.20315-.48438-.29685 0-.75.125l.125-.9375q.1094.01563.1719.01563.6719 0 1.2031-.34375.5469-.35938.5469-1.09375 0-.57813-.3906-.95313-.39065-.39062-1.01565-.39062-.60935 0-1.03125.39062-.40625.39063-.5156 1.15625l-1.0625-.1875q.1875-1.04687.875-1.625.6875-.59375 1.7031-.59375.7031 0 1.2969.3125.5937.29688.9062.8125.3125.51563.3125 1.10938 0 .54687-.29685 1.01562-.29685.45313-.875.71875.75.17188 1.17185.73438.4219.54687.4219 1.39062 0 1.125-.8281 1.90625-.8125.78125-2.0625.78125-1.125 0-1.875-.67187-.75-.6875-.8594-1.75zm7 .01562 1.1094-.09375q.125.8125.5625 1.21875.4531.40625 1.0937.40625.75 0 1.2813-.57812.5312-.57813.5312-1.51563 0-.90625-.5156-1.42187-.5-.53125-1.3281-.53125-.5 0-.9219.23437-.40625.23438-.6406.59375l-.9844-.125.8281-4.40625h4.2813v1h-3.4375l-.45315 2.3125q.76565-.54687 1.60935-.54687 1.125 0 1.89065.78125.78125.78125.78125 2.01562 0 1.15625-.6719 2.01563-.8281 1.03125-2.25 1.03125-1.17185 0-1.92185-.65625-.73435-.65625-.84375-1.73438zm7.0625-5.21875v-1.01562h5.5625v.82812q-.8125.875-1.625 2.32813-.7969 1.4375-1.2344 2.96875-.3281 1.07812-.4062 2.35937h-1.0938q.01565-1.01562.39065-2.45312.39065-1.4375 1.09375-2.76563.71875-1.32812 1.53125-2.25zm7.09375 5.48438 1.01565-.09375q.125.71875.48435 1.04687.375.3125.9375.3125.48435 0 .84375-.21875.375-.23437.6094-.59375.23435-.375.3906-1 .15625-.64062.15625-1.29687 0-.07813 0-.21875-.3125.5-.85935.82812-.5469.3125-1.1875.3125-1.07815 0-1.8125-.76562-.7344-.78125-.7344-2.04688 0-1.3125.7656-2.10937.7813-.79688 1.9375-.79688.82815 0 1.51565.45313.70315.45312 1.0625 1.29687.35935.82813.35935 2.40625 0 1.64063-.35935 2.625-.34375.96875-1.0625 1.48438-.70315.5-1.64065.5-1.0156 0-1.6562-.54688-.64065-.5625-.76565-1.57812zm4.3125-3.79688q0-.90625-.48435-1.4375-.4688-.53125-1.1563-.53125-.7031 0-1.23435.57813-.51565.5625-.51565 1.48437 0 .8125.5 1.32813.5.51562 1.2188.51562.73435 0 1.2031-.51562.46875-.51563.46875-1.42188zm2.6875 3.79688 1.01565-.09375q.125.71875.48435 1.04687.375.3125.9375.3125.48435 0 .84375-.21875.375-.23437.6094-.59375.23435-.375.3906-1 .15625-.64062.15625-1.29687 0-.07813 0-.21875-.3125.5-.85935.82812-.5469.3125-1.1875.3125-1.07815 0-1.8125-.76562-.7344-.78125-.7344-2.04688 0-1.3125.7656-2.10937.7813-.79688 1.9375-.79688.82815 0 1.51565.45313.70315.45312 1.0625 1.29687.35935.82813.35935 2.40625 0 1.64063-.35935 2.625-.34375.96875-1.0625 1.48438-.70315.5-1.64065.5-1.0156 0-1.6562-.54688-.64065-.5625-.76565-1.57812zm4.3125-3.79688q0-.90625-.48435-1.4375-.4688-.53125-1.1563-.53125-.7031 0-1.23435.57813-.51565.5625-.51565 1.48437 0 .8125.5 1.32813.5.51562 1.2188.51562.73435 0 1.2031-.51562.46875-.51563.46875-1.42188z" fill="#34a853"/>
  <g fill="#000">
    <path d="m44.80001 371.71042h-10.109374v3.78125h-1.34375v-9.07813h1.34375v3.78126h10.109374zm-9.84375-6.90625h-1.609374v-1.40625h1.609374zm9.84375 0h-8.296874v-1.40625h8.296874zm0-4h-8.296874v-1.25h1.15625q-.609376-.39063-.96875-1.03125-.375-.65625-.375-1.48438 0-.92187.390624-1.51562.375-.59375 1.0625-.82812-1.453124-.98438-1.453124-2.5625 0-1.23438.6875-1.89063.671874-.67187 2.09375-.67187h5.703124v1.39062h-5.234374q-.84375 0-1.203126.14062-.375.14063-.59375.5-.234374.35938-.234374.84376 0 .875.578124 1.45312.578126.57812 1.859376.57812h4.828124v1.40626h-5.390624q-.9375 0-1.40625.34374-.46875.34376-.46875 1.125 0 .59376.3125 1.09376.3125.5.921874.73437.59375.21875 1.71875.21875h4.3125zm-2.671874-18.67187.171874-1.45313q1.28125.34375 1.984376 1.28125.703124.92188.703124 2.35938 0 1.82812-1.125 2.89062-1.125 1.0625-3.140624 1.0625-2.09375 0-3.25-1.07812-1.15625-1.07813-1.15625-2.79688 0-1.65625 1.140624-2.70312 1.125-1.0625 3.171876-1.0625.125 0 .375 0v6.1875q1.375-.07813 2.109374-.76563.71875-.70313.71875-1.73437 0-.78126-.40625-1.32813-.40625-.54687-1.296874-.85937zm-2.28125 4.60937v-4.625q-1.046876.09375-1.5625.53125-.8125.67188-.8125 1.73438 0 .96874.65625 1.64062.640624.65625 1.71875.71875zm-4.890626-11.9375h-1.609374v-1.40625h1.609374zm9.84375 0h-8.296874v-1.40625h8.296874zm0-4h-8.296874v-1.26563h1.171874q-1.359374-.90624-1.359374-2.64062 0-.75.265624-1.375.265626-.625.703126-.9375.4375-.3125 1.046874-.4375.390626-.07812 1.359376-.07812h5.109374v1.40624h-5.046874q-.859376 0-1.28125.17188-.4375.15625-.6875.57812-.25.40626-.25.96876 0 .90624.578124 1.5625.5625.64062 2.15625.64062h4.53125zm0-13h-8.296874v-1.25h1.15625q-.609376-.39063-.96875-1.03125-.375-.65625-.375-1.48438 0-.92187.390624-1.51562.375-.59375 1.0625-.82812-1.453124-.98438-1.453124-2.5625 0-1.23438.6875-1.89063.671874-.67187 2.09375-.67187h5.703124v1.39062h-5.234374q-.84375 0-1.203126.14062-.375.14063-.59375.5-.234374.35938-.234374.84376 0 .875.578124 1.45312.578126.57812 1.859376.57812h4.828124v1.40626h-5.390624q-.9375 0-1.40625.34374-.46875.34376-.46875 1.125 0 .59376.3125 1.09376.3125.5.921874.73437.59375.21875 1.71875.21875h4.3125zm-2.484374-12.4375-.21875-1.39063q.84375-.10937 1.296874-.64062.4375-.54688.4375-1.5 0-.96875-.390624-1.4375-.40625-.46875-.9375-.46875-.46875 0-.75.40625-.1875.29688-.46875 1.4375-.390626 1.54688-.671876 2.15625-.296874.59375-.796874.90625-.5.29688-1.109376.29688-.5625 0-1.03125-.25-.46875-.25-.78125-.6875-.25-.32813-.40625-.89063-.171874-.57813-.171874-1.21875 0-.98438.28125-1.71875.28125-.73437.765624-1.07813.46875-.35937 1.28125-.5l.1875 1.375q-.640624.09376-1 .54688-.359374.45312-.359374 1.26562 0 .96876.328124 1.39063.3125.40625.734376.40625.28125 0 .5-.17188.21875-.17187.375-.53124.078124-.21876.359374-1.25.390626-1.48438.65625-2.07813.25-.59375.734376-.92187.484374-.34376 1.203124-.34376.703126 0 1.328126.42188.609374.40625.953124 1.1875.34375.76562.34375 1.73438 0 1.625-.671874 2.46874-.671876.84376-2 1.07813z"/>
    <path d="m108.3 545.96564q0-1.53124.3125-2.45314.3125-.9375.92188-1.4375.625-.5 1.5625-.5.6875 0 1.20312.28126.53125.28124.875.8125.34375.51564.53125 1.26564.1875.75.1875 2.03124 0 1.51562-.3125 2.4375-.29687.92186-.92187 1.4375-.60938.5-1.5625.5-1.23438 0-1.95313-.89064-.84375-1.0625-.84375-3.48436zm1.07813 0q0 2.10936.5 2.8125.5.70312 1.21875.70312.73437 0 1.21875-.70312.5-.70314.5-2.8125 0-2.125-.5-2.8125-.48438-.70314-1.23438-.70314-.71875 0-1.15625.6094-.54687.78124-.54687 2.90624z"/>
    <path d="m80.3 461.61667 1.10938-.09375q.125.8125.5625 1.21875.45312.40625 1.09375.40625.75 0 1.28125-.57812.53125-.57813.53125-1.51563 0-.90625-.51563-1.42187-.5-.53126-1.32812-.53126-.5 0-.92188.23438-.40625.23438-.64062.59375l-.98438-.125.82813-4.40625h4.28125v1h-3.4375l-.45313 2.3125q.76563-.54688 1.60938-.54688 1.125 0 1.89062.78126.78125.78124.78125 2.01562 0 1.15625-.67187 2.01562-.82813 1.03126-2.25 1.03126-1.17188 0-1.92188-.65626-.73437-.65624-.84375-1.73437zm7-1.98437q0-1.53126.3125-2.45313.3125-.9375.92188-1.4375.625-.5 1.5625-.5.6875 0 1.20312.28125.53125.28125.875.8125.34375.51562.53125 1.26562.1875.75.1875 2.03126 0 1.51562-.3125 2.4375-.29687.92187-.92187 1.4375-.60938.5-1.5625.5-1.23438 0-1.95313-.89063-.84375-1.0625-.84375-3.48437zm1.07813 0q0 2.10937.5 2.8125.5.70312 1.21875.70312.73437 0 1.21875-.70312.5-.70313.5-2.8125 0-2.125-.5-2.8125-.48438-.70313-1.23438-.70313-.71875 0-1.15625.60937-.54687.78126-.54687 2.90626zm5.92187 0q0-1.53126.3125-2.45313.3125-.9375.92188-1.4375.625-.5 1.5625-.5.6875 0 1.20312.28125.53125.28125.875.8125.34375.51562.53125 1.26562.1875.75.1875 2.03126 0 1.51562-.3125 2.4375-.29687.92187-.92187 1.4375-.60938.5-1.5625.5-1.23438 0-1.95313-.89063-.84375-1.0625-.84375-3.48437zm1.07813 0q0 2.10937.5 2.8125.5.70312 1.21875.70312.73437 0 1.21875-.70312.5-.70313.5-2.8125 0-2.125-.5-2.8125-.48438-.70313-1.23438-.70313-.71875 0-1.15625.60937-.54687.78126-.54687 2.90626zm5.92187 0q0-1.53126.3125-2.45313.3125-.9375.92188-1.4375.625-.5 1.5625-.5.6875 0 1.20312.28125.53125.28125.875.8125.34375.51562.53125 1.26562.1875.75.1875 2.03126 0 1.51562-.3125 2.4375-.29687.92187-.92187 1.4375-.60938.5-1.5625.5-1.23438 0-1.95313-.89063-.84375-1.0625-.84375-3.48437zm1.07813 0q0 2.10937.5 2.8125.5.70312 1.21875.70312.73437 0 1.21875-.70312.5-.70313.5-2.8125 0-2.125-.5-2.8125-.48438-.70313-1.23438-.70313-.71875 0-1.15625.60937-.54687.78126-.54687 2.90626zm5.92187 0q0-1.53126.3125-2.45313.3125-.9375.92188-1.4375.625-.5 1.5625-.5.6875 0 1.20312.28125.53125.28125.875.8125.34375.51562.53125 1.26562.1875.75.1875 2.03126 0 1.51562-.3125 2.4375-.29687.92187-.92187 1.4375-.60938.5-1.5625.5-1.23438 0-1.95313-.89063-.84375-1.0625-.84375-3.48437zm1.07813 0q0 2.10937.5 2.8125.5.70312 1.21875.70312.73437 0 1.21875-.70312.5-.70313.5-2.8125 0-2.125-.5-2.8125-.48438-.70313-1.23438-.70313-.71875 0-1.15625.60937-.54687.78126-.54687 2.90626z"/>
    <path d="m77.26875 377.53333h-1.04687v-6.71875q-.39063.35937-1.01563.73437-.60937.35938-1.09375.53125v-1.01562q.875-.42188 1.53125-1 .67188-.59375.95313-1.15625h.67187zm3.03125-4.23438q0-1.53125.3125-2.45312.3125-.9375.92188-1.4375.625-.5 1.5625-.5.6875 0 1.20312.28125.53125.28125.875.8125.34375.51562.53125 1.26562.1875.75.1875 2.03125 0 1.51563-.3125 2.4375-.29687.92188-.92187 1.4375-.60938.5-1.5625.5-1.23438 0-1.95313-.89062-.84375-1.0625-.84375-3.48438zm1.07813 0q0 2.10938.5 2.8125.5.70313 1.21875.70313.73437 0 1.21875-.70313.5-.70312.5-2.8125 0-2.125-.5-2.8125-.48438-.70312-1.23438-.70312-.71875 0-1.15625.60937-.54687.78125-.54687 2.90625zm5.92187 0q0-1.53125.3125-2.45312.3125-.9375.92188-1.4375.625-.5 1.5625-.5.6875 0 1.20312.28125.53125.28125.875.8125.34375.51562.53125 1.26562.1875.75.1875 2.03125 0 1.51563-.3125 2.4375-.29687.92188-.92187 1.4375-.60938.5-1.5625.5-1.23438 0-1.95313-.89062-.84375-1.0625-.84375-3.48438zm1.07813 0q0 2.10938.5 2.8125.5.70313 1.21875.70313.73437 0 1.21875-.70313.5-.70312.5-2.8125 0-2.125-.5-2.8125-.48438-.70312-1.23438-.70312-.71875 0-1.15625.60937-.54687.78125-.54687 2.90625zm5.92187 0q0-1.53125.3125-2.45312.3125-.9375.92188-1.4375.625-.5 1.5625-.5.6875 0 1.20312.28125.53125.28125.875.8125.34375.51562.53125 1.26562.1875.75.1875 2.03125 0 1.51563-.3125 2.4375-.29687.92188-.92187 1.4375-.60938.5-1.5625.5-1.23438 0-1.95313-.89062-.84375-1.0625-.84375-3.48438zm1.07813 0q0 2.10938.5 2.8125.5.70313 1.21875.70313.73437 0 1.21875-.70313.5-.70312.5-2.8125 0-2.125-.5-2.8125-.48438-.70312-1.23438-.70312-.71875 0-1.15625.60937-.54687.78125-.54687 2.90625zm5.92187 0q0-1.53125.3125-2.45312.3125-.9375.92188-1.4375.625-.5 1.5625-.5.6875 0 1.20312.28125.53125.28125.875.8125.34375.51562.53125 1.26562.1875.75.1875 2.03125 0 1.51563-.3125 2.4375-.29687.92188-.92187 1.4375-.60938.5-1.5625.5-1.23438 0-1.95313-.89062-.84375-1.0625-.84375-3.48438zm1.07813 0q0 2.10938.5 2.8125.5.70313 1.21875.70313.73437 0 1.21875-.70313.5-.70312.5-2.8125 0-2.125-.5-2.8125-.48438-.70312-1.23438-.70312-.71875 0-1.15625.60937-.54687.78125-.54687 2.90625zm5.92187 0q0-1.53125.3125-2.45312.3125-.9375.92188-1.4375.625-.5 1.5625-.5.6875 0 1.20312.28125.53125.28125.875.8125.34375.51562.53125 1.26562.1875.75.1875 2.03125 0 1.51563-.3125 2.4375-.29687.92188-.92187 1.4375-.60938.5-1.5625.5-1.23438 0-1.95313-.89062-.84375-1.0625-.84375-3.48438zm1.07813 0q0 2.10938.5 2.8125.5.70313 1.21875.70313.73437 0 1.21875-.70313.5-.70312.5-2.8125 0-2.125-.5-2.8125-.48438-.70312-1.23438-.70312-.71875 0-1.15625.60937-.54687.78125-.54687 2.90625z"/>
    <path d="m77.26875 291.2h-1.04687v-6.71874q-.39063.35938-1.01563.73438-.60937.35936-1.09375.53126v-1.01564q.875-.42186 1.53125-1 .67188-.59376.95313-1.15626h.67187zm3.03125-2.25 1.10938-.09374q.125.8125.5625 1.21874.45312.40626 1.09375.40626.75 0 1.28125-.57812.53125-.57814.53125-1.51564 0-.90624-.51563-1.42186-.5-.53124-1.32812-.53124-.5 0-.92188.23436-.40625.23438-.64062.59374l-.98438-.125.82813-4.40624h4.28125v1h-3.4375l-.45313 2.3125q.76563-.54686 1.60938-.54686 1.125 0 1.89062.78124.78125.78126.78125 2.01562 0 1.15624-.67187 2.01564-.82813 1.03124-2.25 1.03124-1.17188 0-1.92188-.65624-.73437-.65626-.84375-1.7344zm7-1.98436q0-1.53124.3125-2.45314.3125-.9375.92188-1.4375.625-.5 1.5625-.5.6875 0 1.20312.28126.53125.28124.875.8125.34375.51564.53125 1.26564.1875.75.1875 2.03124 0 1.51562-.3125 2.4375-.29687.92186-.92187 1.4375-.60938.5-1.5625.5-1.23438 0-1.95313-.89064-.84375-1.0625-.84375-3.48436zm1.07813 0q0 2.10936.5 2.8125.5.70312 1.21875.70312.73437 0 1.21875-.70312.5-.70314.5-2.8125 0-2.125-.5-2.8125-.48438-.70314-1.23438-.70314-.71875 0-1.15625.6094-.54687.78124-.54687 2.90624zm5.92187 0q0-1.53124.3125-2.45314.3125-.9375.92188-1.4375.625-.5 1.5625-.5.6875 0 1.20312.28126.53125.28124.875.8125.34375.51564.53125 1.26564.1875.75.1875 2.03124 0 1.51562-.3125 2.4375-.29687.92186-.92187 1.4375-.60938.5-1.5625.5-1.23438 0-1.95313-.89064-.84375-1.0625-.84375-3.48436zm1.07813 0q0 2.10936.5 2.8125.5.70312 1.21875.70312.73437 0 1.21875-.70312.5-.70314.5-2.8125 0-2.125-.5-2.8125-.48438-.70314-1.23438-.70314-.71875 0-1.15625.6094-.54687.78124-.54687 2.90624zm5.92187 0q0-1.53124.3125-2.45314.3125-.9375.92188-1.4375.625-.5 1.5625-.5.6875 0 1.20312.28126.53125.28124.875.8125.34375.51564.53125 1.26564.1875.75.1875 2.03124 0 1.51562-.3125 2.4375-.29687.92186-.92187 1.4375-.60938.5-1.5625.5-1.23438 0-1.95313-.89064-.84375-1.0625-.84375-3.48436zm1.07813 0q0 2.10936.5 2.8125.5.70312 1.21875.70312.73437 0 1.21875-.70312.5-.70314.5-2.8125 0-2.125-.5-2.8125-.48438-.70314-1.23438-.70314-.71875 0-1.15625.6094-.54687.78124-.54687 2.90624zm5.92187 0q0-1.53124.3125-2.45314.3125-.9375.92188-1.4375.625-.5 1.5625-.5.6875 0 1.20312.28126.53125.28124.875.8125.34375.51564.53125 1.26564.1875.75.1875 2.03124 0 1.51562-.3125 2.4375-.29687.92186-.92187 1.4375-.60938.5-1.5625.5-1.23438 0-1.95313-.89064-.84375-1.0625-.84375-3.48436zm1.07813 0q0 2.10936.5 2.8125.5.70312 1.21875.70312.73437 0 1.21875-.70312.5-.70314.5-2.8125 0-2.125-.5-2.8125-.48438-.70314-1.23438-.70314-.71875 0-1.15625.6094-.54687.78124-.54687 2.90624z"/>
    <path d="m78.84688 203.85104v1.01563h-5.6875q0-.375.125-.73437.21875-.57813.6875-1.14063.48437-.5625 1.39062-1.29687 1.40625-1.15626 1.89063-1.82813.5-.67187.5-1.26563 0-.625-.45313-1.04687-.45312-.4375-1.17187-.4375-.76563 0-1.21875.45313-.45313.45312-.46875 1.26562l-1.07813-.10938q.10938-1.21874.82813-1.84374.73437-.64063 1.96875-.64063 1.23437 0 1.95312.6875.71875.6875.71875 1.70313 0 .51562-.21875 1.01562-.20312.48438-.70312 1.04688-.48438.54687-1.60938 1.5-.95312.79687-1.23437 1.09374-.26563.28126-.4375.5625zm1.45312-3.21874q0-1.53126.3125-2.45313.3125-.9375.92188-1.4375.625-.5 1.5625-.5.6875 0 1.20312.28125.53125.28125.875.8125.34375.51562.53125 1.26562.1875.75.1875 2.03126 0 1.51562-.3125 2.4375-.29687.92187-.92187 1.4375-.60938.5-1.5625.5-1.23438 0-1.95313-.89063-.84375-1.0625-.84375-3.48437zm1.07813 0q0 2.10937.5 2.8125.5.70312 1.21875.70312.73437 0 1.21875-.70312.5-.70313.5-2.8125 0-2.125-.5-2.8125-.48438-.70313-1.23438-.70313-.71875 0-1.15625.60937-.54687.78126-.54687 2.90626zm5.92187 0q0-1.53126.3125-2.45313.3125-.9375.92188-1.4375.625-.5 1.5625-.5.6875 0 1.20312.28125.53125.28125.875.8125.34375.51562.53125 1.26562.1875.75.1875 2.03126 0 1.51562-.3125 2.4375-.29687.92187-.92187 1.4375-.60938.5-1.5625.5-1.23438 0-1.95313-.89063-.84375-1.0625-.84375-3.48437zm1.07813 0q0 2.10937.5 2.8125.5.70312 1.21875.70312.73437 0 1.21875-.70312.5-.70313.5-2.8125 0-2.125-.5-2.8125-.48438-.70313-1.23438-.70313-.71875 0-1.15625.60937-.54687.78126-.54687 2.90626zm5.92187 0q0-1.53126.3125-2.45313.3125-.9375.92188-1.4375.625-.5 1.5625-.5.6875 0 1.20312.28125.53125.28125.875.8125.34375.51562.53125 1.26562.1875.75.1875 2.03126 0 1.51562-.3125 2.4375-.29687.92187-.92187 1.4375-.60938.5-1.5625.5-1.23438 0-1.95313-.89063-.84375-1.0625-.84375-3.48437zm1.07813 0q0 2.10937.5 2.8125.5.70312 1.21875.70312.73437 0 1.21875-.70312.5-.70313.5-2.8125 0-2.125-.5-2.8125-.48438-.70313-1.23438-.70313-.71875 0-1.15625.60937-.54687.78126-.54687 2.90626zm5.92187 0q0-1.53126.3125-2.45313.3125-.9375.92188-1.4375.625-.5 1.5625-.5.6875 0 1.20312.28125.53125.28125.875.8125.34375.51562.53125 1.26562.1875.75.1875 2.03126 0 1.51562-.3125 2.4375-.29687.92187-.92187 1.4375-.60938.5-1.5625.5-1.23438 0-1.95313-.89063-.84375-1.0625-.84375-3.48437zm1.07813 0q0 2.10937.5 2.8125.5.70312 1.21875.70312.73437 0 1.21875-.70312.5-.70313.5-2.8125 0-2.125-.5-2.8125-.48438-.70313-1.23438-.70313-.71875 0-1.15625.60937-.54687.78126-.54687 2.90626zm5.92187 0q0-1.53126.3125-2.45313.3125-.9375.92188-1.4375.625-.5 1.5625-.5.6875 0 1.20312.28125.53125.28125.875.8125.34375.51562.53125 1.26562.1875.75.1875 2.03126 0 1.51562-.3125 2.4375-.29687.92187-.92187 1.4375-.60938.5-1.5625.5-1.23438 0-1.95313-.89063-.84375-1.0625-.84375-3.48437zm1.07813 0q0 2.10937.5 2.8125.5.70312 1.21875.70312.73437 0 1.21875-.70312.5-.70313.5-2.8125 0-2.125-.5-2.8125-.48438-.70313-1.23438-.70313-.71875 0-1.15625.60937-.54687.78126-.54687 2.90626z"/>
    <path d="m78.84688 117.51771v1.01562h-5.6875q0-.375.125-.73437.21875-.57813.6875-1.14063.48437-.5625 1.39062-1.29687 1.40625-1.15625 1.89063-1.82813.5-.67187.5-1.26562 0-.625-.45313-1.04688-.45312-.4375-1.17187-.4375-.76563 0-1.21875.45313-.45313.45312-.46875 1.26562l-1.07813-.10937q.10938-1.21875.82813-1.84375.73437-.64063 1.96875-.64063 1.23437 0 1.95312.6875.71875.6875.71875 1.70313 0 .51562-.21875 1.01562-.20312.48438-.70312 1.04688-.48438.54687-1.60938 1.5-.95312.79687-1.23437 1.09375-.26563.28125-.4375.5625zm1.45312-1.23438 1.10938-.09375q.125.8125.5625 1.21875.45312.40625 1.09375.40625.75 0 1.28125-.57812.53125-.57813.53125-1.51563 0-.90625-.51563-1.42187-.5-.53125-1.32812-.53125-.5 0-.92188.23437-.40625.23438-.64062.59375l-.98438-.125.82813-4.40625h4.28125v1h-3.4375l-.45313 2.3125q.76563-.54687 1.60938-.54687 1.125 0 1.89062.78125.78125.78125.78125 2.01562 0 1.15625-.67187 2.01563-.82813 1.03125-2.25 1.03125-1.17188 0-1.92188-.65625-.73437-.65625-.84375-1.73438zm7-1.98437q0-1.53125.3125-2.45313.3125-.9375.92188-1.4375.625-.5 1.5625-.5.6875 0 1.20312.28125.53125.28125.875.8125.34375.51563.53125 1.26563.1875.75.1875 2.03125 0 1.51562-.3125 2.4375-.29687.92187-.92187 1.4375-.60938.5-1.5625.5-1.23438 0-1.95313-.89063-.84375-1.0625-.84375-3.48437zm1.07813 0q0 2.10937.5 2.8125.5.70312 1.21875.70312.73437 0 1.21875-.70312.5-.70313.5-2.8125 0-2.125-.5-2.8125-.48438-.70313-1.23438-.70313-.71875 0-1.15625.60938-.54687.78125-.54687 2.90625zm5.92187 0q0-1.53125.3125-2.45313.3125-.9375.92188-1.4375.625-.5 1.5625-.5.6875 0 1.20312.28125.53125.28125.875.8125.34375.51563.53125 1.26563.1875.75.1875 2.03125 0 1.51562-.3125 2.4375-.29687.92187-.92187 1.4375-.60938.5-1.5625.5-1.23438 0-1.95313-.89063-.84375-1.0625-.84375-3.48437zm1.07813 0q0 2.10937.5 2.8125.5.70312 1.21875.70312.73437 0 1.21875-.70312.5-.70313.5-2.8125 0-2.125-.5-2.8125-.48438-.70313-1.23438-.70313-.71875 0-1.15625.60938-.54687.78125-.54687 2.90625zm5.92187 0q0-1.53125.3125-2.45313.3125-.9375.92188-1.4375.625-.5 1.5625-.5.6875 0 1.20312.28125.53125.28125.875.8125.34375.51563.53125 1.26563.1875.75.1875 2.03125 0 1.51562-.3125 2.4375-.29687.92187-.92187 1.4375-.60938.5-1.5625.5-1.23438 0-1.95313-.89063-.84375-1.0625-.84375-3.48437zm1.07813 0q0 2.10937.5 2.8125.5.70312 1.21875.70312.73437 0 1.21875-.70312.5-.70313.5-2.8125 0-2.125-.5-2.8125-.48438-.70313-1.23438-.70313-.71875 0-1.15625.60938-.54687.78125-.54687 2.90625zm5.92187 0q0-1.53125.3125-2.45313.3125-.9375.92188-1.4375.625-.5 1.5625-.5.6875 0 1.20312.28125.53125.28125.875.8125.34375.51563.53125 1.26563.1875.75.1875 2.03125 0 1.51562-.3125 2.4375-.29687.92187-.92187 1.4375-.60938.5-1.5625.5-1.23438 0-1.95313-.89063-.84375-1.0625-.84375-3.48437zm1.07813 0q0 2.10937.5 2.8125.5.70312 1.21875.70312.73437 0 1.21875-.70312.5-.70313.5-2.8125 0-2.125-.5-2.8125-.48438-.70313-1.23438-.70313-.71875 0-1.15625.60938-.54687.78125-.54687 2.90625z"/>
    <path d="m204.43912 563.2v-8.59374h1.15625l4.51563 6.75v-6.75h1.09374v8.59374h-1.17187l-4.51563-6.75v6.75zm8.48438-3.10936q0-1.73438.95312-2.5625.79688-.6875 1.95312-.6875 1.28126 0 2.09376.84376.82812.8281.82812 2.3125 0 1.2031-.35938 1.8906-.35937.6875-1.0625 1.07814-.6875.375-1.5.375-1.29687 0-2.10937-.82814-.79687-.84374-.79687-2.42186zm1.07812 0q0 1.1875.51562 1.78126.53126.59374 1.3125.59374.79688 0 1.3125-.59374.51563-.59376.51563-1.8125 0-1.15626-.53125-1.75-.51562-.59376-1.29688-.59376-.78124 0-1.3125.59376-.51562.5781-.51562 1.78124zm9.09375-1.07814q0-2.1406 1.14063-3.34374 1.15624-1.21876 2.96874-1.21876 1.20313 0 2.15626.57814.95312.5625 1.45312 1.57812.5 1.01564.5 2.3125 0 1.29688-.53125 2.32814-.53125 1.03124-1.5 1.5625-.95313.53124-2.07813.53124-1.21874 0-2.17187-.57814-.95313-.59374-1.45313-1.59374-.48437-1.01562-.48437-2.15626zm1.17187.01564q0 1.5625.82813 2.45312.84375.89064 2.10937.89064 1.28126 0 2.10938-.89064.82812-.90626.82812-2.57812 0-1.04688-.35937-1.82814-.34375-.78124-1.03125-1.2031-.6875-.4375-1.53125-.4375-1.20313 0-2.07813.8281-.875.82814-.875 2.76564zm8.04688 6.5625v-8.60938h.95312v.79688q.34376-.46874.76563-.70314.4375-.23436 1.04687-.23436.79688 0 1.40626.40626.60937.40624.90624 1.15624.3125.75.3125 1.64062 0 .95314-.34374 1.71874-.32813.76564-.98438 1.1719-.65625.40624-1.375.40624-.53125 0-.95312-.21874-.42188-.2344-.6875-.5625v3.03124zm.95312-5.46874q0 1.2031.48438 1.78124.48438.5625 1.17188.5625.70312 0 1.20312-.59374.5-.59376.5-1.84376 0-1.1875-.48438-1.76564-.48437-.59374-1.17187-.59374-.67187 0-1.1875.625-.51563.625-.51563 1.82814zm8.34376 2.1406.15624.9219q-.45312.09374-.79687.09374-.57813 0-.89063-.17188-.3125-.1875-.45312-.48436-.125-.2969-.125-1.25v-3.57814h-.76562v-.8125h.76562v-1.54686l1.04688-.625v2.17186h1.0625v.8125h-1.0625v3.64064q0 .4531.04687.5781.0625.125.1875.20314.125.07812.35937.07812.1875 0 .46876-.03126zm.70312-6.4375v-1.21874h1.0625v1.21874zm0 7.375v-6.21874h1.0625v6.21874zm3 0v-6.21874h.9375v.875q.29688-.46876.78125-.73436.48437-.28126 1.10937-.28126.6875 0 1.125.28126.45313.28124.625.79686.75-1.07812 1.92188-1.07812.9375 0 1.42188.51562.5.5.5 1.57814v4.2656h-1.04688v-3.92186q0-.625-.10938-.90624-.09374-.28126-.35937-.45314-.26563-.17186-.64063-.17186-.65624 0-1.09374.4375-.42188.4375-.42188 1.40624v3.60936h-1.0625v-4.04686q0-.70314-.26562-1.04688-.25-.35936-.82813-.35936-.45313 0-.82813.23436-.375.23438-.54687.6875-.17187.45314-.17187 1.29688v3.23436zm10-7.375v-1.21874h1.0625v1.21874zm0 7.375v-6.21874h1.0625v6.21874zm2.4375 0v-.85936l3.96875-4.54688q-.6875.03124-1.20313.03124h-2.53124v-.84374h5.09374v.6875l-3.375 3.95314-.65624.71874q.71874-.04688 1.32812-.04688h2.89062v.90624zm10.625-.7656q-.59375.5-1.14062.7031-.53126.20314-1.15626.20314-1.03124 0-1.57812-.5-.54688-.5-.54688-1.28124 0-.45314.20313-.82814.20313-.39062.54687-.60936.34376-.2344.76563-.34376.29687-.09374.9375-.17188 1.26563-.14062 1.875-.35936 0-.21876 0-.26564 0-.65626-.29687-.92186-.40626-.34376-1.20313-.34376-.73437 0-1.09375.26562-.35938.25-.53125.90624l-1.03125-.1406q.14062-.65626.46875-1.0625.32813-.40626.9375-.625.60937-.21876 1.40625-.21876.79688 0 1.29688.1875.5.1875.73437.46876.23437.28124.32813.71874.04687.26562.04687.96876v1.40624q0 1.46876.0625 1.85936.07813.39064.28125.75h-1.10938q-.15624-.3281-.20312-.7656zm-.09375-2.3594q-.57813.2344-1.71875.40626-.65625.09374-.92188.21874-.26562.1094-.42187.32814-.14063.21876-.14063.5 0 .42186.3125.70312.32813.28124.9375.28124.60938 0 1.07813-.2656.48437-.26564.70313-.7344.17187-.35936.17187-1.04686zm5.32813 2.1875.15624.9219q-.45312.09374-.79687.09374-.57813 0-.89063-.17188-.3125-.1875-.45312-.48436-.125-.2969-.125-1.25v-3.57814h-.76562v-.8125h.76562v-1.54686l1.04688-.625v2.17186h1.0625v.8125h-1.0625v3.64064q0 .4531.04687.5781.0625.125.1875.20314.125.07812.35937.07812.1875 0 .46876-.03126zm.70312-6.4375v-1.21874h1.0625v1.21874zm0 7.375v-6.21874h1.0625v6.21874zm2.60938-3.10936q0-1.73438.95312-2.5625.79688-.6875 1.95312-.6875 1.28126 0 2.09376.84376.82812.8281.82812 2.3125 0 1.2031-.35938 1.8906-.35937.6875-1.0625 1.07814-.6875.375-1.5.375-1.29687 0-2.10937-.82814-.79687-.84374-.79687-2.42186zm1.07812 0q0 1.1875.51562 1.78126.53126.59374 1.3125.59374.79688 0 1.3125-.59374.51563-.59376.51563-1.8125 0-1.15626-.53125-1.75-.51562-.59376-1.29688-.59376-.78124 0-1.3125.59376-.51562.5781-.51562 1.78124zm6.3125 3.10936v-6.21874h.9375v.875q.6875-1.01562 1.98438-1.01562.5625 0 1.03124.20312.48438.20314.71876.53124.23437.32814.32812.76564.04688.29686.04688 1.03126v3.8281h-1.04688v-3.78124q0-.65626-.125-.96876-.125-.3125-.4375-.5-.3125-.2031-.73438-.2031-.67187 0-1.17187.4375-.48437.42186-.48437 1.60936v3.40624z"/>
    <path d="m396.58386 559.0125q0-2.1406 1.14064-3.34374 1.15624-1.21876 2.96874-1.21876 1.20312 0 2.15626.57814.9531.5625 1.4531 1.57812.5 1.01564.5 2.3125 0 1.29688-.53124 2.32814-.53126 1.03124-1.5 1.5625-.95312.53124-2.07812.53124-1.21874 0-2.17188-.57814-.95312-.59374-1.45312-1.59374-.48438-1.01562-.48438-2.15626zm1.17188.01564q0 1.5625.82812 2.45312.84374.89064 2.10938.89064 1.28126 0 2.10936-.89064.82814-.90626.82814-2.57812 0-1.04688-.35938-1.82814-.34376-.78124-1.03126-1.2031-.6875-.4375-1.53124-.4375-1.20312 0-2.07812.8281-.875.82814-.875 2.76564zm8.04686 4.17186v-6.21874h.9375v.875q.6875-1.01562 1.9844-1.01562.5625 0 1.03124.20312.48436.20314.71876.53124.23436.32814.3281.76564.0469.29686.0469 1.03126v3.8281h-1.0469v-3.78124q0-.65626-.125-.96876-.125-.3125-.4375-.5-.3125-.2031-.73436-.2031-.67188 0-1.17188.4375-.48436.42186-.48436 1.60936v3.40624zm6.96876 0v-8.59374h1.0625v8.59374zm2.98438 2.39064-.125-.98438q.34376.09374.60936.09374.34376 0 .5469-.125.21874-.10936.35936-.3125.09374-.17186.32814-.79686.0156-.07814.09374-.25l-2.375-6.23438h1.14062l1.29688 3.59374q.25.6875.45312 1.45314.1875-.73438.4375-1.42188l1.32814-3.625h1.04686l-2.35936 6.32814q-.39064 1.0156-.59376 1.40624-.28124.53126-.65624.76562-.3594.25-.8594.25-.29686 0-.67186-.14062zm8.82812-6.57814q0-2.1406 1.14064-3.34374 1.15624-1.21876 2.96874-1.21876 1.20312 0 2.15626.57814.9531.5625 1.4531 1.57812.5 1.01564.5 2.3125 0 1.29688-.53124 2.32814-.53126 1.03124-1.5 1.5625-.95312.53124-2.07812.53124-1.21874 0-2.17188-.57814-.95312-.59374-1.45312-1.59374-.48438-1.01562-.48438-2.15626zm1.17188.01564q0 1.5625.82812 2.45312.84374.89064 2.10938.89064 1.28126 0 2.10936-.89064.82814-.90626.82814-2.57812 0-1.04688-.35938-1.82814-.34376-.78124-1.03126-1.2031-.6875-.4375-1.53124-.4375-1.20312 0-2.07812.8281-.875.82814-.875 2.76564zm8.04686 6.5625v-8.60938h.95314v.79688q.34376-.46874.76562-.70314.4375-.23436 1.04688-.23436.79686 0 1.40626.40626.60936.40624.90624 1.15624.3125.75.3125 1.64062 0 .95314-.34374 1.71874-.32814.76564-.9844 1.1719-.65624.40624-1.375.40624-.53124 0-.9531-.21874-.4219-.2344-.6875-.5625v3.03124zm.95314-5.46874q0 1.2031.48436 1.78124.4844.5625 1.1719.5625.7031 0 1.2031-.59374.5-.59376.5-1.84376 0-1.1875-.48436-1.76564-.48438-.59374-1.17188-.59374-.67186 0-1.1875.625-.51562.625-.51562 1.82814zm10.29686 1.0781 1.09376.125q-.25.95314-.95312 1.4844-.70314.53124-1.78124.53124-1.3594 0-2.1719-.84374-.79686-.84376-.79686-2.3594 0-1.5625.8125-2.42186.8125-.875 2.09376-.875 1.25 0 2.03124.84376.79686.84374.79686 2.3906 0 .09376 0 .28126h-4.6406q.0625 1.03124.5781 1.57814.51564.53124 1.2969.53124.5781 0 .98436-.29688.42188-.3125.65624-.96876zm-3.4531-1.7031h3.46874q-.0625-.7969-.39064-1.1875-.5156-.6094-1.3125-.6094-.73436 0-1.23436.4844-.48438.48436-.53124 1.3125zm6.2031 3.7031v-6.21874h.9375v.875q.6875-1.01562 1.9844-1.01562.5625 0 1.03124.20312.48436.20314.71876.53124.23436.32814.3281.76564.0469.29686.0469 1.03126v3.8281h-1.0469v-3.78124q0-.65626-.125-.96876-.125-.3125-.4375-.5-.3125-.2031-.73436-.2031-.67188 0-1.17188.4375-.48436.42186-.48436 1.60936v3.40624zm7.09376 0v-8.59374h1.71874l2.03126 6.07814q.28124.85936.40624 1.28124.14064-.46874.45314-1.375l2.0625-5.98438h1.53126v8.59374h-1.09376v-7.1875l-2.5 7.1875h-1.03124l-2.4844-7.3125v7.3125zm10.03124 0v-8.59374h3.25q.84376 0 1.2969.07814.6406.10936 1.0625.40624.4375.29686.6875.82812.2656.53124.2656 1.17188 0 1.09376-.7031 1.85936-.6875.75-2.51564.75h-2.20312v3.5zm1.14064-4.5h2.21876q1.10936 0 1.5625-.40624.46874-.42186.46874-1.17186 0-.53126-.28124-.90626-.26564-.39064-.70314-.51564-.29686-.0781-1.0625-.0781h-2.20312z"/>
    <path d="m597.0724 559.0125q0-2.1406 1.1406-3.34374 1.15626-1.21876 2.96876-1.21876 1.20314 0 2.15624.57814.95314.5625 1.45314 1.57812.5 1.01564.5 2.3125 0 1.29688-.53124 2.32814-.53126 1.03124-1.5 1.5625-.95314.53124-2.07814.53124-1.21876 0-2.17186-.57814-.95314-.59374-1.45314-1.59374-.48436-1.01562-.48436-2.15626zm1.17186.01564q0 1.5625.82814 2.45312.84374.89064 2.10936.89064 1.28124 0 2.10938-.89064.82812-.90626.82812-2.57812 0-1.04688-.35936-1.82814-.34376-.78124-1.03126-1.2031-.6875-.4375-1.53124-.4375-1.20314 0-2.07814.8281-.875.82814-.875 2.76564zm8.04688 4.17186v-6.21874h.9375v.875q.6875-1.01562 1.98436-1.01562.5625 0 1.03126.20312.48438.20314.71874.53124.2344.32814.32814.76564.04686.29686.04686 1.03126v3.8281h-1.04686v-3.78124q0-.65626-.125-.96876-.125-.3125-.4375-.5-.3125-.2031-.73438-.2031-.67186 0-1.17186.4375-.4844.42186-.4844 1.60936v3.40624zm6.96876 0v-8.59374h1.0625v8.59374zm2.98436 2.39064-.125-.98438q.34374.09374.60938.09374.34376 0 .54686-.125.21876-.10936.3594-.3125.09374-.17186.3281-.79686.01564-.07814.09376-.25l-2.375-6.23438h1.14064l1.29686 3.59374q.25.6875.45314 1.45314.1875-.73438.4375-1.42188l1.3281-3.625h1.0469l-2.3594 6.32814q-.3906 1.0156-.59374 1.40624-.28126.53126-.65626.76562-.35936.25-.85936.25-.29688 0-.67188-.14062zm9.14064-2.39064v-8.59374h1.71874l2.03126 6.07814q.28124.85936.40624 1.28124.14062-.46874.45312-1.375l2.0625-5.98438h1.53124v8.59374h-1.09374v-7.1875l-2.5 7.1875h-1.03126l-2.48436-7.3125v7.3125zm10.03124 0v-8.59374h3.25q.84376 0 1.29686.07814.64064.10936 1.0625.40624.4375.29686.6875.82812.26564.53124.26564 1.17188 0 1.09376-.70314 1.85936-.6875.75-2.5156.75h-2.20314v3.5zm1.14062-4.5h2.21874q1.1094 0 1.5625-.40624.46876-.42186.46876-1.17186 0-.53126-.28126-.90626-.2656-.39064-.7031-.51564-.2969-.0781-1.0625-.0781h-2.20314zm7.0625 4.5v-8.59374h1.125v8.59374z"/>
    <path d="m796.3578 563.2v-8.59374h3.23436q.98438 0 1.57814.26564.59374.2656.92186.8125.34374.53124.34374 1.125 0 .54686-.29686 1.03124-.29688.48436-.90624.78126.78124.23436 1.1875.79686.42186.54688.42186 1.29688 0 .59376-.25 1.125-.25.51562-.625.79686-.375.28126-.95312.4219-.5625.1406-1.375.1406zm1.1406-4.98436h1.8594q.75 0 1.0781-.09374.4375-.125.65626-.4219.21874-.3125.21874-.7656 0-.4219-.2031-.75-.20314-.32814-.59376-.4375-.375-.125-1.29688-.125h-1.71876zm0 3.96876h2.14064q.54686 0 .76562-.0469.40624-.0625.65624-.21874.26564-.17186.4375-.48436.1719-.3125.1719-.71876 0-.48438-.25-.84374-.2344-.3594-.6719-.5-.4375-.14064-1.2656-.14064h-1.9844zm6.39064-2.09376q0-1.73438.95312-2.5625.79688-.6875 1.95314-.6875 1.28124 0 2.09374.84376.82812.8281.82812 2.3125 0 1.2031-.35936 1.8906-.3594.6875-1.0625 1.07814-.6875.375-1.5.375-1.2969 0-2.1094-.82814-.79686-.84374-.79686-2.42186zm1.07812 0q0 1.1875.51564 1.78126.53124.59374 1.3125.59374.79686 0 1.3125-.59374.5156-.59376.5156-1.8125 0-1.15626-.53124-1.75-.51562-.59376-1.29686-.59376-.78126 0-1.3125.59376-.51564.5781-.51564 1.78124zm8.60938 2.17186.15626.9219q-.45314.09374-.7969.09374-.5781 0-.8906-.17188-.3125-.1875-.45314-.48436-.125-.2969-.125-1.25v-3.57814h-.76562v-.8125h.76562v-1.54686l1.04688-.625v2.17186h1.0625v.8125h-1.0625v3.64064q0 .4531.04686.5781.0625.125.1875.20314.125.07812.3594.07812.1875 0 .46874-.03126zm.70312.9375v-8.59374h1.04688v3.07814q.73436-.84376 1.85936-.84376.70314 0 1.20314.28126.51562.2656.73436.75.21876.46874.21876 1.3906v3.9375h-1.04686v-3.9375q0-.79686-.34376-1.15624-.34374-.35936-.96874-.35936-.46876 0-.89064.25-.40626.23436-.59376.65624-.17186.40626-.17186 1.14062v3.40624z"/>
  </g>
  <path d="m404.5 75.666664c0-.552284.44772-1 1-1h10c.55228 0 1 .447716 1 1v10c0 .552286-.44772 1-1 1h-10c-.55228 0-1-.447714-1-1z" fill="#4285f4"/>
  <path d="m430.54688 83.65104v1.015624h-5.6875q0-.375.125-.734374.21874-.578126.6875-1.140626.48437-.5625 1.39062-1.296874 1.40625-1.15625 1.89062-1.828126.5-.671874.5-1.265624 0-.625-.45312-1.046876-.45312-.4375-1.17188-.4375-.76562 0-1.21874.453126-.45313.453124-.46876 1.265624l-1.07812-.109374q.10938-1.21875.82812-1.84375.73438-.640626 1.96876-.640626 1.23437 0 1.95312.6875.71875.6875.71875 1.703126 0 .515624-.21875 1.015624-.20312.484376-.70312 1.046876-.48438.546874-1.60938 1.5-.95312.796874-1.23438 1.09375-.26562.28125-.4375.5625zm1.45312-3.21875q0-1.53125.3125-2.453126.3125-.9375.92188-1.4375.625-.5 1.5625-.5.6875 0 1.20312.28125.53125.28125.875.8125.34375.515626.53125 1.265626.1875.75.1875 2.03125 0 1.515624-.3125 2.4375-.29687.921874-.92187 1.4375-.60938.5-1.5625.5-1.23438 0-1.95313-.890626-.84375-1.0625-.84375-3.484374zm1.07812 0q0 2.109374.5 2.8125.5.703124 1.21876.703124.73437 0 1.21874-.703124.5-.703126.5-2.8125 0-2.125-.5-2.8125-.48437-.703126-1.23437-.703126-.71875 0-1.15625.609376-.54688.78125-.54688 2.90625zm5.92188 0q0-1.53125.3125-2.453126.3125-.9375.92188-1.4375.625-.5 1.5625-.5.6875 0 1.20312.28125.53125.28125.875.8125.34375.515626.53125 1.265626.1875.75.1875 2.03125 0 1.515624-.3125 2.4375-.29687.921874-.92187 1.4375-.60938.5-1.5625.5-1.23438 0-1.95313-.890626-.84375-1.0625-.84375-3.484374zm1.07812 0q0 2.109374.5 2.8125.5.703124 1.21876.703124.73437 0 1.21874-.703124.5-.703126.5-2.8125 0-2.125-.5-2.8125-.48437-.703126-1.23437-.703126-.71875 0-1.15625.609376-.54688.78125-.54688 2.90625z" fill="#1a1a1a"/>
  <path d="m461.5 75.666664c0-.552284.44772-1 1-1h10c.55228 0 1 .447716 1 1v10c0 .552286-.44772 1-1 1h-10c-.55228 0-1-.447714-1-1z" fill="#ea4335"/>
  <path d="m485.375 84.666664v-2.0625h-3.71875v-.96875l3.92187-5.5625h.85938v5.5625h1.15625v.96875h-1.15625v2.0625zm0-3.03125v-3.859374l-2.6875 3.859374zm3.625-1.203124q0-1.53125.3125-2.453126.3125-.9375.92188-1.4375.625-.5 1.5625-.5.6875 0 1.20312.28125.53125.28125.875.8125.34375.515626.53125 1.265626.1875.75.1875 2.03125 0 1.515624-.3125 2.4375-.29687.921874-.92187 1.4375-.60938.5-1.5625.5-1.23438 0-1.95313-.890626-.84375-1.0625-.84375-3.484374zm1.07812 0q0 2.109374.5 2.8125.5.703124 1.21876.703124.73437 0 1.21874-.703124.5-.703126.5-2.8125 0-2.125-.5-2.8125-.48437-.703126-1.23437-.703126-.71875 0-1.15625.609376-.54688.78125-.54688 2.90625zm5.92188 0q0-1.53125.3125-2.453126.3125-.9375.92188-1.4375.625-.5 1.5625-.5.6875 0 1.20312.28125.53125.28125.875.8125.34375.515626.53125 1.265626.1875.75.1875 2.03125 0 1.515624-.3125 2.4375-.29687.921874-.92187 1.4375-.60938.5-1.5625.5-1.23438 0-1.95313-.890626-.84375-1.0625-.84375-3.484374zm1.07812 0q0 2.109374.5 2.8125.5.703124 1.21876.703124.73437 0 1.21874-.703124.5-.703126.5-2.8125 0-2.125-.5-2.8125-.48437-.703126-1.23437-.703126-.71875 0-1.15625.609376-.54688.78125-.54688 2.90625z" fill="#1a1a1a"/>
  <path d="m518.5 75.666664c0-.552284.4477-1 1-1h10c.5523 0 1 .447716 1 1v10c0 .552286-.4477 1-1 1h-10c-.5523 0-1-.447714-1-1z" fill="#34a853"/>
  <path d="m540.625 80.010414q-.65625-.25-.9844-.6875-.3125-.453124-.3125-1.0625 0-.9375.6719-1.578124.6875-.640626 1.7969-.640626 1.125 0 1.8125.65625.6875.65625.6875 1.59375 0 .59375-.3125 1.03125-.3125.4375-.95315.6875.79685.25 1.20315.828126.4062.578124.4062 1.375 0 1.09375-.7812 1.84375-.76565.75-2.0469.75-1.2656 0-2.0469-.75-.7812-.75-.7812-1.875 0-.84375.42185-1.40625.4375-.5625 1.21875-.765626zm-.21875-1.796874q0 .609374.39065 1 .4062.390624 1.0312.390624.6094 0 1-.375.39065-.390624.39065-.953124 0-.578126-.40625-.96875-.40625-.40625-1-.40625-.6094 0-1.0156.390624-.39065.390626-.39065.921876zm-.32815 3.96875q0 .453124.20315.875.21875.421874.64065.65625.42185.234374.9062.234374.75 0 1.2344-.484374.5-.484376.5-1.234376 0-.765624-.5-1.265624-.5-.5-1.2656-.5-.75 0-1.2344.5-.4844.484374-.4844 1.21875zm5.9219-1.75q0-1.53125.3125-2.453126.3125-.9375.9219-1.4375.625-.5 1.5625-.5.6875 0 1.2031.28125.53125.28125.875.8125.34375.515626.53125 1.265626.1875.75.1875 2.03125 0 1.515624-.3125 2.4375-.29685.921874-.92185 1.4375-.6094.5-1.5625.5-1.2344 0-1.95315-.890626-.84375-1.0625-.84375-3.484374zm1.0781 0q0 2.109374.5 2.8125.5.703124 1.2188.703124.73435 0 1.2187-.703124.5-.703126.5-2.8125 0-2.125-.5-2.8125-.48435-.703126-1.23435-.703126-.71875 0-1.15625.609376-.5469.78125-.5469 2.90625zm5.9219 0q0-1.53125.3125-2.453126.3125-.9375.9219-1.4375.625-.5 1.5625-.5.6875 0 1.2031.28125.53125.28125.875.8125.34375.515626.53125 1.265626.1875.75.1875 2.03125 0 1.515624-.3125 2.4375-.29685.921874-.92185 1.4375-.6094.5-1.5625.5-1.2344 0-1.95315-.890626-.84375-1.0625-.84375-3.484374zm1.0781 0q0 2.109374.5 2.8125.5.703124 1.2188.703124.73435 0 1.2187-.703124.5-.703126.5-2.8125 0-2.125-.5-2.8125-.48435-.703126-1.23435-.703126-.71875 0-1.15625.609376-.5469.78125-.5469 2.90625z" fill="#1a1a1a"/>
  <path d="m403.45312 48.8h-1.76562v-11.203126q-.625.609376-1.65625 1.21875-1.03125.59375-1.85937.90625v-1.703124q1.48437-.6875 2.57812-1.671876 1.10938-1 1.5625-1.921874h1.14062zm11.07813 0v-14.3125h1.9375l7.51563 11.234374v-11.234374h1.8125v14.3125h-1.9375l-7.51563-11.25v11.25zm13.14063-5.1875q0-2.875 1.59374-4.265626 1.34376-1.15625 3.26563-1.15625 2.14063 0 3.48437 1.40625 1.35938 1.40625 1.35938 3.875 0 2-.59375 3.15625-.59375 1.140626-1.75 1.78125-1.14063.625-2.5.625-2.1875 0-3.53125-1.390624-1.32812-1.40625-1.32812-4.03125zm1.79687 0q0 2 .85937 2.984374.875.984376 2.20313.984376 1.3125 0 2.17187-.984376.875-1 .875-3.046874 0-1.921876-.875-2.90625-.875-1-2.17187-1-1.32813 0-2.20313 1-.85937.984374-.85937 2.96875zm16.57813 5.1875v-1.3125q-.98438 1.546874-2.90626 1.546874-1.23437 0-2.28124-.6875-1.03126-.6875-1.60938-1.90625-.5625-1.21875-.5625-2.8125 0-1.5625.51562-2.828124.51563-1.265626 1.54688-1.9375 1.04688-.671876 2.3125-.671876.9375 0 1.67188.40625.73437.390626 1.20312 1.015626v-5.125h1.73438v14.3125zm-5.5625-5.171876q0 1.984376.84374 2.96875.84376.984376 1.98438.984376 1.15625 0 1.95312-.9375.8125-.9375.8125-2.875 0-2.125-.82812-3.125-.8125-1-2.01562-1-1.17188 0-1.96876.96875-.78124.953124-.78124 3.015624zm16.9375 1.828126 1.8125.234374q-.42188 1.578126-1.59376 2.46875-1.15624.875-2.96874.875-2.26563 0-3.60938-1.390624-1.32812-1.40625-1.32812-3.9375 0-2.625 1.34374-4.0625 1.34376-1.453126 3.5-1.453126 2.07813 0 3.39063 1.421876 1.32813 1.40625 1.32813 3.984374 0 .15625-.01563.46875h-7.73437q.09374 1.703126.96874 2.609376.875.90625 2.17188.90625.96875 0 1.64062-.5.6875-.515626 1.09376-1.625zm-5.78126-2.84375h5.79688q-.10938-1.296876-.65625-1.953126-.84375-1.015624-2.1875-1.015624-1.20313 0-2.03125.8125-.82812.796874-.92188 2.15625zm14.35938 6.4375 4.15625-14.8125h1.40625l-4.14062 14.8125zm15.53125-8.015626q-1.09375-.40625-1.625-1.140624-.51563-.75-.51563-1.78125 0-1.5625 1.125-2.625 1.125-1.0625 2.98438-1.0625 1.875 0 3.01562 1.09375 1.14063 1.078124 1.14063 2.640624 0 1-.53125 1.734376-.51562.734374-1.57812 1.140624 1.32812.4375 2.01562 1.390626.6875.953124.6875 2.28125 0 1.84375-1.3125 3.09375-1.29688 1.25-3.40625 1.25-2.125 0-3.42187-1.25-1.29688-1.265626-1.29688-3.140626 0-1.390624.70312-2.328124.71876-.953126 2.01563-1.296876zm-.34375-2.984374q0 1.015624.65625 1.671874.65625.640626 1.6875.640626 1.01563 0 1.67187-.640626.65626-.640624.65626-1.5625 0-.96875-.67188-1.625-.67188-.671874-1.67188-.671874-1 0-1.67187.65625-.65625.640624-.65625 1.53125zm-.5625 6.625q0 .75.34375 1.453124.35937.703126 1.0625 1.09375.70313.375 1.51563.375 1.26562 0 2.07812-.8125.82812-.8125.82812-2.0625 0-1.265624-.84374-2.09375-.84376-.828124-2.125-.828124-1.23438 0-2.04688.828124-.8125.8125-.8125 2.046876zm19.5625 4.125v-12.625h-4.71875v-1.6875h11.34375v1.6875h-4.73438v12.625zm8.125 0v-14.3125h1.76562v5.125q1.23438-1.421876 3.10938-1.421876 1.1406 0 1.9844.453126.85935.453124 1.2187 1.265624.375.796876.375 2.3125v6.578126h-1.75v-6.578126q0-1.3125-.5781-1.90625-.5781-.609374-1.6094-.609374-.7812 0-1.48435.40625-.6875.40625-.98437 1.109374-.28126.6875-.28126 1.90625v5.671876zm10.9844 0v-10.375h1.5781v1.578124q.6094-1.109374 1.125-1.453124.5156-.359376 1.125-.359376.8906 0 1.8125.5625l-.6094 1.640626q-.6406-.390626-1.2812-.390626-.57815 0-1.0469.359376-.4531.34375-.65625.953124-.28125.9375-.28125 2.046876v5.4375zm14.125-3.34375 1.8125.234374q-.4219 1.578126-1.5938 2.46875-1.1562.875-2.9687.875-2.26565 0-3.6094-1.390624-1.3281-1.40625-1.3281-3.9375 0-2.625 1.3437-4.0625 1.3438-1.453126 3.5-1.453126 2.07815 0 3.39065 1.421876 1.32815 1.40625 1.32815 3.984374 0 .15625-.01565.46875h-7.73435q.0937 1.703126.9687 2.609376.875.90625 2.1719.90625.96875 0 1.6406-.5.6875-.515626 1.0938-1.625zm-5.7813-2.84375h5.7969q-.1094-1.296876-.65625-1.953126-.84375-1.015624-2.1875-1.015624-1.20315 0-2.03125.8125-.8281.796874-.9219 2.15625zm16.45315 4.90625q-.98435.828124-1.89065 1.171874-.9062.34375-1.9375.34375-1.7031 0-2.625-.828124-.92185-.84375-.92185-2.140626 0-.765624.34375-1.390624.3594-.625.9219-1 .5625-.390626 1.2656-.59375.5156-.125 1.5625-.265626 2.125-.25 3.125-.59375.0156-.359374.0156-.46875 0-1.0625-.5-1.515624-.67185-.59375-2-.59375-1.25 0-1.8437.4375-.57815.4375-.8594 1.546874l-1.71875-.234374q.23435-1.109376.76565-1.78125.5312-.6875 1.54685-1.046876 1.01565-.375 2.35935-.375 1.32815 0 2.1563.3125.8281.3125 1.2187.796876.39065.46875.5469 1.1875.09375.453124.09375 1.625v2.34375q0 2.453124.10935 3.109374.1094.640626.45315 1.234376h-1.84375q-.2656-.546876-.34375-1.28125zm-.15625-3.921876q-.9531.390626-2.875.65625-1.0781.15625-1.53125.359376-.4375.1875-.6875.5625-.25.375-.25.84375 0 .703124.53125 1.171874.53125.46875 1.5625.46875 1.0156 0 1.7969-.4375.79685-.453124 1.17185-1.21875.28125-.609374.28125-1.765624zm11.1094 5.203126v-1.3125q-.9844 1.546874-2.9063 1.546874-1.23435 0-2.2812-.6875-1.0313-.6875-1.6094-1.90625-.5625-1.21875-.5625-2.8125 0-1.5625.5156-2.828124.51565-1.265626 1.5469-1.9375 1.0469-.671876 2.3125-.671876.9375 0 1.6719.40625.73435.390626 1.2031 1.015626v-5.125h1.7344v14.3125zm-5.5625-5.171876q0 1.984376.8437 2.96875.8438.984376 1.9844.984376 1.15625 0 1.9531-.9375.8125-.9375.8125-2.875 0-2.125-.8281-3.125-.8125-1-2.0156-1-1.1719 0-1.9688.96875-.7812.953124-.7812 3.015624zm9.125 2.078126 1.75-.28125q.1406 1.046874.8125 1.609374.67185.546876 1.875.546876 1.2031 0 1.7812-.484376.5938-.5.5938-1.15625 0-.59375-.51565-.9375-.35935-.234374-1.79685-.59375-1.9375-.5-2.6875-.84375-.7344-.359374-1.125-.984374-.39065-.640626-.39065-1.40625 0-.6875.3125-1.28125.32815-.59375.875-.984376.40625-.296874 1.10935-.5.7188-.21875 1.5313-.21875 1.2187 0 2.1406.359376.9219.34375 1.3594.953124.4375.59375.60935 1.59375l-1.71875.234376q-.125-.796876-.6875-1.234376-.5625-.453124-1.5781-.453124-1.2188 0-1.7344.40625-.5156.390624-.5156.921874 0 .34375.2187.625.20315.28125.6719.46875.2656.09375 1.5469.4375 1.875.5 2.60935.828126.73435.3125 1.15625.921874.4219.59375.4219 1.5 0 .875-.51565 1.65625-.51565.78125-1.48435 1.203126-.9688.421874-2.1875.421874-2.01565 0-3.07815-.84375-1.0625-.84375-1.35935-2.484374z" fill="#757575"/>
</svg>
