<?xml version="1.0"?>
<svg xmlns="http://www.w3.org/2000/svg" xmlns:xlink="http://www.w3.org/1999/xlink" viewBox="0 0 1280 720">
  <clipPath id="a">
    <path clip-rule="evenodd" d="m0 .00012207h960v539.99999793h-960z"/>
  </clipPath>
  <clipPath id="b">
    <path clip-rule="evenodd" d="m0 .00012207h960v539.99999793h-960z"/>
  </clipPath>
  <clipPath id="c">
    <path clip-rule="evenodd" d="m35.28 47.28h894.12v455.64h-894.12z"/>
  </clipPath>
  <clipPath id="d">
    <path clip-rule="evenodd" d="m35.28 47.28h894.12v455.64h-894.12z"/>
  </clipPath>
  <clipPath id="e">
    <path clip-rule="evenodd" d="m35.28 47.28h894.12v455.64h-894.12z"/>
  </clipPath>
  <clipPath id="f">
    <path clip-rule="evenodd" d="m.00001431 0h959.99999569v540h-959.99999569z"/>
  </clipPath>
  <clipPath id="g">
    <path clip-rule="evenodd" d="m.00001431 0h959.99999569v540h-959.99999569z"/>
  </clipPath>
  <clipPath id="h">
    <path clip-rule="evenodd" d="m.00001431 0h959.99999569v540h-959.99999569z"/>
  </clipPath>
  <clipPath id="i">
    <path clip-rule="evenodd" d="m.00001431 0h959.99999569v540h-959.99999569z"/>
  </clipPath>
  <clipPath id="j">
    <path clip-rule="evenodd" d="m.00001431 0h959.99999569v540h-959.99999569z"/>
  </clipPath>
  <clipPath id="k">
    <path clip-rule="evenodd" d="m.00001431 0h959.99999569v540h-959.99999569z"/>
  </clipPath>
  <clipPath id="l">
    <path clip-rule="evenodd" d="m.00001431 0h959.99999569v540h-959.99999569z"/>
  </clipPath>
  <clipPath id="m">
    <path clip-rule="evenodd" d="m.00001431 0h959.99999569v540h-959.99999569z"/>
  </clipPath>
  <clipPath id="n">
    <path clip-rule="evenodd" d="m.00001431 0h959.99999569v540h-959.99999569z"/>
  </clipPath>
  <clipPath id="o">
    <path clip-rule="evenodd" d="m.00001431 0h959.99999569v540h-959.99999569z"/>
  </clipPath>
  <clipPath id="p">
    <path clip-rule="evenodd" d="m.00001431 0h959.99999569v540h-959.99999569z"/>
  </clipPath>
  <clipPath id="q">
    <path clip-rule="evenodd" d="m.00001431 0h959.99999569v540h-959.99999569z"/>
  </clipPath>
  <clipPath id="r">
    <path clip-rule="evenodd" d="m.00001431 0h959.99999569v540h-959.99999569z"/>
  </clipPath>
  <clipPath id="s">
    <path clip-rule="evenodd" d="m.00001431 0h959.99999569v540h-959.99999569z"/>
  </clipPath>
  <clipPath id="t">
    <path clip-rule="evenodd" d="m.00001431 0h959.99999569v540h-959.99999569z"/>
  </clipPath>
  <clipPath id="u">
    <path clip-rule="evenodd" d="m.00001431 0h959.99999569v540h-959.99999569z"/>
  </clipPath>
  <clipPath id="v">
    <path clip-rule="evenodd" d="m.00001431 0h959.99999569v540h-959.99999569z"/>
  </clipPath>
  <clipPath id="w">
    <path clip-rule="evenodd" d="m.00001431 0h959.99999569v540h-959.99999569z"/>
  </clipPath>
  <clipPath id="x">
    <path clip-rule="evenodd" d="m.00001431 0h959.99999569v540h-959.99999569z"/>
  </clipPath>
  <clipPath id="y">
    <path clip-rule="evenodd" d="m.00001431 0h959.99999569v540h-959.99999569z"/>
  </clipPath>
  <clipPath id="z">
    <path clip-rule="evenodd" d="m.00001431 0h959.99999569v540h-959.99999569z"/>
  </clipPath>
  <clipPath id="A">
    <path clip-rule="evenodd" d="m.00001431 0h959.99999569v540h-959.99999569z"/>
  </clipPath>
  <clipPath id="B">
    <path clip-rule="evenodd" d="m.00001431 0h959.99999569v540h-959.99999569z"/>
  </clipPath>
  <clipPath id="C">
    <path clip-rule="evenodd" d="m.00001431 0h959.99999569v540h-959.99999569z"/>
  </clipPath>
  <clipPath id="D">
    <path clip-rule="evenodd" d="m.00001431 0h959.99999569v540h-959.99999569z"/>
  </clipPath>
  <clipPath id="E">
    <path clip-rule="evenodd" d="m.00001431 0h959.99999569v540h-959.99999569z"/>
  </clipPath>
  <clipPath id="F">
    <path clip-rule="evenodd" d="m.00001431 0h959.99999569v540h-959.99999569z"/>
  </clipPath>
  <clipPath id="G">
    <path clip-rule="evenodd" d="m.00001431 0h959.99999569v540h-959.99999569z"/>
  </clipPath>
  <clipPath id="H">
    <path clip-rule="evenodd" d="m.00001431 0h959.99999569v540h-959.99999569z"/>
  </clipPath>
  <clipPath id="I">
    <path clip-rule="evenodd" d="m.00001431 0h959.99999569v540h-959.99999569z"/>
  </clipPath>
  <clipPath id="J">
    <path clip-rule="evenodd" d="m.00001431 0h959.99999569v540h-959.99999569z"/>
  </clipPath>
  <clipPath id="K">
    <path clip-rule="evenodd" d="m.00001431 0h959.99999569v540h-959.99999569z"/>
  </clipPath>
  <clipPath id="L">
    <path clip-rule="evenodd" d="m.00001431 0h959.99999569v540h-959.99999569z"/>
  </clipPath>
  <clipPath id="M">
    <path clip-rule="evenodd" d="m0 .00012207h960v539.99999793h-960z"/>
  </clipPath>
  <g transform="matrix(1.3333333 0 0 -1.3333333 0 720)">
    <g clip-path="url(#a)">
      <path d="m0 .00006104h960v539.99999896h-960z" fill="#fff" fill-rule="evenodd"/>
    </g>
    <g clip-path="url(#b)">
      <path d="m0 .00006104h960v539.99999896h-960z" fill="#f2f2f2" fill-rule="evenodd"/>
    </g>
    <g fill="none" stroke-linejoin="round" stroke-miterlimit="10" stroke-width=".72">
      <path d="m35.4 82.92h893.28m-893.28 35.04h893.28m-893.28 34.92h893.28m-893.28 35.04h893.28m-893.28 35.04h893.28m-893.28 34.92h893.28m-893.28 35.04h893.28m-893.28 35.04h893.28m-893.28 34.92h893.28m-893.28 35.04h893.28m-893.28 35.04h893.28m-893.28 34.92h893.28m-893.28 35.04h893.28" stroke="#d9d9d9"/>
      <path d="m99.12 502.92v-455.04m63.84 455.04v-455.04m63.84 455.04v-455.04m63.84 455.04v-455.04m63.84 455.04v-455.04m63.72 455.04v-455.04m63.84 455.04v-455.04m63.84 455.04v-455.04m63.84 455.04v-455.04m63.72 455.04v-455.04m63.84 455.04v-455.04m63.84 455.04v-455.04m63.84 455.04v-455.04m63.72 455.04v-455.04" stroke="#d9d9d9"/>
      <path d="m35.4 47.88v455.04" stroke="#bfbfbf"/>
      <path d="m35.4 47.88h893.28" stroke="#bfbfbf"/>
    </g>
    <g clip-path="url(#c)">
      <path d="m35.34 48.18v.36.6 1.2 1.8 4.2 6.12 10.2l.12 17.64v48.84l.12 79.44.24 119.4.36-179.28.96 57.6 1.68 48.96 3.48 72.84 6.96 56.16 13.92 41.4 27.96 5.64 55.68-3.6 111.6-1.68 222.96-1.32 446.16-274.32" style="fill:none;stroke:#4472c4;stroke-width:1.56;stroke-linecap:round;stroke-linejoin:round;stroke-miterlimit:10"/>
    </g>
    <path d="m37.92 48.24c0-1.392-1.128-2.52-2.52-2.52s-2.52 1.128-2.52 2.52 1.128 2.52 2.52 2.52 2.52-1.128 2.52-2.52z" fill="#4472c4"/>
    <path d="m37.92 48.24c0-1.392-1.128-2.52-2.52-2.52s-2.52 1.128-2.52 2.52 1.128 2.52 2.52 2.52 2.52-1.128 2.52-2.52z" fill="none" stroke="#4472c4" stroke-linejoin="round" stroke-miterlimit="10" stroke-width=".72"/>
    <path d="m37.92 48.48c0-1.392-1.128-2.52-2.52-2.52s-2.52 1.128-2.52 2.52 1.128 2.52 2.52 2.52 2.52-1.128 2.52-2.52z" fill="#4472c4"/>
    <path d="m37.92 48.48c0-1.392-1.128-2.52-2.52-2.52s-2.52 1.128-2.52 2.52 1.128 2.52 2.52 2.52 2.52-1.128 2.52-2.52z" fill="none" stroke="#4472c4" stroke-linejoin="round" stroke-miterlimit="10" stroke-width=".72"/>
    <path d="m37.92 49.08c0-1.392-1.128-2.52-2.52-2.52s-2.52 1.128-2.52 2.52 1.128 2.52 2.52 2.52 2.52-1.128 2.52-2.52z" fill="#4472c4"/>
    <path d="m37.92 49.08c0-1.392-1.128-2.52-2.52-2.52s-2.52 1.128-2.52 2.52 1.128 2.52 2.52 2.52 2.52-1.128 2.52-2.52z" fill="none" stroke="#4472c4" stroke-linejoin="round" stroke-miterlimit="10" stroke-width=".72"/>
    <path d="m37.92 50.28c0-1.392-1.128-2.52-2.52-2.52s-2.52 1.128-2.52 2.52 1.128 2.52 2.52 2.52 2.52-1.128 2.52-2.52z" fill="#4472c4"/>
    <path d="m37.92 50.28c0-1.392-1.128-2.52-2.52-2.52s-2.52 1.128-2.52 2.52 1.128 2.52 2.52 2.52 2.52-1.128 2.52-2.52z" fill="none" stroke="#4472c4" stroke-linejoin="round" stroke-miterlimit="10" stroke-width=".72"/>
    <path d="m37.92 52.08c0-1.392-1.128-2.52-2.52-2.52s-2.52 1.128-2.52 2.52 1.128 2.52 2.52 2.52 2.52-1.128 2.52-2.52z" fill="#4472c4"/>
    <path d="m37.92 52.08c0-1.392-1.128-2.52-2.52-2.52s-2.52 1.128-2.52 2.52 1.128 2.52 2.52 2.52 2.52-1.128 2.52-2.52z" fill="none" stroke="#4472c4" stroke-linejoin="round" stroke-miterlimit="10" stroke-width=".72"/>
    <path d="m37.92 56.4c0-1.392-1.128-2.52-2.52-2.52s-2.52 1.128-2.52 2.52 1.128 2.52 2.52 2.52 2.52-1.128 2.52-2.52z" fill="#4472c4"/>
    <path d="m37.92 56.4c0-1.392-1.128-2.52-2.52-2.52s-2.52 1.128-2.52 2.52 1.128 2.52 2.52 2.52 2.52-1.128 2.52-2.52z" fill="none" stroke="#4472c4" stroke-linejoin="round" stroke-miterlimit="10" stroke-width=".72"/>
    <path d="m37.92 62.52c0-1.392-1.128-2.52-2.52-2.52s-2.52 1.128-2.52 2.52 1.128 2.52 2.52 2.52 2.52-1.128 2.52-2.52z" fill="#4472c4"/>
    <path d="m37.92 62.52c0-1.392-1.128-2.52-2.52-2.52s-2.52 1.128-2.52 2.52 1.128 2.52 2.52 2.52 2.52-1.128 2.52-2.52z" fill="none" stroke="#4472c4" stroke-linejoin="round" stroke-miterlimit="10" stroke-width=".72"/>
    <path d="m37.92 72.6c0-1.392-1.128-2.52-2.52-2.52s-2.52 1.128-2.52 2.52 1.128 2.52 2.52 2.52 2.52-1.128 2.52-2.52z" fill="#4472c4"/>
    <path d="m37.92 72.6c0-1.392-1.128-2.52-2.52-2.52s-2.52 1.128-2.52 2.52 1.128 2.52 2.52 2.52 2.52-1.128 2.52-2.52z" fill="none" stroke="#4472c4" stroke-linejoin="round" stroke-miterlimit="10" stroke-width=".72"/>
    <path d="m37.92 90.24c0-1.392-1.128-2.52-2.52-2.52s-2.52 1.128-2.52 2.52 1.128 2.52 2.52 2.52 2.52-1.128 2.52-2.52z" fill="#4472c4"/>
    <path d="m37.92 90.24c0-1.392-1.128-2.52-2.52-2.52s-2.52 1.128-2.52 2.52 1.128 2.52 2.52 2.52 2.52-1.128 2.52-2.52z" fill="none" stroke="#4472c4" stroke-linejoin="round" stroke-miterlimit="10" stroke-width=".72"/>
    <path d="m38.04 139.08c0-1.39-1.128-2.52-2.52-2.52s-2.52 1.13-2.52 2.52 1.128 2.52 2.52 2.52 2.52-1.13 2.52-2.52z" fill="#4472c4"/>
    <path d="m38.04 139.08c0-1.39-1.128-2.52-2.52-2.52s-2.52 1.13-2.52 2.52 1.128 2.52 2.52 2.52 2.52-1.13 2.52-2.52z" fill="none" stroke="#4472c4" stroke-linejoin="round" stroke-miterlimit="10" stroke-width=".72"/>
    <path d="m38.04 218.52c0-1.39-1.128-2.52-2.52-2.52s-2.52 1.13-2.52 2.52 1.128 2.52 2.52 2.52 2.52-1.13 2.52-2.52z" fill="#4472c4"/>
    <path d="m38.04 218.52c0-1.39-1.128-2.52-2.52-2.52s-2.52 1.13-2.52 2.52 1.128 2.52 2.52 2.52 2.52-1.13 2.52-2.52z" fill="none" stroke="#4472c4" stroke-linejoin="round" stroke-miterlimit="10" stroke-width=".72"/>
    <path d="m38.28 338.04c0-1.39-1.128-2.52-2.52-2.52s-2.52 1.13-2.52 2.52 1.128 2.52 2.52 2.52 2.52-1.13 2.52-2.52z" fill="#4472c4"/>
    <path d="m38.28 338.04c0-1.39-1.128-2.52-2.52-2.52s-2.52 1.13-2.52 2.52 1.128 2.52 2.52 2.52 2.52-1.13 2.52-2.52z" fill="none" stroke="#4472c4" stroke-linejoin="round" stroke-miterlimit="10" stroke-width=".72"/>
    <path d="m38.76 158.64c0-1.39-1.128-2.52-2.52-2.52s-2.52 1.13-2.52 2.52 1.128 2.52 2.52 2.52 2.52-1.13 2.52-2.52z" fill="#4472c4"/>
    <path d="m38.76 158.64c0-1.39-1.128-2.52-2.52-2.52s-2.52 1.13-2.52 2.52 1.128 2.52 2.52 2.52 2.52-1.13 2.52-2.52z" fill="none" stroke="#4472c4" stroke-linejoin="round" stroke-miterlimit="10" stroke-width=".72"/>
    <path d="m39.6 216.24c0-1.39-1.128-2.52-2.52-2.52s-2.52 1.13-2.52 2.52 1.128 2.52 2.52 2.52 2.52-1.13 2.52-2.52z" fill="#4472c4"/>
    <path d="m39.6 216.24c0-1.39-1.128-2.52-2.52-2.52s-2.52 1.13-2.52 2.52 1.128 2.52 2.52 2.52 2.52-1.13 2.52-2.52z" fill="none" stroke="#4472c4" stroke-linejoin="round" stroke-miterlimit="10" stroke-width=".72"/>
    <path d="m41.4 265.2c0-1.39-1.128-2.52-2.52-2.52s-2.52 1.13-2.52 2.52 1.128 2.52 2.52 2.52 2.52-1.13 2.52-2.52z" fill="#4472c4"/>
    <path d="m41.4 265.2c0-1.39-1.128-2.52-2.52-2.52s-2.52 1.13-2.52 2.52 1.128 2.52 2.52 2.52 2.52-1.13 2.52-2.52z" fill="none" stroke="#4472c4" stroke-linejoin="round" stroke-miterlimit="10" stroke-width=".72"/>
    <path d="m44.88 338.04c0-1.39-1.128-2.52-2.52-2.52s-2.52 1.13-2.52 2.52 1.128 2.52 2.52 2.52 2.52-1.13 2.52-2.52z" fill="#4472c4"/>
    <path d="m44.88 338.04c0-1.39-1.128-2.52-2.52-2.52s-2.52 1.13-2.52 2.52 1.128 2.52 2.52 2.52 2.52-1.13 2.52-2.52z" fill="none" stroke="#4472c4" stroke-linejoin="round" stroke-miterlimit="10" stroke-width=".72"/>
    <path d="m51.84 394.32c0-1.39-1.128-2.52-2.52-2.52s-2.52 1.13-2.52 2.52 1.128 2.52 2.52 2.52 2.52-1.13 2.52-2.52z" fill="#4472c4"/>
    <path d="m51.84 394.32c0-1.39-1.128-2.52-2.52-2.52s-2.52 1.13-2.52 2.52 1.128 2.52 2.52 2.52 2.52-1.13 2.52-2.52z" fill="none" stroke="#4472c4" stroke-linejoin="round" stroke-miterlimit="10" stroke-width=".72"/>
    <path d="m65.76 435.72c0-1.39-1.128-2.52-2.52-2.52s-2.52 1.13-2.52 2.52 1.128 2.52 2.52 2.52 2.52-1.13 2.52-2.52z" fill="#4472c4"/>
    <path d="m65.76 435.72c0-1.39-1.128-2.52-2.52-2.52s-2.52 1.13-2.52 2.52 1.128 2.52 2.52 2.52 2.52-1.13 2.52-2.52z" fill="none" stroke="#4472c4" stroke-linejoin="round" stroke-miterlimit="10" stroke-width=".72"/>
    <path d="m93.6 441.24c0-1.39-1.128-2.52-2.52-2.52s-2.52 1.13-2.52 2.52 1.128 2.52 2.52 2.52 2.52-1.13 2.52-2.52z" fill="#4472c4"/>
    <path d="m93.6 441.24c0-1.39-1.128-2.52-2.52-2.52s-2.52 1.13-2.52 2.52 1.128 2.52 2.52 2.52 2.52-1.13 2.52-2.52z" fill="none" stroke="#4472c4" stroke-linejoin="round" stroke-miterlimit="10" stroke-width=".72"/>
    <path d="m149.4 437.64c0-1.39-1.13-2.52-2.52-2.52s-2.52 1.13-2.52 2.52 1.13 2.52 2.52 2.52 2.52-1.13 2.52-2.52z" fill="#4472c4"/>
    <path d="m149.4 437.64c0-1.39-1.13-2.52-2.52-2.52s-2.52 1.13-2.52 2.52 1.13 2.52 2.52 2.52 2.52-1.13 2.52-2.52z" fill="none" stroke="#4472c4" stroke-linejoin="round" stroke-miterlimit="10" stroke-width=".72"/>
    <path d="m260.88 435.96c0-1.39-1.13-2.52-2.52-2.52s-2.52 1.13-2.52 2.52 1.13 2.52 2.52 2.52 2.52-1.13 2.52-2.52z" fill="#4472c4"/>
    <path d="m260.88 435.96c0-1.39-1.13-2.52-2.52-2.52s-2.52 1.13-2.52 2.52 1.13 2.52 2.52 2.52 2.52-1.13 2.52-2.52z" fill="none" stroke="#4472c4" stroke-linejoin="round" stroke-miterlimit="10" stroke-width=".72"/>
    <path d="m483.96 434.64c0-1.39-1.13-2.52-2.52-2.52s-2.52 1.13-2.52 2.52 1.13 2.52 2.52 2.52 2.52-1.13 2.52-2.52z" fill="#4472c4"/>
    <path d="m483.96 434.64c0-1.39-1.13-2.52-2.52-2.52s-2.52 1.13-2.52 2.52 1.13 2.52 2.52 2.52 2.52-1.13 2.52-2.52z" fill="none" stroke="#4472c4" stroke-linejoin="round" stroke-miterlimit="10" stroke-width=".72"/>
    <path d="m930 160.44c0-1.39-1.13-2.52-2.52-2.52s-2.52 1.13-2.52 2.52 1.13 2.52 2.52 2.52 2.52-1.13 2.52-2.52z" fill="#4472c4"/>
    <path d="m930 160.44c0-1.39-1.13-2.52-2.52-2.52s-2.52 1.13-2.52 2.52 1.13 2.52 2.52 2.52 2.52-1.13 2.52-2.52z" fill="none" stroke="#4472c4" stroke-linejoin="round" stroke-miterlimit="10" stroke-width=".72"/>
    <g clip-path="url(#d)">
      <path d="m35.34 48.18v.36.6 1.2 1.8 4.44 5.88 9.84l.12 18v51.12l.12 78.72.24 117.36.36-184.92.96 62.28 1.68 50.28 3.48 72.6 6.96 56.16 13.92 40.8 27.96 24.96 55.68 14.4 111.6-16.08 222.96-15.96 446.16-281.28" style="fill:none;stroke:#ed7d31;stroke-width:1.56;stroke-linecap:round;stroke-linejoin:round;stroke-miterlimit:10"/>
    </g>
    <path d="m37.92 48.24c0-1.392-1.128-2.52-2.52-2.52s-2.52 1.128-2.52 2.52 1.128 2.52 2.52 2.52 2.52-1.128 2.52-2.52z" fill="#ed7d31"/>
    <path d="m37.92 48.24c0-1.392-1.128-2.52-2.52-2.52s-2.52 1.128-2.52 2.52 1.128 2.52 2.52 2.52 2.52-1.128 2.52-2.52z" fill="none" stroke="#ed7d31" stroke-linejoin="round" stroke-miterlimit="10" stroke-width=".72"/>
    <path d="m37.92 48.48c0-1.392-1.128-2.52-2.52-2.52s-2.52 1.128-2.52 2.52 1.128 2.52 2.52 2.52 2.52-1.128 2.52-2.52z" fill="#ed7d31"/>
    <path d="m37.92 48.48c0-1.392-1.128-2.52-2.52-2.52s-2.52 1.128-2.52 2.52 1.128 2.52 2.52 2.52 2.52-1.128 2.52-2.52z" fill="none" stroke="#ed7d31" stroke-linejoin="round" stroke-miterlimit="10" stroke-width=".72"/>
    <path d="m37.92 49.08c0-1.392-1.128-2.52-2.52-2.52s-2.52 1.128-2.52 2.52 1.128 2.52 2.52 2.52 2.52-1.128 2.52-2.52z" fill="#ed7d31"/>
    <path d="m37.92 49.08c0-1.392-1.128-2.52-2.52-2.52s-2.52 1.128-2.52 2.52 1.128 2.52 2.52 2.52 2.52-1.128 2.52-2.52z" fill="none" stroke="#ed7d31" stroke-linejoin="round" stroke-miterlimit="10" stroke-width=".72"/>
    <path d="m37.92 50.28c0-1.392-1.128-2.52-2.52-2.52s-2.52 1.128-2.52 2.52 1.128 2.52 2.52 2.52 2.52-1.128 2.52-2.52z" fill="#ed7d31"/>
    <path d="m37.92 50.28c0-1.392-1.128-2.52-2.52-2.52s-2.52 1.128-2.52 2.52 1.128 2.52 2.52 2.52 2.52-1.128 2.52-2.52z" fill="none" stroke="#ed7d31" stroke-linejoin="round" stroke-miterlimit="10" stroke-width=".72"/>
    <path d="m37.92 52.2c0-1.392-1.128-2.52-2.52-2.52s-2.52 1.128-2.52 2.52 1.128 2.52 2.52 2.52 2.52-1.128 2.52-2.52z" fill="#ed7d31"/>
    <path d="m37.92 52.2c0-1.392-1.128-2.52-2.52-2.52s-2.52 1.128-2.52 2.52 1.128 2.52 2.52 2.52 2.52-1.128 2.52-2.52z" fill="none" stroke="#ed7d31" stroke-linejoin="round" stroke-miterlimit="10" stroke-width=".72"/>
    <path d="m37.92 56.52c0-1.392-1.128-2.52-2.52-2.52s-2.52 1.128-2.52 2.52 1.128 2.52 2.52 2.52 2.52-1.128 2.52-2.52z" fill="#ed7d31"/>
    <path d="m37.92 56.52c0-1.392-1.128-2.52-2.52-2.52s-2.52 1.128-2.52 2.52 1.128 2.52 2.52 2.52 2.52-1.128 2.52-2.52z" fill="none" stroke="#ed7d31" stroke-linejoin="round" stroke-miterlimit="10" stroke-width=".72"/>
    <path d="m37.92 62.4c0-1.392-1.128-2.52-2.52-2.52s-2.52 1.128-2.52 2.52 1.128 2.52 2.52 2.52 2.52-1.128 2.52-2.52z" fill="#ed7d31"/>
    <path d="m37.92 62.4c0-1.392-1.128-2.52-2.52-2.52s-2.52 1.128-2.52 2.52 1.128 2.52 2.52 2.52 2.52-1.128 2.52-2.52z" fill="none" stroke="#ed7d31" stroke-linejoin="round" stroke-miterlimit="10" stroke-width=".72"/>
    <path d="m37.92 72.36c0-1.392-1.128-2.52-2.52-2.52s-2.52 1.128-2.52 2.52 1.128 2.52 2.52 2.52 2.52-1.128 2.52-2.52z" fill="#ed7d31"/>
    <path d="m37.92 72.36c0-1.392-1.128-2.52-2.52-2.52s-2.52 1.128-2.52 2.52 1.128 2.52 2.52 2.52 2.52-1.128 2.52-2.52z" fill="none" stroke="#ed7d31" stroke-linejoin="round" stroke-miterlimit="10" stroke-width=".72"/>
    <path d="m37.92 90.24c0-1.392-1.128-2.52-2.52-2.52s-2.52 1.128-2.52 2.52 1.128 2.52 2.52 2.52 2.52-1.128 2.52-2.52z" fill="#ed7d31"/>
    <path d="m37.92 90.24c0-1.392-1.128-2.52-2.52-2.52s-2.52 1.128-2.52 2.52 1.128 2.52 2.52 2.52 2.52-1.128 2.52-2.52z" fill="none" stroke="#ed7d31" stroke-linejoin="round" stroke-miterlimit="10" stroke-width=".72"/>
    <path d="m38.04 141.48c0-1.39-1.128-2.52-2.52-2.52s-2.52 1.13-2.52 2.52 1.128 2.52 2.52 2.52 2.52-1.13 2.52-2.52z" fill="#ed7d31"/>
    <path d="m38.04 141.48c0-1.39-1.128-2.52-2.52-2.52s-2.52 1.13-2.52 2.52 1.128 2.52 2.52 2.52 2.52-1.13 2.52-2.52z" fill="none" stroke="#ed7d31" stroke-linejoin="round" stroke-miterlimit="10" stroke-width=".72"/>
    <path d="m38.04 220.2c0-1.39-1.128-2.52-2.52-2.52s-2.52 1.13-2.52 2.52 1.128 2.52 2.52 2.52 2.52-1.13 2.52-2.52z" fill="#ed7d31"/>
    <path d="m38.04 220.2c0-1.39-1.128-2.52-2.52-2.52s-2.52 1.13-2.52 2.52 1.128 2.52 2.52 2.52 2.52-1.13 2.52-2.52z" fill="none" stroke="#ed7d31" stroke-linejoin="round" stroke-miterlimit="10" stroke-width=".72"/>
    <path d="m38.28 337.56c0-1.39-1.128-2.52-2.52-2.52s-2.52 1.13-2.52 2.52 1.128 2.52 2.52 2.52 2.52-1.13 2.52-2.52z" fill="#ed7d31"/>
    <path d="m38.28 337.56c0-1.39-1.128-2.52-2.52-2.52s-2.52 1.13-2.52 2.52 1.128 2.52 2.52 2.52 2.52-1.13 2.52-2.52z" fill="none" stroke="#ed7d31" stroke-linejoin="round" stroke-miterlimit="10" stroke-width=".72"/>
    <path d="m38.76 152.52c0-1.39-1.128-2.52-2.52-2.52s-2.52 1.13-2.52 2.52 1.128 2.52 2.52 2.52 2.52-1.13 2.52-2.52z" fill="#ed7d31"/>
    <path d="m38.76 152.52c0-1.39-1.128-2.52-2.52-2.52s-2.52 1.13-2.52 2.52 1.128 2.52 2.52 2.52 2.52-1.13 2.52-2.52z" fill="none" stroke="#ed7d31" stroke-linejoin="round" stroke-miterlimit="10" stroke-width=".72"/>
    <path d="m39.6 214.92c0-1.39-1.128-2.52-2.52-2.52s-2.52 1.13-2.52 2.52 1.128 2.52 2.52 2.52 2.52-1.13 2.52-2.52z" fill="#ed7d31"/>
    <path d="m39.6 214.92c0-1.39-1.128-2.52-2.52-2.52s-2.52 1.13-2.52 2.52 1.128 2.52 2.52 2.52 2.52-1.13 2.52-2.52z" fill="none" stroke="#ed7d31" stroke-linejoin="round" stroke-miterlimit="10" stroke-width=".72"/>
    <path d="m41.4 265.2c0-1.39-1.128-2.52-2.52-2.52s-2.52 1.13-2.52 2.52 1.128 2.52 2.52 2.52 2.52-1.13 2.52-2.52z" fill="#ed7d31"/>
    <path d="m41.4 265.2c0-1.39-1.128-2.52-2.52-2.52s-2.52 1.13-2.52 2.52 1.128 2.52 2.52 2.52 2.52-1.13 2.52-2.52z" fill="none" stroke="#ed7d31" stroke-linejoin="round" stroke-miterlimit="10" stroke-width=".72"/>
    <path d="m44.88 337.8c0-1.39-1.128-2.52-2.52-2.52s-2.52 1.13-2.52 2.52 1.128 2.52 2.52 2.52 2.52-1.13 2.52-2.52z" fill="#ed7d31"/>
    <path d="m44.88 337.8c0-1.39-1.128-2.52-2.52-2.52s-2.52 1.13-2.52 2.52 1.128 2.52 2.52 2.52 2.52-1.13 2.52-2.52z" fill="none" stroke="#ed7d31" stroke-linejoin="round" stroke-miterlimit="10" stroke-width=".72"/>
    <path d="m51.84 393.96c0-1.39-1.128-2.52-2.52-2.52s-2.52 1.13-2.52 2.52 1.128 2.52 2.52 2.52 2.52-1.13 2.52-2.52z" fill="#ed7d31"/>
    <path d="m51.84 393.96c0-1.39-1.128-2.52-2.52-2.52s-2.52 1.13-2.52 2.52 1.128 2.52 2.52 2.52 2.52-1.13 2.52-2.52z" fill="none" stroke="#ed7d31" stroke-linejoin="round" stroke-miterlimit="10" stroke-width=".72"/>
    <path d="m65.76 434.76c0-1.39-1.128-2.52-2.52-2.52s-2.52 1.13-2.52 2.52 1.128 2.52 2.52 2.52 2.52-1.13 2.52-2.52z" fill="#ed7d31"/>
    <path d="m65.76 434.76c0-1.39-1.128-2.52-2.52-2.52s-2.52 1.13-2.52 2.52 1.128 2.52 2.52 2.52 2.52-1.13 2.52-2.52z" fill="none" stroke="#ed7d31" stroke-linejoin="round" stroke-miterlimit="10" stroke-width=".72"/>
    <path d="m93.6 459.6c0-1.39-1.128-2.52-2.52-2.52s-2.52 1.13-2.52 2.52 1.128 2.52 2.52 2.52 2.52-1.13 2.52-2.52z" fill="#ed7d31"/>
    <path d="m93.6 459.6c0-1.39-1.128-2.52-2.52-2.52s-2.52 1.13-2.52 2.52 1.128 2.52 2.52 2.52 2.52-1.13 2.52-2.52z" fill="none" stroke="#ed7d31" stroke-linejoin="round" stroke-miterlimit="10" stroke-width=".72"/>
    <path d="m149.4 474.12c0-1.39-1.13-2.52-2.52-2.52s-2.52 1.13-2.52 2.52 1.13 2.52 2.52 2.52 2.52-1.13 2.52-2.52z" fill="#ed7d31"/>
    <path d="m149.4 474.12c0-1.39-1.13-2.52-2.52-2.52s-2.52 1.13-2.52 2.52 1.13 2.52 2.52 2.52 2.52-1.13 2.52-2.52z" fill="none" stroke="#ed7d31" stroke-linejoin="round" stroke-miterlimit="10" stroke-width=".72"/>
    <path d="m260.88 458.04c0-1.39-1.13-2.52-2.52-2.52s-2.52 1.13-2.52 2.52 1.13 2.52 2.52 2.52 2.52-1.13 2.52-2.52z" fill="#ed7d31"/>
    <path d="m260.88 458.04c0-1.39-1.13-2.52-2.52-2.52s-2.52 1.13-2.52 2.52 1.13 2.52 2.52 2.52 2.52-1.13 2.52-2.52z" fill="none" stroke="#ed7d31" stroke-linejoin="round" stroke-miterlimit="10" stroke-width=".72"/>
    <path d="m483.96 441.96c0-1.39-1.13-2.52-2.52-2.52s-2.52 1.13-2.52 2.52 1.13 2.52 2.52 2.52 2.52-1.13 2.52-2.52z" fill="#ed7d31"/>
    <path d="m483.96 441.96c0-1.39-1.13-2.52-2.52-2.52s-2.52 1.13-2.52 2.52 1.13 2.52 2.52 2.52 2.52-1.13 2.52-2.52z" fill="none" stroke="#ed7d31" stroke-linejoin="round" stroke-miterlimit="10" stroke-width=".72"/>
    <path d="m930 160.68c0-1.39-1.13-2.52-2.52-2.52s-2.52 1.13-2.52 2.52 1.13 2.52 2.52 2.52 2.52-1.13 2.52-2.52z" fill="#ed7d31"/>
    <path d="m930 160.68c0-1.39-1.13-2.52-2.52-2.52s-2.52 1.13-2.52 2.52 1.13 2.52 2.52 2.52 2.52-1.13 2.52-2.52z" fill="none" stroke="#ed7d31" stroke-linejoin="round" stroke-miterlimit="10" stroke-width=".72"/>
    <g clip-path="url(#e)">
      <path d="m35.34 47.94v.12.24.36.72 1.44 2.52l.12 5.28v9.96l.12 16.44.24 15.48.36 12.24.96 8.88 1.68 3.84 3.48 13.08 6.96 9 13.92 4.32 27.96 1.2 55.68 1.32 111.6.6 222.96.36 446.16.24" style="fill:none;stroke:#a5a5a5;stroke-width:1.56;stroke-linecap:round;stroke-linejoin:round;stroke-miterlimit:10"/>
    </g>
    <path d="m37.92 48c0-1.392-1.128-2.52-2.52-2.52s-2.52 1.128-2.52 2.52 1.128 2.52 2.52 2.52 2.52-1.128 2.52-2.52z" fill="#a5a5a5"/>
    <path d="m37.92 48c0-1.392-1.128-2.52-2.52-2.52s-2.52 1.128-2.52 2.52 1.128 2.52 2.52 2.52 2.52-1.128 2.52-2.52z" fill="none" stroke="#a5a5a5" stroke-linejoin="round" stroke-miterlimit="10" stroke-width=".72"/>
    <path d="m37.92 48c0-1.392-1.128-2.52-2.52-2.52s-2.52 1.128-2.52 2.52 1.128 2.52 2.52 2.52 2.52-1.128 2.52-2.52z" fill="#a5a5a5"/>
    <path d="m37.92 48c0-1.392-1.128-2.52-2.52-2.52s-2.52 1.128-2.52 2.52 1.128 2.52 2.52 2.52 2.52-1.128 2.52-2.52z" fill="none" stroke="#a5a5a5" stroke-linejoin="round" stroke-miterlimit="10" stroke-width=".72"/>
    <path d="m37.92 48.12c0-1.392-1.128-2.52-2.52-2.52s-2.52 1.128-2.52 2.52 1.128 2.52 2.52 2.52 2.52-1.128 2.52-2.52z" fill="#a5a5a5"/>
    <path d="m37.92 48.12c0-1.392-1.128-2.52-2.52-2.52s-2.52 1.128-2.52 2.52 1.128 2.52 2.52 2.52 2.52-1.128 2.52-2.52z" fill="none" stroke="#a5a5a5" stroke-linejoin="round" stroke-miterlimit="10" stroke-width=".72"/>
    <path d="m37.92 48.24c0-1.392-1.128-2.52-2.52-2.52s-2.52 1.128-2.52 2.52 1.128 2.52 2.52 2.52 2.52-1.128 2.52-2.52z" fill="#a5a5a5"/>
    <path d="m37.92 48.24c0-1.392-1.128-2.52-2.52-2.52s-2.52 1.128-2.52 2.52 1.128 2.52 2.52 2.52 2.52-1.128 2.52-2.52z" fill="none" stroke="#a5a5a5" stroke-linejoin="round" stroke-miterlimit="10" stroke-width=".72"/>
    <path d="m37.92 48.6c0-1.392-1.128-2.52-2.52-2.52s-2.52 1.128-2.52 2.52 1.128 2.52 2.52 2.52 2.52-1.128 2.52-2.52z" fill="#a5a5a5"/>
    <path d="m37.92 48.6c0-1.392-1.128-2.52-2.52-2.52s-2.52 1.128-2.52 2.52 1.128 2.52 2.52 2.52 2.52-1.128 2.52-2.52z" fill="none" stroke="#a5a5a5" stroke-linejoin="round" stroke-miterlimit="10" stroke-width=".72"/>
    <path d="m37.92 49.32c0-1.392-1.128-2.52-2.52-2.52s-2.52 1.128-2.52 2.52 1.128 2.52 2.52 2.52 2.52-1.128 2.52-2.52z" fill="#a5a5a5"/>
    <path d="m37.92 49.32c0-1.392-1.128-2.52-2.52-2.52s-2.52 1.128-2.52 2.52 1.128 2.52 2.52 2.52 2.52-1.128 2.52-2.52z" fill="none" stroke="#a5a5a5" stroke-linejoin="round" stroke-miterlimit="10" stroke-width=".72"/>
    <path d="m37.92 50.76c0-1.392-1.128-2.52-2.52-2.52s-2.52 1.128-2.52 2.52 1.128 2.52 2.52 2.52 2.52-1.128 2.52-2.52z" fill="#a5a5a5"/>
    <path d="m37.92 50.76c0-1.392-1.128-2.52-2.52-2.52s-2.52 1.128-2.52 2.52 1.128 2.52 2.52 2.52 2.52-1.128 2.52-2.52z" fill="none" stroke="#a5a5a5" stroke-linejoin="round" stroke-miterlimit="10" stroke-width=".72"/>
    <path d="m37.92 53.4c0-1.392-1.128-2.52-2.52-2.52s-2.52 1.128-2.52 2.52 1.128 2.52 2.52 2.52 2.52-1.128 2.52-2.52z" fill="#a5a5a5"/>
    <path d="m37.92 53.4c0-1.392-1.128-2.52-2.52-2.52s-2.52 1.128-2.52 2.52 1.128 2.52 2.52 2.52 2.52-1.128 2.52-2.52z" fill="none" stroke="#a5a5a5" stroke-linejoin="round" stroke-miterlimit="10" stroke-width=".72"/>
    <path d="m37.92 58.68c0-1.392-1.128-2.52-2.52-2.52s-2.52 1.128-2.52 2.52 1.128 2.52 2.52 2.52 2.52-1.128 2.52-2.52z" fill="#a5a5a5"/>
    <path d="m37.92 58.68c0-1.392-1.128-2.52-2.52-2.52s-2.52 1.128-2.52 2.52 1.128 2.52 2.52 2.52 2.52-1.128 2.52-2.52z" fill="none" stroke="#a5a5a5" stroke-linejoin="round" stroke-miterlimit="10" stroke-width=".72"/>
    <path d="m38.04 68.52c0-1.392-1.128-2.52-2.52-2.52s-2.52 1.128-2.52 2.52 1.128 2.52 2.52 2.52 2.52-1.128 2.52-2.52z" fill="#a5a5a5"/>
    <path d="m38.04 68.52c0-1.392-1.128-2.52-2.52-2.52s-2.52 1.128-2.52 2.52 1.128 2.52 2.52 2.52 2.52-1.128 2.52-2.52z" fill="none" stroke="#a5a5a5" stroke-linejoin="round" stroke-miterlimit="10" stroke-width=".72"/>
    <path d="m38.04 85.08c0-1.392-1.128-2.52-2.52-2.52s-2.52 1.128-2.52 2.52 1.128 2.52 2.52 2.52 2.52-1.128 2.52-2.52z" fill="#a5a5a5"/>
    <path d="m38.04 85.08c0-1.392-1.128-2.52-2.52-2.52s-2.52 1.128-2.52 2.52 1.128 2.52 2.52 2.52 2.52-1.128 2.52-2.52z" fill="none" stroke="#a5a5a5" stroke-linejoin="round" stroke-miterlimit="10" stroke-width=".72"/>
    <path d="m38.28 100.56c0-1.392-1.128-2.52-2.52-2.52s-2.52 1.128-2.52 2.52c0 1.39 1.128 2.52 2.52 2.52s2.52-1.13 2.52-2.52z" fill="#a5a5a5"/>
    <path d="m38.28 100.56c0-1.392-1.128-2.52-2.52-2.52s-2.52 1.128-2.52 2.52c0 1.39 1.128 2.52 2.52 2.52s2.52-1.13 2.52-2.52z" fill="none" stroke="#a5a5a5" stroke-linejoin="round" stroke-miterlimit="10" stroke-width=".72"/>
    <path d="m38.76 112.8c0-1.39-1.128-2.52-2.52-2.52s-2.52 1.13-2.52 2.52 1.128 2.52 2.52 2.52 2.52-1.13 2.52-2.52z" fill="#a5a5a5"/>
    <path d="m38.76 112.8c0-1.39-1.128-2.52-2.52-2.52s-2.52 1.13-2.52 2.52 1.128 2.52 2.52 2.52 2.52-1.13 2.52-2.52z" fill="none" stroke="#a5a5a5" stroke-linejoin="round" stroke-miterlimit="10" stroke-width=".72"/>
    <path d="m39.6 121.56c0-1.39-1.128-2.52-2.52-2.52s-2.52 1.13-2.52 2.52 1.128 2.52 2.52 2.52 2.52-1.13 2.52-2.52z" fill="#a5a5a5"/>
    <path d="m39.6 121.56c0-1.39-1.128-2.52-2.52-2.52s-2.52 1.13-2.52 2.52 1.128 2.52 2.52 2.52 2.52-1.13 2.52-2.52z" fill="none" stroke="#a5a5a5" stroke-linejoin="round" stroke-miterlimit="10" stroke-width=".72"/>
    <path d="m41.4 125.52c0-1.39-1.128-2.52-2.52-2.52s-2.52 1.13-2.52 2.52 1.128 2.52 2.52 2.52 2.52-1.13 2.52-2.52z" fill="#a5a5a5"/>
    <path d="m41.4 125.52c0-1.39-1.128-2.52-2.52-2.52s-2.52 1.13-2.52 2.52 1.128 2.52 2.52 2.52 2.52-1.13 2.52-2.52z" fill="none" stroke="#a5a5a5" stroke-linejoin="round" stroke-miterlimit="10" stroke-width=".72"/>
    <path d="m44.88 138.6c0-1.39-1.128-2.52-2.52-2.52s-2.52 1.13-2.52 2.52 1.128 2.52 2.52 2.52 2.52-1.13 2.52-2.52z" fill="#a5a5a5"/>
    <path d="m44.88 138.6c0-1.39-1.128-2.52-2.52-2.52s-2.52 1.13-2.52 2.52 1.128 2.52 2.52 2.52 2.52-1.13 2.52-2.52z" fill="none" stroke="#a5a5a5" stroke-linejoin="round" stroke-miterlimit="10" stroke-width=".72"/>
    <path d="m51.84 147.6c0-1.39-1.128-2.52-2.52-2.52s-2.52 1.13-2.52 2.52 1.128 2.52 2.52 2.52 2.52-1.13 2.52-2.52z" fill="#a5a5a5"/>
    <path d="m51.84 147.6c0-1.39-1.128-2.52-2.52-2.52s-2.52 1.13-2.52 2.52 1.128 2.52 2.52 2.52 2.52-1.13 2.52-2.52z" fill="none" stroke="#a5a5a5" stroke-linejoin="round" stroke-miterlimit="10" stroke-width=".72"/>
    <path d="m65.76 151.92c0-1.39-1.128-2.52-2.52-2.52s-2.52 1.13-2.52 2.52 1.128 2.52 2.52 2.52 2.52-1.13 2.52-2.52z" fill="#a5a5a5"/>
    <path d="m65.76 151.92c0-1.39-1.128-2.52-2.52-2.52s-2.52 1.13-2.52 2.52 1.128 2.52 2.52 2.52 2.52-1.13 2.52-2.52z" fill="none" stroke="#a5a5a5" stroke-linejoin="round" stroke-miterlimit="10" stroke-width=".72"/>
    <path d="m93.6 153c0-1.39-1.128-2.52-2.52-2.52s-2.52 1.13-2.52 2.52 1.128 2.52 2.52 2.52 2.52-1.13 2.52-2.52z" fill="#a5a5a5"/>
    <path d="m93.6 153c0-1.39-1.128-2.52-2.52-2.52s-2.52 1.13-2.52 2.52 1.128 2.52 2.52 2.52 2.52-1.13 2.52-2.52z" fill="none" stroke="#a5a5a5" stroke-linejoin="round" stroke-miterlimit="10" stroke-width=".72"/>
    <path d="m149.4 154.32c0-1.39-1.13-2.52-2.52-2.52s-2.52 1.13-2.52 2.52 1.13 2.52 2.52 2.52 2.52-1.13 2.52-2.52z" fill="#a5a5a5"/>
    <path d="m149.4 154.32c0-1.39-1.13-2.52-2.52-2.52s-2.52 1.13-2.52 2.52 1.13 2.52 2.52 2.52 2.52-1.13 2.52-2.52z" fill="none" stroke="#a5a5a5" stroke-linejoin="round" stroke-miterlimit="10" stroke-width=".72"/>
    <path d="m260.88 155.04c0-1.39-1.13-2.52-2.52-2.52s-2.52 1.13-2.52 2.52 1.13 2.52 2.52 2.52 2.52-1.13 2.52-2.52z" fill="#a5a5a5"/>
    <path d="m260.88 155.04c0-1.39-1.13-2.52-2.52-2.52s-2.52 1.13-2.52 2.52 1.13 2.52 2.52 2.52 2.52-1.13 2.52-2.52z" fill="none" stroke="#a5a5a5" stroke-linejoin="round" stroke-miterlimit="10" stroke-width=".72"/>
    <path d="m483.96 155.4c0-1.39-1.13-2.52-2.52-2.52s-2.52 1.13-2.52 2.52 1.13 2.52 2.52 2.52 2.52-1.13 2.52-2.52z" fill="#a5a5a5"/>
    <path d="m483.96 155.4c0-1.39-1.13-2.52-2.52-2.52s-2.52 1.13-2.52 2.52 1.13 2.52 2.52 2.52 2.52-1.13 2.52-2.52z" fill="none" stroke="#a5a5a5" stroke-linejoin="round" stroke-miterlimit="10" stroke-width=".72"/>
    <path d="m930 155.52c0-1.39-1.13-2.52-2.52-2.52s-2.52 1.13-2.52 2.52 1.13 2.52 2.52 2.52 2.52-1.13 2.52-2.52z" fill="#a5a5a5"/>
    <path d="m930 155.52c0-1.39-1.13-2.52-2.52-2.52s-2.52 1.13-2.52 2.52 1.13 2.52 2.52 2.52 2.52-1.13 2.52-2.52z" fill="none" stroke="#a5a5a5" stroke-linejoin="round" stroke-miterlimit="10" stroke-width=".72"/>
    <g clip-path="url(#f)">
      <text fill="#595959" font-family="Calibri,sans-serif" font-size="9" transform="matrix(1 0 0 -1 22.464 45.288)">0</text>
    </g>
    <g clip-path="url(#g)">
      <text fill="#595959" font-family="Calibri,sans-serif" font-size="9" transform="matrix(1 0 0 -1 13.344 80.304)">500</text>
    </g>
    <g clip-path="url(#h)">
      <text fill="#595959" font-family="Calibri,sans-serif" font-size="9" transform="matrix(1 0 0 -1 6.504 115.3)">1.000</text>
    </g>
    <g clip-path="url(#i)">
      <text fill="#595959" font-family="Calibri,sans-serif" font-size="9" transform="matrix(1 0 0 -1 6.504 150.31)">1.500</text>
    </g>
    <g clip-path="url(#j)">
      <text fill="#595959" font-family="Calibri,sans-serif" font-size="9.024" transform="matrix(1 0 0 -1 6.504 185.33)">2.000</text>
    </g>
    <g clip-path="url(#k)">
      <text fill="#595959" font-family="Calibri,sans-serif" font-size="9" transform="matrix(1 0 0 -1 6.504 220.32)">2.500</text>
    </g>
    <g clip-path="url(#l)">
      <text fill="#595959" font-family="Calibri,sans-serif" font-size="9" transform="matrix(1 0 0 -1 6.504 255.34)">3.000</text>
    </g>
    <g clip-path="url(#m)">
      <text fill="#595959" font-family="Calibri,sans-serif" font-size="9" transform="matrix(1 0 0 -1 6.504 290.33)">3.500</text>
    </g>
    <g clip-path="url(#n)">
      <text fill="#595959" font-family="Calibri,sans-serif" font-size="9" transform="matrix(1 0 0 -1 6.504 325.34)">4.000</text>
    </g>
    <g clip-path="url(#o)">
      <text fill="#595959" font-family="Calibri,sans-serif" font-size="9" transform="matrix(1 0 0 -1 6.504 360.34)">4.500</text>
    </g>
    <g clip-path="url(#p)">
      <text fill="#595959" font-family="Calibri,sans-serif" font-size="9" transform="matrix(1 0 0 -1 6.504 395.35)">5.000</text>
    </g>
    <g clip-path="url(#q)">
      <text fill="#595959" font-family="Calibri,sans-serif" font-size="9" transform="matrix(1 0 0 -1 6.504 430.37)">5.500</text>
    </g>
    <g clip-path="url(#r)">
      <text fill="#595959" font-family="Calibri,sans-serif" font-size="9" transform="matrix(1 0 0 -1 6.504 465.36)">6.000</text>
    </g>
    <g clip-path="url(#s)">
      <text fill="#595959" font-family="Calibri,sans-serif" font-size="9" transform="matrix(1 0 0 -1 6.504 500.38)">6.500</text>
    </g>
    <g clip-path="url(#t)">
      <text fill="#595959" font-family="Calibri,sans-serif" font-size="9.96" transform="matrix(1 0 0 -1 32.832 31.992)">0</text>
    </g>
    <g clip-path="url(#u)">
      <text fill="#595959" font-family="Calibri,sans-serif" font-size="9.96" transform="matrix(1 0 0 -1 82.704 31.992)">300.000</text>
    </g>
    <g clip-path="url(#v)">
      <text fill="#595959" font-family="Calibri,sans-serif" font-size="9.96" transform="matrix(1 0 0 -1 146.52 31.992)">600.000</text>
    </g>
    <g clip-path="url(#w)">
      <text fill="#595959" font-family="Calibri,sans-serif" font-size="9.96" transform="matrix(1 0 0 -1 210.36 31.992)">900.000</text>
    </g>
    <g clip-path="url(#x)">
      <text fill="#595959" font-family="Calibri,sans-serif" font-size="9.96" transform="matrix(1 0 0 -1 270.36 31.992)">1.200.000</text>
    </g>
    <g clip-path="url(#y)">
      <text fill="#595959" font-family="Calibri,sans-serif" font-size="9.96" transform="matrix(1 0 0 -1 334.2 31.992)">1.500.000</text>
    </g>
    <g clip-path="url(#z)">
      <text fill="#595959" font-family="Calibri,sans-serif" font-size="9.96" transform="matrix(1 0 0 -1 398.02 31.992)">1.800.000</text>
    </g>
    <g clip-path="url(#A)">
      <text fill="#595959" font-family="Calibri,sans-serif" font-size="9.96" transform="matrix(1 0 0 -1 461.83 31.992)">2.100.000</text>
    </g>
    <g clip-path="url(#B)">
      <text fill="#595959" font-family="Calibri,sans-serif" font-size="9.96" transform="matrix(1 0 0 -1 525.65 31.992)">2.400.000</text>
    </g>
    <g clip-path="url(#C)">
      <text fill="#595959" font-family="Calibri,sans-serif" font-size="9.96" transform="matrix(1 0 0 -1 589.46 31.992)">2.700.000</text>
    </g>
    <g clip-path="url(#D)">
      <text fill="#595959" font-family="Calibri,sans-serif" font-size="9.96" transform="matrix(1 0 0 -1 653.28 31.992)">3.000.000</text>
    </g>
    <g clip-path="url(#E)">
      <text fill="#595959" font-family="Calibri,sans-serif" font-size="9.96" transform="matrix(1 0 0 -1 717.12 31.992)">3.300.000</text>
    </g>
    <g clip-path="url(#F)">
      <text fill="#595959" font-family="Calibri,sans-serif" font-size="9.96" transform="matrix(1 0 0 -1 780.94 31.992)">3.600.000</text>
    </g>
    <g clip-path="url(#G)">
      <text fill="#595959" font-family="Calibri,sans-serif" font-size="9.96" transform="matrix(1 0 0 -1 844.75 31.992)">3.900.000</text>
    </g>
    <g clip-path="url(#H)">
      <text fill="#595959" font-family="Calibri,sans-serif" font-size="9.96" transform="matrix(1 0 0 -1 908.57 31.992)">4.200.000</text>
    </g>
    <g clip-path="url(#I)">
      <text fill="#595959" font-family="Calibri,sans-serif" font-size="14.04" transform="matrix(1 0 0 -1 452.81 519.17)">Bandwith</text>
    </g>
    <path d="m247.62 14.46h19.2" style="fill:none;stroke:#4472c4;stroke-width:1.56;stroke-linecap:round;stroke-linejoin:round;stroke-miterlimit:10"/>
    <path d="m259.68 14.52c0-1.392-1.13-2.52-2.52-2.52s-2.52 1.128-2.52 2.52 1.13 2.52 2.52 2.52 2.52-1.128 2.52-2.52z" fill="#4472c4"/>
    <path d="m259.68 14.52c0-1.392-1.13-2.52-2.52-2.52s-2.52 1.128-2.52 2.52 1.13 2.52 2.52 2.52 2.52-1.128 2.52-2.52z" fill="none" stroke="#4472c4" stroke-linejoin="round" stroke-miterlimit="10" stroke-width=".72"/>
    <g clip-path="url(#J)">
      <text fill="#595959" font-family="Calibri,sans-serif" font-size="9.024" transform="matrix(1 0 0 -1 268.87 11.808)">Same Socket, Different Cores</text>
    </g>
    <path d="m431.82 14.46h19.2" style="fill:none;stroke:#ed7d31;stroke-width:1.56;stroke-linecap:round;stroke-linejoin:round;stroke-miterlimit:10"/>
    <path d="m443.88 14.52c0-1.392-1.13-2.52-2.52-2.52s-2.52 1.128-2.52 2.52 1.13 2.52 2.52 2.52 2.52-1.128 2.52-2.52z" fill="#ed7d31"/>
    <path d="m443.88 14.52c0-1.392-1.13-2.52-2.52-2.52s-2.52 1.128-2.52 2.52 1.13 2.52 2.52 2.52 2.52-1.128 2.52-2.52z" fill="none" stroke="#ed7d31" stroke-linejoin="round" stroke-miterlimit="10" stroke-width=".72"/>
    <g clip-path="url(#K)">
      <text fill="#595959" font-family="Calibri,sans-serif" font-size="9.024" transform="matrix(1 0 0 -1 453.14 11.808)">Same Node, Different Sockets</text>
    </g>
    <path d="m618.66 14.46h19.2" style="fill:none;stroke:#a5a5a5;stroke-width:1.56;stroke-linecap:round;stroke-linejoin:round;stroke-miterlimit:10"/>
    <path d="m630.72 14.52c0-1.392-1.13-2.52-2.52-2.52s-2.52 1.128-2.52 2.52 1.13 2.52 2.52 2.52 2.52-1.128 2.52-2.52z" fill="#a5a5a5"/>
    <path d="m630.72 14.52c0-1.392-1.13-2.52-2.52-2.52s-2.52 1.128-2.52 2.52 1.13 2.52 2.52 2.52 2.52-1.128 2.52-2.52z" fill="none" stroke="#a5a5a5" stroke-linejoin="round" stroke-miterlimit="10" stroke-width=".72"/>
    <g clip-path="url(#L)">
      <text fill="#595959" font-family="Calibri,sans-serif" font-size="9.024" transform="matrix(1 0 0 -1 639.96 11.808)">Different Nodes</text>
    </g>
    <g clip-path="url(#M)">
      <path d="m0 .00006104h960v539.99999896h-960z" fill="none" stroke="#d9d9d9" stroke-linejoin="round" stroke-miterlimit="10" stroke-width=".72"/>
    </g>
  </g>
</svg>
