<?xml version="1.0"?>
<svg xmlns="http://www.w3.org/2000/svg" xmlns:xlink="http://www.w3.org/1999/xlink" viewBox="0 0 1280 720">
  <clipPath id="a">
    <path clip-rule="evenodd" d="m0 .00012207h960v539.99999793h-960z"/>
  </clipPath>
  <clipPath id="b">
    <path clip-rule="evenodd" d="m0 .00012207h960v539.99999793h-960z"/>
  </clipPath>
  <clipPath id="c">
    <path clip-rule="evenodd" d="m35.28 48.48h894.12v454.44h-894.12z"/>
  </clipPath>
  <clipPath id="d">
    <path clip-rule="evenodd" d="m35.28 48.48h894.12v454.44h-894.12z"/>
  </clipPath>
  <clipPath id="e">
    <path clip-rule="evenodd" d="m35.28 48.48h894.12v454.44h-894.12z"/>
  </clipPath>
  <clipPath id="f">
    <path clip-rule="evenodd" d="m.00001431.12h959.99999569v539.88h-959.99999569z"/>
  </clipPath>
  <clipPath id="g">
    <path clip-rule="evenodd" d="m.00001431.12h959.99999569v539.88h-959.99999569z"/>
  </clipPath>
  <clipPath id="h">
    <path clip-rule="evenodd" d="m.00001431.12h959.99999569v539.88h-959.99999569z"/>
  </clipPath>
  <clipPath id="i">
    <path clip-rule="evenodd" d="m.00001431.12h959.99999569v539.88h-959.99999569z"/>
  </clipPath>
  <clipPath id="j">
    <path clip-rule="evenodd" d="m.00001431.12h959.99999569v539.88h-959.99999569z"/>
  </clipPath>
  <clipPath id="k">
    <path clip-rule="evenodd" d="m.00001431.12h959.99999569v539.88h-959.99999569z"/>
  </clipPath>
  <clipPath id="l">
    <path clip-rule="evenodd" d="m.00001431.12h959.99999569v539.88h-959.99999569z"/>
  </clipPath>
  <clipPath id="m">
    <path clip-rule="evenodd" d="m.00001431.12h959.99999569v539.88h-959.99999569z"/>
  </clipPath>
  <clipPath id="n">
    <path clip-rule="evenodd" d="m.00001431.12h959.99999569v539.88h-959.99999569z"/>
  </clipPath>
  <clipPath id="o">
    <path clip-rule="evenodd" d="m.00001431.12h959.99999569v539.88h-959.99999569z"/>
  </clipPath>
  <clipPath id="p">
    <path clip-rule="evenodd" d="m.00001431.12h959.99999569v539.88h-959.99999569z"/>
  </clipPath>
  <clipPath id="q">
    <path clip-rule="evenodd" d="m.00001431.12h959.99999569v539.88h-959.99999569z"/>
  </clipPath>
  <clipPath id="r">
    <path clip-rule="evenodd" d="m.00001431.12h959.99999569v539.88h-959.99999569z"/>
  </clipPath>
  <clipPath id="s">
    <path clip-rule="evenodd" d="m.00001431.12h959.99999569v539.88h-959.99999569z"/>
  </clipPath>
  <clipPath id="t">
    <path clip-rule="evenodd" d="m.00001431.12h959.99999569v539.88h-959.99999569z"/>
  </clipPath>
  <clipPath id="u">
    <path clip-rule="evenodd" d="m.00001431.12h959.99999569v539.88h-959.99999569z"/>
  </clipPath>
  <clipPath id="v">
    <path clip-rule="evenodd" d="m.00001431.12h959.99999569v539.88h-959.99999569z"/>
  </clipPath>
  <clipPath id="w">
    <path clip-rule="evenodd" d="m.00001431.12h959.99999569v539.88h-959.99999569z"/>
  </clipPath>
  <clipPath id="x">
    <path clip-rule="evenodd" d="m.00001431.12h959.99999569v539.88h-959.99999569z"/>
  </clipPath>
  <clipPath id="y">
    <path clip-rule="evenodd" d="m.00001431.12h959.99999569v539.88h-959.99999569z"/>
  </clipPath>
  <clipPath id="z">
    <path clip-rule="evenodd" d="m.00001431.12h959.99999569v539.88h-959.99999569z"/>
  </clipPath>
  <clipPath id="A">
    <path clip-rule="evenodd" d="m.00001431.12h959.99999569v539.88h-959.99999569z"/>
  </clipPath>
  <clipPath id="B">
    <path clip-rule="evenodd" d="m.00001431.12h959.99999569v539.88h-959.99999569z"/>
  </clipPath>
  <clipPath id="C">
    <path clip-rule="evenodd" d="m.00001431.12h959.99999569v539.88h-959.99999569z"/>
  </clipPath>
  <clipPath id="D">
    <path clip-rule="evenodd" d="m.00001431.12h959.99999569v539.88h-959.99999569z"/>
  </clipPath>
  <clipPath id="E">
    <path clip-rule="evenodd" d="m.00001431.12h959.99999569v539.88h-959.99999569z"/>
  </clipPath>
  <clipPath id="F">
    <path clip-rule="evenodd" d="m.00001431.12h959.99999569v539.88h-959.99999569z"/>
  </clipPath>
  <clipPath id="G">
    <path clip-rule="evenodd" d="m.00001431.12h959.99999569v539.88h-959.99999569z"/>
  </clipPath>
  <clipPath id="H">
    <path clip-rule="evenodd" d="m.00001431.12h959.99999569v539.88h-959.99999569z"/>
  </clipPath>
  <clipPath id="I">
    <path clip-rule="evenodd" d="m.00001431.12h959.99999569v539.88h-959.99999569z"/>
  </clipPath>
  <clipPath id="J">
    <path clip-rule="evenodd" d="m.00001431.12h959.99999569v539.88h-959.99999569z"/>
  </clipPath>
  <clipPath id="K">
    <path clip-rule="evenodd" d="m.00001431.12h959.99999569v539.88h-959.99999569z"/>
  </clipPath>
  <clipPath id="L">
    <path clip-rule="evenodd" d="m.00001431.12h959.99999569v539.88h-959.99999569z"/>
  </clipPath>
  <clipPath id="M">
    <path clip-rule="evenodd" d="m.00001431.12h959.99999569v539.88h-959.99999569z"/>
  </clipPath>
  <clipPath id="N">
    <path clip-rule="evenodd" d="m.00001431.12h959.99999569v539.88h-959.99999569z"/>
  </clipPath>
  <clipPath id="O">
    <path clip-rule="evenodd" d="m0 .00012207h960v539.99999793h-960z"/>
  </clipPath>
  <g transform="matrix(1.3333333 0 0 -1.3333333 0 720)">
    <g clip-path="url(#a)">
      <path d="m0 .00006104h960v539.99999896h-960z" fill="#fff" fill-rule="evenodd"/>
    </g>
    <g clip-path="url(#b)">
      <path d="m0 .00006104h960v539.99999896h-960z" fill="#f2f2f2" fill-rule="evenodd"/>
    </g>
    <g fill="none" stroke-linejoin="round" stroke-miterlimit="10" stroke-width=".72">
      <path d="m35.4 79.44h893.28m-893.28 30.24h893.28m-893.28 30.24h893.28m-893.28 30.24h893.28m-893.28 30.24h893.28m-893.28 30.24h893.28m-893.28 30.24h893.28m-893.28 30.24h893.28m-893.28 30.24h893.28m-893.28 30.24h893.28m-893.28 30.36h893.28m-893.28 30.24h893.28m-893.28 30.24h893.28m-893.28 30.24h893.28m-893.28 30.24h893.28" stroke="#d9d9d9"/>
      <path d="m97.68 502.92v-453.84m62.28 453.84v-453.84m62.4 453.84v-453.84m62.28 453.84v-453.84m62.4 453.84v-453.84m62.28 453.84v-453.84m62.28 453.84v-453.84m62.4 453.84v-453.84m62.28 453.84v-453.84m62.4 453.84v-453.84m62.28 453.84v-453.84m62.28 453.84v-453.84m62.4 453.84v-453.84m62.28 453.84v-453.84" stroke="#d9d9d9"/>
      <g stroke="#bfbfbf">
        <path d="m35.4 49.08v453.84"/>
        <path d="m35.4 49.08h893.28"/>
      </g>
    </g>
    <g clip-path="url(#c)">
      <path d="m35.34 49.14v.12h.12.12l.24.12.36.36.84.12 1.8.24 3.36.48 6.84.72 13.56 1.56 27.24 3.24 54.48 6.36 108.96 13.44 217.8 167.52 435.72 242.76" style="fill:none;stroke:#4472c4;stroke-width:1.56;stroke-linecap:round;stroke-linejoin:round;stroke-miterlimit:10"/>
    </g>
    <path d="m37.92 49.2c0-1.392-1.128-2.52-2.52-2.52s-2.52 1.128-2.52 2.52 1.128 2.52 2.52 2.52 2.52-1.128 2.52-2.52z" fill="#4472c4"/>
    <path d="m37.92 49.2c0-1.392-1.128-2.52-2.52-2.52s-2.52 1.128-2.52 2.52 1.128 2.52 2.52 2.52 2.52-1.128 2.52-2.52z" fill="none" stroke="#4472c4" stroke-linejoin="round" stroke-miterlimit="10" stroke-width=".72"/>
    <path d="m37.92 49.2c0-1.392-1.128-2.52-2.52-2.52s-2.52 1.128-2.52 2.52 1.128 2.52 2.52 2.52 2.52-1.128 2.52-2.52z" fill="#4472c4"/>
    <path d="m37.92 49.2c0-1.392-1.128-2.52-2.52-2.52s-2.52 1.128-2.52 2.52 1.128 2.52 2.52 2.52 2.52-1.128 2.52-2.52z" fill="none" stroke="#4472c4" stroke-linejoin="round" stroke-miterlimit="10" stroke-width=".72"/>
    <path d="m37.92 49.2c0-1.392-1.128-2.52-2.52-2.52s-2.52 1.128-2.52 2.52 1.128 2.52 2.52 2.52 2.52-1.128 2.52-2.52z" fill="#4472c4"/>
    <path d="m37.92 49.2c0-1.392-1.128-2.52-2.52-2.52s-2.52 1.128-2.52 2.52 1.128 2.52 2.52 2.52 2.52-1.128 2.52-2.52z" fill="none" stroke="#4472c4" stroke-linejoin="round" stroke-miterlimit="10" stroke-width=".72"/>
    <path d="m37.92 49.2c0-1.392-1.128-2.52-2.52-2.52s-2.52 1.128-2.52 2.52 1.128 2.52 2.52 2.52 2.52-1.128 2.52-2.52z" fill="#4472c4"/>
    <path d="m37.92 49.2c0-1.392-1.128-2.52-2.52-2.52s-2.52 1.128-2.52 2.52 1.128 2.52 2.52 2.52 2.52-1.128 2.52-2.52z" fill="none" stroke="#4472c4" stroke-linejoin="round" stroke-miterlimit="10" stroke-width=".72"/>
    <path d="m37.92 49.2c0-1.392-1.128-2.52-2.52-2.52s-2.52 1.128-2.52 2.52 1.128 2.52 2.52 2.52 2.52-1.128 2.52-2.52z" fill="#4472c4"/>
    <path d="m37.92 49.2c0-1.392-1.128-2.52-2.52-2.52s-2.52 1.128-2.52 2.52 1.128 2.52 2.52 2.52 2.52-1.128 2.52-2.52z" fill="none" stroke="#4472c4" stroke-linejoin="round" stroke-miterlimit="10" stroke-width=".72"/>
    <path d="m37.92 49.2c0-1.392-1.128-2.52-2.52-2.52s-2.52 1.128-2.52 2.52 1.128 2.52 2.52 2.52 2.52-1.128 2.52-2.52z" fill="#4472c4"/>
    <path d="m37.92 49.2c0-1.392-1.128-2.52-2.52-2.52s-2.52 1.128-2.52 2.52 1.128 2.52 2.52 2.52 2.52-1.128 2.52-2.52z" fill="none" stroke="#4472c4" stroke-linejoin="round" stroke-miterlimit="10" stroke-width=".72"/>
    <path d="m37.92 49.2c0-1.392-1.128-2.52-2.52-2.52s-2.52 1.128-2.52 2.52 1.128 2.52 2.52 2.52 2.52-1.128 2.52-2.52z" fill="#4472c4"/>
    <path d="m37.92 49.2c0-1.392-1.128-2.52-2.52-2.52s-2.52 1.128-2.52 2.52 1.128 2.52 2.52 2.52 2.52-1.128 2.52-2.52z" fill="none" stroke="#4472c4" stroke-linejoin="round" stroke-miterlimit="10" stroke-width=".72"/>
    <path d="m37.92 49.2c0-1.392-1.128-2.52-2.52-2.52s-2.52 1.128-2.52 2.52 1.128 2.52 2.52 2.52 2.52-1.128 2.52-2.52z" fill="#4472c4"/>
    <path d="m37.92 49.2c0-1.392-1.128-2.52-2.52-2.52s-2.52 1.128-2.52 2.52 1.128 2.52 2.52 2.52 2.52-1.128 2.52-2.52z" fill="none" stroke="#4472c4" stroke-linejoin="round" stroke-miterlimit="10" stroke-width=".72"/>
    <path d="m37.92 49.2c0-1.392-1.128-2.52-2.52-2.52s-2.52 1.128-2.52 2.52 1.128 2.52 2.52 2.52 2.52-1.128 2.52-2.52z" fill="#4472c4"/>
    <path d="m37.92 49.2c0-1.392-1.128-2.52-2.52-2.52s-2.52 1.128-2.52 2.52 1.128 2.52 2.52 2.52 2.52-1.128 2.52-2.52z" fill="none" stroke="#4472c4" stroke-linejoin="round" stroke-miterlimit="10" stroke-width=".72"/>
    <path d="m37.92 49.2c0-1.392-1.128-2.52-2.52-2.52s-2.52 1.128-2.52 2.52 1.128 2.52 2.52 2.52 2.52-1.128 2.52-2.52z" fill="#4472c4"/>
    <path d="m37.92 49.2c0-1.392-1.128-2.52-2.52-2.52s-2.52 1.128-2.52 2.52 1.128 2.52 2.52 2.52 2.52-1.128 2.52-2.52z" fill="none" stroke="#4472c4" stroke-linejoin="round" stroke-miterlimit="10" stroke-width=".72"/>
    <path d="m38.04 49.32c0-1.392-1.128-2.52-2.52-2.52s-2.52 1.128-2.52 2.52 1.128 2.52 2.52 2.52 2.52-1.128 2.52-2.52z" fill="#4472c4"/>
    <path d="m38.04 49.32c0-1.392-1.128-2.52-2.52-2.52s-2.52 1.128-2.52 2.52 1.128 2.52 2.52 2.52 2.52-1.128 2.52-2.52z" fill="none" stroke="#4472c4" stroke-linejoin="round" stroke-miterlimit="10" stroke-width=".72"/>
    <path d="m38.04 49.32c0-1.392-1.128-2.52-2.52-2.52s-2.52 1.128-2.52 2.52 1.128 2.52 2.52 2.52 2.52-1.128 2.52-2.52z" fill="#4472c4"/>
    <path d="m38.04 49.32c0-1.392-1.128-2.52-2.52-2.52s-2.52 1.128-2.52 2.52 1.128 2.52 2.52 2.52 2.52-1.128 2.52-2.52z" fill="none" stroke="#4472c4" stroke-linejoin="round" stroke-miterlimit="10" stroke-width=".72"/>
    <path d="m38.28 49.32c0-1.392-1.128-2.52-2.52-2.52s-2.52 1.128-2.52 2.52 1.128 2.52 2.52 2.52 2.52-1.128 2.52-2.52z" fill="#4472c4"/>
    <path d="m38.28 49.32c0-1.392-1.128-2.52-2.52-2.52s-2.52 1.128-2.52 2.52 1.128 2.52 2.52 2.52 2.52-1.128 2.52-2.52z" fill="none" stroke="#4472c4" stroke-linejoin="round" stroke-miterlimit="10" stroke-width=".72"/>
    <path d="m38.76 49.68c0-1.392-1.128-2.52-2.52-2.52s-2.52 1.128-2.52 2.52 1.128 2.52 2.52 2.52 2.52-1.128 2.52-2.52z" fill="#4472c4"/>
    <path d="m38.76 49.68c0-1.392-1.128-2.52-2.52-2.52s-2.52 1.128-2.52 2.52 1.128 2.52 2.52 2.52 2.52-1.128 2.52-2.52z" fill="none" stroke="#4472c4" stroke-linejoin="round" stroke-miterlimit="10" stroke-width=".72"/>
    <path d="m39.6 49.92c0-1.392-1.128-2.52-2.52-2.52s-2.52 1.128-2.52 2.52 1.128 2.52 2.52 2.52 2.52-1.128 2.52-2.52z" fill="#4472c4"/>
    <path d="m39.6 49.92c0-1.392-1.128-2.52-2.52-2.52s-2.52 1.128-2.52 2.52 1.128 2.52 2.52 2.52 2.52-1.128 2.52-2.52z" fill="none" stroke="#4472c4" stroke-linejoin="round" stroke-miterlimit="10" stroke-width=".72"/>
    <path d="m41.28 50.16c0-1.392-1.128-2.52-2.52-2.52s-2.52 1.128-2.52 2.52 1.128 2.52 2.52 2.52 2.52-1.128 2.52-2.52z" fill="#4472c4"/>
    <path d="m41.28 50.16c0-1.392-1.128-2.52-2.52-2.52s-2.52 1.128-2.52 2.52 1.128 2.52 2.52 2.52 2.52-1.128 2.52-2.52z" fill="none" stroke="#4472c4" stroke-linejoin="round" stroke-miterlimit="10" stroke-width=".72"/>
    <path d="m44.64 50.52c0-1.392-1.128-2.52-2.52-2.52s-2.52 1.128-2.52 2.52 1.128 2.52 2.52 2.52 2.52-1.128 2.52-2.52z" fill="#4472c4"/>
    <path d="m44.64 50.52c0-1.392-1.128-2.52-2.52-2.52s-2.52 1.128-2.52 2.52 1.128 2.52 2.52 2.52 2.52-1.128 2.52-2.52z" fill="none" stroke="#4472c4" stroke-linejoin="round" stroke-miterlimit="10" stroke-width=".72"/>
    <path d="m51.48 51.36c0-1.392-1.128-2.52-2.52-2.52s-2.52 1.128-2.52 2.52 1.128 2.52 2.52 2.52 2.52-1.128 2.52-2.52z" fill="#4472c4"/>
    <path d="m51.48 51.36c0-1.392-1.128-2.52-2.52-2.52s-2.52 1.128-2.52 2.52 1.128 2.52 2.52 2.52 2.52-1.128 2.52-2.52z" fill="none" stroke="#4472c4" stroke-linejoin="round" stroke-miterlimit="10" stroke-width=".72"/>
    <path d="m65.16 52.92c0-1.392-1.128-2.52-2.52-2.52s-2.52 1.128-2.52 2.52 1.128 2.52 2.52 2.52 2.52-1.128 2.52-2.52z" fill="#4472c4"/>
    <path d="m65.16 52.92c0-1.392-1.128-2.52-2.52-2.52s-2.52 1.128-2.52 2.52 1.128 2.52 2.52 2.52 2.52-1.128 2.52-2.52z" fill="none" stroke="#4472c4" stroke-linejoin="round" stroke-miterlimit="10" stroke-width=".72"/>
    <path d="m92.4 56.04c0-1.392-1.128-2.52-2.52-2.52s-2.52 1.128-2.52 2.52 1.128 2.52 2.52 2.52 2.52-1.128 2.52-2.52z" fill="#4472c4"/>
    <path d="m92.4 56.04c0-1.392-1.128-2.52-2.52-2.52s-2.52 1.128-2.52 2.52 1.128 2.52 2.52 2.52 2.52-1.128 2.52-2.52z" fill="none" stroke="#4472c4" stroke-linejoin="round" stroke-miterlimit="10" stroke-width=".72"/>
    <path d="m146.76 62.52c0-1.392-1.13-2.52-2.52-2.52s-2.52 1.128-2.52 2.52 1.13 2.52 2.52 2.52 2.52-1.128 2.52-2.52z" fill="#4472c4"/>
    <path d="m146.76 62.52c0-1.392-1.13-2.52-2.52-2.52s-2.52 1.128-2.52 2.52 1.13 2.52 2.52 2.52 2.52-1.128 2.52-2.52z" fill="none" stroke="#4472c4" stroke-linejoin="round" stroke-miterlimit="10" stroke-width=".72"/>
    <path d="m255.72 75.96c0-1.392-1.13-2.52-2.52-2.52s-2.52 1.128-2.52 2.52 1.13 2.52 2.52 2.52 2.52-1.128 2.52-2.52z" fill="#4472c4"/>
    <path d="m255.72 75.96c0-1.392-1.13-2.52-2.52-2.52s-2.52 1.128-2.52 2.52 1.13 2.52 2.52 2.52 2.52-1.128 2.52-2.52z" fill="none" stroke="#4472c4" stroke-linejoin="round" stroke-miterlimit="10" stroke-width=".72"/>
    <path d="m473.64 243.36c0-1.39-1.13-2.52-2.52-2.52s-2.52 1.13-2.52 2.52 1.13 2.52 2.52 2.52 2.52-1.13 2.52-2.52z" fill="#4472c4"/>
    <path d="m473.64 243.36c0-1.39-1.13-2.52-2.52-2.52s-2.52 1.13-2.52 2.52 1.13 2.52 2.52 2.52 2.52-1.13 2.52-2.52z" fill="none" stroke="#4472c4" stroke-linejoin="round" stroke-miterlimit="10" stroke-width=".72"/>
    <path d="m909.24 486.24c0-1.39-1.13-2.52-2.52-2.52s-2.52 1.13-2.52 2.52 1.13 2.52 2.52 2.52 2.52-1.13 2.52-2.52z" fill="#4472c4"/>
    <path d="m909.24 486.24c0-1.39-1.13-2.52-2.52-2.52s-2.52 1.13-2.52 2.52 1.13 2.52 2.52 2.52 2.52-1.13 2.52-2.52z" fill="none" stroke="#4472c4" stroke-linejoin="round" stroke-miterlimit="10" stroke-width=".72"/>
    <g clip-path="url(#d)">
      <path d="m35.34 49.26h.12.12l.24.12.36.36.84.12 1.8.24 3.36.48 6.84.72 13.56 1.68 27.24 3.12 54.48 6.6 108.96 14.4 217.8 168.24 435.72 242.16" style="fill:none;stroke:#ed7d31;stroke-width:1.56;stroke-linecap:round;stroke-linejoin:round;stroke-miterlimit:10"/>
    </g>
    <path d="m37.92 49.2c0-1.392-1.128-2.52-2.52-2.52s-2.52 1.128-2.52 2.52 1.128 2.52 2.52 2.52 2.52-1.128 2.52-2.52z" fill="#ed7d31"/>
    <path d="m37.92 49.2c0-1.392-1.128-2.52-2.52-2.52s-2.52 1.128-2.52 2.52 1.128 2.52 2.52 2.52 2.52-1.128 2.52-2.52z" fill="none" stroke="#ed7d31" stroke-linejoin="round" stroke-miterlimit="10" stroke-width=".72"/>
    <path d="m37.92 49.2c0-1.392-1.128-2.52-2.52-2.52s-2.52 1.128-2.52 2.52 1.128 2.52 2.52 2.52 2.52-1.128 2.52-2.52z" fill="#ed7d31"/>
    <path d="m37.92 49.2c0-1.392-1.128-2.52-2.52-2.52s-2.52 1.128-2.52 2.52 1.128 2.52 2.52 2.52 2.52-1.128 2.52-2.52z" fill="none" stroke="#ed7d31" stroke-linejoin="round" stroke-miterlimit="10" stroke-width=".72"/>
    <path d="m37.92 49.2c0-1.392-1.128-2.52-2.52-2.52s-2.52 1.128-2.52 2.52 1.128 2.52 2.52 2.52 2.52-1.128 2.52-2.52z" fill="#ed7d31"/>
    <path d="m37.92 49.2c0-1.392-1.128-2.52-2.52-2.52s-2.52 1.128-2.52 2.52 1.128 2.52 2.52 2.52 2.52-1.128 2.52-2.52z" fill="none" stroke="#ed7d31" stroke-linejoin="round" stroke-miterlimit="10" stroke-width=".72"/>
    <path d="m37.92 49.2c0-1.392-1.128-2.52-2.52-2.52s-2.52 1.128-2.52 2.52 1.128 2.52 2.52 2.52 2.52-1.128 2.52-2.52z" fill="#ed7d31"/>
    <path d="m37.92 49.2c0-1.392-1.128-2.52-2.52-2.52s-2.52 1.128-2.52 2.52 1.128 2.52 2.52 2.52 2.52-1.128 2.52-2.52z" fill="none" stroke="#ed7d31" stroke-linejoin="round" stroke-miterlimit="10" stroke-width=".72"/>
    <path d="m37.92 49.2c0-1.392-1.128-2.52-2.52-2.52s-2.52 1.128-2.52 2.52 1.128 2.52 2.52 2.52 2.52-1.128 2.52-2.52z" fill="#ed7d31"/>
    <path d="m37.92 49.2c0-1.392-1.128-2.52-2.52-2.52s-2.52 1.128-2.52 2.52 1.128 2.52 2.52 2.52 2.52-1.128 2.52-2.52z" fill="none" stroke="#ed7d31" stroke-linejoin="round" stroke-miterlimit="10" stroke-width=".72"/>
    <path d="m37.92 49.2c0-1.392-1.128-2.52-2.52-2.52s-2.52 1.128-2.52 2.52 1.128 2.52 2.52 2.52 2.52-1.128 2.52-2.52z" fill="#ed7d31"/>
    <path d="m37.92 49.2c0-1.392-1.128-2.52-2.52-2.52s-2.52 1.128-2.52 2.52 1.128 2.52 2.52 2.52 2.52-1.128 2.52-2.52z" fill="none" stroke="#ed7d31" stroke-linejoin="round" stroke-miterlimit="10" stroke-width=".72"/>
    <path d="m37.92 49.2c0-1.392-1.128-2.52-2.52-2.52s-2.52 1.128-2.52 2.52 1.128 2.52 2.52 2.52 2.52-1.128 2.52-2.52z" fill="#ed7d31"/>
    <path d="m37.92 49.2c0-1.392-1.128-2.52-2.52-2.52s-2.52 1.128-2.52 2.52 1.128 2.52 2.52 2.52 2.52-1.128 2.52-2.52z" fill="none" stroke="#ed7d31" stroke-linejoin="round" stroke-miterlimit="10" stroke-width=".72"/>
    <path d="m37.92 49.2c0-1.392-1.128-2.52-2.52-2.52s-2.52 1.128-2.52 2.52 1.128 2.52 2.52 2.52 2.52-1.128 2.52-2.52z" fill="#ed7d31"/>
    <path d="m37.92 49.2c0-1.392-1.128-2.52-2.52-2.52s-2.52 1.128-2.52 2.52 1.128 2.52 2.52 2.52 2.52-1.128 2.52-2.52z" fill="none" stroke="#ed7d31" stroke-linejoin="round" stroke-miterlimit="10" stroke-width=".72"/>
    <path d="m37.92 49.2c0-1.392-1.128-2.52-2.52-2.52s-2.52 1.128-2.52 2.52 1.128 2.52 2.52 2.52 2.52-1.128 2.52-2.52z" fill="#ed7d31"/>
    <path d="m37.92 49.2c0-1.392-1.128-2.52-2.52-2.52s-2.52 1.128-2.52 2.52 1.128 2.52 2.52 2.52 2.52-1.128 2.52-2.52z" fill="none" stroke="#ed7d31" stroke-linejoin="round" stroke-miterlimit="10" stroke-width=".72"/>
    <path d="m37.92 49.2c0-1.392-1.128-2.52-2.52-2.52s-2.52 1.128-2.52 2.52 1.128 2.52 2.52 2.52 2.52-1.128 2.52-2.52z" fill="#ed7d31"/>
    <path d="m37.92 49.2c0-1.392-1.128-2.52-2.52-2.52s-2.52 1.128-2.52 2.52 1.128 2.52 2.52 2.52 2.52-1.128 2.52-2.52z" fill="none" stroke="#ed7d31" stroke-linejoin="round" stroke-miterlimit="10" stroke-width=".72"/>
    <path d="m38.04 49.32c0-1.392-1.128-2.52-2.52-2.52s-2.52 1.128-2.52 2.52 1.128 2.52 2.52 2.52 2.52-1.128 2.52-2.52z" fill="#ed7d31"/>
    <path d="m38.04 49.32c0-1.392-1.128-2.52-2.52-2.52s-2.52 1.128-2.52 2.52 1.128 2.52 2.52 2.52 2.52-1.128 2.52-2.52z" fill="none" stroke="#ed7d31" stroke-linejoin="round" stroke-miterlimit="10" stroke-width=".72"/>
    <path d="m38.04 49.32c0-1.392-1.128-2.52-2.52-2.52s-2.52 1.128-2.52 2.52 1.128 2.52 2.52 2.52 2.52-1.128 2.52-2.52z" fill="#ed7d31"/>
    <path d="m38.04 49.32c0-1.392-1.128-2.52-2.52-2.52s-2.52 1.128-2.52 2.52 1.128 2.52 2.52 2.52 2.52-1.128 2.52-2.52z" fill="none" stroke="#ed7d31" stroke-linejoin="round" stroke-miterlimit="10" stroke-width=".72"/>
    <path d="m38.28 49.32c0-1.392-1.128-2.52-2.52-2.52s-2.52 1.128-2.52 2.52 1.128 2.52 2.52 2.52 2.52-1.128 2.52-2.52z" fill="#ed7d31"/>
    <path d="m38.28 49.32c0-1.392-1.128-2.52-2.52-2.52s-2.52 1.128-2.52 2.52 1.128 2.52 2.52 2.52 2.52-1.128 2.52-2.52z" fill="none" stroke="#ed7d31" stroke-linejoin="round" stroke-miterlimit="10" stroke-width=".72"/>
    <path d="m38.76 49.68c0-1.392-1.128-2.52-2.52-2.52s-2.52 1.128-2.52 2.52 1.128 2.52 2.52 2.52 2.52-1.128 2.52-2.52z" fill="#ed7d31"/>
    <path d="m38.76 49.68c0-1.392-1.128-2.52-2.52-2.52s-2.52 1.128-2.52 2.52 1.128 2.52 2.52 2.52 2.52-1.128 2.52-2.52z" fill="none" stroke="#ed7d31" stroke-linejoin="round" stroke-miterlimit="10" stroke-width=".72"/>
    <path d="m39.6 49.92c0-1.392-1.128-2.52-2.52-2.52s-2.52 1.128-2.52 2.52 1.128 2.52 2.52 2.52 2.52-1.128 2.52-2.52z" fill="#ed7d31"/>
    <path d="m39.6 49.92c0-1.392-1.128-2.52-2.52-2.52s-2.52 1.128-2.52 2.52 1.128 2.52 2.52 2.52 2.52-1.128 2.52-2.52z" fill="none" stroke="#ed7d31" stroke-linejoin="round" stroke-miterlimit="10" stroke-width=".72"/>
    <path d="m41.28 50.16c0-1.392-1.128-2.52-2.52-2.52s-2.52 1.128-2.52 2.52 1.128 2.52 2.52 2.52 2.52-1.128 2.52-2.52z" fill="#ed7d31"/>
    <path d="m41.28 50.16c0-1.392-1.128-2.52-2.52-2.52s-2.52 1.128-2.52 2.52 1.128 2.52 2.52 2.52 2.52-1.128 2.52-2.52z" fill="none" stroke="#ed7d31" stroke-linejoin="round" stroke-miterlimit="10" stroke-width=".72"/>
    <path d="m44.64 50.52c0-1.392-1.128-2.52-2.52-2.52s-2.52 1.128-2.52 2.52 1.128 2.52 2.52 2.52 2.52-1.128 2.52-2.52z" fill="#ed7d31"/>
    <path d="m44.64 50.52c0-1.392-1.128-2.52-2.52-2.52s-2.52 1.128-2.52 2.52 1.128 2.52 2.52 2.52 2.52-1.128 2.52-2.52z" fill="none" stroke="#ed7d31" stroke-linejoin="round" stroke-miterlimit="10" stroke-width=".72"/>
    <path d="m51.48 51.36c0-1.392-1.128-2.52-2.52-2.52s-2.52 1.128-2.52 2.52 1.128 2.52 2.52 2.52 2.52-1.128 2.52-2.52z" fill="#ed7d31"/>
    <path d="m51.48 51.36c0-1.392-1.128-2.52-2.52-2.52s-2.52 1.128-2.52 2.52 1.128 2.52 2.52 2.52 2.52-1.128 2.52-2.52z" fill="none" stroke="#ed7d31" stroke-linejoin="round" stroke-miterlimit="10" stroke-width=".72"/>
    <path d="m65.16 52.92c0-1.392-1.128-2.52-2.52-2.52s-2.52 1.128-2.52 2.52 1.128 2.52 2.52 2.52 2.52-1.128 2.52-2.52z" fill="#ed7d31"/>
    <path d="m65.16 52.92c0-1.392-1.128-2.52-2.52-2.52s-2.52 1.128-2.52 2.52 1.128 2.52 2.52 2.52 2.52-1.128 2.52-2.52z" fill="none" stroke="#ed7d31" stroke-linejoin="round" stroke-miterlimit="10" stroke-width=".72"/>
    <path d="m92.4 56.16c0-1.392-1.128-2.52-2.52-2.52s-2.52 1.128-2.52 2.52 1.128 2.52 2.52 2.52 2.52-1.128 2.52-2.52z" fill="#ed7d31"/>
    <path d="m92.4 56.16c0-1.392-1.128-2.52-2.52-2.52s-2.52 1.128-2.52 2.52 1.128 2.52 2.52 2.52 2.52-1.128 2.52-2.52z" fill="none" stroke="#ed7d31" stroke-linejoin="round" stroke-miterlimit="10" stroke-width=".72"/>
    <path d="m146.76 62.76c0-1.392-1.13-2.52-2.52-2.52s-2.52 1.128-2.52 2.52 1.13 2.52 2.52 2.52 2.52-1.128 2.52-2.52z" fill="#ed7d31"/>
    <path d="m146.76 62.76c0-1.392-1.13-2.52-2.52-2.52s-2.52 1.128-2.52 2.52 1.13 2.52 2.52 2.52 2.52-1.128 2.52-2.52z" fill="none" stroke="#ed7d31" stroke-linejoin="round" stroke-miterlimit="10" stroke-width=".72"/>
    <path d="m255.72 77.16c0-1.392-1.13-2.52-2.52-2.52s-2.52 1.128-2.52 2.52 1.13 2.52 2.52 2.52 2.52-1.128 2.52-2.52z" fill="#ed7d31"/>
    <path d="m255.72 77.16c0-1.392-1.13-2.52-2.52-2.52s-2.52 1.128-2.52 2.52 1.13 2.52 2.52 2.52 2.52-1.128 2.52-2.52z" fill="none" stroke="#ed7d31" stroke-linejoin="round" stroke-miterlimit="10" stroke-width=".72"/>
    <path d="m473.64 245.28c0-1.39-1.13-2.52-2.52-2.52s-2.52 1.13-2.52 2.52 1.13 2.52 2.52 2.52 2.52-1.13 2.52-2.52z" fill="#ed7d31"/>
    <path d="m473.64 245.28c0-1.39-1.13-2.52-2.52-2.52s-2.52 1.13-2.52 2.52 1.13 2.52 2.52 2.52 2.52-1.13 2.52-2.52z" fill="none" stroke="#ed7d31" stroke-linejoin="round" stroke-miterlimit="10" stroke-width=".72"/>
    <path d="m909.24 487.56c0-1.39-1.13-2.52-2.52-2.52s-2.52 1.13-2.52 2.52 1.13 2.52 2.52 2.52 2.52-1.13 2.52-2.52z" fill="#ed7d31"/>
    <path d="m909.24 487.56c0-1.39-1.13-2.52-2.52-2.52s-2.52 1.13-2.52 2.52 1.13 2.52 2.52 2.52 2.52-1.13 2.52-2.52z" fill="none" stroke="#ed7d31" stroke-linejoin="round" stroke-miterlimit="10" stroke-width=".72"/>
    <g clip-path="url(#e)">
      <path d="m35.34 49.62v.12.12l.12.12v.12l.12.12.24.48.36.36.84.84 1.8 1.2 3.36 1.56 6.84 3.24 13.56 6.48 27.24 13.08 54.48 25.8 108.96 51.6 217.8 102.96 435.72 205.68" style="fill:none;stroke:#a5a5a5;stroke-width:1.56;stroke-linecap:round;stroke-linejoin:round;stroke-miterlimit:10"/>
    </g>
    <path d="m37.92 49.68c0-1.392-1.128-2.52-2.52-2.52s-2.52 1.128-2.52 2.52 1.128 2.52 2.52 2.52 2.52-1.128 2.52-2.52z" fill="#a5a5a5"/>
    <path d="m37.92 49.68c0-1.392-1.128-2.52-2.52-2.52s-2.52 1.128-2.52 2.52 1.128 2.52 2.52 2.52 2.52-1.128 2.52-2.52z" fill="none" stroke="#a5a5a5" stroke-linejoin="round" stroke-miterlimit="10" stroke-width=".72"/>
    <path d="m37.92 49.68c0-1.392-1.128-2.52-2.52-2.52s-2.52 1.128-2.52 2.52 1.128 2.52 2.52 2.52 2.52-1.128 2.52-2.52z" fill="#a5a5a5"/>
    <path d="m37.92 49.68c0-1.392-1.128-2.52-2.52-2.52s-2.52 1.128-2.52 2.52 1.128 2.52 2.52 2.52 2.52-1.128 2.52-2.52z" fill="none" stroke="#a5a5a5" stroke-linejoin="round" stroke-miterlimit="10" stroke-width=".72"/>
    <path d="m37.92 49.68c0-1.392-1.128-2.52-2.52-2.52s-2.52 1.128-2.52 2.52 1.128 2.52 2.52 2.52 2.52-1.128 2.52-2.52z" fill="#a5a5a5"/>
    <path d="m37.92 49.68c0-1.392-1.128-2.52-2.52-2.52s-2.52 1.128-2.52 2.52 1.128 2.52 2.52 2.52 2.52-1.128 2.52-2.52z" fill="none" stroke="#a5a5a5" stroke-linejoin="round" stroke-miterlimit="10" stroke-width=".72"/>
    <path d="m37.92 49.68c0-1.392-1.128-2.52-2.52-2.52s-2.52 1.128-2.52 2.52 1.128 2.52 2.52 2.52 2.52-1.128 2.52-2.52z" fill="#a5a5a5"/>
    <path d="m37.92 49.68c0-1.392-1.128-2.52-2.52-2.52s-2.52 1.128-2.52 2.52 1.128 2.52 2.52 2.52 2.52-1.128 2.52-2.52z" fill="none" stroke="#a5a5a5" stroke-linejoin="round" stroke-miterlimit="10" stroke-width=".72"/>
    <path d="m37.92 49.68c0-1.392-1.128-2.52-2.52-2.52s-2.52 1.128-2.52 2.52 1.128 2.52 2.52 2.52 2.52-1.128 2.52-2.52z" fill="#a5a5a5"/>
    <path d="m37.92 49.68c0-1.392-1.128-2.52-2.52-2.52s-2.52 1.128-2.52 2.52 1.128 2.52 2.52 2.52 2.52-1.128 2.52-2.52z" fill="none" stroke="#a5a5a5" stroke-linejoin="round" stroke-miterlimit="10" stroke-width=".72"/>
    <path d="m37.92 49.68c0-1.392-1.128-2.52-2.52-2.52s-2.52 1.128-2.52 2.52 1.128 2.52 2.52 2.52 2.52-1.128 2.52-2.52z" fill="#a5a5a5"/>
    <path d="m37.92 49.68c0-1.392-1.128-2.52-2.52-2.52s-2.52 1.128-2.52 2.52 1.128 2.52 2.52 2.52 2.52-1.128 2.52-2.52z" fill="none" stroke="#a5a5a5" stroke-linejoin="round" stroke-miterlimit="10" stroke-width=".72"/>
    <path d="m37.92 49.68c0-1.392-1.128-2.52-2.52-2.52s-2.52 1.128-2.52 2.52 1.128 2.52 2.52 2.52 2.52-1.128 2.52-2.52z" fill="#a5a5a5"/>
    <path d="m37.92 49.68c0-1.392-1.128-2.52-2.52-2.52s-2.52 1.128-2.52 2.52 1.128 2.52 2.52 2.52 2.52-1.128 2.52-2.52z" fill="none" stroke="#a5a5a5" stroke-linejoin="round" stroke-miterlimit="10" stroke-width=".72"/>
    <path d="m37.92 49.68c0-1.392-1.128-2.52-2.52-2.52s-2.52 1.128-2.52 2.52 1.128 2.52 2.52 2.52 2.52-1.128 2.52-2.52z" fill="#a5a5a5"/>
    <path d="m37.92 49.68c0-1.392-1.128-2.52-2.52-2.52s-2.52 1.128-2.52 2.52 1.128 2.52 2.52 2.52 2.52-1.128 2.52-2.52z" fill="none" stroke="#a5a5a5" stroke-linejoin="round" stroke-miterlimit="10" stroke-width=".72"/>
    <path d="m37.92 49.92c0-1.392-1.128-2.52-2.52-2.52s-2.52 1.128-2.52 2.52 1.128 2.52 2.52 2.52 2.52-1.128 2.52-2.52z" fill="#a5a5a5"/>
    <path d="m37.92 49.92c0-1.392-1.128-2.52-2.52-2.52s-2.52 1.128-2.52 2.52 1.128 2.52 2.52 2.52 2.52-1.128 2.52-2.52z" fill="none" stroke="#a5a5a5" stroke-linejoin="round" stroke-miterlimit="10" stroke-width=".72"/>
    <path d="m37.92 49.92c0-1.392-1.128-2.52-2.52-2.52s-2.52 1.128-2.52 2.52 1.128 2.52 2.52 2.52 2.52-1.128 2.52-2.52z" fill="#a5a5a5"/>
    <path d="m37.92 49.92c0-1.392-1.128-2.52-2.52-2.52s-2.52 1.128-2.52 2.52 1.128 2.52 2.52 2.52 2.52-1.128 2.52-2.52z" fill="none" stroke="#a5a5a5" stroke-linejoin="round" stroke-miterlimit="10" stroke-width=".72"/>
    <path d="m38.04 50.04c0-1.392-1.128-2.52-2.52-2.52s-2.52 1.128-2.52 2.52 1.128 2.52 2.52 2.52 2.52-1.128 2.52-2.52z" fill="#a5a5a5"/>
    <path d="m38.04 50.04c0-1.392-1.128-2.52-2.52-2.52s-2.52 1.128-2.52 2.52 1.128 2.52 2.52 2.52 2.52-1.128 2.52-2.52z" fill="none" stroke="#a5a5a5" stroke-linejoin="round" stroke-miterlimit="10" stroke-width=".72"/>
    <path d="m38.04 50.28c0-1.392-1.128-2.52-2.52-2.52s-2.52 1.128-2.52 2.52 1.128 2.52 2.52 2.52 2.52-1.128 2.52-2.52z" fill="#a5a5a5"/>
    <path d="m38.04 50.28c0-1.392-1.128-2.52-2.52-2.52s-2.52 1.128-2.52 2.52 1.128 2.52 2.52 2.52 2.52-1.128 2.52-2.52z" fill="none" stroke="#a5a5a5" stroke-linejoin="round" stroke-miterlimit="10" stroke-width=".72"/>
    <path d="m38.28 50.64c0-1.392-1.128-2.52-2.52-2.52s-2.52 1.128-2.52 2.52 1.128 2.52 2.52 2.52 2.52-1.128 2.52-2.52z" fill="#a5a5a5"/>
    <path d="m38.28 50.64c0-1.392-1.128-2.52-2.52-2.52s-2.52 1.128-2.52 2.52 1.128 2.52 2.52 2.52 2.52-1.128 2.52-2.52z" fill="none" stroke="#a5a5a5" stroke-linejoin="round" stroke-miterlimit="10" stroke-width=".72"/>
    <path d="m38.76 51c0-1.392-1.128-2.52-2.52-2.52s-2.52 1.128-2.52 2.52 1.128 2.52 2.52 2.52 2.52-1.128 2.52-2.52z" fill="#a5a5a5"/>
    <path d="m38.76 51c0-1.392-1.128-2.52-2.52-2.52s-2.52 1.128-2.52 2.52 1.128 2.52 2.52 2.52 2.52-1.128 2.52-2.52z" fill="none" stroke="#a5a5a5" stroke-linejoin="round" stroke-miterlimit="10" stroke-width=".72"/>
    <path d="m39.6 51.96c0-1.392-1.128-2.52-2.52-2.52s-2.52 1.128-2.52 2.52 1.128 2.52 2.52 2.52 2.52-1.128 2.52-2.52z" fill="#a5a5a5"/>
    <path d="m39.6 51.96c0-1.392-1.128-2.52-2.52-2.52s-2.52 1.128-2.52 2.52 1.128 2.52 2.52 2.52 2.52-1.128 2.52-2.52z" fill="none" stroke="#a5a5a5" stroke-linejoin="round" stroke-miterlimit="10" stroke-width=".72"/>
    <path d="m41.28 53.04c0-1.392-1.128-2.52-2.52-2.52s-2.52 1.128-2.52 2.52 1.128 2.52 2.52 2.52 2.52-1.128 2.52-2.52z" fill="#a5a5a5"/>
    <path d="m41.28 53.04c0-1.392-1.128-2.52-2.52-2.52s-2.52 1.128-2.52 2.52 1.128 2.52 2.52 2.52 2.52-1.128 2.52-2.52z" fill="none" stroke="#a5a5a5" stroke-linejoin="round" stroke-miterlimit="10" stroke-width=".72"/>
    <path d="m44.64 54.72c0-1.392-1.128-2.52-2.52-2.52s-2.52 1.128-2.52 2.52 1.128 2.52 2.52 2.52 2.52-1.128 2.52-2.52z" fill="#a5a5a5"/>
    <path d="m44.64 54.72c0-1.392-1.128-2.52-2.52-2.52s-2.52 1.128-2.52 2.52 1.128 2.52 2.52 2.52 2.52-1.128 2.52-2.52z" fill="none" stroke="#a5a5a5" stroke-linejoin="round" stroke-miterlimit="10" stroke-width=".72"/>
    <path d="m51.48 57.84c0-1.392-1.128-2.52-2.52-2.52s-2.52 1.128-2.52 2.52 1.128 2.52 2.52 2.52 2.52-1.128 2.52-2.52z" fill="#a5a5a5"/>
    <path d="m51.48 57.84c0-1.392-1.128-2.52-2.52-2.52s-2.52 1.128-2.52 2.52 1.128 2.52 2.52 2.52 2.52-1.128 2.52-2.52z" fill="none" stroke="#a5a5a5" stroke-linejoin="round" stroke-miterlimit="10" stroke-width=".72"/>
    <path d="m65.16 64.32c0-1.392-1.128-2.52-2.52-2.52s-2.52 1.128-2.52 2.52 1.128 2.52 2.52 2.52 2.52-1.128 2.52-2.52z" fill="#a5a5a5"/>
    <path d="m65.16 64.32c0-1.392-1.128-2.52-2.52-2.52s-2.52 1.128-2.52 2.52 1.128 2.52 2.52 2.52 2.52-1.128 2.52-2.52z" fill="none" stroke="#a5a5a5" stroke-linejoin="round" stroke-miterlimit="10" stroke-width=".72"/>
    <path d="m92.4 77.4c0-1.392-1.128-2.52-2.52-2.52s-2.52 1.128-2.52 2.52 1.128 2.52 2.52 2.52 2.52-1.128 2.52-2.52z" fill="#a5a5a5"/>
    <path d="m92.4 77.4c0-1.392-1.128-2.52-2.52-2.52s-2.52 1.128-2.52 2.52 1.128 2.52 2.52 2.52 2.52-1.128 2.52-2.52z" fill="none" stroke="#a5a5a5" stroke-linejoin="round" stroke-miterlimit="10" stroke-width=".72"/>
    <path d="m146.76 103.32c0-1.39-1.13-2.52-2.52-2.52s-2.52 1.13-2.52 2.52 1.13 2.52 2.52 2.52 2.52-1.13 2.52-2.52z" fill="#a5a5a5"/>
    <path d="m146.76 103.32c0-1.39-1.13-2.52-2.52-2.52s-2.52 1.13-2.52 2.52 1.13 2.52 2.52 2.52 2.52-1.13 2.52-2.52z" fill="none" stroke="#a5a5a5" stroke-linejoin="round" stroke-miterlimit="10" stroke-width=".72"/>
    <path d="m255.72 154.92c0-1.39-1.13-2.52-2.52-2.52s-2.52 1.13-2.52 2.52 1.13 2.52 2.52 2.52 2.52-1.13 2.52-2.52z" fill="#a5a5a5"/>
    <path d="m255.72 154.92c0-1.39-1.13-2.52-2.52-2.52s-2.52 1.13-2.52 2.52 1.13 2.52 2.52 2.52 2.52-1.13 2.52-2.52z" fill="none" stroke="#a5a5a5" stroke-linejoin="round" stroke-miterlimit="10" stroke-width=".72"/>
    <path d="m473.64 257.76c0-1.39-1.13-2.52-2.52-2.52s-2.52 1.13-2.52 2.52 1.13 2.52 2.52 2.52 2.52-1.13 2.52-2.52z" fill="#a5a5a5"/>
    <path d="m473.64 257.76c0-1.39-1.13-2.52-2.52-2.52s-2.52 1.13-2.52 2.52 1.13 2.52 2.52 2.52 2.52-1.13 2.52-2.52z" fill="none" stroke="#a5a5a5" stroke-linejoin="round" stroke-miterlimit="10" stroke-width=".72"/>
    <path d="m909.24 463.56c0-1.39-1.13-2.52-2.52-2.52s-2.52 1.13-2.52 2.52 1.13 2.52 2.52 2.52 2.52-1.13 2.52-2.52z" fill="#a5a5a5"/>
    <path d="m909.24 463.56c0-1.39-1.13-2.52-2.52-2.52s-2.52 1.13-2.52 2.52 1.13 2.52 2.52 2.52 2.52-1.13 2.52-2.52z" fill="none" stroke="#a5a5a5" stroke-linejoin="round" stroke-miterlimit="10" stroke-width=".72"/>
    <g clip-path="url(#f)">
      <text fill="#595959" font-family="Calibri,sans-serif" font-size="9" transform="matrix(1 0 0 -1 22.464 46.512)">0</text>
    </g>
    <g clip-path="url(#g)">
      <text fill="#595959" font-family="Calibri,sans-serif" font-size="9" transform="matrix(1 0 0 -1 13.344 76.752)">200</text>
    </g>
    <g clip-path="url(#h)">
      <text fill="#595959" font-family="Calibri,sans-serif" font-size="9" transform="matrix(1 0 0 -1 13.344 107.02)">400</text>
    </g>
    <g clip-path="url(#i)">
      <text fill="#595959" font-family="Calibri,sans-serif" font-size="9" transform="matrix(1 0 0 -1 13.344 137.28)">600</text>
    </g>
    <g clip-path="url(#j)">
      <text fill="#595959" font-family="Calibri,sans-serif" font-size="9.024" transform="matrix(1 0 0 -1 13.344 167.54)">800</text>
    </g>
    <g clip-path="url(#k)">
      <text fill="#595959" font-family="Calibri,sans-serif" font-size="9" transform="matrix(1 0 0 -1 6.504 197.78)">1.000</text>
    </g>
    <g clip-path="url(#l)">
      <text fill="#595959" font-family="Calibri,sans-serif" font-size="9" transform="matrix(1 0 0 -1 6.504 228.05)">1.200</text>
    </g>
    <g clip-path="url(#m)">
      <text fill="#595959" font-family="Calibri,sans-serif" font-size="9" transform="matrix(1 0 0 -1 6.504 258.31)">1.400</text>
    </g>
    <g clip-path="url(#n)">
      <text fill="#595959" font-family="Calibri,sans-serif" font-size="9.024" transform="matrix(1 0 0 -1 6.504 288.58)">1.600</text>
    </g>
    <g clip-path="url(#o)">
      <text fill="#595959" font-family="Calibri,sans-serif" font-size="9" transform="matrix(1 0 0 -1 6.504 318.82)">1.800</text>
    </g>
    <g clip-path="url(#p)">
      <text fill="#595959" font-family="Calibri,sans-serif" font-size="9" transform="matrix(1 0 0 -1 6.504 349.08)">2.000</text>
    </g>
    <g clip-path="url(#q)">
      <text fill="#595959" font-family="Calibri,sans-serif" font-size="9" transform="matrix(1 0 0 -1 6.504 379.34)">2.200</text>
    </g>
    <g clip-path="url(#r)">
      <text fill="#595959" font-family="Calibri,sans-serif" font-size="9.024" transform="matrix(1 0 0 -1 6.504 409.61)">2.400</text>
    </g>
    <g clip-path="url(#s)">
      <text fill="#595959" font-family="Calibri,sans-serif" font-size="9" transform="matrix(1 0 0 -1 6.504 439.85)">2.600</text>
    </g>
    <g clip-path="url(#t)">
      <text fill="#595959" font-family="Calibri,sans-serif" font-size="9" transform="matrix(1 0 0 -1 6.504 470.11)">2.800</text>
    </g>
    <g clip-path="url(#u)">
      <text fill="#595959" font-family="Calibri,sans-serif" font-size="9" transform="matrix(1 0 0 -1 6.504 500.38)">3.000</text>
    </g>
    <g clip-path="url(#v)">
      <text fill="#595959" font-family="Calibri,sans-serif" font-size="9.96" transform="matrix(1 0 0 -1 32.832 33.192)">0</text>
    </g>
    <g clip-path="url(#w)">
      <text fill="#595959" font-family="Calibri,sans-serif" font-size="9.96" transform="matrix(1 0 0 -1 81.216 33.192)">300.000</text>
    </g>
    <g clip-path="url(#x)">
      <text fill="#595959" font-family="Calibri,sans-serif" font-size="9.96" transform="matrix(1 0 0 -1 143.57 33.192)">600.000</text>
    </g>
    <g clip-path="url(#y)">
      <text fill="#595959" font-family="Calibri,sans-serif" font-size="9.96" transform="matrix(1 0 0 -1 205.9 33.192)">900.000</text>
    </g>
    <g clip-path="url(#z)">
      <text fill="#595959" font-family="Calibri,sans-serif" font-size="9.96" transform="matrix(1 0 0 -1 264.43 33.192)">1.200.000</text>
    </g>
    <g clip-path="url(#A)">
      <text fill="#595959" font-family="Calibri,sans-serif" font-size="9.96" transform="matrix(1 0 0 -1 326.76 33.192)">1.500.000</text>
    </g>
    <g clip-path="url(#B)">
      <text fill="#595959" font-family="Calibri,sans-serif" font-size="9.96" transform="matrix(1 0 0 -1 389.11 33.192)">1.800.000</text>
    </g>
    <g clip-path="url(#C)">
      <text fill="#595959" font-family="Calibri,sans-serif" font-size="9.96" transform="matrix(1 0 0 -1 451.44 33.192)">2.100.000</text>
    </g>
    <g clip-path="url(#D)">
      <text fill="#595959" font-family="Calibri,sans-serif" font-size="9.96" transform="matrix(1 0 0 -1 513.77 33.192)">2.400.000</text>
    </g>
    <g clip-path="url(#E)">
      <text fill="#595959" font-family="Calibri,sans-serif" font-size="9.96" transform="matrix(1 0 0 -1 576.12 33.192)">2.700.000</text>
    </g>
    <g clip-path="url(#F)">
      <text fill="#595959" font-family="Calibri,sans-serif" font-size="9.96" transform="matrix(1 0 0 -1 638.45 33.192)">3.000.000</text>
    </g>
    <g clip-path="url(#G)">
      <text fill="#595959" font-family="Calibri,sans-serif" font-size="9.96" transform="matrix(1 0 0 -1 700.78 33.192)">3.300.000</text>
    </g>
    <g clip-path="url(#H)">
      <text fill="#595959" font-family="Calibri,sans-serif" font-size="9.96" transform="matrix(1 0 0 -1 763.13 33.192)">3.600.000</text>
    </g>
    <g clip-path="url(#I)">
      <text fill="#595959" font-family="Calibri,sans-serif" font-size="9.96" transform="matrix(1 0 0 -1 825.46 33.192)">3.900.000</text>
    </g>
    <g clip-path="url(#J)">
      <text fill="#595959" font-family="Calibri,sans-serif" font-size="9.96" transform="matrix(1 0 0 -1 887.78 33.192)">4.200.000</text>
    </g>
    <g clip-path="url(#K)">
      <text fill="#595959" font-family="Calibri,sans-serif" font-size="14.04" transform="matrix(1 0 0 -1 458.21 519.17)">Latency</text>
    </g>
    <path d="m225.9 15.06h19.2" style="fill:none;stroke:#4472c4;stroke-width:1.56;stroke-linecap:round;stroke-linejoin:round;stroke-miterlimit:10"/>
    <path d="m237.96 15.12c0-1.392-1.13-2.52-2.52-2.52s-2.52 1.128-2.52 2.52 1.13 2.52 2.52 2.52 2.52-1.128 2.52-2.52z" fill="#4472c4"/>
    <path d="m237.96 15.12c0-1.392-1.13-2.52-2.52-2.52s-2.52 1.128-2.52 2.52 1.13 2.52 2.52 2.52 2.52-1.128 2.52-2.52z" fill="none" stroke="#4472c4" stroke-linejoin="round" stroke-miterlimit="10" stroke-width=".72"/>
    <g clip-path="url(#L)">
      <text fill="#595959" font-family="Calibri,sans-serif" font-size="9.96" transform="matrix(1 0 0 -1 247.13 12.096)">Same Socket, Different Cores</text>
    </g>
    <path d="m427.5 15.06h19.2" style="fill:none;stroke:#ed7d31;stroke-width:1.56;stroke-linecap:round;stroke-linejoin:round;stroke-miterlimit:10"/>
    <path d="m439.56 15.12c0-1.392-1.13-2.52-2.52-2.52s-2.52 1.128-2.52 2.52 1.13 2.52 2.52 2.52 2.52-1.128 2.52-2.52z" fill="#ed7d31"/>
    <path d="m439.56 15.12c0-1.392-1.13-2.52-2.52-2.52s-2.52 1.128-2.52 2.52 1.13 2.52 2.52 2.52 2.52-1.128 2.52-2.52z" fill="none" stroke="#ed7d31" stroke-linejoin="round" stroke-miterlimit="10" stroke-width=".72"/>
    <g clip-path="url(#M)">
      <text fill="#595959" font-family="Calibri,sans-serif" font-size="9.96" transform="matrix(1 0 0 -1 448.8 12.096)">Same Node, Different Sockets</text>
    </g>
    <path d="m631.98 15.06h19.2" style="fill:none;stroke:#a5a5a5;stroke-width:1.56;stroke-linecap:round;stroke-linejoin:round;stroke-miterlimit:10"/>
    <path d="m644.04 15.12c0-1.392-1.13-2.52-2.52-2.52s-2.52 1.128-2.52 2.52 1.13 2.52 2.52 2.52 2.52-1.128 2.52-2.52z" fill="#a5a5a5"/>
    <path d="m644.04 15.12c0-1.392-1.13-2.52-2.52-2.52s-2.52 1.128-2.52 2.52 1.13 2.52 2.52 2.52 2.52-1.128 2.52-2.52z" fill="none" stroke="#a5a5a5" stroke-linejoin="round" stroke-miterlimit="10" stroke-width=".72"/>
    <g clip-path="url(#N)">
      <text fill="#595959" font-family="Calibri,sans-serif" font-size="9.96" transform="matrix(1 0 0 -1 653.28 12.096)">Different Nodes</text>
    </g>
    <g clip-path="url(#O)">
      <path d="m0 .00006104h960v539.99999896h-960z" fill="none" stroke="#d9d9d9" stroke-linejoin="round" stroke-miterlimit="10" stroke-width=".72"/>
    </g>
  </g>
</svg>
