<svg version="1.1" viewBox="0.0 0.0 1160.0 739.0" fill="none" stroke="none" stroke-linecap="square" stroke-miterlimit="10" width="1160" height="739" xmlns:xlink="http://www.w3.org/1999/xlink" xmlns="http://www.w3.org/2000/svg"><path fill="#f2f2f2" d="M0 0L1160.0 0L1160.0 739.0L0 739.0L0 0Z" fill-rule="nonzero"/><path stroke="#262626" stroke-width="1.0" stroke-linecap="butt" d="M66.5 600.5L1123.5 600.5" fill-rule="nonzero"/><path stroke="#d9d9d9" stroke-width="1.0" stroke-linecap="butt" d="M66.5 472.5L1123.5 472.5" fill-rule="nonzero"/><path stroke="#d9d9d9" stroke-width="1.0" stroke-linecap="butt" d="M66.5 344.5L1123.5 344.5" fill-rule="nonzero"/><path stroke="#d9d9d9" stroke-width="1.0" stroke-linecap="butt" d="M66.5 215.5L1123.5 215.5" fill-rule="nonzero"/><path stroke="#d9d9d9" stroke-width="1.0" stroke-linecap="butt" d="M66.5 87.5L1123.5 87.5" fill-rule="nonzero"/><path stroke="#e1e1e1" stroke-width="1.0" stroke-linecap="butt" d="M198.9625 430.56668L198.9625 446.56668" fill-rule="nonzero"/><path stroke="#e1e1e1" stroke-width="1.0" stroke-linecap="butt" d="M462.9875 102.35333L462.9875 118.35333" fill-rule="nonzero"/><path stroke="#e1e1e1" stroke-width="1.0" stroke-linecap="butt" d="M727.0125 102.35333L727.0125 118.35333" fill-rule="nonzero"/><path stroke="#e1e1e1" stroke-width="1.0" stroke-linecap="butt" d="M991.0375 210.04834L991.0375 226.04834" fill-rule="nonzero"/><path stroke="#e1e1e1" stroke-width="1.0" stroke-linecap="butt" d="M198.9625 507.49167L198.9625 523.49164" fill-rule="nonzero"/><path stroke="#e1e1e1" stroke-width="1.0" stroke-linecap="butt" d="M462.9875 461.33667L462.9875 477.33667" fill-rule="nonzero"/><path stroke="#e1e1e1" stroke-width="1.0" stroke-linecap="butt" d="M727.0125 517.74835L727.0125 533.74835" fill-rule="nonzero"/><path stroke="#e1e1e1" stroke-width="1.0" stroke-linecap="butt" d="M991.0375 558.775L991.0375 574.775" fill-rule="nonzero"/><clipPath id="id_0"><path d="M66.95 87.583336L1123.05 87.583336L1123.05 600.4167L66.95 600.4167L66.95 87.583336Z" clip-rule="nonzero"/></clipPath><path stroke="#4285f4" stroke-width="2.0" stroke-linecap="butt" clip-path="url(#id_0)" d="M198.9625 446.56668L462.9875 118.35333L727.0125 118.35333L991.0375 226.04834" fill-rule="nonzero"/><path stroke="#34a853" stroke-width="2.0" stroke-linecap="butt" clip-path="url(#id_0)" d="M198.9625 523.49164L462.9875 477.33667L727.0125 533.74835L991.0375 574.775" fill-rule="nonzero"/><path fill="#4285f4" clip-path="url(#id_0)" d="M202.4625 446.56668C202.4625 448.49966 200.8955 450.06668 198.9625 450.06668C197.02951 450.06668 195.4625 448.49966 195.4625 446.56668C195.4625 444.63367 197.02951 443.06668 198.9625 443.06668C200.8955 443.06668 202.4625 444.63367 202.4625 446.56668Z" fill-rule="nonzero"/><path fill="#4285f4" clip-path="url(#id_0)" d="M466.4875 118.35333C466.4875 120.28633 464.9205 121.85333 462.9875 121.85333C461.0545 121.85333 459.4875 120.28633 459.4875 118.35333C459.4875 116.420334 461.0545 114.85333 462.9875 114.85333C464.9205 114.85333 466.4875 116.420334 466.4875 118.35333Z" fill-rule="nonzero"/><path fill="#4285f4" clip-path="url(#id_0)" d="M730.5125 118.35333C730.5125 120.28633 728.9455 121.85333 727.0125 121.85333C725.0795 121.85333 723.5125 120.28633 723.5125 118.35333C723.5125 116.420334 725.0795 114.85333 727.0125 114.85333C728.9455 114.85333 730.5125 116.420334 730.5125 118.35333Z" fill-rule="nonzero"/><path fill="#4285f4" clip-path="url(#id_0)" d="M994.5375 226.04834C994.5375 227.98132 992.9705 229.54834 991.0375 229.54834C989.1045 229.54834 987.5375 227.98132 987.5375 226.04834C987.5375 224.11534 989.1045 222.54834 991.0375 222.54834C992.9705 222.54834 994.5375 224.11534 994.5375 226.04834Z" fill-rule="nonzero"/><path fill="#34a853" clip-path="url(#id_0)" d="M202.4625 523.49164C202.4625 525.4247 200.8955 526.99164 198.9625 526.99164C197.02951 526.99164 195.4625 525.4247 195.4625 523.49164C195.4625 521.55865 197.02951 519.99164 198.9625 519.99164C200.8955 519.99164 202.4625 521.55865 202.4625 523.49164Z" fill-rule="nonzero"/><path fill="#34a853" clip-path="url(#id_0)" d="M466.4875 477.33667C466.4875 479.26965 464.9205 480.83667 462.9875 480.83667C461.0545 480.83667 459.4875 479.26965 459.4875 477.33667C459.4875 475.40366 461.0545 473.83667 462.9875 473.83667C464.9205 473.83667 466.4875 475.40366 466.4875 477.33667Z" fill-rule="nonzero"/><path fill="#34a853" clip-path="url(#id_0)" d="M730.5125 533.74835C730.5125 535.68134 728.9455 537.24835 727.0125 537.24835C725.0795 537.24835 723.5125 535.68134 723.5125 533.74835C723.5125 531.8153 725.0795 530.24835 727.0125 530.24835C728.9455 530.24835 730.5125 531.8153 730.5125 533.74835Z" fill-rule="nonzero"/><path fill="#34a853" clip-path="url(#id_0)" d="M994.5375 574.775C994.5375 576.708 992.9705 578.275 991.0375 578.275C989.1045 578.275 987.5375 576.708 987.5375 574.775C987.5375 572.842 989.1045 571.275 991.0375 571.275C992.9705 571.275 994.5375 572.842 994.5375 574.775Z" fill-rule="nonzero"/><path stroke="#f2f2f2" stroke-width="3.0" stroke-linejoin="round" stroke-linecap="round" d="M190.9625 424.3323Q190.9625 422.80106 191.275 421.87918Q191.5875 420.94168 192.19687 420.44168Q192.82187 419.94168 193.75937 419.94168Q194.44687 419.94168 194.9625 420.22293Q195.49374 420.50418 195.8375 421.03543Q196.18124 421.55106 196.36874 422.30106Q196.55624 423.05106 196.55624 424.3323Q196.55624 425.84793 196.24374 426.7698Q195.94687 427.69168 195.32187 428.2073Q194.7125 428.7073 193.75937 428.7073Q192.525 428.7073 191.80624 427.81668Q190.9625 426.75418 190.9625 424.3323ZM192.04062 424.3323Q192.04062 426.44168 192.54062 427.1448Q193.04062 427.84793 193.75937 427.84793Q194.49374 427.84793 194.97812 427.1448Q195.47812 426.44168 195.47812 424.3323Q195.47812 422.2073 194.97812 421.5198Q194.49374 420.81668 193.74374 420.81668Q193.025 420.81668 192.5875 421.42606Q192.04062 422.2073 192.04062 424.3323ZM198.525 428.56668L198.525 427.36356L199.72812 427.36356L199.72812 428.56668Q199.72812 429.22293 199.49374 429.62918Q199.25937 430.05106 198.75937 430.2698L198.4625 429.81668Q198.79062 429.67606 198.94687 429.37918Q199.10312 429.09793 199.13437 428.56668L198.525 428.56668ZM200.9625 426.30106L202.025 426.16043Q202.19687 427.05106 202.63437 427.4573Q203.07187 427.84793 203.69687 427.84793Q204.44687 427.84793 204.9625 427.3323Q205.47812 426.81668 205.47812 426.05106Q205.47812 425.3323 204.99374 424.86356Q204.525 424.37918 203.79062 424.37918Q203.49374 424.37918 203.04062 424.50418L203.16562 423.56668Q203.275 423.5823 203.3375 423.5823Q204.00937 423.5823 204.54062 423.23856Q205.0875 422.87918 205.0875 422.1448Q205.0875 421.56668 204.69687 421.19168Q204.30624 420.80106 203.68124 420.80106Q203.07187 420.80106 202.65 421.19168Q202.24374 421.5823 202.13437 422.34793L201.07187 422.16043Q201.25937 421.11356 201.94687 420.53543Q202.63437 419.94168 203.65 419.94168Q204.35312 419.94168 204.94687 420.25418Q205.54062 420.55106 205.85312 421.06668Q206.16562 421.5823 206.16562 422.17606Q206.16562 422.72293 205.86874 423.19168Q205.57187 423.6448 204.99374 423.91043Q205.74374 424.0823 206.16562 424.6448Q206.5875 425.19168 206.5875 426.03543Q206.5875 427.16043 205.75937 427.94168Q204.94687 428.72293 203.69687 428.72293Q202.57187 428.72293 201.82187 428.05106Q201.07187 427.36356 200.9625 426.30106Z" fill-rule="nonzero"/><path fill="#000000" d="M190.9625 424.3323Q190.9625 422.80106 191.275 421.87918Q191.5875 420.94168 192.19687 420.44168Q192.82187 419.94168 193.75937 419.94168Q194.44687 419.94168 194.9625 420.22293Q195.49374 420.50418 195.8375 421.03543Q196.18124 421.55106 196.36874 422.30106Q196.55624 423.05106 196.55624 424.3323Q196.55624 425.84793 196.24374 426.7698Q195.94687 427.69168 195.32187 428.2073Q194.7125 428.7073 193.75937 428.7073Q192.525 428.7073 191.80624 427.81668Q190.9625 426.75418 190.9625 424.3323ZM192.04062 424.3323Q192.04062 426.44168 192.54062 427.1448Q193.04062 427.84793 193.75937 427.84793Q194.49374 427.84793 194.97812 427.1448Q195.47812 426.44168 195.47812 424.3323Q195.47812 422.2073 194.97812 421.5198Q194.49374 420.81668 193.74374 420.81668Q193.025 420.81668 192.5875 421.42606Q192.04062 422.2073 192.04062 424.3323ZM198.525 428.56668L198.525 427.36356L199.72812 427.36356L199.72812 428.56668Q199.72812 429.22293 199.49374 429.62918Q199.25937 430.05106 198.75937 430.2698L198.4625 429.81668Q198.79062 429.67606 198.94687 429.37918Q199.10312 429.09793 199.13437 428.56668L198.525 428.56668ZM200.9625 426.30106L202.025 426.16043Q202.19687 427.05106 202.63437 427.4573Q203.07187 427.84793 203.69687 427.84793Q204.44687 427.84793 204.9625 427.3323Q205.47812 426.81668 205.47812 426.05106Q205.47812 425.3323 204.99374 424.86356Q204.525 424.37918 203.79062 424.37918Q203.49374 424.37918 203.04062 424.50418L203.16562 423.56668Q203.275 423.5823 203.3375 423.5823Q204.00937 423.5823 204.54062 423.23856Q205.0875 422.87918 205.0875 422.1448Q205.0875 421.56668 204.69687 421.19168Q204.30624 420.80106 203.68124 420.80106Q203.07187 420.80106 202.65 421.19168Q202.24374 421.5823 202.13437 422.34793L201.07187 422.16043Q201.25937 421.11356 201.94687 420.53543Q202.63437 419.94168 203.65 419.94168Q204.35312 419.94168 204.94687 420.25418Q205.54062 420.55106 205.85312 421.06668Q206.16562 421.5823 206.16562 422.17606Q206.16562 422.72293 205.86874 423.19168Q205.57187 423.6448 204.99374 423.91043Q205.74374 424.0823 206.16562 424.6448Q206.5875 425.19168 206.5875 426.03543Q206.5875 427.16043 205.75937 427.94168Q204.94687 428.72293 203.69687 428.72293Q202.57187 428.72293 201.82187 428.05106Q201.07187 427.36356 200.9625 426.30106Z" fill-rule="nonzero"/><path stroke="#f2f2f2" stroke-width="3.0" stroke-linejoin="round" stroke-linecap="round" d="M451.4875 96.11896Q451.4875 94.58771 451.8 93.66583Q452.1125 92.72833 452.72186 92.22833Q453.34686 91.72833 454.28436 91.72833Q454.97186 91.72833 455.4875 92.00958Q456.01874 92.29083 456.3625 92.82208Q456.70624 93.33771 456.89374 94.08771Q457.08124 94.83771 457.08124 96.11896Q457.08124 97.63458 456.76874 98.55646Q456.47186 99.47833 455.84686 99.99396Q455.2375 100.49396 454.28436 100.49396Q453.05 100.49396 452.33124 99.60333Q451.4875 98.54083 451.4875 96.11896ZM452.5656 96.11896Q452.5656 98.22833 453.0656 98.93146Q453.5656 99.63458 454.28436 99.63458Q455.01874 99.63458 455.5031 98.93146Q456.0031 98.22833 456.0031 96.11896Q456.0031 93.99396 455.5031 93.30646Q455.01874 92.60333 454.26874 92.60333Q453.55 92.60333 453.1125 93.21271Q452.5656 93.99396 452.5656 96.11896ZM459.05 100.35333L459.05 99.15021L460.2531 99.15021L460.2531 100.35333Q460.2531 101.00958 460.01874 101.41583Q459.78436 101.83771 459.28436 102.05646L458.9875 101.60333Q459.3156 101.46271 459.47186 101.16583Q459.6281 100.88458 459.65936 100.35333L459.05 100.35333ZM461.64374 98.36896L462.65936 98.27521Q462.78436 98.99396 463.14374 99.32208Q463.51874 99.63458 464.08124 99.63458Q464.5656 99.63458 464.925 99.41583Q465.3 99.18146 465.53436 98.82208Q465.76874 98.44708 465.925 97.82208Q466.08124 97.18146 466.08124 96.52521Q466.08124 96.44708 466.08124 96.30646Q465.76874 96.80646 465.22186 97.13458Q464.675 97.44708 464.03436 97.44708Q462.95624 97.44708 462.22186 96.68146Q461.4875 95.90021 461.4875 94.63458Q461.4875 93.32208 462.2531 92.52521Q463.03436 91.72833 464.1906 91.72833Q465.01874 91.72833 465.70624 92.18146Q466.40936 92.63458 466.76874 93.47833Q467.1281 94.30646 467.1281 95.88458Q467.1281 97.52521 466.76874 98.50958Q466.425 99.47833 465.70624 99.99396Q465.0031 100.49396 464.0656 100.49396Q463.05 100.49396 462.40936 99.94708Q461.76874 99.38458 461.64374 98.36896ZM465.95624 94.57208Q465.95624 93.66583 465.47186 93.13458Q465.0031 92.60333 464.3156 92.60333Q463.6125 92.60333 463.08124 93.18146Q462.5656 93.74396 462.5656 94.66583Q462.5656 95.47833 463.0656 95.99396Q463.5656 96.50958 464.28436 96.50958Q465.01874 96.50958 465.4875 95.99396Q465.95624 95.47833 465.95624 94.57208ZM471.8625 100.35333L471.8625 98.29083L468.14374 98.29083L468.14374 97.32208L472.0656 91.75958L472.925 91.75958L472.925 97.32208L474.08124 97.32208L474.08124 98.29083L472.925 98.29083L472.925 100.35333L471.8625 100.35333ZM471.8625 97.32208L471.8625 93.46271L469.175 97.32208L471.8625 97.32208Z" fill-rule="nonzero"/><path fill="#000000" d="M451.4875 96.11896Q451.4875 94.58771 451.8 93.66583Q452.1125 92.72833 452.72186 92.22833Q453.34686 91.72833 454.28436 91.72833Q454.97186 91.72833 455.4875 92.00958Q456.01874 92.29083 456.3625 92.82208Q456.70624 93.33771 456.89374 94.08771Q457.08124 94.83771 457.08124 96.11896Q457.08124 97.63458 456.76874 98.55646Q456.47186 99.47833 455.84686 99.99396Q455.2375 100.49396 454.28436 100.49396Q453.05 100.49396 452.33124 99.60333Q451.4875 98.54083 451.4875 96.11896ZM452.5656 96.11896Q452.5656 98.22833 453.0656 98.93146Q453.5656 99.63458 454.28436 99.63458Q455.01874 99.63458 455.5031 98.93146Q456.0031 98.22833 456.0031 96.11896Q456.0031 93.99396 455.5031 93.30646Q455.01874 92.60333 454.26874 92.60333Q453.55 92.60333 453.1125 93.21271Q452.5656 93.99396 452.5656 96.11896ZM459.05 100.35333L459.05 99.15021L460.2531 99.15021L460.2531 100.35333Q460.2531 101.00958 460.01874 101.41583Q459.78436 101.83771 459.28436 102.05646L458.9875 101.60333Q459.3156 101.46271 459.47186 101.16583Q459.6281 100.88458 459.65936 100.35333L459.05 100.35333ZM461.64374 98.36896L462.65936 98.27521Q462.78436 98.99396 463.14374 99.32208Q463.51874 99.63458 464.08124 99.63458Q464.5656 99.63458 464.925 99.41583Q465.3 99.18146 465.53436 98.82208Q465.76874 98.44708 465.925 97.82208Q466.08124 97.18146 466.08124 96.52521Q466.08124 96.44708 466.08124 96.30646Q465.76874 96.80646 465.22186 97.13458Q464.675 97.44708 464.03436 97.44708Q462.95624 97.44708 462.22186 96.68146Q461.4875 95.90021 461.4875 94.63458Q461.4875 93.32208 462.2531 92.52521Q463.03436 91.72833 464.1906 91.72833Q465.01874 91.72833 465.70624 92.18146Q466.40936 92.63458 466.76874 93.47833Q467.1281 94.30646 467.1281 95.88458Q467.1281 97.52521 466.76874 98.50958Q466.425 99.47833 465.70624 99.99396Q465.0031 100.49396 464.0656 100.49396Q463.05 100.49396 462.40936 99.94708Q461.76874 99.38458 461.64374 98.36896ZM465.95624 94.57208Q465.95624 93.66583 465.47186 93.13458Q465.0031 92.60333 464.3156 92.60333Q463.6125 92.60333 463.08124 93.18146Q462.5656 93.74396 462.5656 94.66583Q462.5656 95.47833 463.0656 95.99396Q463.5656 96.50958 464.28436 96.50958Q465.01874 96.50958 465.4875 95.99396Q465.95624 95.47833 465.95624 94.57208ZM471.8625 100.35333L471.8625 98.29083L468.14374 98.29083L468.14374 97.32208L472.0656 91.75958L472.925 91.75958L472.925 97.32208L474.08124 97.32208L474.08124 98.29083L472.925 98.29083L472.925 100.35333L471.8625 100.35333ZM471.8625 97.32208L471.8625 93.46271L469.175 97.32208L471.8625 97.32208Z" fill-rule="nonzero"/><path stroke="#f2f2f2" stroke-width="3.0" stroke-linejoin="round" stroke-linecap="round" d="M715.5125 96.11896Q715.5125 94.58771 715.825 93.66583Q716.1375 92.72833 716.7469 92.22833Q717.3719 91.72833 718.3094 91.72833Q718.9969 91.72833 719.5125 92.00958Q720.04376 92.29083 720.3875 92.82208Q720.73126 93.33771 720.91876 94.08771Q721.10626 94.83771 721.10626 96.11896Q721.10626 97.63458 720.79376 98.55646Q720.4969 99.47833 719.8719 99.99396Q719.2625 100.49396 718.3094 100.49396Q717.075 100.49396 716.35626 99.60333Q715.5125 98.54083 715.5125 96.11896ZM716.59064 96.11896Q716.59064 98.22833 717.09064 98.93146Q717.59064 99.63458 718.3094 99.63458Q719.04376 99.63458 719.52814 98.93146Q720.02814 98.22833 720.02814 96.11896Q720.02814 93.99396 719.52814 93.30646Q719.04376 92.60333 718.29376 92.60333Q717.575 92.60333 717.1375 93.21271Q716.59064 93.99396 716.59064 96.11896ZM723.075 100.35333L723.075 99.15021L724.27814 99.15021L724.27814 100.35333Q724.27814 101.00958 724.04376 101.41583Q723.8094 101.83771 723.3094 102.05646L723.0125 101.60333Q723.34064 101.46271 723.4969 101.16583Q723.65314 100.88458 723.6844 100.35333L723.075 100.35333ZM725.66876 98.36896L726.6844 98.27521Q726.8094 98.99396 727.16876 99.32208Q727.54376 99.63458 728.10626 99.63458Q728.59064 99.63458 728.95 99.41583Q729.325 99.18146 729.5594 98.82208Q729.79376 98.44708 729.95 97.82208Q730.10626 97.18146 730.10626 96.52521Q730.10626 96.44708 730.10626 96.30646Q729.79376 96.80646 729.2469 97.13458Q728.7 97.44708 728.0594 97.44708Q726.98126 97.44708 726.2469 96.68146Q725.5125 95.90021 725.5125 94.63458Q725.5125 93.32208 726.27814 92.52521Q727.0594 91.72833 728.21564 91.72833Q729.04376 91.72833 729.73126 92.18146Q730.4344 92.63458 730.79376 93.47833Q731.15314 94.30646 731.15314 95.88458Q731.15314 97.52521 730.79376 98.50958Q730.45 99.47833 729.73126 99.99396Q729.02814 100.49396 728.09064 100.49396Q727.075 100.49396 726.4344 99.94708Q725.79376 99.38458 725.66876 98.36896ZM729.98126 94.57208Q729.98126 93.66583 729.4969 93.13458Q729.02814 92.60333 728.34064 92.60333Q727.6375 92.60333 727.10626 93.18146Q726.59064 93.74396 726.59064 94.66583Q726.59064 95.47833 727.09064 95.99396Q727.59064 96.50958 728.3094 96.50958Q729.04376 96.50958 729.5125 95.99396Q729.98126 95.47833 729.98126 94.57208ZM735.8875 100.35333L735.8875 98.29083L732.16876 98.29083L732.16876 97.32208L736.09064 91.75958L736.95 91.75958L736.95 97.32208L738.10626 97.32208L738.10626 98.29083L736.95 98.29083L736.95 100.35333L735.8875 100.35333ZM735.8875 97.32208L735.8875 93.46271L733.2 97.32208L735.8875 97.32208Z" fill-rule="nonzero"/><path fill="#000000" d="M715.5125 96.11896Q715.5125 94.58771 715.825 93.66583Q716.1375 92.72833 716.7469 92.22833Q717.3719 91.72833 718.3094 91.72833Q718.9969 91.72833 719.5125 92.00958Q720.04376 92.29083 720.3875 92.82208Q720.73126 93.33771 720.91876 94.08771Q721.10626 94.83771 721.10626 96.11896Q721.10626 97.63458 720.79376 98.55646Q720.4969 99.47833 719.8719 99.99396Q719.2625 100.49396 718.3094 100.49396Q717.075 100.49396 716.35626 99.60333Q715.5125 98.54083 715.5125 96.11896ZM716.59064 96.11896Q716.59064 98.22833 717.09064 98.93146Q717.59064 99.63458 718.3094 99.63458Q719.04376 99.63458 719.52814 98.93146Q720.02814 98.22833 720.02814 96.11896Q720.02814 93.99396 719.52814 93.30646Q719.04376 92.60333 718.29376 92.60333Q717.575 92.60333 717.1375 93.21271Q716.59064 93.99396 716.59064 96.11896ZM723.075 100.35333L723.075 99.15021L724.27814 99.15021L724.27814 100.35333Q724.27814 101.00958 724.04376 101.41583Q723.8094 101.83771 723.3094 102.05646L723.0125 101.60333Q723.34064 101.46271 723.4969 101.16583Q723.65314 100.88458 723.6844 100.35333L723.075 100.35333ZM725.66876 98.36896L726.6844 98.27521Q726.8094 98.99396 727.16876 99.32208Q727.54376 99.63458 728.10626 99.63458Q728.59064 99.63458 728.95 99.41583Q729.325 99.18146 729.5594 98.82208Q729.79376 98.44708 729.95 97.82208Q730.10626 97.18146 730.10626 96.52521Q730.10626 96.44708 730.10626 96.30646Q729.79376 96.80646 729.2469 97.13458Q728.7 97.44708 728.0594 97.44708Q726.98126 97.44708 726.2469 96.68146Q725.5125 95.90021 725.5125 94.63458Q725.5125 93.32208 726.27814 92.52521Q727.0594 91.72833 728.21564 91.72833Q729.04376 91.72833 729.73126 92.18146Q730.4344 92.63458 730.79376 93.47833Q731.15314 94.30646 731.15314 95.88458Q731.15314 97.52521 730.79376 98.50958Q730.45 99.47833 729.73126 99.99396Q729.02814 100.49396 728.09064 100.49396Q727.075 100.49396 726.4344 99.94708Q725.79376 99.38458 725.66876 98.36896ZM729.98126 94.57208Q729.98126 93.66583 729.4969 93.13458Q729.02814 92.60333 728.34064 92.60333Q727.6375 92.60333 727.10626 93.18146Q726.59064 93.74396 726.59064 94.66583Q726.59064 95.47833 727.09064 95.99396Q727.59064 96.50958 728.3094 96.50958Q729.04376 96.50958 729.5125 95.99396Q729.98126 95.47833 729.98126 94.57208ZM735.8875 100.35333L735.8875 98.29083L732.16876 98.29083L732.16876 97.32208L736.09064 91.75958L736.95 91.75958L736.95 97.32208L738.10626 97.32208L738.10626 98.29083L736.95 98.29083L736.95 100.35333L735.8875 100.35333ZM735.8875 97.32208L735.8875 93.46271L733.2 97.32208L735.8875 97.32208Z" fill-rule="nonzero"/><path stroke="#f2f2f2" stroke-width="3.0" stroke-linejoin="round" stroke-linecap="round" d="M979.5375 203.81396Q979.5375 202.28271 979.85 201.36084Q980.1625 200.42334 980.77185 199.92334Q981.39685 199.42334 982.33435 199.42334Q983.02185 199.42334 983.5375 199.70459Q984.0687 199.98584 984.4125 200.51709Q984.7562 201.03271 984.9437 201.78271Q985.1312 202.53271 985.1312 203.81396Q985.1312 205.32959 984.8187 206.25146Q984.52185 207.17334 983.89685 207.68896Q983.2875 208.18896 982.33435 208.18896Q981.1 208.18896 980.3812 207.29834Q979.5375 206.23584 979.5375 203.81396ZM980.6156 203.81396Q980.6156 205.92334 981.1156 206.62646Q981.6156 207.32959 982.33435 207.32959Q983.0687 207.32959 983.5531 206.62646Q984.0531 205.92334 984.0531 203.81396Q984.0531 201.68896 983.5531 201.00146Q983.0687 200.29834 982.3187 200.29834Q981.6 200.29834 981.1625 200.90771Q980.6156 201.68896 980.6156 203.81396ZM987.1 208.04834L987.1 206.84521L988.3031 206.84521L988.3031 208.04834Q988.3031 208.70459 988.0687 209.11084Q987.83435 209.53271 987.33435 209.75146L987.0375 209.29834Q987.3656 209.15771 987.52185 208.86084Q987.6781 208.57959 987.70935 208.04834L987.1 208.04834ZM989.6 200.57959L989.6 199.56396L995.1625 199.56396L995.1625 200.39209Q994.35 201.26709 993.5375 202.72021Q992.7406 204.15771 992.3031 205.68896Q991.975 206.76709 991.89685 208.04834L990.8031 208.04834Q990.8187 207.03271 991.1937 205.59521Q991.58435 204.15771 992.2875 202.82959Q993.0062 201.50146 993.8187 200.57959L989.6 200.57959ZM996.5375 205.78271L997.6 205.64209Q997.77185 206.53271 998.20935 206.93896Q998.64685 207.32959 999.27185 207.32959Q1000.02185 207.32959 1000.5375 206.81396Q1001.0531 206.29834 1001.0531 205.53271Q1001.0531 204.81396 1000.5687 204.34521Q1000.1 203.86084 999.3656 203.86084Q999.0687 203.86084 998.6156 203.98584L998.7406 203.04834Q998.85 203.06396 998.9125 203.06396Q999.58435 203.06396 1000.1156 202.72021Q1000.6625 202.36084 1000.6625 201.62646Q1000.6625 201.04834 1000.27185 200.67334Q999.8812 200.28271 999.2562 200.28271Q998.64685 200.28271 998.225 200.67334Q997.8187 201.06396 997.70935 201.82959L996.64685 201.64209Q996.83435 200.59521 997.52185 200.01709Q998.20935 199.42334 999.225 199.42334Q999.9281 199.42334 1000.52185 199.73584Q1001.1156 200.03271 1001.4281 200.54834Q1001.7406 201.06396 1001.7406 201.65771Q1001.7406 202.20459 1001.4437 202.67334Q1001.14685 203.12646 1000.5687 203.39209Q1001.3187 203.56396 1001.7406 204.12646Q1002.1625 204.67334 1002.1625 205.51709Q1002.1625 206.64209 1001.33435 207.42334Q1000.52185 208.20459 999.27185 208.20459Q998.14685 208.20459 997.39685 207.53271Q996.64685 206.84521 996.5375 205.78271Z" fill-rule="nonzero"/><path fill="#000000" d="M979.5375 203.81396Q979.5375 202.28271 979.85 201.36084Q980.1625 200.42334 980.77185 199.92334Q981.39685 199.42334 982.33435 199.42334Q983.02185 199.42334 983.5375 199.70459Q984.0687 199.98584 984.4125 200.51709Q984.7562 201.03271 984.9437 201.78271Q985.1312 202.53271 985.1312 203.81396Q985.1312 205.32959 984.8187 206.25146Q984.52185 207.17334 983.89685 207.68896Q983.2875 208.18896 982.33435 208.18896Q981.1 208.18896 980.3812 207.29834Q979.5375 206.23584 979.5375 203.81396ZM980.6156 203.81396Q980.6156 205.92334 981.1156 206.62646Q981.6156 207.32959 982.33435 207.32959Q983.0687 207.32959 983.5531 206.62646Q984.0531 205.92334 984.0531 203.81396Q984.0531 201.68896 983.5531 201.00146Q983.0687 200.29834 982.3187 200.29834Q981.6 200.29834 981.1625 200.90771Q980.6156 201.68896 980.6156 203.81396ZM987.1 208.04834L987.1 206.84521L988.3031 206.84521L988.3031 208.04834Q988.3031 208.70459 988.0687 209.11084Q987.83435 209.53271 987.33435 209.75146L987.0375 209.29834Q987.3656 209.15771 987.52185 208.86084Q987.6781 208.57959 987.70935 208.04834L987.1 208.04834ZM989.6 200.57959L989.6 199.56396L995.1625 199.56396L995.1625 200.39209Q994.35 201.26709 993.5375 202.72021Q992.7406 204.15771 992.3031 205.68896Q991.975 206.76709 991.89685 208.04834L990.8031 208.04834Q990.8187 207.03271 991.1937 205.59521Q991.58435 204.15771 992.2875 202.82959Q993.0062 201.50146 993.8187 200.57959L989.6 200.57959ZM996.5375 205.78271L997.6 205.64209Q997.77185 206.53271 998.20935 206.93896Q998.64685 207.32959 999.27185 207.32959Q1000.02185 207.32959 1000.5375 206.81396Q1001.0531 206.29834 1001.0531 205.53271Q1001.0531 204.81396 1000.5687 204.34521Q1000.1 203.86084 999.3656 203.86084Q999.0687 203.86084 998.6156 203.98584L998.7406 203.04834Q998.85 203.06396 998.9125 203.06396Q999.58435 203.06396 1000.1156 202.72021Q1000.6625 202.36084 1000.6625 201.62646Q1000.6625 201.04834 1000.27185 200.67334Q999.8812 200.28271 999.2562 200.28271Q998.64685 200.28271 998.225 200.67334Q997.8187 201.06396 997.70935 201.82959L996.64685 201.64209Q996.83435 200.59521 997.52185 200.01709Q998.20935 199.42334 999.225 199.42334Q999.9281 199.42334 1000.52185 199.73584Q1001.1156 200.03271 1001.4281 200.54834Q1001.7406 201.06396 1001.7406 201.65771Q1001.7406 202.20459 1001.4437 202.67334Q1001.14685 203.12646 1000.5687 203.39209Q1001.3187 203.56396 1001.7406 204.12646Q1002.1625 204.67334 1002.1625 205.51709Q1002.1625 206.64209 1001.33435 207.42334Q1000.52185 208.20459 999.27185 208.20459Q998.14685 208.20459 997.39685 207.53271Q996.64685 206.84521 996.5375 205.78271Z" fill-rule="nonzero"/><path stroke="#f2f2f2" stroke-width="3.0" stroke-linejoin="round" stroke-linecap="round" d="M187.4625 501.2573Q187.4625 499.72604 187.775 498.80417Q188.0875 497.86667 188.69687 497.36667Q189.32187 496.86667 190.25937 496.86667Q190.94687 496.86667 191.4625 497.14792Q191.99374 497.42917 192.3375 497.96042Q192.68124 498.47604 192.86874 499.22604Q193.05624 499.97604 193.05624 501.2573Q193.05624 502.77292 192.74374 503.6948Q192.44687 504.61667 191.82187 505.1323Q191.2125 505.6323 190.25937 505.6323Q189.025 505.6323 188.30624 504.74167Q187.4625 503.67917 187.4625 501.2573ZM188.54062 501.2573Q188.54062 503.36667 189.04062 504.0698Q189.54062 504.77292 190.25937 504.77292Q190.99374 504.77292 191.47812 504.0698Q191.97812 503.36667 191.97812 501.2573Q191.97812 499.1323 191.47812 498.4448Q190.99374 497.74167 190.24374 497.74167Q189.525 497.74167 189.0875 498.35104Q188.54062 499.1323 188.54062 501.2573ZM195.025 505.49167L195.025 504.28854L196.22812 504.28854L196.22812 505.49167Q196.22812 506.14792 195.99374 506.55417Q195.75937 506.97604 195.25937 507.1948L194.9625 506.74167Q195.29062 506.60104 195.44687 506.30417Q195.60312 506.02292 195.63437 505.49167L195.025 505.49167ZM201.43124 505.49167L200.38437 505.49167L200.38437 498.77292Q199.99374 499.1323 199.36874 499.5073Q198.75937 499.86667 198.275 500.03854L198.275 499.02292Q199.15 498.60104 199.80624 498.02292Q200.47812 497.42917 200.75937 496.86667L201.43124 496.86667L201.43124 505.49167ZM204.4625 503.24167L205.57187 503.14792Q205.69687 503.96042 206.13437 504.36667Q206.5875 504.77292 207.22812 504.77292Q207.97812 504.77292 208.50937 504.1948Q209.04062 503.61667 209.04062 502.67917Q209.04062 501.77292 208.525 501.2573Q208.025 500.72604 207.19687 500.72604Q206.69687 500.72604 206.275 500.96042Q205.86874 501.1948 205.63437 501.55417L204.65 501.42917L205.47812 497.02292L209.75937 497.02292L209.75937 498.02292L206.32187 498.02292L205.86874 500.33542Q206.63437 499.78854 207.47812 499.78854Q208.60312 499.78854 209.36874 500.5698Q210.15 501.35104 210.15 502.58542Q210.15 503.74167 209.47812 504.60104Q208.65 505.6323 207.22812 505.6323Q206.05624 505.6323 205.30624 504.97604Q204.57187 504.3198 204.4625 503.24167Z" fill-rule="nonzero"/><path fill="#000000" d="M187.4625 501.2573Q187.4625 499.72604 187.775 498.80417Q188.0875 497.86667 188.69687 497.36667Q189.32187 496.86667 190.25937 496.86667Q190.94687 496.86667 191.4625 497.14792Q191.99374 497.42917 192.3375 497.96042Q192.68124 498.47604 192.86874 499.22604Q193.05624 499.97604 193.05624 501.2573Q193.05624 502.77292 192.74374 503.6948Q192.44687 504.61667 191.82187 505.1323Q191.2125 505.6323 190.25937 505.6323Q189.025 505.6323 188.30624 504.74167Q187.4625 503.67917 187.4625 501.2573ZM188.54062 501.2573Q188.54062 503.36667 189.04062 504.0698Q189.54062 504.77292 190.25937 504.77292Q190.99374 504.77292 191.47812 504.0698Q191.97812 503.36667 191.97812 501.2573Q191.97812 499.1323 191.47812 498.4448Q190.99374 497.74167 190.24374 497.74167Q189.525 497.74167 189.0875 498.35104Q188.54062 499.1323 188.54062 501.2573ZM195.025 505.49167L195.025 504.28854L196.22812 504.28854L196.22812 505.49167Q196.22812 506.14792 195.99374 506.55417Q195.75937 506.97604 195.25937 507.1948L194.9625 506.74167Q195.29062 506.60104 195.44687 506.30417Q195.60312 506.02292 195.63437 505.49167L195.025 505.49167ZM201.43124 505.49167L200.38437 505.49167L200.38437 498.77292Q199.99374 499.1323 199.36874 499.5073Q198.75937 499.86667 198.275 500.03854L198.275 499.02292Q199.15 498.60104 199.80624 498.02292Q200.47812 497.42917 200.75937 496.86667L201.43124 496.86667L201.43124 505.49167ZM204.4625 503.24167L205.57187 503.14792Q205.69687 503.96042 206.13437 504.36667Q206.5875 504.77292 207.22812 504.77292Q207.97812 504.77292 208.50937 504.1948Q209.04062 503.61667 209.04062 502.67917Q209.04062 501.77292 208.525 501.2573Q208.025 500.72604 207.19687 500.72604Q206.69687 500.72604 206.275 500.96042Q205.86874 501.1948 205.63437 501.55417L204.65 501.42917L205.47812 497.02292L209.75937 497.02292L209.75937 498.02292L206.32187 498.02292L205.86874 500.33542Q206.63437 499.78854 207.47812 499.78854Q208.60312 499.78854 209.36874 500.5698Q210.15 501.35104 210.15 502.58542Q210.15 503.74167 209.47812 504.60104Q208.65 505.6323 207.22812 505.6323Q206.05624 505.6323 205.30624 504.97604Q204.57187 504.3198 204.4625 503.24167Z" fill-rule="nonzero"/><path stroke="#f2f2f2" stroke-width="3.0" stroke-linejoin="round" stroke-linecap="round" d="M451.4875 455.1023Q451.4875 453.57104 451.8 452.64917Q452.1125 451.71167 452.72186 451.21167Q453.34686 450.71167 454.28436 450.71167Q454.97186 450.71167 455.4875 450.99292Q456.01874 451.27417 456.3625 451.80542Q456.70624 452.32104 456.89374 453.07104Q457.08124 453.82104 457.08124 455.1023Q457.08124 456.61792 456.76874 457.5398Q456.47186 458.46167 455.84686 458.9773Q455.2375 459.4773 454.28436 459.4773Q453.05 459.4773 452.33124 458.58667Q451.4875 457.52417 451.4875 455.1023ZM452.5656 455.1023Q452.5656 457.21167 453.0656 457.9148Q453.5656 458.61792 454.28436 458.61792Q455.01874 458.61792 455.5031 457.9148Q456.0031 457.21167 456.0031 455.1023Q456.0031 452.9773 455.5031 452.2898Q455.01874 451.58667 454.26874 451.58667Q453.55 451.58667 453.1125 452.19604Q452.5656 452.9773 452.5656 455.1023ZM459.05 459.33667L459.05 458.13354L460.2531 458.13354L460.2531 459.33667Q460.2531 459.99292 460.01874 460.39917Q459.78436 460.82104 459.28436 461.0398L458.9875 460.58667Q459.3156 460.44604 459.47186 460.14917Q459.6281 459.86792 459.65936 459.33667L459.05 459.33667ZM467.03436 458.32104L467.03436 459.33667L461.34686 459.33667Q461.34686 458.96167 461.47186 458.6023Q461.6906 458.02417 462.15936 457.46167Q462.64374 456.89917 463.55 456.1648Q464.95624 455.00854 465.4406 454.33667Q465.9406 453.6648 465.9406 453.07104Q465.9406 452.44604 465.4875 452.02417Q465.03436 451.58667 464.3156 451.58667Q463.55 451.58667 463.09686 452.0398Q462.64374 452.49292 462.6281 453.30542L461.55 453.19604Q461.65936 451.9773 462.3781 451.3523Q463.1125 450.71167 464.34686 450.71167Q465.58124 450.71167 466.3 451.39917Q467.01874 452.08667 467.01874 453.1023Q467.01874 453.61792 466.8 454.11792Q466.59686 454.6023 466.09686 455.1648Q465.6125 455.71167 464.4875 456.6648Q463.53436 457.46167 463.2531 457.75854Q462.9875 458.0398 462.8156 458.32104L467.03436 458.32104ZM471.8625 459.33667L471.8625 457.27417L468.14374 457.27417L468.14374 456.30542L472.0656 450.74292L472.925 450.74292L472.925 456.30542L474.08124 456.30542L474.08124 457.27417L472.925 457.27417L472.925 459.33667L471.8625 459.33667ZM471.8625 456.30542L471.8625 452.44604L469.175 456.30542L471.8625 456.30542Z" fill-rule="nonzero"/><path fill="#000000" d="M451.4875 455.1023Q451.4875 453.57104 451.8 452.64917Q452.1125 451.71167 452.72186 451.21167Q453.34686 450.71167 454.28436 450.71167Q454.97186 450.71167 455.4875 450.99292Q456.01874 451.27417 456.3625 451.80542Q456.70624 452.32104 456.89374 453.07104Q457.08124 453.82104 457.08124 455.1023Q457.08124 456.61792 456.76874 457.5398Q456.47186 458.46167 455.84686 458.9773Q455.2375 459.4773 454.28436 459.4773Q453.05 459.4773 452.33124 458.58667Q451.4875 457.52417 451.4875 455.1023ZM452.5656 455.1023Q452.5656 457.21167 453.0656 457.9148Q453.5656 458.61792 454.28436 458.61792Q455.01874 458.61792 455.5031 457.9148Q456.0031 457.21167 456.0031 455.1023Q456.0031 452.9773 455.5031 452.2898Q455.01874 451.58667 454.26874 451.58667Q453.55 451.58667 453.1125 452.19604Q452.5656 452.9773 452.5656 455.1023ZM459.05 459.33667L459.05 458.13354L460.2531 458.13354L460.2531 459.33667Q460.2531 459.99292 460.01874 460.39917Q459.78436 460.82104 459.28436 461.0398L458.9875 460.58667Q459.3156 460.44604 459.47186 460.14917Q459.6281 459.86792 459.65936 459.33667L459.05 459.33667ZM467.03436 458.32104L467.03436 459.33667L461.34686 459.33667Q461.34686 458.96167 461.47186 458.6023Q461.6906 458.02417 462.15936 457.46167Q462.64374 456.89917 463.55 456.1648Q464.95624 455.00854 465.4406 454.33667Q465.9406 453.6648 465.9406 453.07104Q465.9406 452.44604 465.4875 452.02417Q465.03436 451.58667 464.3156 451.58667Q463.55 451.58667 463.09686 452.0398Q462.64374 452.49292 462.6281 453.30542L461.55 453.19604Q461.65936 451.9773 462.3781 451.3523Q463.1125 450.71167 464.34686 450.71167Q465.58124 450.71167 466.3 451.39917Q467.01874 452.08667 467.01874 453.1023Q467.01874 453.61792 466.8 454.11792Q466.59686 454.6023 466.09686 455.1648Q465.6125 455.71167 464.4875 456.6648Q463.53436 457.46167 463.2531 457.75854Q462.9875 458.0398 462.8156 458.32104L467.03436 458.32104ZM471.8625 459.33667L471.8625 457.27417L468.14374 457.27417L468.14374 456.30542L472.0656 450.74292L472.925 450.74292L472.925 456.30542L474.08124 456.30542L474.08124 457.27417L472.925 457.27417L472.925 459.33667L471.8625 459.33667ZM471.8625 456.30542L471.8625 452.44604L469.175 456.30542L471.8625 456.30542Z" fill-rule="nonzero"/><path stroke="#f2f2f2" stroke-width="3.0" stroke-linejoin="round" stroke-linecap="round" d="M715.5125 511.51395Q715.5125 509.9827 715.825 509.06082Q716.1375 508.12332 716.7469 507.62332Q717.3719 507.12332 718.3094 507.12332Q718.9969 507.12332 719.5125 507.40457Q720.04376 507.68582 720.3875 508.21707Q720.73126 508.7327 720.91876 509.4827Q721.10626 510.2327 721.10626 511.51395Q721.10626 513.0296 720.79376 513.9515Q720.4969 514.87335 719.8719 515.389Q719.2625 515.889 718.3094 515.889Q717.075 515.889 716.35626 514.99835Q715.5125 513.93585 715.5125 511.51395ZM716.59064 511.51395Q716.59064 513.62335 717.09064 514.3265Q717.59064 515.0296 718.3094 515.0296Q719.04376 515.0296 719.52814 514.3265Q720.02814 513.62335 720.02814 511.51395Q720.02814 509.38895 719.52814 508.70145Q719.04376 507.99832 718.29376 507.99832Q717.575 507.99832 717.1375 508.6077Q716.59064 509.38895 716.59064 511.51395ZM723.075 515.74835L723.075 514.5452L724.27814 514.5452L724.27814 515.74835Q724.27814 516.4046 724.04376 516.81085Q723.8094 517.2327 723.3094 517.4515L723.0125 516.99835Q723.34064 516.8577 723.4969 516.56085Q723.65314 516.2796 723.6844 515.74835L723.075 515.74835ZM729.48126 515.74835L728.4344 515.74835L728.4344 509.02957Q728.04376 509.38895 727.41876 509.76395Q726.8094 510.12332 726.325 510.2952L726.325 509.27957Q727.2 508.8577 727.85626 508.27957Q728.52814 507.68582 728.8094 507.12332L729.48126 507.12332L729.48126 515.74835ZM732.5125 513.4827L733.575 513.3421Q733.7469 514.2327 734.1844 514.639Q734.6219 515.0296 735.2469 515.0296Q735.9969 515.0296 736.5125 514.514Q737.02814 513.99835 737.02814 513.2327Q737.02814 512.514 736.54376 512.0452Q736.075 511.56082 735.34064 511.56082Q735.04376 511.56082 734.59064 511.68582L734.71564 510.74832Q734.825 510.76395 734.8875 510.76395Q735.5594 510.76395 736.09064 510.4202Q736.6375 510.06082 736.6375 509.32645Q736.6375 508.74832 736.2469 508.37332Q735.85626 507.9827 735.23126 507.9827Q734.6219 507.9827 734.2 508.37332Q733.79376 508.76395 733.6844 509.52957L732.6219 509.34207Q732.8094 508.2952 733.4969 507.71707Q734.1844 507.12332 735.2 507.12332Q735.90314 507.12332 736.4969 507.43582Q737.09064 507.7327 737.40314 508.24832Q737.71564 508.76395 737.71564 509.3577Q737.71564 509.90457 737.41876 510.37332Q737.1219 510.82645 736.54376 511.09207Q737.29376 511.26395 737.71564 511.82645Q738.1375 512.37335 738.1375 513.2171Q738.1375 514.3421 737.3094 515.12335Q736.4969 515.9046 735.2469 515.9046Q734.1219 515.9046 733.3719 515.2327Q732.6219 514.5452 732.5125 513.4827Z" fill-rule="nonzero"/><path fill="#000000" d="M715.5125 511.51398Q715.5125 509.98273 715.825 509.06085Q716.1375 508.12335 716.7469 507.62335Q717.3719 507.12335 718.3094 507.12335Q718.9969 507.12335 719.5125 507.4046Q720.04376 507.68585 720.3875 508.2171Q720.73126 508.73273 720.91876 509.48273Q721.10626 510.23273 721.10626 511.51398Q721.10626 513.0296 720.79376 513.9515Q720.4969 514.87335 719.8719 515.389Q719.2625 515.889 718.3094 515.889Q717.075 515.889 716.35626 514.99835Q715.5125 513.93585 715.5125 511.51398ZM716.59064 511.51398Q716.59064 513.62335 717.09064 514.3265Q717.59064 515.0296 718.3094 515.0296Q719.04376 515.0296 719.52814 514.3265Q720.02814 513.62335 720.02814 511.51398Q720.02814 509.38898 719.52814 508.70148Q719.04376 507.99835 718.29376 507.99835Q717.575 507.99835 717.1375 508.60773Q716.59064 509.38898 716.59064 511.51398ZM723.075 515.74835L723.075 514.5452L724.27814 514.5452L724.27814 515.74835Q724.27814 516.4046 724.04376 516.81085Q723.8094 517.2327 723.3094 517.4515L723.0125 516.99835Q723.34064 516.8577 723.4969 516.56085Q723.65314 516.2796 723.6844 515.74835L723.075 515.74835ZM729.48126 515.74835L728.4344 515.74835L728.4344 509.0296Q728.04376 509.38898 727.41876 509.76398Q726.8094 510.12335 726.325 510.29523L726.325 509.2796Q727.2 508.85773 727.85626 508.2796Q728.52814 507.68585 728.8094 507.12335L729.48126 507.12335L729.48126 515.74835ZM732.5125 513.4827L733.575 513.3421Q733.7469 514.2327 734.1844 514.639Q734.6219 515.0296 735.2469 515.0296Q735.9969 515.0296 736.5125 514.514Q737.02814 513.99835 737.02814 513.2327Q737.02814 512.514 736.54376 512.0452Q736.075 511.56085 735.34064 511.56085Q735.04376 511.56085 734.59064 511.68585L734.71564 510.74835Q734.825 510.76398 734.8875 510.76398Q735.5594 510.76398 736.09064 510.42023Q736.6375 510.06085 736.6375 509.32648Q736.6375 508.74835 736.2469 508.37335Q735.85626 507.98273 735.23126 507.98273Q734.6219 507.98273 734.2 508.37335Q733.79376 508.76398 733.6844 509.5296L732.6219 509.3421Q732.8094 508.29523 733.4969 507.7171Q734.1844 507.12335 735.2 507.12335Q735.90314 507.12335 736.4969 507.43585Q737.09064 507.73273 737.40314 508.24835Q737.71564 508.76398 737.71564 509.35773Q737.71564 509.9046 737.41876 510.37335Q737.1219 510.82648 736.54376 511.0921Q737.29376 511.26398 737.71564 511.82648Q738.1375 512.37335 738.1375 513.2171Q738.1375 514.3421 737.3094 515.12335Q736.4969 515.9046 735.2469 515.9046Q734.1219 515.9046 733.3719 515.2327Q732.6219 514.5452 732.5125 513.4827Z" fill-rule="nonzero"/><path stroke="#f2f2f2" stroke-width="3.0" stroke-linejoin="round" stroke-linecap="round" d="M979.5375 552.54065Q979.5375 551.0094 979.85 550.0875Q980.1625 549.15 980.77185 548.65Q981.39685 548.15 982.33435 548.15Q983.02185 548.15 983.5375 548.4313Q984.0687 548.7125 984.4125 549.2438Q984.7562 549.7594 984.9437 550.5094Q985.1312 551.2594 985.1312 552.54065Q985.1312 554.0563 984.8187 554.97815Q984.52185 555.9 983.89685 556.41565Q983.2875 556.91565 982.33435 556.91565Q981.1 556.91565 980.3812 556.025Q979.5375 554.9625 979.5375 552.54065ZM980.6156 552.54065Q980.6156 554.65 981.1156 555.35315Q981.6156 556.0563 982.33435 556.0563Q983.0687 556.0563 983.5531 555.35315Q984.0531 554.65 984.0531 552.54065Q984.0531 550.41565 983.5531 549.72815Q983.0687 549.025 982.3187 549.025Q981.6 549.025 981.1625 549.6344Q980.6156 550.41565 980.6156 552.54065ZM987.1 556.775L987.1 555.5719L988.3031 555.5719L988.3031 556.775Q988.3031 557.4313 988.0687 557.8375Q987.83435 558.2594 987.33435 558.47815L987.0375 558.025Q987.3656 557.8844 987.52185 557.5875Q987.6781 557.3063 987.70935 556.775L987.1 556.775ZM989.5375 552.54065Q989.5375 551.0094 989.85 550.0875Q990.1625 549.15 990.77185 548.65Q991.39685 548.15 992.33435 548.15Q993.02185 548.15 993.5375 548.4313Q994.0687 548.7125 994.4125 549.2438Q994.7562 549.7594 994.9437 550.5094Q995.1312 551.2594 995.1312 552.54065Q995.1312 554.0563 994.8187 554.97815Q994.52185 555.9 993.89685 556.41565Q993.2875 556.91565 992.33435 556.91565Q991.1 556.91565 990.3812 556.025Q989.5375 554.9625 989.5375 552.54065ZM990.6156 552.54065Q990.6156 554.65 991.1156 555.35315Q991.6156 556.0563 992.33435 556.0563Q993.0687 556.0563 993.5531 555.35315Q994.0531 554.65 994.0531 552.54065Q994.0531 550.41565 993.5531 549.72815Q993.0687 549.025 992.3187 549.025Q991.6 549.025 991.1625 549.6344Q990.6156 550.41565 990.6156 552.54065ZM996.5375 554.525L997.64685 554.4313Q997.77185 555.2438 998.20935 555.65Q998.6625 556.0563 999.3031 556.0563Q1000.0531 556.0563 1000.58435 555.47815Q1001.1156 554.9 1001.1156 553.9625Q1001.1156 553.0563 1000.6 552.54065Q1000.1 552.0094 999.27185 552.0094Q998.77185 552.0094 998.35 552.2438Q997.9437 552.47815 997.70935 552.8375L996.725 552.7125L997.5531 548.3063L1001.83435 548.3063L1001.83435 549.3063L998.39685 549.3063L997.9437 551.6188Q998.70935 551.0719 999.5531 551.0719Q1000.6781 551.0719 1001.4437 551.85315Q1002.225 552.6344 1002.225 553.8688Q1002.225 555.025 1001.5531 555.8844Q1000.725 556.91565 999.3031 556.91565Q998.1312 556.91565 997.3812 556.2594Q996.64685 555.60315 996.5375 554.525Z" fill-rule="nonzero"/><path fill="#000000" d="M979.5375 552.54065Q979.5375 551.0094 979.85 550.0875Q980.1625 549.15 980.77185 548.65Q981.39685 548.15 982.33435 548.15Q983.02185 548.15 983.5375 548.4313Q984.0687 548.7125 984.4125 549.2438Q984.7562 549.7594 984.9437 550.5094Q985.1312 551.2594 985.1312 552.54065Q985.1312 554.0563 984.8187 554.97815Q984.52185 555.9 983.89685 556.41565Q983.2875 556.91565 982.33435 556.91565Q981.1 556.91565 980.3812 556.025Q979.5375 554.9625 979.5375 552.54065ZM980.6156 552.54065Q980.6156 554.65 981.1156 555.35315Q981.6156 556.0563 982.33435 556.0563Q983.0687 556.0563 983.5531 555.35315Q984.0531 554.65 984.0531 552.54065Q984.0531 550.41565 983.5531 549.72815Q983.0687 549.025 982.3187 549.025Q981.6 549.025 981.1625 549.6344Q980.6156 550.41565 980.6156 552.54065ZM987.1 556.775L987.1 555.5719L988.3031 555.5719L988.3031 556.775Q988.3031 557.4313 988.0687 557.8375Q987.83435 558.2594 987.33435 558.47815L987.0375 558.025Q987.3656 557.8844 987.52185 557.5875Q987.6781 557.3063 987.70935 556.775L987.1 556.775ZM989.5375 552.54065Q989.5375 551.0094 989.85 550.0875Q990.1625 549.15 990.77185 548.65Q991.39685 548.15 992.33435 548.15Q993.02185 548.15 993.5375 548.4313Q994.0687 548.7125 994.4125 549.2438Q994.7562 549.7594 994.9437 550.5094Q995.1312 551.2594 995.1312 552.54065Q995.1312 554.0563 994.8187 554.97815Q994.52185 555.9 993.89685 556.41565Q993.2875 556.91565 992.33435 556.91565Q991.1 556.91565 990.3812 556.025Q989.5375 554.9625 989.5375 552.54065ZM990.6156 552.54065Q990.6156 554.65 991.1156 555.35315Q991.6156 556.0563 992.33435 556.0563Q993.0687 556.0563 993.5531 555.35315Q994.0531 554.65 994.0531 552.54065Q994.0531 550.41565 993.5531 549.72815Q993.0687 549.025 992.3187 549.025Q991.6 549.025 991.1625 549.6344Q990.6156 550.41565 990.6156 552.54065ZM996.5375 554.525L997.64685 554.4313Q997.77185 555.2438 998.20935 555.65Q998.6625 556.0563 999.3031 556.0563Q1000.0531 556.0563 1000.58435 555.47815Q1001.1156 554.9 1001.1156 553.9625Q1001.1156 553.0563 1000.6 552.54065Q1000.1 552.0094 999.27185 552.0094Q998.77185 552.0094 998.35 552.2438Q997.9437 552.47815 997.70935 552.8375L996.725 552.7125L997.5531 548.3063L1001.83435 548.3063L1001.83435 549.3063L998.39685 549.3063L997.9437 551.6188Q998.70935 551.0719 999.5531 551.0719Q1000.6781 551.0719 1001.4437 551.85315Q1002.225 552.6344 1002.225 553.8688Q1002.225 555.025 1001.5531 555.8844Q1000.725 556.91565 999.3031 556.91565Q998.1312 556.91565 997.3812 556.2594Q996.64685 555.60315 996.5375 554.525Z" fill-rule="nonzero"/><path fill="#000000" d="M577.71875 655.7292L579.15625 655.6042Q579.25 656.46356 579.625 657.02606Q580.0 657.57294 580.78125 657.9167Q581.5625 658.2448 582.53125 658.2448Q583.40625 658.2448 584.0625 657.9948Q584.7344 657.7292 585.0469 657.2917Q585.375 656.83856 585.375 656.3073Q585.375 655.76044 585.0625 655.3698Q584.75 654.96356 584.03125 654.6823Q583.5781 654.51044 582.0 654.13544Q580.4219 653.7448 579.78125 653.4167Q578.96875 652.9792 578.5625 652.3542Q578.15625 651.71356 578.15625 650.9167Q578.15625 650.0573 578.6406 649.3073Q579.1406 648.5417 580.0781 648.15106Q581.03125 647.76044 582.1875 647.76044Q583.46875 647.76044 584.4375 648.1823Q585.40625 648.58856 585.9219 649.38544Q586.4531 650.1823 586.5 651.1823L585.0469 651.2917Q584.9219 650.21356 584.25 649.6667Q583.5781 649.1042 582.25 649.1042Q580.875 649.1042 580.25 649.6042Q579.625 650.1042 579.625 650.82294Q579.625 651.4323 580.0625 651.83856Q580.5 652.2292 582.34375 652.65106Q584.2031 653.07294 584.8906 653.38544Q585.8906 653.83856 586.3594 654.5573Q586.84375 655.26044 586.84375 656.1823Q586.84375 657.08856 586.3125 657.90106Q585.7969 658.71356 584.8125 659.1667Q583.8281 659.6198 582.6094 659.6198Q581.0469 659.6198 580.0 659.1667Q578.9531 658.69794 578.34375 657.7917Q577.75 656.88544 577.71875 655.7292ZM589.03125 659.4167L589.03125 647.96356L590.4375 647.96356L590.4375 659.4167L589.03125 659.4167ZM592.53125 655.26044Q592.53125 652.96356 593.8125 651.8542Q594.8906 650.9323 596.4219 650.9323Q598.1406 650.9323 599.21875 652.0573Q600.3125 653.1667 600.3125 655.15106Q600.3125 656.7448 599.8281 657.6667Q599.34375 658.58856 598.4219 659.1042Q597.5156 659.6042 596.4219 659.6042Q594.6875 659.6042 593.6094 658.4948Q592.53125 657.3698 592.53125 655.26044ZM593.9844 655.26044Q593.9844 656.8542 594.6719 657.65106Q595.375 658.44794 596.4219 658.44794Q597.46875 658.44794 598.15625 657.65106Q598.8594 656.8542 598.8594 655.21356Q598.8594 653.6823 598.15625 652.88544Q597.46875 652.08856 596.4219 652.08856Q595.375 652.08856 594.6719 652.88544Q593.9844 653.6667 593.9844 655.26044ZM605.125 658.15106L605.3281 659.40106Q604.7344 659.52606 604.2656 659.52606Q603.5 659.52606 603.0781 659.2917Q602.65625 659.0417 602.4844 658.65106Q602.3125 658.2448 602.3125 656.9792L602.3125 652.21356L601.28125 652.21356L601.28125 651.1198L602.3125 651.1198L602.3125 649.0573L603.71875 648.21356L603.71875 651.1198L605.125 651.1198L605.125 652.21356L603.71875 652.21356L603.71875 657.0573Q603.71875 657.6667 603.78125 657.83856Q603.8594 658.01044 604.03125 658.1198Q604.2031 658.21356 604.5156 658.21356Q604.75 658.21356 605.125 658.15106ZM605.5 656.9323L606.8906 656.71356Q607.0 657.5573 607.53125 658.01044Q608.0781 658.44794 609.03125 658.44794Q610.0 658.44794 610.46875 658.0573Q610.9375 657.65106 610.9375 657.1198Q610.9375 656.65106 610.53125 656.3698Q610.2344 656.1823 609.09375 655.90106Q607.5469 655.51044 606.9375 655.2292Q606.34375 654.9323 606.03125 654.4323Q605.7344 653.9323 605.7344 653.32294Q605.7344 652.76044 605.9844 652.2917Q606.2344 651.82294 606.6719 651.51044Q607.0 651.26044 607.5625 651.1042Q608.1406 650.9323 608.78125 650.9323Q609.7656 650.9323 610.5 651.21356Q611.2344 651.4948 611.5781 651.9792Q611.9375 652.44794 612.0781 653.26044L610.7031 653.44794Q610.6094 652.8073 610.15625 652.44794Q609.7031 652.08856 608.8906 652.08856Q607.9219 652.08856 607.5 652.4167Q607.09375 652.7292 607.09375 653.15106Q607.09375 653.4323 607.2656 653.65106Q607.4375 653.8698 607.7969 654.02606Q608.0156 654.1042 609.0469 654.38544Q610.53125 654.77606 611.125 655.0417Q611.71875 655.2917 612.0469 655.77606Q612.3906 656.26044 612.3906 656.9792Q612.3906 657.6823 611.96875 658.3073Q611.5625 658.9167 610.78125 659.26044Q610.0156 659.6042 609.0469 659.6042Q607.4219 659.6042 606.5781 658.9323Q605.7344 658.26044 605.5 656.9323Z" fill-rule="nonzero"/><path fill="#595959" d="M37.45 600.1823Q37.45 598.65106 37.7625 597.7292Q38.075 596.7917 38.684376 596.2917Q39.309376 595.7917 40.246876 595.7917Q40.934376 595.7917 41.45 596.07294Q41.98125 596.3542 42.325 596.88544Q42.66875 597.40106 42.85625 598.15106Q43.04375 598.90106 43.04375 600.1823Q43.04375 601.69794 42.73125 602.6198Q42.434376 603.5417 41.809376 604.0573Q41.2 604.5573 40.246876 604.5573Q39.0125 604.5573 38.29375 603.6667Q37.45 602.6042 37.45 600.1823ZM38.528126 600.1823Q38.528126 602.2917 39.028126 602.9948Q39.528126 603.69794 40.246876 603.69794Q40.98125 603.69794 41.465626 602.9948Q41.965626 602.2917 41.965626 600.1823Q41.965626 598.0573 41.465626 597.3698Q40.98125 596.6667 40.23125 596.6667Q39.5125 596.6667 39.075 597.27606Q38.528126 598.0573 38.528126 600.1823ZM45.0125 604.4167L45.0125 603.21356L46.215626 603.21356L46.215626 604.4167Q46.215626 605.07294 45.98125 605.4792Q45.746876 605.90106 45.246876 606.1198L44.95 605.6667Q45.278126 605.52606 45.434376 605.2292Q45.590626 604.94794 45.621876 604.4167L45.0125 604.4167ZM47.45 600.1823Q47.45 598.65106 47.7625 597.7292Q48.075 596.7917 48.684376 596.2917Q49.309376 595.7917 50.246876 595.7917Q50.934376 595.7917 51.45 596.07294Q51.98125 596.3542 52.325 596.88544Q52.66875 597.40106 52.85625 598.15106Q53.04375 598.90106 53.04375 600.1823Q53.04375 601.69794 52.73125 602.6198Q52.434376 603.5417 51.809376 604.0573Q51.2 604.5573 50.246876 604.5573Q49.0125 604.5573 48.29375 603.6667Q47.45 602.6042 47.45 600.1823ZM48.528126 600.1823Q48.528126 602.2917 49.028126 602.9948Q49.528126 603.69794 50.246876 603.69794Q50.98125 603.69794 51.465626 602.9948Q51.965626 602.2917 51.965626 600.1823Q51.965626 598.0573 51.465626 597.3698Q50.98125 596.6667 50.23125 596.6667Q49.5125 596.6667 49.075 597.27606Q48.528126 598.0573 48.528126 600.1823ZM54.45 600.1823Q54.45 598.65106 54.7625 597.7292Q55.075 596.7917 55.684376 596.2917Q56.309376 595.7917 57.246876 595.7917Q57.934376 595.7917 58.45 596.07294Q58.98125 596.3542 59.325 596.88544Q59.66875 597.40106 59.85625 598.15106Q60.04375 598.90106 60.04375 600.1823Q60.04375 601.69794 59.73125 602.6198Q59.434376 603.5417 58.809376 604.0573Q58.2 604.5573 57.246876 604.5573Q56.0125 604.5573 55.29375 603.6667Q54.45 602.6042 54.45 600.1823ZM55.528126 600.1823Q55.528126 602.2917 56.028126 602.9948Q56.528126 603.69794 57.246876 603.69794Q57.98125 603.69794 58.465626 602.9948Q58.965626 602.2917 58.965626 600.1823Q58.965626 598.0573 58.465626 597.3698Q57.98125 596.6667 57.23125 596.6667Q56.5125 596.6667 56.075 597.27606Q55.528126 598.0573 55.528126 600.1823Z" fill-rule="nonzero"/><path fill="#595959" d="M37.45 471.97397Q37.45 470.44272 37.7625 469.52084Q38.075 468.58334 38.684376 468.08334Q39.309376 467.58334 40.246876 467.58334Q40.934376 467.58334 41.45 467.8646Q41.98125 468.14584 42.325 468.6771Q42.66875 469.19272 42.85625 469.94272Q43.04375 470.69272 43.04375 471.97397Q43.04375 473.4896 42.73125 474.41147Q42.434376 475.33334 41.809376 475.84897Q41.2 476.34897 40.246876 476.34897Q39.0125 476.34897 38.29375 475.45834Q37.45 474.39584 37.45 471.97397ZM38.528126 471.97397Q38.528126 474.08334 39.028126 474.78647Q39.528126 475.4896 40.246876 475.4896Q40.98125 475.4896 41.465626 474.78647Q41.965626 474.08334 41.965626 471.97397Q41.965626 469.84897 41.465626 469.16147Q40.98125 468.45834 40.23125 468.45834Q39.5125 468.45834 39.075 469.06772Q38.528126 469.84897 38.528126 471.97397ZM45.0125 476.20834L45.0125 475.00522L46.215626 475.00522L46.215626 476.20834Q46.215626 476.8646 45.98125 477.27084Q45.746876 477.69272 45.246876 477.91147L44.95 477.45834Q45.278126 477.31772 45.434376 477.02084Q45.590626 476.7396 45.621876 476.20834L45.0125 476.20834ZM52.996876 475.19272L52.996876 476.20834L47.309376 476.20834Q47.309376 475.83334 47.434376 475.47397Q47.653126 474.89584 48.121876 474.33334Q48.60625 473.77084 49.5125 473.03647Q50.91875 471.88022 51.403126 471.20834Q51.903126 470.53647 51.903126 469.94272Q51.903126 469.31772 51.45 468.89584Q50.996876 468.45834 50.278126 468.45834Q49.5125 468.45834 49.059376 468.91147Q48.60625 469.3646 48.590626 470.1771L47.5125 470.06772Q47.621876 468.84897 48.340626 468.22397Q49.075 467.58334 50.309376 467.58334Q51.54375 467.58334 52.2625 468.27084Q52.98125 468.95834 52.98125 469.97397Q52.98125 470.4896 52.7625 470.9896Q52.559376 471.47397 52.059376 472.03647Q51.575 472.58334 50.45 473.53647Q49.496876 474.33334 49.215626 474.63022Q48.95 474.91147 48.778126 475.19272L52.996876 475.19272ZM54.45 473.95834L55.559376 473.8646Q55.684376 474.6771 56.121876 475.08334Q56.575 475.4896 57.215626 475.4896Q57.965626 475.4896 58.496876 474.91147Q59.028126 474.33334 59.028126 473.39584Q59.028126 472.4896 58.5125 471.97397Q58.0125 471.44272 57.184376 471.44272Q56.684376 471.44272 56.2625 471.6771Q55.85625 471.91147 55.621876 472.27084L54.6375 472.14584L55.465626 467.7396L59.746876 467.7396L59.746876 468.7396L56.309376 468.7396L55.85625 471.0521Q56.621876 470.50522 57.465626 470.50522Q58.590626 470.50522 59.35625 471.28647Q60.1375 472.06772 60.1375 473.3021Q60.1375 474.45834 59.465626 475.31772Q58.6375 476.34897 57.215626 476.34897Q56.04375 476.34897 55.29375 475.69272Q54.559376 475.03647 54.45 473.95834Z" fill-rule="nonzero"/><path fill="#595959" d="M37.45 343.76562Q37.45 342.23438 37.7625 341.3125Q38.075 340.375 38.684376 339.875Q39.309376 339.375 40.246876 339.375Q40.934376 339.375 41.45 339.65625Q41.98125 339.9375 42.325 340.46875Q42.66875 340.98438 42.85625 341.73438Q43.04375 342.48438 43.04375 343.76562Q43.04375 345.28125 42.73125 346.20312Q42.434376 347.125 41.809376 347.64062Q41.2 348.14062 40.246876 348.14062Q39.0125 348.14062 38.29375 347.25Q37.45 346.1875 37.45 343.76562ZM38.528126 343.76562Q38.528126 345.875 39.028126 346.57812Q39.528126 347.28125 40.246876 347.28125Q40.98125 347.28125 41.465626 346.57812Q41.965626 345.875 41.965626 343.76562Q41.965626 341.64062 41.465626 340.95312Q40.98125 340.25 40.23125 340.25Q39.5125 340.25 39.075 340.85938Q38.528126 341.64062 38.528126 343.76562ZM45.0125 348.0L45.0125 346.79688L46.215626 346.79688L46.215626 348.0Q46.215626 348.65625 45.98125 349.0625Q45.746876 349.48438 45.246876 349.70312L44.95 349.25Q45.278126 349.10938 45.434376 348.8125Q45.590626 348.53125 45.621876 348.0L45.0125 348.0ZM47.45 345.75L48.559376 345.65625Q48.684376 346.46875 49.121876 346.875Q49.575 347.28125 50.215626 347.28125Q50.965626 347.28125 51.496876 346.70312Q52.028126 346.125 52.028126 345.1875Q52.028126 344.28125 51.5125 343.76562Q51.0125 343.23438 50.184376 343.23438Q49.684376 343.23438 49.2625 343.46875Q48.85625 343.70312 48.621876 344.0625L47.6375 343.9375L48.465626 339.53125L52.746876 339.53125L52.746876 340.53125L49.309376 340.53125L48.85625 342.84375Q49.621876 342.29688 50.465626 342.29688Q51.590626 342.29688 52.35625 343.07812Q53.1375 343.85938 53.1375 345.09375Q53.1375 346.25 52.465626 347.10938Q51.6375 348.14062 50.215626 348.14062Q49.04375 348.14062 48.29375 347.48438Q47.559376 346.82812 47.45 345.75ZM54.45 343.76562Q54.45 342.23438 54.7625 341.3125Q55.075 340.375 55.684376 339.875Q56.309376 339.375 57.246876 339.375Q57.934376 339.375 58.45 339.65625Q58.98125 339.9375 59.325 340.46875Q59.66875 340.98438 59.85625 341.73438Q60.04375 342.48438 60.04375 343.76562Q60.04375 345.28125 59.73125 346.20312Q59.434376 347.125 58.809376 347.64062Q58.2 348.14062 57.246876 348.14062Q56.0125 348.14062 55.29375 347.25Q54.45 346.1875 54.45 343.76562ZM55.528126 343.76562Q55.528126 345.875 56.028126 346.57812Q56.528126 347.28125 57.246876 347.28125Q57.98125 347.28125 58.465626 346.57812Q58.965626 345.875 58.965626 343.76562Q58.965626 341.64062 58.465626 340.95312Q57.98125 340.25 57.23125 340.25Q56.5125 340.25 56.075 340.85938Q55.528126 341.64062 55.528126 343.76562Z" fill-rule="nonzero"/><path fill="#595959" d="M37.45 215.5573Q37.45 214.02605 37.7625 213.10417Q38.075 212.16667 38.684376 211.66667Q39.309376 211.16667 40.246876 211.16667Q40.934376 211.16667 41.45 211.44792Q41.98125 211.72917 42.325 212.26042Q42.66875 212.77605 42.85625 213.52605Q43.04375 214.27605 43.04375 215.5573Q43.04375 217.07292 42.73125 217.9948Q42.434376 218.91667 41.809376 219.4323Q41.2 219.9323 40.246876 219.9323Q39.0125 219.9323 38.29375 219.04167Q37.45 217.97917 37.45 215.5573ZM38.528126 215.5573Q38.528126 217.66667 39.028126 218.3698Q39.528126 219.07292 40.246876 219.07292Q40.98125 219.07292 41.465626 218.3698Q41.965626 217.66667 41.965626 215.5573Q41.965626 213.4323 41.465626 212.7448Q40.98125 212.04167 40.23125 212.04167Q39.5125 212.04167 39.075 212.65105Q38.528126 213.4323 38.528126 215.5573ZM45.0125 219.79167L45.0125 218.58855L46.215626 218.58855L46.215626 219.79167Q46.215626 220.44792 45.98125 220.85417Q45.746876 221.27605 45.246876 221.4948L44.95 221.04167Q45.278126 220.90105 45.434376 220.60417Q45.590626 220.32292 45.621876 219.79167L45.0125 219.79167ZM47.5125 212.32292L47.5125 211.3073L53.075 211.3073L53.075 212.13542Q52.2625 213.01042 51.45 214.46355Q50.653126 215.90105 50.215626 217.4323Q49.8875 218.51042 49.809376 219.79167L48.715626 219.79167Q48.73125 218.77605 49.10625 217.33855Q49.496876 215.90105 50.2 214.57292Q50.91875 213.2448 51.73125 212.32292L47.5125 212.32292ZM54.45 217.54167L55.559376 217.44792Q55.684376 218.26042 56.121876 218.66667Q56.575 219.07292 57.215626 219.07292Q57.965626 219.07292 58.496876 218.4948Q59.028126 217.91667 59.028126 216.97917Q59.028126 216.07292 58.5125 215.5573Q58.0125 215.02605 57.184376 215.02605Q56.684376 215.02605 56.2625 215.26042Q55.85625 215.4948 55.621876 215.85417L54.6375 215.72917L55.465626 211.32292L59.746876 211.32292L59.746876 212.32292L56.309376 212.32292L55.85625 214.63542Q56.621876 214.08855 57.465626 214.08855Q58.590626 214.08855 59.35625 214.8698Q60.1375 215.65105 60.1375 216.88542Q60.1375 218.04167 59.465626 218.90105Q58.6375 219.9323 57.215626 219.9323Q56.04375 219.9323 55.29375 219.27605Q54.559376 218.6198 54.45 217.54167Z" fill-rule="nonzero"/><path fill="#595959" d="M41.41875 91.583336L40.371876 91.583336L40.371876 84.864586Q39.98125 85.22396 39.35625 85.59896Q38.746876 85.958336 38.2625 86.13021L38.2625 85.114586Q39.1375 84.69271 39.79375 84.114586Q40.465626 83.520836 40.746876 82.958336L41.41875 82.958336L41.41875 91.583336ZM45.0125 91.583336L45.0125 90.38021L46.215626 90.38021L46.215626 91.583336Q46.215626 92.239586 45.98125 92.645836Q45.746876 93.06771 45.246876 93.28646L44.95 92.833336Q45.278126 92.69271 45.434376 92.395836Q45.590626 92.114586 45.621876 91.583336L45.0125 91.583336ZM47.45 87.34896Q47.45 85.81771 47.7625 84.895836Q48.075 83.958336 48.684376 83.458336Q49.309376 82.958336 50.246876 82.958336Q50.934376 82.958336 51.45 83.239586Q51.98125 83.520836 52.325 84.052086Q52.66875 84.56771 52.85625 85.31771Q53.04375 86.06771 53.04375 87.34896Q53.04375 88.864586 52.73125 89.78646Q52.434376 90.708336 51.809376 91.22396Q51.2 91.72396 50.246876 91.72396Q49.0125 91.72396 48.29375 90.833336Q47.45 89.770836 47.45 87.34896ZM48.528126 87.34896Q48.528126 89.458336 49.028126 90.16146Q49.528126 90.864586 50.246876 90.864586Q50.98125 90.864586 51.465626 90.16146Q51.965626 89.458336 51.965626 87.34896Q51.965626 85.22396 51.465626 84.53646Q50.98125 83.833336 50.23125 83.833336Q49.5125 83.833336 49.075 84.44271Q48.528126 85.22396 48.528126 87.34896ZM54.45 87.34896Q54.45 85.81771 54.7625 84.895836Q55.075 83.958336 55.684376 83.458336Q56.309376 82.958336 57.246876 82.958336Q57.934376 82.958336 58.45 83.239586Q58.98125 83.520836 59.325 84.052086Q59.66875 84.56771 59.85625 85.31771Q60.04375 86.06771 60.04375 87.34896Q60.04375 88.864586 59.73125 89.78646Q59.434376 90.708336 58.809376 91.22396Q58.2 91.72396 57.246876 91.72396Q56.0125 91.72396 55.29375 90.833336Q54.45 89.770836 54.45 87.34896ZM55.528126 87.34896Q55.528126 89.458336 56.028126 90.16146Q56.528126 90.864586 57.246876 90.864586Q57.98125 90.864586 58.465626 90.16146Q58.965626 89.458336 58.965626 87.34896Q58.965626 85.22396 58.465626 84.53646Q57.98125 83.833336 57.23125 83.833336Q56.5125 83.833336 56.075 84.44271Q55.528126 85.22396 55.528126 87.34896Z" fill-rule="nonzero"/><path fill="#595959" d="M201.50937 616.40106L201.50937 617.4167L195.82187 617.4167Q195.82187 617.0417 195.94687 616.6823Q196.16562 616.1042 196.63437 615.5417Q197.11874 614.9792 198.025 614.2448Q199.43124 613.08856 199.91562 612.4167Q200.41562 611.7448 200.41562 611.15106Q200.41562 610.52606 199.9625 610.1042Q199.50937 609.6667 198.79062 609.6667Q198.025 609.6667 197.57187 610.1198Q197.11874 610.57294 197.10312 611.38544L196.025 611.27606Q196.13437 610.0573 196.85312 609.4323Q197.5875 608.7917 198.82187 608.7917Q200.05624 608.7917 200.775 609.4792Q201.49374 610.1667 201.49374 611.1823Q201.49374 611.69794 201.275 612.19794Q201.07187 612.6823 200.57187 613.2448Q200.0875 613.7917 198.9625 614.7448Q198.00937 615.5417 197.72812 615.83856Q197.4625 616.1198 197.29062 616.40106L201.50937 616.40106Z" fill-rule="nonzero"/><path fill="#595959" d="M463.3625 617.4167L463.3625 615.3542L459.64374 615.3542L459.64374 614.38544L463.5656 608.82294L464.425 608.82294L464.425 614.38544L465.58124 614.38544L465.58124 615.3542L464.425 615.3542L464.425 617.4167L463.3625 617.4167ZM463.3625 614.38544L463.3625 610.52606L460.675 614.38544L463.3625 614.38544Z" fill-rule="nonzero"/><path fill="#595959" d="M725.6375 612.76044Q724.98126 612.51044 724.65314 612.07294Q724.34064 611.6198 724.34064 611.01044Q724.34064 610.07294 725.0125 609.4323Q725.7 608.7917 726.8094 608.7917Q727.9344 608.7917 728.6219 609.44794Q729.3094 610.1042 729.3094 611.0417Q729.3094 611.63544 728.9969 612.07294Q728.6844 612.51044 728.04376 612.76044Q728.84064 613.01044 729.2469 613.58856Q729.65314 614.1667 729.65314 614.96356Q729.65314 616.0573 728.8719 616.8073Q728.10626 617.5573 726.825 617.5573Q725.5594 617.5573 724.77814 616.8073Q723.9969 616.0573 723.9969 614.9323Q723.9969 614.08856 724.41876 613.52606Q724.85626 612.96356 725.6375 612.76044ZM725.41876 610.96356Q725.41876 611.57294 725.8094 611.96356Q726.21564 612.3542 726.84064 612.3542Q727.45 612.3542 727.84064 611.9792Q728.23126 611.58856 728.23126 611.02606Q728.23126 610.44794 727.825 610.0573Q727.41876 609.65106 726.825 609.65106Q726.21564 609.65106 725.8094 610.0417Q725.41876 610.4323 725.41876 610.96356ZM725.09064 614.9323Q725.09064 615.38544 725.29376 615.8073Q725.5125 616.2292 725.9344 616.46356Q726.35626 616.69794 726.84064 616.69794Q727.59064 616.69794 728.075 616.21356Q728.575 615.7292 728.575 614.9792Q728.575 614.21356 728.075 613.71356Q727.575 613.21356 726.8094 613.21356Q726.0594 613.21356 725.575 613.71356Q725.09064 614.19794 725.09064 614.9323Z" fill-rule="nonzero"/><path fill="#595959" d="M988.5062 617.4167L987.45935 617.4167L987.45935 610.69794Q987.0687 611.0573 986.4437 611.4323Q985.83435 611.7917 985.35 611.96356L985.35 610.94794Q986.225 610.52606 986.8812 609.94794Q987.5531 609.3542 987.83435 608.7917L988.5062 608.7917L988.5062 617.4167ZM997.0062 610.9323L995.95935 611.01044Q995.8187 610.38544 995.5687 610.1042Q995.1312 609.65106 994.5062 609.65106Q994.0062 609.65106 993.6156 609.9323Q993.1312 610.3073 992.83435 611.01044Q992.5531 611.69794 992.5375 612.9792Q992.9125 612.40106 993.45935 612.1198Q994.02185 611.83856 994.6312 611.83856Q995.6781 611.83856 996.4125 612.6198Q997.1625 613.40106 997.1625 614.6198Q997.1625 615.4323 996.8031 616.13544Q996.45935 616.82294 995.85 617.19794Q995.2406 617.5573 994.475 617.5573Q993.14685 617.5573 992.3187 616.58856Q991.4906 615.6198 991.4906 613.40106Q991.4906 610.90106 992.4125 609.77606Q993.20935 608.7917 994.5687 608.7917Q995.58435 608.7917 996.225 609.3698Q996.8812 609.9323 997.0062 610.9323ZM992.70935 614.63544Q992.70935 615.1823 992.9281 615.6823Q993.1625 616.1667 993.5687 616.4323Q993.9906 616.69794 994.45935 616.69794Q995.1156 616.69794 995.6 616.1667Q996.08435 615.6198 996.08435 614.69794Q996.08435 613.8073 995.6 613.2917Q995.1312 612.77606 994.4125 612.77606Q993.6937 612.77606 993.1937 613.2917Q992.70935 613.8073 992.70935 614.63544Z" fill-rule="nonzero"/><path fill="#4285f4" d="M514.5 695.05C514.5 698.3637 511.81372 701.05 508.5 701.05C505.18628 701.05 502.5 698.3637 502.5 695.05C502.5 691.73627 505.18628 689.05 508.5 689.05C511.81372 689.05 514.5 691.73627 514.5 695.05Z" fill-rule="nonzero"/><path fill="#595959" d="M522.875 697.1906L523.90625 697.03436Q524.0 697.65936 524.3906 697.9875Q524.7969 698.3156 525.53125 698.3156Q526.25 698.3156 526.59375 698.03436Q526.9531 697.7375 526.9531 697.33124Q526.9531 696.97186 526.6406 696.76874Q526.4219 696.6281 525.5625 696.40936Q524.40625 696.1125 523.9531 695.90936Q523.5156 695.6906 523.28125 695.3156Q523.0469 694.9406 523.0469 694.47186Q523.0469 694.0656 523.2344 693.70624Q523.4219 693.34686 523.75 693.1125Q524.0 692.9406 524.4219 692.8156Q524.84375 692.6906 525.34375 692.6906Q526.0625 692.6906 526.6094 692.90936Q527.1719 693.1125 527.4375 693.47186Q527.7031 693.83124 527.7969 694.425L526.7656 694.5656Q526.7031 694.09686 526.3594 693.83124Q526.03125 693.55 525.40625 693.55Q524.6875 693.55 524.375 693.8Q524.0625 694.03436 524.0625 694.3625Q524.0625 694.5656 524.1875 694.72186Q524.3281 694.89374 524.59375 695.0031Q524.75 695.0656 525.53125 695.26874Q526.65625 695.58124 527.09375 695.76874Q527.53125 695.95624 527.78125 696.3156Q528.03125 696.675 528.03125 697.22186Q528.03125 697.7531 527.71875 698.22186Q527.4219 698.675 526.84375 698.9406Q526.2656 699.1906 525.53125 699.1906Q524.3125 699.1906 523.6719 698.6906Q523.0469 698.175 522.875 697.1906ZM529.2969 701.4406L529.2969 692.83124L530.25 692.83124L530.25 693.6281Q530.59375 693.15936 531.0156 692.925Q531.4531 692.6906 532.0625 692.6906Q532.8594 692.6906 533.46875 693.09686Q534.0781 693.5031 534.375 694.2531Q534.6875 695.0031 534.6875 695.89374Q534.6875 696.84686 534.34375 697.6125Q534.0156 698.3781 533.3594 698.78436Q532.7031 699.1906 531.9844 699.1906Q531.4531 699.1906 531.03125 698.97186Q530.6094 698.7375 530.34375 698.40936L530.34375 701.4406L529.2969 701.4406ZM530.25 695.97186Q530.25 697.175 530.7344 697.7531Q531.21875 698.3156 531.90625 698.3156Q532.6094 698.3156 533.1094 697.72186Q533.6094 697.1281 533.6094 695.8781Q533.6094 694.6906 533.125 694.1125Q532.6406 693.51874 531.9531 693.51874Q531.28125 693.51874 530.7656 694.14374Q530.25 694.76874 530.25 695.97186ZM540.5469 697.05L541.6406 697.175Q541.3906 698.1281 540.6875 698.65936Q539.9844 699.1906 538.90625 699.1906Q537.5469 699.1906 536.7344 698.34686Q535.9375 697.5031 535.9375 695.9875Q535.9375 694.425 536.75 693.5656Q537.5625 692.6906 538.84375 692.6906Q540.09375 692.6906 540.875 693.53436Q541.6719 694.3781 541.6719 695.925Q541.6719 696.01874 541.6719 696.20624L537.03125 696.20624Q537.09375 697.2375 537.6094 697.78436Q538.125 698.3156 538.90625 698.3156Q539.4844 698.3156 539.8906 698.01874Q540.3125 697.70624 540.5469 697.05ZM537.09375 695.34686L540.5625 695.34686Q540.5 694.55 540.1719 694.15936Q539.65625 693.55 538.8594 693.55Q538.125 693.55 537.625 694.03436Q537.1406 694.51874 537.09375 695.34686ZM547.5469 697.05L548.6406 697.175Q548.3906 698.1281 547.6875 698.65936Q546.9844 699.1906 545.90625 699.1906Q544.5469 699.1906 543.7344 698.34686Q542.9375 697.5031 542.9375 695.9875Q542.9375 694.425 543.75 693.5656Q544.5625 692.6906 545.84375 692.6906Q547.09375 692.6906 547.875 693.53436Q548.6719 694.3781 548.6719 695.925Q548.6719 696.01874 548.6719 696.20624L544.03125 696.20624Q544.09375 697.2375 544.6094 697.78436Q545.125 698.3156 545.90625 698.3156Q546.4844 698.3156 546.8906 698.01874Q547.3125 697.70624 547.5469 697.05ZM544.09375 695.34686L547.5625 695.34686Q547.5 694.55 547.1719 694.15936Q546.65625 693.55 545.8594 693.55Q545.125 693.55 544.625 694.03436Q544.1406 694.51874 544.09375 695.34686ZM554.3281 699.05L554.3281 698.26874Q553.7344 699.1906 552.59375 699.1906Q551.84375 699.1906 551.21875 698.78436Q550.59375 698.3625 550.25 697.6281Q549.90625 696.89374 549.90625 695.9406Q549.90625 695.01874 550.21875 694.2531Q550.53125 693.4875 551.15625 693.09686Q551.78125 692.6906 552.5469 692.6906Q553.1094 692.6906 553.5469 692.925Q553.9844 693.15936 554.2656 693.53436L554.2656 690.45624L555.3125 690.45624L555.3125 699.05L554.3281 699.05ZM551.0 695.9406Q551.0 697.14374 551.5 697.7375Q552.0 698.3156 552.6875 698.3156Q553.375 698.3156 553.8594 697.7531Q554.34375 697.1906 554.34375 696.03436Q554.34375 694.7531 553.84375 694.15936Q553.3594 693.5656 552.6406 693.5656Q551.9375 693.5656 551.46875 694.14374Q551.0 694.70624 551.0 695.9406ZM561.375 699.05L561.375 698.1281Q560.6406 699.1906 559.3906 699.1906Q558.84375 699.1906 558.3594 698.9875Q557.8906 698.76874 557.65625 698.45624Q557.4219 698.1281 557.3281 697.65936Q557.2656 697.3625 557.2656 696.675L557.2656 692.83124L558.3281 692.83124L558.3281 696.28436Q558.3281 697.09686 558.3906 697.39374Q558.4844 697.8 558.7969 698.05Q559.125 698.28436 559.6094 698.28436Q560.0781 698.28436 560.4844 698.05Q560.90625 697.8 561.0781 697.3781Q561.2656 696.95624 561.2656 696.15936L561.2656 692.83124L562.3125 692.83124L562.3125 699.05L561.375 699.05ZM564.2969 701.4406L564.2969 692.83124L565.25 692.83124L565.25 693.6281Q565.59375 693.15936 566.0156 692.925Q566.4531 692.6906 567.0625 692.6906Q567.8594 692.6906 568.46875 693.09686Q569.0781 693.5031 569.375 694.2531Q569.6875 695.0031 569.6875 695.89374Q569.6875 696.84686 569.34375 697.6125Q569.0156 698.3781 568.3594 698.78436Q567.7031 699.1906 566.9844 699.1906Q566.4531 699.1906 566.03125 698.97186Q565.6094 698.7375 565.34375 698.40936L565.34375 701.4406L564.2969 701.4406ZM565.25 695.97186Q565.25 697.175 565.7344 697.7531Q566.21875 698.3156 566.90625 698.3156Q567.6094 698.3156 568.1094 697.72186Q568.6094 697.1281 568.6094 695.8781Q568.6094 694.6906 568.125 694.1125Q567.6406 693.51874 566.9531 693.51874Q566.28125 693.51874 565.7656 694.14374Q565.25 694.76874 565.25 695.97186Z" fill-rule="nonzero"/><path fill="#34a853" d="M598.5 695.05C598.5 698.3637 595.8137 701.05 592.5 701.05C589.1863 701.05 586.5 698.3637 586.5 695.05C586.5 691.73627 589.1863 689.05 592.5 689.05C595.8137 689.05 598.5 691.73627 598.5 695.05Z" fill-rule="nonzero"/><path fill="#595959" d="M611.5469 697.05L612.6406 697.175Q612.3906 698.1281 611.6875 698.65936Q610.9844 699.1906 609.90625 699.1906Q608.5469 699.1906 607.7344 698.34686Q606.9375 697.5031 606.9375 695.9875Q606.9375 694.425 607.75 693.5656Q608.5625 692.6906 609.84375 692.6906Q611.09375 692.6906 611.875 693.53436Q612.6719 694.3781 612.6719 695.925Q612.6719 696.01874 612.6719 696.20624L608.03125 696.20624Q608.09375 697.2375 608.6094 697.78436Q609.125 698.3156 609.90625 698.3156Q610.4844 698.3156 610.8906 698.01874Q611.3125 697.70624 611.5469 697.05ZM608.09375 695.34686L611.5625 695.34686Q611.5 694.55 611.1719 694.15936Q610.65625 693.55 609.8594 693.55Q609.125 693.55 608.625 694.03436Q608.1406 694.51874 608.09375 695.34686ZM614.5469 699.05L614.5469 693.64374L613.6094 693.64374L613.6094 692.83124L614.5469 692.83124L614.5469 692.15936Q614.5469 691.53436 614.65625 691.2375Q614.8125 690.8156 615.1875 690.5656Q615.5781 690.3156 616.2656 690.3156Q616.71875 690.3156 617.25 690.425L617.09375 691.33124Q616.7656 691.28436 616.46875 691.28436Q615.9844 691.28436 615.78125 691.4875Q615.59375 691.6906 615.59375 692.2531L615.59375 692.83124L616.8125 692.83124L616.8125 693.64374L615.59375 693.64374L615.59375 699.05L614.5469 699.05ZM617.5469 699.05L617.5469 693.64374L616.6094 693.64374L616.6094 692.83124L617.5469 692.83124L617.5469 692.15936Q617.5469 691.53436 617.65625 691.2375Q617.8125 690.8156 618.1875 690.5656Q618.5781 690.3156 619.2656 690.3156Q619.71875 690.3156 620.25 690.425L620.09375 691.33124Q619.7656 691.28436 619.46875 691.28436Q618.9844 691.28436 618.78125 691.4875Q618.59375 691.6906 618.59375 692.2531L618.59375 692.83124L619.8125 692.83124L619.8125 693.64374L618.59375 693.64374L618.59375 699.05L617.5469 699.05ZM620.2969 691.675L620.2969 690.45624L621.3594 690.45624L621.3594 691.675L620.2969 691.675ZM620.2969 699.05L620.2969 692.83124L621.3594 692.83124L621.3594 699.05L620.2969 699.05ZM627.3594 696.76874L628.3906 696.90936Q628.21875 697.97186 627.5156 698.58124Q626.8125 699.1906 625.7969 699.1906Q624.5156 699.1906 623.7344 698.3625Q622.96875 697.51874 622.96875 695.95624Q622.96875 694.95624 623.2969 694.20624Q623.6406 693.4406 624.3125 693.0656Q625.0 692.6906 625.8125 692.6906Q626.8125 692.6906 627.4531 693.20624Q628.1094 693.70624 628.2969 694.65936L627.2656 694.8156Q627.125 694.1906 626.75 693.8781Q626.375 693.55 625.84375 693.55Q625.0469 693.55 624.5469 694.1281Q624.0469 694.6906 624.0469 695.925Q624.0469 697.1906 624.53125 697.7531Q625.0156 698.3156 625.78125 698.3156Q626.40625 698.3156 626.8125 697.9406Q627.2344 697.5656 627.3594 696.76874ZM629.2969 691.675L629.2969 690.45624L630.3594 690.45624L630.3594 691.675L629.2969 691.675ZM629.2969 699.05L629.2969 692.83124L630.3594 692.83124L630.3594 699.05L629.2969 699.05ZM636.5469 697.05L637.6406 697.175Q637.3906 698.1281 636.6875 698.65936Q635.9844 699.1906 634.90625 699.1906Q633.5469 699.1906 632.7344 698.34686Q631.9375 697.5031 631.9375 695.9875Q631.9375 694.425 632.75 693.5656Q633.5625 692.6906 634.84375 692.6906Q636.09375 692.6906 636.875 693.53436Q637.6719 694.3781 637.6719 695.925Q637.6719 696.01874 637.6719 696.20624L633.03125 696.20624Q633.09375 697.2375 633.6094 697.78436Q634.125 698.3156 634.90625 698.3156Q635.4844 698.3156 635.8906 698.01874Q636.3125 697.70624 636.5469 697.05ZM633.09375 695.34686L636.5625 695.34686Q636.5 694.55 636.1719 694.15936Q635.65625 693.55 634.8594 693.55Q634.125 693.55 633.625 694.03436Q633.1406 694.51874 633.09375 695.34686ZM639.2969 699.05L639.2969 692.83124L640.2344 692.83124L640.2344 693.70624Q640.9219 692.6906 642.21875 692.6906Q642.78125 692.6906 643.25 692.89374Q643.7344 693.09686 643.96875 693.425Q644.2031 693.7531 644.2969 694.1906Q644.34375 694.4875 644.34375 695.22186L644.34375 699.05L643.2969 699.05L643.2969 695.26874Q643.2969 694.6125 643.1719 694.3Q643.0469 693.9875 642.7344 693.8Q642.4219 693.59686 642.0 693.59686Q641.3281 693.59686 640.8281 694.03436Q640.34375 694.45624 640.34375 695.64374L640.34375 699.05L639.2969 699.05ZM650.3594 696.76874L651.3906 696.90936Q651.21875 697.97186 650.5156 698.58124Q649.8125 699.1906 648.7969 699.1906Q647.5156 699.1906 646.7344 698.3625Q645.96875 697.51874 645.96875 695.95624Q645.96875 694.95624 646.2969 694.20624Q646.6406 693.4406 647.3125 693.0656Q648.0 692.6906 648.8125 692.6906Q649.8125 692.6906 650.4531 693.20624Q651.1094 693.70624 651.2969 694.65936L650.2656 694.8156Q650.125 694.1906 649.75 693.8781Q649.375 693.55 648.84375 693.55Q648.0469 693.55 647.5469 694.1281Q647.0469 694.6906 647.0469 695.925Q647.0469 697.1906 647.53125 697.7531Q648.0156 698.3156 648.78125 698.3156Q649.40625 698.3156 649.8125 697.9406Q650.2344 697.5656 650.3594 696.76874ZM652.25 701.4406L652.125 700.45624Q652.46875 700.55 652.7344 700.55Q653.0781 700.55 653.28125 700.425Q653.5 700.3156 653.6406 700.1125Q653.7344 699.9406 653.96875 699.3156Q653.9844 699.2375 654.0625 699.0656L651.6875 692.83124L652.8281 692.83124L654.125 696.425Q654.375 697.1125 654.5781 697.8781Q654.7656 697.14374 655.0156 696.45624L656.34375 692.83124L657.3906 692.83124L655.03125 699.15936Q654.6406 700.175 654.4375 700.5656Q654.15625 701.09686 653.78125 701.33124Q653.4219 701.58124 652.9219 701.58124Q652.625 701.58124 652.25 701.4406Z" fill-rule="nonzero"/><path fill="#595959" d="M428.26562 51.95L428.26562 40.496876L433.34375 40.496876Q434.875 40.496876 435.67188 40.809376Q436.46875 41.10625 436.9375 41.8875Q437.42188 42.66875 437.42188 43.621876Q437.42188 44.840626 436.625 45.684376Q435.84375 46.5125 434.1875 46.73125Q434.79688 47.028126 435.10938 47.309376Q435.76562 47.91875 436.35938 48.825L438.35938 51.95L436.45312 51.95L434.9375 49.559376Q434.26562 48.528126 433.82812 47.98125Q433.40625 47.434376 433.0625 47.215626Q432.73438 46.996876 432.375 46.91875Q432.125 46.85625 431.53125 46.85625L429.78125 46.85625L429.78125 51.95L428.26562 51.95ZM429.78125 45.54375L433.03125 45.54375Q434.07812 45.54375 434.65625 45.340626Q435.25 45.121876 435.54688 44.653126Q435.85938 44.16875 435.85938 43.621876Q435.85938 42.809376 435.26562 42.29375Q434.67188 41.7625 433.40625 41.7625L429.78125 41.7625L429.78125 45.54375ZM439.53125 47.79375Q439.53125 45.496876 440.8125 44.3875Q441.89062 43.465626 443.42188 43.465626Q445.14062 43.465626 446.21875 44.590626Q447.3125 45.7 447.3125 47.684376Q447.3125 49.278126 446.82812 50.2Q446.34375 51.121876 445.42188 51.6375Q444.51562 52.1375 443.42188 52.1375Q441.6875 52.1375 440.60938 51.028126Q439.53125 49.903126 439.53125 47.79375ZM440.98438 47.79375Q440.98438 49.3875 441.67188 50.184376Q442.375 50.98125 443.42188 50.98125Q444.46875 50.98125 445.15625 50.184376Q445.85938 49.3875 445.85938 47.746876Q445.85938 46.215626 445.15625 45.41875Q444.46875 44.621876 443.42188 44.621876Q442.375 44.621876 441.67188 45.41875Q440.98438 46.2 440.98438 47.79375ZM448.53125 47.79375Q448.53125 45.496876 449.8125 44.3875Q450.89062 43.465626 452.42188 43.465626Q454.14062 43.465626 455.21875 44.590626Q456.3125 45.7 456.3125 47.684376Q456.3125 49.278126 455.82812 50.2Q455.34375 51.121876 454.42188 51.6375Q453.51562 52.1375 452.42188 52.1375Q450.6875 52.1375 449.60938 51.028126Q448.53125 49.903126 448.53125 47.79375ZM449.98438 47.79375Q449.98438 49.3875 450.67188 50.184376Q451.375 50.98125 452.42188 50.98125Q453.46875 50.98125 454.15625 50.184376Q454.85938 49.3875 454.85938 47.746876Q454.85938 46.215626 454.15625 45.41875Q453.46875 44.621876 452.42188 44.621876Q451.375 44.621876 450.67188 45.41875Q449.98438 46.2 449.98438 47.79375ZM458.0625 51.95L458.0625 43.653126L459.3125 43.653126L459.3125 44.809376Q459.70312 44.2 460.34375 43.840626Q461.0 43.465626 461.82812 43.465626Q462.75 43.465626 463.34375 43.85625Q463.9375 44.23125 464.17188 44.91875Q465.15625 43.465626 466.73438 43.465626Q467.96875 43.465626 468.625 44.153126Q469.29688 44.825 469.29688 46.246876L469.29688 51.95L467.90625 51.95L467.90625 46.715626Q467.90625 45.871876 467.76562 45.5125Q467.625 45.1375 467.26562 44.91875Q466.90625 44.684376 466.42188 44.684376Q465.54688 44.684376 464.96875 45.2625Q464.39062 45.840626 464.39062 47.121876L464.39062 51.95L462.98438 51.95L462.98438 46.559376Q462.98438 45.621876 462.64062 45.153126Q462.29688 44.684376 461.51562 44.684376Q460.92188 44.684376 460.42188 44.996876Q459.92188 45.309376 459.6875 45.91875Q459.46875 46.5125 459.46875 47.6375L459.46875 51.95L458.0625 51.95ZM474.71875 48.2625L476.15625 48.1375Q476.25 48.996876 476.625 49.559376Q477.0 50.10625 477.78125 50.45Q478.5625 50.778126 479.53125 50.778126Q480.40625 50.778126 481.0625 50.528126Q481.73438 50.2625 482.04688 49.825Q482.375 49.371876 482.375 48.840626Q482.375 48.29375 482.0625 47.903126Q481.75 47.496876 481.03125 47.215626Q480.57812 47.04375 479.0 46.66875Q477.42188 46.278126 476.78125 45.95Q475.96875 45.5125 475.5625 44.8875Q475.15625 44.246876 475.15625 43.45Q475.15625 42.590626 475.64062 41.840626Q476.14062 41.075 477.07812 40.684376Q478.03125 40.29375 479.1875 40.29375Q480.46875 40.29375 481.4375 40.715626Q482.40625 41.121876 482.92188 41.91875Q483.45312 42.715626 483.5 43.715626L482.04688 43.825Q481.92188 42.746876 481.25 42.2Q480.57812 41.6375 479.25 41.6375Q477.875 41.6375 477.25 42.1375Q476.625 42.6375 476.625 43.35625Q476.625 43.965626 477.0625 44.371876Q477.5 44.7625 479.34375 45.184376Q481.20312 45.60625 481.89062 45.91875Q482.89062 46.371876 483.35938 47.090626Q483.84375 47.79375 483.84375 48.715626Q483.84375 49.621876 483.3125 50.434376Q482.79688 51.246876 481.8125 51.7Q480.82812 52.153126 479.60938 52.153126Q478.04688 52.153126 477.0 51.7Q475.95312 51.23125 475.34375 50.325Q474.75 49.41875 474.71875 48.2625ZM486.0625 42.10625L486.0625 40.496876L487.46875 40.496876L487.46875 42.10625L486.0625 42.10625ZM486.0625 51.95L486.0625 43.653126L487.46875 43.653126L487.46875 51.95L486.0625 51.95ZM489.3125 51.95L489.3125 50.809376L494.59375 44.746876Q493.70312 44.79375 493.01562 44.79375L489.625 44.79375L489.625 43.653126L496.40625 43.653126L496.40625 44.575L491.92188 49.840626L491.04688 50.809376Q492.0 50.73125 492.82812 50.73125L496.65625 50.73125L496.65625 51.95L489.3125 51.95ZM503.73438 49.278126L505.1875 49.45Q504.84375 50.73125 503.90625 51.434376Q502.98438 52.1375 501.54688 52.1375Q499.71875 52.1375 498.65625 51.0125Q497.59375 49.8875 497.59375 47.871876Q497.59375 45.778126 498.67188 44.621876Q499.75 43.465626 501.46875 43.465626Q503.125 43.465626 504.17188 44.60625Q505.23438 45.73125 505.23438 47.778126Q505.23438 47.903126 505.23438 48.153126L499.04688 48.153126Q499.125 49.528126 499.8125 50.2625Q500.51562 50.98125 501.54688 50.98125Q502.32812 50.98125 502.875 50.575Q503.42188 50.16875 503.73438 49.278126ZM499.125 46.996876L503.75 46.996876Q503.65625 45.95 503.21875 45.434376Q502.54688 44.621876 501.48438 44.621876Q500.51562 44.621876 499.84375 45.278126Q499.1875 45.91875 499.125 46.996876ZM515.96875 51.95L514.5625 51.95L514.5625 42.98125Q514.0469 43.465626 513.21875 43.95Q512.40625 44.434376 511.75 44.684376L511.75 43.325Q512.9219 42.7625 513.7969 41.98125Q514.6875 41.184376 515.0625 40.45L515.96875 40.45L515.96875 51.95ZM526.96875 43.29375L525.5625 43.403126Q525.375 42.575 525.03125 42.2Q524.46875 41.60625 523.625 41.60625Q522.9531 41.60625 522.4531 41.98125Q521.78125 42.465626 521.3906 43.403126Q521.0156 44.325 521.0 46.04375Q521.5156 45.2625 522.25 44.8875Q522.9844 44.5125 523.78125 44.5125Q525.1875 44.5125 526.1719 45.559376Q527.1719 46.590626 527.1719 48.23125Q527.1719 49.309376 526.7031 50.23125Q526.2344 51.153126 525.4219 51.653126Q524.6094 52.153126 523.5781 52.153126Q521.8281 52.153126 520.71875 50.85625Q519.6094 49.559376 519.6094 46.590626Q519.6094 43.2625 520.8281 41.7625Q521.90625 40.45 523.71875 40.45Q525.0625 40.45 525.9219 41.215626Q526.7969 41.965626 526.96875 43.29375ZM521.21875 48.23125Q521.21875 48.965626 521.53125 49.6375Q521.84375 50.29375 522.3906 50.6375Q522.9531 50.98125 523.5625 50.98125Q524.4531 50.98125 525.09375 50.2625Q525.7344 49.54375 525.7344 48.309376Q525.7344 47.121876 525.09375 46.45Q524.46875 45.7625 523.5 45.7625Q522.5469 45.7625 521.875 46.45Q521.21875 47.121876 521.21875 48.23125ZM528.7656 41.996876L528.7656 40.6375L536.1719 40.6375L536.1719 41.73125Q535.0781 42.903126 534.0 44.840626Q532.9375 46.7625 532.34375 48.79375Q531.9219 50.23125 531.8125 51.95L530.3594 51.95Q530.3906 50.590626 530.8906 48.684376Q531.40625 46.7625 532.34375 44.996876Q533.2969 43.215626 534.375 41.996876L528.7656 41.996876ZM547.46875 50.91875Q546.6875 51.590626 545.96875 51.871876Q545.25 52.1375 544.4219 52.1375Q543.0469 52.1375 542.3125 51.465626Q541.5781 50.79375 541.5781 49.7625Q541.5781 49.153126 541.8594 48.653126Q542.1406 48.1375 542.5781 47.840626Q543.03125 47.528126 543.59375 47.371876Q544.0156 47.2625 544.84375 47.16875Q546.5469 46.965626 547.3594 46.684376Q547.3594 46.3875 547.3594 46.309376Q547.3594 45.45 546.96875 45.10625Q546.4219 44.621876 545.3594 44.621876Q544.375 44.621876 543.8906 44.98125Q543.4219 45.325 543.2031 46.2L541.8281 46.0125Q542.0156 45.1375 542.4375 44.590626Q542.875 44.04375 543.6875 43.7625Q544.5 43.465626 545.5625 43.465626Q546.625 43.465626 547.28125 43.715626Q547.9531 43.965626 548.2656 44.340626Q548.5781 44.715626 548.7031 45.29375Q548.78125 45.653126 548.78125 46.590626L548.78125 48.465626Q548.78125 50.434376 548.8594 50.95Q548.9531 51.465626 549.21875 51.95L547.75 51.95Q547.53125 51.5125 547.46875 50.91875ZM547.3594 47.778126Q546.59375 48.090626 545.0625 48.309376Q544.1875 48.434376 543.8281 48.590626Q543.46875 48.746876 543.2656 49.059376Q543.0781 49.35625 543.0781 49.715626Q543.0781 50.278126 543.5 50.653126Q543.9375 51.028126 544.75 51.028126Q545.5625 51.028126 546.1875 50.684376Q546.8281 50.325 547.125 49.7Q547.3594 49.23125 547.3594 48.29375L547.3594 47.778126ZM551.0625 51.95L551.0625 43.653126L552.3281 43.653126L552.3281 44.825Q553.2344 43.465626 554.96875 43.465626Q555.71875 43.465626 556.34375 43.73125Q556.96875 43.996876 557.28125 44.434376Q557.59375 44.871876 557.71875 45.48125Q557.7969 45.871876 557.7969 46.840626L557.7969 51.95L556.3906 51.95L556.3906 46.903126Q556.3906 46.04375 556.21875 45.621876Q556.0625 45.184376 555.6406 44.934376Q555.2344 44.684376 554.6719 44.684376Q553.7656 44.684376 553.1094 45.2625Q552.46875 45.825 552.46875 47.41875L552.46875 51.95L551.0625 51.95ZM565.4375 51.95L565.4375 50.903126Q564.65625 52.1375 563.125 52.1375Q562.125 52.1375 561.2969 51.590626Q560.46875 51.04375 560.0 50.059376Q559.5469 49.075 559.5469 47.809376Q559.5469 46.559376 559.9531 45.559376Q560.375 44.54375 561.2031 44.0125Q562.03125 43.465626 563.0625 43.465626Q563.8125 43.465626 564.3906 43.778126Q564.9844 44.090626 565.34375 44.60625L565.34375 40.496876L566.75 40.496876L566.75 51.95L565.4375 51.95ZM561.0 47.809376Q561.0 49.403126 561.6719 50.2Q562.34375 50.98125 563.25 50.98125Q564.1719 50.98125 564.8125 50.23125Q565.46875 49.465626 565.46875 47.91875Q565.46875 46.215626 564.8125 45.41875Q564.15625 44.621876 563.1875 44.621876Q562.25 44.621876 561.625 45.3875Q561.0 46.153126 561.0 47.809376ZM576.15625 51.95L576.15625 41.840626L572.375 41.840626L572.375 40.496876L581.4531 40.496876L581.4531 41.840626L577.6719 41.840626L577.6719 51.95L576.15625 51.95ZM583.0625 42.10625L583.0625 40.496876L584.46875 40.496876L584.46875 42.10625L583.0625 42.10625ZM583.0625 51.95L583.0625 43.653126L584.46875 43.653126L584.46875 51.95L583.0625 51.95ZM587.0625 51.95L587.0625 43.653126L588.3125 43.653126L588.3125 44.809376Q588.7031 44.2 589.34375 43.840626Q590.0 43.465626 590.8281 43.465626Q591.75 43.465626 592.34375 43.85625Q592.9375 44.23125 593.1719 44.91875Q594.15625 43.465626 595.7344 43.465626Q596.96875 43.465626 597.625 44.153126Q598.2969 44.825 598.2969 46.246876L598.2969 51.95L596.90625 51.95L596.90625 46.715626Q596.90625 45.871876 596.7656 45.5125Q596.625 45.1375 596.2656 44.91875Q595.90625 44.684376 595.4219 44.684376Q594.5469 44.684376 593.96875 45.2625Q593.3906 45.840626 593.3906 47.121876L593.3906 51.95L591.9844 51.95L591.9844 46.559376Q591.9844 45.621876 591.6406 45.153126Q591.2969 44.684376 590.5156 44.684376Q589.9219 44.684376 589.4219 44.996876Q588.9219 45.309376 588.6875 45.91875Q588.46875 46.5125 588.46875 47.6375L588.46875 51.95L587.0625 51.95ZM605.7344 49.278126L607.1875 49.45Q606.84375 50.73125 605.90625 51.434376Q604.9844 52.1375 603.5469 52.1375Q601.71875 52.1375 600.65625 51.0125Q599.59375 49.8875 599.59375 47.871876Q599.59375 45.778126 600.6719 44.621876Q601.75 43.465626 603.46875 43.465626Q605.125 43.465626 606.1719 44.60625Q607.2344 45.73125 607.2344 47.778126Q607.2344 47.903126 607.2344 48.153126L601.0469 48.153126Q601.125 49.528126 601.8125 50.2625Q602.5156 50.98125 603.5469 50.98125Q604.3281 50.98125 604.875 50.575Q605.4219 50.16875 605.7344 49.278126ZM601.125 46.996876L605.75 46.996876Q605.65625 45.95 605.21875 45.434376Q604.5469 44.621876 603.4844 44.621876Q602.5156 44.621876 601.84375 45.278126Q601.1875 45.91875 601.125 46.996876ZM612.71875 48.2625L614.15625 48.1375Q614.25 48.996876 614.625 49.559376Q615.0 50.10625 615.78125 50.45Q616.5625 50.778126 617.53125 50.778126Q618.40625 50.778126 619.0625 50.528126Q619.7344 50.2625 620.0469 49.825Q620.375 49.371876 620.375 48.840626Q620.375 48.29375 620.0625 47.903126Q619.75 47.496876 619.03125 47.215626Q618.5781 47.04375 617.0 46.66875Q615.4219 46.278126 614.78125 45.95Q613.96875 45.5125 613.5625 44.8875Q613.15625 44.246876 613.15625 43.45Q613.15625 42.590626 613.6406 41.840626Q614.1406 41.075 615.0781 40.684376Q616.03125 40.29375 617.1875 40.29375Q618.46875 40.29375 619.4375 40.715626Q620.40625 41.121876 620.9219 41.91875Q621.4531 42.715626 621.5 43.715626L620.0469 43.825Q619.9219 42.746876 619.25 42.2Q618.5781 41.6375 617.25 41.6375Q615.875 41.6375 615.25 42.1375Q614.625 42.6375 614.625 43.35625Q614.625 43.965626 615.0625 44.371876Q615.5 44.7625 617.34375 45.184376Q619.2031 45.60625 619.8906 45.91875Q620.8906 46.371876 621.3594 47.090626Q621.84375 47.79375 621.84375 48.715626Q621.84375 49.621876 621.3125 50.434376Q620.7969 51.246876 619.8125 51.7Q618.8281 52.153126 617.6094 52.153126Q616.0469 52.153126 615.0 51.7Q613.9531 51.23125 613.34375 50.325Q612.75 49.41875 612.71875 48.2625ZM627.125 50.684376L627.3281 51.934376Q626.7344 52.059376 626.2656 52.059376Q625.5 52.059376 625.0781 51.825Q624.65625 51.575 624.4844 51.184376Q624.3125 50.778126 624.3125 49.5125L624.3125 44.746876L623.28125 44.746876L623.28125 43.653126L624.3125 43.653126L624.3125 41.590626L625.71875 40.746876L625.71875 43.653126L627.125 43.653126L627.125 44.746876L625.71875 44.746876L625.71875 49.590626Q625.71875 50.2 625.78125 50.371876Q625.8594 50.54375 626.03125 50.653126Q626.2031 50.746876 626.5156 50.746876Q626.75 50.746876 627.125 50.684376ZM633.7344 49.278126L635.1875 49.45Q634.84375 50.73125 633.90625 51.434376Q632.9844 52.1375 631.5469 52.1375Q629.71875 52.1375 628.65625 51.0125Q627.59375 49.8875 627.59375 47.871876Q627.59375 45.778126 628.6719 44.621876Q629.75 43.465626 631.46875 43.465626Q633.125 43.465626 634.1719 44.60625Q635.2344 45.73125 635.2344 47.778126Q635.2344 47.903126 635.2344 48.153126L629.0469 48.153126Q629.125 49.528126 629.8125 50.2625Q630.5156 50.98125 631.5469 50.98125Q632.3281 50.98125 632.875 50.575Q633.4219 50.16875 633.7344 49.278126ZM629.125 46.996876L633.75 46.996876Q633.65625 45.95 633.21875 45.434376Q632.5469 44.621876 631.4844 44.621876Q630.5156 44.621876 629.84375 45.278126Q629.1875 45.91875 629.125 46.996876ZM637.0625 55.1375L637.0625 43.653126L638.34375 43.653126L638.34375 44.73125Q638.7969 44.090626 639.3594 43.778126Q639.9375 43.465626 640.75 43.465626Q641.8125 43.465626 642.625 44.0125Q643.4375 44.559376 643.84375 45.559376Q644.2656 46.54375 644.2656 47.73125Q644.2656 49.0125 643.7969 50.028126Q643.34375 51.04375 642.46875 51.590626Q641.6094 52.1375 640.6406 52.1375Q639.9375 52.1375 639.375 51.840626Q638.8281 51.54375 638.46875 51.090626L638.46875 55.1375L637.0625 55.1375ZM638.3281 47.840626Q638.3281 49.45 638.96875 50.215626Q639.625 50.98125 640.5469 50.98125Q641.4844 50.98125 642.15625 50.184376Q642.8281 49.3875 642.8281 47.73125Q642.8281 46.1375 642.1719 45.35625Q641.5156 44.559376 640.6094 44.559376Q639.71875 44.559376 639.0156 45.403126Q638.3281 46.246876 638.3281 47.840626ZM645.5 49.465626L646.8906 49.246876Q647.0 50.090626 647.53125 50.54375Q648.0781 50.98125 649.03125 50.98125Q650.0 50.98125 650.46875 50.590626Q650.9375 50.184376 650.9375 49.653126Q650.9375 49.184376 650.53125 48.903126Q650.2344 48.715626 649.09375 48.434376Q647.5469 48.04375 646.9375 47.7625Q646.34375 47.465626 646.03125 46.965626Q645.7344 46.465626 645.7344 45.85625Q645.7344 45.29375 645.9844 44.825Q646.2344 44.35625 646.6719 44.04375Q647.0 43.79375 647.5625 43.6375Q648.1406 43.465626 648.78125 43.465626Q649.7656 43.465626 650.5 43.746876Q651.2344 44.028126 651.5781 44.5125Q651.9375 44.98125 652.0781 45.79375L650.7031 45.98125Q650.6094 45.340626 650.15625 44.98125Q649.7031 44.621876 648.8906 44.621876Q647.9219 44.621876 647.5 44.95Q647.09375 45.2625 647.09375 45.684376Q647.09375 45.965626 647.2656 46.184376Q647.4375 46.403126 647.7969 46.559376Q648.0156 46.6375 649.0469 46.91875Q650.53125 47.309376 651.125 47.575Q651.71875 47.825 652.0469 48.309376Q652.3906 48.79375 652.3906 49.5125Q652.3906 50.215626 651.96875 50.840626Q651.5625 51.45 650.78125 51.79375Q650.0156 52.1375 649.0469 52.1375Q647.4219 52.1375 646.5781 51.465626Q645.7344 50.79375 645.5 49.465626ZM658.3125 51.95L658.3125 40.496876L666.0469 40.496876L666.0469 41.840626L659.8281 41.840626L659.8281 45.3875L665.2031 45.3875L665.2031 46.746876L659.8281 46.746876L659.8281 51.95L658.3125 51.95ZM673.46875 50.91875Q672.6875 51.590626 671.96875 51.871876Q671.25 52.1375 670.4219 52.1375Q669.0469 52.1375 668.3125 51.465626Q667.5781 50.79375 667.5781 49.7625Q667.5781 49.153126 667.8594 48.653126Q668.1406 48.1375 668.5781 47.840626Q669.03125 47.528126 669.59375 47.371876Q670.0156 47.2625 670.84375 47.16875Q672.5469 46.965626 673.3594 46.684376Q673.3594 46.3875 673.3594 46.309376Q673.3594 45.45 672.96875 45.10625Q672.4219 44.621876 671.3594 44.621876Q670.375 44.621876 669.8906 44.98125Q669.4219 45.325 669.2031 46.2L667.8281 46.0125Q668.0156 45.1375 668.4375 44.590626Q668.875 44.04375 669.6875 43.7625Q670.5 43.465626 671.5625 43.465626Q672.625 43.465626 673.28125 43.715626Q673.9531 43.965626 674.2656 44.340626Q674.5781 44.715626 674.7031 45.29375Q674.78125 45.653126 674.78125 46.590626L674.78125 48.465626Q674.78125 50.434376 674.8594 50.95Q674.9531 51.465626 675.21875 51.95L673.75 51.95Q673.53125 51.5125 673.46875 50.91875ZM673.3594 47.778126Q672.59375 48.090626 671.0625 48.309376Q670.1875 48.434376 669.8281 48.590626Q669.46875 48.746876 669.2656 49.059376Q669.0781 49.35625 669.0781 49.715626Q669.0781 50.278126 669.5 50.653126Q669.9375 51.028126 670.75 51.028126Q671.5625 51.028126 672.1875 50.684376Q672.8281 50.325 673.125 49.7Q673.3594 49.23125 673.3594 48.29375L673.3594 47.778126ZM682.46875 48.903126L683.8594 49.090626Q683.625 50.5125 682.6875 51.325Q681.7656 52.1375 680.40625 52.1375Q678.7031 52.1375 677.65625 51.028126Q676.625 49.903126 676.625 47.825Q676.625 46.48125 677.0625 45.48125Q677.5156 44.465626 678.4219 43.965626Q679.34375 43.465626 680.40625 43.465626Q681.7656 43.465626 682.625 44.153126Q683.4844 44.825 683.71875 46.090626L682.3594 46.29375Q682.15625 45.465626 681.65625 45.04375Q681.1719 44.621876 680.46875 44.621876Q679.40625 44.621876 678.7344 45.3875Q678.0781 46.1375 678.0781 47.79375Q678.0781 49.465626 678.71875 50.23125Q679.3594 50.98125 680.3906 50.98125Q681.21875 50.98125 681.7656 50.48125Q682.3281 49.965626 682.46875 48.903126ZM688.125 50.684376L688.3281 51.934376Q687.7344 52.059376 687.2656 52.059376Q686.5 52.059376 686.0781 51.825Q685.65625 51.575 685.4844 51.184376Q685.3125 50.778126 685.3125 49.5125L685.3125 44.746876L684.28125 44.746876L684.28125 43.653126L685.3125 43.653126L685.3125 41.590626L686.71875 40.746876L686.71875 43.653126L688.125 43.653126L688.125 44.746876L686.71875 44.746876L686.71875 49.590626Q686.71875 50.2 686.78125 50.371876Q686.8594 50.54375 687.03125 50.653126Q687.2031 50.746876 687.5156 50.746876Q687.75 50.746876 688.125 50.684376ZM688.53125 47.79375Q688.53125 45.496876 689.8125 44.3875Q690.8906 43.465626 692.4219 43.465626Q694.1406 43.465626 695.21875 44.590626Q696.3125 45.7 696.3125 47.684376Q696.3125 49.278126 695.8281 50.2Q695.34375 51.121876 694.4219 51.6375Q693.5156 52.1375 692.4219 52.1375Q690.6875 52.1375 689.6094 51.028126Q688.53125 49.903126 688.53125 47.79375ZM689.9844 47.79375Q689.9844 49.3875 690.6719 50.184376Q691.375 50.98125 692.4219 50.98125Q693.46875 50.98125 694.15625 50.184376Q694.8594 49.3875 694.8594 47.746876Q694.8594 46.215626 694.15625 45.41875Q693.46875 44.621876 692.4219 44.621876Q691.375 44.621876 690.6719 45.41875Q689.9844 46.2 689.9844 47.79375ZM698.0469 51.95L698.0469 43.653126L699.3125 43.653126L699.3125 44.903126Q699.7969 44.028126 700.2031 43.746876Q700.6094 43.465626 701.1094 43.465626Q701.8125 43.465626 702.5469 43.91875L702.0625 45.215626Q701.5469 44.91875 701.03125 44.91875Q700.5781 44.91875 700.2031 45.2Q699.84375 45.465626 699.6875 45.965626Q699.4531 46.715626 699.4531 47.60625L699.4531 51.95L698.0469 51.95ZM711.96875 51.95L710.5625 51.95L710.5625 42.98125Q710.0469 43.465626 709.21875 43.95Q708.40625 44.434376 707.75 44.684376L707.75 43.325Q708.9219 42.7625 709.7969 41.98125Q710.6875 41.184376 711.0625 40.45L711.96875 40.45L711.96875 51.95ZM715.6719 46.29375Q715.6719 44.2625 716.0781 43.028126Q716.5 41.79375 717.3281 41.121876Q718.15625 40.45 719.40625 40.45Q720.3281 40.45 721.0156 40.825Q721.71875 41.184376 722.1719 41.8875Q722.625 42.590626 722.875 43.590626Q723.1406 44.590626 723.1406 46.29375Q723.1406 48.309376 722.71875 49.559376Q722.3125 50.79375 721.4844 51.48125Q720.65625 52.153126 719.40625 52.153126Q717.75 52.153126 716.7969 50.95Q715.6719 49.528126 715.6719 46.29375ZM717.1094 46.29375Q717.1094 49.121876 717.7656 50.059376Q718.4375 50.98125 719.40625 50.98125Q720.375 50.98125 721.03125 50.04375Q721.6875 49.10625 721.6875 46.29375Q721.6875 43.465626 721.03125 42.54375Q720.375 41.60625 719.3906 41.60625Q718.4219 41.60625 717.84375 42.434376Q717.1094 43.48125 717.1094 46.29375ZM724.6719 46.29375Q724.6719 44.2625 725.0781 43.028126Q725.5 41.79375 726.3281 41.121876Q727.15625 40.45 728.40625 40.45Q729.3281 40.45 730.0156 40.825Q730.71875 41.184376 731.1719 41.8875Q731.625 42.590626 731.875 43.590626Q732.1406 44.590626 732.1406 46.29375Q732.1406 48.309376 731.71875 49.559376Q731.3125 50.79375 730.4844 51.48125Q729.65625 52.153126 728.40625 52.153126Q726.75 52.153126 725.7969 50.95Q724.6719 49.528126 724.6719 46.29375ZM726.1094 46.29375Q726.1094 49.121876 726.7656 50.059376Q727.4375 50.98125 728.40625 50.98125Q729.375 50.98125 730.03125 50.04375Q730.6875 49.10625 730.6875 46.29375Q730.6875 43.465626 730.03125 42.54375Q729.375 41.60625 728.3906 41.60625Q727.4219 41.60625 726.84375 42.434376Q726.1094 43.48125 726.1094 46.29375Z" fill-rule="nonzero"/></svg>