<svg version="1.1" viewBox="0.0 0.0 1160.0 749.0" fill="none" stroke="none" stroke-linecap="square" stroke-miterlimit="10" width="1160" height="749" xmlns:xlink="http://www.w3.org/1999/xlink" xmlns="http://www.w3.org/2000/svg"><path fill="#f2f2f2" d="M0 0L1160.0 0L1160.0 749.0L0 749.0L0 0Z" fill-rule="nonzero"/><path stroke="#262626" stroke-width="1.0" stroke-linecap="butt" d="M67.5 609.5L1122.5 609.5" fill-rule="nonzero"/><path stroke="#d9d9d9" stroke-width="1.0" stroke-linecap="butt" d="M67.5 505.5L1122.5 505.5" fill-rule="nonzero"/><path stroke="#d9d9d9" stroke-width="1.0" stroke-linecap="butt" d="M67.5 401.5L1122.5 401.5" fill-rule="nonzero"/><path stroke="#d9d9d9" stroke-width="1.0" stroke-linecap="butt" d="M67.5 296.5L1122.5 296.5" fill-rule="nonzero"/><path stroke="#d9d9d9" stroke-width="1.0" stroke-linecap="butt" d="M67.5 192.5L1122.5 192.5" fill-rule="nonzero"/><path stroke="#d9d9d9" stroke-width="1.0" stroke-linecap="butt" d="M67.5 88.5L1122.5 88.5" fill-rule="nonzero"/><path stroke="#e1e1e1" stroke-width="1.0" stroke-linecap="butt" d="M199.3375 504.67267L199.3375 488.67267" fill-rule="nonzero"/><path stroke="#e1e1e1" stroke-width="1.0" stroke-linecap="butt" d="M463.1125 208.65L463.1125 192.65" fill-rule="nonzero"/><path stroke="#e1e1e1" stroke-width="1.0" stroke-linecap="butt" d="M726.8875 208.65L726.8875 192.65" fill-rule="nonzero"/><path stroke="#e1e1e1" stroke-width="1.0" stroke-linecap="butt" d="M990.6625 116.92467L990.6625 100.92467" fill-rule="nonzero"/><path stroke="#e1e1e1" stroke-width="1.0" stroke-linecap="butt" d="M199.3375 531.04333L199.3375 547.04333" fill-rule="nonzero"/><path stroke="#e1e1e1" stroke-width="1.0" stroke-linecap="butt" d="M463.1125 489.35L463.1125 505.35" fill-rule="nonzero"/><path stroke="#e1e1e1" stroke-width="1.0" stroke-linecap="butt" d="M726.8875 539.382L726.8875 555.382" fill-rule="nonzero"/><path stroke="#e1e1e1" stroke-width="1.0" stroke-linecap="butt" d="M990.6625 560.22864L990.6625 576.22864" fill-rule="nonzero"/><clipPath id="id_0"><path d="M67.45 88.416664L1122.55 88.416664L1122.55 609.5833L67.45 609.5833L67.45 88.416664Z" clip-rule="nonzero"/></clipPath><path stroke="#4285f4" stroke-width="2.0" stroke-linecap="butt" clip-path="url(#id_0)" d="M199.3375 488.67267L463.1125 192.65L726.8875 192.65L990.6625 100.92467" fill-rule="nonzero"/><path stroke="#34a853" stroke-width="2.0" stroke-linecap="butt" clip-path="url(#id_0)" d="M199.3375 547.04333L463.1125 505.35L726.8875 555.382L990.6625 576.22864" fill-rule="nonzero"/><path fill="#4285f4" clip-path="url(#id_0)" d="M202.8375 488.67267C202.8375 490.60565 201.2705 492.17267 199.3375 492.17267C197.40451 492.17267 195.8375 490.60565 195.8375 488.67267C195.8375 486.7397 197.40451 485.17267 199.3375 485.17267C201.2705 485.17267 202.8375 486.7397 202.8375 488.67267Z" fill-rule="nonzero"/><path fill="#4285f4" clip-path="url(#id_0)" d="M466.6125 192.65C466.6125 194.583 465.0455 196.15 463.1125 196.15C461.1795 196.15 459.6125 194.583 459.6125 192.65C459.6125 190.71701 461.1795 189.15 463.1125 189.15C465.0455 189.15 466.6125 190.71701 466.6125 192.65Z" fill-rule="nonzero"/><path fill="#4285f4" clip-path="url(#id_0)" d="M730.3875 192.65C730.3875 194.583 728.8205 196.15 726.8875 196.15C724.9545 196.15 723.3875 194.583 723.3875 192.65C723.3875 190.71701 724.9545 189.15 726.8875 189.15C728.8205 189.15 730.3875 190.71701 730.3875 192.65Z" fill-rule="nonzero"/><path fill="#4285f4" clip-path="url(#id_0)" d="M994.1625 100.92467C994.1625 102.857666 992.5955 104.42467 990.6625 104.42467C988.7295 104.42467 987.1625 102.857666 987.1625 100.92467C987.1625 98.99167 988.7295 97.42467 990.6625 97.42467C992.5955 97.42467 994.1625 98.99167 994.1625 100.92467Z" fill-rule="nonzero"/><path fill="#34a853" clip-path="url(#id_0)" d="M202.8375 547.04333C202.8375 548.9763 201.2705 550.54333 199.3375 550.54333C197.40451 550.54333 195.8375 548.9763 195.8375 547.04333C195.8375 545.11035 197.40451 543.54333 199.3375 543.54333C201.2705 543.54333 202.8375 545.11035 202.8375 547.04333Z" fill-rule="nonzero"/><path fill="#34a853" clip-path="url(#id_0)" d="M466.6125 505.35C466.6125 507.283 465.0455 508.85 463.1125 508.85C461.1795 508.85 459.6125 507.283 459.6125 505.35C459.6125 503.417 461.1795 501.85 463.1125 501.85C465.0455 501.85 466.6125 503.417 466.6125 505.35Z" fill-rule="nonzero"/><path fill="#34a853" clip-path="url(#id_0)" d="M730.3875 555.382C730.3875 557.315 728.8205 558.882 726.8875 558.882C724.9545 558.882 723.3875 557.315 723.3875 555.382C723.3875 553.449 724.9545 551.882 726.8875 551.882C728.8205 551.882 730.3875 553.449 730.3875 555.382Z" fill-rule="nonzero"/><path fill="#34a853" clip-path="url(#id_0)" d="M994.1625 576.22864C994.1625 578.1617 992.5955 579.72864 990.6625 579.72864C988.7295 579.72864 987.1625 578.1617 987.1625 576.22864C987.1625 574.29565 988.7295 572.72864 990.6625 572.72864C992.5955 572.72864 994.1625 574.29565 994.1625 576.22864Z" fill-rule="nonzero"/><path stroke="#f2f2f2" stroke-width="3.0" stroke-linejoin="round" stroke-linecap="round" d="M187.8375 513.4383Q187.8375 511.90704 188.15 510.98517Q188.4625 510.04767 189.07187 509.54767Q189.69687 509.04767 190.63437 509.04767Q191.32187 509.04767 191.8375 509.32892Q192.36874 509.61017 192.7125 510.14142Q193.05624 510.65704 193.24374 511.40704Q193.43124 512.15704 193.43124 513.4383Q193.43124 514.9539 193.11874 515.8758Q192.82187 516.79767 192.19687 517.3133Q191.5875 517.8133 190.63437 517.8133Q189.4 517.8133 188.68124 516.92267Q187.8375 515.86017 187.8375 513.4383ZM188.91562 513.4383Q188.91562 515.54767 189.41562 516.2508Q189.91562 516.9539 190.63437 516.9539Q191.36874 516.9539 191.85312 516.2508Q192.35312 515.54767 192.35312 513.4383Q192.35312 511.3133 191.85312 510.6258Q191.36874 509.92267 190.61874 509.92267Q189.9 509.92267 189.4625 510.53204Q188.91562 511.3133 188.91562 513.4383ZM195.4 517.67267L195.4 516.46954L196.60312 516.46954L196.60312 517.67267Q196.60312 518.3289 196.36874 518.73517Q196.13437 519.15704 195.63437 519.3758L195.3375 518.92267Q195.66562 518.78204 195.82187 518.48517Q195.97812 518.2039 196.00937 517.67267L195.4 517.67267ZM203.38437 516.65704L203.38437 517.67267L197.69687 517.67267Q197.69687 517.29767 197.82187 516.9383Q198.04062 516.36017 198.50937 515.79767Q198.99374 515.23517 199.9 514.5008Q201.30624 513.34454 201.79062 512.67267Q202.29062 512.0008 202.29062 511.40704Q202.29062 510.78204 201.8375 510.36017Q201.38437 509.92267 200.66562 509.92267Q199.9 509.92267 199.44687 510.3758Q198.99374 510.82892 198.97812 511.64142L197.9 511.53204Q198.00937 510.3133 198.72812 509.6883Q199.4625 509.04767 200.69687 509.04767Q201.93124 509.04767 202.65 509.73517Q203.36874 510.42267 203.36874 511.4383Q203.36874 511.95392 203.15 512.4539Q202.94687 512.9383 202.44687 513.5008Q201.9625 514.04767 200.8375 515.0008Q199.88437 515.79767 199.60312 516.09454Q199.3375 516.3758 199.16562 516.65704L203.38437 516.65704ZM204.99374 515.6883L206.00937 515.59454Q206.13437 516.3133 206.49374 516.6414Q206.86874 516.9539 207.43124 516.9539Q207.91562 516.9539 208.275 516.73517Q208.65 516.5008 208.88437 516.1414Q209.11874 515.7664 209.275 515.1414Q209.43124 514.5008 209.43124 513.84454Q209.43124 513.7664 209.43124 513.6258Q209.11874 514.1258 208.57187 514.4539Q208.025 514.7664 207.38437 514.7664Q206.30624 514.7664 205.57187 514.0008Q204.8375 513.21954 204.8375 511.95392Q204.8375 510.64142 205.60312 509.84454Q206.38437 509.04767 207.54062 509.04767Q208.36874 509.04767 209.05624 509.5008Q209.75937 509.95392 210.11874 510.79767Q210.47812 511.6258 210.47812 513.2039Q210.47812 514.84454 210.11874 515.8289Q209.775 516.79767 209.05624 517.3133Q208.35312 517.8133 207.41562 517.8133Q206.4 517.8133 205.75937 517.2664Q205.11874 516.7039 204.99374 515.6883ZM209.30624 511.89142Q209.30624 510.98517 208.82187 510.45392Q208.35312 509.92267 207.66562 509.92267Q206.9625 509.92267 206.43124 510.5008Q205.91562 511.0633 205.91562 511.98517Q205.91562 512.79767 206.41562 513.3133Q206.91562 513.8289 207.63437 513.8289Q208.36874 513.8289 208.8375 513.3133Q209.30624 512.79767 209.30624 511.89142Z" fill-rule="nonzero"/><path fill="#000000" d="M187.8375 513.4383Q187.8375 511.90704 188.15 510.98517Q188.4625 510.04767 189.07187 509.54767Q189.69687 509.04767 190.63437 509.04767Q191.32187 509.04767 191.8375 509.32892Q192.36874 509.61017 192.7125 510.14142Q193.05624 510.65704 193.24374 511.40704Q193.43124 512.15704 193.43124 513.4383Q193.43124 514.9539 193.11874 515.8758Q192.82187 516.79767 192.19687 517.3133Q191.5875 517.8133 190.63437 517.8133Q189.4 517.8133 188.68124 516.92267Q187.8375 515.86017 187.8375 513.4383ZM188.91562 513.4383Q188.91562 515.54767 189.41562 516.2508Q189.91562 516.9539 190.63437 516.9539Q191.36874 516.9539 191.85312 516.2508Q192.35312 515.54767 192.35312 513.4383Q192.35312 511.3133 191.85312 510.6258Q191.36874 509.92267 190.61874 509.92267Q189.9 509.92267 189.4625 510.53204Q188.91562 511.3133 188.91562 513.4383ZM195.4 517.67267L195.4 516.46954L196.60312 516.46954L196.60312 517.67267Q196.60312 518.3289 196.36874 518.73517Q196.13437 519.15704 195.63437 519.3758L195.3375 518.92267Q195.66562 518.78204 195.82187 518.48517Q195.97812 518.2039 196.00937 517.67267L195.4 517.67267ZM203.38437 516.65704L203.38437 517.67267L197.69687 517.67267Q197.69687 517.29767 197.82187 516.9383Q198.04062 516.36017 198.50937 515.79767Q198.99374 515.23517 199.9 514.5008Q201.30624 513.34454 201.79062 512.67267Q202.29062 512.0008 202.29062 511.40704Q202.29062 510.78204 201.8375 510.36017Q201.38437 509.92267 200.66562 509.92267Q199.9 509.92267 199.44687 510.3758Q198.99374 510.82892 198.97812 511.64142L197.9 511.53204Q198.00937 510.3133 198.72812 509.6883Q199.4625 509.04767 200.69687 509.04767Q201.93124 509.04767 202.65 509.73517Q203.36874 510.42267 203.36874 511.4383Q203.36874 511.95392 203.15 512.4539Q202.94687 512.9383 202.44687 513.5008Q201.9625 514.04767 200.8375 515.0008Q199.88437 515.79767 199.60312 516.09454Q199.3375 516.3758 199.16562 516.65704L203.38437 516.65704ZM204.99374 515.6883L206.00937 515.59454Q206.13437 516.3133 206.49374 516.6414Q206.86874 516.9539 207.43124 516.9539Q207.91562 516.9539 208.275 516.73517Q208.65 516.5008 208.88437 516.1414Q209.11874 515.7664 209.275 515.1414Q209.43124 514.5008 209.43124 513.84454Q209.43124 513.7664 209.43124 513.6258Q209.11874 514.1258 208.57187 514.4539Q208.025 514.7664 207.38437 514.7664Q206.30624 514.7664 205.57187 514.0008Q204.8375 513.21954 204.8375 511.95392Q204.8375 510.64142 205.60312 509.84454Q206.38437 509.04767 207.54062 509.04767Q208.36874 509.04767 209.05624 509.5008Q209.75937 509.95392 210.11874 510.79767Q210.47812 511.6258 210.47812 513.2039Q210.47812 514.84454 210.11874 515.8289Q209.775 516.79767 209.05624 517.3133Q208.35312 517.8133 207.41562 517.8133Q206.4 517.8133 205.75937 517.2664Q205.11874 516.7039 204.99374 515.6883ZM209.30624 511.89142Q209.30624 510.98517 208.82187 510.45392Q208.35312 509.92267 207.66562 509.92267Q206.9625 509.92267 206.43124 510.5008Q205.91562 511.0633 205.91562 511.98517Q205.91562 512.79767 206.41562 513.3133Q206.91562 513.8289 207.63437 513.8289Q208.36874 513.8289 208.8375 513.3133Q209.30624 512.79767 209.30624 511.89142Z" fill-rule="nonzero"/><path stroke="#f2f2f2" stroke-width="3.0" stroke-linejoin="round" stroke-linecap="round" d="M464.08124 221.65L463.03436 221.65L463.03436 214.93124Q462.64374 215.29062 462.01874 215.66562Q461.40936 216.025 460.925 216.19687L460.925 215.18124Q461.8 214.75937 462.45624 214.18124Q463.1281 213.5875 463.40936 213.025L464.08124 213.025L464.08124 221.65Z" fill-rule="nonzero"/><path fill="#000000" d="M464.08124 221.65L463.03436 221.65L463.03436 214.93124Q462.64374 215.29062 462.01874 215.66562Q461.40936 216.025 460.925 216.19687L460.925 215.18124Q461.8 214.75937 462.45624 214.18124Q463.1281 213.5875 463.40936 213.025L464.08124 213.025L464.08124 221.65Z" fill-rule="nonzero"/><path stroke="#f2f2f2" stroke-width="3.0" stroke-linejoin="round" stroke-linecap="round" d="M727.85626 221.65L726.8094 221.65L726.8094 214.93124Q726.41876 215.29062 725.79376 215.66562Q725.1844 216.025 724.7 216.19687L724.7 215.18124Q725.575 214.75937 726.23126 214.18124Q726.90314 213.5875 727.1844 213.025L727.85626 213.025L727.85626 221.65Z" fill-rule="nonzero"/><path fill="#000000" d="M727.85626 221.65L726.8094 221.65L726.8094 214.93124Q726.41876 215.29062 725.79376 215.66562Q725.1844 216.025 724.7 216.19687L724.7 215.18124Q725.575 214.75937 726.23126 214.18124Q726.90314 213.5875 727.1844 213.025L727.85626 213.025L727.85626 221.65Z" fill-rule="nonzero"/><path stroke="#f2f2f2" stroke-width="3.0" stroke-linejoin="round" stroke-linecap="round" d="M983.1312 129.92467L982.08435 129.92467L982.08435 123.20592Q981.6937 123.56529 981.0687 123.94029Q980.45935 124.29967 979.975 124.47154L979.975 123.45592Q980.85 123.03404 981.5062 122.45592Q982.1781 121.86217 982.45935 121.29967L983.1312 121.29967L983.1312 129.92467ZM986.725 129.92467L986.725 128.72154L987.9281 128.72154L987.9281 129.92467Q987.9281 130.58092 987.6937 130.98717Q987.45935 131.40904 986.95935 131.62779L986.6625 131.17467Q986.9906 131.03404 987.14685 130.73717Q987.3031 130.45592 987.33435 129.92467L986.725 129.92467ZM994.70935 128.90904L994.70935 129.92467L989.02185 129.92467Q989.02185 129.54967 989.14685 129.19029Q989.3656 128.61217 989.83435 128.04967Q990.3187 127.48717 991.225 126.75279Q992.6312 125.59654 993.1156 124.92467Q993.6156 124.25279 993.6156 123.65904Q993.6156 123.03404 993.1625 122.61217Q992.70935 122.17467 991.9906 122.17467Q991.225 122.17467 990.77185 122.62779Q990.3187 123.08092 990.3031 123.89342L989.225 123.78404Q989.33435 122.56529 990.0531 121.94029Q990.7875 121.29967 992.02185 121.29967Q993.2562 121.29967 993.975 121.98717Q994.6937 122.67467 994.6937 123.69029Q994.6937 124.20592 994.475 124.70592Q994.27185 125.19029 993.77185 125.75279Q993.2875 126.29967 992.1625 127.25279Q991.20935 128.04967 990.9281 128.34654Q990.6625 128.62779 990.4906 128.90904L994.70935 128.90904ZM1001.70935 128.90904L1001.70935 129.92467L996.02185 129.92467Q996.02185 129.54967 996.14685 129.19029Q996.3656 128.61217 996.83435 128.04967Q997.3187 127.48717 998.225 126.75279Q999.6312 125.59654 1000.1156 124.92467Q1000.6156 124.25279 1000.6156 123.65904Q1000.6156 123.03404 1000.1625 122.61217Q999.70935 122.17467 998.9906 122.17467Q998.225 122.17467 997.77185 122.62779Q997.3187 123.08092 997.3031 123.89342L996.225 123.78404Q996.33435 122.56529 997.0531 121.94029Q997.7875 121.29967 999.02185 121.29967Q1000.2562 121.29967 1000.975 121.98717Q1001.6937 122.67467 1001.6937 123.69029Q1001.6937 124.20592 1001.475 124.70592Q1001.27185 125.19029 1000.77185 125.75279Q1000.2875 126.29967 999.1625 127.25279Q998.20935 128.04967 997.9281 128.34654Q997.6625 128.62779 997.4906 128.90904L1001.70935 128.90904Z" fill-rule="nonzero"/><path fill="#000000" d="M983.1312 129.92467L982.08435 129.92467L982.08435 123.20592Q981.6937 123.56529 981.0687 123.94029Q980.45935 124.29967 979.975 124.47154L979.975 123.45592Q980.85 123.03404 981.5062 122.45592Q982.1781 121.86217 982.45935 121.29967L983.1312 121.29967L983.1312 129.92467ZM986.725 129.92467L986.725 128.72154L987.9281 128.72154L987.9281 129.92467Q987.9281 130.58092 987.6937 130.98717Q987.45935 131.40904 986.95935 131.62779L986.6625 131.17467Q986.9906 131.03404 987.14685 130.73717Q987.3031 130.45592 987.33435 129.92467L986.725 129.92467ZM994.70935 128.90904L994.70935 129.92467L989.02185 129.92467Q989.02185 129.54967 989.14685 129.19029Q989.3656 128.61217 989.83435 128.04967Q990.3187 127.48717 991.225 126.75279Q992.6312 125.59654 993.1156 124.92467Q993.6156 124.25279 993.6156 123.65904Q993.6156 123.03404 993.1625 122.61217Q992.70935 122.17467 991.9906 122.17467Q991.225 122.17467 990.77185 122.62779Q990.3187 123.08092 990.3031 123.89342L989.225 123.78404Q989.33435 122.56529 990.0531 121.94029Q990.7875 121.29967 992.02185 121.29967Q993.2562 121.29967 993.975 121.98717Q994.6937 122.67467 994.6937 123.69029Q994.6937 124.20592 994.475 124.70592Q994.27185 125.19029 993.77185 125.75279Q993.2875 126.29967 992.1625 127.25279Q991.20935 128.04967 990.9281 128.34654Q990.6625 128.62779 990.4906 128.90904L994.70935 128.90904ZM1001.70935 128.90904L1001.70935 129.92467L996.02185 129.92467Q996.02185 129.54967 996.14685 129.19029Q996.3656 128.61217 996.83435 128.04967Q997.3187 127.48717 998.225 126.75279Q999.6312 125.59654 1000.1156 124.92467Q1000.6156 124.25279 1000.6156 123.65904Q1000.6156 123.03404 1000.1625 122.61217Q999.70935 122.17467 998.9906 122.17467Q998.225 122.17467 997.77185 122.62779Q997.3187 123.08092 997.3031 123.89342L996.225 123.78404Q996.33435 122.56529 997.0531 121.94029Q997.7875 121.29967 999.02185 121.29967Q1000.2562 121.29967 1000.975 121.98717Q1001.6937 122.67467 1001.6937 123.69029Q1001.6937 124.20592 1001.475 124.70592Q1001.27185 125.19029 1000.77185 125.75279Q1000.2875 126.29967 999.1625 127.25279Q998.20935 128.04967 997.9281 128.34654Q997.6625 128.62779 997.4906 128.90904L1001.70935 128.90904Z" fill-rule="nonzero"/><path stroke="#f2f2f2" stroke-width="3.0" stroke-linejoin="round" stroke-linecap="round" d="M187.8375 524.80896Q187.8375 523.2777 188.15 522.35583Q188.4625 521.41833 189.07187 520.91833Q189.69687 520.41833 190.63437 520.41833Q191.32187 520.41833 191.8375 520.6996Q192.36874 520.98083 192.7125 521.5121Q193.05624 522.0277 193.24374 522.7777Q193.43124 523.5277 193.43124 524.80896Q193.43124 526.3246 193.11874 527.24646Q192.82187 528.16833 192.19687 528.68396Q191.5875 529.18396 190.63437 529.18396Q189.4 529.18396 188.68124 528.29333Q187.8375 527.23083 187.8375 524.80896ZM188.91562 524.80896Q188.91562 526.91833 189.41562 527.62146Q189.91562 528.3246 190.63437 528.3246Q191.36874 528.3246 191.85312 527.62146Q192.35312 526.91833 192.35312 524.80896Q192.35312 522.68396 191.85312 521.99646Q191.36874 521.29333 190.61874 521.29333Q189.9 521.29333 189.4625 521.9027Q188.91562 522.68396 188.91562 524.80896ZM195.4 529.04333L195.4 527.8402L196.60312 527.8402L196.60312 529.04333Q196.60312 529.6996 196.36874 530.10583Q196.13437 530.5277 195.63437 530.74646L195.3375 530.29333Q195.66562 530.1527 195.82187 529.85583Q195.97812 529.5746 196.00937 529.04333L195.4 529.04333ZM201.80624 529.04333L200.75937 529.04333L200.75937 522.3246Q200.36874 522.68396 199.74374 523.05896Q199.13437 523.41833 198.65 523.5902L198.65 522.5746Q199.525 522.1527 200.18124 521.5746Q200.85312 520.98083 201.13437 520.41833L201.80624 520.41833L201.80624 529.04333ZM204.8375 526.79333L205.94687 526.6996Q206.07187 527.5121 206.50937 527.91833Q206.9625 528.3246 207.60312 528.3246Q208.35312 528.3246 208.88437 527.74646Q209.41562 527.16833 209.41562 526.23083Q209.41562 525.3246 208.9 524.80896Q208.4 524.2777 207.57187 524.2777Q207.07187 524.2777 206.65 524.5121Q206.24374 524.74646 206.00937 525.10583L205.025 524.98083L205.85312 520.5746L210.13437 520.5746L210.13437 521.5746L206.69687 521.5746L206.24374 523.8871Q207.00937 523.3402 207.85312 523.3402Q208.97812 523.3402 209.74374 524.12146Q210.525 524.9027 210.525 526.1371Q210.525 527.29333 209.85312 528.1527Q209.025 529.18396 207.60312 529.18396Q206.43124 529.18396 205.68124 528.5277Q204.94687 527.87146 204.8375 526.79333Z" fill-rule="nonzero"/><path fill="#000000" d="M187.8375 524.80896Q187.8375 523.2777 188.15 522.35583Q188.4625 521.41833 189.07187 520.91833Q189.69687 520.41833 190.63437 520.41833Q191.32187 520.41833 191.8375 520.6996Q192.36874 520.98083 192.7125 521.5121Q193.05624 522.0277 193.24374 522.7777Q193.43124 523.5277 193.43124 524.80896Q193.43124 526.3246 193.11874 527.24646Q192.82187 528.16833 192.19687 528.68396Q191.5875 529.18396 190.63437 529.18396Q189.4 529.18396 188.68124 528.29333Q187.8375 527.23083 187.8375 524.80896ZM188.91562 524.80896Q188.91562 526.91833 189.41562 527.62146Q189.91562 528.3246 190.63437 528.3246Q191.36874 528.3246 191.85312 527.62146Q192.35312 526.91833 192.35312 524.80896Q192.35312 522.68396 191.85312 521.99646Q191.36874 521.29333 190.61874 521.29333Q189.9 521.29333 189.4625 521.9027Q188.91562 522.68396 188.91562 524.80896ZM195.4 529.04333L195.4 527.8402L196.60312 527.8402L196.60312 529.04333Q196.60312 529.6996 196.36874 530.10583Q196.13437 530.5277 195.63437 530.74646L195.3375 530.29333Q195.66562 530.1527 195.82187 529.85583Q195.97812 529.5746 196.00937 529.04333L195.4 529.04333ZM201.80624 529.04333L200.75937 529.04333L200.75937 522.3246Q200.36874 522.68396 199.74374 523.05896Q199.13437 523.41833 198.65 523.5902L198.65 522.5746Q199.525 522.1527 200.18124 521.5746Q200.85312 520.98083 201.13437 520.41833L201.80624 520.41833L201.80624 529.04333ZM204.8375 526.79333L205.94687 526.6996Q206.07187 527.5121 206.50937 527.91833Q206.9625 528.3246 207.60312 528.3246Q208.35312 528.3246 208.88437 527.74646Q209.41562 527.16833 209.41562 526.23083Q209.41562 525.3246 208.9 524.80896Q208.4 524.2777 207.57187 524.2777Q207.07187 524.2777 206.65 524.5121Q206.24374 524.74646 206.00937 525.10583L205.025 524.98083L205.85312 520.5746L210.13437 520.5746L210.13437 521.5746L206.69687 521.5746L206.24374 523.8871Q207.00937 523.3402 207.85312 523.3402Q208.97812 523.3402 209.74374 524.12146Q210.525 524.9027 210.525 526.1371Q210.525 527.29333 209.85312 528.1527Q209.025 529.18396 207.60312 529.18396Q206.43124 529.18396 205.68124 528.5277Q204.94687 527.87146 204.8375 526.79333Z" fill-rule="nonzero"/><path stroke="#f2f2f2" stroke-width="3.0" stroke-linejoin="round" stroke-linecap="round" d="M451.6125 483.11563Q451.6125 481.58438 451.925 480.6625Q452.2375 479.725 452.84686 479.225Q453.47186 478.725 454.40936 478.725Q455.09686 478.725 455.6125 479.00626Q456.14374 479.2875 456.4875 479.81876Q456.83124 480.33438 457.01874 481.08438Q457.20624 481.83438 457.20624 483.11563Q457.20624 484.63126 456.89374 485.55313Q456.59686 486.475 455.97186 486.99063Q455.3625 487.49063 454.40936 487.49063Q453.175 487.49063 452.45624 486.6Q451.6125 485.5375 451.6125 483.11563ZM452.6906 483.11563Q452.6906 485.225 453.1906 485.92813Q453.6906 486.63126 454.40936 486.63126Q455.14374 486.63126 455.6281 485.92813Q456.1281 485.225 456.1281 483.11563Q456.1281 480.99063 455.6281 480.30313Q455.14374 479.6 454.39374 479.6Q453.675 479.6 453.2375 480.20938Q452.6906 480.99063 452.6906 483.11563ZM459.175 487.35L459.175 486.14688L460.3781 486.14688L460.3781 487.35Q460.3781 488.00626 460.14374 488.4125Q459.90936 488.83438 459.40936 489.05313L459.1125 488.6Q459.4406 488.45938 459.59686 488.1625Q459.7531 487.88126 459.78436 487.35L459.175 487.35ZM467.15936 486.33438L467.15936 487.35L461.47186 487.35Q461.47186 486.975 461.59686 486.61563Q461.8156 486.0375 462.28436 485.475Q462.76874 484.9125 463.675 484.17813Q465.08124 483.02188 465.5656 482.35Q466.0656 481.67813 466.0656 481.08438Q466.0656 480.45938 465.6125 480.0375Q465.15936 479.6 464.4406 479.6Q463.675 479.6 463.22186 480.05313Q462.76874 480.50626 462.7531 481.31876L461.675 481.20938Q461.78436 479.99063 462.5031 479.36563Q463.2375 478.725 464.47186 478.725Q465.70624 478.725 466.425 479.4125Q467.14374 480.1 467.14374 481.11563Q467.14374 481.63126 466.925 482.13126Q466.72186 482.61563 466.22186 483.17813Q465.7375 483.725 464.6125 484.67813Q463.65936 485.475 463.3781 485.77188Q463.1125 486.05313 462.9406 486.33438L467.15936 486.33438ZM468.6125 485.1L469.72186 485.00626Q469.84686 485.81876 470.28436 486.225Q470.7375 486.63126 471.3781 486.63126Q472.1281 486.63126 472.65936 486.05313Q473.1906 485.475 473.1906 484.5375Q473.1906 483.63126 472.675 483.11563Q472.175 482.58438 471.34686 482.58438Q470.84686 482.58438 470.425 482.81876Q470.01874 483.05313 469.78436 483.4125L468.8 483.2875L469.6281 478.88126L473.90936 478.88126L473.90936 479.88126L470.47186 479.88126L470.01874 482.19376Q470.78436 481.64688 471.6281 481.64688Q472.7531 481.64688 473.51874 482.42813Q474.3 483.20938 474.3 484.44376Q474.3 485.6 473.6281 486.45938Q472.8 487.49063 471.3781 487.49063Q470.20624 487.49063 469.45624 486.83438Q468.72186 486.17813 468.6125 485.1Z" fill-rule="nonzero"/><path fill="#000000" d="M451.6125 483.11563Q451.6125 481.58438 451.925 480.6625Q452.2375 479.725 452.84686 479.225Q453.47186 478.725 454.40936 478.725Q455.09686 478.725 455.6125 479.00626Q456.14374 479.2875 456.4875 479.81876Q456.83124 480.33438 457.01874 481.08438Q457.20624 481.83438 457.20624 483.11563Q457.20624 484.63126 456.89374 485.55313Q456.59686 486.475 455.97186 486.99063Q455.3625 487.49063 454.40936 487.49063Q453.175 487.49063 452.45624 486.6Q451.6125 485.5375 451.6125 483.11563ZM452.6906 483.11563Q452.6906 485.225 453.1906 485.92813Q453.6906 486.63126 454.40936 486.63126Q455.14374 486.63126 455.6281 485.92813Q456.1281 485.225 456.1281 483.11563Q456.1281 480.99063 455.6281 480.30313Q455.14374 479.6 454.39374 479.6Q453.675 479.6 453.2375 480.20938Q452.6906 480.99063 452.6906 483.11563ZM459.175 487.35L459.175 486.14688L460.3781 486.14688L460.3781 487.35Q460.3781 488.00626 460.14374 488.4125Q459.90936 488.83438 459.40936 489.05313L459.1125 488.6Q459.4406 488.45938 459.59686 488.1625Q459.7531 487.88126 459.78436 487.35L459.175 487.35ZM467.15936 486.33438L467.15936 487.35L461.47186 487.35Q461.47186 486.975 461.59686 486.61563Q461.8156 486.0375 462.28436 485.475Q462.76874 484.9125 463.675 484.17813Q465.08124 483.02188 465.5656 482.35Q466.0656 481.67813 466.0656 481.08438Q466.0656 480.45938 465.6125 480.0375Q465.15936 479.6 464.4406 479.6Q463.675 479.6 463.22186 480.05313Q462.76874 480.50626 462.7531 481.31876L461.675 481.20938Q461.78436 479.99063 462.5031 479.36563Q463.2375 478.725 464.47186 478.725Q465.70624 478.725 466.425 479.4125Q467.14374 480.1 467.14374 481.11563Q467.14374 481.63126 466.925 482.13126Q466.72186 482.61563 466.22186 483.17813Q465.7375 483.725 464.6125 484.67813Q463.65936 485.475 463.3781 485.77188Q463.1125 486.05313 462.9406 486.33438L467.15936 486.33438ZM468.6125 485.1L469.72186 485.00626Q469.84686 485.81876 470.28436 486.225Q470.7375 486.63126 471.3781 486.63126Q472.1281 486.63126 472.65936 486.05313Q473.1906 485.475 473.1906 484.5375Q473.1906 483.63126 472.675 483.11563Q472.175 482.58438 471.34686 482.58438Q470.84686 482.58438 470.425 482.81876Q470.01874 483.05313 469.78436 483.4125L468.8 483.2875L469.6281 478.88126L473.90936 478.88126L473.90936 479.88126L470.47186 479.88126L470.01874 482.19376Q470.78436 481.64688 471.6281 481.64688Q472.7531 481.64688 473.51874 482.42813Q474.3 483.20938 474.3 484.44376Q474.3 485.6 473.6281 486.45938Q472.8 487.49063 471.3781 487.49063Q470.20624 487.49063 469.45624 486.83438Q468.72186 486.17813 468.6125 485.1Z" fill-rule="nonzero"/><path stroke="#f2f2f2" stroke-width="3.0" stroke-linejoin="round" stroke-linecap="round" d="M715.3875 533.14764Q715.3875 531.6164 715.7 530.6945Q716.0125 529.757 716.6219 529.257Q717.2469 528.757 718.1844 528.757Q718.8719 528.757 719.3875 529.03827Q719.91876 529.3195 720.2625 529.85077Q720.60626 530.3664 720.79376 531.1164Q720.98126 531.8664 720.98126 533.14764Q720.98126 534.66327 720.66876 535.58514Q720.3719 536.507 719.7469 537.02264Q719.1375 537.52264 718.1844 537.52264Q716.95 537.52264 716.23126 536.632Q715.3875 535.5695 715.3875 533.14764ZM716.46564 533.14764Q716.46564 535.257 716.96564 535.96014Q717.46564 536.66327 718.1844 536.66327Q718.91876 536.66327 719.40314 535.96014Q719.90314 535.257 719.90314 533.14764Q719.90314 531.02264 719.40314 530.33514Q718.91876 529.632 718.16876 529.632Q717.45 529.632 717.0125 530.2414Q716.46564 531.02264 716.46564 533.14764ZM722.95 537.382L722.95 536.1789L724.15314 536.1789L724.15314 537.382Q724.15314 538.03827 723.91876 538.4445Q723.6844 538.8664 723.1844 539.08514L722.8875 538.632Q723.21564 538.4914 723.3719 538.1945Q723.52814 537.91327 723.5594 537.382L722.95 537.382ZM729.35626 537.382L728.3094 537.382L728.3094 530.66327Q727.91876 531.02264 727.29376 531.39764Q726.6844 531.757 726.2 531.9289L726.2 530.91327Q727.075 530.4914 727.73126 529.91327Q728.40314 529.3195 728.6844 528.757L729.35626 528.757L729.35626 537.382ZM732.3875 535.1164L733.45 534.97577Q733.6219 535.8664 734.0594 536.27264Q734.4969 536.66327 735.1219 536.66327Q735.8719 536.66327 736.3875 536.14764Q736.90314 535.632 736.90314 534.8664Q736.90314 534.14764 736.41876 533.6789Q735.95 533.1945 735.21564 533.1945Q734.91876 533.1945 734.46564 533.3195L734.59064 532.382Q734.7 532.39764 734.7625 532.39764Q735.4344 532.39764 735.96564 532.0539Q736.5125 531.6945 736.5125 530.96014Q736.5125 530.382 736.1219 530.007Q735.73126 529.6164 735.10626 529.6164Q734.4969 529.6164 734.075 530.007Q733.66876 530.39764 733.5594 531.16327L732.4969 530.97577Q732.6844 529.9289 733.3719 529.35077Q734.0594 528.757 735.075 528.757Q735.77814 528.757 736.3719 529.0695Q736.96564 529.3664 737.27814 529.882Q737.59064 530.39764 737.59064 530.9914Q737.59064 531.53827 737.29376 532.007Q736.9969 532.46014 736.41876 532.72577Q737.16876 532.89764 737.59064 533.46014Q738.0125 534.007 738.0125 534.85077Q738.0125 535.97577 737.1844 536.757Q736.3719 537.53827 735.1219 537.53827Q733.9969 537.53827 733.2469 536.8664Q732.4969 536.1789 732.3875 535.1164Z" fill-rule="nonzero"/><path fill="#000000" d="M715.3875 533.14764Q715.3875 531.6164 715.7 530.6945Q716.0125 529.757 716.6219 529.257Q717.2469 528.757 718.1844 528.757Q718.8719 528.757 719.3875 529.03827Q719.91876 529.3195 720.2625 529.85077Q720.60626 530.3664 720.79376 531.1164Q720.98126 531.8664 720.98126 533.14764Q720.98126 534.66327 720.66876 535.58514Q720.3719 536.507 719.7469 537.02264Q719.1375 537.52264 718.1844 537.52264Q716.95 537.52264 716.23126 536.632Q715.3875 535.5695 715.3875 533.14764ZM716.46564 533.14764Q716.46564 535.257 716.96564 535.96014Q717.46564 536.66327 718.1844 536.66327Q718.91876 536.66327 719.40314 535.96014Q719.90314 535.257 719.90314 533.14764Q719.90314 531.02264 719.40314 530.33514Q718.91876 529.632 718.16876 529.632Q717.45 529.632 717.0125 530.2414Q716.46564 531.02264 716.46564 533.14764ZM722.95 537.382L722.95 536.1789L724.15314 536.1789L724.15314 537.382Q724.15314 538.03827 723.91876 538.4445Q723.6844 538.8664 723.1844 539.08514L722.8875 538.632Q723.21564 538.4914 723.3719 538.1945Q723.52814 537.91327 723.5594 537.382L722.95 537.382ZM729.35626 537.382L728.3094 537.382L728.3094 530.66327Q727.91876 531.02264 727.29376 531.39764Q726.6844 531.757 726.2 531.9289L726.2 530.91327Q727.075 530.4914 727.73126 529.91327Q728.40314 529.3195 728.6844 528.757L729.35626 528.757L729.35626 537.382ZM732.3875 535.1164L733.45 534.97577Q733.6219 535.8664 734.0594 536.27264Q734.4969 536.66327 735.1219 536.66327Q735.8719 536.66327 736.3875 536.14764Q736.90314 535.632 736.90314 534.8664Q736.90314 534.14764 736.41876 533.6789Q735.95 533.1945 735.21564 533.1945Q734.91876 533.1945 734.46564 533.3195L734.59064 532.382Q734.7 532.39764 734.7625 532.39764Q735.4344 532.39764 735.96564 532.0539Q736.5125 531.6945 736.5125 530.96014Q736.5125 530.382 736.1219 530.007Q735.73126 529.6164 735.10626 529.6164Q734.4969 529.6164 734.075 530.007Q733.66876 530.39764 733.5594 531.16327L732.4969 530.97577Q732.6844 529.9289 733.3719 529.35077Q734.0594 528.757 735.075 528.757Q735.77814 528.757 736.3719 529.0695Q736.96564 529.3664 737.27814 529.882Q737.59064 530.39764 737.59064 530.9914Q737.59064 531.53827 737.29376 532.007Q736.9969 532.46014 736.41876 532.72577Q737.16876 532.89764 737.59064 533.46014Q738.0125 534.007 738.0125 534.85077Q738.0125 535.97577 737.1844 536.757Q736.3719 537.53827 735.1219 537.53827Q733.9969 537.53827 733.2469 536.8664Q732.4969 536.1789 732.3875 535.1164Z" fill-rule="nonzero"/><path stroke="#f2f2f2" stroke-width="3.0" stroke-linejoin="round" stroke-linecap="round" d="M979.1625 553.99426Q979.1625 552.463 979.475 551.54114Q979.7875 550.60364 980.39685 550.10364Q981.02185 549.60364 981.95935 549.60364Q982.64685 549.60364 983.1625 549.8849Q983.6937 550.16614 984.0375 550.6974Q984.3812 551.213 984.5687 551.963Q984.7562 552.713 984.7562 553.99426Q984.7562 555.5099 984.4437 556.43176Q984.14685 557.35364 983.52185 557.86926Q982.9125 558.36926 981.95935 558.36926Q980.725 558.36926 980.0062 557.47864Q979.1625 556.41614 979.1625 553.99426ZM980.2406 553.99426Q980.2406 556.10364 980.7406 556.80676Q981.2406 557.5099 981.95935 557.5099Q982.6937 557.5099 983.1781 556.80676Q983.6781 556.10364 983.6781 553.99426Q983.6781 551.86926 983.1781 551.18176Q982.6937 550.47864 981.9437 550.47864Q981.225 550.47864 980.7875 551.088Q980.2406 551.86926 980.2406 553.99426ZM986.725 558.22864L986.725 557.0255L987.9281 557.0255L987.9281 558.22864Q987.9281 558.8849 987.6937 559.29114Q987.45935 559.713 986.95935 559.93176L986.6625 559.47864Q986.9906 559.338 987.14685 559.04114Q987.3031 558.7599 987.33435 558.22864L986.725 558.22864ZM989.1625 553.99426Q989.1625 552.463 989.475 551.54114Q989.7875 550.60364 990.39685 550.10364Q991.02185 549.60364 991.95935 549.60364Q992.64685 549.60364 993.1625 549.8849Q993.6937 550.16614 994.0375 550.6974Q994.3812 551.213 994.5687 551.963Q994.7562 552.713 994.7562 553.99426Q994.7562 555.5099 994.4437 556.43176Q994.14685 557.35364 993.52185 557.86926Q992.9125 558.36926 991.95935 558.36926Q990.725 558.36926 990.0062 557.47864Q989.1625 556.41614 989.1625 553.99426ZM990.2406 553.99426Q990.2406 556.10364 990.7406 556.80676Q991.2406 557.5099 991.95935 557.5099Q992.6937 557.5099 993.1781 556.80676Q993.6781 556.10364 993.6781 553.99426Q993.6781 551.86926 993.1781 551.18176Q992.6937 550.47864 991.9437 550.47864Q991.225 550.47864 990.7875 551.088Q990.2406 551.86926 990.2406 553.99426ZM997.7875 553.5724Q997.1312 553.3224 996.8031 552.8849Q996.4906 552.43176 996.4906 551.8224Q996.4906 550.8849 997.1625 550.24426Q997.85 549.60364 998.95935 549.60364Q1000.08435 549.60364 1000.77185 550.2599Q1001.45935 550.91614 1001.45935 551.85364Q1001.45935 552.4474 1001.14685 552.8849Q1000.83435 553.3224 1000.1937 553.5724Q1000.9906 553.8224 1001.39685 554.4005Q1001.8031 554.97864 1001.8031 555.7755Q1001.8031 556.86926 1001.02185 557.61926Q1000.2562 558.36926 998.975 558.36926Q997.70935 558.36926 996.9281 557.61926Q996.14685 556.86926 996.14685 555.74426Q996.14685 554.9005 996.5687 554.338Q997.0062 553.7755 997.7875 553.5724ZM997.5687 551.7755Q997.5687 552.3849 997.95935 552.7755Q998.3656 553.16614 998.9906 553.16614Q999.6 553.16614 999.9906 552.79114Q1000.3812 552.4005 1000.3812 551.838Q1000.3812 551.2599 999.975 550.86926Q999.5687 550.463 998.975 550.463Q998.3656 550.463 997.95935 550.85364Q997.5687 551.24426 997.5687 551.7755ZM997.2406 555.74426Q997.2406 556.1974 997.4437 556.61926Q997.6625 557.04114 998.08435 557.2755Q998.5062 557.5099 998.9906 557.5099Q999.7406 557.5099 1000.225 557.0255Q1000.725 556.54114 1000.725 555.79114Q1000.725 555.0255 1000.225 554.5255Q999.725 554.0255 998.95935 554.0255Q998.20935 554.0255 997.725 554.5255Q997.2406 555.0099 997.2406 555.74426Z" fill-rule="nonzero"/><path fill="#000000" d="M979.1625 553.99426Q979.1625 552.463 979.475 551.54114Q979.7875 550.60364 980.39685 550.10364Q981.02185 549.60364 981.95935 549.60364Q982.64685 549.60364 983.1625 549.8849Q983.6937 550.16614 984.0375 550.6974Q984.3812 551.213 984.5687 551.963Q984.7562 552.713 984.7562 553.99426Q984.7562 555.5099 984.4437 556.43176Q984.14685 557.35364 983.52185 557.86926Q982.9125 558.36926 981.95935 558.36926Q980.725 558.36926 980.0062 557.47864Q979.1625 556.41614 979.1625 553.99426ZM980.2406 553.99426Q980.2406 556.10364 980.7406 556.80676Q981.2406 557.5099 981.95935 557.5099Q982.6937 557.5099 983.1781 556.80676Q983.6781 556.10364 983.6781 553.99426Q983.6781 551.86926 983.1781 551.18176Q982.6937 550.47864 981.9437 550.47864Q981.225 550.47864 980.7875 551.088Q980.2406 551.86926 980.2406 553.99426ZM986.725 558.22864L986.725 557.0255L987.9281 557.0255L987.9281 558.22864Q987.9281 558.8849 987.6937 559.29114Q987.45935 559.713 986.95935 559.93176L986.6625 559.47864Q986.9906 559.338 987.14685 559.04114Q987.3031 558.7599 987.33435 558.22864L986.725 558.22864ZM989.1625 553.99426Q989.1625 552.463 989.475 551.54114Q989.7875 550.60364 990.39685 550.10364Q991.02185 549.60364 991.95935 549.60364Q992.64685 549.60364 993.1625 549.8849Q993.6937 550.16614 994.0375 550.6974Q994.3812 551.213 994.5687 551.963Q994.7562 552.713 994.7562 553.99426Q994.7562 555.5099 994.4437 556.43176Q994.14685 557.35364 993.52185 557.86926Q992.9125 558.36926 991.95935 558.36926Q990.725 558.36926 990.0062 557.47864Q989.1625 556.41614 989.1625 553.99426ZM990.2406 553.99426Q990.2406 556.10364 990.7406 556.80676Q991.2406 557.5099 991.95935 557.5099Q992.6937 557.5099 993.1781 556.80676Q993.6781 556.10364 993.6781 553.99426Q993.6781 551.86926 993.1781 551.18176Q992.6937 550.47864 991.9437 550.47864Q991.225 550.47864 990.7875 551.088Q990.2406 551.86926 990.2406 553.99426ZM997.7875 553.5724Q997.1312 553.3224 996.8031 552.8849Q996.4906 552.43176 996.4906 551.8224Q996.4906 550.8849 997.1625 550.24426Q997.85 549.60364 998.95935 549.60364Q1000.08435 549.60364 1000.77185 550.2599Q1001.45935 550.91614 1001.45935 551.85364Q1001.45935 552.4474 1001.14685 552.8849Q1000.83435 553.3224 1000.1937 553.5724Q1000.9906 553.8224 1001.39685 554.4005Q1001.8031 554.97864 1001.8031 555.7755Q1001.8031 556.86926 1001.02185 557.61926Q1000.2562 558.36926 998.975 558.36926Q997.70935 558.36926 996.9281 557.61926Q996.14685 556.86926 996.14685 555.74426Q996.14685 554.9005 996.5687 554.338Q997.0062 553.7755 997.7875 553.5724ZM997.5687 551.7755Q997.5687 552.3849 997.95935 552.7755Q998.3656 553.16614 998.9906 553.16614Q999.6 553.16614 999.9906 552.79114Q1000.3812 552.4005 1000.3812 551.838Q1000.3812 551.2599 999.975 550.86926Q999.5687 550.463 998.975 550.463Q998.3656 550.463 997.95935 550.85364Q997.5687 551.24426 997.5687 551.7755ZM997.2406 555.74426Q997.2406 556.1974 997.4437 556.61926Q997.6625 557.04114 998.08435 557.2755Q998.5062 557.5099 998.9906 557.5099Q999.7406 557.5099 1000.225 557.0255Q1000.725 556.54114 1000.725 555.79114Q1000.725 555.0255 1000.225 554.5255Q999.725 554.0255 998.95935 554.0255Q998.20935 554.0255 997.725 554.5255Q997.2406 555.0099 997.2406 555.74426Z" fill-rule="nonzero"/><path fill="#000000" d="M577.71875 664.8958L579.15625 664.7708Q579.25 665.6302 579.625 666.1927Q580.0 666.73956 580.78125 667.0833Q581.5625 667.41144 582.53125 667.41144Q583.40625 667.41144 584.0625 667.16144Q584.7344 666.8958 585.0469 666.4583Q585.375 666.0052 585.375 665.47394Q585.375 664.92706 585.0625 664.53644Q584.75 664.1302 584.03125 663.84894Q583.5781 663.67706 582.0 663.30206Q580.4219 662.91144 579.78125 662.5833Q578.96875 662.1458 578.5625 661.5208Q578.15625 660.8802 578.15625 660.0833Q578.15625 659.22394 578.6406 658.47394Q579.1406 657.7083 580.0781 657.3177Q581.03125 656.92706 582.1875 656.92706Q583.46875 656.92706 584.4375 657.34894Q585.40625 657.7552 585.9219 658.55206Q586.4531 659.34894 586.5 660.34894L585.0469 660.4583Q584.9219 659.3802 584.25 658.8333Q583.5781 658.2708 582.25 658.2708Q580.875 658.2708 580.25 658.7708Q579.625 659.2708 579.625 659.98956Q579.625 660.59894 580.0625 661.0052Q580.5 661.3958 582.34375 661.8177Q584.2031 662.23956 584.8906 662.55206Q585.8906 663.0052 586.3594 663.72394Q586.84375 664.42706 586.84375 665.34894Q586.84375 666.2552 586.3125 667.0677Q585.7969 667.8802 584.8125 668.3333Q583.8281 668.78644 582.6094 668.78644Q581.0469 668.78644 580.0 668.3333Q578.9531 667.86456 578.34375 666.9583Q577.75 666.05206 577.71875 664.8958ZM589.03125 668.5833L589.03125 657.1302L590.4375 657.1302L590.4375 668.5833L589.03125 668.5833ZM592.53125 664.42706Q592.53125 662.1302 593.8125 661.0208Q594.8906 660.09894 596.4219 660.09894Q598.1406 660.09894 599.21875 661.22394Q600.3125 662.3333 600.3125 664.3177Q600.3125 665.91144 599.8281 666.8333Q599.34375 667.7552 598.4219 668.2708Q597.5156 668.7708 596.4219 668.7708Q594.6875 668.7708 593.6094 667.66144Q592.53125 666.53644 592.53125 664.42706ZM593.9844 664.42706Q593.9844 666.0208 594.6719 666.8177Q595.375 667.61456 596.4219 667.61456Q597.46875 667.61456 598.15625 666.8177Q598.8594 666.0208 598.8594 664.3802Q598.8594 662.84894 598.15625 662.05206Q597.46875 661.2552 596.4219 661.2552Q595.375 661.2552 594.6719 662.05206Q593.9844 662.8333 593.9844 664.42706ZM605.125 667.3177L605.3281 668.5677Q604.7344 668.6927 604.2656 668.6927Q603.5 668.6927 603.0781 668.4583Q602.65625 668.2083 602.4844 667.8177Q602.3125 667.41144 602.3125 666.1458L602.3125 661.3802L601.28125 661.3802L601.28125 660.28644L602.3125 660.28644L602.3125 658.22394L603.71875 657.3802L603.71875 660.28644L605.125 660.28644L605.125 661.3802L603.71875 661.3802L603.71875 666.22394Q603.71875 666.8333 603.78125 667.0052Q603.8594 667.17706 604.03125 667.28644Q604.2031 667.3802 604.5156 667.3802Q604.75 667.3802 605.125 667.3177ZM605.5 666.09894L606.8906 665.8802Q607.0 666.72394 607.53125 667.17706Q608.0781 667.61456 609.03125 667.61456Q610.0 667.61456 610.46875 667.22394Q610.9375 666.8177 610.9375 666.28644Q610.9375 665.8177 610.53125 665.53644Q610.2344 665.34894 609.09375 665.0677Q607.5469 664.67706 606.9375 664.3958Q606.34375 664.09894 606.03125 663.59894Q605.7344 663.09894 605.7344 662.48956Q605.7344 661.92706 605.9844 661.4583Q606.2344 660.98956 606.6719 660.67706Q607.0 660.42706 607.5625 660.2708Q608.1406 660.09894 608.78125 660.09894Q609.7656 660.09894 610.5 660.3802Q611.2344 660.66144 611.5781 661.1458Q611.9375 661.61456 612.0781 662.42706L610.7031 662.61456Q610.6094 661.97394 610.15625 661.61456Q609.7031 661.2552 608.8906 661.2552Q607.9219 661.2552 607.5 661.5833Q607.09375 661.8958 607.09375 662.3177Q607.09375 662.59894 607.2656 662.8177Q607.4375 663.03644 607.7969 663.1927Q608.0156 663.2708 609.0469 663.55206Q610.53125 663.9427 611.125 664.2083Q611.71875 664.4583 612.0469 664.9427Q612.3906 665.42706 612.3906 666.1458Q612.3906 666.84894 611.96875 667.47394Q611.5625 668.0833 610.78125 668.42706Q610.0156 668.7708 609.0469 668.7708Q607.4219 668.7708 606.5781 668.09894Q605.7344 667.42706 605.5 666.09894Z" fill-rule="nonzero"/><path fill="#595959" d="M37.95 609.34894Q37.95 607.8177 38.2625 606.8958Q38.575 605.9583 39.184376 605.4583Q39.809376 604.9583 40.746876 604.9583Q41.434376 604.9583 41.95 605.23956Q42.48125 605.5208 42.825 606.05206Q43.16875 606.5677 43.35625 607.3177Q43.54375 608.0677 43.54375 609.34894Q43.54375 610.86456 43.23125 611.78644Q42.934376 612.7083 42.309376 613.22394Q41.7 613.72394 40.746876 613.72394Q39.5125 613.72394 38.79375 612.8333Q37.95 611.7708 37.95 609.34894ZM39.028126 609.34894Q39.028126 611.4583 39.528126 612.16144Q40.028126 612.86456 40.746876 612.86456Q41.48125 612.86456 41.965626 612.16144Q42.465626 611.4583 42.465626 609.34894Q42.465626 607.22394 41.965626 606.53644Q41.48125 605.8333 40.73125 605.8333Q40.0125 605.8333 39.575 606.4427Q39.028126 607.22394 39.028126 609.34894ZM45.5125 613.5833L45.5125 612.3802L46.715626 612.3802L46.715626 613.5833Q46.715626 614.23956 46.48125 614.6458Q46.246876 615.0677 45.746876 615.28644L45.45 614.8333Q45.778126 614.6927 45.934376 614.3958Q46.090626 614.11456 46.121876 613.5833L45.5125 613.5833ZM47.95 609.34894Q47.95 607.8177 48.2625 606.8958Q48.575 605.9583 49.184376 605.4583Q49.809376 604.9583 50.746876 604.9583Q51.434376 604.9583 51.95 605.23956Q52.48125 605.5208 52.825 606.05206Q53.16875 606.5677 53.35625 607.3177Q53.54375 608.0677 53.54375 609.34894Q53.54375 610.86456 53.23125 611.78644Q52.934376 612.7083 52.309376 613.22394Q51.7 613.72394 50.746876 613.72394Q49.5125 613.72394 48.79375 612.8333Q47.95 611.7708 47.95 609.34894ZM49.028126 609.34894Q49.028126 611.4583 49.528126 612.16144Q50.028126 612.86456 50.746876 612.86456Q51.48125 612.86456 51.965626 612.16144Q52.465626 611.4583 52.465626 609.34894Q52.465626 607.22394 51.965626 606.53644Q51.48125 605.8333 50.73125 605.8333Q50.0125 605.8333 49.575 606.4427Q49.028126 607.22394 49.028126 609.34894ZM54.95 609.34894Q54.95 607.8177 55.2625 606.8958Q55.575 605.9583 56.184376 605.4583Q56.809376 604.9583 57.746876 604.9583Q58.434376 604.9583 58.95 605.23956Q59.48125 605.5208 59.825 606.05206Q60.16875 606.5677 60.35625 607.3177Q60.54375 608.0677 60.54375 609.34894Q60.54375 610.86456 60.23125 611.78644Q59.934376 612.7083 59.309376 613.22394Q58.7 613.72394 57.746876 613.72394Q56.5125 613.72394 55.79375 612.8333Q54.95 611.7708 54.95 609.34894ZM56.028126 609.34894Q56.028126 611.4583 56.528126 612.16144Q57.028126 612.86456 57.746876 612.86456Q58.48125 612.86456 58.965626 612.16144Q59.465626 611.4583 59.465626 609.34894Q59.465626 607.22394 58.965626 606.53644Q58.48125 605.8333 57.73125 605.8333Q57.0125 605.8333 56.575 606.4427Q56.028126 607.22394 56.028126 609.34894Z" fill-rule="nonzero"/><path fill="#595959" d="M37.95 505.11563Q37.95 503.58438 38.2625 502.6625Q38.575 501.725 39.184376 501.225Q39.809376 500.725 40.746876 500.725Q41.434376 500.725 41.95 501.00626Q42.48125 501.2875 42.825 501.81876Q43.16875 502.33438 43.35625 503.08438Q43.54375 503.83438 43.54375 505.11563Q43.54375 506.63126 43.23125 507.55313Q42.934376 508.475 42.309376 508.99063Q41.7 509.49063 40.746876 509.49063Q39.5125 509.49063 38.79375 508.6Q37.95 507.5375 37.95 505.11563ZM39.028126 505.11563Q39.028126 507.225 39.528126 507.92813Q40.028126 508.63126 40.746876 508.63126Q41.48125 508.63126 41.965626 507.92813Q42.465626 507.225 42.465626 505.11563Q42.465626 502.99063 41.965626 502.30313Q41.48125 501.6 40.73125 501.6Q40.0125 501.6 39.575 502.20938Q39.028126 502.99063 39.028126 505.11563ZM45.5125 509.35L45.5125 508.14688L46.715626 508.14688L46.715626 509.35Q46.715626 510.00626 46.48125 510.4125Q46.246876 510.83438 45.746876 511.05313L45.45 510.6Q45.778126 510.45938 45.934376 510.1625Q46.090626 509.88126 46.121876 509.35L45.5125 509.35ZM53.496876 508.33438L53.496876 509.35L47.809376 509.35Q47.809376 508.975 47.934376 508.61563Q48.153126 508.0375 48.621876 507.475Q49.10625 506.9125 50.0125 506.17813Q51.41875 505.02188 51.903126 504.35Q52.403126 503.67813 52.403126 503.08438Q52.403126 502.45938 51.95 502.0375Q51.496876 501.6 50.778126 501.6Q50.0125 501.6 49.559376 502.05313Q49.10625 502.50626 49.090626 503.31876L48.0125 503.20938Q48.121876 501.99063 48.840626 501.36563Q49.575 500.725 50.809376 500.725Q52.04375 500.725 52.7625 501.4125Q53.48125 502.1 53.48125 503.11563Q53.48125 503.63126 53.2625 504.13126Q53.059376 504.61563 52.559376 505.17813Q52.075 505.725 50.95 506.67813Q49.996876 507.475 49.715626 507.77188Q49.45 508.05313 49.278126 508.33438L53.496876 508.33438ZM54.95 507.1L56.059376 507.00626Q56.184376 507.81876 56.621876 508.225Q57.075 508.63126 57.715626 508.63126Q58.465626 508.63126 58.996876 508.05313Q59.528126 507.475 59.528126 506.5375Q59.528126 505.63126 59.0125 505.11563Q58.5125 504.58438 57.684376 504.58438Q57.184376 504.58438 56.7625 504.81876Q56.35625 505.05313 56.121876 505.4125L55.1375 505.2875L55.965626 500.88126L60.246876 500.88126L60.246876 501.88126L56.809376 501.88126L56.35625 504.19376Q57.121876 503.64688 57.965626 503.64688Q59.090626 503.64688 59.85625 504.42813Q60.6375 505.20938 60.6375 506.44376Q60.6375 507.6 59.965626 508.45938Q59.1375 509.49063 57.715626 509.49063Q56.54375 509.49063 55.79375 508.83438Q55.059376 508.17813 54.95 507.1Z" fill-rule="nonzero"/><path fill="#595959" d="M37.95 400.8823Q37.95 399.35104 38.2625 398.42917Q38.575 397.49167 39.184376 396.99167Q39.809376 396.49167 40.746876 396.49167Q41.434376 396.49167 41.95 396.77292Q42.48125 397.05417 42.825 397.58542Q43.16875 398.10104 43.35625 398.85104Q43.54375 399.60104 43.54375 400.8823Q43.54375 402.39792 43.23125 403.3198Q42.934376 404.24167 42.309376 404.7573Q41.7 405.2573 40.746876 405.2573Q39.5125 405.2573 38.79375 404.36667Q37.95 403.30417 37.95 400.8823ZM39.028126 400.8823Q39.028126 402.99167 39.528126 403.6948Q40.028126 404.39792 40.746876 404.39792Q41.48125 404.39792 41.965626 403.6948Q42.465626 402.99167 42.465626 400.8823Q42.465626 398.7573 41.965626 398.0698Q41.48125 397.36667 40.73125 397.36667Q40.0125 397.36667 39.575 397.97604Q39.028126 398.7573 39.028126 400.8823ZM45.5125 405.11667L45.5125 403.91354L46.715626 403.91354L46.715626 405.11667Q46.715626 405.77292 46.48125 406.17917Q46.246876 406.60104 45.746876 406.8198L45.45 406.36667Q45.778126 406.22604 45.934376 405.92917Q46.090626 405.64792 46.121876 405.11667L45.5125 405.11667ZM47.95 402.86667L49.059376 402.77292Q49.184376 403.58542 49.621876 403.99167Q50.075 404.39792 50.715626 404.39792Q51.465626 404.39792 51.996876 403.8198Q52.528126 403.24167 52.528126 402.30417Q52.528126 401.39792 52.0125 400.8823Q51.5125 400.35104 50.684376 400.35104Q50.184376 400.35104 49.7625 400.58542Q49.35625 400.8198 49.121876 401.17917L48.1375 401.05417L48.965626 396.64792L53.246876 396.64792L53.246876 397.64792L49.809376 397.64792L49.35625 399.96042Q50.121876 399.41354 50.965626 399.41354Q52.090626 399.41354 52.85625 400.1948Q53.6375 400.97604 53.6375 402.21042Q53.6375 403.36667 52.965626 404.22604Q52.1375 405.2573 50.715626 405.2573Q49.54375 405.2573 48.79375 404.60104Q48.059376 403.9448 47.95 402.86667ZM54.95 400.8823Q54.95 399.35104 55.2625 398.42917Q55.575 397.49167 56.184376 396.99167Q56.809376 396.49167 57.746876 396.49167Q58.434376 396.49167 58.95 396.77292Q59.48125 397.05417 59.825 397.58542Q60.16875 398.10104 60.35625 398.85104Q60.54375 399.60104 60.54375 400.8823Q60.54375 402.39792 60.23125 403.3198Q59.934376 404.24167 59.309376 404.7573Q58.7 405.2573 57.746876 405.2573Q56.5125 405.2573 55.79375 404.36667Q54.95 403.30417 54.95 400.8823ZM56.028126 400.8823Q56.028126 402.99167 56.528126 403.6948Q57.028126 404.39792 57.746876 404.39792Q58.48125 404.39792 58.965626 403.6948Q59.465626 402.99167 59.465626 400.8823Q59.465626 398.7573 58.965626 398.0698Q58.48125 397.36667 57.73125 397.36667Q57.0125 397.36667 56.575 397.97604Q56.028126 398.7573 56.028126 400.8823Z" fill-rule="nonzero"/><path fill="#595959" d="M37.95 296.64896Q37.95 295.1177 38.2625 294.19583Q38.575 293.25833 39.184376 292.75833Q39.809376 292.25833 40.746876 292.25833Q41.434376 292.25833 41.95 292.53958Q42.48125 292.82083 42.825 293.35208Q43.16875 293.8677 43.35625 294.6177Q43.54375 295.3677 43.54375 296.64896Q43.54375 298.16458 43.23125 299.08646Q42.934376 300.00833 42.309376 300.52396Q41.7 301.02396 40.746876 301.02396Q39.5125 301.02396 38.79375 300.13333Q37.95 299.07083 37.95 296.64896ZM39.028126 296.64896Q39.028126 298.75833 39.528126 299.46146Q40.028126 300.16458 40.746876 300.16458Q41.48125 300.16458 41.965626 299.46146Q42.465626 298.75833 42.465626 296.64896Q42.465626 294.52396 41.965626 293.83646Q41.48125 293.13333 40.73125 293.13333Q40.0125 293.13333 39.575 293.7427Q39.028126 294.52396 39.028126 296.64896ZM45.5125 300.88333L45.5125 299.6802L46.715626 299.6802L46.715626 300.88333Q46.715626 301.53958 46.48125 301.94583Q46.246876 302.3677 45.746876 302.58646L45.45 302.13333Q45.778126 301.9927 45.934376 301.69583Q46.090626 301.41458 46.121876 300.88333L45.5125 300.88333ZM48.0125 293.41458L48.0125 292.39896L53.575 292.39896L53.575 293.22708Q52.7625 294.10208 51.95 295.5552Q51.153126 296.9927 50.715626 298.52396Q50.3875 299.60208 50.309376 300.88333L49.215626 300.88333Q49.23125 299.8677 49.60625 298.4302Q49.996876 296.9927 50.7 295.66458Q51.41875 294.33646 52.23125 293.41458L48.0125 293.41458ZM54.95 298.63333L56.059376 298.53958Q56.184376 299.35208 56.621876 299.75833Q57.075 300.16458 57.715626 300.16458Q58.465626 300.16458 58.996876 299.58646Q59.528126 299.00833 59.528126 298.07083Q59.528126 297.16458 59.0125 296.64896Q58.5125 296.1177 57.684376 296.1177Q57.184376 296.1177 56.7625 296.35208Q56.35625 296.58646 56.121876 296.94583L55.1375 296.82083L55.965626 292.41458L60.246876 292.41458L60.246876 293.41458L56.809376 293.41458L56.35625 295.72708Q57.121876 295.1802 57.965626 295.1802Q59.090626 295.1802 59.85625 295.96146Q60.6375 296.7427 60.6375 297.97708Q60.6375 299.13333 59.965626 299.9927Q59.1375 301.02396 57.715626 301.02396Q56.54375 301.02396 55.79375 300.3677Q55.059376 299.71146 54.95 298.63333Z" fill-rule="nonzero"/><path fill="#595959" d="M41.91875 196.65L40.871876 196.65L40.871876 189.93124Q40.48125 190.29062 39.85625 190.66562Q39.246876 191.025 38.7625 191.19687L38.7625 190.18124Q39.6375 189.75937 40.29375 189.18124Q40.965626 188.5875 41.246876 188.025L41.91875 188.025L41.91875 196.65ZM45.5125 196.65L45.5125 195.44687L46.715626 195.44687L46.715626 196.65Q46.715626 197.30624 46.48125 197.7125Q46.246876 198.13437 45.746876 198.35312L45.45 197.9Q45.778126 197.75937 45.934376 197.4625Q46.090626 197.18124 46.121876 196.65L45.5125 196.65ZM47.95 192.41562Q47.95 190.88437 48.2625 189.9625Q48.575 189.025 49.184376 188.525Q49.809376 188.025 50.746876 188.025Q51.434376 188.025 51.95 188.30624Q52.48125 188.5875 52.825 189.11874Q53.16875 189.63437 53.35625 190.38437Q53.54375 191.13437 53.54375 192.41562Q53.54375 193.93124 53.23125 194.85312Q52.934376 195.775 52.309376 196.29062Q51.7 196.79062 50.746876 196.79062Q49.5125 196.79062 48.79375 195.9Q47.95 194.8375 47.95 192.41562ZM49.028126 192.41562Q49.028126 194.525 49.528126 195.22812Q50.028126 195.93124 50.746876 195.93124Q51.48125 195.93124 51.965626 195.22812Q52.465626 194.525 52.465626 192.41562Q52.465626 190.29062 51.965626 189.60312Q51.48125 188.9 50.73125 188.9Q50.0125 188.9 49.575 189.50937Q49.028126 190.29062 49.028126 192.41562ZM54.95 192.41562Q54.95 190.88437 55.2625 189.9625Q55.575 189.025 56.184376 188.525Q56.809376 188.025 57.746876 188.025Q58.434376 188.025 58.95 188.30624Q59.48125 188.5875 59.825 189.11874Q60.16875 189.63437 60.35625 190.38437Q60.54375 191.13437 60.54375 192.41562Q60.54375 193.93124 60.23125 194.85312Q59.934376 195.775 59.309376 196.29062Q58.7 196.79062 57.746876 196.79062Q56.5125 196.79062 55.79375 195.9Q54.95 194.8375 54.95 192.41562ZM56.028126 192.41562Q56.028126 194.525 56.528126 195.22812Q57.028126 195.93124 57.746876 195.93124Q58.48125 195.93124 58.965626 195.22812Q59.465626 194.525 59.465626 192.41562Q59.465626 190.29062 58.965626 189.60312Q58.48125 188.9 57.73125 188.9Q57.0125 188.9 56.575 189.50937Q56.028126 190.29062 56.028126 192.41562Z" fill-rule="nonzero"/><path fill="#595959" d="M41.91875 92.416664L40.871876 92.416664L40.871876 85.697914Q40.48125 86.05729 39.85625 86.43229Q39.246876 86.791664 38.7625 86.96354L38.7625 85.947914Q39.6375 85.52604 40.29375 84.947914Q40.965626 84.354164 41.246876 83.791664L41.91875 83.791664L41.91875 92.416664ZM45.5125 92.416664L45.5125 91.21354L46.715626 91.21354L46.715626 92.416664Q46.715626 93.072914 46.48125 93.479164Q46.246876 93.90104 45.746876 94.11979L45.45 93.666664Q45.778126 93.52604 45.934376 93.229164Q46.090626 92.947914 46.121876 92.416664L45.5125 92.416664ZM53.496876 91.40104L53.496876 92.416664L47.809376 92.416664Q47.809376 92.041664 47.934376 91.68229Q48.153126 91.104164 48.621876 90.541664Q49.10625 89.979164 50.0125 89.24479Q51.41875 88.08854 51.903126 87.416664Q52.403126 86.74479 52.403126 86.15104Q52.403126 85.52604 51.95 85.104164Q51.496876 84.666664 50.778126 84.666664Q50.0125 84.666664 49.559376 85.11979Q49.10625 85.572914 49.090626 86.385414L48.0125 86.27604Q48.121876 85.05729 48.840626 84.43229Q49.575 83.791664 50.809376 83.791664Q52.04375 83.791664 52.7625 84.479164Q53.48125 85.166664 53.48125 86.18229Q53.48125 86.697914 53.2625 87.197914Q53.059376 87.68229 52.559376 88.24479Q52.075 88.791664 50.95 89.74479Q49.996876 90.541664 49.715626 90.83854Q49.45 91.11979 49.278126 91.40104L53.496876 91.40104ZM54.95 90.166664L56.059376 90.072914Q56.184376 90.885414 56.621876 91.291664Q57.075 91.697914 57.715626 91.697914Q58.465626 91.697914 58.996876 91.11979Q59.528126 90.541664 59.528126 89.604164Q59.528126 88.697914 59.0125 88.18229Q58.5125 87.65104 57.684376 87.65104Q57.184376 87.65104 56.7625 87.885414Q56.35625 88.11979 56.121876 88.479164L55.1375 88.354164L55.965626 83.947914L60.246876 83.947914L60.246876 84.947914L56.809376 84.947914L56.35625 87.260414Q57.121876 86.71354 57.965626 86.71354Q59.090626 86.71354 59.85625 87.49479Q60.6375 88.27604 60.6375 89.510414Q60.6375 90.666664 59.965626 91.52604Q59.1375 92.55729 57.715626 92.55729Q56.54375 92.55729 55.79375 91.90104Q55.059376 91.24479 54.95 90.166664Z" fill-rule="nonzero"/><path fill="#595959" d="M201.88437 625.5677L201.88437 626.5833L196.19687 626.5833Q196.19687 626.2083 196.32187 625.84894Q196.54062 625.2708 197.00937 624.7083Q197.49374 624.1458 198.4 623.41144Q199.80624 622.2552 200.29062 621.5833Q200.79062 620.91144 200.79062 620.3177Q200.79062 619.6927 200.3375 619.2708Q199.88437 618.8333 199.16562 618.8333Q198.4 618.8333 197.94687 619.28644Q197.49374 619.73956 197.47812 620.55206L196.4 620.4427Q196.50937 619.22394 197.22812 618.59894Q197.9625 617.9583 199.19687 617.9583Q200.43124 617.9583 201.15 618.6458Q201.86874 619.3333 201.86874 620.34894Q201.86874 620.86456 201.65 621.36456Q201.44687 621.84894 200.94687 622.41144Q200.4625 622.9583 199.3375 623.91144Q198.38437 624.7083 198.10312 625.0052Q197.8375 625.28644 197.66562 625.5677L201.88437 625.5677Z" fill-rule="nonzero"/><path fill="#595959" d="M463.4875 626.5833L463.4875 624.5208L459.76874 624.5208L459.76874 623.55206L463.6906 617.98956L464.55 617.98956L464.55 623.55206L465.70624 623.55206L465.70624 624.5208L464.55 624.5208L464.55 626.5833L463.4875 626.5833ZM463.4875 623.55206L463.4875 619.6927L460.8 623.55206L463.4875 623.55206Z" fill-rule="nonzero"/><path fill="#595959" d="M725.5125 621.92706Q724.85626 621.67706 724.52814 621.23956Q724.21564 620.78644 724.21564 620.17706Q724.21564 619.23956 724.8875 618.59894Q725.575 617.9583 726.6844 617.9583Q727.8094 617.9583 728.4969 618.61456Q729.1844 619.2708 729.1844 620.2083Q729.1844 620.80206 728.8719 621.23956Q728.5594 621.67706 727.91876 621.92706Q728.71564 622.17706 729.1219 622.7552Q729.52814 623.3333 729.52814 624.1302Q729.52814 625.22394 728.7469 625.97394Q727.98126 626.72394 726.7 626.72394Q725.4344 626.72394 724.65314 625.97394Q723.8719 625.22394 723.8719 624.09894Q723.8719 623.2552 724.29376 622.6927Q724.73126 622.1302 725.5125 621.92706ZM725.29376 620.1302Q725.29376 620.73956 725.6844 621.1302Q726.09064 621.5208 726.71564 621.5208Q727.325 621.5208 727.71564 621.1458Q728.10626 620.7552 728.10626 620.1927Q728.10626 619.61456 727.7 619.22394Q727.29376 618.8177 726.7 618.8177Q726.09064 618.8177 725.6844 619.2083Q725.29376 619.59894 725.29376 620.1302ZM724.96564 624.09894Q724.96564 624.55206 725.16876 624.97394Q725.3875 625.3958 725.8094 625.6302Q726.23126 625.86456 726.71564 625.86456Q727.46564 625.86456 727.95 625.3802Q728.45 624.8958 728.45 624.1458Q728.45 623.3802 727.95 622.8802Q727.45 622.3802 726.6844 622.3802Q725.9344 622.3802 725.45 622.8802Q724.96564 623.36456 724.96564 624.09894Z" fill-rule="nonzero"/><path fill="#595959" d="M988.1312 626.5833L987.08435 626.5833L987.08435 619.86456Q986.6937 620.22394 986.0687 620.59894Q985.45935 620.9583 984.975 621.1302L984.975 620.11456Q985.85 619.6927 986.5062 619.11456Q987.1781 618.5208 987.45935 617.9583L988.1312 617.9583L988.1312 626.5833ZM996.6312 620.09894L995.58435 620.17706Q995.4437 619.55206 995.1937 619.2708Q994.7562 618.8177 994.1312 618.8177Q993.6312 618.8177 993.2406 619.09894Q992.7562 619.47394 992.45935 620.17706Q992.1781 620.86456 992.1625 622.1458Q992.5375 621.5677 993.08435 621.28644Q993.64685 621.0052 994.2562 621.0052Q995.3031 621.0052 996.0375 621.78644Q996.7875 622.5677 996.7875 623.78644Q996.7875 624.59894 996.4281 625.30206Q996.08435 625.98956 995.475 626.36456Q994.8656 626.72394 994.1 626.72394Q992.77185 626.72394 991.9437 625.7552Q991.1156 624.78644 991.1156 622.5677Q991.1156 620.0677 992.0375 618.9427Q992.83435 617.9583 994.1937 617.9583Q995.20935 617.9583 995.85 618.53644Q996.5062 619.09894 996.6312 620.09894ZM992.33435 623.80206Q992.33435 624.34894 992.5531 624.84894Q992.7875 625.3333 993.1937 625.59894Q993.6156 625.86456 994.08435 625.86456Q994.7406 625.86456 995.225 625.3333Q995.70935 624.78644 995.70935 623.86456Q995.70935 622.97394 995.225 622.4583Q994.7562 621.9427 994.0375 621.9427Q993.3187 621.9427 992.8187 622.4583Q992.33435 622.97394 992.33435 623.80206Z" fill-rule="nonzero"/><path fill="#4285f4" d="M514.5 704.55C514.5 707.8637 511.81372 710.55 508.5 710.55C505.18628 710.55 502.5 707.8637 502.5 704.55C502.5 701.23627 505.18628 698.55 508.5 698.55C511.81372 698.55 514.5 701.23627 514.5 704.55Z" fill-rule="nonzero"/><path fill="#595959" d="M522.875 706.6906L523.90625 706.53436Q524.0 707.15936 524.3906 707.4875Q524.7969 707.8156 525.53125 707.8156Q526.25 707.8156 526.59375 707.53436Q526.9531 707.2375 526.9531 706.83124Q526.9531 706.47186 526.6406 706.26874Q526.4219 706.1281 525.5625 705.90936Q524.40625 705.6125 523.9531 705.40936Q523.5156 705.1906 523.28125 704.8156Q523.0469 704.4406 523.0469 703.97186Q523.0469 703.5656 523.2344 703.20624Q523.4219 702.84686 523.75 702.6125Q524.0 702.4406 524.4219 702.3156Q524.84375 702.1906 525.34375 702.1906Q526.0625 702.1906 526.6094 702.40936Q527.1719 702.6125 527.4375 702.97186Q527.7031 703.33124 527.7969 703.925L526.7656 704.0656Q526.7031 703.59686 526.3594 703.33124Q526.03125 703.05 525.40625 703.05Q524.6875 703.05 524.375 703.3Q524.0625 703.53436 524.0625 703.8625Q524.0625 704.0656 524.1875 704.22186Q524.3281 704.39374 524.59375 704.5031Q524.75 704.5656 525.53125 704.76874Q526.65625 705.08124 527.09375 705.26874Q527.53125 705.45624 527.78125 705.8156Q528.03125 706.175 528.03125 706.72186Q528.03125 707.2531 527.71875 707.72186Q527.4219 708.175 526.84375 708.4406Q526.2656 708.6906 525.53125 708.6906Q524.3125 708.6906 523.6719 708.1906Q523.0469 707.675 522.875 706.6906ZM529.2969 710.9406L529.2969 702.33124L530.25 702.33124L530.25 703.1281Q530.59375 702.65936 531.0156 702.425Q531.4531 702.1906 532.0625 702.1906Q532.8594 702.1906 533.46875 702.59686Q534.0781 703.0031 534.375 703.7531Q534.6875 704.5031 534.6875 705.39374Q534.6875 706.34686 534.34375 707.1125Q534.0156 707.8781 533.3594 708.28436Q532.7031 708.6906 531.9844 708.6906Q531.4531 708.6906 531.03125 708.47186Q530.6094 708.2375 530.34375 707.90936L530.34375 710.9406L529.2969 710.9406ZM530.25 705.47186Q530.25 706.675 530.7344 707.2531Q531.21875 707.8156 531.90625 707.8156Q532.6094 707.8156 533.1094 707.22186Q533.6094 706.6281 533.6094 705.3781Q533.6094 704.1906 533.125 703.6125Q532.6406 703.01874 531.9531 703.01874Q531.28125 703.01874 530.7656 703.64374Q530.25 704.26874 530.25 705.47186ZM540.5469 706.55L541.6406 706.675Q541.3906 707.6281 540.6875 708.15936Q539.9844 708.6906 538.90625 708.6906Q537.5469 708.6906 536.7344 707.84686Q535.9375 707.0031 535.9375 705.4875Q535.9375 703.925 536.75 703.0656Q537.5625 702.1906 538.84375 702.1906Q540.09375 702.1906 540.875 703.03436Q541.6719 703.8781 541.6719 705.425Q541.6719 705.51874 541.6719 705.70624L537.03125 705.70624Q537.09375 706.7375 537.6094 707.28436Q538.125 707.8156 538.90625 707.8156Q539.4844 707.8156 539.8906 707.51874Q540.3125 707.20624 540.5469 706.55ZM537.09375 704.84686L540.5625 704.84686Q540.5 704.05 540.1719 703.65936Q539.65625 703.05 538.8594 703.05Q538.125 703.05 537.625 703.53436Q537.1406 704.01874 537.09375 704.84686ZM547.5469 706.55L548.6406 706.675Q548.3906 707.6281 547.6875 708.15936Q546.9844 708.6906 545.90625 708.6906Q544.5469 708.6906 543.7344 707.84686Q542.9375 707.0031 542.9375 705.4875Q542.9375 703.925 543.75 703.0656Q544.5625 702.1906 545.84375 702.1906Q547.09375 702.1906 547.875 703.03436Q548.6719 703.8781 548.6719 705.425Q548.6719 705.51874 548.6719 705.70624L544.03125 705.70624Q544.09375 706.7375 544.6094 707.28436Q545.125 707.8156 545.90625 707.8156Q546.4844 707.8156 546.8906 707.51874Q547.3125 707.20624 547.5469 706.55ZM544.09375 704.84686L547.5625 704.84686Q547.5 704.05 547.1719 703.65936Q546.65625 703.05 545.8594 703.05Q545.125 703.05 544.625 703.53436Q544.1406 704.01874 544.09375 704.84686ZM554.3281 708.55L554.3281 707.76874Q553.7344 708.6906 552.59375 708.6906Q551.84375 708.6906 551.21875 708.28436Q550.59375 707.8625 550.25 707.1281Q549.90625 706.39374 549.90625 705.4406Q549.90625 704.51874 550.21875 703.7531Q550.53125 702.9875 551.15625 702.59686Q551.78125 702.1906 552.5469 702.1906Q553.1094 702.1906 553.5469 702.425Q553.9844 702.65936 554.2656 703.03436L554.2656 699.95624L555.3125 699.95624L555.3125 708.55L554.3281 708.55ZM551.0 705.4406Q551.0 706.64374 551.5 707.2375Q552.0 707.8156 552.6875 707.8156Q553.375 707.8156 553.8594 707.2531Q554.34375 706.6906 554.34375 705.53436Q554.34375 704.2531 553.84375 703.65936Q553.3594 703.0656 552.6406 703.0656Q551.9375 703.0656 551.46875 703.64374Q551.0 704.20624 551.0 705.4406ZM561.375 708.55L561.375 707.6281Q560.6406 708.6906 559.3906 708.6906Q558.84375 708.6906 558.3594 708.4875Q557.8906 708.26874 557.65625 707.95624Q557.4219 707.6281 557.3281 707.15936Q557.2656 706.8625 557.2656 706.175L557.2656 702.33124L558.3281 702.33124L558.3281 705.78436Q558.3281 706.59686 558.3906 706.89374Q558.4844 707.3 558.7969 707.55Q559.125 707.78436 559.6094 707.78436Q560.0781 707.78436 560.4844 707.55Q560.90625 707.3 561.0781 706.8781Q561.2656 706.45624 561.2656 705.65936L561.2656 702.33124L562.3125 702.33124L562.3125 708.55L561.375 708.55ZM564.2969 710.9406L564.2969 702.33124L565.25 702.33124L565.25 703.1281Q565.59375 702.65936 566.0156 702.425Q566.4531 702.1906 567.0625 702.1906Q567.8594 702.1906 568.46875 702.59686Q569.0781 703.0031 569.375 703.7531Q569.6875 704.5031 569.6875 705.39374Q569.6875 706.34686 569.34375 707.1125Q569.0156 707.8781 568.3594 708.28436Q567.7031 708.6906 566.9844 708.6906Q566.4531 708.6906 566.03125 708.47186Q565.6094 708.2375 565.34375 707.90936L565.34375 710.9406L564.2969 710.9406ZM565.25 705.47186Q565.25 706.675 565.7344 707.2531Q566.21875 707.8156 566.90625 707.8156Q567.6094 707.8156 568.1094 707.22186Q568.6094 706.6281 568.6094 705.3781Q568.6094 704.1906 568.125 703.6125Q567.6406 703.01874 566.9531 703.01874Q566.28125 703.01874 565.7656 703.64374Q565.25 704.26874 565.25 705.47186Z" fill-rule="nonzero"/><path fill="#34a853" d="M598.5 704.55C598.5 707.8637 595.8137 710.55 592.5 710.55C589.1863 710.55 586.5 707.8637 586.5 704.55C586.5 701.23627 589.1863 698.55 592.5 698.55C595.8137 698.55 598.5 701.23627 598.5 704.55Z" fill-rule="nonzero"/><path fill="#595959" d="M611.5469 706.55L612.6406 706.675Q612.3906 707.6281 611.6875 708.15936Q610.9844 708.6906 609.90625 708.6906Q608.5469 708.6906 607.7344 707.84686Q606.9375 707.0031 606.9375 705.4875Q606.9375 703.925 607.75 703.0656Q608.5625 702.1906 609.84375 702.1906Q611.09375 702.1906 611.875 703.03436Q612.6719 703.8781 612.6719 705.425Q612.6719 705.51874 612.6719 705.70624L608.03125 705.70624Q608.09375 706.7375 608.6094 707.28436Q609.125 707.8156 609.90625 707.8156Q610.4844 707.8156 610.8906 707.51874Q611.3125 707.20624 611.5469 706.55ZM608.09375 704.84686L611.5625 704.84686Q611.5 704.05 611.1719 703.65936Q610.65625 703.05 609.8594 703.05Q609.125 703.05 608.625 703.53436Q608.1406 704.01874 608.09375 704.84686ZM614.5469 708.55L614.5469 703.14374L613.6094 703.14374L613.6094 702.33124L614.5469 702.33124L614.5469 701.65936Q614.5469 701.03436 614.65625 700.7375Q614.8125 700.3156 615.1875 700.0656Q615.5781 699.8156 616.2656 699.8156Q616.71875 699.8156 617.25 699.925L617.09375 700.83124Q616.7656 700.78436 616.46875 700.78436Q615.9844 700.78436 615.78125 700.9875Q615.59375 701.1906 615.59375 701.7531L615.59375 702.33124L616.8125 702.33124L616.8125 703.14374L615.59375 703.14374L615.59375 708.55L614.5469 708.55ZM617.5469 708.55L617.5469 703.14374L616.6094 703.14374L616.6094 702.33124L617.5469 702.33124L617.5469 701.65936Q617.5469 701.03436 617.65625 700.7375Q617.8125 700.3156 618.1875 700.0656Q618.5781 699.8156 619.2656 699.8156Q619.71875 699.8156 620.25 699.925L620.09375 700.83124Q619.7656 700.78436 619.46875 700.78436Q618.9844 700.78436 618.78125 700.9875Q618.59375 701.1906 618.59375 701.7531L618.59375 702.33124L619.8125 702.33124L619.8125 703.14374L618.59375 703.14374L618.59375 708.55L617.5469 708.55ZM620.2969 701.175L620.2969 699.95624L621.3594 699.95624L621.3594 701.175L620.2969 701.175ZM620.2969 708.55L620.2969 702.33124L621.3594 702.33124L621.3594 708.55L620.2969 708.55ZM627.3594 706.26874L628.3906 706.40936Q628.21875 707.47186 627.5156 708.08124Q626.8125 708.6906 625.7969 708.6906Q624.5156 708.6906 623.7344 707.8625Q622.96875 707.01874 622.96875 705.45624Q622.96875 704.45624 623.2969 703.70624Q623.6406 702.9406 624.3125 702.5656Q625.0 702.1906 625.8125 702.1906Q626.8125 702.1906 627.4531 702.70624Q628.1094 703.20624 628.2969 704.15936L627.2656 704.3156Q627.125 703.6906 626.75 703.3781Q626.375 703.05 625.84375 703.05Q625.0469 703.05 624.5469 703.6281Q624.0469 704.1906 624.0469 705.425Q624.0469 706.6906 624.53125 707.2531Q625.0156 707.8156 625.78125 707.8156Q626.40625 707.8156 626.8125 707.4406Q627.2344 707.0656 627.3594 706.26874ZM629.2969 701.175L629.2969 699.95624L630.3594 699.95624L630.3594 701.175L629.2969 701.175ZM629.2969 708.55L629.2969 702.33124L630.3594 702.33124L630.3594 708.55L629.2969 708.55ZM636.5469 706.55L637.6406 706.675Q637.3906 707.6281 636.6875 708.15936Q635.9844 708.6906 634.90625 708.6906Q633.5469 708.6906 632.7344 707.84686Q631.9375 707.0031 631.9375 705.4875Q631.9375 703.925 632.75 703.0656Q633.5625 702.1906 634.84375 702.1906Q636.09375 702.1906 636.875 703.03436Q637.6719 703.8781 637.6719 705.425Q637.6719 705.51874 637.6719 705.70624L633.03125 705.70624Q633.09375 706.7375 633.6094 707.28436Q634.125 707.8156 634.90625 707.8156Q635.4844 707.8156 635.8906 707.51874Q636.3125 707.20624 636.5469 706.55ZM633.09375 704.84686L636.5625 704.84686Q636.5 704.05 636.1719 703.65936Q635.65625 703.05 634.8594 703.05Q634.125 703.05 633.625 703.53436Q633.1406 704.01874 633.09375 704.84686ZM639.2969 708.55L639.2969 702.33124L640.2344 702.33124L640.2344 703.20624Q640.9219 702.1906 642.21875 702.1906Q642.78125 702.1906 643.25 702.39374Q643.7344 702.59686 643.96875 702.925Q644.2031 703.2531 644.2969 703.6906Q644.34375 703.9875 644.34375 704.72186L644.34375 708.55L643.2969 708.55L643.2969 704.76874Q643.2969 704.1125 643.1719 703.8Q643.0469 703.4875 642.7344 703.3Q642.4219 703.09686 642.0 703.09686Q641.3281 703.09686 640.8281 703.53436Q640.34375 703.95624 640.34375 705.14374L640.34375 708.55L639.2969 708.55ZM650.3594 706.26874L651.3906 706.40936Q651.21875 707.47186 650.5156 708.08124Q649.8125 708.6906 648.7969 708.6906Q647.5156 708.6906 646.7344 707.8625Q645.96875 707.01874 645.96875 705.45624Q645.96875 704.45624 646.2969 703.70624Q646.6406 702.9406 647.3125 702.5656Q648.0 702.1906 648.8125 702.1906Q649.8125 702.1906 650.4531 702.70624Q651.1094 703.20624 651.2969 704.15936L650.2656 704.3156Q650.125 703.6906 649.75 703.3781Q649.375 703.05 648.84375 703.05Q648.0469 703.05 647.5469 703.6281Q647.0469 704.1906 647.0469 705.425Q647.0469 706.6906 647.53125 707.2531Q648.0156 707.8156 648.78125 707.8156Q649.40625 707.8156 649.8125 707.4406Q650.2344 707.0656 650.3594 706.26874ZM652.25 710.9406L652.125 709.95624Q652.46875 710.05 652.7344 710.05Q653.0781 710.05 653.28125 709.925Q653.5 709.8156 653.6406 709.6125Q653.7344 709.4406 653.96875 708.8156Q653.9844 708.7375 654.0625 708.5656L651.6875 702.33124L652.8281 702.33124L654.125 705.925Q654.375 706.6125 654.5781 707.3781Q654.7656 706.64374 655.0156 705.95624L656.34375 702.33124L657.3906 702.33124L655.03125 708.65936Q654.6406 709.675 654.4375 710.0656Q654.15625 710.59686 653.78125 710.83124Q653.4219 711.08124 652.9219 711.08124Q652.625 711.08124 652.25 710.9406Z" fill-rule="nonzero"/><path fill="#595959" d="M428.26562 52.45L428.26562 40.996876L433.34375 40.996876Q434.875 40.996876 435.67188 41.309376Q436.46875 41.60625 436.9375 42.3875Q437.42188 43.16875 437.42188 44.121876Q437.42188 45.340626 436.625 46.184376Q435.84375 47.0125 434.1875 47.23125Q434.79688 47.528126 435.10938 47.809376Q435.76562 48.41875 436.35938 49.325L438.35938 52.45L436.45312 52.45L434.9375 50.059376Q434.26562 49.028126 433.82812 48.48125Q433.40625 47.934376 433.0625 47.715626Q432.73438 47.496876 432.375 47.41875Q432.125 47.35625 431.53125 47.35625L429.78125 47.35625L429.78125 52.45L428.26562 52.45ZM429.78125 46.04375L433.03125 46.04375Q434.07812 46.04375 434.65625 45.840626Q435.25 45.621876 435.54688 45.153126Q435.85938 44.66875 435.85938 44.121876Q435.85938 43.309376 435.26562 42.79375Q434.67188 42.2625 433.40625 42.2625L429.78125 42.2625L429.78125 46.04375ZM439.53125 48.29375Q439.53125 45.996876 440.8125 44.8875Q441.89062 43.965626 443.42188 43.965626Q445.14062 43.965626 446.21875 45.090626Q447.3125 46.2 447.3125 48.184376Q447.3125 49.778126 446.82812 50.7Q446.34375 51.621876 445.42188 52.1375Q444.51562 52.6375 443.42188 52.6375Q441.6875 52.6375 440.60938 51.528126Q439.53125 50.403126 439.53125 48.29375ZM440.98438 48.29375Q440.98438 49.8875 441.67188 50.684376Q442.375 51.48125 443.42188 51.48125Q444.46875 51.48125 445.15625 50.684376Q445.85938 49.8875 445.85938 48.246876Q445.85938 46.715626 445.15625 45.91875Q444.46875 45.121876 443.42188 45.121876Q442.375 45.121876 441.67188 45.91875Q440.98438 46.7 440.98438 48.29375ZM448.53125 48.29375Q448.53125 45.996876 449.8125 44.8875Q450.89062 43.965626 452.42188 43.965626Q454.14062 43.965626 455.21875 45.090626Q456.3125 46.2 456.3125 48.184376Q456.3125 49.778126 455.82812 50.7Q455.34375 51.621876 454.42188 52.1375Q453.51562 52.6375 452.42188 52.6375Q450.6875 52.6375 449.60938 51.528126Q448.53125 50.403126 448.53125 48.29375ZM449.98438 48.29375Q449.98438 49.8875 450.67188 50.684376Q451.375 51.48125 452.42188 51.48125Q453.46875 51.48125 454.15625 50.684376Q454.85938 49.8875 454.85938 48.246876Q454.85938 46.715626 454.15625 45.91875Q453.46875 45.121876 452.42188 45.121876Q451.375 45.121876 450.67188 45.91875Q449.98438 46.7 449.98438 48.29375ZM458.0625 52.45L458.0625 44.153126L459.3125 44.153126L459.3125 45.309376Q459.70312 44.7 460.34375 44.340626Q461.0 43.965626 461.82812 43.965626Q462.75 43.965626 463.34375 44.35625Q463.9375 44.73125 464.17188 45.41875Q465.15625 43.965626 466.73438 43.965626Q467.96875 43.965626 468.625 44.653126Q469.29688 45.325 469.29688 46.746876L469.29688 52.45L467.90625 52.45L467.90625 47.215626Q467.90625 46.371876 467.76562 46.0125Q467.625 45.6375 467.26562 45.41875Q466.90625 45.184376 466.42188 45.184376Q465.54688 45.184376 464.96875 45.7625Q464.39062 46.340626 464.39062 47.621876L464.39062 52.45L462.98438 52.45L462.98438 47.059376Q462.98438 46.121876 462.64062 45.653126Q462.29688 45.184376 461.51562 45.184376Q460.92188 45.184376 460.42188 45.496876Q459.92188 45.809376 459.6875 46.41875Q459.46875 47.0125 459.46875 48.1375L459.46875 52.45L458.0625 52.45ZM474.71875 48.7625L476.15625 48.6375Q476.25 49.496876 476.625 50.059376Q477.0 50.60625 477.78125 50.95Q478.5625 51.278126 479.53125 51.278126Q480.40625 51.278126 481.0625 51.028126Q481.73438 50.7625 482.04688 50.325Q482.375 49.871876 482.375 49.340626Q482.375 48.79375 482.0625 48.403126Q481.75 47.996876 481.03125 47.715626Q480.57812 47.54375 479.0 47.16875Q477.42188 46.778126 476.78125 46.45Q475.96875 46.0125 475.5625 45.3875Q475.15625 44.746876 475.15625 43.95Q475.15625 43.090626 475.64062 42.340626Q476.14062 41.575 477.07812 41.184376Q478.03125 40.79375 479.1875 40.79375Q480.46875 40.79375 481.4375 41.215626Q482.40625 41.621876 482.92188 42.41875Q483.45312 43.215626 483.5 44.215626L482.04688 44.325Q481.92188 43.246876 481.25 42.7Q480.57812 42.1375 479.25 42.1375Q477.875 42.1375 477.25 42.6375Q476.625 43.1375 476.625 43.85625Q476.625 44.465626 477.0625 44.871876Q477.5 45.2625 479.34375 45.684376Q481.20312 46.10625 481.89062 46.41875Q482.89062 46.871876 483.35938 47.590626Q483.84375 48.29375 483.84375 49.215626Q483.84375 50.121876 483.3125 50.934376Q482.79688 51.746876 481.8125 52.2Q480.82812 52.653126 479.60938 52.653126Q478.04688 52.653126 477.0 52.2Q475.95312 51.73125 475.34375 50.825Q474.75 49.91875 474.71875 48.7625ZM486.0625 42.60625L486.0625 40.996876L487.46875 40.996876L487.46875 42.60625L486.0625 42.60625ZM486.0625 52.45L486.0625 44.153126L487.46875 44.153126L487.46875 52.45L486.0625 52.45ZM489.3125 52.45L489.3125 51.309376L494.59375 45.246876Q493.70312 45.29375 493.01562 45.29375L489.625 45.29375L489.625 44.153126L496.40625 44.153126L496.40625 45.075L491.92188 50.340626L491.04688 51.309376Q492.0 51.23125 492.82812 51.23125L496.65625 51.23125L496.65625 52.45L489.3125 52.45ZM503.73438 49.778126L505.1875 49.95Q504.84375 51.23125 503.90625 51.934376Q502.98438 52.6375 501.54688 52.6375Q499.71875 52.6375 498.65625 51.5125Q497.59375 50.3875 497.59375 48.371876Q497.59375 46.278126 498.67188 45.121876Q499.75 43.965626 501.46875 43.965626Q503.125 43.965626 504.17188 45.10625Q505.23438 46.23125 505.23438 48.278126Q505.23438 48.403126 505.23438 48.653126L499.04688 48.653126Q499.125 50.028126 499.8125 50.7625Q500.51562 51.48125 501.54688 51.48125Q502.32812 51.48125 502.875 51.075Q503.42188 50.66875 503.73438 49.778126ZM499.125 47.496876L503.75 47.496876Q503.65625 46.45 503.21875 45.934376Q502.54688 45.121876 501.48438 45.121876Q500.51562 45.121876 499.84375 45.778126Q499.1875 46.41875 499.125 47.496876ZM518.0625 51.090626L518.0625 52.45L510.48438 52.45Q510.46875 51.934376 510.65625 51.465626Q510.9375 50.7 511.57812 49.95Q512.21875 49.2 513.4219 48.215626Q515.28125 46.684376 515.9375 45.79375Q516.59375 44.8875 516.59375 44.090626Q516.59375 43.2625 516.0 42.684376Q515.40625 42.10625 514.4375 42.10625Q513.4219 42.10625 512.8125 42.715626Q512.2031 43.325 512.2031 44.403126L510.75 44.2625Q510.90625 42.6375 511.875 41.79375Q512.84375 40.95 514.46875 40.95Q516.125 40.95 517.0781 41.871876Q518.0469 42.778126 518.0469 44.121876Q518.0469 44.809376 517.7656 45.48125Q517.4844 46.1375 516.8281 46.871876Q516.1719 47.60625 514.65625 48.8875Q513.3906 49.95 513.03125 50.340626Q512.6719 50.715626 512.4375 51.090626L518.0625 51.090626ZM524.1719 52.45L524.1719 49.7L519.2031 49.7L519.2031 48.41875L524.4375 40.996876L525.5781 40.996876L525.5781 48.41875L527.125 48.41875L527.125 49.7L525.5781 49.7L525.5781 52.45L524.1719 52.45ZM524.1719 48.41875L524.1719 43.246876L520.59375 48.41875L524.1719 48.41875ZM528.6719 49.41875L530.0781 49.23125Q530.3281 50.434376 530.90625 50.965626Q531.4844 51.48125 532.3281 51.48125Q533.3125 51.48125 534.0 50.79375Q534.6875 50.10625 534.6875 49.090626Q534.6875 48.121876 534.0469 47.496876Q533.4219 46.871876 532.4375 46.871876Q532.0469 46.871876 531.4531 47.028126L531.6094 45.79375Q531.75 45.809376 531.8281 45.809376Q532.7344 45.809376 533.4531 45.340626Q534.1719 44.871876 534.1719 43.8875Q534.1719 43.121876 533.6406 42.621876Q533.125 42.10625 532.2969 42.10625Q531.46875 42.10625 530.9219 42.621876Q530.375 43.1375 530.21875 44.16875L528.8125 43.91875Q529.0781 42.496876 529.9844 41.73125Q530.90625 40.95 532.2656 40.95Q533.2031 40.95 533.9844 41.35625Q534.78125 41.746876 535.1875 42.45Q535.6094 43.1375 535.6094 43.91875Q535.6094 44.66875 535.2031 45.278126Q534.8125 45.8875 534.03125 46.246876Q535.0469 46.48125 535.6094 47.215626Q536.1719 47.95 536.1719 49.059376Q536.1719 50.559376 535.0781 51.60625Q533.9844 52.653126 532.3125 52.653126Q530.8125 52.653126 529.8125 51.7625Q528.8125 50.85625 528.6719 49.41875ZM547.46875 51.41875Q546.6875 52.090626 545.96875 52.371876Q545.25 52.6375 544.4219 52.6375Q543.0469 52.6375 542.3125 51.965626Q541.5781 51.29375 541.5781 50.2625Q541.5781 49.653126 541.8594 49.153126Q542.1406 48.6375 542.5781 48.340626Q543.03125 48.028126 543.59375 47.871876Q544.0156 47.7625 544.84375 47.66875Q546.5469 47.465626 547.3594 47.184376Q547.3594 46.8875 547.3594 46.809376Q547.3594 45.95 546.96875 45.60625Q546.4219 45.121876 545.3594 45.121876Q544.375 45.121876 543.8906 45.48125Q543.4219 45.825 543.2031 46.7L541.8281 46.5125Q542.0156 45.6375 542.4375 45.090626Q542.875 44.54375 543.6875 44.2625Q544.5 43.965626 545.5625 43.965626Q546.625 43.965626 547.28125 44.215626Q547.9531 44.465626 548.2656 44.840626Q548.5781 45.215626 548.7031 45.79375Q548.78125 46.153126 548.78125 47.090626L548.78125 48.965626Q548.78125 50.934376 548.8594 51.45Q548.9531 51.965626 549.21875 52.45L547.75 52.45Q547.53125 52.0125 547.46875 51.41875ZM547.3594 48.278126Q546.59375 48.590626 545.0625 48.809376Q544.1875 48.934376 543.8281 49.090626Q543.46875 49.246876 543.2656 49.559376Q543.0781 49.85625 543.0781 50.215626Q543.0781 50.778126 543.5 51.153126Q543.9375 51.528126 544.75 51.528126Q545.5625 51.528126 546.1875 51.184376Q546.8281 50.825 547.125 50.2Q547.3594 49.73125 547.3594 48.79375L547.3594 48.278126ZM551.0625 52.45L551.0625 44.153126L552.3281 44.153126L552.3281 45.325Q553.2344 43.965626 554.96875 43.965626Q555.71875 43.965626 556.34375 44.23125Q556.96875 44.496876 557.28125 44.934376Q557.59375 45.371876 557.71875 45.98125Q557.7969 46.371876 557.7969 47.340626L557.7969 52.45L556.3906 52.45L556.3906 47.403126Q556.3906 46.54375 556.21875 46.121876Q556.0625 45.684376 555.6406 45.434376Q555.2344 45.184376 554.6719 45.184376Q553.7656 45.184376 553.1094 45.7625Q552.46875 46.325 552.46875 47.91875L552.46875 52.45L551.0625 52.45ZM565.4375 52.45L565.4375 51.403126Q564.65625 52.6375 563.125 52.6375Q562.125 52.6375 561.2969 52.090626Q560.46875 51.54375 560.0 50.559376Q559.5469 49.575 559.5469 48.309376Q559.5469 47.059376 559.9531 46.059376Q560.375 45.04375 561.2031 44.5125Q562.03125 43.965626 563.0625 43.965626Q563.8125 43.965626 564.3906 44.278126Q564.9844 44.590626 565.34375 45.10625L565.34375 40.996876L566.75 40.996876L566.75 52.45L565.4375 52.45ZM561.0 48.309376Q561.0 49.903126 561.6719 50.7Q562.34375 51.48125 563.25 51.48125Q564.1719 51.48125 564.8125 50.73125Q565.46875 49.965626 565.46875 48.41875Q565.46875 46.715626 564.8125 45.91875Q564.15625 45.121876 563.1875 45.121876Q562.25 45.121876 561.625 45.8875Q561.0 46.653126 561.0 48.309376ZM576.15625 52.45L576.15625 42.340626L572.375 42.340626L572.375 40.996876L581.4531 40.996876L581.4531 42.340626L577.6719 42.340626L577.6719 52.45L576.15625 52.45ZM583.0625 42.60625L583.0625 40.996876L584.46875 40.996876L584.46875 42.60625L583.0625 42.60625ZM583.0625 52.45L583.0625 44.153126L584.46875 44.153126L584.46875 52.45L583.0625 52.45ZM587.0625 52.45L587.0625 44.153126L588.3125 44.153126L588.3125 45.309376Q588.7031 44.7 589.34375 44.340626Q590.0 43.965626 590.8281 43.965626Q591.75 43.965626 592.34375 44.35625Q592.9375 44.73125 593.1719 45.41875Q594.15625 43.965626 595.7344 43.965626Q596.96875 43.965626 597.625 44.653126Q598.2969 45.325 598.2969 46.746876L598.2969 52.45L596.90625 52.45L596.90625 47.215626Q596.90625 46.371876 596.7656 46.0125Q596.625 45.6375 596.2656 45.41875Q595.90625 45.184376 595.4219 45.184376Q594.5469 45.184376 593.96875 45.7625Q593.3906 46.340626 593.3906 47.621876L593.3906 52.45L591.9844 52.45L591.9844 47.059376Q591.9844 46.121876 591.6406 45.653126Q591.2969 45.184376 590.5156 45.184376Q589.9219 45.184376 589.4219 45.496876Q588.9219 45.809376 588.6875 46.41875Q588.46875 47.0125 588.46875 48.1375L588.46875 52.45L587.0625 52.45ZM605.7344 49.778126L607.1875 49.95Q606.84375 51.23125 605.90625 51.934376Q604.9844 52.6375 603.5469 52.6375Q601.71875 52.6375 600.65625 51.5125Q599.59375 50.3875 599.59375 48.371876Q599.59375 46.278126 600.6719 45.121876Q601.75 43.965626 603.46875 43.965626Q605.125 43.965626 606.1719 45.10625Q607.2344 46.23125 607.2344 48.278126Q607.2344 48.403126 607.2344 48.653126L601.0469 48.653126Q601.125 50.028126 601.8125 50.7625Q602.5156 51.48125 603.5469 51.48125Q604.3281 51.48125 604.875 51.075Q605.4219 50.66875 605.7344 49.778126ZM601.125 47.496876L605.75 47.496876Q605.65625 46.45 605.21875 45.934376Q604.5469 45.121876 603.4844 45.121876Q602.5156 45.121876 601.84375 45.778126Q601.1875 46.41875 601.125 47.496876ZM612.71875 48.7625L614.15625 48.6375Q614.25 49.496876 614.625 50.059376Q615.0 50.60625 615.78125 50.95Q616.5625 51.278126 617.53125 51.278126Q618.40625 51.278126 619.0625 51.028126Q619.7344 50.7625 620.0469 50.325Q620.375 49.871876 620.375 49.340626Q620.375 48.79375 620.0625 48.403126Q619.75 47.996876 619.03125 47.715626Q618.5781 47.54375 617.0 47.16875Q615.4219 46.778126 614.78125 46.45Q613.96875 46.0125 613.5625 45.3875Q613.15625 44.746876 613.15625 43.95Q613.15625 43.090626 613.6406 42.340626Q614.1406 41.575 615.0781 41.184376Q616.03125 40.79375 617.1875 40.79375Q618.46875 40.79375 619.4375 41.215626Q620.40625 41.621876 620.9219 42.41875Q621.4531 43.215626 621.5 44.215626L620.0469 44.325Q619.9219 43.246876 619.25 42.7Q618.5781 42.1375 617.25 42.1375Q615.875 42.1375 615.25 42.6375Q614.625 43.1375 614.625 43.85625Q614.625 44.465626 615.0625 44.871876Q615.5 45.2625 617.34375 45.684376Q619.2031 46.10625 619.8906 46.41875Q620.8906 46.871876 621.3594 47.590626Q621.84375 48.29375 621.84375 49.215626Q621.84375 50.121876 621.3125 50.934376Q620.7969 51.746876 619.8125 52.2Q618.8281 52.653126 617.6094 52.653126Q616.0469 52.653126 615.0 52.2Q613.9531 51.73125 613.34375 50.825Q612.75 49.91875 612.71875 48.7625ZM627.125 51.184376L627.3281 52.434376Q626.7344 52.559376 626.2656 52.559376Q625.5 52.559376 625.0781 52.325Q624.65625 52.075 624.4844 51.684376Q624.3125 51.278126 624.3125 50.0125L624.3125 45.246876L623.28125 45.246876L623.28125 44.153126L624.3125 44.153126L624.3125 42.090626L625.71875 41.246876L625.71875 44.153126L627.125 44.153126L627.125 45.246876L625.71875 45.246876L625.71875 50.090626Q625.71875 50.7 625.78125 50.871876Q625.8594 51.04375 626.03125 51.153126Q626.2031 51.246876 626.5156 51.246876Q626.75 51.246876 627.125 51.184376ZM633.7344 49.778126L635.1875 49.95Q634.84375 51.23125 633.90625 51.934376Q632.9844 52.6375 631.5469 52.6375Q629.71875 52.6375 628.65625 51.5125Q627.59375 50.3875 627.59375 48.371876Q627.59375 46.278126 628.6719 45.121876Q629.75 43.965626 631.46875 43.965626Q633.125 43.965626 634.1719 45.10625Q635.2344 46.23125 635.2344 48.278126Q635.2344 48.403126 635.2344 48.653126L629.0469 48.653126Q629.125 50.028126 629.8125 50.7625Q630.5156 51.48125 631.5469 51.48125Q632.3281 51.48125 632.875 51.075Q633.4219 50.66875 633.7344 49.778126ZM629.125 47.496876L633.75 47.496876Q633.65625 46.45 633.21875 45.934376Q632.5469 45.121876 631.4844 45.121876Q630.5156 45.121876 629.84375 45.778126Q629.1875 46.41875 629.125 47.496876ZM637.0625 55.6375L637.0625 44.153126L638.34375 44.153126L638.34375 45.23125Q638.7969 44.590626 639.3594 44.278126Q639.9375 43.965626 640.75 43.965626Q641.8125 43.965626 642.625 44.5125Q643.4375 45.059376 643.84375 46.059376Q644.2656 47.04375 644.2656 48.23125Q644.2656 49.5125 643.7969 50.528126Q643.34375 51.54375 642.46875 52.090626Q641.6094 52.6375 640.6406 52.6375Q639.9375 52.6375 639.375 52.340626Q638.8281 52.04375 638.46875 51.590626L638.46875 55.6375L637.0625 55.6375ZM638.3281 48.340626Q638.3281 49.95 638.96875 50.715626Q639.625 51.48125 640.5469 51.48125Q641.4844 51.48125 642.15625 50.684376Q642.8281 49.8875 642.8281 48.23125Q642.8281 46.6375 642.1719 45.85625Q641.5156 45.059376 640.6094 45.059376Q639.71875 45.059376 639.0156 45.903126Q638.3281 46.746876 638.3281 48.340626ZM645.5 49.965626L646.8906 49.746876Q647.0 50.590626 647.53125 51.04375Q648.0781 51.48125 649.03125 51.48125Q650.0 51.48125 650.46875 51.090626Q650.9375 50.684376 650.9375 50.153126Q650.9375 49.684376 650.53125 49.403126Q650.2344 49.215626 649.09375 48.934376Q647.5469 48.54375 646.9375 48.2625Q646.34375 47.965626 646.03125 47.465626Q645.7344 46.965626 645.7344 46.35625Q645.7344 45.79375 645.9844 45.325Q646.2344 44.85625 646.6719 44.54375Q647.0 44.29375 647.5625 44.1375Q648.1406 43.965626 648.78125 43.965626Q649.7656 43.965626 650.5 44.246876Q651.2344 44.528126 651.5781 45.0125Q651.9375 45.48125 652.0781 46.29375L650.7031 46.48125Q650.6094 45.840626 650.15625 45.48125Q649.7031 45.121876 648.8906 45.121876Q647.9219 45.121876 647.5 45.45Q647.09375 45.7625 647.09375 46.184376Q647.09375 46.465626 647.2656 46.684376Q647.4375 46.903126 647.7969 47.059376Q648.0156 47.1375 649.0469 47.41875Q650.53125 47.809376 651.125 48.075Q651.71875 48.325 652.0469 48.809376Q652.3906 49.29375 652.3906 50.0125Q652.3906 50.715626 651.96875 51.340626Q651.5625 51.95 650.78125 52.29375Q650.0156 52.6375 649.0469 52.6375Q647.4219 52.6375 646.5781 51.965626Q645.7344 51.29375 645.5 49.965626ZM658.3125 52.45L658.3125 40.996876L666.0469 40.996876L666.0469 42.340626L659.8281 42.340626L659.8281 45.8875L665.2031 45.8875L665.2031 47.246876L659.8281 47.246876L659.8281 52.45L658.3125 52.45ZM673.46875 51.41875Q672.6875 52.090626 671.96875 52.371876Q671.25 52.6375 670.4219 52.6375Q669.0469 52.6375 668.3125 51.965626Q667.5781 51.29375 667.5781 50.2625Q667.5781 49.653126 667.8594 49.153126Q668.1406 48.6375 668.5781 48.340626Q669.03125 48.028126 669.59375 47.871876Q670.0156 47.7625 670.84375 47.66875Q672.5469 47.465626 673.3594 47.184376Q673.3594 46.8875 673.3594 46.809376Q673.3594 45.95 672.96875 45.60625Q672.4219 45.121876 671.3594 45.121876Q670.375 45.121876 669.8906 45.48125Q669.4219 45.825 669.2031 46.7L667.8281 46.5125Q668.0156 45.6375 668.4375 45.090626Q668.875 44.54375 669.6875 44.2625Q670.5 43.965626 671.5625 43.965626Q672.625 43.965626 673.28125 44.215626Q673.9531 44.465626 674.2656 44.840626Q674.5781 45.215626 674.7031 45.79375Q674.78125 46.153126 674.78125 47.090626L674.78125 48.965626Q674.78125 50.934376 674.8594 51.45Q674.9531 51.965626 675.21875 52.45L673.75 52.45Q673.53125 52.0125 673.46875 51.41875ZM673.3594 48.278126Q672.59375 48.590626 671.0625 48.809376Q670.1875 48.934376 669.8281 49.090626Q669.46875 49.246876 669.2656 49.559376Q669.0781 49.85625 669.0781 50.215626Q669.0781 50.778126 669.5 51.153126Q669.9375 51.528126 670.75 51.528126Q671.5625 51.528126 672.1875 51.184376Q672.8281 50.825 673.125 50.2Q673.3594 49.73125 673.3594 48.79375L673.3594 48.278126ZM682.46875 49.403126L683.8594 49.590626Q683.625 51.0125 682.6875 51.825Q681.7656 52.6375 680.40625 52.6375Q678.7031 52.6375 677.65625 51.528126Q676.625 50.403126 676.625 48.325Q676.625 46.98125 677.0625 45.98125Q677.5156 44.965626 678.4219 44.465626Q679.34375 43.965626 680.40625 43.965626Q681.7656 43.965626 682.625 44.653126Q683.4844 45.325 683.71875 46.590626L682.3594 46.79375Q682.15625 45.965626 681.65625 45.54375Q681.1719 45.121876 680.46875 45.121876Q679.40625 45.121876 678.7344 45.8875Q678.0781 46.6375 678.0781 48.29375Q678.0781 49.965626 678.71875 50.73125Q679.3594 51.48125 680.3906 51.48125Q681.21875 51.48125 681.7656 50.98125Q682.3281 50.465626 682.46875 49.403126ZM688.125 51.184376L688.3281 52.434376Q687.7344 52.559376 687.2656 52.559376Q686.5 52.559376 686.0781 52.325Q685.65625 52.075 685.4844 51.684376Q685.3125 51.278126 685.3125 50.0125L685.3125 45.246876L684.28125 45.246876L684.28125 44.153126L685.3125 44.153126L685.3125 42.090626L686.71875 41.246876L686.71875 44.153126L688.125 44.153126L688.125 45.246876L686.71875 45.246876L686.71875 50.090626Q686.71875 50.7 686.78125 50.871876Q686.8594 51.04375 687.03125 51.153126Q687.2031 51.246876 687.5156 51.246876Q687.75 51.246876 688.125 51.184376ZM688.53125 48.29375Q688.53125 45.996876 689.8125 44.8875Q690.8906 43.965626 692.4219 43.965626Q694.1406 43.965626 695.21875 45.090626Q696.3125 46.2 696.3125 48.184376Q696.3125 49.778126 695.8281 50.7Q695.34375 51.621876 694.4219 52.1375Q693.5156 52.6375 692.4219 52.6375Q690.6875 52.6375 689.6094 51.528126Q688.53125 50.403126 688.53125 48.29375ZM689.9844 48.29375Q689.9844 49.8875 690.6719 50.684376Q691.375 51.48125 692.4219 51.48125Q693.46875 51.48125 694.15625 50.684376Q694.8594 49.8875 694.8594 48.246876Q694.8594 46.715626 694.15625 45.91875Q693.46875 45.121876 692.4219 45.121876Q691.375 45.121876 690.6719 45.91875Q689.9844 46.7 689.9844 48.29375ZM698.0469 52.45L698.0469 44.153126L699.3125 44.153126L699.3125 45.403126Q699.7969 44.528126 700.2031 44.246876Q700.6094 43.965626 701.1094 43.965626Q701.8125 43.965626 702.5469 44.41875L702.0625 45.715626Q701.5469 45.41875 701.03125 45.41875Q700.5781 45.41875 700.2031 45.7Q699.84375 45.965626 699.6875 46.465626Q699.4531 47.215626 699.4531 48.10625L699.4531 52.45L698.0469 52.45ZM711.96875 52.45L710.5625 52.45L710.5625 43.48125Q710.0469 43.965626 709.21875 44.45Q708.40625 44.934376 707.75 45.184376L707.75 43.825Q708.9219 43.2625 709.7969 42.48125Q710.6875 41.684376 711.0625 40.95L711.96875 40.95L711.96875 52.45ZM715.6719 46.79375Q715.6719 44.7625 716.0781 43.528126Q716.5 42.29375 717.3281 41.621876Q718.15625 40.95 719.40625 40.95Q720.3281 40.95 721.0156 41.325Q721.71875 41.684376 722.1719 42.3875Q722.625 43.090626 722.875 44.090626Q723.1406 45.090626 723.1406 46.79375Q723.1406 48.809376 722.71875 50.059376Q722.3125 51.29375 721.4844 51.98125Q720.65625 52.653126 719.40625 52.653126Q717.75 52.653126 716.7969 51.45Q715.6719 50.028126 715.6719 46.79375ZM717.1094 46.79375Q717.1094 49.621876 717.7656 50.559376Q718.4375 51.48125 719.40625 51.48125Q720.375 51.48125 721.03125 50.54375Q721.6875 49.60625 721.6875 46.79375Q721.6875 43.965626 721.03125 43.04375Q720.375 42.10625 719.3906 42.10625Q718.4219 42.10625 717.84375 42.934376Q717.1094 43.98125 717.1094 46.79375ZM724.6719 46.79375Q724.6719 44.7625 725.0781 43.528126Q725.5 42.29375 726.3281 41.621876Q727.15625 40.95 728.40625 40.95Q729.3281 40.95 730.0156 41.325Q730.71875 41.684376 731.1719 42.3875Q731.625 43.090626 731.875 44.090626Q732.1406 45.090626 732.1406 46.79375Q732.1406 48.809376 731.71875 50.059376Q731.3125 51.29375 730.4844 51.98125Q729.65625 52.653126 728.40625 52.653126Q726.75 52.653126 725.7969 51.45Q724.6719 50.028126 724.6719 46.79375ZM726.1094 46.79375Q726.1094 49.621876 726.7656 50.559376Q727.4375 51.48125 728.40625 51.48125Q729.375 51.48125 730.03125 50.54375Q730.6875 49.60625 730.6875 46.79375Q730.6875 43.965626 730.03125 43.04375Q729.375 42.10625 728.3906 42.10625Q727.4219 42.10625 726.84375 42.934376Q726.1094 43.98125 726.1094 46.79375Z" fill-rule="nonzero"/></svg>