<?xml version="1.0"?>
<svg xmlns="http://www.w3.org/2000/svg" xmlns:xlink="http://www.w3.org/1999/xlink" fill="none" stroke-linecap="square" stroke-miterlimit="10" viewBox="0 0 1160 749">
  <clipPath id="a">
    <path d="m67.45 88.416664h1055.1v521.166636h-1055.1z"/>
  </clipPath>
  <path d="m0 0h1160v749h-1160z" fill="#f2f2f2"/>
  <g stroke-linecap="butt">
    <path d="m67.5 609.5h1055" stroke="#262626"/>
    <path d="m67.5 505.5h1055" stroke="#d9d9d9"/>
    <path d="m67.5 401.5h1055" stroke="#d9d9d9"/>
    <path d="m67.5 296.5h1055" stroke="#d9d9d9"/>
    <path d="m67.5 192.5h1055" stroke="#d9d9d9"/>
    <path d="m67.5 88.5h1055" stroke="#d9d9d9"/>
    <g stroke="#e1e1e1">
      <path d="m199.3375 504.67267v-16"/>
      <path d="m463.1125 208.65v-16"/>
      <path d="m726.8875 208.65v-16"/>
      <path d="m990.6625 116.92467v-16"/>
      <path d="m199.3375 531.04333v16"/>
      <path d="m463.1125 489.35v16"/>
      <path d="m726.8875 539.382v16"/>
      <path d="m990.6625 560.22864v16"/>
    </g>
    <path clip-path="url(#a)" d="m199.3375 488.67267 263.775-296.02267h263.775l263.775-91.72533" stroke="#4285f4" stroke-width="2"/>
    <path clip-path="url(#a)" d="m199.3375 547.04333 263.775-41.69333 263.775 50.032 263.775 20.84664" stroke="#34a853" stroke-width="2"/>
  </g>
  <path clip-path="url(#a)" d="m202.8375 488.67267c0 1.93298-1.567 3.5-3.5 3.5-1.93299 0-3.5-1.56702-3.5-3.5 0-1.93297 1.56701-3.5 3.5-3.5 1.933 0 3.5 1.56703 3.5 3.5z" fill="#4285f4"/>
  <path clip-path="url(#a)" d="m466.6125 192.65c0 1.933-1.567 3.5-3.5 3.5s-3.5-1.567-3.5-3.5c0-1.93299 1.567-3.5 3.5-3.5s3.5 1.56701 3.5 3.5z" fill="#4285f4"/>
  <path clip-path="url(#a)" d="m730.3875 192.65c0 1.933-1.567 3.5-3.5 3.5s-3.5-1.567-3.5-3.5c0-1.93299 1.567-3.5 3.5-3.5s3.5 1.56701 3.5 3.5z" fill="#4285f4"/>
  <path clip-path="url(#a)" d="m994.1625 100.92467c0 1.932996-1.567 3.5-3.5 3.5s-3.5-1.567004-3.5-3.5c0-1.933 1.567-3.5 3.5-3.5s3.5 1.567 3.5 3.5z" fill="#4285f4"/>
  <path clip-path="url(#a)" d="m202.8375 547.04333c0 1.93297-1.567 3.5-3.5 3.5-1.93299 0-3.5-1.56703-3.5-3.5 0-1.93298 1.56701-3.5 3.5-3.5 1.933 0 3.5 1.56702 3.5 3.5z" fill="#34a853"/>
  <path clip-path="url(#a)" d="m466.6125 505.35c0 1.933-1.567 3.5-3.5 3.5s-3.5-1.567-3.5-3.5 1.567-3.5 3.5-3.5 3.5 1.567 3.5 3.5z" fill="#34a853"/>
  <path clip-path="url(#a)" d="m730.3875 555.382c0 1.933-1.567 3.5-3.5 3.5s-3.5-1.567-3.5-3.5 1.567-3.5 3.5-3.5 3.5 1.567 3.5 3.5z" fill="#34a853"/>
  <path clip-path="url(#a)" d="m994.1625 576.22864c0 1.93306-1.567 3.5-3.5 3.5s-3.5-1.56694-3.5-3.5c0-1.93299 1.567-3.5 3.5-3.5s3.5 1.56701 3.5 3.5z" fill="#34a853"/>
  <path d="m187.8375 513.4383q0-1.53126.3125-2.45313.3125-.9375.92187-1.4375.625-.5 1.5625-.5.6875 0 1.20313.28125.53124.28125.875.8125.34374.51562.53124 1.26562.1875.75.1875 2.03126 0 1.5156-.3125 2.4375-.29687.92187-.92187 1.4375-.60937.5-1.5625.5-1.23437 0-1.95313-.89063-.84374-1.0625-.84374-3.48437zm1.07812 0q0 2.10937.5 2.8125.5.7031 1.21875.7031.73437 0 1.21875-.7031.5-.70313.5-2.8125 0-2.125-.5-2.8125-.48438-.70313-1.23438-.70313-.71874 0-1.15624.60937-.54688.78126-.54688 2.90626zm6.48438 4.23437v-1.20313h1.20312v1.20313q0 .65623-.23438 1.0625-.23437.42187-.73437.64063l-.29687-.45313q.32812-.14063.48437-.4375.15625-.28127.1875-.8125zm7.98437-1.01563v1.01563h-5.6875q0-.375.125-.73437.21875-.57813.6875-1.14063.48437-.5625 1.39063-1.29687 1.40624-1.15626 1.89062-1.82813.5-.67187.5-1.26563 0-.625-.45312-1.04687-.45313-.4375-1.17188-.4375-.76562 0-1.21875.45313-.45313.45312-.46875 1.26562l-1.07812-.10938q.10937-1.21874.82812-1.84374.73438-.64063 1.96875-.64063 1.23437 0 1.95313.6875.71874.6875.71874 1.70313 0 .51562-.21874 1.0156-.20313.4844-.70313 1.0469-.48437.54687-1.60937 1.5-.95313.79687-1.23438 1.09374-.26562.28126-.4375.5625zm1.60937-.96874 1.01563-.09376q.125.71876.48437 1.04686.375.3125.9375.3125.48438 0 .84376-.21873.375-.23437.60937-.59377.23437-.375.39063-1 .15624-.6406.15624-1.29686 0-.07814 0-.21874-.3125.5-.85937.8281-.54687.3125-1.1875.3125-1.07813 0-1.8125-.7656-.73437-.78126-.73437-2.04688 0-1.3125.76562-2.10938.78125-.79687 1.9375-.79687.82812 0 1.51562.45313.70313.45312 1.0625 1.29687.35938.82813.35938 2.40623 0 1.64064-.35938 2.625-.34374.96877-1.0625 1.4844-.70312.5-1.64062.5-1.01562 0-1.65625-.5469-.64063-.5625-.76563-1.5781zm4.3125-3.79688q0-.90625-.48437-1.4375-.46875-.53125-1.15625-.53125-.70312 0-1.23438.57813-.51562.5625-.51562 1.48437 0 .8125.5 1.32813.5.5156 1.21875.5156.73437 0 1.20313-.5156.46874-.51563.46874-1.42188z" stroke="#f2f2f2" stroke-linecap="round" stroke-linejoin="round" stroke-width="3"/>
  <path d="m187.8375 513.4383q0-1.53126.3125-2.45313.3125-.9375.92187-1.4375.625-.5 1.5625-.5.6875 0 1.20313.28125.53124.28125.875.8125.34374.51562.53124 1.26562.1875.75.1875 2.03126 0 1.5156-.3125 2.4375-.29687.92187-.92187 1.4375-.60937.5-1.5625.5-1.23437 0-1.95313-.89063-.84374-1.0625-.84374-3.48437zm1.07812 0q0 2.10937.5 2.8125.5.7031 1.21875.7031.73437 0 1.21875-.7031.5-.70313.5-2.8125 0-2.125-.5-2.8125-.48438-.70313-1.23438-.70313-.71874 0-1.15624.60937-.54688.78126-.54688 2.90626zm6.48438 4.23437v-1.20313h1.20312v1.20313q0 .65623-.23438 1.0625-.23437.42187-.73437.64063l-.29687-.45313q.32812-.14063.48437-.4375.15625-.28127.1875-.8125zm7.98437-1.01563v1.01563h-5.6875q0-.375.125-.73437.21875-.57813.6875-1.14063.48437-.5625 1.39063-1.29687 1.40624-1.15626 1.89062-1.82813.5-.67187.5-1.26563 0-.625-.45312-1.04687-.45313-.4375-1.17188-.4375-.76562 0-1.21875.45313-.45313.45312-.46875 1.26562l-1.07812-.10938q.10937-1.21874.82812-1.84374.73438-.64063 1.96875-.64063 1.23437 0 1.95313.6875.71874.6875.71874 1.70313 0 .51562-.21874 1.0156-.20313.4844-.70313 1.0469-.48437.54687-1.60937 1.5-.95313.79687-1.23438 1.09374-.26562.28126-.4375.5625zm1.60937-.96874 1.01563-.09376q.125.71876.48437 1.04686.375.3125.9375.3125.48438 0 .84376-.21873.375-.23437.60937-.59377.23437-.375.39063-1 .15624-.6406.15624-1.29686 0-.07814 0-.21874-.3125.5-.85937.8281-.54687.3125-1.1875.3125-1.07813 0-1.8125-.7656-.73437-.78126-.73437-2.04688 0-1.3125.76562-2.10938.78125-.79687 1.9375-.79687.82812 0 1.51562.45313.70313.45312 1.0625 1.29687.35938.82813.35938 2.40623 0 1.64064-.35938 2.625-.34374.96877-1.0625 1.4844-.70312.5-1.64062.5-1.01562 0-1.65625-.5469-.64063-.5625-.76563-1.5781zm4.3125-3.79688q0-.90625-.48437-1.4375-.46875-.53125-1.15625-.53125-.70312 0-1.23438.57813-.51562.5625-.51562 1.48437 0 .8125.5 1.32813.5.5156 1.21875.5156.73437 0 1.20313-.5156.46874-.51563.46874-1.42188z" fill="#000"/>
  <path d="m464.08124 221.65h-1.04688v-6.71876q-.39062.35938-1.01562.73438-.60938.35938-1.09374.53125v-1.01563q.875-.42187 1.53124-1 .67186-.59374.95312-1.15624h.67188z" stroke="#f2f2f2" stroke-linecap="round" stroke-linejoin="round" stroke-width="3"/>
  <path d="m464.08124 221.65h-1.04688v-6.71876q-.39062.35938-1.01562.73438-.60938.35938-1.09374.53125v-1.01563q.875-.42187 1.53124-1 .67186-.59374.95312-1.15624h.67188z" fill="#000"/>
  <path d="m727.85626 221.65h-1.04686v-6.71876q-.39064.35938-1.01564.73438-.60936.35938-1.09376.53125v-1.01563q.875-.42187 1.53126-1 .67188-.59374.95314-1.15624h.67186z" stroke="#f2f2f2" stroke-linecap="round" stroke-linejoin="round" stroke-width="3"/>
  <path d="m727.85626 221.65h-1.04686v-6.71876q-.39064.35938-1.01564.73438-.60936.35938-1.09376.53125v-1.01563q.875-.42187 1.53126-1 .67188-.59374.95314-1.15624h.67186z" fill="#000"/>
  <path d="m983.1312 129.92467h-1.04685v-6.71875q-.39065.35937-1.01565.73437-.60935.35938-1.0937.53125v-1.01562q.875-.42188 1.5312-1 .6719-.59375.95315-1.15625h.67185zm3.5938 0v-1.20313h1.2031v1.20313q0 .65625-.2344 1.0625-.23435.42187-.73435.64062l-.29685-.45312q.3281-.14063.48435-.4375.15625-.28125.1875-.8125zm7.98435-1.01563v1.01563h-5.6875q0-.375.125-.73438.21875-.57812.6875-1.14062.48435-.5625 1.39065-1.29688 1.4062-1.15625 1.8906-1.82812.5-.67188.5-1.26563 0-.625-.4531-1.04687-.45315-.4375-1.1719-.4375-.7656 0-1.21875.45312-.45315.45313-.46875 1.26563l-1.0781-.10938q.10935-1.21875.8281-1.84375.7344-.64062 1.96875-.64062 1.23435 0 1.95315.6875.7187.6875.7187 1.70312 0 .51563-.2187 1.01563-.20315.48437-.70315 1.04687-.48435.54688-1.60935 1.5-.95315.79688-1.2344 1.09375-.2656.28125-.4375.5625zm7 0v1.01563h-5.6875q0-.375.125-.73438.21875-.57812.6875-1.14062.48435-.5625 1.39065-1.29688 1.4062-1.15625 1.8906-1.82812.5-.67188.5-1.26563 0-.625-.4531-1.04687-.45315-.4375-1.1719-.4375-.7656 0-1.21875.45312-.45315.45313-.46875 1.26563l-1.0781-.10938q.10935-1.21875.8281-1.84375.7344-.64062 1.96875-.64062 1.23435 0 1.95315.6875.7187.6875.7187 1.70312 0 .51563-.2187 1.01563-.20315.48437-.70315 1.04687-.48435.54688-1.60935 1.5-.95315.79688-1.2344 1.09375-.2656.28125-.4375.5625z" stroke="#f2f2f2" stroke-linecap="round" stroke-linejoin="round" stroke-width="3"/>
  <path d="m983.1312 129.92467h-1.04685v-6.71875q-.39065.35937-1.01565.73437-.60935.35938-1.0937.53125v-1.01562q.875-.42188 1.5312-1 .6719-.59375.95315-1.15625h.67185zm3.5938 0v-1.20313h1.2031v1.20313q0 .65625-.2344 1.0625-.23435.42187-.73435.64062l-.29685-.45312q.3281-.14063.48435-.4375.15625-.28125.1875-.8125zm7.98435-1.01563v1.01563h-5.6875q0-.375.125-.73438.21875-.57812.6875-1.14062.48435-.5625 1.39065-1.29688 1.4062-1.15625 1.8906-1.82812.5-.67188.5-1.26563 0-.625-.4531-1.04687-.45315-.4375-1.1719-.4375-.7656 0-1.21875.45312-.45315.45313-.46875 1.26563l-1.0781-.10938q.10935-1.21875.8281-1.84375.7344-.64062 1.96875-.64062 1.23435 0 1.95315.6875.7187.6875.7187 1.70312 0 .51563-.2187 1.01563-.20315.48437-.70315 1.04687-.48435.54688-1.60935 1.5-.95315.79688-1.2344 1.09375-.2656.28125-.4375.5625zm7 0v1.01563h-5.6875q0-.375.125-.73438.21875-.57812.6875-1.14062.48435-.5625 1.39065-1.29688 1.4062-1.15625 1.8906-1.82812.5-.67188.5-1.26563 0-.625-.4531-1.04687-.45315-.4375-1.1719-.4375-.7656 0-1.21875.45312-.45315.45313-.46875 1.26563l-1.0781-.10938q.10935-1.21875.8281-1.84375.7344-.64062 1.96875-.64062 1.23435 0 1.95315.6875.7187.6875.7187 1.70312 0 .51563-.2187 1.01563-.20315.48437-.70315 1.04687-.48435.54688-1.60935 1.5-.95315.79688-1.2344 1.09375-.2656.28125-.4375.5625z" fill="#000"/>
  <path d="m187.8375 524.80896q0-1.53126.3125-2.45313.3125-.9375.92187-1.4375.625-.5 1.5625-.5.6875 0 1.20313.28127.53124.28123.875.8125.34374.5156.53124 1.2656.1875.75.1875 2.03126 0 1.51564-.3125 2.4375-.29687.92187-.92187 1.4375-.60937.5-1.5625.5-1.23437 0-1.95313-.89063-.84374-1.0625-.84374-3.48437zm1.07812 0q0 2.10937.5 2.8125.5.70314 1.21875.70314.73437 0 1.21875-.70314.5-.70313.5-2.8125 0-2.125-.5-2.8125-.48438-.70313-1.23438-.70313-.71874 0-1.15624.60937-.54688.78126-.54688 2.90626zm6.48438 4.23437v-1.20313h1.20312v1.20313q0 .65627-.23438 1.0625-.23437.42187-.73437.64063l-.29687-.45313q.32812-.14063.48437-.4375.15625-.28123.1875-.8125zm6.40624 0h-1.04687v-6.71873q-.39063.35936-1.01563.73436-.60937.35937-1.09374.53124v-1.0156q.875-.4219 1.53124-1 .67188-.59377.95313-1.15627h.67187zm3.03126-2.25 1.10937-.09373q.125.8125.5625 1.21873.45313.40627 1.09375.40627.75 0 1.28125-.57814.53125-.57813.53125-1.51563 0-.90623-.51562-1.42187-.5-.53126-1.32813-.53126-.5 0-.92187.2344-.40626.23436-.64063.59373l-.98437-.125.82812-4.40623h4.28125v1h-3.4375l-.45313 2.3125q.76563-.5469 1.60938-.5469 1.125 0 1.89062.78126.78126.78124.78126 2.01564 0 1.15623-.67188 2.0156-.82812 1.03126-2.25 1.03126-1.17188 0-1.92188-.65626-.73437-.65624-.84374-1.73437z" stroke="#f2f2f2" stroke-linecap="round" stroke-linejoin="round" stroke-width="3"/>
  <path d="m187.8375 524.80896q0-1.53126.3125-2.45313.3125-.9375.92187-1.4375.625-.5 1.5625-.5.6875 0 1.20313.28127.53124.28123.875.8125.34374.5156.53124 1.2656.1875.75.1875 2.03126 0 1.51564-.3125 2.4375-.29687.92187-.92187 1.4375-.60937.5-1.5625.5-1.23437 0-1.95313-.89063-.84374-1.0625-.84374-3.48437zm1.07812 0q0 2.10937.5 2.8125.5.70314 1.21875.70314.73437 0 1.21875-.70314.5-.70313.5-2.8125 0-2.125-.5-2.8125-.48438-.70313-1.23438-.70313-.71874 0-1.15624.60937-.54688.78126-.54688 2.90626zm6.48438 4.23437v-1.20313h1.20312v1.20313q0 .65627-.23438 1.0625-.23437.42187-.73437.64063l-.29687-.45313q.32812-.14063.48437-.4375.15625-.28123.1875-.8125zm6.40624 0h-1.04687v-6.71873q-.39063.35936-1.01563.73436-.60937.35937-1.09374.53124v-1.0156q.875-.4219 1.53124-1 .67188-.59377.95313-1.15627h.67187zm3.03126-2.25 1.10937-.09373q.125.8125.5625 1.21873.45313.40627 1.09375.40627.75 0 1.28125-.57814.53125-.57813.53125-1.51563 0-.90623-.51562-1.42187-.5-.53126-1.32813-.53126-.5 0-.92187.2344-.40626.23436-.64063.59373l-.98437-.125.82812-4.40623h4.28125v1h-3.4375l-.45313 2.3125q.76563-.5469 1.60938-.5469 1.125 0 1.89062.78126.78126.78124.78126 2.01564 0 1.15623-.67188 2.0156-.82812 1.03126-2.25 1.03126-1.17188 0-1.92188-.65626-.73437-.65624-.84374-1.73437z" fill="#000"/>
  <path d="m451.6125 483.11563q0-1.53125.3125-2.45313.3125-.9375.92186-1.4375.625-.5 1.5625-.5.6875 0 1.20314.28126.53124.28124.875.8125.34374.51562.53124 1.26562.1875.75.1875 2.03125 0 1.51563-.3125 2.4375-.29688.92187-.92188 1.4375-.60936.5-1.5625.5-1.23436 0-1.95312-.89063-.84374-1.0625-.84374-3.48437zm1.0781 0q0 2.10937.5 2.8125.5.70313 1.21876.70313.73438 0 1.21874-.70313.5-.70313.5-2.8125 0-2.125-.5-2.8125-.48436-.70313-1.23436-.70313-.71874 0-1.15624.60938-.5469.78125-.5469 2.90625zm6.4844 4.23437v-1.20312h1.2031v1.20312q0 .65626-.23436 1.0625-.23438.42188-.73438.64063l-.29686-.45313q.3281-.14062.48436-.4375.15624-.28124.1875-.8125zm7.98436-1.01562v1.01562h-5.6875q0-.375.125-.73437.21874-.57813.6875-1.14063.48438-.5625 1.39064-1.29687 1.40624-1.15625 1.8906-1.82813.5-.67187.5-1.26562 0-.625-.4531-1.04688-.45314-.4375-1.1719-.4375-.7656 0-1.21874.45313-.45312.45313-.46876 1.26563l-1.0781-.10938q.10936-1.21875.8281-1.84375.7344-.64063 1.96876-.64063 1.23438 0 1.95314.6875.71874.6875.71874 1.70313 0 .51563-.21874 1.01563-.20314.48437-.70314 1.04687-.48436.54687-1.60936 1.5-.95314.79687-1.2344 1.09375-.2656.28125-.4375.5625zm1.45314-1.23438 1.10936-.09374q.125.8125.5625 1.21874.45314.40626 1.09374.40626.75 0 1.28126-.57813.53124-.57813.53124-1.51563 0-.90624-.5156-1.42187-.5-.53125-1.32814-.53125-.5 0-.92186.23438-.40626.23437-.64064.59374l-.98436-.125.8281-4.40624h4.28126v1h-3.4375l-.45312 2.3125q.76562-.54688 1.60936-.54688 1.125 0 1.89064.78125.78126.78125.78126 2.01563 0 1.15624-.6719 2.01562-.8281 1.03125-2.25 1.03125-1.17186 0-1.92186-.65625-.73438-.65625-.84374-1.73438z" stroke="#f2f2f2" stroke-linecap="round" stroke-linejoin="round" stroke-width="3"/>
  <path d="m451.6125 483.11563q0-1.53125.3125-2.45313.3125-.9375.92186-1.4375.625-.5 1.5625-.5.6875 0 1.20314.28126.53124.28124.875.8125.34374.51562.53124 1.26562.1875.75.1875 2.03125 0 1.51563-.3125 2.4375-.29688.92187-.92188 1.4375-.60936.5-1.5625.5-1.23436 0-1.95312-.89063-.84374-1.0625-.84374-3.48437zm1.0781 0q0 2.10937.5 2.8125.5.70313 1.21876.70313.73438 0 1.21874-.70313.5-.70313.5-2.8125 0-2.125-.5-2.8125-.48436-.70313-1.23436-.70313-.71874 0-1.15624.60938-.5469.78125-.5469 2.90625zm6.4844 4.23437v-1.20312h1.2031v1.20312q0 .65626-.23436 1.0625-.23438.42188-.73438.64063l-.29686-.45313q.3281-.14062.48436-.4375.15624-.28124.1875-.8125zm7.98436-1.01562v1.01562h-5.6875q0-.375.125-.73437.21874-.57813.6875-1.14063.48438-.5625 1.39064-1.29687 1.40624-1.15625 1.8906-1.82813.5-.67187.5-1.26562 0-.625-.4531-1.04688-.45314-.4375-1.1719-.4375-.7656 0-1.21874.45313-.45312.45313-.46876 1.26563l-1.0781-.10938q.10936-1.21875.8281-1.84375.7344-.64063 1.96876-.64063 1.23438 0 1.95314.6875.71874.6875.71874 1.70313 0 .51563-.21874 1.01563-.20314.48437-.70314 1.04687-.48436.54687-1.60936 1.5-.95314.79687-1.2344 1.09375-.2656.28125-.4375.5625zm1.45314-1.23438 1.10936-.09374q.125.8125.5625 1.21874.45314.40626 1.09374.40626.75 0 1.28126-.57813.53124-.57813.53124-1.51563 0-.90624-.5156-1.42187-.5-.53125-1.32814-.53125-.5 0-.92186.23438-.40626.23437-.64064.59374l-.98436-.125.8281-4.40624h4.28126v1h-3.4375l-.45312 2.3125q.76562-.54688 1.60936-.54688 1.125 0 1.89064.78125.78126.78125.78126 2.01563 0 1.15624-.6719 2.01562-.8281 1.03125-2.25 1.03125-1.17186 0-1.92186-.65625-.73438-.65625-.84374-1.73438z" fill="#000"/>
  <path d="m715.3875 533.14764q0-1.53124.3125-2.45314.3125-.9375.9219-1.4375.625-.5 1.5625-.5.6875 0 1.2031.28127.53126.28123.875.8125.34376.51563.53126 1.26563.1875.75.1875 2.03124 0 1.51563-.3125 2.4375-.29686.92186-.92186 1.4375-.6094.5-1.5625.5-1.2344 0-1.95314-.89064-.84376-1.0625-.84376-3.48436zm1.07814 0q0 2.10936.5 2.8125.5.70313 1.21876.70313.73436 0 1.21874-.70313.5-.70314.5-2.8125 0-2.125-.5-2.8125-.48438-.70314-1.23438-.70314-.71876 0-1.15626.6094-.54686.78124-.54686 2.90624zm6.48436 4.23436v-1.2031h1.20314v1.2031q0 .65627-.23438 1.0625-.23436.4219-.73436.64064l-.2969-.45314q.32814-.1406.4844-.4375.15624-.28123.1875-.8125zm6.40626 0h-1.04686v-6.71873q-.39064.35937-1.01564.73437-.60936.35936-1.09376.53126v-1.01563q.875-.42187 1.53126-1 .67188-.59377.95314-1.15627h.67186zm3.03124-2.2656 1.0625-.14063q.1719.89063.6094 1.29687.4375.39063 1.0625.39063.75 0 1.2656-.51563.51564-.51564.51564-1.28124 0-.71876-.48438-1.1875-.46876-.4844-1.20312-.4844-.29688 0-.75.125l.125-.9375q.10936.01564.17186.01564.6719 0 1.20314-.34374.54686-.3594.54686-1.09376 0-.57814-.3906-.95314-.39064-.3906-1.01564-.3906-.60936 0-1.03126.3906-.40624.39064-.5156 1.15627l-1.0625-.1875q.1875-1.04687.875-1.625.6875-.59377 1.7031-.59377.70314 0 1.2969.3125.59374.2969.90624.8125.3125.51564.3125 1.1094 0 .54687-.29688 1.0156-.29686.45314-.875.71877.75.17187 1.17188.73437.42186.54686.42186 1.39063 0 1.125-.8281 1.90623-.8125.78127-2.0625.78127-1.125 0-1.875-.67187-.75-.6875-.8594-1.75z" stroke="#f2f2f2" stroke-linecap="round" stroke-linejoin="round" stroke-width="3"/>
  <path d="m715.3875 533.14764q0-1.53124.3125-2.45314.3125-.9375.9219-1.4375.625-.5 1.5625-.5.6875 0 1.2031.28127.53126.28123.875.8125.34376.51563.53126 1.26563.1875.75.1875 2.03124 0 1.51563-.3125 2.4375-.29686.92186-.92186 1.4375-.6094.5-1.5625.5-1.2344 0-1.95314-.89064-.84376-1.0625-.84376-3.48436zm1.07814 0q0 2.10936.5 2.8125.5.70313 1.21876.70313.73436 0 1.21874-.70313.5-.70314.5-2.8125 0-2.125-.5-2.8125-.48438-.70314-1.23438-.70314-.71876 0-1.15626.6094-.54686.78124-.54686 2.90624zm6.48436 4.23436v-1.2031h1.20314v1.2031q0 .65627-.23438 1.0625-.23436.4219-.73436.64064l-.2969-.45314q.32814-.1406.4844-.4375.15624-.28123.1875-.8125zm6.40626 0h-1.04686v-6.71873q-.39064.35937-1.01564.73437-.60936.35936-1.09376.53126v-1.01563q.875-.42187 1.53126-1 .67188-.59377.95314-1.15627h.67186zm3.03124-2.2656 1.0625-.14063q.1719.89063.6094 1.29687.4375.39063 1.0625.39063.75 0 1.2656-.51563.51564-.51564.51564-1.28124 0-.71876-.48438-1.1875-.46876-.4844-1.20312-.4844-.29688 0-.75.125l.125-.9375q.10936.01564.17186.01564.6719 0 1.20314-.34374.54686-.3594.54686-1.09376 0-.57814-.3906-.95314-.39064-.3906-1.01564-.3906-.60936 0-1.03126.3906-.40624.39064-.5156 1.15627l-1.0625-.1875q.1875-1.04687.875-1.625.6875-.59377 1.7031-.59377.70314 0 1.2969.3125.59374.2969.90624.8125.3125.51564.3125 1.1094 0 .54687-.29688 1.0156-.29686.45314-.875.71877.75.17187 1.17188.73437.42186.54686.42186 1.39063 0 1.125-.8281 1.90623-.8125.78127-2.0625.78127-1.125 0-1.875-.67187-.75-.6875-.8594-1.75z" fill="#000"/>
  <path d="m979.1625 553.99426q0-1.53126.3125-2.45312.3125-.9375.92185-1.4375.625-.5 1.5625-.5.6875 0 1.20315.28126.5312.28124.875.8125.3437.5156.5312 1.2656.1875.75.1875 2.03126 0 1.51564-.3125 2.4375-.29685.92188-.92185 1.4375-.60935.5-1.5625.5-1.23435 0-1.95315-.89062-.8437-1.0625-.8437-3.48438zm1.0781 0q0 2.10938.5 2.8125.5.70314 1.21875.70314.73435 0 1.21875-.70314.5-.70312.5-2.8125 0-2.125-.5-2.8125-.4844-.70312-1.2344-.70312-.7187 0-1.1562.60936-.5469.78126-.5469 2.90626zm6.4844 4.23438v-1.20314h1.2031v1.20314q0 .65626-.2344 1.0625-.23435.42186-.73435.64062l-.29685-.45312q.3281-.14064.48435-.4375.15625-.28124.1875-.8125zm2.4375-4.23438q0-1.53126.3125-2.45312.3125-.9375.92185-1.4375.625-.5 1.5625-.5.6875 0 1.20315.28126.5312.28124.875.8125.3437.5156.5312 1.2656.1875.75.1875 2.03126 0 1.51564-.3125 2.4375-.29685.92188-.92185 1.4375-.60935.5-1.5625.5-1.23435 0-1.95315-.89062-.8437-1.0625-.8437-3.48438zm1.0781 0q0 2.10938.5 2.8125.5.70314 1.21875.70314.73435 0 1.21875-.70314.5-.70312.5-2.8125 0-2.125-.5-2.8125-.4844-.70312-1.2344-.70312-.7187 0-1.1562.60936-.5469.78126-.5469 2.90626zm7.5469-.42186q-.6563-.25-.9844-.6875-.3125-.45314-.3125-1.0625 0-.9375.6719-1.57814.6875-.64062 1.79685-.64062 1.125 0 1.8125.65626.6875.65624.6875 1.59374 0 .59376-.3125 1.03126-.3125.4375-.95315.6875.7969.25 1.20315.8281.40625.57814.40625 1.375 0 1.09376-.78125 1.84376-.76565.75-2.04685.75-1.26565 0-2.0469-.75-.78125-.75-.78125-1.875 0-.84376.42185-1.40626.4375-.5625 1.2188-.7656zm-.2188-1.7969q0 .6094.39065 1 .40625.39064 1.03125.39064.6094 0 1-.375.3906-.39064.3906-.95314 0-.5781-.4062-.96874-.4063-.40626-1-.40626-.6094 0-1.01565.39064-.39065.39062-.39065.92186zm-.3281 3.96876q0 .45314.2031.875.2188.42188.64065.65624.42185.2344.90625.2344.75 0 1.2344-.4844.5-.48436.5-1.23436 0-.76564-.5-1.26564-.5-.5-1.26565-.5-.75 0-1.23435.5-.4844.4844-.4844 1.21876z" stroke="#f2f2f2" stroke-linecap="round" stroke-linejoin="round" stroke-width="3"/>
  <path d="m979.1625 553.99426q0-1.53126.3125-2.45312.3125-.9375.92185-1.4375.625-.5 1.5625-.5.6875 0 1.20315.28126.5312.28124.875.8125.3437.5156.5312 1.2656.1875.75.1875 2.03126 0 1.51564-.3125 2.4375-.29685.92188-.92185 1.4375-.60935.5-1.5625.5-1.23435 0-1.95315-.89062-.8437-1.0625-.8437-3.48438zm1.0781 0q0 2.10938.5 2.8125.5.70314 1.21875.70314.73435 0 1.21875-.70314.5-.70312.5-2.8125 0-2.125-.5-2.8125-.4844-.70312-1.2344-.70312-.7187 0-1.1562.60936-.5469.78126-.5469 2.90626zm6.4844 4.23438v-1.20314h1.2031v1.20314q0 .65626-.2344 1.0625-.23435.42186-.73435.64062l-.29685-.45312q.3281-.14064.48435-.4375.15625-.28124.1875-.8125zm2.4375-4.23438q0-1.53126.3125-2.45312.3125-.9375.92185-1.4375.625-.5 1.5625-.5.6875 0 1.20315.28126.5312.28124.875.8125.3437.5156.5312 1.2656.1875.75.1875 2.03126 0 1.51564-.3125 2.4375-.29685.92188-.92185 1.4375-.60935.5-1.5625.5-1.23435 0-1.95315-.89062-.8437-1.0625-.8437-3.48438zm1.0781 0q0 2.10938.5 2.8125.5.70314 1.21875.70314.73435 0 1.21875-.70314.5-.70312.5-2.8125 0-2.125-.5-2.8125-.4844-.70312-1.2344-.70312-.7187 0-1.1562.60936-.5469.78126-.5469 2.90626zm7.5469-.42186q-.6563-.25-.9844-.6875-.3125-.45314-.3125-1.0625 0-.9375.6719-1.57814.6875-.64062 1.79685-.64062 1.125 0 1.8125.65626.6875.65624.6875 1.59374 0 .59376-.3125 1.03126-.3125.4375-.95315.6875.7969.25 1.20315.8281.40625.57814.40625 1.375 0 1.09376-.78125 1.84376-.76565.75-2.04685.75-1.26565 0-2.0469-.75-.78125-.75-.78125-1.875 0-.84376.42185-1.40626.4375-.5625 1.2188-.7656zm-.2188-1.7969q0 .6094.39065 1 .40625.39064 1.03125.39064.6094 0 1-.375.3906-.39064.3906-.95314 0-.5781-.4062-.96874-.4063-.40626-1-.40626-.6094 0-1.01565.39064-.39065.39062-.39065.92186zm-.3281 3.96876q0 .45314.2031.875.2188.42188.64065.65624.42185.2344.90625.2344.75 0 1.2344-.4844.5-.48436.5-1.23436 0-.76564-.5-1.26564-.5-.5-1.26565-.5-.75 0-1.23435.5-.4844.4844-.4844 1.21876z" fill="#000"/>
  <path d="m577.71875 664.8958 1.4375-.125q.09375.8594.46875 1.4219.375.54686 1.15625.8906.78125.32814 1.75.32814.875 0 1.53125-.25.6719-.26564.9844-.70314.3281-.4531.3281-.98436 0-.54688-.3125-.9375-.3125-.40624-1.03125-.6875-.45315-.17188-2.03125-.54688-1.5781-.39062-2.21875-.71876-.8125-.4375-1.21875-1.0625-.40625-.6406-.40625-1.4375 0-.85936.48435-1.60936.5-.76564 1.4375-1.15624.95315-.39064 2.1094-.39064 1.28125 0 2.25.42188.96875.40626 1.4844 1.20312.5312.79688.5781 1.79688l-1.4531.10936q-.125-1.0781-.7969-1.625-.6719-.5625-2-.5625-1.375 0-2 .5-.625.5-.625 1.21876 0 .60938.4375 1.01564.4375.3906 2.28125.8125 1.85935.42186 2.54685.73436 1 .45314 1.4688 1.17188.48435.70312.48435 1.625 0 .90626-.53125 1.71876-.5156.8125-1.5 1.2656-.9844.45314-2.2031.45314-1.5625 0-2.6094-.45314-1.0469-.46874-1.65625-1.375-.59375-.90624-.625-2.0625zm11.3125 3.6875v-11.4531h1.40625v11.4531zm3.5-4.15624q0-2.29686 1.28125-3.40626 1.0781-.92186 2.6094-.92186 1.7187 0 2.79685 1.125 1.09375 1.10936 1.09375 3.09376 0 1.59374-.4844 2.5156-.48435.9219-1.4062 1.4375-.9063.5-2 .5-1.7344 0-2.8125-1.10936-1.07815-1.125-1.07815-3.23438zm1.45315 0q0 1.59374.6875 2.39064.7031.79686 1.75.79686 1.04685 0 1.73435-.79686.70315-.7969.70315-2.4375 0-1.53126-.70315-2.32814-.6875-.79686-1.73435-.79686-1.0469 0-1.75.79686-.6875.78124-.6875 2.375zm11.1406 2.89064.2031 1.25q-.5937.125-1.0625.125-.7656 0-1.1875-.2344-.42185-.25-.5937-.6406-.1719-.40626-.1719-1.6719v-4.7656h-1.03125v-1.09376h1.03125v-2.0625l1.40625-.84374v2.90624h1.40625v1.09376h-1.40625v4.84374q0 .60936.0625.78126.07815.17186.25.28124.17185.09376.48435.09376.2344 0 .6094-.0625zm.375-1.21876 1.3906-.21874q.1094.84374.64065 1.29686.54685.4375 1.5.4375.96875 0 1.4375-.39062.46875-.40624.46875-.9375 0-.46874-.40625-.75-.29685-.1875-1.4375-.46874-1.54685-.39064-2.15625-.6719-.59375-.29686-.90625-.79686-.29685-.5-.29685-1.10938 0-.5625.25-1.03126.25-.46874.6875-.78124.3281-.25.8906-.40626.5781-.17186 1.21875-.17186.98435 0 1.71875.28126.7344.28124 1.0781.7656.3594.46876.5 1.28126l-1.375.1875q-.0937-.64062-.54685-1-.45315-.35936-1.26565-.35936-.9687 0-1.3906.3281-.40625.3125-.40625.7344 0 .28124.17185.5.1719.21874.5313.375.2187.0781 1.25.35936 1.48435.39064 2.0781.65624.59375.25.9219.7344.3437.48436.3437 1.2031 0 .70314-.42185 1.32814-.40625.60936-1.1875.95312-.76565.34374-1.73435.34374-1.625 0-2.4688-.67186-.8437-.67188-1.0781-2z" fill="#000"/>
  <g fill="#595959">
    <path d="m37.95 609.34894q0-1.53124.3125-2.45314.3125-.9375.921876-1.4375.625-.5 1.5625-.5.6875 0 1.203124.28126.53125.28124.875.8125.34375.51564.53125 1.26564.1875.75.1875 2.03124 0 1.51562-.3125 2.4375-.296874.92186-.921874 1.4375-.609376.5-1.5625.5-1.234376 0-1.953126-.89064-.84375-1.0625-.84375-3.48436zm1.078126 0q0 2.10936.5 2.8125.5.70312 1.21875.70312.734374 0 1.21875-.70312.5-.70314.5-2.8125 0-2.125-.5-2.8125-.484376-.70314-1.234376-.70314-.71875 0-1.15625.6094-.546874.78124-.546874 2.90624zm6.484374 4.23436v-1.2031h1.203126v1.2031q0 .65626-.234376 1.0625-.234374.4219-.734374.64064l-.296876-.45314q.328126-.1406.484376-.4375.15625-.28124.1875-.8125zm2.4375-4.23436q0-1.53124.3125-2.45314.3125-.9375.921876-1.4375.625-.5 1.5625-.5.6875 0 1.203124.28126.53125.28124.875.8125.34375.51564.53125 1.26564.1875.75.1875 2.03124 0 1.51562-.3125 2.4375-.296874.92186-.921874 1.4375-.609376.5-1.5625.5-1.234376 0-1.953126-.89064-.84375-1.0625-.84375-3.48436zm1.078126 0q0 2.10936.5 2.8125.5.70312 1.21875.70312.734374 0 1.21875-.70312.5-.70314.5-2.8125 0-2.125-.5-2.8125-.484376-.70314-1.234376-.70314-.71875 0-1.15625.6094-.546874.78124-.546874 2.90624zm5.921874 0q0-1.53124.3125-2.45314.3125-.9375.921876-1.4375.625-.5 1.5625-.5.6875 0 1.203124.28126.53125.28124.875.8125.34375.51564.53125 1.26564.1875.75.1875 2.03124 0 1.51562-.3125 2.4375-.296874.92186-.921874 1.4375-.609376.5-1.5625.5-1.234376 0-1.953126-.89064-.84375-1.0625-.84375-3.48436zm1.078126 0q0 2.10936.5 2.8125.5.70312 1.21875.70312.734374 0 1.21875-.70312.5-.70314.5-2.8125 0-2.125-.5-2.8125-.484376-.70314-1.234376-.70314-.71875 0-1.15625.6094-.546874.78124-.546874 2.90624z"/>
    <path d="m37.95 505.11563q0-1.53125.3125-2.45313.3125-.9375.921876-1.4375.625-.5 1.5625-.5.6875 0 1.203124.28126.53125.28124.875.8125.34375.51562.53125 1.26562.1875.75.1875 2.03125 0 1.51563-.3125 2.4375-.296874.92187-.921874 1.4375-.609376.5-1.5625.5-1.234376 0-1.953126-.89063-.84375-1.0625-.84375-3.48437zm1.078126 0q0 2.10937.5 2.8125.5.70313 1.21875.70313.734374 0 1.21875-.70313.5-.70313.5-2.8125 0-2.125-.5-2.8125-.484376-.70313-1.234376-.70313-.71875 0-1.15625.60938-.546874.78125-.546874 2.90625zm6.484374 4.23437v-1.20312h1.203126v1.20312q0 .65626-.234376 1.0625-.234374.42188-.734374.64063l-.296876-.45313q.328126-.14062.484376-.4375.15625-.28124.1875-.8125zm7.984376-1.01562v1.01562h-5.6875q0-.375.125-.73437.21875-.57813.6875-1.14063.484374-.5625 1.390624-1.29687 1.40625-1.15625 1.890626-1.82813.5-.67187.5-1.26562 0-.625-.453126-1.04688-.453124-.4375-1.171874-.4375-.765626 0-1.21875.45313-.453126.45313-.46875 1.26563l-1.078126-.10938q.109376-1.21875.828126-1.84375.734374-.64063 1.96875-.64063 1.234374 0 1.953124.6875.71875.6875.71875 1.70313 0 .51563-.21875 1.01563-.203124.48437-.703124 1.04687-.484376.54687-1.609376 1.5-.953124.79687-1.234374 1.09375-.265626.28125-.4375.5625zm1.453124-1.23438 1.109376-.09374q.125.8125.5625 1.21874.453124.40626 1.09375.40626.75 0 1.28125-.57813.53125-.57813.53125-1.51563 0-.90624-.515626-1.42187-.5-.53125-1.328124-.53125-.5 0-.921876.23438-.40625.23437-.640624.59374l-.984376-.125.828126-4.40624h4.28125v1h-3.4375l-.453126 2.3125q.765626-.54688 1.609376-.54688 1.125 0 1.890624.78125.78125.78125.78125 2.01563 0 1.15624-.671874 2.01562-.828126 1.03125-2.25 1.03125-1.171876 0-1.921876-.65625-.734374-.65625-.84375-1.73438z"/>
    <path d="m37.95 400.8823q0-1.53126.3125-2.45313.3125-.9375.921876-1.4375.625-.5 1.5625-.5.6875 0 1.203124.28125.53125.28125.875.8125.34375.51562.53125 1.26562.1875.75.1875 2.03126 0 1.51562-.3125 2.4375-.296874.92187-.921874 1.4375-.609376.5-1.5625.5-1.234376 0-1.953126-.89063-.84375-1.0625-.84375-3.48437zm1.078126 0q0 2.10937.5 2.8125.5.70312 1.21875.70312.734374 0 1.21875-.70312.5-.70313.5-2.8125 0-2.125-.5-2.8125-.484376-.70313-1.234376-.70313-.71875 0-1.15625.60937-.546874.78126-.546874 2.90626zm6.484374 4.23437v-1.20313h1.203126v1.20313q0 .65625-.234376 1.0625-.234374.42187-.734374.64063l-.296876-.45313q.328126-.14063.484376-.4375.15625-.28125.1875-.8125zm2.4375-2.25 1.109376-.09375q.125.8125.5625 1.21875.453124.40625 1.09375.40625.75 0 1.28125-.57812.53125-.57813.53125-1.51563 0-.90625-.515626-1.42187-.5-.53126-1.328124-.53126-.5 0-.921876.23438-.40625.23438-.640624.59375l-.984376-.125.828126-4.40625h4.28125v1h-3.4375l-.453126 2.3125q.765626-.54688 1.609376-.54688 1.125 0 1.890624.78126.78125.78124.78125 2.01562 0 1.15625-.671874 2.01562-.828126 1.03126-2.25 1.03126-1.171876 0-1.921876-.65626-.734374-.65624-.84375-1.73437zm7-1.98437q0-1.53126.3125-2.45313.3125-.9375.921876-1.4375.625-.5 1.5625-.5.6875 0 1.203124.28125.53125.28125.875.8125.34375.51562.53125 1.26562.1875.75.1875 2.03126 0 1.51562-.3125 2.4375-.296874.92187-.921874 1.4375-.609376.5-1.5625.5-1.234376 0-1.953126-.89063-.84375-1.0625-.84375-3.48437zm1.078126 0q0 2.10937.5 2.8125.5.70312 1.21875.70312.734374 0 1.21875-.70312.5-.70313.5-2.8125 0-2.125-.5-2.8125-.484376-.70313-1.234376-.70313-.71875 0-1.15625.60937-.546874.78126-.546874 2.90626z"/>
    <path d="m37.95 296.64896q0-1.53126.3125-2.45313.3125-.9375.921876-1.4375.625-.5 1.5625-.5.6875 0 1.203124.28125.53125.28125.875.8125.34375.51562.53125 1.26562.1875.75.1875 2.03126 0 1.51562-.3125 2.4375-.296874.92187-.921874 1.4375-.609376.5-1.5625.5-1.234376 0-1.953126-.89063-.84375-1.0625-.84375-3.48437zm1.078126 0q0 2.10937.5 2.8125.5.70312 1.21875.70312.734374 0 1.21875-.70312.5-.70313.5-2.8125 0-2.125-.5-2.8125-.484376-.70313-1.234376-.70313-.71875 0-1.15625.60937-.546874.78126-.546874 2.90626zm6.484374 4.23437v-1.20313h1.203126v1.20313q0 .65625-.234376 1.0625-.234374.42187-.734374.64063l-.296876-.45313q.328126-.14063.484376-.4375.15625-.28125.1875-.8125zm2.5-7.46875v-1.01562h5.5625v.82812q-.8125.875-1.625 2.32812-.796874 1.4375-1.234374 2.96876-.328126 1.07812-.40625 2.35937h-1.09375q.015624-1.01563.390624-2.45313.390626-1.4375 1.09375-2.76562.71875-1.32812 1.53125-2.25zm6.9375 5.21875 1.109376-.09375q.125.8125.5625 1.21875.453124.40625 1.09375.40625.75 0 1.28125-.57812.53125-.57813.53125-1.51563 0-.90625-.515626-1.42187-.5-.53126-1.328124-.53126-.5 0-.921876.23438-.40625.23438-.640624.59375l-.984376-.125.828126-4.40625h4.28125v1h-3.4375l-.453126 2.3125q.765626-.54688 1.609376-.54688 1.125 0 1.890624.78126.78125.78124.78125 2.01562 0 1.15625-.671874 2.01562-.828126 1.03126-2.25 1.03126-1.171876 0-1.921876-.65626-.734374-.65624-.84375-1.73437z"/>
    <path d="m41.91875 196.65h-1.046874v-6.71876q-.390626.35938-1.015626.73438-.609374.35938-1.09375.53125v-1.01563q.875-.42187 1.53125-1 .671876-.59374.953126-1.15624h.671874zm3.59375 0v-1.20313h1.203126v1.20313q0 .65624-.234376 1.0625-.234374.42187-.734374.64062l-.296876-.45312q.328126-.14063.484376-.4375.15625-.28126.1875-.8125zm2.4375-4.23438q0-1.53125.3125-2.45312.3125-.9375.921876-1.4375.625-.5 1.5625-.5.6875 0 1.203124.28124.53125.28126.875.8125.34375.51563.53125 1.26563.1875.75.1875 2.03125 0 1.51562-.3125 2.4375-.296874.92188-.921874 1.4375-.609376.5-1.5625.5-1.234376 0-1.953126-.89062-.84375-1.0625-.84375-3.48438zm1.078126 0q0 2.10938.5 2.8125.5.70312 1.21875.70312.734374 0 1.21875-.70312.5-.70312.5-2.8125 0-2.125-.5-2.8125-.484376-.70312-1.234376-.70312-.71875 0-1.15625.60937-.546874.78125-.546874 2.90625zm5.921874 0q0-1.53125.3125-2.45312.3125-.9375.921876-1.4375.625-.5 1.5625-.5.6875 0 1.203124.28124.53125.28126.875.8125.34375.51563.53125 1.26563.1875.75.1875 2.03125 0 1.51562-.3125 2.4375-.296874.92188-.921874 1.4375-.609376.5-1.5625.5-1.234376 0-1.953126-.89062-.84375-1.0625-.84375-3.48438zm1.078126 0q0 2.10938.5 2.8125.5.70312 1.21875.70312.734374 0 1.21875-.70312.5-.70312.5-2.8125 0-2.125-.5-2.8125-.484376-.70312-1.234376-.70312-.71875 0-1.15625.60937-.546874.78125-.546874 2.90625z"/>
    <path d="m41.91875 92.416664h-1.046874v-6.71875q-.390626.359376-1.015626.734376-.609374.359374-1.09375.53125v-1.015626q.875-.421874 1.53125-1 .671876-.59375.953126-1.15625h.671874zm3.59375 0v-1.203124h1.203126v1.203124q0 .65625-.234376 1.0625-.234374.421876-.734374.640626l-.296876-.453126q.328126-.140624.484376-.4375.15625-.28125.1875-.8125zm7.984376-1.015624v1.015624h-5.6875q0-.375.125-.734374.21875-.578126.6875-1.140626.484374-.5625 1.390624-1.296874 1.40625-1.15625 1.890626-1.828126.5-.671874.5-1.265624 0-.625-.453126-1.046876-.453124-.4375-1.171874-.4375-.765626 0-1.21875.453126-.453126.453124-.46875 1.265624l-1.078126-.109374q.109376-1.21875.828126-1.84375.734374-.640626 1.96875-.640626 1.234374 0 1.953124.6875.71875.6875.71875 1.703126 0 .515624-.21875 1.015624-.203124.484376-.703124 1.046876-.484376.546874-1.609376 1.5-.953124.796874-1.234374 1.09375-.265626.28125-.4375.5625zm1.453124-1.234376 1.109376-.09375q.125.8125.5625 1.21875.453124.40625 1.09375.40625.75 0 1.28125-.578124.53125-.578126.53125-1.515626 0-.90625-.515626-1.421874-.5-.53125-1.328124-.53125-.5 0-.921876.234374-.40625.234376-.640624.59375l-.984376-.125.828126-4.40625h4.28125v1h-3.4375l-.453126 2.3125q.765626-.546874 1.609376-.546874 1.125 0 1.890624.78125.78125.78125.78125 2.015624 0 1.15625-.671874 2.015626-.828126 1.03125-2.25 1.03125-1.171876 0-1.921876-.65625-.734374-.65625-.84375-1.734376z"/>
    <path d="m201.88437 625.5677v1.0156h-5.6875q0-.375.125-.73436.21875-.57814.6875-1.14064.48437-.5625 1.39063-1.29686 1.40624-1.15624 1.89062-1.82814.5-.67186.5-1.2656 0-.625-.45312-1.0469-.45313-.4375-1.17188-.4375-.76562 0-1.21875.45314-.45313.45312-.46875 1.26562l-1.07812-.10936q.10937-1.21876.82812-1.84376.73438-.64064 1.96875-.64064 1.23437 0 1.95313.6875.71874.6875.71874 1.70314 0 .51562-.21874 1.01562-.20313.48438-.70313 1.04688-.48437.54686-1.60937 1.5-.95313.79686-1.23438 1.09376-.26562.28124-.4375.5625z"/>
    <path d="m463.4875 626.5833v-2.0625h-3.71876v-.96874l3.92186-5.5625h.8594v5.5625h1.15624v.96874h-1.15624v2.0625zm0-3.03124v-3.85936l-2.6875 3.85936z"/>
    <path d="m725.5125 621.92706q-.65624-.25-.98436-.6875-.3125-.45312-.3125-1.0625 0-.9375.67186-1.57812.6875-.64064 1.7969-.64064 1.125 0 1.8125.65626.6875.65624.6875 1.59374 0 .59376-.3125 1.03126-.3125.4375-.95314.6875.79688.25 1.20314.82814.40624.5781.40624 1.375 0 1.09374-.78124 1.84374-.76564.75-2.0469.75-1.2656 0-2.04686-.75-.78124-.75-.78124-1.875 0-.84374.42186-1.40624.4375-.5625 1.21874-.76564zm-.21874-1.79686q0 .60936.39064 1 .40624.3906 1.03124.3906.60936 0 1-.375.39062-.3906.39062-.9531 0-.57814-.40626-.96876-.40624-.40624-1-.40624-.60936 0-1.0156.3906-.39064.39064-.39064.9219zm-.32812 3.96874q0 .45312.20312.875.21874.42186.64064.65626.42186.23436.90624.23436.75 0 1.23436-.48436.5-.4844.5-1.2344 0-.7656-.5-1.2656-.5-.5-1.2656-.5-.75 0-1.2344.5-.48436.48436-.48436 1.21874z"/>
    <path d="m988.1312 626.5833h-1.04685v-6.71874q-.39065.35938-1.01565.73438-.60935.35936-1.0937.53126v-1.01564q.875-.42186 1.5312-1 .6719-.59376.95315-1.15626h.67185zm8.5-6.48436-1.04685.07812q-.14065-.625-.39065-.90626-.4375-.4531-1.0625-.4531-.5 0-.8906.28124-.4844.375-.78125 1.07812-.28125.6875-.29685 1.96874.375-.5781.92185-.85936.5625-.28124 1.17185-.28124 1.0469 0 1.7813.78124.75.78126.75 2 0 .8125-.3594 1.51562-.34375.6875-.9531 1.0625-.6094.35938-1.375.35938-1.32815 0-2.1563-.96874-.8281-.96876-.8281-3.1875 0-2.5.9219-3.625.79685-.9844 2.1562-.9844 1.01565 0 1.6563.57814.6562.5625.7812 1.5625zm-4.29685 3.70312q0 .54688.21875 1.04688.2344.48436.6406.75.4219.26562.89065.26562.65625 0 1.14065-.53126.48435-.54686.48435-1.46874 0-.89062-.48435-1.40626-.4688-.5156-1.1875-.5156-.7188 0-1.2188.5156-.48435.51564-.48435 1.34376z"/>
  </g>
  <path d="m514.5 704.55c0 3.3137-2.68628 6-6 6s-6-2.6863-6-6c0-3.31373 2.68628-6 6-6s6 2.68627 6 6z" fill="#4285f4"/>
  <path d="m522.875 706.6906 1.03125-.15624q.09375.625.48435.95314.4063.3281 1.14065.3281.71875 0 1.0625-.28124.35935-.29686.35935-.70312 0-.35938-.3125-.5625-.2187-.14064-1.0781-.35938-1.15625-.29686-1.6094-.5-.4375-.21876-.67185-.59376-.23435-.375-.23435-.84374 0-.40626.1875-.76562.1875-.35938.5156-.59374.25-.1719.6719-.2969.42185-.125.92185-.125.71875 0 1.26565.21876.5625.20314.8281.5625.2656.35938.3594.95314l-1.0313.1406q-.0625-.46874-.4062-.73436-.32815-.28124-.95315-.28124-.71875 0-1.03125.25-.3125.23436-.3125.5625 0 .2031.125.35936.1406.17188.40625.28124.15625.0625.9375.26564 1.125.3125 1.5625.5.4375.1875.6875.54686.25.3594.25.90626 0 .53124-.3125 1-.29685.45314-.875.71874-.57815.25-1.3125.25-1.21875 0-1.85935-.5-.625-.5156-.7969-1.5zm6.4219 4.25v-8.60936h.9531v.79686q.34375-.46874.7656-.7031.4375-.2344 1.0469-.2344.7969 0 1.40625.40626.60935.40624.90625 1.15624.3125.75.3125 1.64064 0 .95312-.34375 1.71876-.32815.7656-.98435 1.17186-.6563.40624-1.375.40624-.5313 0-.95315-.21874-.42185-.23436-.6875-.5625v3.03124zm.9531-5.46874q0 1.20314.4844 1.78124.48435.5625 1.17185.5625.70315 0 1.20315-.59374.5-.59376.5-1.84376 0-1.1875-.4844-1.7656-.4844-.59376-1.1719-.59376-.67185 0-1.1875.625-.5156.625-.5156 1.82812zm10.2969 1.07814 1.0937.125q-.25.9531-.9531 1.48436-.7031.53124-1.78125.53124-1.35935 0-2.17185-.84374-.7969-.84376-.7969-2.35936 0-1.5625.8125-2.4219.8125-.875 2.09375-.875 1.25 0 2.03125.84376.7969.84374.7969 2.39064 0 .09374 0 .28124h-4.64065q.0625 1.03126.57815 1.57812.5156.53124 1.29685.53124.57815 0 .98435-.29686.4219-.3125.6563-.96874zm-3.45315-1.70314h3.46875q-.0625-.79686-.3906-1.1875-.51565-.60936-1.3125-.60936-.7344 0-1.2344.48436-.4844.48438-.53125 1.3125zm10.45315 1.70314 1.0937.125q-.25.9531-.9531 1.48436-.7031.53124-1.78125.53124-1.35935 0-2.17185-.84374-.7969-.84376-.7969-2.35936 0-1.5625.8125-2.4219.8125-.875 2.09375-.875 1.25 0 2.03125.84376.7969.84374.7969 2.39064 0 .09374 0 .28124h-4.64065q.0625 1.03126.57815 1.57812.5156.53124 1.29685.53124.57815 0 .98435-.29686.4219-.3125.6563-.96874zm-3.45315-1.70314h3.46875q-.0625-.79686-.3906-1.1875-.51565-.60936-1.3125-.60936-.7344 0-1.2344.48436-.4844.48438-.53125 1.3125zm10.23435 3.70314v-.78126q-.5937.92186-1.73435.92186-.75 0-1.375-.40624-.625-.42186-.96875-1.15626-.34375-.73436-.34375-1.6875 0-.92186.3125-1.6875.3125-.7656.9375-1.15624.625-.40626 1.39065-.40626.5625 0 1 .2344.4375.23436.7187.60936v-3.07812h1.0469v8.59376zm-3.3281-3.1094q0 1.20314.5 1.7969.5.5781 1.1875.5781.6875 0 1.1719-.5625.48435-.5625.48435-1.71874 0-1.28126-.5-1.875-.48435-.59376-1.20315-.59376-.7031 0-1.17185.57814-.46875.5625-.46875 1.79686zm10.375 3.1094v-.9219q-.7344 1.0625-1.9844 1.0625-.54685 0-1.0312-.2031-.4688-.21876-.70315-.53126-.23435-.32814-.32815-.79688-.0625-.29686-.0625-.98436v-3.84376h1.0625v3.45312q0 .8125.0625 1.10938.0938.40626.4063.65626.3281.23436.8125.23436.4687 0 .875-.23436.42185-.25.5937-.6719.1875-.42186.1875-1.21874v-3.32812h1.0469v6.21876zm2.9219 2.3906v-8.60936h.9531v.79686q.34375-.46874.7656-.7031.4375-.2344 1.0469-.2344.7969 0 1.40625.40626.60935.40624.90625 1.15624.3125.75.3125 1.64064 0 .95312-.34375 1.71876-.32815.7656-.98435 1.17186-.6563.40624-1.375.40624-.5313 0-.95315-.21874-.42185-.23436-.6875-.5625v3.03124zm.9531-5.46874q0 1.20314.4844 1.78124.48435.5625 1.17185.5625.70315 0 1.20315-.59374.5-.59376.5-1.84376 0-1.1875-.4844-1.7656-.4844-.59376-1.1719-.59376-.67185 0-1.1875.625-.5156.625-.5156 1.82812z" fill="#595959"/>
  <path d="m598.5 704.55c0 3.3137-2.6863 6-6 6s-6-2.6863-6-6c0-3.31373 2.6863-6 6-6s6 2.68627 6 6z" fill="#34a853"/>
  <path d="m611.5469 706.55 1.0937.125q-.25.9531-.9531 1.48436-.7031.53124-1.78125.53124-1.35935 0-2.17185-.84374-.7969-.84376-.7969-2.35936 0-1.5625.8125-2.4219.8125-.875 2.09375-.875 1.25 0 2.03125.84376.7969.84374.7969 2.39064 0 .09374 0 .28124h-4.64065q.0625 1.03126.57815 1.57812.5156.53124 1.29685.53124.57815 0 .98435-.29686.4219-.3125.6563-.96874zm-3.45315-1.70314h3.46875q-.0625-.79686-.3906-1.1875-.51565-.60936-1.3125-.60936-.7344 0-1.2344.48436-.4844.48438-.53125 1.3125zm6.45315 3.70314v-5.40626h-.9375v-.8125h.9375v-.67188q0-.625.10935-.92186.15625-.4219.53125-.6719.3906-.25 1.0781-.25.45315 0 .9844.1094l-.15625.90624q-.32815-.04688-.625-.04688-.48435 0-.6875.20314-.1875.2031-.1875.7656v.57814h1.21875v.8125h-1.21875v5.40626zm3 0v-5.40626h-.9375v-.8125h.9375v-.67188q0-.625.10935-.92186.15625-.4219.53125-.6719.3906-.25 1.0781-.25.45315 0 .9844.1094l-.15625.90624q-.32815-.04688-.625-.04688-.48435 0-.6875.20314-.1875.2031-.1875.7656v.57814h1.21875v.8125h-1.21875v5.40626zm2.75-7.375v-1.21876h1.0625v1.21876zm0 7.375v-6.21876h1.0625v6.21876zm7.0625-2.28126 1.0312.14062q-.17185 1.0625-.875 1.67188-.7031.60936-1.7187.60936-1.2813 0-2.0625-.8281-.76565-.84376-.76565-2.40626 0-1 .32815-1.75.3437-.76564 1.0156-1.14064.6875-.375 1.5-.375 1 0 1.6406.51564.6563.5.8438 1.45312l-1.0313.15624q-.1406-.625-.5156-.9375-.375-.3281-.90625-.3281-.79685 0-1.29685.5781-.5.5625-.5 1.7969 0 1.2656.48435 1.8281.48435.5625 1.25.5625.625 0 1.03125-.375.4219-.375.5469-1.17186zm1.9375-5.09374v-1.21876h1.0625v1.21876zm0 7.375v-6.21876h1.0625v6.21876zm7.25-2 1.0937.125q-.25.9531-.9531 1.48436-.7031.53124-1.78125.53124-1.35935 0-2.17185-.84374-.7969-.84376-.7969-2.35936 0-1.5625.8125-2.4219.8125-.875 2.09375-.875 1.25 0 2.03125.84376.7969.84374.7969 2.39064 0 .09374 0 .28124h-4.64065q.0625 1.03126.57815 1.57812.5156.53124 1.29685.53124.57815 0 .98435-.29686.4219-.3125.6563-.96874zm-3.45315-1.70314h3.46875q-.0625-.79686-.3906-1.1875-.51565-.60936-1.3125-.60936-.7344 0-1.2344.48436-.4844.48438-.53125 1.3125zm6.20315 3.70314v-6.21876h.9375v.875q.6875-1.01564 1.98435-1.01564.5625 0 1.03125.20314.4844.20312.71875.53126.23435.3281.32815.7656.04685.2969.04685 1.03126v3.82814h-1.04685v-3.78126q0-.65624-.125-.96874-.125-.3125-.4375-.5-.3125-.20314-.7344-.20314-.6719 0-1.1719.4375-.48435.42188-.48435 1.60938v3.40626zm11.0625-2.28126 1.0312.14062q-.17185 1.0625-.875 1.67188-.7031.60936-1.7187.60936-1.2813 0-2.0625-.8281-.76565-.84376-.76565-2.40626 0-1 .32815-1.75.3437-.76564 1.0156-1.14064.6875-.375 1.5-.375 1 0 1.6406.51564.6563.5.8438 1.45312l-1.0313.15624q-.1406-.625-.5156-.9375-.375-.3281-.90625-.3281-.79685 0-1.29685.5781-.5.5625-.5 1.7969 0 1.2656.48435 1.8281.48435.5625 1.25.5625.625 0 1.03125-.375.4219-.375.5469-1.17186zm1.8906 4.67186-.125-.98436q.34375.09376.6094.09376.3437 0 .54685-.125.21875-.1094.35935-.3125.0938-.1719.32815-.7969.01565-.0781.09375-.25l-2.375-6.23436h1.1406l1.2969 3.59376q.25.6875.4531 1.4531.1875-.73436.4375-1.42186l1.32815-3.625h1.04685l-2.35935 6.32812q-.39065 1.01564-.59375 1.40624-.28125.53126-.65625.76564-.35935.25-.85935.25-.2969 0-.6719-.14064z" fill="#595959"/>
  <path d="m428.26562 52.45v-11.453124h5.07813q1.53125 0 2.32813.3125.79687.296874 1.26562 1.078124.48438.78125.48438 1.734376 0 1.21875-.79688 2.0625-.78125.828124-2.4375 1.046874.60938.296876.92188.578126.65624.609374 1.25 1.515624l2 3.125h-1.90626l-1.51562-2.390624q-.67188-1.03125-1.10938-1.578126-.42187-.546874-.76562-.765624-.32812-.21875-.6875-.296876-.25-.0625-.84375-.0625h-1.75v5.09375zm1.51563-6.40625h3.25q1.04687 0 1.625-.203124.59375-.21875.89063-.6875.3125-.484376.3125-1.03125 0-.8125-.59376-1.328126-.59374-.53125-1.85937-.53125h-3.625zm9.75 2.25q0-2.296874 1.28125-3.40625 1.07812-.921874 2.60938-.921874 1.71874 0 2.79687 1.125 1.09375 1.109374 1.09375 3.09375 0 1.59375-.48438 2.515624-.48437.921876-1.40624 1.4375-.90626.5-2 .5-1.73438 0-2.8125-1.109374-1.07813-1.125-1.07813-3.234376zm1.45313 0q0 1.59375.6875 2.390626.70312.796874 1.75.796874 1.04687 0 1.73437-.796874.70313-.796876.70313-2.4375 0-1.53125-.70313-2.328126-.6875-.796874-1.73437-.796874-1.04688 0-1.75.796874-.6875.78125-.6875 2.375zm7.54687 0q0-2.296874 1.28125-3.40625 1.07812-.921874 2.60938-.921874 1.71874 0 2.79687 1.125 1.09375 1.109374 1.09375 3.09375 0 1.59375-.48438 2.515624-.48437.921876-1.40624 1.4375-.90626.5-2 .5-1.73438 0-2.8125-1.109374-1.07813-1.125-1.07813-3.234376zm1.45313 0q0 1.59375.6875 2.390626.70312.796874 1.75.796874 1.04687 0 1.73437-.796874.70313-.796876.70313-2.4375 0-1.53125-.70313-2.328126-.6875-.796874-1.73437-.796874-1.04688 0-1.75.796874-.6875.78125-.6875 2.375zm8.07812 4.15625v-8.296874h1.25v1.15625q.39062-.609376 1.03125-.96875.65625-.375 1.48437-.375.92188 0 1.51563.390624.59375.375.82813 1.0625.98437-1.453124 2.5625-1.453124 1.23437 0 1.89062.6875.67188.671874.67188 2.09375v5.703124h-1.39063v-5.234374q0-.84375-.14063-1.203126-.14062-.375-.5-.59375-.35937-.234374-.84374-.234374-.875 0-1.45313.578124-.57813.578126-.57813 1.859376v4.828124h-1.40624v-5.390624q0-.9375-.34376-1.40625-.34374-.46875-1.125-.46875-.59374 0-1.09374.3125-.5.3125-.73438.921874-.21875.59375-.21875 1.71875v4.3125zm16.65625-3.6875 1.4375-.125q.09375.859376.46875 1.421876.375.546874 1.15625.890624.78125.328126 1.75.328126.875 0 1.53125-.25.67188-.265626.98438-.703126.32812-.453124.32812-.984374 0-.546876-.3125-.9375-.3125-.40625-1.03125-.6875-.45313-.171876-2.03125-.546876-1.57812-.390624-2.21875-.71875-.8125-.4375-1.21875-1.0625-.40625-.640624-.40625-1.4375 0-.859374.48437-1.609374.5-.765626 1.4375-1.15625.95313-.390626 2.10938-.390626 1.28125 0 2.25.421876.96875.40625 1.48438 1.203124.53124.796876.57812 1.796876l-1.45312.109374q-.125-1.078124-.79688-1.625-.67188-.5625-2-.5625-1.375 0-2 .5-.625.5-.625 1.21875 0 .609376.4375 1.015626.4375.390624 2.28125.8125 1.85937.421874 2.54687.734374 1 .453126 1.46876 1.171876.48437.703124.48437 1.625 0 .90625-.53125 1.71875-.51562.8125-1.5 1.265624-.98438.453126-2.20312.453126-1.5625 0-2.60938-.453126-1.04688-.46875-1.65625-1.375-.59375-.90625-.625-2.0625zm11.34375-6.15625v-1.609374h1.40625v1.609374zm0 9.84375v-8.296874h1.40625v8.296874zm3.25 0v-1.140624l5.28125-6.0625q-.89063.046874-1.57813.046874h-3.39062v-1.140624h6.78125v.921874l-4.48437 5.265626-.875.96875q.95312-.078126 1.78124-.078126h3.82813v1.21875zm14.42188-2.671874 1.45312.171874q-.34375 1.28125-1.28125 1.984376-.92187.703124-2.35937.703124-1.82813 0-2.89063-1.125-1.0625-1.125-1.0625-3.140624 0-2.09375 1.07813-3.25 1.07812-1.15625 2.79687-1.15625 1.65625 0 2.70313 1.140624 1.0625 1.125 1.0625 3.171876 0 .125 0 .375h-6.1875q.07812 1.375.76562 2.109374.70312.71875 1.73438.71875.78124 0 1.32812-.40625.54688-.40625.85938-1.296874zm-4.60938-2.28125h4.625q-.09375-1.046876-.53125-1.5625-.67187-.8125-1.73437-.8125-.96876 0-1.64063.65625-.65625.640624-.71875 1.71875zm18.9375 3.59375v1.359374h-7.57812q-.01563-.515624.17187-.984374.28125-.765626.92187-1.515626.64063-.75 1.84378-1.734374 1.85935-1.53125 2.5156-2.421876.65625-.90625.65625-1.703124 0-.828126-.59375-1.40625-.59375-.578126-1.5625-.578126-1.0156 0-1.625.609376-.6094.609374-.6094 1.6875l-1.4531-.140626q.15625-1.625 1.125-2.46875.96875-.84375 2.59375-.84375 1.65625 0 2.60935.921876.9688.90625.9688 2.25 0 .6875-.2813 1.359374-.2812.65625-.9375 1.390626-.6562.734374-2.17185 2.015624-1.26565 1.0625-1.625 1.453126-.35935.375-.59375.75zm6.1094 1.359374v-2.75h-4.9688v-1.28125l5.2344-7.421874h1.1406v7.421874h1.5469v1.28125h-1.5469v2.75zm0-4.03125v-5.171874l-3.57815 5.171874zm4.5 1 1.4062-.1875q.25 1.203126.82815 1.734376.57815.515624 1.42185.515624.9844 0 1.6719-.6875.6875-.6875.6875-1.703124 0-.96875-.6406-1.59375-.625-.625-1.6094-.625-.3906 0-.9844.15625l.1563-1.234376q.1406.015626.2187.015626.9063 0 1.625-.46875.7188-.46875.7188-1.453126 0-.765624-.5313-1.265624-.5156-.515626-1.3437-.515626-.82815 0-1.375.515626-.5469.515624-.70315 1.546874l-1.40625-.25q.2656-1.421874 1.1719-2.1875.92185-.78125 2.2812-.78125.9375 0 1.7188.40625.79685.390626 1.2031 1.09375.4219.6875.4219 1.46875 0 .75-.4063 1.359376-.3906.609374-1.17185.96875 1.01565.234374 1.57815.96875.5625.734374.5625 1.84375 0 1.5-1.0938 2.546874-1.0937 1.046876-2.7656 1.046876-1.5 0-2.5-.890626-1-.90625-1.1406-2.34375zm18.79685 2q-.78125.671876-1.5.953126-.71875.265624-1.54685.265624-1.375 0-2.1094-.671874-.7344-.671876-.7344-1.703126 0-.609374.2813-1.109374.2812-.515626.7187-.8125.45315-.3125 1.01565-.46875.42185-.109376 1.25-.203126 1.70315-.203124 2.51565-.484374 0-.296876 0-.375 0-.859376-.39065-1.203126-.54685-.484374-1.60935-.484374-.9844 0-1.4688.359374-.4687.34375-.6875 1.21875l-1.375-.1875q.1875-.875.6094-1.421874.4375-.546876 1.25-.828126.8125-.296874 1.875-.296874 1.0625 0 1.71875.25.67185.25.98435.625.3125.375.4375.953124.07815.359376.07815 1.296876v1.875q0 1.96875.07815 2.484374.0937.515626.35935 1h-1.46875q-.21875-.4375-.28125-1.03125zm-.10935-3.140624q-.76565.3125-2.2969.53125-.875.125-1.2344.28125-.35935.15625-.5625.46875-.1875.296874-.1875.65625 0 .5625.4219.9375.4375.375 1.25.375.8125 0 1.4375-.34375.6406-.359376.9375-.984376.2344-.46875.2344-1.40625zm3.7031 4.171874v-8.296874h1.2656v1.171874q.9063-1.359374 2.64065-1.359374.75 0 1.375.265624.625.265626.9375.703126.3125.4375.4375 1.046874.07815.390626.07815 1.359376v5.109374h-1.4063v-5.046874q0-.859376-.17185-1.28125-.15625-.4375-.57815-.6875-.4062-.25-.9687-.25-.9063 0-1.5625.578124-.64065.5625-.64065 2.15625v4.53125zm14.375 0v-1.046874q-.78125 1.234374-2.3125 1.234374-1 0-1.8281-.546874-.82815-.546876-1.2969-1.53125-.4531-.984376-.4531-2.25 0-1.25.4062-2.25.4219-1.015626 1.25-1.546876.82815-.546874 1.8594-.546874.75 0 1.3281.3125.5938.3125.95315.828124v-4.109374h1.40625v11.453124zm-4.4375-4.140624q0 1.59375.6719 2.390624.67185.78125 1.5781.78125.9219 0 1.5625-.75.65625-.765624.65625-2.3125 0-1.703124-.65625-2.5-.65625-.796874-1.625-.796874-.9375 0-1.5625.765624-.625.765626-.625 2.421876zm15.15625 4.140624v-10.109374h-3.78125v-1.34375h9.0781v1.34375h-3.7812v10.109374zm6.90625-9.84375v-1.609374h1.40625v1.609374zm0 9.84375v-8.296874h1.40625v8.296874zm4 0v-8.296874h1.25v1.15625q.3906-.609376 1.03125-.96875.65625-.375 1.48435-.375.9219 0 1.51565.390624.59375.375.82815 1.0625.98435-1.453124 2.5625-1.453124 1.23435 0 1.8906.6875.6719.671874.6719 2.09375v5.703124h-1.39065v-5.234374q0-.84375-.14065-1.203126-.1406-.375-.5-.59375-.35935-.234374-.8437-.234374-.875 0-1.45315.578124-.57815.578126-.57815 1.859376v4.828124h-1.4062v-5.390624q0-.9375-.3438-1.40625-.3437-.46875-1.125-.46875-.5937 0-1.0937.3125-.5.3125-.7344.921874-.21875.59375-.21875 1.71875v4.3125zm18.6719-2.671874 1.4531.171874q-.34375 1.28125-1.28125 1.984376-.92185.703124-2.35935.703124-1.82815 0-2.89065-1.125-1.0625-1.125-1.0625-3.140624 0-2.09375 1.07815-3.25 1.0781-1.15625 2.79685-1.15625 1.65625 0 2.70315 1.140624 1.0625 1.125 1.0625 3.171876 0 .125 0 .375h-6.1875q.0781 1.375.7656 2.109374.7031.71875 1.7344.71875.7812 0 1.3281-.40625.5469-.40625.8594-1.296874zm-4.6094-2.28125h4.625q-.09375-1.046876-.53125-1.5625-.67185-.8125-1.73435-.8125-.9688 0-1.64065.65625-.65625.640624-.71875 1.71875zm11.59375 1.265624 1.4375-.125q.09375.859376.46875 1.421876.375.546874 1.15625.890624.78125.328126 1.75.328126.875 0 1.53125-.25.6719-.265626.9844-.703126.3281-.453124.3281-.984374 0-.546876-.3125-.9375-.3125-.40625-1.03125-.6875-.45315-.171876-2.03125-.546876-1.5781-.390624-2.21875-.71875-.8125-.4375-1.21875-1.0625-.40625-.640624-.40625-1.4375 0-.859374.48435-1.609374.5-.765626 1.4375-1.15625.95315-.390626 2.1094-.390626 1.28125 0 2.25.421876.96875.40625 1.4844 1.203124.5312.796876.5781 1.796876l-1.4531.109374q-.125-1.078124-.7969-1.625-.6719-.5625-2-.5625-1.375 0-2 .5-.625.5-.625 1.21875 0 .609376.4375 1.015626.4375.390624 2.28125.8125 1.85935.421874 2.54685.734374 1 .453126 1.4688 1.171876.48435.703124.48435 1.625 0 .90625-.53125 1.71875-.5156.8125-1.5 1.265624-.9844.453126-2.2031.453126-1.5625 0-2.6094-.453126-1.0469-.46875-1.65625-1.375-.59375-.90625-.625-2.0625zm14.40625 2.421876.2031 1.25q-.5937.125-1.0625.125-.7656 0-1.1875-.234376-.42185-.25-.5937-.640624-.1719-.40625-.1719-1.671876v-4.765624h-1.03125v-1.09375h1.03125v-2.0625l1.40625-.84375v2.90625h1.40625v1.09375h-1.40625v4.84375q0 .609374.0625.78125.07815.171874.25.28125.17185.09375.48435.09375.2344 0 .6094-.0625zm6.6094-1.40625 1.4531.171874q-.34375 1.28125-1.28125 1.984376-.92185.703124-2.35935.703124-1.82815 0-2.89065-1.125-1.0625-1.125-1.0625-3.140624 0-2.09375 1.07815-3.25 1.0781-1.15625 2.79685-1.15625 1.65625 0 2.70315 1.140624 1.0625 1.125 1.0625 3.171876 0 .125 0 .375h-6.1875q.0781 1.375.7656 2.109374.7031.71875 1.7344.71875.7812 0 1.3281-.40625.5469-.40625.8594-1.296874zm-4.6094-2.28125h4.625q-.09375-1.046876-.53125-1.5625-.67185-.8125-1.73435-.8125-.9688 0-1.64065.65625-.65625.640624-.71875 1.71875zm7.9375 8.140624v-11.484374h1.28125v1.078124q.45315-.640624 1.01565-.953124.5781-.3125 1.3906-.3125 1.0625 0 1.875.546874.8125.546876 1.21875 1.546876.42185.984374.42185 2.171874 0 1.28125-.4687 2.296876-.45315 1.015624-1.32815 1.5625-.85935.546874-1.82815.546874-.7031 0-1.2656-.296874-.5469-.296876-.90625-.75v4.046874zm1.2656-7.296874q0 1.609374.64065 2.375.65625.765624 1.57815.765624.9375 0 1.60935-.796874.67185-.796876.67185-2.453126 0-1.59375-.6562-2.375-.6563-.796874-1.5625-.796874-.89065 0-1.5938.84375-.6875.84375-.6875 2.4375zm7.1719 1.625 1.3906-.21875q.1094.84375.64065 1.296874.54685.4375 1.5.4375.96875 0 1.4375-.390624.46875-.40625.46875-.9375 0-.46875-.40625-.75-.29685-.1875-1.4375-.46875-1.54685-.390626-2.15625-.671876-.59375-.296874-.90625-.796874-.29685-.5-.29685-1.109376 0-.5625.25-1.03125.25-.46875.6875-.78125.3281-.25.8906-.40625.5781-.171874 1.21875-.171874.98435 0 1.71875.28125.7344.28125 1.0781.765624.3594.46875.5 1.28125l-1.375.1875q-.0937-.640624-.54685-1-.45315-.359374-1.26565-.359374-.9687 0-1.3906.328124-.40625.3125-.40625.734376 0 .28125.17185.5.1719.21875.5313.375.2187.078124 1.25.359374 1.48435.390626 2.0781.65625.59375.25.9219.734376.3437.484374.3437 1.203124 0 .703126-.42185 1.328126-.40625.609374-1.1875.953124-.76565.34375-1.73435.34375-1.625 0-2.4688-.671874-.8437-.671876-1.0781-2zm12.8125 2.484374v-11.453124h7.7344v1.34375h-6.2188v3.546874h5.375v1.359376h-5.375v5.203124zm15.15625-1.03125q-.78125.671876-1.5.953126-.71875.265624-1.54685.265624-1.375 0-2.1094-.671874-.7344-.671876-.7344-1.703126 0-.609374.2813-1.109374.2812-.515626.7187-.8125.45315-.3125 1.01565-.46875.42185-.109376 1.25-.203126 1.70315-.203124 2.51565-.484374 0-.296876 0-.375 0-.859376-.39065-1.203126-.54685-.484374-1.60935-.484374-.9844 0-1.4688.359374-.4687.34375-.6875 1.21875l-1.375-.1875q.1875-.875.6094-1.421874.4375-.546876 1.25-.828126.8125-.296874 1.875-.296874 1.0625 0 1.71875.25.67185.25.98435.625.3125.375.4375.953124.07815.359376.07815 1.296876v1.875q0 1.96875.07815 2.484374.0937.515626.35935 1h-1.46875q-.21875-.4375-.28125-1.03125zm-.10935-3.140624q-.76565.3125-2.2969.53125-.875.125-1.2344.28125-.35935.15625-.5625.46875-.1875.296874-.1875.65625 0 .5625.4219.9375.4375.375 1.25.375.8125 0 1.4375-.34375.6406-.359376.9375-.984376.2344-.46875.2344-1.40625zm9.10935 1.125 1.39065.1875q-.2344 1.421874-1.1719 2.234374-.9219.8125-2.28125.8125-1.70315 0-2.75-1.109374-1.03125-1.125-1.03125-3.203126 0-1.34375.4375-2.34375.4531-1.015624 1.3594-1.515624.92185-.5 1.98435-.5 1.35935 0 2.21875.6875.8594.671874 1.09375 1.9375l-1.35935.203124q-.20315-.828124-.70315-1.25-.48435-.421874-1.1875-.421874-1.0625 0-1.73435.765624-.6563.75-.6563 2.40625 0 1.671876.64065 2.4375.64065.75 1.67185.75.82815 0 1.375-.5.5625-.515624.70315-1.578124zm5.65625 1.78125.2031 1.25q-.5937.125-1.0625.125-.7656 0-1.1875-.234376-.42185-.25-.5937-.640624-.1719-.40625-.1719-1.671876v-4.765624h-1.03125v-1.09375h1.03125v-2.0625l1.40625-.84375v2.90625h1.40625v1.09375h-1.40625v4.84375q0 .609374.0625.78125.07815.171874.25.28125.17185.09375.48435.09375.2344 0 .6094-.0625zm.40625-2.890626q0-2.296874 1.28125-3.40625 1.0781-.921874 2.6094-.921874 1.7187 0 2.79685 1.125 1.09375 1.109374 1.09375 3.09375 0 1.59375-.4844 2.515624-.48435.921876-1.4062 1.4375-.9063.5-2 .5-1.7344 0-2.8125-1.109374-1.07815-1.125-1.07815-3.234376zm1.45315 0q0 1.59375.6875 2.390626.7031.796874 1.75.796874 1.04685 0 1.73435-.796874.70315-.796876.70315-2.4375 0-1.53125-.70315-2.328126-.6875-.796874-1.73435-.796874-1.0469 0-1.75.796874-.6875.78125-.6875 2.375zm8.0625 4.15625v-8.296874h1.2656v1.25q.4844-.875.8906-1.15625.4063-.28125.9063-.28125.7031 0 1.4375.453124l-.4844 1.296876q-.5156-.296876-1.03125-.296876-.45315 0-.82815.28125-.35935.265626-.5156.765626-.2344.75-.2344 1.640624v4.34375zm13.92185 0h-1.40625v-8.96875q-.5156.484376-1.34375.96875-.8125.484376-1.46875.734376v-1.359376q1.1719-.5625 2.0469-1.34375.8906-.796874 1.2656-1.53125h.90625zm3.70315-5.65625q0-2.03125.4062-3.265624.4219-1.234376 1.25-1.90625.82815-.671876 2.07815-.671876.92185 0 1.60935.375.70315.359376 1.1563 1.0625.4531.703126.7031 1.703126.2656 1 .2656 2.703124 0 2.015626-.42185 3.265626-.40625 1.234374-1.23435 1.921874-.82815.671876-2.07815.671876-1.65625 0-2.60935-1.203126-1.125-1.421874-1.125-4.65625zm1.4375 0q0 2.828126.6562 3.765626.6719.921874 1.64065.921874.96875 0 1.625-.9375.65625-.9375.65625-3.75 0-2.828124-.65625-3.75-.65625-.9375-1.64065-.9375-.9687 0-1.54685.828126-.73435 1.046874-.73435 3.859374zm7.5625 0q0-2.03125.4062-3.265624.4219-1.234376 1.25-1.90625.82815-.671876 2.07815-.671876.92185 0 1.60935.375.70315.359376 1.1563 1.0625.4531.703126.7031 1.703126.2656 1 .2656 2.703124 0 2.015626-.42185 3.265626-.40625 1.234374-1.23435 1.921874-.82815.671876-2.07815.671876-1.65625 0-2.60935-1.203126-1.125-1.421874-1.125-4.65625zm1.4375 0q0 2.828126.6562 3.765626.6719.921874 1.64065.921874.96875 0 1.625-.9375.65625-.9375.65625-3.75 0-2.828124-.65625-3.75-.65625-.9375-1.64065-.9375-.9687 0-1.54685.828126-.73435 1.046874-.73435 3.859374z" fill="#595959"/>
</svg>
