<?xml version="1.0"?>
<svg xmlns="http://www.w3.org/2000/svg" xmlns:xlink="http://www.w3.org/1999/xlink" fill="none" stroke-linecap="square" stroke-miterlimit="10" viewBox="0 0 1160 749">
  <clipPath id="a">
    <path d="m78.45 88.416664h1044.1v521.166636h-1044.1z"/>
  </clipPath>
  <path d="m0 0h1160v749h-1160z" fill="#f2f2f2"/>
  <g stroke-linecap="butt">
    <path d="m78.5 609.5h1044" stroke="#262626"/>
    <path d="m78.5 505.5h1044" stroke="#d9d9d9"/>
    <path d="m78.5 401.5h1044" stroke="#d9d9d9"/>
    <path d="m78.5 296.5h1044" stroke="#d9d9d9"/>
    <path d="m78.5 192.5h1044" stroke="#d9d9d9"/>
    <path d="m78.5 88.5h1044" stroke="#d9d9d9"/>
    <path d="m252.46666 558.55054v16" stroke="#e1e1e1"/>
    <path d="m600.5 400.5015v16" stroke="#e1e1e1"/>
    <path d="m948.5333 124.10598v15.99999" stroke="#e1e1e1"/>
    <path clip-path="url(#a)" d="m252.46666 574.55054 348.03334-158.04904 348.0333-276.39553" stroke="#4285f4" stroke-width="2"/>
  </g>
  <path clip-path="url(#a)" d="m255.96666 574.55054c0 1.93296-1.567 3.5-3.5 3.5-1.93298 0-3.5-1.56704-3.5-3.5 0-1.93304 1.56702-3.5 3.5-3.5 1.933 0 3.5 1.56696 3.5 3.5z" fill="#4285f4"/>
  <path clip-path="url(#a)" d="m604 416.5015c0 1.933-1.567 3.5-3.5 3.5s-3.5-1.567-3.5-3.5 1.567-3.5 3.5-3.5 3.5 1.567 3.5 3.5z" fill="#4285f4"/>
  <path clip-path="url(#a)" d="m952.0333 140.10597c0 1.933-1.567 3.5-3.5 3.5-1.93296 0-3.5-1.567-3.5-3.5s1.56704-3.5 3.5-3.5c1.933 0 3.5 1.567 3.5 3.5z" fill="#4285f4"/>
  <path d="m238.96666 554.2849 1.0625-.1406q.17187.8906.60937 1.29686.4375.39064 1.0625.39064.75 0 1.26563-.51564.51562-.51562.51562-1.28126 0-.71874-.48437-1.1875-.46875-.48436-1.20313-.48436-.29687 0-.75.125l.125-.9375q.10938.01562.17188.01562.67187 0 1.20312-.34376.54688-.35936.54688-1.09374 0-.57812-.39063-.95312-.39062-.39064-1.01562-.39064-.60938 0-1.03125.39064-.40625.39062-.51563 1.15626l-1.0625-.1875q.1875-1.0469.875-1.625.6875-.59376 1.70313-.59376.70312 0 1.29687.3125.59375.29686.90625.8125.3125.51562.3125 1.10936 0 .5469-.29687 1.01564-.29688.45312-.875.71876.75.17186 1.17187.73436.42188.54688.42188 1.39064 0 1.125-.82813 1.90624-.8125.78126-2.0625.78126-1.125 0-1.875-.6719-.75-.6875-.85937-1.75zm7 0 1.0625-.1406q.17187.8906.60937 1.29686.4375.39064 1.0625.39064.75 0 1.26563-.51564.51562-.51562.51562-1.28126 0-.71874-.48437-1.1875-.46875-.48436-1.20313-.48436-.29687 0-.75.125l.125-.9375q.10938.01562.17188.01562.67187 0 1.20312-.34376.54688-.35936.54688-1.09374 0-.57812-.39063-.95312-.39062-.39064-1.01562-.39064-.60938 0-1.03125.39064-.40625.39062-.51563 1.15626l-1.0625-.1875q.1875-1.0469.875-1.625.6875-.59376 1.70313-.59376.70312 0 1.29687.3125.59375.29686.90625.8125.3125.51562.3125 1.10936 0 .5469-.29687 1.01564-.29688.45312-.875.71876.75.17186 1.17187.73436.42188.54688.42188 1.39064 0 1.125-.82813 1.90624-.8125.78126-2.0625.78126-1.125 0-1.875-.6719-.75-.6875-.85937-1.75zm12.46876-4.21874-1.04687.07814q-.14063-.625-.39063-.90626-.4375-.45314-1.06251-.45314-.5 0-.89063.28126-.48437.375-.78125 1.07814-.28125.6875-.29687 1.96874.375-.57814.92187-.85938.5625-.28126 1.17189-.28126 1.04688 0 1.78125.78126.75.78124.75 2 0 .8125-.35937 1.51564-.34375.6875-.95313 1.0625-.60937.35936-1.37501.35936-1.32813 0-2.15625-.96876-.82813-.96874-.82813-3.1875 0-2.5.92188-3.625.79687-.98436 2.15625-.98436 1.01564 0 1.65626.57812.65625.5625.78125 1.5625zm-4.29689 3.70314q0 .54686.21875 1.04686.23438.48438.64063.75.42187.26564.89062.26564.65627 0 1.14064-.53126.48438-.54688.48438-1.46874 0-.89064-.48438-1.40626-.46875-.51564-1.18751-.51564-.71875 0-1.21875.51564-.48438.51562-.48438 1.34376zm9.79689 2.78124h-1.04687v-6.71874q-.39063.35936-1.01563.73436-.60937.35938-1.09375.53124v-1.0156q.875-.4219 1.53125-1 .67188-.59376.95313-1.15626h.67187z" stroke="#f2f2f2" stroke-linecap="round" stroke-linejoin="round" stroke-width="3"/>
  <path d="m238.96666 554.2849 1.0625-.1406q.17187.8906.60937 1.29686.4375.39064 1.0625.39064.75 0 1.26563-.51564.51562-.51562.51562-1.28126 0-.71874-.48437-1.1875-.46875-.48436-1.20313-.48436-.29687 0-.75.125l.125-.9375q.10938.01562.17188.01562.67187 0 1.20312-.34376.54688-.35936.54688-1.09374 0-.57812-.39063-.95312-.39062-.39064-1.01562-.39064-.60938 0-1.03125.39064-.40625.39062-.51563 1.15626l-1.0625-.1875q.1875-1.0469.875-1.625.6875-.59376 1.70313-.59376.70312 0 1.29687.3125.59375.29686.90625.8125.3125.51562.3125 1.10936 0 .5469-.29687 1.01564-.29688.45312-.875.71876.75.17186 1.17187.73436.42188.54688.42188 1.39064 0 1.125-.82813 1.90624-.8125.78126-2.0625.78126-1.125 0-1.875-.6719-.75-.6875-.85937-1.75zm7 0 1.0625-.1406q.17187.8906.60937 1.29686.4375.39064 1.0625.39064.75 0 1.26563-.51564.51562-.51562.51562-1.28126 0-.71874-.48437-1.1875-.46875-.48436-1.20313-.48436-.29687 0-.75.125l.125-.9375q.10938.01562.17188.01562.67187 0 1.20312-.34376.54688-.35936.54688-1.09374 0-.57812-.39063-.95312-.39062-.39064-1.01562-.39064-.60938 0-1.03125.39064-.40625.39062-.51563 1.15626l-1.0625-.1875q.1875-1.0469.875-1.625.6875-.59376 1.70313-.59376.70312 0 1.29687.3125.59375.29686.90625.8125.3125.51562.3125 1.10936 0 .5469-.29687 1.01564-.29688.45312-.875.71876.75.17186 1.17187.73436.42188.54688.42188 1.39064 0 1.125-.82813 1.90624-.8125.78126-2.0625.78126-1.125 0-1.875-.6719-.75-.6875-.85937-1.75zm12.46876-4.21874-1.04687.07814q-.14063-.625-.39063-.90626-.4375-.45314-1.06251-.45314-.5 0-.89063.28126-.48437.375-.78125 1.07814-.28125.6875-.29687 1.96874.375-.57814.92187-.85938.5625-.28126 1.17189-.28126 1.04688 0 1.78125.78126.75.78124.75 2 0 .8125-.35937 1.51564-.34375.6875-.95313 1.0625-.60937.35936-1.37501.35936-1.32813 0-2.15625-.96876-.82813-.96874-.82813-3.1875 0-2.5.92188-3.625.79687-.98436 2.15625-.98436 1.01564 0 1.65626.57812.65625.5625.78125 1.5625zm-4.29689 3.70314q0 .54686.21875 1.04686.23438.48438.64063.75.42187.26564.89062.26564.65627 0 1.14064-.53126.48438-.54688.48438-1.46874 0-.89064-.48438-1.40626-.46875-.51564-1.18751-.51564-.71875 0-1.21875.51564-.48438.51562-.48438 1.34376zm9.79689 2.78124h-1.04687v-6.71874q-.39063.35936-1.01563.73436-.60937.35938-1.09375.53124v-1.0156q.875-.4219 1.53125-1 .67188-.59376.95313-1.15626h.67187z" fill="#000"/>
  <path d="m587.46875 398.5015h-1.04685v-6.71875q-.39065.35937-1.01565.73437-.60935.35938-1.09375.53125v-1.01562q.875-.42188 1.53125-1 .67185-.59375.95315-1.15625h.67185zm4.65625-4.65625q-.65625-.25-.9844-.6875-.3125-.45313-.3125-1.0625 0-.9375.6719-1.57813.6875-.64062 1.7969-.64062 1.125 0 1.8125.65625.6875.65625.6875 1.59375 0 .59375-.3125 1.03125-.3125.4375-.95315.6875.79685.25 1.20315.82812.4062.57813.4062 1.375 0 1.09375-.7812 1.84375-.76565.75-2.0469.75-1.2656 0-2.0469-.75-.7812-.75-.7812-1.875 0-.84375.42185-1.40625.4375-.5625 1.21875-.76562zm-.21875-1.79688q0 .60938.39065 1 .4062.39063 1.0312.39063.6094 0 1-.375.39065-.39063.39065-.95313 0-.57812-.40625-.96875-.40625-.40625-1-.40625-.6094 0-1.0156.39063-.39065.39062-.39065.92187zm-.32815 3.96875q0 .45313.20315.875.21875.42188.64065.65625.42185.23438.9062.23438.75 0 1.2344-.48438.5-.48437.5-1.23437 0-.76563-.5-1.26563-.5-.5-1.2656-.5-.75 0-1.2344.5-.4844.48438-.4844 1.21875zm5.9219.23438 1.1094-.09375q.125.8125.5625 1.21875.4531.40625 1.0937.40625.75 0 1.2813-.57813.5312-.57812.5312-1.51562 0-.90625-.5156-1.42188-.5-.53125-1.3281-.53125-.5 0-.9219.23438-.40625.23437-.6406.59375l-.9844-.125.8281-4.40625h4.2813v1h-3.4375l-.45315 2.3125q.76565-.54688 1.60935-.54688 1.125 0 1.89065.78125.78125.78125.78125 2.01563 0 1.15625-.6719 2.01562-.8281 1.03125-2.25 1.03125-1.17185 0-1.92185-.65625-.73435-.65625-.84375-1.73437zm12.5469 1.23437v1.01563h-5.6875q0-.375.125-.73438.2187-.57812.6875-1.14062.48435-.5625 1.3906-1.29688 1.40625-1.15625 1.8906-1.82812.5-.67188.5-1.26563 0-.625-.4531-1.04687-.4531-.4375-1.1719-.4375-.7656 0-1.2187.45312-.45315.45313-.4688 1.26563l-1.0781-.10938q.1094-1.21875.8281-1.84375.7344-.64062 1.9688-.64062 1.23435 0 1.9531.6875.71875.6875.71875 1.70312 0 .51563-.21875 1.01563-.2031.48437-.7031 1.04687-.4844.54688-1.6094 1.5-.9531.79688-1.2344 1.09375-.2656.28125-.4375.5625zm4.8281 1.01563v-2.0625h-3.71875v-.96875l3.92185-5.5625h.8594v5.5625h1.15625v.96875h-1.15625v2.0625zm0-3.03125v-3.85938l-2.6875 3.85938z" stroke="#f2f2f2" stroke-linecap="round" stroke-linejoin="round" stroke-width="3"/>
  <path d="m587.46875 398.5015h-1.04685v-6.71875q-.39065.35937-1.01565.73437-.60935.35938-1.09375.53125v-1.01562q.875-.42188 1.53125-1 .67185-.59375.95315-1.15625h.67185zm4.65625-4.65625q-.65625-.25-.9844-.6875-.3125-.45313-.3125-1.0625 0-.9375.6719-1.57813.6875-.64062 1.7969-.64062 1.125 0 1.8125.65625.6875.65625.6875 1.59375 0 .59375-.3125 1.03125-.3125.4375-.95315.6875.79685.25 1.20315.82812.4062.57813.4062 1.375 0 1.09375-.7812 1.84375-.76565.75-2.0469.75-1.2656 0-2.0469-.75-.7812-.75-.7812-1.875 0-.84375.42185-1.40625.4375-.5625 1.21875-.76562zm-.21875-1.79688q0 .60938.39065 1 .4062.39063 1.0312.39063.6094 0 1-.375.39065-.39063.39065-.95313 0-.57812-.40625-.96875-.40625-.40625-1-.40625-.6094 0-1.0156.39063-.39065.39062-.39065.92187zm-.32815 3.96875q0 .45313.20315.875.21875.42188.64065.65625.42185.23438.9062.23438.75 0 1.2344-.48438.5-.48437.5-1.23437 0-.76563-.5-1.26563-.5-.5-1.2656-.5-.75 0-1.2344.5-.4844.48438-.4844 1.21875zm5.9219.23438 1.1094-.09375q.125.8125.5625 1.21875.4531.40625 1.0937.40625.75 0 1.2813-.57813.5312-.57812.5312-1.51562 0-.90625-.5156-1.42188-.5-.53125-1.3281-.53125-.5 0-.9219.23438-.40625.23437-.6406.59375l-.9844-.125.8281-4.40625h4.2813v1h-3.4375l-.45315 2.3125q.76565-.54688 1.60935-.54688 1.125 0 1.89065.78125.78125.78125.78125 2.01563 0 1.15625-.6719 2.01562-.8281 1.03125-2.25 1.03125-1.17185 0-1.92185-.65625-.73435-.65625-.84375-1.73437zm12.5469 1.23437v1.01563h-5.6875q0-.375.125-.73438.2187-.57812.6875-1.14062.48435-.5625 1.3906-1.29688 1.40625-1.15625 1.8906-1.82812.5-.67188.5-1.26563 0-.625-.4531-1.04687-.4531-.4375-1.1719-.4375-.7656 0-1.2187.45312-.45315.45313-.4688 1.26563l-1.0781-.10938q.1094-1.21875.8281-1.84375.7344-.64062 1.9688-.64062 1.23435 0 1.9531.6875.71875.6875.71875 1.70312 0 .51563-.21875 1.01563-.2031.48437-.7031 1.04687-.4844.54688-1.6094 1.5-.9531.79688-1.2344 1.09375-.2656.28125-.4375.5625zm4.8281 1.01563v-2.0625h-3.71875v-.96875l3.92185-5.5625h.8594v5.5625h1.15625v.96875h-1.15625v2.0625zm0-3.03125v-3.85938l-2.6875 3.85938z" fill="#000"/>
  <path d="m934.9083 122.10598v-2.0625h-3.7187v-.96875l3.92185-5.5625h.85935v5.5625h1.1563v.96875h-1.1563v2.0625zm0-3.03125v-3.859375l-2.6875 3.859375zm3.625.78125 1.1094-.09375q.125.8125.5625 1.21875.4531.40625 1.09375.40625.75 0 1.28125-.578125.53125-.578125.53125-1.515625 0-.90625-.51565-1.421875-.5-.53125-1.3281-.53125-.5 0-.9219.234375-.4062.234375-.6406.59375l-.9844-.125.82815-4.40625h4.28125v1h-3.4375l-.4531 2.3125q.7656-.546875 1.60935-.546875 1.125 0 1.89065.78125.7812.78125.7812 2.015625 0 1.15625-.67185 2.015625-.82815 1.03125-2.25 1.03125-1.17185 0-1.92185-.65625-.7344-.65625-.8438-1.734375zm7-1.984375q0-1.53125.3125-2.453125.3125-.9375.9219-1.4375.625-.5 1.5625-.5.6875 0 1.2031.28125.5313.28125.875.8125.3438.515625.5313 1.265625.1875.75.1875 2.03125 0 1.515625-.3125 2.4375-.2969.921875-.9219 1.4375-.6094.5-1.5625.5-1.2344 0-1.9531-.890625-.8438-1.0625-.8438-3.484375zm1.07815 0q0 2.109375.5 2.8125.5.703125 1.21875.703125.7344 0 1.21875-.703125.5-.703125.5-2.8125 0-2.125-.5-2.8125-.48435-.703125-1.23435-.703125-.7188 0-1.1563.609375-.54685.78125-.54685 2.90625zm9.29685 4.234375v-2.0625h-3.7187v-.96875l3.92185-5.5625h.85935v5.5625h1.1563v.96875h-1.1563v2.0625zm0-3.03125v-3.859375l-2.6875 3.859375zm7.5938 3.03125h-1.0469v-6.71875q-.3906.359375-1.0156.734375-.6094.359375-1.0938.53125v-1.015625q.875-.421875 1.5313-1 .67185-.59375.9531-1.15625h.6719z" stroke="#f2f2f2" stroke-linecap="round" stroke-linejoin="round" stroke-width="3"/>
  <path d="m934.9083 122.10598v-2.0625h-3.7187v-.96875l3.92185-5.5625h.85935v5.5625h1.1563v.96875h-1.1563v2.0625zm0-3.03125v-3.859375l-2.6875 3.859375zm3.625.78125 1.1094-.09375q.125.8125.5625 1.21875.4531.40625 1.09375.40625.75 0 1.28125-.578125.53125-.578125.53125-1.515625 0-.90625-.51565-1.421875-.5-.53125-1.3281-.53125-.5 0-.9219.234375-.4062.234375-.6406.59375l-.9844-.125.82815-4.40625h4.28125v1h-3.4375l-.4531 2.3125q.7656-.546875 1.60935-.546875 1.125 0 1.89065.78125.7812.78125.7812 2.015625 0 1.15625-.67185 2.015625-.82815 1.03125-2.25 1.03125-1.17185 0-1.92185-.65625-.7344-.65625-.8438-1.734375zm7-1.984375q0-1.53125.3125-2.453125.3125-.9375.9219-1.4375.625-.5 1.5625-.5.6875 0 1.2031.28125.5313.28125.875.8125.3438.515625.5313 1.265625.1875.75.1875 2.03125 0 1.515625-.3125 2.4375-.2969.921875-.9219 1.4375-.6094.5-1.5625.5-1.2344 0-1.9531-.890625-.8438-1.0625-.8438-3.484375zm1.07815 0q0 2.109375.5 2.8125.5.703125 1.21875.703125.7344 0 1.21875-.703125.5-.703125.5-2.8125 0-2.125-.5-2.8125-.48435-.703125-1.23435-.703125-.7188 0-1.1563.609375-.54685.78125-.54685 2.90625zm9.29685 4.234375v-2.0625h-3.7187v-.96875l3.92185-5.5625h.85935v5.5625h1.1563v.96875h-1.1563v2.0625zm0-3.03125v-3.859375l-2.6875 3.859375zm7.5938 3.03125h-1.0469v-6.71875q-.3906.359375-1.0156.734375-.6094.359375-1.0938.53125v-1.015625q.875-.421875 1.5313-1 .67185-.59375.9531-1.15625h.6719z" fill="#000"/>
  <path d="m567.0469 668.5833v-8.29686h1.2656v1.25q.4844-.875.8906-1.15624.4063-.28126.9063-.28126.7031 0 1.4375.45312l-.4844 1.29688q-.5156-.29688-1.03125-.29688-.45315 0-.82815.28124-.35935.26564-.5156.76564-.2344.75-.2344 1.64062v4.34374zm4.48435-4.15624q0-2.29686 1.28125-3.40626 1.0781-.92186 2.6094-.92186 1.7187 0 2.79685 1.125 1.09375 1.10936 1.09375 3.09376 0 1.59374-.4844 2.5156-.48435.9219-1.4062 1.4375-.9063.5-2 .5-1.7344 0-2.8125-1.10936-1.07815-1.125-1.07815-3.23438zm1.45315 0q0 1.59374.6875 2.39064.7031.79686 1.75.79686 1.04685 0 1.73435-.79686.70315-.7969.70315-2.4375 0-1.53126-.70315-2.32814-.6875-.79686-1.73435-.79686-1.0469 0-1.75.79686-.6875.78124-.6875 2.375zm7.54685 0q0-2.29686 1.28125-3.40626 1.0781-.92186 2.6094-.92186 1.7187 0 2.79685 1.125 1.09375 1.10936 1.09375 3.09376 0 1.59374-.4844 2.5156-.48435.9219-1.4062 1.4375-.9063.5-2 .5-1.7344 0-2.8125-1.10936-1.07815-1.125-1.07815-3.23438zm1.45315 0q0 1.59374.6875 2.39064.7031.79686 1.75.79686 1.04685 0 1.73435-.79686.70315-.7969.70315-2.4375 0-1.53126-.70315-2.32814-.6875-.79686-1.73435-.79686-1.0469 0-1.75.79686-.6875.78124-.6875 2.375zm8.0781 4.15624v-8.29686h1.25v1.15626q.3906-.6094 1.03125-.96876.65625-.375 1.48435-.375.9219 0 1.51565.39062.59375.375.82815 1.0625.98435-1.45312 2.5625-1.45312 1.23435 0 1.8906.6875.6719.67186.6719 2.09376v5.7031h-1.39065v-5.23436q0-.84374-.14065-1.20314-.1406-.375-.5-.59374-.35935-.23436-.8437-.23436-.875 0-1.45315.5781-.57815.57814-.57815 1.8594v4.8281h-1.4062v-5.3906q0-.9375-.3438-1.40626-.3437-.46874-1.125-.46874-.5937 0-1.0937.3125-.5.3125-.7344.92186-.21875.59374-.21875 1.71874v4.3125zm16.4375-2.48436 1.3906-.21874q.1094.84374.64065 1.29686.54685.4375 1.5.4375.96875 0 1.4375-.39062.46875-.40624.46875-.9375 0-.46874-.40625-.75-.29685-.1875-1.4375-.46874-1.54685-.39064-2.15625-.6719-.59375-.29686-.90625-.79686-.29685-.5-.29685-1.10938 0-.5625.25-1.03126.25-.46874.6875-.78124.3281-.25.8906-.40626.5781-.17186 1.21875-.17186.98435 0 1.71875.28126.7344.28124 1.0781.7656.3594.46876.5 1.28126l-1.375.1875q-.0937-.64062-.54685-1-.45315-.35936-1.26565-.35936-.9687 0-1.3906.3281-.40625.3125-.40625.7344 0 .28124.17185.5.1719.21874.5313.375.2187.0781 1.25.35936 1.48435.39064 2.0781.65624.59375.25.9219.7344.3437.48436.3437 1.2031 0 .70314-.42185 1.32814-.40625.60936-1.1875.95312-.76565.34374-1.73435.34374-1.625 0-2.4688-.67186-.8437-.67188-1.0781-2zm8.5625-7.35938v-1.60936h1.40625v1.60936zm0 9.84374v-8.29686h1.40625v8.29686zm3.25 0v-1.1406l5.28125-6.0625q-.89065.04686-1.57815.04686h-3.3906v-1.14062h6.78125v.92186l-4.48435 5.26564-.875.96876q.9531-.07814 1.7812-.07814h3.82815v1.21874zm14.4219-2.67186 1.4531.17186q-.34375 1.28126-1.28125 1.9844-.92185.7031-2.35935.7031-1.82815 0-2.89065-1.125-1.0625-1.125-1.0625-3.1406 0-2.09376 1.07815-3.25 1.0781-1.15626 2.79685-1.15626 1.65625 0 2.70315 1.14062 1.0625 1.125 1.0625 3.17188 0 .125 0 .375h-6.1875q.0781 1.375.7656 2.10936.7031.71876 1.7344.71876.7812 0 1.3281-.40626.5469-.40624.8594-1.29686zm-4.6094-2.28124h4.625q-.09375-1.0469-.53125-1.5625-.67185-.8125-1.73435-.8125-.9688 0-1.64065.65624-.65625.64062-.71875 1.71876z" fill="#000"/>
  <path d="m65.95 609.34894q0-1.53124.3125-2.45314.3125-.9375.92187-1.4375.625-.5 1.5625-.5.6875 0 1.20313.28126.53125.28124.875.8125.34375.51564.53125 1.26564.1875.75.1875 2.03124 0 1.51562-.3125 2.4375-.29688.92186-.92188 1.4375-.60937.5-1.5625.5-1.23437 0-1.95312-.89064-.84375-1.0625-.84375-3.48436zm1.07812 0q0 2.10936.5 2.8125.5.70312 1.21875.70312.73438 0 1.21875-.70312.5-.70314.5-2.8125 0-2.125-.5-2.8125-.48437-.70314-1.23437-.70314-.71875 0-1.15625.6094-.54688.78124-.54688 2.90624z" fill="#595959"/>
  <path d="m41.91875 509.35h-1.046874v-6.71874q-.390626.35937-1.015626.73437-.609374.35937-1.09375.53125v-1.01562q.875-.42188 1.53125-1 .671876-.59376.953126-1.15626h.671874zm3.03125-4.23437q0-1.53125.3125-2.45313.3125-.9375.921876-1.4375.625-.5 1.5625-.5.6875 0 1.203124.28126.53125.28124.875.8125.34375.51562.53125 1.26562.1875.75.1875 2.03125 0 1.51563-.3125 2.4375-.296874.92187-.921874 1.4375-.609376.5-1.5625.5-1.234376 0-1.953126-.89063-.84375-1.0625-.84375-3.48437zm1.078126 0q0 2.10937.5 2.8125.5.70313 1.21875.70313.734374 0 1.21875-.70313.5-.70313.5-2.8125 0-2.125-.5-2.8125-.484376-.70313-1.234376-.70313-.71875 0-1.15625.60938-.546874.78125-.546874 2.90625zm5.921874 0q0-1.53125.3125-2.45313.3125-.9375.921876-1.4375.625-.5 1.5625-.5.6875 0 1.203124.28126.53125.28124.875.8125.34375.51562.53125 1.26562.1875.75.1875 2.03125 0 1.51563-.3125 2.4375-.296874.92187-.921874 1.4375-.609376.5-1.5625.5-1.234376 0-1.953126-.89063-.84375-1.0625-.84375-3.48437zm1.078126 0q0 2.10937.5 2.8125.5.70313 1.21875.70313.734374 0 1.21875-.70313.5-.70313.5-2.8125 0-2.125-.5-2.8125-.484376-.70313-1.234376-.70313-.71875 0-1.15625.60938-.546874.78125-.546874 2.90625zm5.921874 0q0-1.53125.3125-2.45313.3125-.9375.921876-1.4375.625-.5 1.5625-.5.6875 0 1.203124.28126.53125.28124.875.8125.34375.51562.53125 1.26562.1875.75.1875 2.03125 0 1.51563-.3125 2.4375-.296874.92187-.921874 1.4375-.609376.5-1.5625.5-1.234376 0-1.953126-.89063-.84375-1.0625-.84375-3.48437zm1.078126 0q0 2.10937.5 2.8125.5.70313 1.21875.70313.734374 0 1.21875-.70313.5-.70313.5-2.8125 0-2.125-.5-2.8125-.484376-.70313-1.234376-.70313-.71875 0-1.15625.60938-.546874.78125-.546874 2.90625zm5.921874 0q0-1.53125.3125-2.45313.3125-.9375.92187-1.4375.625-.5 1.5625-.5.6875 0 1.20313.28126.53125.28124.875.8125.34375.51562.53125 1.26562.1875.75.1875 2.03125 0 1.51563-.3125 2.4375-.29688.92187-.92188 1.4375-.60937.5-1.5625.5-1.23437 0-1.95312-.89063-.84375-1.0625-.84375-3.48437zm1.07812 0q0 2.10937.5 2.8125.5.70313 1.21875.70313.73438 0 1.21875-.70313.5-.70313.5-2.8125 0-2.125-.5-2.8125-.48437-.70313-1.23437-.70313-.71875 0-1.15625.60938-.54688.78125-.54688 2.90625z" fill="#595959"/>
  <path d="m43.496876 404.10104v1.01563h-5.6875q0-.375.125-.73437.21875-.57813.6875-1.14063.484374-.5625 1.390624-1.29687 1.40625-1.15626 1.890626-1.82813.5-.67187.5-1.26563 0-.625-.453126-1.04687-.453124-.4375-1.171874-.4375-.765626 0-1.21875.45313-.453126.45312-.46875 1.26562l-1.078126-.10938q.109376-1.21874.828126-1.84374.734374-.64063 1.96875-.64063 1.234374 0 1.953124.6875.71875.6875.71875 1.70313 0 .51562-.21875 1.01562-.203124.48438-.703124 1.04688-.484376.54687-1.609376 1.5-.953124.79687-1.234374 1.09374-.265626.28126-.4375.5625zm1.453124-3.21874q0-1.53126.3125-2.45313.3125-.9375.921876-1.4375.625-.5 1.5625-.5.6875 0 1.203124.28125.53125.28125.875.8125.34375.51562.53125 1.26562.1875.75.1875 2.03126 0 1.51562-.3125 2.4375-.296874.92187-.921874 1.4375-.609376.5-1.5625.5-1.234376 0-1.953126-.89063-.84375-1.0625-.84375-3.48437zm1.078126 0q0 2.10937.5 2.8125.5.70312 1.21875.70312.734374 0 1.21875-.70312.5-.70313.5-2.8125 0-2.125-.5-2.8125-.484376-.70313-1.234376-.70313-.71875 0-1.15625.60937-.546874.78126-.546874 2.90626zm5.921874 0q0-1.53126.3125-2.45313.3125-.9375.921876-1.4375.625-.5 1.5625-.5.6875 0 1.203124.28125.53125.28125.875.8125.34375.51562.53125 1.26562.1875.75.1875 2.03126 0 1.51562-.3125 2.4375-.296874.92187-.921874 1.4375-.609376.5-1.5625.5-1.234376 0-1.953126-.89063-.84375-1.0625-.84375-3.48437zm1.078126 0q0 2.10937.5 2.8125.5.70312 1.21875.70312.734374 0 1.21875-.70312.5-.70313.5-2.8125 0-2.125-.5-2.8125-.484376-.70313-1.234376-.70313-.71875 0-1.15625.60937-.546874.78126-.546874 2.90626zm5.921874 0q0-1.53126.3125-2.45313.3125-.9375.921876-1.4375.625-.5 1.5625-.5.6875 0 1.203124.28125.53125.28125.875.8125.34375.51562.53125 1.26562.1875.75.1875 2.03126 0 1.51562-.3125 2.4375-.296874.92187-.921874 1.4375-.609376.5-1.5625.5-1.234376 0-1.953126-.89063-.84375-1.0625-.84375-3.48437zm1.078126 0q0 2.10937.5 2.8125.5.70312 1.21875.70312.734374 0 1.21875-.70312.5-.70313.5-2.8125 0-2.125-.5-2.8125-.484376-.70313-1.234376-.70313-.71875 0-1.15625.60937-.546874.78126-.546874 2.90626zm5.921874 0q0-1.53126.3125-2.45313.3125-.9375.92187-1.4375.625-.5 1.5625-.5.6875 0 1.20313.28125.53125.28125.875.8125.34375.51562.53125 1.26562.1875.75.1875 2.03126 0 1.51562-.3125 2.4375-.29688.92187-.92188 1.4375-.60937.5-1.5625.5-1.23437 0-1.95312-.89063-.84375-1.0625-.84375-3.48437zm1.07812 0q0 2.10937.5 2.8125.5.70312 1.21875.70312.73438 0 1.21875-.70312.5-.70313.5-2.8125 0-2.125-.5-2.8125-.48437-.70313-1.23437-.70313-.71875 0-1.15625.60937-.54688.78126-.54688 2.90626z" fill="#595959"/>
  <path d="m37.95 298.6177 1.0625-.14062q.171876.89062.609376 1.29688.4375.39062 1.0625.39062.75 0 1.265624-.51562.515626-.51563.515626-1.28126 0-.71874-.484376-1.1875-.46875-.48437-1.203124-.48437-.296876 0-.75.125l.125-.9375q.109374.01563.171874.01563.671876 0 1.203126-.34376.546874-.35937.546874-1.09374 0-.57813-.390624-.95313-.390626-.39063-1.015626-.39063-.609374 0-1.03125.39063-.40625.39063-.515624 1.15625l-1.0625-.1875q.1875-1.04688.875-1.625.6875-.59375 1.703124-.59375.703126 0 1.296876.3125.59375.29687.90625.8125.3125.51563.3125 1.10937 0 .54688-.296876 1.01563-.296874.45313-.875.71875.75.17188 1.171876.73438.421874.54687.421874 1.39062 0 1.125-.828124 1.90625-.8125.78125-2.0625.78125-1.125 0-1.875-.67188-.75-.6875-.859376-1.75zm7-1.96874q0-1.53126.3125-2.45313.3125-.9375.921876-1.4375.625-.5 1.5625-.5.6875 0 1.203124.28125.53125.28125.875.8125.34375.51562.53125 1.26562.1875.75.1875 2.03126 0 1.51562-.3125 2.4375-.296874.92187-.921874 1.4375-.609376.5-1.5625.5-1.234376 0-1.953126-.89063-.84375-1.0625-.84375-3.48437zm1.078126 0q0 2.10937.5 2.8125.5.70312 1.21875.70312.734374 0 1.21875-.70312.5-.70313.5-2.8125 0-2.125-.5-2.8125-.484376-.70313-1.234376-.70313-.71875 0-1.15625.60937-.546874.78126-.546874 2.90626zm5.921874 0q0-1.53126.3125-2.45313.3125-.9375.921876-1.4375.625-.5 1.5625-.5.6875 0 1.203124.28125.53125.28125.875.8125.34375.51562.53125 1.26562.1875.75.1875 2.03126 0 1.51562-.3125 2.4375-.296874.92187-.921874 1.4375-.609376.5-1.5625.5-1.234376 0-1.953126-.89063-.84375-1.0625-.84375-3.48437zm1.078126 0q0 2.10937.5 2.8125.5.70312 1.21875.70312.734374 0 1.21875-.70312.5-.70313.5-2.8125 0-2.125-.5-2.8125-.484376-.70313-1.234376-.70313-.71875 0-1.15625.60937-.546874.78126-.546874 2.90626zm5.921874 0q0-1.53126.3125-2.45313.3125-.9375.921876-1.4375.625-.5 1.5625-.5.6875 0 1.203124.28125.53125.28125.875.8125.34375.51562.53125 1.26562.1875.75.1875 2.03126 0 1.51562-.3125 2.4375-.296874.92187-.921874 1.4375-.609376.5-1.5625.5-1.234376 0-1.953126-.89063-.84375-1.0625-.84375-3.48437zm1.078126 0q0 2.10937.5 2.8125.5.70312 1.21875.70312.734374 0 1.21875-.70312.5-.70313.5-2.8125 0-2.125-.5-2.8125-.484376-.70313-1.234376-.70313-.71875 0-1.15625.60937-.546874.78126-.546874 2.90626zm5.921874 0q0-1.53126.3125-2.45313.3125-.9375.92187-1.4375.625-.5 1.5625-.5.6875 0 1.20313.28125.53125.28125.875.8125.34375.51562.53125 1.26562.1875.75.1875 2.03126 0 1.51562-.3125 2.4375-.29688.92187-.92188 1.4375-.60937.5-1.5625.5-1.23437 0-1.95312-.89063-.84375-1.0625-.84375-3.48437zm1.07812 0q0 2.10937.5 2.8125.5.70312 1.21875.70312.73438 0 1.21875-.70312.5-.70313.5-2.8125 0-2.125-.5-2.8125-.48437-.70313-1.23437-.70313-.71875 0-1.15625.60937-.54688.78126-.54688 2.90626z" fill="#595959"/>
  <path d="m41.325 196.65v-2.0625h-3.71875v-.96876l3.921876-5.5625h.859374v5.5625h1.15625v.96876h-1.15625v2.0625zm0-3.03126v-3.85937l-2.6875 3.85937zm3.625-1.20312q0-1.53125.3125-2.45312.3125-.9375.921876-1.4375.625-.5 1.5625-.5.6875 0 1.203124.28124.53125.28126.875.8125.34375.51563.53125 1.26563.1875.75.1875 2.03125 0 1.51562-.3125 2.4375-.296874.92188-.921874 1.4375-.609376.5-1.5625.5-1.234376 0-1.953126-.89062-.84375-1.0625-.84375-3.48438zm1.078126 0q0 2.10938.5 2.8125.5.70312 1.21875.70312.734374 0 1.21875-.70312.5-.70312.5-2.8125 0-2.125-.5-2.8125-.484376-.70312-1.234376-.70312-.71875 0-1.15625.60937-.546874.78125-.546874 2.90625zm5.921874 0q0-1.53125.3125-2.45312.3125-.9375.921876-1.4375.625-.5 1.5625-.5.6875 0 1.203124.28124.53125.28126.875.8125.34375.51563.53125 1.26563.1875.75.1875 2.03125 0 1.51562-.3125 2.4375-.296874.92188-.921874 1.4375-.609376.5-1.5625.5-1.234376 0-1.953126-.89062-.84375-1.0625-.84375-3.48438zm1.078126 0q0 2.10938.5 2.8125.5.70312 1.21875.70312.734374 0 1.21875-.70312.5-.70312.5-2.8125 0-2.125-.5-2.8125-.484376-.70312-1.234376-.70312-.71875 0-1.15625.60937-.546874.78125-.546874 2.90625zm5.921874 0q0-1.53125.3125-2.45312.3125-.9375.921876-1.4375.625-.5 1.5625-.5.6875 0 1.203124.28124.53125.28126.875.8125.34375.51563.53125 1.26563.1875.75.1875 2.03125 0 1.51562-.3125 2.4375-.296874.92188-.921874 1.4375-.609376.5-1.5625.5-1.234376 0-1.953126-.89062-.84375-1.0625-.84375-3.48438zm1.078126 0q0 2.10938.5 2.8125.5.70312 1.21875.70312.734374 0 1.21875-.70312.5-.70312.5-2.8125 0-2.125-.5-2.8125-.484376-.70312-1.234376-.70312-.71875 0-1.15625.60937-.546874.78125-.546874 2.90625zm5.921874 0q0-1.53125.3125-2.45312.3125-.9375.92187-1.4375.625-.5 1.5625-.5.6875 0 1.20313.28124.53125.28126.875.8125.34375.51563.53125 1.26563.1875.75.1875 2.03125 0 1.51562-.3125 2.4375-.29688.92188-.92188 1.4375-.60937.5-1.5625.5-1.23437 0-1.95312-.89062-.84375-1.0625-.84375-3.48438zm1.07812 0q0 2.10938.5 2.8125.5.70312 1.21875.70312.73438 0 1.21875-.70312.5-.70312.5-2.8125 0-2.125-.5-2.8125-.48437-.70312-1.23437-.70312-.71875 0-1.15625.60937-.54688.78125-.54688 2.90625z" fill="#595959"/>
  <path d="m37.95 90.166664 1.109376-.09375q.125.8125.5625 1.21875.453124.40625 1.09375.40625.75 0 1.28125-.578124.53125-.578126.53125-1.515626 0-.90625-.515626-1.421874-.5-.53125-1.328124-.53125-.5 0-.921876.234374-.40625.234376-.640624.59375l-.984376-.125.828126-4.40625h4.28125v1h-3.4375l-.453126 2.3125q.765626-.546874 1.609376-.546874 1.125 0 1.890624.78125.78125.78125.78125 2.015624 0 1.15625-.671874 2.015626-.828126 1.03125-2.25 1.03125-1.171876 0-1.921876-.65625-.734374-.65625-.84375-1.734376zm7-1.984374q0-1.53125.3125-2.453126.3125-.9375.921876-1.4375.625-.5 1.5625-.5.6875 0 1.203124.28125.53125.28125.875.8125.34375.515626.53125 1.265626.1875.75.1875 2.03125 0 1.515624-.3125 2.4375-.296874.921874-.921874 1.4375-.609376.5-1.5625.5-1.234376 0-1.953126-.890626-.84375-1.0625-.84375-3.484374zm1.078126 0q0 2.109374.5 2.8125.5.703124 1.21875.703124.734374 0 1.21875-.703124.5-.703126.5-2.8125 0-2.125-.5-2.8125-.484376-.703126-1.234376-.703126-.71875 0-1.15625.609376-.546874.78125-.546874 2.90625zm5.921874 0q0-1.53125.3125-2.453126.3125-.9375.921876-1.4375.625-.5 1.5625-.5.6875 0 1.203124.28125.53125.28125.875.8125.34375.515626.53125 1.265626.1875.75.1875 2.03125 0 1.515624-.3125 2.4375-.296874.921874-.921874 1.4375-.609376.5-1.5625.5-1.234376 0-1.953126-.890626-.84375-1.0625-.84375-3.484374zm1.078126 0q0 2.109374.5 2.8125.5.703124 1.21875.703124.734374 0 1.21875-.703124.5-.703126.5-2.8125 0-2.125-.5-2.8125-.484376-.703126-1.234376-.703126-.71875 0-1.15625.609376-.546874.78125-.546874 2.90625zm5.921874 0q0-1.53125.3125-2.453126.3125-.9375.921876-1.4375.625-.5 1.5625-.5.6875 0 1.203124.28125.53125.28125.875.8125.34375.515626.53125 1.265626.1875.75.1875 2.03125 0 1.515624-.3125 2.4375-.296874.921874-.921874 1.4375-.609376.5-1.5625.5-1.234376 0-1.953126-.890626-.84375-1.0625-.84375-3.484374zm1.078126 0q0 2.109374.5 2.8125.5.703124 1.21875.703124.734374 0 1.21875-.703124.5-.703126.5-2.8125 0-2.125-.5-2.8125-.484376-.703126-1.234376-.703126-.71875 0-1.15625.609376-.546874.78125-.546874 2.90625zm5.921874 0q0-1.53125.3125-2.453126.3125-.9375.92187-1.4375.625-.5 1.5625-.5.6875 0 1.20313.28125.53125.28125.875.8125.34375.515626.53125 1.265626.1875.75.1875 2.03125 0 1.515624-.3125 2.4375-.29688.921874-.92188 1.4375-.60937.5-1.5625.5-1.23437 0-1.95312-.890626-.84375-1.0625-.84375-3.484374zm1.07812 0q0 2.109374.5 2.8125.5.703124 1.21875.703124.73438 0 1.21875-.703124.5-.703126.5-2.8125 0-2.125-.5-2.8125-.48437-.703126-1.23437-.703126-.71875 0-1.15625.609376-.54688.78125-.54688 2.90625z" fill="#595959"/>
  <path d="m245.96666 624.3177 1.0625-.14064q.17187.89064.60937 1.29688.4375.39062 1.0625.39062.75 0 1.26563-.51562.51562-.51564.51562-1.28124 0-.71876-.48437-1.1875-.46875-.4844-1.20313-.4844-.29687 0-.75.125l.125-.9375q.10938.01564.17188.01564.67187 0 1.20312-.34374.54688-.3594.54688-1.09376 0-.57814-.39063-.95314-.39062-.3906-1.01562-.3906-.60938 0-1.03125.3906-.40625.39064-.51563 1.15626l-1.0625-.1875q.1875-1.04686.875-1.625.6875-.59376 1.70313-.59376.70312 0 1.29687.3125.59375.2969.90625.8125.3125.51564.3125 1.1094 0 .54686-.29687 1.0156-.29688.45314-.875.71876.75.17188 1.17187.73438.42188.54686.42188 1.39062 0 1.125-.82813 1.90624-.8125.78126-2.0625.78126-1.125 0-1.875-.67186-.75-.6875-.85937-1.75zm7-1.96876q0-1.53124.3125-2.45314.3125-.9375.92187-1.4375.625-.5 1.5625-.5.68752 0 1.20314.28126.53125.28124.875.8125.34375.51564.53125 1.26564.1875.75.1875 2.03124 0 1.51562-.3125 2.4375-.29687.92186-.92187 1.4375-.60938.5-1.56252.5-1.23437 0-1.95312-.89064-.84375-1.0625-.84375-3.48436zm1.07812 0q0 2.10936.5 2.8125.5.70312 1.21875.70312.73439 0 1.21877-.70312.5-.70314.5-2.8125 0-2.125-.5-2.8125-.48438-.70314-1.23439-.70314-.71875 0-1.15625.6094-.54688.78124-.54688 2.90624z" fill="#595959"/>
  <path d="m597.375 626.5833v-2.0625h-3.71875v-.96874l3.92185-5.5625h.8594v5.5625h1.15625v.96874h-1.15625v2.0625zm0-3.03124v-3.85936l-2.6875 3.85936zm3.625-1.20312q0-1.53124.3125-2.45314.3125-.9375.9219-1.4375.625-.5 1.5625-.5.6875 0 1.2031.28126.53125.28124.875.8125.34375.51564.53125 1.26564.1875.75.1875 2.03124 0 1.51562-.3125 2.4375-.29685.92186-.92185 1.4375-.6094.5-1.5625.5-1.2344 0-1.95315-.89064-.84375-1.0625-.84375-3.48436zm1.0781 0q0 2.10936.5 2.8125.5.70312 1.2188.70312.73435 0 1.2187-.70312.5-.70314.5-2.8125 0-2.125-.5-2.8125-.48435-.70314-1.23435-.70314-.71875 0-1.15625.6094-.5469.78124-.5469 2.90624z" fill="#595959"/>
  <path d="m942.0333 624.3333 1.1094-.09374q.125.8125.5625 1.21874.4531.40626 1.09375.40626.75 0 1.28125-.57812.53125-.57814.53125-1.51564 0-.90624-.51565-1.42186-.5-.53124-1.3281-.53124-.5 0-.9219.23436-.4062.23438-.6406.59374l-.9844-.125.82815-4.40624h4.28125v1h-3.4375l-.4531 2.3125q.7656-.54686 1.60935-.54686 1.125 0 1.89065.78124.7812.78126.7812 2.01562 0 1.15624-.67185 2.01564-.82815 1.03124-2.25 1.03124-1.17185 0-1.92185-.65624-.7344-.65626-.8438-1.7344zm7-1.98436q0-1.53124.3125-2.45314.3125-.9375.9219-1.4375.625-.5 1.5625-.5.6875 0 1.2031.28126.5313.28124.875.8125.3438.51564.5313 1.26564.1875.75.1875 2.03124 0 1.51562-.3125 2.4375-.2969.92186-.9219 1.4375-.6094.5-1.5625.5-1.2344 0-1.9531-.89064-.8438-1.0625-.8438-3.48436zm1.07815 0q0 2.10936.5 2.8125.5.70312 1.21875.70312.7344 0 1.21875-.70312.5-.70314.5-2.8125 0-2.125-.5-2.8125-.48435-.70314-1.23435-.70314-.7188 0-1.1563.6094-.54685.78124-.54685 2.90624z" fill="#595959"/>
  <path d="m570.5 704.55c0 3.3137-2.6863 6-6 6s-6-2.6863-6-6c0-3.31373 2.6863-6 6-6s6 2.68627 6 6z" fill="#4285f4"/>
  <path d="m581.59375 707.6125.15625.92186q-.4531.09374-.7969.09374-.5781 0-.8906-.17186-.3125-.1875-.4531-.48438-.125-.29686-.125-1.25v-3.57812h-.76565v-.8125h.76565v-1.54688l1.04685-.625v2.17188h1.0625v.8125h-1.0625v3.64062q0 .45314.04685.57814.0625.125.1875.2031.125.07814.3594.07814.1875 0 .46875-.03124zm.70315-6.4375v-1.21876h1.0625v1.21876zm0 7.375v-6.21876h1.0625v6.21876zm3 0v-6.21876h.9375v.875q.29685-.46874.7812-.73438.4844-.28126 1.1094-.28126.6875 0 1.125.28126.4531.28124.625.79688.75-1.07814 1.9219-1.07814.9375 0 1.42185.51564.5.5.5 1.57812v4.26564h-1.04685v-3.9219q0-.625-.1094-.90624-.09375-.28126-.3594-.45312-.2656-.17188-.6406-.17188-.65625 0-1.09375.4375-.42185.4375-.42185 1.40624v3.6094h-1.0625v-4.0469q0-.7031-.26565-1.04686-.25-.35938-.82815-.35938-.4531 0-.8281.23438-.375.23436-.5469.6875-.17185.45312-.17185 1.29686v3.2344zm14.25-2 1.0937.125q-.25.9531-.9531 1.48436-.7031.53124-1.78125.53124-1.35935 0-2.17185-.84374-.7969-.84376-.7969-2.35936 0-1.5625.8125-2.4219.8125-.875 2.09375-.875 1.25 0 2.03125.84376.7969.84374.7969 2.39064 0 .09374 0 .28124h-4.64065q.0625 1.03126.57815 1.57812.5156.53124 1.29685.53124.57815 0 .98435-.29686.4219-.3125.6563-.96874zm-3.45315-1.70314h3.46875q-.0625-.79686-.3906-1.1875-.51565-.60936-1.3125-.60936-.7344 0-1.2344.48436-.4844.48438-.53125 1.3125z" fill="#595959"/>
  <path d="m488.67188 49.41875 1.40624-.1875q.25 1.203126.82813 1.734376.57813.515624 1.42187.515624.98438 0 1.67188-.6875.6875-.6875.6875-1.703124 0-.96875-.64062-1.59375-.625-.625-1.60938-.625-.39062 0-.98438.15625l.15626-1.234376q.14062.015626.21874.015626.90626 0 1.625-.46875.71876-.46875.71876-1.453126 0-.765624-.53126-1.265624-.51562-.515626-1.34374-.515626-.82813 0-1.375.515626-.54688.515624-.70313 1.546874l-1.40625-.25q.26562-1.421874 1.17188-2.1875.92187-.78125 2.28124-.78125.9375 0 1.71876.40625.79687.390626 1.20312 1.09375.42188.6875.42188 1.46875 0 .75-.40626 1.359376-.39062.609374-1.17187.96875 1.01563.234374 1.57813.96875.5625.734374.5625 1.84375 0 1.5-1.09376 2.546874-1.09374 1.046876-2.76562 1.046876-1.5 0-2.5-.890626-1-.90625-1.14062-2.34375zm9.5625 3.03125v-11.453124h3.95312q1.32812 0 2.03125.15625.98437.234374 1.6875.828124.90625.765626 1.34375 1.953126.45312 1.1875.45312 2.71875 0 1.3125-.3125 2.328124-.29687 1-.78124 1.65625-.46876.65625-1.03126 1.046876-.5625.375-1.375.578124-.79687.1875-1.82812.1875zm1.51562-1.359374h2.45312q1.125 0 1.76563-.203126.65625-.21875 1.03125-.59375.54688-.546874.84375-1.453124.29687-.90625.29687-2.203126 0-1.796874-.59374-2.765624-.57813-.96875-1.42188-1.296876-.60938-.234374-1.96875-.234374h-2.40625zm14.3125 1.359374v-11.453124h1.40625v4.109374q.98435-1.140624 2.48435-1.140624.9219 0 1.5938.359374.6875.359376.9687 1 .2969.640626.2969 1.859376v5.265624h-1.40625v-5.265624q0-1.046876-.45315-1.53125-.4531-.484376-1.29685-.484376-.625 0-1.17185.328126-.5469.328124-.7813.890624-.23435.546876-.23435 1.515626v4.546874zm14.6719-2.671874 1.4531.171874q-.34375 1.28125-1.28125 1.984376-.92185.703124-2.35935.703124-1.82815 0-2.89065-1.125-1.0625-1.125-1.0625-3.140624 0-2.09375 1.07815-3.25 1.0781-1.15625 2.79685-1.15625 1.65625 0 2.70315 1.140624 1.0625 1.125 1.0625 3.171876 0 .125 0 .375h-6.1875q.0781 1.375.7656 2.109374.7031.71875 1.7344.71875.7812 0 1.3281-.40625.5469-.40625.8594-1.296874zm-4.6094-2.28125h4.625q-.09375-1.046876-.53125-1.5625-.67185-.8125-1.73435-.8125-.9688 0-1.64065.65625-.65625.640624-.71875 1.71875zm13.34375 3.921874q-.78125.671876-1.5.953126-.71875.265624-1.54685.265624-1.375 0-2.1094-.671874-.7344-.671876-.7344-1.703126 0-.609374.2813-1.109374.2812-.515626.7187-.8125.45315-.3125 1.01565-.46875.42185-.109376 1.25-.203126 1.70315-.203124 2.51565-.484374 0-.296876 0-.375 0-.859376-.39065-1.203126-.54685-.484374-1.60935-.484374-.9844 0-1.4688.359374-.4687.34375-.6875 1.21875l-1.375-.1875q.1875-.875.6094-1.421874.4375-.546876 1.25-.828126.8125-.296874 1.875-.296874 1.0625 0 1.71875.25.67185.25.98435.625.3125.375.4375.953124.07815.359376.07815 1.296876v1.875q0 1.96875.07815 2.484374.0937.515626.35935 1h-1.46875q-.21875-.4375-.28125-1.03125zm-.10935-3.140624q-.76565.3125-2.2969.53125-.875.125-1.2344.28125-.35935.15625-.5625.46875-.1875.296874-.1875.65625 0 .5625.4219.9375.4375.375 1.25.375.8125 0 1.4375-.34375.6406-.359376.9375-.984376.2344-.46875.2344-1.40625zm6.7656 2.90625.2031 1.25q-.5937.125-1.0625.125-.7656 0-1.1875-.234376-.42185-.25-.5937-.640624-.1719-.40625-.1719-1.671876v-4.765624h-1.03125v-1.09375h1.03125v-2.0625l1.40625-.84375v2.90625h1.40625v1.09375h-1.40625v4.84375q0 .609374.0625.78125.07815.171874.25.28125.17185.09375.48435.09375.2344 0 .6094-.0625zm4.375-1.21875 1.3906-.21875q.1094.84375.64065 1.296874.54685.4375 1.5.4375.96875 0 1.4375-.390624.46875-.40625.46875-.9375 0-.46875-.40625-.75-.29685-.1875-1.4375-.46875-1.54685-.390626-2.15625-.671876-.59375-.296874-.90625-.796874-.29685-.5-.29685-1.109376 0-.5625.25-1.03125.25-.46875.6875-.78125.3281-.25.8906-.40625.5781-.171874 1.21875-.171874.98435 0 1.71875.28125.7344.28125 1.0781.765624.3594.46875.5 1.28125l-1.375.1875q-.0937-.640624-.54685-1-.45315-.359374-1.26565-.359374-.9687 0-1.3906.328124-.40625.3125-.40625.734376 0 .28125.17185.5.1719.21875.5313.375.2187.078124 1.25.359374 1.48435.390626 2.0781.65625.59375.25.9219.734376.3437.484374.3437 1.203124 0 .703126-.42185 1.328126-.40625.609374-1.1875.953124-.76565.34375-1.73435.34375-1.625 0-2.4688-.671874-.8437-.671876-1.0781-2zm11.625 1.21875.2031 1.25q-.5937.125-1.0625.125-.7656 0-1.1875-.234376-.42185-.25-.5937-.640624-.1719-.40625-.1719-1.671876v-4.765624h-1.03125v-1.09375h1.03125v-2.0625l1.40625-.84375v2.90625h1.40625v1.09375h-1.40625v4.84375q0 .609374.0625.78125.07815.171874.25.28125.17185.09375.48435.09375.2344 0 .6094-.0625zm6.6094-1.40625 1.4531.171874q-.34375 1.28125-1.28125 1.984376-.92185.703124-2.35935.703124-1.82815 0-2.89065-1.125-1.0625-1.125-1.0625-3.140624 0-2.09375 1.07815-3.25 1.0781-1.15625 2.79685-1.15625 1.65625 0 2.70315 1.140624 1.0625 1.125 1.0625 3.171876 0 .125 0 .375h-6.1875q.0781 1.375.7656 2.109374.7031.71875 1.7344.71875.7812 0 1.3281-.40625.5469-.40625.8594-1.296874zm-4.6094-2.28125h4.625q-.09375-1.046876-.53125-1.5625-.67185-.8125-1.73435-.8125-.9688 0-1.64065.65625-.65625.640624-.71875 1.71875zm7.9375 4.953124v-8.296874h1.2656v1.171874q.9063-1.359374 2.64065-1.359374.75 0 1.375.265624.625.265626.9375.703126.3125.4375.4375 1.046874.07815.390626.07815 1.359376v5.109374h-1.4063v-5.046874q0-.859376-.17185-1.28125-.15625-.4375-.57815-.6875-.4062-.25-.9687-.25-.9063 0-1.5625.578124-.64065.5625-.64065 2.15625v4.53125zm14.40625-3.046874 1.39065.1875q-.2344 1.421874-1.1719 2.234374-.9219.8125-2.28125.8125-1.70315 0-2.75-1.109374-1.03125-1.125-1.03125-3.203126 0-1.34375.4375-2.34375.4531-1.015624 1.3594-1.515624.92185-.5 1.98435-.5 1.35935 0 2.21875.6875.8594.671874 1.09375 1.9375l-1.35935.203124q-.20315-.828124-.70315-1.25-.48435-.421874-1.1875-.421874-1.0625 0-1.73435.765624-.6563.75-.6563 2.40625 0 1.671876.64065 2.4375.64065.75 1.67185.75.82815 0 1.375-.5.5625-.515624.70315-1.578124zm2.59375-6.796876v-1.609374h1.40625v1.609374zm0 9.84375v-8.296874h1.40625v8.296874zm3.96875 0v-11.453124h1.40625v11.453124zm7.46875-2.484374 1.3906-.21875q.1094.84375.64065 1.296874.54685.4375 1.5.4375.96875 0 1.4375-.390624.46875-.40625.46875-.9375 0-.46875-.40625-.75-.29685-.1875-1.4375-.46875-1.54685-.390626-2.15625-.671876-.59375-.296874-.90625-.796874-.29685-.5-.29685-1.109376 0-.5625.25-1.03125.25-.46875.6875-.78125.3281-.25.8906-.40625.5781-.171874 1.21875-.171874.98435 0 1.71875.28125.7344.28125 1.0781.765624.3594.46875.5 1.28125l-1.375.1875q-.0937-.640624-.54685-1-.45315-.359374-1.26565-.359374-.9687 0-1.3906.328124-.40625.3125-.40625.734376 0 .28125.17185.5.1719.21875.5313.375.2187.078124 1.25.359374 1.48435.390626 2.0781.65625.59375.25.9219.734376.3437.484374.3437 1.203124 0 .703126-.42185 1.328126-.40625.609374-1.1875.953124-.76565.34375-1.73435.34375-1.625 0-2.4688-.671874-.8437-.671876-1.0781-2zm14.2344-.1875 1.4531.171874q-.34375 1.28125-1.28125 1.984376-.92185.703124-2.35935.703124-1.82815 0-2.89065-1.125-1.0625-1.125-1.0625-3.140624 0-2.09375 1.07815-3.25 1.0781-1.15625 2.79685-1.15625 1.65625 0 2.70315 1.140624 1.0625 1.125 1.0625 3.171876 0 .125 0 .375h-6.1875q.0781 1.375.7656 2.109374.7031.71875 1.7344.71875.7812 0 1.3281-.40625.5469-.40625.8594-1.296874zm-4.6094-2.28125h4.625q-.09375-1.046876-.53125-1.5625-.67185-.8125-1.73435-.8125-.9688 0-1.64065.65625-.65625.640624-.71875 1.71875zm13.21875 8.140624v-4.078124q-.32815.46875-.92185.78125-.57815.296874-1.25.296874-1.4688 0-2.5469-1.171874-1.0625-1.1875-1.0625-3.25 0-1.25.4375-2.234376.4375-1 1.25-1.5.8281-.515624 1.8125-.515624 1.5469 0 2.4219 1.296874v-1.109374h1.2656v11.484374zm-4.32815-7.359374q0 1.59375.6719 2.40625.6719.796874 1.6094.796874.8906 0 1.5312-.765624.6563-.765626.6563-2.3125 0-1.65625-.6875-2.484376-.6719-.84375-1.5938-.84375-.92185 0-1.5625.78125-.625.765626-.625 2.421876zm13.4844 4.171874v-1.21875q-.96875 1.40625-2.6406 1.40625-.7344 0-1.375-.28125-.625-.28125-.9375-.703124-.3125-.4375-.4375-1.046876-.07815-.421874-.07815-1.3125v-5.140624h1.40625v4.59375q0 1.109374.0781 1.484374.14065.5625.5625.875.4375.3125 1.0625.3125.64065 0 1.1875-.3125.5625-.328124.7813-.890624.23435-.5625.23435-1.625v-4.4375h1.40625v8.296874zm9.2344-2.671874 1.4531.171874q-.34375 1.28125-1.28125 1.984376-.92185.703124-2.35935.703124-1.82815 0-2.89065-1.125-1.0625-1.125-1.0625-3.140624 0-2.09375 1.07815-3.25 1.0781-1.15625 2.79685-1.15625 1.65625 0 2.70315 1.140624 1.0625 1.125 1.0625 3.171876 0 .125 0 .375h-6.1875q.0781 1.375.7656 2.109374.7031.71875 1.7344.71875.7812 0 1.3281-.40625.5469-.40625.8594-1.296874zm-4.6094-2.28125h4.625q-.09375-1.046876-.53125-1.5625-.67185-.8125-1.73435-.8125-.9688 0-1.64065.65625-.65625.640624-.71875 1.71875zm7.9375 4.953124v-8.296874h1.2656v1.171874q.9063-1.359374 2.64065-1.359374.75 0 1.375.265624.625.265626.9375.703126.3125.4375.4375 1.046874.07815.390626.07815 1.359376v5.109374h-1.4063v-5.046874q0-.859376-.17185-1.28125-.15625-.4375-.57815-.6875-.4062-.25-.9687-.25-.9063 0-1.5625.578124-.64065.5625-.64065 2.15625v4.53125zm12.0625-1.265624.2031 1.25q-.5937.125-1.0625.125-.7656 0-1.1875-.234376-.42185-.25-.5937-.640624-.1719-.40625-.1719-1.671876v-4.765624h-1.03125v-1.09375h1.03125v-2.0625l1.40625-.84375v2.90625h1.40625v1.09375h-1.40625v4.84375q0 .609374.0625.78125.07815.171874.25.28125.17185.09375.48435.09375.2344 0 .6094-.0625zm.9375-8.578126v-1.609374h1.40625v1.609374zm0 9.84375v-8.296874h1.40625v8.296874zm9.40625-1.03125q-.78125.671876-1.5.953126-.71875.265624-1.54685.265624-1.375 0-2.1094-.671874-.7344-.671876-.7344-1.703126 0-.609374.2813-1.109374.2812-.515626.7187-.8125.45315-.3125 1.01565-.46875.42185-.109376 1.25-.203126 1.70315-.203124 2.51565-.484374 0-.296876 0-.375 0-.859376-.39065-1.203126-.54685-.484374-1.60935-.484374-.9844 0-1.4688.359374-.4687.34375-.6875 1.21875l-1.375-.1875q.1875-.875.6094-1.421874.4375-.546876 1.25-.828126.8125-.296874 1.875-.296874 1.0625 0 1.71875.25.67185.25.98435.625.3125.375.4375.953124.07815.359376.07815 1.296876v1.875q0 1.96875.07815 2.484374.0937.515626.35935 1h-1.46875q-.21875-.4375-.28125-1.03125zm-.10935-3.140624q-.76565.3125-2.2969.53125-.875.125-1.2344.28125-.35935.15625-.5625.46875-.1875.296874-.1875.65625 0 .5625.4219.9375.4375.375 1.25.375.8125 0 1.4375-.34375.6406-.359376.9375-.984376.2344-.46875.2344-1.40625zm3.67185 4.171874v-11.453124h1.40625v11.453124z" fill="#595959"/>
</svg>
