<svg version="1.1" viewBox="0.0 0.0 1160.0 749.0" fill="none" stroke="none" stroke-linecap="square" stroke-miterlimit="10" width="1160" height="749" xmlns:xlink="http://www.w3.org/1999/xlink" xmlns="http://www.w3.org/2000/svg"><path fill="#f2f2f2" d="M0 0L1160.0 0L1160.0 749.0L0 749.0L0 0Z" fill-rule="nonzero"/><path stroke="#262626" stroke-width="1.0" stroke-linecap="butt" d="M78.5 609.5L1122.5 609.5" fill-rule="nonzero"/><path stroke="#d9d9d9" stroke-width="1.0" stroke-linecap="butt" d="M78.5 505.5L1122.5 505.5" fill-rule="nonzero"/><path stroke="#d9d9d9" stroke-width="1.0" stroke-linecap="butt" d="M78.5 401.5L1122.5 401.5" fill-rule="nonzero"/><path stroke="#d9d9d9" stroke-width="1.0" stroke-linecap="butt" d="M78.5 296.5L1122.5 296.5" fill-rule="nonzero"/><path stroke="#d9d9d9" stroke-width="1.0" stroke-linecap="butt" d="M78.5 192.5L1122.5 192.5" fill-rule="nonzero"/><path stroke="#d9d9d9" stroke-width="1.0" stroke-linecap="butt" d="M78.5 88.5L1122.5 88.5" fill-rule="nonzero"/><path stroke="#e1e1e1" stroke-width="1.0" stroke-linecap="butt" d="M252.46666 558.55054L252.46666 574.55054" fill-rule="nonzero"/><path stroke="#e1e1e1" stroke-width="1.0" stroke-linecap="butt" d="M600.5 400.5015L600.5 416.5015" fill-rule="nonzero"/><path stroke="#e1e1e1" stroke-width="1.0" stroke-linecap="butt" d="M948.5333 124.10598L948.5333 140.10597" fill-rule="nonzero"/><clipPath id="id_0"><path d="M78.45 88.416664L1122.55 88.416664L1122.55 609.5833L78.45 609.5833L78.45 88.416664Z" clip-rule="nonzero"/></clipPath><path stroke="#4285f4" stroke-width="2.0" stroke-linecap="butt" clip-path="url(#id_0)" d="M252.46666 574.55054L600.5 416.5015L948.5333 140.10597" fill-rule="nonzero"/><path fill="#4285f4" clip-path="url(#id_0)" d="M255.96666 574.55054C255.96666 576.4835 254.39966 578.05054 252.46666 578.05054C250.53368 578.05054 248.96666 576.4835 248.96666 574.55054C248.96666 572.6175 250.53368 571.05054 252.46666 571.05054C254.39966 571.05054 255.96666 572.6175 255.96666 574.55054Z" fill-rule="nonzero"/><path fill="#4285f4" clip-path="url(#id_0)" d="M604.0 416.5015C604.0 418.4345 602.433 420.0015 600.5 420.0015C598.567 420.0015 597.0 418.4345 597.0 416.5015C597.0 414.5685 598.567 413.0015 600.5 413.0015C602.433 413.0015 604.0 414.5685 604.0 416.5015Z" fill-rule="nonzero"/><path fill="#4285f4" clip-path="url(#id_0)" d="M952.0333 140.10597C952.0333 142.03897 950.4663 143.60597 948.5333 143.60597C946.60034 143.60597 945.0333 142.03897 945.0333 140.10597C945.0333 138.17297 946.60034 136.60597 948.5333 136.60597C950.4663 136.60597 952.0333 138.17297 952.0333 140.10597Z" fill-rule="nonzero"/><path stroke="#f2f2f2" stroke-width="3.0" stroke-linejoin="round" stroke-linecap="round" d="M238.96666 554.2849L240.02916 554.1443Q240.20103 555.0349 240.63853 555.44116Q241.07603 555.8318 241.70103 555.8318Q242.45103 555.8318 242.96666 555.31616Q243.48228 554.80054 243.48228 554.0349Q243.48228 553.31616 242.99791 552.8474Q242.52916 552.36304 241.79478 552.36304Q241.49791 552.36304 241.04478 552.48804L241.16978 551.55054Q241.27916 551.56616 241.34166 551.56616Q242.01353 551.56616 242.54478 551.2224Q243.09166 550.86304 243.09166 550.12866Q243.09166 549.55054 242.70103 549.17554Q242.31041 548.7849 241.68541 548.7849Q241.07603 548.7849 240.65416 549.17554Q240.24791 549.56616 240.13853 550.3318L239.07603 550.1443Q239.26353 549.0974 239.95103 548.5193Q240.63853 547.92554 241.65416 547.92554Q242.35728 547.92554 242.95103 548.23804Q243.54478 548.5349 243.85728 549.05054Q244.16978 549.56616 244.16978 550.1599Q244.16978 550.7068 243.87291 551.17554Q243.57603 551.62866 242.99791 551.8943Q243.74791 552.06616 244.16978 552.62866Q244.59166 553.17554 244.59166 554.0193Q244.59166 555.1443 243.76353 555.92554Q242.95103 556.7068 241.70103 556.7068Q240.57603 556.7068 239.82603 556.0349Q239.07603 555.3474 238.96666 554.2849ZM245.96666 554.2849L247.02916 554.1443Q247.20103 555.0349 247.63853 555.44116Q248.07603 555.8318 248.70103 555.8318Q249.45103 555.8318 249.96666 555.31616Q250.48228 554.80054 250.48228 554.0349Q250.48228 553.31616 249.99791 552.8474Q249.52916 552.36304 248.79478 552.36304Q248.49791 552.36304 248.04478 552.48804L248.16978 551.55054Q248.27916 551.56616 248.34166 551.56616Q249.01353 551.56616 249.54478 551.2224Q250.09166 550.86304 250.09166 550.12866Q250.09166 549.55054 249.70103 549.17554Q249.31041 548.7849 248.68541 548.7849Q248.07603 548.7849 247.65416 549.17554Q247.24791 549.56616 247.13853 550.3318L246.07603 550.1443Q246.26353 549.0974 246.95103 548.5193Q247.63853 547.92554 248.65416 547.92554Q249.35728 547.92554 249.95103 548.23804Q250.54478 548.5349 250.85728 549.05054Q251.16978 549.56616 251.16978 550.1599Q251.16978 550.7068 250.87291 551.17554Q250.57603 551.62866 249.99791 551.8943Q250.74791 552.06616 251.16978 552.62866Q251.59166 553.17554 251.59166 554.0193Q251.59166 555.1443 250.76353 555.92554Q249.95103 556.7068 248.70103 556.7068Q247.57603 556.7068 246.82603 556.0349Q246.07603 555.3474 245.96666 554.2849ZM258.43542 550.06616L257.38855 550.1443Q257.24792 549.5193 256.99792 549.23804Q256.56042 548.7849 255.93541 548.7849Q255.43541 548.7849 255.04478 549.06616Q254.56041 549.44116 254.26353 550.1443Q253.98228 550.8318 253.96666 552.11304Q254.34166 551.5349 254.88853 551.25366Q255.45103 550.9724 256.06042 550.9724Q257.1073 550.9724 257.84167 551.75366Q258.59167 552.5349 258.59167 553.75366Q258.59167 554.56616 258.2323 555.2693Q257.88855 555.9568 257.27917 556.3318Q256.6698 556.69116 255.90416 556.69116Q254.57603 556.69116 253.74791 555.7224Q252.91978 554.75366 252.91978 552.5349Q252.91978 550.0349 253.84166 548.9099Q254.63853 547.92554 255.99791 547.92554Q257.01355 547.92554 257.65417 548.50366Q258.31042 549.06616 258.43542 550.06616ZM254.13853 553.7693Q254.13853 554.31616 254.35728 554.81616Q254.59166 555.30054 254.99791 555.56616Q255.41978 555.8318 255.88853 555.8318Q256.5448 555.8318 257.02917 555.30054Q257.51355 554.75366 257.51355 553.8318Q257.51355 552.94116 257.02917 552.42554Q256.56042 551.9099 255.84166 551.9099Q255.12291 551.9099 254.62291 552.42554Q254.13853 552.94116 254.13853 553.7693ZM263.93542 556.55054L262.88855 556.55054L262.88855 549.8318Q262.49792 550.19116 261.87292 550.56616Q261.26355 550.92554 260.77917 551.0974L260.77917 550.0818Q261.65417 549.6599 262.31042 549.0818Q262.9823 548.48804 263.26355 547.92554L263.93542 547.92554L263.93542 556.55054Z" fill-rule="nonzero"/><path fill="#000000" d="M238.96666 554.2849L240.02916 554.1443Q240.20103 555.0349 240.63853 555.44116Q241.07603 555.8318 241.70103 555.8318Q242.45103 555.8318 242.96666 555.31616Q243.48228 554.80054 243.48228 554.0349Q243.48228 553.31616 242.99791 552.8474Q242.52916 552.36304 241.79478 552.36304Q241.49791 552.36304 241.04478 552.48804L241.16978 551.55054Q241.27916 551.56616 241.34166 551.56616Q242.01353 551.56616 242.54478 551.2224Q243.09166 550.86304 243.09166 550.12866Q243.09166 549.55054 242.70103 549.17554Q242.31041 548.7849 241.68541 548.7849Q241.07603 548.7849 240.65416 549.17554Q240.24791 549.56616 240.13853 550.3318L239.07603 550.1443Q239.26353 549.0974 239.95103 548.5193Q240.63853 547.92554 241.65416 547.92554Q242.35728 547.92554 242.95103 548.23804Q243.54478 548.5349 243.85728 549.05054Q244.16978 549.56616 244.16978 550.1599Q244.16978 550.7068 243.87291 551.17554Q243.57603 551.62866 242.99791 551.8943Q243.74791 552.06616 244.16978 552.62866Q244.59166 553.17554 244.59166 554.0193Q244.59166 555.1443 243.76353 555.92554Q242.95103 556.7068 241.70103 556.7068Q240.57603 556.7068 239.82603 556.0349Q239.07603 555.3474 238.96666 554.2849ZM245.96666 554.2849L247.02916 554.1443Q247.20103 555.0349 247.63853 555.44116Q248.07603 555.8318 248.70103 555.8318Q249.45103 555.8318 249.96666 555.31616Q250.48228 554.80054 250.48228 554.0349Q250.48228 553.31616 249.99791 552.8474Q249.52916 552.36304 248.79478 552.36304Q248.49791 552.36304 248.04478 552.48804L248.16978 551.55054Q248.27916 551.56616 248.34166 551.56616Q249.01353 551.56616 249.54478 551.2224Q250.09166 550.86304 250.09166 550.12866Q250.09166 549.55054 249.70103 549.17554Q249.31041 548.7849 248.68541 548.7849Q248.07603 548.7849 247.65416 549.17554Q247.24791 549.56616 247.13853 550.3318L246.07603 550.1443Q246.26353 549.0974 246.95103 548.5193Q247.63853 547.92554 248.65416 547.92554Q249.35728 547.92554 249.95103 548.23804Q250.54478 548.5349 250.85728 549.05054Q251.16978 549.56616 251.16978 550.1599Q251.16978 550.7068 250.87291 551.17554Q250.57603 551.62866 249.99791 551.8943Q250.74791 552.06616 251.16978 552.62866Q251.59166 553.17554 251.59166 554.0193Q251.59166 555.1443 250.76353 555.92554Q249.95103 556.7068 248.70103 556.7068Q247.57603 556.7068 246.82603 556.0349Q246.07603 555.3474 245.96666 554.2849ZM258.43542 550.06616L257.38855 550.1443Q257.24792 549.5193 256.99792 549.23804Q256.56042 548.7849 255.93541 548.7849Q255.43541 548.7849 255.04478 549.06616Q254.56041 549.44116 254.26353 550.1443Q253.98228 550.8318 253.96666 552.11304Q254.34166 551.5349 254.88853 551.25366Q255.45103 550.9724 256.06042 550.9724Q257.1073 550.9724 257.84167 551.75366Q258.59167 552.5349 258.59167 553.75366Q258.59167 554.56616 258.2323 555.2693Q257.88855 555.9568 257.27917 556.3318Q256.6698 556.69116 255.90416 556.69116Q254.57603 556.69116 253.74791 555.7224Q252.91978 554.75366 252.91978 552.5349Q252.91978 550.0349 253.84166 548.9099Q254.63853 547.92554 255.99791 547.92554Q257.01355 547.92554 257.65417 548.50366Q258.31042 549.06616 258.43542 550.06616ZM254.13853 553.7693Q254.13853 554.31616 254.35728 554.81616Q254.59166 555.30054 254.99791 555.56616Q255.41978 555.8318 255.88853 555.8318Q256.5448 555.8318 257.02917 555.30054Q257.51355 554.75366 257.51355 553.8318Q257.51355 552.94116 257.02917 552.42554Q256.56042 551.9099 255.84166 551.9099Q255.12291 551.9099 254.62291 552.42554Q254.13853 552.94116 254.13853 553.7693ZM263.93542 556.55054L262.88855 556.55054L262.88855 549.8318Q262.49792 550.19116 261.87292 550.56616Q261.26355 550.92554 260.77917 551.0974L260.77917 550.0818Q261.65417 549.6599 262.31042 549.0818Q262.9823 548.48804 263.26355 547.92554L263.93542 547.92554L263.93542 556.55054Z" fill-rule="nonzero"/><path stroke="#f2f2f2" stroke-width="3.0" stroke-linejoin="round" stroke-linecap="round" d="M587.46875 398.5015L586.4219 398.5015L586.4219 391.78275Q586.03125 392.14212 585.40625 392.51712Q584.7969 392.8765 584.3125 393.04837L584.3125 392.03275Q585.1875 391.61087 585.84375 391.03275Q586.5156 390.439 586.7969 389.8765L587.46875 389.8765L587.46875 398.5015ZM592.125 393.84525Q591.46875 393.59525 591.1406 393.15775Q590.8281 392.70462 590.8281 392.09525Q590.8281 391.15775 591.5 390.51712Q592.1875 389.8765 593.2969 389.8765Q594.4219 389.8765 595.1094 390.53275Q595.7969 391.189 595.7969 392.1265Q595.7969 392.72025 595.4844 393.15775Q595.1719 393.59525 594.53125 393.84525Q595.3281 394.09525 595.7344 394.67337Q596.1406 395.2515 596.1406 396.04837Q596.1406 397.14212 595.3594 397.89212Q594.59375 398.64212 593.3125 398.64212Q592.0469 398.64212 591.2656 397.89212Q590.4844 397.14212 590.4844 396.01712Q590.4844 395.17337 590.90625 394.61087Q591.34375 394.04837 592.125 393.84525ZM591.90625 392.04837Q591.90625 392.65775 592.2969 393.04837Q592.7031 393.439 593.3281 393.439Q593.9375 393.439 594.3281 393.064Q594.71875 392.67337 594.71875 392.11087Q594.71875 391.53275 594.3125 391.14212Q593.90625 390.73587 593.3125 390.73587Q592.7031 390.73587 592.2969 391.1265Q591.90625 391.51712 591.90625 392.04837ZM591.5781 396.01712Q591.5781 396.47025 591.78125 396.89212Q592.0 397.314 592.4219 397.54837Q592.84375 397.78275 593.3281 397.78275Q594.0781 397.78275 594.5625 397.29837Q595.0625 396.814 595.0625 396.064Q595.0625 395.29837 594.5625 394.79837Q594.0625 394.29837 593.2969 394.29837Q592.5469 394.29837 592.0625 394.79837Q591.5781 395.28275 591.5781 396.01712ZM597.5 396.2515L598.6094 396.15775Q598.7344 396.97025 599.1719 397.3765Q599.625 397.78275 600.2656 397.78275Q601.0156 397.78275 601.5469 397.20462Q602.0781 396.6265 602.0781 395.689Q602.0781 394.78275 601.5625 394.26712Q601.0625 393.73587 600.2344 393.73587Q599.7344 393.73587 599.3125 393.97025Q598.90625 394.20462 598.6719 394.564L597.6875 394.439L598.5156 390.03275L602.7969 390.03275L602.7969 391.03275L599.3594 391.03275L598.90625 393.34525Q599.6719 392.79837 600.5156 392.79837Q601.6406 392.79837 602.40625 393.57962Q603.1875 394.36087 603.1875 395.59525Q603.1875 396.7515 602.5156 397.61087Q601.6875 398.64212 600.2656 398.64212Q599.09375 398.64212 598.34375 397.98587Q597.6094 397.32962 597.5 396.2515ZM610.0469 397.48587L610.0469 398.5015L604.3594 398.5015Q604.3594 398.1265 604.4844 397.76712Q604.7031 397.189 605.1719 396.6265Q605.65625 396.064 606.5625 395.32962Q607.96875 394.17337 608.4531 393.5015Q608.9531 392.82962 608.9531 392.23587Q608.9531 391.61087 608.5 391.189Q608.0469 390.7515 607.3281 390.7515Q606.5625 390.7515 606.1094 391.20462Q605.65625 391.65775 605.6406 392.47025L604.5625 392.36087Q604.6719 391.14212 605.3906 390.51712Q606.125 389.8765 607.3594 389.8765Q608.59375 389.8765 609.3125 390.564Q610.03125 391.2515 610.03125 392.26712Q610.03125 392.78275 609.8125 393.28275Q609.6094 393.76712 609.1094 394.32962Q608.625 394.8765 607.5 395.82962Q606.5469 396.6265 606.2656 396.92337Q606.0 397.20462 605.8281 397.48587L610.0469 397.48587ZM614.875 398.5015L614.875 396.439L611.15625 396.439L611.15625 395.47025L615.0781 389.90775L615.9375 389.90775L615.9375 395.47025L617.09375 395.47025L617.09375 396.439L615.9375 396.439L615.9375 398.5015L614.875 398.5015ZM614.875 395.47025L614.875 391.61087L612.1875 395.47025L614.875 395.47025Z" fill-rule="nonzero"/><path fill="#000000" d="M587.46875 398.5015L586.4219 398.5015L586.4219 391.78275Q586.03125 392.14212 585.40625 392.51712Q584.7969 392.8765 584.3125 393.04837L584.3125 392.03275Q585.1875 391.61087 585.84375 391.03275Q586.5156 390.439 586.7969 389.8765L587.46875 389.8765L587.46875 398.5015ZM592.125 393.84525Q591.46875 393.59525 591.1406 393.15775Q590.8281 392.70462 590.8281 392.09525Q590.8281 391.15775 591.5 390.51712Q592.1875 389.8765 593.2969 389.8765Q594.4219 389.8765 595.1094 390.53275Q595.7969 391.189 595.7969 392.1265Q595.7969 392.72025 595.4844 393.15775Q595.1719 393.59525 594.53125 393.84525Q595.3281 394.09525 595.7344 394.67337Q596.1406 395.2515 596.1406 396.04837Q596.1406 397.14212 595.3594 397.89212Q594.59375 398.64212 593.3125 398.64212Q592.0469 398.64212 591.2656 397.89212Q590.4844 397.14212 590.4844 396.01712Q590.4844 395.17337 590.90625 394.61087Q591.34375 394.04837 592.125 393.84525ZM591.90625 392.04837Q591.90625 392.65775 592.2969 393.04837Q592.7031 393.439 593.3281 393.439Q593.9375 393.439 594.3281 393.064Q594.71875 392.67337 594.71875 392.11087Q594.71875 391.53275 594.3125 391.14212Q593.90625 390.73587 593.3125 390.73587Q592.7031 390.73587 592.2969 391.1265Q591.90625 391.51712 591.90625 392.04837ZM591.5781 396.01712Q591.5781 396.47025 591.78125 396.89212Q592.0 397.314 592.4219 397.54837Q592.84375 397.78275 593.3281 397.78275Q594.0781 397.78275 594.5625 397.29837Q595.0625 396.814 595.0625 396.064Q595.0625 395.29837 594.5625 394.79837Q594.0625 394.29837 593.2969 394.29837Q592.5469 394.29837 592.0625 394.79837Q591.5781 395.28275 591.5781 396.01712ZM597.5 396.2515L598.6094 396.15775Q598.7344 396.97025 599.1719 397.3765Q599.625 397.78275 600.2656 397.78275Q601.0156 397.78275 601.5469 397.20462Q602.0781 396.6265 602.0781 395.689Q602.0781 394.78275 601.5625 394.26712Q601.0625 393.73587 600.2344 393.73587Q599.7344 393.73587 599.3125 393.97025Q598.90625 394.20462 598.6719 394.564L597.6875 394.439L598.5156 390.03275L602.7969 390.03275L602.7969 391.03275L599.3594 391.03275L598.90625 393.34525Q599.6719 392.79837 600.5156 392.79837Q601.6406 392.79837 602.40625 393.57962Q603.1875 394.36087 603.1875 395.59525Q603.1875 396.7515 602.5156 397.61087Q601.6875 398.64212 600.2656 398.64212Q599.09375 398.64212 598.34375 397.98587Q597.6094 397.32962 597.5 396.2515ZM610.0469 397.48587L610.0469 398.5015L604.3594 398.5015Q604.3594 398.1265 604.4844 397.76712Q604.7031 397.189 605.1719 396.6265Q605.65625 396.064 606.5625 395.32962Q607.96875 394.17337 608.4531 393.5015Q608.9531 392.82962 608.9531 392.23587Q608.9531 391.61087 608.5 391.189Q608.0469 390.7515 607.3281 390.7515Q606.5625 390.7515 606.1094 391.20462Q605.65625 391.65775 605.6406 392.47025L604.5625 392.36087Q604.6719 391.14212 605.3906 390.51712Q606.125 389.8765 607.3594 389.8765Q608.59375 389.8765 609.3125 390.564Q610.03125 391.2515 610.03125 392.26712Q610.03125 392.78275 609.8125 393.28275Q609.6094 393.76712 609.1094 394.32962Q608.625 394.8765 607.5 395.82962Q606.5469 396.6265 606.2656 396.92337Q606.0 397.20462 605.8281 397.48587L610.0469 397.48587ZM614.875 398.5015L614.875 396.439L611.15625 396.439L611.15625 395.47025L615.0781 389.90775L615.9375 389.90775L615.9375 395.47025L617.09375 395.47025L617.09375 396.439L615.9375 396.439L615.9375 398.5015L614.875 398.5015ZM614.875 395.47025L614.875 391.61087L612.1875 395.47025L614.875 395.47025Z" fill-rule="nonzero"/><path stroke="#f2f2f2" stroke-width="3.0" stroke-linejoin="round" stroke-linecap="round" d="M934.9083 122.10598L934.9083 120.04348L931.1896 120.04348L931.1896 119.07473L935.11145 113.51223L935.9708 113.51223L935.9708 119.07473L937.1271 119.07473L937.1271 120.04348L935.9708 120.04348L935.9708 122.10598L934.9083 122.10598ZM934.9083 119.07473L934.9083 115.215355L932.2208 119.07473L934.9083 119.07473ZM938.5333 119.85598L939.6427 119.76223Q939.7677 120.57473 940.2052 120.98098Q940.6583 121.38723 941.29895 121.38723Q942.04895 121.38723 942.5802 120.809105Q943.11145 120.23098 943.11145 119.29348Q943.11145 118.38723 942.5958 117.871605Q942.0958 117.340355 941.2677 117.340355Q940.7677 117.340355 940.3458 117.57473Q939.9396 117.809105 939.7052 118.16848L938.7208 118.04348L939.54895 113.63723L943.8302 113.63723L943.8302 114.63723L940.3927 114.63723L939.9396 116.94973Q940.7052 116.402855 941.54895 116.402855Q942.67395 116.402855 943.4396 117.184105Q944.2208 117.965355 944.2208 119.19973Q944.2208 120.35598 943.54895 121.215355Q942.7208 122.246605 941.29895 122.246605Q940.1271 122.246605 939.3771 121.590355Q938.6427 120.934105 938.5333 119.85598ZM945.5333 117.871605Q945.5333 116.340355 945.8458 115.41848Q946.1583 114.48098 946.7677 113.98098Q947.3927 113.48098 948.3302 113.48098Q949.0177 113.48098 949.5333 113.76223Q950.0646 114.04348 950.4083 114.57473Q950.7521 115.090355 950.9396 115.840355Q951.1271 116.590355 951.1271 117.871605Q951.1271 119.38723 950.8146 120.309105Q950.5177 121.23098 949.8927 121.746605Q949.2833 122.246605 948.3302 122.246605Q947.0958 122.246605 946.3771 121.35598Q945.5333 120.29348 945.5333 117.871605ZM946.61145 117.871605Q946.61145 119.98098 947.11145 120.684105Q947.61145 121.38723 948.3302 121.38723Q949.0646 121.38723 949.54895 120.684105Q950.04895 119.98098 950.04895 117.871605Q950.04895 115.746605 949.54895 115.059105Q949.0646 114.35598 948.3146 114.35598Q947.5958 114.35598 947.1583 114.965355Q946.61145 115.746605 946.61145 117.871605ZM955.9083 122.10598L955.9083 120.04348L952.1896 120.04348L952.1896 119.07473L956.11145 113.51223L956.9708 113.51223L956.9708 119.07473L958.1271 119.07473L958.1271 120.04348L956.9708 120.04348L956.9708 122.10598L955.9083 122.10598ZM955.9083 119.07473L955.9083 115.215355L953.2208 119.07473L955.9083 119.07473ZM963.5021 122.10598L962.4552 122.10598L962.4552 115.38723Q962.0646 115.746605 961.4396 116.121605Q960.8302 116.48098 960.3458 116.652855L960.3458 115.63723Q961.2208 115.215355 961.8771 114.63723Q962.54895 114.04348 962.8302 113.48098L963.5021 113.48098L963.5021 122.10598Z" fill-rule="nonzero"/><path fill="#000000" d="M934.9083 122.10598L934.9083 120.04348L931.1896 120.04348L931.1896 119.07473L935.11145 113.51223L935.9708 113.51223L935.9708 119.07473L937.1271 119.07473L937.1271 120.04348L935.9708 120.04348L935.9708 122.10598L934.9083 122.10598ZM934.9083 119.07473L934.9083 115.215355L932.2208 119.07473L934.9083 119.07473ZM938.5333 119.85598L939.6427 119.76223Q939.7677 120.57473 940.2052 120.98098Q940.6583 121.38723 941.29895 121.38723Q942.04895 121.38723 942.5802 120.809105Q943.11145 120.23098 943.11145 119.29348Q943.11145 118.38723 942.5958 117.871605Q942.0958 117.340355 941.2677 117.340355Q940.7677 117.340355 940.3458 117.57473Q939.9396 117.809105 939.7052 118.16848L938.7208 118.04348L939.54895 113.63723L943.8302 113.63723L943.8302 114.63723L940.3927 114.63723L939.9396 116.94973Q940.7052 116.402855 941.54895 116.402855Q942.67395 116.402855 943.4396 117.184105Q944.2208 117.965355 944.2208 119.19973Q944.2208 120.35598 943.54895 121.215355Q942.7208 122.246605 941.29895 122.246605Q940.1271 122.246605 939.3771 121.590355Q938.6427 120.934105 938.5333 119.85598ZM945.5333 117.871605Q945.5333 116.340355 945.8458 115.41848Q946.1583 114.48098 946.7677 113.98098Q947.3927 113.48098 948.3302 113.48098Q949.0177 113.48098 949.5333 113.76223Q950.0646 114.04348 950.4083 114.57473Q950.7521 115.090355 950.9396 115.840355Q951.1271 116.590355 951.1271 117.871605Q951.1271 119.38723 950.8146 120.309105Q950.5177 121.23098 949.8927 121.746605Q949.2833 122.246605 948.3302 122.246605Q947.0958 122.246605 946.3771 121.35598Q945.5333 120.29348 945.5333 117.871605ZM946.61145 117.871605Q946.61145 119.98098 947.11145 120.684105Q947.61145 121.38723 948.3302 121.38723Q949.0646 121.38723 949.54895 120.684105Q950.04895 119.98098 950.04895 117.871605Q950.04895 115.746605 949.54895 115.059105Q949.0646 114.35598 948.3146 114.35598Q947.5958 114.35598 947.1583 114.965355Q946.61145 115.746605 946.61145 117.871605ZM955.9083 122.10598L955.9083 120.04348L952.1896 120.04348L952.1896 119.07473L956.11145 113.51223L956.9708 113.51223L956.9708 119.07473L958.1271 119.07473L958.1271 120.04348L956.9708 120.04348L956.9708 122.10598L955.9083 122.10598ZM955.9083 119.07473L955.9083 115.215355L953.2208 119.07473L955.9083 119.07473ZM963.5021 122.10598L962.4552 122.10598L962.4552 115.38723Q962.0646 115.746605 961.4396 116.121605Q960.8302 116.48098 960.3458 116.652855L960.3458 115.63723Q961.2208 115.215355 961.8771 114.63723Q962.54895 114.04348 962.8302 113.48098L963.5021 113.48098L963.5021 122.10598Z" fill-rule="nonzero"/><path fill="#000000" d="M567.0469 668.5833L567.0469 660.28644L568.3125 660.28644L568.3125 661.53644Q568.7969 660.66144 569.2031 660.3802Q569.6094 660.09894 570.1094 660.09894Q570.8125 660.09894 571.5469 660.55206L571.0625 661.84894Q570.5469 661.55206 570.03125 661.55206Q569.5781 661.55206 569.2031 661.8333Q568.84375 662.09894 568.6875 662.59894Q568.4531 663.34894 568.4531 664.23956L568.4531 668.5833L567.0469 668.5833ZM571.53125 664.42706Q571.53125 662.1302 572.8125 661.0208Q573.8906 660.09894 575.4219 660.09894Q577.1406 660.09894 578.21875 661.22394Q579.3125 662.3333 579.3125 664.3177Q579.3125 665.91144 578.8281 666.8333Q578.34375 667.7552 577.4219 668.2708Q576.5156 668.7708 575.4219 668.7708Q573.6875 668.7708 572.6094 667.66144Q571.53125 666.53644 571.53125 664.42706ZM572.9844 664.42706Q572.9844 666.0208 573.6719 666.8177Q574.375 667.61456 575.4219 667.61456Q576.46875 667.61456 577.15625 666.8177Q577.8594 666.0208 577.8594 664.3802Q577.8594 662.84894 577.15625 662.05206Q576.46875 661.2552 575.4219 661.2552Q574.375 661.2552 573.6719 662.05206Q572.9844 662.8333 572.9844 664.42706ZM580.53125 664.42706Q580.53125 662.1302 581.8125 661.0208Q582.8906 660.09894 584.4219 660.09894Q586.1406 660.09894 587.21875 661.22394Q588.3125 662.3333 588.3125 664.3177Q588.3125 665.91144 587.8281 666.8333Q587.34375 667.7552 586.4219 668.2708Q585.5156 668.7708 584.4219 668.7708Q582.6875 668.7708 581.6094 667.66144Q580.53125 666.53644 580.53125 664.42706ZM581.9844 664.42706Q581.9844 666.0208 582.6719 666.8177Q583.375 667.61456 584.4219 667.61456Q585.46875 667.61456 586.15625 666.8177Q586.8594 666.0208 586.8594 664.3802Q586.8594 662.84894 586.15625 662.05206Q585.46875 661.2552 584.4219 661.2552Q583.375 661.2552 582.6719 662.05206Q581.9844 662.8333 581.9844 664.42706ZM590.0625 668.5833L590.0625 660.28644L591.3125 660.28644L591.3125 661.4427Q591.7031 660.8333 592.34375 660.47394Q593.0 660.09894 593.8281 660.09894Q594.75 660.09894 595.34375 660.48956Q595.9375 660.86456 596.1719 661.55206Q597.15625 660.09894 598.7344 660.09894Q599.96875 660.09894 600.625 660.78644Q601.2969 661.4583 601.2969 662.8802L601.2969 668.5833L599.90625 668.5833L599.90625 663.34894Q599.90625 662.5052 599.7656 662.1458Q599.625 661.7708 599.2656 661.55206Q598.90625 661.3177 598.4219 661.3177Q597.5469 661.3177 596.96875 661.8958Q596.3906 662.47394 596.3906 663.7552L596.3906 668.5833L594.9844 668.5833L594.9844 663.1927Q594.9844 662.2552 594.6406 661.78644Q594.2969 661.3177 593.5156 661.3177Q592.9219 661.3177 592.4219 661.6302Q591.9219 661.9427 591.6875 662.55206Q591.46875 663.1458 591.46875 664.2708L591.46875 668.5833L590.0625 668.5833ZM606.5 666.09894L607.8906 665.8802Q608.0 666.72394 608.53125 667.17706Q609.0781 667.61456 610.03125 667.61456Q611.0 667.61456 611.46875 667.22394Q611.9375 666.8177 611.9375 666.28644Q611.9375 665.8177 611.53125 665.53644Q611.2344 665.34894 610.09375 665.0677Q608.5469 664.67706 607.9375 664.3958Q607.34375 664.09894 607.03125 663.59894Q606.7344 663.09894 606.7344 662.48956Q606.7344 661.92706 606.9844 661.4583Q607.2344 660.98956 607.6719 660.67706Q608.0 660.42706 608.5625 660.2708Q609.1406 660.09894 609.78125 660.09894Q610.7656 660.09894 611.5 660.3802Q612.2344 660.66144 612.5781 661.1458Q612.9375 661.61456 613.0781 662.42706L611.7031 662.61456Q611.6094 661.97394 611.15625 661.61456Q610.7031 661.2552 609.8906 661.2552Q608.9219 661.2552 608.5 661.5833Q608.09375 661.8958 608.09375 662.3177Q608.09375 662.59894 608.2656 662.8177Q608.4375 663.03644 608.7969 663.1927Q609.0156 663.2708 610.0469 663.55206Q611.53125 663.9427 612.125 664.2083Q612.71875 664.4583 613.0469 664.9427Q613.3906 665.42706 613.3906 666.1458Q613.3906 666.84894 612.96875 667.47394Q612.5625 668.0833 611.78125 668.42706Q611.0156 668.7708 610.0469 668.7708Q608.4219 668.7708 607.5781 668.09894Q606.7344 667.42706 606.5 666.09894ZM615.0625 658.73956L615.0625 657.1302L616.46875 657.1302L616.46875 658.73956L615.0625 658.73956ZM615.0625 668.5833L615.0625 660.28644L616.46875 660.28644L616.46875 668.5833L615.0625 668.5833ZM618.3125 668.5833L618.3125 667.4427L623.59375 661.3802Q622.7031 661.42706 622.0156 661.42706L618.625 661.42706L618.625 660.28644L625.40625 660.28644L625.40625 661.2083L620.9219 666.47394L620.0469 667.4427Q621.0 667.36456 621.8281 667.36456L625.65625 667.36456L625.65625 668.5833L618.3125 668.5833ZM632.7344 665.91144L634.1875 666.0833Q633.84375 667.36456 632.90625 668.0677Q631.9844 668.7708 630.5469 668.7708Q628.71875 668.7708 627.65625 667.6458Q626.59375 666.5208 626.59375 664.5052Q626.59375 662.41144 627.6719 661.2552Q628.75 660.09894 630.46875 660.09894Q632.125 660.09894 633.1719 661.23956Q634.2344 662.36456 634.2344 664.41144Q634.2344 664.53644 634.2344 664.78644L628.0469 664.78644Q628.125 666.16144 628.8125 666.8958Q629.5156 667.61456 630.5469 667.61456Q631.3281 667.61456 631.875 667.2083Q632.4219 666.80206 632.7344 665.91144ZM628.125 663.6302L632.75 663.6302Q632.65625 662.5833 632.21875 662.0677Q631.5469 661.2552 630.4844 661.2552Q629.5156 661.2552 628.84375 661.91144Q628.1875 662.55206 628.125 663.6302Z" fill-rule="nonzero"/><path fill="#595959" d="M65.95 609.34894Q65.95 607.8177 66.2625 606.8958Q66.575 605.9583 67.18437 605.4583Q67.80937 604.9583 68.74687 604.9583Q69.43437 604.9583 69.95 605.23956Q70.48125 605.5208 70.825 606.05206Q71.16875 606.5677 71.35625 607.3177Q71.54375 608.0677 71.54375 609.34894Q71.54375 610.86456 71.23125 611.78644Q70.93437 612.7083 70.30937 613.22394Q69.7 613.72394 68.74687 613.72394Q67.5125 613.72394 66.79375 612.8333Q65.95 611.7708 65.95 609.34894ZM67.02812 609.34894Q67.02812 611.4583 67.52812 612.16144Q68.02812 612.86456 68.74687 612.86456Q69.48125 612.86456 69.96562 612.16144Q70.46562 611.4583 70.46562 609.34894Q70.46562 607.22394 69.96562 606.53644Q69.48125 605.8333 68.73125 605.8333Q68.0125 605.8333 67.575 606.4427Q67.02812 607.22394 67.02812 609.34894Z" fill-rule="nonzero"/><path fill="#595959" d="M41.91875 509.35L40.871876 509.35L40.871876 502.63126Q40.48125 502.99063 39.85625 503.36563Q39.246876 503.725 38.7625 503.89688L38.7625 502.88126Q39.6375 502.45938 40.29375 501.88126Q40.965626 501.2875 41.246876 500.725L41.91875 500.725L41.91875 509.35ZM44.95 505.11563Q44.95 503.58438 45.2625 502.6625Q45.575 501.725 46.184376 501.225Q46.809376 500.725 47.746876 500.725Q48.434376 500.725 48.95 501.00626Q49.48125 501.2875 49.825 501.81876Q50.16875 502.33438 50.35625 503.08438Q50.54375 503.83438 50.54375 505.11563Q50.54375 506.63126 50.23125 507.55313Q49.934376 508.475 49.309376 508.99063Q48.7 509.49063 47.746876 509.49063Q46.5125 509.49063 45.79375 508.6Q44.95 507.5375 44.95 505.11563ZM46.028126 505.11563Q46.028126 507.225 46.528126 507.92813Q47.028126 508.63126 47.746876 508.63126Q48.48125 508.63126 48.965626 507.92813Q49.465626 507.225 49.465626 505.11563Q49.465626 502.99063 48.965626 502.30313Q48.48125 501.6 47.73125 501.6Q47.0125 501.6 46.575 502.20938Q46.028126 502.99063 46.028126 505.11563ZM51.95 505.11563Q51.95 503.58438 52.2625 502.6625Q52.575 501.725 53.184376 501.225Q53.809376 500.725 54.746876 500.725Q55.434376 500.725 55.95 501.00626Q56.48125 501.2875 56.825 501.81876Q57.16875 502.33438 57.35625 503.08438Q57.54375 503.83438 57.54375 505.11563Q57.54375 506.63126 57.23125 507.55313Q56.934376 508.475 56.309376 508.99063Q55.7 509.49063 54.746876 509.49063Q53.5125 509.49063 52.79375 508.6Q51.95 507.5375 51.95 505.11563ZM53.028126 505.11563Q53.028126 507.225 53.528126 507.92813Q54.028126 508.63126 54.746876 508.63126Q55.48125 508.63126 55.965626 507.92813Q56.465626 507.225 56.465626 505.11563Q56.465626 502.99063 55.965626 502.30313Q55.48125 501.6 54.73125 501.6Q54.0125 501.6 53.575 502.20938Q53.028126 502.99063 53.028126 505.11563ZM58.95 505.11563Q58.95 503.58438 59.2625 502.6625Q59.575 501.725 60.184376 501.225Q60.809376 500.725 61.746876 500.725Q62.434376 500.725 62.95 501.00626Q63.48125 501.2875 63.825 501.81876Q64.16875 502.33438 64.35625 503.08438Q64.54375 503.83438 64.54375 505.11563Q64.54375 506.63126 64.23125 507.55313Q63.934376 508.475 63.309376 508.99063Q62.7 509.49063 61.746876 509.49063Q60.5125 509.49063 59.79375 508.6Q58.95 507.5375 58.95 505.11563ZM60.028126 505.11563Q60.028126 507.225 60.528126 507.92813Q61.028126 508.63126 61.746876 508.63126Q62.48125 508.63126 62.965626 507.92813Q63.465626 507.225 63.465626 505.11563Q63.465626 502.99063 62.965626 502.30313Q62.48125 501.6 61.73125 501.6Q61.0125 501.6 60.575 502.20938Q60.028126 502.99063 60.028126 505.11563ZM65.95 505.11563Q65.95 503.58438 66.2625 502.6625Q66.575 501.725 67.18437 501.225Q67.80937 500.725 68.74687 500.725Q69.43437 500.725 69.95 501.00626Q70.48125 501.2875 70.825 501.81876Q71.16875 502.33438 71.35625 503.08438Q71.54375 503.83438 71.54375 505.11563Q71.54375 506.63126 71.23125 507.55313Q70.93437 508.475 70.30937 508.99063Q69.7 509.49063 68.74687 509.49063Q67.5125 509.49063 66.79375 508.6Q65.95 507.5375 65.95 505.11563ZM67.02812 505.11563Q67.02812 507.225 67.52812 507.92813Q68.02812 508.63126 68.74687 508.63126Q69.48125 508.63126 69.96562 507.92813Q70.46562 507.225 70.46562 505.11563Q70.46562 502.99063 69.96562 502.30313Q69.48125 501.6 68.73125 501.6Q68.0125 501.6 67.575 502.20938Q67.02812 502.99063 67.02812 505.11563Z" fill-rule="nonzero"/><path fill="#595959" d="M43.496876 404.10104L43.496876 405.11667L37.809376 405.11667Q37.809376 404.74167 37.934376 404.3823Q38.153126 403.80417 38.621876 403.24167Q39.10625 402.67917 40.0125 401.9448Q41.41875 400.78854 41.903126 400.11667Q42.403126 399.4448 42.403126 398.85104Q42.403126 398.22604 41.95 397.80417Q41.496876 397.36667 40.778126 397.36667Q40.0125 397.36667 39.559376 397.8198Q39.10625 398.27292 39.090626 399.08542L38.0125 398.97604Q38.121876 397.7573 38.840626 397.1323Q39.575 396.49167 40.809376 396.49167Q42.04375 396.49167 42.7625 397.17917Q43.48125 397.86667 43.48125 398.8823Q43.48125 399.39792 43.2625 399.89792Q43.059376 400.3823 42.559376 400.9448Q42.075 401.49167 40.95 402.4448Q39.996876 403.24167 39.715626 403.53854Q39.45 403.8198 39.278126 404.10104L43.496876 404.10104ZM44.95 400.8823Q44.95 399.35104 45.2625 398.42917Q45.575 397.49167 46.184376 396.99167Q46.809376 396.49167 47.746876 396.49167Q48.434376 396.49167 48.95 396.77292Q49.48125 397.05417 49.825 397.58542Q50.16875 398.10104 50.35625 398.85104Q50.54375 399.60104 50.54375 400.8823Q50.54375 402.39792 50.23125 403.3198Q49.934376 404.24167 49.309376 404.7573Q48.7 405.2573 47.746876 405.2573Q46.5125 405.2573 45.79375 404.36667Q44.95 403.30417 44.95 400.8823ZM46.028126 400.8823Q46.028126 402.99167 46.528126 403.6948Q47.028126 404.39792 47.746876 404.39792Q48.48125 404.39792 48.965626 403.6948Q49.465626 402.99167 49.465626 400.8823Q49.465626 398.7573 48.965626 398.0698Q48.48125 397.36667 47.73125 397.36667Q47.0125 397.36667 46.575 397.97604Q46.028126 398.7573 46.028126 400.8823ZM51.95 400.8823Q51.95 399.35104 52.2625 398.42917Q52.575 397.49167 53.184376 396.99167Q53.809376 396.49167 54.746876 396.49167Q55.434376 396.49167 55.95 396.77292Q56.48125 397.05417 56.825 397.58542Q57.16875 398.10104 57.35625 398.85104Q57.54375 399.60104 57.54375 400.8823Q57.54375 402.39792 57.23125 403.3198Q56.934376 404.24167 56.309376 404.7573Q55.7 405.2573 54.746876 405.2573Q53.5125 405.2573 52.79375 404.36667Q51.95 403.30417 51.95 400.8823ZM53.028126 400.8823Q53.028126 402.99167 53.528126 403.6948Q54.028126 404.39792 54.746876 404.39792Q55.48125 404.39792 55.965626 403.6948Q56.465626 402.99167 56.465626 400.8823Q56.465626 398.7573 55.965626 398.0698Q55.48125 397.36667 54.73125 397.36667Q54.0125 397.36667 53.575 397.97604Q53.028126 398.7573 53.028126 400.8823ZM58.95 400.8823Q58.95 399.35104 59.2625 398.42917Q59.575 397.49167 60.184376 396.99167Q60.809376 396.49167 61.746876 396.49167Q62.434376 396.49167 62.95 396.77292Q63.48125 397.05417 63.825 397.58542Q64.16875 398.10104 64.35625 398.85104Q64.54375 399.60104 64.54375 400.8823Q64.54375 402.39792 64.23125 403.3198Q63.934376 404.24167 63.309376 404.7573Q62.7 405.2573 61.746876 405.2573Q60.5125 405.2573 59.79375 404.36667Q58.95 403.30417 58.95 400.8823ZM60.028126 400.8823Q60.028126 402.99167 60.528126 403.6948Q61.028126 404.39792 61.746876 404.39792Q62.48125 404.39792 62.965626 403.6948Q63.465626 402.99167 63.465626 400.8823Q63.465626 398.7573 62.965626 398.0698Q62.48125 397.36667 61.73125 397.36667Q61.0125 397.36667 60.575 397.97604Q60.028126 398.7573 60.028126 400.8823ZM65.95 400.8823Q65.95 399.35104 66.2625 398.42917Q66.575 397.49167 67.18437 396.99167Q67.80937 396.49167 68.74687 396.49167Q69.43437 396.49167 69.95 396.77292Q70.48125 397.05417 70.825 397.58542Q71.16875 398.10104 71.35625 398.85104Q71.54375 399.60104 71.54375 400.8823Q71.54375 402.39792 71.23125 403.3198Q70.93437 404.24167 70.30937 404.7573Q69.7 405.2573 68.74687 405.2573Q67.5125 405.2573 66.79375 404.36667Q65.95 403.30417 65.95 400.8823ZM67.02812 400.8823Q67.02812 402.99167 67.52812 403.6948Q68.02812 404.39792 68.74687 404.39792Q69.48125 404.39792 69.96562 403.6948Q70.46562 402.99167 70.46562 400.8823Q70.46562 398.7573 69.96562 398.0698Q69.48125 397.36667 68.73125 397.36667Q68.0125 397.36667 67.575 397.97604Q67.02812 398.7573 67.02812 400.8823Z" fill-rule="nonzero"/><path fill="#595959" d="M37.95 298.6177L39.0125 298.47708Q39.184376 299.3677 39.621876 299.77396Q40.059376 300.16458 40.684376 300.16458Q41.434376 300.16458 41.95 299.64896Q42.465626 299.13333 42.465626 298.3677Q42.465626 297.64896 41.98125 297.1802Q41.5125 296.69583 40.778126 296.69583Q40.48125 296.69583 40.028126 296.82083L40.153126 295.88333Q40.2625 295.89896 40.325 295.89896Q40.996876 295.89896 41.528126 295.5552Q42.075 295.19583 42.075 294.46146Q42.075 293.88333 41.684376 293.50833Q41.29375 293.1177 40.66875 293.1177Q40.059376 293.1177 39.6375 293.50833Q39.23125 293.89896 39.121876 294.66458L38.059376 294.47708Q38.246876 293.4302 38.934376 292.85208Q39.621876 292.25833 40.6375 292.25833Q41.340626 292.25833 41.934376 292.57083Q42.528126 292.8677 42.840626 293.38333Q43.153126 293.89896 43.153126 294.4927Q43.153126 295.03958 42.85625 295.50833Q42.559376 295.96146 41.98125 296.22708Q42.73125 296.39896 43.153126 296.96146Q43.575 297.50833 43.575 298.35208Q43.575 299.47708 42.746876 300.25833Q41.934376 301.03958 40.684376 301.03958Q39.559376 301.03958 38.809376 300.3677Q38.059376 299.6802 37.95 298.6177ZM44.95 296.64896Q44.95 295.1177 45.2625 294.19583Q45.575 293.25833 46.184376 292.75833Q46.809376 292.25833 47.746876 292.25833Q48.434376 292.25833 48.95 292.53958Q49.48125 292.82083 49.825 293.35208Q50.16875 293.8677 50.35625 294.6177Q50.54375 295.3677 50.54375 296.64896Q50.54375 298.16458 50.23125 299.08646Q49.934376 300.00833 49.309376 300.52396Q48.7 301.02396 47.746876 301.02396Q46.5125 301.02396 45.79375 300.13333Q44.95 299.07083 44.95 296.64896ZM46.028126 296.64896Q46.028126 298.75833 46.528126 299.46146Q47.028126 300.16458 47.746876 300.16458Q48.48125 300.16458 48.965626 299.46146Q49.465626 298.75833 49.465626 296.64896Q49.465626 294.52396 48.965626 293.83646Q48.48125 293.13333 47.73125 293.13333Q47.0125 293.13333 46.575 293.7427Q46.028126 294.52396 46.028126 296.64896ZM51.95 296.64896Q51.95 295.1177 52.2625 294.19583Q52.575 293.25833 53.184376 292.75833Q53.809376 292.25833 54.746876 292.25833Q55.434376 292.25833 55.95 292.53958Q56.48125 292.82083 56.825 293.35208Q57.16875 293.8677 57.35625 294.6177Q57.54375 295.3677 57.54375 296.64896Q57.54375 298.16458 57.23125 299.08646Q56.934376 300.00833 56.309376 300.52396Q55.7 301.02396 54.746876 301.02396Q53.5125 301.02396 52.79375 300.13333Q51.95 299.07083 51.95 296.64896ZM53.028126 296.64896Q53.028126 298.75833 53.528126 299.46146Q54.028126 300.16458 54.746876 300.16458Q55.48125 300.16458 55.965626 299.46146Q56.465626 298.75833 56.465626 296.64896Q56.465626 294.52396 55.965626 293.83646Q55.48125 293.13333 54.73125 293.13333Q54.0125 293.13333 53.575 293.7427Q53.028126 294.52396 53.028126 296.64896ZM58.95 296.64896Q58.95 295.1177 59.2625 294.19583Q59.575 293.25833 60.184376 292.75833Q60.809376 292.25833 61.746876 292.25833Q62.434376 292.25833 62.95 292.53958Q63.48125 292.82083 63.825 293.35208Q64.16875 293.8677 64.35625 294.6177Q64.54375 295.3677 64.54375 296.64896Q64.54375 298.16458 64.23125 299.08646Q63.934376 300.00833 63.309376 300.52396Q62.7 301.02396 61.746876 301.02396Q60.5125 301.02396 59.79375 300.13333Q58.95 299.07083 58.95 296.64896ZM60.028126 296.64896Q60.028126 298.75833 60.528126 299.46146Q61.028126 300.16458 61.746876 300.16458Q62.48125 300.16458 62.965626 299.46146Q63.465626 298.75833 63.465626 296.64896Q63.465626 294.52396 62.965626 293.83646Q62.48125 293.13333 61.73125 293.13333Q61.0125 293.13333 60.575 293.7427Q60.028126 294.52396 60.028126 296.64896ZM65.95 296.64896Q65.95 295.1177 66.2625 294.19583Q66.575 293.25833 67.18437 292.75833Q67.80937 292.25833 68.74687 292.25833Q69.43437 292.25833 69.95 292.53958Q70.48125 292.82083 70.825 293.35208Q71.16875 293.8677 71.35625 294.6177Q71.54375 295.3677 71.54375 296.64896Q71.54375 298.16458 71.23125 299.08646Q70.93437 300.00833 70.30937 300.52396Q69.7 301.02396 68.74687 301.02396Q67.5125 301.02396 66.79375 300.13333Q65.95 299.07083 65.95 296.64896ZM67.02812 296.64896Q67.02812 298.75833 67.52812 299.46146Q68.02812 300.16458 68.74687 300.16458Q69.48125 300.16458 69.96562 299.46146Q70.46562 298.75833 70.46562 296.64896Q70.46562 294.52396 69.96562 293.83646Q69.48125 293.13333 68.73125 293.13333Q68.0125 293.13333 67.575 293.7427Q67.02812 294.52396 67.02812 296.64896Z" fill-rule="nonzero"/><path fill="#595959" d="M41.325 196.65L41.325 194.5875L37.60625 194.5875L37.60625 193.61874L41.528126 188.05624L42.3875 188.05624L42.3875 193.61874L43.54375 193.61874L43.54375 194.5875L42.3875 194.5875L42.3875 196.65L41.325 196.65ZM41.325 193.61874L41.325 189.75937L38.6375 193.61874L41.325 193.61874ZM44.95 192.41562Q44.95 190.88437 45.2625 189.9625Q45.575 189.025 46.184376 188.525Q46.809376 188.025 47.746876 188.025Q48.434376 188.025 48.95 188.30624Q49.48125 188.5875 49.825 189.11874Q50.16875 189.63437 50.35625 190.38437Q50.54375 191.13437 50.54375 192.41562Q50.54375 193.93124 50.23125 194.85312Q49.934376 195.775 49.309376 196.29062Q48.7 196.79062 47.746876 196.79062Q46.5125 196.79062 45.79375 195.9Q44.95 194.8375 44.95 192.41562ZM46.028126 192.41562Q46.028126 194.525 46.528126 195.22812Q47.028126 195.93124 47.746876 195.93124Q48.48125 195.93124 48.965626 195.22812Q49.465626 194.525 49.465626 192.41562Q49.465626 190.29062 48.965626 189.60312Q48.48125 188.9 47.73125 188.9Q47.0125 188.9 46.575 189.50937Q46.028126 190.29062 46.028126 192.41562ZM51.95 192.41562Q51.95 190.88437 52.2625 189.9625Q52.575 189.025 53.184376 188.525Q53.809376 188.025 54.746876 188.025Q55.434376 188.025 55.95 188.30624Q56.48125 188.5875 56.825 189.11874Q57.16875 189.63437 57.35625 190.38437Q57.54375 191.13437 57.54375 192.41562Q57.54375 193.93124 57.23125 194.85312Q56.934376 195.775 56.309376 196.29062Q55.7 196.79062 54.746876 196.79062Q53.5125 196.79062 52.79375 195.9Q51.95 194.8375 51.95 192.41562ZM53.028126 192.41562Q53.028126 194.525 53.528126 195.22812Q54.028126 195.93124 54.746876 195.93124Q55.48125 195.93124 55.965626 195.22812Q56.465626 194.525 56.465626 192.41562Q56.465626 190.29062 55.965626 189.60312Q55.48125 188.9 54.73125 188.9Q54.0125 188.9 53.575 189.50937Q53.028126 190.29062 53.028126 192.41562ZM58.95 192.41562Q58.95 190.88437 59.2625 189.9625Q59.575 189.025 60.184376 188.525Q60.809376 188.025 61.746876 188.025Q62.434376 188.025 62.95 188.30624Q63.48125 188.5875 63.825 189.11874Q64.16875 189.63437 64.35625 190.38437Q64.54375 191.13437 64.54375 192.41562Q64.54375 193.93124 64.23125 194.85312Q63.934376 195.775 63.309376 196.29062Q62.7 196.79062 61.746876 196.79062Q60.5125 196.79062 59.79375 195.9Q58.95 194.8375 58.95 192.41562ZM60.028126 192.41562Q60.028126 194.525 60.528126 195.22812Q61.028126 195.93124 61.746876 195.93124Q62.48125 195.93124 62.965626 195.22812Q63.465626 194.525 63.465626 192.41562Q63.465626 190.29062 62.965626 189.60312Q62.48125 188.9 61.73125 188.9Q61.0125 188.9 60.575 189.50937Q60.028126 190.29062 60.028126 192.41562ZM65.95 192.41562Q65.95 190.88437 66.2625 189.9625Q66.575 189.025 67.18437 188.525Q67.80937 188.025 68.74687 188.025Q69.43437 188.025 69.95 188.30624Q70.48125 188.5875 70.825 189.11874Q71.16875 189.63437 71.35625 190.38437Q71.54375 191.13437 71.54375 192.41562Q71.54375 193.93124 71.23125 194.85312Q70.93437 195.775 70.30937 196.29062Q69.7 196.79062 68.74687 196.79062Q67.5125 196.79062 66.79375 195.9Q65.95 194.8375 65.95 192.41562ZM67.02812 192.41562Q67.02812 194.525 67.52812 195.22812Q68.02812 195.93124 68.74687 195.93124Q69.48125 195.93124 69.96562 195.22812Q70.46562 194.525 70.46562 192.41562Q70.46562 190.29062 69.96562 189.60312Q69.48125 188.9 68.73125 188.9Q68.0125 188.9 67.575 189.50937Q67.02812 190.29062 67.02812 192.41562Z" fill-rule="nonzero"/><path fill="#595959" d="M37.95 90.166664L39.059376 90.072914Q39.184376 90.885414 39.621876 91.291664Q40.075 91.697914 40.715626 91.697914Q41.465626 91.697914 41.996876 91.11979Q42.528126 90.541664 42.528126 89.604164Q42.528126 88.697914 42.0125 88.18229Q41.5125 87.65104 40.684376 87.65104Q40.184376 87.65104 39.7625 87.885414Q39.35625 88.11979 39.121876 88.479164L38.1375 88.354164L38.965626 83.947914L43.246876 83.947914L43.246876 84.947914L39.809376 84.947914L39.35625 87.260414Q40.121876 86.71354 40.965626 86.71354Q42.090626 86.71354 42.85625 87.49479Q43.6375 88.27604 43.6375 89.510414Q43.6375 90.666664 42.965626 91.52604Q42.1375 92.55729 40.715626 92.55729Q39.54375 92.55729 38.79375 91.90104Q38.059376 91.24479 37.95 90.166664ZM44.95 88.18229Q44.95 86.65104 45.2625 85.729164Q45.575 84.791664 46.184376 84.291664Q46.809376 83.791664 47.746876 83.791664Q48.434376 83.791664 48.95 84.072914Q49.48125 84.354164 49.825 84.885414Q50.16875 85.40104 50.35625 86.15104Q50.54375 86.90104 50.54375 88.18229Q50.54375 89.697914 50.23125 90.61979Q49.934376 91.541664 49.309376 92.05729Q48.7 92.55729 47.746876 92.55729Q46.5125 92.55729 45.79375 91.666664Q44.95 90.604164 44.95 88.18229ZM46.028126 88.18229Q46.028126 90.291664 46.528126 90.99479Q47.028126 91.697914 47.746876 91.697914Q48.48125 91.697914 48.965626 90.99479Q49.465626 90.291664 49.465626 88.18229Q49.465626 86.05729 48.965626 85.36979Q48.48125 84.666664 47.73125 84.666664Q47.0125 84.666664 46.575 85.27604Q46.028126 86.05729 46.028126 88.18229ZM51.95 88.18229Q51.95 86.65104 52.2625 85.729164Q52.575 84.791664 53.184376 84.291664Q53.809376 83.791664 54.746876 83.791664Q55.434376 83.791664 55.95 84.072914Q56.48125 84.354164 56.825 84.885414Q57.16875 85.40104 57.35625 86.15104Q57.54375 86.90104 57.54375 88.18229Q57.54375 89.697914 57.23125 90.61979Q56.934376 91.541664 56.309376 92.05729Q55.7 92.55729 54.746876 92.55729Q53.5125 92.55729 52.79375 91.666664Q51.95 90.604164 51.95 88.18229ZM53.028126 88.18229Q53.028126 90.291664 53.528126 90.99479Q54.028126 91.697914 54.746876 91.697914Q55.48125 91.697914 55.965626 90.99479Q56.465626 90.291664 56.465626 88.18229Q56.465626 86.05729 55.965626 85.36979Q55.48125 84.666664 54.73125 84.666664Q54.0125 84.666664 53.575 85.27604Q53.028126 86.05729 53.028126 88.18229ZM58.95 88.18229Q58.95 86.65104 59.2625 85.729164Q59.575 84.791664 60.184376 84.291664Q60.809376 83.791664 61.746876 83.791664Q62.434376 83.791664 62.95 84.072914Q63.48125 84.354164 63.825 84.885414Q64.16875 85.40104 64.35625 86.15104Q64.54375 86.90104 64.54375 88.18229Q64.54375 89.697914 64.23125 90.61979Q63.934376 91.541664 63.309376 92.05729Q62.7 92.55729 61.746876 92.55729Q60.5125 92.55729 59.79375 91.666664Q58.95 90.604164 58.95 88.18229ZM60.028126 88.18229Q60.028126 90.291664 60.528126 90.99479Q61.028126 91.697914 61.746876 91.697914Q62.48125 91.697914 62.965626 90.99479Q63.465626 90.291664 63.465626 88.18229Q63.465626 86.05729 62.965626 85.36979Q62.48125 84.666664 61.73125 84.666664Q61.0125 84.666664 60.575 85.27604Q60.028126 86.05729 60.028126 88.18229ZM65.95 88.18229Q65.95 86.65104 66.2625 85.729164Q66.575 84.791664 67.18437 84.291664Q67.80937 83.791664 68.74687 83.791664Q69.43437 83.791664 69.95 84.072914Q70.48125 84.354164 70.825 84.885414Q71.16875 85.40104 71.35625 86.15104Q71.54375 86.90104 71.54375 88.18229Q71.54375 89.697914 71.23125 90.61979Q70.93437 91.541664 70.30937 92.05729Q69.7 92.55729 68.74687 92.55729Q67.5125 92.55729 66.79375 91.666664Q65.95 90.604164 65.95 88.18229ZM67.02812 88.18229Q67.02812 90.291664 67.52812 90.99479Q68.02812 91.697914 68.74687 91.697914Q69.48125 91.697914 69.96562 90.99479Q70.46562 90.291664 70.46562 88.18229Q70.46562 86.05729 69.96562 85.36979Q69.48125 84.666664 68.73125 84.666664Q68.0125 84.666664 67.575 85.27604Q67.02812 86.05729 67.02812 88.18229Z" fill-rule="nonzero"/><path fill="#595959" d="M245.96666 624.3177L247.02916 624.17706Q247.20103 625.0677 247.63853 625.47394Q248.07603 625.86456 248.70103 625.86456Q249.45103 625.86456 249.96666 625.34894Q250.48228 624.8333 250.48228 624.0677Q250.48228 623.34894 249.99791 622.8802Q249.52916 622.3958 248.79478 622.3958Q248.49791 622.3958 248.04478 622.5208L248.16978 621.5833Q248.27916 621.59894 248.34166 621.59894Q249.01353 621.59894 249.54478 621.2552Q250.09166 620.8958 250.09166 620.16144Q250.09166 619.5833 249.70103 619.2083Q249.31041 618.8177 248.68541 618.8177Q248.07603 618.8177 247.65416 619.2083Q247.24791 619.59894 247.13853 620.36456L246.07603 620.17706Q246.26353 619.1302 246.95103 618.55206Q247.63853 617.9583 248.65416 617.9583Q249.35728 617.9583 249.95103 618.2708Q250.54478 618.5677 250.85728 619.0833Q251.16978 619.59894 251.16978 620.1927Q251.16978 620.73956 250.87291 621.2083Q250.57603 621.66144 249.99791 621.92706Q250.74791 622.09894 251.16978 622.66144Q251.59166 623.2083 251.59166 624.05206Q251.59166 625.17706 250.76353 625.9583Q249.95103 626.73956 248.70103 626.73956Q247.57603 626.73956 246.82603 626.0677Q246.07603 625.3802 245.96666 624.3177ZM252.96666 622.34894Q252.96666 620.8177 253.27916 619.8958Q253.59166 618.9583 254.20103 618.4583Q254.82603 617.9583 255.76353 617.9583Q256.45105 617.9583 256.96667 618.23956Q257.49792 618.5208 257.84167 619.05206Q258.18542 619.5677 258.37292 620.3177Q258.56042 621.0677 258.56042 622.34894Q258.56042 623.86456 258.24792 624.78644Q257.95105 625.7083 257.32605 626.22394Q256.71667 626.72394 255.76353 626.72394Q254.52916 626.72394 253.81041 625.8333Q252.96666 624.7708 252.96666 622.34894ZM254.04478 622.34894Q254.04478 624.4583 254.54478 625.16144Q255.04478 625.86456 255.76353 625.86456Q256.49792 625.86456 256.9823 625.16144Q257.4823 624.4583 257.4823 622.34894Q257.4823 620.22394 256.9823 619.53644Q256.49792 618.8333 255.74791 618.8333Q255.02916 618.8333 254.59166 619.4427Q254.04478 620.22394 254.04478 622.34894Z" fill-rule="nonzero"/><path fill="#595959" d="M597.375 626.5833L597.375 624.5208L593.65625 624.5208L593.65625 623.55206L597.5781 617.98956L598.4375 617.98956L598.4375 623.55206L599.59375 623.55206L599.59375 624.5208L598.4375 624.5208L598.4375 626.5833L597.375 626.5833ZM597.375 623.55206L597.375 619.6927L594.6875 623.55206L597.375 623.55206ZM601.0 622.34894Q601.0 620.8177 601.3125 619.8958Q601.625 618.9583 602.2344 618.4583Q602.8594 617.9583 603.7969 617.9583Q604.4844 617.9583 605.0 618.23956Q605.53125 618.5208 605.875 619.05206Q606.21875 619.5677 606.40625 620.3177Q606.59375 621.0677 606.59375 622.34894Q606.59375 623.86456 606.28125 624.78644Q605.9844 625.7083 605.3594 626.22394Q604.75 626.72394 603.7969 626.72394Q602.5625 626.72394 601.84375 625.8333Q601.0 624.7708 601.0 622.34894ZM602.0781 622.34894Q602.0781 624.4583 602.5781 625.16144Q603.0781 625.86456 603.7969 625.86456Q604.53125 625.86456 605.0156 625.16144Q605.5156 624.4583 605.5156 622.34894Q605.5156 620.22394 605.0156 619.53644Q604.53125 618.8333 603.78125 618.8333Q603.0625 618.8333 602.625 619.4427Q602.0781 620.22394 602.0781 622.34894Z" fill-rule="nonzero"/><path fill="#595959" d="M942.0333 624.3333L943.1427 624.23956Q943.2677 625.05206 943.7052 625.4583Q944.1583 625.86456 944.79895 625.86456Q945.54895 625.86456 946.0802 625.28644Q946.61145 624.7083 946.61145 623.7708Q946.61145 622.86456 946.0958 622.34894Q945.5958 621.8177 944.7677 621.8177Q944.2677 621.8177 943.8458 622.05206Q943.4396 622.28644 943.2052 622.6458L942.2208 622.5208L943.04895 618.11456L947.3302 618.11456L947.3302 619.11456L943.8927 619.11456L943.4396 621.42706Q944.2052 620.8802 945.04895 620.8802Q946.17395 620.8802 946.9396 621.66144Q947.7208 622.4427 947.7208 623.67706Q947.7208 624.8333 947.04895 625.6927Q946.2208 626.72394 944.79895 626.72394Q943.6271 626.72394 942.8771 626.0677Q942.1427 625.41144 942.0333 624.3333ZM949.0333 622.34894Q949.0333 620.8177 949.3458 619.8958Q949.6583 618.9583 950.2677 618.4583Q950.8927 617.9583 951.8302 617.9583Q952.5177 617.9583 953.0333 618.23956Q953.5646 618.5208 953.9083 619.05206Q954.2521 619.5677 954.4396 620.3177Q954.6271 621.0677 954.6271 622.34894Q954.6271 623.86456 954.3146 624.78644Q954.0177 625.7083 953.3927 626.22394Q952.7833 626.72394 951.8302 626.72394Q950.5958 626.72394 949.8771 625.8333Q949.0333 624.7708 949.0333 622.34894ZM950.11145 622.34894Q950.11145 624.4583 950.61145 625.16144Q951.11145 625.86456 951.8302 625.86456Q952.5646 625.86456 953.04895 625.16144Q953.54895 624.4583 953.54895 622.34894Q953.54895 620.22394 953.04895 619.53644Q952.5646 618.8333 951.8146 618.8333Q951.0958 618.8333 950.6583 619.4427Q950.11145 620.22394 950.11145 622.34894Z" fill-rule="nonzero"/><path fill="#4285f4" d="M570.5 704.55C570.5 707.8637 567.8137 710.55 564.5 710.55C561.1863 710.55 558.5 707.8637 558.5 704.55C558.5 701.23627 561.1863 698.55 564.5 698.55C567.8137 698.55 570.5 701.23627 570.5 704.55Z" fill-rule="nonzero"/><path fill="#595959" d="M581.59375 707.6125L581.75 708.53436Q581.2969 708.6281 580.9531 708.6281Q580.375 708.6281 580.0625 708.45624Q579.75 708.26874 579.6094 707.97186Q579.4844 707.675 579.4844 706.72186L579.4844 703.14374L578.71875 703.14374L578.71875 702.33124L579.4844 702.33124L579.4844 700.78436L580.53125 700.15936L580.53125 702.33124L581.59375 702.33124L581.59375 703.14374L580.53125 703.14374L580.53125 706.78436Q580.53125 707.2375 580.5781 707.3625Q580.6406 707.4875 580.7656 707.5656Q580.8906 707.64374 581.125 707.64374Q581.3125 707.64374 581.59375 707.6125ZM582.2969 701.175L582.2969 699.95624L583.3594 699.95624L583.3594 701.175L582.2969 701.175ZM582.2969 708.55L582.2969 702.33124L583.3594 702.33124L583.3594 708.55L582.2969 708.55ZM585.2969 708.55L585.2969 702.33124L586.2344 702.33124L586.2344 703.20624Q586.53125 702.7375 587.0156 702.47186Q587.5 702.1906 588.125 702.1906Q588.8125 702.1906 589.25 702.47186Q589.7031 702.7531 589.875 703.26874Q590.625 702.1906 591.7969 702.1906Q592.7344 702.1906 593.21875 702.70624Q593.71875 703.20624 593.71875 704.28436L593.71875 708.55L592.6719 708.55L592.6719 704.6281Q592.6719 704.0031 592.5625 703.72186Q592.46875 703.4406 592.2031 703.26874Q591.9375 703.09686 591.5625 703.09686Q590.90625 703.09686 590.46875 703.53436Q590.0469 703.97186 590.0469 704.9406L590.0469 708.55L588.9844 708.55L588.9844 704.5031Q588.9844 703.8 588.71875 703.45624Q588.46875 703.09686 587.8906 703.09686Q587.4375 703.09686 587.0625 703.33124Q586.6875 703.5656 586.5156 704.01874Q586.34375 704.47186 586.34375 705.3156L586.34375 708.55L585.2969 708.55ZM599.5469 706.55L600.6406 706.675Q600.3906 707.6281 599.6875 708.15936Q598.9844 708.6906 597.90625 708.6906Q596.5469 708.6906 595.7344 707.84686Q594.9375 707.0031 594.9375 705.4875Q594.9375 703.925 595.75 703.0656Q596.5625 702.1906 597.84375 702.1906Q599.09375 702.1906 599.875 703.03436Q600.6719 703.8781 600.6719 705.425Q600.6719 705.51874 600.6719 705.70624L596.03125 705.70624Q596.09375 706.7375 596.6094 707.28436Q597.125 707.8156 597.90625 707.8156Q598.4844 707.8156 598.8906 707.51874Q599.3125 707.20624 599.5469 706.55ZM596.09375 704.84686L599.5625 704.84686Q599.5 704.05 599.1719 703.65936Q598.65625 703.05 597.8594 703.05Q597.125 703.05 596.625 703.53436Q596.1406 704.01874 596.09375 704.84686Z" fill-rule="nonzero"/><path fill="#595959" d="M488.67188 49.41875L490.07812 49.23125Q490.32812 50.434376 490.90625 50.965626Q491.48438 51.48125 492.32812 51.48125Q493.3125 51.48125 494.0 50.79375Q494.6875 50.10625 494.6875 49.090626Q494.6875 48.121876 494.04688 47.496876Q493.42188 46.871876 492.4375 46.871876Q492.04688 46.871876 491.45312 47.028126L491.60938 45.79375Q491.75 45.809376 491.82812 45.809376Q492.73438 45.809376 493.45312 45.340626Q494.17188 44.871876 494.17188 43.8875Q494.17188 43.121876 493.64062 42.621876Q493.125 42.10625 492.29688 42.10625Q491.46875 42.10625 490.92188 42.621876Q490.375 43.1375 490.21875 44.16875L488.8125 43.91875Q489.07812 42.496876 489.98438 41.73125Q490.90625 40.95 492.26562 40.95Q493.20312 40.95 493.98438 41.35625Q494.78125 41.746876 495.1875 42.45Q495.60938 43.1375 495.60938 43.91875Q495.60938 44.66875 495.20312 45.278126Q494.8125 45.8875 494.03125 46.246876Q495.04688 46.48125 495.60938 47.215626Q496.17188 47.95 496.17188 49.059376Q496.17188 50.559376 495.07812 51.60625Q493.98438 52.653126 492.3125 52.653126Q490.8125 52.653126 489.8125 51.7625Q488.8125 50.85625 488.67188 49.41875ZM498.23438 52.45L498.23438 40.996876L502.1875 40.996876Q503.51562 40.996876 504.21875 41.153126Q505.20312 41.3875 505.90625 41.98125Q506.8125 42.746876 507.25 43.934376Q507.70312 45.121876 507.70312 46.653126Q507.70312 47.965626 507.39062 48.98125Q507.09375 49.98125 506.60938 50.6375Q506.14062 51.29375 505.57812 51.684376Q505.01562 52.059376 504.20312 52.2625Q503.40625 52.45 502.375 52.45L498.23438 52.45ZM499.75 51.090626L502.20312 51.090626Q503.32812 51.090626 503.96875 50.8875Q504.625 50.66875 505.0 50.29375Q505.54688 49.746876 505.84375 48.840626Q506.14062 47.934376 506.14062 46.6375Q506.14062 44.840626 505.54688 43.871876Q504.96875 42.903126 504.125 42.575Q503.51562 42.340626 502.15625 42.340626L499.75 42.340626L499.75 51.090626ZM514.0625 52.45L514.0625 40.996876L515.46875 40.996876L515.46875 45.10625Q516.4531 43.965626 517.9531 43.965626Q518.875 43.965626 519.5469 44.325Q520.2344 44.684376 520.5156 45.325Q520.8125 45.965626 520.8125 47.184376L520.8125 52.45L519.40625 52.45L519.40625 47.184376Q519.40625 46.1375 518.9531 45.653126Q518.5 45.16875 517.65625 45.16875Q517.03125 45.16875 516.4844 45.496876Q515.9375 45.825 515.7031 46.3875Q515.46875 46.934376 515.46875 47.903126L515.46875 52.45L514.0625 52.45ZM528.7344 49.778126L530.1875 49.95Q529.84375 51.23125 528.90625 51.934376Q527.9844 52.6375 526.5469 52.6375Q524.71875 52.6375 523.65625 51.5125Q522.59375 50.3875 522.59375 48.371876Q522.59375 46.278126 523.6719 45.121876Q524.75 43.965626 526.46875 43.965626Q528.125 43.965626 529.1719 45.10625Q530.2344 46.23125 530.2344 48.278126Q530.2344 48.403126 530.2344 48.653126L524.0469 48.653126Q524.125 50.028126 524.8125 50.7625Q525.5156 51.48125 526.5469 51.48125Q527.3281 51.48125 527.875 51.075Q528.4219 50.66875 528.7344 49.778126ZM524.125 47.496876L528.75 47.496876Q528.65625 46.45 528.21875 45.934376Q527.5469 45.121876 526.4844 45.121876Q525.5156 45.121876 524.84375 45.778126Q524.1875 46.41875 524.125 47.496876ZM537.46875 51.41875Q536.6875 52.090626 535.96875 52.371876Q535.25 52.6375 534.4219 52.6375Q533.0469 52.6375 532.3125 51.965626Q531.5781 51.29375 531.5781 50.2625Q531.5781 49.653126 531.8594 49.153126Q532.1406 48.6375 532.5781 48.340626Q533.03125 48.028126 533.59375 47.871876Q534.0156 47.7625 534.84375 47.66875Q536.5469 47.465626 537.3594 47.184376Q537.3594 46.8875 537.3594 46.809376Q537.3594 45.95 536.96875 45.60625Q536.4219 45.121876 535.3594 45.121876Q534.375 45.121876 533.8906 45.48125Q533.4219 45.825 533.2031 46.7L531.8281 46.5125Q532.0156 45.6375 532.4375 45.090626Q532.875 44.54375 533.6875 44.2625Q534.5 43.965626 535.5625 43.965626Q536.625 43.965626 537.28125 44.215626Q537.9531 44.465626 538.2656 44.840626Q538.5781 45.215626 538.7031 45.79375Q538.78125 46.153126 538.78125 47.090626L538.78125 48.965626Q538.78125 50.934376 538.8594 51.45Q538.9531 51.965626 539.21875 52.45L537.75 52.45Q537.53125 52.0125 537.46875 51.41875ZM537.3594 48.278126Q536.59375 48.590626 535.0625 48.809376Q534.1875 48.934376 533.8281 49.090626Q533.46875 49.246876 533.2656 49.559376Q533.0781 49.85625 533.0781 50.215626Q533.0781 50.778126 533.5 51.153126Q533.9375 51.528126 534.75 51.528126Q535.5625 51.528126 536.1875 51.184376Q536.8281 50.825 537.125 50.2Q537.3594 49.73125 537.3594 48.79375L537.3594 48.278126ZM544.125 51.184376L544.3281 52.434376Q543.7344 52.559376 543.2656 52.559376Q542.5 52.559376 542.0781 52.325Q541.65625 52.075 541.4844 51.684376Q541.3125 51.278126 541.3125 50.0125L541.3125 45.246876L540.28125 45.246876L540.28125 44.153126L541.3125 44.153126L541.3125 42.090626L542.71875 41.246876L542.71875 44.153126L544.125 44.153126L544.125 45.246876L542.71875 45.246876L542.71875 50.090626Q542.71875 50.7 542.78125 50.871876Q542.8594 51.04375 543.03125 51.153126Q543.2031 51.246876 543.5156 51.246876Q543.75 51.246876 544.125 51.184376ZM548.5 49.965626L549.8906 49.746876Q550.0 50.590626 550.53125 51.04375Q551.0781 51.48125 552.03125 51.48125Q553.0 51.48125 553.46875 51.090626Q553.9375 50.684376 553.9375 50.153126Q553.9375 49.684376 553.53125 49.403126Q553.2344 49.215626 552.09375 48.934376Q550.5469 48.54375 549.9375 48.2625Q549.34375 47.965626 549.03125 47.465626Q548.7344 46.965626 548.7344 46.35625Q548.7344 45.79375 548.9844 45.325Q549.2344 44.85625 549.6719 44.54375Q550.0 44.29375 550.5625 44.1375Q551.1406 43.965626 551.78125 43.965626Q552.7656 43.965626 553.5 44.246876Q554.2344 44.528126 554.5781 45.0125Q554.9375 45.48125 555.0781 46.29375L553.7031 46.48125Q553.6094 45.840626 553.15625 45.48125Q552.7031 45.121876 551.8906 45.121876Q550.9219 45.121876 550.5 45.45Q550.09375 45.7625 550.09375 46.184376Q550.09375 46.465626 550.2656 46.684376Q550.4375 46.903126 550.7969 47.059376Q551.0156 47.1375 552.0469 47.41875Q553.53125 47.809376 554.125 48.075Q554.71875 48.325 555.0469 48.809376Q555.3906 49.29375 555.3906 50.0125Q555.3906 50.715626 554.96875 51.340626Q554.5625 51.95 553.78125 52.29375Q553.0156 52.6375 552.0469 52.6375Q550.4219 52.6375 549.5781 51.965626Q548.7344 51.29375 548.5 49.965626ZM560.125 51.184376L560.3281 52.434376Q559.7344 52.559376 559.2656 52.559376Q558.5 52.559376 558.0781 52.325Q557.65625 52.075 557.4844 51.684376Q557.3125 51.278126 557.3125 50.0125L557.3125 45.246876L556.28125 45.246876L556.28125 44.153126L557.3125 44.153126L557.3125 42.090626L558.71875 41.246876L558.71875 44.153126L560.125 44.153126L560.125 45.246876L558.71875 45.246876L558.71875 50.090626Q558.71875 50.7 558.78125 50.871876Q558.8594 51.04375 559.03125 51.153126Q559.2031 51.246876 559.5156 51.246876Q559.75 51.246876 560.125 51.184376ZM566.7344 49.778126L568.1875 49.95Q567.84375 51.23125 566.90625 51.934376Q565.9844 52.6375 564.5469 52.6375Q562.71875 52.6375 561.65625 51.5125Q560.59375 50.3875 560.59375 48.371876Q560.59375 46.278126 561.6719 45.121876Q562.75 43.965626 564.46875 43.965626Q566.125 43.965626 567.1719 45.10625Q568.2344 46.23125 568.2344 48.278126Q568.2344 48.403126 568.2344 48.653126L562.0469 48.653126Q562.125 50.028126 562.8125 50.7625Q563.5156 51.48125 564.5469 51.48125Q565.3281 51.48125 565.875 51.075Q566.4219 50.66875 566.7344 49.778126ZM562.125 47.496876L566.75 47.496876Q566.65625 46.45 566.21875 45.934376Q565.5469 45.121876 564.4844 45.121876Q563.5156 45.121876 562.84375 45.778126Q562.1875 46.41875 562.125 47.496876ZM570.0625 52.45L570.0625 44.153126L571.3281 44.153126L571.3281 45.325Q572.2344 43.965626 573.96875 43.965626Q574.71875 43.965626 575.34375 44.23125Q575.96875 44.496876 576.28125 44.934376Q576.59375 45.371876 576.71875 45.98125Q576.7969 46.371876 576.7969 47.340626L576.7969 52.45L575.3906 52.45L575.3906 47.403126Q575.3906 46.54375 575.21875 46.121876Q575.0625 45.684376 574.6406 45.434376Q574.2344 45.184376 573.6719 45.184376Q572.7656 45.184376 572.1094 45.7625Q571.46875 46.325 571.46875 47.91875L571.46875 52.45L570.0625 52.45ZM584.46875 49.403126L585.8594 49.590626Q585.625 51.0125 584.6875 51.825Q583.7656 52.6375 582.40625 52.6375Q580.7031 52.6375 579.65625 51.528126Q578.625 50.403126 578.625 48.325Q578.625 46.98125 579.0625 45.98125Q579.5156 44.965626 580.4219 44.465626Q581.34375 43.965626 582.40625 43.965626Q583.7656 43.965626 584.625 44.653126Q585.4844 45.325 585.71875 46.590626L584.3594 46.79375Q584.15625 45.965626 583.65625 45.54375Q583.1719 45.121876 582.46875 45.121876Q581.40625 45.121876 580.7344 45.8875Q580.0781 46.6375 580.0781 48.29375Q580.0781 49.965626 580.71875 50.73125Q581.3594 51.48125 582.3906 51.48125Q583.21875 51.48125 583.7656 50.98125Q584.3281 50.465626 584.46875 49.403126ZM587.0625 42.60625L587.0625 40.996876L588.46875 40.996876L588.46875 42.60625L587.0625 42.60625ZM587.0625 52.45L587.0625 44.153126L588.46875 44.153126L588.46875 52.45L587.0625 52.45ZM591.03125 52.45L591.03125 40.996876L592.4375 40.996876L592.4375 52.45L591.03125 52.45ZM598.5 49.965626L599.8906 49.746876Q600.0 50.590626 600.53125 51.04375Q601.0781 51.48125 602.03125 51.48125Q603.0 51.48125 603.46875 51.090626Q603.9375 50.684376 603.9375 50.153126Q603.9375 49.684376 603.53125 49.403126Q603.2344 49.215626 602.09375 48.934376Q600.5469 48.54375 599.9375 48.2625Q599.34375 47.965626 599.03125 47.465626Q598.7344 46.965626 598.7344 46.35625Q598.7344 45.79375 598.9844 45.325Q599.2344 44.85625 599.6719 44.54375Q600.0 44.29375 600.5625 44.1375Q601.1406 43.965626 601.78125 43.965626Q602.7656 43.965626 603.5 44.246876Q604.2344 44.528126 604.5781 45.0125Q604.9375 45.48125 605.0781 46.29375L603.7031 46.48125Q603.6094 45.840626 603.15625 45.48125Q602.7031 45.121876 601.8906 45.121876Q600.9219 45.121876 600.5 45.45Q600.09375 45.7625 600.09375 46.184376Q600.09375 46.465626 600.2656 46.684376Q600.4375 46.903126 600.7969 47.059376Q601.0156 47.1375 602.0469 47.41875Q603.53125 47.809376 604.125 48.075Q604.71875 48.325 605.0469 48.809376Q605.3906 49.29375 605.3906 50.0125Q605.3906 50.715626 604.96875 51.340626Q604.5625 51.95 603.78125 52.29375Q603.0156 52.6375 602.0469 52.6375Q600.4219 52.6375 599.5781 51.965626Q598.7344 51.29375 598.5 49.965626ZM612.7344 49.778126L614.1875 49.95Q613.84375 51.23125 612.90625 51.934376Q611.9844 52.6375 610.5469 52.6375Q608.71875 52.6375 607.65625 51.5125Q606.59375 50.3875 606.59375 48.371876Q606.59375 46.278126 607.6719 45.121876Q608.75 43.965626 610.46875 43.965626Q612.125 43.965626 613.1719 45.10625Q614.2344 46.23125 614.2344 48.278126Q614.2344 48.403126 614.2344 48.653126L608.0469 48.653126Q608.125 50.028126 608.8125 50.7625Q609.5156 51.48125 610.5469 51.48125Q611.3281 51.48125 611.875 51.075Q612.4219 50.66875 612.7344 49.778126ZM608.125 47.496876L612.75 47.496876Q612.65625 46.45 612.21875 45.934376Q611.5469 45.121876 610.4844 45.121876Q609.5156 45.121876 608.84375 45.778126Q608.1875 46.41875 608.125 47.496876ZM621.34375 55.6375L621.34375 51.559376Q621.0156 52.028126 620.4219 52.340626Q619.84375 52.6375 619.1719 52.6375Q617.7031 52.6375 616.625 51.465626Q615.5625 50.278126 615.5625 48.215626Q615.5625 46.965626 616.0 45.98125Q616.4375 44.98125 617.25 44.48125Q618.0781 43.965626 619.0625 43.965626Q620.6094 43.965626 621.4844 45.2625L621.4844 44.153126L622.75 44.153126L622.75 55.6375L621.34375 55.6375ZM617.0156 48.278126Q617.0156 49.871876 617.6875 50.684376Q618.3594 51.48125 619.2969 51.48125Q620.1875 51.48125 620.8281 50.715626Q621.4844 49.95 621.4844 48.403126Q621.4844 46.746876 620.7969 45.91875Q620.125 45.075 619.2031 45.075Q618.28125 45.075 617.6406 45.85625Q617.0156 46.621876 617.0156 48.278126ZM630.5 52.45L630.5 51.23125Q629.53125 52.6375 627.8594 52.6375Q627.125 52.6375 626.4844 52.35625Q625.8594 52.075 625.5469 51.653126Q625.2344 51.215626 625.1094 50.60625Q625.03125 50.184376 625.03125 49.29375L625.03125 44.153126L626.4375 44.153126L626.4375 48.746876Q626.4375 49.85625 626.5156 50.23125Q626.65625 50.79375 627.0781 51.10625Q627.5156 51.41875 628.1406 51.41875Q628.78125 51.41875 629.3281 51.10625Q629.8906 50.778126 630.1094 50.215626Q630.34375 49.653126 630.34375 48.590626L630.34375 44.153126L631.75 44.153126L631.75 52.45L630.5 52.45ZM639.7344 49.778126L641.1875 49.95Q640.84375 51.23125 639.90625 51.934376Q638.9844 52.6375 637.5469 52.6375Q635.71875 52.6375 634.65625 51.5125Q633.59375 50.3875 633.59375 48.371876Q633.59375 46.278126 634.6719 45.121876Q635.75 43.965626 637.46875 43.965626Q639.125 43.965626 640.1719 45.10625Q641.2344 46.23125 641.2344 48.278126Q641.2344 48.403126 641.2344 48.653126L635.0469 48.653126Q635.125 50.028126 635.8125 50.7625Q636.5156 51.48125 637.5469 51.48125Q638.3281 51.48125 638.875 51.075Q639.4219 50.66875 639.7344 49.778126ZM635.125 47.496876L639.75 47.496876Q639.65625 46.45 639.21875 45.934376Q638.5469 45.121876 637.4844 45.121876Q636.5156 45.121876 635.84375 45.778126Q635.1875 46.41875 635.125 47.496876ZM643.0625 52.45L643.0625 44.153126L644.3281 44.153126L644.3281 45.325Q645.2344 43.965626 646.96875 43.965626Q647.71875 43.965626 648.34375 44.23125Q648.96875 44.496876 649.28125 44.934376Q649.59375 45.371876 649.71875 45.98125Q649.7969 46.371876 649.7969 47.340626L649.7969 52.45L648.3906 52.45L648.3906 47.403126Q648.3906 46.54375 648.21875 46.121876Q648.0625 45.684376 647.6406 45.434376Q647.2344 45.184376 646.6719 45.184376Q645.7656 45.184376 645.1094 45.7625Q644.46875 46.325 644.46875 47.91875L644.46875 52.45L643.0625 52.45ZM655.125 51.184376L655.3281 52.434376Q654.7344 52.559376 654.2656 52.559376Q653.5 52.559376 653.0781 52.325Q652.65625 52.075 652.4844 51.684376Q652.3125 51.278126 652.3125 50.0125L652.3125 45.246876L651.28125 45.246876L651.28125 44.153126L652.3125 44.153126L652.3125 42.090626L653.71875 41.246876L653.71875 44.153126L655.125 44.153126L655.125 45.246876L653.71875 45.246876L653.71875 50.090626Q653.71875 50.7 653.78125 50.871876Q653.8594 51.04375 654.03125 51.153126Q654.2031 51.246876 654.5156 51.246876Q654.75 51.246876 655.125 51.184376ZM656.0625 42.60625L656.0625 40.996876L657.46875 40.996876L657.46875 42.60625L656.0625 42.60625ZM656.0625 52.45L656.0625 44.153126L657.46875 44.153126L657.46875 52.45L656.0625 52.45ZM665.46875 51.41875Q664.6875 52.090626 663.96875 52.371876Q663.25 52.6375 662.4219 52.6375Q661.0469 52.6375 660.3125 51.965626Q659.5781 51.29375 659.5781 50.2625Q659.5781 49.653126 659.8594 49.153126Q660.1406 48.6375 660.5781 48.340626Q661.03125 48.028126 661.59375 47.871876Q662.0156 47.7625 662.84375 47.66875Q664.5469 47.465626 665.3594 47.184376Q665.3594 46.8875 665.3594 46.809376Q665.3594 45.95 664.96875 45.60625Q664.4219 45.121876 663.3594 45.121876Q662.375 45.121876 661.8906 45.48125Q661.4219 45.825 661.2031 46.7L659.8281 46.5125Q660.0156 45.6375 660.4375 45.090626Q660.875 44.54375 661.6875 44.2625Q662.5 43.965626 663.5625 43.965626Q664.625 43.965626 665.28125 44.215626Q665.9531 44.465626 666.2656 44.840626Q666.5781 45.215626 666.7031 45.79375Q666.78125 46.153126 666.78125 47.090626L666.78125 48.965626Q666.78125 50.934376 666.8594 51.45Q666.9531 51.965626 667.21875 52.45L665.75 52.45Q665.53125 52.0125 665.46875 51.41875ZM665.3594 48.278126Q664.59375 48.590626 663.0625 48.809376Q662.1875 48.934376 661.8281 49.090626Q661.46875 49.246876 661.2656 49.559376Q661.0781 49.85625 661.0781 50.215626Q661.0781 50.778126 661.5 51.153126Q661.9375 51.528126 662.75 51.528126Q663.5625 51.528126 664.1875 51.184376Q664.8281 50.825 665.125 50.2Q665.3594 49.73125 665.3594 48.79375L665.3594 48.278126ZM669.03125 52.45L669.03125 40.996876L670.4375 40.996876L670.4375 52.45L669.03125 52.45Z" fill-rule="nonzero"/></svg>