<svg version="1.1" viewBox="0.0 0.0 1160.0 749.0" fill="none" stroke="none" stroke-linecap="square" stroke-miterlimit="10" width="1160" height="749" xmlns:xlink="http://www.w3.org/1999/xlink" xmlns="http://www.w3.org/2000/svg"><path fill="#f2f2f2" d="M0 0L1160.0 0L1160.0 749.0L0 749.0L0 0Z" fill-rule="nonzero"/><path stroke="#262626" stroke-width="1.0" stroke-linecap="butt" d="M64.5 609.5L1122.5 609.5" fill-rule="nonzero"/><path stroke="#d9d9d9" stroke-width="1.0" stroke-linecap="butt" d="M64.5 435.5L1122.5 435.5" fill-rule="nonzero"/><path stroke="#d9d9d9" stroke-width="1.0" stroke-linecap="butt" d="M64.5 262.5L1122.5 262.5" fill-rule="nonzero"/><path stroke="#d9d9d9" stroke-width="1.0" stroke-linecap="butt" d="M64.5 88.5L1122.5 88.5" fill-rule="nonzero"/><path stroke="#e1e1e1" stroke-width="1.0" stroke-linecap="butt" d="M196.7125 576.9411L196.7125 560.9411" fill-rule="nonzero"/><path stroke="#e1e1e1" stroke-width="1.0" stroke-linecap="butt" d="M461.2375 446.64944L461.2375 430.64944" fill-rule="nonzero"/><path stroke="#e1e1e1" stroke-width="1.0" stroke-linecap="butt" d="M725.7625 446.64944L725.7625 430.64944" fill-rule="nonzero"/><path stroke="#e1e1e1" stroke-width="1.0" stroke-linecap="butt" d="M990.2875 182.59166L990.2875 166.59166" fill-rule="nonzero"/><path stroke="#e1e1e1" stroke-width="1.0" stroke-linecap="butt" d="M461.2375 580.4155L461.2375 564.4155" fill-rule="nonzero"/><clipPath id="id_0"><path d="M64.45 88.416664L1122.55 88.416664L1122.55 609.5833L64.45 609.5833L64.45 88.416664Z" clip-rule="nonzero"/></clipPath><path stroke="#4285f4" stroke-width="2.0" stroke-linecap="butt" clip-path="url(#id_0)" d="M196.7125 560.9411L461.2375 430.64944L725.7625 430.64944L990.2875 166.59166" fill-rule="nonzero"/><path stroke="#34a853" stroke-width="2.0" stroke-linecap="butt" clip-path="url(#id_0)" d="M196.7125 585.2622L461.2375 564.4155L725.7625 586.99945L990.2875 581.7878" fill-rule="nonzero"/><path fill="#4285f4" clip-path="url(#id_0)" d="M200.2125 560.9411C200.2125 562.8741 198.6455 564.4411 196.7125 564.4411C194.77951 564.4411 193.2125 562.8741 193.2125 560.9411C193.2125 559.0081 194.77951 557.4411 196.7125 557.4411C198.6455 557.4411 200.2125 559.0081 200.2125 560.9411Z" fill-rule="nonzero"/><path fill="#4285f4" clip-path="url(#id_0)" d="M464.7375 430.64944C464.7375 432.58243 463.1705 434.14944 461.2375 434.14944C459.3045 434.14944 457.7375 432.58243 457.7375 430.64944C457.7375 428.71646 459.3045 427.14944 461.2375 427.14944C463.1705 427.14944 464.7375 428.71646 464.7375 430.64944Z" fill-rule="nonzero"/><path fill="#4285f4" clip-path="url(#id_0)" d="M729.2625 430.64944C729.2625 432.58243 727.6955 434.14944 725.7625 434.14944C723.8295 434.14944 722.2625 432.58243 722.2625 430.64944C722.2625 428.71646 723.8295 427.14944 725.7625 427.14944C727.6955 427.14944 729.2625 428.71646 729.2625 430.64944Z" fill-rule="nonzero"/><path fill="#4285f4" clip-path="url(#id_0)" d="M993.7875 166.59166C993.7875 168.52466 992.2205 170.09166 990.2875 170.09166C988.3545 170.09166 986.7875 168.52466 986.7875 166.59166C986.7875 164.65868 988.3545 163.09166 990.2875 163.09166C992.2205 163.09166 993.7875 164.65868 993.7875 166.59166Z" fill-rule="nonzero"/><path fill="#34a853" clip-path="url(#id_0)" d="M200.2125 585.2622C200.2125 587.1952 198.6455 588.7622 196.7125 588.7622C194.77951 588.7622 193.2125 587.1952 193.2125 585.2622C193.2125 583.3292 194.77951 581.7622 196.7125 581.7622C198.6455 581.7622 200.2125 583.3292 200.2125 585.2622Z" fill-rule="nonzero"/><path fill="#34a853" clip-path="url(#id_0)" d="M464.7375 564.4155C464.7375 566.3486 463.1705 567.9155 461.2375 567.9155C459.3045 567.9155 457.7375 566.3486 457.7375 564.4155C457.7375 562.48254 459.3045 560.9155 461.2375 560.9155C463.1705 560.9155 464.7375 562.48254 464.7375 564.4155Z" fill-rule="nonzero"/><path fill="#34a853" clip-path="url(#id_0)" d="M729.2625 586.99945C729.2625 588.93243 727.6955 590.49945 725.7625 590.49945C723.8295 590.49945 722.2625 588.93243 722.2625 586.99945C722.2625 585.06647 723.8295 583.49945 725.7625 583.49945C727.6955 583.49945 729.2625 585.06647 729.2625 586.99945Z" fill-rule="nonzero"/><path fill="#34a853" clip-path="url(#id_0)" d="M993.7875 581.7878C993.7875 583.72076 992.2205 585.2878 990.2875 585.2878C988.3545 585.2878 986.7875 583.72076 986.7875 581.7878C986.7875 579.8548 988.3545 578.2878 990.2875 578.2878C992.2205 578.2878 993.7875 579.8548 993.7875 581.7878Z" fill-rule="nonzero"/><path stroke="#f2f2f2" stroke-width="3.0" stroke-linejoin="round" stroke-linecap="round" d="M185.2125 585.7067Q185.2125 584.1755 185.525 583.2536Q185.8375 582.3161 186.44687 581.8161Q187.07187 581.3161 188.00937 581.3161Q188.69687 581.3161 189.2125 581.59735Q189.74374 581.8786 190.0875 582.40985Q190.43124 582.9255 190.61874 583.6755Q190.80624 584.4255 190.80624 585.7067Q190.80624 587.22235 190.49374 588.1442Q190.19687 589.0661 189.57187 589.5817Q188.9625 590.0817 188.00937 590.0817Q186.775 590.0817 186.05624 589.1911Q185.2125 588.1286 185.2125 585.7067ZM186.29062 585.7067Q186.29062 587.8161 186.79062 588.5192Q187.29062 589.22235 188.00937 589.22235Q188.74374 589.22235 189.22812 588.5192Q189.72812 587.8161 189.72812 585.7067Q189.72812 583.5817 189.22812 582.8942Q188.74374 582.1911 187.99374 582.1911Q187.275 582.1911 186.8375 582.8005Q186.29062 583.5817 186.29062 585.7067ZM192.775 589.9411L192.775 588.738L193.97812 588.738L193.97812 589.9411Q193.97812 590.59735 193.74374 591.0036Q193.50937 591.4255 193.00937 591.6442L192.7125 591.1911Q193.04062 591.0505 193.19687 590.7536Q193.35312 590.47235 193.38437 589.9411L192.775 589.9411ZM200.75937 588.9255L200.75937 589.9411L195.07187 589.9411Q195.07187 589.5661 195.19687 589.2067Q195.41562 588.6286 195.88437 588.0661Q196.36874 587.5036 197.275 586.7692Q198.68124 585.613 199.16562 584.9411Q199.66562 584.2692 199.66562 583.6755Q199.66562 583.0505 199.2125 582.6286Q198.75937 582.1911 198.04062 582.1911Q197.275 582.1911 196.82187 582.6442Q196.36874 583.09735 196.35312 583.90985L195.275 583.8005Q195.38437 582.5817 196.10312 581.9567Q196.8375 581.3161 198.07187 581.3161Q199.30624 581.3161 200.025 582.0036Q200.74374 582.6911 200.74374 583.7067Q200.74374 584.22235 200.525 584.72235Q200.32187 585.2067 199.82187 585.7692Q199.3375 586.3161 198.2125 587.2692Q197.25937 588.0661 196.97812 588.363Q196.7125 588.6442 196.54062 588.9255L200.75937 588.9255ZM203.8375 585.28485Q203.18124 585.03485 202.85312 584.59735Q202.54062 584.1442 202.54062 583.53485Q202.54062 582.59735 203.2125 581.9567Q203.9 581.3161 205.00937 581.3161Q206.13437 581.3161 206.82187 581.97235Q207.50937 582.6286 207.50937 583.5661Q207.50937 584.15985 207.19687 584.59735Q206.88437 585.03485 206.24374 585.28485Q207.04062 585.53485 207.44687 586.113Q207.85312 586.6911 207.85312 587.488Q207.85312 588.5817 207.07187 589.3317Q206.30624 590.0817 205.025 590.0817Q203.75937 590.0817 202.97812 589.3317Q202.19687 588.5817 202.19687 587.4567Q202.19687 586.613 202.61874 586.0505Q203.05624 585.488 203.8375 585.28485ZM203.61874 583.488Q203.61874 584.09735 204.00937 584.488Q204.41562 584.8786 205.04062 584.8786Q205.65 584.8786 206.04062 584.5036Q206.43124 584.113 206.43124 583.5505Q206.43124 582.97235 206.025 582.5817Q205.61874 582.1755 205.025 582.1755Q204.41562 582.1755 204.00937 582.5661Q203.61874 582.9567 203.61874 583.488ZM203.29062 587.4567Q203.29062 587.90985 203.49374 588.3317Q203.7125 588.7536 204.13437 588.988Q204.55624 589.22235 205.04062 589.22235Q205.79062 589.22235 206.275 588.738Q206.775 588.2536 206.775 587.5036Q206.775 586.738 206.275 586.238Q205.775 585.738 205.00937 585.738Q204.25937 585.738 203.775 586.238Q203.29062 586.72235 203.29062 587.4567Z" fill-rule="nonzero"/><path fill="#000000" d="M185.2125 585.7067Q185.2125 584.1755 185.525 583.2536Q185.8375 582.3161 186.44687 581.8161Q187.07187 581.3161 188.00937 581.3161Q188.69687 581.3161 189.2125 581.59735Q189.74374 581.8786 190.0875 582.40985Q190.43124 582.9255 190.61874 583.6755Q190.80624 584.4255 190.80624 585.7067Q190.80624 587.22235 190.49374 588.1442Q190.19687 589.0661 189.57187 589.5817Q188.9625 590.0817 188.00937 590.0817Q186.775 590.0817 186.05624 589.1911Q185.2125 588.1286 185.2125 585.7067ZM186.29062 585.7067Q186.29062 587.8161 186.79062 588.5192Q187.29062 589.22235 188.00937 589.22235Q188.74374 589.22235 189.22812 588.5192Q189.72812 587.8161 189.72812 585.7067Q189.72812 583.5817 189.22812 582.8942Q188.74374 582.1911 187.99374 582.1911Q187.275 582.1911 186.8375 582.8005Q186.29062 583.5817 186.29062 585.7067ZM192.775 589.9411L192.775 588.738L193.97812 588.738L193.97812 589.9411Q193.97812 590.59735 193.74374 591.0036Q193.50937 591.4255 193.00937 591.6442L192.7125 591.1911Q193.04062 591.0505 193.19687 590.7536Q193.35312 590.47235 193.38437 589.9411L192.775 589.9411ZM200.75937 588.9255L200.75937 589.9411L195.07187 589.9411Q195.07187 589.5661 195.19687 589.2067Q195.41562 588.6286 195.88437 588.0661Q196.36874 587.5036 197.275 586.7692Q198.68124 585.613 199.16562 584.9411Q199.66562 584.2692 199.66562 583.6755Q199.66562 583.0505 199.2125 582.6286Q198.75937 582.1911 198.04062 582.1911Q197.275 582.1911 196.82187 582.6442Q196.36874 583.09735 196.35312 583.90985L195.275 583.8005Q195.38437 582.5817 196.10312 581.9567Q196.8375 581.3161 198.07187 581.3161Q199.30624 581.3161 200.025 582.0036Q200.74374 582.6911 200.74374 583.7067Q200.74374 584.22235 200.525 584.72235Q200.32187 585.2067 199.82187 585.7692Q199.3375 586.3161 198.2125 587.2692Q197.25937 588.0661 196.97812 588.363Q196.7125 588.6442 196.54062 588.9255L200.75937 588.9255ZM203.8375 585.28485Q203.18124 585.03485 202.85312 584.59735Q202.54062 584.1442 202.54062 583.53485Q202.54062 582.59735 203.2125 581.9567Q203.9 581.3161 205.00937 581.3161Q206.13437 581.3161 206.82187 581.97235Q207.50937 582.6286 207.50937 583.5661Q207.50937 584.15985 207.19687 584.59735Q206.88437 585.03485 206.24374 585.28485Q207.04062 585.53485 207.44687 586.113Q207.85312 586.6911 207.85312 587.488Q207.85312 588.5817 207.07187 589.3317Q206.30624 590.0817 205.025 590.0817Q203.75937 590.0817 202.97812 589.3317Q202.19687 588.5817 202.19687 587.4567Q202.19687 586.613 202.61874 586.0505Q203.05624 585.488 203.8375 585.28485ZM203.61874 583.488Q203.61874 584.09735 204.00937 584.488Q204.41562 584.8786 205.04062 584.8786Q205.65 584.8786 206.04062 584.5036Q206.43124 584.113 206.43124 583.5505Q206.43124 582.97235 206.025 582.5817Q205.61874 582.1755 205.025 582.1755Q204.41562 582.1755 204.00937 582.5661Q203.61874 582.9567 203.61874 583.488ZM203.29062 587.4567Q203.29062 587.90985 203.49374 588.3317Q203.7125 588.7536 204.13437 588.988Q204.55624 589.22235 205.04062 589.22235Q205.79062 589.22235 206.275 588.738Q206.775 588.2536 206.775 587.5036Q206.775 586.738 206.275 586.238Q205.775 585.738 205.00937 585.738Q204.25937 585.738 203.775 586.238Q203.29062 586.72235 203.29062 587.4567Z" fill-rule="nonzero"/><path stroke="#f2f2f2" stroke-width="3.0" stroke-linejoin="round" stroke-linecap="round" d="M453.70624 459.64944L452.65936 459.64944L452.65936 452.9307Q452.26874 453.29007 451.64374 453.66507Q451.03436 454.02444 450.55 454.19632L450.55 453.1807Q451.425 452.75882 452.08124 452.1807Q452.7531 451.58694 453.03436 451.02444L453.70624 451.02444L453.70624 459.64944ZM457.3 459.64944L457.3 458.44632L458.5031 458.44632L458.5031 459.64944Q458.5031 460.3057 458.26874 460.71194Q458.03436 461.13382 457.53436 461.35257L457.2375 460.89944Q457.5656 460.75882 457.72186 460.46194Q457.8781 460.1807 457.90936 459.64944L457.3 459.64944ZM459.7375 455.41507Q459.7375 453.88382 460.05 452.96194Q460.3625 452.02444 460.97186 451.52444Q461.59686 451.02444 462.53436 451.02444Q463.22186 451.02444 463.7375 451.3057Q464.26874 451.58694 464.6125 452.1182Q464.95624 452.63382 465.14374 453.38382Q465.33124 454.13382 465.33124 455.41507Q465.33124 456.9307 465.01874 457.85257Q464.72186 458.77444 464.09686 459.29007Q463.4875 459.79007 462.53436 459.79007Q461.3 459.79007 460.58124 458.89944Q459.7375 457.83694 459.7375 455.41507ZM460.8156 455.41507Q460.8156 457.52444 461.3156 458.22757Q461.8156 458.9307 462.53436 458.9307Q463.26874 458.9307 463.7531 458.22757Q464.2531 457.52444 464.2531 455.41507Q464.2531 453.29007 463.7531 452.60257Q463.26874 451.89944 462.51874 451.89944Q461.8 451.89944 461.3625 452.50882Q460.8156 453.29007 460.8156 455.41507ZM466.7375 457.38382L467.8 457.2432Q467.97186 458.13382 468.40936 458.54007Q468.84686 458.9307 469.47186 458.9307Q470.22186 458.9307 470.7375 458.41507Q471.2531 457.89944 471.2531 457.13382Q471.2531 456.41507 470.76874 455.94632Q470.3 455.46194 469.5656 455.46194Q469.26874 455.46194 468.8156 455.58694L468.9406 454.64944Q469.05 454.66507 469.1125 454.66507Q469.78436 454.66507 470.3156 454.32132Q470.8625 453.96194 470.8625 453.22757Q470.8625 452.64944 470.47186 452.27444Q470.08124 451.88382 469.45624 451.88382Q468.84686 451.88382 468.425 452.27444Q468.01874 452.66507 467.90936 453.4307L466.84686 453.2432Q467.03436 452.19632 467.72186 451.6182Q468.40936 451.02444 469.425 451.02444Q470.1281 451.02444 470.72186 451.33694Q471.3156 451.63382 471.6281 452.14944Q471.9406 452.66507 471.9406 453.25882Q471.9406 453.8057 471.64374 454.27444Q471.34686 454.72757 470.76874 454.9932Q471.51874 455.16507 471.9406 455.72757Q472.3625 456.27444 472.3625 457.1182Q472.3625 458.2432 471.53436 459.02444Q470.72186 459.8057 469.47186 459.8057Q468.34686 459.8057 467.59686 459.13382Q466.84686 458.44632 466.7375 457.38382Z" fill-rule="nonzero"/><path fill="#000000" d="M453.70624 459.64944L452.65936 459.64944L452.65936 452.9307Q452.26874 453.29007 451.64374 453.66507Q451.03436 454.02444 450.55 454.19632L450.55 453.1807Q451.425 452.75882 452.08124 452.1807Q452.7531 451.58694 453.03436 451.02444L453.70624 451.02444L453.70624 459.64944ZM457.3 459.64944L457.3 458.44632L458.5031 458.44632L458.5031 459.64944Q458.5031 460.3057 458.26874 460.71194Q458.03436 461.13382 457.53436 461.35257L457.2375 460.89944Q457.5656 460.75882 457.72186 460.46194Q457.8781 460.1807 457.90936 459.64944L457.3 459.64944ZM459.7375 455.41507Q459.7375 453.88382 460.05 452.96194Q460.3625 452.02444 460.97186 451.52444Q461.59686 451.02444 462.53436 451.02444Q463.22186 451.02444 463.7375 451.3057Q464.26874 451.58694 464.6125 452.1182Q464.95624 452.63382 465.14374 453.38382Q465.33124 454.13382 465.33124 455.41507Q465.33124 456.9307 465.01874 457.85257Q464.72186 458.77444 464.09686 459.29007Q463.4875 459.79007 462.53436 459.79007Q461.3 459.79007 460.58124 458.89944Q459.7375 457.83694 459.7375 455.41507ZM460.8156 455.41507Q460.8156 457.52444 461.3156 458.22757Q461.8156 458.9307 462.53436 458.9307Q463.26874 458.9307 463.7531 458.22757Q464.2531 457.52444 464.2531 455.41507Q464.2531 453.29007 463.7531 452.60257Q463.26874 451.89944 462.51874 451.89944Q461.8 451.89944 461.3625 452.50882Q460.8156 453.29007 460.8156 455.41507ZM466.7375 457.38382L467.8 457.2432Q467.97186 458.13382 468.40936 458.54007Q468.84686 458.9307 469.47186 458.9307Q470.22186 458.9307 470.7375 458.41507Q471.2531 457.89944 471.2531 457.13382Q471.2531 456.41507 470.76874 455.94632Q470.3 455.46194 469.5656 455.46194Q469.26874 455.46194 468.8156 455.58694L468.9406 454.64944Q469.05 454.66507 469.1125 454.66507Q469.78436 454.66507 470.3156 454.32132Q470.8625 453.96194 470.8625 453.22757Q470.8625 452.64944 470.47186 452.27444Q470.08124 451.88382 469.45624 451.88382Q468.84686 451.88382 468.425 452.27444Q468.01874 452.66507 467.90936 453.4307L466.84686 453.2432Q467.03436 452.19632 467.72186 451.6182Q468.40936 451.02444 469.425 451.02444Q470.1281 451.02444 470.72186 451.33694Q471.3156 451.63382 471.6281 452.14944Q471.9406 452.66507 471.9406 453.25882Q471.9406 453.8057 471.64374 454.27444Q471.34686 454.72757 470.76874 454.9932Q471.51874 455.16507 471.9406 455.72757Q472.3625 456.27444 472.3625 457.1182Q472.3625 458.2432 471.53436 459.02444Q470.72186 459.8057 469.47186 459.8057Q468.34686 459.8057 467.59686 459.13382Q466.84686 458.44632 466.7375 457.38382Z" fill-rule="nonzero"/><path stroke="#f2f2f2" stroke-width="3.0" stroke-linejoin="round" stroke-linecap="round" d="M718.23126 459.64944L717.1844 459.64944L717.1844 452.9307Q716.79376 453.29007 716.16876 453.66507Q715.5594 454.02444 715.075 454.19632L715.075 453.1807Q715.95 452.75882 716.60626 452.1807Q717.27814 451.58694 717.5594 451.02444L718.23126 451.02444L718.23126 459.64944ZM721.825 459.64944L721.825 458.44632L723.02814 458.44632L723.02814 459.64944Q723.02814 460.3057 722.79376 460.71194Q722.5594 461.13382 722.0594 461.35257L721.7625 460.89944Q722.09064 460.75882 722.2469 460.46194Q722.40314 460.1807 722.4344 459.64944L721.825 459.64944ZM724.2625 455.41507Q724.2625 453.88382 724.575 452.96194Q724.8875 452.02444 725.4969 451.52444Q726.1219 451.02444 727.0594 451.02444Q727.7469 451.02444 728.2625 451.3057Q728.79376 451.58694 729.1375 452.1182Q729.48126 452.63382 729.66876 453.38382Q729.85626 454.13382 729.85626 455.41507Q729.85626 456.9307 729.54376 457.85257Q729.2469 458.77444 728.6219 459.29007Q728.0125 459.79007 727.0594 459.79007Q725.825 459.79007 725.10626 458.89944Q724.2625 457.83694 724.2625 455.41507ZM725.34064 455.41507Q725.34064 457.52444 725.84064 458.22757Q726.34064 458.9307 727.0594 458.9307Q727.79376 458.9307 728.27814 458.22757Q728.77814 457.52444 728.77814 455.41507Q728.77814 453.29007 728.27814 452.60257Q727.79376 451.89944 727.04376 451.89944Q726.325 451.89944 725.8875 452.50882Q725.34064 453.29007 725.34064 455.41507ZM731.2625 457.38382L732.325 457.2432Q732.4969 458.13382 732.9344 458.54007Q733.3719 458.9307 733.9969 458.9307Q734.7469 458.9307 735.2625 458.41507Q735.77814 457.89944 735.77814 457.13382Q735.77814 456.41507 735.29376 455.94632Q734.825 455.46194 734.09064 455.46194Q733.79376 455.46194 733.34064 455.58694L733.46564 454.64944Q733.575 454.66507 733.6375 454.66507Q734.3094 454.66507 734.84064 454.32132Q735.3875 453.96194 735.3875 453.22757Q735.3875 452.64944 734.9969 452.27444Q734.60626 451.88382 733.98126 451.88382Q733.3719 451.88382 732.95 452.27444Q732.54376 452.66507 732.4344 453.4307L731.3719 453.2432Q731.5594 452.19632 732.2469 451.6182Q732.9344 451.02444 733.95 451.02444Q734.65314 451.02444 735.2469 451.33694Q735.84064 451.63382 736.15314 452.14944Q736.46564 452.66507 736.46564 453.25882Q736.46564 453.8057 736.16876 454.27444Q735.8719 454.72757 735.29376 454.9932Q736.04376 455.16507 736.46564 455.72757Q736.8875 456.27444 736.8875 457.1182Q736.8875 458.2432 736.0594 459.02444Q735.2469 459.8057 733.9969 459.8057Q732.8719 459.8057 732.1219 459.13382Q731.3719 458.44632 731.2625 457.38382Z" fill-rule="nonzero"/><path fill="#000000" d="M718.23126 459.64944L717.1844 459.64944L717.1844 452.9307Q716.79376 453.29007 716.16876 453.66507Q715.5594 454.02444 715.075 454.19632L715.075 453.1807Q715.95 452.75882 716.60626 452.1807Q717.27814 451.58694 717.5594 451.02444L718.23126 451.02444L718.23126 459.64944ZM721.825 459.64944L721.825 458.44632L723.02814 458.44632L723.02814 459.64944Q723.02814 460.3057 722.79376 460.71194Q722.5594 461.13382 722.0594 461.35257L721.7625 460.89944Q722.09064 460.75882 722.2469 460.46194Q722.40314 460.1807 722.4344 459.64944L721.825 459.64944ZM724.2625 455.41507Q724.2625 453.88382 724.575 452.96194Q724.8875 452.02444 725.4969 451.52444Q726.1219 451.02444 727.0594 451.02444Q727.7469 451.02444 728.2625 451.3057Q728.79376 451.58694 729.1375 452.1182Q729.48126 452.63382 729.66876 453.38382Q729.85626 454.13382 729.85626 455.41507Q729.85626 456.9307 729.54376 457.85257Q729.2469 458.77444 728.6219 459.29007Q728.0125 459.79007 727.0594 459.79007Q725.825 459.79007 725.10626 458.89944Q724.2625 457.83694 724.2625 455.41507ZM725.34064 455.41507Q725.34064 457.52444 725.84064 458.22757Q726.34064 458.9307 727.0594 458.9307Q727.79376 458.9307 728.27814 458.22757Q728.77814 457.52444 728.77814 455.41507Q728.77814 453.29007 728.27814 452.60257Q727.79376 451.89944 727.04376 451.89944Q726.325 451.89944 725.8875 452.50882Q725.34064 453.29007 725.34064 455.41507ZM731.2625 457.38382L732.325 457.2432Q732.4969 458.13382 732.9344 458.54007Q733.3719 458.9307 733.9969 458.9307Q734.7469 458.9307 735.2625 458.41507Q735.77814 457.89944 735.77814 457.13382Q735.77814 456.41507 735.29376 455.94632Q734.825 455.46194 734.09064 455.46194Q733.79376 455.46194 733.34064 455.58694L733.46564 454.64944Q733.575 454.66507 733.6375 454.66507Q734.3094 454.66507 734.84064 454.32132Q735.3875 453.96194 735.3875 453.22757Q735.3875 452.64944 734.9969 452.27444Q734.60626 451.88382 733.98126 451.88382Q733.3719 451.88382 732.95 452.27444Q732.54376 452.66507 732.4344 453.4307L731.3719 453.2432Q731.5594 452.19632 732.2469 451.6182Q732.9344 451.02444 733.95 451.02444Q734.65314 451.02444 735.2469 451.33694Q735.84064 451.63382 736.15314 452.14944Q736.46564 452.66507 736.46564 453.25882Q736.46564 453.8057 736.16876 454.27444Q735.8719 454.72757 735.29376 454.9932Q736.04376 455.16507 736.46564 455.72757Q736.8875 456.27444 736.8875 457.1182Q736.8875 458.2432 736.0594 459.02444Q735.2469 459.8057 733.9969 459.8057Q732.8719 459.8057 732.1219 459.13382Q731.3719 458.44632 731.2625 457.38382Z" fill-rule="nonzero"/><path stroke="#f2f2f2" stroke-width="3.0" stroke-linejoin="round" stroke-linecap="round" d="M984.33435 194.57603L984.33435 195.59166L978.64685 195.59166Q978.64685 195.21666 978.77185 194.85728Q978.9906 194.27916 979.45935 193.71666Q979.9437 193.15416 980.85 192.41978Q982.2562 191.26353 982.7406 190.59166Q983.2406 189.91978 983.2406 189.32603Q983.2406 188.70103 982.7875 188.27916Q982.33435 187.84166 981.6156 187.84166Q980.85 187.84166 980.39685 188.29478Q979.9437 188.74791 979.9281 189.56041L978.85 189.45103Q978.95935 188.23228 979.6781 187.60728Q980.4125 186.96666 981.64685 186.96666Q982.8812 186.96666 983.6 187.65416Q984.3187 188.34166 984.3187 189.35728Q984.3187 189.87291 984.1 190.37291Q983.89685 190.85728 983.39685 191.41978Q982.9125 191.96666 981.7875 192.91978Q980.83435 193.71666 980.5531 194.01353Q980.2875 194.29478 980.1156 194.57603L984.33435 194.57603ZM986.35 195.59166L986.35 194.38853L987.5531 194.38853L987.5531 195.59166Q987.5531 196.24791 987.3187 196.65416Q987.08435 197.07603 986.58435 197.29478L986.2875 196.84166Q986.6156 196.70103 986.77185 196.40416Q986.9281 196.12291 986.95935 195.59166L986.35 195.59166ZM988.7875 193.34166L989.89685 193.24791Q990.02185 194.06041 990.45935 194.46666Q990.9125 194.87291 991.5531 194.87291Q992.3031 194.87291 992.83435 194.29478Q993.3656 193.71666 993.3656 192.77916Q993.3656 191.87291 992.85 191.35728Q992.35 190.82603 991.52185 190.82603Q991.02185 190.82603 990.6 191.06041Q990.1937 191.29478 989.95935 191.65416L988.975 191.52916L989.8031 187.12291L994.08435 187.12291L994.08435 188.12291L990.64685 188.12291L990.1937 190.43541Q990.95935 189.88853 991.8031 189.88853Q992.9281 189.88853 993.6937 190.66978Q994.475 191.45103 994.475 192.68541Q994.475 193.84166 993.8031 194.70103Q992.975 195.73228 991.5531 195.73228Q990.3812 195.73228 989.6312 195.07603Q988.89685 194.41978 988.7875 193.34166ZM995.7875 193.34166L996.89685 193.24791Q997.02185 194.06041 997.45935 194.46666Q997.9125 194.87291 998.5531 194.87291Q999.3031 194.87291 999.83435 194.29478Q1000.3656 193.71666 1000.3656 192.77916Q1000.3656 191.87291 999.85 191.35728Q999.35 190.82603 998.52185 190.82603Q998.02185 190.82603 997.6 191.06041Q997.1937 191.29478 996.95935 191.65416L995.975 191.52916L996.8031 187.12291L1001.08435 187.12291L1001.08435 188.12291L997.64685 188.12291L997.1937 190.43541Q997.95935 189.88853 998.8031 189.88853Q999.9281 189.88853 1000.6937 190.66978Q1001.475 191.45103 1001.475 192.68541Q1001.475 193.84166 1000.8031 194.70103Q999.975 195.73228 998.5531 195.73228Q997.3812 195.73228 996.6312 195.07603Q995.89685 194.41978 995.7875 193.34166Z" fill-rule="nonzero"/><path fill="#000000" d="M984.33435 194.57603L984.33435 195.59166L978.64685 195.59166Q978.64685 195.21666 978.77185 194.85728Q978.9906 194.27916 979.45935 193.71666Q979.9437 193.15416 980.85 192.41978Q982.2562 191.26353 982.7406 190.59166Q983.2406 189.91978 983.2406 189.32603Q983.2406 188.70103 982.7875 188.27916Q982.33435 187.84166 981.6156 187.84166Q980.85 187.84166 980.39685 188.29478Q979.9437 188.74791 979.9281 189.56041L978.85 189.45103Q978.95935 188.23228 979.6781 187.60728Q980.4125 186.96666 981.64685 186.96666Q982.8812 186.96666 983.6 187.65416Q984.3187 188.34166 984.3187 189.35728Q984.3187 189.87291 984.1 190.37291Q983.89685 190.85728 983.39685 191.41978Q982.9125 191.96666 981.7875 192.91978Q980.83435 193.71666 980.5531 194.01353Q980.2875 194.29478 980.1156 194.57603L984.33435 194.57603ZM986.35 195.59166L986.35 194.38853L987.5531 194.38853L987.5531 195.59166Q987.5531 196.24791 987.3187 196.65416Q987.08435 197.07603 986.58435 197.29478L986.2875 196.84166Q986.6156 196.70103 986.77185 196.40416Q986.9281 196.12291 986.95935 195.59166L986.35 195.59166ZM988.7875 193.34166L989.89685 193.24791Q990.02185 194.06041 990.45935 194.46666Q990.9125 194.87291 991.5531 194.87291Q992.3031 194.87291 992.83435 194.29478Q993.3656 193.71666 993.3656 192.77916Q993.3656 191.87291 992.85 191.35728Q992.35 190.82603 991.52185 190.82603Q991.02185 190.82603 990.6 191.06041Q990.1937 191.29478 989.95935 191.65416L988.975 191.52916L989.8031 187.12291L994.08435 187.12291L994.08435 188.12291L990.64685 188.12291L990.1937 190.43541Q990.95935 189.88853 991.8031 189.88853Q992.9281 189.88853 993.6937 190.66978Q994.475 191.45103 994.475 192.68541Q994.475 193.84166 993.8031 194.70103Q992.975 195.73228 991.5531 195.73228Q990.3812 195.73228 989.6312 195.07603Q988.89685 194.41978 988.7875 193.34166ZM995.7875 193.34166L996.89685 193.24791Q997.02185 194.06041 997.45935 194.46666Q997.9125 194.87291 998.5531 194.87291Q999.3031 194.87291 999.83435 194.29478Q1000.3656 193.71666 1000.3656 192.77916Q1000.3656 191.87291 999.85 191.35728Q999.35 190.82603 998.52185 190.82603Q998.02185 190.82603 997.6 191.06041Q997.1937 191.29478 996.95935 191.65416L995.975 191.52916L996.8031 187.12291L1001.08435 187.12291L1001.08435 188.12291L997.64685 188.12291L997.1937 190.43541Q997.95935 189.88853 998.8031 189.88853Q999.9281 189.88853 1000.6937 190.66978Q1001.475 191.45103 1001.475 192.68541Q1001.475 193.84166 1000.8031 194.70103Q999.975 195.73228 998.5531 195.73228Q997.3812 195.73228 996.6312 195.07603Q995.89685 194.41978 995.7875 193.34166Z" fill-rule="nonzero"/><path stroke="#f2f2f2" stroke-width="3.0" stroke-linejoin="round" stroke-linecap="round" d="M449.7375 589.18115Q449.7375 587.6499 450.05 586.728Q450.3625 585.7905 450.97186 585.2905Q451.59686 584.7905 452.53436 584.7905Q453.22186 584.7905 453.7375 585.0718Q454.26874 585.353 454.6125 585.8843Q454.95624 586.3999 455.14374 587.1499Q455.33124 587.8999 455.33124 589.18115Q455.33124 590.6968 455.01874 591.61865Q454.72186 592.5405 454.09686 593.05615Q453.4875 593.55615 452.53436 593.55615Q451.3 593.55615 450.58124 592.6655Q449.7375 591.603 449.7375 589.18115ZM450.8156 589.18115Q450.8156 591.2905 451.3156 591.99365Q451.8156 592.6968 452.53436 592.6968Q453.26874 592.6968 453.7531 591.99365Q454.2531 591.2905 454.2531 589.18115Q454.2531 587.05615 453.7531 586.36865Q453.26874 585.6655 452.51874 585.6655Q451.8 585.6655 451.3625 586.2749Q450.8156 587.05615 450.8156 589.18115ZM457.3 593.4155L457.3 592.2124L458.5031 592.2124L458.5031 593.4155Q458.5031 594.0718 458.26874 594.478Q458.03436 594.8999 457.53436 595.11865L457.2375 594.6655Q457.5656 594.5249 457.72186 594.228Q457.8781 593.9468 457.90936 593.4155L457.3 593.4155ZM465.28436 592.3999L465.28436 593.4155L459.59686 593.4155Q459.59686 593.0405 459.72186 592.68115Q459.9406 592.103 460.40936 591.5405Q460.89374 590.978 461.8 590.24365Q463.20624 589.0874 463.6906 588.4155Q464.1906 587.74365 464.1906 587.1499Q464.1906 586.5249 463.7375 586.103Q463.28436 585.6655 462.5656 585.6655Q461.8 585.6655 461.34686 586.11865Q460.89374 586.5718 460.8781 587.3843L459.8 587.2749Q459.90936 586.05615 460.6281 585.43115Q461.3625 584.7905 462.59686 584.7905Q463.83124 584.7905 464.55 585.478Q465.26874 586.1655 465.26874 587.18115Q465.26874 587.6968 465.05 588.1968Q464.84686 588.68115 464.34686 589.24365Q463.8625 589.7905 462.7375 590.74365Q461.78436 591.5405 461.5031 591.8374Q461.2375 592.11865 461.0656 592.3999L465.28436 592.3999ZM472.20624 586.93115L471.15936 587.0093Q471.01874 586.3843 470.76874 586.103Q470.33124 585.6499 469.70624 585.6499Q469.20624 585.6499 468.8156 585.93115Q468.33124 586.30615 468.03436 587.0093Q467.7531 587.6968 467.7375 588.978Q468.1125 588.3999 468.65936 588.11865Q469.22186 587.8374 469.83124 587.8374Q470.8781 587.8374 471.6125 588.61865Q472.3625 589.3999 472.3625 590.61865Q472.3625 591.43115 472.0031 592.1343Q471.65936 592.8218 471.05 593.1968Q470.4406 593.55615 469.675 593.55615Q468.34686 593.55615 467.51874 592.5874Q466.6906 591.61865 466.6906 589.3999Q466.6906 586.8999 467.6125 585.7749Q468.40936 584.7905 469.76874 584.7905Q470.78436 584.7905 471.425 585.36865Q472.08124 585.93115 472.20624 586.93115ZM467.90936 590.6343Q467.90936 591.18115 468.1281 591.68115Q468.3625 592.1655 468.76874 592.43115Q469.1906 592.6968 469.65936 592.6968Q470.3156 592.6968 470.8 592.1655Q471.28436 591.61865 471.28436 590.6968Q471.28436 589.80615 470.8 589.2905Q470.33124 588.7749 469.6125 588.7749Q468.89374 588.7749 468.39374 589.2905Q467.90936 589.80615 467.90936 590.6343Z" fill-rule="nonzero"/><path fill="#000000" d="M449.7375 589.18115Q449.7375 587.6499 450.05 586.728Q450.3625 585.7905 450.97186 585.2905Q451.59686 584.7905 452.53436 584.7905Q453.22186 584.7905 453.7375 585.0718Q454.26874 585.353 454.6125 585.8843Q454.95624 586.3999 455.14374 587.1499Q455.33124 587.8999 455.33124 589.18115Q455.33124 590.6968 455.01874 591.61865Q454.72186 592.5405 454.09686 593.05615Q453.4875 593.55615 452.53436 593.55615Q451.3 593.55615 450.58124 592.6655Q449.7375 591.603 449.7375 589.18115ZM450.8156 589.18115Q450.8156 591.2905 451.3156 591.99365Q451.8156 592.6968 452.53436 592.6968Q453.26874 592.6968 453.7531 591.99365Q454.2531 591.2905 454.2531 589.18115Q454.2531 587.05615 453.7531 586.36865Q453.26874 585.6655 452.51874 585.6655Q451.8 585.6655 451.3625 586.2749Q450.8156 587.05615 450.8156 589.18115ZM457.3 593.4155L457.3 592.2124L458.5031 592.2124L458.5031 593.4155Q458.5031 594.0718 458.26874 594.478Q458.03436 594.8999 457.53436 595.11865L457.2375 594.6655Q457.5656 594.5249 457.72186 594.228Q457.8781 593.9468 457.90936 593.4155L457.3 593.4155ZM465.28436 592.3999L465.28436 593.4155L459.59686 593.4155Q459.59686 593.0405 459.72186 592.68115Q459.9406 592.103 460.40936 591.5405Q460.89374 590.978 461.8 590.24365Q463.20624 589.0874 463.6906 588.4155Q464.1906 587.74365 464.1906 587.1499Q464.1906 586.5249 463.7375 586.103Q463.28436 585.6655 462.5656 585.6655Q461.8 585.6655 461.34686 586.11865Q460.89374 586.5718 460.8781 587.3843L459.8 587.2749Q459.90936 586.05615 460.6281 585.43115Q461.3625 584.7905 462.59686 584.7905Q463.83124 584.7905 464.55 585.478Q465.26874 586.1655 465.26874 587.18115Q465.26874 587.6968 465.05 588.1968Q464.84686 588.68115 464.34686 589.24365Q463.8625 589.7905 462.7375 590.74365Q461.78436 591.5405 461.5031 591.8374Q461.2375 592.11865 461.0656 592.3999L465.28436 592.3999ZM472.20624 586.93115L471.15936 587.0093Q471.01874 586.3843 470.76874 586.103Q470.33124 585.6499 469.70624 585.6499Q469.20624 585.6499 468.8156 585.93115Q468.33124 586.30615 468.03436 587.0093Q467.7531 587.6968 467.7375 588.978Q468.1125 588.3999 468.65936 588.11865Q469.22186 587.8374 469.83124 587.8374Q470.8781 587.8374 471.6125 588.61865Q472.3625 589.3999 472.3625 590.61865Q472.3625 591.43115 472.0031 592.1343Q471.65936 592.8218 471.05 593.1968Q470.4406 593.55615 469.675 593.55615Q468.34686 593.55615 467.51874 592.5874Q466.6906 591.61865 466.6906 589.3999Q466.6906 586.8999 467.6125 585.7749Q468.40936 584.7905 469.76874 584.7905Q470.78436 584.7905 471.425 585.36865Q472.08124 585.93115 472.20624 586.93115ZM467.90936 590.6343Q467.90936 591.18115 468.1281 591.68115Q468.3625 592.1655 468.76874 592.43115Q469.1906 592.6968 469.65936 592.6968Q470.3156 592.6968 470.8 592.1655Q471.28436 591.61865 471.28436 590.6968Q471.28436 589.80615 470.8 589.2905Q470.33124 588.7749 469.6125 588.7749Q468.89374 588.7749 468.39374 589.2905Q467.90936 589.80615 467.90936 590.6343Z" fill-rule="nonzero"/><path fill="#000000" d="M576.21875 664.8958L577.65625 664.7708Q577.75 665.6302 578.125 666.1927Q578.5 666.73956 579.28125 667.0833Q580.0625 667.41144 581.03125 667.41144Q581.90625 667.41144 582.5625 667.16144Q583.2344 666.8958 583.5469 666.4583Q583.875 666.0052 583.875 665.47394Q583.875 664.92706 583.5625 664.53644Q583.25 664.1302 582.53125 663.84894Q582.0781 663.67706 580.5 663.30206Q578.9219 662.91144 578.28125 662.5833Q577.46875 662.1458 577.0625 661.5208Q576.65625 660.8802 576.65625 660.0833Q576.65625 659.22394 577.1406 658.47394Q577.6406 657.7083 578.5781 657.3177Q579.53125 656.92706 580.6875 656.92706Q581.96875 656.92706 582.9375 657.34894Q583.90625 657.7552 584.4219 658.55206Q584.9531 659.34894 585.0 660.34894L583.5469 660.4583Q583.4219 659.3802 582.75 658.8333Q582.0781 658.2708 580.75 658.2708Q579.375 658.2708 578.75 658.7708Q578.125 659.2708 578.125 659.98956Q578.125 660.59894 578.5625 661.0052Q579.0 661.3958 580.84375 661.8177Q582.7031 662.23956 583.3906 662.55206Q584.3906 663.0052 584.8594 663.72394Q585.34375 664.42706 585.34375 665.34894Q585.34375 666.2552 584.8125 667.0677Q584.2969 667.8802 583.3125 668.3333Q582.3281 668.78644 581.1094 668.78644Q579.5469 668.78644 578.5 668.3333Q577.4531 667.86456 576.84375 666.9583Q576.25 666.05206 576.21875 664.8958ZM587.53125 668.5833L587.53125 657.1302L588.9375 657.1302L588.9375 668.5833L587.53125 668.5833ZM591.03125 664.42706Q591.03125 662.1302 592.3125 661.0208Q593.3906 660.09894 594.9219 660.09894Q596.6406 660.09894 597.71875 661.22394Q598.8125 662.3333 598.8125 664.3177Q598.8125 665.91144 598.3281 666.8333Q597.84375 667.7552 596.9219 668.2708Q596.0156 668.7708 594.9219 668.7708Q593.1875 668.7708 592.1094 667.66144Q591.03125 666.53644 591.03125 664.42706ZM592.4844 664.42706Q592.4844 666.0208 593.1719 666.8177Q593.875 667.61456 594.9219 667.61456Q595.96875 667.61456 596.65625 666.8177Q597.3594 666.0208 597.3594 664.3802Q597.3594 662.84894 596.65625 662.05206Q595.96875 661.2552 594.9219 661.2552Q593.875 661.2552 593.1719 662.05206Q592.4844 662.8333 592.4844 664.42706ZM603.625 667.3177L603.8281 668.5677Q603.2344 668.6927 602.7656 668.6927Q602.0 668.6927 601.5781 668.4583Q601.15625 668.2083 600.9844 667.8177Q600.8125 667.41144 600.8125 666.1458L600.8125 661.3802L599.78125 661.3802L599.78125 660.28644L600.8125 660.28644L600.8125 658.22394L602.21875 657.3802L602.21875 660.28644L603.625 660.28644L603.625 661.3802L602.21875 661.3802L602.21875 666.22394Q602.21875 666.8333 602.28125 667.0052Q602.3594 667.17706 602.53125 667.28644Q602.7031 667.3802 603.0156 667.3802Q603.25 667.3802 603.625 667.3177ZM604.0 666.09894L605.3906 665.8802Q605.5 666.72394 606.03125 667.17706Q606.5781 667.61456 607.53125 667.61456Q608.5 667.61456 608.96875 667.22394Q609.4375 666.8177 609.4375 666.28644Q609.4375 665.8177 609.03125 665.53644Q608.7344 665.34894 607.59375 665.0677Q606.0469 664.67706 605.4375 664.3958Q604.84375 664.09894 604.53125 663.59894Q604.2344 663.09894 604.2344 662.48956Q604.2344 661.92706 604.4844 661.4583Q604.7344 660.98956 605.1719 660.67706Q605.5 660.42706 606.0625 660.2708Q606.6406 660.09894 607.28125 660.09894Q608.2656 660.09894 609.0 660.3802Q609.7344 660.66144 610.0781 661.1458Q610.4375 661.61456 610.5781 662.42706L609.2031 662.61456Q609.1094 661.97394 608.65625 661.61456Q608.2031 661.2552 607.3906 661.2552Q606.4219 661.2552 606.0 661.5833Q605.59375 661.8958 605.59375 662.3177Q605.59375 662.59894 605.7656 662.8177Q605.9375 663.03644 606.2969 663.1927Q606.5156 663.2708 607.5469 663.55206Q609.03125 663.9427 609.625 664.2083Q610.21875 664.4583 610.5469 664.9427Q610.8906 665.42706 610.8906 666.1458Q610.8906 666.84894 610.46875 667.47394Q610.0625 668.0833 609.28125 668.42706Q608.5156 668.7708 607.5469 668.7708Q605.9219 668.7708 605.0781 668.09894Q604.2344 667.42706 604.0 666.09894Z" fill-rule="nonzero"/><path fill="#595959" d="M51.95 609.34894Q51.95 607.8177 52.2625 606.8958Q52.575 605.9583 53.184376 605.4583Q53.809376 604.9583 54.746876 604.9583Q55.434376 604.9583 55.95 605.23956Q56.48125 605.5208 56.825 606.05206Q57.16875 606.5677 57.35625 607.3177Q57.54375 608.0677 57.54375 609.34894Q57.54375 610.86456 57.23125 611.78644Q56.934376 612.7083 56.309376 613.22394Q55.7 613.72394 54.746876 613.72394Q53.5125 613.72394 52.79375 612.8333Q51.95 611.7708 51.95 609.34894ZM53.028126 609.34894Q53.028126 611.4583 53.528126 612.16144Q54.028126 612.86456 54.746876 612.86456Q55.48125 612.86456 55.965626 612.16144Q56.465626 611.4583 56.465626 609.34894Q56.465626 607.22394 55.965626 606.53644Q55.48125 605.8333 54.73125 605.8333Q54.0125 605.8333 53.575 606.4427Q53.028126 607.22394 53.028126 609.34894Z" fill-rule="nonzero"/><path fill="#595959" d="M55.91875 439.8611L54.871876 439.8611L54.871876 433.14236Q54.48125 433.50174 53.85625 433.87674Q53.246876 434.2361 52.7625 434.408L52.7625 433.39236Q53.6375 432.9705 54.29375 432.39236Q54.965626 431.7986 55.246876 431.2361L55.91875 431.2361L55.91875 439.8611Z" fill-rule="nonzero"/><path fill="#595959" d="M57.496876 265.12326L57.496876 266.1389L51.809376 266.1389Q51.809376 265.7639 51.934376 265.4045Q52.153126 264.8264 52.621876 264.2639Q53.10625 263.7014 54.0125 262.967Q55.41875 261.81076 55.903126 261.1389Q56.403126 260.467 56.403126 259.87326Q56.403126 259.24826 55.95 258.8264Q55.496876 258.3889 54.778126 258.3889Q54.0125 258.3889 53.559376 258.842Q53.10625 259.29514 53.090626 260.10764L52.0125 259.99826Q52.121876 258.7795 52.840626 258.1545Q53.575 257.5139 54.809376 257.5139Q56.04375 257.5139 56.7625 258.2014Q57.48125 258.8889 57.48125 259.9045Q57.48125 260.42014 57.2625 260.92014Q57.059376 261.4045 56.559376 261.967Q56.075 262.5139 54.95 263.467Q53.996876 264.2639 53.715626 264.56076Q53.45 264.842 53.278126 265.12326L57.496876 265.12326Z" fill-rule="nonzero"/><path fill="#595959" d="M51.95 90.15104L53.0125 90.010414Q53.184376 90.90104 53.621876 91.30729Q54.059376 91.697914 54.684376 91.697914Q55.434376 91.697914 55.95 91.18229Q56.465626 90.666664 56.465626 89.90104Q56.465626 89.18229 55.98125 88.71354Q55.5125 88.229164 54.778126 88.229164Q54.48125 88.229164 54.028126 88.354164L54.153126 87.416664Q54.2625 87.43229 54.325 87.43229Q54.996876 87.43229 55.528126 87.08854Q56.075 86.729164 56.075 85.99479Q56.075 85.416664 55.684376 85.041664Q55.29375 84.65104 54.66875 84.65104Q54.059376 84.65104 53.6375 85.041664Q53.23125 85.43229 53.121876 86.197914L52.059376 86.010414Q52.246876 84.96354 52.934376 84.385414Q53.621876 83.791664 54.6375 83.791664Q55.340626 83.791664 55.934376 84.104164Q56.528126 84.40104 56.840626 84.916664Q57.153126 85.43229 57.153126 86.02604Q57.153126 86.572914 56.85625 87.041664Q56.559376 87.49479 55.98125 87.760414Q56.73125 87.93229 57.153126 88.49479Q57.575 89.041664 57.575 89.885414Q57.575 91.010414 56.746876 91.791664Q55.934376 92.572914 54.684376 92.572914Q53.559376 92.572914 52.809376 91.90104Q52.059376 91.21354 51.95 90.15104Z" fill-rule="nonzero"/><path fill="#595959" d="M199.25937 625.5677L199.25937 626.5833L193.57187 626.5833Q193.57187 626.2083 193.69687 625.84894Q193.91562 625.2708 194.38437 624.7083Q194.86874 624.1458 195.775 623.41144Q197.18124 622.2552 197.66562 621.5833Q198.16562 620.91144 198.16562 620.3177Q198.16562 619.6927 197.7125 619.2708Q197.25937 618.8333 196.54062 618.8333Q195.775 618.8333 195.32187 619.28644Q194.86874 619.73956 194.85312 620.55206L193.775 620.4427Q193.88437 619.22394 194.60312 618.59894Q195.3375 617.9583 196.57187 617.9583Q197.80624 617.9583 198.525 618.6458Q199.24374 619.3333 199.24374 620.34894Q199.24374 620.86456 199.025 621.36456Q198.82187 621.84894 198.32187 622.41144Q197.8375 622.9583 196.7125 623.91144Q195.75937 624.7083 195.47812 625.0052Q195.2125 625.28644 195.04062 625.5677L199.25937 625.5677Z" fill-rule="nonzero"/><path fill="#595959" d="M461.6125 626.5833L461.6125 624.5208L457.89374 624.5208L457.89374 623.55206L461.8156 617.98956L462.675 617.98956L462.675 623.55206L463.83124 623.55206L463.83124 624.5208L462.675 624.5208L462.675 626.5833L461.6125 626.5833ZM461.6125 623.55206L461.6125 619.6927L458.925 623.55206L461.6125 623.55206Z" fill-rule="nonzero"/><path fill="#595959" d="M724.3875 621.92706Q723.73126 621.67706 723.40314 621.23956Q723.09064 620.78644 723.09064 620.17706Q723.09064 619.23956 723.7625 618.59894Q724.45 617.9583 725.5594 617.9583Q726.6844 617.9583 727.3719 618.61456Q728.0594 619.2708 728.0594 620.2083Q728.0594 620.80206 727.7469 621.23956Q727.4344 621.67706 726.79376 621.92706Q727.59064 622.17706 727.9969 622.7552Q728.40314 623.3333 728.40314 624.1302Q728.40314 625.22394 727.6219 625.97394Q726.85626 626.72394 725.575 626.72394Q724.3094 626.72394 723.52814 625.97394Q722.7469 625.22394 722.7469 624.09894Q722.7469 623.2552 723.16876 622.6927Q723.60626 622.1302 724.3875 621.92706ZM724.16876 620.1302Q724.16876 620.73956 724.5594 621.1302Q724.96564 621.5208 725.59064 621.5208Q726.2 621.5208 726.59064 621.1458Q726.98126 620.7552 726.98126 620.1927Q726.98126 619.61456 726.575 619.22394Q726.16876 618.8177 725.575 618.8177Q724.96564 618.8177 724.5594 619.2083Q724.16876 619.59894 724.16876 620.1302ZM723.84064 624.09894Q723.84064 624.55206 724.04376 624.97394Q724.2625 625.3958 724.6844 625.6302Q725.10626 625.86456 725.59064 625.86456Q726.34064 625.86456 726.825 625.3802Q727.325 624.8958 727.325 624.1458Q727.325 623.3802 726.825 622.8802Q726.325 622.3802 725.5594 622.3802Q724.8094 622.3802 724.325 622.8802Q723.84064 623.36456 723.84064 624.09894Z" fill-rule="nonzero"/><path fill="#595959" d="M987.7562 626.5833L986.70935 626.5833L986.70935 619.86456Q986.3187 620.22394 985.6937 620.59894Q985.08435 620.9583 984.6 621.1302L984.6 620.11456Q985.475 619.6927 986.1312 619.11456Q986.8031 618.5208 987.08435 617.9583L987.7562 617.9583L987.7562 626.5833ZM996.2562 620.09894L995.20935 620.17706Q995.0687 619.55206 994.8187 619.2708Q994.3812 618.8177 993.7562 618.8177Q993.2562 618.8177 992.8656 619.09894Q992.3812 619.47394 992.08435 620.17706Q991.8031 620.86456 991.7875 622.1458Q992.1625 621.5677 992.70935 621.28644Q993.27185 621.0052 993.8812 621.0052Q994.9281 621.0052 995.6625 621.78644Q996.4125 622.5677 996.4125 623.78644Q996.4125 624.59894 996.0531 625.30206Q995.70935 625.98956 995.1 626.36456Q994.4906 626.72394 993.725 626.72394Q992.39685 626.72394 991.5687 625.7552Q990.7406 624.78644 990.7406 622.5677Q990.7406 620.0677 991.6625 618.9427Q992.45935 617.9583 993.8187 617.9583Q994.83435 617.9583 995.475 618.53644Q996.1312 619.09894 996.2562 620.09894ZM991.95935 623.80206Q991.95935 624.34894 992.1781 624.84894Q992.4125 625.3333 992.8187 625.59894Q993.2406 625.86456 993.70935 625.86456Q994.3656 625.86456 994.85 625.3333Q995.33435 624.78644 995.33435 623.86456Q995.33435 622.97394 994.85 622.4583Q994.3812 621.9427 993.6625 621.9427Q992.9437 621.9427 992.4437 622.4583Q991.95935 622.97394 991.95935 623.80206Z" fill-rule="nonzero"/><path fill="#4285f4" d="M514.5 704.55C514.5 707.8637 511.81372 710.55 508.5 710.55C505.18628 710.55 502.5 707.8637 502.5 704.55C502.5 701.23627 505.18628 698.55 508.5 698.55C511.81372 698.55 514.5 701.23627 514.5 704.55Z" fill-rule="nonzero"/><path fill="#595959" d="M522.875 706.6906L523.90625 706.53436Q524.0 707.15936 524.3906 707.4875Q524.7969 707.8156 525.53125 707.8156Q526.25 707.8156 526.59375 707.53436Q526.9531 707.2375 526.9531 706.83124Q526.9531 706.47186 526.6406 706.26874Q526.4219 706.1281 525.5625 705.90936Q524.40625 705.6125 523.9531 705.40936Q523.5156 705.1906 523.28125 704.8156Q523.0469 704.4406 523.0469 703.97186Q523.0469 703.5656 523.2344 703.20624Q523.4219 702.84686 523.75 702.6125Q524.0 702.4406 524.4219 702.3156Q524.84375 702.1906 525.34375 702.1906Q526.0625 702.1906 526.6094 702.40936Q527.1719 702.6125 527.4375 702.97186Q527.7031 703.33124 527.7969 703.925L526.7656 704.0656Q526.7031 703.59686 526.3594 703.33124Q526.03125 703.05 525.40625 703.05Q524.6875 703.05 524.375 703.3Q524.0625 703.53436 524.0625 703.8625Q524.0625 704.0656 524.1875 704.22186Q524.3281 704.39374 524.59375 704.5031Q524.75 704.5656 525.53125 704.76874Q526.65625 705.08124 527.09375 705.26874Q527.53125 705.45624 527.78125 705.8156Q528.03125 706.175 528.03125 706.72186Q528.03125 707.2531 527.71875 707.72186Q527.4219 708.175 526.84375 708.4406Q526.2656 708.6906 525.53125 708.6906Q524.3125 708.6906 523.6719 708.1906Q523.0469 707.675 522.875 706.6906ZM529.2969 710.9406L529.2969 702.33124L530.25 702.33124L530.25 703.1281Q530.59375 702.65936 531.0156 702.425Q531.4531 702.1906 532.0625 702.1906Q532.8594 702.1906 533.46875 702.59686Q534.0781 703.0031 534.375 703.7531Q534.6875 704.5031 534.6875 705.39374Q534.6875 706.34686 534.34375 707.1125Q534.0156 707.8781 533.3594 708.28436Q532.7031 708.6906 531.9844 708.6906Q531.4531 708.6906 531.03125 708.47186Q530.6094 708.2375 530.34375 707.90936L530.34375 710.9406L529.2969 710.9406ZM530.25 705.47186Q530.25 706.675 530.7344 707.2531Q531.21875 707.8156 531.90625 707.8156Q532.6094 707.8156 533.1094 707.22186Q533.6094 706.6281 533.6094 705.3781Q533.6094 704.1906 533.125 703.6125Q532.6406 703.01874 531.9531 703.01874Q531.28125 703.01874 530.7656 703.64374Q530.25 704.26874 530.25 705.47186ZM540.5469 706.55L541.6406 706.675Q541.3906 707.6281 540.6875 708.15936Q539.9844 708.6906 538.90625 708.6906Q537.5469 708.6906 536.7344 707.84686Q535.9375 707.0031 535.9375 705.4875Q535.9375 703.925 536.75 703.0656Q537.5625 702.1906 538.84375 702.1906Q540.09375 702.1906 540.875 703.03436Q541.6719 703.8781 541.6719 705.425Q541.6719 705.51874 541.6719 705.70624L537.03125 705.70624Q537.09375 706.7375 537.6094 707.28436Q538.125 707.8156 538.90625 707.8156Q539.4844 707.8156 539.8906 707.51874Q540.3125 707.20624 540.5469 706.55ZM537.09375 704.84686L540.5625 704.84686Q540.5 704.05 540.1719 703.65936Q539.65625 703.05 538.8594 703.05Q538.125 703.05 537.625 703.53436Q537.1406 704.01874 537.09375 704.84686ZM547.5469 706.55L548.6406 706.675Q548.3906 707.6281 547.6875 708.15936Q546.9844 708.6906 545.90625 708.6906Q544.5469 708.6906 543.7344 707.84686Q542.9375 707.0031 542.9375 705.4875Q542.9375 703.925 543.75 703.0656Q544.5625 702.1906 545.84375 702.1906Q547.09375 702.1906 547.875 703.03436Q548.6719 703.8781 548.6719 705.425Q548.6719 705.51874 548.6719 705.70624L544.03125 705.70624Q544.09375 706.7375 544.6094 707.28436Q545.125 707.8156 545.90625 707.8156Q546.4844 707.8156 546.8906 707.51874Q547.3125 707.20624 547.5469 706.55ZM544.09375 704.84686L547.5625 704.84686Q547.5 704.05 547.1719 703.65936Q546.65625 703.05 545.8594 703.05Q545.125 703.05 544.625 703.53436Q544.1406 704.01874 544.09375 704.84686ZM554.3281 708.55L554.3281 707.76874Q553.7344 708.6906 552.59375 708.6906Q551.84375 708.6906 551.21875 708.28436Q550.59375 707.8625 550.25 707.1281Q549.90625 706.39374 549.90625 705.4406Q549.90625 704.51874 550.21875 703.7531Q550.53125 702.9875 551.15625 702.59686Q551.78125 702.1906 552.5469 702.1906Q553.1094 702.1906 553.5469 702.425Q553.9844 702.65936 554.2656 703.03436L554.2656 699.95624L555.3125 699.95624L555.3125 708.55L554.3281 708.55ZM551.0 705.4406Q551.0 706.64374 551.5 707.2375Q552.0 707.8156 552.6875 707.8156Q553.375 707.8156 553.8594 707.2531Q554.34375 706.6906 554.34375 705.53436Q554.34375 704.2531 553.84375 703.65936Q553.3594 703.0656 552.6406 703.0656Q551.9375 703.0656 551.46875 703.64374Q551.0 704.20624 551.0 705.4406ZM561.375 708.55L561.375 707.6281Q560.6406 708.6906 559.3906 708.6906Q558.84375 708.6906 558.3594 708.4875Q557.8906 708.26874 557.65625 707.95624Q557.4219 707.6281 557.3281 707.15936Q557.2656 706.8625 557.2656 706.175L557.2656 702.33124L558.3281 702.33124L558.3281 705.78436Q558.3281 706.59686 558.3906 706.89374Q558.4844 707.3 558.7969 707.55Q559.125 707.78436 559.6094 707.78436Q560.0781 707.78436 560.4844 707.55Q560.90625 707.3 561.0781 706.8781Q561.2656 706.45624 561.2656 705.65936L561.2656 702.33124L562.3125 702.33124L562.3125 708.55L561.375 708.55ZM564.2969 710.9406L564.2969 702.33124L565.25 702.33124L565.25 703.1281Q565.59375 702.65936 566.0156 702.425Q566.4531 702.1906 567.0625 702.1906Q567.8594 702.1906 568.46875 702.59686Q569.0781 703.0031 569.375 703.7531Q569.6875 704.5031 569.6875 705.39374Q569.6875 706.34686 569.34375 707.1125Q569.0156 707.8781 568.3594 708.28436Q567.7031 708.6906 566.9844 708.6906Q566.4531 708.6906 566.03125 708.47186Q565.6094 708.2375 565.34375 707.90936L565.34375 710.9406L564.2969 710.9406ZM565.25 705.47186Q565.25 706.675 565.7344 707.2531Q566.21875 707.8156 566.90625 707.8156Q567.6094 707.8156 568.1094 707.22186Q568.6094 706.6281 568.6094 705.3781Q568.6094 704.1906 568.125 703.6125Q567.6406 703.01874 566.9531 703.01874Q566.28125 703.01874 565.7656 703.64374Q565.25 704.26874 565.25 705.47186Z" fill-rule="nonzero"/><path fill="#34a853" d="M598.5 704.55C598.5 707.8637 595.8137 710.55 592.5 710.55C589.1863 710.55 586.5 707.8637 586.5 704.55C586.5 701.23627 589.1863 698.55 592.5 698.55C595.8137 698.55 598.5 701.23627 598.5 704.55Z" fill-rule="nonzero"/><path fill="#595959" d="M611.5469 706.55L612.6406 706.675Q612.3906 707.6281 611.6875 708.15936Q610.9844 708.6906 609.90625 708.6906Q608.5469 708.6906 607.7344 707.84686Q606.9375 707.0031 606.9375 705.4875Q606.9375 703.925 607.75 703.0656Q608.5625 702.1906 609.84375 702.1906Q611.09375 702.1906 611.875 703.03436Q612.6719 703.8781 612.6719 705.425Q612.6719 705.51874 612.6719 705.70624L608.03125 705.70624Q608.09375 706.7375 608.6094 707.28436Q609.125 707.8156 609.90625 707.8156Q610.4844 707.8156 610.8906 707.51874Q611.3125 707.20624 611.5469 706.55ZM608.09375 704.84686L611.5625 704.84686Q611.5 704.05 611.1719 703.65936Q610.65625 703.05 609.8594 703.05Q609.125 703.05 608.625 703.53436Q608.1406 704.01874 608.09375 704.84686ZM614.5469 708.55L614.5469 703.14374L613.6094 703.14374L613.6094 702.33124L614.5469 702.33124L614.5469 701.65936Q614.5469 701.03436 614.65625 700.7375Q614.8125 700.3156 615.1875 700.0656Q615.5781 699.8156 616.2656 699.8156Q616.71875 699.8156 617.25 699.925L617.09375 700.83124Q616.7656 700.78436 616.46875 700.78436Q615.9844 700.78436 615.78125 700.9875Q615.59375 701.1906 615.59375 701.7531L615.59375 702.33124L616.8125 702.33124L616.8125 703.14374L615.59375 703.14374L615.59375 708.55L614.5469 708.55ZM617.5469 708.55L617.5469 703.14374L616.6094 703.14374L616.6094 702.33124L617.5469 702.33124L617.5469 701.65936Q617.5469 701.03436 617.65625 700.7375Q617.8125 700.3156 618.1875 700.0656Q618.5781 699.8156 619.2656 699.8156Q619.71875 699.8156 620.25 699.925L620.09375 700.83124Q619.7656 700.78436 619.46875 700.78436Q618.9844 700.78436 618.78125 700.9875Q618.59375 701.1906 618.59375 701.7531L618.59375 702.33124L619.8125 702.33124L619.8125 703.14374L618.59375 703.14374L618.59375 708.55L617.5469 708.55ZM620.2969 701.175L620.2969 699.95624L621.3594 699.95624L621.3594 701.175L620.2969 701.175ZM620.2969 708.55L620.2969 702.33124L621.3594 702.33124L621.3594 708.55L620.2969 708.55ZM627.3594 706.26874L628.3906 706.40936Q628.21875 707.47186 627.5156 708.08124Q626.8125 708.6906 625.7969 708.6906Q624.5156 708.6906 623.7344 707.8625Q622.96875 707.01874 622.96875 705.45624Q622.96875 704.45624 623.2969 703.70624Q623.6406 702.9406 624.3125 702.5656Q625.0 702.1906 625.8125 702.1906Q626.8125 702.1906 627.4531 702.70624Q628.1094 703.20624 628.2969 704.15936L627.2656 704.3156Q627.125 703.6906 626.75 703.3781Q626.375 703.05 625.84375 703.05Q625.0469 703.05 624.5469 703.6281Q624.0469 704.1906 624.0469 705.425Q624.0469 706.6906 624.53125 707.2531Q625.0156 707.8156 625.78125 707.8156Q626.40625 707.8156 626.8125 707.4406Q627.2344 707.0656 627.3594 706.26874ZM629.2969 701.175L629.2969 699.95624L630.3594 699.95624L630.3594 701.175L629.2969 701.175ZM629.2969 708.55L629.2969 702.33124L630.3594 702.33124L630.3594 708.55L629.2969 708.55ZM636.5469 706.55L637.6406 706.675Q637.3906 707.6281 636.6875 708.15936Q635.9844 708.6906 634.90625 708.6906Q633.5469 708.6906 632.7344 707.84686Q631.9375 707.0031 631.9375 705.4875Q631.9375 703.925 632.75 703.0656Q633.5625 702.1906 634.84375 702.1906Q636.09375 702.1906 636.875 703.03436Q637.6719 703.8781 637.6719 705.425Q637.6719 705.51874 637.6719 705.70624L633.03125 705.70624Q633.09375 706.7375 633.6094 707.28436Q634.125 707.8156 634.90625 707.8156Q635.4844 707.8156 635.8906 707.51874Q636.3125 707.20624 636.5469 706.55ZM633.09375 704.84686L636.5625 704.84686Q636.5 704.05 636.1719 703.65936Q635.65625 703.05 634.8594 703.05Q634.125 703.05 633.625 703.53436Q633.1406 704.01874 633.09375 704.84686ZM639.2969 708.55L639.2969 702.33124L640.2344 702.33124L640.2344 703.20624Q640.9219 702.1906 642.21875 702.1906Q642.78125 702.1906 643.25 702.39374Q643.7344 702.59686 643.96875 702.925Q644.2031 703.2531 644.2969 703.6906Q644.34375 703.9875 644.34375 704.72186L644.34375 708.55L643.2969 708.55L643.2969 704.76874Q643.2969 704.1125 643.1719 703.8Q643.0469 703.4875 642.7344 703.3Q642.4219 703.09686 642.0 703.09686Q641.3281 703.09686 640.8281 703.53436Q640.34375 703.95624 640.34375 705.14374L640.34375 708.55L639.2969 708.55ZM650.3594 706.26874L651.3906 706.40936Q651.21875 707.47186 650.5156 708.08124Q649.8125 708.6906 648.7969 708.6906Q647.5156 708.6906 646.7344 707.8625Q645.96875 707.01874 645.96875 705.45624Q645.96875 704.45624 646.2969 703.70624Q646.6406 702.9406 647.3125 702.5656Q648.0 702.1906 648.8125 702.1906Q649.8125 702.1906 650.4531 702.70624Q651.1094 703.20624 651.2969 704.15936L650.2656 704.3156Q650.125 703.6906 649.75 703.3781Q649.375 703.05 648.84375 703.05Q648.0469 703.05 647.5469 703.6281Q647.0469 704.1906 647.0469 705.425Q647.0469 706.6906 647.53125 707.2531Q648.0156 707.8156 648.78125 707.8156Q649.40625 707.8156 649.8125 707.4406Q650.2344 707.0656 650.3594 706.26874ZM652.25 710.9406L652.125 709.95624Q652.46875 710.05 652.7344 710.05Q653.0781 710.05 653.28125 709.925Q653.5 709.8156 653.6406 709.6125Q653.7344 709.4406 653.96875 708.8156Q653.9844 708.7375 654.0625 708.5656L651.6875 702.33124L652.8281 702.33124L654.125 705.925Q654.375 706.6125 654.5781 707.3781Q654.7656 706.64374 655.0156 705.95624L656.34375 702.33124L657.3906 702.33124L655.03125 708.65936Q654.6406 709.675 654.4375 710.0656Q654.15625 710.59686 653.78125 710.83124Q653.4219 711.08124 652.9219 711.08124Q652.625 711.08124 652.25 710.9406Z" fill-rule="nonzero"/><path fill="#595959" d="M428.26562 52.45L428.26562 40.996876L433.34375 40.996876Q434.875 40.996876 435.67188 41.309376Q436.46875 41.60625 436.9375 42.3875Q437.42188 43.16875 437.42188 44.121876Q437.42188 45.340626 436.625 46.184376Q435.84375 47.0125 434.1875 47.23125Q434.79688 47.528126 435.10938 47.809376Q435.76562 48.41875 436.35938 49.325L438.35938 52.45L436.45312 52.45L434.9375 50.059376Q434.26562 49.028126 433.82812 48.48125Q433.40625 47.934376 433.0625 47.715626Q432.73438 47.496876 432.375 47.41875Q432.125 47.35625 431.53125 47.35625L429.78125 47.35625L429.78125 52.45L428.26562 52.45ZM429.78125 46.04375L433.03125 46.04375Q434.07812 46.04375 434.65625 45.840626Q435.25 45.621876 435.54688 45.153126Q435.85938 44.66875 435.85938 44.121876Q435.85938 43.309376 435.26562 42.79375Q434.67188 42.2625 433.40625 42.2625L429.78125 42.2625L429.78125 46.04375ZM439.53125 48.29375Q439.53125 45.996876 440.8125 44.8875Q441.89062 43.965626 443.42188 43.965626Q445.14062 43.965626 446.21875 45.090626Q447.3125 46.2 447.3125 48.184376Q447.3125 49.778126 446.82812 50.7Q446.34375 51.621876 445.42188 52.1375Q444.51562 52.6375 443.42188 52.6375Q441.6875 52.6375 440.60938 51.528126Q439.53125 50.403126 439.53125 48.29375ZM440.98438 48.29375Q440.98438 49.8875 441.67188 50.684376Q442.375 51.48125 443.42188 51.48125Q444.46875 51.48125 445.15625 50.684376Q445.85938 49.8875 445.85938 48.246876Q445.85938 46.715626 445.15625 45.91875Q444.46875 45.121876 443.42188 45.121876Q442.375 45.121876 441.67188 45.91875Q440.98438 46.7 440.98438 48.29375ZM448.53125 48.29375Q448.53125 45.996876 449.8125 44.8875Q450.89062 43.965626 452.42188 43.965626Q454.14062 43.965626 455.21875 45.090626Q456.3125 46.2 456.3125 48.184376Q456.3125 49.778126 455.82812 50.7Q455.34375 51.621876 454.42188 52.1375Q453.51562 52.6375 452.42188 52.6375Q450.6875 52.6375 449.60938 51.528126Q448.53125 50.403126 448.53125 48.29375ZM449.98438 48.29375Q449.98438 49.8875 450.67188 50.684376Q451.375 51.48125 452.42188 51.48125Q453.46875 51.48125 454.15625 50.684376Q454.85938 49.8875 454.85938 48.246876Q454.85938 46.715626 454.15625 45.91875Q453.46875 45.121876 452.42188 45.121876Q451.375 45.121876 450.67188 45.91875Q449.98438 46.7 449.98438 48.29375ZM458.0625 52.45L458.0625 44.153126L459.3125 44.153126L459.3125 45.309376Q459.70312 44.7 460.34375 44.340626Q461.0 43.965626 461.82812 43.965626Q462.75 43.965626 463.34375 44.35625Q463.9375 44.73125 464.17188 45.41875Q465.15625 43.965626 466.73438 43.965626Q467.96875 43.965626 468.625 44.653126Q469.29688 45.325 469.29688 46.746876L469.29688 52.45L467.90625 52.45L467.90625 47.215626Q467.90625 46.371876 467.76562 46.0125Q467.625 45.6375 467.26562 45.41875Q466.90625 45.184376 466.42188 45.184376Q465.54688 45.184376 464.96875 45.7625Q464.39062 46.340626 464.39062 47.621876L464.39062 52.45L462.98438 52.45L462.98438 47.059376Q462.98438 46.121876 462.64062 45.653126Q462.29688 45.184376 461.51562 45.184376Q460.92188 45.184376 460.42188 45.496876Q459.92188 45.809376 459.6875 46.41875Q459.46875 47.0125 459.46875 48.1375L459.46875 52.45L458.0625 52.45ZM474.71875 48.7625L476.15625 48.6375Q476.25 49.496876 476.625 50.059376Q477.0 50.60625 477.78125 50.95Q478.5625 51.278126 479.53125 51.278126Q480.40625 51.278126 481.0625 51.028126Q481.73438 50.7625 482.04688 50.325Q482.375 49.871876 482.375 49.340626Q482.375 48.79375 482.0625 48.403126Q481.75 47.996876 481.03125 47.715626Q480.57812 47.54375 479.0 47.16875Q477.42188 46.778126 476.78125 46.45Q475.96875 46.0125 475.5625 45.3875Q475.15625 44.746876 475.15625 43.95Q475.15625 43.090626 475.64062 42.340626Q476.14062 41.575 477.07812 41.184376Q478.03125 40.79375 479.1875 40.79375Q480.46875 40.79375 481.4375 41.215626Q482.40625 41.621876 482.92188 42.41875Q483.45312 43.215626 483.5 44.215626L482.04688 44.325Q481.92188 43.246876 481.25 42.7Q480.57812 42.1375 479.25 42.1375Q477.875 42.1375 477.25 42.6375Q476.625 43.1375 476.625 43.85625Q476.625 44.465626 477.0625 44.871876Q477.5 45.2625 479.34375 45.684376Q481.20312 46.10625 481.89062 46.41875Q482.89062 46.871876 483.35938 47.590626Q483.84375 48.29375 483.84375 49.215626Q483.84375 50.121876 483.3125 50.934376Q482.79688 51.746876 481.8125 52.2Q480.82812 52.653126 479.60938 52.653126Q478.04688 52.653126 477.0 52.2Q475.95312 51.73125 475.34375 50.825Q474.75 49.91875 474.71875 48.7625ZM486.0625 42.60625L486.0625 40.996876L487.46875 40.996876L487.46875 42.60625L486.0625 42.60625ZM486.0625 52.45L486.0625 44.153126L487.46875 44.153126L487.46875 52.45L486.0625 52.45ZM489.3125 52.45L489.3125 51.309376L494.59375 45.246876Q493.70312 45.29375 493.01562 45.29375L489.625 45.29375L489.625 44.153126L496.40625 44.153126L496.40625 45.075L491.92188 50.340626L491.04688 51.309376Q492.0 51.23125 492.82812 51.23125L496.65625 51.23125L496.65625 52.45L489.3125 52.45ZM503.73438 49.778126L505.1875 49.95Q504.84375 51.23125 503.90625 51.934376Q502.98438 52.6375 501.54688 52.6375Q499.71875 52.6375 498.65625 51.5125Q497.59375 50.3875 497.59375 48.371876Q497.59375 46.278126 498.67188 45.121876Q499.75 43.965626 501.46875 43.965626Q503.125 43.965626 504.17188 45.10625Q505.23438 46.23125 505.23438 48.278126Q505.23438 48.403126 505.23438 48.653126L499.04688 48.653126Q499.125 50.028126 499.8125 50.7625Q500.51562 51.48125 501.54688 51.48125Q502.32812 51.48125 502.875 51.075Q503.42188 50.66875 503.73438 49.778126ZM499.125 47.496876L503.75 47.496876Q503.65625 46.45 503.21875 45.934376Q502.54688 45.121876 501.48438 45.121876Q500.51562 45.121876 499.84375 45.778126Q499.1875 46.41875 499.125 47.496876ZM510.67188 49.45L512.1406 49.325Q512.3125 50.403126 512.90625 50.95Q513.5 51.48125 514.34375 51.48125Q515.3594 51.48125 516.0625 50.715626Q516.7656 49.95 516.7656 48.684376Q516.7656 47.48125 516.09375 46.79375Q515.4219 46.090626 514.3281 46.090626Q513.6406 46.090626 513.09375 46.403126Q512.5469 46.715626 512.2344 47.2L510.92188 47.028126L512.03125 41.153126L517.71875 41.153126L517.71875 42.496876L513.15625 42.496876L512.53125 45.575Q513.5625 44.85625 514.7031 44.85625Q516.2031 44.85625 517.2344 45.903126Q518.2656 46.934376 518.2656 48.559376Q518.2656 50.121876 517.3594 51.246876Q516.25 52.653126 514.34375 52.653126Q512.78125 52.653126 511.79688 51.778126Q510.8125 50.8875 510.67188 49.45ZM519.6719 46.79375Q519.6719 44.7625 520.0781 43.528126Q520.5 42.29375 521.3281 41.621876Q522.15625 40.95 523.40625 40.95Q524.3281 40.95 525.0156 41.325Q525.71875 41.684376 526.1719 42.3875Q526.625 43.090626 526.875 44.090626Q527.1406 45.090626 527.1406 46.79375Q527.1406 48.809376 526.71875 50.059376Q526.3125 51.29375 525.4844 51.98125Q524.65625 52.653126 523.40625 52.653126Q521.75 52.653126 520.7969 51.45Q519.6719 50.028126 519.6719 46.79375ZM521.1094 46.79375Q521.1094 49.621876 521.7656 50.559376Q522.4375 51.48125 523.40625 51.48125Q524.375 51.48125 525.03125 50.54375Q525.6875 49.60625 525.6875 46.79375Q525.6875 43.965626 525.03125 43.04375Q524.375 42.10625 523.3906 42.10625Q522.4219 42.10625 521.84375 42.934376Q521.1094 43.98125 521.1094 46.79375ZM528.6719 46.79375Q528.6719 44.7625 529.0781 43.528126Q529.5 42.29375 530.3281 41.621876Q531.15625 40.95 532.40625 40.95Q533.3281 40.95 534.0156 41.325Q534.71875 41.684376 535.1719 42.3875Q535.625 43.090626 535.875 44.090626Q536.1406 45.090626 536.1406 46.79375Q536.1406 48.809376 535.71875 50.059376Q535.3125 51.29375 534.4844 51.98125Q533.65625 52.653126 532.40625 52.653126Q530.75 52.653126 529.7969 51.45Q528.6719 50.028126 528.6719 46.79375ZM530.1094 46.79375Q530.1094 49.621876 530.7656 50.559376Q531.4375 51.48125 532.40625 51.48125Q533.375 51.48125 534.03125 50.54375Q534.6875 49.60625 534.6875 46.79375Q534.6875 43.965626 534.03125 43.04375Q533.375 42.10625 532.3906 42.10625Q531.4219 42.10625 530.84375 42.934376Q530.1094 43.98125 530.1094 46.79375ZM547.46875 51.41875Q546.6875 52.090626 545.96875 52.371876Q545.25 52.6375 544.4219 52.6375Q543.0469 52.6375 542.3125 51.965626Q541.5781 51.29375 541.5781 50.2625Q541.5781 49.653126 541.8594 49.153126Q542.1406 48.6375 542.5781 48.340626Q543.03125 48.028126 543.59375 47.871876Q544.0156 47.7625 544.84375 47.66875Q546.5469 47.465626 547.3594 47.184376Q547.3594 46.8875 547.3594 46.809376Q547.3594 45.95 546.96875 45.60625Q546.4219 45.121876 545.3594 45.121876Q544.375 45.121876 543.8906 45.48125Q543.4219 45.825 543.2031 46.7L541.8281 46.5125Q542.0156 45.6375 542.4375 45.090626Q542.875 44.54375 543.6875 44.2625Q544.5 43.965626 545.5625 43.965626Q546.625 43.965626 547.28125 44.215626Q547.9531 44.465626 548.2656 44.840626Q548.5781 45.215626 548.7031 45.79375Q548.78125 46.153126 548.78125 47.090626L548.78125 48.965626Q548.78125 50.934376 548.8594 51.45Q548.9531 51.965626 549.21875 52.45L547.75 52.45Q547.53125 52.0125 547.46875 51.41875ZM547.3594 48.278126Q546.59375 48.590626 545.0625 48.809376Q544.1875 48.934376 543.8281 49.090626Q543.46875 49.246876 543.2656 49.559376Q543.0781 49.85625 543.0781 50.215626Q543.0781 50.778126 543.5 51.153126Q543.9375 51.528126 544.75 51.528126Q545.5625 51.528126 546.1875 51.184376Q546.8281 50.825 547.125 50.2Q547.3594 49.73125 547.3594 48.79375L547.3594 48.278126ZM551.0625 52.45L551.0625 44.153126L552.3281 44.153126L552.3281 45.325Q553.2344 43.965626 554.96875 43.965626Q555.71875 43.965626 556.34375 44.23125Q556.96875 44.496876 557.28125 44.934376Q557.59375 45.371876 557.71875 45.98125Q557.7969 46.371876 557.7969 47.340626L557.7969 52.45L556.3906 52.45L556.3906 47.403126Q556.3906 46.54375 556.21875 46.121876Q556.0625 45.684376 555.6406 45.434376Q555.2344 45.184376 554.6719 45.184376Q553.7656 45.184376 553.1094 45.7625Q552.46875 46.325 552.46875 47.91875L552.46875 52.45L551.0625 52.45ZM565.4375 52.45L565.4375 51.403126Q564.65625 52.6375 563.125 52.6375Q562.125 52.6375 561.2969 52.090626Q560.46875 51.54375 560.0 50.559376Q559.5469 49.575 559.5469 48.309376Q559.5469 47.059376 559.9531 46.059376Q560.375 45.04375 561.2031 44.5125Q562.03125 43.965626 563.0625 43.965626Q563.8125 43.965626 564.3906 44.278126Q564.9844 44.590626 565.34375 45.10625L565.34375 40.996876L566.75 40.996876L566.75 52.45L565.4375 52.45ZM561.0 48.309376Q561.0 49.903126 561.6719 50.7Q562.34375 51.48125 563.25 51.48125Q564.1719 51.48125 564.8125 50.73125Q565.46875 49.965626 565.46875 48.41875Q565.46875 46.715626 564.8125 45.91875Q564.15625 45.121876 563.1875 45.121876Q562.25 45.121876 561.625 45.8875Q561.0 46.653126 561.0 48.309376ZM576.15625 52.45L576.15625 42.340626L572.375 42.340626L572.375 40.996876L581.4531 40.996876L581.4531 42.340626L577.6719 42.340626L577.6719 52.45L576.15625 52.45ZM583.0625 42.60625L583.0625 40.996876L584.46875 40.996876L584.46875 42.60625L583.0625 42.60625ZM583.0625 52.45L583.0625 44.153126L584.46875 44.153126L584.46875 52.45L583.0625 52.45ZM587.0625 52.45L587.0625 44.153126L588.3125 44.153126L588.3125 45.309376Q588.7031 44.7 589.34375 44.340626Q590.0 43.965626 590.8281 43.965626Q591.75 43.965626 592.34375 44.35625Q592.9375 44.73125 593.1719 45.41875Q594.15625 43.965626 595.7344 43.965626Q596.96875 43.965626 597.625 44.653126Q598.2969 45.325 598.2969 46.746876L598.2969 52.45L596.90625 52.45L596.90625 47.215626Q596.90625 46.371876 596.7656 46.0125Q596.625 45.6375 596.2656 45.41875Q595.90625 45.184376 595.4219 45.184376Q594.5469 45.184376 593.96875 45.7625Q593.3906 46.340626 593.3906 47.621876L593.3906 52.45L591.9844 52.45L591.9844 47.059376Q591.9844 46.121876 591.6406 45.653126Q591.2969 45.184376 590.5156 45.184376Q589.9219 45.184376 589.4219 45.496876Q588.9219 45.809376 588.6875 46.41875Q588.46875 47.0125 588.46875 48.1375L588.46875 52.45L587.0625 52.45ZM605.7344 49.778126L607.1875 49.95Q606.84375 51.23125 605.90625 51.934376Q604.9844 52.6375 603.5469 52.6375Q601.71875 52.6375 600.65625 51.5125Q599.59375 50.3875 599.59375 48.371876Q599.59375 46.278126 600.6719 45.121876Q601.75 43.965626 603.46875 43.965626Q605.125 43.965626 606.1719 45.10625Q607.2344 46.23125 607.2344 48.278126Q607.2344 48.403126 607.2344 48.653126L601.0469 48.653126Q601.125 50.028126 601.8125 50.7625Q602.5156 51.48125 603.5469 51.48125Q604.3281 51.48125 604.875 51.075Q605.4219 50.66875 605.7344 49.778126ZM601.125 47.496876L605.75 47.496876Q605.65625 46.45 605.21875 45.934376Q604.5469 45.121876 603.4844 45.121876Q602.5156 45.121876 601.84375 45.778126Q601.1875 46.41875 601.125 47.496876ZM612.71875 48.7625L614.15625 48.6375Q614.25 49.496876 614.625 50.059376Q615.0 50.60625 615.78125 50.95Q616.5625 51.278126 617.53125 51.278126Q618.40625 51.278126 619.0625 51.028126Q619.7344 50.7625 620.0469 50.325Q620.375 49.871876 620.375 49.340626Q620.375 48.79375 620.0625 48.403126Q619.75 47.996876 619.03125 47.715626Q618.5781 47.54375 617.0 47.16875Q615.4219 46.778126 614.78125 46.45Q613.96875 46.0125 613.5625 45.3875Q613.15625 44.746876 613.15625 43.95Q613.15625 43.090626 613.6406 42.340626Q614.1406 41.575 615.0781 41.184376Q616.03125 40.79375 617.1875 40.79375Q618.46875 40.79375 619.4375 41.215626Q620.40625 41.621876 620.9219 42.41875Q621.4531 43.215626 621.5 44.215626L620.0469 44.325Q619.9219 43.246876 619.25 42.7Q618.5781 42.1375 617.25 42.1375Q615.875 42.1375 615.25 42.6375Q614.625 43.1375 614.625 43.85625Q614.625 44.465626 615.0625 44.871876Q615.5 45.2625 617.34375 45.684376Q619.2031 46.10625 619.8906 46.41875Q620.8906 46.871876 621.3594 47.590626Q621.84375 48.29375 621.84375 49.215626Q621.84375 50.121876 621.3125 50.934376Q620.7969 51.746876 619.8125 52.2Q618.8281 52.653126 617.6094 52.653126Q616.0469 52.653126 615.0 52.2Q613.9531 51.73125 613.34375 50.825Q612.75 49.91875 612.71875 48.7625ZM627.125 51.184376L627.3281 52.434376Q626.7344 52.559376 626.2656 52.559376Q625.5 52.559376 625.0781 52.325Q624.65625 52.075 624.4844 51.684376Q624.3125 51.278126 624.3125 50.0125L624.3125 45.246876L623.28125 45.246876L623.28125 44.153126L624.3125 44.153126L624.3125 42.090626L625.71875 41.246876L625.71875 44.153126L627.125 44.153126L627.125 45.246876L625.71875 45.246876L625.71875 50.090626Q625.71875 50.7 625.78125 50.871876Q625.8594 51.04375 626.03125 51.153126Q626.2031 51.246876 626.5156 51.246876Q626.75 51.246876 627.125 51.184376ZM633.7344 49.778126L635.1875 49.95Q634.84375 51.23125 633.90625 51.934376Q632.9844 52.6375 631.5469 52.6375Q629.71875 52.6375 628.65625 51.5125Q627.59375 50.3875 627.59375 48.371876Q627.59375 46.278126 628.6719 45.121876Q629.75 43.965626 631.46875 43.965626Q633.125 43.965626 634.1719 45.10625Q635.2344 46.23125 635.2344 48.278126Q635.2344 48.403126 635.2344 48.653126L629.0469 48.653126Q629.125 50.028126 629.8125 50.7625Q630.5156 51.48125 631.5469 51.48125Q632.3281 51.48125 632.875 51.075Q633.4219 50.66875 633.7344 49.778126ZM629.125 47.496876L633.75 47.496876Q633.65625 46.45 633.21875 45.934376Q632.5469 45.121876 631.4844 45.121876Q630.5156 45.121876 629.84375 45.778126Q629.1875 46.41875 629.125 47.496876ZM637.0625 55.6375L637.0625 44.153126L638.34375 44.153126L638.34375 45.23125Q638.7969 44.590626 639.3594 44.278126Q639.9375 43.965626 640.75 43.965626Q641.8125 43.965626 642.625 44.5125Q643.4375 45.059376 643.84375 46.059376Q644.2656 47.04375 644.2656 48.23125Q644.2656 49.5125 643.7969 50.528126Q643.34375 51.54375 642.46875 52.090626Q641.6094 52.6375 640.6406 52.6375Q639.9375 52.6375 639.375 52.340626Q638.8281 52.04375 638.46875 51.590626L638.46875 55.6375L637.0625 55.6375ZM638.3281 48.340626Q638.3281 49.95 638.96875 50.715626Q639.625 51.48125 640.5469 51.48125Q641.4844 51.48125 642.15625 50.684376Q642.8281 49.8875 642.8281 48.23125Q642.8281 46.6375 642.1719 45.85625Q641.5156 45.059376 640.6094 45.059376Q639.71875 45.059376 639.0156 45.903126Q638.3281 46.746876 638.3281 48.340626ZM645.5 49.965626L646.8906 49.746876Q647.0 50.590626 647.53125 51.04375Q648.0781 51.48125 649.03125 51.48125Q650.0 51.48125 650.46875 51.090626Q650.9375 50.684376 650.9375 50.153126Q650.9375 49.684376 650.53125 49.403126Q650.2344 49.215626 649.09375 48.934376Q647.5469 48.54375 646.9375 48.2625Q646.34375 47.965626 646.03125 47.465626Q645.7344 46.965626 645.7344 46.35625Q645.7344 45.79375 645.9844 45.325Q646.2344 44.85625 646.6719 44.54375Q647.0 44.29375 647.5625 44.1375Q648.1406 43.965626 648.78125 43.965626Q649.7656 43.965626 650.5 44.246876Q651.2344 44.528126 651.5781 45.0125Q651.9375 45.48125 652.0781 46.29375L650.7031 46.48125Q650.6094 45.840626 650.15625 45.48125Q649.7031 45.121876 648.8906 45.121876Q647.9219 45.121876 647.5 45.45Q647.09375 45.7625 647.09375 46.184376Q647.09375 46.465626 647.2656 46.684376Q647.4375 46.903126 647.7969 47.059376Q648.0156 47.1375 649.0469 47.41875Q650.53125 47.809376 651.125 48.075Q651.71875 48.325 652.0469 48.809376Q652.3906 49.29375 652.3906 50.0125Q652.3906 50.715626 651.96875 51.340626Q651.5625 51.95 650.78125 52.29375Q650.0156 52.6375 649.0469 52.6375Q647.4219 52.6375 646.5781 51.965626Q645.7344 51.29375 645.5 49.965626ZM658.3125 52.45L658.3125 40.996876L666.0469 40.996876L666.0469 42.340626L659.8281 42.340626L659.8281 45.8875L665.2031 45.8875L665.2031 47.246876L659.8281 47.246876L659.8281 52.45L658.3125 52.45ZM673.46875 51.41875Q672.6875 52.090626 671.96875 52.371876Q671.25 52.6375 670.4219 52.6375Q669.0469 52.6375 668.3125 51.965626Q667.5781 51.29375 667.5781 50.2625Q667.5781 49.653126 667.8594 49.153126Q668.1406 48.6375 668.5781 48.340626Q669.03125 48.028126 669.59375 47.871876Q670.0156 47.7625 670.84375 47.66875Q672.5469 47.465626 673.3594 47.184376Q673.3594 46.8875 673.3594 46.809376Q673.3594 45.95 672.96875 45.60625Q672.4219 45.121876 671.3594 45.121876Q670.375 45.121876 669.8906 45.48125Q669.4219 45.825 669.2031 46.7L667.8281 46.5125Q668.0156 45.6375 668.4375 45.090626Q668.875 44.54375 669.6875 44.2625Q670.5 43.965626 671.5625 43.965626Q672.625 43.965626 673.28125 44.215626Q673.9531 44.465626 674.2656 44.840626Q674.5781 45.215626 674.7031 45.79375Q674.78125 46.153126 674.78125 47.090626L674.78125 48.965626Q674.78125 50.934376 674.8594 51.45Q674.9531 51.965626 675.21875 52.45L673.75 52.45Q673.53125 52.0125 673.46875 51.41875ZM673.3594 48.278126Q672.59375 48.590626 671.0625 48.809376Q670.1875 48.934376 669.8281 49.090626Q669.46875 49.246876 669.2656 49.559376Q669.0781 49.85625 669.0781 50.215626Q669.0781 50.778126 669.5 51.153126Q669.9375 51.528126 670.75 51.528126Q671.5625 51.528126 672.1875 51.184376Q672.8281 50.825 673.125 50.2Q673.3594 49.73125 673.3594 48.79375L673.3594 48.278126ZM682.46875 49.403126L683.8594 49.590626Q683.625 51.0125 682.6875 51.825Q681.7656 52.6375 680.40625 52.6375Q678.7031 52.6375 677.65625 51.528126Q676.625 50.403126 676.625 48.325Q676.625 46.98125 677.0625 45.98125Q677.5156 44.965626 678.4219 44.465626Q679.34375 43.965626 680.40625 43.965626Q681.7656 43.965626 682.625 44.653126Q683.4844 45.325 683.71875 46.590626L682.3594 46.79375Q682.15625 45.965626 681.65625 45.54375Q681.1719 45.121876 680.46875 45.121876Q679.40625 45.121876 678.7344 45.8875Q678.0781 46.6375 678.0781 48.29375Q678.0781 49.965626 678.71875 50.73125Q679.3594 51.48125 680.3906 51.48125Q681.21875 51.48125 681.7656 50.98125Q682.3281 50.465626 682.46875 49.403126ZM688.125 51.184376L688.3281 52.434376Q687.7344 52.559376 687.2656 52.559376Q686.5 52.559376 686.0781 52.325Q685.65625 52.075 685.4844 51.684376Q685.3125 51.278126 685.3125 50.0125L685.3125 45.246876L684.28125 45.246876L684.28125 44.153126L685.3125 44.153126L685.3125 42.090626L686.71875 41.246876L686.71875 44.153126L688.125 44.153126L688.125 45.246876L686.71875 45.246876L686.71875 50.090626Q686.71875 50.7 686.78125 50.871876Q686.8594 51.04375 687.03125 51.153126Q687.2031 51.246876 687.5156 51.246876Q687.75 51.246876 688.125 51.184376ZM688.53125 48.29375Q688.53125 45.996876 689.8125 44.8875Q690.8906 43.965626 692.4219 43.965626Q694.1406 43.965626 695.21875 45.090626Q696.3125 46.2 696.3125 48.184376Q696.3125 49.778126 695.8281 50.7Q695.34375 51.621876 694.4219 52.1375Q693.5156 52.6375 692.4219 52.6375Q690.6875 52.6375 689.6094 51.528126Q688.53125 50.403126 688.53125 48.29375ZM689.9844 48.29375Q689.9844 49.8875 690.6719 50.684376Q691.375 51.48125 692.4219 51.48125Q693.46875 51.48125 694.15625 50.684376Q694.8594 49.8875 694.8594 48.246876Q694.8594 46.715626 694.15625 45.91875Q693.46875 45.121876 692.4219 45.121876Q691.375 45.121876 690.6719 45.91875Q689.9844 46.7 689.9844 48.29375ZM698.0469 52.45L698.0469 44.153126L699.3125 44.153126L699.3125 45.403126Q699.7969 44.528126 700.2031 44.246876Q700.6094 43.965626 701.1094 43.965626Q701.8125 43.965626 702.5469 44.41875L702.0625 45.715626Q701.5469 45.41875 701.03125 45.41875Q700.5781 45.41875 700.2031 45.7Q699.84375 45.965626 699.6875 46.465626Q699.4531 47.215626 699.4531 48.10625L699.4531 52.45L698.0469 52.45ZM711.96875 52.45L710.5625 52.45L710.5625 43.48125Q710.0469 43.965626 709.21875 44.45Q708.40625 44.934376 707.75 45.184376L707.75 43.825Q708.9219 43.2625 709.7969 42.48125Q710.6875 41.684376 711.0625 40.95L711.96875 40.95L711.96875 52.45ZM715.6719 46.79375Q715.6719 44.7625 716.0781 43.528126Q716.5 42.29375 717.3281 41.621876Q718.15625 40.95 719.40625 40.95Q720.3281 40.95 721.0156 41.325Q721.71875 41.684376 722.1719 42.3875Q722.625 43.090626 722.875 44.090626Q723.1406 45.090626 723.1406 46.79375Q723.1406 48.809376 722.71875 50.059376Q722.3125 51.29375 721.4844 51.98125Q720.65625 52.653126 719.40625 52.653126Q717.75 52.653126 716.7969 51.45Q715.6719 50.028126 715.6719 46.79375ZM717.1094 46.79375Q717.1094 49.621876 717.7656 50.559376Q718.4375 51.48125 719.40625 51.48125Q720.375 51.48125 721.03125 50.54375Q721.6875 49.60625 721.6875 46.79375Q721.6875 43.965626 721.03125 43.04375Q720.375 42.10625 719.3906 42.10625Q718.4219 42.10625 717.84375 42.934376Q717.1094 43.98125 717.1094 46.79375ZM724.6719 46.79375Q724.6719 44.7625 725.0781 43.528126Q725.5 42.29375 726.3281 41.621876Q727.15625 40.95 728.40625 40.95Q729.3281 40.95 730.0156 41.325Q730.71875 41.684376 731.1719 42.3875Q731.625 43.090626 731.875 44.090626Q732.1406 45.090626 732.1406 46.79375Q732.1406 48.809376 731.71875 50.059376Q731.3125 51.29375 730.4844 51.98125Q729.65625 52.653126 728.40625 52.653126Q726.75 52.653126 725.7969 51.45Q724.6719 50.028126 724.6719 46.79375ZM726.1094 46.79375Q726.1094 49.621876 726.7656 50.559376Q727.4375 51.48125 728.40625 51.48125Q729.375 51.48125 730.03125 50.54375Q730.6875 49.60625 730.6875 46.79375Q730.6875 43.965626 730.03125 43.04375Q729.375 42.10625 728.3906 42.10625Q727.4219 42.10625 726.84375 42.934376Q726.1094 43.98125 726.1094 46.79375Z" fill-rule="nonzero"/></svg>