<?xml version="1.0"?>
<svg xmlns="http://www.w3.org/2000/svg" xmlns:xlink="http://www.w3.org/1999/xlink" fill="none" stroke-linecap="square" stroke-miterlimit="10" viewBox="0 0 1101 681">
  <clipPath id="a">
    <path d="m93.05 41.05h973.9v553.9h-973.9z"/>
  </clipPath>
  <path d="m0 0h1101v681h-1101z" fill="#fff"/>
  <g stroke-linecap="butt">
    <path d="m93.5 594.5h973" stroke="#333"/>
    <g stroke="#ccc">
      <path d="m93.5 456.5h973"/>
      <path d="m93.5 318.5h973"/>
      <path d="m93.5 179.5h973"/>
      <path d="m93.5 41.5h973"/>
    </g>
    <g stroke="#eee">
      <path d="m121.694115 106.48304v16"/>
      <path d="m408.13528 500.72943v16"/>
      <path d="m465.42352 510.94583v16.00003"/>
      <path d="m522.7118 518.9289v16"/>
      <path d="m580 515.68994v16"/>
      <path d="m981.01764 74.46692v16"/>
      <path d="m1038.3059 94.4337v16"/>
    </g>
    <path clip-path="url(#a)" d="m121.694115 122.48304 57.288235 235.7701 57.28823 77.82686 57.28826 44.32204 57.28821 21.93226 57.28823 14.39513 57.28824 10.21643 57.28828 7.98304 57.2882-3.23896 57.2882-29.46184 57.2883-106.36174 57.2882-153.57147 57.28825-81.83313 57.28821-105.685725 57.28827 285.808865 57.28821-250.11798 57.28826 19.96678" stroke="#4285f4" stroke-width="2"/>
  </g>
  <g fill="#4285f4">
    <path clip-path="url(#a)" d="m126.194115 122.48304c0 2.48528-2.014715 4.5-4.5 4.5-2.485275 0-4.5-2.01472-4.5-4.5 0-2.485275 2.014725-4.5 4.5-4.5 2.485285 0 4.5 2.014725 4.5 4.5z"/>
    <path clip-path="url(#a)" d="m183.48235 358.25314c0 2.48529-2.01471 4.5-4.5 4.5-2.48528 0-4.5-2.01471-4.5-4.5 0-2.48526 2.01472-4.5 4.5-4.5 2.48529 0 4.5 2.01474 4.5 4.5z"/>
    <path clip-path="url(#a)" d="m240.77058 436.08c0 2.48528-2.01471 4.5-4.5 4.5-2.48527 0-4.5-2.01472-4.5-4.5 0-2.4853 2.01473-4.5 4.5-4.5 2.48529 0 4.5 2.0147 4.5 4.5z"/>
    <path clip-path="url(#a)" d="m298.05884 480.40204c0 2.48529-2.01474 4.5-4.5 4.5-2.48529 0-4.5-2.01471-4.5-4.5 0-2.48526 2.01471-4.5 4.5-4.5 2.48526 0 4.5 2.01474 4.5 4.5z"/>
    <path clip-path="url(#a)" d="m355.34705 502.3343c0 2.48525-2.01471 4.5-4.5 4.5-2.48525 0-4.5-2.01475-4.5-4.5 0-2.4853 2.01475-4.5 4.5-4.5 2.48529 0 4.5 2.0147 4.5 4.5z"/>
    <path clip-path="url(#a)" d="m412.63528 516.72943c0 2.48527-2.01471 4.5-4.5 4.5-2.48526 0-4.5-2.01473-4.5-4.5 0-2.48529 2.01474-4.5 4.5-4.5 2.48529 0 4.5 2.01471 4.5 4.5z"/>
    <path clip-path="url(#a)" d="m469.92352 526.94586c0 2.48524-2.01472 4.5-4.5 4.5-2.48526 0-4.5-2.01476-4.5-4.5 0-2.48526 2.01474-4.5 4.5-4.5 2.48528 0 4.5 2.01474 4.5 4.5z"/>
    <path clip-path="url(#a)" d="m527.2118 534.9289c0 2.4853-2.0148 4.5-4.5 4.5-2.4853 0-4.5-2.0147-4.5-4.5s2.0147-4.5 4.5-4.5c2.4852 0 4.5 2.0147 4.5 4.5z"/>
    <path clip-path="url(#a)" d="m584.5 531.68994c0 2.48529-2.0147 4.5-4.5 4.5s-4.5-2.01471-4.5-4.5c0-2.48524 2.0147-4.5 4.5-4.5s4.5 2.01476 4.5 4.5z"/>
    <path clip-path="url(#a)" d="m641.7882 502.2281c0 2.48528-2.0147 4.5-4.5 4.5-2.4852 0-4.5-2.01472-4.5-4.5 0-2.4853 2.0148-4.5 4.5-4.5 2.4853 0 4.5 2.0147 4.5 4.5z"/>
    <path clip-path="url(#a)" d="m699.0765 395.86636c0 2.48529-2.01473 4.5-4.5 4.5-2.4853 0-4.5-2.01471-4.5-4.5s2.0147-4.5 4.5-4.5c2.48527 0 4.5 2.01471 4.5 4.5z"/>
    <path clip-path="url(#a)" d="m756.3647 242.29489c0 2.48528-2.0147 4.5-4.5 4.5s-4.5-2.01472-4.5-4.5c0-2.48529 2.0147-4.5 4.5-4.5s4.5 2.01471 4.5 4.5z"/>
    <path clip-path="url(#a)" d="m813.65295 160.46176c0 2.48528-2.01471 4.5-4.5 4.5s-4.5-2.01472-4.5-4.5c0-2.48529 2.01471-4.5 4.5-4.5s4.5 2.01471 4.5 4.5z"/>
    <path clip-path="url(#a)" d="m870.94116 54.776035c0 2.485285-2.01471 4.5-4.5 4.5-2.48526 0-4.5-2.014715-4.5-4.5 0-2.485279 2.01474-4.5 4.5-4.5 2.48529 0 4.5 2.014721 4.5 4.5z"/>
    <path clip-path="url(#a)" d="m928.22943 340.5849c0 2.48526-2.01473 4.5-4.5 4.5-2.48529 0-4.5-2.01474-4.5-4.5 0-2.4853 2.01471-4.5 4.5-4.5 2.48527 0 4.5 2.0147 4.5 4.5z"/>
    <path clip-path="url(#a)" d="m985.51764 90.46692c0 2.48528-2.01474 4.5-4.5 4.5-2.48529 0-4.5-2.01472-4.5-4.5 0-2.485284 2.01471-4.5 4.5-4.5 2.48526 0 4.5 2.014716 4.5 4.5z"/>
    <path clip-path="url(#a)" d="m1042.8059 110.4337c0 2.48528-2.0148 4.5-4.5 4.5-2.4853 0-4.5-2.01472-4.5-4.5s2.0147-4.5 4.5-4.5c2.4852 0 4.5 2.01472 4.5 4.5z"/>
  </g>
  <path d="m110.194115 100.248665q0-1.53125.3125-2.453125.3125-.9375.921875-1.4375.625-.5 1.5625-.5.6875 0 1.203125.28125.53125.28125.875.8125.34375.515625.53125 1.265625.1875.75.1875 2.03125 0 1.515625-.3125 2.4375-.296875.921875-.921875 1.4375-.609375.5-1.5625.5-1.234375 0-1.953125-.890625-.84375-1.0625-.84375-3.484375zm1.078125 0q0 2.109375.5 2.8125.5.703125 1.21875.703125.734375 0 1.21875-.703125.5-.703125.5-2.8125 0-2.125-.5-2.8125-.484375-.703125-1.234375-.703125-.71875 0-1.15625.609375-.546875.78125-.546875 2.90625zm6.484375 4.234375v-1.203125h1.203125v1.203125q0 .65625-.234375 1.0625-.234375.421875-.734375.640625l-.296875-.453125q.328125-.140625.484375-.4375.15625-.28125.1875-.8125zm7.90625-6.484375-1.046875.078125q-.140625-.625-.390625-.90625-.4375-.453125-1.0625-.453125-.5 0-.890625.28125-.484375.375-.78125 1.078125-.28125.6875-.296875 1.96875.375-.578125.921875-.859375.5625-.28125 1.171875-.28125 1.046875 0 1.78125.78125.75.78125.75 2 0 .8125-.359375 1.515625-.34375.6875-.953125 1.0625-.609375.359375-1.375.359375-1.328125 0-2.15625-.96875-.828125-.96875-.828125-3.1875 0-2.5.921875-3.625.796875-.984375 2.15625-.984375 1.015625 0 1.65625.578125.65625.5625.78125 1.5625zm-4.296875 3.703125q0 .546875.21875 1.046875.234375.484375.640625.75.421875.265625.890625.265625.65625 0 1.140625-.53125.484375-.546875.484375-1.46875 0-.890625-.484375-1.40625-.46875-.515625-1.1875-.515625-.71875 0-1.21875.515625-.484375.515625-.484375 1.34375zm7.45313-1.875q-.65625-.25-.98438-.6875-.3125-.453125-.3125-1.0625 0-.9375.67188-1.578125.6875-.640625 1.79688-.640625 1.125 0 1.8125.65625.6875.65625.6875 1.59375 0 .59375-.3125 1.03125-.3125.4375-.95313.6875.79688.25 1.20313.828125.40625.578125.40625 1.375 0 1.09375-.78125 1.84375-.76563.75-2.04688.75-1.26562 0-2.04688-.75-.78125-.75-.78125-1.875 0-.84375.421875-1.40625.437505-.5625 1.218755-.765625zm-.21875-1.796875q0 .609375.39063 1 .40625.390625 1.03125.390625.60937 0 1-.375.39062-.390625.39062-.953125 0-.578125-.40625-.96875-.40625-.40625-1-.40625-.60937 0-1.01562.390625-.39063.390625-.39063.921875zm-.32812 3.96875q0 .453125.20312.875.21875.421875.64063.65625.42187.234375.90625.234375.75 0 1.23437-.484375.5-.484375.5-1.234375 0-.765625-.5-1.265625-.5-.5-1.26562-.5-.75 0-1.23438.5-.48437.484375-.48437 1.21875z" stroke="#fff" stroke-linecap="round" stroke-linejoin="round" stroke-width="3"/>
  <path d="m110.194115 100.248665q0-1.53125.3125-2.453125.3125-.9375.921875-1.4375.625-.5 1.5625-.5.6875 0 1.203125.28125.53125.28125.875.8125.34375.515625.53125 1.265625.1875.75.1875 2.03125 0 1.515625-.3125 2.4375-.296875.921875-.921875 1.4375-.609375.5-1.5625.5-1.234375 0-1.953125-.890625-.84375-1.0625-.84375-3.484375zm1.078125 0q0 2.109375.5 2.8125.5.703125 1.21875.703125.734375 0 1.21875-.703125.5-.703125.5-2.8125 0-2.125-.5-2.8125-.484375-.703125-1.234375-.703125-.71875 0-1.15625.609375-.546875.78125-.546875 2.90625zm6.484375 4.234375v-1.203125h1.203125v1.203125q0 .65625-.234375 1.0625-.234375.421875-.734375.640625l-.296875-.453125q.328125-.140625.484375-.4375.15625-.28125.1875-.8125zm7.90625-6.484375-1.046875.078125q-.140625-.625-.390625-.90625-.4375-.453125-1.0625-.453125-.5 0-.890625.28125-.484375.375-.78125 1.078125-.28125.6875-.296875 1.96875.375-.578125.921875-.859375.5625-.28125 1.171875-.28125 1.046875 0 1.78125.78125.75.78125.75 2 0 .8125-.359375 1.515625-.34375.6875-.953125 1.0625-.609375.359375-1.375.359375-1.328125 0-2.15625-.96875-.828125-.96875-.828125-3.1875 0-2.5.921875-3.625.796875-.984375 2.15625-.984375 1.015625 0 1.65625.578125.65625.5625.78125 1.5625zm-4.296875 3.703125q0 .546875.21875 1.046875.234375.484375.640625.75.421875.265625.890625.265625.65625 0 1.140625-.53125.484375-.546875.484375-1.46875 0-.890625-.484375-1.40625-.46875-.515625-1.1875-.515625-.71875 0-1.21875.515625-.484375.515625-.484375 1.34375zm7.45313-1.875q-.65625-.25-.98438-.6875-.3125-.453125-.3125-1.0625 0-.9375.67188-1.578125.6875-.640625 1.79688-.640625 1.125 0 1.8125.65625.6875.65625.6875 1.59375 0 .59375-.3125 1.03125-.3125.4375-.95313.6875.79688.25 1.20313.828125.40625.578125.40625 1.375 0 1.09375-.78125 1.84375-.76563.75-2.04688.75-1.26562 0-2.04688-.75-.78125-.75-.78125-1.875 0-.84375.421875-1.40625.437505-.5625 1.218755-.765625zm-.21875-1.796875q0 .609375.39063 1 .40625.390625 1.03125.390625.60937 0 1-.375.39062-.390625.39062-.953125 0-.578125-.40625-.96875-.40625-.40625-1-.40625-.60937 0-1.01562.390625-.39063.390625-.39063.921875zm-.32812 3.96875q0 .453125.20312.875.21875.421875.64063.65625.42187.234375.90625.234375.75 0 1.23437-.484375.5-.484375.5-1.234375 0-.765625-.5-1.265625-.5-.5-1.26562-.5-.75 0-1.23438.5-.48437.484375-.48437 1.21875z" fill="#4285f4"/>
  <path d="m190.7645 346.58893q0-1.53125.3125-2.45313.3125-.9375.92187-1.4375.625-.5 1.5625-.5.6875 0 1.20313.28125.53125.28125.875.8125.34375.51563.53125 1.26563.1875.75.1875 2.03125 0 1.51562-.3125 2.4375-.29688.92187-.92188 1.4375-.60937.5-1.5625.5-1.23437 0-1.95312-.89063-.84375-1.0625-.84375-3.48437zm1.07812 0q0 2.10937.5 2.8125.5.70312 1.21875.70312.73438 0 1.21875-.70312.5-.70313.5-2.8125 0-2.125-.5-2.8125-.48437-.70313-1.23437-.70313-.71875 0-1.15625.60938-.54688.78125-.54688 2.90625zm6.48438 4.23437v-1.20312h1.20312v1.20312q0 .65625-.23437 1.0625-.23438.42188-.73438.64063l-.29687-.45313q.32812-.14062.48437-.4375.15625-.28125.1875-.8125zm2.4375-2.26562 1.0625-.14063q.17187.89063.60937 1.29688.4375.39062 1.0625.39062.75 0 1.26563-.51562.51562-.51563.51562-1.28125 0-.71875-.48437-1.1875-.46875-.48438-1.20313-.48438-.29687 0-.75.125l.125-.9375q.10938.01563.17188.01563.67187 0 1.20312-.34375.54688-.35938.54688-1.09375 0-.57813-.39063-.95313-.39062-.39062-1.01562-.39062-.60938 0-1.03125.39062-.40625.39063-.51563 1.15625l-1.0625-.1875q.1875-1.04687.875-1.625.6875-.59375 1.70313-.59375.70312 0 1.29687.3125.59375.29688.90625.8125.3125.51563.3125 1.10938 0 .54687-.29687 1.01562-.29688.45313-.875.71875.75.17188 1.17187.73438.42188.54687.42188 1.39062 0 1.125-.82813 1.90625-.8125.78125-2.0625.78125-1.125 0-1.875-.67187-.75-.6875-.85937-1.75zm10.375 2.26562v-2.0625h-3.71875v-.96875l3.92187-5.5625h.85938v5.5625h1.15625v.96875h-1.15625v2.0625zm0-3.03125v-3.85937l-2.6875 3.85937z" stroke="#fff" stroke-linecap="round" stroke-linejoin="round" stroke-width="3"/>
  <path d="m190.7645 346.58893q0-1.53125.3125-2.45313.3125-.9375.92187-1.4375.625-.5 1.5625-.5.6875 0 1.20313.28125.53125.28125.875.8125.34375.51563.53125 1.26563.1875.75.1875 2.03125 0 1.51562-.3125 2.4375-.29688.92187-.92188 1.4375-.60937.5-1.5625.5-1.23437 0-1.95312-.89063-.84375-1.0625-.84375-3.48437zm1.07812 0q0 2.10937.5 2.8125.5.70312 1.21875.70312.73438 0 1.21875-.70312.5-.70313.5-2.8125 0-2.125-.5-2.8125-.48437-.70313-1.23437-.70313-.71875 0-1.15625.60938-.54688.78125-.54688 2.90625zm6.48438 4.23437v-1.20312h1.20312v1.20312q0 .65625-.23437 1.0625-.23438.42188-.73438.64063l-.29687-.45313q.32812-.14062.48437-.4375.15625-.28125.1875-.8125zm2.4375-2.26562 1.0625-.14063q.17187.89063.60937 1.29688.4375.39062 1.0625.39062.75 0 1.26563-.51562.51562-.51563.51562-1.28125 0-.71875-.48437-1.1875-.46875-.48438-1.20313-.48438-.29687 0-.75.125l.125-.9375q.10938.01563.17188.01563.67187 0 1.20312-.34375.54688-.35938.54688-1.09375 0-.57813-.39063-.95313-.39062-.39062-1.01562-.39062-.60938 0-1.03125.39062-.40625.39063-.51563 1.15625l-1.0625-.1875q.1875-1.04687.875-1.625.6875-.59375 1.70313-.59375.70312 0 1.29687.3125.59375.29688.90625.8125.3125.51563.3125 1.10938 0 .54687-.29687 1.01562-.29688.45313-.875.71875.75.17188 1.17187.73438.42188.54687.42188 1.39062 0 1.125-.82813 1.90625-.8125.78125-2.0625.78125-1.125 0-1.875-.67187-.75-.6875-.85937-1.75zm10.375 2.26562v-2.0625h-3.71875v-.96875l3.92187-5.5625h.85938v5.5625h1.15625v.96875h-1.15625v2.0625zm0-3.03125v-3.85937l-2.6875 3.85937z" fill="#4285f4"/>
  <path d="m241.07755 418.47067q0-1.53125.3125-2.45312.3125-.9375.92187-1.4375.625-.5 1.5625-.5.6875 0 1.20313.28125.53125.28125.875.8125.34375.51562.53125 1.26562.1875.75.1875 2.03125 0 1.51563-.3125 2.4375-.29688.92188-.92188 1.4375-.60937.5-1.5625.5-1.23437 0-1.95312-.89062-.84375-1.0625-.84375-3.48438zm1.07812 0q0 2.10938.5 2.8125.5.70313 1.21875.70313.73438 0 1.21875-.70313.5-.70312.5-2.8125 0-2.125-.5-2.8125-.48437-.70312-1.23437-.70312-.71875 0-1.15625.60937-.54688.78125-.54688 2.90625zm6.48438 4.23438v-1.20313h1.20312v1.20313q0 .65625-.23437 1.0625-.23438.42187-.73438.64062l-.29687-.45312q.32812-.14063.48437-.4375.15625-.28125.1875-.8125zm7.98437-1.01563v1.01563h-5.6875q0-.375.125-.73438.21875-.57812.6875-1.14062.48438-.5625 1.39063-1.29688 1.40625-1.15625 1.89062-1.82812.5-.67188.5-1.26563 0-.625-.45312-1.04687-.45313-.4375-1.17188-.4375-.76562 0-1.21875.45312-.45312.45313-.46875 1.26563l-1.07812-.10938q.10937-1.21875.82812-1.84375.73438-.64062 1.96875-.64062 1.23438 0 1.95313.6875.71875.6875.71875 1.70312 0 .51563-.21875 1.01563-.20313.48437-.70313 1.04687-.48437.54688-1.60937 1.5-.95313.79688-1.23438 1.09375-.26562.28125-.4375.5625zm1.45313-1.25 1.0625-.14062q.17187.89062.60937 1.29687.4375.39063 1.0625.39063.75 0 1.26563-.51563.51562-.51562.51562-1.28125 0-.71875-.48437-1.1875-.46875-.48437-1.20313-.48437-.29687 0-.75.125l.125-.9375q.10938.01562.17188.01562.67187 0 1.20312-.34375.54688-.35937.54688-1.09375 0-.57812-.39063-.95312-.39062-.39063-1.01562-.39063-.60938 0-1.03125.39063-.40625.39062-.51563 1.15625l-1.0625-.1875q.1875-1.04688.875-1.625.6875-.59375 1.70313-.59375.70312 0 1.29687.3125.59375.29687.90625.8125.3125.51562.3125 1.10937 0 .54688-.29687 1.01563-.29688.45312-.875.71875.75.17187 1.17187.73437.42188.54688.42188 1.39063 0 1.125-.82813 1.90625-.8125.78125-2.0625.78125-1.125 0-1.875-.67188-.75-.6875-.85937-1.75z" stroke="#fff" stroke-linecap="round" stroke-linejoin="round" stroke-width="3"/>
  <path d="m241.07755 418.47067q0-1.53125.3125-2.45312.3125-.9375.92187-1.4375.625-.5 1.5625-.5.6875 0 1.20313.28125.53125.28125.875.8125.34375.51562.53125 1.26562.1875.75.1875 2.03125 0 1.51563-.3125 2.4375-.29688.92188-.92188 1.4375-.60937.5-1.5625.5-1.23437 0-1.95312-.89062-.84375-1.0625-.84375-3.48438zm1.07812 0q0 2.10938.5 2.8125.5.70313 1.21875.70313.73438 0 1.21875-.70313.5-.70312.5-2.8125 0-2.125-.5-2.8125-.48437-.70312-1.23437-.70312-.71875 0-1.15625.60937-.54688.78125-.54688 2.90625zm6.48438 4.23438v-1.20313h1.20312v1.20313q0 .65625-.23437 1.0625-.23438.42187-.73438.64062l-.29687-.45312q.32812-.14063.48437-.4375.15625-.28125.1875-.8125zm7.98437-1.01563v1.01563h-5.6875q0-.375.125-.73438.21875-.57812.6875-1.14062.48438-.5625 1.39063-1.29688 1.40625-1.15625 1.89062-1.82812.5-.67188.5-1.26563 0-.625-.45312-1.04687-.45313-.4375-1.17188-.4375-.76562 0-1.21875.45312-.45312.45313-.46875 1.26563l-1.07812-.10938q.10937-1.21875.82812-1.84375.73438-.64062 1.96875-.64062 1.23438 0 1.95313.6875.71875.6875.71875 1.70312 0 .51563-.21875 1.01563-.20313.48437-.70313 1.04687-.48437.54688-1.60937 1.5-.95313.79688-1.23438 1.09375-.26562.28125-.4375.5625zm1.45313-1.25 1.0625-.14062q.17187.89062.60937 1.29687.4375.39063 1.0625.39063.75 0 1.26563-.51563.51562-.51562.51562-1.28125 0-.71875-.48437-1.1875-.46875-.48437-1.20313-.48437-.29687 0-.75.125l.125-.9375q.10938.01562.17188.01562.67187 0 1.20312-.34375.54688-.35937.54688-1.09375 0-.57812-.39063-.95312-.39062-.39063-1.01562-.39063-.60938 0-1.03125.39063-.40625.39062-.51563 1.15625l-1.0625-.1875q.1875-1.04688.875-1.625.6875-.59375 1.70313-.59375.70312 0 1.29687.3125.59375.29687.90625.8125.3125.51562.3125 1.10937 0 .54688-.29687 1.01563-.29688.45312-.875.71875.75.17187 1.17187.73437.42188.54688.42188 1.39063 0 1.125-.82813 1.90625-.8125.78125-2.0625.78125-1.125 0-1.875-.67188-.75-.6875-.85937-1.75z" fill="#4285f4"/>
  <path d="m292.38702 466.75613q0-1.53125.3125-2.45313.3125-.9375.92188-1.4375.625-.5 1.5625-.5.6875 0 1.20312.28126.53125.28124.875.8125.34375.51562.53125 1.26562.1875.75.1875 2.03125 0 1.51563-.3125 2.4375-.29687.92187-.92187 1.4375-.60938.5-1.5625.5-1.23438 0-1.95313-.89063-.84375-1.0625-.84375-3.48437zm1.07813 0q0 2.10937.5 2.8125.5.70313 1.21875.70313.73437 0 1.21875-.70313.5-.70313.5-2.8125 0-2.125-.5-2.8125-.48438-.70313-1.23438-.70313-.71875 0-1.15625.60938-.54687.78125-.54687 2.90625zm6.48437 4.23437v-1.20312h1.20313v1.20312q0 .65626-.23438 1.0625-.23437.42188-.73437.64063l-.29688-.45313q.32813-.14062.48438-.4375.15625-.28124.1875-.8125zm6.40625 0h-1.04687v-6.71874q-.39063.35937-1.01563.73437-.60937.35937-1.09375.53125v-1.01562q.875-.42188 1.53125-1 .67188-.59376.95313-1.15626h.67187zm3.09375-7.46874v-1.01563h5.5625v.82813q-.8125.875-1.625 2.32812-.79687 1.4375-1.23437 2.96875-.32813 1.07813-.40625 2.35937h-1.09375q.01562-1.01562.39062-2.45312.39063-1.4375 1.09375-2.76562.71875-1.32813 1.53125-2.25z" stroke="#fff" stroke-linecap="round" stroke-linejoin="round" stroke-width="3"/>
  <path d="m292.38702 466.75613q0-1.53125.3125-2.45313.3125-.9375.92188-1.4375.625-.5 1.5625-.5.6875 0 1.20312.28126.53125.28124.875.8125.34375.51562.53125 1.26562.1875.75.1875 2.03125 0 1.51563-.3125 2.4375-.29687.92187-.92187 1.4375-.60938.5-1.5625.5-1.23438 0-1.95313-.89063-.84375-1.0625-.84375-3.48437zm1.07813 0q0 2.10937.5 2.8125.5.70313 1.21875.70313.73437 0 1.21875-.70313.5-.70313.5-2.8125 0-2.125-.5-2.8125-.48438-.70313-1.23438-.70313-.71875 0-1.15625.60938-.54687.78125-.54687 2.90625zm6.48437 4.23437v-1.20312h1.20313v1.20312q0 .65626-.23438 1.0625-.23437.42188-.73437.64063l-.29688-.45313q.32813-.14062.48438-.4375.15625-.28124.1875-.8125zm6.40625 0h-1.04687v-6.71874q-.39063.35937-1.01563.73437-.60937.35937-1.09375.53125v-1.01562q.875-.42188 1.53125-1 .67188-.59376.95313-1.15626h.67187zm3.09375-7.46874v-1.01563h5.5625v.82813q-.8125.875-1.625 2.32812-.79687 1.4375-1.23437 2.96875-.32813 1.07813-.40625 2.35937h-1.09375q.01562-1.01562.39062-2.45312.39063-1.4375 1.09375-2.76562.71875-1.32813 1.53125-2.25z" fill="#4285f4"/>
  <path d="m341.7036 482.74326q0-1.53126.3125-2.45313.3125-.9375.9219-1.4375.625-.5 1.5625-.5.6875 0 1.2031.28125.53126.28125.875.8125.34376.51562.53126 1.26562.1875.75.1875 2.03126 0 1.51562-.3125 2.4375-.29686.92187-.92186 1.4375-.6094.5-1.5625.5-1.2344 0-1.95314-.89063-.84376-1.0625-.84376-3.48437zm1.07814 0q0 2.10937.5 2.8125.5.70312 1.21876.70312.73436 0 1.21874-.70312.5-.70313.5-2.8125 0-2.125-.5-2.8125-.48438-.70313-1.23438-.70313-.71876 0-1.15626.60937-.54686.78126-.54686 2.90626zm6.48436 4.23437v-1.20313h1.20314v1.20313q0 .65625-.23438 1.0625-.23436.42187-.73436.64063l-.2969-.45313q.32814-.14063.4844-.4375.15624-.28125.1875-.8125zm6.40626 0h-1.04686v-6.71875q-.39064.35938-1.01564.73438-.60936.35937-1.09376.53124v-1.01562q.875-.42188 1.53126-1 .67188-.59375.95314-1.15625h.67186zm3.03124-2.26563 1.0625-.14062q.1719.89062.6094 1.29688.4375.39062 1.0625.39062.75 0 1.2656-.51562.51564-.51563.51564-1.28126 0-.71874-.48438-1.1875-.46876-.48437-1.20312-.48437-.29688 0-.75.125l.125-.9375q.10936.01563.17186.01563.6719 0 1.20314-.34376.54686-.35937.54686-1.09374 0-.57813-.3906-.95313-.39064-.39063-1.01564-.39063-.60936 0-1.03126.39063-.40624.39063-.5156 1.15625l-1.0625-.1875q.1875-1.04688.875-1.625.6875-.59375 1.7031-.59375.70314 0 1.2969.3125.59374.29687.90624.8125.3125.51563.3125 1.10937 0 .54688-.29688 1.01563-.29686.45313-.875.71875.75.17188 1.17188.73438.42186.54687.42186 1.39062 0 1.125-.8281 1.90625-.8125.78125-2.0625.78125-1.125 0-1.875-.67188-.75-.6875-.8594-1.75z" stroke="#fff" stroke-linecap="round" stroke-linejoin="round" stroke-width="3"/>
  <path d="m341.7036 482.74326q0-1.53126.3125-2.45313.3125-.9375.9219-1.4375.625-.5 1.5625-.5.6875 0 1.2031.28125.53126.28125.875.8125.34376.51562.53126 1.26562.1875.75.1875 2.03126 0 1.51562-.3125 2.4375-.29686.92187-.92186 1.4375-.6094.5-1.5625.5-1.2344 0-1.95314-.89063-.84376-1.0625-.84376-3.48437zm1.07814 0q0 2.10937.5 2.8125.5.70312 1.21876.70312.73436 0 1.21874-.70312.5-.70313.5-2.8125 0-2.125-.5-2.8125-.48438-.70313-1.23438-.70313-.71876 0-1.15626.60937-.54686.78126-.54686 2.90626zm6.48436 4.23437v-1.20313h1.20314v1.20313q0 .65625-.23438 1.0625-.23436.42187-.73436.64063l-.2969-.45313q.32814-.14063.4844-.4375.15624-.28125.1875-.8125zm6.40626 0h-1.04686v-6.71875q-.39064.35938-1.01564.73438-.60936.35937-1.09376.53124v-1.01562q.875-.42188 1.53126-1 .67188-.59375.95314-1.15625h.67186zm3.03124-2.26563 1.0625-.14062q.1719.89062.6094 1.29688.4375.39062 1.0625.39062.75 0 1.2656-.51562.51564-.51563.51564-1.28126 0-.71874-.48438-1.1875-.46876-.48437-1.20312-.48437-.29688 0-.75.125l.125-.9375q.10936.01563.17186.01563.6719 0 1.20314-.34376.54686-.35937.54686-1.09374 0-.57813-.3906-.95313-.39064-.39063-1.01564-.39063-.60936 0-1.03126.39063-.40624.39063-.5156 1.15625l-1.0625-.1875q.1875-1.04688.875-1.625.6875-.59375 1.7031-.59375.70314 0 1.2969.3125.59374.29687.90624.8125.3125.51563.3125 1.10937 0 .54688-.29688 1.01563-.29686.45313-.875.71875.75.17188 1.17188.73438.42186.54687.42186 1.39062 0 1.125-.8281 1.90625-.8125.78125-2.0625.78125-1.125 0-1.875-.67188-.75-.6875-.8594-1.75z" fill="#4285f4"/>
  <path d="m396.63528 494.49506q0-1.53126.3125-2.45313.3125-.9375.92188-1.4375.625-.5 1.5625-.5.6875 0 1.20312.28125.53125.28125.875.8125.34375.51562.53125 1.26562.1875.75.1875 2.03126 0 1.51562-.3125 2.4375-.29687.92187-.92187 1.4375-.60938.5-1.5625.5-1.23438 0-1.95313-.89063-.84375-1.0625-.84375-3.48437zm1.07812 0q0 2.10937.5 2.8125.5.70312 1.21876.70312.73437 0 1.21874-.70312.5-.70313.5-2.8125 0-2.125-.5-2.8125-.48437-.70313-1.23437-.70313-.71875 0-1.15625.60937-.54688.78126-.54688 2.90626zm6.48438 4.23437v-1.20313h1.20312v1.20313q0 .65625-.23437 1.0625-.23437.42187-.73437.64063l-.29688-.45313q.32812-.14063.48438-.4375.15624-.28125.1875-.8125zm6.40625 0h-1.04687v-6.71875q-.39063.35938-1.01563.73438-.60937.35937-1.09375.53124v-1.01562q.875-.42188 1.53125-1 .67187-.59375.95313-1.15625h.67187zm7 0h-1.04687v-6.71875q-.39063.35938-1.01563.73438-.60937.35937-1.09375.53124v-1.01562q.875-.42188 1.53125-1 .67187-.59375.95313-1.15625h.67187z" stroke="#fff" stroke-linecap="round" stroke-linejoin="round" stroke-width="3"/>
  <path d="m396.63528 494.49506q0-1.53126.3125-2.45313.3125-.9375.92188-1.4375.625-.5 1.5625-.5.6875 0 1.20312.28125.53125.28125.875.8125.34375.51562.53125 1.26562.1875.75.1875 2.03126 0 1.51562-.3125 2.4375-.29687.92187-.92187 1.4375-.60938.5-1.5625.5-1.23438 0-1.95313-.89063-.84375-1.0625-.84375-3.48437zm1.07812 0q0 2.10937.5 2.8125.5.70312 1.21876.70312.73437 0 1.21874-.70312.5-.70313.5-2.8125 0-2.125-.5-2.8125-.48437-.70313-1.23437-.70313-.71875 0-1.15625.60937-.54688.78126-.54688 2.90626zm6.48438 4.23437v-1.20313h1.20312v1.20313q0 .65625-.23437 1.0625-.23437.42187-.73437.64063l-.29688-.45313q.32812-.14063.48438-.4375.15624-.28125.1875-.8125zm6.40625 0h-1.04687v-6.71875q-.39063.35938-1.01563.73438-.60937.35937-1.09375.53124v-1.01562q.875-.42188 1.53125-1 .67187-.59375.95313-1.15625h.67187zm7 0h-1.04687v-6.71875q-.39063.35938-1.01563.73438-.60937.35937-1.09375.53124v-1.01562q.875-.42188 1.53125-1 .67187-.59375.95313-1.15625h.67187z" fill="#4285f4"/>
  <path d="m453.92352 504.71146q0-1.53126.3125-2.45313.3125-.9375.92188-1.4375.625-.5 1.5625-.5.6875 0 1.20312.28125.53125.28125.875.8125.34375.51562.53125 1.26562.1875.75.1875 2.03126 0 1.51562-.3125 2.4375-.29687.92187-.92187 1.4375-.60938.5-1.5625.5-1.23438 0-1.95313-.89063-.84375-1.0625-.84375-3.48437zm1.07813 0q0 2.10937.5 2.8125.5.70312 1.21875.70312.73437 0 1.21875-.70312.5-.70313.5-2.8125 0-2.125-.5-2.8125-.48438-.70313-1.23438-.70313-.71875 0-1.15625.60937-.54687.78126-.54687 2.90626zm6.48437 4.23437v-1.20313h1.20313v1.20313q0 .65625-.23438 1.0625-.23437.42187-.73437.64063l-.29688-.45313q.32813-.14063.48438-.4375.15625-.28125.1875-.8125zm6.40625 0h-1.04687v-6.71875q-.39063.35938-1.01563.73438-.60937.35937-1.09375.53124v-1.01562q.875-.42188 1.53125-1 .67188-.59375.95313-1.15625h.67187zm3.03125-4.23437q0-1.53126.3125-2.45313.3125-.9375.92188-1.4375.625-.5 1.5625-.5.6875 0 1.20312.28125.53125.28125.875.8125.34375.51562.53125 1.26562.1875.75.1875 2.03126 0 1.51562-.3125 2.4375-.29687.92187-.92187 1.4375-.60938.5-1.5625.5-1.23438 0-1.95313-.89063-.84375-1.0625-.84375-3.48437zm1.07813 0q0 2.10937.5 2.8125.5.70312 1.21875.70312.73437 0 1.21875-.70312.5-.70313.5-2.8125 0-2.125-.5-2.8125-.48438-.70313-1.23438-.70313-.71875 0-1.15625.60937-.54687.78126-.54687 2.90626z" stroke="#fff" stroke-linecap="round" stroke-linejoin="round" stroke-width="3"/>
  <path d="m453.92352 504.71146q0-1.53126.3125-2.45313.3125-.9375.92188-1.4375.625-.5 1.5625-.5.6875 0 1.20312.28125.53125.28125.875.8125.34375.51562.53125 1.26562.1875.75.1875 2.03126 0 1.51562-.3125 2.4375-.29687.92187-.92187 1.4375-.60938.5-1.5625.5-1.23438 0-1.95313-.89063-.84375-1.0625-.84375-3.48437zm1.07813 0q0 2.10937.5 2.8125.5.70312 1.21875.70312.73437 0 1.21875-.70312.5-.70313.5-2.8125 0-2.125-.5-2.8125-.48438-.70313-1.23438-.70313-.71875 0-1.15625.60937-.54687.78126-.54687 2.90626zm6.48437 4.23437v-1.20313h1.20313v1.20313q0 .65625-.23438 1.0625-.23437.42187-.73437.64063l-.29688-.45313q.32813-.14063.48438-.4375.15625-.28125.1875-.8125zm6.40625 0h-1.04687v-6.71875q-.39063.35938-1.01563.73438-.60937.35937-1.09375.53124v-1.01562q.875-.42188 1.53125-1 .67188-.59375.95313-1.15625h.67187zm3.03125-4.23437q0-1.53126.3125-2.45313.3125-.9375.92188-1.4375.625-.5 1.5625-.5.6875 0 1.20312.28125.53125.28125.875.8125.34375.51562.53125 1.26562.1875.75.1875 2.03126 0 1.51562-.3125 2.4375-.29687.92187-.92187 1.4375-.60938.5-1.5625.5-1.23438 0-1.95313-.89063-.84375-1.0625-.84375-3.48437zm1.07813 0q0 2.10937.5 2.8125.5.70312 1.21875.70312.73437 0 1.21875-.70312.5-.70313.5-2.8125 0-2.125-.5-2.8125-.48438-.70313-1.23438-.70313-.71875 0-1.15625.60937-.54687.78126-.54687 2.90626z" fill="#4285f4"/>
  <path d="m511.21176 512.6945q0-1.5312.3125-2.45308.3125-.9375.92191-1.4375.625-.5 1.5625-.5.6875 0 1.20313.28125.53124.28125.875.8125.34374.51563.53124 1.26563.1875.75.1875 2.0312 0 1.51564-.3125 2.4375-.29687.9219-.92187 1.4375-.60937.5-1.5625.5-1.23437 0-1.95313-.8906-.84378-1.0625-.84378-3.4844zm1.07814 0q0 2.1094.5 2.8125.5.70314 1.21877.70314.73437 0 1.21873-.70314.5-.7031.5-2.8125 0-2.12495-.5-2.81245-.48436-.70313-1.23436-.70313-.71874 0-1.15624.60938-.5469.78125-.5469 2.9062zm6.4844 4.2344v-1.20313h1.2031v1.20313q0 .65624-.23436 1.0625-.23437.42187-.73437.6406l-.29687-.4531q.3281-.14063.48437-.4375.15623-.28126.1875-.8125zm2.4375-4.2344q0-1.5312.3125-2.45308.3125-.9375.92187-1.4375.625-.5 1.5625-.5.6875 0 1.20313.28125.53124.28125.875.8125.34374.51563.53124 1.26563.1875.75.1875 2.0312 0 1.51564-.3125 2.4375-.29687.9219-.92187 1.4375-.60937.5-1.5625.5-1.23437 0-1.95313-.8906-.84374-1.0625-.84374-3.4844zm1.0781 0q0 2.1094.5 2.8125.5.70314 1.21877.70314.73437 0 1.21873-.70314.5-.7031.5-2.8125 0-2.12495-.5-2.81245-.48436-.70313-1.23436-.70313-.71874 0-1.15624.60938-.5469.78125-.5469 2.9062zm6.07814 2.25 1.01563-.09373q.125.71873.48437 1.04687.375.3125.9375.3125.48436 0 .84376-.21874.375-.2344.60937-.59376.23437-.375.39063-1 .15624-.64064.15624-1.29687 0-.07813 0-.21877-.3125.5-.85937.82814-.54687.3125-1.1875.3125-1.07813 0-1.8125-.76564-.73437-.78123-.73437-2.04683 0-1.3125.7656-2.10937.78127-.79688 1.9375-.79688.82814 0 1.51564.45313.70313.45312 1.0625 1.29687.35936.82813.35936 2.40622 0 1.64063-.35936 2.625-.34374.96876-1.0625 1.48436-.70314.5-1.64064.5-1.0156 0-1.65623-.54686-.64063-.5625-.76563-1.57814zm4.3125-3.79683q0-.90625-.48437-1.4375-.46877-.53125-1.15627-.53125-.7031 0-1.23436.57813-.51564.5625-.51564 1.48437 0 .81248.5 1.32808.5.51564 1.21877.51564.73437 0 1.20313-.51564.46874-.5156.46874-1.42183z" stroke="#fff" stroke-linecap="round" stroke-linejoin="round" stroke-width="3"/>
  <path d="m511.21176 512.6945q0-1.53123.3125-2.4531.3125-.9375.92191-1.4375.625-.5 1.5625-.5.6875 0 1.20313.28124.53124.28126.875.8125.34374.51563.53124 1.26563.1875.75.1875 2.03123 0 1.51564-.3125 2.4375-.29687.9219-.92187 1.4375-.60937.5-1.5625.5-1.23437 0-1.95313-.8906-.84378-1.0625-.84378-3.4844zm1.07814 0q0 2.1094.5 2.8125.5.70314 1.21877.70314.73437 0 1.21873-.70314.5-.7031.5-2.8125 0-2.12498-.5-2.81248-.48436-.70312-1.23436-.70312-.71874 0-1.15624.60937-.5469.78125-.5469 2.90623zm6.4844 4.2344v-1.20313h1.2031v1.20313q0 .65624-.23436 1.0625-.23437.42187-.73437.6406l-.29687-.4531q.3281-.14063.48437-.4375.15623-.28126.1875-.8125zm2.4375-4.2344q0-1.53123.3125-2.4531.3125-.9375.92187-1.4375.625-.5 1.5625-.5.6875 0 1.20313.28124.53124.28126.875.8125.34374.51563.53124 1.26563.1875.75.1875 2.03123 0 1.51564-.3125 2.4375-.29687.9219-.92187 1.4375-.60937.5-1.5625.5-1.23437 0-1.95313-.8906-.84374-1.0625-.84374-3.4844zm1.0781 0q0 2.1094.5 2.8125.5.70314 1.21877.70314.73437 0 1.21873-.70314.5-.7031.5-2.8125 0-2.12498-.5-2.81248-.48436-.70312-1.23436-.70312-.71874 0-1.15624.60937-.5469.78125-.5469 2.90623zm6.07814 2.25 1.01563-.09373q.125.71873.48437 1.04687.375.3125.9375.3125.48436 0 .84376-.21874.375-.2344.60937-.59376.23437-.375.39063-1 .15624-.64064.15624-1.29687 0-.07813 0-.21877-.3125.5-.85937.82814-.54687.3125-1.1875.3125-1.07813 0-1.8125-.76564-.73437-.78123-.73437-2.04686 0-1.3125.7656-2.10937.78127-.79687 1.9375-.79687.82814 0 1.51564.45312.70313.45312 1.0625 1.29688.35936.82812.35936 2.40624 0 1.64063-.35936 2.625-.34374.96876-1.0625 1.48436-.70314.5-1.64064.5-1.0156 0-1.65623-.54686-.64063-.5625-.76563-1.57814zm4.3125-3.79686q0-.90624-.48437-1.4375-.46877-.53124-1.15627-.53124-.7031 0-1.23436.57812-.51564.5625-.51564 1.48438 0 .8125.5 1.3281.5.51564 1.21877.51564.73437 0 1.20313-.51564.46874-.5156.46874-1.42186z" fill="#4285f4"/>
  <path d="m568.5 509.4556q0-1.53125.3125-2.45313.3125-.9375.9219-1.4375.625-.5 1.5625-.5.6875 0 1.2031.28125.53125.28125.875.8125.34375.51563.53125 1.26563.1875.75.1875 2.03125 0 1.51562-.3125 2.4375-.29685.92184-.92185 1.43747-.6094.5-1.5625.5-1.2344 0-1.95315-.89063-.84375-1.06247-.84375-3.48434zm1.0781 0q0 2.10937.5 2.81247.5.70313 1.2188.70313.73435 0 1.2187-.70313.5-.7031.5-2.81247 0-2.125-.5-2.8125-.48435-.70313-1.23435-.70313-.71875 0-1.15625.60938-.5469.78125-.5469 2.90625zm6.4844 4.23434v-1.20314h1.2031v1.20314q0 .65626-.23435 1.0625-.23435.42186-.73435.64063l-.2969-.45313q.3281-.14064.4844-.4375.1562-.28124.1875-.8125zm2.4375-4.23434q0-1.53125.3125-2.45313.3125-.9375.9219-1.4375.625-.5 1.5625-.5.6875 0 1.2031.28125.53125.28125.875.8125.34375.51563.53125 1.26563.1875.75.1875 2.03125 0 1.51562-.3125 2.4375-.29685.92184-.92185 1.43747-.6094.5-1.5625.5-1.2344 0-1.95315-.89063-.84375-1.06247-.84375-3.48434zm1.0781 0q0 2.10937.5 2.81247.5.70313 1.2188.70313.73435 0 1.2187-.70313.5-.7031.5-2.81247 0-2.125-.5-2.8125-.48435-.70313-1.23435-.70313-.71875 0-1.15625.60938-.5469.78125-.5469 2.90625zm6.07815 2.25 1.01565-.09375q.125.71872.48435 1.04685.375.3125.9375.3125.48435 0 .84375-.21876.375-.23437.6094-.59374.23435-.37498.3906-.99998.15625-.64062.15625-1.29687 0-.07813 0-.21875-.3125.5-.85935.82812-.5469.3125-1.1875.3125-1.07815 0-1.8125-.76562-.7344-.78125-.7344-2.04688 0-1.3125.7656-2.10937.7813-.79688 1.9375-.79688.82815 0 1.51565.45313.70315.45312 1.0625 1.29687.35935.82813.35935 2.40625 0 1.64063-.35935 2.625-.34375.96872-1.0625 1.48435-.70315.5-1.64065.5-1.0156 0-1.6562-.54687-.64065-.5625-.76565-1.5781zm4.3125-3.79688q0-.90625-.48435-1.4375-.4688-.53125-1.1563-.53125-.7031 0-1.23435.57813-.51565.5625-.51565 1.48437 0 .8125.5 1.32813.5.51562 1.2188.51562.73435 0 1.2031-.51562.46875-.51563.46875-1.42188z" stroke="#fff" stroke-linecap="round" stroke-linejoin="round" stroke-width="3"/>
  <path d="m568.5 509.45557q0-1.53125.3125-2.45313.3125-.9375.9219-1.4375.625-.5 1.5625-.5.6875 0 1.2031.28126.53125.28124.875.8125.34375.51562.53125 1.26562.1875.75.1875 2.03125 0 1.51563-.3125 2.4375-.29685.92187-.92185 1.4375-.6094.5-1.5625.5-1.2344 0-1.95315-.89063-.84375-1.0625-.84375-3.48437zm1.0781 0q0 2.10937.5 2.8125.5.70313 1.2188.70313.73435 0 1.2187-.70313.5-.70313.5-2.8125 0-2.125-.5-2.8125-.48435-.70313-1.23435-.70313-.71875 0-1.15625.60938-.5469.78125-.5469 2.90625zm6.4844 4.23437v-1.20314h1.2031v1.20314q0 .65626-.23435 1.0625-.23435.42186-.73435.64063l-.2969-.45313q.3281-.14064.4844-.4375.1562-.28124.1875-.8125zm2.4375-4.23437q0-1.53125.3125-2.45313.3125-.9375.9219-1.4375.625-.5 1.5625-.5.6875 0 1.2031.28126.53125.28124.875.8125.34375.51562.53125 1.26562.1875.75.1875 2.03125 0 1.51563-.3125 2.4375-.29685.92187-.92185 1.4375-.6094.5-1.5625.5-1.2344 0-1.95315-.89063-.84375-1.0625-.84375-3.48437zm1.0781 0q0 2.10937.5 2.8125.5.70313 1.2188.70313.73435 0 1.2187-.70313.5-.70313.5-2.8125 0-2.125-.5-2.8125-.48435-.70313-1.23435-.70313-.71875 0-1.15625.60938-.5469.78125-.5469 2.90625zm6.07815 2.25 1.01565-.09375q.125.71875.48435 1.04688.375.3125.9375.3125.48435 0 .84375-.21876.375-.23437.6094-.59374.23435-.375.3906-1 .15625-.64063.15625-1.29688 0-.07812 0-.21875-.3125.5-.85935.82813-.5469.3125-1.1875.3125-1.07815 0-1.8125-.76563-.7344-.78125-.7344-2.04687 0-1.3125.7656-2.10938.7813-.79688 1.9375-.79688.82815 0 1.51565.45313.70315.45313 1.0625 1.29687.35935.82813.35935 2.40626 0 1.64062-.35935 2.625-.34375.96874-1.0625 1.48437-.70315.5-1.64065.5-1.0156 0-1.6562-.54687-.64065-.5625-.76565-1.57813zm4.3125-3.79687q0-.90626-.48435-1.4375-.4688-.53126-1.1563-.53126-.7031 0-1.23435.57813-.51565.5625-.51565 1.48437 0 .8125.5 1.32813.5.51563 1.2188.51563.73435 0 1.2031-.51563.46875-.51563.46875-1.42187z" fill="#4285f4"/>
  <path d="m612.2015 482.63705q0-1.53125.3125-2.45312.3125-.9375.92185-1.4375.625-.5 1.5625-.5.6875 0 1.20315.28125.5312.28125.875.8125.3437.51562.5312 1.26562.1875.75.1875 2.03125 0 1.51563-.3125 2.4375-.29685.92188-.92185 1.4375-.60935.5-1.5625.5-1.23435 0-1.95315-.89062-.8437-1.0625-.8437-3.48438zm1.0781 0q0 2.10938.5 2.8125.5.70313 1.21875.70313.73435 0 1.21875-.70313.5-.70312.5-2.8125 0-2.125-.5-2.8125-.4844-.70312-1.2344-.70312-.7187 0-1.1562.60937-.5469.78125-.5469 2.90625zm6.4844 4.23438v-1.20313h1.2031v1.20313q0 .65625-.2344 1.0625-.23435.42187-.73435.64062l-.29685-.45312q.3281-.14063.48435-.4375.15625-.28125.1875-.8125zm6.4062 0h-1.04685v-6.71875q-.39065.35937-1.01565.73437-.60935.35938-1.0937.53125v-1.01562q.875-.42188 1.5312-1 .6719-.59375.95315-1.15625h.67185zm3.0313-2.26563 1.0625-.14062q.17185.89062.60935 1.29687.4375.39063 1.0625.39063.75 0 1.26565-.51563.5156-.51562.5156-1.28125 0-.71875-.4844-1.1875-.4687-.48437-1.2031-.48437-.2969 0-.75.125l.125-.9375q.1094.01562.1719.01562.67185 0 1.2031-.34375.5469-.35937.5469-1.09375 0-.57812-.39065-.95312-.39065-.39063-1.01565-.39063-.60935 0-1.0312.39063-.4063.39062-.51565 1.15625l-1.0625-.1875q.1875-1.04688.875-1.625.6875-.59375 1.70315-.59375.7031 0 1.29685.3125.59375.29687.90625.8125.3125.51562.3125 1.10937 0 .54688-.2969 1.01563-.29685.45312-.875.71875.75.17187 1.1719.73437.4219.54688.4219 1.39063 0 1.125-.82815 1.90625-.8125.78125-2.0625.78125-1.125 0-1.875-.67188-.75-.6875-.85935-1.75z" stroke="#fff" stroke-linecap="round" stroke-linejoin="round" stroke-width="3"/>
  <path d="m612.2015 482.63705q0-1.53125.3125-2.45312.3125-.9375.92185-1.4375.625-.5 1.5625-.5.6875 0 1.20315.28125.5312.28125.875.8125.3437.51562.5312 1.26562.1875.75.1875 2.03125 0 1.51563-.3125 2.4375-.29685.92188-.92185 1.4375-.60935.5-1.5625.5-1.23435 0-1.95315-.89062-.8437-1.0625-.8437-3.48438zm1.0781 0q0 2.10938.5 2.8125.5.70313 1.21875.70313.73435 0 1.21875-.70313.5-.70312.5-2.8125 0-2.125-.5-2.8125-.4844-.70312-1.2344-.70312-.7187 0-1.1562.60937-.5469.78125-.5469 2.90625zm6.4844 4.23438v-1.20313h1.2031v1.20313q0 .65625-.2344 1.0625-.23435.42187-.73435.64062l-.29685-.45312q.3281-.14063.48435-.4375.15625-.28125.1875-.8125zm6.4062 0h-1.04685v-6.71875q-.39065.35937-1.01565.73437-.60935.35938-1.0937.53125v-1.01562q.875-.42188 1.5312-1 .6719-.59375.95315-1.15625h.67185zm3.0313-2.26563 1.0625-.14062q.17185.89062.60935 1.29687.4375.39063 1.0625.39063.75 0 1.26565-.51563.5156-.51562.5156-1.28125 0-.71875-.4844-1.1875-.4687-.48437-1.2031-.48437-.2969 0-.75.125l.125-.9375q.1094.01562.1719.01562.67185 0 1.2031-.34375.5469-.35937.5469-1.09375 0-.57812-.39065-.95312-.39065-.39063-1.01565-.39063-.60935 0-1.0312.39063-.4063.39062-.51565 1.15625l-1.0625-.1875q.1875-1.04688.875-1.625.6875-.59375 1.70315-.59375.7031 0 1.29685.3125.59375.29687.90625.8125.3125.51562.3125 1.10937 0 .54688-.2969 1.01563-.29685.45312-.875.71875.75.17187 1.1719.73437.4219.54688.4219 1.39063 0 1.125-.82815 1.90625-.8125.78125-2.0625.78125-1.125 0-1.875-.67188-.75-.6875-.85935-1.75z" fill="#4285f4"/>
  <path d="m660.5216 386.18384q0-1.53124.3125-2.45314.3125-.9375.9219-1.4375.625-.5 1.5625-.5.6875 0 1.2031.28126.53126.28124.875.8125.34376.51564.53126 1.26564.1875.75.1875 2.03124 0 1.51562-.3125 2.4375-.29686.92186-.92186 1.4375-.6094.5-1.5625.5-1.2344 0-1.95314-.89064-.84376-1.0625-.84376-3.48436zm1.07813 0q0 2.10936.5 2.8125.5.70312 1.21877.70312.73436 0 1.21873-.70312.5-.70314.5-2.8125 0-2.125-.5-2.8125-.48437-.70314-1.23437-.70314-.71876 0-1.15626.6094-.54687.78124-.54687 2.90624zm6.48437 4.23436v-1.2031h1.20313v1.2031q0 .65626-.23437 1.0625-.23436.4219-.73436.64064l-.2969-.45314q.32813-.1406.4844-.4375.15623-.28124.1875-.8125zm7.9844-1.0156v1.0156h-5.6875q0-.375.125-.73436.21873-.57814.6875-1.14064.48436-.5625 1.3906-1.29686 1.40626-1.15624 1.89063-1.82814.5-.67186.5-1.2656 0-.625-.45313-1.0469-.4531-.4375-1.17187-.4375-.76563 0-1.21873.45314-.45314.45312-.46877 1.26562l-1.07813-.10936q.1094-1.21876.82813-1.84376.73437-.64064 1.96877-.64064 1.23436 0 1.9531.6875.71876.6875.71876 1.70314 0 .51562-.21876 1.01562-.2031.48438-.7031 1.04688-.4844.54686-1.6094 1.5-.9531.79686-1.23437 1.09376-.26563.28124-.4375.5625zm1.60936-.96876 1.01564-.09374q.125.71874.48436 1.04686.375.3125.9375.3125.48437 0 .84374-.21876.375-.23436.6094-.59374.23436-.375.3906-1 .15626-.64062.15626-1.29686 0-.07814 0-.21876-.3125.5-.85936.82812-.5469.3125-1.1875.3125-1.07814 0-1.8125-.76562-.7344-.78124-.7344-2.04688 0-1.3125.76563-2.10936.78127-.7969 1.9375-.7969.82813 0 1.51563.45314.70314.45312 1.0625 1.29686.35937.82814.35937 2.40626 0 1.64064-.35937 2.625-.34376.96874-1.0625 1.48438-.70313.5-1.64063.5-1.01563 0-1.65623-.54688-.64064-.5625-.76564-1.57812zm4.3125-3.79688q0-.90626-.48436-1.4375-.46877-.53126-1.15627-.53126-.70313 0-1.23437.57814-.51563.5625-.51563 1.48436 0 .8125.5 1.32814.5.51562 1.21877.51562.73436 0 1.2031-.51562.46876-.51564.46876-1.42188z" stroke="#fff" stroke-linecap="round" stroke-linejoin="round" stroke-width="3"/>
  <path d="m660.5216 386.18384q0-1.53124.3125-2.45314.3125-.9375.9219-1.4375.625-.5 1.5625-.5.6875 0 1.2031.28126.53126.28124.875.8125.34376.51564.53126 1.26564.1875.75.1875 2.03124 0 1.51562-.3125 2.4375-.29686.92186-.92186 1.4375-.6094.5-1.5625.5-1.2344 0-1.95314-.89064-.84376-1.0625-.84376-3.48436zm1.07813 0q0 2.10936.5 2.8125.5.70312 1.21877.70312.73436 0 1.21873-.70312.5-.70314.5-2.8125 0-2.125-.5-2.8125-.48437-.70314-1.23437-.70314-.71876 0-1.15626.6094-.54687.78124-.54687 2.90624zm6.48437 4.23436v-1.2031h1.20313v1.2031q0 .65626-.23437 1.0625-.23436.4219-.73436.64064l-.2969-.45314q.32813-.1406.4844-.4375.15623-.28124.1875-.8125zm7.9844-1.0156v1.0156h-5.6875q0-.375.125-.73436.21873-.57814.6875-1.14064.48436-.5625 1.3906-1.29686 1.40626-1.15624 1.89063-1.82814.5-.67186.5-1.2656 0-.625-.45313-1.0469-.4531-.4375-1.17187-.4375-.76563 0-1.21873.45314-.45314.45312-.46877 1.26562l-1.07813-.10936q.1094-1.21876.82813-1.84376.73437-.64064 1.96877-.64064 1.23436 0 1.9531.6875.71876.6875.71876 1.70314 0 .51562-.21876 1.01562-.2031.48438-.7031 1.04688-.4844.54686-1.6094 1.5-.9531.79686-1.23437 1.09376-.26563.28124-.4375.5625zm1.60936-.96876 1.01564-.09374q.125.71874.48436 1.04686.375.3125.9375.3125.48437 0 .84374-.21876.375-.23436.6094-.59374.23436-.375.3906-1 .15626-.64062.15626-1.29686 0-.07814 0-.21876-.3125.5-.85936.82812-.5469.3125-1.1875.3125-1.07814 0-1.8125-.76562-.7344-.78124-.7344-2.04688 0-1.3125.76563-2.10936.78127-.7969 1.9375-.7969.82813 0 1.51563.45314.70314.45312 1.0625 1.29686.35937.82814.35937 2.40626 0 1.64064-.35937 2.625-.34376.96874-1.0625 1.48438-.70313.5-1.64063.5-1.01563 0-1.65623-.54688-.64064-.5625-.76564-1.57812zm4.3125-3.79688q0-.90626-.48436-1.4375-.46877-.53126-1.15627-.53126-.70313 0-1.23437.57814-.51563.5625-.51563 1.48436 0 .8125.5 1.32814.5.51562 1.21877.51562.73436 0 1.2031-.51562.46876-.51564.46876-1.42188z" fill="#4285f4"/>
  <path d="m722.7921 230.63066q0-1.53125.3125-2.45312.3125-.9375.9219-1.4375.625-.5 1.5625-.5.6875 0 1.2031.28125.53126.28125.875.8125.34376.51562.53126 1.26562.1875.75.1875 2.03125 0 1.51563-.3125 2.4375-.29686.92188-.92186 1.4375-.6094.5-1.5625.5-1.2344 0-1.95314-.89062-.84376-1.0625-.84376-3.48438zm1.07814 0q0 2.10938.5 2.8125.5.70313 1.21876.70313.73436 0 1.21874-.70313.5-.70312.5-2.8125 0-2.125-.5-2.8125-.48438-.70312-1.23438-.70312-.71876 0-1.15626.60937-.54686.78125-.54686 2.90625zm6.48436 4.23438v-1.20313h1.20314v1.20313q0 .65625-.23438 1.0625-.23436.42187-.73436.64062l-.2969-.45312q.32814-.14063.4844-.4375.15624-.28125.1875-.8125zm2.4375-2.25 1.1094-.09375q.125.8125.5625 1.21875.4531.40625 1.09374.40625.75 0 1.28126-.57813.53124-.57812.53124-1.51562 0-.90625-.51564-1.42188-.5-.53125-1.3281-.53125-.5 0-.9219.23438-.40624.23437-.6406.59375l-.9844-.125.82814-4.40625h4.28126v1h-3.4375l-.45314 2.3125q.76564-.54688 1.60938-.54688 1.125 0 1.89062.78125.78124.78125.78124 2.01563 0 1.15625-.67186 2.01562-.82814 1.03125-2.25 1.03125-1.17188 0-1.92188-.65625-.73436-.65625-.84376-1.73437zm10.96876 2.25h-1.04686v-6.71875q-.39064.35937-1.01564.73437-.60936.35938-1.09376.53125v-1.01562q.875-.42188 1.53126-1 .67188-.59375.95314-1.15625h.67186z" stroke="#fff" stroke-linecap="round" stroke-linejoin="round" stroke-width="3"/>
  <path d="m722.7921 230.63066q0-1.53125.3125-2.45312.3125-.9375.9219-1.4375.625-.5 1.5625-.5.6875 0 1.2031.28125.53126.28125.875.8125.34376.51562.53126 1.26562.1875.75.1875 2.03125 0 1.51563-.3125 2.4375-.29686.92188-.92186 1.4375-.6094.5-1.5625.5-1.2344 0-1.95314-.89062-.84376-1.0625-.84376-3.48438zm1.07814 0q0 2.10938.5 2.8125.5.70313 1.21876.70313.73436 0 1.21874-.70313.5-.70312.5-2.8125 0-2.125-.5-2.8125-.48438-.70312-1.23438-.70312-.71876 0-1.15626.60937-.54686.78125-.54686 2.90625zm6.48436 4.23438v-1.20313h1.20314v1.20313q0 .65625-.23438 1.0625-.23436.42187-.73436.64062l-.2969-.45312q.32814-.14063.4844-.4375.15624-.28125.1875-.8125zm2.4375-2.25 1.1094-.09375q.125.8125.5625 1.21875.4531.40625 1.09374.40625.75 0 1.28126-.57813.53124-.57812.53124-1.51562 0-.90625-.51564-1.42188-.5-.53125-1.3281-.53125-.5 0-.9219.23438-.40624.23437-.6406.59375l-.9844-.125.82814-4.40625h4.28126v1h-3.4375l-.45314 2.3125q.76564-.54688 1.60938-.54688 1.125 0 1.89062.78125.78124.78125.78124 2.01563 0 1.15625-.67186 2.01562-.82814 1.03125-2.25 1.03125-1.17188 0-1.92188-.65625-.73436-.65625-.84376-1.73437zm10.96876 2.25h-1.04686v-6.71875q-.39064.35937-1.01564.73437-.60936.35938-1.09376.53125v-1.01562q.875-.42188 1.53126-1 .67188-.59375.95314-1.15625h.67186z" fill="#4285f4"/>
  <path d="m780.0804 146.81583q0-1.53125.3125-2.45313.3125-.9375.92186-1.4375.625-.5 1.5625-.5.6875 0 1.20314.28125.53123.28125.875.8125.34373.51563.53123 1.26563.1875.75.1875 2.03125 0 1.51562-.3125 2.4375-.29687.92187-.92187 1.4375-.60936.5-1.5625.5-1.23436 0-1.95313-.89063-.84373-1.0625-.84373-3.48437zm1.0781 0q0 2.10937.5 2.8125.5.70312 1.21876.70312.73437 0 1.21874-.70312.5-.70313.5-2.8125 0-2.125-.5-2.8125-.48437-.70313-1.23437-.70313-.71873 0-1.15623.60938-.5469.78125-.5469 2.90625zm6.4844 4.23437v-1.20312h1.2031v1.20312q0 .65625-.23437 1.0625-.23437.42188-.73437.64063l-.29686-.45313q.3281-.14062.48436-.4375.15624-.28125.1875-.8125zm7.90623-6.48437-1.04687.07812q-.14063-.625-.39063-.90625-.4375-.45312-1.0625-.45312-.5 0-.89063.28125-.48437.375-.78124 1.07812-.28126.6875-.29686 1.96875.375-.57812.92186-.85937.5625-.28125 1.17187-.28125 1.04687 0 1.78127.78125.75.78125.75 2 0 .8125-.3594 1.51562-.34374.6875-.9531 1.0625-.6094.35938-1.375.35938-1.32814 0-2.15627-.96875-.82813-.96875-.82813-3.1875 0-2.5.9219-3.625.79686-.98438 2.15623-.98438 1.01563 0 1.65627.57813.65623.5625.78123 1.5625zm-4.29687 3.70312q0 .54688.21874 1.04688.2344.48437.64063.75.42187.26562.89063.26562.65624 0 1.14064-.53125.48436-.54687.48436-1.46875 0-.89062-.48436-1.40625-.46877-.51562-1.1875-.51562-.71877 0-1.21877.51562-.48437.51563-.48437 1.34375zm5.82814.51563 1.0625-.14063q.17186.89063.60936 1.29688.4375.39062 1.0625.39062.75 0 1.26564-.51562.5156-.51563.5156-1.28125 0-.71875-.48437-1.1875-.46873-.48438-1.20313-.48438-.29687 0-.75.125l.125-.9375q.1094.01563.1719.01563.67186 0 1.2031-.34375.5469-.35938.5469-1.09375 0-.57813-.39064-.95313-.39063-.39062-1.01563-.39062-.60937 0-1.03123.39062-.40627.39063-.51564 1.15625l-1.0625-.1875q.1875-1.04687.875-1.625.6875-.59375 1.70314-.59375.7031 0 1.29686.3125.59374.29688.90624.8125.3125.51563.3125 1.10938 0 .54687-.29687 1.01562-.29687.45313-.875.71875.75.17188 1.17187.73438.4219.54687.4219 1.39062 0 1.125-.82814 1.90625-.8125.78125-2.0625.78125-1.125 0-1.875-.67187-.75-.6875-.85936-1.75z" stroke="#fff" stroke-linecap="round" stroke-linejoin="round" stroke-width="3"/>
  <path d="m780.0804 146.81583q0-1.53125.3125-2.45313.3125-.9375.92186-1.4375.625-.5 1.5625-.5.6875 0 1.20314.28125.53123.28125.875.8125.34373.51563.53123 1.26563.1875.75.1875 2.03125 0 1.51562-.3125 2.4375-.29687.92187-.92187 1.4375-.60936.5-1.5625.5-1.23436 0-1.95313-.89063-.84373-1.0625-.84373-3.48437zm1.0781 0q0 2.10937.5 2.8125.5.70312 1.21876.70312.73437 0 1.21874-.70312.5-.70313.5-2.8125 0-2.125-.5-2.8125-.48437-.70313-1.23437-.70313-.71873 0-1.15623.60938-.5469.78125-.5469 2.90625zm6.4844 4.23437v-1.20312h1.2031v1.20312q0 .65625-.23437 1.0625-.23437.42188-.73437.64063l-.29686-.45313q.3281-.14062.48436-.4375.15624-.28125.1875-.8125zm7.90623-6.48437-1.04687.07812q-.14063-.625-.39063-.90625-.4375-.45312-1.0625-.45312-.5 0-.89063.28125-.48437.375-.78124 1.07812-.28126.6875-.29686 1.96875.375-.57812.92186-.85937.5625-.28125 1.17187-.28125 1.04687 0 1.78127.78125.75.78125.75 2 0 .8125-.3594 1.51562-.34374.6875-.9531 1.0625-.6094.35938-1.375.35938-1.32814 0-2.15627-.96875-.82813-.96875-.82813-3.1875 0-2.5.9219-3.625.79686-.98438 2.15623-.98438 1.01563 0 1.65627.57813.65623.5625.78123 1.5625zm-4.29687 3.70312q0 .54688.21874 1.04688.2344.48437.64063.75.42187.26562.89063.26562.65624 0 1.14064-.53125.48436-.54687.48436-1.46875 0-.89062-.48436-1.40625-.46877-.51562-1.1875-.51562-.71877 0-1.21877.51562-.48437.51563-.48437 1.34375zm5.82814.51563 1.0625-.14063q.17186.89063.60936 1.29688.4375.39062 1.0625.39062.75 0 1.26564-.51562.5156-.51563.5156-1.28125 0-.71875-.48437-1.1875-.46873-.48438-1.20313-.48438-.29687 0-.75.125l.125-.9375q.1094.01563.1719.01563.67186 0 1.2031-.34375.5469-.35938.5469-1.09375 0-.57813-.39064-.95313-.39063-.39062-1.01563-.39062-.60937 0-1.03123.39062-.40627.39063-.51564 1.15625l-1.0625-.1875q.1875-1.04687.875-1.625.6875-.59375 1.70314-.59375.7031 0 1.29686.3125.59374.29688.90624.8125.3125.51563.3125 1.10938 0 .54687-.29687 1.01562-.29687.45313-.875.71875.75.17188 1.17187.73438.4219.54687.4219 1.39062 0 1.125-.82814 1.90625-.8125.78125-2.0625.78125-1.125 0-1.875-.67187-.75-.6875-.85936-1.75z" fill="#4285f4"/>
  <path d="m882.2614 58.997383q0-1.53125.3125-2.453123.3125-.9375.9219-1.4375.625-.5 1.5625-.5.6875 0 1.2031.28125.53126.28125.875.8125.34376.515623.53126 1.265623.1875.75.1875 2.03125 0 1.515627-.3125 2.4375-.29686.921877-.92186 1.4375-.6094.5-1.5625.5-1.2344 0-1.95314-.890623-.84376-1.0625-.84376-3.484377zm1.07814 0q0 2.109377.5 2.8125.5.703127 1.21876.703127.73436 0 1.21874-.703127.5-.703123.5-2.8125 0-2.125-.5-2.8125-.48438-.703123-1.23438-.703123-.71876 0-1.15626.609373-.54686.78125-.54686 2.90625zm6.48436 4.234377v-1.203127h1.20314v1.203127q0 .65625-.23438 1.0625-.23436.42187-.73436.64062l-.2969-.45312q.32814-.14063.4844-.4375.15624-.28125.1875-.8125zm2.5-7.46875v-1.015627h5.5625v.828127q-.8125.875-1.625 2.328123-.79686 1.4375-1.23436 2.96875-.32814 1.078127-.40624 2.359377h-1.09376q.01562-1.015627.39062-2.453127.39064-1.4375 1.09374-2.765623.71876-1.328127 1.53126-2.25zm8.5625 2.8125q-.65624-.25-.98436-.6875-.3125-.453127-.3125-1.0625 0-.9375.67186-1.578127.6875-.640623 1.7969-.640623 1.125 0 1.8125.65625.6875.65625.6875 1.59375 0 .59375-.3125 1.03125-.3125.4375-.95314.6875.79688.25 1.20314.828123.40624.578127.40624 1.375 0 1.09375-.78124 1.84375-.76564.75-2.0469.75-1.2656 0-2.04686-.75-.78124-.75-.78124-1.875 0-.84375.42186-1.40625.4375-.5625 1.21874-.765623zm-.21874-1.796877q0 .609377.39064 1 .40624.390627 1.03124.390627.60936 0 1-.375.39062-.390627.39062-.953127 0-.578123-.40626-.96875-.40624-.40625-1-.40625-.60936 0-1.0156.390627-.39064.390623-.39064.921873zm-.32812 3.96875q0 .453127.20312.875.21874.421877.64064.65625.42186.234377.90624.234377.75 0 1.23436-.484377.5-.484373.5-1.234373 0-.765627-.5-1.265627-.5-.5-1.2656-.5-.75 0-1.2344.5-.48436.484377-.48436 1.21875z" stroke="#fff" stroke-linecap="round" stroke-linejoin="round" stroke-width="3"/>
  <path d="m882.2614 58.997383q0-1.53125.3125-2.453123.3125-.9375.9219-1.4375.625-.5 1.5625-.5.6875 0 1.2031.28125.53126.28125.875.8125.34376.515623.53126 1.265623.1875.75.1875 2.03125 0 1.515627-.3125 2.4375-.29686.921877-.92186 1.4375-.6094.5-1.5625.5-1.2344 0-1.95314-.890623-.84376-1.0625-.84376-3.484377zm1.07814 0q0 2.109377.5 2.8125.5.703127 1.21876.703127.73436 0 1.21874-.703127.5-.703123.5-2.8125 0-2.125-.5-2.8125-.48438-.703123-1.23438-.703123-.71876 0-1.15626.609373-.54686.78125-.54686 2.90625zm6.48436 4.234377v-1.203127h1.20314v1.203127q0 .65625-.23438 1.0625-.23436.42187-.73436.64062l-.2969-.45312q.32814-.14063.4844-.4375.15624-.28125.1875-.8125zm2.5-7.46875v-1.015627h5.5625v.828127q-.8125.875-1.625 2.328123-.79686 1.4375-1.23436 2.96875-.32814 1.078127-.40624 2.359377h-1.09376q.01562-1.015627.39062-2.453127.39064-1.4375 1.09374-2.765623.71876-1.328127 1.53126-2.25zm8.5625 2.8125q-.65624-.25-.98436-.6875-.3125-.453127-.3125-1.0625 0-.9375.67186-1.578127.6875-.640623 1.7969-.640623 1.125 0 1.8125.65625.6875.65625.6875 1.59375 0 .59375-.3125 1.03125-.3125.4375-.95314.6875.79688.25 1.20314.828123.40624.578127.40624 1.375 0 1.09375-.78124 1.84375-.76564.75-2.0469.75-1.2656 0-2.04686-.75-.78124-.75-.78124-1.875 0-.84375.42186-1.40625.4375-.5625 1.21874-.765623zm-.21874-1.796877q0 .609377.39064 1 .40624.390627 1.03124.390627.60936 0 1-.375.39062-.390627.39062-.953127 0-.578123-.40626-.96875-.40624-.40625-1-.40625-.60936 0-1.0156.390627-.39064.390623-.39064.921873zm-.32812 3.96875q0 .453127.20312.875.21874.421877.64064.65625.42186.234377.90624.234377.75 0 1.23436-.484377.5-.484373.5-1.234373 0-.765627-.5-1.265627-.5-.5-1.2656-.5-.75 0-1.2344.5-.48436.484377-.48436 1.21875z" fill="#4285f4"/>
  <path d="m913.58954 360.62793q0-1.53125.3125-2.45313.3125-.9375.92186-1.4375.625-.5 1.5625-.5.6875 0 1.20314.28125.53126.28125.875.8125.34376.51563.53126 1.26563.1875.75.1875 2.03125 0 1.51562-.3125 2.4375-.2969.92187-.9219 1.4375-.60936.5-1.5625.5-1.23436 0-1.9531-.89063-.84376-1.0625-.84376-3.48437zm1.07812 0q0 2.10937.5 2.8125.5.70312 1.21874.70312.7344 0 1.21876-.70312.5-.70313.5-2.8125 0-2.125-.5-2.8125-.48436-.70313-1.23436-.70313-.71876 0-1.15626.60938-.54688.78125-.54688 2.90625zm6.48438 4.23437v-1.20312h1.20312v1.20312q0 .65625-.23436 1.0625-.2344.42188-.7344.64063l-.29686-.45313q.32812-.14062.48436-.4375.15626-.28125.1875-.8125zm2.4375-2.26562 1.0625-.14063q.17186.89063.60936 1.29688.4375.39062 1.0625.39062.75 0 1.26564-.51562.51562-.51563.51562-1.28125 0-.71875-.48436-1.1875-.46876-.48438-1.20314-.48438-.29686 0-.75.125l.125-.9375q.10938.01563.17188.01563.67186 0 1.20312-.34375.54688-.35938.54688-1.09375 0-.57813-.39064-.95313-.3906-.39062-1.0156-.39062-.6094 0-1.03126.39062-.40624.39063-.51564 1.15625l-1.0625-.1875q.1875-1.04687.875-1.625.6875-.59375 1.70314-.59375.70312 0 1.29686.3125.59376.29688.90626.8125.3125.51563.3125 1.10938 0 .54687-.29686 1.01562-.2969.45313-.875.71875.75.17188 1.17186.73438.42188.54687.42188 1.39062 0 1.125-.82814 1.90625-.8125.78125-2.0625.78125-1.125 0-1.875-.67187-.75-.6875-.85936-1.75zm7.0625-5.20313v-1.01562h5.5625v.82812q-.8125.875-1.625 2.32813-.79688 1.4375-1.23438 2.96875-.32812 1.07812-.40626 2.35937h-1.09374q.01564-1.01562.39064-2.45312.3906-1.4375 1.09374-2.76563.71876-1.32812 1.53126-2.25z" stroke="#fff" stroke-linecap="round" stroke-linejoin="round" stroke-width="3"/>
  <path d="m913.58954 360.62793q0-1.53125.3125-2.45313.3125-.9375.92186-1.4375.625-.5 1.5625-.5.6875 0 1.20314.28125.53126.28125.875.8125.34376.51563.53126 1.26563.1875.75.1875 2.03125 0 1.51562-.3125 2.4375-.2969.92187-.9219 1.4375-.60936.5-1.5625.5-1.23436 0-1.9531-.89063-.84376-1.0625-.84376-3.48437zm1.07812 0q0 2.10937.5 2.8125.5.70312 1.21874.70312.7344 0 1.21876-.70312.5-.70313.5-2.8125 0-2.125-.5-2.8125-.48436-.70313-1.23436-.70313-.71876 0-1.15626.60938-.54688.78125-.54688 2.90625zm6.48438 4.23437v-1.20312h1.20312v1.20312q0 .65625-.23436 1.0625-.2344.42188-.7344.64063l-.29686-.45313q.32812-.14062.48436-.4375.15626-.28125.1875-.8125zm2.4375-2.26562 1.0625-.14063q.17186.89063.60936 1.29688.4375.39062 1.0625.39062.75 0 1.26564-.51562.51562-.51563.51562-1.28125 0-.71875-.48436-1.1875-.46876-.48438-1.20314-.48438-.29686 0-.75.125l.125-.9375q.10938.01563.17188.01563.67186 0 1.20312-.34375.54688-.35938.54688-1.09375 0-.57813-.39064-.95313-.3906-.39062-1.0156-.39062-.6094 0-1.03126.39062-.40624.39063-.51564 1.15625l-1.0625-.1875q.1875-1.04687.875-1.625.6875-.59375 1.70314-.59375.70312 0 1.29686.3125.59376.29688.90626.8125.3125.51563.3125 1.10938 0 .54687-.29686 1.01562-.2969.45313-.875.71875.75.17188 1.17186.73438.42188.54687.42188 1.39062 0 1.125-.82814 1.90625-.8125.78125-2.0625.78125-1.125 0-1.875-.67187-.75-.6875-.85936-1.75zm7.0625-5.20313v-1.01562h5.5625v.82812q-.8125.875-1.625 2.32813-.79688 1.4375-1.23438 2.96875-.32812 1.07812-.40626 2.35937h-1.09374q.01564-1.01562.39064-2.45312.3906-1.4375 1.09374-2.76563.71876-1.32812 1.53126-2.25z" fill="#4285f4"/>
  <path d="m969.51764 68.232544q0-1.53125.3125-2.453124.3125-.9375.92186-1.4375.625-.5 1.5625-.5.6875 0 1.20314.28125.53126.28125.875.8125.34376.515624.53126 1.265624.1875.75.1875 2.03125 0 1.515626-.3125 2.4375-.2969.921876-.9219 1.4375-.60936.5-1.5625.5-1.23436 0-1.9531-.890624-.84376-1.0625-.84376-3.484376zm1.07812 0q0 2.109376.5 2.8125.5.703126 1.21874.703126.7344 0 1.21876-.703126.5-.703124.5-2.8125 0-2.125-.5-2.8125-.48436-.703124-1.23436-.703124-.71876 0-1.15626.609374-.54688.78125-.54688 2.90625zm6.48438 4.234376v-1.203126h1.20312v1.203126q0 .65625-.23436 1.0625-.2344.421874-.7344.640624l-.29686-.453124q.32812-.140626.48436-.4375.15626-.28125.1875-.8125zm2.5-7.46875v-1.015626h5.5625v.828126q-.8125.875-1.625 2.328124-.79688 1.4375-1.23438 2.96875-.32812 1.078126-.40626 2.359376h-1.09374q.01564-1.015626.39064-2.453126.3906-1.4375 1.09374-2.765624.71876-1.328126 1.53126-2.25zm6.9375 5.203124 1.0625-.140624q.17186.890624.60936 1.296874.4375.390626 1.0625.390626.75 0 1.26564-.515626.51562-.515624.51562-1.28125 0-.71875-.48436-1.1875-.46876-.484374-1.20314-.484374-.29686 0-.75.125l.125-.9375q.10938.015624.17188.015624.67186 0 1.20312-.34375.54688-.359374.54688-1.09375 0-.578124-.39064-.953124-.3906-.390626-1.0156-.390626-.6094 0-1.03126.390626-.40624.390624-.51564 1.15625l-1.0625-.1875q.1875-1.046876.875-1.625.6875-.59375 1.70314-.59375.70312 0 1.29686.3125.59376.296874.90626.8125.3125.515624.3125 1.109374 0 .546876-.29686 1.015626-.2969.453124-.875.71875.75.171874 1.17186.734374.42188.546876.42188 1.390626 0 1.125-.82814 1.90625-.8125.78125-2.0625.78125-1.125 0-1.875-.671876-.75-.6875-.85936-1.75z" stroke="#fff" stroke-linecap="round" stroke-linejoin="round" stroke-width="3"/>
  <path d="m969.51764 68.232544q0-1.53125.3125-2.453124.3125-.9375.92186-1.4375.625-.5 1.5625-.5.6875 0 1.20314.28125.53126.28125.875.8125.34376.515624.53126 1.265624.1875.75.1875 2.03125 0 1.515626-.3125 2.4375-.2969.921876-.9219 1.4375-.60936.5-1.5625.5-1.23436 0-1.9531-.890624-.84376-1.0625-.84376-3.484376zm1.07812 0q0 2.109376.5 2.8125.5.703126 1.21874.703126.7344 0 1.21876-.703126.5-.703124.5-2.8125 0-2.125-.5-2.8125-.48436-.703124-1.23436-.703124-.71876 0-1.15626.609374-.54688.78125-.54688 2.90625zm6.48438 4.234376v-1.203126h1.20312v1.203126q0 .65625-.23436 1.0625-.2344.421874-.7344.640624l-.29686-.453124q.32812-.140626.48436-.4375.15626-.28125.1875-.8125zm2.5-7.46875v-1.015626h5.5625v.828126q-.8125.875-1.625 2.328124-.79688 1.4375-1.23438 2.96875-.32812 1.078126-.40626 2.359376h-1.09374q.01564-1.015626.39064-2.453126.3906-1.4375 1.09374-2.765624.71876-1.328126 1.53126-2.25zm6.9375 5.203124 1.0625-.140624q.17186.890624.60936 1.296874.4375.390626 1.0625.390626.75 0 1.26564-.515626.51562-.515624.51562-1.28125 0-.71875-.48436-1.1875-.46876-.484374-1.20314-.484374-.29686 0-.75.125l.125-.9375q.10938.015624.17188.015624.67186 0 1.20312-.34375.54688-.359374.54688-1.09375 0-.578124-.39064-.953124-.3906-.390626-1.0156-.390626-.6094 0-1.03126.390626-.40624.390624-.51564 1.15625l-1.0625-.1875q.1875-1.046876.875-1.625.6875-.59375 1.70314-.59375.70312 0 1.29686.3125.59376.296874.90626.8125.3125.515624.3125 1.109374 0 .546876-.29686 1.015626-.2969.453124-.875.71875.75.171874 1.17186.734374.42188.546876.42188 1.390626 0 1.125-.82814 1.90625-.8125.78125-2.0625.78125-1.125 0-1.875-.671876-.75-.6875-.85936-1.75z" fill="#4285f4"/>
  <path d="m1026.8059 88.199326q0-1.53125.3125-2.453126.3125-.9375.9219-1.4375.625-.5 1.5625-.5.6875 0 1.2031.28125.5313.28125.875.8125.3438.515626.5313 1.265626.1875.75.1875 2.03125 0 1.515624-.3125 2.4375-.2969.921874-.9219 1.4375-.6094.5-1.5625.5-1.2344 0-1.9531-.890626-.8438-1.0625-.8438-3.484374zm1.0781 0q0 2.109374.5 2.8125.5.703124 1.2188.703124.7344 0 1.2187-.703124.5-.703126.5-2.8125 0-2.125-.5-2.8125-.4843-.703126-1.2343-.703126-.7188 0-1.1563.609376-.5469.78125-.5469 2.90625zm6.4844 4.234374v-1.203124h1.2031v1.203124q0 .65625-.2343 1.0625-.2344.421876-.7344.640626l-.2969-.453126q.3281-.140624.4844-.4375.1562-.28125.1875-.8125zm2.5-7.46875v-1.015624h5.5625v.828124q-.8125.875-1.625 2.328126-.7969 1.4375-1.2344 2.96875-.3281 1.078124-.4062 2.359374h-1.0938q.0157-1.015624.3907-2.453124.3906-1.4375 1.0937-2.765626.7188-1.328124 1.5313-2.25zm6.9375 3.234376q0-1.53125.3125-2.453126.3125-.9375.9219-1.4375.625-.5 1.5625-.5.6875 0 1.2031.28125.5313.28125.875.8125.3438.515626.5313 1.265626.1875.75.1875 2.03125 0 1.515624-.3125 2.4375-.2969.921874-.9219 1.4375-.6094.5-1.5625.5-1.2344 0-1.9531-.890626-.8438-1.0625-.8438-3.484374zm1.0781 0q0 2.109374.5 2.8125.5.703124 1.2188.703124.7344 0 1.2187-.703124.5-.703126.5-2.8125 0-2.125-.5-2.8125-.4843-.703126-1.2343-.703126-.7188 0-1.1563.609376-.5469.78125-.5469 2.90625z" stroke="#fff" stroke-linecap="round" stroke-linejoin="round" stroke-width="3"/>
  <path d="m1026.8059 88.199326q0-1.53125.3125-2.453126.3125-.9375.9219-1.4375.625-.5 1.5625-.5.6875 0 1.2031.28125.5313.28125.875.8125.3438.515626.5313 1.265626.1875.75.1875 2.03125 0 1.515624-.3125 2.4375-.2969.921874-.9219 1.4375-.6094.5-1.5625.5-1.2344 0-1.9531-.890626-.8438-1.0625-.8438-3.484374zm1.0781 0q0 2.109374.5 2.8125.5.703124 1.2188.703124.7344 0 1.2187-.703124.5-.703126.5-2.8125 0-2.125-.5-2.8125-.4843-.703126-1.2343-.703126-.7188 0-1.1563.609376-.5469.78125-.5469 2.90625zm6.4844 4.234374v-1.203124h1.2031v1.203124q0 .65625-.2343 1.0625-.2344.421876-.7344.640626l-.2969-.453126q.3281-.140624.4844-.4375.1562-.28125.1875-.8125zm2.5-7.46875v-1.015624h5.5625v.828124q-.8125.875-1.625 2.328126-.7969 1.4375-1.2344 2.96875-.3281 1.078124-.4062 2.359374h-1.0938q.0157-1.015624.3907-2.453124.3906-1.4375 1.0937-2.765626.7188-1.328124 1.5313-2.25zm6.9375 3.234376q0-1.53125.3125-2.453126.3125-.9375.9219-1.4375.625-.5 1.5625-.5.6875 0 1.2031.28125.5313.28125.875.8125.3438.515626.5313 1.265626.1875.75.1875 2.03125 0 1.515624-.3125 2.4375-.2969.921874-.9219 1.4375-.6094.5-1.5625.5-1.2344 0-1.9531-.890626-.8438-1.0625-.8438-3.484374zm1.0781 0q0 2.109374.5 2.8125.5.703124 1.2188.703124.7344 0 1.2187-.703124.5-.703126.5-2.8125 0-2.125-.5-2.8125-.4843-.703126-1.2343-.703126-.7188 0-1.1563.609376-.5469.78125-.5469 2.90625z" fill="#4285f4"/>
  <g fill="#000">
    <path d="m544.4219 643.95v-8.59374h3.25q.8437 0 1.29685.07814.64065.10936 1.0625.40624.4375.29686.6875.82812.26565.53124.26565 1.17188 0 1.09376-.70315 1.85936-.6875.75-2.51565.75h-2.2031v3.5zm1.1406-4.5h2.21875q1.10935 0 1.5625-.40624.46875-.42186.46875-1.17186 0-.53126-.28125-.90626-.26565-.39064-.70315-.51564-.29685-.0781-1.0625-.0781h-2.2031zm6.71875 4.5v-6.21874h.95315v.9375q.35935-.65626.6562-.85936.3125-.21876.6875-.21876.5313 0 1.07815.32812l-.35935.98438q-.39065-.23438-.76565-.23438-.35935 0-.64065.21874-.2656.20314-.375.57814-.1875.5625-.1875 1.21876v3.2656zm3.625-3.10936q0-1.73438.95315-2.5625.79685-.6875 1.9531-.6875 1.28125 0 2.09375.84376.82815.8281.82815 2.3125 0 1.2031-.3594 1.8906-.3594.6875-1.0625 1.07814-.6875.375-1.5.375-1.2969 0-2.1094-.82814-.79685-.84374-.79685-2.42186zm1.07815 0q0 1.1875.5156 1.78126.53125.59374 1.3125.59374.7969 0 1.3125-.59374.5156-.59376.5156-1.8125 0-1.15626-.5312-1.75-.51565-.59376-1.2969-.59376-.78125 0-1.3125.59376-.5156.5781-.5156 1.78124zm7.2812 3.10936h-.98435v-8.59374h1.0625v3.0625q.67185-.82812 1.70315-.82812.5781 0 1.0781.23436.5156.21876.84375.64064.34375.42186.53125 1.01562.1875.59374.1875 1.26564 0 1.59374-.7969 2.46874-.79685.875-1.8906.875-1.1094 0-1.7344-.92188zm-.0156-3.15624q0 1.10938.3125 1.60938.5.8125 1.34375.8125.6875 0 1.1875-.59374.51565-.59376.51565-1.7969 0-1.21874-.4844-1.79686-.4844-.57814-1.1719-.57814-.6875 0-1.2031.6094-.5.59374-.5 1.73436zm6.0156 3.15624v-8.59374h1.0625v8.59374zm7.2813-2 1.0937.125q-.25.95314-.9531 1.4844-.7031.53124-1.78125.53124-1.35935 0-2.17185-.84374-.7969-.84376-.7969-2.3594 0-1.5625.8125-2.42186.8125-.875 2.09375-.875 1.25 0 2.03125.84376.7969.84374.7969 2.3906 0 .09376 0 .28126h-4.64065q.0625 1.03124.57815 1.57814.5156.53124 1.29685.53124.57815 0 .98435-.29688.4219-.3125.6563-.96876zm-3.45315-1.7031h3.46875q-.0625-.7969-.3906-1.1875-.51565-.6094-1.3125-.6094-.7344 0-1.2344.4844-.4844.48436-.53125 1.3125zm6.20315 3.7031v-6.21874h.9375v.875q.29685-.46876.7812-.73436.4844-.28126 1.1094-.28126.6875 0 1.125.28126.4531.28124.625.79686.75-1.07812 1.9219-1.07812.9375 0 1.42185.51562.5.5.5 1.57814v4.2656h-1.04685v-3.92186q0-.625-.1094-.90624-.09375-.28126-.3594-.45314-.2656-.17186-.6406-.17186-.65625 0-1.09375.4375-.42185.4375-.42185 1.40624v3.60936h-1.0625v-4.04686q0-.70314-.26565-1.04688-.25-.35936-.82815-.35936-.4531 0-.8281.23436-.375.23438-.5469.6875-.17185.45314-.17185 1.29688v3.23436zm12.75-2.7656 1.0625-.09376q.0781.65626.35935 1.0625.28125.40626.85935.67186.5938.25 1.32815.25.64065 0 1.14065-.1875.5-.2031.73435-.53124.25-.34376.25-.73436 0-.40626-.23435-.70314-.2344-.3125-.76565-.51562-.35935-.14064-1.54685-.42188-1.1719-.28126-1.64065-.53126-.625-.3281-.92185-.79686-.2969-.48438-.2969-1.07814 0-.6406.3594-1.2031.375-.57814 1.0781-.8594.71875-.29686 1.5781-.29686.95315 0 1.6875.3125.7344.29686 1.125.90626.39065.59374.4219 1.34374l-1.09375.07812q-.09375-.8125-.60935-1.21876-.5-.42186-1.4844-.42186-1.03125 0-1.5.375-.46875.375-.46875.90626 0 .46874.32815.7656.3281.2969 1.7031.6094 1.3906.3125 1.90625.54686.75.35938 1.10935.89064.3594.5156.3594 1.21874 0 .6875-.3906 1.29686-.39065.59376-1.125.9375-.7344.32814-1.6563.32814-1.17185 0-1.9687-.32814-.7813-.34374-1.2344-1.03124-.4375-.6875-.4531-1.54686zm8.25-4.6094v-1.21874h1.0625v1.21874zm0 7.375v-6.21874h1.0625v6.21874zm2.4375 0v-.85936l3.9687-4.54688q-.6875.03124-1.2031.03124h-2.53125v-.84374h5.09375v.6875l-3.375 3.95314-.65625.71874q.71875-.04688 1.32815-.04688h2.8906v.90624zm10.8125-2 1.0937.125q-.25.95314-.9531 1.4844-.7031.53124-1.78125.53124-1.35935 0-2.17185-.84374-.7969-.84376-.7969-2.3594 0-1.5625.8125-2.42186.8125-.875 2.09375-.875 1.25 0 2.03125.84376.7969.84374.7969 2.3906 0 .09376 0 .28126h-4.64065q.0625 1.03124.57815 1.57814.5156.53124 1.29685.53124.57815 0 .98435-.29688.4219-.3125.6563-.96876zm-3.45315-1.7031h3.46875q-.0625-.7969-.3906-1.1875-.51565-.6094-1.3125-.6094-.7344 0-1.2344.4844-.4844.48436-.53125 1.3125z"/>
    <path d="m45.05001 386.04688h-8.59375v-6.20313h1.015626v5.0625h2.625v-4.75h1.015624v4.75h2.921876v-5.26563h1.015624zm0-8.09376h-5.40625v.9375h-.8125v-.9375h-.671874q-.625 0-.921876-.10937-.421874-.15625-.671874-.53125-.25-.39062-.25-1.07812 0-.45313.109374-.98438l.90625.15625q-.046874.32813-.046874.625 0 .48437.203124.6875.203126.1875.765626.1875h.578124v-1.21875h.8125v1.21875h5.40625zm0-3h-5.40625v.9375h-.8125v-.9375h-.671874q-.625 0-.921876-.10937-.421874-.15625-.671874-.53125-.25-.39062-.25-1.07812 0-.45313.109374-.98438l.90625.15625q-.046874.32813-.046874.625 0 .48437.203124.6875.203126.1875.765626.1875h.578124v-1.21875h.8125v1.21875h5.40625zm-7.375-2.75h-1.21875v-1.0625h1.21875zm7.375 0h-6.21875v-1.0625h6.21875zm-2.28125-7.0625.140626-1.03124q1.0625.17187 1.671874.875.609376.70312.609376 1.71874 0 1.28126-.828126 2.0625-.84375.76563-2.40625.76563-1 0-1.75-.32813-.765624-.34374-1.140624-1.01562-.375-.6875-.375-1.5 0-1 .515624-1.64062.5-.65626 1.453126-.84376l.15625 1.03126q-.625.14062-.9375.51562-.328126.375-.328126.90625 0 .79687.578126 1.29687.5625.5 1.796874.5 1.265626 0 1.828126-.48437.5625-.48437.5625-1.25 0-.625-.375-1.03125-.375-.42188-1.171876-.54688zm-5.09375-1.9375h-1.21875v-1.0625h1.21875zm7.375 0h-6.21875v-1.0625h6.21875zm-2-7.25.125-1.09374q.953126.25 1.484376.95312.53125.70312.53125 1.78125 0 1.35937-.84375 2.17187-.84375.79688-2.359376.79688-1.5625 0-2.421874-.8125-.875-.8125-.875-2.09375 0-1.25.84375-2.03125.84375-.79688 2.390624-.79688.09375 0 .28125 0v4.64063q1.03125-.0625 1.578126-.57813.53125-.51562.53125-1.29687 0-.57813-.296876-.98437-.3125-.42188-.96875-.65626zm-1.703124 3.45313v-3.46875q-.796876.0625-1.1875.39062-.609376.51563-.609376 1.3125 0 .73438.484376 1.23438.484374.48438 1.3125.53125zm3.703124-6.20313h-6.21875v-.9375h.875q-1.015624-.6875-1.015624-1.98437 0-.5625.203124-1.03125.203126-.48438.53125-.71875.328126-.23437.765626-.32813.296874-.04687 1.03125-.04687h3.828124v1.04687h-3.78125q-.65625 0-.96875.125-.3125.125-.5.4375-.203124.3125-.203124.73438 0 .67188.4375 1.17188.421874.48437 1.609374.48437h3.40625zm-2.28125-11.0625.140626-1.03124q1.0625.17187 1.671874.875.609376.70312.609376 1.71874 0 1.28126-.828126 2.0625-.84375.76563-2.40625.76563-1 0-1.75-.32813-.765624-.34374-1.140624-1.01562-.375-.6875-.375-1.5 0-1 .515624-1.64062.5-.65626 1.453126-.84376l.15625 1.03126q-.625.14062-.9375.51562-.328126.375-.328126.90625 0 .79687.578126 1.29687.5625.5 1.796874.5 1.265626 0 1.828126-.48437.5625-.48437.5625-1.25 0-.625-.375-1.03125-.375-.42188-1.171876-.54688zm4.671876-1.89062-.984376.125q.09375-.34375.09375-.60938 0-.34374-.125-.54687-.109374-.21875-.3125-.35937-.171874-.09376-.796874-.32813-.078126-.01563-.25-.09375l-6.234376 2.375v-1.14062l3.59375-1.29688q.6875-.25 1.453126-.45312-.734376-.1875-1.421876-.4375l-3.625-1.32813v-1.04687l6.328126 2.35937q1.015624.39063 1.40625.59375.53125.28125.765624.65625.25.35937.25.85937 0 .29688-.140624.67188zm.140624-11.0625q-1.109374.875-2.578124 1.48438-1.484376.59374-3.0625.59374-1.390626 0-2.671876-.4375-1.484374-.53124-2.953124-1.64062v-.75q1.21875.70312 1.734374.9375.8125.35938 1.6875.5625 1.09375.25 2.203126.25 2.828124 0 5.640624-1.75zm-3.546874-7.23438h1.015624v5.6875q-.375 0-.734374-.125-.578126-.21874-1.140626-.6875-.5625-.48437-1.296874-1.39062-1.15625-1.40625-1.828126-1.89062-.671874-.5-1.265624-.5-.625 0-1.046876.45312-.4375.45312-.4375 1.17188 0 .76562.453126 1.21874.453124.45313 1.265624.46876l-.109374 1.07812q-1.21875-.10938-1.84375-.82812-.640626-.73438-.640626-1.96876 0-1.23437.6875-1.95312.6875-.71875 1.703126-.71875.515624 0 1.015624.21875.484376.20312 1.046876.70312.546874.48438 1.5 1.60938.796874.95312 1.09375 1.23438.28125.26562.5625.4375zm-3.21875-1.45312q-1.53125 0-2.453126-.3125-.9375-.3125-1.4375-.92188-.5-.625-.5-1.5625 0-.6875.28125-1.20312.28125-.53125.8125-.875.515626-.34375 1.265626-.53125.75-.1875 2.03125-.1875 1.515624 0 2.4375.3125.921874.29687 1.4375.92187.5.60938.5 1.5625 0 1.23438-.890626 1.95313-1.0625.84375-3.484374.84375zm0-1.07812q2.109374 0 2.8125-.5.703124-.5.703124-1.21876 0-.73437-.703124-1.21874-.703126-.5-2.8125-.5-2.125 0-2.8125.5-.703126.48437-.703126 1.23437 0 .71875.609376 1.15625.78125.54688 2.90625.54688zm4.234374-11.53126h-7.578124v2.82813h-1.015626v-6.8125h1.015626v2.84375h7.578124zm0-4.6875h-8.59375v-1.04687h3.078126q-.84375-.73437-.84375-1.85937 0-.70313.28125-1.20313.265624-.51563.75-.73437.46875-.21876 1.390624-.21876h3.9375v1.04688h-3.9375q-.796874 0-1.15625.34375-.359374.34375-.359374.96875 0 .46875.25.89062.234374.40626.65625.59376.40625.17187 1.140624.17187h3.40625zm0-6.98437h-6.21875v-.95313h.9375q-.65625-.35937-.859374-.65624-.21875-.3125-.21875-.6875 0-.53126.328124-1.07813l.984376.35937q-.234376.39063-.234376.76563 0 .35937.21875.64063.203126.26562.578126.375.5625.1875 1.21875.1875h3.265624zm-2-8.26563.125-1.09374q.953126.25 1.484376.95312.53125.70312.53125 1.78125 0 1.35937-.84375 2.17187-.84375.79688-2.359376.79688-1.5625 0-2.421874-.8125-.875-.8125-.875-2.09375 0-1.25.84375-2.03125.84375-.79688 2.390624-.79688.09375 0 .28125 0v4.64063q1.03125-.0625 1.578126-.57813.53125-.51562.53125-1.29687 0-.57813-.296876-.98437-.3125-.42188-.96875-.65626zm-1.703124 3.45313v-3.46875q-.796876.0625-1.1875.39062-.609376.51563-.609376 1.3125 0 .73438.484376 1.23438.484374.48438 1.3125.53125zm2.9375-10.26563q.5.59376.703124 1.14063.203126.53125.203126 1.15625 0 1.03125-.5 1.57812-.5.54688-1.28125.54688-.453126 0-.828126-.20312-.390624-.20313-.609374-.54688-.234376-.34375-.34375-.76562-.09375-.29688-.171876-.9375-.140624-1.26563-.359374-1.875-.21875 0-.265626 0-.65625 0-.921874.29687-.34375.40625-.34375 1.20313 0 .73437.265624 1.09374.25.35938.90625.53126l-.140624 1.03124q-.65625-.14062-1.0625-.46874-.40625-.32813-.625-.9375-.21875-.60938-.21875-1.40626 0-.79687.1875-1.29687.1875-.5.46875-.73437.28125-.23438.71875-.32813.265624-.04687.96875-.04687h1.40625q1.46875 0 1.859374-.0625.390626-.07813.75-.28126v1.10938q-.328124.15625-.765624.20312zm-2.359376.09376q.234376.57812.40625 1.71874.09375.65626.21875.92188.109376.26562.328126.42188.21875.14062.5.14062.421874 0 .703124-.3125.28125-.32812.28125-.9375 0-.60938-.265624-1.07812-.265626-.48438-.734376-.70313-.359374-.17187-1.046874-.17187zm3.125-7.0625h-.78125q.921876.59374.921876 1.73437 0 .75-.40625 1.375-.421876.625-1.15625.96875-.734376.34375-1.6875.34375-.921876 0-1.6875-.3125-.765626-.3125-1.15625-.9375-.40625-.625-.40625-1.39063 0-.5625.234374-1 .234376-.4375.609376-.71874h-3.078126v-1.04688h8.59375zm-3.109374 3.32812q1.203124 0 1.796874-.5.578126-.5.578126-1.1875 0-.6875-.5625-1.17188-.5625-.48437-1.71875-.48437-1.28125 0-1.875.5-.59375.48437-.59375 1.20313 0 .70312.578124 1.17187.5625.46875 1.796876.46875zm1.25-5.875-.15625-1.03125q.625-.09375.953124-.48437.328126-.40626.328126-1.14063 0-.71875-.28125-1.0625-.296876-.35937-.703126-.35937-.359374 0-.5625.3125-.140624.21874-.359374 1.07812-.296876 1.15625-.5 1.60938-.21875.4375-.59375.67187-.375.23437-.84375.23437-.40625 0-.765626-.1875-.359374-.1875-.59375-.51562-.171874-.25-.296874-.67188-.125-.42187-.125-.92187 0-.71875.21875-1.26563.203124-.5625.5625-.82812.359374-.26562.953124-.35938l.140626 1.03126q-.46875.0625-.734376.40624-.28125.32813-.28125.95313 0 .71875.25 1.03125.234376.3125.5625.3125.203126 0 .359376-.125.171874-.14062.28125-.40625.0625-.15625.265624-.9375.3125-1.125.5-1.5625.1875-.4375.546876-.6875.359374-.25.90625-.25.53125 0 1 .3125.453124.29687.71875.875.25.57813.25 1.3125 0 1.21875-.5 1.85937-.515626.625-1.5.79688zm4.390624-7.10938v.75q-2.8125-1.75-5.640624-1.75-1.09375 0-2.1875.25-.875.20313-1.6875.5625-.515626.23438-1.75.9375v-.75q1.46875-1.09374 2.953124-1.625 1.28125-.45312 2.671876-.45312 1.578124 0 3.0625.60938 1.46875.60937 2.578124 1.46874z"/>
    <path d="m70.55 594.71564q0-1.53124.3125-2.45314.3125-.9375.92188-1.4375.625-.5 1.5625-.5.6875 0 1.20312.28126.53125.28124.875.8125.34375.51564.53125 1.26564.1875.75.1875 2.03124 0 1.51562-.3125 2.4375-.29687.92186-.92187 1.4375-.60938.5-1.5625.5-1.23438 0-1.95313-.89064-.84375-1.0625-.84375-3.48436zm1.07813 0q0 2.10936.5 2.8125.5.70312 1.21875.70312.73437 0 1.21875-.70312.5-.70314.5-2.8125 0-2.125-.5-2.8125-.48438-.70314-1.23438-.70314-.71875 0-1.15625.6094-.54687.78124-.54687 2.90624zm6.48437 4.23436v-1.2031h1.20313v1.2031q0 .65626-.23438 1.0625-.23437.4219-.73437.64064l-.29688-.45314q.32813-.1406.48438-.4375.15625-.28124.1875-.8125zm2.4375-4.23436q0-1.53124.3125-2.45314.3125-.9375.92188-1.4375.625-.5 1.5625-.5.6875 0 1.20312.28126.53125.28124.875.8125.34375.51564.53125 1.26564.1875.75.1875 2.03124 0 1.51562-.3125 2.4375-.29687.92186-.92187 1.4375-.60938.5-1.5625.5-1.23438 0-1.95313-.89064-.84375-1.0625-.84375-3.48436zm1.07813 0q0 2.10936.5 2.8125.5.70312 1.21875.70312.73437 0 1.21875-.70312.5-.70314.5-2.8125 0-2.125-.5-2.8125-.48438-.70314-1.23438-.70314-.71875 0-1.15625.6094-.54687.78124-.54687 2.90624z"/>
    <path d="m70.55 456.24063q0-1.53125.3125-2.45313.3125-.9375.92188-1.4375.625-.5 1.5625-.5.6875 0 1.20312.28126.53125.28124.875.8125.34375.51562.53125 1.26562.1875.75.1875 2.03125 0 1.51563-.3125 2.4375-.29687.92187-.92187 1.4375-.60938.5-1.5625.5-1.23438 0-1.95313-.89063-.84375-1.0625-.84375-3.48437zm1.07813 0q0 2.10937.5 2.8125.5.70313 1.21875.70313.73437 0 1.21875-.70313.5-.70313.5-2.8125 0-2.125-.5-2.8125-.48438-.70313-1.23438-.70313-.71875 0-1.15625.60938-.54687.78125-.54687 2.90625zm6.48437 4.23437v-1.20312h1.20313v1.20312q0 .65626-.23438 1.0625-.23437.42188-.73437.64063l-.29688-.45313q.32813-.14062.48438-.4375.15625-.28124.1875-.8125zm7.98438-1.01562v1.01562h-5.6875q0-.375.125-.73437.21875-.57813.6875-1.14063.48437-.5625 1.39062-1.29687 1.40625-1.15625 1.89063-1.82813.5-.67187.5-1.26562 0-.625-.45313-1.04688-.45312-.4375-1.17187-.4375-.76563 0-1.21875.45313-.45313.45313-.46875 1.26563l-1.07813-.10938q.10938-1.21875.82813-1.84375.73437-.64063 1.96875-.64063 1.23437 0 1.95312.6875.71875.6875.71875 1.70313 0 .51563-.21875 1.01563-.20312.48437-.70312 1.04687-.48438.54687-1.60938 1.5-.95312.79687-1.23437 1.09375-.26563.28125-.4375.5625z"/>
    <path d="m70.55 317.76562q0-1.53124.3125-2.45312.3125-.9375.92188-1.4375.625-.5 1.5625-.5.6875 0 1.20312.28125.53125.28125.875.8125.34375.51563.53125 1.26563.1875.75.1875 2.03124 0 1.51563-.3125 2.4375-.29687.92188-.92187 1.4375-.60938.5-1.5625.5-1.23438 0-1.95313-.89062-.84375-1.0625-.84375-3.48438zm1.07813 0q0 2.10938.5 2.8125.5.70313 1.21875.70313.73437 0 1.21875-.70313.5-.70312.5-2.8125 0-2.125-.5-2.8125-.48438-.70312-1.23438-.70312-.71875 0-1.15625.60938-.54687.78124-.54687 2.90624zm6.48437 4.23438v-1.20312h1.20313v1.20312q0 .65625-.23438 1.0625-.23437.42188-.73437.64062l-.29688-.45312q.32813-.14062.48438-.4375.15625-.28125.1875-.8125zm5.8125 0v-2.0625h-3.71875v-.96875l3.92188-5.5625h.85937v5.5625h1.15625v.96875h-1.15625v2.0625zm0-3.03125v-3.85937l-2.6875 3.85937z"/>
    <path d="m70.55 179.29062q0-1.53125.3125-2.45312.3125-.9375.92188-1.4375.625-.5 1.5625-.5.6875 0 1.20312.28124.53125.28126.875.8125.34375.51563.53125 1.26563.1875.75.1875 2.03125 0 1.51562-.3125 2.4375-.29687.92188-.92187 1.4375-.60938.5-1.5625.5-1.23438 0-1.95313-.89062-.84375-1.0625-.84375-3.48438zm1.07813 0q0 2.10938.5 2.8125.5.70312 1.21875.70312.73437 0 1.21875-.70312.5-.70312.5-2.8125 0-2.125-.5-2.8125-.48438-.70312-1.23438-.70312-.71875 0-1.15625.60937-.54687.78125-.54687 2.90625zm6.48437 4.23438v-1.20313h1.20313v1.20313q0 .65624-.23438 1.0625-.23437.42187-.73437.64062l-.29688-.45312q.32813-.14063.48438-.4375.15625-.28126.1875-.8125zm7.90625-6.48438-1.04687.07812q-.14063-.625-.39063-.90624-.4375-.45313-1.0625-.45313-.5 0-.89062.28125-.48438.375-.78125 1.07812-.28125.6875-.29688 1.96876.375-.57813.92188-.85938.5625-.28125 1.17187-.28125 1.04688 0 1.78125.78125.75.78125.75 2 0 .8125-.35937 1.51562-.34375.6875-.95313 1.0625-.60937.35938-1.375.35938-1.32812 0-2.15625-.96875-.82812-.96875-.82812-3.1875 0-2.5.92187-3.625.79688-.98437 2.15625-.98437 1.01563 0 1.65625.57812.65625.5625.78125 1.5625zm-4.29687 3.70312q0 .54688.21875 1.04688.23437.48438.64062.75.42188.26562.89063.26562.65625 0 1.14062-.53124.48438-.54688.48438-1.46876 0-.89062-.48438-1.40624-.46875-.51563-1.1875-.51563-.71875 0-1.21875.51563-.48437.51562-.48437 1.34374z"/>
    <path d="m70.55 40.815624q0-1.53125.3125-2.453124.3125-.9375.92188-1.4375.625-.5 1.5625-.5.6875 0 1.20312.28125.53125.28125.875.8125.34375.515624.53125 1.265624.1875.75.1875 2.03125 0 1.515626-.3125 2.4375-.29687.921876-.92187 1.4375-.60938.5-1.5625.5-1.23438 0-1.95313-.890624-.84375-1.0625-.84375-3.484376zm1.07813 0q0 2.109376.5 2.8125.5.703126 1.21875.703126.73437 0 1.21875-.703126.5-.703124.5-2.8125 0-2.125-.5-2.8125-.48438-.703124-1.23438-.703124-.71875 0-1.15625.609374-.54687.78125-.54687 2.90625zm6.48437 4.234376v-1.203126h1.20313v1.203126q0 .65625-.23438 1.0625-.23437.421874-.73437.640624l-.29688-.453124q.32813-.140626.48438-.4375.15625-.28125.1875-.8125zm4.0625-4.65625q-.65625-.25-.98437-.6875-.3125-.453126-.3125-1.0625 0-.9375.67187-1.578126.6875-.640624 1.79688-.640624 1.125 0 1.8125.65625.6875.65625.6875 1.59375 0 .59375-.3125 1.03125-.3125.4375-.95313.6875.79688.25 1.20313.828124.40625.578126.40625 1.375 0 1.09375-.78125 1.84375-.76563.75-2.04688.75-1.26562 0-2.04687-.75-.78125-.75-.78125-1.875 0-.84375.42187-1.40625.4375-.5625 1.21875-.765624zm-.21875-1.796876q0 .609376.39063 1 .40625.390626 1.03125.390626.60937 0 1-.375.39062-.390626.39062-.953126 0-.578124-.40625-.96875-.40625-.40625-1-.40625-.60937 0-1.01562.390626-.39063.390624-.39063.921874zm-.32812 3.96875q0 .453126.20312.875.21875.421876.64063.65625.42187.234376.90625.234376.75 0 1.23437-.484376.5-.484374.5-1.234374 0-.765626-.5-1.265626-.5-.5-1.26562-.5-.75 0-1.23438.5-.48437.484376-.48437 1.21875z"/>
    <path d="m122.662865 611.95h-1.046875v-6.71874q-.390625.35938-1.015625.73438-.609375.35936-1.09375.53126v-1.01564q.875-.42186 1.53125-1 .671875-.59376.953125-1.15626h.671875z"/>
    <path d="m181.52922 610.9344v1.0156h-5.6875q0-.375.125-.73436.21875-.57814.6875-1.14064.48438-.5625 1.39063-1.29686 1.40625-1.15624 1.89062-1.82814.5-.67186.5-1.2656 0-.625-.45312-1.0469-.45313-.4375-1.17188-.4375-.76562 0-1.21875.45314-.45312.45312-.46875 1.26562l-1.07812-.10936q.10937-1.21876.82812-1.84376.73438-.64064 1.96875-.64064 1.23438 0 1.95313.6875.71875.6875.71875 1.70314 0 .51562-.21875 1.01562-.20313.48438-.70313 1.04688-.48437.54686-1.60937 1.5-.95313.79686-1.23438 1.09376-.26562.28124-.4375.5625z"/>
    <path d="m233.27058 609.6844 1.0625-.14064q.17188.89064.60938 1.29688.4375.39062 1.0625.39062.75 0 1.26562-.51562.51563-.51564.51563-1.28124 0-.71876-.48438-1.1875-.46875-.4844-1.20312-.4844-.29688 0-.75.125l.125-.9375q.10937.01564.17187.01564.67188 0 1.20313-.34374.54687-.3594.54687-1.09376 0-.57814-.39062-.95314-.39063-.3906-1.01563-.3906-.60937 0-1.03125.3906-.40625.39064-.51562 1.15626l-1.0625-.1875q.1875-1.04686.875-1.625.6875-.59376 1.70312-.59376.70313 0 1.29688.3125.59375.2969.90625.8125.3125.51564.3125 1.1094 0 .54686-.29688 1.0156-.29687.45314-.875.71876.75.17188 1.17188.73438.42187.54686.42187 1.39062 0 1.125-.82812 1.90624-.8125.78126-2.0625.78126-1.125 0-1.875-.67186-.75-.6875-.85938-1.75z"/>
    <path d="m293.93384 611.95v-2.0625h-3.71874v-.96874l3.92186-5.5625h.85938v5.5625h1.15626v.96874h-1.15626v2.0625zm0-3.03124v-3.85936l-2.6875 3.85936z"/>
    <path d="m347.84705 609.7 1.10937-.09374q.125.8125.5625 1.21874.45313.40626 1.09375.40626.75 0 1.28125-.57812.53125-.57814.53125-1.51564 0-.90624-.51562-1.42186-.5-.53124-1.32813-.53124-.5 0-.92187.23436-.40625.23438-.64063.59374l-.98437-.125.82812-4.40624h4.28125v1h-3.4375l-.45312 2.3125q.76562-.54686 1.60937-.54686 1.125 0 1.89063.78124.78125.78126.78125 2.01562 0 1.15624-.67188 2.01564-.82812 1.03124-2.25 1.03124-1.17187 0-1.92187-.65624-.73438-.65626-.84375-1.7344z"/>
    <path d="m410.60403 605.46564-1.04687.07812q-.14063-.625-.39063-.90626-.4375-.4531-1.0625-.4531-.5 0-.89063.28124-.48437.375-.78124 1.07812-.28126.6875-.29688 1.96874.375-.5781.92188-.85936.5625-.28124 1.17187-.28124 1.04687 0 1.78125.78124.75.78126.75 2 0 .8125-.35938 1.51562-.34374.6875-.95312 1.0625-.60938.35938-1.375.35938-1.32812 0-2.15625-.96874-.82813-.96876-.82813-3.1875 0-2.5.92188-3.625.79688-.9844 2.15625-.9844 1.01563 0 1.65625.57814.65625.5625.78125 1.5625zm-4.29687 3.70312q0 .54688.21874 1.04688.23438.48436.64063.75.42187.26562.89063.26562.65624 0 1.14062-.53126.48438-.54686.48438-1.46874 0-.89062-.48438-1.40626-.46875-.5156-1.1875-.5156-.71875 0-1.21875.5156-.48437.51564-.48437 1.34376z"/>
    <path d="m462.48602 604.48126v-1.01562h5.5625v.82812q-.8125.875-1.625 2.32814-.79687 1.4375-1.23437 2.96874-.32813 1.07812-.40625 2.35936h-1.09375q.01562-1.0156.39062-2.4531.39063-1.4375 1.09375-2.76564.71875-1.32812 1.53125-2.25z"/>
    <path d="m521.3368 607.29376q-.65626-.25-.9844-.6875-.3125-.45312-.3125-1.0625 0-.9375.6719-1.57812.6875-.64064 1.79687-.64064 1.125 0 1.8125.65626.6875.65624.6875 1.59374 0 .59376-.3125 1.03126-.3125.4375-.95313.6875.79686.25 1.20313.82814.40623.5781.40623 1.375 0 1.09374-.78123 1.84374-.76563.75-2.04687.75-1.26563 0-2.0469-.75-.78123-.75-.78123-1.875 0-.84374.42187-1.40624.4375-.5625 1.21876-.76564zm-.21876-1.79686q0 .60936.39063 1 .40623.3906 1.03123.3906.6094 0 1-.375.39064-.3906.39064-.9531 0-.57814-.40624-.96876-.40626-.40624-1-.40624-.6094 0-1.01563.3906-.39063.39064-.39063.9219zm-.32814 3.96874q0 .45312.20314.875.21876.42186.64063.65626.42187.23436.90623.23436.75 0 1.2344-.48436.5-.4844.5-1.2344 0-.7656-.5-1.2656-.5-.5-1.26563-.5-.75 0-1.23437.5-.4844.48436-.4844 1.21874z"/>
    <path d="m577.15625 609.96564 1.01565-.09374q.125.71874.48435 1.04686.375.3125.9375.3125.48435 0 .84375-.21876.375-.23436.6094-.59374.23435-.375.3906-1 .15625-.64062.15625-1.29686 0-.07814 0-.21876-.3125.5-.85935.82812-.5469.3125-1.1875.3125-1.07815 0-1.8125-.76562-.7344-.78124-.7344-2.04688 0-1.3125.7656-2.10936.7813-.7969 1.9375-.7969.82815 0 1.51565.45314.70315.45312 1.0625 1.29686.35935.82814.35935 2.40626 0 1.64064-.35935 2.625-.34375.96874-1.0625 1.48438-.70315.5-1.64065.5-1.0156 0-1.6562-.54688-.64065-.5625-.76565-1.57812zm4.3125-3.79688q0-.90626-.48435-1.4375-.4688-.53126-1.1563-.53126-.7031 0-1.23435.57814-.51565.5625-.51565 1.48436 0 .8125.5 1.32814.5.51562 1.2188.51562.73435 0 1.2031-.51562.46875-.51564.46875-1.42188z"/>
    <path d="m634.75696 611.95h-1.04686v-6.71874q-.39064.35938-1.01564.73438-.60936.35936-1.09376.53126v-1.01564q.875-.42186 1.53126-1 .67187-.59376.95314-1.15626h.67186zm3.03124-4.23436q0-1.53124.3125-2.45314.3125-.9375.9219-1.4375.625-.5 1.5625-.5.6875 0 1.2031.28126.53126.28124.875.8125.34376.51564.53126 1.26564.1875.75.1875 2.03124 0 1.51562-.3125 2.4375-.29686.92186-.92186 1.4375-.6094.5-1.5625.5-1.2344 0-1.95314-.89064-.84376-1.0625-.84376-3.48436zm1.07813 0q0 2.10936.5 2.8125.5.70312 1.21877.70312.73436 0 1.21873-.70312.5-.70314.5-2.8125 0-2.125-.5-2.8125-.48437-.70314-1.23437-.70314-.71876 0-1.15626.6094-.54687.78124-.54687 2.90624z"/>
    <path d="m692.0452 611.95h-1.04685v-6.71874q-.39065.35938-1.01565.73438-.60935.35936-1.0937.53126v-1.01564q.875-.42186 1.5312-1 .6719-.59376.95315-1.15626h.67185zm7 0h-1.04685v-6.71874q-.39065.35938-1.01565.73438-.60935.35936-1.0937.53126v-1.01564q.875-.42186 1.5312-1 .6719-.59376.95315-1.15626h.67185z"/>
    <path d="m749.33344 611.95h-1.04688v-6.71874q-.39062.35938-1.01562.73438-.60938.35936-1.09374.53126v-1.01564q.875-.42186 1.53124-1 .67186-.59376.95312-1.15626h.67188zm8.57812-1.0156v1.0156h-5.6875q0-.375.125-.73436.21874-.57814.6875-1.14064.48438-.5625 1.39064-1.29686 1.40624-1.15624 1.8906-1.82814.5-.67186.5-1.2656 0-.625-.4531-1.0469-.45314-.4375-1.1719-.4375-.7656 0-1.21874.45314-.45312.45312-.46876 1.26562l-1.0781-.10936q.10936-1.21876.8281-1.84376.7344-.64064 1.96876-.64064 1.23438 0 1.95314.6875.71874.6875.71874 1.70314 0 .51562-.21874 1.01562-.20314.48438-.70314 1.04688-.48436.54686-1.60936 1.5-.95314.79686-1.2344 1.09376-.2656.28124-.4375.5625z"/>
    <path d="m806.6217 611.95h-1.0469v-6.71874q-.3906.35938-1.0156.73438-.6094.35936-1.09375.53126v-1.01564q.875-.42186 1.53125-1 .6719-.59376.9531-1.15626h.6719zm3.03125-2.2656 1.0625-.14064q.17185.89064.60935 1.29688.4375.39062 1.0625.39062.75 0 1.26565-.51562.51565-.51564.51565-1.28124 0-.71876-.4844-1.1875-.46875-.4844-1.2031-.4844-.2969 0-.75.125l.125-.9375q.10935.01564.17185.01564.67185 0 1.20315-.34374.54685-.3594.54685-1.09376 0-.57814-.39065-.95314-.3906-.3906-1.0156-.3906-.6094 0-1.03125.3906-.40625.39064-.51565 1.15626l-1.0625-.1875q.1875-1.04686.875-1.625.6875-.59376 1.70315-.59376.70315 0 1.29685.3125.5938.2969.9063.8125.3125.51564.3125 1.1094 0 .54686-.2969 1.0156-.2969.45314-.875.71876.75.17188 1.1719.73438.42185.54686.42185 1.39062 0 1.125-.82815 1.90624-.8125.78126-2.0625.78126-1.125 0-1.875-.67186-.75-.6875-.85935-1.75z"/>
    <path d="m863.9099 611.95h-1.04686v-6.71874q-.39064.35938-1.01564.73438-.60936.35936-1.09374.53126v-1.01564q.875-.42186 1.53124-1 .6719-.59376.95314-1.15626h.67186zm6.40626 0v-2.0625h-3.71876v-.96874l3.9219-5.5625h.85936v5.5625h1.15624v.96874h-1.15624v2.0625zm0-3.03124v-3.85936l-2.6875 3.85936z"/>
    <path d="m921.1982 611.95h-1.0469v-6.71874q-.3906.35938-1.0156.73438-.6094.35936-1.09377.53126v-1.01564q.875-.42186 1.53127-1 .67186-.59376.9531-1.15626h.6719zm3.03123-2.25 1.10937-.09374q.125.8125.5625 1.21874.45313.40626 1.09376.40626.75 0 1.28124-.57812.53126-.57814.53126-1.51564 0-.90624-.51563-1.42186-.5-.53124-1.32813-.53124-.5 0-.92187.23436-.40623.23438-.64063.59374l-.98437-.125.82813-4.40624h4.28124v1h-3.4375l-.4531 2.3125q.7656-.54686 1.60936-.54686 1.125 0 1.89064.78124.78123.78126.78123 2.01562 0 1.15624-.67187 2.01564-.82813 1.03124-2.25 1.03124-1.17186 0-1.92186-.65624-.7344-.65626-.84377-1.7344z"/>
    <path d="m978.4864 611.95h-1.0469v-6.71874q-.3906.35938-1.0156.73438-.6094.35936-1.09376.53126v-1.01564q.875-.42186 1.53126-1 .67186-.59376.9531-1.15626h.6719zm8.5-6.48436-1.0469.07812q-.1406-.625-.3906-.90626-.4375-.4531-1.0625-.4531-.5 0-.89064.28124-.48436.375-.78126 1.07812-.28124.6875-.29686 1.96874.375-.5781.92186-.85936.5625-.28124 1.1719-.28124 1.04686 0 1.78124.78124.75.78126.75 2 0 .8125-.35938 1.51562-.34376.6875-.95312 1.0625-.60938.35938-1.375.35938-1.32814 0-2.15624-.96874-.82814-.96876-.82814-3.1875 0-2.5.92188-3.625.79686-.9844 2.15626-.9844 1.0156 0 1.65624.57814.65626.5625.78126 1.5625zm-4.2969 3.70312q0 .54688.21876 1.04688.23438.48436.64064.75.42186.26562.8906.26562.65626 0 1.14064-.53126.48436-.54686.48436-1.46874 0-.89062-.48436-1.40626-.46874-.5156-1.1875-.5156-.71874 0-1.21874.5156-.4844.51564-.4844 1.34376z"/>
    <path d="m1035.7747 611.95h-1.0469v-6.71874q-.3906.35938-1.0156.73438-.6094.35936-1.0938.53126v-1.01564q.875-.42186 1.5313-1 .6718-.59376.9531-1.15626h.6719zm3.0937-7.46874v-1.01562h5.5625v.82812q-.8125.875-1.625 2.32814-.7969 1.4375-1.2344 2.96874-.3281 1.07812-.4062 2.35936h-1.0938q.0157-1.0156.3907-2.4531.3906-1.4375 1.0937-2.76564.7188-1.32812 1.5313-2.25z"/>
  </g>
</svg>
