<?xml version="1.0"?>
<svg xmlns="http://www.w3.org/2000/svg" xmlns:xlink="http://www.w3.org/1999/xlink" fill="none" stroke-linecap="square" stroke-miterlimit="10" viewBox="0 0 600 371">
  <clipPath id="a">
    <path d="m126.55 51.916668h454.9v248.533332h-454.9z"/>
  </clipPath>
  <path d="m0 0h600v371h-600z" fill="#fff"/>
  <g stroke-linecap="butt">
    <g stroke="#ccc">
      <path d="m126.5 275.5h455"/>
      <path d="m126.5 232.5h455"/>
      <path d="m126.5 188.5h455"/>
      <path d="m126.5 145.5h455"/>
      <path d="m126.5 101.5h455"/>
      <path d="m126.5 58.5h455"/>
    </g>
    <g stroke-width="2">
      <path clip-path="url(#a)" d="m139.92941 300.45 26.75882-.43166 26.75882-.21219 26.75884.1572 26.75881.43741 26.75884-.5878 26.75882-.14243 26.75882-.63125 26.75882-3.65928 26.75882-10.92724 26.75882-22.75568 26.75882-30.17064 26.75884-33.0881 26.75883-34.76987 26.75877-23.78605 26.75887-49.002644 26.75883-38.963108" stroke="#4285f4"/>
      <path clip-path="url(#a)" d="m139.92941 293.24515 26.75882-.39472 26.75882-.08453 26.75884-.58582 26.75881.63742 26.75884-.33526 26.75882.12503 26.75882-.46802 26.75882-.44785 26.75882-1.7324 26.75882-6.55284 26.75882-17.7507 26.75884-27.64486 26.75883-29.26799 26.75877-36.68391 26.75887-34.87605 26.75883-38.5815" stroke="#ea4335"/>
    </g>
  </g>
  <g fill="none">
    <path clip-path="url(#a)" d="m142.92941 300.45c0 1.65684-1.34314 3-3 3s-3-1.34316-3-3c0-1.65685 1.34314-3 3-3s3 1.34315 3 3z"/>
    <path clip-path="url(#a)" d="m169.68823 300.01834c0 1.65686-1.34313 3-3 3-1.65684 0-3-1.34314-3-3s1.34316-3 3-3c1.65687 0 3 1.34314 3 3z"/>
    <path clip-path="url(#a)" d="m196.44705 299.80615c0 1.65685-1.34314 3-3 3-1.65685 0-3-1.34315-3-3s1.34315-3 3-3c1.65686 0 3 1.34315 3 3z"/>
    <path clip-path="url(#a)" d="m223.20589 299.96335c0 1.65685-1.34316 3-3 3-1.65686 0-3-1.34315-3-3s1.34314-3 3-3c1.65684 0 3 1.34315 3 3z"/>
    <path clip-path="url(#a)" d="m249.9647 300.40076c0 1.65686-1.34313 3-3 3-1.65685 0-3-1.34314-3-3 0-1.65683 1.34315-3 3-3 1.65687 0 3 1.34317 3 3z"/>
    <path clip-path="url(#a)" d="m276.72354 299.81296c0 1.65686-1.34317 3-3 3-1.65686 0-3-1.34314-3-3 0-1.65683 1.34314-3 3-3 1.65683 0 3 1.34317 3 3z"/>
    <path clip-path="url(#a)" d="m303.48236 299.67053c0 1.65687-1.34314 3-3 3s-3-1.34313-3-3c0-1.65686 1.34314-3 3-3s3 1.34314 3 3z"/>
    <path clip-path="url(#a)" d="m330.24118 299.03928c0 1.65682-1.34314 3-3 3s-3-1.34318-3-3c0-1.65686 1.34314-3 3-3s3 1.34314 3 3z"/>
    <path clip-path="url(#a)" d="m357 295.38c0 1.65683-1.34314 3-3 3s-3-1.34317-3-3c0-1.65686 1.34314-3 3-3s3 1.34314 3 3z"/>
    <path clip-path="url(#a)" d="m383.75882 284.45276c0 1.65686-1.34314 3-3 3s-3-1.34314-3-3c0-1.65683 1.34314-3 3-3s3 1.34317 3 3z"/>
    <path clip-path="url(#a)" d="m410.51764 261.69708c0 1.65686-1.34314 3-3 3s-3-1.34314-3-3 1.34314-3 3-3 3 1.34314 3 3z"/>
    <path clip-path="url(#a)" d="m437.27646 231.52644c0 1.65686-1.34314 3-3 3-1.65683 0-3-1.34314-3-3s1.34317-3 3-3c1.65686 0 3 1.34314 3 3z"/>
    <path clip-path="url(#a)" d="m464.0353 198.43834c0 1.65684-1.34316 3-3 3-1.65685 0-3-1.34316-3-3 0-1.65686 1.34315-3 3-3 1.65684 0 3 1.34314 3 3z"/>
    <path clip-path="url(#a)" d="m490.79413 163.66847c0 1.65685-1.34317 3-3 3-1.65686 0-3-1.34315-3-3 0-1.65686 1.34314-3 3-3 1.65683 0 3 1.34314 3 3z"/>
    <path clip-path="url(#a)" d="m517.5529 139.88242c0 1.65684-1.3431 3-3 3-1.65684 0-2.99995-1.34316-2.99995-3 0-1.65686 1.34311-3 2.99995-3 1.6569 0 3 1.34314 3 3z"/>
    <path clip-path="url(#a)" d="m544.31177 90.879776c0 1.656864-1.34317 3-3 3-1.65687 0-3-1.343136-3-3 0-1.656856 1.34313-3 3-3 1.65683 0 3 1.343144 3 3z"/>
    <path clip-path="url(#a)" d="m571.0706 51.916668c0 1.656852-1.3432 3-3 3-1.65684 0-3-1.343148-3-3 0-1.656858 1.34316-3 3-3 1.6568 0 3 1.343142 3 3z"/>
    <path clip-path="url(#a)" d="m142.92941 293.24515c0 1.65685-1.34314 3-3 3s-3-1.34315-3-3 1.34314-3 3-3 3 1.34315 3 3z"/>
    <path clip-path="url(#a)" d="m169.68823 292.85043c0 1.65683-1.34313 3-3 3-1.65684 0-3-1.34317-3-3 0-1.65686 1.34316-3 3-3 1.65687 0 3 1.34314 3 3z"/>
    <path clip-path="url(#a)" d="m196.44705 292.7659c0 1.65686-1.34314 3-3 3-1.65685 0-3-1.34314-3-3s1.34315-3 3-3c1.65686 0 3 1.34314 3 3z"/>
    <path clip-path="url(#a)" d="m223.20589 292.18008c0 1.65686-1.34316 3-3 3-1.65686 0-3-1.34314-3-3s1.34314-3 3-3c1.65684 0 3 1.34314 3 3z"/>
    <path clip-path="url(#a)" d="m249.9647 292.8175c0 1.65687-1.34313 3-3 3-1.65685 0-3-1.34313-3-3 0-1.65686 1.34315-3 3-3 1.65687 0 3 1.34314 3 3z"/>
    <path clip-path="url(#a)" d="m276.72354 292.48224c0 1.65686-1.34317 3-3 3-1.65686 0-3-1.34314-3-3 0-1.65684 1.34314-3 3-3 1.65683 0 3 1.34316 3 3z"/>
    <path clip-path="url(#a)" d="m303.48236 292.60727c0 1.65686-1.34314 3-3 3s-3-1.34314-3-3c0-1.65687 1.34314-3 3-3s3 1.34313 3 3z"/>
    <path clip-path="url(#a)" d="m330.24118 292.13925c0 1.65685-1.34314 3-3 3s-3-1.34315-3-3 1.34314-3 3-3 3 1.34315 3 3z"/>
    <path clip-path="url(#a)" d="m357 291.6914c0 1.65687-1.34314 3-3 3s-3-1.34313-3-3c0-1.65682 1.34314-3 3-3s3 1.34318 3 3z"/>
    <path clip-path="url(#a)" d="m383.75882 289.959c0 1.65688-1.34314 3-3 3s-3-1.34312-3-3c0-1.65685 1.34314-3 3-3s3 1.34315 3 3z"/>
    <path clip-path="url(#a)" d="m410.51764 283.40616c0 1.65686-1.34314 3-3 3s-3-1.34314-3-3c0-1.65683 1.34314-3 3-3s3 1.34317 3 3z"/>
    <path clip-path="url(#a)" d="m437.27646 265.65546c0 1.65686-1.34314 3-3 3-1.65683 0-3-1.34314-3-3s1.34317-3 3-3c1.65686 0 3 1.34314 3 3z"/>
    <path clip-path="url(#a)" d="m464.0353 238.0106c0 1.65685-1.34316 3-3 3-1.65685 0-3-1.34315-3-3 0-1.65686 1.34315-3 3-3 1.65684 0 3 1.34314 3 3z"/>
    <path clip-path="url(#a)" d="m490.79413 208.74261c0 1.65685-1.34317 3-3 3-1.65686 0-3-1.34315-3-3 0-1.65686 1.34314-3 3-3 1.65683 0 3 1.34314 3 3z"/>
    <path clip-path="url(#a)" d="m517.5529 172.0587c0 1.65685-1.3431 3-3 3-1.65684 0-2.99995-1.34315-2.99995-3 0-1.65686 1.34311-3 2.99995-3 1.6569 0 3 1.34314 3 3z"/>
    <path clip-path="url(#a)" d="m544.31177 137.18265c0 1.65686-1.34317 3-3 3-1.65687 0-3-1.34314-3-3 0-1.65685 1.34313-3 3-3 1.65683 0 3 1.34315 3 3z"/>
    <path clip-path="url(#a)" d="m571.0706 98.60115c0 1.65686-1.3432 3-3 3-1.65684 0-3-1.34314-3-3 0-1.65685 1.34316-3 3-3 1.6568 0 3 1.34315 3 3z"/>
  </g>
  <g fill="#000">
    <path d="m318.42188 349.45v-8.59374h3.25q.84374 0 1.29687.07814.64063.10936 1.0625.40624.4375.29686.6875.82812.26563.53124.26563 1.17188 0 1.09376-.70313 1.85936-.6875.75-2.51563.75h-2.20312v3.5zm1.14062-4.5h2.21875q1.10937 0 1.5625-.40624.46875-.42186.46875-1.17186 0-.53126-.28125-.90626-.26563-.39064-.70313-.51564-.29687-.0781-1.0625-.0781h-2.20312zm6.71875 4.5v-6.21874h.95313v.9375q.35937-.65626.65624-.85936.3125-.21876.6875-.21876.53126 0 1.07813.32812l-.35937.98438q-.39063-.23438-.76563-.23438-.35937 0-.64063.21874-.26562.20314-.375.57814-.1875.5625-.1875 1.21876v3.2656zm3.625-3.10936q0-1.73438.95313-2.5625.79687-.6875 1.95312-.6875 1.28125 0 2.09375.84376.82813.8281.82813 2.3125 0 1.2031-.35938 1.8906-.35938.6875-1.0625 1.07814-.6875.375-1.5.375-1.29688 0-2.10938-.82814-.79687-.84374-.79687-2.42186zm1.07813 0q0 1.1875.51562 1.78126.53125.59374 1.3125.59374.79688 0 1.3125-.59374.51562-.59376.51562-1.8125 0-1.15626-.53124-1.75-.51563-.59376-1.29688-.59376-.78125 0-1.3125.59376-.51562.5781-.51562 1.78124zm7.28124 3.10936h-.98437v-8.59374h1.0625v3.0625q.67187-.82812 1.70313-.82812.57812 0 1.07812.23436.51562.21876.84375.64064.34375.42186.53125 1.01562.1875.59374.1875 1.26564 0 1.59374-.79688 2.46874-.79687.875-1.89062.875-1.10938 0-1.73438-.92188zm-.01562-3.15624q0 1.10938.3125 1.60938.5.8125 1.34375.8125.6875 0 1.1875-.59374.51563-.59376.51563-1.7969 0-1.21874-.48438-1.79686-.48438-.57814-1.17188-.57814-.6875 0-1.20312.6094-.5.59374-.5 1.73436zm6.01562 3.15624v-8.59374h1.0625v8.59374zm7.28126-2 1.09374.125q-.25.95314-.95312 1.4844-.70312.53124-1.78125.53124-1.35937 0-2.17187-.84374-.79688-.84376-.79688-2.3594 0-1.5625.8125-2.42186.8125-.875 2.09375-.875 1.25 0 2.03125.84376.79688.84374.79688 2.3906 0 .09376 0 .28126h-4.64063q.0625 1.03124.57813 1.57814.51562.53124 1.29687.53124.57813 0 .98437-.29688.42188-.3125.65626-.96876zm-3.45313-1.7031h3.46875q-.0625-.7969-.39062-1.1875-.51563-.6094-1.3125-.6094-.73438 0-1.23438.4844-.48438.48436-.53125 1.3125zm6.20313 3.7031v-6.21874h.9375v.875q.29687-.46876.78124-.73436.48438-.28126 1.10938-.28126.6875 0 1.125.28126.45312.28124.625.79686.75-1.07812 1.92188-1.07812.9375 0 1.42187.51562.5.5.5 1.57814v4.2656h-1.04687v-3.92186q0-.625-.10938-.90624-.09375-.28126-.35938-.45314-.26562-.17186-.64062-.17186-.65625 0-1.09375.4375-.42187.4375-.42187 1.40624v3.60936h-1.0625v-4.04686q0-.70314-.26563-1.04688-.25-.35936-.82813-.35936-.45312 0-.82812.23436-.375.23438-.54688.6875-.17187.45314-.17187 1.29688v3.23436zm12.75-2.7656 1.0625-.09376q.07812.65626.35937 1.0625.28125.40626.85937.67186.59376.25 1.32813.25.64063 0 1.14063-.1875.5-.2031.73437-.53124.25-.34376.25-.73436 0-.40626-.23437-.70314-.23438-.3125-.76563-.51562-.35937-.14064-1.54687-.42188-1.17188-.28126-1.64063-.53126-.625-.3281-.92187-.79686-.29688-.48438-.29688-1.07814 0-.6406.35938-1.2031.375-.57814 1.07812-.8594.71875-.29686 1.57812-.29686.95313 0 1.6875.3125.73438.29686 1.125.90626.39063.59374.42188 1.34374l-1.09375.07812q-.09375-.8125-.60937-1.21876-.5-.42186-1.48438-.42186-1.03125 0-1.5.375-.46875.375-.46875.90626 0 .46874.32813.7656.32812.2969 1.70312.6094 1.39062.3125 1.90625.54686.75.35938 1.10937.89064.35938.5156.35938 1.21874 0 .6875-.39062 1.29686-.39063.59376-1.125.9375-.73438.32814-1.65626.32814-1.17187 0-1.96874-.32814-.78126-.34374-1.23438-1.03124-.4375-.6875-.45312-1.54686zm8.25-4.6094v-1.21874h1.0625v1.21874zm0 7.375v-6.21874h1.0625v6.21874zm2.4375 0v-.85936l3.96874-4.54688q-.6875.03124-1.20312.03124h-2.53125v-.84374h5.09375v.6875l-3.375 3.95314-.65625.71874q.71875-.04688 1.32813-.04688h2.89062v.90624zm10.8125-2 1.09374.125q-.25.95314-.95312 1.4844-.70312.53124-1.78125.53124-1.35937 0-2.17187-.84374-.79688-.84376-.79688-2.3594 0-1.5625.8125-2.42186.8125-.875 2.09375-.875 1.25 0 2.03125.84376.79688.84374.79688 2.3906 0 .09376 0 .28126h-4.64063q.0625 1.03124.57813 1.57814.51562.53124 1.29687.53124.57813 0 .98437-.29688.42188-.3125.65626-.96876zm-3.45313-1.7031h3.46875q-.0625-.7969-.39062-1.1875-.51563-.6094-1.3125-.6094-.73438 0-1.23438.4844-.48438.48436-.53125 1.3125z"/>
    <path d="m29.550013 216.74583h-8.59375v-3.8125q0-1.15625.234375-1.75.234375-.59375.828125-.95312.578125-.35938 1.28125-.35938.921875 0 1.546875.59375.625.59375.796875 1.82813.21875-.45313.421875-.6875.453125-.5 1.140625-.9375l2.34375-1.5v1.4375l-1.78125 1.125q-.78125.5-1.1875.82812-.40625.3125-.5625.57813-.171875.25-.25.51562-.03125.1875-.03125.625v1.32813h3.8125zm-4.796875-1.14062v-2.45313q0-.76562-.15625-1.20312-.171875-.45313-.515625-.67188-.359375-.23437-.78125-.23437-.609375 0-1 .45312-.390625.4375-.390625 1.39063v2.71875zm4.796875-11.79688h-.921875q1.0625.73438 1.0625 1.98438 0 .54687-.203125 1.03125-.21875.46875-.53125.70312-.328125.23438-.796875.32813-.296875.0625-.984375.0625h-3.84375v-1.0625h3.453125q.8125 0 1.109375-.0625.40625-.09375.65625-.40625.234375-.32813.234375-.8125 0-.46875-.234375-.875-.25-.42188-.671875-.59375-.421875-.1875-1.21875-.1875h-3.328125v-1.04688h6.21875zm0-2.92187h-6.21875v-.9375h.875q-1.015625-.6875-1.015625-1.98438 0-.5625.203125-1.03125.203125-.48437.53125-.71875.328125-.23437.765625-.32812.296875-.04688 1.03125-.04688h3.828125v1.04688h-3.78125q-.65625 0-.96875.125-.3125.125-.5.4375-.203125.3125-.203125.73437 0 .67188.4375 1.17188.421875.48437 1.609375.48437h3.40625zm-.9375-9.29688.921875-.15625q.09375.45313.09375.79688 0 .57812-.171875.89062-.1875.3125-.484375.45313-.296875.125-1.25.125h-3.578125v.76562h-.8125v-.76562h-1.546875l-.625-1.04688h2.171875v-1.0625h.8125v1.0625h3.640625q.453125 0 .578125-.04687.125-.0625.203125-.1875.078125-.125.078125-.35938 0-.1875-.03125-.46875zm-6.4375-.70312h-1.21875v-1.0625h1.21875zm7.375 0h-6.21875v-1.0625h6.21875zm0-3h-6.21875v-.9375h.875q-.46875-.29688-.734375-.78125-.28125-.48438-.28125-1.10938 0-.6875.28125-1.125.28125-.45312.796875-.625-1.078125-.75-1.078125-1.92187 0-.9375.515625-1.42188.5-.5 1.578125-.5h4.265625v1.04688h-3.921875q-.625 0-.90625.10937-.28125.09375-.453125.35938-.171875.26562-.171875.64062 0 .65625.4375 1.09375.4375.42188 1.40625.42188h3.609375v1.0625h-4.046875q-.703125 0-1.046875.26562-.359375.25-.359375.82813 0 .45312.234375.82812.234375.375.6875.54688.453125.17187 1.296875.17187h3.234375zm-2-14.25.125-1.09375q.953125.25 1.484375.95312.53125.70313.53125 1.78125 0 1.35938-.84375 2.17188-.84375.79687-2.359375.79687-1.5625 0-2.421875-.8125-.875-.8125-.875-2.09375 0-1.25.84375-2.03125.84375-.79687 2.390625-.79687.09375 0 .28125 0v4.64062q1.03125-.0625 1.578125-.57812.53125-.51563.53125-1.29688 0-.57812-.296875-.98437-.3125-.42188-.96875-.65625zm-1.703125 3.45312v-3.46875q-.796875.0625-1.1875.39063-.609375.51562-.609375 1.3125 0 .73437.484375 1.23437.484375.48438 1.3125.53125zm6.234372-11.21875q-1.109372.875-2.578122 1.48438-1.484375.59375-3.0625.59375-1.390625 0-2.671875-.4375-1.484375-.53125-2.953125-1.64063v-.75q1.21875.70313 1.734375.9375.8125.35938 1.6875.5625 1.09375.25 2.203125.25 2.828125 0 5.640622-1.75zm-8.749997-7.15625h6.21875v.95313h-.734375q.46875.29687.640625.59375.234375.40625.234375.95312 0 .48438-.1875.85938-.140625.28125-.578125.625h3.015625v1.04687h-8.609375v-1.04687h2.625q1.4375 0 1.875-.14063.421875-.15625.671875-.5.234375-.34375.234375-.79687 0-.46875-.25-.82813-.265625-.375-.671875-.51562-.40625-.15625-1.828125-.15625h-2.65625zm4.359375-1.40625-.15625-1.03125q.625-.09375.953125-.48437.328125-.40625.328125-1.14063 0-.71875-.28125-1.0625-.296875-.35937-.703125-.35937-.359375 0-.5625.3125-.140625.21875-.359375 1.07812-.296875 1.15625-.5 1.60938-.21875.4375-.59375.67187-.375.23438-.84375.23438-.40625 0-.765625-.1875-.359375-.1875-.59375-.51563-.171875-.25-.296875-.67187-.125-.42188-.125-.92188 0-.71875.21875-1.26562.203125-.5625.5625-.82813.359375-.26562.953125-.35937l.140625 1.03125q-.46875.0625-.734375.40625-.28125.32812-.28125.95312 0 .71875.25 1.03125.234375.3125.5625.3125.203125 0 .359375-.125.171875-.14062.28125-.40625.0625-.15625.265625-.9375.3125-1.125.5-1.5625.1875-.4375.546875-.6875.359375-.25.90625-.25.53125 0 1 .3125.453125.29688.71875.875.25.57813.25 1.3125 0 1.21875-.5 1.85938-.515625.625-1.5.79687zm4.390622-7.10937v.75q-2.812497-1.75-5.640622-1.75-1.09375 0-2.1875.25-.875.20312-1.6875.5625-.515625.23437-1.75.9375v-.75q1.46875-1.09375 2.953125-1.625 1.28125-.45313 2.671875-.45313 1.578125 0 3.0625.60938 1.46875.60937 2.578122 1.46875z"/>
    <path d="m90.01875 279.60385h-1.04687v-6.71875q-.39063.35938-1.01563.73438-.60937.35937-1.09375.53125v-1.01563q.875-.42187 1.53125-1 .67188-.59375.95313-1.15625h.67187zm3.03125-4.23437q0-1.53125.3125-2.45313.3125-.9375.92188-1.4375.625-.5 1.5625-.5.6875 0 1.20312.28125.53125.28125.875.8125.34375.51563.53125 1.26563.1875.75.1875 2.03125 0 1.51562-.3125 2.4375-.29687.92187-.92187 1.4375-.60938.5-1.5625.5-1.23438 0-1.95313-.89063-.84375-1.0625-.84375-3.48437zm1.07813 0q0 2.10937.5 2.8125.5.70312 1.21875.70312.73437 0 1.21875-.70312.5-.70313.5-2.8125 0-2.125-.5-2.8125-.48438-.70313-1.23438-.70313-.71875 0-1.15625.60938-.54687.78125-.54687 2.90625zm5.92187 0q0-1.53125.3125-2.45313.3125-.9375.92188-1.4375.625-.5 1.5625-.5.6875 0 1.20312.28125.53125.28125.875.8125.34375.51563.53125 1.26563.1875.75.1875 2.03125 0 1.51562-.3125 2.4375-.29687.92187-.92187 1.4375-.60938.5-1.5625.5-1.23438 0-1.95313-.89063-.84375-1.0625-.84375-3.48437zm1.07813 0q0 2.10937.5 2.8125.5.70312 1.21875.70312.73437 0 1.21875-.70312.5-.70313.5-2.8125 0-2.125-.5-2.8125-.48438-.70313-1.23438-.70313-.71875 0-1.15625.60938-.54687.78125-.54687 2.90625zm5.92187 0q0-1.53125.3125-2.45313.3125-.9375.92188-1.4375.625-.5 1.5625-.5.6875 0 1.20312.28125.53125.28125.875.8125.34375.51563.53125 1.26563.1875.75.1875 2.03125 0 1.51562-.3125 2.4375-.29687.92187-.92187 1.4375-.60938.5-1.5625.5-1.23438 0-1.95313-.89063-.84375-1.0625-.84375-3.48437zm1.07813 0q0 2.10937.5 2.8125.5.70312 1.21875.70312.73437 0 1.21875-.70312.5-.70313.5-2.8125 0-2.125-.5-2.8125-.48438-.70313-1.23438-.70313-.71875 0-1.15625.60938-.54687.78125-.54687 2.90625zm5.92187 0q0-1.53125.3125-2.45313.3125-.9375.92188-1.4375.625-.5 1.5625-.5.6875 0 1.20312.28125.53125.28125.875.8125.34375.51563.53125 1.26563.1875.75.1875 2.03125 0 1.51562-.3125 2.4375-.29687.92187-.92187 1.4375-.60938.5-1.5625.5-1.23438 0-1.95313-.89063-.84375-1.0625-.84375-3.48437zm1.07813 0q0 2.10937.5 2.8125.5.70312 1.21875.70312.73437 0 1.21875-.70312.5-.70313.5-2.8125 0-2.125-.5-2.8125-.48438-.70313-1.23438-.70313-.71875 0-1.15625.60938-.54687.78125-.54687 2.90625z"/>
    <path d="m83.01875 236.19322h-1.04687v-6.71875q-.39063.35938-1.01563.73438-.60937.35937-1.09375.53125v-1.01563q.875-.42187 1.53125-1 .67188-.59375.95313-1.15625h.67187zm3.03125-4.23437q0-1.53125.3125-2.45313.3125-.9375.92188-1.4375.625-.5 1.5625-.5.6875 0 1.20312.28125.53125.28125.875.8125.34375.51563.53125 1.26563.1875.75.1875 2.03125 0 1.51562-.3125 2.4375-.29687.92187-.92187 1.4375-.60938.5-1.5625.5-1.23438 0-1.95313-.89063-.84375-1.0625-.84375-3.48437zm1.07813 0q0 2.10937.5 2.8125.5.70312 1.21875.70312.73437 0 1.21875-.70312.5-.70313.5-2.8125 0-2.125-.5-2.8125-.48438-.70313-1.23438-.70313-.71875 0-1.15625.60938-.54687.78125-.54687 2.90625zm5.92187 0q0-1.53125.3125-2.45313.3125-.9375.92188-1.4375.625-.5 1.5625-.5.6875 0 1.20312.28125.53125.28125.875.8125.34375.51563.53125 1.26563.1875.75.1875 2.03125 0 1.51562-.3125 2.4375-.29687.92187-.92187 1.4375-.60938.5-1.5625.5-1.23438 0-1.95313-.89063-.84375-1.0625-.84375-3.48437zm1.07813 0q0 2.10937.5 2.8125.5.70312 1.21875.70312.73437 0 1.21875-.70312.5-.70313.5-2.8125 0-2.125-.5-2.8125-.48438-.70313-1.23438-.70313-.71875 0-1.15625.60938-.54687.78125-.54687 2.90625zm5.92187 0q0-1.53125.3125-2.45313.3125-.9375.92188-1.4375.625-.5 1.5625-.5.6875 0 1.20312.28125.53125.28125.875.8125.34375.51563.53125 1.26563.1875.75.1875 2.03125 0 1.51562-.3125 2.4375-.29687.92187-.92187 1.4375-.60938.5-1.5625.5-1.23438 0-1.95313-.89063-.84375-1.0625-.84375-3.48437zm1.07813 0q0 2.10937.5 2.8125.5.70312 1.21875.70312.73437 0 1.21875-.70312.5-.70313.5-2.8125 0-2.125-.5-2.8125-.48438-.70313-1.23438-.70313-.71875 0-1.15625.60938-.54687.78125-.54687 2.90625zm5.92187 0q0-1.53125.3125-2.45313.3125-.9375.92188-1.4375.625-.5 1.5625-.5.6875 0 1.20312.28125.53125.28125.875.8125.34375.51563.53125 1.26563.1875.75.1875 2.03125 0 1.51562-.3125 2.4375-.29687.92187-.92187 1.4375-.60938.5-1.5625.5-1.23438 0-1.95313-.89063-.84375-1.0625-.84375-3.48437zm1.07813 0q0 2.10937.5 2.8125.5.70312 1.21875.70312.73437 0 1.21875-.70312.5-.70313.5-2.8125 0-2.125-.5-2.8125-.48438-.70313-1.23438-.70313-.71875 0-1.15625.60938-.54687.78125-.54687 2.90625zm5.92187 0q0-1.53125.3125-2.45313.3125-.9375.92188-1.4375.625-.5 1.5625-.5.6875 0 1.20312.28125.53125.28125.875.8125.34375.51563.53125 1.26563.1875.75.1875 2.03125 0 1.51562-.3125 2.4375-.29687.92187-.92187 1.4375-.60938.5-1.5625.5-1.23438 0-1.95313-.89063-.84375-1.0625-.84375-3.48437zm1.07813 0q0 2.10937.5 2.8125.5.70312 1.21875.70312.73437 0 1.21875-.70312.5-.70313.5-2.8125 0-2.125-.5-2.8125-.48438-.70313-1.23438-.70313-.71875 0-1.15625.60938-.54687.78125-.54687 2.90625z"/>
    <path d="m76.01875 192.7826h-1.04687v-6.71876q-.39063.35938-1.01563.73438-.60937.35938-1.09375.53125v-1.01563q.875-.42187 1.53125-1 .67188-.59374.95313-1.15624h.67187zm3.03125-4.23438q0-1.53125.3125-2.45312.3125-.9375.92188-1.4375.625-.5 1.5625-.5.6875 0 1.20312.28124.53125.28126.875.8125.34375.51563.53125 1.26563.1875.75.1875 2.03125 0 1.51562-.3125 2.4375-.29687.92188-.92187 1.4375-.60938.5-1.5625.5-1.23438 0-1.95313-.89062-.84375-1.0625-.84375-3.48438zm1.07813 0q0 2.10938.5 2.8125.5.70312 1.21875.70312.73437 0 1.21875-.70312.5-.70312.5-2.8125 0-2.125-.5-2.8125-.48438-.70312-1.23438-.70312-.71875 0-1.15625.60937-.54687.78125-.54687 2.90625zm5.92187 0q0-1.53125.3125-2.45312.3125-.9375.92188-1.4375.625-.5 1.5625-.5.6875 0 1.20312.28124.53125.28126.875.8125.34375.51563.53125 1.26563.1875.75.1875 2.03125 0 1.51562-.3125 2.4375-.29687.92188-.92187 1.4375-.60938.5-1.5625.5-1.23438 0-1.95313-.89062-.84375-1.0625-.84375-3.48438zm1.07813 0q0 2.10938.5 2.8125.5.70312 1.21875.70312.73437 0 1.21875-.70312.5-.70312.5-2.8125 0-2.125-.5-2.8125-.48438-.70312-1.23438-.70312-.71875 0-1.15625.60937-.54687.78125-.54687 2.90625zm5.92187 0q0-1.53125.3125-2.45312.3125-.9375.92188-1.4375.625-.5 1.5625-.5.6875 0 1.20312.28124.53125.28126.875.8125.34375.51563.53125 1.26563.1875.75.1875 2.03125 0 1.51562-.3125 2.4375-.29687.92188-.92187 1.4375-.60938.5-1.5625.5-1.23438 0-1.95313-.89062-.84375-1.0625-.84375-3.48438zm1.07813 0q0 2.10938.5 2.8125.5.70312 1.21875.70312.73437 0 1.21875-.70312.5-.70312.5-2.8125 0-2.125-.5-2.8125-.48438-.70312-1.23438-.70312-.71875 0-1.15625.60937-.54687.78125-.54687 2.90625zm5.92187 0q0-1.53125.3125-2.45312.3125-.9375.92188-1.4375.625-.5 1.5625-.5.6875 0 1.20312.28124.53125.28126.875.8125.34375.51563.53125 1.26563.1875.75.1875 2.03125 0 1.51562-.3125 2.4375-.29687.92188-.92187 1.4375-.60938.5-1.5625.5-1.23438 0-1.95313-.89062-.84375-1.0625-.84375-3.48438zm1.07813 0q0 2.10938.5 2.8125.5.70312 1.21875.70312.73437 0 1.21875-.70312.5-.70312.5-2.8125 0-2.125-.5-2.8125-.48438-.70312-1.23438-.70312-.71875 0-1.15625.60937-.54687.78125-.54687 2.90625zm5.92187 0q0-1.53125.3125-2.45312.3125-.9375.92188-1.4375.625-.5 1.5625-.5.6875 0 1.20312.28124.53125.28126.875.8125.34375.51563.53125 1.26563.1875.75.1875 2.03125 0 1.51562-.3125 2.4375-.29687.92188-.92187 1.4375-.60938.5-1.5625.5-1.23438 0-1.95313-.89062-.84375-1.0625-.84375-3.48438zm1.07813 0q0 2.10938.5 2.8125.5.70312 1.21875.70312.73437 0 1.21875-.70312.5-.70312.5-2.8125 0-2.125-.5-2.8125-.48438-.70312-1.23438-.70312-.71875 0-1.15625.60937-.54687.78125-.54687 2.90625zm5.92187 0q0-1.53125.3125-2.45312.3125-.9375.92188-1.4375.625-.5 1.5625-.5.6875 0 1.20312.28124.53125.28126.875.8125.34375.51563.53125 1.26563.1875.75.1875 2.03125 0 1.51562-.3125 2.4375-.29687.92188-.92187 1.4375-.60938.5-1.5625.5-1.23438 0-1.95313-.89062-.84375-1.0625-.84375-3.48438zm1.07813 0q0 2.10938.5 2.8125.5.70312 1.21875.70312.73437 0 1.21875-.70312.5-.70312.5-2.8125 0-2.125-.5-2.8125-.48438-.70312-1.23438-.70312-.71875 0-1.15625.60937-.54687.78125-.54687 2.90625z"/>
    <path d="m69.01875 149.37195h-1.04687v-6.71875q-.39063.35937-1.01563.73437-.60937.35938-1.09375.53125v-1.01562q.875-.42188 1.53125-1 .67188-.59375.95313-1.15625h.67187zm3.03125-4.23438q0-1.53125.3125-2.45312.3125-.9375.92188-1.4375.625-.5 1.5625-.5.6875 0 1.20312.28125.53125.28125.875.8125.34375.51562.53125 1.26562.1875.75.1875 2.03125 0 1.51563-.3125 2.4375-.29687.92188-.92187 1.4375-.60938.5-1.5625.5-1.23438 0-1.95313-.89062-.84375-1.0625-.84375-3.48438zm1.07813 0q0 2.10938.5 2.8125.5.70313 1.21875.70313.73437 0 1.21875-.70313.5-.70312.5-2.8125 0-2.125-.5-2.8125-.48438-.70312-1.23438-.70312-.71875 0-1.15625.60937-.54687.78125-.54687 2.90625zm5.92187 0q0-1.53125.3125-2.45312.3125-.9375.92188-1.4375.625-.5 1.5625-.5.6875 0 1.20312.28125.53125.28125.875.8125.34375.51562.53125 1.26562.1875.75.1875 2.03125 0 1.51563-.3125 2.4375-.29687.92188-.92187 1.4375-.60938.5-1.5625.5-1.23438 0-1.95313-.89062-.84375-1.0625-.84375-3.48438zm1.07813 0q0 2.10938.5 2.8125.5.70313 1.21875.70313.73437 0 1.21875-.70313.5-.70312.5-2.8125 0-2.125-.5-2.8125-.48438-.70312-1.23438-.70312-.71875 0-1.15625.60937-.54687.78125-.54687 2.90625zm5.92187 0q0-1.53125.3125-2.45312.3125-.9375.92188-1.4375.625-.5 1.5625-.5.6875 0 1.20312.28125.53125.28125.875.8125.34375.51562.53125 1.26562.1875.75.1875 2.03125 0 1.51563-.3125 2.4375-.29687.92188-.92187 1.4375-.60938.5-1.5625.5-1.23438 0-1.95313-.89062-.84375-1.0625-.84375-3.48438zm1.07813 0q0 2.10938.5 2.8125.5.70313 1.21875.70313.73437 0 1.21875-.70313.5-.70312.5-2.8125 0-2.125-.5-2.8125-.48438-.70312-1.23438-.70312-.71875 0-1.15625.60937-.54687.78125-.54687 2.90625zm5.92187 0q0-1.53125.3125-2.45312.3125-.9375.92188-1.4375.625-.5 1.5625-.5.6875 0 1.20312.28125.53125.28125.875.8125.34375.51562.53125 1.26562.1875.75.1875 2.03125 0 1.51563-.3125 2.4375-.29687.92188-.92187 1.4375-.60938.5-1.5625.5-1.23438 0-1.95313-.89062-.84375-1.0625-.84375-3.48438zm1.07813 0q0 2.10938.5 2.8125.5.70313 1.21875.70313.73437 0 1.21875-.70313.5-.70312.5-2.8125 0-2.125-.5-2.8125-.48438-.70312-1.23438-.70312-.71875 0-1.15625.60937-.54687.78125-.54687 2.90625zm5.92187 0q0-1.53125.3125-2.45312.3125-.9375.92188-1.4375.625-.5 1.5625-.5.6875 0 1.20312.28125.53125.28125.875.8125.34375.51562.53125 1.26562.1875.75.1875 2.03125 0 1.51563-.3125 2.4375-.29687.92188-.92187 1.4375-.60938.5-1.5625.5-1.23438 0-1.95313-.89062-.84375-1.0625-.84375-3.48438zm1.07813 0q0 2.10938.5 2.8125.5.70313 1.21875.70313.73437 0 1.21875-.70313.5-.70312.5-2.8125 0-2.125-.5-2.8125-.48438-.70312-1.23438-.70312-.71875 0-1.15625.60937-.54687.78125-.54687 2.90625zm5.92187 0q0-1.53125.3125-2.45312.3125-.9375.92188-1.4375.625-.5 1.5625-.5.6875 0 1.20312.28125.53125.28125.875.8125.34375.51562.53125 1.26562.1875.75.1875 2.03125 0 1.51563-.3125 2.4375-.29687.92188-.92187 1.4375-.60938.5-1.5625.5-1.23438 0-1.95313-.89062-.84375-1.0625-.84375-3.48438zm1.07813 0q0 2.10938.5 2.8125.5.70313 1.21875.70313.73437 0 1.21875-.70313.5-.70312.5-2.8125 0-2.125-.5-2.8125-.48438-.70312-1.23438-.70312-.71875 0-1.15625.60937-.54687.78125-.54687 2.90625zm5.92187 0q0-1.53125.3125-2.45312.3125-.9375.92188-1.4375.625-.5 1.5625-.5.6875 0 1.20312.28125.53125.28125.875.8125.34375.51562.53125 1.26562.1875.75.1875 2.03125 0 1.51563-.3125 2.4375-.29687.92188-.92187 1.4375-.60938.5-1.5625.5-1.23438 0-1.95313-.89062-.84375-1.0625-.84375-3.48438zm1.07813 0q0 2.10938.5 2.8125.5.70313 1.21875.70313.73437 0 1.21875-.70313.5-.70312.5-2.8125 0-2.125-.5-2.8125-.48438-.70312-1.23438-.70312-.71875 0-1.15625.60937-.54687.78125-.54687 2.90625z"/>
    <path d="m62.01875 105.96132h-1.046876v-6.71875q-.390624.359374-1.015624.734374-.609376.359376-1.09375.53125v-1.015624q.875-.421876 1.53125-1 .671874-.59375.953124-1.15625h.671876zm3.03125-4.234376q0-1.53125.3125-2.453124.3125-.9375.92188-1.4375.625-.5 1.5625-.5.6875 0 1.20312.28125.53125.28125.875.8125.34375.515624.53125 1.265624.1875.75.1875 2.03125 0 1.515626-.3125 2.4375-.29687.921876-.92187 1.4375-.60938.5-1.5625.5-1.23438 0-1.95313-.890624-.84375-1.0625-.84375-3.484376zm1.07813 0q0 2.109376.5 2.8125.5.703126 1.21875.703126.73437 0 1.21875-.703126.5-.703124.5-2.8125 0-2.125-.5-2.8125-.48438-.703124-1.23438-.703124-.71875 0-1.15625.609374-.54687.78125-.54687 2.90625zm5.92187 0q0-1.53125.3125-2.453124.3125-.9375.92188-1.4375.625-.5 1.5625-.5.6875 0 1.20312.28125.53125.28125.875.8125.34375.515624.53125 1.265624.1875.75.1875 2.03125 0 1.515626-.3125 2.4375-.29687.921876-.92187 1.4375-.60938.5-1.5625.5-1.23438 0-1.95313-.890624-.84375-1.0625-.84375-3.484376zm1.07813 0q0 2.109376.5 2.8125.5.703126 1.21875.703126.73437 0 1.21875-.703126.5-.703124.5-2.8125 0-2.125-.5-2.8125-.48438-.703124-1.23438-.703124-.71875 0-1.15625.609374-.54687.78125-.54687 2.90625zm5.92187 0q0-1.53125.3125-2.453124.3125-.9375.92188-1.4375.625-.5 1.5625-.5.6875 0 1.20312.28125.53125.28125.875.8125.34375.515624.53125 1.265624.1875.75.1875 2.03125 0 1.515626-.3125 2.4375-.29687.921876-.92187 1.4375-.60938.5-1.5625.5-1.23438 0-1.95313-.890624-.84375-1.0625-.84375-3.484376zm1.07813 0q0 2.109376.5 2.8125.5.703126 1.21875.703126.73437 0 1.21875-.703126.5-.703124.5-2.8125 0-2.125-.5-2.8125-.48438-.703124-1.23438-.703124-.71875 0-1.15625.609374-.54687.78125-.54687 2.90625zm5.92187 0q0-1.53125.3125-2.453124.3125-.9375.92188-1.4375.625-.5 1.5625-.5.6875 0 1.20312.28125.53125.28125.875.8125.34375.515624.53125 1.265624.1875.75.1875 2.03125 0 1.515626-.3125 2.4375-.29687.921876-.92187 1.4375-.60938.5-1.5625.5-1.23438 0-1.95313-.890624-.84375-1.0625-.84375-3.484376zm1.07813 0q0 2.109376.5 2.8125.5.703126 1.21875.703126.73437 0 1.21875-.703126.5-.703124.5-2.8125 0-2.125-.5-2.8125-.48438-.703124-1.23438-.703124-.71875 0-1.15625.609374-.54687.78125-.54687 2.90625zm5.92187 0q0-1.53125.3125-2.453124.3125-.9375.92188-1.4375.625-.5 1.5625-.5.6875 0 1.20312.28125.53125.28125.875.8125.34375.515624.53125 1.265624.1875.75.1875 2.03125 0 1.515626-.3125 2.4375-.29687.921876-.92187 1.4375-.60938.5-1.5625.5-1.23438 0-1.95313-.890624-.84375-1.0625-.84375-3.484376zm1.07813 0q0 2.109376.5 2.8125.5.703126 1.21875.703126.73437 0 1.21875-.703126.5-.703124.5-2.8125 0-2.125-.5-2.8125-.48438-.703124-1.23438-.703124-.71875 0-1.15625.609374-.54687.78125-.54687 2.90625zm5.92187 0q0-1.53125.3125-2.453124.3125-.9375.92188-1.4375.625-.5 1.5625-.5.6875 0 1.20312.28125.53125.28125.875.8125.34375.515624.53125 1.265624.1875.75.1875 2.03125 0 1.515626-.3125 2.4375-.29687.921876-.92187 1.4375-.60938.5-1.5625.5-1.23438 0-1.95313-.890624-.84375-1.0625-.84375-3.484376zm1.07813 0q0 2.109376.5 2.8125.5.703126 1.21875.703126.73437 0 1.21875-.703126.5-.703124.5-2.8125 0-2.125-.5-2.8125-.48438-.703124-1.23438-.703124-.71875 0-1.15625.609374-.54687.78125-.54687 2.90625zm5.92187 0q0-1.53125.3125-2.453124.3125-.9375.92188-1.4375.625-.5 1.5625-.5.6875 0 1.20312.28125.53125.28125.875.8125.34375.515624.53125 1.265624.1875.75.1875 2.03125 0 1.515626-.3125 2.4375-.29687.921876-.92187 1.4375-.60938.5-1.5625.5-1.23438 0-1.95313-.890624-.84375-1.0625-.84375-3.484376zm1.07813 0q0 2.109376.5 2.8125.5.703126 1.21875.703126.73437 0 1.21875-.703126.5-.703124.5-2.8125 0-2.125-.5-2.8125-.48438-.703124-1.23438-.703124-.71875 0-1.15625.609374-.54687.78125-.54687 2.90625zm5.92187 0q0-1.53125.3125-2.453124.3125-.9375.92188-1.4375.625-.5 1.5625-.5.6875 0 1.20312.28125.53125.28125.875.8125.34375.515624.53125 1.265624.1875.75.1875 2.03125 0 1.515626-.3125 2.4375-.29687.921876-.92187 1.4375-.60938.5-1.5625.5-1.23438 0-1.95313-.890624-.84375-1.0625-.84375-3.484376zm1.07813 0q0 2.109376.5 2.8125.5.703126 1.21875.703126.73437 0 1.21875-.703126.5-.703124.5-2.8125 0-2.125-.5-2.8125-.48438-.703124-1.23438-.703124-.71875 0-1.15625.609374-.54687.78125-.54687 2.90625z"/>
    <path d="m55.01875 62.550686h-1.046876v-6.71875q-.390624.359374-1.015624.734374-.609376.359376-1.09375.53125v-1.015624q.875-.421876 1.53125-1 .671874-.59375.953124-1.15625h.671876zm3.03125-4.234376q0-1.53125.3125-2.453124.3125-.9375.921874-1.4375.625-.5 1.5625-.5.6875 0 1.203126.28125.53125.28125.875.8125.34375.515624.53125 1.265624.1875.75.1875 2.03125 0 1.515626-.3125 2.4375-.296876.921876-.921876 1.4375-.609374.5-1.5625.5-1.234374 0-1.953124-.890624-.84375-1.0625-.84375-3.484376zm1.078124 0q0 2.109376.5 2.8125.5.703126 1.21875.703126.734376 0 1.21875-.703126.5-.703124.5-2.8125 0-2.125-.5-2.8125-.484374-.703124-1.234374-.703124-.71875 0-1.15625.609374-.546876.78125-.546876 2.90625zm5.921876 0q0-1.53125.3125-2.453124.3125-.9375.92188-1.4375.625-.5 1.5625-.5.6875 0 1.20312.28125.53125.28125.875.8125.34375.515624.53125 1.265624.1875.75.1875 2.03125 0 1.515626-.3125 2.4375-.29687.921876-.92187 1.4375-.60938.5-1.5625.5-1.23438 0-1.95313-.890624-.84375-1.0625-.84375-3.484376zm1.07813 0q0 2.109376.5 2.8125.5.703126 1.21875.703126.73437 0 1.21875-.703126.5-.703124.5-2.8125 0-2.125-.5-2.8125-.48438-.703124-1.23438-.703124-.71875 0-1.15625.609374-.54687.78125-.54687 2.90625zm5.92187 0q0-1.53125.3125-2.453124.3125-.9375.92188-1.4375.625-.5 1.5625-.5.6875 0 1.20312.28125.53125.28125.875.8125.34375.515624.53125 1.265624.1875.75.1875 2.03125 0 1.515626-.3125 2.4375-.29687.921876-.92187 1.4375-.60938.5-1.5625.5-1.23438 0-1.95313-.890624-.84375-1.0625-.84375-3.484376zm1.07813 0q0 2.109376.5 2.8125.5.703126 1.21875.703126.73437 0 1.21875-.703126.5-.703124.5-2.8125 0-2.125-.5-2.8125-.48438-.703124-1.23438-.703124-.71875 0-1.15625.609374-.54687.78125-.54687 2.90625zm5.92187 0q0-1.53125.3125-2.453124.3125-.9375.92188-1.4375.625-.5 1.5625-.5.6875 0 1.20312.28125.53125.28125.875.8125.34375.515624.53125 1.265624.1875.75.1875 2.03125 0 1.515626-.3125 2.4375-.29687.921876-.92187 1.4375-.60938.5-1.5625.5-1.23438 0-1.95313-.890624-.84375-1.0625-.84375-3.484376zm1.07813 0q0 2.109376.5 2.8125.5.703126 1.21875.703126.73437 0 1.21875-.703126.5-.703124.5-2.8125 0-2.125-.5-2.8125-.48438-.703124-1.23438-.703124-.71875 0-1.15625.609374-.54687.78125-.54687 2.90625zm5.92187 0q0-1.53125.3125-2.453124.3125-.9375.92188-1.4375.625-.5 1.5625-.5.6875 0 1.20312.28125.53125.28125.875.8125.34375.515624.53125 1.265624.1875.75.1875 2.03125 0 1.515626-.3125 2.4375-.29687.921876-.92187 1.4375-.60938.5-1.5625.5-1.23438 0-1.95313-.890624-.84375-1.0625-.84375-3.484376zm1.07813 0q0 2.109376.5 2.8125.5.703126 1.21875.703126.73437 0 1.21875-.703126.5-.703124.5-2.8125 0-2.125-.5-2.8125-.48438-.703124-1.23438-.703124-.71875 0-1.15625.609374-.54687.78125-.54687 2.90625zm5.92187 0q0-1.53125.3125-2.453124.3125-.9375.92188-1.4375.625-.5 1.5625-.5.6875 0 1.20312.28125.53125.28125.875.8125.34375.515624.53125 1.265624.1875.75.1875 2.03125 0 1.515626-.3125 2.4375-.29687.921876-.92187 1.4375-.60938.5-1.5625.5-1.23438 0-1.95313-.890624-.84375-1.0625-.84375-3.484376zm1.07813 0q0 2.109376.5 2.8125.5.703126 1.21875.703126.73437 0 1.21875-.703126.5-.703124.5-2.8125 0-2.125-.5-2.8125-.48438-.703124-1.23438-.703124-.71875 0-1.15625.609374-.54687.78125-.54687 2.90625zm5.92187 0q0-1.53125.3125-2.453124.3125-.9375.92188-1.4375.625-.5 1.5625-.5.6875 0 1.20312.28125.53125.28125.875.8125.34375.515624.53125 1.265624.1875.75.1875 2.03125 0 1.515626-.3125 2.4375-.29687.921876-.92187 1.4375-.60938.5-1.5625.5-1.23438 0-1.95313-.890624-.84375-1.0625-.84375-3.484376zm1.07813 0q0 2.109376.5 2.8125.5.703126 1.21875.703126.73437 0 1.21875-.703126.5-.703124.5-2.8125 0-2.125-.5-2.8125-.48438-.703124-1.23438-.703124-.71875 0-1.15625.609374-.54687.78125-.54687 2.90625zm5.92187 0q0-1.53125.3125-2.453124.3125-.9375.92188-1.4375.625-.5 1.5625-.5.6875 0 1.20312.28125.53125.28125.875.8125.34375.515624.53125 1.265624.1875.75.1875 2.03125 0 1.515626-.3125 2.4375-.29687.921876-.92187 1.4375-.60938.5-1.5625.5-1.23438 0-1.95313-.890624-.84375-1.0625-.84375-3.484376zm1.07813 0q0 2.109376.5 2.8125.5.703126 1.21875.703126.73437 0 1.21875-.703126.5-.703124.5-2.8125 0-2.125-.5-2.8125-.48438-.703124-1.23438-.703124-.71875 0-1.15625.609374-.54687.78125-.54687 2.90625zm5.92187 0q0-1.53125.3125-2.453124.3125-.9375.92188-1.4375.625-.5 1.5625-.5.6875 0 1.20312.28125.53125.28125.875.8125.34375.515624.53125 1.265624.1875.75.1875 2.03125 0 1.515626-.3125 2.4375-.29687.921876-.92187 1.4375-.60938.5-1.5625.5-1.23438 0-1.95313-.890624-.84375-1.0625-.84375-3.484376zm1.07813 0q0 2.109376.5 2.8125.5.703126 1.21875.703126.73437 0 1.21875-.703126.5-.703124.5-2.8125 0-2.125-.5-2.8125-.48438-.703124-1.23438-.703124-.71875 0-1.15625.609374-.54687.78125-.54687 2.90625z"/>
    <path d="m140.89816 317.45h-1.04687v-6.71874q-.39063.35938-1.01563.73438-.60937.35936-1.09375.53126v-1.01564q.875-.42186 1.53125-1 .67188-.59376.95313-1.15626h.67187z"/>
    <path d="m169.2351 316.4344v1.0156h-5.6875q0-.375.125-.73436.21876-.57814.6875-1.14064.48438-.5625 1.39063-1.29686 1.40625-1.15624 1.89063-1.82814.5-.67186.5-1.2656 0-.625-.45313-1.0469-.45313-.4375-1.17187-.4375-.76563 0-1.21876.45314-.45312.45312-.46874 1.26562l-1.07813-.10936q.10937-1.21876.82813-1.84376.73437-.64064 1.96874-.64064 1.23438 0 1.95313.6875.71875.6875.71875 1.70314 0 .51562-.21875 1.01562-.20313.48438-.70313 1.04688-.48437.54686-1.60937 1.5-.95313.79686-1.23437 1.09376-.26563.28124-.4375.5625z"/>
    <path d="m190.44705 315.1844 1.0625-.14064q.17188.89064.60938 1.29688.4375.39062 1.0625.39062.75 0 1.26562-.51562.51563-.51564.51563-1.28124 0-.71876-.48438-1.1875-.46875-.4844-1.20312-.4844-.29688 0-.75.125l.125-.9375q.10937.01564.17187.01564.67188 0 1.20313-.34374.54687-.3594.54687-1.09376 0-.57814-.39062-.95314-.39063-.3906-1.01563-.3906-.60937 0-1.03125.3906-.40625.39064-.51562 1.15626l-1.0625-.1875q.1875-1.04686.875-1.625.6875-.59376 1.70312-.59376.70313 0 1.29688.3125.59375.2969.90625.8125.3125.51564.3125 1.1094 0 .54686-.29688 1.0156-.29687.45314-.875.71876.75.17188 1.17188.73438.42187.54686.42187 1.39062 0 1.125-.82812 1.90624-.8125.78126-2.0625.78126-1.125 0-1.875-.67186-.75-.6875-.85938-1.75z"/>
    <path d="m220.58089 317.45v-2.0625h-3.71875v-.96874l3.92187-5.5625h.85938v5.5625h1.15625v.96874h-1.15625v2.0625zm0-3.03124v-3.85936l-2.6875 3.85936z"/>
    <path d="m243.9647 315.2 1.10938-.09374q.125.8125.5625 1.21874.45312.40626 1.09375.40626.75 0 1.28125-.57812.53125-.57814.53125-1.51564 0-.90624-.51563-1.42186-.5-.53124-1.32812-.53124-.5 0-.92188.23436-.40624.23438-.64062.59374l-.98438-.125.82813-4.40624h4.28125v1h-3.4375l-.45312 2.3125q.76562-.54686 1.60937-.54686 1.125 0 1.89063.78124.78124.78126.78124 2.01562 0 1.15624-.67187 2.01564-.82813 1.03124-2.25 1.03124-1.17187 0-1.92187-.65624-.73438-.65626-.84376-1.7344z"/>
    <path d="m276.1923 310.96564-1.04688.07812q-.14062-.625-.39062-.90626-.4375-.4531-1.0625-.4531-.5 0-.89063.28124-.48437.375-.78125 1.07812-.28125.6875-.29688 1.96874.375-.5781.92188-.85936.5625-.28124 1.17188-.28124 1.04687 0 1.78124.78124.75.78126.75 2 0 .8125-.35937 1.51562-.34375.6875-.95313 1.0625-.60937.35938-1.375.35938-1.32812 0-2.15624-.96874-.82813-.96876-.82813-3.1875 0-2.5.92187-3.625.79688-.9844 2.15626-.9844 1.01562 0 1.65624.57814.65626.5625.78126 1.5625zm-4.29688 3.70312q0 .54688.21875 1.04688.23437.48436.64063.75.42187.26562.89062.26562.65625 0 1.14062-.53126.48438-.54686.48438-1.46874 0-.89062-.48438-1.40626-.46874-.5156-1.1875-.5156-.71874 0-1.21874.5156-.48438.51564-.48438 1.34376z"/>
    <path d="m297.54486 309.98126v-1.01562h5.5625v.82812q-.8125.875-1.625 2.32814-.79686 1.4375-1.23436 2.96874-.32814 1.07812-.40626 2.35936h-1.09374q.0156-1.0156.3906-2.4531.39064-1.4375 1.09376-2.76564.71874-1.32812 1.53124-2.25z"/>
    <path d="m325.86618 312.79376q-.65625-.25-.98438-.6875-.3125-.45312-.3125-1.0625 0-.9375.67188-1.57812.6875-.64064 1.79688-.64064 1.125 0 1.8125.65626.6875.65624.6875 1.59374 0 .59376-.3125 1.03126-.3125.4375-.95313.6875.79687.25 1.20313.82814.40624.5781.40624 1.375 0 1.09374-.78124 1.84374-.76563.75-2.04688.75-1.26562 0-2.04688-.75-.78124-.75-.78124-1.875 0-.84374.42187-1.40624.4375-.5625 1.21875-.76564zm-.21875-1.79686q0 .60936.39063 1 .40624.3906 1.03124.3906.60938 0 1-.375.39063-.3906.39063-.9531 0-.57814-.40625-.96876-.40625-.40624-1-.40624-.60938 0-1.01562.3906-.39063.39064-.39063.9219zm-.32813 3.96874q0 .45312.20313.875.21875.42186.64063.65626.42187.23436.90624.23436.75 0 1.23438-.48436.5-.4844.5-1.2344 0-.7656-.5-1.2656-.5-.5-1.26562-.5-.75 0-1.23438.5-.48438.48436-.48438 1.21874z"/>
    <path d="m351.15625 315.46564 1.01563-.09374q.125.71874.48437 1.04686.375.3125.9375.3125.48437 0 .84375-.21876.375-.23436.60938-.59374.23437-.375.39062-1 .15625-.64062.15625-1.29686 0-.07814 0-.21876-.3125.5-.85937.82812-.54688.3125-1.1875.3125-1.07813 0-1.8125-.76562-.73438-.78124-.73438-2.04688 0-1.3125.76562-2.10936.78126-.7969 1.9375-.7969.82813 0 1.51563.45314.70313.45312 1.0625 1.29686.35937.82814.35937 2.40626 0 1.64064-.35937 2.625-.34375.96874-1.0625 1.48438-.70313.5-1.64063.5-1.01562 0-1.65624-.54688-.64063-.5625-.76563-1.57812zm4.3125-3.79688q0-.90626-.48437-1.4375-.46876-.53126-1.15626-.53126-.70312 0-1.23437.57814-.51563.5625-.51563 1.48436 0 .8125.5 1.32814.5.51562 1.21876.51562.73437 0 1.20312-.51562.46875-.51564.46875-1.42188z"/>
    <path d="m378.22757 317.45h-1.04687v-6.71874q-.39063.35938-1.01563.73438-.60937.35936-1.09375.53126v-1.01564q.875-.42186 1.53125-1 .67187-.59376.95313-1.15626h.67187zm3.03125-4.23436q0-1.53124.3125-2.45314.3125-.9375.92188-1.4375.625-.5 1.5625-.5.6875 0 1.20312.28126.53125.28124.875.8125.34375.51564.53125 1.26564.1875.75.1875 2.03124 0 1.51562-.3125 2.4375-.29687.92186-.92187 1.4375-.60938.5-1.5625.5-1.23438 0-1.95313-.89064-.84375-1.0625-.84375-3.48436zm1.07812 0q0 2.10936.5 2.8125.5.70312 1.21876.70312.73437 0 1.21874-.70312.5-.70314.5-2.8125 0-2.125-.5-2.8125-.48437-.70314-1.23437-.70314-.71875 0-1.15625.6094-.54688.78124-.54688 2.90624z"/>
    <path d="m404.9864 317.45h-1.0469v-6.71874q-.3906.35938-1.0156.73438-.6094.35936-1.09376.53126v-1.01564q.875-.42186 1.53126-1 .67186-.59376.9531-1.15626h.6719zm7 0h-1.0469v-6.71874q-.3906.35938-1.0156.73438-.6094.35936-1.09376.53126v-1.01564q.875-.42186 1.53126-1 .67186-.59376.9531-1.15626h.6719z"/>
    <path d="m431.7452 317.45h-1.04687v-6.71874q-.39063.35938-1.01563.73438-.60937.35936-1.09374.53126v-1.01564q.875-.42186 1.53124-1 .67188-.59376.95313-1.15626h.67187zm8.57813-1.0156v1.0156h-5.6875q0-.375.125-.73436.21875-.57814.6875-1.14064.48437-.5625 1.39063-1.29686 1.40624-1.15624 1.89062-1.82814.5-.67186.5-1.2656 0-.625-.45312-1.0469-.45313-.4375-1.17188-.4375-.76562 0-1.21875.45314-.45313.45312-.46875 1.26562l-1.07812-.10936q.10937-1.21876.82812-1.84376.73438-.64064 1.96875-.64064 1.23437 0 1.95313.6875.71874.6875.71874 1.70314 0 .51562-.21874 1.01562-.20313.48438-.70313 1.04688-.48437.54686-1.60937 1.5-.95313.79686-1.23438 1.09376-.26562.28124-.4375.5625z"/>
    <path d="m458.50406 317.45h-1.04688v-6.71874q-.39062.35938-1.01562.73438-.60938.35936-1.09376.53126v-1.01564q.875-.42186 1.53126-1 .67187-.59376.95312-1.15626h.67188zm3.03124-2.2656 1.0625-.14064q.17188.89064.60938 1.29688.4375.39062 1.0625.39062.75 0 1.26562-.51562.51563-.51564.51563-1.28124 0-.71876-.48437-1.1875-.46876-.4844-1.20313-.4844-.29687 0-.75.125l.125-.9375q.10937.01564.17187.01564.67188 0 1.20313-.34374.54687-.3594.54687-1.09376 0-.57814-.39062-.95314-.39062-.3906-1.01562-.3906-.60938 0-1.03126.3906-.40624.39064-.51562 1.15626l-1.0625-.1875q.1875-1.04686.875-1.625.6875-.59376 1.70312-.59376.70313 0 1.29688.3125.59375.2969.90625.8125.3125.51564.3125 1.1094 0 .54686-.29687 1.0156-.29688.45314-.875.71876.75.17188 1.17187.73438.42187.54686.42187 1.39062 0 1.125-.82812 1.90624-.8125.78126-2.0625.78126-1.125 0-1.875-.67186-.75-.6875-.85938-1.75z"/>
    <path d="m485.26288 317.45h-1.04688v-6.71874q-.39062.35938-1.01562.73438-.60938.35936-1.09375.53126v-1.01564q.875-.42186 1.53125-1 .67187-.59376.95312-1.15626h.67188zm6.40625 0v-2.0625h-3.71875v-.96874l3.92187-5.5625h.85938v5.5625h1.15625v.96874h-1.15625v2.0625zm0-3.03124v-3.85936l-2.6875 3.85936z"/>
    <path d="m512.0217 317.45h-1.04688v-6.71874q-.39062.35938-1.01562.73438-.60938.35936-1.09375.53126v-1.01564q.875-.42186 1.53125-1 .67187-.59376.95312-1.15626h.67188zm3.0313-2.25 1.10935-.09374q.125.8125.5625 1.21874.45315.40626 1.09375.40626.75 0 1.28125-.57812.53125-.57814.53125-1.51564 0-.90624-.5156-1.42186-.5-.53124-1.32815-.53124-.5 0-.92185.23436-.4063.23438-.64065.59374l-.98435-.125.8281-4.40624h4.28125v1h-3.4375l-.45315 2.3125q.76565-.54686 1.6094-.54686 1.125 0 1.8906.78124.7813.78126.7813 2.01562 0 1.15624-.6719 2.01564-.8281 1.03124-2.25 1.03124-1.1719 0-1.9219-.65624-.73435-.65626-.8437-1.7344z"/>
    <path d="m538.7805 317.45h-1.04686v-6.71874q-.39064.35938-1.01564.73438-.60936.35936-1.09373.53126v-1.01564q.875-.42186 1.53123-1 .6719-.59376.95314-1.15626h.67186zm8.5-6.48436-1.04686.07812q-.14064-.625-.39064-.90626-.4375-.4531-1.0625-.4531-.5 0-.8906.28124-.4844.375-.78126 1.07812-.28124.6875-.29687 1.96874.375-.5781.92187-.85936.5625-.28124 1.17186-.28124 1.0469 0 1.78127.78124.75.78126.75 2 0 .8125-.35937 1.51562-.34376.6875-.95313 1.0625-.60937.35938-1.375.35938-1.32813 0-2.15627-.96874-.8281-.96876-.8281-3.1875 0-2.5.92187-3.625.79687-.9844 2.15623-.9844 1.01564 0 1.65627.57814.65623.5625.78123 1.5625zm-4.29686 3.70312q0 .54688.21876 1.04688.23437.48436.6406.75.4219.26562.89064.26562.65626 0 1.14063-.53126.48437-.54686.48437-1.46874 0-.89062-.48437-1.40626-.46877-.5156-1.1875-.5156-.71877 0-1.21877.5156-.48436.51564-.48436 1.34376z"/>
    <path d="m565.53937 317.45h-1.04687v-6.71874q-.39063.35938-1.01563.73438-.60937.35936-1.09377.53126v-1.01564q.875-.42186 1.53127-1 .67187-.59376.95313-1.15626h.67187zm3.09373-7.46874v-1.01562h5.5625v.82812q-.8125.875-1.625 2.32814-.79686 1.4375-1.23436 2.96874-.32814 1.07812-.40624 2.35936h-1.09376q.01563-1.0156.39063-2.4531.39063-1.4375 1.09373-2.76564.71877-1.32812 1.53127-2.25z"/>
  </g>
  <path d="m182 25.55h12" stroke="#4285f4" stroke-linecap="butt" stroke-width="4"/>
  <path d="m202.54688 26.784374 1.0625-.09375q.07812.65625.35937 1.0625.28125.40625.85937.671876.59376.25 1.32813.25.64063 0 1.14063-.1875.5-.203126.73437-.53125.25-.34375.25-.734376 0-.40625-.23437-.703124-.23438-.3125-.76563-.515626-.35937-.140624-1.54687-.421874-1.17188-.28125-1.64063-.53125-.625-.328126-.92187-.796876-.29688-.484374-.29688-1.078124 0-.640626.35938-1.203126.375-.578124 1.07812-.859374.71875-.296876 1.57812-.296876.95313 0 1.6875.3125.73438.296876 1.125.90625.39063.59375.42188 1.34375l-1.09375.078126q-.09375-.8125-.60937-1.21875-.5-.421876-1.48438-.421876-1.03125 0-1.5.375-.46875.375-.46875.90625 0 .46875.32813.765626.32812.296874 1.70312.609374 1.39062.3125 1.90625.546876.75.359374 1.10937.890624.35938.515626.35938 1.21875 0 .6875-.39062 1.296876-.39063.59375-1.125.9375-.73438.328124-1.65626.328124-1.17187 0-1.96874-.328124-.78126-.34375-1.23438-1.03125-.4375-.6875-.45312-1.546876zm12.5.765626 1.09374.125q-.25.953124-.95312 1.484374-.70312.53125-1.78125.53125-1.35937 0-2.17187-.84375-.79688-.84375-.79688-2.359374 0-1.5625.8125-2.421876.8125-.875 2.09375-.875 1.25 0 2.03125.84375.79688.84375.79688 2.390626 0 .09375 0 .28125h-4.64063q.0625 1.03125.57813 1.578124.51562.53125 1.29687.53125.57813 0 .98437-.296874.42188-.3125.65626-.96875zm-3.45313-1.703126h3.46875q-.0625-.796874-.39062-1.1875-.51563-.609374-1.3125-.609374-.73438 0-1.23438.484374-.48438.484376-.53125 1.3125zm10.17187 6.09375v-3.046874q-.25.34375-.70312.578124-.4375.21875-.9375.21875-1.10938 0-1.90625-.875-.79687-.890624-.79687-2.4375 0-.9375.32812-1.671874.32812-.75.9375-1.125.625-.390626 1.35938-.390626 1.15624 0 1.8125.96875v-.828124h.95312v8.609374zm-3.26562-5.515624q0 1.203124.5 1.796874.51562.59375 1.21875.59375.67187 0 1.15625-.5625.48438-.578124.48438-1.734374 0-1.25-.51563-1.875-.5-.625-1.20313-.625-.67187 0-1.15624.59375-.48438.578124-.48438 1.8125zm10.375 3.125v-.921876q-.73438 1.0625-1.98438 1.0625-.54687 0-1.03124-.203124-.46876-.21875-.70313-.53125-.23437-.328126-.32813-.796876-.0625-.296874-.0625-.984374v-3.84375h1.0625v3.453124q0 .8125.0625 1.109376.09376.40625.40626.65625.32812.234374.8125.234374.46874 0 .875-.234374.42187-.25.59374-.671876.1875-.421874.1875-1.21875v-3.328124h1.04688v6.21875zm7.17188-2 1.09374.125q-.25.953124-.95312 1.484374-.70312.53125-1.78125.53125-1.35937 0-2.17187-.84375-.79688-.84375-.79688-2.359374 0-1.5625.8125-2.421876.8125-.875 2.09375-.875 1.25 0 2.03125.84375.79688.84375.79688 2.390626 0 .09375 0 .28125h-4.64063q.0625 1.03125.57813 1.578124.51562.53125 1.29687.53125.57813 0 .98437-.296874.42188-.3125.65626-.96875zm-3.45313-1.703126h3.46875q-.0625-.796874-.39062-1.1875-.51563-.609374-1.3125-.609374-.73438 0-1.23438.484374-.48438.484376-.53125 1.3125zm6.20313 3.703126v-6.21875h.9375v.875q.6875-1.015626 1.98437-1.015626.5625 0 1.03125.203126.48438.203124.71875.53125.23437.328124.32813.765624.04687.296876.04687 1.03125v3.828126h-1.04687v-3.78125q0-.65625-.125-.96875-.125-.3125-.4375-.5-.3125-.203126-.73438-.203126-.67188 0-1.17188.4375-.48437.421876-.48437 1.609376v3.40625zm9.29687-.9375.15625.921874q-.45312.09375-.79688.09375-.57812 0-.89062-.171874-.3125-.1875-.45312-.484376-.125-.296874-.125-1.25v-3.578124h-.76563v-.8125h.76563v-1.546876l1.04687-.625v2.171876h1.0625v.8125h-1.0625v3.640624q0 .453126.04687.578126.0625.125.1875.203124.125.078126.35938.078126.1875 0 .46875-.03125zm.70313-6.4375v-1.21875h1.0625v1.21875zm0 7.375v-6.21875h1.0625v6.21875zm7.0625-.765626q-.59376.5-1.14063.703126-.53125.203124-1.15625.203124-1.03125 0-1.57812-.5-.54688-.5-.54688-1.28125 0-.453124.20312-.828124.20313-.390626.54688-.609376.34375-.234374.76562-.34375.29688-.09375.9375-.171874 1.26563-.140626 1.875-.359376 0-.21875 0-.265624 0-.65625-.29687-.921876-.40625-.34375-1.20313-.34375-.73437 0-1.09374.265626-.35938.25-.53126.90625l-1.03124-.140626q.14062-.65625.46874-1.0625.32813-.40625.9375-.625.60938-.21875 1.40626-.21875.79687 0 1.29687.1875.5.1875.73437.46875.23438.28125.32813.71875.04687.265626.04687.96875v1.40625q0 1.46875.0625 1.859376.07813.390624.28126.75h-1.10938q-.15625-.328126-.20312-.765626zm-.09376-2.359374q-.57812.234374-1.71874.40625-.65626.09375-.92188.21875-.26562.109374-.42188.328124-.14062.21875-.14062.5 0 .421876.3125.703126.32812.28125.9375.28125.60938 0 1.07812-.265626.48438-.265624.70313-.734374.17187-.359376.17187-1.046876zm3 3.125v-8.59375h1.0625v8.59375z" fill="#1a1a1a"/>
  <path d="m277 25.55h12" stroke="#ea4335" stroke-linecap="butt" stroke-width="4"/>
  <path d="m297.57812 25.3625q0-2.140626 1.14063-3.34375 1.15625-1.21875 2.96875-1.21875 1.20312 0 2.15625.578124.95313.5625 1.45313 1.578126.5 1.015624.5 2.3125 0 1.296874-.53126 2.328124-.53124 1.03125-1.5 1.5625-.95312.53125-2.07812.53125-1.21875 0-2.17188-.578124-.95312-.59375-1.45312-1.59375-.48438-1.015626-.48438-2.15625zm1.17188.015624q0 1.5625.82812 2.453126.84376.890624 2.10938.890624 1.28125 0 2.10938-.890624.82812-.90625.82812-2.578126 0-1.046874-.35938-1.828124-.34374-.78125-1.03124-1.203126-.6875-.4375-1.53126-.4375-1.20312 0-2.07812.828126-.875.828124-.875 2.765624zm8.04688 6.5625v-8.609374h.95312v.796874q.34375-.46875.76562-.703124.4375-.234376 1.04688-.234376.79688 0 1.40625.40625.60937.40625.90625 1.15625.3125.75.3125 1.640626 0 .953124-.34375 1.71875-.32813.765624-.98437 1.171874-.65626.40625-1.375.40625-.53126 0-.95313-.21875-.42187-.234374-.6875-.5625v3.03125zm.95312-5.46875q0 1.203126.48438 1.78125.48437.5625 1.17187.5625.70313 0 1.20313-.59375.5-.59375.5-1.84375 0-1.1875-.48438-1.765624-.48438-.59375-1.17188-.59375-.67187 0-1.1875.625-.51562.625-.51562 1.828124zm10.29688 1.078126 1.09374.125q-.25.953124-.95312 1.484374-.70312.53125-1.78125.53125-1.35937 0-2.17187-.84375-.79688-.84375-.79688-2.359374 0-1.5625.8125-2.421876.8125-.875 2.09375-.875 1.25 0 2.03125.84375.79688.84375.79688 2.390626 0 .09375 0 .28125h-4.64063q.0625 1.03125.57813 1.578124.51562.53125 1.29687.53125.57813 0 .98437-.296874.42188-.3125.65626-.96875zm-3.45313-1.703126h3.46875q-.0625-.796874-.39062-1.1875-.51563-.609374-1.3125-.609374-.73438 0-1.23438.484374-.48438.484376-.53125 1.3125zm6.20313 3.703126v-6.21875h.9375v.875q.6875-1.015626 1.98437-1.015626.5625 0 1.03125.203126.48438.203124.71875.53125.23437.328124.32813.765624.04687.296876.04687 1.03125v3.828126h-1.04687v-3.78125q0-.65625-.125-.96875-.125-.3125-.4375-.5-.3125-.203126-.73438-.203126-.67188 0-1.17188.4375-.48437.421876-.48437 1.609376v3.40625zm7.09374 0v-8.59375h1.71876l2.03124 6.078124q.28126.859376.40626 1.28125.14062-.46875.45312-1.375l2.0625-5.984374h1.53125v8.59375h-1.09375v-7.1875l-2.5 7.1875h-1.03125l-2.48437-7.3125v7.3125zm10.03126 0v-8.59375h3.25q.84374 0 1.29687.078124.64063.109376 1.0625.40625.4375.296876.6875.828126.26563.53125.26563 1.171874 0 1.09375-.70313 1.859376-.6875.75-2.51563.75h-2.20312v3.5zm1.14062-4.5h2.21875q1.10937 0 1.5625-.40625.46875-.421876.46875-1.171876 0-.53125-.28125-.90625-.26563-.390624-.70313-.515624-.29687-.078126-1.0625-.078126h-2.20312zm11.75 7.03125q-.875-1.109376-1.48438-2.578126-.59374-1.484374-.59374-3.0625 0-1.390624.4375-2.671874.53124-1.484376 1.64062-2.953126h.75q-.70312 1.21875-.9375 1.734376-.35938.8125-.5625 1.6875-.25 1.09375-.25 2.203124 0 2.828126 1.75 5.640626zm7.23438-3.546876v1.015626h-5.6875q0-.375.125-.734376.21874-.578124.6875-1.140624.48437-.5625 1.39062-1.296876 1.40625-1.15625 1.89062-1.828124.5-.671876.5-1.265626 0-.625-.45312-1.046874-.45312-.4375-1.17188-.4375-.76562 0-1.21874.453124-.45313.453126-.46876 1.265626l-1.07812-.109376q.10938-1.21875.82812-1.84375.73438-.640624 1.96876-.640624 1.23437 0 1.95312.6875.71875.6875.71875 1.703124 0 .515626-.21875 1.015626-.20312.484374-.70312 1.046874-.48438.546876-1.60938 1.5-.95312.796876-1.23438 1.09375-.26562.28125-.4375.5625zm1.45312-3.21875q0-1.53125.3125-2.453124.3125-.9375.92188-1.4375.625-.5 1.5625-.5.6875 0 1.20312.28125.53125.28125.875.8125.34375.515624.53125 1.265624.1875.75.1875 2.03125 0 1.515626-.3125 2.4375-.29687.921876-.92187 1.4375-.60938.5-1.5625.5-1.23438 0-1.95313-.890624-.84375-1.0625-.84375-3.484376zm1.07812 0q0 2.109376.5 2.8125.5.703126 1.21876.703126.73437 0 1.21874-.703126.5-.703124.5-2.8125 0-2.125-.5-2.8125-.48437-.703124-1.23437-.703124-.71875 0-1.15625.609374-.54688.78125-.54688 2.90625zm11.53126 4.234376v-7.578126h-2.82813v-1.015624h6.8125v1.015624h-2.84375v7.578126zm4.6875 0v-8.59375h1.04687v3.078124q.73437-.84375 1.85937-.84375.70313 0 1.20313.28125.51563.265626.73437.75.21876.46875.21876 1.390626v3.9375h-1.04688v-3.9375q0-.796876-.34375-1.15625-.34375-.359376-.96875-.359376-.46875 0-.89062.25-.40626.234376-.59376.65625-.17187.40625-.17187 1.140626v3.40625zm6.98437 0v-6.21875h.95313v.9375q.35937-.65625.65624-.859376.3125-.21875.6875-.21875.53126 0 1.07813.328126l-.35937.984374q-.39063-.234374-.76563-.234374-.35937 0-.64063.21875-.26562.203124-.375.578124-.1875.5625-.1875 1.21875v3.265626zm8.26563-2 1.09374.125q-.25.953124-.95312 1.484374-.70312.53125-1.78125.53125-1.35937 0-2.17187-.84375-.79688-.84375-.79688-2.359374 0-1.5625.8125-2.421876.8125-.875 2.09375-.875 1.25 0 2.03125.84375.79688.84375.79688 2.390626 0 .09375 0 .28125h-4.64063q.0625 1.03125.57813 1.578124.51562.53125 1.29687.53125.57813 0 .98437-.296874.42188-.3125.65626-.96875zm-3.45313-1.703126h3.46875q-.0625-.796874-.39062-1.1875-.51563-.609374-1.3125-.609374-.73438 0-1.23438.484374-.48438.484376-.53125 1.3125zm10.26563 2.9375q-.59376.5-1.14063.703126-.53125.203124-1.15625.203124-1.03125 0-1.57812-.5-.54688-.5-.54688-1.28125 0-.453124.20312-.828124.20313-.390626.54688-.609376.34375-.234374.76562-.34375.29688-.09375.9375-.171874 1.26563-.140626 1.875-.359376 0-.21875 0-.265624 0-.65625-.29687-.921876-.40625-.34375-1.20313-.34375-.73437 0-1.09374.265626-.35938.25-.53126.90625l-1.03124-.140626q.14062-.65625.46874-1.0625.32813-.40625.9375-.625.60938-.21875 1.40626-.21875.79687 0 1.29687.1875.5.1875.73437.46875.23438.28125.32813.71875.04687.265626.04687.96875v1.40625q0 1.46875.0625 1.859376.07813.390624.28126.75h-1.10938q-.15625-.328126-.20312-.765626zm-.09376-2.359374q-.57812.234374-1.71874.40625-.65626.09375-.92188.21875-.26562.109374-.42188.328124-.14062.21875-.14062.5 0 .421876.3125.703126.32812.28125.9375.28125.60938 0 1.07812-.265626.48438-.265624.70313-.734374.17187-.359376.17187-1.046876zm7.0625 3.125v-.78125q-.59374.921874-1.73437.921874-.75 0-1.375-.40625-.625-.421874-.96875-1.15625-.34375-.734374-.34375-1.6875 0-.921874.3125-1.6875.3125-.765624.9375-1.15625.625-.40625 1.39063-.40625.5625 0 1 .234376.4375.234374.71874.609374v-3.078124h1.04688v8.59375zm-3.32812-3.109376q0 1.203126.5 1.796876.5.578124 1.1875.578124.6875 0 1.17188-.5625.48437-.5625.48437-1.71875 0-1.28125-.5-1.875-.48437-.59375-1.20313-.59375-.70312 0-1.17187.578126-.46875.5625-.46875 1.796874zm5.875 1.25 1.03125-.15625q.09375.625.48437.953126.40626.328124 1.14063.328124.71875 0 1.0625-.28125.35937-.296874.35937-.703124 0-.359376-.3125-.5625-.21874-.140626-1.07812-.359376-1.15625-.296874-1.60938-.5-.4375-.21875-.67187-.59375-.23437-.375-.23437-.84375 0-.40625.1875-.765624.1875-.359376.51562-.59375.25-.171876.67188-.296876.42187-.125.92187-.125.71875 0 1.26563.21875.5625.203126.82812.5625.26562.359376.35938.953126l-1.03126.140624q-.0625-.46875-.40624-.734374-.32813-.28125-.95313-.28125-.71875 0-1.03125.25-.3125.234374-.3125.5625 0 .203124.125.359374.14062.171876.40625.28125.15625.0625.9375.265626 1.125.3125 1.5625.5.4375.1875.6875.546874.25.359376.25.90625 0 .53125-.3125 1-.29687.453126-.875.71875-.57813.25-1.3125.25-1.21875 0-1.85937-.5-.625-.515624-.79688-1.5zm7.10938 4.390626h-.75q1.75-2.8125 1.75-5.640626 0-1.09375-.25-2.1875-.20313-.875-.5625-1.6875-.23438-.515624-.9375-1.75h.75q1.09374 1.46875 1.625 2.953126.45312 1.28125.45312 2.671874 0 1.578126-.60938 3.0625-.60937 1.46875-1.46874 2.578126z" fill="#1a1a1a"/>
</svg>
