<?xml version="1.0"?>
<svg xmlns="http://www.w3.org/2000/svg" xmlns:xlink="http://www.w3.org/1999/xlink" fill="none" stroke-linecap="square" stroke-miterlimit="10" viewBox="0 0 1101 681">
  <clipPath id="a">
    <path d="m93.05 41.05h973.9v553.9h-973.9z"/>
  </clipPath>
  <path d="m0 0h1101v681h-1101z" fill="#fff"/>
  <g stroke-linecap="butt">
    <path d="m93.5 594.5h973" stroke="#333"/>
    <g stroke="#ccc">
      <path d="m93.5 502.5h973"/>
      <path d="m93.5 410.5h973"/>
      <path d="m93.5 318.5h973"/>
      <path d="m93.5 225.5h973"/>
      <path d="m93.5 133.5h973"/>
      <path d="m93.5 41.5h973"/>
    </g>
    <g stroke="#eee">
      <path d="m121.694115 547.4522v16"/>
      <path d="m178.98235 547.39044v16"/>
      <path d="m236.27058 547.176v16"/>
      <path d="m293.55884 548.4039v16"/>
      <path d="m350.84705 548.07806v16"/>
      <path d="m408.13528 547.66174v16"/>
      <path d="m465.42352 547.2147v16"/>
      <path d="m522.7118 546.9388v16"/>
      <path d="m580 540.99396v16"/>
      <path d="m866.44116 74.787636v16"/>
    </g>
    <path clip-path="url(#a)" d="m121.694115 563.4522 57.288235-.06176 57.28823-.21444 57.28826 1.2279 57.28821-.32584 57.28823-.41632 57.28824-.44704 57.28828-.2759 57.2882-5.94484 57.2882-23.85856 57.2883-84.18008 57.2882-136.12942 57.28825-94.43238 57.28821-127.605884 57.28827 249.797264 57.28821-283.750183 57.28826-11.003189" stroke="#34a853" stroke-width="2"/>
  </g>
  <g fill="#34a853">
    <path clip-path="url(#a)" d="m126.194115 563.4522c0 2.4853-2.014715 4.5-4.5 4.5-2.485275 0-4.5-2.0147-4.5-4.5s2.014725-4.5 4.5-4.5c2.485285 0 4.5 2.0147 4.5 4.5z"/>
    <path clip-path="url(#a)" d="m183.48235 563.39044c0 2.48529-2.01471 4.5-4.5 4.5-2.48528 0-4.5-2.01471-4.5-4.5s2.01472-4.5 4.5-4.5c2.48529 0 4.5 2.01471 4.5 4.5z"/>
    <path clip-path="url(#a)" d="m240.77058 563.176c0 2.48525-2.01471 4.5-4.5 4.5-2.48527 0-4.5-2.01475-4.5-4.5 0-2.48527 2.01473-4.5 4.5-4.5 2.48529 0 4.5 2.01473 4.5 4.5z"/>
    <path clip-path="url(#a)" d="m298.05884 564.4039c0 2.48526-2.01474 4.5-4.5 4.5-2.48529 0-4.5-2.01474-4.5-4.5 0-2.4853 2.01471-4.5 4.5-4.5 2.48526 0 4.5 2.0147 4.5 4.5z"/>
    <path clip-path="url(#a)" d="m355.34705 564.07806c0 2.48529-2.01471 4.5-4.5 4.5-2.48525 0-4.5-2.01471-4.5-4.5 0-2.48523 2.01475-4.5 4.5-4.5 2.48529 0 4.5 2.01477 4.5 4.5z"/>
    <path clip-path="url(#a)" d="m412.63528 563.66174c0 2.48529-2.01471 4.5-4.5 4.5-2.48526 0-4.5-2.01471-4.5-4.5 0-2.48524 2.01474-4.5 4.5-4.5 2.48529 0 4.5 2.01476 4.5 4.5z"/>
    <path clip-path="url(#a)" d="m469.92352 563.2147c0 2.4853-2.01472 4.5-4.5 4.5-2.48526 0-4.5-2.0147-4.5-4.5 0-2.48527 2.01474-4.5 4.5-4.5 2.48528 0 4.5 2.01473 4.5 4.5z"/>
    <path clip-path="url(#a)" d="m527.2118 562.9388c0 2.4852-2.0148 4.5-4.5 4.5-2.4853 0-4.5-2.0148-4.5-4.5 0-2.4853 2.0147-4.5 4.5-4.5 2.4852 0 4.5 2.0147 4.5 4.5z"/>
    <path clip-path="url(#a)" d="m584.5 556.99396c0 2.48529-2.0147 4.5-4.5 4.5s-4.5-2.01471-4.5-4.5c0-2.48526 2.0147-4.5 4.5-4.5s4.5 2.01474 4.5 4.5z"/>
    <path clip-path="url(#a)" d="m641.7882 533.1354c0 2.48527-2.0147 4.5-4.5 4.5-2.4852 0-4.5-2.01473-4.5-4.5 0-2.4853 2.0148-4.5 4.5-4.5 2.4853 0 4.5 2.0147 4.5 4.5z"/>
    <path clip-path="url(#a)" d="m699.0765 448.95532c0 2.48528-2.01473 4.5-4.5 4.5-2.4853 0-4.5-2.01472-4.5-4.5 0-2.48526 2.0147-4.5 4.5-4.5 2.48527 0 4.5 2.01474 4.5 4.5z"/>
    <path clip-path="url(#a)" d="m756.3647 312.8259c0 2.4853-2.0147 4.5-4.5 4.5s-4.5-2.0147-4.5-4.5c0-2.48526 2.0147-4.5 4.5-4.5s4.5 2.01474 4.5 4.5z"/>
    <path clip-path="url(#a)" d="m813.65295 218.39352c0 2.48528-2.01471 4.5-4.5 4.5s-4.5-2.01472-4.5-4.5c0-2.48529 2.01471-4.5 4.5-4.5s4.5 2.01471 4.5 4.5z"/>
    <path clip-path="url(#a)" d="m870.94116 90.787636c0 2.485274-2.01471 4.5-4.5 4.5-2.48526 0-4.5-2.014726-4.5-4.5 0-2.485286 2.01474-4.5 4.5-4.5 2.48529 0 4.5 2.014714 4.5 4.5z"/>
    <path clip-path="url(#a)" d="m928.22943 340.5849c0 2.48526-2.01473 4.5-4.5 4.5-2.48529 0-4.5-2.01474-4.5-4.5 0-2.4853 2.01471-4.5 4.5-4.5 2.48527 0 4.5 2.0147 4.5 4.5z"/>
    <path clip-path="url(#a)" d="m985.51764 56.834717c0 2.485279-2.01474 4.5-4.5 4.5-2.48529 0-4.5-2.014721-4.5-4.5 0-2.485283 2.01471-4.5 4.5-4.5 2.48526 0 4.5 2.014717 4.5 4.5z"/>
    <path clip-path="url(#a)" d="m1042.8059 45.831528c0 2.485279-2.0148 4.5-4.5 4.5-2.4853 0-4.5-2.014721-4.5-4.5 0-2.485283 2.0147-4.5 4.5-4.5 2.4852 0 4.5 2.014717 4.5 4.5z"/>
  </g>
  <path d="m110.194115 541.21783q0-1.53123.3125-2.45313.3125-.9375.921875-1.4375.625-.5 1.5625-.5.6875 0 1.203125.28126.53125.28124.875.8125.34375.51564.53125 1.26564.1875.75.1875 2.03123 0 1.51563-.3125 2.4375-.296875.92187-.921875 1.4375-.609375.5-1.5625.5-1.234375 0-1.953125-.89063-.84375-1.0625-.84375-3.48437zm1.078125 0q0 2.10937.5 2.8125.5.70313 1.21875.70313.734375 0 1.21875-.70313.5-.70313.5-2.8125 0-2.125-.5-2.8125-.484375-.70313-1.234375-.70313-.71875 0-1.15625.6094-.546875.78123-.546875 2.90623zm6.484375 4.23437v-1.2031h1.203125v1.2031q0 .65626-.234375 1.0625-.234375.4219-.734375.64063l-.296875-.45313q.328125-.1406.484375-.4375.15625-.28124.1875-.8125zm7.90625-6.48437-1.046875.07813q-.140625-.625-.390625-.90626-.4375-.4531-1.0625-.4531-.5 0-.890625.28123-.484375.375-.78125 1.07813-.28125.6875-.296875 1.96874.375-.5781.921875-.85937.5625-.28123 1.171875-.28123 1.046875 0 1.78125.78123.75.78127.75 2 0 .8125-.359375 1.51563-.34375.6875-.953125 1.0625-.609375.35937-1.375.35937-1.328125 0-2.15625-.96873-.828125-.96877-.828125-3.1875 0-2.5.921875-3.625.796875-.9844 2.15625-.9844 1.015625 0 1.65625.57813.65625.5625.78125 1.5625zm-4.296875 3.70313q0 .54687.21875 1.04687.234375.48437.640625.75.421875.26563.890625.26563.65625 0 1.140625-.53126.484375-.54687.484375-1.46874 0-.89063-.484375-1.40626-.46875-.5156-1.1875-.5156-.71875 0-1.21875.5156-.484375.51563-.484375 1.34376zm7.45313-1.875q-.65625-.25-.98438-.6875-.3125-.45313-.3125-1.0625 0-.9375.67188-1.57813.6875-.64063 1.79688-.64063 1.125 0 1.8125.65626.6875.65624.6875 1.59374 0 .59376-.3125 1.03126-.3125.4375-.95313.6875.79688.25 1.20313.82814.40625.5781.40625 1.375 0 1.09373-.78125 1.84373-.76563.75-2.04688.75-1.26562 0-2.04688-.75-.78125-.75-.78125-1.875 0-.84373.421875-1.40623.437505-.5625 1.218755-.76564zm-.21875-1.79686q0 .60936.39063 1 .40625.3906 1.03125.3906.60937 0 1-.375.39062-.3906.39062-.9531 0-.57814-.40625-.96877-.40625-.40623-1-.40623-.60937 0-1.01562.3906-.39063.39063-.39063.9219zm-.32812 3.96873q0 .45313.20312.875.21875.42187.64063.65627.42187.23436.90625.23436.75 0 1.23437-.48436.5-.4844.5-1.2344 0-.7656-.5-1.2656-.5-.5-1.26562-.5-.75 0-1.23438.5-.48437.48436-.48437 1.21873z" stroke="#fff" stroke-linecap="round" stroke-linejoin="round" stroke-width="3"/>
  <path d="m110.194115 541.21783q0-1.53123.3125-2.45313.3125-.9375.921875-1.4375.625-.5 1.5625-.5.6875 0 1.203125.28126.53125.28124.875.8125.34375.51564.53125 1.26564.1875.75.1875 2.03123 0 1.51563-.3125 2.4375-.296875.92187-.921875 1.4375-.609375.5-1.5625.5-1.234375 0-1.953125-.89063-.84375-1.0625-.84375-3.48437zm1.078125 0q0 2.10937.5 2.8125.5.70313 1.21875.70313.734375 0 1.21875-.70313.5-.70313.5-2.8125 0-2.125-.5-2.8125-.484375-.70313-1.234375-.70313-.71875 0-1.15625.6094-.546875.78123-.546875 2.90623zm6.484375 4.23437v-1.2031h1.203125v1.2031q0 .65626-.234375 1.0625-.234375.4219-.734375.64063l-.296875-.45313q.328125-.1406.484375-.4375.15625-.28124.1875-.8125zm7.90625-6.48437-1.046875.07813q-.140625-.625-.390625-.90626-.4375-.4531-1.0625-.4531-.5 0-.890625.28123-.484375.375-.78125 1.07813-.28125.6875-.296875 1.96874.375-.5781.921875-.85937.5625-.28123 1.171875-.28123 1.046875 0 1.78125.78123.75.78127.75 2 0 .8125-.359375 1.51563-.34375.6875-.953125 1.0625-.609375.35937-1.375.35937-1.328125 0-2.15625-.96873-.828125-.96877-.828125-3.1875 0-2.5.921875-3.625.796875-.9844 2.15625-.9844 1.015625 0 1.65625.57813.65625.5625.78125 1.5625zm-4.296875 3.70313q0 .54687.21875 1.04687.234375.48437.640625.75.421875.26563.890625.26563.65625 0 1.140625-.53126.484375-.54687.484375-1.46874 0-.89063-.484375-1.40626-.46875-.5156-1.1875-.5156-.71875 0-1.21875.5156-.484375.51563-.484375 1.34376zm7.45313-1.875q-.65625-.25-.98438-.6875-.3125-.45313-.3125-1.0625 0-.9375.67188-1.57813.6875-.64063 1.79688-.64063 1.125 0 1.8125.65626.6875.65624.6875 1.59374 0 .59376-.3125 1.03126-.3125.4375-.95313.6875.79688.25 1.20313.82814.40625.5781.40625 1.375 0 1.09373-.78125 1.84373-.76563.75-2.04688.75-1.26562 0-2.04688-.75-.78125-.75-.78125-1.875 0-.84373.421875-1.40623.437505-.5625 1.218755-.76564zm-.21875-1.79686q0 .60936.39063 1 .40625.3906 1.03125.3906.60937 0 1-.375.39062-.3906.39062-.9531 0-.57814-.40625-.96877-.40625-.40623-1-.40623-.60937 0-1.01562.3906-.39063.39063-.39063.9219zm-.32812 3.96873q0 .45313.20312.875.21875.42187.64063.65627.42187.23436.90625.23436.75 0 1.23437-.48436.5-.4844.5-1.2344 0-.7656-.5-1.2656-.5-.5-1.26562-.5-.75 0-1.23438.5-.48437.48436-.48437 1.21873z" fill="#34a853"/>
  <path d="m167.48235 541.15607q0-1.53127.3125-2.45313.3125-.9375.92187-1.4375.625-.5 1.5625-.5.6875 0 1.20313.28126.53125.28124.875.8125.34375.5156.53125 1.2656.1875.75.1875 2.03127 0 1.51563-.3125 2.4375-.29688.92187-.92188 1.4375-.60937.5-1.5625.5-1.23437 0-1.95312-.89063-.84375-1.0625-.84375-3.48437zm1.07812 0q0 2.10937.5 2.8125.5.70313 1.21875.70313.73438 0 1.21875-.70313.5-.70313.5-2.8125 0-2.125-.5-2.8125-.48437-.70313-1.23437-.70313-.71875 0-1.15625.60936-.54688.78127-.54688 2.90627zm6.48438 4.23437v-1.20314h1.20312v1.20314q0 .65626-.23437 1.0625-.23438.42186-.73438.64063l-.29687-.45313q.32812-.14064.48437-.4375.15625-.28124.1875-.8125zm7.90625-6.48437-1.04688.07813q-.14062-.625-.39062-.90626-.4375-.45314-1.0625-.45314-.5 0-.89063.28127-.48437.375-.78125 1.07813-.28125.6875-.29687 1.96874.375-.57814.92187-.85937.5625-.28127 1.17188-.28127 1.04687 0 1.78125.78127.75.78123.75 2 0 .8125-.35938 1.51563-.34375.6875-.95312 1.0625-.60938.35937-1.375.35937-1.32813 0-2.15625-.96877-.82813-.96873-.82813-3.1875 0-2.5.92188-3.625.79687-.98436 2.15625-.98436 1.01562 0 1.65625.57813.65625.5625.78125 1.5625zm-4.29688 3.70313q0 .54687.21875 1.04687.23438.48437.64063.75.42187.26563.89062.26563.65625 0 1.14063-.53126.48437-.54687.48437-1.46874 0-.89063-.48437-1.40626-.46875-.51564-1.1875-.51564-.71875 0-1.21875.51564-.48438.51563-.48438 1.34376zm7.45313-1.875q-.65625-.25-.98438-.6875-.3125-.45313-.3125-1.0625 0-.9375.67188-1.57813.6875-.64063 1.79687-.64063 1.125 0 1.8125.65626.6875.65624.6875 1.59374 0 .59376-.3125 1.03126-.3125.4375-.95312.6875.79687.25 1.20312.8281.40625.57814.40625 1.375 0 1.09377-.78125 1.84377-.76562.75-2.04687.75-1.26563 0-2.04688-.75-.78125-.75-.78125-1.875 0-.84377.42188-1.40627.4375-.5625 1.21875-.7656zm-.21875-1.7969q0 .6094.39062 1 .40625.39064 1.03125.39064.60938 0 1-.375.39063-.39064.39063-.95314 0-.5781-.40625-.96873-.40625-.40627-1-.40627-.60938 0-1.01563.39064-.39062.39063-.39062.92186zm-.32813 3.96877q0 .45313.20313.875.21875.42187.64062.65623.42188.2344.90625.2344.75 0 1.23438-.4844.5-.48436.5-1.23436 0-.76564-.5-1.26564-.5-.5-1.26563-.5-.75 0-1.23437.5-.48438.4844-.48438 1.21877z" stroke="#fff" stroke-linecap="round" stroke-linejoin="round" stroke-width="3"/>
  <path d="m167.48235 541.15607q0-1.53127.3125-2.45313.3125-.9375.92187-1.4375.625-.5 1.5625-.5.6875 0 1.20313.28126.53125.28124.875.8125.34375.5156.53125 1.2656.1875.75.1875 2.03127 0 1.51563-.3125 2.4375-.29688.92187-.92188 1.4375-.60937.5-1.5625.5-1.23437 0-1.95312-.89063-.84375-1.0625-.84375-3.48437zm1.07812 0q0 2.10937.5 2.8125.5.70313 1.21875.70313.73438 0 1.21875-.70313.5-.70313.5-2.8125 0-2.125-.5-2.8125-.48437-.70313-1.23437-.70313-.71875 0-1.15625.60936-.54688.78127-.54688 2.90627zm6.48438 4.23437v-1.20314h1.20312v1.20314q0 .65626-.23437 1.0625-.23438.42186-.73438.64063l-.29687-.45313q.32812-.14064.48437-.4375.15625-.28124.1875-.8125zm7.90625-6.48437-1.04688.07813q-.14062-.625-.39062-.90626-.4375-.45314-1.0625-.45314-.5 0-.89063.28127-.48437.375-.78125 1.07813-.28125.6875-.29687 1.96874.375-.57814.92187-.85937.5625-.28127 1.17188-.28127 1.04687 0 1.78125.78127.75.78123.75 2 0 .8125-.35938 1.51563-.34375.6875-.95312 1.0625-.60938.35937-1.375.35937-1.32813 0-2.15625-.96877-.82813-.96873-.82813-3.1875 0-2.5.92188-3.625.79687-.98436 2.15625-.98436 1.01562 0 1.65625.57813.65625.5625.78125 1.5625zm-4.29688 3.70313q0 .54687.21875 1.04687.23438.48437.64063.75.42187.26563.89062.26563.65625 0 1.14063-.53126.48437-.54687.48437-1.46874 0-.89063-.48437-1.40626-.46875-.51564-1.1875-.51564-.71875 0-1.21875.51564-.48438.51563-.48438 1.34376zm7.45313-1.875q-.65625-.25-.98438-.6875-.3125-.45313-.3125-1.0625 0-.9375.67188-1.57813.6875-.64063 1.79687-.64063 1.125 0 1.8125.65626.6875.65624.6875 1.59374 0 .59376-.3125 1.03126-.3125.4375-.95312.6875.79687.25 1.20312.8281.40625.57814.40625 1.375 0 1.09377-.78125 1.84377-.76562.75-2.04687.75-1.26563 0-2.04688-.75-.78125-.75-.78125-1.875 0-.84377.42188-1.40627.4375-.5625 1.21875-.7656zm-.21875-1.7969q0 .6094.39062 1 .40625.39064 1.03125.39064.60938 0 1-.375.39063-.39064.39063-.95314 0-.5781-.40625-.96873-.40625-.40627-1-.40627-.60938 0-1.01563.39064-.39062.39063-.39062.92186zm-.32813 3.96877q0 .45313.20313.875.21875.42187.64062.65623.42188.2344.90625.2344.75 0 1.23438-.4844.5-.48436.5-1.23436 0-.76564-.5-1.26564-.5-.5-1.26563-.5-.75 0-1.23437.5-.48438.4844-.48438 1.21877z" fill="#34a853"/>
  <path d="m224.77058 540.94165q0-1.53125.3125-2.45315.3125-.9375.92188-1.4375.625-.5 1.5625-.5.6875 0 1.20312.2813.53125.2812.875.8125.34375.5156.53125 1.2656.1875.75.1875 2.03125 0 1.51565-.3125 2.4375-.29687.92185-.92187 1.4375-.60938.5-1.5625.5-1.23438 0-1.95313-.89065-.84375-1.0625-.84375-3.48435zm1.07813 0q0 2.10935.5 2.8125.5.70315 1.21875.70315.73437 0 1.21875-.70315.5-.70315.5-2.8125 0-2.125-.5-2.8125-.48438-.70315-1.23438-.70315-.71875 0-1.15625.6094-.54687.78125-.54687 2.90625zm6.48437 4.23435v-1.2031h1.20313v1.2031q0 .6563-.23438 1.0625-.23437.4219-.73437.64065l-.29688-.45315q.32813-.1406.48438-.4375.15625-.2812.1875-.8125zm7.90625-6.48435-1.04687.07815q-.14063-.625-.39063-.9063-.4375-.4531-1.0625-.4531-.5 0-.89062.28125-.48438.375-.78125 1.07815-.28125.6875-.29688 1.9687.375-.5781.92188-.85935.5625-.28125 1.17187-.28125 1.04688 0 1.78125.78125.75.78125.75 2 0 .8125-.35937 1.51565-.34375.6875-.95313 1.0625-.60937.35935-1.375.35935-1.32812 0-2.15625-.96875-.82812-.96875-.82812-3.1875 0-2.5.92187-3.625.79688-.9844 2.15625-.9844 1.01563 0 1.65625.57815.65625.5625.78125 1.5625zm-4.29687 3.70315q0 .54685.21875 1.04685.23437.48435.64062.75.42188.26565.89063.26565.65625 0 1.14062-.5313.48438-.54685.48438-1.4687 0-.89065-.48438-1.4063-.46875-.5156-1.1875-.5156-.71875 0-1.21875.5156-.48437.51565-.48437 1.3438zm5.98437.79685 1.01563-.09375q.125.71875.48437 1.0469.375.3125.9375.3125.48438 0 .84375-.2188.375-.23435.60938-.5937.23437-.375.39062-1 .15625-.64065.15625-1.2969 0-.0781 0-.21875-.3125.5-.85937.82815-.54688.3125-1.1875.3125-1.07813 0-1.8125-.76565-.73438-.78125-.73438-2.04685 0-1.3125.76563-2.1094.78125-.7969 1.9375-.7969.82812 0 1.51562.45315.70313.45315 1.0625 1.29685.35938.82815.35938 2.4063 0 1.6406-.35938 2.625-.34375.9687-1.0625 1.48435-.70312.5-1.64062.5-1.01563 0-1.65625-.54685-.64063-.5625-.76563-1.57815zm4.3125-3.79685q0-.9063-.48437-1.4375-.46875-.5313-1.15625-.5313-.70313 0-1.23438.57815-.51562.5625-.51562 1.48435 0 .8125.5 1.32815.5.51565 1.21875.51565.73437 0 1.20312-.51565.46875-.51565.46875-1.42185z" stroke="#fff" stroke-linecap="round" stroke-linejoin="round" stroke-width="3"/>
  <path d="m224.77058 540.94165q0-1.53125.3125-2.45315.3125-.9375.92188-1.4375.625-.5 1.5625-.5.6875 0 1.20312.2813.53125.2812.875.8125.34375.5156.53125 1.2656.1875.75.1875 2.03125 0 1.51565-.3125 2.4375-.29687.92185-.92187 1.4375-.60938.5-1.5625.5-1.23438 0-1.95313-.89065-.84375-1.0625-.84375-3.48435zm1.07813 0q0 2.10935.5 2.8125.5.70315 1.21875.70315.73437 0 1.21875-.70315.5-.70315.5-2.8125 0-2.125-.5-2.8125-.48438-.70315-1.23438-.70315-.71875 0-1.15625.6094-.54687.78125-.54687 2.90625zm6.48437 4.23435v-1.2031h1.20313v1.2031q0 .6563-.23438 1.0625-.23437.4219-.73437.64065l-.29688-.45315q.32813-.1406.48438-.4375.15625-.2812.1875-.8125zm7.90625-6.48435-1.04687.07815q-.14063-.625-.39063-.9063-.4375-.4531-1.0625-.4531-.5 0-.89062.28125-.48438.375-.78125 1.07815-.28125.6875-.29688 1.9687.375-.5781.92188-.85935.5625-.28125 1.17187-.28125 1.04688 0 1.78125.78125.75.78125.75 2 0 .8125-.35937 1.51565-.34375.6875-.95313 1.0625-.60937.35935-1.375.35935-1.32812 0-2.15625-.96875-.82812-.96875-.82812-3.1875 0-2.5.92187-3.625.79688-.9844 2.15625-.9844 1.01563 0 1.65625.57815.65625.5625.78125 1.5625zm-4.29687 3.70315q0 .54685.21875 1.04685.23437.48435.64062.75.42188.26565.89063.26565.65625 0 1.14062-.5313.48438-.54685.48438-1.4687 0-.89065-.48438-1.4063-.46875-.5156-1.1875-.5156-.71875 0-1.21875.5156-.48437.51565-.48437 1.3438zm5.98437.79685 1.01563-.09375q.125.71875.48437 1.0469.375.3125.9375.3125.48438 0 .84375-.2188.375-.23435.60938-.5937.23437-.375.39062-1 .15625-.64065.15625-1.2969 0-.0781 0-.21875-.3125.5-.85937.82815-.54688.3125-1.1875.3125-1.07813 0-1.8125-.76565-.73438-.78125-.73438-2.04685 0-1.3125.76563-2.1094.78125-.7969 1.9375-.7969.82812 0 1.51562.45315.70313.45315 1.0625 1.29685.35938.82815.35938 2.4063 0 1.6406-.35938 2.625-.34375.9687-1.0625 1.48435-.70312.5-1.64062.5-1.01563 0-1.65625-.54685-.64063-.5625-.76563-1.57815zm4.3125-3.79685q0-.9063-.48437-1.4375-.46875-.5313-1.15625-.5313-.70313 0-1.23438.57815-.51562.5625-.51562 1.48435 0 .8125.5 1.32815.5.51565 1.21875.51565.73437 0 1.20312-.51565.46875-.51565.46875-1.42185z" fill="#34a853"/>
  <path d="m282.05884 542.1695q0-1.53126.3125-2.4531.3125-.9375.92186-1.4375.625-.5 1.5625-.5.6875 0 1.20314.2812.53126.2813.875.8125.34376.51564.53126 1.26564.1875.75.1875 2.03126 0 1.5156-.3125 2.4375-.2969.9219-.9219 1.4375-.60936.5-1.5625.5-1.23436 0-1.9531-.8906-.84376-1.0625-.84376-3.4844zm1.07812 0q0 2.1094.5 2.8125.5.7031 1.21874.7031.7344 0 1.21876-.7031.5-.7031.5-2.8125 0-2.125-.5-2.8125-.48436-.7031-1.23436-.7031-.71876 0-1.15626.60934-.54688.78126-.54688 2.90626zm6.48438 4.2344v-1.20316h1.20312v1.20316q0 .6562-.23436 1.0625-.2344.42184-.7344.6406l-.29686-.4531q.32812-.14066.48436-.4375.15626-.2813.1875-.8125zm7.90626-6.4844-1.0469.0781q-.1406-.625-.3906-.9062-.4375-.45316-1.0625-.45316-.5 0-.89064.28126-.48436.375-.78126 1.0781-.28124.6875-.29686 1.9688.375-.57816.92186-.8594.5625-.28126 1.1719-.28126 1.04686 0 1.78124.78126.75.78124.75 2 0 .8125-.35938 1.5156-.34376.6875-.95312 1.0625-.60938.3594-1.375.3594-1.32814 0-2.15624-.96876-.82814-.96874-.82814-3.1875 0-2.5.92188-3.625.79686-.98434 2.15626-.98434 1.0156 0 1.65624.5781.65626.5625.78126 1.5625zm-4.2969 3.7031q0 .5469.21876 1.0469.23438.4844.64064.75.42186.2656.8906.2656.65626 0 1.14064-.5312.48436-.5469.48436-1.4688 0-.8906-.48436-1.4062-.46874-.51566-1.1875-.51566-.71874 0-1.21874.51566-.4844.5156-.4844 1.3437zm11.2969-3.7031-1.0469.0781q-.1406-.625-.3906-.9062-.4375-.45316-1.0625-.45316-.5 0-.89064.28126-.48436.375-.78126 1.0781-.28124.6875-.29686 1.9688.375-.57816.92186-.8594.5625-.28126 1.1719-.28126 1.04686 0 1.78124.78126.75.78124.75 2 0 .8125-.35938 1.5156-.34376.6875-.95312 1.0625-.60938.3594-1.375.3594-1.32814 0-2.15624-.96876-.82814-.96874-.82814-3.1875 0-2.5.92188-3.625.79686-.98434 2.15626-.98434 1.0156 0 1.65624.5781.65626.5625.78126 1.5625zm-4.2969 3.7031q0 .5469.21876 1.0469.23438.4844.64064.75.42186.2656.8906.2656.65626 0 1.14064-.5312.48436-.5469.48436-1.4688 0-.8906-.48436-1.4062-.46874-.51566-1.1875-.51566-.71874 0-1.21874.51566-.4844.5156-.4844 1.3437z" stroke="#fff" stroke-linecap="round" stroke-linejoin="round" stroke-width="3"/>
  <path d="m282.05884 542.1695q0-1.53126.3125-2.4531.3125-.9375.92186-1.4375.625-.5 1.5625-.5.6875 0 1.20314.2812.53126.2813.875.8125.34376.51564.53126 1.26564.1875.75.1875 2.03126 0 1.5156-.3125 2.4375-.2969.9219-.9219 1.4375-.60936.5-1.5625.5-1.23436 0-1.9531-.8906-.84376-1.0625-.84376-3.4844zm1.07812 0q0 2.1094.5 2.8125.5.7031 1.21874.7031.7344 0 1.21876-.7031.5-.7031.5-2.8125 0-2.125-.5-2.8125-.48436-.7031-1.23436-.7031-.71876 0-1.15626.60934-.54688.78126-.54688 2.90626zm6.48438 4.2344v-1.20316h1.20312v1.20316q0 .6562-.23436 1.0625-.2344.42184-.7344.6406l-.29686-.4531q.32812-.14066.48436-.4375.15626-.2813.1875-.8125zm7.90626-6.4844-1.0469.0781q-.1406-.625-.3906-.9062-.4375-.45316-1.0625-.45316-.5 0-.89064.28126-.48436.375-.78126 1.0781-.28124.6875-.29686 1.9688.375-.57816.92186-.8594.5625-.28126 1.1719-.28126 1.04686 0 1.78124.78126.75.78124.75 2 0 .8125-.35938 1.5156-.34376.6875-.95312 1.0625-.60938.3594-1.375.3594-1.32814 0-2.15624-.96876-.82814-.96874-.82814-3.1875 0-2.5.92188-3.625.79686-.98434 2.15626-.98434 1.0156 0 1.65624.5781.65626.5625.78126 1.5625zm-4.2969 3.7031q0 .5469.21876 1.0469.23438.4844.64064.75.42186.2656.8906.2656.65626 0 1.14064-.5312.48436-.5469.48436-1.4688 0-.8906-.48436-1.4062-.46874-.51566-1.1875-.51566-.71874 0-1.21874.51566-.4844.5156-.4844 1.3437zm11.2969-3.7031-1.0469.0781q-.1406-.625-.3906-.9062-.4375-.45316-1.0625-.45316-.5 0-.89064.28126-.48436.375-.78126 1.0781-.28124.6875-.29686 1.9688.375-.57816.92186-.8594.5625-.28126 1.1719-.28126 1.04686 0 1.78124.78126.75.78124.75 2 0 .8125-.35938 1.5156-.34376.6875-.95312 1.0625-.60938.3594-1.375.3594-1.32814 0-2.15624-.96876-.82814-.96874-.82814-3.1875 0-2.5.92188-3.625.79686-.98434 2.15626-.98434 1.0156 0 1.65624.5781.65626.5625.78126 1.5625zm-4.2969 3.7031q0 .5469.21876 1.0469.23438.4844.64064.75.42186.2656.8906.2656.65626 0 1.14064-.5312.48436-.5469.48436-1.4688 0-.8906-.48436-1.4062-.46874-.51566-1.1875-.51566-.71874 0-1.21874.51566-.4844.5156-.4844 1.3437z" fill="#34a853"/>
  <path d="m339.34705 541.8437q0-1.53126.3125-2.45314.3125-.9375.92187-1.4375.625-.5 1.5625-.5.6875 0 1.20313.28124.53125.28126.875.8125.34375.51564.53125 1.26564.1875.75.1875 2.03126 0 1.5156-.3125 2.4375-.29688.92186-.92188 1.4375-.60937.5-1.5625.5-1.23437 0-1.95312-.89064-.84375-1.0625-.84375-3.48436zm1.07812 0q0 2.10936.5 2.8125.5.7031 1.21875.7031.73438 0 1.21875-.7031.5-.70314.5-2.8125 0-2.125-.5-2.8125-.48437-.70314-1.23437-.70314-.71875 0-1.15625.60938-.54688.78126-.54688 2.90626zm6.48438 4.23436v-1.20312h1.20312v1.20312q0 .65624-.23437 1.0625-.23438.42188-.73438.64064l-.29687-.45314q.32812-.14062.48437-.4375.15625-.28126.1875-.8125zm7.90625-6.48436-1.04688.0781q-.14062-.625-.39062-.90624-.4375-.45312-1.0625-.45312-.5 0-.89063.28126-.48437.375-.78125 1.0781-.28125.6875-.29687 1.96876.375-.57812.92187-.85936.5625-.28126 1.17188-.28126 1.04687 0 1.78125.78126.75.78124.75 2 0 .8125-.35938 1.5156-.34375.6875-.95312 1.0625-.60938.3594-1.375.3594-1.32813 0-2.15625-.96876-.82813-.96874-.82813-3.1875 0-2.5.92188-3.625.79687-.98438 2.15625-.98438 1.01562 0 1.65625.57814.65625.5625.78125 1.5625zm-4.29688 3.7031q0 .5469.21875 1.0469.23438.48436.64063.75.42187.2656.89062.2656.65625 0 1.14063-.53124.48437-.54686.48437-1.46876 0-.8906-.48437-1.40624-.46875-.51562-1.1875-.51562-.71875 0-1.21875.51562-.48438.51564-.48438 1.34374zm5.89063-4.6875v-1.0156h5.5625v.8281q-.8125.875-1.625 2.32814-.79688 1.4375-1.23438 2.96876-.32812 1.0781-.40625 2.35936h-1.09375q.01563-1.01562.39063-2.45312.39062-1.4375 1.09375-2.76564.71875-1.3281 1.53125-2.25z" stroke="#fff" stroke-linecap="round" stroke-linejoin="round" stroke-width="3"/>
  <path d="m339.34705 541.8437q0-1.53126.3125-2.45314.3125-.9375.92187-1.4375.625-.5 1.5625-.5.6875 0 1.20313.28124.53125.28126.875.8125.34375.51564.53125 1.26564.1875.75.1875 2.03126 0 1.5156-.3125 2.4375-.29688.92186-.92188 1.4375-.60937.5-1.5625.5-1.23437 0-1.95312-.89064-.84375-1.0625-.84375-3.48436zm1.07812 0q0 2.10936.5 2.8125.5.7031 1.21875.7031.73438 0 1.21875-.7031.5-.70314.5-2.8125 0-2.125-.5-2.8125-.48437-.70314-1.23437-.70314-.71875 0-1.15625.60938-.54688.78126-.54688 2.90626zm6.48438 4.23436v-1.20312h1.20312v1.20312q0 .65624-.23437 1.0625-.23438.42188-.73438.64064l-.29687-.45314q.32812-.14062.48437-.4375.15625-.28126.1875-.8125zm7.90625-6.48436-1.04688.0781q-.14062-.625-.39062-.90624-.4375-.45312-1.0625-.45312-.5 0-.89063.28126-.48437.375-.78125 1.0781-.28125.6875-.29687 1.96876.375-.57812.92187-.85936.5625-.28126 1.17188-.28126 1.04687 0 1.78125.78126.75.78124.75 2 0 .8125-.35938 1.5156-.34375.6875-.95312 1.0625-.60938.3594-1.375.3594-1.32813 0-2.15625-.96876-.82813-.96874-.82813-3.1875 0-2.5.92188-3.625.79687-.98438 2.15625-.98438 1.01562 0 1.65625.57814.65625.5625.78125 1.5625zm-4.29688 3.7031q0 .5469.21875 1.0469.23438.48436.64063.75.42187.2656.89062.2656.65625 0 1.14063-.53124.48437-.54686.48437-1.46876 0-.8906-.48437-1.40624-.46875-.51562-1.1875-.51562-.71875 0-1.21875.51562-.48438.51564-.48438 1.34374zm5.89063-4.6875v-1.0156h5.5625v.8281q-.8125.875-1.625 2.32814-.79688 1.4375-1.23438 2.96876-.32812 1.0781-.40625 2.35936h-1.09375q.01563-1.01562.39063-2.45312.39062-1.4375 1.09375-2.76564.71875-1.3281 1.53125-2.25z" fill="#34a853"/>
  <path d="m396.63528 541.42737q0-1.53127.3125-2.45313.3125-.9375.92188-1.4375.625-.5 1.5625-.5.6875 0 1.20312.28126.53125.28124.875.8125.34375.5156.53125 1.2656.1875.75.1875 2.03127 0 1.51563-.3125 2.4375-.29687.92187-.92187 1.4375-.60938.5-1.5625.5-1.23438 0-1.95313-.89063-.84375-1.0625-.84375-3.48437zm1.07812 0q0 2.10937.5 2.8125.5.70313 1.21876.70313.73437 0 1.21874-.70313.5-.70313.5-2.8125 0-2.125-.5-2.8125-.48437-.70313-1.23437-.70313-.71875 0-1.15625.60936-.54688.78127-.54688 2.90627zm6.48438 4.23437v-1.20314h1.20312v1.20314q0 .65626-.23437 1.0625-.23437.42186-.73437.64063l-.29688-.45313q.32812-.14064.48438-.4375.15624-.28124.1875-.8125zm7.90625-6.48437-1.04687.07813q-.14063-.625-.39063-.90626-.4375-.45314-1.0625-.45314-.5 0-.89063.28127-.48437.375-.78124 1.07813-.28126.6875-.29688 1.96874.375-.57814.92188-.85937.5625-.28127 1.17187-.28127 1.04687 0 1.78125.78127.75.78123.75 2 0 .8125-.35938 1.51563-.34374.6875-.95312 1.0625-.60938.35937-1.375.35937-1.32812 0-2.15625-.96877-.82813-.96873-.82813-3.1875 0-2.5.92188-3.625.79688-.98436 2.15625-.98436 1.01563 0 1.65625.57813.65625.5625.78125 1.5625zm-4.29687 3.70313q0 .54687.21874 1.04687.23438.48437.64063.75.42187.26563.89063.26563.65624 0 1.14062-.53126.48438-.54687.48438-1.46874 0-.89063-.48438-1.40626-.46875-.51564-1.1875-.51564-.71875 0-1.21875.51564-.48437.51563-.48437 1.34376zm7.45312-1.875q-.65625-.25-.98438-.6875-.3125-.45313-.3125-1.0625 0-.9375.67188-1.57813.6875-.64063 1.79688-.64063 1.125 0 1.8125.65626.6875.65624.6875 1.59374 0 .59376-.3125 1.03126-.3125.4375-.95313.6875.79687.25 1.20313.8281.40624.57814.40624 1.375 0 1.09377-.78124 1.84377-.76563.75-2.04688.75-1.26562 0-2.04688-.75-.78124-.75-.78124-1.875 0-.84377.42187-1.40627.4375-.5625 1.21875-.7656zm-.21875-1.7969q0 .6094.39063 1 .40624.39064 1.03124.39064.60938 0 1-.375.39063-.39064.39063-.95314 0-.5781-.40625-.96873-.40625-.40627-1-.40627-.60938 0-1.01562.39064-.39063.39063-.39063.92186zm-.32813 3.96877q0 .45313.20313.875.21875.42187.64063.65623.42187.2344.90624.2344.75 0 1.23438-.4844.5-.48436.5-1.23436 0-.76564-.5-1.26564-.5-.5-1.26562-.5-.75 0-1.23438.5-.48438.4844-.48438 1.21877z" stroke="#fff" stroke-linecap="round" stroke-linejoin="round" stroke-width="3"/>
  <path d="m396.63528 541.42737q0-1.53127.3125-2.45313.3125-.9375.92188-1.4375.625-.5 1.5625-.5.6875 0 1.20312.28126.53125.28124.875.8125.34375.5156.53125 1.2656.1875.75.1875 2.03127 0 1.51563-.3125 2.4375-.29687.92187-.92187 1.4375-.60938.5-1.5625.5-1.23438 0-1.95313-.89063-.84375-1.0625-.84375-3.48437zm1.07812 0q0 2.10937.5 2.8125.5.70313 1.21876.70313.73437 0 1.21874-.70313.5-.70313.5-2.8125 0-2.125-.5-2.8125-.48437-.70313-1.23437-.70313-.71875 0-1.15625.60936-.54688.78127-.54688 2.90627zm6.48438 4.23437v-1.20314h1.20312v1.20314q0 .65626-.23437 1.0625-.23437.42186-.73437.64063l-.29688-.45313q.32812-.14064.48438-.4375.15624-.28124.1875-.8125zm7.90625-6.48437-1.04687.07813q-.14063-.625-.39063-.90626-.4375-.45314-1.0625-.45314-.5 0-.89063.28127-.48437.375-.78124 1.07813-.28126.6875-.29688 1.96874.375-.57814.92188-.85937.5625-.28127 1.17187-.28127 1.04687 0 1.78125.78127.75.78123.75 2 0 .8125-.35938 1.51563-.34374.6875-.95312 1.0625-.60938.35937-1.375.35937-1.32812 0-2.15625-.96877-.82813-.96873-.82813-3.1875 0-2.5.92188-3.625.79688-.98436 2.15625-.98436 1.01563 0 1.65625.57813.65625.5625.78125 1.5625zm-4.29687 3.70313q0 .54687.21874 1.04687.23438.48437.64063.75.42187.26563.89063.26563.65624 0 1.14062-.53126.48438-.54687.48438-1.46874 0-.89063-.48438-1.40626-.46875-.51564-1.1875-.51564-.71875 0-1.21875.51564-.48437.51563-.48437 1.34376zm7.45312-1.875q-.65625-.25-.98438-.6875-.3125-.45313-.3125-1.0625 0-.9375.67188-1.57813.6875-.64063 1.79688-.64063 1.125 0 1.8125.65626.6875.65624.6875 1.59374 0 .59376-.3125 1.03126-.3125.4375-.95313.6875.79687.25 1.20313.8281.40624.57814.40624 1.375 0 1.09377-.78124 1.84377-.76563.75-2.04688.75-1.26562 0-2.04688-.75-.78124-.75-.78124-1.875 0-.84377.42187-1.40627.4375-.5625 1.21875-.7656zm-.21875-1.7969q0 .6094.39063 1 .40624.39064 1.03124.39064.60938 0 1-.375.39063-.39064.39063-.95314 0-.5781-.40625-.96873-.40625-.40627-1-.40627-.60938 0-1.01562.39064-.39063.39063-.39063.92186zm-.32813 3.96877q0 .45313.20313.875.21875.42187.64063.65623.42187.2344.90624.2344.75 0 1.23438-.4844.5-.48436.5-1.23436 0-.76564-.5-1.26564-.5-.5-1.26562-.5-.75 0-1.23438.5-.48438.4844-.48438 1.21877z" fill="#34a853"/>
  <path d="m453.92352 540.98035q0-1.53125.3125-2.45315.3125-.9375.92188-1.4375.625-.5 1.5625-.5.6875 0 1.20312.2813.53125.2812.875.8125.34375.5156.53125 1.2656.1875.75.1875 2.03125 0 1.51565-.3125 2.4375-.29687.92185-.92187 1.4375-.60938.5-1.5625.5-1.23438 0-1.95313-.89065-.84375-1.0625-.84375-3.48435zm1.07813 0q0 2.10935.5 2.8125.5.70315 1.21875.70315.73437 0 1.21875-.70315.5-.70315.5-2.8125 0-2.125-.5-2.8125-.48438-.70315-1.23438-.70315-.71875 0-1.15625.6094-.54687.78125-.54687 2.90625zm6.48437 4.23435v-1.2031h1.20313v1.2031q0 .6563-.23438 1.0625-.23437.4219-.73437.64065l-.29688-.45315q.32813-.1406.48438-.4375.15625-.2812.1875-.8125zm7.90625-6.48435-1.04687.07815q-.14063-.625-.39063-.9063-.4375-.4531-1.0625-.4531-.5 0-.89062.28125-.48438.375-.78125 1.07815-.28125.6875-.29688 1.9687.375-.5781.92188-.85935.5625-.28125 1.17187-.28125 1.04688 0 1.78125.78125.75.78125.75 2 0 .8125-.35937 1.51565-.34375.6875-.95313 1.0625-.60937.35935-1.375.35935-1.32812 0-2.15625-.96875-.82812-.96875-.82812-3.1875 0-2.5.92187-3.625.79688-.9844 2.15625-.9844 1.01563 0 1.65625.57815.65625.5625.78125 1.5625zm-4.29687 3.70315q0 .54685.21875 1.04685.23437.48435.64062.75.42188.26565.89063.26565.65625 0 1.14062-.5313.48438-.54685.48438-1.4687 0-.89065-.48438-1.4063-.46875-.5156-1.1875-.5156-.71875 0-1.21875.5156-.48437.51565-.48437 1.3438zm5.98437.79685 1.01563-.09375q.125.71875.48437 1.0469.375.3125.9375.3125.48438 0 .84375-.2188.375-.23435.60938-.5937.23437-.375.39062-1 .15625-.64065.15625-1.2969 0-.0781 0-.21875-.3125.5-.85937.82815-.54688.3125-1.1875.3125-1.07813 0-1.8125-.76565-.73438-.78125-.73438-2.04685 0-1.3125.76563-2.1094.78125-.7969 1.9375-.7969.82812 0 1.51562.45315.70313.45315 1.0625 1.29685.35938.82815.35938 2.4063 0 1.6406-.35938 2.625-.34375.9687-1.0625 1.48435-.70312.5-1.64062.5-1.01563 0-1.65625-.54685-.64063-.5625-.76563-1.57815zm4.3125-3.79685q0-.9063-.48437-1.4375-.46875-.5313-1.15625-.5313-.70313 0-1.23438.57815-.51562.5625-.51562 1.48435 0 .8125.5 1.32815.5.51565 1.21875.51565.73437 0 1.20312-.51565.46875-.51565.46875-1.42185z" stroke="#fff" stroke-linecap="round" stroke-linejoin="round" stroke-width="3"/>
  <path d="m453.92352 540.98035q0-1.53125.3125-2.45315.3125-.9375.92188-1.4375.625-.5 1.5625-.5.6875 0 1.20312.2813.53125.2812.875.8125.34375.5156.53125 1.2656.1875.75.1875 2.03125 0 1.51565-.3125 2.4375-.29687.92185-.92187 1.4375-.60938.5-1.5625.5-1.23438 0-1.95313-.89065-.84375-1.0625-.84375-3.48435zm1.07813 0q0 2.10935.5 2.8125.5.70315 1.21875.70315.73437 0 1.21875-.70315.5-.70315.5-2.8125 0-2.125-.5-2.8125-.48438-.70315-1.23438-.70315-.71875 0-1.15625.6094-.54687.78125-.54687 2.90625zm6.48437 4.23435v-1.2031h1.20313v1.2031q0 .6563-.23438 1.0625-.23437.4219-.73437.64065l-.29688-.45315q.32813-.1406.48438-.4375.15625-.2812.1875-.8125zm7.90625-6.48435-1.04687.07815q-.14063-.625-.39063-.9063-.4375-.4531-1.0625-.4531-.5 0-.89062.28125-.48438.375-.78125 1.07815-.28125.6875-.29688 1.9687.375-.5781.92188-.85935.5625-.28125 1.17187-.28125 1.04688 0 1.78125.78125.75.78125.75 2 0 .8125-.35937 1.51565-.34375.6875-.95313 1.0625-.60937.35935-1.375.35935-1.32812 0-2.15625-.96875-.82812-.96875-.82812-3.1875 0-2.5.92187-3.625.79688-.9844 2.15625-.9844 1.01563 0 1.65625.57815.65625.5625.78125 1.5625zm-4.29687 3.70315q0 .54685.21875 1.04685.23437.48435.64062.75.42188.26565.89063.26565.65625 0 1.14062-.5313.48438-.54685.48438-1.4687 0-.89065-.48438-1.4063-.46875-.5156-1.1875-.5156-.71875 0-1.21875.5156-.48437.51565-.48437 1.3438zm5.98437.79685 1.01563-.09375q.125.71875.48437 1.0469.375.3125.9375.3125.48438 0 .84375-.2188.375-.23435.60938-.5937.23437-.375.39062-1 .15625-.64065.15625-1.2969 0-.0781 0-.21875-.3125.5-.85937.82815-.54688.3125-1.1875.3125-1.07813 0-1.8125-.76565-.73438-.78125-.73438-2.04685 0-1.3125.76563-2.1094.78125-.7969 1.9375-.7969.82812 0 1.51562.45315.70313.45315 1.0625 1.29685.35938.82815.35938 2.4063 0 1.6406-.35938 2.625-.34375.9687-1.0625 1.48435-.70312.5-1.64062.5-1.01563 0-1.65625-.54685-.64063-.5625-.76563-1.57815zm4.3125-3.79685q0-.9063-.48437-1.4375-.46875-.5313-1.15625-.5313-.70313 0-1.23438.57815-.51562.5625-.51562 1.48435 0 .8125.5 1.32815.5.51565 1.21875.51565.73437 0 1.20312-.51565.46875-.51565.46875-1.42185z" fill="#34a853"/>
  <path d="m511.21176 540.7044q0-1.53124.3125-2.4531.3125-.9375.92191-1.4375.625-.5 1.5625-.5.6875 0 1.20313.28123.53124.28127.875.8125.34374.51563.53124 1.26563.1875.75.1875 2.03124 0 1.51563-.3125 2.4375-.29687.9219-.92187 1.4375-.60937.5-1.5625.5-1.23437 0-1.95313-.8906-.84378-1.0625-.84378-3.4844zm1.07814 0q0 2.1094.5 2.8125.5.70313 1.21877.70313.73437 0 1.21873-.70313.5-.7031.5-2.8125 0-2.125-.5-2.8125-.48436-.7031-1.23436-.7031-.71874 0-1.15624.60936-.5469.78124-.5469 2.90624zm6.4844 4.2344v-1.20314h1.2031v1.20314q0 .65623-.23436 1.0625-.23437.42186-.73437.6406l-.29687-.4531q.3281-.14064.48437-.4375.15623-.28127.1875-.8125zm7.90624-6.4844-1.04687.07813q-.14063-.625-.39063-.90623-.4375-.45314-1.0625-.45314-.5 0-.89064.28124-.48436.375-.78123 1.07813-.28127.6875-.29687 1.96877.375-.57814.92187-.8594.5625-.28124 1.17187-.28124 1.04686 0 1.78126.78124.75.78126.75 2 0 .8125-.3594 1.51563-.34373.6875-.9531 1.0625-.6094.35937-1.375.35937-1.32813 0-2.15626-.96874-.82814-.96876-.82814-3.1875 0-2.5.9219-3.625.79687-.98436 2.15624-.98436 1.01563 0 1.65626.5781.65624.5625.78124 1.5625zm-4.29687 3.70313q0 .54687.21873 1.04687.2344.4844.64064.75.42186.26563.89063.26563.65623 0 1.14063-.53123.48437-.5469.48437-1.46877 0-.89063-.48437-1.40623-.46876-.51564-1.1875-.51564-.71876 0-1.21876.51564-.48437.5156-.48437 1.34373zm5.98437.79687 1.01563-.09374q.125.71874.48437 1.04687.375.3125.9375.3125.48436 0 .84376-.21873.375-.2344.60937-.59377.23437-.375.39063-1 .15624-.64063.15624-1.29687 0-.07813 0-.21876-.3125.5-.85937.82813-.54687.3125-1.1875.3125-1.07813 0-1.8125-.76563-.73437-.78124-.73437-2.04687 0-1.3125.7656-2.10937.78127-.79686 1.9375-.79686.82814 0 1.51564.4531.70313.45313 1.0625 1.2969.35936.8281.35936 2.40623 0 1.64063-.35936 2.625-.34374.96877-1.0625 1.48437-.70314.5-1.64064.5-1.0156 0-1.65623-.54687-.64063-.5625-.76563-1.57813zm4.3125-3.79687q0-.90623-.48437-1.4375-.46877-.53123-1.15627-.53123-.7031 0-1.23436.5781-.51564.5625-.51564 1.4844 0 .8125.5 1.3281.5.51563 1.21877.51563.73437 0 1.20313-.51563.46874-.5156.46874-1.42187z" stroke="#fff" stroke-linecap="round" stroke-linejoin="round" stroke-width="3"/>
  <path d="m511.21176 540.7044q0-1.53124.3125-2.4531.3125-.9375.92191-1.4375.625-.5 1.5625-.5.6875 0 1.20313.28123.53124.28127.875.8125.34374.51563.53124 1.26563.1875.75.1875 2.03124 0 1.51563-.3125 2.4375-.29687.9219-.92187 1.4375-.60937.5-1.5625.5-1.23437 0-1.95313-.8906-.84378-1.0625-.84378-3.4844zm1.07814 0q0 2.1094.5 2.8125.5.70313 1.21877.70313.73437 0 1.21873-.70313.5-.7031.5-2.8125 0-2.125-.5-2.8125-.48436-.7031-1.23436-.7031-.71874 0-1.15624.60936-.5469.78124-.5469 2.90624zm6.4844 4.2344v-1.20314h1.2031v1.20314q0 .65623-.23436 1.0625-.23437.42186-.73437.6406l-.29687-.4531q.3281-.14064.48437-.4375.15623-.28127.1875-.8125zm7.90624-6.4844-1.04687.07813q-.14063-.625-.39063-.90623-.4375-.45314-1.0625-.45314-.5 0-.89064.28124-.48436.375-.78123 1.07813-.28127.6875-.29687 1.96877.375-.57814.92187-.8594.5625-.28124 1.17187-.28124 1.04686 0 1.78126.78124.75.78126.75 2 0 .8125-.3594 1.51563-.34373.6875-.9531 1.0625-.6094.35937-1.375.35937-1.32813 0-2.15626-.96874-.82814-.96876-.82814-3.1875 0-2.5.9219-3.625.79687-.98436 2.15624-.98436 1.01563 0 1.65626.5781.65624.5625.78124 1.5625zm-4.29687 3.70313q0 .54687.21873 1.04687.2344.4844.64064.75.42186.26563.89063.26563.65623 0 1.14063-.53123.48437-.5469.48437-1.46877 0-.89063-.48437-1.40623-.46876-.51564-1.1875-.51564-.71876 0-1.21876.51564-.48437.5156-.48437 1.34373zm5.98437.79687 1.01563-.09374q.125.71874.48437 1.04687.375.3125.9375.3125.48436 0 .84376-.21873.375-.2344.60937-.59377.23437-.375.39063-1 .15624-.64063.15624-1.29687 0-.07813 0-.21876-.3125.5-.85937.82813-.54687.3125-1.1875.3125-1.07813 0-1.8125-.76563-.73437-.78124-.73437-2.04687 0-1.3125.7656-2.10937.78127-.79686 1.9375-.79686.82814 0 1.51564.4531.70313.45313 1.0625 1.2969.35936.8281.35936 2.40623 0 1.64063-.35936 2.625-.34374.96877-1.0625 1.48437-.70314.5-1.64064.5-1.0156 0-1.65623-.54687-.64063-.5625-.76563-1.57813zm4.3125-3.79687q0-.90623-.48437-1.4375-.46877-.53123-1.15627-.53123-.7031 0-1.23436.5781-.51564.5625-.51564 1.4844 0 .8125.5 1.3281.5.51563 1.21877.51563.73437 0 1.20313-.51563.46874-.5156.46874-1.42187z" fill="#34a853"/>
  <path d="m568.5 534.7596q0-1.53127.3125-2.45314.3125-.9375.9219-1.4375.625-.5 1.5625-.5.6875 0 1.2031.28124.53125.28126.875.8125.34375.51563.53125 1.26563.1875.75.1875 2.03127 0 1.5156-.3125 2.4375-.29685.92186-.92185 1.4375-.6094.5-1.5625.5-1.2344 0-1.95315-.89064-.84375-1.0625-.84375-3.48436zm1.0781 0q0 2.10936.5 2.8125.5.7031 1.2188.7031.73435 0 1.2187-.7031.5-.70314.5-2.8125 0-2.125-.5-2.8125-.48435-.70314-1.23435-.70314-.71875 0-1.15625.60937-.5469.78127-.5469 2.90627zm6.4844 4.23436v-1.20313h1.2031v1.20313q0 .65624-.23435 1.0625-.23435.42187-.73435.64064l-.2969-.45314q.3281-.14063.4844-.4375.1562-.28126.1875-.8125zm4.0625-4.65626q-.65625-.25-.9844-.6875-.3125-.4531-.3125-1.0625 0-.9375.6719-1.5781.6875-.64064 1.7969-.64064 1.125 0 1.8125.65624.6875.65626.6875 1.59376 0 .59374-.3125 1.03124-.3125.4375-.95315.6875.79685.25 1.20315.82813.4062.57813.4062 1.375 0 1.09377-.7812 1.84377-.76565.75-2.0469.75-1.2656 0-2.0469-.75-.7812-.75-.7812-1.875 0-.84377.42185-1.40627.4375-.5625 1.21875-.76563zm-.21875-1.79687q0 .60937.39065 1 .4062.39063 1.0312.39063.6094 0 1-.375.39065-.39063.39065-.95313 0-.57813-.40625-.96873-.40625-.40627-1-.40627-.6094 0-1.0156.39063-.39065.39064-.39065.92187zm-.32815 3.96877q0 .4531.20315.875.21875.42186.64065.65623.42185.23437.9062.23437.75 0 1.2344-.48437.5-.48437.5-1.23437 0-.76563-.5-1.26563-.5-.5-1.2656-.5-.75 0-1.2344.5-.4844.48437-.4844 1.21877zm11.4688 1.46873v1.01563h-5.6875q0-.375.125-.73436.2187-.57814.6875-1.14064.48435-.5625 1.3906-1.29686 1.40625-1.15627 1.8906-1.82814.5-.67186.5-1.26563 0-.625-.4531-1.04687-.4531-.4375-1.1719-.4375-.7656 0-1.2187.45314-.45315.4531-.4688 1.2656l-1.0781-.10937q.1094-1.21873.8281-1.84373.7344-.64064 1.9688-.64064 1.23435 0 1.9531.6875.71875.6875.71875 1.70314 0 .5156-.21875 1.0156-.2031.4844-.7031 1.0469-.4844.54686-1.6094 1.5-.9531.79686-1.2344 1.09373-.2656.28127-.4375.5625z" stroke="#fff" stroke-linecap="round" stroke-linejoin="round" stroke-width="3"/>
  <path d="m568.5 534.7596q0-1.53127.3125-2.45314.3125-.9375.9219-1.4375.625-.5 1.5625-.5.6875 0 1.2031.28124.53125.28126.875.8125.34375.51563.53125 1.26563.1875.75.1875 2.03127 0 1.5156-.3125 2.4375-.29685.92186-.92185 1.4375-.6094.5-1.5625.5-1.2344 0-1.95315-.89064-.84375-1.0625-.84375-3.48436zm1.0781 0q0 2.10936.5 2.8125.5.7031 1.2188.7031.73435 0 1.2187-.7031.5-.70314.5-2.8125 0-2.125-.5-2.8125-.48435-.70314-1.23435-.70314-.71875 0-1.15625.60937-.5469.78127-.5469 2.90627zm6.4844 4.23436v-1.20313h1.2031v1.20313q0 .65624-.23435 1.0625-.23435.42187-.73435.64064l-.2969-.45314q.3281-.14063.4844-.4375.1562-.28126.1875-.8125zm4.0625-4.65626q-.65625-.25-.9844-.6875-.3125-.4531-.3125-1.0625 0-.9375.6719-1.5781.6875-.64064 1.7969-.64064 1.125 0 1.8125.65624.6875.65626.6875 1.59376 0 .59374-.3125 1.03124-.3125.4375-.95315.6875.79685.25 1.20315.82813.4062.57813.4062 1.375 0 1.09377-.7812 1.84377-.76565.75-2.0469.75-1.2656 0-2.0469-.75-.7812-.75-.7812-1.875 0-.84377.42185-1.40627.4375-.5625 1.21875-.76563zm-.21875-1.79687q0 .60937.39065 1 .4062.39063 1.0312.39063.6094 0 1-.375.39065-.39063.39065-.95313 0-.57813-.40625-.96873-.40625-.40627-1-.40627-.6094 0-1.0156.39063-.39065.39064-.39065.92187zm-.32815 3.96877q0 .4531.20315.875.21875.42186.64065.65623.42185.23437.9062.23437.75 0 1.2344-.48437.5-.48437.5-1.23437 0-.76563-.5-1.26563-.5-.5-1.2656-.5-.75 0-1.2344.5-.4844.48437-.4844 1.21877zm11.4688 1.46873v1.01563h-5.6875q0-.375.125-.73436.2187-.57814.6875-1.14064.48435-.5625 1.3906-1.29686 1.40625-1.15627 1.8906-1.82814.5-.67186.5-1.26563 0-.625-.4531-1.04687-.4531-.4375-1.1719-.4375-.7656 0-1.2187.45314-.45315.4531-.4688 1.2656l-1.0781-.10937q.1094-1.21873.8281-1.84373.7344-.64064 1.9688-.64064 1.23435 0 1.9531.6875.71875.6875.71875 1.70314 0 .5156-.21875 1.0156-.2031.4844-.7031 1.0469-.4844.54686-1.6094 1.5-.9531.79686-1.2344 1.09373-.2656.28127-.4375.5625z" fill="#34a853"/>
  <path d="m603.2075 510.84277h-1.04686v-6.71875q-.39064.35938-1.01564.73438-.60936.35937-1.0937.53125v-1.01563q.875-.42187 1.5312-1 .6719-.59375.95314-1.15625h.67186zm3.5938 0v-1.20312h1.2031v1.20312q0 .65625-.2344 1.0625-.23436.42188-.73436.64063l-.29684-.4531q.3281-.14065.48434-.43753.15626-.28125.1875-.8125zm2.4375-2.26562 1.0625-.14063q.17184.89063.60934 1.29688.4375.39062 1.0625.39062.75 0 1.26566-.51562.5156-.51563.5156-1.28125 0-.71875-.4844-1.1875-.4687-.48438-1.2031-.48438-.2969 0-.75.125l.125-.9375q.1094.01563.1719.01563.67184 0 1.2031-.34375.5469-.35938.5469-1.09375 0-.57813-.39066-.95313-.39064-.39062-1.01564-.39062-.60936 0-1.0312.39062-.4063.39063-.51566 1.15625l-1.0625-.1875q.1875-1.04687.875-1.625.6875-.59375 1.70316-.59375.7031 0 1.29684.3125.59376.29688.90626.8125.3125.51563.3125 1.10938 0 .54687-.2969 1.01562-.29686.45313-.875.71875.75.17188 1.1719.73438.4219.54687.4219 1.39062 0 1.125-.82816 1.90625-.8125.78125-2.0625.78125-1.125 0-1.875-.67187-.75-.6875-.85934-1.75zm10.375 2.26562v-2.0625h-3.7188v-.96875l3.9219-5.5625h.8594v5.5625h1.1562v.96875h-1.1562v2.0625zm0-3.03125v-3.85937l-2.6875 3.85937z" stroke="#fff" stroke-linecap="round" stroke-linejoin="round" stroke-width="3"/>
  <path d="m603.2075 510.84277h-1.04686v-6.71875q-.39064.35938-1.01564.73438-.60936.35937-1.0937.53125v-1.01563q.875-.42187 1.5312-1 .6719-.59375.95314-1.15625h.67186zm3.5938 0v-1.20312h1.2031v1.20312q0 .65625-.2344 1.0625-.23436.42188-.73436.64063l-.29684-.4531q.3281-.14065.48434-.43753.15626-.28125.1875-.8125zm2.4375-2.26562 1.0625-.14063q.17184.89063.60934 1.29688.4375.39062 1.0625.39062.75 0 1.26566-.51562.5156-.51563.5156-1.28125 0-.71875-.4844-1.1875-.4687-.48438-1.2031-.48438-.2969 0-.75.125l.125-.9375q.1094.01563.1719.01563.67184 0 1.2031-.34375.5469-.35938.5469-1.09375 0-.57813-.39066-.95313-.39064-.39062-1.01564-.39062-.60936 0-1.0312.39062-.4063.39063-.51566 1.15625l-1.0625-.1875q.1875-1.04687.875-1.625.6875-.59375 1.70316-.59375.7031 0 1.29684.3125.59376.29688.90626.8125.3125.51563.3125 1.10938 0 .54687-.2969 1.01562-.29686.45313-.875.71875.75.17188 1.1719.73438.4219.54687.4219 1.39062 0 1.125-.82816 1.90625-.8125.78125-2.0625.78125-1.125 0-1.875-.67187-.75-.6875-.85934-1.75zm10.375 2.26562v-2.0625h-3.7188v-.96875l3.9219-5.5625h.8594v5.5625h1.1562v.96875h-1.1562v2.0625zm0-3.03125v-3.85937l-2.6875 3.85937z" fill="#34a853"/>
  <path d="m633.6085 433.31476 1.0625-.14063q.1719.89063.6094 1.29687.4375.39063 1.0625.39063.75 0 1.2656-.51563.51565-.51562.51565-1.28124 0-.71876-.48435-1.1875-.4688-.48438-1.20315-.48438-.29685 0-.75.125l.125-.9375q.10935.01562.17185.01562.6719 0 1.20315-.34374.54685-.35938.54685-1.09376 0-.57812-.3906-.95312-.3906-.39062-1.0156-.39062-.6094 0-1.0313.39062-.4062.39062-.5156 1.15625l-1.0625-.1875q.1875-1.04687.875-1.625.6875-.59375 1.7031-.59375.70315 0 1.2969.3125.59375.29688.90625.8125.3125.51562.3125 1.10938 0 .54687-.29685 1.01562-.2969.45312-.875.71875.75.17187 1.17185.73437.42185.54688.42185 1.39063 0 1.125-.8281 1.90625-.8125.78125-2.0625.78125-1.125 0-1.875-.67187-.75-.6875-.8594-1.75zm7.5625 2.26562v-1.20312h1.20315v1.20312q0 .65625-.23435 1.0625-.2344.42188-.7344.64062l-.2969-.45312q.32815-.14062.4844-.4375.15625-.28125.1875-.8125zm6.4063 0h-1.0469v-6.71875q-.3906.35937-1.0156.73437-.6094.35938-1.0938.53126v-1.01563q.875-.42187 1.5313-1 .67185-.59375.9531-1.15625h.6719zm8.5-6.48438-1.0469.07813q-.1406-.625-.3906-.90625-.4375-.45312-1.0625-.45312-.5 0-.89065.28124-.48435.375-.78125 1.07813-.28125.6875-.2969 1.96875.375-.57812.9219-.85938.5625-.28124 1.1719-.28124 1.04685 0 1.7812.78124.75.78126.75 2 0 .8125-.35935 1.51563-.34375.6875-.95315 1.0625-.60935.35937-1.375.35937-1.3281 0-2.1562-.96874-.82815-.96876-.82815-3.1875 0-2.5.92185-3.625.7969-.98438 2.1563-.98438 1.0156 0 1.6562.57812.6563.5625.7813 1.5625zm-4.2969 3.70313q0 .54687.21875 1.04687.23435.48438.64065.75.42185.26563.8906.26563.65625 0 1.1406-.53125.4844-.54688.4844-1.46875 0-.89063-.4844-1.40625-.4687-.51562-1.1875-.51562-.7187 0-1.2187.51562-.4844.51562-.4844 1.34375z" stroke="#fff" stroke-linecap="round" stroke-linejoin="round" stroke-width="3"/>
  <path d="m633.6085 433.31476 1.0625-.14063q.1719.89063.6094 1.29687.4375.39063 1.0625.39063.75 0 1.2656-.51563.51565-.51562.51565-1.28124 0-.71876-.48435-1.1875-.4688-.48438-1.20315-.48438-.29685 0-.75.125l.125-.9375q.10935.01562.17185.01562.6719 0 1.20315-.34374.54685-.35938.54685-1.09376 0-.57812-.3906-.95312-.3906-.39062-1.0156-.39062-.6094 0-1.0313.39062-.4062.39062-.5156 1.15625l-1.0625-.1875q.1875-1.04687.875-1.625.6875-.59375 1.7031-.59375.70315 0 1.2969.3125.59375.29688.90625.8125.3125.51562.3125 1.10938 0 .54687-.29685 1.01562-.2969.45312-.875.71875.75.17187 1.17185.73437.42185.54688.42185 1.39063 0 1.125-.8281 1.90625-.8125.78125-2.0625.78125-1.125 0-1.875-.67187-.75-.6875-.8594-1.75zm7.5625 2.26562v-1.20312h1.20315v1.20312q0 .65625-.23435 1.0625-.2344.42188-.7344.64062l-.2969-.45312q.32815-.14062.4844-.4375.15625-.28125.1875-.8125zm6.4063 0h-1.0469v-6.71875q-.3906.35937-1.0156.73437-.6094.35938-1.0938.53126v-1.01563q.875-.42187 1.5313-1 .67185-.59375.9531-1.15625h.6719zm8.5-6.48438-1.0469.07813q-.1406-.625-.3906-.90625-.4375-.45312-1.0625-.45312-.5 0-.89065.28124-.48435.375-.78125 1.07813-.28125.6875-.2969 1.96875.375-.57812.9219-.85938.5625-.28124 1.1719-.28124 1.04685 0 1.7812.78124.75.78126.75 2 0 .8125-.35935 1.51563-.34375.6875-.95315 1.0625-.60935.35937-1.375.35937-1.3281 0-2.1562-.96874-.82815-.96876-.82815-3.1875 0-2.5.92185-3.625.7969-.98438 2.1563-.98438 1.0156 0 1.6562.57812.6563.5625.7813 1.5625zm-4.2969 3.70313q0 .54687.21875 1.04687.23435.48438.64065.75.42185.26563.8906.26563.65625 0 1.1406-.53125.4844-.54688.4844-1.46875 0-.89063-.4844-1.40625-.4687-.51562-1.1875-.51562-.7187 0-1.2187.51562-.4844.51562-.4844 1.34375z" fill="#34a853"/>
  <path d="m697.8057 300.8934-1.04685.07813q-.14065-.625-.39065-.90625-.4375-.45313-1.0625-.45313-.5 0-.8906.28125-.4844.375-.78125 1.07813-.28125.6875-.29685 1.96875.375-.57813.92185-.85938.5625-.28125 1.17185-.28125 1.0469 0 1.7813.78125.75.78125.75 2 0 .8125-.3594 1.51563-.34375.6875-.9531 1.0625-.6094.35937-1.375.35937-1.32815 0-2.1563-.96875-.8281-.96875-.8281-3.1875 0-2.5.9219-3.625.79685-.98437 2.1562-.98437 1.01565 0 1.6563.57812.6562.5625.7812 1.5625zm-4.29685 3.70313q0 .54687.21875 1.04687.2344.48438.6406.75.4219.26563.89065.26563.65625 0 1.14065-.53125.48435-.54688.48435-1.46875 0-.89063-.48435-1.40625-.4688-.51563-1.1875-.51563-.7188 0-1.2188.51563-.48435.51562-.48435 1.34375zm6.39065 2.78125v-1.20313h1.2031v1.20313q0 .65625-.2344 1.0625-.23435.42187-.73435.64062l-.29685-.45312q.3281-.14063.48435-.4375.15625-.28125.1875-.8125zm6.4062 0h-1.04685v-6.71875q-.39065.35937-1.01565.73437-.60935.35938-1.0937.53125v-1.01562q.875-.42188 1.5312-1 .6719-.59375.95315-1.15625h.67185zm7 0h-1.04685v-6.71875q-.39065.35937-1.01565.73437-.60935.35938-1.0937.53125v-1.01562q.875-.42188 1.5312-1 .6719-.59375.95315-1.15625h.67185z" stroke="#fff" stroke-linecap="round" stroke-linejoin="round" stroke-width="3"/>
  <path d="m697.8057 300.8934-1.04685.07813q-.14065-.625-.39065-.90625-.4375-.45313-1.0625-.45313-.5 0-.8906.28125-.4844.375-.78125 1.07813-.28125.6875-.29685 1.96875.375-.57813.92185-.85938.5625-.28125 1.17185-.28125 1.0469 0 1.7813.78125.75.78125.75 2 0 .8125-.3594 1.51563-.34375.6875-.9531 1.0625-.6094.35937-1.375.35937-1.32815 0-2.1563-.96875-.8281-.96875-.8281-3.1875 0-2.5.9219-3.625.79685-.98437 2.1562-.98437 1.01565 0 1.6563.57812.6562.5625.7812 1.5625zm-4.29685 3.70313q0 .54687.21875 1.04687.2344.48438.6406.75.4219.26563.89065.26563.65625 0 1.14065-.53125.48435-.54688.48435-1.46875 0-.89063-.48435-1.40625-.4688-.51563-1.1875-.51563-.7188 0-1.2188.51563-.48435.51562-.48435 1.34375zm6.39065 2.78125v-1.20313h1.2031v1.20313q0 .65625-.2344 1.0625-.23435.42187-.73435.64062l-.29685-.45312q.3281-.14063.48435-.4375.15625-.28125.1875-.8125zm6.4062 0h-1.04685v-6.71875q-.39065.35937-1.01565.73437-.60935.35938-1.0937.53125v-1.01562q.875-.42188 1.5312-1 .6719-.59375.95315-1.15625h.67185zm7 0h-1.04685v-6.71875q-.39065.35937-1.01565.73437-.60935.35938-1.0937.53125v-1.01562q.875-.42188 1.5312-1 .6719-.59375.95315-1.15625h.67185z" fill="#34a853"/>
  <path d="m746.8206 209.27998q-.65623-.25-.98436-.6875-.3125-.45312-.3125-1.0625 0-.9375.67186-1.57812.6875-.64063 1.7969-.64063 1.125 0 1.8125.65625.6875.65625.6875 1.59375 0 .59375-.3125 1.03125-.3125.4375-.95313.6875.79687.25 1.20313.82813.40624.57812.40624 1.375 0 1.09375-.78124 1.84375-.76563.75-2.0469.75-1.2656 0-2.04686-.75-.78124-.75-.78124-1.875 0-.84375.42187-1.40625.4375-.5625 1.21873-.76563zm-.21873-1.79687q0 .60937.39063 1 .40624.39062 1.03124.39062.60936 0 1-.375.39063-.39062.39063-.95312 0-.57813-.40627-.96875-.40623-.40625-1-.40625-.60936 0-1.0156.39062-.39063.39063-.39063.92188zm-.32813 3.96875q0 .45312.20313.875.21873.42187.64063.65625.42187.23437.90624.23437.75 0 1.23436-.48437.5-.48438.5-1.23438 0-.76562-.5-1.26562-.5-.5-1.2656-.5-.75 0-1.2344.5-.48436.48437-.48436 1.21875zm6.48436 2.48437v-1.20312h1.20314v1.20312q0 .65625-.23437 1.0625-.23437.42188-.73437.64063l-.2969-.45313q.32814-.14062.4844-.4375.15624-.28125.1875-.8125zm6.40627 0h-1.04687v-6.71875q-.39063.35938-1.01563.73438-.60937.35937-1.09377.53125v-1.01563q.875-.42187 1.53127-1 .67187-.59375.95313-1.15625h.67187zm8.5-6.48437-1.04687.07812q-.14063-.625-.39063-.90625-.4375-.45312-1.0625-.45312-.5 0-.89063.28125-.48437.375-.78124 1.07812-.28126.6875-.2969 1.96875.375-.57812.9219-.85937.5625-.28125 1.17187-.28125 1.04687 0 1.78123.78125.75.78125.75 2 0 .8125-.35936 1.51562-.34374.6875-.95314 1.0625-.60936.35938-1.375.35938-1.3281 0-2.15623-.96875-.82813-.96875-.82813-3.1875 0-2.5.92186-3.625.7969-.98438 2.15627-.98438 1.01563 0 1.65623.57813.65627.5625.78127 1.5625zm-4.29687 3.70312q0 .54688.21874 1.04688.23436.48437.64063.75.42187.26562.89063.26562.65624 0 1.1406-.53125.4844-.54687.4844-1.46875 0-.89062-.4844-1.40625-.46873-.51562-1.1875-.51562-.71873 0-1.21873.51562-.48437.51563-.48437 1.34375z" stroke="#fff" stroke-linecap="round" stroke-linejoin="round" stroke-width="3"/>
  <path d="m746.8206 209.27998q-.65623-.25-.98436-.6875-.3125-.45312-.3125-1.0625 0-.9375.67186-1.57812.6875-.64063 1.7969-.64063 1.125 0 1.8125.65625.6875.65625.6875 1.59375 0 .59375-.3125 1.03125-.3125.4375-.95313.6875.79687.25 1.20313.82813.40624.57812.40624 1.375 0 1.09375-.78124 1.84375-.76563.75-2.0469.75-1.2656 0-2.04686-.75-.78124-.75-.78124-1.875 0-.84375.42187-1.40625.4375-.5625 1.21873-.76563zm-.21873-1.79687q0 .60937.39063 1 .40624.39062 1.03124.39062.60936 0 1-.375.39063-.39062.39063-.95312 0-.57813-.40627-.96875-.40623-.40625-1-.40625-.60936 0-1.0156.39062-.39063.39063-.39063.92188zm-.32813 3.96875q0 .45312.20313.875.21873.42187.64063.65625.42187.23437.90624.23437.75 0 1.23436-.48437.5-.48438.5-1.23438 0-.76562-.5-1.26562-.5-.5-1.2656-.5-.75 0-1.2344.5-.48436.48437-.48436 1.21875zm6.48436 2.48437v-1.20312h1.20314v1.20312q0 .65625-.23437 1.0625-.23437.42188-.73437.64063l-.2969-.45313q.32814-.14062.4844-.4375.15624-.28125.1875-.8125zm6.40627 0h-1.04687v-6.71875q-.39063.35938-1.01563.73438-.60937.35937-1.09377.53125v-1.01563q.875-.42187 1.53127-1 .67187-.59375.95313-1.15625h.67187zm8.5-6.48437-1.04687.07812q-.14063-.625-.39063-.90625-.4375-.45312-1.0625-.45312-.5 0-.89063.28125-.48437.375-.78124 1.07812-.28126.6875-.2969 1.96875.375-.57812.9219-.85937.5625-.28125 1.17187-.28125 1.04687 0 1.78123.78125.75.78125.75 2 0 .8125-.35936 1.51562-.34374.6875-.95314 1.0625-.60936.35938-1.375.35938-1.3281 0-2.15623-.96875-.82813-.96875-.82813-3.1875 0-2.5.92186-3.625.7969-.98438 2.15627-.98438 1.01563 0 1.65623.57813.65627.5625.78127 1.5625zm-4.29687 3.70312q0 .54688.21874 1.04688.23436.48437.64063.75.42187.26562.89063.26562.65624 0 1.1406-.53125.4844-.54687.4844-1.46875 0-.89062-.4844-1.40625-.46873-.51562-1.1875-.51562-.71873 0-1.21873.51562-.48437.51563-.48437 1.34375z" fill="#34a853"/>
  <path d="m855.4099 72.787636h-1.04686v-6.71875q-.39064.359374-1.01564.734374-.60936.359376-1.09374.53125v-1.015624q.875-.421876 1.53124-1 .6719-.59375.95314-1.15625h.67186zm3.03126-4.234376q0-1.53125.3125-2.453124.3125-.9375.92188-1.4375.625-.5 1.5625-.5.6875 0 1.20312.28125.53124.28125.875.8125.34374.515624.53124 1.265624.1875.75.1875 2.03125 0 1.515626-.3125 2.4375-.29686.921876-.92186 1.4375-.60938.5-1.5625.5-1.23438 0-1.95314-.890624-.84374-1.0625-.84374-3.484376zm1.07814 0q0 2.109376.5 2.8125.5.703126 1.21874.703126.73436 0 1.21876-.703126.5-.703124.5-2.8125 0-2.125-.5-2.8125-.4844-.703124-1.2344-.703124-.71874 0-1.15624.609374-.54686.78125-.54686 2.90625zm6.48436 4.234376v-1.203126h1.20314v1.203126q0 .65625-.2344 1.0625-.23436.421874-.73436.640624l-.29688-.453124q.32814-.140626.48438-.4375.15626-.28125.1875-.8125zm2.59374-1.984376 1.01564-.09375q.125.71875.48436 1.046876.375.3125.9375.3125.4844 0 .84376-.21875.375-.234376.60938-.59375.23436-.375.39062-1 .15624-.640626.15624-1.296876 0-.078124 0-.21875-.3125.5-.85936.828126-.54688.3125-1.1875.3125-1.07814 0-1.8125-.765626-.73438-.78125-.73438-2.046874 0-1.3125.76564-2.109376.78124-.796874 1.9375-.796874.8281 0 1.5156.453124.70314.453126 1.0625 1.296876.3594.828124.3594 2.40625 0 1.640624-.3594 2.625-.34374.96875-1.0625 1.484374-.7031.5-1.6406.5-1.01564 0-1.65626-.546874-.64064-.5625-.76564-1.578126zm4.3125-3.796874q0-.90625-.48436-1.4375-.46874-.53125-1.15624-.53125-.70314 0-1.2344.578124-.5156.5625-.5156 1.484376 0 .8125.5 1.328124.5.515626 1.21874.515626.73436 0 1.20312-.515626.46874-.515624.46874-1.421874zm8.07814 4.765624v1.015626h-5.6875q0-.375.125-.734376.21876-.578124.6875-1.140624.48436-.5625 1.39062-1.296876 1.40624-1.15625 1.89064-1.828124.5-.671876.5-1.265626 0-.625-.45314-1.046874-.45312-.4375-1.17186-.4375-.76564 0-1.21876.453124-.45314.453126-.46874 1.265626l-1.07814-.109376q.10938-1.21875.82814-1.84375.73436-.640624 1.96874-.640624 1.23436 0 1.95312.6875.71874.6875.71874 1.703124 0 .515626-.21874 1.015626-.20312.484374-.70312 1.046874-.48438.546876-1.60938 1.5-.95312.796876-1.23436 1.09375-.26564.28125-.4375.5625z" stroke="#fff" stroke-linecap="round" stroke-linejoin="round" stroke-width="3"/>
  <path d="m855.4099 72.787636h-1.04686v-6.71875q-.39064.359374-1.01564.734374-.60936.359376-1.09374.53125v-1.015624q.875-.421876 1.53124-1 .6719-.59375.95314-1.15625h.67186zm3.03126-4.234376q0-1.53125.3125-2.453124.3125-.9375.92188-1.4375.625-.5 1.5625-.5.6875 0 1.20312.28125.53124.28125.875.8125.34374.515624.53124 1.265624.1875.75.1875 2.03125 0 1.515626-.3125 2.4375-.29686.921876-.92186 1.4375-.60938.5-1.5625.5-1.23438 0-1.95314-.890624-.84374-1.0625-.84374-3.484376zm1.07814 0q0 2.109376.5 2.8125.5.703126 1.21874.703126.73436 0 1.21876-.703126.5-.703124.5-2.8125 0-2.125-.5-2.8125-.4844-.703124-1.2344-.703124-.71874 0-1.15624.609374-.54686.78125-.54686 2.90625zm6.48436 4.234376v-1.203126h1.20314v1.203126q0 .65625-.2344 1.0625-.23436.421874-.73436.640624l-.29688-.453124q.32814-.140626.48438-.4375.15626-.28125.1875-.8125zm2.59374-1.984376 1.01564-.09375q.125.71875.48436 1.046876.375.3125.9375.3125.4844 0 .84376-.21875.375-.234376.60938-.59375.23436-.375.39062-1 .15624-.640626.15624-1.296876 0-.078124 0-.21875-.3125.5-.85936.828126-.54688.3125-1.1875.3125-1.07814 0-1.8125-.765626-.73438-.78125-.73438-2.046874 0-1.3125.76564-2.109376.78124-.796874 1.9375-.796874.8281 0 1.5156.453124.70314.453126 1.0625 1.296876.3594.828124.3594 2.40625 0 1.640624-.3594 2.625-.34374.96875-1.0625 1.484374-.7031.5-1.6406.5-1.01564 0-1.65626-.546874-.64064-.5625-.76564-1.578126zm4.3125-3.796874q0-.90625-.48436-1.4375-.46874-.53125-1.15624-.53125-.70314 0-1.2344.578124-.5156.5625-.5156 1.484376 0 .8125.5 1.328124.5.515626 1.21874.515626.73436 0 1.20312-.515626.46874-.515624.46874-1.421874zm8.07814 4.765624v1.015626h-5.6875q0-.375.125-.734376.21876-.578124.6875-1.140624.48436-.5625 1.39062-1.296876 1.40624-1.15625 1.89064-1.828124.5-.671876.5-1.265626 0-.625-.45314-1.046874-.45312-.4375-1.17186-.4375-.76564 0-1.21876.453124-.45314.453126-.46874 1.265626l-1.07814-.109376q.10938-1.21875.82814-1.84375.73436-.640624 1.96874-.640624 1.23436 0 1.95312.6875.71874.6875.71874 1.703124 0 .515626-.21874 1.015626-.20312.484374-.70312 1.046874-.48438.546876-1.60938 1.5-.95312.796876-1.23436 1.09375-.26564.28125-.4375.5625z" fill="#34a853"/>
  <path d="m902.61975 359.63974 1.10935-.09374q.125.8125.5625 1.21874.45315.40626 1.0938.40626.75 0 1.2812-.57814.5313-.57812.5313-1.51562 0-.90624-.51565-1.42188-.5-.53126-1.32815-.53126-.5 0-.92185.2344-.40625.23436-.64065.59374l-.98435-.125.82815-4.40624h4.2812v1h-3.4375l-.4531 2.3125q.7656-.5469 1.6094-.5469 1.125 0 1.8906.78126.78125.78124.78125 2.01564 0 1.15624-.67185 2.0156-.82815 1.03126-2.25 1.03126-1.1719 0-1.9219-.65626-.7344-.65624-.84375-1.73436zm7.5625 2.25v-1.20314h1.20315v1.20314q0 .65626-.2344 1.0625-.2344.42186-.7344.64062l-.29685-.45312q.32815-.14064.48435-.4375.1563-.28124.1875-.8125zm2.4375-2.25 1.10935-.09374q.125.8125.5625 1.21874.45315.40626 1.0938.40626.75 0 1.2812-.57814.5313-.57812.5313-1.51562 0-.90624-.51565-1.42188-.5-.53126-1.32815-.53126-.5 0-.92185.2344-.40625.23436-.64065.59374l-.98435-.125.82815-4.40624h4.2812v1h-3.4375l-.4531 2.3125q.7656-.5469 1.6094-.5469 1.125 0 1.8906.78126.78125.78124.78125 2.01564 0 1.15624-.67185 2.0156-.82815 1.03126-2.25 1.03126-1.1719 0-1.9219-.65626-.7344-.65624-.84375-1.73436zm10.96875 2.25h-1.0469v-6.71874q-.3906.35936-1.0156.73436-.6094.35938-1.09375.53124v-1.0156q.875-.4219 1.53125-1 .6719-.59376.9531-1.15626h.6719z" stroke="#fff" stroke-linecap="round" stroke-linejoin="round" stroke-width="3"/>
  <path d="m902.61975 359.63974 1.10935-.09374q.125.8125.5625 1.21874.45315.40626 1.0938.40626.75 0 1.2812-.57814.5313-.57812.5313-1.51562 0-.90624-.51565-1.42188-.5-.53126-1.32815-.53126-.5 0-.92185.2344-.40625.23436-.64065.59374l-.98435-.125.82815-4.40624h4.2812v1h-3.4375l-.4531 2.3125q.7656-.5469 1.6094-.5469 1.125 0 1.8906.78126.78125.78124.78125 2.01564 0 1.15624-.67185 2.0156-.82815 1.03126-2.25 1.03126-1.1719 0-1.9219-.65626-.7344-.65624-.84375-1.73436zm7.5625 2.25v-1.20314h1.20315v1.20314q0 .65626-.2344 1.0625-.2344.42186-.7344.64062l-.29685-.45312q.32815-.14064.48435-.4375.1563-.28124.1875-.8125zm2.4375-2.25 1.10935-.09374q.125.8125.5625 1.21874.45315.40626 1.0938.40626.75 0 1.2812-.57814.5313-.57812.5313-1.51562 0-.90624-.51565-1.42188-.5-.53126-1.32815-.53126-.5 0-.92185.2344-.40625.23436-.64065.59374l-.98435-.125.82815-4.40624h4.2812v1h-3.4375l-.4531 2.3125q.7656-.5469 1.6094-.5469 1.125 0 1.8906.78126.78125.78124.78125 2.01564 0 1.15624-.67185 2.0156-.82815 1.03126-2.25 1.03126-1.1719 0-1.9219-.65626-.7344-.65624-.84375-1.73436zm10.96875 2.25h-1.0469v-6.71874q-.3906.35936-1.0156.73436-.6094.35938-1.09375.53124v-1.0156q.875-.4219 1.53125-1 .6719-.59376.9531-1.15626h.6719z" fill="#34a853"/>
  <path d="m922.13354 59.924442h-1.04684v-6.71875q-.39066.359375-1.01566.734375-.60934.359375-1.09374.53125v-1.015625q.875-.421875 1.53124-1 .67186-.59375.95316-1.15625h.67184zm7 0h-1.04684v-6.71875q-.39066.359375-1.01566.734375-.60934.359375-1.09374.53125v-1.015625q.875-.421875 1.53124-1 .67186-.59375.95316-1.15625h.67184zm3.59376 0v-1.203125h1.2031v1.203125q0 .65625-.23436 1.0625-.23434.421875-.73434.640625l-.2969-.453125q.3281-.140625.4844-.4375.1562-.28125.1875-.8125zm7.90624-6.484375-1.04684.078125q-.14066-.625-.39066-.90625-.4375-.453125-1.0625-.453125-.5 0-.89064.28125-.48436.375-.7812 1.078125-.2813.6875-.2969 1.96875.375-.578125.9219-.859375.5625-.28125 1.17184-.28125 1.04686 0 1.78126.78125.75.78125.75 2 0 .8125-.3594 1.515625-.3437.6875-.9531 1.0625-.6094.359375-1.375.359375-1.3281 0-2.15626-.96875-.82814-.96875-.82814-3.1875 0-2.5.9219-3.625.7969-.984375 2.15624-.984375 1.01566 0 1.65626.578125.65624.5625.78124 1.5625zm-4.29684 3.703125q0 .546875.2187 1.046875.2344.484375.64064.75.42186.265625.89066.265625.6562 0 1.1406-.53125.4844-.546875.4844-1.46875 0-.890625-.4844-1.40625-.46876-.515625-1.1875-.515625-.71876 0-1.21876.515625-.48434.515625-.48434 1.34375zm11.29684-3.703125-1.04684.078125q-.14066-.625-.39066-.90625-.4375-.453125-1.0625-.453125-.5 0-.89064.28125-.48436.375-.7812 1.078125-.2813.6875-.2969 1.96875.375-.578125.9219-.859375.5625-.28125 1.17184-.28125 1.04686 0 1.78126.78125.75.78125.75 2 0 .8125-.3594 1.515625-.3437.6875-.9531 1.0625-.6094.359375-1.375.359375-1.3281 0-2.15626-.96875-.82814-.96875-.82814-3.1875 0-2.5.9219-3.625.7969-.984375 2.15624-.984375 1.01566 0 1.65626.578125.65624.5625.78124 1.5625zm-4.29684 3.703125q0 .546875.2187 1.046875.2344.484375.64064.75.42186.265625.89066.265625.6562 0 1.1406-.53125.4844-.546875.4844-1.46875 0-.890625-.4844-1.40625-.46876-.515625-1.1875-.515625-.71876 0-1.21876.515625-.48434.515625-.48434 1.34375z" stroke="#fff" stroke-linecap="round" stroke-linejoin="round" stroke-width="3"/>
  <path d="m922.13354 59.924442h-1.04684v-6.71875q-.39066.359375-1.01566.734375-.60934.359375-1.09374.53125v-1.015625q.875-.421875 1.53124-1 .67186-.59375.95316-1.15625h.67184zm7 0h-1.04684v-6.71875q-.39066.359375-1.01566.734375-.60934.359375-1.09374.53125v-1.015625q.875-.421875 1.53124-1 .67186-.59375.95316-1.15625h.67184zm3.59376 0v-1.203125h1.2031v1.203125q0 .65625-.23436 1.0625-.23434.421875-.73434.640625l-.2969-.453125q.3281-.140625.4844-.4375.1562-.28125.1875-.8125zm7.90624-6.484375-1.04684.078125q-.14066-.625-.39066-.90625-.4375-.453125-1.0625-.453125-.5 0-.89064.28125-.48436.375-.7812 1.078125-.2813.6875-.2969 1.96875.375-.578125.9219-.859375.5625-.28125 1.17184-.28125 1.04686 0 1.78126.78125.75.78125.75 2 0 .8125-.3594 1.515625-.3437.6875-.9531 1.0625-.6094.359375-1.375.359375-1.3281 0-2.15626-.96875-.82814-.96875-.82814-3.1875 0-2.5.9219-3.625.7969-.984375 2.15624-.984375 1.01566 0 1.65626.578125.65624.5625.78124 1.5625zm-4.29684 3.703125q0 .546875.2187 1.046875.2344.484375.64064.75.42186.265625.89066.265625.6562 0 1.1406-.53125.4844-.546875.4844-1.46875 0-.890625-.4844-1.40625-.46876-.515625-1.1875-.515625-.71876 0-1.21876.515625-.48434.515625-.48434 1.34375zm11.29684-3.703125-1.04684.078125q-.14066-.625-.39066-.90625-.4375-.453125-1.0625-.453125-.5 0-.89064.28125-.48436.375-.7812 1.078125-.2813.6875-.2969 1.96875.375-.578125.9219-.859375.5625-.28125 1.17184-.28125 1.04686 0 1.78126.78125.75.78125.75 2 0 .8125-.3594 1.515625-.3437.6875-.9531 1.0625-.6094.359375-1.375.359375-1.3281 0-2.15626-.96875-.82814-.96875-.82814-3.1875 0-2.5.9219-3.625.7969-.984375 2.15624-.984375 1.01566 0 1.65626.578125.65624.5625.78124 1.5625zm-4.29684 3.703125q0 .546875.2187 1.046875.2344.484375.64064.75.42186.265625.89066.265625.6562 0 1.1406-.53125.4844-.546875.4844-1.46875 0-.890625-.4844-1.40625-.46876-.515625-1.1875-.515625-.71876 0-1.21876.515625-.48434.515625-.48434 1.34375z" fill="#34a853"/>
  <path d="m1015.29425 69.948074h-1.04685v-6.71875q-.39065.359376-1.01565.734376-.60935.359374-1.09375.53125v-1.015626q.875-.421874 1.53125-1 .67185-.59375.95315-1.15625h.67185zm7 0h-1.04685v-6.71875q-.39065.359376-1.01565.734376-.60935.359374-1.09375.53125v-1.015626q.875-.421874 1.53125-1 .67185-.59375.95315-1.15625h.67185zm3.59375 0v-1.203124h1.2031v1.203124q0 .65625-.2344 1.0625-.2344.421876-.7344.640626l-.2969-.453126q.3282-.140624.4844-.4375.1563-.28125.1875-.8125zm2.5937-1.984374 1.0156-.09375q.125.71875.4844 1.046874.375.3125.9375.3125.4844 0 .8438-.21875.375-.234374.6093-.59375.2344-.375.3907-1 .1562-.640624.1562-1.296874 0-.078126 0-.21875-.3125.5-.8594.828124-.5468.3125-1.1875.3125-1.0781 0-1.8125-.765624-.7344-.78125-.7344-2.046876 0-1.3125.7657-2.109374.7812-.796876 1.9375-.796876.8281 0 1.5156.453126.7031.453124 1.0625 1.296874.3594.828126.3594 2.40625 0 1.640626-.3594 2.625-.3437.96875-1.0625 1.484376-.7031.5-1.6406.5-1.0156 0-1.6563-.546876-.6406-.5625-.7656-1.578124zm4.3125-3.796876q0-.90625-.4844-1.4375-.4687-.53125-1.1562-.53125-.7032 0-1.2344.578126-.5156.5625-.5156 1.484374 0 .8125.5 1.328126.5.515624 1.2187.515624.7344 0 1.2031-.515624.4688-.515626.4688-1.421876zm2.5312 1.546876q0-1.53125.3126-2.453126.3124-.9375.9218-1.4375.625-.5 1.5625-.5.6875 0 1.2031.28125.5313.28125.875.8125.3438.515626.5313 1.265626.1875.75.1875 2.03125 0 1.515624-.3125 2.4375-.2969.921874-.9219 1.4375-.6094.5-1.5625.5-1.2343 0-1.9531-.890626-.8438-1.0625-.8438-3.484374zm1.0782 0q0 2.109374.5 2.8125.5.703124 1.2187.703124.7344 0 1.2188-.703124.5-.703126.5-2.8125 0-2.125-.5-2.8125-.4844-.703126-1.2344-.703126-.7187 0-1.1563.609376-.5468.78125-.5468 2.90625z" stroke="#fff" stroke-linecap="round" stroke-linejoin="round" stroke-width="3"/>
  <path d="m1015.29425 69.948074h-1.04685v-6.71875q-.39065.359376-1.01565.734376-.60935.359374-1.09375.53125v-1.015626q.875-.421874 1.53125-1 .67185-.59375.95315-1.15625h.67185zm7 0h-1.04685v-6.71875q-.39065.359376-1.01565.734376-.60935.359374-1.09375.53125v-1.015626q.875-.421874 1.53125-1 .67185-.59375.95315-1.15625h.67185zm3.59375 0v-1.203124h1.2031v1.203124q0 .65625-.2344 1.0625-.2344.421876-.7344.640626l-.2969-.453126q.3282-.140624.4844-.4375.1563-.28125.1875-.8125zm2.5937-1.984374 1.0156-.09375q.125.71875.4844 1.046874.375.3125.9375.3125.4844 0 .8438-.21875.375-.234374.6093-.59375.2344-.375.3907-1 .1562-.640624.1562-1.296874 0-.078126 0-.21875-.3125.5-.8594.828124-.5468.3125-1.1875.3125-1.0781 0-1.8125-.765624-.7344-.78125-.7344-2.046876 0-1.3125.7657-2.109374.7812-.796876 1.9375-.796876.8281 0 1.5156.453126.7031.453124 1.0625 1.296874.3594.828126.3594 2.40625 0 1.640626-.3594 2.625-.3437.96875-1.0625 1.484376-.7031.5-1.6406.5-1.0156 0-1.6563-.546876-.6406-.5625-.7656-1.578124zm4.3125-3.796876q0-.90625-.4844-1.4375-.4687-.53125-1.1562-.53125-.7032 0-1.2344.578126-.5156.5625-.5156 1.484374 0 .8125.5 1.328126.5.515624 1.2187.515624.7344 0 1.2031-.515624.4688-.515626.4688-1.421876zm2.5312 1.546876q0-1.53125.3126-2.453126.3124-.9375.9218-1.4375.625-.5 1.5625-.5.6875 0 1.2031.28125.5313.28125.875.8125.3438.515626.5313 1.265626.1875.75.1875 2.03125 0 1.515624-.3125 2.4375-.2969.921874-.9219 1.4375-.6094.5-1.5625.5-1.2343 0-1.9531-.890626-.8438-1.0625-.8438-3.484374zm1.0782 0q0 2.109374.5 2.8125.5.703124 1.2187.703124.7344 0 1.2188-.703124.5-.703126.5-2.8125 0-2.125-.5-2.8125-.4844-.703126-1.2344-.703126-.7187 0-1.1563.609376-.5468.78125-.5468 2.90625z" fill="#34a853"/>
  <g fill="#000">
    <path d="m544.4219 643.95v-8.59374h3.25q.8437 0 1.29685.07814.64065.10936 1.0625.40624.4375.29686.6875.82812.26565.53124.26565 1.17188 0 1.09376-.70315 1.85936-.6875.75-2.51565.75h-2.2031v3.5zm1.1406-4.5h2.21875q1.10935 0 1.5625-.40624.46875-.42186.46875-1.17186 0-.53126-.28125-.90626-.26565-.39064-.70315-.51564-.29685-.0781-1.0625-.0781h-2.2031zm6.71875 4.5v-6.21874h.95315v.9375q.35935-.65626.6562-.85936.3125-.21876.6875-.21876.5313 0 1.07815.32812l-.35935.98438q-.39065-.23438-.76565-.23438-.35935 0-.64065.21874-.2656.20314-.375.57814-.1875.5625-.1875 1.21876v3.2656zm3.625-3.10936q0-1.73438.95315-2.5625.79685-.6875 1.9531-.6875 1.28125 0 2.09375.84376.82815.8281.82815 2.3125 0 1.2031-.3594 1.8906-.3594.6875-1.0625 1.07814-.6875.375-1.5.375-1.2969 0-2.1094-.82814-.79685-.84374-.79685-2.42186zm1.07815 0q0 1.1875.5156 1.78126.53125.59374 1.3125.59374.7969 0 1.3125-.59374.5156-.59376.5156-1.8125 0-1.15626-.5312-1.75-.51565-.59376-1.2969-.59376-.78125 0-1.3125.59376-.5156.5781-.5156 1.78124zm7.2812 3.10936h-.98435v-8.59374h1.0625v3.0625q.67185-.82812 1.70315-.82812.5781 0 1.0781.23436.5156.21876.84375.64064.34375.42186.53125 1.01562.1875.59374.1875 1.26564 0 1.59374-.7969 2.46874-.79685.875-1.8906.875-1.1094 0-1.7344-.92188zm-.0156-3.15624q0 1.10938.3125 1.60938.5.8125 1.34375.8125.6875 0 1.1875-.59374.51565-.59376.51565-1.7969 0-1.21874-.4844-1.79686-.4844-.57814-1.1719-.57814-.6875 0-1.2031.6094-.5.59374-.5 1.73436zm6.0156 3.15624v-8.59374h1.0625v8.59374zm7.2813-2 1.0937.125q-.25.95314-.9531 1.4844-.7031.53124-1.78125.53124-1.35935 0-2.17185-.84374-.7969-.84376-.7969-2.3594 0-1.5625.8125-2.42186.8125-.875 2.09375-.875 1.25 0 2.03125.84376.7969.84374.7969 2.3906 0 .09376 0 .28126h-4.64065q.0625 1.03124.57815 1.57814.5156.53124 1.29685.53124.57815 0 .98435-.29688.4219-.3125.6563-.96876zm-3.45315-1.7031h3.46875q-.0625-.7969-.3906-1.1875-.51565-.6094-1.3125-.6094-.7344 0-1.2344.4844-.4844.48436-.53125 1.3125zm6.20315 3.7031v-6.21874h.9375v.875q.29685-.46876.7812-.73436.4844-.28126 1.1094-.28126.6875 0 1.125.28126.4531.28124.625.79686.75-1.07812 1.9219-1.07812.9375 0 1.42185.51562.5.5.5 1.57814v4.2656h-1.04685v-3.92186q0-.625-.1094-.90624-.09375-.28126-.3594-.45314-.2656-.17186-.6406-.17186-.65625 0-1.09375.4375-.42185.4375-.42185 1.40624v3.60936h-1.0625v-4.04686q0-.70314-.26565-1.04688-.25-.35936-.82815-.35936-.4531 0-.8281.23436-.375.23438-.5469.6875-.17185.45314-.17185 1.29688v3.23436zm12.75-2.7656 1.0625-.09376q.0781.65626.35935 1.0625.28125.40626.85935.67186.5938.25 1.32815.25.64065 0 1.14065-.1875.5-.2031.73435-.53124.25-.34376.25-.73436 0-.40626-.23435-.70314-.2344-.3125-.76565-.51562-.35935-.14064-1.54685-.42188-1.1719-.28126-1.64065-.53126-.625-.3281-.92185-.79686-.2969-.48438-.2969-1.07814 0-.6406.3594-1.2031.375-.57814 1.0781-.8594.71875-.29686 1.5781-.29686.95315 0 1.6875.3125.7344.29686 1.125.90626.39065.59374.4219 1.34374l-1.09375.07812q-.09375-.8125-.60935-1.21876-.5-.42186-1.4844-.42186-1.03125 0-1.5.375-.46875.375-.46875.90626 0 .46874.32815.7656.3281.2969 1.7031.6094 1.3906.3125 1.90625.54686.75.35938 1.10935.89064.3594.5156.3594 1.21874 0 .6875-.3906 1.29686-.39065.59376-1.125.9375-.7344.32814-1.6563.32814-1.17185 0-1.9687-.32814-.7813-.34374-1.2344-1.03124-.4375-.6875-.4531-1.54686zm8.25-4.6094v-1.21874h1.0625v1.21874zm0 7.375v-6.21874h1.0625v6.21874zm2.4375 0v-.85936l3.9687-4.54688q-.6875.03124-1.2031.03124h-2.53125v-.84374h5.09375v.6875l-3.375 3.95314-.65625.71874q.71875-.04688 1.32815-.04688h2.8906v.90624zm10.8125-2 1.0937.125q-.25.95314-.9531 1.4844-.7031.53124-1.78125.53124-1.35935 0-2.17185-.84374-.7969-.84376-.7969-2.3594 0-1.5625.8125-2.42186.8125-.875 2.09375-.875 1.25 0 2.03125.84376.7969.84374.7969 2.3906 0 .09376 0 .28126h-4.64065q.0625 1.03124.57815 1.57814.5156.53124 1.29685.53124.57815 0 .98435-.29688.4219-.3125.6563-.96876zm-3.45315-1.7031h3.46875q-.0625-.7969-.3906-1.1875-.51565-.6094-1.3125-.6094-.7344 0-1.2344.4844-.4844.48436-.53125 1.3125z"/>
    <path d="m42.284386 385.45312-.09375-1.0625q.65625-.07812 1.0625-.35937.40625-.28125.671874-.85937.25-.59376.25-1.32813 0-.64063-.1875-1.14063-.203124-.5-.53125-.73437-.34375-.25-.734374-.25-.40625 0-.703126.23437-.3125.23438-.515624.76563-.140626.35937-.421876 1.54687-.28125 1.17188-.53125 1.64063-.328124.625-.796874.92187-.484376.29688-1.078126.29688-.640624 0-1.203124-.35938-.578126-.375-.859376-1.07812-.296874-.71875-.296874-1.57812 0-.95313.3125-1.6875.296874-.73438.90625-1.125.59375-.39063 1.34375-.42188l.078124 1.09375q-.8125.09375-1.21875.60937-.421874.5-.421874 1.48438 0 1.03125.375 1.5.375.46875.90625.46875.46875 0 .765624-.32813.296876-.32812.609376-1.70312.3125-1.39062.546874-1.90625.359376-.75.890626-1.10937.515624-.35938 1.21875-.35938.6875 0 1.296874.39062.59375.39063.9375 1.125.328126.73438.328126 1.65626 0 1.17187-.328126 1.96874-.34375.78126-1.03125 1.23438-.6875.4375-1.546874.45312zm5.15625-8.25h-8.609376v-.95312h.796876q-.46875-.34375-.703126-.76562-.234374-.4375-.234374-1.04688 0-.79688.40625-1.40625.40625-.60937 1.15625-.90625.75-.3125 1.640624-.3125.953126 0 1.71875.34375.765626.32813 1.171876.98437.40625.65626.40625 1.375 0 .53126-.21875.95313-.234376.42187-.5625.6875h3.03125zm-5.46875-.95312q1.203124 0 1.78125-.48438.5625-.48437.5625-1.17187 0-.70313-.59375-1.20313-.59375-.5-1.84375-.5-1.1875 0-1.765626.48438-.59375.48438-.59375 1.17188 0 .67187.625 1.1875.625.51562 1.828126.51562zm1.078124-10.29688.125-1.09374q.953126.25 1.484376.95312.53125.70312.53125 1.78125 0 1.35937-.84375 2.17187-.84375.79688-2.359376.79688-1.5625 0-2.421874-.8125-.875-.8125-.875-2.09375 0-1.25.84375-2.03125.84375-.79688 2.390624-.79688.09375 0 .28125 0v4.64063q1.03125-.0625 1.578126-.57813.53125-.51562.53125-1.29687 0-.57813-.296876-.98437-.3125-.42188-.96875-.65626zm-1.703124 3.45313v-3.46875q-.796876.0625-1.1875.39062-.609376.51563-.609376 1.3125 0 .73438.484376 1.23438.484374.48438 1.3125.53125zm1.703124-10.45313.125-1.09374q.953126.25 1.484376.95312.53125.70312.53125 1.78125 0 1.35937-.84375 2.17187-.84375.79688-2.359376.79688-1.5625 0-2.421874-.8125-.875-.8125-.875-2.09375 0-1.25.84375-2.03125.84375-.79688 2.390624-.79688.09375 0 .28125 0v4.64063q1.03125-.0625 1.578126-.57813.53125-.51562.53125-1.29687 0-.57813-.296876-.98437-.3125-.42188-.96875-.65626zm-1.703124 3.45313v-3.46875q-.796876.0625-1.1875.39062-.609376.51563-.609376 1.3125 0 .73438.484376 1.23438.484374.48438 1.3125.53125zm3.703124-10.23437h-.78125q.921876.59374.921876 1.73437 0 .75-.40625 1.375-.421876.625-1.15625.96875-.734376.34375-1.6875.34375-.921876 0-1.6875-.3125-.765626-.3125-1.15625-.9375-.40625-.625-.40625-1.39063 0-.5625.234374-1 .234376-.4375.609376-.71874h-3.078126v-1.04688h8.59375zm-3.109374 3.32812q1.203124 0 1.796874-.5.578126-.5.578126-1.1875 0-.6875-.5625-1.17188-.5625-.48437-1.71875-.48437-1.28125 0-1.875.5-.59375.48437-.59375 1.20313 0 .70312.578124 1.17187.5625.46875 1.796876.46875zm3.109374-10.375h-.921874q1.0625.73438 1.0625 1.98438 0 .54687-.203126 1.03124-.21875.46876-.53125.70313-.328124.23437-.796874.32813-.296876.0625-.984376.0625h-3.84375v-1.0625h3.453126q.8125 0 1.109374-.0625.40625-.09376.65625-.40626.234376-.32812.234376-.8125 0-.46874-.234376-.875-.25-.42187-.671874-.59374-.421876-.1875-1.21875-.1875h-3.328126v-1.04688h6.21875zm2.390626-2.92188h-8.609376v-.95312h.796876q-.46875-.34375-.703126-.76562-.234374-.4375-.234374-1.04688 0-.79688.40625-1.40625.40625-.60937 1.15625-.90625.75-.3125 1.640624-.3125.953126 0 1.71875.34375.765626.32813 1.171876.98437.40625.65626.40625 1.375 0 .53126-.21875.95313-.234376.42187-.5625.6875h3.03125zm-5.46875-.95312q1.203124 0 1.78125-.48438.5625-.48437.5625-1.17187 0-.70313-.59375-1.20313-.59375-.5-1.84375-.5-1.1875 0-1.765626.48438-.59375.48438-.59375 1.17188 0 .67187.625 1.1875.625.51562 1.828126.51562zm5.609374-11.0625q-1.109374.875-2.578124 1.48438-1.484376.59374-3.0625.59374-1.390626 0-2.671876-.4375-1.484374-.53124-2.953124-1.64062v-.75q1.21875.70312 1.734374.9375.8125.35938 1.6875.5625 1.09375.25 2.203126.25 2.828124 0 5.640624-1.75zm-3.546874-7.23438h1.015624v5.6875q-.375 0-.734374-.125-.578126-.21874-1.140626-.6875-.5625-.48437-1.296874-1.39062-1.15625-1.40625-1.828126-1.89062-.671874-.5-1.265624-.5-.625 0-1.046876.45312-.4375.45312-.4375 1.17188 0 .76562.453126 1.21874.453124.45313 1.265624.46876l-.109374 1.07812q-1.21875-.10938-1.84375-.82812-.640626-.73438-.640626-1.96876 0-1.23437.6875-1.95312.6875-.71875 1.703126-.71875.515624 0 1.015624.21875.484376.20312 1.046876.70312.546874.48438 1.5 1.60938.796874.95312 1.09375 1.23438.28125.26562.5625.4375zm-3.21875-1.45312q-1.53125 0-2.453126-.3125-.9375-.3125-1.4375-.92188-.5-.625-.5-1.5625 0-.6875.28125-1.20312.28125-.53125.8125-.875.515626-.34375 1.265626-.53125.75-.1875 2.03125-.1875 1.515624 0 2.4375.3125.921874.29687 1.4375.92187.5.60938.5 1.5625 0 1.23438-.890626 1.95313-1.0625.84375-3.484374.84375zm0-1.07812q2.109374 0 2.8125-.5.703124-.5.703124-1.21876 0-.73437-.703124-1.21874-.703126-.5-2.8125-.5-2.125 0-2.8125.5-.703126.48437-.703126 1.23437 0 .71875.609376 1.15625.78125.54688 2.90625.54688zm4.234374-11.53126h-7.578124v2.82813h-1.015626v-6.8125h1.015626v2.84375h7.578124zm0-4.6875h-8.59375v-1.04687h3.078126q-.84375-.73437-.84375-1.85937 0-.70313.28125-1.20313.265624-.51563.75-.73437.46875-.21876 1.390624-.21876h3.9375v1.04688h-3.9375q-.796874 0-1.15625.34375-.359374.34375-.359374.96875 0 .46875.25.89062.234374.40626.65625.59376.40625.17187 1.140624.17187h3.40625zm0-6.98437h-6.21875v-.95313h.9375q-.65625-.35937-.859374-.65624-.21875-.3125-.21875-.6875 0-.53126.328124-1.07813l.984376.35937q-.234376.39063-.234376.76563 0 .35937.21875.64063.203126.26562.578126.375.5625.1875 1.21875.1875h3.265624zm-2-8.26563.125-1.09374q.953126.25 1.484376.95312.53125.70312.53125 1.78125 0 1.35937-.84375 2.17187-.84375.79688-2.359376.79688-1.5625 0-2.421874-.8125-.875-.8125-.875-2.09375 0-1.25.84375-2.03125.84375-.79688 2.390624-.79688.09375 0 .28125 0v4.64063q1.03125-.0625 1.578126-.57813.53125-.51562.53125-1.29687 0-.57813-.296876-.98437-.3125-.42188-.96875-.65626zm-1.703124 3.45313v-3.46875q-.796876.0625-1.1875.39062-.609376.51563-.609376 1.3125 0 .73438.484376 1.23438.484374.48438 1.3125.53125zm2.9375-10.26563q.5.59376.703124 1.14063.203126.53125.203126 1.15625 0 1.03125-.5 1.57812-.5.54688-1.28125.54688-.453126 0-.828126-.20312-.390624-.20313-.609374-.54688-.234376-.34375-.34375-.76562-.09375-.29688-.171876-.9375-.140624-1.26563-.359374-1.875-.21875 0-.265626 0-.65625 0-.921874.29687-.34375.40625-.34375 1.20313 0 .73437.265624 1.09374.25.35938.90625.53126l-.140624 1.03124q-.65625-.14062-1.0625-.46874-.40625-.32813-.625-.9375-.21875-.60938-.21875-1.40626 0-.79687.1875-1.29687.1875-.5.46875-.73437.28125-.23438.71875-.32813.265624-.04687.96875-.04687h1.40625q1.46875 0 1.859374-.0625.390626-.07813.75-.28126v1.10938q-.328124.15625-.765624.20312zm-2.359376.09376q.234376.57812.40625 1.71874.09375.65626.21875.92188.109376.26562.328126.42188.21875.14062.5.14062.421874 0 .703124-.3125.28125-.32812.28125-.9375 0-.60938-.265624-1.07812-.265626-.48438-.734376-.70313-.359374-.17187-1.046874-.17187zm3.125-7.0625h-.78125q.921876.59374.921876 1.73437 0 .75-.40625 1.375-.421876.625-1.15625.96875-.734376.34375-1.6875.34375-.921876 0-1.6875-.3125-.765626-.3125-1.15625-.9375-.40625-.625-.40625-1.39063 0-.5625.234374-1 .234376-.4375.609376-.71874h-3.078126v-1.04688h8.59375zm-3.109374 3.32812q1.203124 0 1.796874-.5.578126-.5.578126-1.1875 0-.6875-.5625-1.17188-.5625-.48437-1.71875-.48437-1.28125 0-1.875.5-.59375.48437-.59375 1.20313 0 .70312.578124 1.17187.5625.46875 1.796876.46875zm1.25-5.875-.15625-1.03125q.625-.09375.953124-.48437.328126-.40626.328126-1.14063 0-.71875-.28125-1.0625-.296876-.35937-.703126-.35937-.359374 0-.5625.3125-.140624.21874-.359374 1.07812-.296876 1.15625-.5 1.60938-.21875.4375-.59375.67187-.375.23437-.84375.23437-.40625 0-.765626-.1875-.359374-.1875-.59375-.51562-.171874-.25-.296874-.67188-.125-.42187-.125-.92187 0-.71875.21875-1.26563.203124-.5625.5625-.82812.359374-.26562.953124-.35938l.140626 1.03126q-.46875.0625-.734376.40624-.28125.32813-.28125.95313 0 .71875.25 1.03125.234376.3125.5625.3125.203126 0 .359376-.125.171874-.14062.28125-.40625.0625-.15625.265624-.9375.3125-1.125.5-1.5625.1875-.4375.546876-.6875.359374-.25.90625-.25.53125 0 1 .3125.453124.29687.71875.875.25.57813.25 1.3125 0 1.21875-.5 1.85937-.515626.625-1.5.79688zm4.390624-7.10938v.75q-2.8125-1.75-5.640624-1.75-1.09375 0-2.1875.25-.875.20313-1.6875.5625-.515626.23438-1.75.9375v-.75q1.46875-1.09374 2.953124-1.625 1.28125-.45312 2.671876-.45312 1.578124 0 3.0625.60938 1.46875.60937 2.578124 1.46874z"/>
    <path d="m80.55 594.71564q0-1.53124.3125-2.45314.3125-.9375.92188-1.4375.625-.5 1.5625-.5.6875 0 1.20312.28126.53125.28124.875.8125.34375.51564.53125 1.26564.1875.75.1875 2.03124 0 1.51562-.3125 2.4375-.29687.92186-.92187 1.4375-.60938.5-1.5625.5-1.23438 0-1.95313-.89064-.84375-1.0625-.84375-3.48436zm1.07813 0q0 2.10936.5 2.8125.5.70312 1.21875.70312.73437 0 1.21875-.70312.5-.70314.5-2.8125 0-2.125-.5-2.8125-.48438-.70314-1.23438-.70314-.71875 0-1.15625.6094-.54687.78124-.54687 2.90624z"/>
    <path d="m86.09688 505.6177v1.01563h-5.6875q0-.375.125-.73437.21875-.57813.6875-1.14063.48437-.5625 1.39062-1.29687 1.40625-1.15626 1.89063-1.82813.5-.67187.5-1.26563 0-.625-.45313-1.04687-.45312-.4375-1.17187-.4375-.76563 0-1.21875.45313-.45313.45312-.46875 1.26562l-1.07813-.10938q.10938-1.21874.82813-1.84374.73437-.64063 1.96875-.64063 1.23437 0 1.95312.6875.71875.6875.71875 1.70313 0 .51562-.21875 1.01562-.20312.48438-.70312 1.04688-.48438.54687-1.60938 1.5-.95312.79687-1.23437 1.09374-.26563.28126-.4375.5625z"/>
    <path d="m83.925 414.31668v-2.0625h-3.71875v-.96875l3.92188-5.5625h.85937v5.5625h1.15625v.96875h-1.15625v2.0625zm0-3.03125v-3.85937l-2.6875 3.85937z"/>
    <path d="m86.01875 315.51562-1.04687.07813q-.14063-.625-.39063-.90625-.4375-.45312-1.0625-.45312-.5 0-.89062.28124-.48438.375-.78125 1.07813-.28125.6875-.29688 1.96875.375-.57812.92188-.85938.5625-.28124 1.17187-.28124 1.04688 0 1.78125.78124.75.78126.75 2 0 .8125-.35937 1.51563-.34375.6875-.95313 1.0625-.60937.35937-1.375.35937-1.32812 0-2.15625-.96874-.82812-.96876-.82812-3.1875 0-2.5.92187-3.625.79688-.98438 2.15625-.98438 1.01563 0 1.65625.57812.65625.5625.78125 1.5625zm-4.29687 3.70313q0 .54687.21875 1.04687.23437.48438.64062.75.42188.26563.89063.26563.65625 0 1.14062-.53125.48438-.54688.48438-1.46875 0-.89063-.48438-1.40625-.46875-.51562-1.1875-.51562-.71875 0-1.21875.51562-.48437.51562-.48437 1.34375z"/>
    <path d="m82.175 225.02708q-.65625-.25-.98437-.6875-.3125-.45312-.3125-1.0625 0-.9375.67187-1.57812.6875-.64063 1.79688-.64063 1.125 0 1.8125.65625.6875.65625.6875 1.59375 0 .59375-.3125 1.03125-.3125.4375-.95313.6875.79688.25 1.20313.82813.40625.57812.40625 1.375 0 1.09375-.78125 1.84375-.76563.75-2.04688.75-1.26562 0-2.04687-.75-.78125-.75-.78125-1.875 0-.84375.42187-1.40625.4375-.5625 1.21875-.76563zm-.21875-1.79687q0 .60937.39063 1 .40625.39062 1.03125.39062.60937 0 1-.375.39062-.39062.39062-.95312 0-.57813-.40625-.96875-.40625-.40625-1-.40625-.60937 0-1.01562.39062-.39063.39063-.39063.92188zm-.32812 3.96875q0 .45312.20312.875.21875.42187.64063.65625.42187.23437.90625.23437.75 0 1.23437-.48437.5-.48438.5-1.23438 0-.76562-.5-1.26562-.5-.5-1.26562-.5-.75 0-1.23438.5-.48437.48437-.48437 1.21875z"/>
    <path d="m77.51875 137.36667h-1.04687v-6.71875q-.39063.35938-1.01563.73438-.60937.35937-1.09375.53124v-1.01562q.875-.42188 1.53125-1 .67188-.59375.95313-1.15625h.67187zm3.03125-4.23437q0-1.53126.3125-2.45313.3125-.9375.92188-1.4375.625-.5 1.5625-.5.6875 0 1.20312.28125.53125.28125.875.8125.34375.51562.53125 1.26562.1875.75.1875 2.03126 0 1.51562-.3125 2.4375-.29687.92187-.92187 1.4375-.60938.5-1.5625.5-1.23438 0-1.95313-.89063-.84375-1.0625-.84375-3.48437zm1.07813 0q0 2.10937.5 2.8125.5.70312 1.21875.70312.73437 0 1.21875-.70312.5-.70313.5-2.8125 0-2.125-.5-2.8125-.48438-.70313-1.23438-.70313-.71875 0-1.15625.60937-.54687.78126-.54687 2.90626z"/>
    <path d="m77.51875 45.05h-1.04687v-6.71875q-.39063.359374-1.01563.734374-.60937.359376-1.09375.53125v-1.015624q.875-.421876 1.53125-1 .67188-.59375.95313-1.15625h.67187zm8.57813-1.015626v1.015626h-5.6875q0-.375.125-.734376.21875-.578124.6875-1.140624.48437-.5625 1.39062-1.296876 1.40625-1.15625 1.89063-1.828124.5-.671876.5-1.265626 0-.625-.45313-1.046874-.45312-.4375-1.17187-.4375-.76563 0-1.21875.453124-.45313.453126-.46875 1.265626l-1.07813-.109376q.10938-1.21875.82813-1.84375.73437-.640624 1.96875-.640624 1.23437 0 1.95312.6875.71875.6875.71875 1.703124 0 .515626-.21875 1.015626-.20312.484374-.70312 1.046874-.48438.546876-1.60938 1.5-.95312.796876-1.23437 1.09375-.26563.28125-.4375.5625z"/>
    <path d="m122.662865 611.95h-1.046875v-6.71874q-.390625.35938-1.015625.73438-.609375.35936-1.09375.53126v-1.01564q.875-.42186 1.53125-1 .671875-.59376.953125-1.15626h.671875z"/>
    <path d="m181.52922 610.9344v1.0156h-5.6875q0-.375.125-.73436.21875-.57814.6875-1.14064.48438-.5625 1.39063-1.29686 1.40625-1.15624 1.89062-1.82814.5-.67186.5-1.2656 0-.625-.45312-1.0469-.45313-.4375-1.17188-.4375-.76562 0-1.21875.45314-.45312.45312-.46875 1.26562l-1.07812-.10936q.10937-1.21876.82812-1.84376.73438-.64064 1.96875-.64064 1.23438 0 1.95313.6875.71875.6875.71875 1.70314 0 .51562-.21875 1.01562-.20313.48438-.70313 1.04688-.48437.54686-1.60937 1.5-.95313.79686-1.23438 1.09376-.26562.28124-.4375.5625z"/>
    <path d="m233.27058 609.6844 1.0625-.14064q.17188.89064.60938 1.29688.4375.39062 1.0625.39062.75 0 1.26562-.51562.51563-.51564.51563-1.28124 0-.71876-.48438-1.1875-.46875-.4844-1.20312-.4844-.29688 0-.75.125l.125-.9375q.10937.01564.17187.01564.67188 0 1.20313-.34374.54687-.3594.54687-1.09376 0-.57814-.39062-.95314-.39063-.3906-1.01563-.3906-.60937 0-1.03125.3906-.40625.39064-.51562 1.15626l-1.0625-.1875q.1875-1.04686.875-1.625.6875-.59376 1.70312-.59376.70313 0 1.29688.3125.59375.2969.90625.8125.3125.51564.3125 1.1094 0 .54686-.29688 1.0156-.29687.45314-.875.71876.75.17188 1.17188.73438.42187.54686.42187 1.39062 0 1.125-.82812 1.90624-.8125.78126-2.0625.78126-1.125 0-1.875-.67186-.75-.6875-.85938-1.75z"/>
    <path d="m293.93384 611.95v-2.0625h-3.71874v-.96874l3.92186-5.5625h.85938v5.5625h1.15626v.96874h-1.15626v2.0625zm0-3.03124v-3.85936l-2.6875 3.85936z"/>
    <path d="m347.84705 609.7 1.10937-.09374q.125.8125.5625 1.21874.45313.40626 1.09375.40626.75 0 1.28125-.57812.53125-.57814.53125-1.51564 0-.90624-.51562-1.42186-.5-.53124-1.32813-.53124-.5 0-.92187.23436-.40625.23438-.64063.59374l-.98437-.125.82812-4.40624h4.28125v1h-3.4375l-.45312 2.3125q.76562-.54686 1.60937-.54686 1.125 0 1.89063.78124.78125.78126.78125 2.01562 0 1.15624-.67188 2.01564-.82812 1.03124-2.25 1.03124-1.17187 0-1.92187-.65624-.73438-.65626-.84375-1.7344z"/>
    <path d="m410.60403 605.46564-1.04687.07812q-.14063-.625-.39063-.90626-.4375-.4531-1.0625-.4531-.5 0-.89063.28124-.48437.375-.78124 1.07812-.28126.6875-.29688 1.96874.375-.5781.92188-.85936.5625-.28124 1.17187-.28124 1.04687 0 1.78125.78124.75.78126.75 2 0 .8125-.35938 1.51562-.34374.6875-.95312 1.0625-.60938.35938-1.375.35938-1.32812 0-2.15625-.96874-.82813-.96876-.82813-3.1875 0-2.5.92188-3.625.79688-.9844 2.15625-.9844 1.01563 0 1.65625.57814.65625.5625.78125 1.5625zm-4.29687 3.70312q0 .54688.21874 1.04688.23438.48436.64063.75.42187.26562.89063.26562.65624 0 1.14062-.53126.48438-.54686.48438-1.46874 0-.89062-.48438-1.40626-.46875-.5156-1.1875-.5156-.71875 0-1.21875.5156-.48437.51564-.48437 1.34376z"/>
    <path d="m462.48602 604.48126v-1.01562h5.5625v.82812q-.8125.875-1.625 2.32814-.79687 1.4375-1.23437 2.96874-.32813 1.07812-.40625 2.35936h-1.09375q.01562-1.0156.39062-2.4531.39063-1.4375 1.09375-2.76564.71875-1.32812 1.53125-2.25z"/>
    <path d="m521.3368 607.29376q-.65626-.25-.9844-.6875-.3125-.45312-.3125-1.0625 0-.9375.6719-1.57812.6875-.64064 1.79687-.64064 1.125 0 1.8125.65626.6875.65624.6875 1.59374 0 .59376-.3125 1.03126-.3125.4375-.95313.6875.79686.25 1.20313.82814.40623.5781.40623 1.375 0 1.09374-.78123 1.84374-.76563.75-2.04687.75-1.26563 0-2.0469-.75-.78123-.75-.78123-1.875 0-.84374.42187-1.40624.4375-.5625 1.21876-.76564zm-.21876-1.79686q0 .60936.39063 1 .40623.3906 1.03123.3906.6094 0 1-.375.39064-.3906.39064-.9531 0-.57814-.40624-.96876-.40626-.40624-1-.40624-.6094 0-1.01563.3906-.39063.39064-.39063.9219zm-.32814 3.96874q0 .45312.20314.875.21876.42186.64063.65626.42187.23436.90623.23436.75 0 1.2344-.48436.5-.4844.5-1.2344 0-.7656-.5-1.2656-.5-.5-1.26563-.5-.75 0-1.23437.5-.4844.48436-.4844 1.21874z"/>
    <path d="m577.15625 609.96564 1.01565-.09374q.125.71874.48435 1.04686.375.3125.9375.3125.48435 0 .84375-.21876.375-.23436.6094-.59374.23435-.375.3906-1 .15625-.64062.15625-1.29686 0-.07814 0-.21876-.3125.5-.85935.82812-.5469.3125-1.1875.3125-1.07815 0-1.8125-.76562-.7344-.78124-.7344-2.04688 0-1.3125.7656-2.10936.7813-.7969 1.9375-.7969.82815 0 1.51565.45314.70315.45312 1.0625 1.29686.35935.82814.35935 2.40626 0 1.64064-.35935 2.625-.34375.96874-1.0625 1.48438-.70315.5-1.64065.5-1.0156 0-1.6562-.54688-.64065-.5625-.76565-1.57812zm4.3125-3.79688q0-.90626-.48435-1.4375-.4688-.53126-1.1563-.53126-.7031 0-1.23435.57814-.51565.5625-.51565 1.48436 0 .8125.5 1.32814.5.51562 1.2188.51562.73435 0 1.2031-.51562.46875-.51564.46875-1.42188z"/>
    <path d="m634.75696 611.95h-1.04686v-6.71874q-.39064.35938-1.01564.73438-.60936.35936-1.09376.53126v-1.01564q.875-.42186 1.53126-1 .67187-.59376.95314-1.15626h.67186zm3.03124-4.23436q0-1.53124.3125-2.45314.3125-.9375.9219-1.4375.625-.5 1.5625-.5.6875 0 1.2031.28126.53126.28124.875.8125.34376.51564.53126 1.26564.1875.75.1875 2.03124 0 1.51562-.3125 2.4375-.29686.92186-.92186 1.4375-.6094.5-1.5625.5-1.2344 0-1.95314-.89064-.84376-1.0625-.84376-3.48436zm1.07813 0q0 2.10936.5 2.8125.5.70312 1.21877.70312.73436 0 1.21873-.70312.5-.70314.5-2.8125 0-2.125-.5-2.8125-.48437-.70314-1.23437-.70314-.71876 0-1.15626.6094-.54687.78124-.54687 2.90624z"/>
    <path d="m692.0452 611.95h-1.04685v-6.71874q-.39065.35938-1.01565.73438-.60935.35936-1.0937.53126v-1.01564q.875-.42186 1.5312-1 .6719-.59376.95315-1.15626h.67185zm7 0h-1.04685v-6.71874q-.39065.35938-1.01565.73438-.60935.35936-1.0937.53126v-1.01564q.875-.42186 1.5312-1 .6719-.59376.95315-1.15626h.67185z"/>
    <path d="m749.33344 611.95h-1.04688v-6.71874q-.39062.35938-1.01562.73438-.60938.35936-1.09374.53126v-1.01564q.875-.42186 1.53124-1 .67186-.59376.95312-1.15626h.67188zm8.57812-1.0156v1.0156h-5.6875q0-.375.125-.73436.21874-.57814.6875-1.14064.48438-.5625 1.39064-1.29686 1.40624-1.15624 1.8906-1.82814.5-.67186.5-1.2656 0-.625-.4531-1.0469-.45314-.4375-1.1719-.4375-.7656 0-1.21874.45314-.45312.45312-.46876 1.26562l-1.0781-.10936q.10936-1.21876.8281-1.84376.7344-.64064 1.96876-.64064 1.23438 0 1.95314.6875.71874.6875.71874 1.70314 0 .51562-.21874 1.01562-.20314.48438-.70314 1.04688-.48436.54686-1.60936 1.5-.95314.79686-1.2344 1.09376-.2656.28124-.4375.5625z"/>
    <path d="m806.6217 611.95h-1.0469v-6.71874q-.3906.35938-1.0156.73438-.6094.35936-1.09375.53126v-1.01564q.875-.42186 1.53125-1 .6719-.59376.9531-1.15626h.6719zm3.03125-2.2656 1.0625-.14064q.17185.89064.60935 1.29688.4375.39062 1.0625.39062.75 0 1.26565-.51562.51565-.51564.51565-1.28124 0-.71876-.4844-1.1875-.46875-.4844-1.2031-.4844-.2969 0-.75.125l.125-.9375q.10935.01564.17185.01564.67185 0 1.20315-.34374.54685-.3594.54685-1.09376 0-.57814-.39065-.95314-.3906-.3906-1.0156-.3906-.6094 0-1.03125.3906-.40625.39064-.51565 1.15626l-1.0625-.1875q.1875-1.04686.875-1.625.6875-.59376 1.70315-.59376.70315 0 1.29685.3125.5938.2969.9063.8125.3125.51564.3125 1.1094 0 .54686-.2969 1.0156-.2969.45314-.875.71876.75.17188 1.1719.73438.42185.54686.42185 1.39062 0 1.125-.82815 1.90624-.8125.78126-2.0625.78126-1.125 0-1.875-.67186-.75-.6875-.85935-1.75z"/>
    <path d="m863.9099 611.95h-1.04686v-6.71874q-.39064.35938-1.01564.73438-.60936.35936-1.09374.53126v-1.01564q.875-.42186 1.53124-1 .6719-.59376.95314-1.15626h.67186zm6.40626 0v-2.0625h-3.71876v-.96874l3.9219-5.5625h.85936v5.5625h1.15624v.96874h-1.15624v2.0625zm0-3.03124v-3.85936l-2.6875 3.85936z"/>
    <path d="m921.1982 611.95h-1.0469v-6.71874q-.3906.35938-1.0156.73438-.6094.35936-1.09377.53126v-1.01564q.875-.42186 1.53127-1 .67186-.59376.9531-1.15626h.6719zm3.03123-2.25 1.10937-.09374q.125.8125.5625 1.21874.45313.40626 1.09376.40626.75 0 1.28124-.57812.53126-.57814.53126-1.51564 0-.90624-.51563-1.42186-.5-.53124-1.32813-.53124-.5 0-.92187.23436-.40623.23438-.64063.59374l-.98437-.125.82813-4.40624h4.28124v1h-3.4375l-.4531 2.3125q.7656-.54686 1.60936-.54686 1.125 0 1.89064.78124.78123.78126.78123 2.01562 0 1.15624-.67187 2.01564-.82813 1.03124-2.25 1.03124-1.17186 0-1.92186-.65624-.7344-.65626-.84377-1.7344z"/>
    <path d="m978.4864 611.95h-1.0469v-6.71874q-.3906.35938-1.0156.73438-.6094.35936-1.09376.53126v-1.01564q.875-.42186 1.53126-1 .67186-.59376.9531-1.15626h.6719zm8.5-6.48436-1.0469.07812q-.1406-.625-.3906-.90626-.4375-.4531-1.0625-.4531-.5 0-.89064.28124-.48436.375-.78126 1.07812-.28124.6875-.29686 1.96874.375-.5781.92186-.85936.5625-.28124 1.1719-.28124 1.04686 0 1.78124.78124.75.78126.75 2 0 .8125-.35938 1.51562-.34376.6875-.95312 1.0625-.60938.35938-1.375.35938-1.32814 0-2.15624-.96874-.82814-.96876-.82814-3.1875 0-2.5.92188-3.625.79686-.9844 2.15626-.9844 1.0156 0 1.65624.57814.65626.5625.78126 1.5625zm-4.2969 3.70312q0 .54688.21876 1.04688.23438.48436.64064.75.42186.26562.8906.26562.65626 0 1.14064-.53126.48436-.54686.48436-1.46874 0-.89062-.48436-1.40626-.46874-.5156-1.1875-.5156-.71874 0-1.21874.5156-.4844.51564-.4844 1.34376z"/>
    <path d="m1035.7747 611.95h-1.0469v-6.71874q-.3906.35938-1.0156.73438-.6094.35936-1.0938.53126v-1.01564q.875-.42186 1.5313-1 .6718-.59376.9531-1.15626h.6719zm3.0937-7.46874v-1.01562h5.5625v.82812q-.8125.875-1.625 2.32814-.7969 1.4375-1.2344 2.96874-.3281 1.07812-.4062 2.35936h-1.0938q.0157-1.0156.3907-2.4531.3906-1.4375 1.0937-2.76564.7188-1.32812 1.5313-2.25z"/>
  </g>
</svg>
