<?xml version="1.0"?>
<svg xmlns="http://www.w3.org/2000/svg" xmlns:xlink="http://www.w3.org/1999/xlink" fill="none" stroke-linecap="square" stroke-miterlimit="10" viewBox="0 0 1160 749">
  <clipPath id="a">
    <path d="m64.45 93.416664h1058.1v527.166636h-1058.1z"/>
  </clipPath>
  <path d="m0 0h1160v749h-1160z" fill="#fff"/>
  <g stroke-linecap="butt">
    <path d="m64.5 620.5h1058" stroke="#ccc"/>
    <path d="m64.5 488.5h1058" stroke="#ccc"/>
    <path d="m64.5 356.5h1058" stroke="#ccc"/>
    <path d="m64.5 225.5h1058" stroke="#ccc"/>
    <path d="m64.5 93.5h1058" stroke="#ccc"/>
    <path d="m725.7625 505.7396v15.99996" stroke="#eee"/>
    <path d="m461.2375 439.84375v16" stroke="#eee"/>
    <path d="m990.2875 565.04584v16" stroke="#eee"/>
    <path d="m461.2375 209.20833v16" stroke="#eee"/>
    <path clip-path="url(#a)" d="m461.2375 244.97708 264.525 276.76248" stroke="#4285f4" stroke-width="2"/>
    <path clip-path="url(#a)" d="m196.7125 132.95416 264.525 322.88959h264.525l264.525 125.20209" stroke="#ea4335" stroke-width="2"/>
    <path clip-path="url(#a)" d="m196.7125 132.95416 264.525 92.25417 264.525 224.04585 264.525 131.79166" stroke="#34a853" stroke-width="2"/>
  </g>
  <path clip-path="url(#a)" d="m467.2375 244.97708c0 3.31371-2.6863 6-6 6s-6-2.68629-6-6c0-3.3137 2.6863-6 6-6s6 2.6863 6 6z" fill="#4285f4"/>
  <path clip-path="url(#a)" d="m731.7625 521.73956c0 3.31374-2.68627 6-6 6-3.3137 0-6-2.68626-6-6 0-3.31366 2.6863-6 6-6 3.31373 0 6 2.68634 6 6z" fill="#4285f4"/>
  <path clip-path="url(#a)" d="m202.7125 132.95416c0 3.31371-2.68629 6-6 6s-6-2.68629-6-6c0-3.3137 2.68629-5.99999 6-5.99999s6 2.68629 6 5.99999z" fill="#ea4335"/>
  <path clip-path="url(#a)" d="m467.2375 455.84375c0 3.31372-2.6863 6-6 6s-6-2.68628-6-6 2.6863-6 6-6 6 2.68628 6 6z" fill="#ea4335"/>
  <path clip-path="url(#a)" d="m731.7625 455.84375c0 3.31372-2.68627 6-6 6-3.3137 0-6-2.68628-6-6s2.6863-6 6-6c3.31373 0 6 2.68628 6 6z" fill="#ea4335"/>
  <path clip-path="url(#a)" d="m996.2875 581.04584c0 3.31372-2.6863 6-6 6s-6-2.68628-6-6c0-3.31374 2.6863-6 6-6s6 2.68626 6 6z" fill="#ea4335"/>
  <path clip-path="url(#a)" d="m202.7125 132.95416c0 3.31371-2.68629 6-6 6s-6-2.68629-6-6c0-3.3137 2.68629-5.99999 6-5.99999s6 2.68629 6 5.99999z" fill="#34a853"/>
  <path clip-path="url(#a)" d="m467.2375 225.20833c0 3.31372-2.6863 6-6 6s-6-2.68628-6-6c0-3.31371 2.6863-6 6-6s6 2.68629 6 6z" fill="#34a853"/>
  <path clip-path="url(#a)" d="m731.7625 449.25418c0 3.31369-2.68627 6-6 6-3.3137 0-6-2.68631-6-6 0-3.31372 2.6863-6 6-6 3.31373 0 6 2.68628 6 6z" fill="#34a853"/>
  <path clip-path="url(#a)" d="m996.2875 581.04584c0 3.31372-2.6863 6-6 6s-6-2.68628-6-6c0-3.31374 2.6863-6 6-6s6 2.68626 6 6z" fill="#34a853"/>
  <path d="m438.08163 262.9097q0-1.53125.3125-2.45313.3125-.9375.92187-1.4375.625-.5 1.5625-.5.6875 0 1.20313.28125.53125.28125.875.8125.34375.51563.53125 1.26563.1875.75.1875 2.03125 0 1.51562-.3125 2.4375-.29688.92187-.92188 1.4375-.60937.5-1.5625.5-1.23437 0-1.95312-.89063-.84375-1.0625-.84375-3.48437zm1.07813 0q0 2.10937.5 2.8125.5.70312 1.21874.70312.73438 0 1.21876-.70312.5-.70313.5-2.8125 0-2.125-.5-2.8125-.48438-.70313-1.23438-.70313-.71875 0-1.15625.60938-.54687.78125-.54687 2.90625zm6.48437 4.23437v-1.20312h1.20313v1.20312q0 .65625-.23438 1.0625-.23438.42188-.73438.64063l-.29687-.45313q.32813-.14062.48437-.4375.15626-.28125.1875-.8125zm4.0625-4.65625q-.65625-.25-.98437-.6875-.3125-.45312-.3125-1.0625 0-.9375.67187-1.57812.6875-.64063 1.79687-.64063 1.125 0 1.8125.65625.6875.65625.6875 1.59375 0 .59375-.3125 1.03125-.3125.4375-.95312.6875.79688.25 1.20312.82813.40626.57812.40626 1.375 0 1.09375-.78126 1.84375-.76562.75-2.04687.75-1.26563 0-2.04687-.75-.78126-.75-.78126-1.875 0-.84375.42188-1.40625.4375-.5625 1.21875-.76563zm-.21875-1.79687q0 .60937.39062 1 .40626.39062 1.03126.39062.60937 0 1-.375.39062-.39062.39062-.95312 0-.57813-.40625-.96875-.40625-.40625-1-.40625-.60937 0-1.01563.39062-.39062.39063-.39062.92188zm-.32812 3.96875q0 .45312.20312.875.21875.42187.64062.65625.42188.23437.90626.23437.75 0 1.23437-.48437.5-.48438.5-1.23438 0-.76562-.5-1.26562-.5-.5-1.26563-.5-.75 0-1.23437.5-.48437.48437-.48437 1.21875zm11.46874 1.46875v1.01562h-5.6875q0-.375.125-.73437.21876-.57813.6875-1.14063.48438-.5625 1.39063-1.29687 1.40625-1.15625 1.89063-1.82813.5-.67187.5-1.26562 0-.625-.45313-1.04688-.45313-.4375-1.17187-.4375-.76563 0-1.21876.45313-.45312.45312-.46874 1.26562l-1.07813-.10937q.10937-1.21875.82813-1.84375.73437-.64063 1.96874-.64063 1.23438 0 1.95313.6875.71875.6875.71875 1.70313 0 .51562-.21875 1.01562-.20313.48438-.70313 1.04688-.48437.54687-1.60937 1.5-.95313.79687-1.23437 1.09375-.26563.28125-.4375.5625z" stroke="#fff" stroke-linecap="round" stroke-linejoin="round" stroke-width="3"/>
  <path d="m438.08163 262.9097q0-1.53125.3125-2.45313.3125-.9375.92187-1.4375.625-.5 1.5625-.5.6875 0 1.20313.28125.53125.28125.875.8125.34375.51563.53125 1.26563.1875.75.1875 2.03125 0 1.51562-.3125 2.4375-.29688.92187-.92188 1.4375-.60937.5-1.5625.5-1.23437 0-1.95312-.89063-.84375-1.0625-.84375-3.48437zm1.07813 0q0 2.10937.5 2.8125.5.70312 1.21874.70312.73438 0 1.21876-.70312.5-.70313.5-2.8125 0-2.125-.5-2.8125-.48438-.70313-1.23438-.70313-.71875 0-1.15625.60938-.54687.78125-.54687 2.90625zm6.48437 4.23437v-1.20312h1.20313v1.20312q0 .65625-.23438 1.0625-.23438.42188-.73438.64063l-.29687-.45313q.32813-.14062.48437-.4375.15626-.28125.1875-.8125zm4.0625-4.65625q-.65625-.25-.98437-.6875-.3125-.45312-.3125-1.0625 0-.9375.67187-1.57812.6875-.64063 1.79687-.64063 1.125 0 1.8125.65625.6875.65625.6875 1.59375 0 .59375-.3125 1.03125-.3125.4375-.95312.6875.79688.25 1.20312.82813.40626.57812.40626 1.375 0 1.09375-.78126 1.84375-.76562.75-2.04687.75-1.26563 0-2.04687-.75-.78126-.75-.78126-1.875 0-.84375.42188-1.40625.4375-.5625 1.21875-.76563zm-.21875-1.79687q0 .60937.39062 1 .40626.39062 1.03126.39062.60937 0 1-.375.39062-.39062.39062-.95312 0-.57813-.40625-.96875-.40625-.40625-1-.40625-.60937 0-1.01563.39062-.39062.39063-.39062.92188zm-.32812 3.96875q0 .45312.20312.875.21875.42187.64062.65625.42188.23437.90626.23437.75 0 1.23437-.48437.5-.48438.5-1.23438 0-.76562-.5-1.26562-.5-.5-1.26563-.5-.75 0-1.23437.5-.48437.48437-.48437 1.21875zm11.46874 1.46875v1.01562h-5.6875q0-.375.125-.73437.21876-.57813.6875-1.14063.48438-.5625 1.39063-1.29687 1.40625-1.15625 1.89063-1.82813.5-.67187.5-1.26562 0-.625-.45313-1.04688-.45313-.4375-1.17187-.4375-.76563 0-1.21876.45313-.45312.45312-.46874 1.26562l-1.07813-.10937q.10937-1.21875.82813-1.84375.73437-.64063 1.96874-.64063 1.23438 0 1.95313.6875.71875.6875.71875 1.70313 0 .51562-.21875 1.01562-.20313.48438-.70313 1.04688-.48437.54687-1.60937 1.5-.95313.79687-1.23437 1.09375-.26563.28125-.4375.5625z" fill="#4285f4"/>
  <path d="m717.7625 499.50522q0-1.53125.3125-2.45312.3125-.9375.9219-1.4375.625-.5 1.5625-.5.6875 0 1.2031.28124.53126.28126.875.8125.34376.51563.53126 1.26563.1875.75.1875 2.03125 0 1.51562-.3125 2.4375-.29686.92188-.92186 1.4375-.6094.5-1.5625.5-1.2344 0-1.95314-.89062-.84376-1.0625-.84376-3.48438zm1.07814 0q0 2.10938.5 2.8125.5.70312 1.21876.70312.73436 0 1.21874-.70312.5-.70312.5-2.8125 0-2.125-.5-2.8125-.48438-.70312-1.23438-.70312-.71876 0-1.15626.60937-.54686.78125-.54686 2.90625zm6.48436 4.23438v-1.20313h1.20314v1.20313q0 .65624-.23438 1.0625-.23436.42187-.73436.64062l-.2969-.45312q.32814-.14063.4844-.4375.15624-.28126.1875-.8125zm5.8125 0v-2.0625h-3.71874v-.96876l3.92188-5.5625h.85936v5.5625h1.15626v.96876h-1.15626v2.0625zm0-3.03126v-3.85937l-2.6875 3.85937z" stroke="#fff" stroke-linecap="round" stroke-linejoin="round" stroke-width="3"/>
  <path d="m717.7625 499.50522q0-1.53125.3125-2.45312.3125-.9375.9219-1.4375.625-.5 1.5625-.5.6875 0 1.2031.28124.53126.28126.875.8125.34376.51563.53126 1.26563.1875.75.1875 2.03125 0 1.51562-.3125 2.4375-.29686.92188-.92186 1.4375-.6094.5-1.5625.5-1.2344 0-1.95314-.89062-.84376-1.0625-.84376-3.48438zm1.07814 0q0 2.10938.5 2.8125.5.70312 1.21876.70312.73436 0 1.21874-.70312.5-.70312.5-2.8125 0-2.125-.5-2.8125-.48438-.70312-1.23438-.70312-.71876 0-1.15626.60937-.54686.78125-.54686 2.90625zm6.48436 4.23438v-1.20313h1.20314v1.20313q0 .65624-.23438 1.0625-.23436.42187-.73436.64062l-.2969-.45312q.32814-.14063.4844-.4375.15624-.28126.1875-.8125zm5.8125 0v-2.0625h-3.71874v-.96876l3.92188-5.5625h.85936v5.5625h1.15626v.96876h-1.15626v2.0625zm0-3.03126v-3.85937l-2.6875 3.85937z" fill="#4285f4"/>
  <path d="m163.56589 142.07074q0-1.53125.3125-2.45313.3125-.9375.92187-1.4375.625-.5 1.5625-.5.6875 0 1.20313.28125.53125.28125.875.8125.34375.51563.53125 1.26563.1875.75.1875 2.03125 0 1.51562-.3125 2.4375-.29688.92187-.92188 1.4375-.60937.5-1.5625.5-1.23437 0-1.95312-.89063-.84375-1.0625-.84375-3.48437zm1.07812 0q0 2.10937.5 2.8125.5.70312 1.21875.70312.73438 0 1.21875-.70312.5-.70313.5-2.8125 0-2.125-.5-2.8125-.48437-.70313-1.23437-.70313-.71875 0-1.15625.60938-.54688.78125-.54688 2.90625zm6.48438 4.23437v-1.20312h1.20312v1.20312q0 .65625-.23437 1.0625-.23438.42188-.73438.64063l-.29687-.45313q.32812-.14062.48437-.4375.15625-.28125.1875-.8125zm2.59375-1.98437 1.01562-.09375q.125.71875.48438 1.04687.375.3125.9375.3125.48437 0 .84375-.21875.375-.23437.60937-.59375.23438-.375.39063-1 .15625-.64062.15625-1.29687 0-.07813 0-.21875-.3125.5-.85938.82812-.54687.3125-1.1875.3125-1.07812 0-1.8125-.76562-.73437-.78125-.73437-2.04688 0-1.3125.76562-2.10937.78125-.79688 1.9375-.79688.82813 0 1.51563.45313.70312.45312 1.0625 1.29687.35937.82813.35937 2.40625 0 1.64063-.35937 2.625-.34375.96875-1.0625 1.48438-.70313.5-1.64063.5-1.01562 0-1.65625-.54688-.64062-.5625-.76562-1.57812zm4.3125-3.79688q0-.90625-.48438-1.4375-.46875-.53125-1.15625-.53125-.70312 0-1.23437.57813-.51563.5625-.51563 1.48437 0 .8125.5 1.32813.5.51562 1.21875.51562.73438 0 1.20313-.51562.46875-.51563.46875-1.42188zm2.6875 3.79688 1.01562-.09375q.125.71875.48438 1.04687.375.3125.9375.3125.48437 0 .84375-.21875.375-.23437.60937-.59375.23438-.375.39063-1 .15625-.64062.15625-1.29687 0-.07813 0-.21875-.3125.5-.85938.82812-.54687.3125-1.1875.3125-1.07812 0-1.8125-.76562-.73437-.78125-.73437-2.04688 0-1.3125.76562-2.10937.78125-.79688 1.9375-.79688.82813 0 1.51563.45313.70312.45312 1.0625 1.29687.35937.82813.35937 2.40625 0 1.64063-.35937 2.625-.34375.96875-1.0625 1.48438-.70313.5-1.64063.5-1.01562 0-1.65625-.54688-.64062-.5625-.76562-1.57812zm4.3125-3.79688q0-.90625-.48438-1.4375-.46875-.53125-1.15625-.53125-.70312 0-1.23437.57813-.51563.5625-.51563 1.48437 0 .8125.5 1.32813.5.51562 1.21875.51562.73438 0 1.20313-.51562.46875-.51563.46875-1.42188z" stroke="#fff" stroke-linecap="round" stroke-linejoin="round" stroke-width="3"/>
  <path d="m163.56589 142.07074q0-1.53125.3125-2.45313.3125-.9375.92187-1.4375.625-.5 1.5625-.5.6875 0 1.20313.28125.53125.28125.875.8125.34375.51563.53125 1.26563.1875.75.1875 2.03125 0 1.51562-.3125 2.4375-.29688.92187-.92188 1.4375-.60937.5-1.5625.5-1.23437 0-1.95312-.89063-.84375-1.0625-.84375-3.48437zm1.07812 0q0 2.10937.5 2.8125.5.70312 1.21875.70312.73438 0 1.21875-.70312.5-.70313.5-2.8125 0-2.125-.5-2.8125-.48437-.70313-1.23437-.70313-.71875 0-1.15625.60938-.54688.78125-.54688 2.90625zm6.48438 4.23437v-1.20312h1.20312v1.20312q0 .65625-.23437 1.0625-.23438.42188-.73438.64063l-.29687-.45313q.32812-.14062.48437-.4375.15625-.28125.1875-.8125zm2.59375-1.98437 1.01562-.09375q.125.71875.48438 1.04687.375.3125.9375.3125.48437 0 .84375-.21875.375-.23437.60937-.59375.23438-.375.39063-1 .15625-.64062.15625-1.29687 0-.07813 0-.21875-.3125.5-.85938.82812-.54687.3125-1.1875.3125-1.07812 0-1.8125-.76562-.73437-.78125-.73437-2.04688 0-1.3125.76562-2.10937.78125-.79688 1.9375-.79688.82813 0 1.51563.45313.70312.45312 1.0625 1.29687.35937.82813.35937 2.40625 0 1.64063-.35937 2.625-.34375.96875-1.0625 1.48438-.70313.5-1.64063.5-1.01562 0-1.65625-.54688-.64062-.5625-.76562-1.57812zm4.3125-3.79688q0-.90625-.48438-1.4375-.46875-.53125-1.15625-.53125-.70312 0-1.23437.57813-.51563.5625-.51563 1.48437 0 .8125.5 1.32813.5.51562 1.21875.51562.73438 0 1.20313-.51562.46875-.51563.46875-1.42188zm2.6875 3.79688 1.01562-.09375q.125.71875.48438 1.04687.375.3125.9375.3125.48437 0 .84375-.21875.375-.23437.60937-.59375.23438-.375.39063-1 .15625-.64062.15625-1.29687 0-.07813 0-.21875-.3125.5-.85938.82812-.54687.3125-1.1875.3125-1.07812 0-1.8125-.76562-.73437-.78125-.73437-2.04688 0-1.3125.76562-2.10937.78125-.79688 1.9375-.79688.82813 0 1.51563.45313.70312.45312 1.0625 1.29687.35937.82813.35937 2.40625 0 1.64063-.35937 2.625-.34375.96875-1.0625 1.48438-.70313.5-1.64063.5-1.01562 0-1.65625-.54688-.64062-.5625-.76562-1.57812zm4.3125-3.79688q0-.90625-.48438-1.4375-.46875-.53125-1.15625-.53125-.70312 0-1.23437.57813-.51563.5625-.51563 1.48437 0 .8125.5 1.32813.5.51562 1.21875.51562.73438 0 1.20313-.51562.46875-.51563.46875-1.42188z" fill="#ea4335"/>
  <path d="m453.2375 433.60938q0-1.53126.3125-2.45313.3125-.9375.92186-1.4375.625-.5 1.5625-.5.6875 0 1.20314.28125.53124.28125.875.8125.34374.51562.53124 1.26562.1875.75.1875 2.03126 0 1.51562-.3125 2.4375-.29688.92187-.92188 1.4375-.60936.5-1.5625.5-1.23436 0-1.95312-.89063-.84374-1.0625-.84374-3.48437zm1.0781 0q0 2.10937.5 2.8125.5.70312 1.21876.70312.73438 0 1.21874-.70312.5-.70313.5-2.8125 0-2.125-.5-2.8125-.48436-.70313-1.23436-.70313-.71874 0-1.15624.60937-.5469.78126-.5469 2.90626zm6.4844 4.23437v-1.20313h1.2031v1.20313q0 .65625-.23436 1.0625-.23438.42187-.73438.64063l-.29686-.45313q.3281-.14063.48436-.4375.15624-.28125.1875-.8125zm2.4375-2.25 1.10936-.09375q.125.8125.5625 1.21875.45314.40625 1.09374.40625.75 0 1.28126-.57812.53124-.57813.53124-1.51563 0-.90625-.5156-1.42187-.5-.53126-1.32814-.53126-.5 0-.92186.23438-.40626.23438-.64064.59375l-.98436-.125.8281-4.40625h4.28126v1h-3.4375l-.45312 2.3125q.76562-.54688 1.60936-.54688 1.125 0 1.89064.78126.78126.78124.78126 2.01562 0 1.15625-.6719 2.01562-.8281 1.03126-2.25 1.03126-1.17186 0-1.92186-.65626-.73438-.65624-.84374-1.73437z" stroke="#fff" stroke-linecap="round" stroke-linejoin="round" stroke-width="3"/>
  <path d="m453.2375 433.60938q0-1.53126.3125-2.45313.3125-.9375.92186-1.4375.625-.5 1.5625-.5.6875 0 1.20314.28125.53124.28125.875.8125.34374.51562.53124 1.26562.1875.75.1875 2.03126 0 1.51562-.3125 2.4375-.29688.92187-.92188 1.4375-.60936.5-1.5625.5-1.23436 0-1.95312-.89063-.84374-1.0625-.84374-3.48437zm1.0781 0q0 2.10937.5 2.8125.5.70312 1.21876.70312.73438 0 1.21874-.70312.5-.70313.5-2.8125 0-2.125-.5-2.8125-.48436-.70313-1.23436-.70313-.71874 0-1.15624.60937-.5469.78126-.5469 2.90626zm6.4844 4.23437v-1.20313h1.2031v1.20313q0 .65625-.23436 1.0625-.23438.42187-.73438.64063l-.29686-.45313q.3281-.14063.48436-.4375.15624-.28125.1875-.8125zm2.4375-2.25 1.10936-.09375q.125.8125.5625 1.21875.45314.40625 1.09374.40625.75 0 1.28126-.57812.53124-.57813.53124-1.51563 0-.90625-.5156-1.42187-.5-.53126-1.32814-.53126-.5 0-.92186.23438-.40626.23438-.64064.59375l-.98436-.125.8281-4.40625h4.28126v1h-3.4375l-.45312 2.3125q.76562-.54688 1.60936-.54688 1.125 0 1.89064.78126.78126.78124.78126 2.01562 0 1.15625-.6719 2.01562-.8281 1.03126-2.25 1.03126-1.17186 0-1.92186-.65626-.73438-.65624-.84374-1.73437z" fill="#ea4335"/>
  <path d="m712.934 472.7968q0-1.53124.3125-2.4531.3125-.9375.9219-1.4375.625-.5 1.5625-.5.6875 0 1.2031.28124.5313.28126.875.8125.3438.51562.5313 1.26562.1875.75.1875 2.03124 0 1.51564-.3125 2.4375-.2969.9219-.9219 1.4375-.6094.5-1.5625.5-1.2344 0-1.9531-.8906-.8438-1.0625-.8438-3.4844zm1.07815 0q0 2.1094.5 2.8125.5.70314 1.21875.70314.7344 0 1.21875-.70314.5-.7031.5-2.8125 0-2.125-.5-2.8125-.48435-.7031-1.23435-.7031-.7188 0-1.1563.60936-.54685.78124-.54685 2.90624zm6.48435 4.2344v-1.20314h1.20315v1.20314q0 .65624-.23435 1.0625-.2344.42186-.7344.6406l-.2969-.4531q.32815-.14064.4844-.4375.15625-.28126.1875-.8125zm2.4375-2.25 1.1094-.09376q.125.8125.5625 1.21876.4531.40624 1.09375.40624.75 0 1.28125-.57814.53125-.5781.53125-1.5156 0-.90626-.51565-1.4219-.5-.53124-1.3281-.53124-.5 0-.9219.23438-.4062.23436-.6406.59376l-.9844-.125.82815-4.40626h4.28125v1h-3.4375l-.4531 2.3125q.7656-.54688 1.60935-.54688 1.125 0 1.89065.78124.7812.78126.7812 2.01564 0 1.15626-.67185 2.01562-.82815 1.03124-2.25 1.03124-1.17185 0-1.92185-.65624-.7344-.65626-.8438-1.73436z" stroke="#fff" stroke-linecap="round" stroke-linejoin="round" stroke-width="3"/>
  <path d="m712.934 472.7968q0-1.53124.3125-2.4531.3125-.9375.9219-1.4375.625-.5 1.5625-.5.6875 0 1.2031.28124.5313.28126.875.8125.3438.51562.5313 1.26562.1875.75.1875 2.03124 0 1.51564-.3125 2.4375-.2969.9219-.9219 1.4375-.6094.5-1.5625.5-1.2344 0-1.9531-.8906-.8438-1.0625-.8438-3.4844zm1.07815 0q0 2.1094.5 2.8125.5.70314 1.21875.70314.7344 0 1.21875-.70314.5-.7031.5-2.8125 0-2.125-.5-2.8125-.48435-.7031-1.23435-.7031-.7188 0-1.1563.60936-.54685.78124-.54685 2.90624zm6.48435 4.2344v-1.20314h1.20315v1.20314q0 .65624-.23435 1.0625-.2344.42186-.7344.6406l-.2969-.4531q.32815-.14064.4844-.4375.15625-.28126.1875-.8125zm2.4375-2.25 1.1094-.09376q.125.8125.5625 1.21876.4531.40624 1.09375.40624.75 0 1.28125-.57814.53125-.5781.53125-1.5156 0-.90626-.51565-1.4219-.5-.53124-1.3281-.53124-.5 0-.9219.23438-.4062.23436-.6406.59376l-.9844-.125.82815-4.40626h4.28125v1h-3.4375l-.4531 2.3125q.7656-.54688 1.60935-.54688 1.125 0 1.89065.78124.7812.78126.7812 2.01564 0 1.15626-.67185 2.01562-.82815 1.03124-2.25 1.03124-1.17185 0-1.92185-.65624-.7344-.65626-.8438-1.73436z" fill="#ea4335"/>
  <path d="m978.7875 558.81146q0-1.53126.3125-2.45312.3125-.9375.92185-1.4375.625-.5 1.5625-.5.6875 0 1.20315.28126.5312.28124.875.8125.3437.5156.5312 1.2656.1875.75.1875 2.03126 0 1.51564-.3125 2.4375-.29685.92188-.92185 1.4375-.60935.5-1.5625.5-1.23435 0-1.95315-.89062-.8437-1.0625-.8437-3.48438zm1.0781 0q0 2.10938.5 2.8125.5.70314 1.21875.70314.73435 0 1.21875-.70314.5-.70312.5-2.8125 0-2.125-.5-2.8125-.4844-.70312-1.2344-.70312-.7187 0-1.1562.60936-.5469.78126-.5469 2.90626zm6.4844 4.23438v-1.20314h1.2031v1.20314q0 .65626-.2344 1.0625-.23435.42186-.73435.64062l-.29685-.45312q.3281-.14064.48435-.4375.15625-.28124.1875-.8125zm2.4375-2.26564 1.0625-.1406q.17185.8906.60935 1.29686.4375.39064 1.0625.39064.75 0 1.26565-.51564.5156-.51562.5156-1.28126 0-.71874-.4844-1.1875-.4687-.48436-1.2031-.48436-.2969 0-.75.125l.125-.9375q.1094.01562.1719.01562.67185 0 1.2031-.34376.5469-.35936.5469-1.09374 0-.57812-.39065-.95312-.39065-.39064-1.01565-.39064-.60935 0-1.0312.39064-.4063.39062-.51565 1.15626l-1.0625-.1875q.1875-1.0469.875-1.625.6875-.59376 1.70315-.59376.7031 0 1.29685.3125.59375.29686.90625.8125.3125.51562.3125 1.10936 0 .5469-.2969 1.01564-.29685.45312-.875.71876.75.17186 1.1719.73436.4219.54688.4219 1.39064 0 1.125-.82815 1.90624-.8125.78126-2.0625.78126-1.125 0-1.875-.6719-.75-.6875-.85935-1.75zm10.9687 2.26564h-1.04685v-6.71874q-.39065.35936-1.01565.73436-.60935.35938-1.0937.53124v-1.0156q.875-.4219 1.5312-1 .6719-.59376.95315-1.15626h.67185z" stroke="#fff" stroke-linecap="round" stroke-linejoin="round" stroke-width="3"/>
  <path d="m978.7875 558.81146q0-1.53126.3125-2.45312.3125-.9375.92185-1.4375.625-.5 1.5625-.5.6875 0 1.20315.28126.5312.28124.875.8125.3437.5156.5312 1.2656.1875.75.1875 2.03126 0 1.51564-.3125 2.4375-.29685.92188-.92185 1.4375-.60935.5-1.5625.5-1.23435 0-1.95315-.89062-.8437-1.0625-.8437-3.48438zm1.0781 0q0 2.10938.5 2.8125.5.70314 1.21875.70314.73435 0 1.21875-.70314.5-.70312.5-2.8125 0-2.125-.5-2.8125-.4844-.70312-1.2344-.70312-.7187 0-1.1562.60936-.5469.78126-.5469 2.90626zm6.4844 4.23438v-1.20314h1.2031v1.20314q0 .65626-.2344 1.0625-.23435.42186-.73435.64062l-.29685-.45312q.3281-.14064.48435-.4375.15625-.28124.1875-.8125zm2.4375-2.26564 1.0625-.1406q.17185.8906.60935 1.29686.4375.39064 1.0625.39064.75 0 1.26565-.51564.5156-.51562.5156-1.28126 0-.71874-.4844-1.1875-.4687-.48436-1.2031-.48436-.2969 0-.75.125l.125-.9375q.1094.01562.1719.01562.67185 0 1.2031-.34376.5469-.35936.5469-1.09374 0-.57812-.39065-.95312-.39065-.39064-1.01565-.39064-.60935 0-1.0312.39064-.4063.39062-.51565 1.15626l-1.0625-.1875q.1875-1.0469.875-1.625.6875-.59376 1.70315-.59376.7031 0 1.29685.3125.59375.29686.90625.8125.3125.51562.3125 1.10936 0 .5469-.2969 1.01564-.29685.45312-.875.71876.75.17186 1.1719.73436.4219.54688.4219 1.39064 0 1.125-.82815 1.90624-.8125.78126-2.0625.78126-1.125 0-1.875-.6719-.75-.6875-.85935-1.75zm10.9687 2.26564h-1.04685v-6.71874q-.39065.35936-1.01565.73436-.60935.35938-1.0937.53124v-1.0156q.875-.4219 1.5312-1 .6719-.59376.95315-1.15626h.67185z" fill="#ea4335"/>
  <path d="m201.53078 119.54085q0-1.53125.3125-2.45313.3125-.9375.92187-1.4375.625-.5 1.5625-.5.6875 0 1.20313.28125.53125.28125.875.8125.34375.51563.53125 1.26563.1875.75.1875 2.03125 0 1.51562-.3125 2.4375-.29688.92187-.92188 1.4375-.60937.5-1.5625.5-1.23437 0-1.95312-.89063-.84375-1.0625-.84375-3.48437zm1.07812 0q0 2.10937.5 2.8125.5.70312 1.21875.70312.73438 0 1.21875-.70312.5-.70313.5-2.8125 0-2.125-.5-2.8125-.48437-.70313-1.23437-.70313-.71875 0-1.15625.60938-.54688.78125-.54688 2.90625zm6.48438 4.23437v-1.20312h1.20312v1.20312q0 .65625-.23437 1.0625-.23438.42188-.73438.64063l-.29687-.45313q.32812-.14062.48437-.4375.15625-.28125.1875-.8125zm2.59375-1.98437 1.01562-.09375q.125.71875.48438 1.04687.375.3125.9375.3125.48437 0 .84375-.21875.375-.23437.60937-.59375.23438-.375.39063-1 .15625-.64062.15625-1.29687 0-.07813 0-.21875-.3125.5-.85938.82812-.54687.3125-1.1875.3125-1.07812 0-1.8125-.76562-.73437-.78125-.73437-2.04688 0-1.3125.76562-2.10937.78125-.79688 1.9375-.79688.82813 0 1.51563.45313.70312.45312 1.0625 1.29687.35937.82813.35937 2.40625 0 1.64063-.35937 2.625-.34375.96875-1.0625 1.48438-.70313.5-1.64063.5-1.01562 0-1.65625-.54688-.64062-.5625-.76562-1.57812zm4.3125-3.79688q0-.90625-.48438-1.4375-.46875-.53125-1.15625-.53125-.70312 0-1.23437.57813-.51563.5625-.51563 1.48437 0 .8125.5 1.32813.5.51562 1.21875.51562.73438 0 1.20313-.51562.46875-.51563.46875-1.42188zm2.6875 3.79688 1.01562-.09375q.125.71875.48438 1.04687.375.3125.9375.3125.48437 0 .84375-.21875.375-.23437.60937-.59375.23438-.375.39063-1 .15625-.64062.15625-1.29687 0-.07813 0-.21875-.3125.5-.85938.82812-.54687.3125-1.1875.3125-1.07812 0-1.8125-.76562-.73437-.78125-.73437-2.04688 0-1.3125.76562-2.10937.78125-.79688 1.9375-.79688.82813 0 1.51563.45313.70312.45312 1.0625 1.29687.35937.82813.35937 2.40625 0 1.64063-.35937 2.625-.34375.96875-1.0625 1.48438-.70313.5-1.64063.5-1.01562 0-1.65625-.54688-.64062-.5625-.76562-1.57812zm4.3125-3.79688q0-.90625-.48438-1.4375-.46875-.53125-1.15625-.53125-.70312 0-1.23437.57813-.51563.5625-.51563 1.48437 0 .8125.5 1.32813.5.51562 1.21875.51562.73438 0 1.20313-.51562.46875-.51563.46875-1.42188z" stroke="#fff" stroke-linecap="round" stroke-linejoin="round" stroke-width="3"/>
  <path d="m201.53078 119.54085q0-1.53125.3125-2.45313.3125-.9375.92187-1.4375.625-.5 1.5625-.5.6875 0 1.20313.28125.53125.28125.875.8125.34375.51563.53125 1.26563.1875.75.1875 2.03125 0 1.51562-.3125 2.4375-.29688.92187-.92188 1.4375-.60937.5-1.5625.5-1.23437 0-1.95312-.89063-.84375-1.0625-.84375-3.48437zm1.07812 0q0 2.10937.5 2.8125.5.70312 1.21875.70312.73438 0 1.21875-.70312.5-.70313.5-2.8125 0-2.125-.5-2.8125-.48437-.70313-1.23437-.70313-.71875 0-1.15625.60938-.54688.78125-.54688 2.90625zm6.48438 4.23437v-1.20312h1.20312v1.20312q0 .65625-.23437 1.0625-.23438.42188-.73438.64063l-.29687-.45313q.32812-.14062.48437-.4375.15625-.28125.1875-.8125zm2.59375-1.98437 1.01562-.09375q.125.71875.48438 1.04687.375.3125.9375.3125.48437 0 .84375-.21875.375-.23437.60937-.59375.23438-.375.39063-1 .15625-.64062.15625-1.29687 0-.07813 0-.21875-.3125.5-.85938.82812-.54687.3125-1.1875.3125-1.07812 0-1.8125-.76562-.73437-.78125-.73437-2.04688 0-1.3125.76562-2.10937.78125-.79688 1.9375-.79688.82813 0 1.51563.45313.70312.45312 1.0625 1.29687.35937.82813.35937 2.40625 0 1.64063-.35937 2.625-.34375.96875-1.0625 1.48438-.70313.5-1.64063.5-1.01562 0-1.65625-.54688-.64062-.5625-.76562-1.57812zm4.3125-3.79688q0-.90625-.48438-1.4375-.46875-.53125-1.15625-.53125-.70312 0-1.23437.57813-.51563.5625-.51563 1.48437 0 .8125.5 1.32813.5.51562 1.21875.51562.73438 0 1.20313-.51562.46875-.51563.46875-1.42188zm2.6875 3.79688 1.01562-.09375q.125.71875.48438 1.04687.375.3125.9375.3125.48437 0 .84375-.21875.375-.23437.60937-.59375.23438-.375.39063-1 .15625-.64062.15625-1.29687 0-.07813 0-.21875-.3125.5-.85938.82812-.54687.3125-1.1875.3125-1.07812 0-1.8125-.76562-.73437-.78125-.73437-2.04688 0-1.3125.76562-2.10937.78125-.79688 1.9375-.79688.82813 0 1.51563.45313.70312.45312 1.0625 1.29687.35937.82813.35937 2.40625 0 1.64063-.35937 2.625-.34375.96875-1.0625 1.48438-.70313.5-1.64063.5-1.01562 0-1.65625-.54688-.64062-.5625-.76562-1.57812zm4.3125-3.79688q0-.90625-.48438-1.4375-.46875-.53125-1.15625-.53125-.70312 0-1.23437.57813-.51563.5625-.51563 1.48437 0 .8125.5 1.32813.5.51562 1.21875.51562.73438 0 1.20313-.51562.46875-.51563.46875-1.42188z" fill="#34a853"/>
  <path d="m449.7375 202.97395q0-1.53125.3125-2.45312.3125-.9375.92186-1.4375.625-.5 1.5625-.5.6875 0 1.20314.28125.53124.28125.875.8125.34374.51562.53124 1.26562.1875.75.1875 2.03125 0 1.51563-.3125 2.4375-.29688.92188-.92188 1.4375-.60936.5-1.5625.5-1.23436 0-1.95312-.89062-.84374-1.0625-.84374-3.48438zm1.0781 0q0 2.10938.5 2.8125.5.70313 1.21876.70313.73438 0 1.21874-.70313.5-.70312.5-2.8125 0-2.125-.5-2.8125-.48436-.70312-1.23436-.70312-.71874 0-1.15624.60937-.5469.78125-.5469 2.90625zm6.4844 4.23438v-1.20313h1.2031v1.20313q0 .65625-.23436 1.0625-.23438.42187-.73438.64062l-.29686-.45312q.3281-.14063.48436-.4375.15624-.28125.1875-.8125zm4.0625-4.65625q-.65626-.25-.9844-.6875-.3125-.45313-.3125-1.0625 0-.9375.6719-1.57813.6875-.64062 1.79686-.64062 1.125 0 1.8125.65625.6875.65625.6875 1.59375 0 .59375-.3125 1.03125-.3125.4375-.95312.6875.79686.25 1.20312.82812.40624.57813.40624 1.375 0 1.09375-.78124 1.84375-.76562.75-2.04686.75-1.26564 0-2.0469-.75-.78124-.75-.78124-1.875 0-.84375.42188-1.40625.4375-.5625 1.21876-.76562zm-.21876-1.79688q0 .60938.39062 1 .40624.39063 1.03124.39063.6094 0 1-.375.39064-.39063.39064-.95313 0-.57812-.40624-.96875-.40626-.40625-1-.40625-.6094 0-1.01564.39063-.39062.39062-.39062.92187zm-.32814 3.96875q0 .45313.20314.875.21876.42188.64062.65625.42188.23438.90624.23438.75 0 1.2344-.48438.5-.48437.5-1.23437 0-.76563-.5-1.26563-.5-.5-1.26564-.5-.75 0-1.23436.5-.4844.48438-.4844 1.21875zm5.9219.23438 1.10936-.09375q.125.8125.5625 1.21875.45314.40625 1.09374.40625.75 0 1.28126-.57813.53124-.57812.53124-1.51562 0-.90625-.5156-1.42188-.5-.53125-1.32814-.53125-.5 0-.92186.23438-.40626.23437-.64064.59375l-.98436-.125.8281-4.40625h4.28126v1h-3.4375l-.45312 2.3125q.76562-.54688 1.60936-.54688 1.125 0 1.89064.78125.78126.78125.78126 2.01563 0 1.15625-.6719 2.01562-.8281 1.03125-2.25 1.03125-1.17186 0-1.92186-.65625-.73438-.65625-.84374-1.73437z" stroke="#fff" stroke-linecap="round" stroke-linejoin="round" stroke-width="3"/>
  <path d="m449.7375 202.97395q0-1.53125.3125-2.45312.3125-.9375.92186-1.4375.625-.5 1.5625-.5.6875 0 1.20314.28125.53124.28125.875.8125.34374.51562.53124 1.26562.1875.75.1875 2.03125 0 1.51563-.3125 2.4375-.29688.92188-.92188 1.4375-.60936.5-1.5625.5-1.23436 0-1.95312-.89062-.84374-1.0625-.84374-3.48438zm1.0781 0q0 2.10938.5 2.8125.5.70313 1.21876.70313.73438 0 1.21874-.70313.5-.70312.5-2.8125 0-2.125-.5-2.8125-.48436-.70312-1.23436-.70312-.71874 0-1.15624.60937-.5469.78125-.5469 2.90625zm6.4844 4.23438v-1.20313h1.2031v1.20313q0 .65625-.23436 1.0625-.23438.42187-.73438.64062l-.29686-.45312q.3281-.14063.48436-.4375.15624-.28125.1875-.8125zm4.0625-4.65625q-.65626-.25-.9844-.6875-.3125-.45313-.3125-1.0625 0-.9375.6719-1.57813.6875-.64062 1.79686-.64062 1.125 0 1.8125.65625.6875.65625.6875 1.59375 0 .59375-.3125 1.03125-.3125.4375-.95312.6875.79686.25 1.20312.82812.40624.57813.40624 1.375 0 1.09375-.78124 1.84375-.76562.75-2.04686.75-1.26564 0-2.0469-.75-.78124-.75-.78124-1.875 0-.84375.42188-1.40625.4375-.5625 1.21876-.76562zm-.21876-1.79688q0 .60938.39062 1 .40624.39063 1.03124.39063.6094 0 1-.375.39064-.39063.39064-.95313 0-.57812-.40624-.96875-.40626-.40625-1-.40625-.6094 0-1.01564.39063-.39062.39062-.39062.92187zm-.32814 3.96875q0 .45313.20314.875.21876.42188.64062.65625.42188.23438.90624.23438.75 0 1.2344-.48438.5-.48437.5-1.23437 0-.76563-.5-1.26563-.5-.5-1.26564-.5-.75 0-1.23436.5-.4844.48438-.4844 1.21875zm5.9219.23438 1.10936-.09375q.125.8125.5625 1.21875.45314.40625 1.09374.40625.75 0 1.28126-.57813.53124-.57812.53124-1.51562 0-.90625-.5156-1.42188-.5-.53125-1.32814-.53125-.5 0-.92186.23438-.40626.23437-.64064.59375l-.98436-.125.8281-4.40625h4.28126v1h-3.4375l-.45312 2.3125q.76562-.54688 1.60936-.54688 1.125 0 1.89064.78125.78126.78125.78126 2.01563 0 1.15625-.6719 2.01562-.8281 1.03125-2.25 1.03125-1.17186 0-1.92186-.65625-.73438-.65625-.84374-1.73437z" fill="#34a853"/>
  <path d="m728.58264 436.8204q0-1.53125.3125-2.45312.3125-.9375.92186-1.4375.625-.5 1.5625-.5.6875 0 1.20314.28125.53126.28125.875.8125.34376.51562.53126 1.26562.1875.75.1875 2.03125 0 1.51563-.3125 2.4375-.2969.92188-.9219 1.4375-.60936.5-1.5625.5-1.23436 0-1.9531-.89062-.84376-1.0625-.84376-3.48438zm1.07813 0q0 2.10938.5 2.8125.5.70313 1.21873.70313.7344 0 1.21877-.70313.5-.70312.5-2.8125 0-2.125-.5-2.8125-.48437-.70312-1.23437-.70312-.71876 0-1.15626.60937-.54687.78125-.54687 2.90625zm6.48437 4.23438v-1.20313h1.20313v1.20313q0 .65625-.23437 1.0625-.2344.42187-.7344.64062l-.29686-.45312q.32813-.14063.48436-.4375.15627-.28125.1875-.8125zm2.4375-2.25 1.10936-.09375q.125.8125.5625 1.21875.45314.40625 1.09377.40625.75 0 1.28123-.57813.53127-.57812.53127-1.51562 0-.90625-.51563-1.42188-.5-.53125-1.32814-.53125-.5 0-.92186.23438-.40624.23437-.64064.59375l-.98436-.125.82813-4.40625h4.28123v1h-3.4375l-.4531 2.3125q.7656-.54688 1.60937-.54688 1.125 0 1.89063.78125.78124.78125.78124 2.01563 0 1.15625-.67187 2.01562-.82813 1.03125-2.25 1.03125-1.17187 0-1.92187-.65625-.7344-.65625-.84376-1.73437zm10.96876 2.25h-1.0469v-6.71875q-.3906.35937-1.0156.73437-.6094.35938-1.09376.53125v-1.01562q.875-.42188 1.53126-1 .67187-.59375.9531-1.15625h.6719z" stroke="#fff" stroke-linecap="round" stroke-linejoin="round" stroke-width="3"/>
  <path d="m728.58264 436.8204q0-1.53125.3125-2.45312.3125-.9375.92186-1.4375.625-.5 1.5625-.5.6875 0 1.20314.28125.53126.28125.875.8125.34376.51562.53126 1.26562.1875.75.1875 2.03125 0 1.51563-.3125 2.4375-.2969.92188-.9219 1.4375-.60936.5-1.5625.5-1.23436 0-1.9531-.89062-.84376-1.0625-.84376-3.48438zm1.07813 0q0 2.10938.5 2.8125.5.70313 1.21873.70313.7344 0 1.21877-.70313.5-.70312.5-2.8125 0-2.125-.5-2.8125-.48437-.70312-1.23437-.70312-.71876 0-1.15626.60937-.54687.78125-.54687 2.90625zm6.48437 4.23438v-1.20313h1.20313v1.20313q0 .65625-.23437 1.0625-.2344.42187-.7344.64062l-.29686-.45312q.32813-.14063.48436-.4375.15627-.28125.1875-.8125zm2.4375-2.25 1.10936-.09375q.125.8125.5625 1.21875.45314.40625 1.09377.40625.75 0 1.28123-.57813.53127-.57812.53127-1.51562 0-.90625-.51563-1.42188-.5-.53125-1.32814-.53125-.5 0-.92186.23438-.40624.23437-.64064.59375l-.98436-.125.82813-4.40625h4.28123v1h-3.4375l-.4531 2.3125q.7656-.54688 1.60937-.54688 1.125 0 1.89063.78125.78124.78125.78124 2.01563 0 1.15625-.67187 2.01562-.82813 1.03125-2.25 1.03125-1.17187 0-1.92187-.65625-.7344-.65625-.84376-1.73437zm10.96876 2.25h-1.0469v-6.71875q-.3906.35937-1.0156.73437-.6094.35938-1.09376.53125v-1.01562q.875-.42188 1.53126-1 .67187-.59375.9531-1.15625h.6719z" fill="#34a853"/>
  <path d="m1002.0993 589.18286q0-1.53126.3125-2.45312.3125-.9375.9219-1.4375.625-.5 1.5625-.5.6875 0 1.2031.28126.53125.28124.875.8125.34375.5156.53125 1.2656.1875.75.1875 2.03126 0 1.51564-.3125 2.4375-.29685.92188-.92185 1.4375-.6094.5-1.5625.5-1.2344 0-1.95315-.89062-.84375-1.0625-.84375-3.48438zm1.0781 0q0 2.10938.5 2.8125.5.70314 1.2188.70314.73435 0 1.2187-.70314.5-.70312.5-2.8125 0-2.125-.5-2.8125-.48435-.70312-1.23435-.70312-.71875 0-1.15625.60936-.5469.78126-.5469 2.90626zm6.4844 4.23438v-1.20314h1.2031v1.20314q0 .65626-.23435 1.0625-.23435.42186-.73435.64062l-.2969-.45312q.3281-.14064.4844-.4375.1562-.28124.1875-.8125zm2.4375-2.26564 1.0625-.1406q.1719.8906.6094 1.29686.4375.39064 1.0625.39064.75 0 1.2656-.51564.5156-.51562.5156-1.28126 0-.71874-.48435-1.1875-.46875-.48436-1.20315-.48436-.29685 0-.75.125l.125-.9375q.1094.01562.1719.01562.6719 0 1.2031-.34376.5469-.35936.5469-1.09374 0-.57812-.3906-.95312-.39065-.39064-1.01565-.39064-.60935 0-1.03125.39064-.40625.39062-.5156 1.15626l-1.0625-.1875q.1875-1.0469.875-1.625.6875-.59376 1.7031-.59376.7031 0 1.2969.3125.5937.29686.9062.8125.3125.51562.3125 1.10936 0 .5469-.29685 1.01564-.29685.45312-.875.71876.75.17186 1.17185.73436.4219.54688.4219 1.39064 0 1.125-.8281 1.90624-.8125.78126-2.0625.78126-1.125 0-1.875-.6719-.75-.6875-.8594-1.75zm10.96875 2.26564h-1.04685v-6.71874q-.39065.35936-1.01565.73436-.60935.35938-1.09375.53124v-1.0156q.875-.4219 1.53125-1 .67185-.59376.95315-1.15626h.67185z" stroke="#fff" stroke-linecap="round" stroke-linejoin="round" stroke-width="3"/>
  <path d="m1002.0993 589.18286q0-1.53126.3125-2.45312.3125-.9375.9219-1.4375.625-.5 1.5625-.5.6875 0 1.2031.28126.53125.28124.875.8125.34375.5156.53125 1.2656.1875.75.1875 2.03126 0 1.51564-.3125 2.4375-.29685.92188-.92185 1.4375-.6094.5-1.5625.5-1.2344 0-1.95315-.89062-.84375-1.0625-.84375-3.48438zm1.0781 0q0 2.10938.5 2.8125.5.70314 1.2188.70314.73435 0 1.2187-.70314.5-.70312.5-2.8125 0-2.125-.5-2.8125-.48435-.70312-1.23435-.70312-.71875 0-1.15625.60936-.5469.78126-.5469 2.90626zm6.4844 4.23438v-1.20314h1.2031v1.20314q0 .65626-.23435 1.0625-.23435.42186-.73435.64062l-.2969-.45312q.3281-.14064.4844-.4375.1562-.28124.1875-.8125zm2.4375-2.26564 1.0625-.1406q.1719.8906.6094 1.29686.4375.39064 1.0625.39064.75 0 1.2656-.51564.5156-.51562.5156-1.28126 0-.71874-.48435-1.1875-.46875-.48436-1.20315-.48436-.29685 0-.75.125l.125-.9375q.1094.01562.1719.01562.6719 0 1.2031-.34376.5469-.35936.5469-1.09374 0-.57812-.3906-.95312-.39065-.39064-1.01565-.39064-.60935 0-1.03125.39064-.40625.39062-.5156 1.15626l-1.0625-.1875q.1875-1.0469.875-1.625.6875-.59376 1.7031-.59376.7031 0 1.2969.3125.5937.29686.9062.8125.3125.51562.3125 1.10936 0 .5469-.29685 1.01564-.29685.45312-.875.71876.75.17186 1.17185.73436.4219.54688.4219 1.39064 0 1.125-.8281 1.90624-.8125.78126-2.0625.78126-1.125 0-1.875-.6719-.75-.6875-.8594-1.75zm10.96875 2.26564h-1.04685v-6.71874q-.39065.35936-1.01565.73436-.60935.35938-1.09375.53124v-1.0156q.875-.4219 1.53125-1 .67185-.59376.95315-1.15626h.67185z" fill="#34a853"/>
  <path d="m580.5469 666.8177 1.0625-.09376q.0781.65626.35935 1.0625.28125.40626.85935.67186.5938.25 1.32815.25.64065 0 1.14065-.1875.5-.2031.73435-.53124.25-.34376.25-.73436 0-.40626-.23435-.70314-.2344-.3125-.76565-.51562-.35935-.14064-1.54685-.42188-1.1719-.28126-1.64065-.53126-.625-.3281-.92185-.79686-.2969-.48438-.2969-1.07814 0-.6406.3594-1.2031.375-.57814 1.0781-.8594.71875-.29686 1.5781-.29686.95315 0 1.6875.3125.7344.29686 1.125.90626.39065.59374.4219 1.34374l-1.09375.07812q-.09375-.8125-.60935-1.21876-.5-.42186-1.4844-.42186-1.03125 0-1.5.375-.46875.375-.46875.90626 0 .46874.32815.7656.3281.2969 1.7031.6094 1.3906.3125 1.90625.54686.75.35938 1.10935.89064.3594.5156.3594 1.21874 0 .6875-.3906 1.29686-.39065.59376-1.125.9375-.7344.32814-1.6563.32814-1.17185 0-1.9687-.32814-.7813-.34374-1.2344-1.03124-.4375-.6875-.4531-1.54686zm8.2187 2.7656v-8.59374h1.0625v8.59374zm2.64065-3.10936q0-1.73438.95315-2.5625.79685-.6875 1.9531-.6875 1.28125 0 2.09375.84376.82815.8281.82815 2.3125 0 1.2031-.3594 1.8906-.3594.6875-1.0625 1.07814-.6875.375-1.5.375-1.2969 0-2.1094-.82814-.79685-.84374-.79685-2.42186zm1.07815 0q0 1.1875.5156 1.78126.53125.59374 1.3125.59374.7969 0 1.3125-.59374.5156-.59376.5156-1.8125 0-1.15626-.5312-1.75-.51565-.59376-1.2969-.59376-.78125 0-1.3125.59376-.5156.5781-.5156 1.78124zm8.60935 2.17186.15625.9219q-.4531.09374-.7969.09374-.5781 0-.8906-.17188-.3125-.1875-.4531-.48436-.125-.2969-.125-1.25v-3.57814h-.76565v-.8125h.76565v-1.54686l1.04685-.625v2.17186h1.0625v.8125h-1.0625v3.64064q0 .4531.04685.5781.0625.125.1875.20314.125.07812.3594.07812.1875 0 .46875-.03126zm.28125-.92186 1.03125-.15624q.09375.625.48435.9531.4063.32814 1.14065.32814.71875 0 1.0625-.28124.35935-.2969.35935-.70314 0-.35936-.3125-.5625-.2187-.14062-1.0781-.35936-1.15625-.2969-1.6094-.5-.4375-.21876-.67185-.59376-.23435-.375-.23435-.84374 0-.40626.1875-.76564.1875-.35936.5156-.59376.25-.17186.6719-.29686.42185-.125.92185-.125.71875 0 1.26565.21876.5625.2031.8281.5625.2656.35936.3594.9531l-1.0313.14064q-.0625-.46874-.4062-.73438-.32815-.28126-.95315-.28126-.71875 0-1.03125.25-.3125.2344-.3125.5625 0 .20314.125.3594.1406.17186.40625.28124.15625.0625.9375.26562 1.125.3125 1.5625.5.4375.1875.6875.54688.25.35936.25.90626 0 .53124-.3125 1-.29685.4531-.875.71874-.57815.25-1.3125.25-1.21875 0-1.85935-.5-.625-.51564-.7969-1.5z" fill="#000"/>
  <path d="m41.95 620.34894q0-1.53124.3125-2.45314.3125-.9375.921876-1.4375.625-.5 1.5625-.5.6875 0 1.203124.28126.53125.28124.875.8125.34375.51564.53125 1.26564.1875.75.1875 2.03124 0 1.51562-.3125 2.4375-.296874.92186-.921874 1.4375-.609376.5-1.5625.5-1.234376 0-1.953126-.89064-.84375-1.0625-.84375-3.48436zm1.078126 0q0 2.10936.5 2.8125.5.70312 1.21875.70312.734374 0 1.21875-.70312.5-.70314.5-2.8125 0-2.125-.5-2.8125-.484376-.70314-1.234376-.70314-.71875 0-1.15625.6094-.546874.78124-.546874 2.90624zm6.484374 4.23436v-1.2031h1.203126v1.2031q0 .65626-.234376 1.0625-.234374.4219-.734374.64064l-.296876-.45314q.328126-.1406.484376-.4375.15625-.28124.1875-.8125zm2.4375-2.2656 1.0625-.14064q.171876.89064.609376 1.29688.4375.39062 1.0625.39062.75 0 1.265624-.51562.515626-.51564.515626-1.28124 0-.71876-.484376-1.1875-.46875-.4844-1.203124-.4844-.296876 0-.75.125l.125-.9375q.109374.01564.171874.01564.671876 0 1.203126-.34374.546874-.3594.546874-1.09376 0-.57814-.390624-.95314-.390626-.3906-1.015626-.3906-.609374 0-1.03125.3906-.40625.39064-.515624 1.15626l-1.0625-.1875q.1875-1.04686.875-1.625.6875-.59376 1.703124-.59376.703126 0 1.296876.3125.59375.2969.90625.8125.3125.51564.3125 1.1094 0 .54686-.296876 1.0156-.296874.45314-.875.71876.75.17188 1.171876.73438.421874.54686.421874 1.39062 0 1.125-.828124 1.90624-.8125.78126-2.0625.78126-1.125 0-1.875-.67186-.75-.6875-.859376-1.75z" fill="#000"/>
  <path d="m41.95 488.55728q0-1.53125.3125-2.45312.3125-.9375.921876-1.4375.625-.5 1.5625-.5.6875 0 1.203124.28124.53125.28126.875.8125.34375.51563.53125 1.26563.1875.75.1875 2.03125 0 1.51562-.3125 2.4375-.296874.92188-.921874 1.4375-.609376.5-1.5625.5-1.234376 0-1.953126-.89062-.84375-1.0625-.84375-3.48438zm1.078126 0q0 2.10938.5 2.8125.5.70312 1.21875.70312.734374 0 1.21875-.70312.5-.70312.5-2.8125 0-2.125-.5-2.8125-.484376-.70312-1.234376-.70312-.71875 0-1.15625.60937-.546874.78125-.546874 2.90625zm6.484374 4.23438v-1.20313h1.203126v1.20313q0 .65624-.234376 1.0625-.234374.42187-.734374.64062l-.296876-.45312q.328126-.14063.484376-.4375.15625-.28126.1875-.8125zm2.4375-2.25 1.109376-.09376q.125.8125.5625 1.21876.453124.40624 1.09375.40624.75 0 1.28125-.57812.53125-.57812.53125-1.51562 0-.90626-.515626-1.42188-.5-.53125-1.328124-.53125-.5 0-.921876.23437-.40625.23438-.640624.59376l-.984376-.125.828126-4.40626h4.28125v1h-3.4375l-.453126 2.3125q.765626-.54687 1.609376-.54687 1.125 0 1.890624.78125.78125.78125.78125 2.01562 0 1.15626-.671874 2.01563-.828126 1.03125-2.25 1.03125-1.171876 0-1.921876-.65625-.734374-.65625-.84375-1.73437z" fill="#000"/>
  <path d="m41.95 356.76562q0-1.53124.3125-2.45312.3125-.9375.921876-1.4375.625-.5 1.5625-.5.6875 0 1.203124.28125.53125.28125.875.8125.34375.51563.53125 1.26563.1875.75.1875 2.03124 0 1.51563-.3125 2.4375-.296874.92188-.921874 1.4375-.609376.5-1.5625.5-1.234376 0-1.953126-.89062-.84375-1.0625-.84375-3.48438zm1.078126 0q0 2.10938.5 2.8125.5.70313 1.21875.70313.734374 0 1.21875-.70313.5-.70312.5-2.8125 0-2.125-.5-2.8125-.484376-.70312-1.234376-.70312-.71875 0-1.15625.60938-.546874.78124-.546874 2.90624zm6.484374 4.23438v-1.20312h1.203126v1.20312q0 .65625-.234376 1.0625-.234374.42188-.734374.64062l-.296876-.45312q.328126-.14062.484376-.4375.15625-.28125.1875-.8125zm2.5-7.46875v-1.01563h5.5625v.82813q-.8125.875-1.625 2.32813-.796874 1.4375-1.234374 2.96874-.328126 1.07813-.40625 2.35938h-1.09375q.015624-1.01562.390624-2.45312.390626-1.4375 1.09375-2.76563.71875-1.32813 1.53125-2.25z" fill="#000"/>
  <path d="m41.95 224.97395q0-1.53125.3125-2.45312.3125-.9375.921876-1.4375.625-.5 1.5625-.5.6875 0 1.203124.28125.53125.28125.875.8125.34375.51562.53125 1.26562.1875.75.1875 2.03125 0 1.51563-.3125 2.4375-.296874.92188-.921874 1.4375-.609376.5-1.5625.5-1.234376 0-1.953126-.89062-.84375-1.0625-.84375-3.48438zm1.078126 0q0 2.10938.5 2.8125.5.70313 1.21875.70313.734374 0 1.21875-.70313.5-.70312.5-2.8125 0-2.125-.5-2.8125-.484376-.70312-1.234376-.70312-.71875 0-1.15625.60937-.546874.78125-.546874 2.90625zm6.484374 4.23438v-1.20313h1.203126v1.20313q0 .65625-.234376 1.0625-.234374.42187-.734374.64062l-.296876-.45312q.328126-.14063.484376-.4375.15625-.28125.1875-.8125zm2.59375-1.98438 1.015626-.09375q.125.71875.484374 1.04688.375.3125.9375.3125.484376 0 .84375-.21875.375-.23438.609376-.59375.234374-.375.390624-1 .15625-.64063.15625-1.29688 0-.07812 0-.21875-.3125.5-.859374.82813-.546876.3125-1.1875.3125-1.078126 0-1.8125-.76563-.734376-.78125-.734376-2.04687 0-1.3125.765626-2.10938.78125-.79687 1.9375-.79687.828124 0 1.515624.45312.703126.45313 1.0625 1.29688.359376.82812.359376 2.40625 0 1.64062-.359376 2.625-.34375.96875-1.0625 1.48437-.703124.5-1.640624.5-1.015626 0-1.65625-.54687-.640626-.5625-.765626-1.57813zm4.3125-3.79687q0-.90625-.484374-1.4375-.46875-.53125-1.15625-.53125-.703126 0-1.234376.57812-.515624.5625-.515624 1.48438 0 .8125.5 1.32812.5.51563 1.21875.51563.734374 0 1.203124-.51563.46875-.51562.46875-1.42187z" fill="#000"/>
  <path d="m45.91875 97.416664h-1.046874v-6.71875q-.390626.359376-1.015626.734376-.609374.359374-1.09375.53125v-1.015626q.875-.421874 1.53125-1 .671876-.59375.953126-1.15625h.671874zm3.59375 0v-1.203124h1.203126v1.203124q0 .65625-.234376 1.0625-.234374.421876-.734374.640626l-.296876-.453126q.328126-.140624.484376-.4375.15625-.28125.1875-.8125zm6.40625 0h-1.046874v-6.71875q-.390626.359376-1.015626.734376-.609374.359374-1.09375.53125v-1.015626q.875-.421874 1.53125-1 .671876-.59375.953126-1.15625h.671874z" fill="#000"/>
  <path d="m197.0875 637.5833v-2.0625h-3.71876v-.96874l3.92188-5.5625h.85938v5.5625h1.15624v.96874h-1.15624v2.0625zm0-3.03124v-3.85936l-2.6875 3.85936z" fill="#000"/>
  <path d="m459.8625 632.92706q-.65626-.25-.9844-.6875-.3125-.45312-.3125-1.0625 0-.9375.6719-1.57812.6875-.64064 1.79686-.64064 1.125 0 1.8125.65626.6875.65624.6875 1.59374 0 .59376-.3125 1.03126-.3125.4375-.95312.6875.79686.25 1.20312.82814.40624.5781.40624 1.375 0 1.09374-.78124 1.84374-.76562.75-2.04686.75-1.26564 0-2.0469-.75-.78124-.75-.78124-1.875 0-.84374.42188-1.40624.4375-.5625 1.21876-.76564zm-.21876-1.79686q0 .60936.39062 1 .40624.3906 1.03124.3906.6094 0 1-.375.39064-.3906.39064-.9531 0-.57814-.40624-.96876-.40626-.40624-1-.40624-.6094 0-1.01564.3906-.39062.39064-.39062.9219zm-.32814 3.96874q0 .45312.20314.875.21876.42186.64062.65626.42188.23436.90624.23436.75 0 1.2344-.48436.5-.4844.5-1.2344 0-.7656-.5-1.2656-.5-.5-1.26564-.5-.75 0-1.23436.5-.4844.48436-.4844 1.21874z" fill="#000"/>
  <path d="m723.23126 637.5833h-1.04686v-6.71874q-.39064.35938-1.01564.73438-.60936.35936-1.09376.53126v-1.01564q.875-.42186 1.53126-1 .67188-.59376.95314-1.15626h.67186zm8.5-6.48436-1.04686.07812q-.14064-.625-.39064-.90626-.4375-.4531-1.0625-.4531-.5 0-.89062.28124-.48438.375-.78124 1.07812-.28126.6875-.2969 1.96874.375-.5781.9219-.85936.5625-.28124 1.17186-.28124 1.04688 0 1.78124.78124.75.78126.75 2 0 .8125-.35936 1.51562-.34374.6875-.95314 1.0625-.60936.35938-1.375.35938-1.3281 0-2.15624-.96874-.82812-.96876-.82812-3.1875 0-2.5.92186-3.625.7969-.9844 2.15626-.9844 1.01564 0 1.65624.57814.65626.5625.78126 1.5625zm-4.29686 3.70312q0 .54688.21874 1.04688.23436.48436.64062.75.42188.26562.89064.26562.65624 0 1.1406-.53126.4844-.54686.4844-1.46874 0-.89062-.4844-1.40626-.46874-.5156-1.1875-.5156-.71874 0-1.21874.5156-.48436.51564-.48436 1.34376z" fill="#000"/>
  <path d="m983.7875 635.3177 1.0625-.14064q.17185.89064.60935 1.29688.4375.39062 1.0625.39062.75 0 1.26565-.51562.5156-.51564.5156-1.28124 0-.71876-.4844-1.1875-.4687-.4844-1.2031-.4844-.2969 0-.75.125l.125-.9375q.1094.01564.1719.01564.67185 0 1.2031-.34374.5469-.3594.5469-1.09376 0-.57814-.39065-.95314-.39065-.3906-1.01565-.3906-.60935 0-1.0312.3906-.4063.39064-.51565 1.15626l-1.0625-.1875q.1875-1.04686.875-1.625.6875-.59376 1.70315-.59376.7031 0 1.29685.3125.59375.2969.90625.8125.3125.51564.3125 1.1094 0 .54686-.2969 1.0156-.29685.45314-.875.71876.75.17188 1.1719.73438.4219.54686.4219 1.39062 0 1.125-.82815 1.90624-.8125.78126-2.0625.78126-1.125 0-1.875-.67186-.75-.6875-.85935-1.75zm12.54685 1.25v1.0156h-5.6875q0-.375.125-.73436.21875-.57814.6875-1.14064.48435-.5625 1.39065-1.29686 1.4062-1.15624 1.8906-1.82814.5-.67186.5-1.2656 0-.625-.4531-1.0469-.45315-.4375-1.1719-.4375-.7656 0-1.21875.45314-.45315.45312-.46875 1.26562l-1.0781-.10936q.10935-1.21876.8281-1.84376.7344-.64064 1.96875-.64064 1.23435 0 1.95315.6875.7187.6875.7187 1.70314 0 .51562-.2187 1.01562-.20315.48438-.70315 1.04688-.48435.54686-1.60935 1.5-.95315.79686-1.2344 1.09376-.2656.28124-.4375.5625z" fill="#000"/>
  <path d="m497 704.55c0 3.3137-2.68628 6-6 6s-6-2.6863-6-6c0-3.31373 2.68628-6 6-6s6 2.68627 6 6z" fill="#4285f4"/>
  <path d="m512.0625 705.53436 1.125.29688q-.3594 1.39062-1.28125 2.125-.92187.73436-2.26563.73436-1.39062 0-2.26562-.5625-.875-.5625-1.32812-1.625-.45313-1.0781-.45313-2.3125 0-1.34374.51563-2.34374.51562-1 1.45312-1.51562.95312-.51564 2.09375-.51564 1.28125 0 2.15625.65626.8906.65624 1.2344 1.84374l-1.12502.26564q-.29688-.9375-.875-1.35938-.5625-.4375-1.42188-.4375-.98438 0-1.65625.48438-.65625.46876-.9375 1.26562-.26563.79688-.26563 1.65624 0 1.09376.3125 1.90626.32813.8125 1 1.21874.67188.40626 1.46876.40626.95312 0 1.60937-.54686.67187-.5469.90625-1.64064zm6.8125 3.01564v-.9219q-.7344 1.0625-1.9844 1.0625-.54685 0-1.0312-.2031-.4688-.21876-.70315-.53126-.23435-.32814-.32815-.79688-.0625-.29686-.0625-.98436v-3.84376h1.0625v3.45312q0 .8125.0625 1.10938.0938.40626.4063.65626.3281.23436.8125.23436.4687 0 .875-.23436.42185-.25.5937-.6719.1875-.42186.1875-1.21874v-3.32812h1.0469v6.21876zm3.8906 0h-.98435v-8.59376h1.0625v3.0625q.67185-.82814 1.70315-.82814.5781 0 1.0781.2344.5156.21874.84375.6406.34375.4219.53125 1.01564.1875.59376.1875 1.26562 0 1.59374-.7969 2.46874-.79685.875-1.8906.875-1.1094 0-1.7344-.92186zm-.0156-3.15626q0 1.10936.3125 1.60936.5.8125 1.34375.8125.6875 0 1.1875-.59374.51565-.59376.51565-1.79686 0-1.21876-.4844-1.7969-.4844-.5781-1.1719-.5781-.6875 0-1.2031.60936-.5.59374-.5 1.73438zm10.2969 1.15626 1.0937.125q-.25.9531-.9531 1.48436-.7031.53124-1.78125.53124-1.35935 0-2.17185-.84374-.7969-.84376-.7969-2.35936 0-1.5625.8125-2.4219.8125-.875 2.09375-.875 1.25 0 2.03125.84376.7969.84374.7969 2.39064 0 .09374 0 .28124h-4.64065q.0625 1.03126.57815 1.57812.5156.53124 1.29685.53124.57815 0 .98435-.29686.4219-.3125.6563-.96874zm-3.45315-1.70314h3.46875q-.0625-.79686-.3906-1.1875-.51565-.60936-1.3125-.60936-.7344 0-1.2344.48436-.4844.48438-.53125 1.3125zm5.78125 1.84374 1.03125-.15624q.09375.625.48435.95314.4063.3281 1.14065.3281.71875 0 1.0625-.28124.35935-.29686.35935-.70312 0-.35938-.3125-.5625-.2187-.14064-1.0781-.35938-1.15625-.29686-1.6094-.5-.4375-.21876-.67185-.59376-.23435-.375-.23435-.84374 0-.40626.1875-.76562.1875-.35938.5156-.59374.25-.1719.6719-.2969.42185-.125.92185-.125.71875 0 1.26565.21876.5625.20314.8281.5625.2656.35938.3594.95314l-1.0313.1406q-.0625-.46874-.4062-.73436-.32815-.28124-.95315-.28124-.71875 0-1.03125.25-.3125.23436-.3125.5625 0 .2031.125.35936.1406.17188.40625.28124.15625.0625.9375.26564 1.125.3125 1.5625.5.4375.1875.6875.54686.25.3594.25.90626 0 .53124-.3125 1-.29685.45314-.875.71874-.57815.25-1.3125.25-1.21875 0-1.85935-.5-.625-.5156-.7969-1.5z" fill="#1a1a1a"/>
  <path d="m569 704.55c0 3.3137-2.6863 6-6 6s-6-2.6863-6-6c0-3.31373 2.6863-6 6-6s6 2.68627 6 6z" fill="#ea4335"/>
  <path d="m577.9219 708.55v-8.59376h3.25q.8437 0 1.29685.07812.64065.10938 1.0625.40624.4375.2969.6875.82814.26565.53126.26565 1.17186 0 1.09376-.70315 1.8594-.6875.75-2.51565.75h-2.2031v3.5zm1.1406-4.5h2.21875q1.10935 0 1.5625-.40626.46875-.42188.46875-1.17188 0-.53126-.28125-.90626-.26565-.3906-.70315-.5156-.29685-.07814-1.0625-.07814h-2.2031zm6.34375 1.3906q0-1.73436.95315-2.5625.79685-.6875 1.9531-.6875 1.28125 0 2.09375.84376.82815.82814.82815 2.3125 0 1.20314-.3594 1.89064-.3594.6875-1.0625 1.0781-.6875.375-1.5.375-1.2969 0-2.1094-.8281-.79685-.84376-.79685-2.4219zm1.07815 0q0 1.1875.5156 1.78126.53125.59374 1.3125.59374.7969 0 1.3125-.59374.5156-.59376.5156-1.8125 0-1.15626-.5312-1.75-.51565-.59376-1.2969-.59376-.78125 0-1.3125.59376-.5156.57814-.5156 1.78124zm6.2812 3.1094v-8.59376h1.0625v8.59376zm7.2813-2 1.0937.125q-.25.9531-.9531 1.48436-.7031.53124-1.78125.53124-1.35935 0-2.17185-.84374-.7969-.84376-.7969-2.35936 0-1.5625.8125-2.4219.8125-.875 2.09375-.875 1.25 0 2.03125.84376.7969.84374.7969 2.39064 0 .09374 0 .28124h-4.64065q.0625 1.03126.57815 1.57812.5156.53124 1.29685.53124.57815 0 .98435-.29686.4219-.3125.6563-.96874zm-3.45315-1.70314h3.46875q-.0625-.79686-.3906-1.1875-.51565-.60936-1.3125-.60936-.7344 0-1.2344.48436-.4844.48438-.53125 1.3125zm5.78125 1.84374 1.03125-.15624q.09375.625.48435.95314.4063.3281 1.14065.3281.71875 0 1.0625-.28124.35935-.29686.35935-.70312 0-.35938-.3125-.5625-.2187-.14064-1.0781-.35938-1.15625-.29686-1.6094-.5-.4375-.21876-.67185-.59376-.23435-.375-.23435-.84374 0-.40626.1875-.76562.1875-.35938.5156-.59374.25-.1719.6719-.2969.42185-.125.92185-.125.71875 0 1.26565.21876.5625.20314.8281.5625.2656.35938.3594.95314l-1.0313.1406q-.0625-.46874-.4062-.73436-.32815-.28124-.95315-.28124-.71875 0-1.03125.25-.3125.23436-.3125.5625 0 .2031.125.35936.1406.17188.40625.28124.15625.0625.9375.26564 1.125.3125 1.5625.5.4375.1875.6875.54686.25.3594.25.90626 0 .53124-.3125 1-.29685.45314-.875.71874-.57815.25-1.3125.25-1.21875 0-1.85935-.5-.625-.5156-.7969-1.5z" fill="#1a1a1a"/>
  <path d="m636 704.55c0 3.3137-2.6863 6-6 6s-6-2.6863-6-6c0-3.31373 2.6863-6 6-6s6 2.68627 6 6z" fill="#34a853"/>
  <path d="m644.5469 705.78436 1.0625-.09376q.0781.65626.35935 1.0625.28125.40626.85935.6719.5938.25 1.32815.25.64065 0 1.14065-.1875.5-.20314.73435-.53126.25-.34374.25-.73438 0-.40626-.23435-.70312-.2344-.3125-.76565-.51564-.35935-.1406-1.54685-.42186-1.1719-.28124-1.64065-.53124-.625-.32814-.92185-.7969-.2969-.48436-.2969-1.0781 0-.64064.3594-1.20314.375-.57812 1.0781-.85936.71875-.2969 1.5781-.2969.95315 0 1.6875.3125.7344.2969 1.125.90626.39065.59374.4219 1.34374l-1.09375.07814q-.09375-.8125-.60935-1.21874-.5-.4219-1.4844-.4219-1.03125 0-1.5.375-.46875.375-.46875.90626 0 .46874.32815.76564.3281.29686 1.7031.60936 1.3906.3125 1.90625.54688.75.35936 1.10935.89062.3594.51564.3594 1.21874 0 .6875-.3906 1.2969-.39065.59374-1.125.9375-.7344.3281-1.6563.3281-1.17185 0-1.9687-.3281-.7813-.34376-1.2344-1.03126-.4375-.6875-.4531-1.54688zm8.2187 2.76564v-8.59376h1.0625v8.59376zm7.0938-.76564q-.5938.5-1.14065.70314-.53125.2031-1.15625.2031-1.03125 0-1.5781-.5-.5469-.5-.5469-1.28124 0-.45312.2031-.82812.20315-.39064.5469-.60938.34375-.23436.7656-.34376.2969-.09374.9375-.17186 1.26565-.14064 1.875-.35938 0-.21876 0-.26562 0-.65624-.29685-.92188-.40625-.34376-1.20315-.34376-.73435 0-1.0937.26564-.3594.25-.5313.90626l-1.0312-.14064q.1406-.65626.4687-1.0625.32815-.40626.9375-.625.6094-.21876 1.4063-.21876.79685 0 1.29685.1875.5.1875.73435.46876.2344.28124.32815.71874.04685.26564.04685.96876v1.40624q0 1.46876.0625 1.8594.07815.3906.2813.75h-1.1094q-.15625-.32814-.2031-.76564zm-.0938-2.35936q-.5781.23436-1.7187.40624-.6563.09376-.9219.21876-.2656.10936-.4219.3281-.1406.21876-.1406.5 0 .4219.3125.70314.3281.28126.9375.28126.6094 0 1.0781-.26564.4844-.26562.70315-.73436.17185-.3594.17185-1.0469zm4 3.125h-.98435v-8.59376h1.0625v3.0625q.67185-.82814 1.70315-.82814.5781 0 1.0781.2344.5156.21874.84375.6406.34375.4219.53125 1.01564.1875.59376.1875 1.26562 0 1.59374-.7969 2.46874-.79685.875-1.8906.875-1.1094 0-1.7344-.92186zm-.0156-3.15626q0 1.10936.3125 1.60936.5.8125 1.34375.8125.6875 0 1.1875-.59374.51565-.59376.51565-1.79686 0-1.21876-.4844-1.7969-.4844-.5781-1.1719-.5781-.6875 0-1.2031.60936-.5.59374-.5 1.73438zm5.625 1.29686 1.03125-.15624q.09375.625.48435.95314.4063.3281 1.14065.3281.71875 0 1.0625-.28124.35935-.29686.35935-.70312 0-.35938-.3125-.5625-.2187-.14064-1.0781-.35938-1.15625-.29686-1.6094-.5-.4375-.21876-.67185-.59376-.23435-.375-.23435-.84374 0-.40626.1875-.76562.1875-.35938.5156-.59374.25-.1719.6719-.2969.42185-.125.92185-.125.71875 0 1.26565.21876.5625.20314.8281.5625.2656.35938.3594.95314l-1.0313.1406q-.0625-.46874-.4062-.73436-.32815-.28124-.95315-.28124-.71875 0-1.03125.25-.3125.23436-.3125.5625 0 .2031.125.35936.1406.17188.40625.28124.15625.0625.9375.26564 1.125.3125 1.5625.5.4375.1875.6875.54686.25.3594.25.90626 0 .53124-.3125 1-.29685.45314-.875.71874-.57815.25-1.3125.25-1.21875 0-1.85935-.5-.625-.5156-.7969-1.5z" fill="#1a1a1a"/>
  <path d="m39.028126 56.45v-14.3125h10.359374v1.6875h-8.453124v4.375h7.90625v1.6875h-7.90625v4.875h8.78125v1.6875zm13.15625 0v-9h-1.546876v-1.375h1.546876v-1.09375q0-1.046874.1875-1.5625.25-.6875.890624-1.109374.640626-.421876 1.796876-.421876.75 0 1.640624.171876l-.265624 1.53125q-.546876-.09375-1.03125-.09375-.796876 0-1.140626.34375-.328124.34375-.328124 1.28125v.953124h2.03125v1.375h-2.03125v9zm6 0v-9h-1.546876v-1.375h1.546876v-1.09375q0-1.046874.1875-1.5625.25-.6875.890624-1.109374.640626-.421876 1.796876-.421876.75 0 1.640624.171876l-.265624 1.53125q-.546876-.09375-1.03125-.09375-.796876 0-1.140626.34375-.328124.34375-.328124 1.28125v.953124h2.03125v1.375h-2.03125v9zm5.59375-12.296874v-2.015626h1.765624v2.015626zm0 12.296874v-10.375h1.765624v10.375zm10.765624-3.796874 1.71875.21875q-.28125 1.796874-1.45313 2.8125-1.15625 1-2.85937 1-2.125 0-3.42188-1.390626-1.29687-1.390624-1.29687-3.984374 0-1.6875.54687-2.9375.5625-1.265626 1.70313-1.890626 1.14062-.640624 2.48437-.640624 1.6875 0 2.75.859374 1.07813.859376 1.39063 2.421876l-1.71875.265624q-.23438-1.046874-.85938-1.5625-.625-.53125-1.5-.53125-1.32812 0-2.15625.953126-.82812.953124-.82812 3 0 2.09375.79687 3.046874.79688.9375 2.09375.9375 1.03125 0 1.71875-.625.70313-.640624.89063-1.953124zm3.23437-8.5v-2.015626h1.76563v2.015626zm0 12.296874v-10.375h1.76563v10.375zm11.09375-3.34375 1.8125.234376q-.42187 1.578124-1.59375 2.46875-1.15625.875-2.96875.875-2.26562 0-3.60937-1.390626-1.32813-1.40625-1.32813-3.9375 0-2.625 1.34375-4.0625 1.34375-1.453124 3.5-1.453124 2.07813 0 3.39063 1.421874 1.32812 1.40625 1.32812 3.984376 0 .15625-.01562.46875h-7.73438q.09375 1.703124.96875 2.609374.875.90625 2.17188.90625.96875 0 1.64062-.5.6875-.515624 1.09375-1.625zm-5.78125-2.84375h5.79688q-.10938-1.296874-.65625-1.953124-.84375-1.015626-2.1875-1.015626-1.20313 0-2.03125.8125-.82813.796876-.92188 2.15625zm9.67188 6.1875v-10.375h1.59375v1.484376q1.14062-1.71875 3.29687-1.71875.9375 0 1.71875.34375.79688.328124 1.1875.875.39063.546874.54688 1.296874.09375.5.09375 1.71875v6.375h-1.76563v-6.3125q0-1.078124-.20312-1.609374-.20313-.53125-.73438-.84375-.51562-.3125-1.21875-.3125-1.125 0-1.9375.71875-.8125.703124-.8125 2.6875v5.671874zm17.78125-3.796874 1.71875.21875q-.28125 1.796874-1.45313 2.8125-1.15625 1-2.85937 1-2.125 0-3.42188-1.390626-1.29687-1.390624-1.29687-3.984374 0-1.6875.54687-2.9375.5625-1.265626 1.70313-1.890626 1.14062-.640624 2.48437-.640624 1.6875 0 2.75.859374 1.07813.859376 1.39063 2.421876l-1.71875.265624q-.23438-1.046874-.85938-1.5625-.625-.53125-1.5-.53125-1.32812 0-2.15625.953126-.82812.953124-.82812 3 0 2.09375.79687 3.046874.79688.9375 2.09375.9375 1.03125 0 1.71875-.625.70313-.640624.89063-1.953124zm3.14062 7.796874-.1875-1.65625q.57813.15625 1 .15625.59375 0 .9375-.203124.35938-.1875.57813-.53125.17187-.265626.54687-1.3125.04688-.15625.15625-.4375l-3.9375-10.390626h1.89063l2.15625 6.015626q.42187 1.140624.75 2.390624.3125-1.203124.71875-2.359374l2.21875-6.046876h1.76562l-3.95312 10.546876q-.625 1.71875-.98438 2.359374-.46875.875-1.07812 1.265626-.59375.40625-1.4375.40625-.51563 0-1.14063-.203126zm16.5-4v-9h-1.54687v-1.375h1.54687v-1.09375q0-1.046874.1875-1.5625.25-.6875.89063-1.109374.64062-.421876 1.79687-.421876.75 0 1.64063.171876l-.26563 1.53125q-.54687-.09375-1.03125-.09375-.79687 0-1.14062.34375-.32813.34375-.32813 1.28125v.953124h2.03125v1.375h-2.03125v9zm4.9375-5.1875q0-2.875 1.59375-4.265624 1.34375-1.15625 3.26563-1.15625 2.14062 0 3.48437 1.40625 1.35938 1.40625 1.35938 3.875 0 2-.59375 3.15625-.59375 1.140624-1.75 1.78125-1.14063.625-2.5.625-2.1875 0-3.53125-1.390626-1.32813-1.40625-1.32813-4.03125zm1.79688 0q0 2 .85937 2.984376.875.984374 2.20313.984374 1.3125 0 2.17187-.984374.875-1 .875-3.046876 0-1.921874-.875-2.90625-.875-1-2.17187-1-1.32813 0-2.20313 1-.85937.984376-.85937 2.96875zm9.82812 5.1875v-10.375h1.57813v1.578126q.60937-1.109376 1.125-1.453126.51562-.359374 1.125-.359374.89062 0 1.8125.5625l-.60938 1.640624q-.64062-.390624-1.28125-.390624-.57812 0-1.04687.359374-.45313.34375-.65625.953126-.28125.9375-.28125 2.046874v5.4375zm13.28125 0v-14.3125h6.34375q1.90625 0 2.90625.390626 1 .375 1.59375 1.359374.59375.96875.59375 2.15625 0 1.515626-.98437 2.5625-.98438 1.046876-3.04688 1.328126.75.359374 1.14063.71875.82812.75 1.57812 1.90625l2.48438 3.890624h-2.375l-1.90625-2.984374q-.82813-1.28125-1.35938-1.96875-.53125-.6875-.96875-.953126-.42187-.28125-.85937-.390624-.32813-.0625-1.04688-.0625h-2.20312v6.359374zm1.89063-8h4.07812q1.29688 0 2.01563-.265624.73437-.265626 1.10937-.859376.39063-.59375.39063-1.28125 0-1.015624-.73438-1.671874-.73437-.65625-2.32812-.65625h-4.53125zm11.20312 2.8125q0-2.875 1.59375-4.265624 1.34375-1.15625 3.26563-1.15625 2.14062 0 3.48437 1.40625 1.35938 1.40625 1.35938 3.875 0 2-.59375 3.15625-.59375 1.140624-1.75 1.78125-1.14063.625-2.5.625-2.1875 0-3.53125-1.390626-1.32813-1.40625-1.32813-4.03125zm1.79688 0q0 2 .85937 2.984376.875.984374 2.20313.984374 1.3125 0 2.17187-.984374.875-1 .875-3.046876 0-1.921874-.875-2.90625-.875-1-2.17187-1-1.32813 0-2.20313 1-.85937.984376-.85937 2.96875zm9.20312 0q0-2.875 1.59375-4.265624 1.34375-1.15625 3.26563-1.15625 2.14062 0 3.48437 1.40625 1.35938 1.40625 1.35938 3.875 0 2-.59375 3.15625-.59375 1.140624-1.75 1.78125-1.14063.625-2.5.625-2.1875 0-3.53125-1.390626-1.32813-1.40625-1.32813-4.03125zm1.79688 0q0 2 .85937 2.984376.875.984374 2.20313.984374 1.3125 0 2.17187-.984374.875-1 .875-3.046876 0-1.921874-.875-2.90625-.875-1-2.17187-1-1.32813 0-2.20313 1-.85937.984376-.85937 2.96875zm9.84375 5.1875v-10.375h1.57812v1.453126q.48438-.75 1.29688-1.21875.8125-.46875 1.84375-.46875 1.15625 0 1.89062.484374.73438.46875 1.04688 1.328126 1.23437-1.8125 3.20312-1.8125 1.54688 0 2.375.859374.82813.859376.82813 2.625v7.125h-1.75v-6.53125q0-1.0625-.17188-1.515624-.17187-.46875-.625-.75-.4375-.28125-1.04687-.28125-1.09375 0-1.82813.734374-.71875.71875-.71875 2.3125v6.03125h-1.75v-6.734374q0-1.171876-.4375-1.75-.42187-.59375-1.40625-.59375-.73437 0-1.375.390624-.625.390626-.90625 1.140626-.28125.75-.28125 2.171874v5.375zm22.59375-4.59375 1.78125-.15625q.125 1.0625.57812 1.75.46875.6875 1.4375 1.125.98438.421876 2.21875.421876 1.07813 0 1.90625-.3125.82813-.328126 1.23438-.890626.40625-.5625.40625-1.234374 0-.671876-.39063-1.171876-.39062-.5-1.28125-.84375-.57812-.234374-2.5625-.703124-1.96875-.46875-2.75-.890626-1.03125-.53125-1.53125-1.328124-.5-.796876-.5-1.78125 0-1.09375.60938-2.03125.60937-.9375 1.79687-1.421876 1.1875-.5 2.625-.5 1.59375 0 2.8125.515626 1.21875.515624 1.85938 1.515624.65625.984376.70312 2.25l-1.8125.140626q-.14062-1.359376-.98437-2.046876-.84375-.703124-2.5-.703124-1.71875 0-2.51563.640624-.78125.625-.78125 1.5 0 .78125.5625 1.28125.54688.5 2.85938 1.015626 2.3125.515624 3.17187.90625 1.25.578124 1.84375 1.46875.59375.875.59375 2.03125 0 1.140624-.65625 2.15625-.65625 1.015624-1.89062 1.578124-1.21875.5625-2.75.5625-1.9375 0-3.25-.5625-1.3125-.578124-2.0625-1.71875-.75-1.140624-.78125-2.5625zm13.42187-7.703124v-2.015626h1.76563v2.015626zm0 12.296874v-10.375h1.76563v10.375zm3.0625 0v-1.421874l6.60938-7.578126q-1.125.046876-1.98438.046876h-4.23437v-1.421876h8.48437v1.171876l-5.625 6.578124-1.07812 1.203126q1.17187-.09375 2.21875-.09375h4.79687v1.515624zm18.03125-3.34375 1.8125.234376q-.42187 1.578124-1.59375 2.46875-1.15625.875-2.96875.875-2.26562 0-3.60937-1.390626-1.32813-1.40625-1.32813-3.9375 0-2.625 1.34375-4.0625 1.34375-1.453124 3.5-1.453124 2.07813 0 3.39063 1.421874 1.32812 1.40625 1.32812 3.984376 0 .15625-.01562.46875h-7.73438q.09375 1.703124.96875 2.609374.875.90625 2.17188.90625.96875 0 1.64062-.5.6875-.515624 1.09375-1.625zm-5.78125-2.84375h5.79688q-.10938-1.296874-.65625-1.953124-.84375-1.015626-2.1875-1.015626-1.20313 0-2.03125.8125-.82813.796876-.92188 2.15625zm15.45314 2.875 1.6875-.15625q.21874 1.1875.8125 1.734376.60938.53125 1.5625.53125.8125 0 1.42188-.359376.60936-.375 1-1 .39062-.625.65626-1.671874.2656-1.0625.2656-2.15625 0-.109376-.0156-.34375-.53126.828124-1.4375 1.359374-.90626.515626-1.9844.515626-1.7656 0-3-1.28125-1.23436-1.296876-1.23436-3.40625 0-2.171876 1.28126-3.5 1.29686-1.328126 3.21874-1.328126 1.40626 0 2.5625.75 1.15626.75 1.75 2.140626.60936 1.390624.60936 4.03125 0 2.75-.60936 4.375-.59374 1.625-1.76564 2.484374-1.17186.84375-2.75.84375-1.6875 0-2.75-.9375-1.0625-.9375-1.28124-2.625zm7.20314-6.3125q0-1.515624-.8125-2.40625-.7969-.890624-1.9375-.890624-1.1719 0-2.0469.96875-.85936.953124-.85936 2.46875 0 1.375.8125 2.234374.82812.84375 2.04686.84375 1.21876 0 2-.84375.7969-.859374.7969-2.375zm12.65624-1.1875-1.75.140626q-.23438-1.03125-.65624-1.5-.71876-.765626-1.76564-.765626-.84376 0-1.46876.46875-.8281.609376-1.3125 1.78125-.48436 1.15625-.5 3.296876.64064-.953126 1.5469-1.421876.92186-.46875 1.9375-.46875 1.75 0 2.98436 1.296876 1.23438 1.28125 1.23438 3.328124 0 1.359376-.57814 2.515626-.5781 1.15625-1.59374 1.78125-1.01562.609374-2.3125.609374-2.1875 0-3.57812-1.609374-1.39064-1.625-1.39064-5.34375 0-4.140626 1.53126-6.03125 1.34374-1.640626 3.60938-1.640626 1.6875 0 2.76562.953126 1.07814.9375 1.29688 2.609374zm-7.17188 6.171876q0 .90625.375 1.734374.39064.828126 1.07814 1.265626.7031.4375 1.4531.4375 1.125 0 1.9219-.890626.79686-.90625.79686-2.453124 0-1.484376-.79686-2.328126-.78126-.859374-1.9844-.859374-1.1875 0-2.0156.859374-.82814.84375-.82814 2.234376z" fill="#757575"/>
</svg>
