<?xml version="1.0"?>
<svg xmlns="http://www.w3.org/2000/svg" xmlns:xlink="http://www.w3.org/1999/xlink" fill="none" stroke-linecap="square" stroke-miterlimit="10" viewBox="0 0 1160 749">
  <clipPath id="a">
    <path d="m64.45 93.416664h1058.1v527.166636h-1058.1z"/>
  </clipPath>
  <path d="m0 0h1160v749h-1160z" fill="#fff"/>
  <g stroke-linecap="butt">
    <path d="m64.5 620.5h1058" stroke="#ccc"/>
    <path d="m64.5 562.5h1058" stroke="#ccc"/>
    <path d="m64.5 503.5h1058" stroke="#ccc"/>
    <path d="m64.5 444.5h1058" stroke="#ccc"/>
    <path d="m64.5 386.5h1058" stroke="#ccc"/>
    <path d="m64.5 327.5h1058" stroke="#ccc"/>
    <path d="m64.5 269.5h1058" stroke="#ccc"/>
    <path d="m64.5 210.5h1058" stroke="#ccc"/>
    <path d="m64.5 151.5h1058" stroke="#ccc"/>
    <path d="m64.5 93.5h1058" stroke="#ccc"/>
    <path d="m725.7625 351.54333v16" stroke="#eee"/>
    <path d="m196.7125 521.77814v-16" stroke="#eee"/>
    <path d="m461.2375 520.6067v-16.00004" stroke="#eee"/>
    <path d="m725.7625 283.38165v-16" stroke="#eee"/>
    <path d="m990.2875 175.60538v-16" stroke="#eee"/>
    <path d="m196.7125 488.60666v16" stroke="#eee"/>
    <path d="m461.2375 322.2563v16" stroke="#eee"/>
    <path d="m725.7625 244.93852v15.99998" stroke="#eee"/>
    <path d="m990.2875 137.16222v16" stroke="#eee"/>
    <path clip-path="url(#a)" d="m461.2375 354.65704 264.525 12.88629" stroke="#4285f4" stroke-width="2"/>
    <path clip-path="url(#a)" d="m196.7125 505.77814 264.525-1.17148 264.525-237.22501 264.525-107.77627" stroke="#ea4335" stroke-width="2"/>
    <path clip-path="url(#a)" d="m196.7125 504.60666 264.525-166.35036 264.525-77.3178 264.525-107.77628" stroke="#34a853" stroke-width="2"/>
  </g>
  <path clip-path="url(#a)" d="m467.2375 354.65704c0 3.31369-2.6863 6-6 6s-6-2.68631-6-6c0-3.31372 2.6863-6 6-6s6 2.68628 6 6z" fill="#4285f4"/>
  <path clip-path="url(#a)" d="m731.7625 367.54333c0 3.31373-2.68627 6-6 6-3.3137 0-6-2.68627-6-6s2.6863-6 6-6c3.31373 0 6 2.68627 6 6z" fill="#4285f4"/>
  <path clip-path="url(#a)" d="m202.7125 505.77814c0 3.31372-2.68629 6-6 6s-6-2.68628-6-6c0-3.31369 2.68629-6 6-6s6 2.68631 6 6z" fill="#ea4335"/>
  <path clip-path="url(#a)" d="m467.2375 504.60666c0 3.31372-2.6863 6-6 6s-6-2.68628-6-6c0-3.31369 2.6863-6 6-6s6 2.68631 6 6z" fill="#ea4335"/>
  <path clip-path="url(#a)" d="m731.7625 267.38165c0 3.31372-2.68627 6-6 6-3.3137 0-6-2.68628-6-6 0-3.31369 2.6863-6 6-6 3.31373 0 6 2.68631 6 6z" fill="#ea4335"/>
  <path clip-path="url(#a)" d="m996.2875 159.60538c0 3.3137-2.6863 6-6 6s-6-2.6863-6-6c0-3.31372 2.6863-6 6-6s6 2.68628 6 6z" fill="#ea4335"/>
  <path clip-path="url(#a)" d="m202.7125 504.60666c0 3.31372-2.68629 6-6 6s-6-2.68628-6-6c0-3.31369 2.68629-6 6-6s6 2.68631 6 6z" fill="#34a853"/>
  <path clip-path="url(#a)" d="m467.2375 338.2563c0 3.3137-2.6863 6-6 6s-6-2.6863-6-6 2.6863-6 6-6 6 2.6863 6 6z" fill="#34a853"/>
  <path clip-path="url(#a)" d="m731.7625 260.9385c0 3.31373-2.68627 6-6 6-3.3137 0-6-2.68627-6-6 0-3.31368 2.6863-5.99998 6-5.99998 3.31373 0 6 2.6863 6 5.99998z" fill="#34a853"/>
  <path clip-path="url(#a)" d="m996.2875 153.16222c0 3.31372-2.6863 6-6 6s-6-2.68628-6-6c0-3.31371 2.6863-6 6-6s6 2.68629 6 6z" fill="#34a853"/>
  <path d="m455.5393 368.38052-1.04687.07813q-.14063-.625-.39063-.90625-.4375-.45313-1.0625-.45313-.5 0-.89062.28125-.48438.375-.78125 1.07813-.28125.6875-.29687 1.96875.375-.57813.92187-.85938.5625-.28125 1.17187-.28125 1.04688 0 1.78126.78125.75.78125.75 2 0 .8125-.35938 1.51563-.34375.6875-.95312 1.0625-.60938.35937-1.375.35937-1.32813 0-2.15626-.96875-.82812-.96875-.82812-3.1875 0-2.5.92188-3.625.79687-.98437 2.15624-.98437 1.01563 0 1.65626.57812.65624.5625.78124 1.5625zm-4.29687 3.70313q0 .54687.21875 1.04687.23438.48438.64062.75.42188.26563.89063.26563.65625 0 1.14063-.53125.48437-.54688.48437-1.46875 0-.89063-.48437-1.40625-.46876-.51563-1.1875-.51563-.71876 0-1.21876.51563-.48437.51562-.48437 1.34375zm6.39063 2.78125v-1.20313h1.20312v1.20313q0 .65625-.23438 1.0625-.23437.42187-.73437.64062l-.29687-.45312q.32812-.14063.48437-.4375.15625-.28125.1875-.8125zm2.4375-2.25 1.10937-.09375q.125.8125.5625 1.21875.45313.40625 1.09375.40625.75 0 1.28125-.57813.53125-.57812.53125-1.51562 0-.90625-.51562-1.42188-.5-.53125-1.32813-.53125-.5 0-.92187.23438-.40626.23437-.64063.59375l-.98437-.125.82812-4.40625h4.28125v1h-3.4375l-.45313 2.3125q.76563-.54688 1.60938-.54688 1.125 0 1.89062.78125.78126.78125.78126 2.01563 0 1.15625-.67188 2.01562-.82812 1.03125-2.25 1.03125-1.17188 0-1.92188-.65625-.73437-.65625-.84374-1.73437zm10.375 2.25v-2.0625h-3.71876v-.96875l3.92188-5.5625h.85938v5.5625h1.15624v.96875h-1.15624v2.0625zm0-3.03125v-3.85938l-2.6875 3.85938z" stroke="#fff" stroke-linecap="round" stroke-linejoin="round" stroke-width="3"/>
  <path d="m455.5393 368.38052-1.04687.07813q-.14063-.625-.39063-.90625-.4375-.45313-1.0625-.45313-.5 0-.89062.28125-.48438.375-.78125 1.07813-.28125.6875-.29687 1.96875.375-.57813.92187-.85938.5625-.28125 1.17187-.28125 1.04688 0 1.78126.78125.75.78125.75 2 0 .8125-.35938 1.51563-.34375.6875-.95312 1.0625-.60938.35937-1.375.35937-1.32813 0-2.15626-.96875-.82812-.96875-.82812-3.1875 0-2.5.92188-3.625.79687-.98437 2.15624-.98437 1.01563 0 1.65626.57812.65624.5625.78124 1.5625zm-4.29687 3.70313q0 .54687.21875 1.04687.23438.48438.64062.75.42188.26563.89063.26563.65625 0 1.14063-.53125.48437-.54688.48437-1.46875 0-.89063-.48437-1.40625-.46876-.51563-1.1875-.51563-.71876 0-1.21876.51563-.48437.51562-.48437 1.34375zm6.39063 2.78125v-1.20313h1.20312v1.20313q0 .65625-.23438 1.0625-.23437.42187-.73437.64062l-.29687-.45312q.32812-.14063.48437-.4375.15625-.28125.1875-.8125zm2.4375-2.25 1.10937-.09375q.125.8125.5625 1.21875.45313.40625 1.09375.40625.75 0 1.28125-.57813.53125-.57812.53125-1.51562 0-.90625-.51562-1.42188-.5-.53125-1.32813-.53125-.5 0-.92187.23438-.40626.23437-.64063.59375l-.98437-.125.82812-4.40625h4.28125v1h-3.4375l-.45313 2.3125q.76563-.54688 1.60938-.54688 1.125 0 1.89062.78125.78126.78125.78126 2.01563 0 1.15625-.67188 2.01562-.82812 1.03125-2.25 1.03125-1.17188 0-1.92188-.65625-.73437-.65625-.84374-1.73437zm10.375 2.25v-2.0625h-3.71876v-.96875l3.92188-5.5625h.85938v5.5625h1.15624v.96875h-1.15624v2.0625zm0-3.03125v-3.85938l-2.6875 3.85938z" fill="#4285f4"/>
  <path d="m719.73126 343.05896-1.04686.07814q-.14064-.625-.39064-.90627-.4375-.45313-1.0625-.45313-.5 0-.89062.28126-.48438.375-.78124 1.07814-.28126.6875-.2969 1.96873.375-.57813.9219-.85937.5625-.28126 1.17186-.28126 1.04688 0 1.78124.78126.75.78124.75 2 0 .8125-.35936 1.51564-.34374.6875-.95314 1.0625-.60936.35936-1.375.35936-1.3281 0-2.15624-.96876-.82812-.96874-.82812-3.1875 0-2.5.92186-3.625.7969-.98437 2.15626-.98437 1.01564 0 1.65624.57813.65626.5625.78126 1.5625zm-4.29686 3.70314q0 .54686.21874 1.04686.23436.48437.64062.75.42188.26564.89064.26564.65624 0 1.1406-.53127.4844-.54687.4844-1.46873 0-.89064-.4844-1.40627-.46874-.51563-1.1875-.51563-.71874 0-1.21874.51563-.48436.51563-.48436 1.34377zm6.3906 2.78123v-1.20313h1.20314v1.20313q0 .65627-.23438 1.0625-.23436.42187-.73436.64063l-.2969-.45313q.32814-.14063.4844-.4375.15624-.28123.1875-.8125zm2.4375-2.26563 1.0625-.1406q.1719.8906.6094 1.29686.4375.39064 1.0625.39064.75 0 1.2656-.51564.51564-.51563.51564-1.28126 0-.71874-.48438-1.1875-.46876-.48437-1.20312-.48437-.29688 0-.75.125l.125-.9375q.10936.01563.17186.01563.6719 0 1.20314-.34376.54686-.35937.54686-1.09374 0-.57813-.3906-.95313-.39064-.39063-1.01564-.39063-.60936 0-1.03126.39063-.40624.39063-.5156 1.15627l-1.0625-.1875q.1875-1.0469.875-1.625.6875-.59377 1.7031-.59377.70314 0 1.2969.3125.59374.29687.90624.8125.3125.51563.3125 1.10937 0 .5469-.29688 1.01563-.29686.45313-.875.71877.75.17186 1.17188.73436.42186.54687.42186 1.39064 0 1.125-.8281 1.90623-.8125.78127-2.0625.78127-1.125 0-1.875-.6719-.75-.6875-.8594-1.75zm12.5469 1.25v1.01563h-5.6875q0-.375.125-.73437.21874-.57813.6875-1.14063.48436-.5625 1.3906-1.29687 1.40626-1.15626 1.89064-1.82813.5-.67187.5-1.26563 0-.625-.45314-1.04687-.4531-.4375-1.17186-.4375-.76564 0-1.21874.45313-.45314.45314-.46876 1.26564l-1.07814-.1094q.1094-1.21874.82814-1.84374.73436-.64063 1.96876-.64063 1.23436 0 1.9531.6875.71876.6875.71876 1.70313 0 .51564-.21876 1.01564-.2031.48436-.7031 1.04686-.4844.54687-1.6094 1.5-.9531.79687-1.23436 1.09374-.26564.28126-.4375.5625z" stroke="#fff" stroke-linecap="round" stroke-linejoin="round" stroke-width="3"/>
  <path d="m719.73126 343.05896-1.04686.07814q-.14064-.625-.39064-.90627-.4375-.45313-1.0625-.45313-.5 0-.89062.28126-.48438.375-.78124 1.07814-.28126.6875-.2969 1.96873.375-.57813.9219-.85937.5625-.28126 1.17186-.28126 1.04688 0 1.78124.78126.75.78124.75 2 0 .8125-.35936 1.51564-.34374.6875-.95314 1.0625-.60936.35936-1.375.35936-1.3281 0-2.15624-.96876-.82812-.96874-.82812-3.1875 0-2.5.92186-3.625.7969-.98437 2.15626-.98437 1.01564 0 1.65624.57813.65626.5625.78126 1.5625zm-4.29686 3.70314q0 .54686.21874 1.04686.23436.48437.64062.75.42188.26564.89064.26564.65624 0 1.1406-.53127.4844-.54687.4844-1.46873 0-.89064-.4844-1.40627-.46874-.51563-1.1875-.51563-.71874 0-1.21874.51563-.48436.51563-.48436 1.34377zm6.3906 2.78123v-1.20313h1.20314v1.20313q0 .65627-.23438 1.0625-.23436.42187-.73436.64063l-.2969-.45313q.32814-.14063.4844-.4375.15624-.28123.1875-.8125zm2.4375-2.26563 1.0625-.1406q.1719.8906.6094 1.29686.4375.39064 1.0625.39064.75 0 1.2656-.51564.51564-.51563.51564-1.28126 0-.71874-.48438-1.1875-.46876-.48437-1.20312-.48437-.29688 0-.75.125l.125-.9375q.10936.01563.17186.01563.6719 0 1.20314-.34376.54686-.35937.54686-1.09374 0-.57813-.3906-.95313-.39064-.39063-1.01564-.39063-.60936 0-1.03126.39063-.40624.39063-.5156 1.15627l-1.0625-.1875q.1875-1.0469.875-1.625.6875-.59377 1.7031-.59377.70314 0 1.2969.3125.59374.29687.90624.8125.3125.51563.3125 1.10937 0 .5469-.29688 1.01563-.29686.45313-.875.71877.75.17186 1.17188.73436.42186.54687.42186 1.39064 0 1.125-.8281 1.90623-.8125.78127-2.0625.78127-1.125 0-1.875-.6719-.75-.6875-.8594-1.75zm12.5469 1.25v1.01563h-5.6875q0-.375.125-.73437.21874-.57813.6875-1.14063.48436-.5625 1.3906-1.29687 1.40626-1.15626 1.89064-1.82813.5-.67187.5-1.26563 0-.625-.45314-1.04687-.4531-.4375-1.17186-.4375-.76564 0-1.21874.45313-.45314.45314-.46876 1.26564l-1.07814-.1094q.1094-1.21874.82814-1.84374.73436-.64063 1.96876-.64063 1.23436 0 1.9531.6875.71876.6875.71876 1.70313 0 .51564-.21876 1.01564-.2031.48436-.7031 1.04686-.4844.54687-1.6094 1.5-.9531.79687-1.23436 1.09374-.26564.28126-.4375.5625z" fill="#4285f4"/>
  <path d="m185.2125 532.5125 1.0625-.1406q.17187.8906.60937 1.29686.4375.39064 1.0625.39064.75 0 1.26563-.51564.51562-.51562.51562-1.28126 0-.71874-.48438-1.1875-.46874-.48436-1.20312-.48436-.29688 0-.75.125l.125-.9375q.10938.01562.17188.01562.67187 0 1.20312-.34376.54688-.35936.54688-1.09374 0-.57812-.39063-.95312-.39063-.39064-1.01563-.39064-.60937 0-1.03124.39064-.40626.39062-.51563 1.15626l-1.0625-.1875q.1875-1.0469.875-1.625.6875-.59376 1.70313-.59376.70312 0 1.29687.3125.59375.29686.90625.8125.3125.51562.3125 1.10936 0 .5469-.29688 1.01564-.29687.45312-.875.71876.75.17186 1.17188.73436.42188.54688.42188 1.39064 0 1.125-.82813 1.90624-.8125.78126-2.0625.78126-1.125 0-1.875-.6719-.75-.6875-.85937-1.75zm7.5625 2.26564v-1.20314h1.20312v1.20314q0 .65626-.23438 1.0625-.23437.42186-.73437.64062l-.29687-.45312q.32812-.14064.48437-.4375.15625-.28124.1875-.8125zm2.59374-1.98438 1.01563-.09376q.125.71876.48437 1.0469.375.3125.9375.3125.48438 0 .84376-.21876.375-.23438.60937-.59374.23437-.375.39063-1 .15624-.64064.15624-1.2969 0-.0781 0-.21874-.3125.5-.85937.82814-.54687.3125-1.1875.3125-1.07813 0-1.8125-.76564-.73437-.78126-.73437-2.04686 0-1.3125.76562-2.1094.78125-.79686 1.9375-.79686.82812 0 1.51562.45312.70313.45314 1.0625 1.29688.35938.82812.35938 2.40626 0 1.6406-.35938 2.625-.34374.96874-1.0625 1.48436-.70312.5-1.64062.5-1.01562 0-1.65625-.54686-.64063-.5625-.76563-1.57814zm4.3125-3.79686q0-.90626-.48437-1.4375-.46875-.53126-1.15625-.53126-.70312 0-1.23438.57812-.51562.5625-.51562 1.48438 0 .8125.5 1.32812.5.51564 1.21875.51564.73437 0 1.20313-.51564.46874-.51562.46874-1.42186zm8-.70314-1.04687.07814q-.14063-.625-.39063-.90626-.4375-.45314-1.0625-.45314-.5 0-.89062.28126-.48438.375-.78125 1.07814-.28125.6875-.29687 1.96874.375-.57814.92187-.85938.5625-.28126 1.17187-.28126 1.04688 0 1.78126.78126.75.78124.75 2 0 .8125-.35938 1.51564-.34375.6875-.95312 1.0625-.60938.35936-1.375.35936-1.32813 0-2.15626-.96876-.82812-.96874-.82812-3.1875 0-2.5.92188-3.625.79687-.98436 2.15624-.98436 1.01563 0 1.65626.57812.65624.5625.78124 1.5625zm-4.29687 3.70314q0 .54686.21875 1.04686.23438.48438.64062.75.42188.26564.89063.26564.65625 0 1.14063-.53126.48437-.54688.48437-1.46874 0-.89064-.48437-1.40626-.46876-.51564-1.1875-.51564-.71876 0-1.21876.51564-.48437.51562-.48437 1.34376z" stroke="#fff" stroke-linecap="round" stroke-linejoin="round" stroke-width="3"/>
  <path d="m185.2125 532.5125 1.0625-.1406q.17187.8906.60937 1.29686.4375.39064 1.0625.39064.75 0 1.26563-.51564.51562-.51562.51562-1.28126 0-.71874-.48438-1.1875-.46874-.48436-1.20312-.48436-.29688 0-.75.125l.125-.9375q.10938.01562.17188.01562.67187 0 1.20312-.34376.54688-.35936.54688-1.09374 0-.57812-.39063-.95312-.39063-.39064-1.01563-.39064-.60937 0-1.03124.39064-.40626.39062-.51563 1.15626l-1.0625-.1875q.1875-1.0469.875-1.625.6875-.59376 1.70313-.59376.70312 0 1.29687.3125.59375.29686.90625.8125.3125.51562.3125 1.10936 0 .5469-.29688 1.01564-.29687.45312-.875.71876.75.17186 1.17188.73436.42188.54688.42188 1.39064 0 1.125-.82813 1.90624-.8125.78126-2.0625.78126-1.125 0-1.875-.6719-.75-.6875-.85937-1.75zm7.5625 2.26564v-1.20314h1.20312v1.20314q0 .65626-.23438 1.0625-.23437.42186-.73437.64062l-.29687-.45312q.32812-.14064.48437-.4375.15625-.28124.1875-.8125zm2.59374-1.98438 1.01563-.09376q.125.71876.48437 1.0469.375.3125.9375.3125.48438 0 .84376-.21876.375-.23438.60937-.59374.23437-.375.39063-1 .15624-.64064.15624-1.2969 0-.0781 0-.21874-.3125.5-.85937.82814-.54687.3125-1.1875.3125-1.07813 0-1.8125-.76564-.73437-.78126-.73437-2.04686 0-1.3125.76562-2.1094.78125-.79686 1.9375-.79686.82812 0 1.51562.45312.70313.45314 1.0625 1.29688.35938.82812.35938 2.40626 0 1.6406-.35938 2.625-.34374.96874-1.0625 1.48436-.70312.5-1.64062.5-1.01562 0-1.65625-.54686-.64063-.5625-.76563-1.57814zm4.3125-3.79686q0-.90626-.48437-1.4375-.46875-.53126-1.15625-.53126-.70312 0-1.23438.57812-.51562.5625-.51562 1.48438 0 .8125.5 1.32812.5.51564 1.21875.51564.73437 0 1.20313-.51564.46874-.51562.46874-1.42186zm8-.70314-1.04687.07814q-.14063-.625-.39063-.90626-.4375-.45314-1.0625-.45314-.5 0-.89062.28126-.48438.375-.78125 1.07814-.28125.6875-.29687 1.96874.375-.57814.92187-.85938.5625-.28126 1.17187-.28126 1.04688 0 1.78126.78126.75.78124.75 2 0 .8125-.35938 1.51564-.34375.6875-.95312 1.0625-.60938.35936-1.375.35936-1.32813 0-2.15626-.96876-.82812-.96874-.82812-3.1875 0-2.5.92188-3.625.79687-.98436 2.15624-.98436 1.01563 0 1.65626.57812.65624.5625.78124 1.5625zm-4.29687 3.70314q0 .54686.21875 1.04686.23438.48438.64062.75.42188.26564.89063.26564.65625 0 1.14063-.53126.48437-.54688.48437-1.46874 0-.89064-.48437-1.40626-.46876-.51564-1.1875-.51564-.71876 0-1.21876.51564-.48437.51562-.48437 1.34376z" fill="#ea4335"/>
  <path d="m449.7375 531.34106 1.0625-.14062q.17186.89062.60936 1.29686.4375.39064 1.0625.39064.75 0 1.26564-.51564.5156-.5156.5156-1.28124 0-.71876-.48436-1.1875-.46874-.48436-1.20314-.48436-.29686 0-.75.125l.125-.9375q.1094.0156.1719.0156.67186 0 1.2031-.34374.5469-.35936.5469-1.09376 0-.5781-.39064-.9531-.39062-.39064-1.01562-.39064-.60938 0-1.03124.39064-.40626.3906-.51564 1.15624l-1.0625-.1875q.1875-1.04688.875-1.625.6875-.59374 1.70314-.59374.7031 0 1.29686.3125.59374.29686.90624.8125.3125.5156.3125 1.10936 0 .54688-.29686 1.01564-.29688.4531-.875.71874.75.17186 1.17186.73436.4219.5469.4219 1.39064 0 1.125-.82814 1.90626-.8125.78124-2.0625.78124-1.125 0-1.875-.67188-.75-.6875-.85936-1.75zm7.5625 2.26564v-1.20314h1.2031v1.20314q0 .65624-.23436 1.0625-.23438.42186-.73438.6406l-.29686-.4531q.3281-.14064.48436-.4375.15624-.28126.1875-.8125zm2.59374-1.9844 1.01562-.09374q.125.71874.48438 1.04688.375.3125.9375.3125.48436 0 .84376-.21874.375-.2344.60936-.59376.23438-.375.39064-1 .15624-.64064.15624-1.29688 0-.07812 0-.21876-.3125.5-.85938.82814-.54686.3125-1.1875.3125-1.07812 0-1.8125-.76564-.73436-.78124-.73436-2.04686 0-1.3125.7656-2.10938.78126-.79686 1.9375-.79686.82814 0 1.51564.4531.70312.45314 1.0625 1.2969.35936.8281.35936 2.40624 0 1.64062-.35936 2.625-.34374.96876-1.0625 1.48436-.70314.5-1.64064.5-1.0156 0-1.65624-.54686-.64062-.5625-.76562-1.57814zm4.3125-3.79686q0-.90624-.48438-1.4375-.46876-.53124-1.15626-.53124-.7031 0-1.23436.5781-.51564.5625-.51564 1.4844 0 .8125.5 1.3281.5.51564 1.21876.51564.73438 0 1.20314-.51564.46874-.5156.46874-1.42186zm4.15626 1.125q-.65626-.25-.9844-.6875-.3125-.45314-.3125-1.0625 0-.9375.6719-1.57814.6875-.6406 1.79686-.6406 1.125 0 1.8125.65624.6875.65626.6875 1.59376 0 .59374-.3125 1.03124-.3125.4375-.95312.6875.79686.25 1.20312.82812.40624.57814.40624 1.375 0 1.09374-.78124 1.84374-.76562.75-2.04686.75-1.26564 0-2.0469-.75-.78124-.75-.78124-1.875 0-.84374.42188-1.40624.4375-.5625 1.21876-.76562zm-.21876-1.79688q0 .60938.39062 1 .40624.39064 1.03124.39064.6094 0 1-.375.39064-.39064.39064-.95314 0-.57812-.40624-.96876-.40626-.40624-1-.40624-.6094 0-1.01564.39064-.39062.3906-.39062.92186zm-.32814 3.96874q0 .45314.20314.875.21876.4219.64062.65626.42188.23438.90624.23438.75 0 1.2344-.48438.5-.48436.5-1.23436 0-.76564-.5-1.26564-.5-.5-1.26564-.5-.75 0-1.23436.5-.4844.48438-.4844 1.21874z" stroke="#fff" stroke-linecap="round" stroke-linejoin="round" stroke-width="3"/>
  <path d="m449.7375 531.34106 1.0625-.14062q.17186.89062.60936 1.29686.4375.39064 1.0625.39064.75 0 1.26564-.51564.5156-.5156.5156-1.28124 0-.71876-.48436-1.1875-.46874-.48436-1.20314-.48436-.29686 0-.75.125l.125-.9375q.1094.0156.1719.0156.67186 0 1.2031-.34374.5469-.35936.5469-1.09376 0-.5781-.39064-.9531-.39062-.39064-1.01562-.39064-.60938 0-1.03124.39064-.40626.3906-.51564 1.15624l-1.0625-.1875q.1875-1.04688.875-1.625.6875-.59374 1.70314-.59374.7031 0 1.29686.3125.59374.29686.90624.8125.3125.5156.3125 1.10936 0 .54688-.29686 1.01564-.29688.4531-.875.71874.75.17186 1.17186.73436.4219.5469.4219 1.39064 0 1.125-.82814 1.90626-.8125.78124-2.0625.78124-1.125 0-1.875-.67188-.75-.6875-.85936-1.75zm7.5625 2.26564v-1.20314h1.2031v1.20314q0 .65624-.23436 1.0625-.23438.42186-.73438.6406l-.29686-.4531q.3281-.14064.48436-.4375.15624-.28126.1875-.8125zm2.59374-1.9844 1.01562-.09374q.125.71874.48438 1.04688.375.3125.9375.3125.48436 0 .84376-.21874.375-.2344.60936-.59376.23438-.375.39064-1 .15624-.64064.15624-1.29688 0-.07812 0-.21876-.3125.5-.85938.82814-.54686.3125-1.1875.3125-1.07812 0-1.8125-.76564-.73436-.78124-.73436-2.04686 0-1.3125.7656-2.10938.78126-.79686 1.9375-.79686.82814 0 1.51564.4531.70312.45314 1.0625 1.2969.35936.8281.35936 2.40624 0 1.64062-.35936 2.625-.34374.96876-1.0625 1.48436-.70314.5-1.64064.5-1.0156 0-1.65624-.54686-.64062-.5625-.76562-1.57814zm4.3125-3.79686q0-.90624-.48438-1.4375-.46876-.53124-1.15626-.53124-.7031 0-1.23436.5781-.51564.5625-.51564 1.4844 0 .8125.5 1.3281.5.51564 1.21876.51564.73438 0 1.20314-.51564.46874-.5156.46874-1.42186zm4.15626 1.125q-.65626-.25-.9844-.6875-.3125-.45314-.3125-1.0625 0-.9375.6719-1.57814.6875-.6406 1.79686-.6406 1.125 0 1.8125.65624.6875.65626.6875 1.59376 0 .59374-.3125 1.03124-.3125.4375-.95312.6875.79686.25 1.20312.82812.40624.57814.40624 1.375 0 1.09374-.78124 1.84374-.76562.75-2.04686.75-1.26564 0-2.0469-.75-.78124-.75-.78124-1.875 0-.84374.42188-1.40624.4375-.5625 1.21876-.76562zm-.21876-1.79688q0 .60938.39062 1 .40624.39064 1.03124.39064.6094 0 1-.375.39064-.39064.39064-.95314 0-.57812-.40624-.96876-.40626-.40624-1-.40624-.6094 0-1.01564.39064-.39062.3906-.39062.92186zm-.32814 3.96874q0 .45314.20314.875.21876.4219.64062.65626.42188.23438.90624.23438.75 0 1.2344-.48438.5-.48436.5-1.23436 0-.76564-.5-1.26564-.5-.5-1.26564-.5-.75 0-1.23436.5-.4844.48438-.4844 1.21874z" fill="#ea4335"/>
  <path d="m715.8875 291.7254q-.65624-.25-.98436-.6875-.3125-.45312-.3125-1.0625 0-.9375.67186-1.57812.6875-.64063 1.7969-.64063 1.125 0 1.8125.65625.6875.65625.6875 1.59375 0 .59375-.3125 1.03125-.3125.4375-.95314.6875.79688.25 1.20314.82813.40624.57812.40624 1.375 0 1.09375-.78124 1.84375-.76564.75-2.0469.75-1.2656 0-2.04686-.75-.78124-.75-.78124-1.875 0-.84375.42186-1.40625.4375-.5625 1.21874-.76563zm-.21874-1.79687q0 .60937.39064 1 .40624.39062 1.03124.39062.60936 0 1-.375.39062-.39062.39062-.95312 0-.57813-.40626-.96875-.40624-.40625-1-.40625-.60936 0-1.0156.39062-.39064.39063-.39064.92188zm-.32812 3.96875q0 .45312.20312.875.21874.42187.64064.65625.42186.23437.90624.23437.75 0 1.23436-.48437.5-.48438.5-1.23438 0-.76562-.5-1.26562-.5-.5-1.2656-.5-.75 0-1.2344.5-.48436.48437-.48436 1.21875zm6.48436 2.48437v-1.20312h1.20314v1.20312q0 .65625-.23438 1.0625-.23436.42188-.73436.64063l-.2969-.45313q.32814-.14062.4844-.4375.15624-.28125.1875-.8125zm2.4375-4.23437q0-1.53125.3125-2.45313.3125-.9375.9219-1.4375.625-.5 1.5625-.5.6875 0 1.2031.28125.53126.28125.875.8125.34376.51563.53126 1.26563.1875.75.1875 2.03125 0 1.51562-.3125 2.4375-.29686.92187-.92186 1.4375-.6094.5-1.5625.5-1.2344 0-1.95314-.89063-.84376-1.0625-.84376-3.48437zm1.07814 0q0 2.10937.5 2.8125.5.70312 1.21876.70312.73436 0 1.21874-.70312.5-.70313.5-2.8125 0-2.125-.5-2.8125-.48438-.70313-1.23438-.70313-.71876 0-1.15626.60938-.54686.78125-.54686 2.90625zm5.92186 1.96875 1.0625-.14063q.1719.89063.6094 1.29688.4375.39062 1.0625.39062.75 0 1.2656-.51562.51564-.51563.51564-1.28125 0-.71875-.48438-1.1875-.46876-.48438-1.20312-.48438-.29688 0-.75.125l.125-.9375q.10936.01563.17186.01563.6719 0 1.20314-.34375.54686-.35938.54686-1.09375 0-.57813-.3906-.95313-.39064-.39062-1.01564-.39062-.60936 0-1.03126.39062-.40624.39063-.5156 1.15625l-1.0625-.1875q.1875-1.04687.875-1.625.6875-.59375 1.7031-.59375.70314 0 1.2969.3125.59374.29688.90624.8125.3125.51563.3125 1.10938 0 .54687-.29688 1.01562-.29686.45313-.875.71875.75.17188 1.17188.73438.42186.54687.42186 1.39062 0 1.125-.8281 1.90625-.8125.78125-2.0625.78125-1.125 0-1.875-.67187-.75-.6875-.8594-1.75z" stroke="#fff" stroke-linecap="round" stroke-linejoin="round" stroke-width="3"/>
  <path d="m715.8875 291.7254q-.65624-.25-.98436-.6875-.3125-.45312-.3125-1.0625 0-.9375.67186-1.57812.6875-.64063 1.7969-.64063 1.125 0 1.8125.65625.6875.65625.6875 1.59375 0 .59375-.3125 1.03125-.3125.4375-.95314.6875.79688.25 1.20314.82813.40624.57812.40624 1.375 0 1.09375-.78124 1.84375-.76564.75-2.0469.75-1.2656 0-2.04686-.75-.78124-.75-.78124-1.875 0-.84375.42186-1.40625.4375-.5625 1.21874-.76563zm-.21874-1.79687q0 .60937.39064 1 .40624.39062 1.03124.39062.60936 0 1-.375.39062-.39062.39062-.95312 0-.57813-.40626-.96875-.40624-.40625-1-.40625-.60936 0-1.0156.39062-.39064.39063-.39064.92188zm-.32812 3.96875q0 .45312.20312.875.21874.42187.64064.65625.42186.23437.90624.23437.75 0 1.23436-.48437.5-.48438.5-1.23438 0-.76562-.5-1.26562-.5-.5-1.2656-.5-.75 0-1.2344.5-.48436.48437-.48436 1.21875zm6.48436 2.48437v-1.20312h1.20314v1.20312q0 .65625-.23438 1.0625-.23436.42188-.73436.64063l-.2969-.45313q.32814-.14062.4844-.4375.15624-.28125.1875-.8125zm2.4375-4.23437q0-1.53125.3125-2.45313.3125-.9375.9219-1.4375.625-.5 1.5625-.5.6875 0 1.2031.28125.53126.28125.875.8125.34376.51563.53126 1.26563.1875.75.1875 2.03125 0 1.51562-.3125 2.4375-.29686.92187-.92186 1.4375-.6094.5-1.5625.5-1.2344 0-1.95314-.89063-.84376-1.0625-.84376-3.48437zm1.07814 0q0 2.10937.5 2.8125.5.70312 1.21876.70312.73436 0 1.21874-.70312.5-.70313.5-2.8125 0-2.125-.5-2.8125-.48438-.70313-1.23438-.70313-.71876 0-1.15626.60938-.54686.78125-.54686 2.90625zm5.92186 1.96875 1.0625-.14063q.1719.89063.6094 1.29688.4375.39062 1.0625.39062.75 0 1.2656-.51562.51564-.51563.51564-1.28125 0-.71875-.48438-1.1875-.46876-.48438-1.20312-.48438-.29688 0-.75.125l.125-.9375q.10936.01563.17186.01563.6719 0 1.20314-.34375.54686-.35938.54686-1.09375 0-.57813-.3906-.95313-.39064-.39062-1.01564-.39062-.60936 0-1.03126.39062-.40624.39063-.5156 1.15625l-1.0625-.1875q.1875-1.04687.875-1.625.6875-.59375 1.7031-.59375.70314 0 1.2969.3125.59374.29688.90624.8125.3125.51563.3125 1.10938 0 .54687-.29688 1.01562-.29686.45313-.875.71875.75.17188 1.17188.73438.42186.54687.42186 1.39062 0 1.125-.8281 1.90625-.8125.78125-2.0625.78125-1.125 0-1.875-.67187-.75-.6875-.8594-1.75z" fill="#ea4335"/>
  <path d="m978.9437 186.621 1.01565-.09375q.125.71875.48435 1.04688.375.3125.9375.3125.4844 0 .8438-.21875.375-.23438.60935-.59375.23435-.375.39065-1 .1562-.64063.1562-1.29688 0-.07812 0-.21875-.3125.5-.85935.82813-.54685.3125-1.1875.3125-1.07815 0-1.8125-.76563-.73435-.78125-.73435-2.04687 0-1.3125.7656-2.10938.78125-.79687 1.9375-.79687.8281 0 1.5156.45312.70315.45313 1.0625 1.29688.3594.82812.3594 2.40625 0 1.64062-.3594 2.625-.3437.96875-1.0625 1.48437-.7031.5-1.6406.5-1.0156 0-1.65625-.54687-.64065-.5625-.76565-1.57813zm4.3125-3.79687q0-.90625-.48435-1.4375-.46875-.53125-1.15625-.53125-.7031 0-1.2344.57812-.5156.5625-.5156 1.48438 0 .8125.5 1.32812.5.51563 1.21875.51563.73435 0 1.20315-.51563.4687-.51562.4687-1.42187zm3.0938 5.78125v-1.20313h1.2031v1.20313q0 .65625-.2344 1.0625-.23435.42187-.73435.64062l-.29685-.45312q.3281-.14063.48435-.4375.15625-.28125.1875-.8125zm4.0625-4.65625q-.6563-.25-.9844-.6875-.3125-.45313-.3125-1.0625 0-.9375.6719-1.57813.6875-.64062 1.79685-.64062 1.125 0 1.8125.65625.6875.65625.6875 1.59375 0 .59375-.3125 1.03125-.3125.4375-.95315.6875.7969.25 1.20315.82812.40625.57813.40625 1.375 0 1.09375-.78125 1.84375-.76565.75-2.04685.75-1.26565 0-2.0469-.75-.78125-.75-.78125-1.875 0-.84375.42185-1.40625.4375-.5625 1.2188-.76562zm-.2188-1.79688q0 .60938.39065 1 .40625.39063 1.03125.39063.6094 0 1-.375.3906-.39063.3906-.95313 0-.57812-.4062-.96875-.4063-.40625-1-.40625-.6094 0-1.01565.39063-.39065.39062-.39065.92187zm-.3281 3.96875q0 .45313.2031.875.2188.42188.64065.65625.42185.23438.90625.23438.75 0 1.2344-.48438.5-.48437.5-1.23437 0-.76563-.5-1.26563-.5-.5-1.26565-.5-.75 0-1.23435.5-.4844.48438-.4844 1.21875zm5.9844-4.98437v-1.01563h5.5625v.82813q-.8125.875-1.625 2.32812-.7969 1.4375-1.2344 2.96875-.3281 1.07813-.40625 2.35938h-1.09375q.0156-1.01563.3906-2.45313.39065-1.4375 1.0938-2.76562.7187-1.32813 1.5312-2.25z" stroke="#fff" stroke-linecap="round" stroke-linejoin="round" stroke-width="3"/>
  <path d="m978.9437 186.621 1.01565-.09375q.125.71875.48435 1.04688.375.3125.9375.3125.4844 0 .8438-.21875.375-.23438.60935-.59375.23435-.375.39065-1 .1562-.64063.1562-1.29688 0-.07812 0-.21875-.3125.5-.85935.82813-.54685.3125-1.1875.3125-1.07815 0-1.8125-.76563-.73435-.78125-.73435-2.04687 0-1.3125.7656-2.10938.78125-.79687 1.9375-.79687.8281 0 1.5156.45312.70315.45313 1.0625 1.29688.3594.82812.3594 2.40625 0 1.64062-.3594 2.625-.3437.96875-1.0625 1.48437-.7031.5-1.6406.5-1.0156 0-1.65625-.54687-.64065-.5625-.76565-1.57813zm4.3125-3.79687q0-.90625-.48435-1.4375-.46875-.53125-1.15625-.53125-.7031 0-1.2344.57812-.5156.5625-.5156 1.48438 0 .8125.5 1.32812.5.51563 1.21875.51563.73435 0 1.20315-.51563.4687-.51562.4687-1.42187zm3.0938 5.78125v-1.20313h1.2031v1.20313q0 .65625-.2344 1.0625-.23435.42187-.73435.64062l-.29685-.45312q.3281-.14063.48435-.4375.15625-.28125.1875-.8125zm4.0625-4.65625q-.6563-.25-.9844-.6875-.3125-.45313-.3125-1.0625 0-.9375.6719-1.57813.6875-.64062 1.79685-.64062 1.125 0 1.8125.65625.6875.65625.6875 1.59375 0 .59375-.3125 1.03125-.3125.4375-.95315.6875.7969.25 1.20315.82812.40625.57813.40625 1.375 0 1.09375-.78125 1.84375-.76565.75-2.04685.75-1.26565 0-2.0469-.75-.78125-.75-.78125-1.875 0-.84375.42185-1.40625.4375-.5625 1.2188-.76562zm-.2188-1.79688q0 .60938.39065 1 .40625.39063 1.03125.39063.6094 0 1-.375.3906-.39063.3906-.95313 0-.57812-.4062-.96875-.4063-.40625-1-.40625-.6094 0-1.01565.39063-.39065.39062-.39065.92187zm-.3281 3.96875q0 .45313.2031.875.2188.42188.64065.65625.42185.23438.90625.23438.75 0 1.2344-.48438.5-.48437.5-1.23437 0-.76563-.5-1.26563-.5-.5-1.26565-.5-.75 0-1.23435.5-.4844.48438-.4844 1.21875zm5.9844-4.98437v-1.01563h5.5625v.82813q-.8125.875-1.625 2.32812-.7969 1.4375-1.2344 2.96875-.3281 1.07813-.40625 2.35938h-1.09375q.0156-1.01563.3906-2.45313.39065-1.4375 1.0938-2.76562.7187-1.32813 1.5312-2.25z" fill="#ea4335"/>
  <path d="m185.2125 484.34103 1.0625-.14063q.17187.89063.60937 1.29688.4375.39062 1.0625.39062.75 0 1.26563-.51562.51562-.51562.51562-1.28125 0-.71875-.48438-1.1875-.46874-.48437-1.20312-.48437-.29688 0-.75.125l.125-.9375q.10938.01562.17188.01562.67187 0 1.20312-.34375.54688-.35937.54688-1.09375 0-.57812-.39063-.95312-.39063-.39063-1.01563-.39063-.60937 0-1.03124.39063-.40626.39062-.51563 1.15624l-1.0625-.1875q.1875-1.04687.875-1.625.6875-.59374 1.70313-.59374.70312 0 1.29687.3125.59375.29687.90625.8125.3125.51562.3125 1.10937 0 .54687-.29688 1.01563-.29687.45312-.875.71874.75.17188 1.17188.73438.42188.54688.42188 1.39062 0 1.125-.82813 1.90626-.8125.78124-2.0625.78124-1.125 0-1.875-.67187-.75-.6875-.85937-1.75zm7.5625 2.26563v-1.20313h1.20312v1.20313q0 .65624-.23438 1.0625-.23437.42187-.73437.64062l-.29687-.45312q.32812-.14063.48437-.4375.15625-.28126.1875-.8125zm2.59374-1.98438 1.01563-.09375q.125.71875.48437 1.04687.375.3125.9375.3125.48438 0 .84376-.21874.375-.23438.60937-.59376.23437-.375.39063-1 .15624-.64062.15624-1.29687 0-.07813 0-.21875-.3125.5-.85937.82812-.54687.3125-1.1875.3125-1.07813 0-1.8125-.76562-.73437-.78125-.73437-2.04688 0-1.3125.76562-2.10937.78125-.79687 1.9375-.79687.82812 0 1.51562.45312.70313.45312 1.0625 1.29688.35938.82812.35938 2.40624 0 1.64063-.35938 2.625-.34374.96876-1.0625 1.48438-.70312.5-1.64062.5-1.01562 0-1.65625-.54688-.64063-.5625-.76563-1.57812zm4.3125-3.79688q0-.90624-.48437-1.4375-.46875-.53124-1.15625-.53124-.70312 0-1.23438.57812-.51562.5625-.51562 1.48438 0 .8125.5 1.32812.5.51562 1.21875.51562.73437 0 1.20313-.51562.46874-.51562.46874-1.42188zm4.15626 1.125q-.65626-.25-.98438-.6875-.3125-.45312-.3125-1.0625 0-.9375.67188-1.57812.6875-.64062 1.79687-.64062 1.125 0 1.8125.65624.6875.65626.6875 1.59376 0 .59374-.3125 1.03124-.3125.4375-.95313.6875.79688.25 1.20313.82813.40625.57813.40625 1.375 0 1.09375-.78125 1.84375-.76563.75-2.04687.75-1.26563 0-2.04688-.75-.78125-.75-.78125-1.875 0-.84375.42187-1.40625.4375-.5625 1.21876-.76563zm-.21876-1.79687q0 .60937.39063 1 .40625.39063 1.03125.39063.60938 0 1-.375.39062-.39063.39062-.95313 0-.57813-.40624-.96875-.40626-.40625-1-.40625-.60938 0-1.01563.39063-.39063.39062-.39063.92187zm-.32812 3.96875q0 .45312.20312.875.21876.42188.64063.65625.42187.23437.90625.23437.75 0 1.23438-.48437.5-.48437.5-1.23437 0-.76563-.5-1.26563-.5-.5-1.26563-.5-.75 0-1.23437.5-.48438.48437-.48438 1.21875z" stroke="#fff" stroke-linecap="round" stroke-linejoin="round" stroke-width="3"/>
  <path d="m185.2125 484.34103 1.0625-.14063q.17187.89063.60937 1.29688.4375.39062 1.0625.39062.75 0 1.26563-.51562.51562-.51562.51562-1.28125 0-.71875-.48438-1.1875-.46874-.48437-1.20312-.48437-.29688 0-.75.125l.125-.9375q.10938.01562.17188.01562.67187 0 1.20312-.34375.54688-.35937.54688-1.09375 0-.57812-.39063-.95312-.39063-.39063-1.01563-.39063-.60937 0-1.03124.39063-.40626.39062-.51563 1.15624l-1.0625-.1875q.1875-1.04687.875-1.625.6875-.59374 1.70313-.59374.70312 0 1.29687.3125.59375.29687.90625.8125.3125.51562.3125 1.10937 0 .54687-.29688 1.01563-.29687.45312-.875.71874.75.17188 1.17188.73438.42188.54688.42188 1.39062 0 1.125-.82813 1.90626-.8125.78124-2.0625.78124-1.125 0-1.875-.67187-.75-.6875-.85937-1.75zm7.5625 2.26563v-1.20313h1.20312v1.20313q0 .65624-.23438 1.0625-.23437.42187-.73437.64062l-.29687-.45312q.32812-.14063.48437-.4375.15625-.28126.1875-.8125zm2.59374-1.98438 1.01563-.09375q.125.71875.48437 1.04687.375.3125.9375.3125.48438 0 .84376-.21874.375-.23438.60937-.59376.23437-.375.39063-1 .15624-.64062.15624-1.29687 0-.07813 0-.21875-.3125.5-.85937.82812-.54687.3125-1.1875.3125-1.07813 0-1.8125-.76562-.73437-.78125-.73437-2.04688 0-1.3125.76562-2.10937.78125-.79687 1.9375-.79687.82812 0 1.51562.45312.70313.45312 1.0625 1.29688.35938.82812.35938 2.40624 0 1.64063-.35938 2.625-.34374.96876-1.0625 1.48438-.70312.5-1.64062.5-1.01562 0-1.65625-.54688-.64063-.5625-.76563-1.57812zm4.3125-3.79688q0-.90624-.48437-1.4375-.46875-.53124-1.15625-.53124-.70312 0-1.23438.57812-.51562.5625-.51562 1.48438 0 .8125.5 1.32812.5.51562 1.21875.51562.73437 0 1.20313-.51562.46874-.51562.46874-1.42188zm4.15626 1.125q-.65626-.25-.98438-.6875-.3125-.45312-.3125-1.0625 0-.9375.67188-1.57812.6875-.64062 1.79687-.64062 1.125 0 1.8125.65624.6875.65626.6875 1.59376 0 .59374-.3125 1.03124-.3125.4375-.95313.6875.79688.25 1.20313.82813.40625.57813.40625 1.375 0 1.09375-.78125 1.84375-.76563.75-2.04687.75-1.26563 0-2.04688-.75-.78125-.75-.78125-1.875 0-.84375.42187-1.40625.4375-.5625 1.21876-.76563zm-.21876-1.79687q0 .60937.39063 1 .40625.39063 1.03125.39063.60938 0 1-.375.39062-.39063.39062-.95313 0-.57813-.40624-.96875-.40626-.40625-1-.40625-.60938 0-1.01563.39063-.39063.39062-.39063.92187zm-.32812 3.96875q0 .45312.20312.875.21876.42188.64063.65625.42187.23437.90625.23437.75 0 1.23438-.48437.5-.48437.5-1.23437 0-.76563-.5-1.26563-.5-.5-1.26563-.5-.75 0-1.23437.5-.48438.48437-.48438 1.21875z" fill="#34a853"/>
  <path d="m455.20624 313.7719-1.04688.07814q-.14062-.625-.39062-.90624-.4375-.45314-1.0625-.45314-.5 0-.89064.28124-.48436.375-.78124 1.07814-.28126.6875-.29686 1.96876.375-.57814.92186-.8594.5625-.28124 1.17188-.28124 1.04686 0 1.78126.78124.75.78126.75 2 0 .8125-.3594 1.51564-.34374.6875-.9531 1.0625-.6094.35936-1.375.35936-1.32814 0-2.15626-.96874-.82814-.96876-.82814-3.1875 0-2.5.9219-3.625.79686-.98436 2.15624-.98436 1.01562 0 1.65626.5781.65624.5625.78124 1.5625zm-4.29688 3.70314q0 .54686.21874 1.04686.2344.4844.64064.75.42186.26564.89062.26564.65624 0 1.14064-.53124.48436-.5469.48436-1.46876 0-.89064-.48436-1.40624-.46876-.51564-1.1875-.51564-.71876 0-1.21876.51564-.48438.5156-.48438 1.34374zm6.39064 2.78126v-1.20314h1.2031v1.20314q0 .65624-.23436 1.0625-.23438.42186-.73438.6406l-.29686-.4531q.3281-.14064.48436-.4375.15624-.28126.1875-.8125zm4.0625-4.65626q-.65626-.25-.9844-.6875-.3125-.45314-.3125-1.0625 0-.9375.6719-1.57814.6875-.6406 1.79686-.6406 1.125 0 1.8125.65624.6875.65626.6875 1.59376 0 .59374-.3125 1.03124-.3125.4375-.95312.6875.79686.25 1.20312.82812.40624.57814.40624 1.375 0 1.09374-.78124 1.84374-.76562.75-2.04686.75-1.26564 0-2.0469-.75-.78124-.75-.78124-1.875 0-.84374.42188-1.40624.4375-.5625 1.21876-.76562zm-.21876-1.79688q0 .60938.39062 1 .40624.39064 1.03124.39064.6094 0 1-.375.39064-.39064.39064-.95314 0-.57812-.40624-.96876-.40626-.40624-1-.40624-.6094 0-1.01564.39064-.39062.3906-.39062.92186zm-.32814 3.96874q0 .45314.20314.875.21876.4219.64062.65626.42188.23438.90624.23438.75 0 1.2344-.48438.5-.48436.5-1.23436 0-.76564-.5-1.26564-.5-.5-1.26564-.5-.75 0-1.23436.5-.4844.48438-.4844 1.21874zm11.46876 1.46876v1.01564h-5.6875q0-.375.125-.7344.21874-.5781.6875-1.1406.48438-.5625 1.39064-1.2969 1.40624-1.15624 1.8906-1.8281.5-.6719.5-1.26564 0-.625-.4531-1.04686-.45314-.4375-1.1719-.4375-.7656 0-1.21874.4531-.45312.45314-.46876 1.26564l-1.0781-.10938q.10936-1.21876.8281-1.84376.7344-.6406 1.96876-.6406 1.23438 0 1.95314.6875.71874.6875.71874 1.7031 0 .51564-.21874 1.01564-.20314.48436-.70314 1.04686-.48436.5469-1.60936 1.5-.95314.7969-1.2344 1.09376-.2656.28124-.4375.5625z" stroke="#fff" stroke-linecap="round" stroke-linejoin="round" stroke-width="3"/>
  <path d="m455.20624 313.7719-1.04688.07814q-.14062-.625-.39062-.90624-.4375-.45314-1.0625-.45314-.5 0-.89064.28124-.48436.375-.78124 1.07814-.28126.6875-.29686 1.96876.375-.57814.92186-.8594.5625-.28124 1.17188-.28124 1.04686 0 1.78126.78124.75.78126.75 2 0 .8125-.3594 1.51564-.34374.6875-.9531 1.0625-.6094.35936-1.375.35936-1.32814 0-2.15626-.96874-.82814-.96876-.82814-3.1875 0-2.5.9219-3.625.79686-.98436 2.15624-.98436 1.01562 0 1.65626.5781.65624.5625.78124 1.5625zm-4.29688 3.70314q0 .54686.21874 1.04686.2344.4844.64064.75.42186.26564.89062.26564.65624 0 1.14064-.53124.48436-.5469.48436-1.46876 0-.89064-.48436-1.40624-.46876-.51564-1.1875-.51564-.71876 0-1.21876.51564-.48438.5156-.48438 1.34374zm6.39064 2.78126v-1.20314h1.2031v1.20314q0 .65624-.23436 1.0625-.23438.42186-.73438.6406l-.29686-.4531q.3281-.14064.48436-.4375.15624-.28126.1875-.8125zm4.0625-4.65626q-.65626-.25-.9844-.6875-.3125-.45314-.3125-1.0625 0-.9375.6719-1.57814.6875-.6406 1.79686-.6406 1.125 0 1.8125.65624.6875.65626.6875 1.59376 0 .59374-.3125 1.03124-.3125.4375-.95312.6875.79686.25 1.20312.82812.40624.57814.40624 1.375 0 1.09374-.78124 1.84374-.76562.75-2.04686.75-1.26564 0-2.0469-.75-.78124-.75-.78124-1.875 0-.84374.42188-1.40624.4375-.5625 1.21876-.76562zm-.21876-1.79688q0 .60938.39062 1 .40624.39064 1.03124.39064.6094 0 1-.375.39064-.39064.39064-.95314 0-.57812-.40624-.96876-.40626-.40624-1-.40624-.6094 0-1.01564.39064-.39062.3906-.39062.92186zm-.32814 3.96874q0 .45314.20314.875.21876.4219.64062.65626.42188.23438.90624.23438.75 0 1.2344-.48438.5-.48436.5-1.23436 0-.76564-.5-1.26564-.5-.5-1.26564-.5-.75 0-1.23436.5-.4844.48438-.4844 1.21874zm11.46876 1.46876v1.01564h-5.6875q0-.375.125-.7344.21874-.5781.6875-1.1406.48438-.5625 1.39064-1.2969 1.40624-1.15624 1.8906-1.8281.5-.6719.5-1.26564 0-.625-.4531-1.04686-.45314-.4375-1.1719-.4375-.7656 0-1.21874.4531-.45312.45314-.46876 1.26564l-1.0781-.10938q.10936-1.21876.8281-1.84376.7344-.6406 1.96876-.6406 1.23438 0 1.95314.6875.71874.6875.71874 1.7031 0 .51564-.21874 1.01564-.20314.48436-.70314 1.04686-.48436.5469-1.60936 1.5-.95314.7969-1.2344 1.09376-.2656.28124-.4375.5625z" fill="#34a853"/>
  <path d="m715.8875 238.28227q-.65624-.25-.98436-.6875-.3125-.45312-.3125-1.0625 0-.9375.67186-1.57812.6875-.64063 1.7969-.64063 1.125 0 1.8125.65625.6875.65625.6875 1.59375 0 .59375-.3125 1.03125-.3125.4375-.95314.6875.79688.25 1.20314.82813.40624.57812.40624 1.375 0 1.09375-.78124 1.84375-.76564.75-2.0469.75-1.2656 0-2.04686-.75-.78124-.75-.78124-1.875 0-.84375.42186-1.40625.4375-.5625 1.21874-.76563zm-.21874-1.79687q0 .60937.39064 1 .40624.39062 1.03124.39062.60936 0 1-.375.39062-.39062.39062-.95312 0-.57813-.40626-.96875-.40624-.40625-1-.40625-.60936 0-1.0156.39062-.39064.39063-.39064.92188zm-.32812 3.96875q0 .45312.20312.875.21874.42187.64064.65625.42186.23437.90624.23437.75 0 1.23436-.48437.5-.48438.5-1.23438 0-.76562-.5-1.26562-.5-.5-1.2656-.5-.75 0-1.2344.5-.48436.48437-.48436 1.21875zm6.48436 2.48437v-1.20312h1.20314v1.20312q0 .65625-.23438 1.0625-.23436.42188-.73436.64063l-.2969-.45313q.32814-.14062.4844-.4375.15624-.28125.1875-.8125zm6.40626 0h-1.04686v-6.71875q-.39064.35938-1.01564.73438-.60936.35937-1.09376.53125v-1.01563q.875-.42187 1.53126-1 .67188-.59375.95314-1.15625h.67186zm6.40624 0v-2.0625h-3.71874v-.96875l3.92188-5.5625h.85936v5.5625h1.15626v.96875h-1.15626v2.0625zm0-3.03125v-3.85937l-2.6875 3.85937z" stroke="#fff" stroke-linecap="round" stroke-linejoin="round" stroke-width="3"/>
  <path d="m715.8875 238.28227q-.65624-.25-.98436-.6875-.3125-.45312-.3125-1.0625 0-.9375.67186-1.57812.6875-.64063 1.7969-.64063 1.125 0 1.8125.65625.6875.65625.6875 1.59375 0 .59375-.3125 1.03125-.3125.4375-.95314.6875.79688.25 1.20314.82813.40624.57812.40624 1.375 0 1.09375-.78124 1.84375-.76564.75-2.0469.75-1.2656 0-2.04686-.75-.78124-.75-.78124-1.875 0-.84375.42186-1.40625.4375-.5625 1.21874-.76563zm-.21874-1.79687q0 .60937.39064 1 .40624.39062 1.03124.39062.60936 0 1-.375.39062-.39062.39062-.95312 0-.57813-.40626-.96875-.40624-.40625-1-.40625-.60936 0-1.0156.39062-.39064.39063-.39064.92188zm-.32812 3.96875q0 .45312.20312.875.21874.42187.64064.65625.42186.23437.90624.23437.75 0 1.23436-.48437.5-.48438.5-1.23438 0-.76562-.5-1.26562-.5-.5-1.2656-.5-.75 0-1.2344.5-.48436.48437-.48436 1.21875zm6.48436 2.48437v-1.20312h1.20314v1.20312q0 .65625-.23438 1.0625-.23436.42188-.73436.64063l-.2969-.45313q.32814-.14062.4844-.4375.15624-.28125.1875-.8125zm6.40626 0h-1.04686v-6.71875q-.39064.35938-1.01564.73438-.60936.35937-1.09376.53125v-1.01563q.875-.42187 1.53126-1 .67188-.59375.95314-1.15625h.67186zm6.40624 0v-2.0625h-3.71874v-.96875l3.92188-5.5625h.85936v5.5625h1.15626v.96875h-1.15626v2.0625zm0-3.03125v-3.85937l-2.6875 3.85937z" fill="#34a853"/>
  <path d="m978.9437 133.17784 1.01565-.09375q.125.71875.48435 1.04688.375.3125.9375.3125.4844 0 .8438-.21875.375-.23438.60935-.59375.23435-.375.39065-1 .1562-.64063.1562-1.29688 0-.07812 0-.21875-.3125.5-.85935.82813-.54685.3125-1.1875.3125-1.07815 0-1.8125-.76563-.73435-.78125-.73435-2.04687 0-1.3125.7656-2.10937.78125-.796876 1.9375-.796876.8281 0 1.5156.453126.70315.453124 1.0625 1.29687.3594.82812.3594 2.40625 0 1.64062-.3594 2.625-.3437.96875-1.0625 1.48437-.7031.5-1.6406.5-1.0156 0-1.65625-.54687-.64065-.5625-.76565-1.57813zm4.3125-3.79687q0-.90625-.48435-1.437496-.46875-.53125-1.15625-.53125-.7031 0-1.2344.578126-.5156.56249-.5156 1.48437 0 .8125.5 1.32812.5.51563 1.21875.51563.73435 0 1.20315-.51563.4687-.51562.4687-1.42187zm3.0938 5.78125v-1.20313h1.2031v1.20313q0 .65625-.2344 1.0625-.23435.42187-.73435.64062l-.29685-.45312q.3281-.14063.48435-.4375.15625-.28125.1875-.8125zm2.5937-1.98438 1.01565-.09375q.125.71875.48435 1.04688.375.3125.9375.3125.4844 0 .8438-.21875.375-.23438.60935-.59375.23435-.375.39065-1 .1562-.64063.1562-1.29688 0-.07812 0-.21875-.3125.5-.85935.82813-.54685.3125-1.1875.3125-1.07815 0-1.8125-.76563-.73435-.78125-.73435-2.04687 0-1.3125.7656-2.10937.78125-.796876 1.9375-.796876.8281 0 1.5156.453126.70315.453124 1.0625 1.29687.3594.82812.3594 2.40625 0 1.64062-.3594 2.625-.3437.96875-1.0625 1.48437-.7031.5-1.6406.5-1.0156 0-1.65625-.54687-.64065-.5625-.76565-1.57813zm4.3125-3.79687q0-.90625-.48435-1.437496-.46875-.53125-1.15625-.53125-.7031 0-1.2344.578126-.5156.56249-.5156 1.48437 0 .8125.5 1.32812.5.51563 1.21875.51563.73435 0 1.20315-.51563.4687-.51562.4687-1.42187zm4.1563 1.125q-.6563-.25-.9844-.6875-.3125-.45313-.3125-1.0625 0-.937496.6719-1.57812.6875-.640626 1.79685-.640626 1.125 0 1.8125.65625.6875.65625.6875 1.593746 0 .59375-.3125 1.03125-.3125.4375-.95315.6875.7969.25 1.20315.82812.40625.57813.40625 1.375 0 1.09375-.78125 1.84375-.76565.75-2.04685.75-1.26565 0-2.0469-.75-.78125-.75-.78125-1.875 0-.84375.42185-1.40625.4375-.5625 1.2188-.76562zm-.2188-1.79688q0 .60938.39065 1 .40625.39063 1.03125.39063.6094 0 1-.375.3906-.39063.3906-.95313 0-.57812-.4062-.96874-.4063-.40625-1-.40625-.6094 0-1.01565.390624-.39065.390616-.39065.921866zm-.3281 3.96875q0 .45313.2031.875.2188.42188.64065.65625.42185.23438.90625.23438.75 0 1.2344-.48438.5-.48437.5-1.23437 0-.76563-.5-1.26563-.5-.5-1.26565-.5-.75 0-1.23435.5-.4844.48438-.4844 1.21875z" stroke="#fff" stroke-linecap="round" stroke-linejoin="round" stroke-width="3"/>
  <path d="m978.9437 133.17784 1.01565-.09375q.125.71875.48435 1.04688.375.3125.9375.3125.4844 0 .8438-.21875.375-.23438.60935-.59375.23435-.375.39065-1 .1562-.64063.1562-1.29688 0-.07812 0-.21875-.3125.5-.85935.82813-.54685.3125-1.1875.3125-1.07815 0-1.8125-.76563-.73435-.78125-.73435-2.04687 0-1.3125.7656-2.10938.78125-.79687 1.9375-.79687.8281 0 1.5156.45312.70315.45313 1.0625 1.29688.3594.82812.3594 2.40625 0 1.64062-.3594 2.625-.3437.96875-1.0625 1.48437-.7031.5-1.6406.5-1.0156 0-1.65625-.54687-.64065-.5625-.76565-1.57813zm4.3125-3.79687q0-.90625-.48435-1.4375-.46875-.53125-1.15625-.53125-.7031 0-1.2344.57812-.5156.5625-.5156 1.48438 0 .8125.5 1.32812.5.51563 1.21875.51563.73435 0 1.20315-.51563.4687-.51562.4687-1.42187zm3.0938 5.78125v-1.20313h1.2031v1.20313q0 .65625-.2344 1.0625-.23435.42187-.73435.64062l-.29685-.45312q.3281-.14063.48435-.4375.15625-.28125.1875-.8125zm2.5937-1.98438 1.01565-.09375q.125.71875.48435 1.04688.375.3125.9375.3125.4844 0 .8438-.21875.375-.23438.60935-.59375.23435-.375.39065-1 .1562-.64063.1562-1.29688 0-.07812 0-.21875-.3125.5-.85935.82813-.54685.3125-1.1875.3125-1.07815 0-1.8125-.76563-.73435-.78125-.73435-2.04687 0-1.3125.7656-2.10938.78125-.79687 1.9375-.79687.8281 0 1.5156.45312.70315.45313 1.0625 1.29688.3594.82812.3594 2.40625 0 1.64062-.3594 2.625-.3437.96875-1.0625 1.48437-.7031.5-1.6406.5-1.0156 0-1.65625-.54687-.64065-.5625-.76565-1.57813zm4.3125-3.79687q0-.90625-.48435-1.4375-.46875-.53125-1.15625-.53125-.7031 0-1.2344.57812-.5156.5625-.5156 1.48438 0 .8125.5 1.32812.5.51563 1.21875.51563.73435 0 1.20315-.51563.4687-.51562.4687-1.42187zm4.1563 1.125q-.6563-.25-.9844-.6875-.3125-.45313-.3125-1.0625 0-.9375.6719-1.57813.6875-.64062 1.79685-.64062 1.125 0 1.8125.65625.6875.65625.6875 1.59375 0 .59375-.3125 1.03125-.3125.4375-.95315.6875.7969.25 1.20315.82812.40625.57813.40625 1.375 0 1.09375-.78125 1.84375-.76565.75-2.04685.75-1.26565 0-2.0469-.75-.78125-.75-.78125-1.875 0-.84375.42185-1.40625.4375-.5625 1.2188-.76562zm-.2188-1.79688q0 .60938.39065 1 .40625.39063 1.03125.39063.6094 0 1-.375.3906-.39063.3906-.95313 0-.57812-.4062-.96875-.4063-.40625-1-.40625-.6094 0-1.01565.39063-.39065.39062-.39065.92187zm-.3281 3.96875q0 .45313.2031.875.2188.42188.64065.65625.42185.23438.90625.23438.75 0 1.2344-.48438.5-.48437.5-1.23437 0-.76563-.5-1.26563-.5-.5-1.26565-.5-.75 0-1.23435.5-.4844.48438-.4844 1.21875z" fill="#34a853"/>
  <path d="m580.5469 666.8177 1.0625-.09376q.0781.65626.35935 1.0625.28125.40626.85935.67186.5938.25 1.32815.25.64065 0 1.14065-.1875.5-.2031.73435-.53124.25-.34376.25-.73436 0-.40626-.23435-.70314-.2344-.3125-.76565-.51562-.35935-.14064-1.54685-.42188-1.1719-.28126-1.64065-.53126-.625-.3281-.92185-.79686-.2969-.48438-.2969-1.07814 0-.6406.3594-1.2031.375-.57814 1.0781-.8594.71875-.29686 1.5781-.29686.95315 0 1.6875.3125.7344.29686 1.125.90626.39065.59374.4219 1.34374l-1.09375.07812q-.09375-.8125-.60935-1.21876-.5-.42186-1.4844-.42186-1.03125 0-1.5.375-.46875.375-.46875.90626 0 .46874.32815.7656.3281.2969 1.7031.6094 1.3906.3125 1.90625.54686.75.35938 1.10935.89064.3594.5156.3594 1.21874 0 .6875-.3906 1.29686-.39065.59376-1.125.9375-.7344.32814-1.6563.32814-1.17185 0-1.9687-.32814-.7813-.34374-1.2344-1.03124-.4375-.6875-.4531-1.54686zm8.2187 2.7656v-8.59374h1.0625v8.59374zm2.64065-3.10936q0-1.73438.95315-2.5625.79685-.6875 1.9531-.6875 1.28125 0 2.09375.84376.82815.8281.82815 2.3125 0 1.2031-.3594 1.8906-.3594.6875-1.0625 1.07814-.6875.375-1.5.375-1.2969 0-2.1094-.82814-.79685-.84374-.79685-2.42186zm1.07815 0q0 1.1875.5156 1.78126.53125.59374 1.3125.59374.7969 0 1.3125-.59374.5156-.59376.5156-1.8125 0-1.15626-.5312-1.75-.51565-.59376-1.2969-.59376-.78125 0-1.3125.59376-.5156.5781-.5156 1.78124zm8.60935 2.17186.15625.9219q-.4531.09374-.7969.09374-.5781 0-.8906-.17188-.3125-.1875-.4531-.48436-.125-.2969-.125-1.25v-3.57814h-.76565v-.8125h.76565v-1.54686l1.04685-.625v2.17186h1.0625v.8125h-1.0625v3.64064q0 .4531.04685.5781.0625.125.1875.20314.125.07812.3594.07812.1875 0 .46875-.03126zm.28125-.92186 1.03125-.15624q.09375.625.48435.9531.4063.32814 1.14065.32814.71875 0 1.0625-.28124.35935-.2969.35935-.70314 0-.35936-.3125-.5625-.2187-.14062-1.0781-.35936-1.15625-.2969-1.6094-.5-.4375-.21876-.67185-.59376-.23435-.375-.23435-.84374 0-.40626.1875-.76564.1875-.35936.5156-.59376.25-.17186.6719-.29686.42185-.125.92185-.125.71875 0 1.26565.21876.5625.2031.8281.5625.2656.35936.3594.9531l-1.0313.14064q-.0625-.46874-.4062-.73438-.32815-.28126-.95315-.28126-.71875 0-1.03125.25-.3125.2344-.3125.5625 0 .20314.125.3594.1406.17186.40625.28124.15625.0625.9375.26562 1.125.3125 1.5625.5.4375.1875.6875.54688.25.35936.25.90626 0 .53124-.3125 1-.29685.4531-.875.71874-.57815.25-1.3125.25-1.21875 0-1.85935-.5-.625-.51564-.7969-1.5z" fill="#000"/>
  <path d="m57.496876 623.5677v1.0156h-5.6875q0-.375.125-.73436.21875-.57814.6875-1.14064.484374-.5625 1.390624-1.29686 1.40625-1.15624 1.890626-1.82814.5-.67186.5-1.2656 0-.625-.453126-1.0469-.453124-.4375-1.171874-.4375-.765626 0-1.21875.45314-.453126.45312-.46875 1.26562l-1.078126-.10936q.109376-1.21876.828126-1.84376.734374-.64064 1.96875-.64064 1.234374 0 1.953124.6875.71875.6875.71875 1.70314 0 .51562-.21875 1.01562-.203124.48438-.703124 1.04688-.484376.54686-1.609376 1.5-.953124.79686-1.234374 1.09376-.265626.28124-.4375.5625z" fill="#000"/>
  <path d="m51.95 563.74365 1.0625-.14065q.171876.89065.609376 1.2969.4375.3906 1.0625.3906.75 0 1.265624-.5156.515626-.5156.515626-1.28125 0-.71875-.484376-1.1875-.46875-.48435-1.203124-.48435-.296876 0-.75.125l.125-.9375q.109374.0156.171874.0156.671876 0 1.203126-.34375.546874-.35935.546874-1.09375 0-.5781-.390624-.9531-.390626-.39065-1.015626-.39065-.609374 0-1.03125.39065-.40625.3906-.515624 1.1562l-1.0625-.1875q.1875-1.04685.875-1.625.6875-.5937 1.703124-.5937.703126 0 1.296876.3125.59375.29685.90625.8125.3125.5156.3125 1.10935 0 .54685-.296876 1.01565-.296874.4531-.875.7187.75.1719 1.171876.7344.421874.5469.421874 1.3906 0 1.125-.828124 1.9063-.8125.7812-2.0625.7812-1.125 0-1.875-.67185-.75-.6875-.859376-1.75z" fill="#000"/>
  <path d="m55.325 507.43518v-2.0625h-3.71875v-.96875l3.921876-5.5625h.859374v5.5625h1.15625v.96875h-1.15625v2.0625zm0-3.03125v-3.85937l-2.6875 3.85937z" fill="#000"/>
  <path d="m51.95 446.6111 1.109376-.09374q.125.8125.5625 1.21874.453124.40626 1.09375.40626.75 0 1.28125-.57812.53125-.57814.53125-1.51564 0-.90624-.515626-1.42186-.5-.53124-1.328124-.53124-.5 0-.921876.23436-.40625.23438-.640624.59374l-.984376-.125.828126-4.40624h4.28125v1h-3.4375l-.453126 2.3125q.765626-.54686 1.609376-.54686 1.125 0 1.890624.78124.78125.78126.78125 2.01562 0 1.15624-.671874 2.01564-.828126 1.03124-2.25 1.03124-1.171876 0-1.921876-.65624-.734374-.65626-.84375-1.7344z" fill="#000"/>
  <path d="m57.41875 383.80267-1.046874.07813q-.140626-.625-.390626-.90625-.4375-.45313-1.0625-.45313-.5 0-.890624.28125-.484376.375-.78125 1.07813-.28125.6875-.296876 1.96875.375-.57813.921876-.85938.5625-.28125 1.171874-.28125 1.046876 0 1.78125.78125.75.78125.75 2 0 .8125-.359374 1.51563-.34375.6875-.953126 1.0625-.609374.35937-1.375.35937-1.328124 0-2.15625-.96875-.828124-.96875-.828124-3.1875 0-2.5.921874-3.625.796876-.98437 2.15625-.98437 1.015626 0 1.65625.57812.65625.5625.78125 1.5625zm-4.296874 3.70313q0 .54687.21875 1.04687.234374.48438.640624.75.421876.26563.890626.26563.65625 0 1.140624-.53125.484376-.54688.484376-1.46875 0-.89063-.484376-1.40625-.46875-.51563-1.1875-.51563-.71875 0-1.21875.51563-.484374.51562-.484374 1.34375z" fill="#000"/>
  <path d="m52.0125 324.2442v-1.01562h5.5625v.82812q-.8125.875-1.625 2.32813-.796874 1.4375-1.234374 2.96875-.328126 1.07812-.40625 2.35937h-1.09375q.015624-1.01562.390624-2.45312.390626-1.4375 1.09375-2.76563.71875-1.32812 1.53125-2.25z" fill="#000"/>
  <path d="m53.575 268.48264q-.65625-.25-.984374-.6875-.3125-.45314-.3125-1.0625 0-.9375.671874-1.57814.6875-.6406 1.796876-.6406 1.125 0 1.8125.65624.6875.65626.6875 1.59376 0 .59374-.3125 1.03124-.3125.4375-.953126.6875.796876.25 1.203126.82812.40625.57814.40625 1.375 0 1.09374-.78125 1.84374-.765626.75-2.046876.75-1.265624 0-2.046874-.75-.78125-.75-.78125-1.875 0-.84374.421874-1.40624.4375-.5625 1.21875-.76562zm-.21875-1.79688q0 .60938.390626 1 .40625.39064 1.03125.39064.609374 0 1-.375.390624-.39064.390624-.95314 0-.57812-.40625-.96876-.40625-.40624-1-.40624-.609374 0-1.015624.39064-.390626.3906-.390626.92186zm-.328124 3.96874q0 .45314.203124.875.21875.4219.640626.65626.421874.23438.90625.23438.75 0 1.234374-.48438.5-.48436.5-1.23436 0-.76564-.5-1.26564-.5-.5-1.265624-.5-.75 0-1.234376.5-.484374.48438-.484374 1.21874z" fill="#000"/>
  <path d="m52.10625 212.58044 1.015626-.09374q.125.71874.484374 1.04687.375.3125.9375.3125.484376 0 .84375-.21875.375-.23438.609376-.59375.234374-.375.390624-1 .15625-.64063.15625-1.29687 0-.07813 0-.21876-.3125.5-.859374.82813-.546876.3125-1.1875.3125-1.078126 0-1.8125-.76563-.734376-.78124-.734376-2.04687 0-1.3125.765626-2.10937.78125-.79688 1.9375-.79688.828124 0 1.515624.45312.703126.45313 1.0625 1.29688.359376.82812.359376 2.40625 0 1.64063-.359376 2.625-.34375.96875-1.0625 1.48437-.703124.5-1.640624.5-1.015626 0-1.65625-.54687-.640626-.5625-.765626-1.57813zm4.3125-3.79687q0-.90625-.484374-1.4375-.46875-.53125-1.15625-.53125-.703126 0-1.234376.57812-.515624.5625-.515624 1.48438 0 .8125.5 1.32812.5.51563 1.21875.51563.734374 0 1.203124-.51563.46875-.51562.46875-1.42187z" fill="#000"/>
  <path d="m48.91875 155.99074h-1.046874v-6.71875q-.390626.35937-1.015626.73437-.609374.35938-1.09375.53125v-1.01562q.875-.42188 1.53125-1 .671876-.59375.953126-1.15625h.671874zm3.03125-4.23438q0-1.53125.3125-2.45312.3125-.9375.921876-1.4375.625-.5 1.5625-.5.6875 0 1.203124.28125.53125.28125.875.8125.34375.51562.53125 1.26562.1875.75.1875 2.03125 0 1.51563-.3125 2.4375-.296874.92188-.921874 1.4375-.609376.5-1.5625.5-1.234376 0-1.953126-.89062-.84375-1.0625-.84375-3.48438zm1.078126 0q0 2.10938.5 2.8125.5.70313 1.21875.70313.734374 0 1.21875-.70313.5-.70312.5-2.8125 0-2.125-.5-2.8125-.484376-.70312-1.234376-.70312-.71875 0-1.15625.60937-.546874.78125-.546874 2.90625z" fill="#000"/>
  <path d="m48.91875 97.416664h-1.046874v-6.71875q-.390626.359376-1.015626.734376-.609374.359374-1.09375.53125v-1.015626q.875-.421874 1.53125-1 .671876-.59375.953126-1.15625h.671874zm7 0h-1.046874v-6.71875q-.390626.359376-1.015626.734376-.609374.359374-1.09375.53125v-1.015626q.875-.421874 1.53125-1 .671876-.59375.953126-1.15625h.671874z" fill="#000"/>
  <path d="m197.0875 637.5833v-2.0625h-3.71876v-.96874l3.92188-5.5625h.85938v5.5625h1.15624v.96874h-1.15624v2.0625zm0-3.03124v-3.85936l-2.6875 3.85936z" fill="#000"/>
  <path d="m459.8625 632.92706q-.65626-.25-.9844-.6875-.3125-.45312-.3125-1.0625 0-.9375.6719-1.57812.6875-.64064 1.79686-.64064 1.125 0 1.8125.65626.6875.65624.6875 1.59374 0 .59376-.3125 1.03126-.3125.4375-.95312.6875.79686.25 1.20312.82814.40624.5781.40624 1.375 0 1.09374-.78124 1.84374-.76562.75-2.04686.75-1.26564 0-2.0469-.75-.78124-.75-.78124-1.875 0-.84374.42188-1.40624.4375-.5625 1.21876-.76564zm-.21876-1.79686q0 .60936.39062 1 .40624.3906 1.03124.3906.6094 0 1-.375.39064-.3906.39064-.9531 0-.57814-.40624-.96876-.40626-.40624-1-.40624-.6094 0-1.01564.3906-.39062.39064-.39062.9219zm-.32814 3.96874q0 .45312.20314.875.21876.42186.64062.65626.42188.23436.90624.23436.75 0 1.2344-.48436.5-.4844.5-1.2344 0-.7656-.5-1.2656-.5-.5-1.26564-.5-.75 0-1.23436.5-.4844.48436-.4844 1.21874z" fill="#000"/>
  <path d="m723.23126 637.5833h-1.04686v-6.71874q-.39064.35938-1.01564.73438-.60936.35936-1.09376.53126v-1.01564q.875-.42186 1.53126-1 .67188-.59376.95314-1.15626h.67186zm8.5-6.48436-1.04686.07812q-.14064-.625-.39064-.90626-.4375-.4531-1.0625-.4531-.5 0-.89062.28124-.48438.375-.78124 1.07812-.28126.6875-.2969 1.96874.375-.5781.9219-.85936.5625-.28124 1.17186-.28124 1.04688 0 1.78124.78124.75.78126.75 2 0 .8125-.35936 1.51562-.34374.6875-.95314 1.0625-.60936.35938-1.375.35938-1.3281 0-2.15624-.96874-.82812-.96876-.82812-3.1875 0-2.5.92186-3.625.7969-.9844 2.15626-.9844 1.01564 0 1.65624.57814.65626.5625.78126 1.5625zm-4.29686 3.70312q0 .54688.21874 1.04688.23436.48436.64062.75.42188.26562.89064.26562.65624 0 1.1406-.53126.4844-.54686.4844-1.46874 0-.89062-.4844-1.40626-.46874-.5156-1.1875-.5156-.71874 0-1.21874.5156-.48436.51564-.48436 1.34376z" fill="#000"/>
  <path d="m983.7875 635.3177 1.0625-.14064q.17185.89064.60935 1.29688.4375.39062 1.0625.39062.75 0 1.26565-.51562.5156-.51564.5156-1.28124 0-.71876-.4844-1.1875-.4687-.4844-1.2031-.4844-.2969 0-.75.125l.125-.9375q.1094.01564.1719.01564.67185 0 1.2031-.34374.5469-.3594.5469-1.09376 0-.57814-.39065-.95314-.39065-.3906-1.01565-.3906-.60935 0-1.0312.3906-.4063.39064-.51565 1.15626l-1.0625-.1875q.1875-1.04686.875-1.625.6875-.59376 1.70315-.59376.7031 0 1.29685.3125.59375.2969.90625.8125.3125.51564.3125 1.1094 0 .54686-.2969 1.0156-.29685.45314-.875.71876.75.17188 1.1719.73438.4219.54686.4219 1.39062 0 1.125-.82815 1.90624-.8125.78126-2.0625.78126-1.125 0-1.875-.67186-.75-.6875-.85935-1.75zm12.54685 1.25v1.0156h-5.6875q0-.375.125-.73436.21875-.57814.6875-1.14064.48435-.5625 1.39065-1.29686 1.4062-1.15624 1.8906-1.82814.5-.67186.5-1.2656 0-.625-.4531-1.0469-.45315-.4375-1.1719-.4375-.7656 0-1.21875.45314-.45315.45312-.46875 1.26562l-1.0781-.10936q.10935-1.21876.8281-1.84376.7344-.64064 1.96875-.64064 1.23435 0 1.95315.6875.7187.6875.7187 1.70314 0 .51562-.2187 1.01562-.20315.48438-.70315 1.04688-.48435.54686-1.60935 1.5-.95315.79686-1.2344 1.09376-.2656.28124-.4375.5625z" fill="#000"/>
  <path d="m497 704.55c0 3.3137-2.68628 6-6 6s-6-2.6863-6-6c0-3.31373 2.68628-6 6-6s6 2.68627 6 6z" fill="#4285f4"/>
  <path d="m512.0625 705.53436 1.125.29688q-.3594 1.39062-1.28125 2.125-.92187.73436-2.26563.73436-1.39062 0-2.26562-.5625-.875-.5625-1.32812-1.625-.45313-1.0781-.45313-2.3125 0-1.34374.51563-2.34374.51562-1 1.45312-1.51562.95312-.51564 2.09375-.51564 1.28125 0 2.15625.65626.8906.65624 1.2344 1.84374l-1.12502.26564q-.29688-.9375-.875-1.35938-.5625-.4375-1.42188-.4375-.98438 0-1.65625.48438-.65625.46876-.9375 1.26562-.26563.79688-.26563 1.65624 0 1.09376.3125 1.90626.32813.8125 1 1.21874.67188.40626 1.46876.40626.95312 0 1.60937-.54686.67187-.5469.90625-1.64064zm6.8125 3.01564v-.9219q-.7344 1.0625-1.9844 1.0625-.54685 0-1.0312-.2031-.4688-.21876-.70315-.53126-.23435-.32814-.32815-.79688-.0625-.29686-.0625-.98436v-3.84376h1.0625v3.45312q0 .8125.0625 1.10938.0938.40626.4063.65626.3281.23436.8125.23436.4687 0 .875-.23436.42185-.25.5937-.6719.1875-.42186.1875-1.21874v-3.32812h1.0469v6.21876zm3.8906 0h-.98435v-8.59376h1.0625v3.0625q.67185-.82814 1.70315-.82814.5781 0 1.0781.2344.5156.21874.84375.6406.34375.4219.53125 1.01564.1875.59376.1875 1.26562 0 1.59374-.7969 2.46874-.79685.875-1.8906.875-1.1094 0-1.7344-.92186zm-.0156-3.15626q0 1.10936.3125 1.60936.5.8125 1.34375.8125.6875 0 1.1875-.59374.51565-.59376.51565-1.79686 0-1.21876-.4844-1.7969-.4844-.5781-1.1719-.5781-.6875 0-1.2031.60936-.5.59374-.5 1.73438zm10.2969 1.15626 1.0937.125q-.25.9531-.9531 1.48436-.7031.53124-1.78125.53124-1.35935 0-2.17185-.84374-.7969-.84376-.7969-2.35936 0-1.5625.8125-2.4219.8125-.875 2.09375-.875 1.25 0 2.03125.84376.7969.84374.7969 2.39064 0 .09374 0 .28124h-4.64065q.0625 1.03126.57815 1.57812.5156.53124 1.29685.53124.57815 0 .98435-.29686.4219-.3125.6563-.96874zm-3.45315-1.70314h3.46875q-.0625-.79686-.3906-1.1875-.51565-.60936-1.3125-.60936-.7344 0-1.2344.48436-.4844.48438-.53125 1.3125zm5.78125 1.84374 1.03125-.15624q.09375.625.48435.95314.4063.3281 1.14065.3281.71875 0 1.0625-.28124.35935-.29686.35935-.70312 0-.35938-.3125-.5625-.2187-.14064-1.0781-.35938-1.15625-.29686-1.6094-.5-.4375-.21876-.67185-.59376-.23435-.375-.23435-.84374 0-.40626.1875-.76562.1875-.35938.5156-.59374.25-.1719.6719-.2969.42185-.125.92185-.125.71875 0 1.26565.21876.5625.20314.8281.5625.2656.35938.3594.95314l-1.0313.1406q-.0625-.46874-.4062-.73436-.32815-.28124-.95315-.28124-.71875 0-1.03125.25-.3125.23436-.3125.5625 0 .2031.125.35936.1406.17188.40625.28124.15625.0625.9375.26564 1.125.3125 1.5625.5.4375.1875.6875.54686.25.3594.25.90626 0 .53124-.3125 1-.29685.45314-.875.71874-.57815.25-1.3125.25-1.21875 0-1.85935-.5-.625-.5156-.7969-1.5z" fill="#1a1a1a"/>
  <path d="m569 704.55c0 3.3137-2.6863 6-6 6s-6-2.6863-6-6c0-3.31373 2.6863-6 6-6s6 2.68627 6 6z" fill="#ea4335"/>
  <path d="m577.9219 708.55v-8.59376h3.25q.8437 0 1.29685.07812.64065.10938 1.0625.40624.4375.2969.6875.82814.26565.53126.26565 1.17186 0 1.09376-.70315 1.8594-.6875.75-2.51565.75h-2.2031v3.5zm1.1406-4.5h2.21875q1.10935 0 1.5625-.40626.46875-.42188.46875-1.17188 0-.53126-.28125-.90626-.26565-.3906-.70315-.5156-.29685-.07814-1.0625-.07814h-2.2031zm6.34375 1.3906q0-1.73436.95315-2.5625.79685-.6875 1.9531-.6875 1.28125 0 2.09375.84376.82815.82814.82815 2.3125 0 1.20314-.3594 1.89064-.3594.6875-1.0625 1.0781-.6875.375-1.5.375-1.2969 0-2.1094-.8281-.79685-.84376-.79685-2.4219zm1.07815 0q0 1.1875.5156 1.78126.53125.59374 1.3125.59374.7969 0 1.3125-.59374.5156-.59376.5156-1.8125 0-1.15626-.5312-1.75-.51565-.59376-1.2969-.59376-.78125 0-1.3125.59376-.5156.57814-.5156 1.78124zm6.2812 3.1094v-8.59376h1.0625v8.59376zm7.2813-2 1.0937.125q-.25.9531-.9531 1.48436-.7031.53124-1.78125.53124-1.35935 0-2.17185-.84374-.7969-.84376-.7969-2.35936 0-1.5625.8125-2.4219.8125-.875 2.09375-.875 1.25 0 2.03125.84376.7969.84374.7969 2.39064 0 .09374 0 .28124h-4.64065q.0625 1.03126.57815 1.57812.5156.53124 1.29685.53124.57815 0 .98435-.29686.4219-.3125.6563-.96874zm-3.45315-1.70314h3.46875q-.0625-.79686-.3906-1.1875-.51565-.60936-1.3125-.60936-.7344 0-1.2344.48436-.4844.48438-.53125 1.3125zm5.78125 1.84374 1.03125-.15624q.09375.625.48435.95314.4063.3281 1.14065.3281.71875 0 1.0625-.28124.35935-.29686.35935-.70312 0-.35938-.3125-.5625-.2187-.14064-1.0781-.35938-1.15625-.29686-1.6094-.5-.4375-.21876-.67185-.59376-.23435-.375-.23435-.84374 0-.40626.1875-.76562.1875-.35938.5156-.59374.25-.1719.6719-.2969.42185-.125.92185-.125.71875 0 1.26565.21876.5625.20314.8281.5625.2656.35938.3594.95314l-1.0313.1406q-.0625-.46874-.4062-.73436-.32815-.28124-.95315-.28124-.71875 0-1.03125.25-.3125.23436-.3125.5625 0 .2031.125.35936.1406.17188.40625.28124.15625.0625.9375.26564 1.125.3125 1.5625.5.4375.1875.6875.54686.25.3594.25.90626 0 .53124-.3125 1-.29685.45314-.875.71874-.57815.25-1.3125.25-1.21875 0-1.85935-.5-.625-.5156-.7969-1.5z" fill="#1a1a1a"/>
  <path d="m636 704.55c0 3.3137-2.6863 6-6 6s-6-2.6863-6-6c0-3.31373 2.6863-6 6-6s6 2.68627 6 6z" fill="#34a853"/>
  <path d="m644.5469 705.78436 1.0625-.09376q.0781.65626.35935 1.0625.28125.40626.85935.6719.5938.25 1.32815.25.64065 0 1.14065-.1875.5-.20314.73435-.53126.25-.34374.25-.73438 0-.40626-.23435-.70312-.2344-.3125-.76565-.51564-.35935-.1406-1.54685-.42186-1.1719-.28124-1.64065-.53124-.625-.32814-.92185-.7969-.2969-.48436-.2969-1.0781 0-.64064.3594-1.20314.375-.57812 1.0781-.85936.71875-.2969 1.5781-.2969.95315 0 1.6875.3125.7344.2969 1.125.90626.39065.59374.4219 1.34374l-1.09375.07814q-.09375-.8125-.60935-1.21874-.5-.4219-1.4844-.4219-1.03125 0-1.5.375-.46875.375-.46875.90626 0 .46874.32815.76564.3281.29686 1.7031.60936 1.3906.3125 1.90625.54688.75.35936 1.10935.89062.3594.51564.3594 1.21874 0 .6875-.3906 1.2969-.39065.59374-1.125.9375-.7344.3281-1.6563.3281-1.17185 0-1.9687-.3281-.7813-.34376-1.2344-1.03126-.4375-.6875-.4531-1.54688zm8.2187 2.76564v-8.59376h1.0625v8.59376zm7.0938-.76564q-.5938.5-1.14065.70314-.53125.2031-1.15625.2031-1.03125 0-1.5781-.5-.5469-.5-.5469-1.28124 0-.45312.2031-.82812.20315-.39064.5469-.60938.34375-.23436.7656-.34376.2969-.09374.9375-.17186 1.26565-.14064 1.875-.35938 0-.21876 0-.26562 0-.65624-.29685-.92188-.40625-.34376-1.20315-.34376-.73435 0-1.0937.26564-.3594.25-.5313.90626l-1.0312-.14064q.1406-.65626.4687-1.0625.32815-.40626.9375-.625.6094-.21876 1.4063-.21876.79685 0 1.29685.1875.5.1875.73435.46876.2344.28124.32815.71874.04685.26564.04685.96876v1.40624q0 1.46876.0625 1.8594.07815.3906.2813.75h-1.1094q-.15625-.32814-.2031-.76564zm-.0938-2.35936q-.5781.23436-1.7187.40624-.6563.09376-.9219.21876-.2656.10936-.4219.3281-.1406.21876-.1406.5 0 .4219.3125.70314.3281.28126.9375.28126.6094 0 1.0781-.26564.4844-.26562.70315-.73436.17185-.3594.17185-1.0469zm4 3.125h-.98435v-8.59376h1.0625v3.0625q.67185-.82814 1.70315-.82814.5781 0 1.0781.2344.5156.21874.84375.6406.34375.4219.53125 1.01564.1875.59376.1875 1.26562 0 1.59374-.7969 2.46874-.79685.875-1.8906.875-1.1094 0-1.7344-.92186zm-.0156-3.15626q0 1.10936.3125 1.60936.5.8125 1.34375.8125.6875 0 1.1875-.59374.51565-.59376.51565-1.79686 0-1.21876-.4844-1.7969-.4844-.5781-1.1719-.5781-.6875 0-1.2031.60936-.5.59374-.5 1.73438zm5.625 1.29686 1.03125-.15624q.09375.625.48435.95314.4063.3281 1.14065.3281.71875 0 1.0625-.28124.35935-.29686.35935-.70312 0-.35938-.3125-.5625-.2187-.14064-1.0781-.35938-1.15625-.29686-1.6094-.5-.4375-.21876-.67185-.59376-.23435-.375-.23435-.84374 0-.40626.1875-.76562.1875-.35938.5156-.59374.25-.1719.6719-.2969.42185-.125.92185-.125.71875 0 1.26565.21876.5625.20314.8281.5625.2656.35938.3594.95314l-1.0313.1406q-.0625-.46874-.4062-.73436-.32815-.28124-.95315-.28124-.71875 0-1.03125.25-.3125.23436-.3125.5625 0 .2031.125.35936.1406.17188.40625.28124.15625.0625.9375.26564 1.125.3125 1.5625.5.4375.1875.6875.54686.25.3594.25.90626 0 .53124-.3125 1-.29685.45314-.875.71874-.57815.25-1.3125.25-1.21875 0-1.85935-.5-.625-.5156-.7969-1.5z" fill="#1a1a1a"/>
  <path d="m38.35625 51.85625 1.78125-.15625q.125 1.0625.578126 1.75.46875.6875 1.4375 1.125.984374.421876 2.21875.421876 1.078124 0 1.90625-.3125.828124-.328126 1.234374-.890626.40625-.5625.40625-1.234374 0-.671876-.390624-1.171876-.390626-.5-1.28125-.84375-.578126-.234374-2.5625-.703124-1.96875-.46875-2.75-.890626-1.03125-.53125-1.53125-1.328124-.5-.796876-.5-1.78125 0-1.09375.609374-2.03125.609376-.9375 1.796876-1.421876 1.1875-.5 2.625-.5 1.59375 0 2.8125.515626 1.21875.515624 1.859374 1.515624.65625.984376.703126 2.25l-1.8125.140626q-.140626-1.359376-.984376-2.046876-.84375-.703124-2.5-.703124-1.71875 0-2.515624.640624-.78125.625-.78125 1.5 0 .78125.5625 1.28125.546874.5 2.859374 1.015626 2.3125.515624 3.171876.90625 1.25.578124 1.84375 1.46875.59375.875.59375 2.03125 0 1.140624-.65625 2.15625-.65625 1.015624-1.890626 1.578124-1.21875.5625-2.75.5625-1.9375 0-3.25-.5625-1.3125-.578124-2.0625-1.71875-.75-1.140624-.78125-2.5625zm13.40625 8.5625v-14.34375h1.609376v1.34375q.5625-.78125 1.265624-1.171874.71875-.40625 1.734376-.40625 1.328124 0 2.34375.6875 1.015624.6875 1.53125 1.9375.53125 1.234374.53125 2.71875 0 1.59375-.578126 2.875-.5625 1.265624-1.65625 1.953124-1.09375.671876-2.296874.671876-.875 0-1.578126-.375-.6875-.375-1.140624-.9375v5.046874zm1.59375-9.09375q0 2 .8125 2.953126.8125.953124 1.96875.953124 1.171876 0 2-.984374.84375-.984376.84375-3.078126 0-1.96875-.828124-2.953124-.8125-1-1.9375-1-1.125 0-2 1.0625-.859376 1.046874-.859376 3.046874zm16.51562 1.78125 1.8125.234376q-.42187 1.578124-1.59375 2.46875-1.15625.875-2.96875.875-2.26562 0-3.60937-1.390626-1.328124-1.40625-1.328124-3.9375 0-2.625 1.34375-4.0625 1.343744-1.453124 3.499994-1.453124 2.07813 0 3.39063 1.421874 1.32812 1.40625 1.32812 3.984376 0 .15625-.01562.46875h-7.734374q.093744 1.703124.968744 2.609374.875.90625 2.17188.90625.96875 0 1.64062-.5.6875-.515624 1.09375-1.625zm-5.78125-2.84375h5.79688q-.10938-1.296874-.65625-1.953124-.84375-1.015626-2.1875-1.015626-1.20313 0-2.03125.8125-.82813.796876-.92188 2.15625zm16.78125 2.84375 1.8125.234376q-.42187 1.578124-1.59375 2.46875-1.15625.875-2.96875.875-2.26562 0-3.60937-1.390626-1.32813-1.40625-1.32813-3.9375 0-2.625 1.34375-4.0625 1.34375-1.453124 3.5-1.453124 2.07813 0 3.39063 1.421874 1.32812 1.40625 1.32812 3.984376 0 .15625-.01562.46875h-7.73438q.09375 1.703124.96875 2.609374.875.90625 2.17188.90625.96875 0 1.64062-.5.6875-.515624 1.09375-1.625zm-5.78125-2.84375h5.79688q-.10938-1.296874-.65625-1.953124-.84375-1.015626-2.1875-1.015626-1.20313 0-2.03125.8125-.82813.796876-.92188 2.15625zm16.40625 6.1875v-1.3125q-.98437 1.546876-2.90625 1.546876-1.23437 0-2.28125-.6875-1.03125-.6875-1.60937-1.90625-.5625-1.21875-.5625-2.8125 0-1.5625.51562-2.828126.51563-1.265624 1.54688-1.9375 1.04687-.671874 2.3125-.671874.9375 0 1.67187.40625.73438.390624 1.20313 1.015624v-5.125h1.73437v14.3125zm-5.5625-5.171874q0 1.984374.84375 2.96875.84375.984374 1.98438.984374 1.15625 0 1.95312-.9375.8125-.9375.8125-2.875 0-2.125-.82812-3.125-.8125-1-2.01563-1-1.17187 0-1.96875.96875-.78125.953126-.78125 3.015626zm16.625 5.171874v-1.53125q-1.20312 1.765626-3.28125 1.765626-.92187 0-1.71875-.34375-.79687-.359376-1.1875-.890626-.375-.53125-.53125-1.3125-.10937-.515624-.10937-1.640624v-6.421876h1.75v5.75q0 1.375.10937 1.859376.17188.6875.70313 1.09375.54687.390624 1.32812.390624.79688 0 1.48438-.40625.70312-.40625.98437-1.09375.29688-.703124.29688-2.03125v-5.5625h1.75v10.375zm4.20313 3.96875v-14.34375h1.60937v1.34375q.5625-.78125 1.26563-1.171874.71875-.40625 1.73437-.40625 1.32813 0 2.34375.6875 1.01563.6875 1.53125 1.9375.53125 1.234374.53125 2.71875 0 1.59375-.57812 2.875-.5625 1.265624-1.65625 1.953124-1.09375.671876-2.29688.671876-.875 0-1.57812-.375-.6875-.375-1.14063-.9375v5.046874zm1.59375-9.09375q0 2 .8125 2.953126.8125.953124 1.96875.953124 1.17187 0 2-.984374.84375-.984376.84375-3.078126 0-1.96875-.82813-2.953124-.8125-1-1.9375-1-1.125 0-2 1.0625-.85937 1.046874-.85937 3.046874zm15.82812 5.125v-9h-1.54687v-1.375h1.54687v-1.09375q0-1.046874.1875-1.5625.25-.6875.89063-1.109374.64062-.421876 1.79687-.421876.75 0 1.64063.171876l-.26563 1.53125q-.54687-.09375-1.03125-.09375-.79687 0-1.14062.34375-.32813.34375-.32813 1.28125v.953124h2.03125v1.375h-2.03125v9zm4.9375-5.1875q0-2.875 1.59375-4.265624 1.34375-1.15625 3.26563-1.15625 2.14062 0 3.48437 1.40625 1.35938 1.40625 1.35938 3.875 0 2-.59375 3.15625-.59375 1.140624-1.75 1.78125-1.14063.625-2.5.625-2.1875 0-3.53125-1.390626-1.32813-1.40625-1.32813-4.03125zm1.79688 0q0 2 .85937 2.984376.875.984374 2.20313.984374 1.3125 0 2.17187-.984374.875-1 .875-3.046876 0-1.921874-.875-2.90625-.875-1-2.17187-1-1.32813 0-2.20313 1-.85937.984376-.85937 2.96875zm9.82812 5.1875v-10.375h1.57813v1.578126q.60937-1.109376 1.125-1.453126.51562-.359374 1.125-.359374.89062 0 1.8125.5625l-.60938 1.640624q-.64062-.390624-1.28125-.390624-.57812 0-1.04687.359374-.45313.34375-.65625.953126-.28125.9375-.28125 2.046874v5.4375zm13.28125 0v-14.3125h6.34375q1.90625 0 2.90625.390626 1 .375 1.59375 1.359374.59375.96875.59375 2.15625 0 1.515626-.98437 2.5625-.98438 1.046876-3.04688 1.328126.75.359374 1.14063.71875.82812.75 1.57812 1.90625l2.48438 3.890624h-2.375l-1.90625-2.984374q-.82813-1.28125-1.35938-1.96875-.53125-.6875-.96875-.953126-.42187-.28125-.85937-.390624-.32813-.0625-1.04688-.0625h-2.20312v6.359374zm1.89063-8h4.07812q1.29688 0 2.01563-.265624.73437-.265626 1.10937-.859376.39063-.59375.39063-1.28125 0-1.015624-.73438-1.671874-.73437-.65625-2.32812-.65625h-4.53125zm11.20312 2.8125q0-2.875 1.59375-4.265624 1.34375-1.15625 3.26563-1.15625 2.14062 0 3.48437 1.40625 1.35938 1.40625 1.35938 3.875 0 2-.59375 3.15625-.59375 1.140624-1.75 1.78125-1.14063.625-2.5.625-2.1875 0-3.53125-1.390626-1.32813-1.40625-1.32813-4.03125zm1.79688 0q0 2 .85937 2.984376.875.984374 2.20313.984374 1.3125 0 2.17187-.984374.875-1 .875-3.046876 0-1.921874-.875-2.90625-.875-1-2.17187-1-1.32813 0-2.20313 1-.85937.984376-.85937 2.96875zm9.20312 0q0-2.875 1.59375-4.265624 1.34375-1.15625 3.26563-1.15625 2.14062 0 3.48437 1.40625 1.35938 1.40625 1.35938 3.875 0 2-.59375 3.15625-.59375 1.140624-1.75 1.78125-1.14063.625-2.5.625-2.1875 0-3.53125-1.390626-1.32813-1.40625-1.32813-4.03125zm1.79688 0q0 2 .85937 2.984376.875.984374 2.20313.984374 1.3125 0 2.17187-.984374.875-1 .875-3.046876 0-1.921874-.875-2.90625-.875-1-2.17187-1-1.32813 0-2.20313 1-.85937.984376-.85937 2.96875zm9.84375 5.1875v-10.375h1.57812v1.453126q.48438-.75 1.29688-1.21875.8125-.46875 1.84375-.46875 1.15625 0 1.89062.484374.73438.46875 1.04688 1.328126 1.23437-1.8125 3.20312-1.8125 1.54688 0 2.375.859374.82813.859376.82813 2.625v7.125h-1.75v-6.53125q0-1.0625-.17188-1.515624-.17187-.46875-.625-.75-.4375-.28125-1.04687-.28125-1.09375 0-1.82813.734374-.71875.71875-.71875 2.3125v6.03125h-1.75v-6.734374q0-1.171876-.4375-1.75-.42187-.59375-1.40625-.59375-.73437 0-1.375.390624-.625.390626-.90625 1.140626-.28125.75-.28125 2.171874v5.375zm22.59375-4.59375 1.78125-.15625q.125 1.0625.57812 1.75.46875.6875 1.4375 1.125.98438.421876 2.21875.421876 1.07813 0 1.90625-.3125.82813-.328126 1.23438-.890626.40625-.5625.40625-1.234374 0-.671876-.39063-1.171876-.39062-.5-1.28125-.84375-.57812-.234374-2.5625-.703124-1.96875-.46875-2.75-.890626-1.03125-.53125-1.53125-1.328124-.5-.796876-.5-1.78125 0-1.09375.60938-2.03125.60937-.9375 1.79687-1.421876 1.1875-.5 2.625-.5 1.59375 0 2.8125.515626 1.21875.515624 1.85938 1.515624.65625.984376.70312 2.25l-1.8125.140626q-.14062-1.359376-.98437-2.046876-.84375-.703124-2.5-.703124-1.71875 0-2.51563.640624-.78125.625-.78125 1.5 0 .78125.5625 1.28125.54688.5 2.85938 1.015626 2.3125.515624 3.17187.90625 1.25.578124 1.84375 1.46875.59375.875.59375 2.03125 0 1.140624-.65625 2.15625-.65625 1.015624-1.89062 1.578124-1.21875.5625-2.75.5625-1.9375 0-3.25-.5625-1.3125-.578124-2.0625-1.71875-.75-1.140624-.78125-2.5625zm13.42187-7.703124v-2.015626h1.76563v2.015626zm0 12.296874v-10.375h1.76563v10.375zm3.0625 0v-1.421874l6.60938-7.578126q-1.125.046876-1.98438.046876h-4.23437v-1.421876h8.48437v1.171876l-5.625 6.578124-1.07812 1.203126q1.17187-.09375 2.21875-.09375h4.79687v1.515624zm18.03125-3.34375 1.8125.234376q-.42187 1.578124-1.59375 2.46875-1.15625.875-2.96875.875-2.26562 0-3.60937-1.390626-1.32813-1.40625-1.32813-3.9375 0-2.625 1.34375-4.0625 1.34375-1.453124 3.5-1.453124 2.07813 0 3.39063 1.421874 1.32812 1.40625 1.32812 3.984376 0 .15625-.01562.46875h-7.73438q.09375 1.703124.96875 2.609374.875.90625 2.17188.90625.96875 0 1.64062-.5.6875-.515624 1.09375-1.625zm-5.78125-2.84375h5.79688q-.10938-1.296874-.65625-1.953124-.84375-1.015626-2.1875-1.015626-1.20313 0-2.03125.8125-.82813.796876-.92188 2.15625zm15.45314 2.875 1.6875-.15625q.21874 1.1875.8125 1.734376.60938.53125 1.5625.53125.8125 0 1.42188-.359376.60936-.375 1-1 .39062-.625.65626-1.671874.2656-1.0625.2656-2.15625 0-.109376-.0156-.34375-.53126.828124-1.4375 1.359374-.90626.515626-1.9844.515626-1.7656 0-3-1.28125-1.23436-1.296876-1.23436-3.40625 0-2.171876 1.28126-3.5 1.29686-1.328126 3.21874-1.328126 1.40626 0 2.5625.75 1.15626.75 1.75 2.140626.60936 1.390624.60936 4.03125 0 2.75-.60936 4.375-.59374 1.625-1.76564 2.484374-1.17186.84375-2.75.84375-1.6875 0-2.75-.9375-1.0625-.9375-1.28124-2.625zm7.20314-6.3125q0-1.515624-.8125-2.40625-.7969-.890624-1.9375-.890624-1.1719 0-2.0469.96875-.85936.953124-.85936 2.46875 0 1.375.8125 2.234374.82812.84375 2.04686.84375 1.21876 0 2-.84375.7969-.859374.7969-2.375zm12.65624-1.1875-1.75.140626q-.23438-1.03125-.65624-1.5-.71876-.765626-1.76564-.765626-.84376 0-1.46876.46875-.8281.609376-1.3125 1.78125-.48436 1.15625-.5 3.296876.64064-.953126 1.5469-1.421876.92186-.46875 1.9375-.46875 1.75 0 2.98436 1.296876 1.23438 1.28125 1.23438 3.328124 0 1.359376-.57814 2.515626-.5781 1.15625-1.59374 1.78125-1.01562.609374-2.3125.609374-2.1875 0-3.57812-1.609374-1.39064-1.625-1.39064-5.34375 0-4.140626 1.53126-6.03125 1.34374-1.640626 3.60938-1.640626 1.6875 0 2.76562.953126 1.07814.9375 1.29688 2.609374zm-7.17188 6.171876q0 .90625.375 1.734374.39064.828126 1.07814 1.265626.7031.4375 1.4531.4375 1.125 0 1.9219-.890626.79686-.90625.79686-2.453124 0-1.484376-.79686-2.328126-.78126-.859374-1.9844-.859374-1.1875 0-2.0156.859374-.82814.84375-.82814 2.234376z" fill="#757575"/>
</svg>
