<?xml version="1.0"?>
<svg xmlns="http://www.w3.org/2000/svg" xmlns:xlink="http://www.w3.org/1999/xlink" fill="none" stroke-linecap="square" stroke-miterlimit="10" viewBox="0 0 1160 749">
  <clipPath id="a">
    <path d="m114.45 88.416664h1008.1v560.133336h-1008.1z"/>
  </clipPath>
  <path d="m0 0h1160v749h-1160z" fill="#f2f2f2"/>
  <g stroke-linecap="butt">
    <path d="m114.5 648.5h1008" stroke="#262626"/>
    <path d="m114.5 508.5h1008" stroke="#d9d9d9"/>
    <path d="m114.5 368.5h1008" stroke="#d9d9d9"/>
    <path d="m114.5 228.5h1008" stroke="#d9d9d9"/>
    <path d="m114.5 88.5h1008" stroke="#d9d9d9"/>
    <path d="m177.45625 632.5332v16" stroke="#e1e1e1"/>
    <path d="m303.46875 632.49396v16" stroke="#e1e1e1"/>
    <path d="m429.48126 632.2307v16" stroke="#e1e1e1"/>
    <path d="m555.4938 631.2841v16" stroke="#e1e1e1"/>
    <path d="m681.5062 627.5088v16" stroke="#e1e1e1"/>
    <path d="m807.51874 601.1265v16" stroke="#e1e1e1"/>
    <path d="m933.53125 506.65442v15.99998" stroke="#e1e1e1"/>
    <path d="m1059.5437 126.27348v16" stroke="#e1e1e1"/>
    <path clip-path="url(#a)" d="m177.45625 648.5332 126.0125-.03924 126.01251-.26326 126.01254-.9466 126.0124-3.7753 126.01254-26.3823 126.01251-94.4721 126.01245-380.38092" stroke="#4285f4" stroke-width="2"/>
  </g>
  <path clip-path="url(#a)" d="m180.95625 648.5332c0 1.933-1.567 3.5-3.5 3.5s-3.5-1.567-3.5-3.5 1.567-3.5 3.5-3.5 3.5 1.567 3.5 3.5z" fill="#4285f4"/>
  <path clip-path="url(#a)" d="m306.96875 648.49396c0 1.93304-1.56702 3.5-3.5 3.5s-3.5-1.56696-3.5-3.5c0-1.93296 1.56702-3.5 3.5-3.5s3.5 1.56704 3.5 3.5z" fill="#4285f4"/>
  <path clip-path="url(#a)" d="m432.98126 648.2307c0 1.933-1.56701 3.5-3.5 3.5-1.93301 0-3.5-1.567-3.5-3.5s1.56699-3.5 3.5-3.5c1.93299 0 3.5 1.567 3.5 3.5z" fill="#4285f4"/>
  <path clip-path="url(#a)" d="m558.9938 647.2841c0 1.933-1.56704 3.5-3.5 3.5-1.9331 0-3.5-1.567-3.5-3.5s1.5669-3.5 3.5-3.5c1.93296 0 3.5 1.567 3.5 3.5z" fill="#4285f4"/>
  <path clip-path="url(#a)" d="m685.0062 643.5088c0 1.933-1.5669 3.5-3.5 3.5-1.93296 0-3.5-1.567-3.5-3.5s1.56704-3.5 3.5-3.5c1.9331 0 3.5 1.567 3.5 3.5z" fill="#4285f4"/>
  <path clip-path="url(#a)" d="m811.01874 617.1265c0 1.933-1.56704 3.5-3.5 3.5-1.93299 0-3.5-1.567-3.5-3.5 0-1.93296 1.56701-3.5 3.5-3.5 1.93296 0 3.5 1.56704 3.5 3.5z" fill="#4285f4"/>
  <path clip-path="url(#a)" d="m937.03125 522.6544c0 1.933-1.56702 3.5-3.5 3.5s-3.5-1.567-3.5-3.5c0-1.93296 1.56702-3.5 3.5-3.5s3.5 1.56704 3.5 3.5z" fill="#4285f4"/>
  <path clip-path="url(#a)" d="m1063.0437 142.27348c0 1.933-1.5669 3.5-3.5 3.5-1.933 0-3.5-1.567-3.5-3.5s1.567-3.5 3.5-3.5c1.9331 0 3.5 1.567 3.5 3.5z" fill="#4285f4"/>
  <path d="m165.95625 626.2988q0-1.5312.3125-2.4531.3125-.9375.92188-1.4375.625-.5 1.5625-.5.6875 0 1.20312.28125.53125.28125.875.8125.34375.51565.53125 1.26565.1875.75.1875 2.0312 0 1.51565-.3125 2.4375-.29687.9219-.92187 1.4375-.60938.5-1.5625.5-1.23438 0-1.95313-.8906-.84375-1.0625-.84375-3.4844zm1.07813 0q0 2.1094.5 2.8125.5.70315 1.21875.70315.73437 0 1.21875-.70315.5-.7031.5-2.8125 0-2.125-.5-2.8125-.48438-.7031-1.23438-.7031-.71875 0-1.15625.6094-.54687.7812-.54687 2.9062zm6.48437 4.2344v-1.2031h1.20313v1.2031q0 .65625-.23438 1.0625-.23437.4219-.73437.6406l-.29688-.4531q.32813-.1406.48438-.4375.15625-.28125.1875-.8125zm2.4375-4.2344q0-1.5312.3125-2.4531.3125-.9375.92188-1.4375.625-.5 1.5625-.5.6875 0 1.20312.28125.53125.28125.875.8125.34375.51565.53125 1.26565.1875.75.1875 2.0312 0 1.51565-.3125 2.4375-.29687.9219-.92187 1.4375-.60938.5-1.5625.5-1.23438 0-1.95313-.8906-.84375-1.0625-.84375-3.4844zm1.07813 0q0 2.1094.5 2.8125.5.70315 1.21875.70315.73437 0 1.21875-.70315.5-.7031.5-2.8125 0-2.125-.5-2.8125-.48438-.7031-1.23438-.7031-.71875 0-1.15625.6094-.54687.7812-.54687 2.9062zm5.92187 1.9688 1.0625-.14065q.17188.89065.60938 1.29685.4375.39065 1.0625.39065.75 0 1.26562-.51565.51563-.5156.51563-1.2812 0-.7188-.48438-1.1875-.46875-.4844-1.20312-.4844-.29688 0-.75.125l.125-.9375q.10937.0156.17187.0156.67188 0 1.20313-.3437.54687-.3594.54687-1.0938 0-.5781-.39062-.9531-.39063-.3906-1.01563-.3906-.60937 0-1.03125.3906-.40625.3906-.51562 1.15625l-1.0625-.1875q.1875-1.04685.875-1.625.6875-.59375 1.70312-.59375.70313 0 1.29688.3125.59375.2969.90625.8125.3125.5156.3125 1.1094 0 .54685-.29688 1.0156-.29687.4531-.875.71875.75.17185 1.17188.73435.42187.5469.42187 1.39065 0 1.125-.82812 1.90625-.8125.78125-2.0625.78125-1.125 0-1.875-.67185-.75-.6875-.85938-1.75z" stroke="#f2f2f2" stroke-linecap="round" stroke-linejoin="round" stroke-width="3"/>
  <path d="m165.95625 626.2988q0-1.5312.3125-2.4531.3125-.9375.92188-1.4375.625-.5 1.5625-.5.6875 0 1.20312.28125.53125.28125.875.8125.34375.51565.53125 1.26565.1875.75.1875 2.0312 0 1.51565-.3125 2.4375-.29687.9219-.92187 1.4375-.60938.5-1.5625.5-1.23438 0-1.95313-.8906-.84375-1.0625-.84375-3.4844zm1.07813 0q0 2.1094.5 2.8125.5.70315 1.21875.70315.73437 0 1.21875-.70315.5-.7031.5-2.8125 0-2.125-.5-2.8125-.48438-.7031-1.23438-.7031-.71875 0-1.15625.6094-.54687.7812-.54687 2.9062zm6.48437 4.2344v-1.2031h1.20313v1.2031q0 .65625-.23438 1.0625-.23437.4219-.73437.6406l-.29688-.4531q.32813-.1406.48438-.4375.15625-.28125.1875-.8125zm2.4375-4.2344q0-1.5312.3125-2.4531.3125-.9375.92188-1.4375.625-.5 1.5625-.5.6875 0 1.20312.28125.53125.28125.875.8125.34375.51565.53125 1.26565.1875.75.1875 2.0312 0 1.51565-.3125 2.4375-.29687.9219-.92187 1.4375-.60938.5-1.5625.5-1.23438 0-1.95313-.8906-.84375-1.0625-.84375-3.4844zm1.07813 0q0 2.1094.5 2.8125.5.70315 1.21875.70315.73437 0 1.21875-.70315.5-.7031.5-2.8125 0-2.125-.5-2.8125-.48438-.7031-1.23438-.7031-.71875 0-1.15625.6094-.54687.7812-.54687 2.9062zm5.92187 1.9688 1.0625-.14065q.17188.89065.60938 1.29685.4375.39065 1.0625.39065.75 0 1.26562-.51565.51563-.5156.51563-1.2812 0-.7188-.48438-1.1875-.46875-.4844-1.20312-.4844-.29688 0-.75.125l.125-.9375q.10937.0156.17187.0156.67188 0 1.20313-.3437.54687-.3594.54687-1.0938 0-.5781-.39062-.9531-.39063-.3906-1.01563-.3906-.60937 0-1.03125.3906-.40625.3906-.51562 1.15625l-1.0625-.1875q.1875-1.04685.875-1.625.6875-.59375 1.70312-.59375.70313 0 1.29688.3125.59375.2969.90625.8125.3125.5156.3125 1.1094 0 .54685-.29688 1.0156-.29687.4531-.875.71875.75.17185 1.17188.73435.42187.5469.42187 1.39065 0 1.125-.82812 1.90625-.8125.78125-2.0625.78125-1.125 0-1.875-.67185-.75-.6875-.85938-1.75z" fill="#000"/>
  <path d="m291.96875 626.2596q0-1.53127.3125-2.45314.3125-.9375.92187-1.4375.625-.5 1.5625-.5.6875 0 1.20313.28124.53125.28126.875.8125.34375.51563.53125 1.26563.1875.75.1875 2.03127 0 1.5156-.3125 2.4375-.29688.92186-.92188 1.4375-.60937.5-1.5625.5-1.23437 0-1.95312-.89064-.84375-1.0625-.84375-3.48436zm1.07813 0q0 2.10936.5 2.8125.5.7031 1.21874.7031.73438 0 1.21876-.7031.5-.70314.5-2.8125 0-2.125-.5-2.8125-.48438-.70314-1.23438-.70314-.71875 0-1.15625.60937-.54687.78127-.54687 2.90627zm6.48437 4.23436v-1.20313h1.20313v1.20313q0 .65624-.23438 1.0625-.23438.42187-.73438.64064l-.29687-.45314q.32813-.14063.48437-.4375.15626-.28126.1875-.8125zm6.40625 0h-1.04688v-6.71876q-.39062.3594-1.01562.7344-.60938.35936-1.09375.53123v-1.01563q.875-.42187 1.53125-1 .67188-.59374.95312-1.15624h.67188zm3.03125-4.23436q0-1.53127.3125-2.45314.3125-.9375.92187-1.4375.625-.5 1.5625-.5.6875 0 1.20313.28124.53125.28126.875.8125.34375.51563.53125 1.26563.1875.75.1875 2.03127 0 1.5156-.3125 2.4375-.29688.92186-.92188 1.4375-.60937.5-1.5625.5-1.23437 0-1.95312-.89064-.84375-1.0625-.84375-3.48436zm1.07813 0q0 2.10936.5 2.8125.5.7031 1.21874.7031.73438 0 1.21876-.7031.5-.70314.5-2.8125 0-2.125-.5-2.8125-.48438-.70314-1.23438-.70314-.71875 0-1.15625.60937-.54687.78127-.54687 2.90627z" stroke="#f2f2f2" stroke-linecap="round" stroke-linejoin="round" stroke-width="3"/>
  <path d="m291.96875 626.2596q0-1.53127.3125-2.45314.3125-.9375.92187-1.4375.625-.5 1.5625-.5.6875 0 1.20313.28124.53125.28126.875.8125.34375.51563.53125 1.26563.1875.75.1875 2.03127 0 1.5156-.3125 2.4375-.29688.92186-.92188 1.4375-.60937.5-1.5625.5-1.23437 0-1.95312-.89064-.84375-1.0625-.84375-3.48436zm1.07813 0q0 2.10936.5 2.8125.5.7031 1.21874.7031.73438 0 1.21876-.7031.5-.70314.5-2.8125 0-2.125-.5-2.8125-.48438-.70314-1.23438-.70314-.71875 0-1.15625.60937-.54687.78127-.54687 2.90627zm6.48437 4.23436v-1.20313h1.20313v1.20313q0 .65624-.23438 1.0625-.23438.42187-.73438.64064l-.29687-.45314q.32813-.14063.48437-.4375.15626-.28126.1875-.8125zm6.40625 0h-1.04688v-6.71876q-.39062.3594-1.01562.7344-.60938.35936-1.09375.53123v-1.01563q.875-.42187 1.53125-1 .67188-.59374.95312-1.15624h.67188zm3.03125-4.23436q0-1.53127.3125-2.45314.3125-.9375.92187-1.4375.625-.5 1.5625-.5.6875 0 1.20313.28124.53125.28126.875.8125.34375.51563.53125 1.26563.1875.75.1875 2.03127 0 1.5156-.3125 2.4375-.29688.92186-.92188 1.4375-.60937.5-1.5625.5-1.23437 0-1.95312-.89064-.84375-1.0625-.84375-3.48436zm1.07813 0q0 2.10936.5 2.8125.5.7031 1.21874.7031.73438 0 1.21876-.7031.5-.70314.5-2.8125 0-2.125-.5-2.8125-.48438-.70314-1.23438-.70314-.71875 0-1.15625.60937-.54687.78127-.54687 2.90627z" fill="#000"/>
  <path d="m417.98126 625.99634q0-1.53124.3125-2.45314.3125-.9375.92188-1.4375.625-.5 1.5625-.5.6875 0 1.20312.28126.53124.28124.875.8125.34374.51564.53124 1.26564.1875.75.1875 2.03124 0 1.51562-.3125 2.4375-.29686.92186-.92186 1.4375-.60938.5-1.5625.5-1.23438 0-1.95314-.89064-.84374-1.0625-.84374-3.48436zm1.07814 0q0 2.10936.5 2.8125.5.70312 1.21874.70312.73436 0 1.21876-.70312.5-.70314.5-2.8125 0-2.125-.5-2.8125-.4844-.70314-1.2344-.70314-.71874 0-1.15624.6094-.54686.78124-.54686 2.90624zm6.48436 4.23436v-1.2031h1.20314v1.2031q0 .65626-.2344 1.0625-.23436.4219-.73436.64064l-.29688-.45314q.32814-.1406.48438-.4375.15626-.28124.1875-.8125zm2.4375-2.25 1.10938-.09374q.125.8125.5625 1.21874.45312.40626 1.09376.40626.75 0 1.28124-.57812.53126-.57814.53126-1.51564 0-.90624-.51564-1.42186-.5-.53124-1.32812-.53124-.5 0-.92188.23436-.40626.23438-.64062.59374l-.98438-.125.82814-4.40624h4.28124v1h-3.4375l-.45314 2.3125q.76564-.54686 1.6094-.54686 1.125 0 1.8906.78124.78126.78126.78126 2.01562 0 1.15624-.67186 2.01564-.82814 1.03124-2.25 1.03124-1.1719 0-1.9219-.65624-.73436-.65626-.84374-1.7344zm7.0625-5.21874v-1.01562h5.5625v.82812q-.8125.875-1.625 2.32814-.79686 1.4375-1.23436 2.96874-.32814 1.07812-.40626 2.35936h-1.09374q.0156-1.0156.3906-2.4531.39064-1.4375 1.09376-2.76564.71874-1.32812 1.53124-2.25z" stroke="#f2f2f2" stroke-linecap="round" stroke-linejoin="round" stroke-width="3"/>
  <path d="m417.98126 625.99634q0-1.53124.3125-2.45314.3125-.9375.92188-1.4375.625-.5 1.5625-.5.6875 0 1.20312.28126.53124.28124.875.8125.34374.51564.53124 1.26564.1875.75.1875 2.03124 0 1.51562-.3125 2.4375-.29686.92186-.92186 1.4375-.60938.5-1.5625.5-1.23438 0-1.95314-.89064-.84374-1.0625-.84374-3.48436zm1.07814 0q0 2.10936.5 2.8125.5.70312 1.21874.70312.73436 0 1.21876-.70312.5-.70314.5-2.8125 0-2.125-.5-2.8125-.4844-.70314-1.2344-.70314-.71874 0-1.15624.6094-.54686.78124-.54686 2.90624zm6.48436 4.23436v-1.2031h1.20314v1.2031q0 .65626-.2344 1.0625-.23436.4219-.73436.64064l-.29688-.45314q.32814-.1406.48438-.4375.15626-.28124.1875-.8125zm2.4375-2.25 1.10938-.09374q.125.8125.5625 1.21874.45312.40626 1.09376.40626.75 0 1.28124-.57812.53126-.57814.53126-1.51564 0-.90624-.51564-1.42186-.5-.53124-1.32812-.53124-.5 0-.92188.23436-.40626.23438-.64062.59374l-.98438-.125.82814-4.40624h4.28124v1h-3.4375l-.45314 2.3125q.76564-.54686 1.6094-.54686 1.125 0 1.8906.78124.78126.78126.78126 2.01562 0 1.15624-.67186 2.01564-.82814 1.03124-2.25 1.03124-1.1719 0-1.9219-.65624-.73436-.65626-.84374-1.7344zm7.0625-5.21874v-1.01562h5.5625v.82812q-.8125.875-1.625 2.32814-.79686 1.4375-1.23436 2.96874-.32814 1.07812-.40626 2.35936h-1.09374q.0156-1.0156.3906-2.4531.39064-1.4375 1.09376-2.76564.71874-1.32812 1.53124-2.25z" fill="#000"/>
  <path d="m549.54065 628.2685v1.0156h-5.6875q0-.375.125-.73436.21875-.57814.6875-1.14064.48435-.5625 1.39065-1.29686 1.4062-1.15624 1.8906-1.82814.5-.67186.5-1.2656 0-.625-.4531-1.0469-.45315-.4375-1.1719-.4375-.7656 0-1.21875.45314-.45315.45313-.46875 1.26563l-1.0781-.10937q.10935-1.21876.8281-1.84376.7344-.64064 1.96875-.64064 1.23435 0 1.95315.6875.7187.6875.7187 1.70314 0 .51563-.2187 1.01563-.20315.48437-.70315 1.04687-.48435.54686-1.60935 1.5-.95315.79686-1.2344 1.09376-.2656.28124-.4375.5625zm2.01565 1.0156v-1.2031h1.2031v1.2031q0 .65627-.2344 1.0625-.23435.4219-.73435.64064l-.29685-.45314q.3281-.1406.48435-.4375.15625-.28123.1875-.8125zm7.98435-1.0156v1.0156h-5.6875q0-.375.125-.73436.21875-.57814.6875-1.14064.48435-.5625 1.39065-1.29686 1.4062-1.15624 1.8906-1.82814.5-.67186.5-1.2656 0-.625-.4531-1.0469-.45315-.4375-1.1719-.4375-.7656 0-1.21875.45314-.45315.45313-.46875 1.26563l-1.0781-.10937q.10935-1.21876.8281-1.84376.7344-.64064 1.96875-.64064 1.23435 0 1.95315.6875.7187.6875.7187 1.70314 0 .51563-.2187 1.01563-.20315.48437-.70315 1.04687-.48435.54686-1.60935 1.5-.95315.79686-1.2344 1.09376-.2656.28124-.4375.5625zm6.92185-5.46876-1.04685.07813q-.14065-.625-.39065-.90627-.4375-.4531-1.0625-.4531-.5 0-.8906.28124-.4844.375-.78125 1.07813-.28125.6875-.29685 1.96873.375-.5781.92185-.85936.5625-.28124 1.17185-.28124 1.0469 0 1.7813.78124.75.78126.75 2 0 .8125-.3594 1.51563-.34375.6875-.9531 1.0625-.6094.35937-1.375.35937-1.32815 0-2.1563-.96874-.8281-.96876-.8281-3.1875 0-2.5.9219-3.625.79685-.9844 2.1562-.9844 1.01565 0 1.6563.57814.6562.5625.7812 1.5625zm-4.29685 3.70313q0 .54687.21875 1.04687.2344.48436.6406.75.4219.26563.89065.26563.65625 0 1.14065-.53127.48435-.54686.48435-1.46873 0-.89063-.48435-1.40627-.4688-.5156-1.1875-.5156-.7188 0-1.2188.5156-.48435.51564-.48435 1.34377z" stroke="#f2f2f2" stroke-linecap="round" stroke-linejoin="round" stroke-width="3"/>
  <path d="m549.54065 628.2685v1.0156h-5.6875q0-.375.125-.73436.21875-.57814.6875-1.14064.48435-.5625 1.39065-1.29686 1.4062-1.15624 1.8906-1.82814.5-.67186.5-1.2656 0-.625-.4531-1.0469-.45315-.4375-1.1719-.4375-.7656 0-1.21875.45314-.45315.45313-.46875 1.26563l-1.0781-.10937q.10935-1.21876.8281-1.84376.7344-.64064 1.96875-.64064 1.23435 0 1.95315.6875.7187.6875.7187 1.70314 0 .51563-.2187 1.01563-.20315.48437-.70315 1.04687-.48435.54686-1.60935 1.5-.95315.79686-1.2344 1.09376-.2656.28124-.4375.5625zm2.01565 1.0156v-1.2031h1.2031v1.2031q0 .65627-.2344 1.0625-.23435.4219-.73435.64064l-.29685-.45314q.3281-.1406.48435-.4375.15625-.28123.1875-.8125zm7.98435-1.0156v1.0156h-5.6875q0-.375.125-.73436.21875-.57814.6875-1.14064.48435-.5625 1.39065-1.29686 1.4062-1.15624 1.8906-1.82814.5-.67186.5-1.2656 0-.625-.4531-1.0469-.45315-.4375-1.1719-.4375-.7656 0-1.21875.45314-.45315.45313-.46875 1.26563l-1.0781-.10937q.10935-1.21876.8281-1.84376.7344-.64064 1.96875-.64064 1.23435 0 1.95315.6875.7187.6875.7187 1.70314 0 .51563-.2187 1.01563-.20315.48437-.70315 1.04687-.48435.54686-1.60935 1.5-.95315.79686-1.2344 1.09376-.2656.28124-.4375.5625zm6.92185-5.46876-1.04685.07813q-.14065-.625-.39065-.90627-.4375-.4531-1.0625-.4531-.5 0-.8906.28124-.4844.375-.78125 1.07813-.28125.6875-.29685 1.96873.375-.5781.92185-.85936.5625-.28124 1.17185-.28124 1.0469 0 1.7813.78124.75.78126.75 2 0 .8125-.3594 1.51563-.34375.6875-.9531 1.0625-.6094.35937-1.375.35937-1.32815 0-2.1563-.96874-.8281-.96876-.8281-3.1875 0-2.5.9219-3.625.79685-.9844 2.1562-.9844 1.01565 0 1.6563.57814.6562.5625.7812 1.5625zm-4.29685 3.70313q0 .54687.21875 1.04687.2344.48436.6406.75.4219.26563.89065.26563.65625 0 1.14065-.53127.48435-.54686.48435-1.46873 0-.89063-.48435-1.40627-.4688-.5156-1.1875-.5156-.7188 0-1.2188.5156-.48435.51564-.48435 1.34377z" fill="#000"/>
  <path d="m670.1625 623.5244 1.0156-.09374q.125.71874.4844 1.04688.375.3125.9375.3125.48435 0 .8437-.21874.375-.2344.6094-.59376.2344-.375.3906-1 .1563-.64064.1563-1.29688 0-.07812 0-.21876-.3125.5-.8594.82814-.5469.3125-1.1875.3125-1.0781 0-1.8125-.76564-.7344-.78124-.7344-2.04686 0-1.3125.76565-2.10938.78125-.79686 1.9375-.79686.82815 0 1.51565.4531.7031.45314 1.0625 1.2969.35935.8281.35935 2.40624 0 1.64062-.35935 2.625-.3438.96876-1.0625 1.48436-.70315.5-1.64065.5-1.01565 0-1.65625-.54686-.6406-.5625-.7656-1.57814zm4.3125-3.79686q0-.90624-.4844-1.4375-.46875-.53124-1.15625-.53124-.70315 0-1.23435.5781-.51565.5625-.51565 1.4844 0 .8125.5 1.3281.5.51564 1.21875.51564.7344 0 1.2031-.51564.4688-.5156.4688-1.42186zm3.0937 5.78126v-1.20314h1.20315v1.20314q0 .65624-.23435 1.0625-.2344.42186-.7344.6406l-.2969-.4531q.32815-.14064.4844-.4375.15625-.28126.1875-.8125zm2.4375-4.2344q0-1.53124.3125-2.4531.3125-.9375.9219-1.4375.625-.5 1.5625-.5.6875 0 1.2031.28124.5313.28126.875.8125.3438.51562.5313 1.26562.1875.75.1875 2.03124 0 1.51564-.3125 2.4375-.2969.9219-.9219 1.4375-.6094.5-1.5625.5-1.2344 0-1.9531-.8906-.8438-1.0625-.8438-3.4844zm1.07815 0q0 2.1094.5 2.8125.5.70314 1.21875.70314.7344 0 1.21875-.70314.5-.7031.5-2.8125 0-2.125-.5-2.8125-.48435-.7031-1.23435-.7031-.7188 0-1.1563.60936-.54685.78124-.54685 2.90624zm5.92185 0q0-1.53124.3125-2.4531.3125-.9375.9219-1.4375.625-.5 1.5625-.5.6875 0 1.2031.28124.5313.28126.875.8125.3438.51562.5313 1.26562.1875.75.1875 2.03124 0 1.51564-.3125 2.4375-.2969.9219-.9219 1.4375-.6094.5-1.5625.5-1.2344 0-1.9531-.8906-.8438-1.0625-.8438-3.4844zm1.07815 0q0 2.1094.5 2.8125.5.70314 1.21875.70314.7344 0 1.21875-.70314.5-.7031.5-2.8125 0-2.125-.5-2.8125-.48435-.7031-1.23435-.7031-.7188 0-1.1563.60936-.54685.78124-.54685 2.90624z" stroke="#f2f2f2" stroke-linecap="round" stroke-linejoin="round" stroke-width="3"/>
  <path d="m670.1625 623.5244 1.0156-.09374q.125.71874.4844 1.04688.375.3125.9375.3125.48435 0 .8437-.21874.375-.2344.6094-.59376.2344-.375.3906-1 .1563-.64064.1563-1.29688 0-.07812 0-.21876-.3125.5-.8594.82814-.5469.3125-1.1875.3125-1.0781 0-1.8125-.76564-.7344-.78124-.7344-2.04686 0-1.3125.76565-2.10938.78125-.79686 1.9375-.79686.82815 0 1.51565.4531.7031.45314 1.0625 1.2969.35935.8281.35935 2.40624 0 1.64062-.35935 2.625-.3438.96876-1.0625 1.48436-.70315.5-1.64065.5-1.01565 0-1.65625-.54686-.6406-.5625-.7656-1.57814zm4.3125-3.79686q0-.90624-.4844-1.4375-.46875-.53124-1.15625-.53124-.70315 0-1.23435.5781-.51565.5625-.51565 1.4844 0 .8125.5 1.3281.5.51564 1.21875.51564.7344 0 1.2031-.51564.4688-.5156.4688-1.42186zm3.0937 5.78126v-1.20314h1.20315v1.20314q0 .65624-.23435 1.0625-.2344.42186-.7344.6406l-.2969-.4531q.32815-.14064.4844-.4375.15625-.28126.1875-.8125zm2.4375-4.2344q0-1.53124.3125-2.4531.3125-.9375.9219-1.4375.625-.5 1.5625-.5.6875 0 1.2031.28124.5313.28126.875.8125.3438.51562.5313 1.26562.1875.75.1875 2.03124 0 1.51564-.3125 2.4375-.2969.9219-.9219 1.4375-.6094.5-1.5625.5-1.2344 0-1.9531-.8906-.8438-1.0625-.8438-3.4844zm1.07815 0q0 2.1094.5 2.8125.5.70314 1.21875.70314.7344 0 1.21875-.70314.5-.7031.5-2.8125 0-2.125-.5-2.8125-.48435-.7031-1.23435-.7031-.7188 0-1.1563.60936-.54685.78124-.54685 2.90624zm5.92185 0q0-1.53124.3125-2.4531.3125-.9375.9219-1.4375.625-.5 1.5625-.5.6875 0 1.2031.28124.5313.28126.875.8125.3438.51562.5313 1.26562.1875.75.1875 2.03124 0 1.51564-.3125 2.4375-.2969.9219-.9219 1.4375-.6094.5-1.5625.5-1.2344 0-1.9531-.8906-.8438-1.0625-.8438-3.4844zm1.07815 0q0 2.1094.5 2.8125.5.70314 1.21875.70314.7344 0 1.21875-.70314.5-.7031.5-2.8125 0-2.125-.5-2.8125-.48435-.7031-1.23435-.7031-.7188 0-1.1563.60936-.54685.78124-.54685 2.90624z" fill="#000"/>
  <path d="m792.51874 596.8765 1.10936-.0937q.125.8125.5625 1.2187.45314.4063 1.09376.4063.75 0 1.28124-.57815.53126-.57815.53126-1.51565 0-.9062-.51562-1.42185-.5-.53125-1.32814-.53125-.5 0-.92186.2344-.40624.23435-.64064.5937l-.98436-.125.82812-4.4062h4.28124v1h-3.4375l-.4531 2.3125q.7656-.5469 1.60936-.5469 1.125 0 1.89064.78125.78124.78125.78124 2.01565 0 1.1562-.67188 2.0156-.82812 1.03125-2.25 1.03125-1.17186 0-1.92186-.65625-.7344-.65625-.84376-1.7344zm12.46876-4.23435-1.0469.07815q-.1406-.625-.3906-.9063-.4375-.4531-1.0625-.4531-.5 0-.89064.28125-.48436.375-.78126 1.07815-.28124.6875-.29686 1.9687.375-.5781.92186-.85935.5625-.28125 1.1719-.28125 1.04686 0 1.78124.78125.75.78125.75 2 0 .8125-.35938 1.51565-.34376.6875-.95312 1.0625-.60938.35935-1.375.35935-1.32814 0-2.15624-.96875-.82814-.96875-.82814-3.1875 0-2.5.92188-3.625.79686-.9844 2.15626-.9844 1.0156 0 1.65624.57815.65626.5625.78126 1.5625zm-4.2969 3.70315q0 .54685.21876 1.04685.23438.48435.64064.75.42186.26565.8906.26565.65626 0 1.14064-.5313.48436-.54685.48436-1.4687 0-.89065-.48436-1.4063-.46874-.5156-1.1875-.5156-.71874 0-1.21874.5156-.4844.51565-.4844 1.3438zm6.39064 2.7812v-1.2031h1.20312v1.2031q0 .6563-.23436 1.0625-.2344.4219-.7344.64065l-.29686-.45315q.32812-.1406.48436-.4375.15626-.2812.1875-.8125zm6.40626 0h-1.0469v-6.7187q-.3906.35935-1.0156.73435-.6094.35935-1.09376.53125v-1.0156q.875-.4219 1.53126-1 .67186-.5938.9531-1.1563h.6719zm3.03124-4.23435q0-1.53125.3125-2.45315.3125-.9375.92186-1.4375.625-.5 1.5625-.5.6875 0 1.20314.2813.53126.2812.875.8125.34376.5156.53126 1.2656.1875.75.1875 2.03125 0 1.51565-.3125 2.4375-.2969.92185-.9219 1.4375-.60936.5-1.5625.5-1.23436 0-1.9531-.89065-.84376-1.0625-.84376-3.48435zm1.07812 0q0 2.10935.5 2.8125.5.70315 1.21874.70315.7344 0 1.21876-.70315.5-.70315.5-2.8125 0-2.125-.5-2.8125-.48436-.70315-1.23436-.70315-.71876 0-1.15626.6094-.54688.78125-.54688 2.90625z" stroke="#f2f2f2" stroke-linecap="round" stroke-linejoin="round" stroke-width="3"/>
  <path d="m792.51874 596.8765 1.10936-.0937q.125.8125.5625 1.2187.45314.4063 1.09376.4063.75 0 1.28124-.57815.53126-.57815.53126-1.51565 0-.9062-.51562-1.42185-.5-.53125-1.32814-.53125-.5 0-.92186.2344-.40624.23435-.64064.5937l-.98436-.125.82812-4.4062h4.28124v1h-3.4375l-.4531 2.3125q.7656-.5469 1.60936-.5469 1.125 0 1.89064.78125.78124.78125.78124 2.01565 0 1.1562-.67188 2.0156-.82812 1.03125-2.25 1.03125-1.17186 0-1.92186-.65625-.7344-.65625-.84376-1.7344zm12.46876-4.23435-1.0469.07815q-.1406-.625-.3906-.9063-.4375-.4531-1.0625-.4531-.5 0-.89064.28125-.48436.375-.78126 1.07815-.28124.6875-.29686 1.9687.375-.5781.92186-.85935.5625-.28125 1.1719-.28125 1.04686 0 1.78124.78125.75.78125.75 2 0 .8125-.35938 1.51565-.34376.6875-.95312 1.0625-.60938.35935-1.375.35935-1.32814 0-2.15624-.96875-.82814-.96875-.82814-3.1875 0-2.5.92188-3.625.79686-.9844 2.15626-.9844 1.0156 0 1.65624.57815.65626.5625.78126 1.5625zm-4.2969 3.70315q0 .54685.21876 1.04685.23438.48435.64064.75.42186.26565.8906.26565.65626 0 1.14064-.5313.48436-.54685.48436-1.4687 0-.89065-.48436-1.4063-.46874-.5156-1.1875-.5156-.71874 0-1.21874.5156-.4844.51565-.4844 1.3438zm6.39064 2.7812v-1.2031h1.20312v1.2031q0 .6563-.23436 1.0625-.2344.4219-.7344.64065l-.29686-.45315q.32812-.1406.48436-.4375.15626-.2812.1875-.8125zm6.40626 0h-1.0469v-6.7187q-.3906.35935-1.0156.73435-.6094.35935-1.09376.53125v-1.0156q.875-.4219 1.53126-1 .67186-.5938.9531-1.1563h.6719zm3.03124-4.23435q0-1.53125.3125-2.45315.3125-.9375.92186-1.4375.625-.5 1.5625-.5.6875 0 1.20314.2813.53126.2812.875.8125.34376.5156.53126 1.2656.1875.75.1875 2.03125 0 1.51565-.3125 2.4375-.2969.92185-.9219 1.4375-.60936.5-1.5625.5-1.23436 0-1.9531-.89065-.84376-1.0625-.84376-3.48435zm1.07812 0q0 2.10935.5 2.8125.5.70315 1.21874.70315.7344 0 1.21876-.70315.5-.70315.5-2.8125 0-2.125-.5-2.8125-.48436-.70315-1.23436-.70315-.71876 0-1.15626.6094-.54688.78125-.54688 2.90625z" fill="#000"/>
  <path d="m920.5781 503.6388v1.01562h-5.6875q0-.375.125-.73438.2188-.57812.6875-1.14062.4844-.5625 1.39065-1.29688 1.40625-1.15624 1.89065-1.82812.5-.67188.5-1.26562 0-.625-.45315-1.04688-.45315-.4375-1.17185-.4375-.76565 0-1.2188.45312-.4531.45313-.4687 1.26563l-1.07815-.10937q.10935-1.21876.82815-1.84376.73435-.64062 1.9687-.64062 1.2344 0 1.95315.6875.71875.6875.71875 1.70312 0 .51563-.21875 1.01563-.20315.48437-.70315 1.04687-.48435.54688-1.60935 1.5-.95315.79688-1.23435 1.09376-.26565.28124-.4375.5625zm7 0v1.01562h-5.6875q0-.375.125-.73438.2188-.57812.6875-1.14062.4844-.5625 1.39065-1.29688 1.40625-1.15624 1.89065-1.82812.5-.67188.5-1.26562 0-.625-.45315-1.04688-.45315-.4375-1.17185-.4375-.76565 0-1.2188.45312-.4531.45313-.4687 1.26563l-1.07815-.10937q.10935-1.21876.82815-1.84376.73435-.64062 1.9687-.64062 1.2344 0 1.95315.6875.71875.6875.71875 1.70312 0 .51563-.21875 1.01563-.20315.48437-.70315 1.04687-.48435.54688-1.60935 1.5-.95315.79688-1.23435 1.09376-.26565.28124-.4375.5625zm4.82815 1.01562v-2.0625h-3.71875v-.96875l3.9219-5.5625h.85935v5.5625h1.15625v.96875h-1.15625v2.0625zm0-3.03125v-3.85937l-2.6875 3.85937zm4.1875 3.03125v-1.20312h1.20315v1.20312q0 .65625-.2344 1.0625-.2344.42188-.7344.64062l-.29685-.45312q.32815-.14062.48435-.4375.1563-.28125.1875-.8125zm2.5-7.46875v-1.01563h5.5625v.82813q-.8125.875-1.625 2.32813-.79685 1.4375-1.23435 2.96874-.32815 1.07813-.4063 2.35938h-1.0937q.0156-1.01562.3906-2.45312.3906-1.4375 1.09375-2.76563.71875-1.32813 1.53125-2.25zm12.40625.98437-1.0469.07813q-.1406-.625-.3906-.90625-.4375-.45312-1.0625-.45312-.5 0-.8906.28124-.4844.375-.7813 1.07813-.2812.6875-.29685 1.96875.375-.57812.92185-.85938.5625-.28124 1.1719-.28124 1.0469 0 1.78125.78124.75.78126.75 2 0 .8125-.35935 1.51563-.3438.6875-.95315 1.0625-.60935.35937-1.375.35937-1.32815 0-2.15625-.96874-.8281-.96876-.8281-3.1875 0-2.5.92185-3.625.79685-.98438 2.15625-.98438 1.0156 0 1.65625.57812.65625.5625.78125 1.5625zm-4.2969 3.70313q0 .54687.2188 1.04687.23435.48438.6406.75.4219.26563.8906.26563.6563 0 1.14065-.53125.48435-.54688.48435-1.46875 0-.89063-.48435-1.40625-.46875-.51562-1.1875-.51562-.71875 0-1.21875.51562-.4844.51562-.4844 1.34375z" stroke="#f2f2f2" stroke-linecap="round" stroke-linejoin="round" stroke-width="3"/>
  <path d="m920.5781 503.6388v1.01562h-5.6875q0-.375.125-.73438.2188-.57812.6875-1.14062.4844-.5625 1.39065-1.29688 1.40625-1.15624 1.89065-1.82812.5-.67188.5-1.26562 0-.625-.45315-1.04688-.45315-.4375-1.17185-.4375-.76565 0-1.2188.45312-.4531.45313-.4687 1.26563l-1.07815-.10937q.10935-1.21876.82815-1.84376.73435-.64062 1.9687-.64062 1.2344 0 1.95315.6875.71875.6875.71875 1.70312 0 .51563-.21875 1.01563-.20315.48437-.70315 1.04687-.48435.54688-1.60935 1.5-.95315.79688-1.23435 1.09376-.26565.28124-.4375.5625zm7 0v1.01562h-5.6875q0-.375.125-.73438.2188-.57812.6875-1.14062.4844-.5625 1.39065-1.29688 1.40625-1.15624 1.89065-1.82812.5-.67188.5-1.26562 0-.625-.45315-1.04688-.45315-.4375-1.17185-.4375-.76565 0-1.2188.45312-.4531.45313-.4687 1.26563l-1.07815-.10937q.10935-1.21876.82815-1.84376.73435-.64062 1.9687-.64062 1.2344 0 1.95315.6875.71875.6875.71875 1.70312 0 .51563-.21875 1.01563-.20315.48437-.70315 1.04687-.48435.54688-1.60935 1.5-.95315.79688-1.23435 1.09376-.26565.28124-.4375.5625zm4.82815 1.01562v-2.0625h-3.71875v-.96875l3.9219-5.5625h.85935v5.5625h1.15625v.96875h-1.15625v2.0625zm0-3.03125v-3.85937l-2.6875 3.85937zm4.1875 3.03125v-1.20312h1.20315v1.20312q0 .65625-.2344 1.0625-.2344.42188-.7344.64062l-.29685-.45312q.32815-.14062.48435-.4375.1563-.28125.1875-.8125zm2.5-7.46875v-1.01563h5.5625v.82813q-.8125.875-1.625 2.32813-.79685 1.4375-1.23435 2.96874-.32815 1.07813-.4063 2.35938h-1.0937q.0156-1.01562.3906-2.45312.3906-1.4375 1.09375-2.76563.71875-1.32813 1.53125-2.25zm12.40625.98437-1.0469.07813q-.1406-.625-.3906-.90625-.4375-.45312-1.0625-.45312-.5 0-.8906.28124-.4844.375-.7813 1.07813-.2812.6875-.29685 1.96875.375-.57812.92185-.85938.5625-.28124 1.1719-.28124 1.0469 0 1.78125.78124.75.78126.75 2 0 .8125-.35935 1.51563-.3438.6875-.95315 1.0625-.60935.35937-1.375.35937-1.32815 0-2.15625-.96874-.8281-.96876-.8281-3.1875 0-2.5.92185-3.625.79685-.98438 2.15625-.98438 1.0156 0 1.65625.57812.65625.5625.78125 1.5625zm-4.2969 3.70313q0 .54687.2188 1.04687.23435.48438.6406.75.4219.26563.8906.26563.6563 0 1.14065-.53125.48435-.54688.48435-1.46875 0-.89063-.48435-1.40625-.46875-.51562-1.1875-.51562-.71875 0-1.21875.51562-.4844.51562-.4844 1.34375z" fill="#000"/>
  <path d="m1041.2 122.28911 1.0156-.09375q.125.71875.4844 1.04687.375.3125.9375.3125.4843 0 .8437-.21875.375-.23437.6094-.59375.2344-.375.3906-1 .1563-.64062.1563-1.29687 0-.07813 0-.21875-.3125.5-.8594.82812-.5469.3125-1.1875.3125-1.0781 0-1.8125-.76562-.7344-.78125-.7344-2.04688 0-1.3125.7656-2.10937.7813-.79688 1.9375-.79688.8282 0 1.5157.45313.7031.45312 1.0625 1.29687.3593.82813.3593 2.40625 0 1.64063-.3593 2.625-.3438.96875-1.0625 1.48438-.7032.5-1.6407.5-1.0156 0-1.6562-.54688-.6406-.5625-.7656-1.57812zm4.3125-3.79688q0-.90625-.4844-1.4375-.4688-.53125-1.1563-.53125-.7031 0-1.2343.57813-.5157.5625-.5157 1.48437 0 .8125.5 1.32813.5.51562 1.2188.51562.7344 0 1.2031-.51562.4688-.51563.4688-1.42188zm2.5312 1.54688q0-1.53125.3125-2.45313.3125-.9375.9219-1.4375.625-.5 1.5625-.5.6875 0 1.2031.28125.5313.28125.875.8125.3438.51563.5313 1.26563.1875.75.1875 2.03125 0 1.51562-.3125 2.4375-.2969.92187-.9219 1.4375-.6094.5-1.5625.5-1.2344 0-1.9531-.89063-.8438-1.0625-.8438-3.48437zm1.0781 0q0 2.10937.5 2.8125.5.70312 1.2188.70312.7344 0 1.2187-.70312.5-.70313.5-2.8125 0-2.125-.5-2.8125-.4843-.70313-1.2343-.70313-.7188 0-1.1563.60938-.5469.78125-.5469 2.90625zm5.9219 1.96875 1.0625-.14063q.1719.89063.6094 1.29688.4375.39062 1.0625.39062.75 0 1.2656-.51562.5156-.51563.5156-1.28125 0-.71875-.4843-1.1875-.4688-.48438-1.2032-.48438-.2968 0-.75.125l.125-.9375q.1094.01563.1719.01563.6719 0 1.2031-.34375.5469-.35938.5469-1.09375 0-.57813-.3906-.95313-.3906-.39062-1.0156-.39062-.6094 0-1.0313.39062-.4062.39063-.5156 1.15625l-1.0625-.1875q.1875-1.04687.875-1.625.6875-.59375 1.7031-.59375.7031 0 1.2969.3125.5937.29688.9062.8125.3125.51563.3125 1.10938 0 .54687-.2968 1.01562-.2969.45313-.875.71875.75.17188 1.1718.73438.4219.54687.4219 1.39062 0 1.125-.8281 1.90625-.8125.78125-2.0625.78125-1.125 0-1.875-.67187-.75-.6875-.8594-1.75zm7.5625 2.26562v-1.20312h1.2031v1.20312q0 .65625-.2343 1.0625-.2344.42188-.7344.64063l-.2969-.45313q.3281-.14062.4844-.4375.1562-.28125.1875-.8125zm4.0625-4.65625q-.6562-.25-.9844-.6875-.3125-.45312-.3125-1.0625 0-.9375.6719-1.57812.6875-.64063 1.7969-.64063 1.125 0 1.8125.65625.6875.65625.6875 1.59375 0 .59375-.3125 1.03125-.3125.4375-.9531.6875.7968.25 1.2031.82813.4062.57812.4062 1.375 0 1.09375-.7812 1.84375-.7656.75-2.0469.75-1.2656 0-2.0469-.75-.7812-.75-.7812-1.875 0-.84375.4219-1.40625.4375-.5625 1.2187-.76563zm-.2187-1.79687q0 .60937.3906 1 .4062.39062 1.0312.39062.6094 0 1-.375.3907-.39062.3907-.95312 0-.57813-.4063-.96875-.4062-.40625-1-.40625-.6094 0-1.0156.39062-.3906.39063-.3906.92188zm-.3282 3.96875q0 .45312.2032.875.2187.42187.6406.65625.4219.23437.9062.23437.75 0 1.2344-.48437.5-.48438.5-1.23438 0-.76562-.5-1.26562-.5-.5-1.2656-.5-.75 0-1.2344.5-.4844.48437-.4844 1.21875zm5.9219.23437 1.1094-.09375q.125.8125.5625 1.21875.4531.40625 1.0937.40625.75 0 1.2813-.57812.5312-.57813.5312-1.51563 0-.90625-.5156-1.42187-.5-.53125-1.3281-.53125-.5 0-.9219.23437-.4062.23438-.6406.59375l-.9844-.125.8281-4.40625h4.2813v1h-3.4375l-.4531 2.3125q.7656-.54687 1.6093-.54687 1.125 0 1.8907.78125.7812.78125.7812 2.01562 0 1.15625-.6719 2.01563-.8281 1.03125-2.25 1.03125-1.1718 0-1.9218-.65625-.7344-.65625-.8438-1.73438z" stroke="#f2f2f2" stroke-linecap="round" stroke-linejoin="round" stroke-width="3"/>
  <path d="m1041.2 122.28911 1.0156-.09375q.125.71875.4844 1.04687.375.3125.9375.3125.4843 0 .8437-.21875.375-.23437.6094-.59375.2344-.375.3906-1 .1563-.64062.1563-1.29687 0-.07813 0-.21875-.3125.5-.8594.82812-.5469.3125-1.1875.3125-1.0781 0-1.8125-.76562-.7344-.78125-.7344-2.04688 0-1.3125.7656-2.10937.7813-.79688 1.9375-.79688.8282 0 1.5157.45313.7031.45312 1.0625 1.29687.3593.82813.3593 2.40625 0 1.64063-.3593 2.625-.3438.96875-1.0625 1.48438-.7032.5-1.6407.5-1.0156 0-1.6562-.54688-.6406-.5625-.7656-1.57812zm4.3125-3.79688q0-.90625-.4844-1.4375-.4688-.53125-1.1563-.53125-.7031 0-1.2343.57813-.5157.5625-.5157 1.48437 0 .8125.5 1.32813.5.51562 1.2188.51562.7344 0 1.2031-.51562.4688-.51563.4688-1.42188zm2.5312 1.54688q0-1.53125.3125-2.45313.3125-.9375.9219-1.4375.625-.5 1.5625-.5.6875 0 1.2031.28125.5313.28125.875.8125.3438.51563.5313 1.26563.1875.75.1875 2.03125 0 1.51562-.3125 2.4375-.2969.92187-.9219 1.4375-.6094.5-1.5625.5-1.2344 0-1.9531-.89063-.8438-1.0625-.8438-3.48437zm1.0781 0q0 2.10937.5 2.8125.5.70312 1.2188.70312.7344 0 1.2187-.70312.5-.70313.5-2.8125 0-2.125-.5-2.8125-.4843-.70313-1.2343-.70313-.7188 0-1.1563.60938-.5469.78125-.5469 2.90625zm5.9219 1.96875 1.0625-.14063q.1719.89063.6094 1.29688.4375.39062 1.0625.39062.75 0 1.2656-.51562.5156-.51563.5156-1.28125 0-.71875-.4843-1.1875-.4688-.48438-1.2032-.48438-.2968 0-.75.125l.125-.9375q.1094.01563.1719.01563.6719 0 1.2031-.34375.5469-.35938.5469-1.09375 0-.57813-.3906-.95313-.3906-.39062-1.0156-.39062-.6094 0-1.0313.39062-.4062.39063-.5156 1.15625l-1.0625-.1875q.1875-1.04687.875-1.625.6875-.59375 1.7031-.59375.7031 0 1.2969.3125.5937.29688.9062.8125.3125.51563.3125 1.10938 0 .54687-.2968 1.01562-.2969.45313-.875.71875.75.17188 1.1718.73438.4219.54687.4219 1.39062 0 1.125-.8281 1.90625-.8125.78125-2.0625.78125-1.125 0-1.875-.67187-.75-.6875-.8594-1.75zm7.5625 2.26562v-1.20312h1.2031v1.20312q0 .65625-.2343 1.0625-.2344.42188-.7344.64063l-.2969-.45313q.3281-.14062.4844-.4375.1562-.28125.1875-.8125zm4.0625-4.65625q-.6562-.25-.9844-.6875-.3125-.45312-.3125-1.0625 0-.9375.6719-1.57812.6875-.64063 1.7969-.64063 1.125 0 1.8125.65625.6875.65625.6875 1.59375 0 .59375-.3125 1.03125-.3125.4375-.9531.6875.7968.25 1.2031.82813.4062.57812.4062 1.375 0 1.09375-.7812 1.84375-.7656.75-2.0469.75-1.2656 0-2.0469-.75-.7812-.75-.7812-1.875 0-.84375.4219-1.40625.4375-.5625 1.2187-.76563zm-.2187-1.79687q0 .60937.3906 1 .4062.39062 1.0312.39062.6094 0 1-.375.3907-.39062.3907-.95312 0-.57813-.4063-.96875-.4062-.40625-1-.40625-.6094 0-1.0156.39062-.3906.39063-.3906.92188zm-.3282 3.96875q0 .45312.2032.875.2187.42187.6406.65625.4219.23437.9062.23437.75 0 1.2344-.48437.5-.48438.5-1.23438 0-.76562-.5-1.26562-.5-.5-1.2656-.5-.75 0-1.2344.5-.4844.48437-.4844 1.21875zm5.9219.23437 1.1094-.09375q.125.8125.5625 1.21875.4531.40625 1.0937.40625.75 0 1.2813-.57812.5312-.57813.5312-1.51563 0-.90625-.5156-1.42187-.5-.53125-1.3281-.53125-.5 0-.9219.23437-.4062.23438-.6406.59375l-.9844-.125.8281-4.40625h4.2813v1h-3.4375l-.4531 2.3125q.7656-.54687 1.6093-.54687 1.125 0 1.8907.78125.7812.78125.7812 2.01562 0 1.15625-.6719 2.01563-.8281 1.03125-2.25 1.03125-1.1718 0-1.9218-.65625-.7344-.65625-.8438-1.73438z" fill="#000"/>
  <path d="m571.7344 707.55v-11.45314h4.3281q1.1406 0 1.7344.10938.8437.14062 1.4062.53126.57815.3906.9219 1.10936.3594.70314.3594 1.5625 0 1.45314-.9375 2.46874-.9219 1.01564-3.3594 1.01564h-2.9375v4.65626zm1.5156-6.01564h2.96875q1.46875 0 2.07815-.54686.625-.5469.625-1.53126 0-.71874-.375-1.23438-.3594-.51562-.95315-.67186-.375-.1094-1.40625-.1094h-2.9375zm9.2969 6.01564v-8.2969h1.2656v1.25q.4844-.875.8906-1.15624.4063-.28126.9063-.28126.7031 0 1.4375.45314l-.4844 1.29686q-.5156-.29686-1.03125-.29686-.45315 0-.82815.28126-.35935.2656-.5156.7656-.2344.75-.2344 1.64064v4.34376zm4.48435-4.15626q0-2.29688 1.28125-3.40624 1.0781-.9219 2.6094-.9219 1.7187 0 2.79685 1.125 1.09375 1.1094 1.09375 3.09376 0 1.59374-.4844 2.51564-.48435.92186-1.4062 1.4375-.9063.5-2 .5-1.7344 0-2.8125-1.1094-1.07815-1.125-1.07815-3.23436zm1.45315 0q0 1.59376.6875 2.39062.7031.79688 1.75.79688 1.04685 0 1.73435-.79688.70315-.79686.70315-2.4375 0-1.53126-.70315-2.32812-.6875-.79688-1.73435-.79688-1.0469 0-1.75.79688-.6875.78126-.6875 2.375zm9.375 4.15626h-1.3125v-11.45314h1.4062v4.07814q.89065-1.1094 2.2813-1.1094.7656 0 1.4375.3125.6875.2969 1.125.8594.4531.5625.7031 1.35936.25.78124.25 1.67188 0 2.14062-1.0625 3.3125-1.0469 1.15626-2.53125 1.15626-1.46875 0-2.29685-1.2344zm-.01565-4.21876q0 1.5.40625 2.15626.65625 1.09374 1.7969 1.09374.92185 0 1.5937-.79688.6719-.8125.6719-2.39062 0-1.625-.65625-2.39064-.64065-.78124-1.54685-.78124-.9219 0-1.5938.79688-.67185.79686-.67185 2.3125zm7.6875 4.21876v-11.45314h1.40625v11.45314zm9.70315-2.6719 1.4531.1719q-.34375 1.28124-1.28125 1.98436-.92185.70314-2.35935.70314-1.82815 0-2.89065-1.125-1.0625-1.125-1.0625-3.14064 0-2.09376 1.07815-3.25 1.0781-1.15626 2.79685-1.15626 1.65625 0 2.70315 1.14064 1.0625 1.125 1.0625 3.17186 0 .125 0 .375h-6.1875q.0781 1.375.7656 2.1094.7031.71874 1.7344.71874.7812 0 1.3281-.40624.5469-.40626.8594-1.2969zm-4.6094-2.28124h4.625q-.09375-1.04686-.53125-1.5625-.67185-.8125-1.73435-.8125-.9688 0-1.64065.65624-.65625.64064-.71875 1.71876zm7.9375 4.95314v-8.2969h1.25v1.15626q.3906-.60936 1.03125-.96876.65625-.375 1.48435-.375.9219 0 1.51565.39064.59375.375.82815 1.0625.98435-1.45314 2.5625-1.45314 1.23435 0 1.8906.6875.6719.6719.6719 2.09376v5.70314h-1.39065v-5.2344q0-.84374-.14065-1.2031-.1406-.375-.5-.59376-.35935-.23438-.8437-.23438-.875 0-1.45315.57814-.57815.5781-.57815 1.85936v4.82814h-1.4062v-5.39064q0-.9375-.3438-1.40626-.3437-.46874-1.125-.46874-.5937 0-1.0937.3125-.5.3125-.7344.92188-.21875.59376-.21875 1.71876v4.3125zm16.65625-3.6875 1.4375-.125q.09375.85936.46875 1.42186.375.54688 1.15625.89064.78125.3281 1.75.3281.875 0 1.53125-.25.6719-.2656.9844-.7031.3281-.45314.3281-.9844 0-.54686-.3125-.9375-.3125-.40624-1.03125-.6875-.45315-.17186-2.03125-.54686-1.5781-.39064-2.21875-.71874-.8125-.4375-1.21875-1.0625-.40625-.64064-.40625-1.4375 0-.8594.48435-1.6094.5-.7656 1.4375-1.15624.95315-.39062 2.1094-.39062 1.28125 0 2.25.42186.96875.40626 1.4844 1.20314.5312.79686.5781 1.79686l-1.4531.1094q-.125-1.07814-.7969-1.625-.6719-.5625-2-.5625-1.375 0-2 .5-.625.5-.625 1.21874 0 .60936.4375 1.01562.4375.39064 2.28125.8125 1.85935.42188 2.54685.73438 1 .45312 1.4688 1.17186.48435.70314.48435 1.625 0 .90626-.53125 1.71876-.5156.8125-1.5 1.26564-.9844.4531-2.2031.4531-1.5625 0-2.6094-.4531-1.0469-.46876-1.65625-1.375-.59375-.90626-.625-2.0625zm11.34375-6.15626v-1.60938h1.40625v1.60938zm0 9.84376v-8.2969h1.40625v8.2969zm3.25 0v-1.14064l5.28125-6.0625q-.89065.04688-1.57815.04688h-3.3906v-1.14064h6.78125v.9219l-4.48435 5.2656-.875.96876q.9531-.07812 1.7812-.07812h3.82815v1.21876zm14.4219-2.6719 1.4531.1719q-.34375 1.28124-1.28125 1.98436-.92185.70314-2.35935.70314-1.82815 0-2.89065-1.125-1.0625-1.125-1.0625-3.14064 0-2.09376 1.07815-3.25 1.0781-1.15626 2.79685-1.15626 1.65625 0 2.70315 1.14064 1.0625 1.125 1.0625 3.17186 0 .125 0 .375h-6.1875q.0781 1.375.7656 2.1094.7031.71874 1.7344.71874.7812 0 1.3281-.40624.5469-.40626.8594-1.2969zm-4.6094-2.28124h4.625q-.09375-1.04686-.53125-1.5625-.67185-.8125-1.73435-.8125-.9688 0-1.64065.65624-.65625.64064-.71875 1.71876z" fill="#000"/>
  <path d="m52.44999 421.2177h-11.453126v-5.0781q0-1.53126.3125-2.32814.296876-.79686 1.078126-1.26562.78125-.48438 1.734374-.48438 1.21875 0 2.0625.79688.828126.78126 1.046876 2.4375.296874-.60938.578124-.92188.609376-.65626 1.515626-1.25l3.125-2v1.90624l-2.390626 1.51564q-1.03125.67186-1.578124 1.10936-.546876.4219-.765626.76564-.21875.32812-.296874.6875-.0625.25-.0625.84376v1.75h5.09375zm-6.40625-1.5156v-3.25q0-1.0469-.203126-1.625-.21875-.59376-.6875-.89064-.484374-.3125-1.03125-.3125-.8125 0-1.328124.59374-.53125.59376-.53125 1.8594v3.625zm6.40625-15.71876h-1.21875q1.40625.96876 1.40625 2.64062 0 .73438-.28125 1.375-.28125.625-.703126.9375-.4375.3125-1.046874.4375-.421876.07814-1.3125.07814h-5.140626v-1.40626h4.59375q1.109376 0 1.484376-.07814.5625-.1406.875-.5625.3125-.4375.3125-1.0625 0-.6406-.3125-1.1875-.328126-.5625-.890626-.78124-.5625-.23436-1.625-.23436h-4.4375v-1.40626h8.296876zm0-3.5625h-8.296876v-1.26564h1.171876q-1.359376-.90624-1.359376-2.6406 0-.75.265626-1.375.265624-.625.703124-.9375.4375-.3125 1.046876-.4375.390624-.07814 1.359374-.07814h5.109376v1.40624h-5.046876q-.859374 0-1.28125.1719-.4375.15624-.6875.5781-.25.40626-.25.96876 0 .90624.578126 1.5625.5625.64064 2.15625.64064h4.53125zm-1.265626-12.0625 1.25-.20314q.125.59376.125 1.0625 0 .76564-.234374 1.1875-.25.4219-.640626.59376-.40625.17188-1.671874.17188h-4.765626v1.03126h-1.09375v-1.03126h-2.0625l-.84375-1.40624h2.90625v-1.40626h1.09375v1.40626h4.84375q.609376 0 .78125-.0625.171876-.07814.28125-.25.09375-.1719.09375-.4844 0-.23436-.0625-.60936zm-8.578124-.9375h-1.609376v-1.40624h1.609376zm9.84375 0h-8.296876v-1.40624h8.296876zm0-4h-8.296876v-1.25h1.15625q-.609374-.39064-.96875-1.03124-.375-.65626-.375-1.4844 0-.92186.390626-1.5156.375-.59376 1.0625-.82814-1.453126-.98436-1.453126-2.5625 0-1.23436.6875-1.89062.671876-.67188 2.09375-.67188h5.703126v1.39064h-5.234376q-.84375 0-1.203124.1406-.375.14064-.59375.5-.234376.3594-.234376.84376 0 .875.578126 1.45314.578124.5781 1.859374.5781h4.828126v1.40626h-5.390626q-.9375 0-1.40625.34374-.46875.34376-.46875 1.125 0 .59376.3125 1.09376.3125.5.921876.73438.59375.21876 1.71875.21876h4.3125zm-2.671876-18.67188.171876-1.45312q1.28125.34376 1.984374 1.28126.703126.92186.703126 2.35936 0 1.82814-1.125 2.89064-1.125 1.0625-3.140626 1.0625-2.09375 0-3.25-1.07814-1.15625-1.07812-1.15625-2.79686 0-1.65626 1.140626-2.70314 1.125-1.0625 3.171874-1.0625.125 0 .375 0v6.1875q1.375-.07812 2.109376-.76562.71875-.70314.71875-1.73438 0-.78126-.40625-1.32812-.40625-.54688-1.296876-.85938zm-2.28125 4.60938v-4.625q-1.046874.09376-1.5625.53126-.8125.67186-.8125 1.73436 0 .96874.65625 1.64064.640626.65624 1.71875.71874zm8.328126-14.625q-1.46875 1.17186-3.4375 1.98436-1.984376.7969-4.09375.7969-1.859376 0-3.5625-.6094-1.96875-.7031-3.9375-2.17186v-1q1.625.9375 2.328124 1.25 1.078126.46876 2.25.75 1.453126.32812 2.9375.32812 3.75 0 7.515626-2.32812zm-3.375-2.3125h-8.296876v-1.25h1.15625q-.609374-.39064-.96875-1.03124-.375-.65626-.375-1.4844 0-.92186.390626-1.5156.375-.59376 1.0625-.82814-1.453126-.98436-1.453126-2.5625 0-1.23436.6875-1.89062.671876-.67188 2.09375-.67188h5.703126v1.39064h-5.234376q-.84375 0-1.203124.1406-.375.14064-.59375.5-.234376.3594-.234376.84376 0 .875.578126 1.45314.578124.5781 1.859374.5781h4.828126v1.40626h-5.390626q-.9375 0-1.40625.34374-.46875.34376-.46875 1.125 0 .59376.3125 1.09376.3125.5.921876.73438.59375.21876 1.71875.21876h4.3125zm-2.484376-12.4375-.21875-1.39064q.84375-.10936 1.296876-.6406.4375-.5469.4375-1.5 0-.96876-.390626-1.4375-.40625-.46876-.9375-.46876-.46875 0-.75.40626-.1875.29686-.46875 1.4375-.390624 1.54686-.671874 2.15624-.296876.59376-.796876.90626-.5.29686-1.109374.29686-.5625 0-1.03125-.25-.46875-.25-.78125-.6875-.25-.32812-.40625-.89062-.171876-.57814-.171876-1.21874 0-.9844.28125-1.71876.28125-.73438.765626-1.07814.46875-.35936 1.28125-.5l.1875 1.375q-.640626.09376-1 .5469-.359376.4531-.359376 1.2656 0 .96876.328126 1.39064.3125.40626.734374.40626.28125 0 .5-.1719.21875-.17186.375-.53124.078126-.21876.359376-1.25.390624-1.48436.65625-2.07812.25-.59374.734374-.92188.484376-.34376 1.203126-.34376.703124 0 1.328124.4219.609376.40624.953126 1.1875.34375.7656.34375 1.73436 0 1.625-.671876 2.46874-.671874.84376-2 1.07814zm5.859376-9.48438v1.01564q-3.765626-2.34376-7.515626-2.34376-1.46875 0-2.921874.34376-1.171876.2656-2.25.73436-.703126.3125-2.34375 1.26564v-1.01564q1.96875-1.46876 3.9375-2.17186 1.703124-.59376 3.5625-.59376 2.109374 0 4.09375.8125 1.96875.79686 3.4375 1.95312z" fill="#000"/>
  <path d="m101.95 648.3156q0-1.53124.3125-2.4531.3125-.9375.92187-1.4375.625-.5 1.5625-.5.6875 0 1.20313.28124.53125.28126.875.8125.34375.51562.53125 1.26562.1875.75.1875 2.03124 0 1.51564-.3125 2.4375-.29688.9219-.92188 1.4375-.60937.5-1.5625.5-1.23437 0-1.95312-.8906-.84375-1.0625-.84375-3.4844zm1.07812 0q0 2.1094.5 2.8125.5.70314 1.21875.70314.73438 0 1.21875-.70314.5-.7031.5-2.8125 0-2.125-.5-2.8125-.48437-.7031-1.23437-.7031-.71875 0-1.15625.60936-.54688.78124-.54688 2.90624z" fill="#595959"/>
  <path d="m93.49687 511.50104v1.01562h-5.6875q0-.375.125-.73436.21875-.57814.6875-1.14064.48438-.5625 1.39063-1.29686 1.40625-1.15626 1.89062-1.82814.5-.67186.5-1.26562 0-.625-.45312-1.04688-.45313-.4375-1.17188-.4375-.76562 0-1.21875.45314-.45312.4531-.46875 1.2656l-1.07812-.10936q.10937-1.21874.82812-1.84374.73438-.64064 1.96875-.64064 1.23438 0 1.95313.6875.71875.6875.71875 1.70314 0 .5156-.21875 1.0156-.20313.4844-.70313 1.0469-.48437.54686-1.60937 1.5-.95313.79686-1.23438 1.09374-.26562.28126-.4375.5625zm1.45313-1.23438 1.10937-.09376q.125.8125.5625 1.21876.45313.40624 1.09375.40624.75 0 1.28125-.5781.53125-.57814.53125-1.51564 0-.90626-.51562-1.42186-.5-.53126-1.32813-.53126-.5 0-.92187.23436-.40625.2344-.64063.59376l-.98437-.125.82812-4.40626h4.28125v1h-3.4375l-.45312 2.3125q.76562-.54686 1.60937-.54686 1.125 0 1.89063.78126.78125.78124.78125 2.0156 0 1.15626-.67188 2.01564-.82812 1.03126-2.25 1.03126-1.17187 0-1.92187-.65626-.73438-.65624-.84375-1.73438zm7-1.98436q0-1.53126.3125-2.45314.3125-.9375.92187-1.4375.625-.5 1.5625-.5.6875 0 1.20313.28124.53125.28126.875.8125.34375.51564.53125 1.26564.1875.75.1875 2.03126 0 1.5156-.3125 2.4375-.29688.92186-.92188 1.4375-.60937.5-1.5625.5-1.23437 0-1.95312-.89064-.84375-1.0625-.84375-3.48436zm1.07812 0q0 2.10936.5 2.8125.5.7031 1.21875.7031.73438 0 1.21875-.7031.5-.70314.5-2.8125 0-2.125-.5-2.8125-.48437-.70314-1.23437-.70314-.71875 0-1.15625.60938-.54688.78126-.54688 2.90626z" fill="#595959"/>
  <path d="m87.95 370.23334 1.10937-.09374q.125.8125.5625 1.21874.45313.40626 1.09375.40626.75 0 1.28125-.57814.53125-.57812.53125-1.51562 0-.90624-.51562-1.42188-.5-.53126-1.32813-.53126-.5 0-.92187.2344-.40625.23436-.64063.59374l-.98437-.125.82812-4.40624h4.28125v1h-3.4375l-.45312 2.3125q.76562-.5469 1.60937-.5469 1.125 0 1.89063.78126.78125.78124.78125 2.01564 0 1.15624-.67188 2.0156-.82812 1.03126-2.25 1.03126-1.17187 0-1.92187-.65626-.73438-.65624-.84375-1.73436zm7-1.98438q0-1.53126.3125-2.45312.3125-.9375.92187-1.4375.625-.5 1.5625-.5.6875 0 1.20313.28126.53125.28124.875.8125.34375.5156.53125 1.2656.1875.75.1875 2.03126 0 1.51564-.3125 2.4375-.29688.92188-.92188 1.4375-.60937.5-1.5625.5-1.23437 0-1.95312-.89062-.84375-1.0625-.84375-3.48438zm1.07812 0q0 2.10938.5 2.8125.5.70314 1.21875.70314.73438 0 1.21875-.70314.5-.70312.5-2.8125 0-2.125-.5-2.8125-.48437-.70312-1.23437-.70312-.71875 0-1.15625.60936-.54688.78126-.54688 2.90626zm5.92188 0q0-1.53126.3125-2.45312.3125-.9375.92187-1.4375.625-.5 1.5625-.5.6875 0 1.20313.28126.53125.28124.875.8125.34375.5156.53125 1.2656.1875.75.1875 2.03126 0 1.51564-.3125 2.4375-.29688.92188-.92188 1.4375-.60937.5-1.5625.5-1.23437 0-1.95312-.89062-.84375-1.0625-.84375-3.48438zm1.07812 0q0 2.10938.5 2.8125.5.70314 1.21875.70314.73438 0 1.21875-.70314.5-.70312.5-2.8125 0-2.125-.5-2.8125-.48437-.70312-1.23437-.70312-.71875 0-1.15625.60936-.54688.78126-.54688 2.90626z" fill="#595959"/>
  <path d="m88.0125 224.98125v-1.01563h5.5625v.82813q-.8125.875-1.625 2.32812-.79688 1.4375-1.23438 2.96875-.32812 1.07813-.40625 2.35938h-1.09375q.01563-1.01563.39063-2.45313.39062-1.4375 1.09375-2.76562.71875-1.32813 1.53125-2.25zm6.9375 5.21875 1.10937-.09375q.125.8125.5625 1.21875.45313.40625 1.09375.40625.75 0 1.28125-.57813.53125-.57812.53125-1.51562 0-.90625-.51562-1.42188-.5-.53125-1.32813-.53125-.5 0-.92187.23438-.40625.23437-.64063.59375l-.98437-.125.82812-4.40625h4.28125v1h-3.4375l-.45312 2.3125q.76562-.54688 1.60937-.54688 1.125 0 1.89063.78125.78125.78125.78125 2.01563 0 1.15625-.67188 2.01562-.82812 1.03125-2.25 1.03125-1.17187 0-1.92187-.65625-.73438-.65625-.84375-1.73437zm7-1.98438q0-1.53125.3125-2.45312.3125-.9375.92187-1.4375.625-.5 1.5625-.5.6875 0 1.20313.28125.53125.28125.875.8125.34375.51562.53125 1.26562.1875.75.1875 2.03125 0 1.51563-.3125 2.4375-.29688.92188-.92188 1.4375-.60937.5-1.5625.5-1.23437 0-1.95312-.89062-.84375-1.0625-.84375-3.48438zm1.07812 0q0 2.10938.5 2.8125.5.70313 1.21875.70313.73438 0 1.21875-.70313.5-.70312.5-2.8125 0-2.125-.5-2.8125-.48437-.70312-1.23437-.70312-.71875 0-1.15625.60937-.54688.78125-.54688 2.90625z" fill="#595959"/>
  <path d="m84.91875 92.416664h-1.04688v-6.71875q-.39062.359376-1.01562.734376-.60938.359374-1.09375.53125v-1.015626q.875-.421874 1.53125-1 .67187-.59375.95312-1.15625h.67188zm3.03125-4.234374q0-1.53125.3125-2.453126.3125-.9375.92187-1.4375.625-.5 1.5625-.5.6875 0 1.20313.28125.53125.28125.875.8125.34375.515626.53125 1.265626.1875.75.1875 2.03125 0 1.515624-.3125 2.4375-.29688.921874-.92188 1.4375-.60937.5-1.5625.5-1.23437 0-1.95312-.890626-.84375-1.0625-.84375-3.484374zm1.07812 0q0 2.109374.5 2.8125.5.703124 1.21875.703124.73438 0 1.21875-.703124.5-.703126.5-2.8125 0-2.125-.5-2.8125-.48437-.703126-1.23437-.703126-.71875 0-1.15625.609376-.54688.78125-.54688 2.90625zm5.92188 0q0-1.53125.3125-2.453126.3125-.9375.92187-1.4375.625-.5 1.5625-.5.6875 0 1.20313.28125.53125.28125.875.8125.34375.515626.53125 1.265626.1875.75.1875 2.03125 0 1.515624-.3125 2.4375-.29688.921874-.92188 1.4375-.60937.5-1.5625.5-1.23437 0-1.95312-.890626-.84375-1.0625-.84375-3.484374zm1.07812 0q0 2.109374.5 2.8125.5.703124 1.21875.703124.73438 0 1.21875-.703124.5-.703126.5-2.8125 0-2.125-.5-2.8125-.48437-.703126-1.23437-.703126-.71875 0-1.15625.609376-.54688.78125-.54688 2.90625zm5.92188 0q0-1.53125.3125-2.453126.3125-.9375.92187-1.4375.625-.5 1.5625-.5.6875 0 1.20313.28125.53125.28125.875.8125.34375.515626.53125 1.265626.1875.75.1875 2.03125 0 1.515624-.3125 2.4375-.29688.921874-.92188 1.4375-.60937.5-1.5625.5-1.23437 0-1.95312-.890626-.84375-1.0625-.84375-3.484374zm1.07812 0q0 2.109374.5 2.8125.5.703124 1.21875.703124.73438 0 1.21875-.703124.5-.703126.5-2.8125 0-2.125-.5-2.8125-.48437-.703126-1.23437-.703126-.71875 0-1.15625.609376-.54688.78125-.54688 2.90625z" fill="#595959"/>
  <path d="m171.425 665.55h-1.04687v-6.71876q-.39063.35936-1.01563.73436-.60937.3594-1.09375.53126v-1.01562q.875-.42188 1.53125-1 .67188-.59374.95313-1.15624h.67187zm3.03125-4.2344q0-1.53124.3125-2.4531.3125-.9375.92188-1.4375.625-.5 1.5625-.5.6875 0 1.20312.28124.53125.28126.875.8125.34375.51562.53125 1.26562.1875.75.1875 2.03124 0 1.51564-.3125 2.4375-.29687.9219-.92187 1.4375-.60938.5-1.5625.5-1.23438 0-1.95313-.8906-.84375-1.0625-.84375-3.4844zm1.07813 0q0 2.1094.5 2.8125.5.70314 1.21875.70314.73437 0 1.21875-.70314.5-.7031.5-2.8125 0-2.125-.5-2.8125-.48438-.7031-1.23438-.7031-.71875 0-1.15625.60936-.54687.78124-.54687 2.90624zm5.92187 0q0-1.53124.3125-2.4531.3125-.9375.92188-1.4375.625-.5 1.5625-.5.6875 0 1.20312.28124.53125.28126.875.8125.34375.51562.53125 1.26562.1875.75.1875 2.03124 0 1.51564-.3125 2.4375-.29687.9219-.92187 1.4375-.60938.5-1.5625.5-1.23438 0-1.95313-.8906-.84375-1.0625-.84375-3.4844zm1.07813 0q0 2.1094.5 2.8125.5.70314 1.21875.70314.73437 0 1.21875-.70314.5-.7031.5-2.8125 0-2.125-.5-2.8125-.48438-.7031-1.23438-.7031-.71875 0-1.15625.60936-.54687.78124-.54687 2.90624z" fill="#595959"/>
  <path d="m299.01562 664.53436v1.01564h-5.6875q0-.375.125-.7344.21876-.5781.6875-1.1406.48438-.5625 1.39063-1.2969 1.40625-1.15624 1.89063-1.8281.5-.6719.5-1.26564 0-.625-.45313-1.04686-.45313-.4375-1.17187-.4375-.76563 0-1.21876.4531-.45312.45314-.46874 1.26564l-1.07813-.10938q.10937-1.21876.82813-1.84376.73437-.6406 1.96874-.6406 1.23438 0 1.95313.6875.71875.6875.71875 1.7031 0 .51564-.21875 1.01564-.20313.48436-.70313 1.04686-.48437.5469-1.60937 1.5-.95313.7969-1.23437 1.09376-.26563.28124-.4375.5625zm1.45313-3.21876q0-1.53124.3125-2.4531.3125-.9375.92187-1.4375.625-.5 1.5625-.5.6875 0 1.20313.28124.53125.28126.875.8125.34375.51562.53125 1.26562.1875.75.1875 2.03124 0 1.51564-.3125 2.4375-.29688.9219-.92188 1.4375-.60937.5-1.5625.5-1.23437 0-1.95312-.8906-.84375-1.0625-.84375-3.4844zm1.07813 0q0 2.1094.5 2.8125.5.70314 1.21874.70314.73438 0 1.21876-.70314.5-.7031.5-2.8125 0-2.125-.5-2.8125-.48438-.7031-1.23438-.7031-.71875 0-1.15625.60936-.54687.78124-.54687 2.90624zm5.92187 0q0-1.53124.3125-2.4531.3125-.9375.92187-1.4375.625-.5 1.5625-.5.6875 0 1.20313.28124.53125.28126.875.8125.34375.51562.53125 1.26562.1875.75.1875 2.03124 0 1.51564-.3125 2.4375-.29688.9219-.92188 1.4375-.60937.5-1.5625.5-1.23437 0-1.95312-.8906-.84375-1.0625-.84375-3.4844zm1.07813 0q0 2.1094.5 2.8125.5.70314 1.21874.70314.73438 0 1.21876-.70314.5-.7031.5-2.8125 0-2.125-.5-2.8125-.48438-.7031-1.23438-.7031-.71875 0-1.15625.60936-.54687.78124-.54687 2.90624z" fill="#595959"/>
  <path d="m419.48126 663.3 1.10938-.09376q.125.8125.5625 1.21876.45312.40624 1.09376.40624.75 0 1.28124-.57814.53126-.5781.53126-1.5156 0-.90626-.51564-1.4219-.5-.53124-1.32812-.53124-.5 0-.92188.23438-.40626.23436-.64062.59376l-.98438-.125.82814-4.40626h4.28124v1h-3.4375l-.45314 2.3125q.76564-.54688 1.6094-.54688 1.125 0 1.8906.78124.78126.78126.78126 2.01564 0 1.15626-.67186 2.01562-.82814 1.03124-2.25 1.03124-1.1719 0-1.9219-.65624-.73436-.65626-.84374-1.73436zm7-1.9844q0-1.53124.3125-2.4531.3125-.9375.92188-1.4375.625-.5 1.5625-.5.6875 0 1.20312.28124.53124.28126.875.8125.34374.51562.53124 1.26562.1875.75.1875 2.03124 0 1.51564-.3125 2.4375-.29686.9219-.92186 1.4375-.60938.5-1.5625.5-1.23438 0-1.95314-.8906-.84374-1.0625-.84374-3.4844zm1.07814 0q0 2.1094.5 2.8125.5.70314 1.21874.70314.73436 0 1.21876-.70314.5-.7031.5-2.8125 0-2.125-.5-2.8125-.4844-.7031-1.2344-.7031-.71874 0-1.15624.60936-.54686.78124-.54686 2.90624zm5.92186 0q0-1.53124.3125-2.4531.3125-.9375.92188-1.4375.625-.5 1.5625-.5.6875 0 1.20312.28124.53124.28126.875.8125.34374.51562.53124 1.26562.1875.75.1875 2.03124 0 1.51564-.3125 2.4375-.29686.9219-.92186 1.4375-.60938.5-1.5625.5-1.23438 0-1.95314-.8906-.84374-1.0625-.84374-3.4844zm1.07814 0q0 2.1094.5 2.8125.5.70314 1.21874.70314.73436 0 1.21876-.70314.5-.7031.5-2.8125 0-2.125-.5-2.8125-.4844-.7031-1.2344-.7031-.71874 0-1.15624.60936-.54686.78124-.54686 2.90624z" fill="#595959"/>
  <path d="m545.9625 665.55h-1.04685v-6.71876q-.39065.35936-1.01565.73436-.60935.3594-1.0937.53126v-1.01562q.875-.42188 1.5312-1 .6719-.59374.95315-1.15624h.67185zm3.0313-4.2344q0-1.53124.3125-2.4531.3125-.9375.92185-1.4375.625-.5 1.5625-.5.6875 0 1.20315.28124.5312.28126.875.8125.3437.51562.5312 1.26562.1875.75.1875 2.03124 0 1.51564-.3125 2.4375-.29685.9219-.92185 1.4375-.60935.5-1.5625.5-1.23435 0-1.95315-.8906-.8437-1.0625-.8437-3.4844zm1.0781 0q0 2.1094.5 2.8125.5.70314 1.21875.70314.73435 0 1.21875-.70314.5-.7031.5-2.8125 0-2.125-.5-2.8125-.4844-.7031-1.2344-.7031-.7187 0-1.1562.60936-.5469.78124-.5469 2.90624zm5.9219 0q0-1.53124.3125-2.4531.3125-.9375.92185-1.4375.625-.5 1.5625-.5.6875 0 1.20315.28124.5312.28126.875.8125.3437.51562.5312 1.26562.1875.75.1875 2.03124 0 1.51564-.3125 2.4375-.29685.9219-.92185 1.4375-.60935.5-1.5625.5-1.23435 0-1.95315-.8906-.8437-1.0625-.8437-3.4844zm1.0781 0q0 2.1094.5 2.8125.5.70314 1.21875.70314.73435 0 1.21875-.70314.5-.7031.5-2.8125 0-2.125-.5-2.8125-.4844-.7031-1.2344-.7031-.7187 0-1.1562.60936-.5469.78124-.5469 2.90624zm5.9219 0q0-1.53124.3125-2.4531.3125-.9375.92185-1.4375.625-.5 1.5625-.5.6875 0 1.20315.28124.5312.28126.875.8125.3437.51562.5312 1.26562.1875.75.1875 2.03124 0 1.51564-.3125 2.4375-.29685.9219-.92185 1.4375-.60935.5-1.5625.5-1.23435 0-1.95315-.8906-.8437-1.0625-.8437-3.4844zm1.0781 0q0 2.1094.5 2.8125.5.70314 1.21875.70314.73435 0 1.21875-.70314.5-.7031.5-2.8125 0-2.125-.5-2.8125-.4844-.7031-1.2344-.7031-.7187 0-1.1562.60936-.5469.78124-.5469 2.90624z" fill="#595959"/>
  <path d="m673.5531 664.53436v1.01564h-5.6875q0-.375.125-.7344.21875-.5781.6875-1.1406.4844-.5625 1.3906-1.2969 1.4063-1.15624 1.89065-1.8281.5-.6719.5-1.26564 0-.625-.45315-1.04686-.4531-.4375-1.17185-.4375-.76565 0-1.21875.4531-.4531.45314-.46875 1.26564l-1.07815-.10938q.1094-1.21876.82815-1.84376.73435-.6406 1.96875-.6406 1.2344 0 1.9531.6875.7188.6875.7188 1.7031 0 .51564-.2188 1.01564-.2031.48436-.7031 1.04686-.4844.5469-1.6094 1.5-.9531.7969-1.23435 1.09376-.26565.28124-.4375.5625zm1.4531-3.21876q0-1.53124.3125-2.4531.3125-.9375.9219-1.4375.625-.5 1.5625-.5.6875 0 1.2031.28124.5313.28126.875.8125.3438.51562.5313 1.26562.1875.75.1875 2.03124 0 1.51564-.3125 2.4375-.2969.9219-.9219 1.4375-.6094.5-1.5625.5-1.2344 0-1.9531-.8906-.8438-1.0625-.8438-3.4844zm1.07815 0q0 2.1094.5 2.8125.5.70314 1.21875.70314.7344 0 1.21875-.70314.5-.7031.5-2.8125 0-2.125-.5-2.8125-.48435-.7031-1.23435-.7031-.7188 0-1.1563.60936-.54685.78124-.54685 2.90624zm5.92185 0q0-1.53124.3125-2.4531.3125-.9375.9219-1.4375.625-.5 1.5625-.5.6875 0 1.2031.28124.5313.28126.875.8125.3438.51562.5313 1.26562.1875.75.1875 2.03124 0 1.51564-.3125 2.4375-.2969.9219-.9219 1.4375-.6094.5-1.5625.5-1.2344 0-1.9531-.8906-.8438-1.0625-.8438-3.4844zm1.07815 0q0 2.1094.5 2.8125.5.70314 1.21875.70314.7344 0 1.21875-.70314.5-.7031.5-2.8125 0-2.125-.5-2.8125-.48435-.7031-1.23435-.7031-.7188 0-1.1563.60936-.54685.78124-.54685 2.90624zm5.92185 0q0-1.53124.3125-2.4531.3125-.9375.9219-1.4375.625-.5 1.5625-.5.6875 0 1.2031.28124.5313.28126.875.8125.3438.51562.5313 1.26562.1875.75.1875 2.03124 0 1.51564-.3125 2.4375-.2969.9219-.9219 1.4375-.6094.5-1.5625.5-1.2344 0-1.9531-.8906-.8438-1.0625-.8438-3.4844zm1.07815 0q0 2.1094.5 2.8125.5.70314 1.21875.70314.7344 0 1.21875-.70314.5-.7031.5-2.8125 0-2.125-.5-2.8125-.48435-.7031-1.23435-.7031-.7188 0-1.1563.60936-.54685.78124-.54685 2.90624z" fill="#595959"/>
  <path d="m794.01874 663.3 1.10936-.09376q.125.8125.5625 1.21876.45314.40624 1.09376.40624.75 0 1.28124-.57814.53126-.5781.53126-1.5156 0-.90626-.51562-1.4219-.5-.53124-1.32814-.53124-.5 0-.92186.23438-.40624.23436-.64064.59376l-.98436-.125.82812-4.40626h4.28124v1h-3.4375l-.4531 2.3125q.7656-.54688 1.60936-.54688 1.125 0 1.89064.78124.78124.78126.78124 2.01564 0 1.15626-.67188 2.01562-.82812 1.03124-2.25 1.03124-1.17186 0-1.92186-.65624-.7344-.65626-.84376-1.73436zm7-1.9844q0-1.53124.3125-2.4531.3125-.9375.92186-1.4375.625-.5 1.5625-.5.6875 0 1.20314.28124.53126.28126.875.8125.34376.51562.53126 1.26562.1875.75.1875 2.03124 0 1.51564-.3125 2.4375-.2969.9219-.9219 1.4375-.60936.5-1.5625.5-1.23436 0-1.9531-.8906-.84376-1.0625-.84376-3.4844zm1.07812 0q0 2.1094.5 2.8125.5.70314 1.21874.70314.7344 0 1.21876-.70314.5-.7031.5-2.8125 0-2.125-.5-2.8125-.48436-.7031-1.23436-.7031-.71876 0-1.15626.60936-.54688.78124-.54688 2.90624zm5.92188 0q0-1.53124.3125-2.4531.3125-.9375.92186-1.4375.625-.5 1.5625-.5.6875 0 1.20314.28124.53126.28126.875.8125.34376.51562.53126 1.26562.1875.75.1875 2.03124 0 1.51564-.3125 2.4375-.2969.9219-.9219 1.4375-.60936.5-1.5625.5-1.23436 0-1.9531-.8906-.84376-1.0625-.84376-3.4844zm1.07812 0q0 2.1094.5 2.8125.5.70314 1.21874.70314.7344 0 1.21876-.70314.5-.7031.5-2.8125 0-2.125-.5-2.8125-.48436-.7031-1.23436-.7031-.71876 0-1.15626.60936-.54688.78124-.54688 2.90624zm5.92188 0q0-1.53124.3125-2.4531.3125-.9375.92186-1.4375.625-.5 1.5625-.5.6875 0 1.20314.28124.53126.28126.875.8125.34376.51562.53126 1.26562.1875.75.1875 2.03124 0 1.51564-.3125 2.4375-.2969.9219-.9219 1.4375-.60936.5-1.5625.5-1.23436 0-1.9531-.8906-.84376-1.0625-.84376-3.4844zm1.07812 0q0 2.1094.5 2.8125.5.70314 1.21874.70314.7344 0 1.21876-.70314.5-.7031.5-2.8125 0-2.125-.5-2.8125-.48436-.7031-1.23436-.7031-.71876 0-1.15626.60936-.54688.78124-.54688 2.90624z" fill="#595959"/>
  <path d="m920.5 665.55h-1.0469v-6.71876q-.3906.35936-1.0156.73436-.6094.3594-1.09375.53126v-1.01562q.875-.42188 1.53125-1 .6719-.59374.9531-1.15624h.6719zm3.03125-4.2344q0-1.53124.3125-2.4531.3125-.9375.92185-1.4375.625-.5 1.5625-.5.6875 0 1.20315.28124.53125.28126.875.8125.34375.51562.53125 1.26562.1875.75.1875 2.03124 0 1.51564-.3125 2.4375-.2969.9219-.9219 1.4375-.60935.5-1.5625.5-1.23435 0-1.9531-.8906-.84375-1.0625-.84375-3.4844zm1.07815 0q0 2.1094.5 2.8125.5.70314 1.2187.70314.7344 0 1.2188-.70314.5-.7031.5-2.8125 0-2.125-.5-2.8125-.4844-.7031-1.2344-.7031-.71875 0-1.15625.60936-.54685.78124-.54685 2.90624zm5.92185 0q0-1.53124.3125-2.4531.3125-.9375.92185-1.4375.625-.5 1.5625-.5.6875 0 1.20315.28124.53125.28126.875.8125.34375.51562.53125 1.26562.1875.75.1875 2.03124 0 1.51564-.3125 2.4375-.2969.9219-.9219 1.4375-.60935.5-1.5625.5-1.23435 0-1.9531-.8906-.84375-1.0625-.84375-3.4844zm1.07815 0q0 2.1094.5 2.8125.5.70314 1.2187.70314.7344 0 1.2188-.70314.5-.7031.5-2.8125 0-2.125-.5-2.8125-.4844-.7031-1.2344-.7031-.71875 0-1.15625.60936-.54685.78124-.54685 2.90624zm5.92185 0q0-1.53124.3125-2.4531.3125-.9375.92185-1.4375.625-.5 1.5625-.5.6875 0 1.20315.28124.53125.28126.875.8125.34375.51562.53125 1.26562.1875.75.1875 2.03124 0 1.51564-.3125 2.4375-.2969.9219-.9219 1.4375-.60935.5-1.5625.5-1.23435 0-1.9531-.8906-.84375-1.0625-.84375-3.4844zm1.07815 0q0 2.1094.5 2.8125.5.70314 1.2187.70314.7344 0 1.2188-.70314.5-.7031.5-2.8125 0-2.125-.5-2.8125-.4844-.7031-1.2344-.7031-.71875 0-1.15625.60936-.54685.78124-.54685 2.90624zm5.92185 0q0-1.53124.3125-2.4531.3125-.9375.92185-1.4375.625-.5 1.5625-.5.6875 0 1.20315.28124.53125.28126.875.8125.34375.51562.53125 1.26562.1875.75.1875 2.03124 0 1.51564-.3125 2.4375-.2969.9219-.9219 1.4375-.60935.5-1.5625.5-1.23435 0-1.9531-.8906-.84375-1.0625-.84375-3.4844zm1.07815 0q0 2.1094.5 2.8125.5.70314 1.2187.70314.7344 0 1.2188-.70314.5-.7031.5-2.8125 0-2.125-.5-2.8125-.4844-.7031-1.2344-.7031-.71875 0-1.15625.60936-.54685.78124-.54685 2.90624z" fill="#595959"/>
  <path d="m1048.0906 664.53436v1.01564h-5.6875q0-.375.125-.7344.2187-.5781.6875-1.1406.4844-.5625 1.3906-1.2969 1.4063-1.15624 1.8906-1.8281.5-.6719.5-1.26564 0-.625-.4531-1.04686-.4531-.4375-1.1719-.4375-.7656 0-1.2187.4531-.4531.45314-.4688 1.26564l-1.0781-.10938q.1094-1.21876.8281-1.84376.7344-.6406 1.9688-.6406 1.2344 0 1.9531.6875.7188.6875.7188 1.7031 0 .51564-.2188 1.01564-.2031.48436-.7031 1.04686-.4844.5469-1.6094 1.5-.9531.7969-1.2344 1.09376-.2656.28124-.4375.5625zm1.4531-3.21876q0-1.53124.3125-2.4531.3125-.9375.9219-1.4375.625-.5 1.5625-.5.6875 0 1.2031.28124.5313.28126.875.8125.3438.51562.5313 1.26562.1875.75.1875 2.03124 0 1.51564-.3125 2.4375-.2969.9219-.9219 1.4375-.6094.5-1.5625.5-1.2344 0-1.9531-.8906-.8438-1.0625-.8438-3.4844zm1.0781 0q0 2.1094.5 2.8125.5.70314 1.2188.70314.7344 0 1.2187-.70314.5-.7031.5-2.8125 0-2.125-.5-2.8125-.4843-.7031-1.2343-.7031-.7188 0-1.1563.60936-.5469.78124-.5469 2.90624zm5.9219 0q0-1.53124.3125-2.4531.3125-.9375.9219-1.4375.625-.5 1.5625-.5.6875 0 1.2031.28124.5313.28126.875.8125.3438.51562.5313 1.26562.1875.75.1875 2.03124 0 1.51564-.3125 2.4375-.2969.9219-.9219 1.4375-.6094.5-1.5625.5-1.2344 0-1.9531-.8906-.8438-1.0625-.8438-3.4844zm1.0781 0q0 2.1094.5 2.8125.5.70314 1.2188.70314.7344 0 1.2187-.70314.5-.7031.5-2.8125 0-2.125-.5-2.8125-.4843-.7031-1.2343-.7031-.7188 0-1.1563.60936-.5469.78124-.5469 2.90624zm5.9219 0q0-1.53124.3125-2.4531.3125-.9375.9219-1.4375.625-.5 1.5625-.5.6875 0 1.2031.28124.5313.28126.875.8125.3438.51562.5313 1.26562.1875.75.1875 2.03124 0 1.51564-.3125 2.4375-.2969.9219-.9219 1.4375-.6094.5-1.5625.5-1.2344 0-1.9531-.8906-.8438-1.0625-.8438-3.4844zm1.0781 0q0 2.1094.5 2.8125.5.70314 1.2188.70314.7344 0 1.2187-.70314.5-.7031.5-2.8125 0-2.125-.5-2.8125-.4843-.7031-1.2343-.7031-.7188 0-1.1563.60936-.5469.78124-.5469 2.90624zm5.9219 0q0-1.53124.3125-2.4531.3125-.9375.9219-1.4375.625-.5 1.5625-.5.6875 0 1.2031.28124.5313.28126.875.8125.3438.51562.5313 1.26562.1875.75.1875 2.03124 0 1.51564-.3125 2.4375-.2969.9219-.9219 1.4375-.6094.5-1.5625.5-1.2344 0-1.9531-.8906-.8438-1.0625-.8438-3.4844zm1.0781 0q0 2.1094.5 2.8125.5.70314 1.2188.70314.7344 0 1.2187-.70314.5-.7031.5-2.8125 0-2.125-.5-2.8125-.4843-.7031-1.2343-.7031-.7188 0-1.1563.60936-.5469.78124-.5469 2.90624z" fill="#595959"/>
  <path d="m525.46875 52.45h-1.40625v-8.96875q-.5156.484376-1.34375.96875-.8125.484376-1.46875.734376v-1.359376q1.1719-.5625 2.0469-1.34375.8906-.796874 1.2656-1.53125h.90625zm3.70315-5.65625q0-2.03125.4062-3.265624.4219-1.234376 1.25-1.90625.82815-.671876 2.07815-.671876.92185 0 1.60935.375.70315.359376 1.1563 1.0625.4531.703126.7031 1.703126.2656 1 .2656 2.703124 0 2.015626-.42185 3.265626-.40625 1.234374-1.23435 1.921874-.82815.671876-2.07815.671876-1.65625 0-2.60935-1.203126-1.125-1.421874-1.125-4.65625zm1.4375 0q0 2.828126.6562 3.765626.6719.921874 1.64065.921874.96875 0 1.625-.9375.65625-.9375.65625-3.75 0-2.828124-.65625-3.75-.65625-.9375-1.64065-.9375-.9687 0-1.54685.828126-.73435 1.046874-.73435 3.859374zm7.5625 0q0-2.03125.4062-3.265624.4219-1.234376 1.25-1.90625.82815-.671876 2.07815-.671876.92185 0 1.60935.375.70315.359376 1.1563 1.0625.4531.703126.7031 1.703126.2656 1 .2656 2.703124 0 2.015626-.42185 3.265626-.40625 1.234374-1.23435 1.921874-.82815.671876-2.07815.671876-1.65625 0-2.60935-1.203126-1.125-1.421874-1.125-4.65625zm1.4375 0q0 2.828126.6562 3.765626.6719.921874 1.64065.921874.96875 0 1.625-.9375.65625-.9375.65625-3.75 0-2.828124-.65625-3.75-.65625-.9375-1.64065-.9375-.9687 0-1.54685.828126-.73435 1.046874-.73435 3.859374zm7.5625 0q0-2.03125.4062-3.265624.4219-1.234376 1.25-1.90625.82815-.671876 2.07815-.671876.92185 0 1.60935.375.70315.359376 1.1563 1.0625.4531.703126.7031 1.703126.2656 1 .2656 2.703124 0 2.015626-.42185 3.265626-.40625 1.234374-1.23435 1.921874-.82815.671876-2.07815.671876-1.65625 0-2.60935-1.203126-1.125-1.421874-1.125-4.65625zm1.4375 0q0 2.828126.6562 3.765626.6719.921874 1.64065.921874.96875 0 1.625-.9375.65625-.9375.65625-3.75 0-2.828124-.65625-3.75-.65625-.9375-1.64065-.9375-.9687 0-1.54685.828126-.73435 1.046874-.73435 3.859374zm15.04685 5.65625v-10.109374h-3.78125v-1.34375h9.0781v1.34375h-3.7812v10.109374zm6.90625-9.84375v-1.609374h1.40625v1.609374zm0 9.84375v-8.296874h1.40625v8.296874zm4 0v-8.296874h1.25v1.15625q.3906-.609376 1.03125-.96875.65625-.375 1.48435-.375.9219 0 1.51565.390624.59375.375.82815 1.0625.98435-1.453124 2.5625-1.453124 1.23435 0 1.8906.6875.6719.671874.6719 2.09375v5.703124h-1.39065v-5.234374q0-.84375-.14065-1.203126-.1406-.375-.5-.59375-.35935-.234374-.8437-.234374-.875 0-1.45315.578124-.57815.578126-.57815 1.859376v4.828124h-1.4062v-5.390624q0-.9375-.3438-1.40625-.3437-.46875-1.125-.46875-.5937 0-1.0937.3125-.5.3125-.7344.921874-.21875.59375-.21875 1.71875v4.3125zm18.6719-2.671874 1.4531.171874q-.34375 1.28125-1.28125 1.984376-.92185.703124-2.35935.703124-1.82815 0-2.89065-1.125-1.0625-1.125-1.0625-3.140624 0-2.09375 1.07815-3.25 1.0781-1.15625 2.79685-1.15625 1.65625 0 2.70315 1.140624 1.0625 1.125 1.0625 3.171876 0 .125 0 .375h-6.1875q.0781 1.375.7656 2.109374.7031.71875 1.7344.71875.7812 0 1.3281-.40625.5469-.40625.8594-1.296874zm-4.6094-2.28125h4.625q-.09375-1.046876-.53125-1.5625-.67185-.8125-1.73435-.8125-.9688 0-1.64065.65625-.65625.640624-.71875 1.71875zm11.59375 1.265624 1.4375-.125q.09375.859376.46875 1.421876.375.546874 1.15625.890624.78125.328126 1.75.328126.875 0 1.53125-.25.6719-.265626.9844-.703126.3281-.453124.3281-.984374 0-.546876-.3125-.9375-.3125-.40625-1.03125-.6875-.45315-.171876-2.03125-.546876-1.5781-.390624-2.21875-.71875-.8125-.4375-1.21875-1.0625-.40625-.640624-.40625-1.4375 0-.859374.48435-1.609374.5-.765626 1.4375-1.15625.95315-.390626 2.1094-.390626 1.28125 0 2.25.421876.96875.40625 1.4844 1.203124.5312.796876.5781 1.796876l-1.4531.109374q-.125-1.078124-.7969-1.625-.6719-.5625-2-.5625-1.375 0-2 .5-.625.5-.625 1.21875 0 .609376.4375 1.015626.4375.390624 2.28125.8125 1.85935.421874 2.54685.734374 1 .453126 1.4688 1.171876.48435.703124.48435 1.625 0 .90625-.53125 1.71875-.5156.8125-1.5 1.265624-.9844.453126-2.2031.453126-1.5625 0-2.6094-.453126-1.0469-.46875-1.65625-1.375-.59375-.90625-.625-2.0625zm14.40625 2.421876.2031 1.25q-.5937.125-1.0625.125-.7656 0-1.1875-.234376-.42185-.25-.5937-.640624-.1719-.40625-.1719-1.671876v-4.765624h-1.03125v-1.09375h1.03125v-2.0625l1.40625-.84375v2.90625h1.40625v1.09375h-1.40625v4.84375q0 .609374.0625.78125.07815.171874.25.28125.17185.09375.48435.09375.2344 0 .6094-.0625zm6.6094-1.40625 1.4531.171874q-.34375 1.28125-1.28125 1.984376-.92185.703124-2.35935.703124-1.82815 0-2.89065-1.125-1.0625-1.125-1.0625-3.140624 0-2.09375 1.07815-3.25 1.0781-1.15625 2.79685-1.15625 1.65625 0 2.70315 1.140624 1.0625 1.125 1.0625 3.171876 0 .125 0 .375h-6.1875q.0781 1.375.7656 2.109374.7031.71875 1.7344.71875.7812 0 1.3281-.40625.5469-.40625.8594-1.296874zm-4.6094-2.28125h4.625q-.09375-1.046876-.53125-1.5625-.67185-.8125-1.73435-.8125-.9688 0-1.64065.65625-.65625.640624-.71875 1.71875zm7.9375 8.140624v-11.484374h1.28125v1.078124q.45315-.640624 1.01565-.953124.5781-.3125 1.3906-.3125 1.0625 0 1.875.546874.8125.546876 1.21875 1.546876.42185.984374.42185 2.171874 0 1.28125-.4687 2.296876-.45315 1.015624-1.32815 1.5625-.85935.546874-1.82815.546874-.7031 0-1.2656-.296874-.5469-.296876-.90625-.75v4.046874zm1.2656-7.296874q0 1.609374.64065 2.375.65625.765624 1.57815.765624.9375 0 1.60935-.796874.67185-.796876.67185-2.453126 0-1.59375-.6562-2.375-.6563-.796874-1.5625-.796874-.89065 0-1.5938.84375-.6875.84375-.6875 2.4375zm7.1719 1.625 1.3906-.21875q.1094.84375.64065 1.296874.54685.4375 1.5.4375.96875 0 1.4375-.390624.46875-.40625.46875-.9375 0-.46875-.40625-.75-.29685-.1875-1.4375-.46875-1.54685-.390626-2.15625-.671876-.59375-.296874-.90625-.796874-.29685-.5-.29685-1.109376 0-.5625.25-1.03125.25-.46875.6875-.78125.3281-.25.8906-.40625.5781-.171874 1.21875-.171874.98435 0 1.71875.28125.7344.28125 1.0781.765624.3594.46875.5 1.28125l-1.375.1875q-.0937-.640624-.54685-1-.45315-.359374-1.26565-.359374-.9687 0-1.3906.328124-.40625.3125-.40625.734376 0 .28125.17185.5.1719.21875.5313.375.2187.078124 1.25.359374 1.48435.390626 2.0781.65625.59375.25.9219.734376.3437.484374.3437 1.203124 0 .703126-.42185 1.328126-.40625.609374-1.1875.953124-.76565.34375-1.73435.34375-1.625 0-2.4688-.671874-.8437-.671876-1.0781-2z" fill="#595959"/>
</svg>
